<svg id="Layer_1" data-name="Layer 1" xmlns="http://www.w3.org/2000/svg" viewBox="0 0 257.2 273"><defs><style>.cls-1{fill:#fff;}</style></defs><title>bulkit-square-white</title><path class="cls-1" d="M136,0H254.9a2.26,2.26,0,0,1,2.3,2.3V126.8a2.26,2.26,0,0,1-2.3,2.3H136a2.26,2.26,0,0,1-2.3-2.3V2.3A2.26,2.26,0,0,1,136,0Z"/><path class="cls-1" d="M136,141.3H254.9a2.26,2.26,0,0,1,2.3,2.3V270.7a2.26,2.26,0,0,1-2.3,2.3H136a2.26,2.26,0,0,1-2.3-2.3V143.6A2.26,2.26,0,0,1,136,141.3Z"/><path class="cls-1" d="M2.3,0H121.2a2.26,2.26,0,0,1,2.3,2.3V126.8a2.26,2.26,0,0,1-2.3,2.3H2.3A2.26,2.26,0,0,1,0,126.8V2.3A2.26,2.26,0,0,1,2.3,0Z"/><path class="cls-1" d="M2.3,141.3H121.2a2.26,2.26,0,0,1,2.3,2.3V270.7a2.26,2.26,0,0,1-2.3,2.3H2.3A2.26,2.26,0,0,1,0,270.7V143.6A2.26,2.26,0,0,1,2.3,141.3Z"/></svg>