<?xml version="1.0" encoding="utf-8"?>
<!-- Generator: Adobe Illustrator 25.2.0, SVG Export Plug-In . SVG Version: 6.00 Build 0)  -->
<svg version="1.1" id="Calque_1" xmlns="http://www.w3.org/2000/svg" xmlns:xlink="http://www.w3.org/1999/xlink" x="0px" y="0px"
	 viewBox="0 0 422 422" style="enable-background:new 0 0 422 422;" xml:space="preserve">
<style type="text/css">
	.st0{fill:#D4E1F4;}
	.st1{fill:#1AE5BE;}
	.st2{fill:#0D1226;}
	.st3{fill:#6978A8;}
</style>
<g>
	<path class="st0" d="M363.8,153.5c-1.5-4.6-5.9-7.7-10.7-7.6H28.4c-6.2,0-11.1,4.6-11.1,10.8v6.5h318.5c4.8-0.1,9.2,3,10.7,7.6
		l41.2,127.3h2.5c8.3-0.1,15.2-6.6,15.6-14.9L363.8,153.5z"/>
	<path class="st1" d="M332.1,227.6v-36.3c0-6.2,4.9-10.8,11.1-10.8H377v-12.1h-33.8c-12.7-0.2-23,9.9-23.2,22.6c0,0.1,0,0.2,0,0.3
		v36.3c0,12.9,10.4,23.8,23.2,23.8h57.2v-12.1h-57.2C337,239.3,332.1,233.8,332.1,227.6z"/>
	<rect x="179.9" y="200.4" class="st1" width="12.1" height="102"/>
	<path class="st1" d="M114.2,209.1c0-8.1-6.6-14.7-14.7-14.7H45.9c-8.1,0-14.7,6.6-14.7,14.7v33.7c0,8.1,6.6,14.7,14.7,14.7h53.6
		c8.1,0,14.7-6.6,14.7-14.7V209.1z M102.1,242.8c0,1.4-1.2,2.6-2.6,2.6H45.9c-1.4,0-2.6-1.2-2.6-2.6v-33.7c0-1.4,1.2-2.6,2.6-2.6
		l0,0h53.6c1.4,0,2.6,1.2,2.6,2.6l0,0V242.8z"/>
	<path class="st1" d="M296.6,209.1c0-8.1-6.6-14.7-14.7-14.7h-19c-8.1,0-14.7,6.6-14.7,14.7v33.7c0,8.1,6.6,14.7,14.7,14.7h19
		c8.1,0,14.7-6.6,14.7-14.7V209.1z M284.5,242.8c0,1.4-1.2,2.6-2.6,2.6h-19c-1.4,0-2.6-1.2-2.6-2.6v-33.7c0-1.4,1.2-2.6,2.6-2.6l0,0
		h19c1.4,0,2.6,1.2,2.6,2.6l0,0V242.8z"/>
	<path class="st1" d="M214.8,134.1l-39.3-21.4l60.9-31.9c3-1.6,4.1-5.2,2.6-8.2s-5.2-4.1-8.2-2.6l-70.9,37.2c-3,1.6-4.1,5.2-2.5,8.2
		c0.6,1.1,1.4,1.9,2.5,2.5l49.3,26.8c2.9,1.6,6.6,0.5,8.2-2.4C218.8,139.4,217.7,135.7,214.8,134.1L214.8,134.1z"/>
	<path class="st1" d="M115.9,297.7c-3.3,0-6.1,2.7-6.1,6.1c0,13.4-10.8,24.2-24.2,24.2s-24.2-10.8-24.2-24.2c0-3.3-2.7-6.1-6.1-6.1
		s-6.1,2.7-6.1,6.1c0,20.1,16.3,36.3,36.3,36.3s36.3-16.3,36.3-36.3C121.9,300.4,119.2,297.7,115.9,297.7z"/>
	<path class="st1" d="M199.5,297.7c-3.3,0-6.1,2.7-6.1,6.1c0,13.4-10.8,24.2-24.2,24.2S145,317.1,145,303.7c0-3.3-2.7-6.1-6.1-6.1
		c-3.3,0-6.1,2.7-6.1,6.1c0,20.1,16.3,36.3,36.3,36.3s36.3-16.3,36.3-36.3C205.5,300.4,202.8,297.7,199.5,297.7z"/>
	<path class="st1" d="M283.1,297.7c-3.3,0-6.1,2.7-6.1,6.1c0,13.4-10.8,24.2-24.2,24.2c-13.4,0-24.2-10.8-24.2-24.2
		c0-3.3-2.7-6.1-6.1-6.1s-6.1,2.7-6.1,6.1c0,20.1,16.3,36.3,36.3,36.3s36.3-16.3,36.3-36.3C289.1,300.4,286.4,297.7,283.1,297.7z"/>
	<path class="st1" d="M366.6,297.7c-3.3,0-6.1,2.7-6.1,6.1c0,13.4-10.8,24.2-24.2,24.2c-13.4,0-24.2-10.8-24.2-24.2
		c0-3.3-2.7-6.1-6.1-6.1c-3.3,0-6.1,2.7-6.1,6.1c0,20.1,16.3,36.3,36.3,36.3s36.3-16.3,36.3-36.3C372.7,300.4,370,297.7,366.6,297.7
		z"/>
	<path class="st2" d="M332.1,227.6v-36.3c0-6.2,4.9-10.8,11.1-10.8H377v-12.1h-33.8c-12.7-0.2-23,9.9-23.2,22.6c0,0.1,0,0.2,0,0.3
		v36.3c0,12.9,10.4,23.8,23.2,23.8h57.2v-12.1h-57.2C337,239.3,332.1,233.8,332.1,227.6z"/>
	<rect x="179.9" y="200.4" class="st2" width="12.1" height="102"/>
	<path class="st2" d="M114.2,209.1c0-8.1-6.6-14.7-14.7-14.7H45.9c-8.1,0-14.7,6.6-14.7,14.7v33.7c0,8.1,6.6,14.7,14.7,14.7h53.6
		c8.1,0,14.7-6.6,14.7-14.7V209.1z M102.1,242.8c0,1.4-1.2,2.6-2.6,2.6H45.9c-1.4,0-2.6-1.2-2.6-2.6v-33.7c0-1.4,1.2-2.6,2.6-2.6
		l0,0h53.6c1.4,0,2.6,1.2,2.6,2.6l0,0V242.8z"/>
	<path class="st2" d="M296.6,209.1c0-8.1-6.6-14.7-14.7-14.7h-19c-8.1,0-14.7,6.6-14.7,14.7v33.7c0,8.1,6.6,14.7,14.7,14.7h19
		c8.1,0,14.7-6.6,14.7-14.7V209.1z M284.5,242.8c0,1.4-1.2,2.6-2.6,2.6h-19c-1.4,0-2.6-1.2-2.6-2.6v-33.7c0-1.4,1.2-2.6,2.6-2.6l0,0
		h19c1.4,0,2.6,1.2,2.6,2.6l0,0V242.8z"/>
	<path class="st2" d="M214.8,134.1l-39.3-21.4l60.9-31.9c3-1.6,4.1-5.2,2.6-8.2s-5.2-4.1-8.2-2.6l-70.9,37.2c-3,1.6-4.1,5.2-2.5,8.2
		c0.6,1.1,1.4,1.9,2.5,2.5l49.3,26.8c2.9,1.6,6.6,0.5,8.2-2.4C218.8,139.4,217.7,135.7,214.8,134.1L214.8,134.1z"/>
	<path class="st2" d="M115.9,297.7c-3.3,0-6.1,2.7-6.1,6.1c0,13.4-10.8,24.2-24.2,24.2s-24.2-10.8-24.2-24.2c0-3.3-2.7-6.1-6.1-6.1
		s-6.1,2.7-6.1,6.1c0,20.1,16.3,36.3,36.3,36.3s36.3-16.3,36.3-36.3C121.9,300.4,119.2,297.7,115.9,297.7z"/>
	<path class="st2" d="M199.5,297.7c-3.3,0-6.1,2.7-6.1,6.1c0,13.4-10.8,24.2-24.2,24.2S145,317.1,145,303.7c0-3.3-2.7-6.1-6.1-6.1
		c-3.3,0-6.1,2.7-6.1,6.1c0,20.1,16.3,36.3,36.3,36.3s36.3-16.3,36.3-36.3C205.5,300.4,202.8,297.7,199.5,297.7z"/>
	<path class="st2" d="M283.1,297.7c-3.3,0-6.1,2.7-6.1,6.1c0,13.4-10.8,24.2-24.2,24.2c-13.4,0-24.2-10.8-24.2-24.2
		c0-3.3-2.7-6.1-6.1-6.1s-6.1,2.7-6.1,6.1c0,20.1,16.3,36.3,36.3,36.3s36.3-16.3,36.3-36.3C289.1,300.4,286.4,297.7,283.1,297.7z"/>
	<path class="st2" d="M366.6,297.7c-3.3,0-6.1,2.7-6.1,6.1c0,13.4-10.8,24.2-24.2,24.2c-13.4,0-24.2-10.8-24.2-24.2
		c0-3.3-2.7-6.1-6.1-6.1c-3.3,0-6.1,2.7-6.1,6.1c0,20.1,16.3,36.3,36.3,36.3s36.3-16.3,36.3-36.3C372.7,300.4,370,297.7,366.6,297.7
		z"/>
	<path class="st3" d="M28.4,310.2h361.7c15.4-0.1,27.7-12.6,27.7-28c0-0.7-0.1-1.3-0.3-2l-42.3-130.5c-3.1-9.6-12.1-16.1-22.2-16
		H28.4c-12.7-0.2-23,9.9-23.2,22.6c0,0.1,0,0.2,0,0.3v129.7C5.2,299.3,15.6,310.2,28.4,310.2z M148.7,298.1v-91.7h74.4v91.7
		L148.7,298.1L148.7,298.1z M17.3,156.7c0-6.2,4.9-10.8,11.1-10.8H353c4.8-0.1,9.2,3,10.7,7.6l42,129.7c-0.5,8.3-7.3,14.8-15.6,14.9
		H235.2V200c0-3.3-2.7-5.6-6.1-5.6h-86.4c-3.3,0-6.1,2.3-6.1,5.6v98.1H28.4c-6.2,0-11.1-5.5-11.1-11.7V156.7z"/>
	<path class="st3" d="M415.9,340.5H6.1c-3.3,0-6.1,2.7-6.1,6.1s2.7,6.1,6.1,6.1H416c3.3,0,6.1-2.7,6.1-6.1S419.3,340.5,415.9,340.5z
		"/>
	<path class="st3" d="M192,69.8c-3.3,0-6.1,2.7-6.1,6.1s2.7,6.1,6.1,6.1h65.7c3.3,0,6.1-2.7,6.1-6.1s-2.7-6.1-6.1-6.1L192,69.8
		L192,69.8z"/>
</g>
</svg>
