<svg xmlns="http://www.w3.org/2000/svg" xmlns:xlink="http://www.w3.org/1999/xlink" viewBox="0 0 804.94 561.26"><defs><style>.cls-1{fill:url(#Áåçûìÿííûé_ãðàäèåíò_9);}.cls-2{fill:url(#Áåçûìÿííûé_ãðàäèåíò_9-2);}.cls-3{fill:url(#Áåçûìÿííûé_ãðàäèåíò_9-3);}.cls-4{fill:url(#Áåçûìÿííûé_ãðàäèåíò_9-4);}.cls-5{fill:url(#Áåçûìÿííûé_ãðàäèåíò_9-5);}.cls-6{fill:url(#Áåçûìÿííûé_ãðàäèåíò_9-6);}.cls-7{fill:url(#Áåçûìÿííûé_ãðàäèåíò_9-7);}.cls-8{fill:url(#Áåçûìÿííûé_ãðàäèåíò_9-8);}.cls-9{fill:url(#Áåçûìÿííûé_ãðàäèåíò_9-9);}.cls-10{fill:url(#Áåçûìÿííûé_ãðàäèåíò_9-10);}.cls-11{fill:url(#Áåçûìÿííûé_ãðàäèåíò_9-11);}.cls-12{mask:url(#mask);}.cls-13{fill:#00c8ff;}.cls-14,.cls-15{opacity:0.89;}.cls-14{fill:url(#Áåçûìÿííûé_ãðàäèåíò_2);}.cls-15{fill:url(#Áåçûìÿííûé_ãðàäèåíò_3);}.cls-16,.cls-17,.cls-18{fill:#00f6ff;}.cls-16{opacity:0.47;}.cls-18{opacity:0.46;}.cls-19{fill:#ddfcfd;}.cls-20{mask:url(#mask-2);}.cls-21{fill:#ecfafc;}.cls-22{mask:url(#mask-3);}.cls-23{mask:url(#mask-4);}.cls-24{mask:url(#mask-5);}.cls-25{mask:url(#mask-6);}.cls-26{mask:url(#mask-7);}.cls-27{mask:url(#mask-8);}.cls-28{mask:url(#mask-9);}.cls-29{mask:url(#mask-10);}.cls-30{mask:url(#mask-11);}</style><radialGradient id="Áåçûìÿííûé_ãðàäèåíò_9" cx="1203.67" cy="1614.51" r="271.38" gradientTransform="translate(1510.8 2156.14) rotate(180) scale(1 1.16)" gradientUnits="userSpaceOnUse"><stop offset="0" stop-color="#fff"/><stop offset="0.22" stop-color="#bdbdbd"/><stop offset="0.5" stop-color="#6d6d6d"/><stop offset="0.73" stop-color="#323232"/><stop offset="0.9" stop-color="#0e0e0e"/><stop offset="0.99"/></radialGradient><radialGradient id="Áåçûìÿííûé_ãðàäèåíò_9-2" cx="594.45" cy="1206.49" r="12.37" gradientTransform="translate(420.92 -1123.87) rotate(22.68)" xlink:href="#Áåçûìÿííûé_ãðàäèåíò_9"/><radialGradient id="Áåçûìÿííûé_ãðàäèåíò_9-3" cx="519.12" cy="1166.47" r="6.09" gradientTransform="translate(-90.26 -987.95)" xlink:href="#Áåçûìÿííûé_ãðàäèåíò_9"/><radialGradient id="Áåçûìÿííûé_ãðàäèåíò_9-4" cx="384.15" cy="1196.54" r="7.36" gradientTransform="translate(1370.64 -439.4) rotate(76.76)" xlink:href="#Áåçûìÿííûé_ãðàäèåíò_9"/><radialGradient id="Áåçûìÿííûé_ãðàäèåíò_9-5" cx="520.97" cy="1247.31" r="8.22" gradientTransform="translate(-90.26 -987.95)" xlink:href="#Áåçûìÿííûé_ãðàäèåíò_9"/><radialGradient id="Áåçûìÿííûé_ãðàäèåíò_9-6" cx="551.89" cy="1310.87" r="8.22" gradientTransform="translate(1611.33 -514.44) rotate(76.76)" xlink:href="#Áåçûìÿííûé_ãðàäèåíò_9"/><radialGradient id="Áåçûìÿííûé_ãðàäèåíò_9-7" cx="425.03" cy="1292.66" r="8.22" gradientTransform="translate(948.28 -909.89) rotate(45)" xlink:href="#Áåçûìÿííûé_ãðàäèåíò_9"/><radialGradient id="Áåçûìÿííûé_ãðàäèåíò_9-8" cx="471.7" cy="1336.54" r="6.09" gradientTransform="translate(-90.26 -987.95)" xlink:href="#Áåçûìÿííûé_ãðàäèåíò_9"/><radialGradient id="Áåçûìÿííûé_ãðàäèåíò_9-9" cx="397.59" cy="1236.24" r="6.09" gradientTransform="translate(-90.26 -987.95)" xlink:href="#Áåçûìÿííûé_ãðàäèåíò_9"/><radialGradient id="Áåçûìÿííûé_ãðàäèåíò_9-10" cx="529.19" cy="1363.7" r="6.09" gradientTransform="translate(-90.26 -987.95)" xlink:href="#Áåçûìÿííûé_ãðàäèåíò_9"/><radialGradient id="Áåçûìÿííûé_ãðàäèåíò_9-11" cx="446.96" cy="1123.94" r="6.09" gradientTransform="translate(-90.26 -987.95)" xlink:href="#Áåçûìÿííûé_ãðàäèåíò_9"/><mask id="mask" x="-3.73" y="4.53" width="621.72" height="552.99" maskUnits="userSpaceOnUse"><ellipse class="cls-1" cx="307.13" cy="281.03" rx="271.38" ry="315.19" transform="translate(-59.04 479.08) rotate(-70.87)"/></mask><radialGradient id="Áåçûìÿííûé_ãðàäèåíò_2" cx="339.67" cy="211.71" r="311.88" gradientTransform="translate(319.08 -201.67) rotate(45)" gradientUnits="userSpaceOnUse"><stop offset="0" stop-color="#00779b"/><stop offset="0.09" stop-color="#007396"/><stop offset="0.2" stop-color="#006787"/><stop offset="0.32" stop-color="#00536d"/><stop offset="0.44" stop-color="#00384a"/><stop offset="0.58" stop-color="#00151e"/><stop offset="0.65" stop-color="#000104"/><stop offset="0.7" stop-color="#00090e"/><stop offset="0.8" stop-color="#001e28"/><stop offset="0.93" stop-color="#004152"/><stop offset="1" stop-color="#00576d"/></radialGradient><linearGradient id="Áåçûìÿííûé_ãðàäèåíò_3" x1="273.04" y1="133.9" x2="538.96" y2="399.83" gradientUnits="userSpaceOnUse"><stop offset="0" stop-color="#007a99"/><stop offset="0" stop-color="#007b9a"/><stop offset="0.07" stop-color="#00a2c5"/><stop offset="0.13" stop-color="#00bee5"/><stop offset="0.19" stop-color="#00cff8"/><stop offset="0.22" stop-color="#00d5ff"/><stop offset="0.27" stop-color="#00c0e7"/><stop offset="0.41" stop-color="#008aac"/><stop offset="0.51" stop-color="#006887"/><stop offset="0.56" stop-color="#005b79"/><stop offset="0.64" stop-color="#006483"/><stop offset="0.78" stop-color="#007b9d"/><stop offset="0.94" stop-color="#009ac1"/></linearGradient><mask id="mask-2" x="491.82" y="206.17" width="24.74" height="24.74" maskUnits="userSpaceOnUse"><circle class="cls-2" cx="504.19" cy="218.54" r="12.37" transform="translate(-45.28 211.31) rotate(-22.68)"/></mask><mask id="mask-3" x="286.54" y="201.23" width="14.71" height="14.71" maskUnits="userSpaceOnUse"><circle class="cls-4" cx="293.89" cy="208.58" r="7.36" transform="translate(23.54 446.89) rotate(-76.76)"/></mask><mask id="mask-4" x="422.49" y="251.13" width="16.44" height="16.44" maskUnits="userSpaceOnUse"><circle class="cls-5" cx="430.72" cy="259.35" r="8.22"/></mask><mask id="mask-5" x="453.41" y="314.69" width="16.44" height="16.44" maskUnits="userSpaceOnUse"><circle class="cls-6" cx="461.64" cy="322.91" r="8.22" transform="translate(41.61 698.36) rotate(-76.76)"/></mask><mask id="mask-6" x="326.56" y="296.48" width="16.44" height="16.44" maskUnits="userSpaceOnUse"><circle class="cls-7" cx="334.78" cy="304.71" r="8.22" transform="translate(-117.41 325.97) rotate(-45)"/></mask><mask id="mask-7" x="375.35" y="342.5" width="12.17" height="12.17" maskUnits="userSpaceOnUse"><circle class="cls-8" cx="381.44" cy="348.59" r="6.09"/></mask><mask id="mask-8" x="301.25" y="242.2" width="12.17" height="12.17" maskUnits="userSpaceOnUse"><path class="cls-9" d="M313.42,248.29a6.09,6.09,0,1,1-6.09-6.09A6.09,6.09,0,0,1,313.42,248.29Z"/></mask><mask id="mask-9" x="432.85" y="369.67" width="12.17" height="12.17" maskUnits="userSpaceOnUse"><path class="cls-10" d="M445,375.75a6.09,6.09,0,1,1-6.08-6.08A6.09,6.09,0,0,1,445,375.75Z"/></mask><mask id="mask-10" x="350.62" y="129.9" width="12.17" height="12.17" maskUnits="userSpaceOnUse"><circle class="cls-11" cx="356.7" cy="135.98" r="6.09"/></mask><mask id="mask-11" x="422.77" y="172.43" width="12.17" height="12.17" maskUnits="userSpaceOnUse"><path class="cls-3" d="M434.94,178.52a6.09,6.09,0,1,1-6.08-6.09A6.08,6.08,0,0,1,434.94,178.52Z"/></mask></defs><g id="Text"><g class="cls-12"><path class="cls-13" d="M458.71,533.78l124-357.34C545.2,109.74,479.85,53.7,396.08,24.63,274.53-17.53,148.24,8.91,70.78,82.74l-72,207.59c15.09,106,97.87,204.92,219.42,247.09C302,566.48,388,563,458.71,533.78Z"/></g><circle class="cls-14" cx="402.98" cy="284.32" r="201.51" transform="translate(-83.02 368.23) rotate(-45)"/><path class="cls-15" d="M580,259.78c-4.54-3.91-6.09-8.4-4.76-14a29.56,29.56,0,0,1,2.08-4.83l1,.23a8.23,8.23,0,0,0,.72,2.33,4.77,4.77,0,0,0,1.63,1.1c-.83-2.71-.17-4.69,1.39-7.42,3.22-5.65,3-12.61,1.74-18.73-1.72-8.67-4.65-17.22-10.3-24.38-1.43-1.8-2.24-5-5.78-3.82-.17.06-.69-.42-.78-.73-.62-2.16-1.14-4.34-1.74-6.5-.28-1-.68-2-1-3l-2.77,1.73c-2.27-2-4.87-4.22-4.74-8.5l3.76,4.41-.4-4.85.87-.2c.59.83,1.17,1.68,1.79,2.48s1.17,2,1.82,2c3.28.21,4.34,2.8,5.82,5,.89,1.29,1.64,2.68,2.45,4l.67-.26c-.28-1-.3-2.23-.89-3-2.64-3.47-5.43-6.83-8.2-10.2a39.93,39.93,0,0,1-2.78-3.21c-1.7-2.65-3.33-5.36-4.79-8.15-1.12-2.13-1.5-4.79-3-6.57-4.09-4.89-8.52-9.5-12.95-14.1-2.18-2.28-5.35-3.89-6.8-6.51-2-3.6-5.47-4.75-8.28-7.16-.58,1-1,1.72-1.66,2.79-6.48-5.39-13.22-10.09-18-17.31l2.32.33a24.21,24.21,0,0,0-2.3-1.65A202.08,202.08,0,0,0,463,92.58h-2.53l.14,0c2.43.54,5.4.8,5.35,4l-4.22,1.92c1.42,1.46,2.52,2,3.09-.06.94.88,1.81,1.59,2.54,2.43s1.3,1.77,1.95,2.67c-5.7-1.79-6.31-1.81-7.91.06l2.2,1.35-5.76,1.68-1.66-1c.1.75.16,1.22.22,1.69a7.46,7.46,0,0,0-6.7-3.88,62.55,62.55,0,0,0-7,.55c1,3.45-2.28,5-3.78,7.54l2.57,2.23c-2.93.69-5.11,1.1-7.23,1.74-.73.22-1.31,1-2.3,1.77L428.63,116c-.13,2.13-.25,4-.41,6.54l5.51,4.19-14.24-3c-.05.12-.09.24-.14.35l3.85,2.33a11.91,11.91,0,0,1-5,.61c-4.62-.4-8.45,1.43-12.1,4a8.9,8.9,0,0,1-2.66.82c-.09-.28-.17-.56-.25-.84l2.8-2.05-5-.94V133c-2.32-1.17-4.47-.34-5.29,1.68-1,2.51-2.12,2.43-4,1.34-.42-.24-1.09,0-2.09,0l1.61,2.38c-5.84.63-2.6-4-4-6.26,3.78,1.23,7.52,3.06,11.26-1.44a64.1,64.1,0,0,0-6.84-4.08,64.52,64.52,0,0,0-7.55-2.29l1.54-1c-3.76-3-7.63-1.21-11.42-.5s-7.74,1.6-10.73,2.22c-.61,1.26-.72,2-1.13,2.25a29.51,29.51,0,0,1-5.85,3.42c-2.9,1-4.9,3.55-8.55,3.71-3.28.14-6.82,2.12-9.55,4.19-2.31,1.75-3.63,4.8-5.44,7.34,4.34,3.4,7-1,10.08-.71-.84,3.54-1.72,7.23-2.71,11.37,2.45-.71,4.64-1.25,6.76-2a4.46,4.46,0,0,0,2.05-1.67c1.58-2.44,3.12-4.66,6.42-5.08,1.77-.23,2.62-2.67,1.39-3.38-2.26-1.31-1.05-2.41.06-3.19,2.25-1.59,4.71-2.87,7-4.36a19.5,19.5,0,0,0,3.65-2.77c1.77-1.81,4-1.86,5.61,0-2.43,1.4-4.89,2.79-7.31,4.26a5.06,5.06,0,0,0-1.87,1.64c-1,1.75-1.8,3.62-2.71,5.52a17.92,17.92,0,0,0,3.93,1.06c1.7.12,3.43-.42,5.14-.38a32.17,32.17,0,0,1,4.54.7l-.12,1.29a43.76,43.76,0,0,0-6.38.06c-2.6.39-5.48.7-7.6,2.05s-3.39,3.82-4.85,5.94c-2.18,3.15-4.11,3.89-7.68,2.84a4.77,4.77,0,0,0-2.23.18c-1.22.28-2.39.72-3.6,1-1.6.33-2.94.12-2.73-2-4.2.84-4.2.84-5-.71.6-1.29,1-2,1.29-2.79.17-.39.21-1.14.42-1.18,2.37-.43,1.44-2.91,2.86-3.94-4.67-.07-7.28,2-8.1,6.45-.33,1.77-1.76,2.44-3.68,2.47a19,19,0,0,0-6.07.91A57,57,0,0,0,314.2,163a16.43,16.43,0,0,0-3.07,2c-2.45,2.09-5.25,2.37-7.25.37-.67,2.58-1.71,3.95-4.2,1.56-.43-.41-2,.39-3.09.63.24.82.5,1.64.71,2.47s.51,1.94.67,2.93c.67,4.26-2.56,6.65-4.71,9.52a2.4,2.4,0,0,1-2.17.41c-2.75-1.09-5.4-2.42-8.13-3.55-2-.83-3.48-.43-4.72,1.65-1.89,3.17-4.37,6-6.22,9.18a80.58,80.58,0,0,0-3.82,8.67h3.47c.13,1.64.25,3.1.37,4.56a8.42,8.42,0,0,1,6.89-.55c1.05.35,2.62-.88,3.95-1.39,2.77-1,4.93-2.48,6.28-5.47a6.74,6.74,0,0,1,6.39-4.08c1.65,0,3.64-1.6,4.82-3,2.25-2.7,3.11-3.22,5.85-1.31,1.65,1.15,2.89.59,4.49,0,2.25-.78,4.61-3.36,7-.3-.78,4.38.46,7.63,4.26,10.25,1.71,1.18,2.8,3.56,3.59,5.62.34.88-.49,2.66-1.34,3.44-1.64,1.52-3.72,1.58-5.88.68a12.31,12.31,0,0,0-3.31-.4c-.11.39-.23.77-.35,1.16,2,1.56,4,3.11,6.6,5.14.12-3,.28-4.74,3.14-4.77,1.25,0,2.48-1.78,3.13-2.29.38-1.93.66-3.31.93-4.69l3.9,2c.39-2.33-1.29-3.35-2.75-4.58a4.58,4.58,0,0,1-1.32-2.41c-2.26-.68-3.81-1.81-3.34-4.72a3.62,3.62,0,0,0-.59-2.13c-1.89-3.23-.88-5.47,3.1-6.08l-1,2.76,2.09.11a6,6,0,0,0,3.3,6c1.65.94,2.77,2.86,4,4.47a2.27,2.27,0,0,1,.27,2.06c-1.79,2.11-.29,4.21-.17,6.28.08,1.39.37,2.76.57,4.19l1.06-.32a14,14,0,0,1-.11,1.59c-.35,2.21.41,3.35,3,4.82.28.16.23.93,1,1.34-.1-1.29-.2-2.59-.3-3.91l3.34-.53c.26-.72.59-1.66.95-2.69l-2.16-1.35V203.1l2.35,1.22c1.72-2.39,3.4-2.66,6.1-1.54a10.89,10.89,0,0,0,4,.31c1.43,0,2.86-.15,4.29-.23l.13,1.39c-1.69.12-3.39.28-5.08.37s-3.7-1.17-4.3,1.79L353,207a47.28,47.28,0,0,0,.05,6.33c.45,3.21,5.47,5.36,8.42,4a3.63,3.63,0,0,1,3.17.63c2.12,1.88,4,2.1,6.44.49.79-.53,2.08-.32,3.14-.45l3-.33c-1.16,5.54-2.22,11.14-5.74,15.85-2.41,3.2-4.7,3.63-8.22,1.69-1.92-1.06-3.72-1.4-5.61,0-2.31,1.65-4.57,1.27-7,.11-3.37-1.61-6.89-2.9-10.3-4.44a7.76,7.76,0,0,1-2.18-1.8c-2-2-4.36-1.79-6.71-1.22-2.13.51-2.36,2.29-2.69,4.21a4.85,4.85,0,0,1-2.53,3c-.67.3-2-.8-3-1.39-.56-.33-.94-1.3-1.44-1.32-3.66-.19-5.13-2.34-6.26-5.59a4.5,4.5,0,0,0-5.1-2.82c-2.35.34-3.51-1.19-3.52-3.78L304.71,219a13.66,13.66,0,0,0,3.67-4.64,33.71,33.71,0,0,0,1.15-5l-1.85-1.13v.43c-2-.38-3.95-.87-5.95-1.11a29.87,29.87,0,0,0-4.12.06c-.55,0-1.19.22-1.63,0-5.51-2.6-10.82-1.43-16.1.7-.51.21-1.31.48-1.62.24-2.14-1.64-5.88-1.28-6.35-5a11.1,11.1,0,0,0-2,1.94c-1.46,2.33-3.21,3.88-6.2,4a4.87,4.87,0,0,0-3.15,1.77A61.36,61.36,0,0,0,255.8,218c-2,3.26-4.57,5.45-8.59,5.72-.74,0-1.46,1-2.12,1.62s-1.38,1.51-2.09,2.25c-1.16,1.21-2.39,2.36-3.51,3.62-.62.7-1,1.58-1.63,2.31-2.25,2.79-4.6,5.51-6.78,8.35a4.53,4.53,0,0,0-.56,2.41c-.3,6.09-1.18,12.18-4.65,17.2a20.79,20.79,0,0,0-3.24,8.83,19.58,19.58,0,0,0,.88,9.84,150.8,150.8,0,0,1,4.81,17.58c1.05,5,3.84,8.69,7.43,11.93a4.47,4.47,0,0,0,3.09.8c3.41-.3,6.67-.25,9.59,1.93a3.74,3.74,0,0,0,2.37.7c3.6-.29,7.19-.71,10.78-1.14,5.49-.65,7,.36,8.27,5.69.83,3.46,1.72,4.16,5.3,4.22,5.31.08,8,3,7.78,8.46a12.08,12.08,0,0,1-.15,2,46.48,46.48,0,0,1-1.5,6.7,8.89,8.89,0,0,0,1.48,9c4.81,6.38,8.13,13.59,11.44,20.8.4.87,1.25,2.17.94,2.61-2.1,3,.35,5,1.51,7.14,1.43,2.67,1.39,5-.49,7.46a13.38,13.38,0,0,0-2.58,10,19.85,19.85,0,0,0,6.07,12.32,27.5,27.5,0,0,1,6.94,11.35,31.94,31.94,0,0,0,8.34,13.46c3.53,3.52,8.28,6.5,9.14,12.37.34,2.28,4.72,4.39,7.38,4.31,3.29-.1,6.64-.55,9.88-.15,4.5.56,8.76.63,12.36-2.49,2.37-2.06,4.32-4.62,6.76-6.58,3.23-2.6,4.59-5.45,2.15-9.72,1.9-.58,3.48-1.09,5.08-1.55,2.45-.7,3.91-2.2,3.37-4.82a39.06,39.06,0,0,0-1.86-5.63c-1.15-3.13-.79-4.29,2.08-5.89,3.66-2,7.37-4,11-6,3.09-1.74,5.29-4.33,5.28-8a75.87,75.87,0,0,0-1.07-9.94,5,5,0,0,0-1-2.28c-2.25-2.9-3.75-5.93-2.86-9.81a3.49,3.49,0,0,0-1.07-2.86c-1.81-1.49-2-3.49-.77-4.8,3.08-3.23,2.19-9.05,7.26-10.88.22-.08.35-.45.51-.68,4.1-6.11,9.49-10.84,15.24-15.38A51.36,51.36,0,0,0,414.36,331c3.13-4.64,5.17-10,7.66-15a25.54,25.54,0,0,0,2.06-4.57c.27-1-.19-2.19-.31-3.29-.07-.67,0-1.83-.22-1.91a3.57,3.57,0,0,0-2.35.06c-1.19.5-2.18,1.52-3.39,1.95-1.59.56-2.47.73-2.93.34h-1.63a1.25,1.25,0,0,1-.58.43,61.64,61.64,0,0,1-8.09,1.45,3.15,3.15,0,0,0-1.31.49c-2.21,1.64-3.53.61-5-1.26-.86-1.12-2.39-1.74-3.57-2.55,2.19-2.33,2.21-3-.23-5.45-1.76-1.75-3.38-3.66-5.28-5.23a40.39,40.39,0,0,0-5-3.1c-1-1.46-1.43-3.63-2.09-5.71-.42-1.34-.91-2.92-1.9-3.75a10,10,0,0,1-3.8-8,21.59,21.59,0,0,0-.84-5.66c-.37-1.22-1.5-2.2-2.14-3.36a26,26,0,0,1-1.87-4.09c-.39-1.14-.26-2.46-.69-3.58-1.45-3.76-3.05-7.47-4.79-11.68,1.53.37,2.41.86,2.73.62,2.79-2.07,3.64-.1,4.51,2q2.07,5,4.19,9.92a2,2,0,0,0,.7.88c3.4,2,4.1,5.07,4.27,8.75.09,1.9,1,4.46,2.45,5.45,2.25,1.56,3.27,3.56,4.33,5.82.71,1.52,1.89,2.81,2.74,4.28a18.13,18.13,0,0,1,2.32,4.77c.73,3.23.87,6.58,1.54,9.83.93,4.56,3.73,5.38,7.62,2.62,1.1-.79,2.65-.93,4-1.39,2.7-.94,5.45-1.78,8.08-2.9,1.87-.8,3.56-2,5.36-3s4.43-1.47,5.31-3c1.76-3,4.35-4.19,7.31-4.7,2.16-.37,3.73-.76,3.47-3a14.94,14.94,0,0,0,3.46-1.62,50.39,50.39,0,0,0,4-4.31c.25-1.08.14-3.64,1.06-4.08,3.42-1.63,3.7-5,5.38-7.49-2.27-2.69-4.43-4.75-8.05-5.11-2.35-.24-3.92-2.22-3.88-5a30.41,30.41,0,0,0-.32-3.42l-.88-.38c-.42.63-.85,1.25-1.25,1.89-2.39,3.82-5,7.21-10.27,6.86-1.93-.13-3.32-.14-3.32-2.6a32.32,32.32,0,0,0-.68-4.66l-.67.12-1.29,3.87a9,9,0,0,1-1.32-4.53c.08-2.44-.88-3.78-3.08-4.84-2.63-1.27-3.75-3.79-4.33-6.69l6.24-1.8c1.09,2.09,2.16,4.31,3.4,6.43a5.18,5.18,0,0,0,2,1.68c1.37.77,2.83,1.39,4.26,2.06,1.25.59,2.55,1.73,3.75,1.64a67.43,67.43,0,0,0,8.49-1.68,13.28,13.28,0,0,0,1.2,2.55c.59.88,1.4,2,2.3,2.23,7.36,1.65,14.74.91,22-.44,3.53-.66,5.48-.16,7.76,2.57a89,89,0,0,0,9.14,9.77c2.36,2.08,5.2,4.05,8.29,2.91,1,2.1,1.85,4,2.74,5.95.68,1.46,1.39,2.91,2.06,4.39,2.64,5.78,5.25,11.58,7.9,17.37,1.34,2.91,2.66,5.84,4.14,8.69a19.34,19.34,0,0,0,3.07,4.7c1.28,1.31,2.48.78,3.23-1a39.09,39.09,0,0,1,2.57-4.38c-1.27-1.69.34-2.58,1.64-3,.32-3.55.67-6.69.84-9.84A11.82,11.82,0,0,0,518,290c-.36-1.49-.93-2.92-1.27-4.41s-.36-2.61,1.4-3.54a11.32,11.32,0,0,0,4.19-3.91c2.37-3.94,4.2-8.21,6.57-12.15,1.5-2.48,5-4,2.93-7.19l12-3.5c2,2,5.69,3.18,6.48,7.18.06.32.5.54.7.85a18.31,18.31,0,0,1,2.14,3.55c.36,1-.22,2.42.22,3.37a8,8,0,0,0,2.66,3c.27.19,1.51-1,2.32-1.58s1.68-1,2.81-1.76c2.06,4.43,6.3,7.7,4.66,13.19,2.89,4.34,1.54,9.39,2.68,13.82,1.37,1.06,2.81,2.21,3.37,3.69a53.33,53.33,0,0,1,2.43,8.8c.88,4.46,4,8.05,7.32,8.15-.64-4.36-1.2-8.74-2-13.08a4.41,4.41,0,0,0-1.93-2.44,12.28,12.28,0,0,1-5.72-8.13c-.4-2.17-3-3-2.74-5.63.27-3.4-.09-6.84-.1-10.27a11.37,11.37,0,0,1,.89-2.64c.56,1.69.83,2.51,1.17,3.56,2.07-1.61,3-.36,4,1.19.8,1.29,1.59,3.16,2.78,3.54,3.16,1,2.63,3.31,2.66,5.57a17.27,17.27,0,0,0,.22,1.76l.85.18c1.28-3.74,2.79-7.42,3.79-11.24C587.52,272.21,586.17,265.1,580,259.78ZM352.91,379.38c-1.81-2.61-4.17-5-5.27-7.88s-1-6.33-1.4-9.52l1.23-.05c.49,3,.52,6.26,1.6,9.07s3.19,5.12,4.85,7.66Zm7.75-24c-.44.14-.84.38-1.5.67l2.8,1.19-.07.51h-6.54a62.88,62.88,0,0,1,.1-7c.08-.66,1.32-1.33,2.16-1.72a3,3,0,0,1,2,.05c1.31.42,3.41.74,3.68,1.58A3.51,3.51,0,0,1,360.66,355.36Zm6,35.07c.25,2.61-.63,5.31,2,7.4-2.25.17-3.13-.48-3.41-2.64-.33-2.61-.42-5.24-.77-7.85-.2-1.53-.68-3-1.15-5C366.57,384.52,366.41,387.79,366.66,390.43Zm11.17-246.22c.68.07,1.62-.12,2,.26a9.66,9.66,0,0,1,1.34,2.55l-3.31,1.06Zm-14.45,6.61a2.88,2.88,0,0,1,.47,2c-.26.68-1.1,1.14-1.69,1.7l-2.5-2.91A23.64,23.64,0,0,1,363.38,150.82ZM393.76,202a17.89,17.89,0,0,1-5.45,2.45c-4.65.94-8.44-2.19-12.66-3.3-2.93-.78-5.41-.74-7.93.79-2.33,1.41-7.19.74-8.89-1.31a4.08,4.08,0,0,1-.89-2.05c-.22-2,3.86-6.92,5.64-7.89a49.88,49.88,0,0,0,5.83-4.23l5.15,1.61-2.68,1.08c.81,1.16,1.59,2.29,2.52,3.61a14.2,14.2,0,0,1,5.81-1.59v-.86c-.28,0-.56-.12-.86-.2a2.37,2.37,0,0,1-1.52-1.38,2.08,2.08,0,0,1,1-1.72c1.81-.76,3.72-1.27,5.79-1.94a6.89,6.89,0,0,1,.25,1c.07,2.84-.86,4.28-2.94,4.39v.91a6.26,6.26,0,0,1,1.8.73,75.68,75.68,0,0,1,9.75,7.44A2.78,2.78,0,0,1,393.76,202Zm33.93,2.88-4.38-.5c-.69,1.81-.7,3.34,2.27,3.44l-1.19,1.86c4,1.26,2.49,4.66,3.24,7.35a49,49,0,0,1-5.83,1.63,6.66,6.66,0,0,1-3.25-.66,39.47,39.47,0,0,1-4.09-2,2.79,2.79,0,0,1-1-.9c-1.25-2,1-8.07,3.39-8.78-3.7-2.75-7.24-5.56-7.47-11.06l-1.73-1c.64-1.26,3.28-1.7,1.6-3a42,42,0,0,0,4-3.52c2-2.26,5.64-3.38,8-1.66.94.69.79,2.84,1.14,4.32l-1.07-.06-6.08,2.22c1.8,2,3.32,3.42,4.59,5.07s2.24,3.47,3.32,5.16c.51-.72,1.05-1.46,1.59-2.2l3.51,3.3Zm12.47-14.36a13.93,13.93,0,0,1,.51,2.92l-1.41.43c-.69-1.87-1.37-3.74-2.18-5.94,2.41-3.15,3.37-3.44,5-1.41C438.77,187.14,438.82,187.12,440.16,190.47Zm37.28-8.78c-4,.14-4.63.69-4.43,4.58l-.75.45c-.39-.91-1.32-2.07-1.05-2.68a4.82,4.82,0,0,1,2.64-2.56,25,25,0,0,1,8.38-.59A34.69,34.69,0,0,1,477.44,181.69ZM516.14,153c-.06.64-1.06,1.19-1.83,1.54,2-5.2-1.56-8.44-3.64-12.22C514,145.11,516.57,148.34,516.14,153ZM381.24,85.85c-1.83.42-3.55.72-5.13.93l5.46.83c-.76,4.29-4.61,3.35-8,5l5.66,2.17.1.82-5.65,1.84,2,1.47c-13.26,2.56-25.79,7.77-38.81,12.55.58-.66,1.05-1.21,1.76-2-.78.16-1.39.11-1.76.39a21.66,21.66,0,0,0-2.23,2.32c-2.29.12-5.35,1.51-8.79-.29-1.35-.7-3.88,1-5.93,1.42-1.14.21-2.39-.25-3.58-.16a12,12,0,0,0-3.54.78c-5,2-9.93,4.15-15,6.28,2.59-5,7.2-7,11.71-9.21,5-2.4,9.93-4.78,15-7,1.8-.8,4.13,0,5.61-2.2.51-.78,2.43-.65,3.71-.89.53-.1,1.26.13,1.59-.16,4.23-3.64,9.91-3.09,14.69-5.13,3.82-1.63,7.52-3.74,11.8-4,1.31-.08,2.64.26,4,.26,1,0,2-.35,3-.33a38.42,38.42,0,0,1,3.83.45l.06-.82c-4.48-.26-9-.71-13.44-.73-7.58,0-14.3,3.37-21.22,5.84-4.75,1.69-9.33,3.83-14.05,5.61-3.37,1.26-6.92,2.06-10.25,3.42a95.32,95.32,0,0,0-11.27,5.37c-5.22,3-10.31,6.22-15.32,9.55,0,0-1.66,1.12-1.63,1.16a203.36,203.36,0,0,1,40.17-22.91,171.54,171.54,0,0,1,22-7.38,206.49,206.49,0,0,1,38.5-6.62C384.81,84.93,383.1,85.42,381.24,85.85Zm36.45,306c1.16,3.18,2.4,5.88,3.11,8.7.77,3.08.12,3.58-2.61,3.06-1.48,5.33-2.72,10.71-4.52,15.9a57.44,57.44,0,0,1-5,10.24c-1.44,2.44-4.2,2.65-6.69,2.18a5.44,5.44,0,0,1-4.35-4.42c-.94-3.73-1.72-7.23,2-10.14.64-.5.45-2.28.33-3.44-.14-1.31-.8-2.57-1-3.88-.36-3.33.59-5.12,3.85-5.62,6.64-1,9.93-5.67,13-10.81a2.84,2.84,0,0,1,.54-.66C416.58,392.7,416.89,392.48,417.69,391.84Zm175-64.53c-.76-2.43-1.83-4.5-2-6.65a85.62,85.62,0,0,1,.21-9.6c4.14-1.38,2-5.91,4.32-8.58,2-2.39,2.44-6.3,3.23-9.61a76.72,76.72,0,0,0,1.1-8.16,11,11,0,0,1,2,10.56,9.81,9.81,0,0,0,.51,5.91c1.64,4.27-.31,8.21-.6,12.29a66,66,0,0,1-1.4,8.44c-.36,1.79-.91,3.54-1.17,4.54ZM581.31,342.5c-1.59-2.47-3.39-5-4.9-7.72-.81-1.46-1-3.25-1.7-4.79-.77-1.7-2.13-3.18-2.62-4.94-1.34-4.76-4.38-8.29-7.68-11.74-1.07-1.12-2.83-2.22-1.76-4.09a19.25,19.25,0,0,1,3.86-.39,4.36,4.36,0,0,1,2.42,1.25c1.7,1.75,2.93,4.43,5,5.24,1.71.69,3,2,4.8,2.46,2.11.54,3.29,2.37,2.74,4.08-1,3.1,1.72,4.91,1.93,7.49,0,.24.51.44,1.07.9v-3.59c2.43,3.84,2.43,3.84.75,4.17-.16,2.25-.4,4.45-.46,6.65C584.64,339.88,584.35,342,581.31,342.5ZM321.4,142l-3,1.82,1.81,1.23c-.23.26-.36.58-.59.66-3.67,1.34-3.29,4.78-4,7.66-.26,1.1-.46,2.22-.72,3.32-.06.27-.42.68-.37.73,3,2.92-.63,4-1.83,4.77-1.58,1-3.92.91-5.93.88a38.31,38.31,0,0,1-7.84-1.13l5.94-1.74-1.42-1.72c1.16-1.14,2.12-2.17,3.19-3.08a2.6,2.6,0,0,1,1.68-.69,2.61,2.61,0,0,0,2.95-3.28,8.73,8.73,0,0,1,1-5.45c1-2.28,3.71-3.65,6.26-4.51C319.12,141.28,320,141.72,321.4,142ZM519.6,316.69c-.43-4.29-.82-8.25-1.22-12.24,2,.06,4.75,3.74,5.2,6.61S523.25,315.1,519.6,316.69Zm75.56,26.94-2.35,1a83.29,83.29,0,0,1-8.79,2.53c.1-1.84-.37-4,.4-4.62,1.07-.91,3.08-.69,4.69-1,0,.24,0,.47.07.7l6.14-4.15.51.57-1.64,2.49,2.21-.13C596,341.89,595.55,342.76,595.16,343.63ZM303.54,149.91c.58-.42,1.14-1.13,1.76-1.2a20.74,20.74,0,0,1,3.59.19,23.56,23.56,0,0,1-1.52,2.75c-.36.5-1.32.64-1.53,1.15-1.51,3.58-4.83,3.52-7.84,4-.54.08-1.26-.57-1.74-1-.11-.1.33-1.18.66-1.27a5.63,5.63,0,0,0,4-3.66c.27-.71,1.31-1.13,2-1.69Zm12.93-26.62,7.23-5.57c.18.19.36.38.55.56l-.71,1.63,5.07.7a4.83,4.83,0,0,1-4.39,4.24,19.83,19.83,0,0,1-5.07.39C318.24,125.13,317.44,124,316.47,123.29Zm100.61.71-6.46-2.19c1.14-7.23,5.51-10.3,12.12-10.77a8.44,8.44,0,0,1-2.05,1.39c-3.26,1-5,3.59-5.76,6.49C414.6,120.13,416.11,121.85,417.08,124Zm-32.24-16.63-4.91,2.76c-.59-1.57.67-5.26,1.9-5.66,1.68-.56,4.07,1,4.61,3a7.39,7.39,0,0,1,0,1.76c-.43,0-1.13.14-1.24,0A7,7,0,0,1,384.84,107.37Zm56.57-4.85c-1,.76-1.46,1.47-1.92,1.45a43.63,43.63,0,0,1-6.47-.64,30.71,30.71,0,0,1-4.55-1.59l.27-.74ZM580.7,244.75c1.7,1.45,2,4,1,7.09-2.55-.61-3.46-2.88-2.12-5.31.36-.64.81-1.24,1.23-1.86ZM386.64,104.41l4.59.61c-1.69,1.74-3.27,1.88-4.77.42ZM307,201.61c3.25.53,5.26-1.71,5-5.66l-3,.54C308.33,198.21,307.72,199.78,307,201.61Zm64.36,20-6.07,1.58C368.26,225,370.15,224.43,371.36,221.61Zm6.47-73.53v-3.87c.68.07,1.62-.12,2,.26a9.66,9.66,0,0,1,1.34,2.55Zm-18.17,3.5a23.64,23.64,0,0,1,3.72-.76,2.88,2.88,0,0,1,.47,2c-.26.68-1.1,1.14-1.69,1.7C361.49,153.71,360.81,152.93,359.66,151.58Zm-52.66,50c.72-1.83,1.33-3.4,2-5.12l3-.54C312.26,199.9,310.25,202.14,307,201.61Zm64.36,20c-1.21,2.82-3.1,3.4-6.07,1.58Z"/><path class="cls-16" d="M403.59,203.11l69.5,10-51,7Z"/><polygon class="cls-16" points="531.77 243.73 519.46 237.09 529.92 250.48 531.77 243.73"/><path class="cls-16" d="M560.57,249.66l-28.8-5.93,19.76-3.37Z"/><path class="cls-16" d="M274,307.38l50.38-27-18.47,23.75Z"/><path class="cls-16" d="M330.31,250.48l-5.95,29.9,28.35-13.74Z"/><path class="cls-16" d="M392.45,204.15l-62.14,46.33,40.6-11.84Z"/><polygon class="cls-16" points="473.09 213.07 519.46 237.09 503.94 219.31 473.09 213.07"/><polygon class="cls-16" points="282.49 349.17 332.17 386.04 318.21 354.56 282.49 349.17"/><polygon class="cls-16" points="371.27 392.1 332.17 386.04 378.54 384.15 371.27 392.1"/><path class="cls-16" d="M404,418.8q2-15.8,4.07-31.6l-29.56-3.05Z"/><polygon class="cls-16" points="307.33 145.38 353.47 168.29 328.13 164.82 307.33 145.38"/><polygon class="cls-16" points="292.14 103.49 307.33 145.38 307.33 124.44 292.14 103.49"/><polygon class="cls-16" points="468.12 139.52 428.86 164.01 446.93 160.91 468.12 139.52"/><polygon class="cls-16" points="501.31 130.55 468.12 139.52 488.58 126.99 501.31 130.55"/><polygon class="cls-16" points="529.07 99.95 501.31 130.55 488.58 126.99 529.07 99.95"/><polygon class="cls-16" points="472.79 412.79 535.6 392.1 511.39 407.61 472.79 412.79"/><polygon class="cls-16" points="540.67 343.39 535.6 392.1 548.35 363.04 540.67 343.39"/><path class="cls-16" d="M568.16,305.17l-27.49,38.22,1.5-36.26Z"/><polygon class="cls-16" points="567.99 279.21 567.99 305.17 561.75 292.19 567.99 279.21"/><polygon class="cls-16" points="210.6 259.61 223.81 308.96 211.15 289.61 210.6 259.61"/><polygon class="cls-16" points="193.85 229.73 210.6 259.61 200.94 249.62 193.85 229.73"/><polygon class="cls-16" points="171.53 226.14 193.85 229.73 181.28 233.38 171.53 226.14"/><polygon class="cls-16" points="174.01 344.82 196.74 327.75 189.73 343.83 174.01 344.82"/><polygon class="cls-16" points="350.79 471.12 407.71 439.38 398.6 452.89 350.79 471.12"/><path class="cls-16" d="M332.17,512.93q.25-7.93.52-15.87,5.3,9.57,10.58,19.13Z"/><polygon class="cls-16" points="592.85 203.6 587.47 235.88 600.29 222.55 592.85 203.6"/><polygon class="cls-16" points="619.04 183.74 592.85 203.6 615.54 196.7 619.04 183.74"/><path class="cls-16" d="M630.08,213.07c0,.18-11-29.33-11-29.33l-3.5,13Z"/><polygon class="cls-16" points="590.08 282.91 604.49 324.28 604.49 303.59 590.08 282.91"/><polygon class="cls-16" points="631.98 351.5 604.49 322.99 604.49 302.33 631.98 351.5"/><path class="cls-16" d="M462.91,446s17.76,29.32,17.29,27.61S476,452.86,476,452.86Z"/><polygon class="cls-16" points="531.77 470.62 480.2 473.56 514.18 480.19 531.77 470.62"/><path class="cls-16" d="M559.42,466.16l-27.65,4.46s15.81,4.91,16.58,4.33S559.42,466.16,559.42,466.16Z"/><path class="cls-17" d="M420.21,238.24a.47.47,0,0,1-.42-.26l-16.62-34.67a.46.46,0,0,1,.05-.48.44.44,0,0,1,.44-.18l69.49,9.95a.47.47,0,0,1,.13.89L420.4,238.2A.43.43,0,0,1,420.21,238.24Zm-15.82-34.55,16,33.47,51-23.86Z"/><path class="cls-17" d="M529.92,251a.47.47,0,0,1-.36-.18l-10.47-13.4a.46.46,0,0,1,.59-.69L532,243.32a.45.45,0,0,1,.22.53l-1.85,6.75a.47.47,0,0,1-.35.34Zm-8.73-12.4,8.53,10.91,1.51-5.5Z"/><path class="cls-17" d="M560.57,250.12h-.09l-28.8-5.93a.46.46,0,0,1-.37-.46.47.47,0,0,1,.39-.45l19.75-3.37a.45.45,0,0,1,.41.13l9,9.3a.47.47,0,0,1,.07.55A.46.46,0,0,1,560.57,250.12Zm-26.28-6.35,24.89,5.12-7.82-8Z"/><path class="cls-17" d="M274,307.84a.46.46,0,0,1-.22-.87l50.38-27a.5.5,0,0,1,.38,0,.44.44,0,0,1,.27.25l11.12,24.89a.49.49,0,0,1,0,.44.47.47,0,0,1-.38.22l-61.5,2.1ZM324.14,281,276,306.84l58.81-2Z"/><path class="cls-17" d="M324.36,280.84a.46.46,0,0,1-.4-.24l-17.28-31.9a.47.47,0,0,1,0-.47.44.44,0,0,1,.43-.21l23.22,2a.48.48,0,0,1,.33.18.49.49,0,0,1,.09.37l-5.95,29.9a.47.47,0,0,1-.39.37ZM307.91,249l16.25,30,5.59-28.12Z"/><path class="cls-17" d="M330.31,251a.48.48,0,0,1-.42-.26.47.47,0,0,1,.14-.58l62.14-46.33a.46.46,0,0,1,.67.62l-21.53,34.49a.5.5,0,0,1-.27.2l-40.6,11.84ZM390.74,206l-58.08,43.31,37.95-11.07Z"/><path class="cls-17" d="M519.46,237.55a.44.44,0,0,1-.22-.05l-46.37-24a.47.47,0,0,1-.22-.57.45.45,0,0,1,.53-.3L504,218.85a.46.46,0,0,1,.26.15l15.52,17.78a.45.45,0,0,1,0,.59A.44.44,0,0,1,519.46,237.55Zm-43.21-23.37,41.24,21.37-13.8-15.82Z"/><path class="cls-17" d="M332.17,386.5a.49.49,0,0,1-.28-.09l-49.67-36.87a.47.47,0,0,1-.18-.49.49.49,0,0,1,.38-.35l48.34-7.11a.45.45,0,0,1,.37.1.49.49,0,0,1,.17.34l1.34,44a.48.48,0,0,1-.25.43A.54.54,0,0,1,332.17,386.5Zm-48.5-37,48,35.63-1.3-42.51Z"/><path class="cls-17" d="M461.92,445.67a.48.48,0,0,1-.29,0l-56.24-25.78a.46.46,0,0,1-.27-.44.47.47,0,0,1,.3-.42l45.81-17a.53.53,0,0,1,.39,0,.47.47,0,0,1,.23.3l10.42,42.76a.45.45,0,0,1-.15.47A.4.4,0,0,1,461.92,445.67ZM406.8,419.48l54.34,24.91-10.07-41.31Z"/><path class="cls-17" d="M371.27,392.56h-.07l-39.1-6.07a.44.44,0,0,1-.39-.48.46.46,0,0,1,.44-.44l46.37-1.88a.47.47,0,0,1,.44.27.46.46,0,0,1-.08.51l-7.26,7.94A.47.47,0,0,1,371.27,392.56ZM337,386.31l34.14,5.29,6.34-6.94Z"/><path class="cls-17" d="M376.91,421.18a.48.48,0,0,1-.32-.13.43.43,0,0,1-.14-.36l1.62-36.56a.45.45,0,0,1,.33-.42.46.46,0,0,1,.51.17l25.49,34.64a.49.49,0,0,1,.05.48.46.46,0,0,1-.39.26L377,421.18Zm2-35.69-1.54,34.72,25.75-1.81Z"/><path class="cls-17" d="M323.38,181a.46.46,0,0,1-.42-.27l-16-35.13a.48.48,0,0,1,.1-.53.45.45,0,0,1,.53-.08l46.14,22.91a.46.46,0,0,1,.25.43.47.47,0,0,1-.29.42L323.56,181A.57.57,0,0,1,323.38,181ZM308.3,146.39l15.32,33.53,28.72-11.67Z"/><path class="cls-17" d="M307.33,145.85a.45.45,0,0,1-.43-.31l-15.2-41.89a.46.46,0,0,1,.44-.62h0l21,.21a.49.49,0,0,1,.34.17.44.44,0,0,1,.11.36l-5.81,41.68a.48.48,0,0,1-.41.4ZM292.81,104l14.32,39.49,5.48-39.29Z"/><path class="cls-17" d="M292.14,104h0l-26-.25a.43.43,0,0,1-.35-.17.43.43,0,0,1-.1-.38l3.11-16.94a.47.47,0,0,1,.29-.35.46.46,0,0,1,.45.06l22.9,17.19a.47.47,0,0,1,.16.52A.46.46,0,0,1,292.14,104Zm-25.46-1.18,24,.23L269.56,87.13Z"/><path class="cls-17" d="M464.89,167h0l-36-2.54a.48.48,0,0,1-.42-.35.47.47,0,0,1,.2-.51l39.26-24.49a.45.45,0,0,1,.5,0,.46.46,0,0,1,.21.45l-3.22,27A.47.47,0,0,1,464.89,167Zm-34.57-3.37,34.16,2.41,3.06-25.63Z"/><path class="cls-17" d="M468.12,140a.46.46,0,0,1-.43-.28.49.49,0,0,1,.18-.59l20.47-12.52a.42.42,0,0,1,.36,0l12.74,3.55a.47.47,0,0,1,0,.9l-33.19,9Zm20.53-12.49-17.53,10.73,28.44-7.69Z"/><path class="cls-17" d="M501.31,131l-.12,0-12.74-3.56a.46.46,0,0,1-.13-.83l40.49-27a.49.49,0,0,1,.62.08.47.47,0,0,1,0,.62l-27.76,30.6A.48.48,0,0,1,501.31,131Zm-11.63-4.2,11.48,3.2,25-27.59Z"/><path class="cls-17" d="M529.07,100.41a.3.3,0,0,1-.13,0,.44.44,0,0,1-.32-.35l-4.13-21.38a.46.46,0,0,1,.19-.47.47.47,0,0,1,.51,0L541,88a.44.44,0,0,1,.22.35.45.45,0,0,1-.13.38l-11.7,11.6A.46.46,0,0,1,529.07,100.41ZM525.6,79.53,529.36,99,540,88.43Z"/><path class="cls-17" d="M472.79,413.26a.47.47,0,0,1-.45-.36.46.46,0,0,1,.31-.55l62.8-20.7a.47.47,0,0,1,.4.84L511.64,408a.44.44,0,0,1-.19.07l-38.6,5.18Zm59.46-19.57-54.54,18,33.51-4.5Z"/><path class="cls-17" d="M535.59,392.56h-.11a.47.47,0,0,1-.35-.5l5.07-48.71a.48.48,0,0,1,.4-.41.47.47,0,0,1,.5.29l7.69,19.66a.47.47,0,0,1,0,.35l-12.76,29A.45.45,0,0,1,535.59,392.56Zm5.34-47.22-4.56,43.84L547.85,363Z"/><path class="cls-17" d="M540.67,343.85a.46.46,0,0,1-.38-.73l27.49-38.22a.47.47,0,0,1,.54-.17.46.46,0,0,1,.3.47l-2.25,35a.46.46,0,0,1-.4.44l-25.24,3.2Zm26.92-37.09-25.92,36,23.8-3Z"/><path class="cls-17" d="M568,305.64a.42.42,0,0,1-.3-.12l-22.1-19.07a.49.49,0,0,1-.16-.45.47.47,0,0,1,.32-.35l22.1-6.89a.48.48,0,0,1,.42.07.47.47,0,0,1,.19.38v26a.46.46,0,0,1-.27.42A.49.49,0,0,1,568,305.64Zm-21.16-19.35,20.7,17.86V279.84Z"/><path class="cls-17" d="M573.7,282a.59.59,0,0,1-.26-.28L560.59,249.6a.55.55,0,0,1,.09-.55.54.54,0,0,1,.52-.2l27,4.79a.56.56,0,0,1,.4.3.53.53,0,0,1,0,.49l-14.12,27.29a.55.55,0,0,1-.51.29A.46.46,0,0,1,573.7,282ZM562,250.11l12,30,13.22-25.55Z"/><path class="cls-17" d="M223.81,309.42a.44.44,0,0,1-.39-.21l-12.66-19.34a.45.45,0,0,1-.07-.25l-.55-30a.48.48,0,0,1,.4-.47.47.47,0,0,1,.51.34l13.21,49.35a.48.48,0,0,1-.26.54A.46.46,0,0,1,223.81,309.42Zm-12.2-19.95,11,16.8-11.47-42.85Z"/><path class="cls-17" d="M210.6,260.08a.47.47,0,0,1-.33-.14l-9.66-10a.5.5,0,0,1-.11-.17l-7.08-19.88a.46.46,0,0,1,.24-.58.46.46,0,0,1,.6.19L211,259.39a.46.46,0,0,1-.13.6A.47.47,0,0,1,210.6,260.08Zm-9.25-10.71,7.09,7.34-12.3-21.95Z"/><path class="cls-17" d="M181.28,233.84a.47.47,0,0,1-.28-.09l-9.74-7.24a.46.46,0,0,1,.35-.83l22.32,3.59a.46.46,0,0,1,.39.43.48.48,0,0,1-.33.48l-12.58,3.64Zm-7.94-6.94,8,6,10.36-3Z"/><path class="cls-17" d="M171.63,345.3a.45.45,0,0,1-.44-.31.46.46,0,0,1,.18-.54l25.11-17.08a.45.45,0,0,1,.56,0,.46.46,0,0,1,.13.54l-7,16.08a.49.49,0,0,1-.41.28l-18.1,1Zm24-16.25-22.39,15.23,16.14-.89Z"/><path class="cls-17" d="M350.79,471.59a.47.47,0,0,1-.22-.88L407.49,439a.46.46,0,0,1,.57.09.47.47,0,0,1,0,.57L399,453.15a.49.49,0,0,1-.22.18L351,471.55A.35.35,0,0,1,350.79,471.59Zm55.45-30.85-49.6,27.65,41.65-15.88Z"/><path class="cls-17" d="M343.27,516.66l-.13,0L332,513.38a.46.46,0,0,1-.33-.45.47.47,0,0,1,.34-.45l29.38-8a.46.46,0,0,1,.55.27.47.47,0,0,1-.18.58l-18.28,11.22A.55.55,0,0,1,343.27,516.66ZM333.88,513l9.32,2.74,15.35-9.42Z"/><path class="cls-17" d="M587.47,236.34a.49.49,0,0,1-.21,0,.48.48,0,0,1-.25-.5l5.38-32.28a.48.48,0,0,1,.41-.39.45.45,0,0,1,.48.3l7.44,18.95a.45.45,0,0,1-.1.49L587.8,236.2A.43.43,0,0,1,587.47,236.34Zm5.56-31-4.86,29.13,11.58-12Z"/><path class="cls-17" d="M592.85,204.06a.46.46,0,0,1-.28-.83l26.19-19.86a.47.47,0,0,1,.54,0,.48.48,0,0,1,.19.51l-3.5,13a.47.47,0,0,1-.31.32L593,204A.34.34,0,0,1,592.85,204.06Zm25.38-19.13-23,17.47,19.95-6.07Z"/><path class="cls-17" d="M630.06,213.55c-.09,0-.17-.05-.28-.22l0,0L615.2,197a.42.42,0,0,1-.1-.43l3.49-13a.46.46,0,0,1,.88,0c3.72,9.88,10.76,28.63,11,29.29a.44.44,0,0,1,0,.32.49.49,0,0,1-.31.32A.53.53,0,0,1,630.06,213.55Zm-14-17,12.69,14.29c-.23-.6-.51-1.33-.84-2.22l-8.8-23.39Z"/><path class="cls-17" d="M604.49,324.74a.46.46,0,0,1-.44-.31l-14.41-41.37a.46.46,0,0,1,.23-.57.47.47,0,0,1,.59.15l14.41,20.69a.42.42,0,0,1,.08.26v20.69a.46.46,0,0,1-.38.46ZM591.63,286,604,321.53V303.74Z"/><path class="cls-17" d="M632,352a.44.44,0,0,1-.34-.14l-27.49-28.5A.51.51,0,0,1,604,323V302.33a.47.47,0,0,1,.35-.45.48.48,0,0,1,.53.22l27.48,49.17a.45.45,0,0,1-.13.6A.46.46,0,0,1,632,352ZM605,322.8l24.87,25.79L605,304.12Z"/><path class="cls-17" d="M480.21,474.11c-.47,0-1.45-1.38-9.21-14-4.27-6.94-8.49-13.91-8.49-13.91a.47.47,0,0,1,.62-.65l13.1,6.9a.47.47,0,0,1,.24.32c0,.19,3.72,19,4.18,20.68a.55.55,0,0,1-.27.62A.47.47,0,0,1,480.21,474.11Zm-16-27c5.26,8.68,12.29,20.15,15.1,24.43-1-4.95-3.32-16.58-3.68-18.41Z"/><path class="cls-17" d="M514.18,480.65h-.09l-34-6.62a.47.47,0,0,1-.37-.49.45.45,0,0,1,.43-.43l51.58-2.94a.44.44,0,0,1,.47.33.47.47,0,0,1-.22.54l-17.6,9.56A.4.4,0,0,1,514.18,480.65Zm-30.25-6.83,30.18,5.88,15.62-8.5Z"/><path class="cls-17" d="M548.15,475.41c-1.67,0-7.21-1.46-16.51-4.34a.47.47,0,0,1,.06-.91l27.65-4.46a.45.45,0,0,1,.5.27.47.47,0,0,1-.14.55c-.42.33-10.31,8.22-11.08,8.8A.87.87,0,0,1,548.15,475.41Zm-14.33-4.65c6.58,2,13.34,3.89,14.31,3.77.86-.66,6.85-5.43,9.62-7.63Zm14.35,3.77Z"/><path class="cls-17" d="M253.09,371.84l-.12,0a.46.46,0,0,1-.31-.27L239,339a.47.47,0,0,1,.54-.64l43.05,10.35a.46.46,0,0,1,.35.36.45.45,0,0,1-.18.47l-29.4,22.2A.42.42,0,0,1,253.09,371.84Zm-12.87-32.36,13.07,31.16,28.14-21.25Z"/><path class="cls-17" d="M393.25,203.52l-.15,0a.6.6,0,0,1-.48-.21l-29-33.93a.59.59,0,0,1,.4-1l55.84-4.16a.59.59,0,0,1,.52.93L393.55,203.3A.61.61,0,0,1,393.25,203.52Zm-28-34L393,202l25.67-36.45Z"/><path class="cls-17" d="M228.89,313.89a.47.47,0,0,1-.44-.34.45.45,0,0,1,.25-.55l22.54-10.43a.48.48,0,0,1,.29,0l22.54,4.38a.46.46,0,0,1,.38.47.47.47,0,0,1-.4.45l-45.09,6Zm22.61-10.41-19.61,9.07,39.22-5.26Z"/><path class="cls-17" d="M269.24,86.77a.48.48,0,0,1-.43-.28.47.47,0,0,1,.2-.6l40.6-22.43a.47.47,0,0,1,.55.74l-13,12.66a.48.48,0,0,1-.17.1l-27.61,9.78A.4.4,0,0,1,269.24,86.77ZM307,66,274.41,84l22.19-7.86Z"/><path class="cls-17" d="M309.83,64.33a.46.46,0,0,1-.12-.91l58-16.24a.46.46,0,0,1,.49.16.47.47,0,0,1,0,.51L363.82,56a.48.48,0,0,1-.34.24L309.9,64.33Zm57.07-16-49.64,13.9,45.86-7Z"/><path class="cls-17" d="M330.31,80.52a.46.46,0,0,1-.43-.29.47.47,0,0,1,.15-.55l33.11-24.31a.47.47,0,0,1,.71.54l-8.06,20.78a.45.45,0,0,1-.37.29l-25,3.54ZM362.4,57.07,332.08,79.34,355,76.1Z"/><path class="cls-17" d="M171.53,226.6a.51.51,0,0,1-.2,0,.48.48,0,0,1-.23-.58l13.84-37.71a.46.46,0,0,1,.89.24L182,210.34a.44.44,0,0,1-.06.16l-10,15.89A.46.46,0,0,1,171.53,226.6Zm12.46-33-10.48,28.57,7.54-12Z"/><path class="cls-17" d="M165.45,255.9a.5.5,0,0,1-.21-.05.48.48,0,0,1-.25-.51l6.09-29.3a.47.47,0,0,1,.92.13l-1.62,24.34a.45.45,0,0,1-.12.28l-4.47,5A.46.46,0,0,1,165.45,255.9Zm5.17-23.09-4.37,21,3.21-3.55Z"/><path class="cls-17" d="M171.53,345.67a.46.46,0,0,1-.45-.38l-6.62-36.79a.46.46,0,0,1,.32-.53.47.47,0,0,1,.56.27L172,324.1a.39.39,0,0,1,0,.18v20.93a.46.46,0,0,1-.42.46Zm-5.4-33.14L171.07,340V324.37Z"/><path class="cls-17" d="M163.72,284.79h-.06a.47.47,0,0,1-.41-.49L165,255.4a.5.5,0,0,1,.12-.28l4.47-5a.46.46,0,0,1,.55-.11.47.47,0,0,1,.25.51l-6.2,33.84A.46.46,0,0,1,163.72,284.79Zm2.18-29.17-1.26,21.08L169.16,252Z"/><path class="cls-17" d="M164.92,308.88h0a.46.46,0,0,1-.44-.44l-1.2-24.09a.47.47,0,0,1,.87-.26l3.91,6.66a.47.47,0,0,1,.05.31l-2.71,17.43A.45.45,0,0,1,164.92,308.88Zm-.65-22.68.88,17.65,2-12.77Z"/><path class="cls-17" d="M446.27,56.21a.46.46,0,0,1-.29-.1L435.74,48a.47.47,0,0,1,.38-.82l29.65,5.73a.46.46,0,0,1,.38.47.47.47,0,0,1-.41.45l-19.41,2.39Zm-8.46-7.77,8.6,6.82,16.3-2Z"/><path class="cls-17" d="M423.88,52.15a.43.43,0,0,1-.19,0L412,46.83a.47.47,0,0,1-.26-.53.48.48,0,0,1,.48-.36l23.85,1.22a.46.46,0,0,1,.43.4.47.47,0,0,1-.31.51L424,52.13ZM414.63,47l9.28,4.19L433.55,48Z"/><path class="cls-17" d="M465.69,71.13a.58.58,0,0,1-.18,0L430.08,56.73a.46.46,0,0,1-.29-.51.47.47,0,0,1,.44-.39l16-.55a.44.44,0,0,1,.3.1L466,70.29a.47.47,0,0,1,.12.6A.46.46,0,0,1,465.69,71.13ZM432.45,56.69l30.24,12.25L446.12,56.22Z"/><path class="cls-17" d="M436,80.52l-.12,0-23.85-6.57a.47.47,0,0,1-.34-.5.46.46,0,0,1,.44-.41l53.5-2.83a.48.48,0,0,1,.48.39.45.45,0,0,1-.31.52l-29.66,9.4ZM415.08,73.8,436,79.57l26.05-8.25Z"/><path class="cls-17" d="M565.67,109.34a.51.51,0,0,1-.17,0l-12.45-4.69a.43.43,0,0,1-.2-.15L540.4,88.64a.47.47,0,0,1,.67-.65L566,108.52a.46.46,0,0,1-.29.82Zm-12.17-5.55,9.71,3.66-19.41-16Z"/><path class="cls-17" d="M590.08,136a.42.42,0,0,1-.24-.07l-21.92-13.32a.48.48,0,0,1-.22-.31L565.21,109a.46.46,0,0,1,.25-.5.47.47,0,0,1,.55.1l24.41,26.64a.46.46,0,0,1-.34.78Zm-21.5-14.07,18.95,11.51-21.1-23Z"/><path class="cls-17" d="M332.17,513.4a.58.58,0,0,1-.18,0L289.7,495.65a.47.47,0,0,1-.27-.54.47.47,0,0,1,.49-.35l21.15,1.83a.43.43,0,0,1,.24.1l21.14,15.87a.47.47,0,0,1,.13.6A.49.49,0,0,1,332.17,513.4Zm-39.36-17.46,36.09,15.11-18-13.54Z"/><path class="cls-17" d="M289.92,495.69a.58.58,0,0,1-.26-.06,4.2,4.2,0,0,1-.53-.4c-3.61-2.52-25.88-17.34-37.95-25.35a.47.47,0,0,1-.16-.59.46.46,0,0,1,.56-.24L270.82,475a.46.46,0,0,1,.21.13c7,7.58,17.91,19.09,19.08,19.72l0,0c.41.36.35.46.24.63A.47.47,0,0,1,289.92,495.69Zm-35.55-24.81L271,481.93c4.81,3.21,9.63,6.43,13.23,8.85.39.25.74.49,1.08.72-5.23-5.32-13.34-14-14.86-15.69Z"/><path class="cls-17" d="M311,497.52a.47.47,0,0,1-.4-.22l-14.18-23.42a.47.47,0,0,1,.07-.57.46.46,0,0,1,.58-.06c10.74,7,27.16,17.46,28.38,17.76a.47.47,0,0,1,.46.4c.08.5.12.72-14.75,6.09ZM298.3,475.13l12.93,21.36c4.45-1.61,11-4,13.21-5C320.49,489.44,306.23,480.27,298.3,475.13Z"/><path class="cls-17" d="M251.44,470a.47.47,0,0,1-.33-.14l-35.58-36.05a.47.47,0,0,1-.07-.55A.45.45,0,0,1,216,433l17.79,4.38a.48.48,0,0,1,.3.22l17.78,31.67a.45.45,0,0,1-.12.6A.48.48,0,0,1,251.44,470Zm-34.09-35.67,32,32.41-16-28.48Z"/><path class="cls-17" d="M618.4,389a.47.47,0,0,1-.28-.09l-9.66-7.18a.43.43,0,0,1-.19-.31.45.45,0,0,1,.1-.35l23.24-29.9a.46.46,0,0,1,.8.45l-13.57,37.08a.48.48,0,0,1-.31.28A.3.3,0,0,1,618.4,389Zm-9-7.73,8.79,6.52,12.33-33.69Z"/><path class="cls-17" d="M597.64,422.51l-.18,0a.47.47,0,0,1-.27-.55l11.09-40.65a.48.48,0,0,1,.3-.32.45.45,0,0,1,.43.07l9.67,7.17a.48.48,0,0,1,.12.62L598,422.29A.45.45,0,0,1,597.64,422.51ZM609,382.18l-10.07,36.9,18.85-30.39Z"/><path class="cls-17" d="M465.69,494.12a.57.57,0,0,1-.18,0L438.16,482.8a.46.46,0,0,1-.28-.48.45.45,0,0,1,.36-.41l41.86-8.8a.47.47,0,0,1,.49.2.45.45,0,0,1,0,.52l-14.52,20.1A.47.47,0,0,1,465.69,494.12Zm-25.78-11.61,25.61,10.58,13.6-18.82Z"/><path class="cls-17" d="M378.54,522.82h-.08l-35.27-6.17a.46.46,0,0,1,0-.92l33.17-3.26a.46.46,0,0,1,.5.36l2.09,9.43a.44.44,0,0,1-.12.42A.45.45,0,0,1,378.54,522.82Zm-31.83-6.5,31.22,5.46-1.85-8.35Z"/><path class="cls-17" d="M641.23,262.6a.5.5,0,0,1-.38-.19l-11.15-15.1a.47.47,0,0,1-.09-.28v-34a.48.48,0,0,1,.42-.47.47.47,0,0,1,.5.36L641.68,262a.46.46,0,0,1-.26.52A.41.41,0,0,1,641.23,262.6Zm-10.69-15.72,9.74,13.18-9.74-42.85Z"/><path class="cls-17" d="M641.23,303.46a.48.48,0,0,1-.46-.38l-11.15-56a.47.47,0,0,1,.83-.37l11.15,15.1a.48.48,0,0,1,.1.28V303a.48.48,0,0,1-.42.47ZM630.94,249l9.82,49.3v-36Z"/><path class="cls-17" d="M578.8,408.17a.5.5,0,0,1-.26-.08.46.46,0,0,1-.18-.53L587,381.25a.48.48,0,0,1,.45-.32h21.26a.47.47,0,0,1,.44.3.46.46,0,0,1-.13.52l-29.93,26.3A.47.47,0,0,1,578.8,408.17Zm9-26.31-8,24.36,27.72-24.36Z"/><path class="cls-17" d="M450.26,519.38a.47.47,0,0,1-.42-.26.46.46,0,0,1,.15-.58l15.42-11.09a.47.47,0,0,1,.28-.09h22.89a.46.46,0,0,1,.13.91l-38.32,11.09A.32.32,0,0,1,450.26,519.38Zm15.58-11.09-13.12,9.43,32.58-9.43Z"/><path class="cls-17" d="M213.36,140a.48.48,0,0,1-.36-.16.47.47,0,0,1,0-.61L233.33,115a.46.46,0,0,1,.61-.09.47.47,0,0,1,.16.6l-8.68,17.18a.41.41,0,0,1-.18.19l-11.64,7.09A.55.55,0,0,1,213.36,140Zm18.09-21.34-15.93,19,9.13-5.56Z"/><path class="cls-17" d="M200.47,157.3a.44.44,0,0,1-.35-.16.47.47,0,0,1,0-.58L213,139.24a.46.46,0,0,1,.82.4l-3.33,12.25a.48.48,0,0,1-.23.29l-9.55,5.07A.42.42,0,0,1,200.47,157.3Zm11.79-15.53-10.18,13.69,7.55-4Z"/><path class="cls-17" d="M274,169.16a.42.42,0,0,1-.24-.07.48.48,0,0,1-.22-.46l3.32-20.52a.46.46,0,0,1,.41-.39l30-2.8a.47.47,0,0,1,.48.3.49.49,0,0,1-.17.55l-33.35,23.31A.43.43,0,0,1,274,169.16Zm3.72-20.55-3.08,19.08,31-21.68Z"/><path class="cls-17" d="M255,213.53a.47.47,0,0,1-.25-.07.49.49,0,0,1-.18-.58l19-44.36a.46.46,0,0,1,.88.26l-4.74,28.3a.7.7,0,0,1-.11.23L255.3,213.38A.47.47,0,0,1,255,213.53Zm17.93-41.08-16.37,38.16,12.29-13.82Z"/><path class="cls-17" d="M230.06,234.21a.5.5,0,0,1-.3-.11l-7.59-6.43a.47.47,0,0,1-.16-.42.46.46,0,0,1,.27-.36l32.49-14.25a.46.46,0,0,1,.48.78L230.36,234.1A.48.48,0,0,1,230.06,234.21Zm-6.72-6.77,6.73,5.69,22-18.31Z"/><path class="cls-17" d="M193.86,230.2a.49.49,0,0,1-.36-.17.46.46,0,0,1-.09-.42L197,216.18a.47.47,0,0,1,.25-.3.48.48,0,0,1,.39,0l25,11a.47.47,0,0,1-.15.89l-28.62,2.41Zm3.94-13.26-3.32,12.27,26.13-2.2Z"/><path class="cls-17" d="M488.58,127.46a.45.45,0,0,1-.16,0L448.33,113a.47.47,0,0,1-.31-.46.47.47,0,0,1,.36-.43L482,103.73a.47.47,0,0,1,.57.32L489,126.87a.48.48,0,0,1-.13.46A.45.45,0,0,1,488.58,127.46Zm-38.49-14.84,37.79,13.63-6.09-21.51Z"/><path class="cls-17" d="M223.11,349.75a.36.36,0,0,1,0-.1l1.09-29.48a.41.41,0,0,1,.28-.33.37.37,0,0,1,.42.09l14.87,18.38a.33.33,0,0,1-.11.45l-16,11.09a.48.48,0,0,1-.4.06A.3.3,0,0,1,223.11,349.75Zm1.79-28.59-1,27.78,15-10.45Z"/><path class="cls-17" d="M430.25,260.08h-.06l-45-5.84a.42.42,0,0,1-.27-.14L370.58,239a.47.47,0,0,1-.06-.57.48.48,0,0,1,.55-.19l59.34,21a.45.45,0,0,1,.29.54A.47.47,0,0,1,430.25,260.08Zm-44.73-6.74L426,258.59l-53.36-18.86Z"/><path class="cls-17" d="M453.44,291.45a.47.47,0,0,1-.37-.19l-23.19-31.37a.46.46,0,0,1,.28-.73l23.47-4.62a.47.47,0,0,1,.56.46l-.28,36a.46.46,0,0,1-.32.44Zm-22.38-31.52L453,289.59l.26-34Z"/><path class="cls-17" d="M378.54,384.62a.43.43,0,0,1-.22-.06.46.46,0,0,1-.25-.44l2.1-34.65a.47.47,0,0,1,.44-.44l46.15-2.68a.46.46,0,0,1,.46.3.44.44,0,0,1-.15.53l-48.25,37.34A.42.42,0,0,1,378.54,384.62Zm2.54-34.69-2,33.23,46.26-35.79Z"/><path class="cls-17" d="M296.85,409.74a.46.46,0,0,1-.44-.32.47.47,0,0,1,.18-.54l35.33-23.23a.46.46,0,0,1,.69.54l-7.81,21.67a.48.48,0,0,1-.41.31l-27.52,1.57Zm34.41-22.55-32.71,21.52L324,407.25Z"/><path class="cls-17" d="M282.49,433.91a.35.35,0,0,1-.2-.05l-23.82-11.62a.47.47,0,0,1-.26-.45.48.48,0,0,1,.32-.41l38.17-12.55a.47.47,0,0,1,.55.68l-14.36,24.17A.45.45,0,0,1,282.49,433.91Zm-22.58-12,22.4,10.93,13.5-22.74Z"/><path class="cls-17" d="M199.56,410.47a.46.46,0,0,1-.41-.24l-14.9-27.93a.47.47,0,0,1,.13-.59.46.46,0,0,1,.6,0l12.07,11.17a.46.46,0,0,1,.15.26L200,409.93a.47.47,0,0,1-.31.52A.39.39,0,0,1,199.56,410.47Zm-13.19-26.18,12.26,23-2.32-13.79Z"/><path class="cls-17" d="M503.94,219.77a.37.37,0,0,1-.18,0,.46.46,0,0,1-.28-.34L498,188.51a.43.43,0,0,1,.14-.41.44.44,0,0,1,.42-.12l40,8.57a.45.45,0,0,1,.36.37.48.48,0,0,1-.2.47L504.19,219.7A.43.43,0,0,1,503.94,219.77ZM499,189l5.29,29.51,33-21.32Z"/><path class="cls-17" d="M553.22,135.12a.41.41,0,0,1-.19-.05l-14.78-6.71a.49.49,0,0,1-.25-.28l-9.37-28a.49.49,0,0,1,.23-.57.47.47,0,0,1,.59.15l24.15,34.7a.47.47,0,0,1-.38.74Zm-14.4-7.53,13,5.93-21.33-30.64Z"/><path class="cls-17" d="M540.67,343.85a.41.41,0,0,1-.3-.11l-31.84-26.87a.45.45,0,0,1-.13-.55.48.48,0,0,1,.5-.26l20.25,3.47a.44.44,0,0,1,.34.25l11.59,23.4a.45.45,0,0,1-.13.57A.42.42,0,0,1,540.67,343.85Zm-30.24-26.58,28.83,24.32-10.5-21.19Z"/><path class="cls-17" d="M495.15,338.32a.43.43,0,0,1-.19,0l-33-14.46a.47.47,0,0,1,.12-.89l46.73-6.87a.46.46,0,0,1,.46.21.45.45,0,0,1,0,.5l-13.68,21.34A.47.47,0,0,1,495.15,338.32Zm-31.38-14.71L495,337.27l12.91-20.14Z"/><path class="cls-17" d="M361.55,505.44a.58.58,0,0,1-.18,0l-18.28-7.92a.46.46,0,0,1-.27-.55L350.34,471a.48.48,0,0,1,.45-.34h0a.49.49,0,0,1,.45.33L362,504.83a.48.48,0,0,1-.14.49A.43.43,0,0,1,361.55,505.44Zm-17.72-8.65,17,7.35-10-31.42Z"/><path class="cls-17" d="M590.08,158.73a.5.5,0,0,1-.21,0l-12.21-6.32a.44.44,0,0,1-.23-.27l-9.71-29.75a.46.46,0,0,1,.25-.57.47.47,0,0,1,.59.18L590.48,158a.47.47,0,0,1-.06.56A.45.45,0,0,1,590.08,158.73Zm-11.82-7.11,10.56,5.47-19-31.22Z"/><path class="cls-17" d="M561.91,436.52a.47.47,0,0,1-.38-.19.45.45,0,0,1,0-.51l16.89-28.36a.47.47,0,0,1,.55-.2.47.47,0,0,1,.31.49l-2.82,25.1a.46.46,0,0,1-.36.4L562,436.51Zm16.18-26.73-15.22,25.57,12.68-2.94Z"/><path class="cls-17" d="M233.65,438.28a.45.45,0,0,1-.42-.27l-13.54-30.58a.48.48,0,0,1,.15-.56.45.45,0,0,1,.57,0l31.32,25.56a.44.44,0,0,1,.16.45.47.47,0,0,1-.32.36l-17.79,5Zm-12.32-29.45,12.58,28.43,16.54-4.67Z"/><path class="cls-17" d="M178.56,309.27a.48.48,0,0,1-.4-.23l-10.93-17.81a.47.47,0,0,1,0-.51L181.12,271a.46.46,0,0,1,.84.31L179,308.84a.45.45,0,0,1-.35.41ZM168.18,291l10,16.34,2.7-34.45Z"/><path class="cls-17" d="M212.88,164.48a.44.44,0,0,1-.24-.07.45.45,0,0,1-.19-.56l12.12-31.58a.45.45,0,0,1,.42-.3.44.44,0,0,1,.44.27l5.06,11.06a.46.46,0,0,1-.07.49l-17.18,20.52A.48.48,0,0,1,212.88,164.48ZM225,133.63l-10.72,27.94,15.2-18.15Z"/><polygon class="cls-18" points="233.65 437.82 254.95 448.18 228.56 424.77 233.65 437.82"/><polygon class="cls-18" points="169.91 250.48 174.01 269.55 177.06 247.03 169.91 250.48"/><path class="cls-18" d="M641.23,262.13,632,292.39s7.6,27.77,7.63,27.6S641.23,262.13,641.23,262.13Z"/><path class="cls-18" d="M608.73,381.4,625.19,370s-11.63,29.65-12.65,28S608.73,381.4,608.73,381.4Z"/><polygon class="cls-18" points="237.38 455.25 267.52 480.19 243.44 455.25 237.38 455.25"/><polygon class="cls-18" points="222.72 126.99 243.5 105.96 238.71 115.25 222.72 126.99"/><polygon class="cls-18" points="341.59 53.01 384.67 45.06 363.42 55.75 341.59 53.01"/><polygon class="cls-18" points="482.85 58.71 465.69 53.36 473.09 60.88 482.85 58.71"/><polygon class="cls-18" points="424.11 46.41 453.5 50.4 446.27 55.75 424.11 46.41"/><path class="cls-18" d="M531.77,82.79s23.75,16.66,24.06,17.45-21.66-5.34-21.66-5.34Z"/><path class="cls-19" d="M326.33,280.71a2.2,2.2,0,1,1-2.2-2.19A2.2,2.2,0,0,1,326.33,280.71Z"/><path class="cls-19" d="M380.73,384.15a2.2,2.2,0,1,1-2.19-2.19A2.19,2.19,0,0,1,380.73,384.15Z"/><path class="cls-19" d="M432.45,259.61a2.2,2.2,0,1,1-2.2-2.19A2.2,2.2,0,0,1,432.45,259.61Z"/><circle class="cls-19" cx="441.99" cy="237.16" r="1.49"/><path class="cls-19" d="M341,228.86a1.49,1.49,0,1,1-1.49-1.48A1.49,1.49,0,0,1,341,228.86Z"/><path class="cls-19" d="M440.42,302.33a1.49,1.49,0,1,1-1.48-1.49A1.49,1.49,0,0,1,440.42,302.33Z"/><circle class="cls-19" cx="332.17" cy="250.48" r="2.2"/><circle class="cls-19" cx="254.95" cy="213.07" r="2.2"/><path class="cls-19" d="M542.86,343.39a2.2,2.2,0,1,1-2.19-2.2A2.19,2.19,0,0,1,542.86,343.39Z"/><path class="cls-19" d="M551.43,363a2.2,2.2,0,1,1-2.19-2.19A2.19,2.19,0,0,1,551.43,363Z"/><path class="cls-19" d="M525.62,386a2.2,2.2,0,1,1-2.2-2.19A2.2,2.2,0,0,1,525.62,386Z"/><path class="cls-19" d="M513.22,407.7a2.2,2.2,0,1,1-2.2-2.2A2.21,2.21,0,0,1,513.22,407.7Z"/><path class="cls-19" d="M505,382a1.54,1.54,0,1,1-1.53-1.54A1.53,1.53,0,0,1,505,382Z"/><path class="cls-19" d="M293.89,271.23a1.54,1.54,0,1,1-1.53-1.53A1.54,1.54,0,0,1,293.89,271.23Z"/><path class="cls-19" d="M429.21,293.88a1.54,1.54,0,1,1-1.54-1.54A1.53,1.53,0,0,1,429.21,293.88Z"/><path class="cls-19" d="M295.43,322.45a1.54,1.54,0,1,1-1.54-1.54A1.54,1.54,0,0,1,295.43,322.45Z"/><path class="cls-19" d="M325.67,182.06a1.54,1.54,0,1,1-3.07,0,1.54,1.54,0,0,1,3.07,0Z"/><path class="cls-19" d="M506.39,217.89a2.2,2.2,0,1,1-2.2-2.2A2.19,2.19,0,0,1,506.39,217.89Z"/><path class="cls-19" d="M490.26,206.9a1.69,1.69,0,1,1-1.68-1.68A1.68,1.68,0,0,1,490.26,206.9Z"/><path class="cls-19" d="M498.16,188.46a1.28,1.28,0,1,1,.4-1.77A1.28,1.28,0,0,1,498.16,188.46Z"/><path class="cls-19" d="M471.52,181.75a1.28,1.28,0,1,1,.4-1.77A1.28,1.28,0,0,1,471.52,181.75Z"/><path class="cls-19" d="M329.21,207.58a1.28,1.28,0,1,1-1.37-2.16,1.28,1.28,0,0,1,1.37,2.16Z"/><path class="cls-19" d="M418.65,117.55a1.27,1.27,0,1,1,.39-1.76A1.27,1.27,0,0,1,418.65,117.55Z"/><path class="cls-19" d="M536.17,243.78a2.2,2.2,0,1,1-2.2-2.19A2.2,2.2,0,0,1,536.17,243.78Z"/><path class="cls-19" d="M406.87,203.11a2.2,2.2,0,1,1-2.19-2.2A2.19,2.19,0,0,1,406.87,203.11Z"/><path class="cls-19" d="M387,255a1.46,1.46,0,1,1-1.46-1.46A1.46,1.46,0,0,1,387,255Z"/><path class="cls-19" d="M284.69,349.29a2.2,2.2,0,1,1-2.2-2.19A2.2,2.2,0,0,1,284.69,349.29Z"/><path class="cls-19" d="M328.52,235.16a2.2,2.2,0,1,1-2.19-2.2A2.19,2.19,0,0,1,328.52,235.16Z"/><path class="cls-19" d="M467.22,166.71a1.54,1.54,0,1,1-1.53-1.53A1.54,1.54,0,0,1,467.22,166.71Z"/><path class="cls-19" d="M412.19,46.16c0,.5-.83.92-1.84.92s-1.84-.42-1.84-.92.82-.92,1.84-.92S412.19,45.65,412.19,46.16Z"/><path class="cls-19" d="M370,47.31c.08.6-.82,1.23-2,1.4s-2.24-.17-2.33-.77.81-1.23,2-1.4S369.92,46.71,370,47.31Z"/><path class="cls-19" d="M267.94,102.26c.34.51-.19,1.46-1.2,2.14s-2.09.83-2.43.32.2-1.46,1.2-2.14S267.6,101.76,267.94,102.26Z"/><path class="cls-19" d="M247.24,103.79c.34.51-.19,1.46-1.2,2.14s-2.09.83-2.43.32.2-1.46,1.2-2.14S246.9,103.29,247.24,103.79Z"/><path class="cls-19" d="M199.81,158.65c.5.34.34,1.43-.36,2.42s-1.66,1.52-2.16,1.17-.33-1.43.36-2.42S199.32,158.3,199.81,158.65Z"/><path class="cls-19" d="M167.48,279.73c.61,0,1.16.91,1.24,2.12s-.35,2.23-.95,2.27-1.16-.91-1.24-2.12S166.87,279.77,167.48,279.73Z"/><path class="cls-19" d="M179,219c.59.15.83,1.22.54,2.4s-1,2-1.59,1.87-.83-1.22-.54-2.39S178.39,218.83,179,219Z"/><path class="cls-19" d="M428.12,63.2c0,.5-.81.91-1.81.91s-1.82-.41-1.82-.91.81-.9,1.82-.9S428.12,62.7,428.12,63.2Z"/><path class="cls-19" d="M469.17,71.84c-.14.48-1,.65-2,.38s-1.64-.89-1.5-1.37,1-.65,2-.38S469.31,71.36,469.17,71.84Z"/><path class="cls-19" d="M490.15,64.77c-.25.44-1.16.38-2-.12S486.76,63.39,487,63s1.16-.38,2,.12S490.4,64.34,490.15,64.77Z"/><path class="cls-19" d="M598.59,146.83c-.39.3-1.21-.1-1.82-.9s-.77-1.68-.38-2,1.22.1,1.82.89S599,146.52,598.59,146.83Z"/><path class="cls-19" d="M619.94,183.63c-.43.25-1.19-.25-1.69-1.12s-.55-1.77-.12-2,1.19.25,1.69,1.12S620.38,183.38,619.94,183.63Z"/><path class="cls-19" d="M633.39,243.39c-.5.06-1-.7-1.11-1.7s.19-1.84.69-1.9,1,.7,1.11,1.69S633.88,243.33,633.39,243.39Z"/><path class="cls-19" d="M638.52,326.09c-.5,0-.9-.81-.9-1.81s.4-1.81.9-1.81.91.81.91,1.81S639,326.09,638.52,326.09Z"/><path class="cls-19" d="M593.39,428.1c-.35-.36-.07-1.22.64-1.93s1.57-1,1.92-.64.07,1.22-.64,1.93S593.74,428.45,593.39,428.1Z"/><path class="cls-19" d="M562.06,464c-.36-.35-.07-1.22.64-1.92s1.57-1,1.92-.64.07,1.21-.64,1.92S562.41,464.3,562.06,464Z"/><path class="cls-19" d="M492.15,506.43c-.2-.46.38-1.16,1.3-1.57s1.82-.36,2,.1-.38,1.16-1.29,1.56S492.36,506.88,492.15,506.43Z"/><path class="cls-19" d="M380.62,522.36c0-.5.81-.91,1.81-.91s1.82.41,1.82.91-.82.9-1.82.9S380.62,522.86,380.62,522.36Z"/><path class="cls-19" d="M307.76,500.23c.21-.45,1.12-.49,2-.08s1.49,1.12,1.28,1.57-1.11.5-2,.09S307.56,500.69,307.76,500.23Z"/><path class="cls-19" d="M211,426.08c.38-.31,1.21.06,1.84.84s.83,1.66.44,2-1.22-.06-1.85-.84S210.6,426.4,211,426.08Z"/><path class="cls-19" d="M172.9,347.85c.47-.16,1.12.48,1.44,1.42s.21,1.85-.27,2-1.12-.47-1.44-1.42S172.43,348,172.9,347.85Z"/><path class="cls-19" d="M174,334.57c.48-.16,1.12.48,1.45,1.42s.2,1.85-.27,2-1.12-.47-1.45-1.42S173.5,334.73,174,334.57Z"/><path class="cls-19" d="M442.86,520.35c-.09-.5.64-1,1.62-1.22s1.86.08,1.95.57-.64,1-1.63,1.22S443,520.84,442.86,520.35Z"/><path class="cls-19" d="M632.55,352.61c-.49-.09-.74-1-.56-1.95s.73-1.71,1.22-1.62.75,1,.56,1.95S633.05,352.7,632.55,352.61Z"/><path class="cls-19" d="M313.75,66.66c.2.47-.41,1.19-1.35,1.59s-1.89.35-2.09-.12.4-1.19,1.35-1.6S313.54,66.19,313.75,66.66Z"/><path class="cls-19" d="M316.73,101.63a2,2,0,1,1-2.3-.57A1.71,1.71,0,0,1,316.73,101.63Z"/><path class="cls-19" d="M277.15,146.48a2,2,0,1,1-2.34.34A1.71,1.71,0,0,1,277.15,146.48Z"/><path class="cls-19" d="M234.45,144a2,2,0,1,1-2.35.33A1.73,1.73,0,0,1,234.45,144Z"/><path class="cls-19" d="M357,76.68c.07.74-.68,1.4-1.65,1.49A1.6,1.6,0,0,1,353.46,77c-.07-.74.67-1.41,1.65-1.49A1.6,1.6,0,0,1,357,76.68Z"/><path class="cls-19" d="M412.86,73.53A1.6,1.6,0,0,1,411,74.74c-1-.07-1.73-.73-1.68-1.47a1.62,1.62,0,0,1,1.88-1.21C412.17,72.14,412.92,72.79,412.86,73.53Z"/><path class="cls-19" d="M484.3,104.43a1.85,1.85,0,1,1-.87-2.06A1.61,1.61,0,0,1,484.3,104.43Z"/><path class="cls-19" d="M556.16,136.77a1.85,1.85,0,1,1-.31-2.2A1.59,1.59,0,0,1,556.16,136.77Z"/><path class="cls-19" d="M605.52,187.59a1.85,1.85,0,0,1-2.06-2.91,1.86,1.86,0,0,1,2.06,2.91Z"/><path class="cls-19" d="M593.88,180a1.85,1.85,0,1,1,.07-2.23A1.62,1.62,0,0,1,593.88,180Z"/><path class="cls-19" d="M627.87,250.88c-.73.13-1.46-.55-1.63-1.51a1.6,1.6,0,0,1,1-2c.73-.13,1.46.54,1.63,1.51A1.6,1.6,0,0,1,627.87,250.88Z"/><path class="cls-19" d="M631.82,294a1.62,1.62,0,0,1-1.18-1.89c.09-1,.75-1.72,1.49-1.65a1.59,1.59,0,0,1,1.18,1.88C633.23,293.28,632.56,294,631.82,294Z"/><path class="cls-19" d="M605.79,375.11a1.85,1.85,0,1,1,2.05-.87A1.6,1.6,0,0,1,605.79,375.11Z"/><path class="cls-19" d="M559.72,439.16a1.85,1.85,0,1,1,2.18-.46A1.61,1.61,0,0,1,559.72,439.16Z"/><path class="cls-19" d="M523.21,465.16a1.85,1.85,0,1,1,2.21.27A1.6,1.6,0,0,1,523.21,465.16Z"/><path class="cls-19" d="M469.68,491.29a1.85,1.85,0,1,1,2.11.71A1.61,1.61,0,0,1,469.68,491.29Z"/><path class="cls-19" d="M295.43,468a1.85,1.85,0,1,1,.61,2.15A1.61,1.61,0,0,1,295.43,468Z"/><path class="cls-19" d="M220.21,399.83a1.86,1.86,0,1,1-.27,2.22A1.61,1.61,0,0,1,220.21,399.83Z"/><path class="cls-19" d="M179,308.63c.73-.05,1.39.7,1.45,1.69a1.61,1.61,0,0,1-1.22,1.86c-.74.05-1.39-.71-1.46-1.69A1.61,1.61,0,0,1,179,308.63Z"/><path class="cls-19" d="M182,269.3a1.6,1.6,0,0,1,.77,2.08c-.28.95-1.08,1.54-1.79,1.32a1.6,1.6,0,0,1-.78-2.08C180.49,269.67,181.3,269.08,182,269.3Z"/><path class="cls-19" d="M210.93,257.47c.73-.14,1.47.53,1.66,1.49a1.62,1.62,0,0,1-1,2c-.73.14-1.47-.53-1.66-1.49A1.61,1.61,0,0,1,210.93,257.47Z"/><path class="cls-19" d="M251.55,431.8A1.85,1.85,0,1,1,251,434,1.6,1.6,0,0,1,251.55,431.8Z"/><path class="cls-19" d="M436.08,482.44c0-.74.75-1.37,1.73-1.41a1.61,1.61,0,0,1,1.83,1.27c0,.74-.74,1.37-1.73,1.41S436.11,483.18,436.08,482.44Z"/><path class="cls-19" d="M363.33,497.84a1.6,1.6,0,0,1,2.11-.71c.93.31,1.5,1.13,1.26,1.83a1.61,1.61,0,0,1-2.11.71C363.66,499.36,363.09,498.54,363.33,497.84Z"/><path class="cls-19" d="M341,81.77c0,.59-.55,1.13-1.34,1.2a1.3,1.3,0,0,1-1.53-1c-.05-.59.55-1.13,1.34-1.2A1.3,1.3,0,0,1,341,81.77Z"/><path class="cls-19" d="M448,55.87c0,.47-.82.79-1.76.72s-1.66-.5-1.63-1,.82-.79,1.76-.72S448,55.4,448,55.87Z"/><path class="cls-19" d="M482.4,59c.13-.45,1-.6,1.87-.35s1.52.84,1.39,1.29-1,.6-1.86.34S482.28,59.41,482.4,59Z"/><path class="cls-19" d="M520.73,75.91c.26-.39,1.1-.3,1.89.21s1.21,1.24,1,1.63-1.1.3-1.88-.2S520.48,76.31,520.73,75.91Z"/><path class="cls-19" d="M432.07,164a2.2,2.2,0,1,1-2.2-2.19A2.2,2.2,0,0,1,432.07,164Z"/><path class="cls-19" d="M276.18,308.21A2.2,2.2,0,1,1,274,306,2.19,2.19,0,0,1,276.18,308.21Z"/><path class="cls-19" d="M511,316.52a2.2,2.2,0,1,1-2.19-2.2A2.2,2.2,0,0,1,511,316.52Z"/><path class="cls-19" d="M334.37,386a2.2,2.2,0,1,1-2.2-2.19A2.2,2.2,0,0,1,334.37,386Z"/><path class="cls-19" d="M429.4,346.82a1.73,1.73,0,1,1-1.73-1.73A1.72,1.72,0,0,1,429.4,346.82Z"/><path class="cls-19" d="M367.14,371.37a1.71,1.71,0,1,1-1.71-1.7A1.71,1.71,0,0,1,367.14,371.37Z"/><circle class="cls-19" cx="568.16" cy="305.17" r="1.59"/><g class="cls-20"><circle class="cls-21" cx="504.19" cy="218.54" r="12.37" transform="translate(-45.28 211.31) rotate(-22.68)"/></g><g class="cls-22"><circle class="cls-21" cx="293.89" cy="208.58" r="7.36" transform="translate(23.54 446.89) rotate(-76.76)"/></g><g class="cls-23"><circle class="cls-21" cx="430.72" cy="259.35" r="8.22"/></g><g class="cls-24"><circle class="cls-21" cx="461.64" cy="322.91" r="8.22" transform="translate(41.61 698.36) rotate(-76.76)"/></g><g class="cls-25"><circle class="cls-21" cx="334.78" cy="304.71" r="8.22" transform="translate(-117.41 325.97) rotate(-45)"/></g><g class="cls-26"><circle class="cls-21" cx="381.44" cy="348.59" r="6.09"/></g><g class="cls-27"><path class="cls-21" d="M313.42,248.29a6.09,6.09,0,1,1-6.09-6.09A6.09,6.09,0,0,1,313.42,248.29Z"/></g><g class="cls-28"><path class="cls-21" d="M445,375.75a6.09,6.09,0,1,1-6.08-6.08A6.09,6.09,0,0,1,445,375.75Z"/></g><g class="cls-29"><circle class="cls-21" cx="356.7" cy="135.98" r="6.09"/></g><g class="cls-30"><path class="cls-21" d="M434.94,178.52a6.09,6.09,0,1,1-6.08-6.09A6.08,6.08,0,0,1,434.94,178.52Z"/></g></g></svg>