<svg id="Calque_1" data-name="Calque 1" xmlns="http://www.w3.org/2000/svg" viewBox="0 0 450 450"><defs><style>.cls-1,.cls-3{fill:#fff;}.cls-1,.cls-2{stroke:#c0d7f1;}.cls-1,.cls-2,.cls-3,.cls-4,.cls-5{stroke-miterlimit:10;stroke-width:2px;}.cls-2,.cls-4,.cls-5{fill:none;}.cls-3,.cls-4,.cls-5{stroke:#4a00e0;}.cls-5{stroke-linecap:round;}</style></defs><title>chat-widget-night</title><path class="cls-1" d="M341.4,336.3H145.3a7.81,7.81,0,0,1-7.8-7.8v-141a7.81,7.81,0,0,1,7.8-7.8H341.4a7.81,7.81,0,0,1,7.8,7.8V328.4A7.83,7.83,0,0,1,341.4,336.3Z"/><line class="cls-2" x1="157.7" y1="267.5" x2="240.6" y2="267.5"/><line class="cls-2" x1="157.7" y1="282.6" x2="240.6" y2="282.6"/><line class="cls-2" x1="157.7" y1="297.6" x2="240.6" y2="297.6"/><line class="cls-2" x1="211.7" y1="215.5" x2="316.9" y2="215.5"/><line class="cls-2" x1="211.7" y1="231.7" x2="316.9" y2="231.7"/><path class="cls-3" d="M371,317.7H250.3A13.29,13.29,0,0,1,237,304.4V133.3A13.29,13.29,0,0,1,250.3,120H357.8a13.29,13.29,0,0,1,13.3,13.3V317.7Z"/><line class="cls-4" x1="237" y1="171.4" x2="371" y2="171.4"/><circle class="cls-3" cx="304" cy="145.8" r="13.3"/><circle class="cls-3" cx="263.2" cy="194.7" r="9.9"/><line class="cls-4" x1="280.6" y1="194.7" x2="353.3" y2="194.7"/><circle class="cls-3" cx="343.4" cy="225.3" r="9.9"/><line class="cls-4" x1="326" y1="225.3" x2="253.4" y2="225.3"/><circle class="cls-3" cx="263.2" cy="251.9" r="9.9"/><line class="cls-4" x1="280.6" y1="251.9" x2="353.3" y2="251.9"/><circle class="cls-3" cx="343.4" cy="282.6" r="9.9"/><line class="cls-4" x1="326" y1="282.6" x2="253.4" y2="282.6"/><path class="cls-3" d="M386.7,319.2V303.4h15.8a12.76,12.76,0,0,1,12.8,12.8v3A12.76,12.76,0,0,1,402.5,332h-3A12.76,12.76,0,0,1,386.7,319.2Z"/><line class="cls-5" x1="404.9" y1="313" x2="397.2" y2="320.7"/><line class="cls-5" x1="404.9" y1="320.7" x2="397.2" y2="313"/><rect class="cls-1" x="157.7" y="204.6" width="41.2" height="41.2"/></svg>