<?xml version="1.0" encoding="utf-8"?>
<!-- Generator: Adobe Illustrator 23.0.1, SVG Export Plug-In . SVG Version: 6.00 Build 0)  -->
<svg version="1.1" id="Layer_1" xmlns="http://www.w3.org/2000/svg" xmlns:xlink="http://www.w3.org/1999/xlink" x="0px" y="0px"
	 viewBox="0 0 750 391" style="enable-background:new 0 0 750 391;" xml:space="preserve">
<style type="text/css">
	.st0{fill:#FFFFFF;stroke:#78909C;stroke-width:0.6756;stroke-miterlimit:10;}
	.st1{fill:#FFFFFF;stroke:#78909C;stroke-miterlimit:10;}
	.st2{fill:#FFFFFF;stroke:#78909C;stroke-width:0.8572;stroke-miterlimit:10;}
	.st3{fill:#FFFFFF;stroke:#78909C;stroke-width:0.5298;stroke-miterlimit:10;}
	.st4{fill:none;stroke:#78909C;stroke-linecap:round;stroke-miterlimit:10;}
	.st5{fill:#78909C;}
	.st6{fill:#FFFFFF;stroke:#78909C;stroke-linecap:round;stroke-linejoin:round;stroke-miterlimit:10;}
	.st7{fill:none;stroke:#78909C;stroke-miterlimit:10;}
	.st8{fill:none;stroke:#78909C;stroke-linecap:round;stroke-linejoin:round;stroke-miterlimit:10;}
</style>
<g id="BACKGROUND">
</g>
<g id="OBJECTS">
	<g>
		<path class="st0" d="M547.9,134.9c0-0.4,0.1-0.8,0.1-1.2c0-6-4.8-10.8-10.8-10.8c-1.4,0-2.7,0.3-3.9,0.8
			c-1.4-8.1-8.3-14.2-16.8-14.2c-8.2,0-15,5.8-16.7,13.5c-0.1,0-0.2,0-0.2,0c-4.5,0-8.1,3.6-8.1,8.1c0,1.4,0.4,2.7,1,3.9h55.4V134.9
			z"/>
		<path class="st0" d="M741.1,201.2c0-0.4,0.1-0.8,0.1-1.2c0-6-4.8-10.8-10.8-10.8c-1.4,0-2.7,0.3-3.9,0.8
			c-1.4-8.1-8.3-14.2-16.8-14.2c-8.2,0-15,5.8-16.7,13.5c-0.1,0-0.2,0-0.2,0c-4.5,0-8.1,3.6-8.1,8.1c0,1.4,0.4,2.7,1,3.9
			L741.1,201.2L741.1,201.2z"/>
		<g>
			<path class="st1" d="M460.5,244.2c-0.1-9-0.4-15.3-0.7-15.3c-0.3,0-0.6,6.3-0.7,15.3H460.5z"/>
			<path class="st1" d="M461,237.3h-2.4c-0.5,0-0.9,0.4-0.9,0.9v11.6h4.3v-11.6C461.9,237.7,461.5,237.3,461,237.3z"/>
			<rect x="455.9" y="258.7" class="st1" width="7.8" height="47.9"/>
			<path class="st1" d="M463.3,246.2h-7c-1.2,0-2.3,1-2.3,2.3v8c0,1.2,1,2.3,2.3,2.3h7c1.2,0,2.3-1,2.3-2.3v-8
				C465.6,247.2,464.6,246.2,463.3,246.2z"/>
			<g>
				<path class="st1" d="M505.7,278.1c-0.2-9-0.6-15.3-1.2-15.3c-0.5,0-1,6.3-1.2,15.3H505.7z"/>
				<path class="st1" d="M528,293c-2.3-10.9-11.9-19-23.5-19c-11.5,0-21.2,8.1-23.5,19H528z"/>
				<g>
					<rect x="461.9" y="290.2" class="st1" width="85.3" height="11.2"/>
					<rect x="447" y="301.4" class="st1" width="115.1" height="6.7"/>
					<rect x="447" y="308.1" class="st1" width="115.1" height="27.7"/>
					<rect x="453.5" y="313" class="st1" width="102.1" height="22.8"/>
					<g>
						<rect x="473.6" y="294.8" class="st1" width="7" height="41"/>
						<path class="st1" d="M459.6,325v-7.9c0-1-0.8-1.8-1.8-1.8s-1.8,0.8-1.8,1.8v7.9H459.6z"/>
						<rect x="455.9" y="328.2" class="st1" width="3.7" height="5.7"/>
						<path class="st1" d="M465.6,325v-7.9c0-1-0.8-1.8-1.8-1.8s-1.8,0.8-1.8,1.8v7.9H465.6z"/>
						<rect x="461.9" y="328.2" class="st1" width="3.7" height="5.7"/>
						<path class="st1" d="M471.5,325v-7.9c0-1-0.8-1.8-1.8-1.8s-1.8,0.8-1.8,1.8v7.9H471.5z"/>
						<rect x="467.8" y="328.2" class="st1" width="3.7" height="5.7"/>
						<path class="st1" d="M541.2,325v-7.9c0-1-0.8-1.8-1.8-1.8s-1.8,0.8-1.8,1.8v7.9H541.2z"/>
						<rect x="537.5" y="328.2" class="st1" width="3.7" height="5.7"/>
						<path class="st1" d="M547.2,325v-7.9c0-1-0.8-1.8-1.8-1.8l0,0c-1,0-1.8,0.8-1.8,1.8v7.9H547.2z"/>
						<rect x="543.5" y="328.2" class="st1" width="3.7" height="5.7"/>
						<path class="st1" d="M553.2,325v-7.9c0-1-0.8-1.8-1.8-1.8s-1.8,0.8-1.8,1.8v7.9H553.2z"/>
						<rect x="549.5" y="328.2" class="st1" width="3.7" height="5.7"/>
						<path class="st1" d="M483.2,317.1v18.7h3.8v-18.7c0-1-0.9-1.8-1.9-1.8l0,0C484,315.3,483.2,316.1,483.2,317.1z"/>
						<path class="st1" d="M489.7,317.1v18.7h3.8v-18.7c0-1-0.9-1.8-1.9-1.8l0,0C490.6,315.3,489.7,316.1,489.7,317.1z"/>
						<path class="st1" d="M496.3,317.1v18.7h3.8v-18.7c0-1-0.9-1.8-1.9-1.8l0,0C497.1,315.3,496.3,316.1,496.3,317.1z"/>
						<path class="st1" d="M502.8,317.1v18.7h3.8v-18.7c0-1-0.9-1.8-1.9-1.8l0,0C503.7,315.3,502.8,316.1,502.8,317.1z"/>
						<path class="st1" d="M509.4,317.1v18.7h3.8v-18.7c0-1-0.9-1.8-1.9-1.8l0,0C510.2,315.3,509.4,316.1,509.4,317.1z"/>
						<path class="st1" d="M515.9,317.1v18.7h3.8v-18.7c0-1-0.9-1.8-1.9-1.8l0,0C516.8,315.3,515.9,316.1,515.9,317.1z"/>
						<path class="st1" d="M522.4,317.1v18.7h3.8v-18.7c0-1-0.9-1.8-1.9-1.8l0,0C523.3,315.3,522.4,316.1,522.4,317.1z"/>
						<g>
							<rect x="528.5" y="294.8" class="st1" width="7" height="41"/>
						</g>
					</g>
				</g>
			</g>
		</g>
		<rect y="335.6" class="st1" width="750" height="4.5"/>
		<path class="st2" d="M127.8,90.3c0.1-0.5,0.1-1,0.1-1.5c0-7.6-6.1-13.7-13.7-13.7c-1.8,0-3.4,0.3-5,1c-1.7-10.2-10.6-18-21.3-18
			c-10.4,0-19.1,7.3-21.2,17.1c-0.1,0-0.2,0-0.3,0c-5.7,0-10.3,4.6-10.3,10.3c0,1.8,0.5,3.5,1.3,4.9h70.4V90.3z"/>
		<path class="st3" d="M304.6,134.9c0-0.3,0.1-0.6,0.1-0.9c0-4.7-3.8-8.5-8.5-8.5c-1.1,0-2.1,0.2-3.1,0.6
			c-1.1-6.3-6.5-11.2-13.2-11.2c-6.4,0-11.8,4.5-13.1,10.6c-0.1,0-0.1,0-0.2,0c-3.5,0-6.3,2.8-6.3,6.3c0,1.1,0.3,2.1,0.8,3
			L304.6,134.9L304.6,134.9z"/>
		<g>
			<line class="st4" x1="18" y1="355.4" x2="78.7" y2="355.4"/>
			<line class="st4" x1="135.7" y1="364.9" x2="218" y2="364.9"/>
			<line class="st4" x1="177.3" y1="373.6" x2="275.1" y2="373.6"/>
			<line class="st4" x1="250.9" y1="364.9" x2="314.1" y2="364.9"/>
			<line class="st4" x1="317.5" y1="348.5" x2="418.9" y2="348.5"/>
			<line class="st4" x1="396.3" y1="356.3" x2="467.4" y2="356.3"/>
			<line class="st4" x1="456" y1="349.3" x2="546.9" y2="349.3"/>
			<line class="st4" x1="105.5" y1="351.9" x2="204.1" y2="351.9"/>
			<line class="st4" x1="56.1" y1="364.9" x2="105.5" y2="364.9"/>
			<line class="st4" x1="452.5" y1="365.8" x2="576.3" y2="365.8"/>
			<line class="st4" x1="519.2" y1="356.3" x2="613.5" y2="356.3"/>
			<line class="st4" x1="595.4" y1="345" x2="671.6" y2="345"/>
			<line class="st4" x1="658.5" y1="355.4" x2="721.8" y2="355.4"/>
			<line class="st4" x1="733.8" y1="364" x2="714.5" y2="364"/>
			<line class="st4" x1="342.6" y1="363.2" x2="386.1" y2="363.2"/>
			<line class="st4" x1="237" y1="351.1" x2="275.3" y2="351.1"/>
			<line class="st4" x1="327" y1="375.3" x2="363.4" y2="375.3"/>
			<line class="st4" x1="406.7" y1="371" x2="446.5" y2="371"/>
			<line class="st4" x1="662" y1="367.5" x2="616.1" y2="367.5"/>
		</g>
		<g>
			<line class="st4" x1="305.8" y1="91.2" x2="364.1" y2="91.2"/>
			<line class="st4" x1="464.5" y1="74.2" x2="509.6" y2="74.2"/>
			<line class="st4" x1="633" y1="135.3" x2="660" y2="135.3"/>
			<line class="st4" x1="644.3" y1="153.5" x2="620" y2="153.5"/>
			<line class="st4" x1="674.6" y1="170" x2="657.2" y2="170"/>
			<line class="st4" x1="338.7" y1="189.3" x2="362.1" y2="189.3"/>
			<line class="st4" x1="499.2" y1="171.6" x2="523.4" y2="171.6"/>
			<line class="st4" x1="49.3" y1="120.4" x2="97.2" y2="120.4"/>
			<line class="st4" x1="144.4" y1="144" x2="184.2" y2="144"/>
			<line class="st4" x1="104.8" y1="170" x2="130.9" y2="170"/>
		</g>
		<g>
			<polygon class="st1" points="323.4,90.4 321.8,31.5 318.6,30.5 318.6,91.9 324.7,91.9 			"/>
			<polygon class="st1" points="318.6,91.9 318.6,335.6 343.5,335.6 343.5,114.1 324.7,91.9 			"/>
			<rect x="297.9" y="95.9" class="st1" width="20.8" height="26.3"/>
			<rect x="290.3" y="122.2" class="st1" width="28.4" height="25.3"/>
			<rect x="293.3" y="147.5" class="st1" width="25.3" height="188.1"/>
			<rect x="283.2" y="147.5" class="st1" width="10.1" height="188.1"/>
			<g>
				<rect x="295.9" y="150.4" class="st1" width="2.4" height="4.6"/>
				<rect x="301.6" y="150.4" class="st1" width="2.4" height="4.6"/>
				<rect x="307.3" y="150.4" class="st1" width="2.4" height="4.6"/>
				<rect x="312.9" y="150.4" class="st1" width="2.4" height="4.6"/>
			</g>
			<g>
				<rect x="295.9" y="160.7" class="st1" width="2.4" height="4.6"/>
				<rect x="301.6" y="160.7" class="st1" width="2.4" height="4.6"/>
				<rect x="307.3" y="160.7" class="st1" width="2.4" height="4.6"/>
				<rect x="312.9" y="160.7" class="st1" width="2.4" height="4.6"/>
			</g>
			<g>
				<rect x="295.9" y="170.9" class="st1" width="2.4" height="4.6"/>
				<rect x="301.6" y="170.9" class="st1" width="2.4" height="4.6"/>
				<rect x="307.3" y="170.9" class="st1" width="2.4" height="4.6"/>
				<rect x="312.9" y="170.9" class="st1" width="2.4" height="4.6"/>
			</g>
			<g>
				<rect x="295.9" y="181.2" class="st1" width="2.4" height="4.6"/>
				<rect x="301.6" y="181.2" class="st1" width="2.4" height="4.6"/>
				<rect x="307.3" y="181.2" class="st1" width="2.4" height="4.6"/>
				<rect x="312.9" y="181.2" class="st1" width="2.4" height="4.6"/>
			</g>
			<g>
				<rect x="295.9" y="191.4" class="st1" width="2.4" height="4.6"/>
				<rect x="301.6" y="191.4" class="st1" width="2.4" height="4.6"/>
				<rect x="307.3" y="191.4" class="st1" width="2.4" height="4.6"/>
				<rect x="312.9" y="191.4" class="st1" width="2.4" height="4.6"/>
			</g>
			<g>
				<rect x="295.9" y="201.7" class="st1" width="2.4" height="4.6"/>
				<rect x="301.6" y="201.7" class="st1" width="2.4" height="4.6"/>
				<rect x="307.3" y="201.7" class="st1" width="2.4" height="4.6"/>
				<rect x="312.9" y="201.7" class="st1" width="2.4" height="4.6"/>
			</g>
			<g>
				<rect x="295.9" y="212" class="st1" width="2.4" height="4.6"/>
				<rect x="301.6" y="212" class="st1" width="2.4" height="4.6"/>
				<rect x="307.3" y="212" class="st1" width="2.4" height="4.6"/>
				<rect x="312.9" y="212" class="st1" width="2.4" height="4.6"/>
			</g>
			<g>
				<rect x="295.9" y="222.2" class="st1" width="2.4" height="4.6"/>
				<rect x="301.6" y="222.2" class="st1" width="2.4" height="4.6"/>
				<rect x="307.3" y="222.2" class="st1" width="2.4" height="4.6"/>
				<rect x="312.9" y="222.2" class="st1" width="2.4" height="4.6"/>
			</g>
			<g>
				<rect x="295.9" y="232.5" class="st1" width="2.4" height="4.6"/>
				<rect x="301.6" y="232.5" class="st1" width="2.4" height="4.6"/>
				<rect x="307.3" y="232.5" class="st1" width="2.4" height="4.6"/>
				<rect x="312.9" y="232.5" class="st1" width="2.4" height="4.6"/>
			</g>
			<g>
				<rect x="295.9" y="242.7" class="st1" width="2.4" height="4.6"/>
				<rect x="301.6" y="242.7" class="st1" width="2.4" height="4.6"/>
				<rect x="307.3" y="242.7" class="st1" width="2.4" height="4.6"/>
				<rect x="312.9" y="242.7" class="st1" width="2.4" height="4.6"/>
			</g>
			<g>
				<rect x="295.9" y="253" class="st1" width="2.4" height="4.6"/>
				<rect x="301.6" y="253" class="st1" width="2.4" height="4.6"/>
				<rect x="307.3" y="253" class="st1" width="2.4" height="4.6"/>
				<rect x="312.9" y="253" class="st1" width="2.4" height="4.6"/>
			</g>
			<g>
				<rect x="295.9" y="263.2" class="st1" width="2.4" height="4.6"/>
				<rect x="301.6" y="263.2" class="st1" width="2.4" height="4.6"/>
				<rect x="307.3" y="263.2" class="st1" width="2.4" height="4.6"/>
				<rect x="312.9" y="263.2" class="st1" width="2.4" height="4.6"/>
			</g>
			<g>
				<rect x="295.9" y="273.5" class="st1" width="2.4" height="4.6"/>
				<rect x="301.6" y="273.5" class="st1" width="2.4" height="4.6"/>
				<rect x="307.3" y="273.5" class="st1" width="2.4" height="4.6"/>
				<rect x="312.9" y="273.5" class="st1" width="2.4" height="4.6"/>
			</g>
			<g>
				<rect x="295.9" y="283.8" class="st1" width="2.4" height="4.6"/>
				<rect x="301.6" y="283.8" class="st1" width="2.4" height="4.6"/>
				<rect x="307.3" y="283.8" class="st1" width="2.4" height="4.6"/>
				<rect x="312.9" y="283.8" class="st1" width="2.4" height="4.6"/>
			</g>
			<g>
				<rect x="295.9" y="294" class="st1" width="2.4" height="4.6"/>
				<rect x="301.6" y="294" class="st1" width="2.4" height="4.6"/>
				<rect x="307.3" y="294" class="st1" width="2.4" height="4.6"/>
				<rect x="312.9" y="294" class="st1" width="2.4" height="4.6"/>
			</g>
			<g>
				<rect x="295.9" y="304.3" class="st1" width="2.4" height="4.6"/>
				<rect x="301.6" y="304.3" class="st1" width="2.4" height="4.6"/>
				<rect x="307.3" y="304.3" class="st1" width="2.4" height="4.6"/>
				<rect x="312.9" y="304.3" class="st1" width="2.4" height="4.6"/>
			</g>
			<g>
				<rect x="295.9" y="314.5" class="st1" width="2.4" height="4.6"/>
				<rect x="301.6" y="314.5" class="st1" width="2.4" height="4.6"/>
				<rect x="307.3" y="314.5" class="st1" width="2.4" height="4.6"/>
				<rect x="312.9" y="314.5" class="st1" width="2.4" height="4.6"/>
			</g>
			<g>
				<polygon class="st5" points="343.5,265.1 343.5,263.6 326.1,244.9 343.5,226.1 343.5,224.7 324.7,244.9 				"/>
				<polygon class="st5" points="343.5,317.4 343.5,315.9 326.1,297.2 343.5,278.5 343.5,277 324.7,297.2 				"/>
				<polygon class="st5" points="343.5,212.7 343.5,211.2 326.1,192.5 343.5,173.8 343.5,172.3 324.7,192.5 				"/>
				<polygon class="st5" points="343.5,160.4 343.5,158.9 326.1,140.2 343.5,121.5 343.5,120 324.7,140.2 				"/>
				<polygon class="st5" points="343.5,217.1 320.6,192.5 343.5,167.9 343.5,166.5 319.2,192.5 343.5,218.6 				"/>
				<polygon class="st5" points="343.5,321.8 320.6,297.2 343.5,272.6 343.5,271.1 319.2,297.2 343.5,323.3 				"/>
				<polygon class="st5" points="343.5,269.5 320.6,244.9 343.5,220.3 343.5,218.8 319.2,244.9 343.5,270.9 				"/>
				<polygon class="st5" points="343.5,164.8 320.6,140.2 343.5,115.6 343.5,114.1 319.2,140.2 343.5,166.3 				"/>
			</g>
		</g>
		<g>
			<rect x="371.3" y="62.1" class="st6" width="66.8" height="273.6"/>
			<rect x="379.2" y="69.9" class="st6" width="39" height="265.7"/>
			<polygon class="st6" points="423.4,47.1 371.3,62.1 423.4,62.1 			"/>
			<polygon class="st6" points="423.4,25.8 423.4,335.6 438.1,335.6 438.1,40.1 			"/>
			<g>
				<rect x="383.8" y="72.5" class="st6" width="30.2" height="2.4"/>
				<rect x="383.8" y="78.2" class="st6" width="30.2" height="2.4"/>
				<rect x="383.8" y="83.8" class="st6" width="30.2" height="2.4"/>
				<rect x="383.8" y="89.5" class="st6" width="30.2" height="2.4"/>
			</g>
			<g>
				<rect x="383.8" y="95.9" class="st6" width="30.2" height="2.4"/>
				<rect x="383.8" y="101.5" class="st6" width="30.2" height="2.4"/>
				<rect x="383.8" y="107.2" class="st6" width="30.2" height="2.4"/>
				<rect x="383.8" y="112.9" class="st6" width="30.2" height="2.4"/>
			</g>
			<g>
				<rect x="383.8" y="119.2" class="st6" width="30.2" height="2.4"/>
				<rect x="383.8" y="124.9" class="st6" width="30.2" height="2.4"/>
				<rect x="383.8" y="130.6" class="st6" width="30.2" height="2.4"/>
				<rect x="383.8" y="136.3" class="st6" width="30.2" height="2.4"/>
			</g>
			<g>
				<rect x="383.8" y="142.6" class="st6" width="30.2" height="2.4"/>
				<rect x="383.8" y="148.3" class="st6" width="30.2" height="2.4"/>
				<rect x="383.8" y="154" class="st6" width="30.2" height="2.4"/>
				<rect x="383.8" y="159.6" class="st6" width="30.2" height="2.4"/>
			</g>
			<g>
				<rect x="383.8" y="166" class="st6" width="30.2" height="2.4"/>
				<rect x="383.8" y="171.6" class="st6" width="30.2" height="2.4"/>
				<rect x="383.8" y="177.3" class="st6" width="30.2" height="2.4"/>
				<rect x="383.8" y="183" class="st6" width="30.2" height="2.4"/>
			</g>
			<g>
				<rect x="383.8" y="189.3" class="st6" width="30.2" height="2.4"/>
				<rect x="383.8" y="195" class="st6" width="30.2" height="2.4"/>
				<rect x="383.8" y="200.7" class="st6" width="30.2" height="2.4"/>
				<rect x="383.8" y="206.4" class="st6" width="30.2" height="2.4"/>
			</g>
			<g>
				<rect x="383.8" y="212.7" class="st6" width="30.2" height="2.4"/>
				<rect x="383.8" y="218.4" class="st6" width="30.2" height="2.4"/>
				<rect x="383.8" y="224.1" class="st6" width="30.2" height="2.4"/>
				<rect x="383.8" y="229.7" class="st6" width="30.2" height="2.4"/>
			</g>
			<g>
				<rect x="383.8" y="236.1" class="st6" width="30.2" height="2.4"/>
				<rect x="383.8" y="241.8" class="st6" width="30.2" height="2.4"/>
				<rect x="383.8" y="247.4" class="st6" width="30.2" height="2.4"/>
				<rect x="383.8" y="253.1" class="st6" width="30.2" height="2.4"/>
			</g>
			<g>
				<rect x="383.8" y="259.5" class="st6" width="30.2" height="2.4"/>
				<rect x="383.8" y="265.1" class="st6" width="30.2" height="2.4"/>
				<rect x="383.8" y="270.8" class="st6" width="30.2" height="2.4"/>
				<rect x="383.8" y="276.5" class="st6" width="30.2" height="2.4"/>
			</g>
			<g>
				<rect x="383.8" y="282.8" class="st6" width="30.2" height="2.4"/>
				<rect x="383.8" y="288.5" class="st6" width="30.2" height="2.4"/>
				<rect x="383.8" y="294.2" class="st6" width="30.2" height="2.4"/>
				<rect x="383.8" y="299.9" class="st6" width="30.2" height="2.4"/>
			</g>
			<g>
				<rect x="383.8" y="306.2" class="st6" width="30.2" height="2.4"/>
				<rect x="383.8" y="311.9" class="st6" width="30.2" height="2.4"/>
				<rect x="383.8" y="317.6" class="st6" width="30.2" height="2.4"/>
				<rect x="383.8" y="323.2" class="st6" width="30.2" height="2.4"/>
			</g>
			<polygon class="st6" points="371.3,71 371.3,197.4 407.7,84.7 			"/>
			<polygon class="st6" points="438.1,335.6 371.3,335.6 423.4,292.5 438.1,188.5 			"/>
			<polygon class="st6" points="423.4,47.1 379.2,54.6 371.3,62.1 			"/>
		</g>
		<g>
			<polygon class="st1" points="101.8,202.9 93.1,335.6 110.6,335.6 			"/>
			<polygon class="st1" points="141.7,225.7 134.4,335.6 148.9,335.6 			"/>
			<circle class="st1" cx="101.8" cy="253.4" r="13.5"/>
			<g>
				<polygon class="st1" points="173.9,180.6 166.6,335.6 181.1,335.6 				"/>
				<ellipse class="st1" cx="173.9" cy="257.1" rx="11.9" ry="11.9"/>
				<path class="st1" d="M180.2,232.5c0,3.5-2.9,6.4-6.4,6.4s-6.4-2.9-6.4-6.4s2.9-6.4,6.4-6.4C177.4,226.1,180.2,229,180.2,232.5z"
					/>
			</g>
			<rect x="157.9" y="252" class="st1" width="31.9" height="2.4"/>
			<rect x="85.9" y="247.6" class="st1" width="31.9" height="2.4"/>
			<rect x="164.3" y="229.8" class="st1" width="19.1" height="2.4"/>
		</g>
		<g>
			<polygon class="st1" points="216.8,335.6 295,335.6 295,319.5 284.9,308.9 255.9,305.9 228.6,319.2 197.1,319.2 189.8,335.6 			
				"/>
			<polyline class="st7" points="197.1,319.2 224.6,335.6 254.8,316.8 278.6,326.2 295,319.5 			"/>
			<polyline class="st7" points="252.6,335.6 278.6,326.2 295,335.6 			"/>
			<polyline class="st7" points="284.9,308.9 254.8,316.8 228.6,319.2 224.6,335.6 			"/>
			<line class="st7" x1="255.9" y1="305.9" x2="254.8" y2="316.8"/>
		</g>
		<g>
			<g>
				<path class="st6" d="M609.6,294.7c-17.7,0-32,12.5-32.4,28.1H642C641.6,307.2,627.2,294.7,609.6,294.7z"/>
				<path class="st6" d="M577.1,322.8L577.1,322.8c0,1.3,0,2.6,0.2,3.8c0.6,5.3,5.2,9.3,10.6,9.3h43.5c5.3,0,9.9-4,10.6-9.3
					c0.1-1.2,0.2-2.5,0.2-3.8l0,0H577.1z"/>
			</g>
			<g>
				<path class="st6" d="M609.6,294.7c-9.7,0-17.7,12.5-17.9,28.1h35.8C627.3,307.2,619.3,294.7,609.6,294.7z"/>
				<path class="st6" d="M591.7,322.8L591.7,322.8c0,1.3,0,2.6,0.1,3.8c0.4,5.3,2.9,9.3,5.8,9.3h24c3,0,5.5-4,5.8-9.3
					c0.1-1.2,0.1-2.5,0.1-3.8l0,0H591.7z"/>
			</g>
			<rect x="605.3" y="329.6" class="st6" width="6.3" height="6.3"/>
			<g>
				<line class="st8" x1="577.1" y1="322.8" x2="570.6" y2="335.5"/>
				<line class="st8" x1="591.7" y1="322.8" x2="585.1" y2="335.5"/>
			</g>
			<g>
				<line class="st8" x1="642" y1="322.8" x2="648.6" y2="335.5"/>
				<line class="st8" x1="627.5" y1="322.8" x2="634.1" y2="335.5"/>
			</g>
		</g>
		<g>
			<polygon class="st6" points="441,355.7 441,357.8 435.1,357.8 435.1,365.2 415.7,365.2 414.3,363.1 415.2,361.8 417.9,357.8 
				417.9,355.7 			"/>
			<path class="st6" d="M406,363.1h10.4l4.7,2h16.8l4.1-1.8h5.2l0,0c0,4-3.3,7.3-7.3,7.3h-21.3c-2.7,0-5.3-1-7.3-2.8L406,363.1z"/>
			<rect x="425.6" y="358.4" class="st6" width="3.3" height="3.3"/>
			<polygon class="st6" points="419.7,361.6 415.2,361.8 417.9,357.8 417.9,357.3 419.5,357.3 			"/>
			<rect x="430.5" y="358.4" class="st6" width="3.3" height="3.3"/>
		</g>
		<g>
			<polygon class="st6" points="194.4,358.5 194.4,360.6 200.3,360.6 200.3,368 219.8,368 221.2,366 220.3,364.7 217.5,360.6 
				217.5,358.5 			"/>
			<path class="st6" d="M229.5,366h-10.4l-4.7,2h-16.8l-4.1-1.8h-5.2l0,0c0,4,3.3,7.3,7.3,7.3h21.3c2.7,0,5.3-1,7.3-2.8L229.5,366z"
				/>
			<rect x="206.5" y="361.2" class="st6" width="3.3" height="3.3"/>
			<polygon class="st6" points="215.8,364.5 220.3,364.7 217.5,360.6 217.5,360.2 215.9,360.1 			"/>
			<rect x="201.6" y="361.2" class="st6" width="3.3" height="3.3"/>
		</g>
		<g>
			<polygon class="st6" points="562.7,340.2 562.7,342.3 568.6,342.3 568.6,349.7 588.1,349.7 589.5,347.6 588.6,346.3 585.8,342.3 
				585.8,340.2 			"/>
			<path class="st6" d="M597.8,347.6h-10.4l-4.7,2h-16.8l-4.1-1.8h-5.2l0,0c0,4,3.3,7.3,7.3,7.3h21.3c2.7,0,5.3-1,7.3-2.8
				L597.8,347.6z"/>
			<rect x="574.8" y="342.9" class="st6" width="3.3" height="3.3"/>
			<polygon class="st6" points="584,346.1 588.6,346.3 585.8,342.3 585.8,341.8 584.2,341.8 			"/>
			<rect x="570" y="342.9" class="st6" width="3.3" height="3.3"/>
		</g>
		<path class="st6" d="M687.5,335.6c0-0.1,0-0.2,0-0.3c0-1.7-1.4-3.2-3.2-3.2c-0.3,0-0.7,0.1-1,0.1c0-0.1,0-0.1,0-0.1
			c0-3.5-2.8-6.3-6.3-6.3c-3.1,0-5.7,2.3-6.2,5.2c-1.4,0.4-2.4,1.7-2.4,3.2c0,0.5,0.1,0.9,0.3,1.3L687.5,335.6L687.5,335.6z"/>
		<g>
			<path class="st6" d="M708.7,324.6c0,5.4-3.3,5.8-7.4,5.8c-4.1,0-7.4-0.4-7.4-5.8s6.6-13.8,7.4-13.8
				C701.4,310.8,708.7,319.2,708.7,324.6z"/>
			<line class="st8" x1="701.4" y1="321.2" x2="701.4" y2="335.6"/>
		</g>
		<path class="st6" d="M59.5,335.6c0-0.1,0-0.2,0-0.3c0-1.7-1.4-3.2-3.2-3.2c-0.3,0-0.7,0.1-1,0.1c0-0.1,0-0.1,0-0.1
			c0-3.5-2.8-6.3-6.3-6.3c-3.1,0-5.7,2.3-6.2,5.2c-1.4,0.4-2.4,1.7-2.4,3.2c0,0.5,0.1,0.9,0.3,1.3L59.5,335.6L59.5,335.6z"/>
		<path class="st6" d="M173.8,335.6c0-0.1,0-0.2,0-0.3c0-1.7-1.4-3.2-3.2-3.2c-0.3,0-0.7,0.1-1,0.1c0-0.1,0-0.1,0-0.1
			c0-3.5-2.8-6.3-6.3-6.3c-3.1,0-5.7,2.3-6.2,5.2c-1.4,0.4-2.4,1.7-2.4,3.2c0,0.5,0.1,0.9,0.3,1.3L173.8,335.6L173.8,335.6z"/>
		<g>
			<path class="st6" d="M80.8,324.6c0,5.4-3.3,5.8-7.4,5.8S66,330,66,324.6s6.6-13.8,7.4-13.8C73.4,310.8,80.8,319.2,80.8,324.6z"/>
			<line class="st8" x1="73.4" y1="321.2" x2="73.4" y2="335.6"/>
		</g>
		<g>
			<path class="st6" d="M365.2,324.6c0,5.4-3.3,5.8-7.4,5.8s-7.4-0.4-7.4-5.8s6.6-13.8,7.4-13.8
				C357.8,310.8,365.2,319.2,365.2,324.6z"/>
			<line class="st8" x1="357.8" y1="321.2" x2="357.8" y2="335.6"/>
		</g>
	</g>
</g>
</svg>
