<?xml version="1.0" encoding="utf-8"?>
<!-- Generator: Adobe Illustrator 23.0.1, SVG Export Plug-In . SVG Version: 6.00 Build 0)  -->
<svg version="1.1" id="Calque_1" xmlns="http://www.w3.org/2000/svg" xmlns:xlink="http://www.w3.org/1999/xlink" x="0px" y="0px"
	 viewBox="0 0 900 650" style="enable-background:new 0 0 900 650;" xml:space="preserve">
<style type="text/css">
	.st0{clip-path:url(#SVGID_2_);fill:#FFFFFF;}
	.st1{clip-path:url(#SVGID_2_);}
	.st2{fill:#FFFFFF;}
	.st3{opacity:0.14;clip-path:url(#SVGID_2_);}
	.st4{fill:#91501C;}
	.st5{fill:#FFAB44;}
	.st6{fill:#B16827;}
	.st7{fill:#C2EEFC;}
	.st8{opacity:0.25;fill:#5D5D5D;enable-background:new    ;}
	.st9{fill:#FBEBBA;}
	.st10{fill:#CABC9C;}
	.st11{fill:#8F8676;}
	.st12{clip-path:url(#SVGID_2_);fill:#8C8C8C;}
	.st13{clip-path:url(#SVGID_2_);fill:#C1A9A9;}
	.st14{clip-path:url(#SVGID_2_);fill:#CDCACA;}
	.st15{clip-path:url(#SVGID_2_);fill:#00844A;}
	.st16{clip-path:url(#SVGID_2_);fill:#00C147;}
	.st17{fill:#A2E04D;}
	.st18{fill:#357315;}
	.st19{fill:#5ECC2E;}
	.st20{opacity:0.25;}
	.st21{fill:#85361F;}
	.st22{fill:#FF7D43;}
	.st23{fill:#46D1FA;}
	.st24{fill:#E85E3C;}
	.st25{fill:#EFC73E;}
	.st26{fill:#7F714C;}
	.st27{fill:#D85D00;}
	.st28{fill:#FF7B00;}
	.st29{fill:#FFECAB;}
	.st30{fill:#A14407;}
	.st31{fill:#242221;}
	.st32{fill:#5D2E07;}
	.st33{fill:#00A615;}
	.st34{clip-path:url(#SVGID_2_);fill:none;}
</style>
<g>
	<defs>
		<rect id="SVGID_1_" y="99" width="900" height="551"/>
	</defs>
	<clipPath id="SVGID_2_">
		<use xlink:href="#SVGID_1_"  style="overflow:visible;"/>
	</clipPath>
	<path class="st0" d="M807.8,15.7"/>
	<g id="XMLID_631_" class="st1">
		<g id="XMLID_635_">
			<path id="XMLID_639_" class="st2" d="M496.6,160.2l-1.8-0.8l0.5-1.9c3.2-13.4-4.8-23.8-14.2-28.2c-6.2-2.8-13.1-3.3-19.4-1.2
				c-5.6,1.9-10.5,5.5-14.4,10.9l-1.2,1.7l-1.8-1c-2.9-1.6-6.2-2.5-9.4-2.5c-3,0-5.9,0.7-8.5,2.2c-2.2,1.2-9.2,6-8.6,16.8l0.1,1.9
				l-1.8,0.5c-12.6,3.7-17.6,14.5-17,23.5c0.7,10,8.6,20.8,24.2,20.8c25.6,0,67.8-0.1,68.6-0.1c10.1,0,18.5-7.5,20.1-17.8
				C513.2,176.8,509.8,166,496.6,160.2z"/>
			<path id="XMLID_636_" class="st2" d="M500.2,156.7c2.6-15.1-6.9-26.9-17.2-31.7c-7.3-3.4-15.4-3.8-22.9-1.4
				c-5.9,2-11.2,5.8-15.5,11c-6.7-3-14.5-2.8-20.7,0.6c-6.9,3.8-11,11-11.1,19.4c-13.9,4.9-19.4,17.4-18.6,27.8
				c0.9,12.1,10.3,25.2,29,25.2c25.6,0,67.8-0.1,68.6-0.1c12.4,0,22.8-9.2,24.8-21.9C518,176.6,514.5,163.8,500.2,156.7z M512,184.9
				c-1.6,10.3-10,17.8-20.1,17.8c-0.8,0-43,0.1-68.6,0.1c-15.6,0-23.5-10.8-24.2-20.8c-0.7-9,4.3-19.8,17-23.5l1.8-0.5l-0.1-1.9
				c-0.6-10.8,6.5-15.6,8.6-16.8c2.6-1.4,5.5-2.2,8.5-2.2c3.2,0,6.5,0.9,9.4,2.5l1.8,1l1.2-1.7c3.9-5.4,8.7-9,14.4-10.9
				c6.3-2.1,13.3-1.7,19.4,1.2c9.4,4.3,17.4,14.7,14.2,28.2l-0.5,1.9l1.8,0.8C509.8,166,513.2,176.8,512,184.9z"/>
		</g>
		<path id="XMLID_632_" class="st2" d="M434.8,137.2c-3,0-5.9,0.7-8.5,2.2c-2.2,1.2-9.2,6-8.6,16.8l0.1,1.9l-1.8,0.5
			c-12.6,3.7-17.6,14.5-17,23.5c0.7,10,8.6,20.8,24.2,20.8c25.6,0,67.8-0.1,68.6-0.1c10.1,0,18.5-7.5,20.1-17.8
			c1.3-8.1-2.1-18.9-15.4-24.7l-1.8-0.8l0.5-1.9c3.2-13.4-4.8-23.8-14.2-28.2c-6.2-2.8-13.1-3.3-19.4-1.2
			c-5.6,1.9-10.5,5.5-14.4,10.9l-1.2,1.7l-1.8-1C441.3,138.1,438,137.2,434.8,137.2z"/>
	</g>
	<g id="XMLID_622_" class="st1">
		<g id="XMLID_626_">
			<path id="XMLID_630_" class="st2" d="M594.4,309.5l1.8-0.8l-0.5-1.9c-3.2-13.4,4.8-23.8,14.2-28.2c6.2-2.8,13.1-3.3,19.4-1.2
				c5.6,1.9,10.5,5.5,14.4,10.9l1.2,1.7l1.8-1c2.9-1.6,6.2-2.5,9.4-2.5c3,0,5.9,0.7,8.5,2.2c2.2,1.2,9.2,6,8.6,16.8l-0.1,1.9
				l1.8,0.5c12.6,3.7,17.6,14.5,17,23.5c-0.7,10-8.6,20.8-24.2,20.8c-25.6,0-67.8-0.1-68.6-0.1c-10.1,0-18.5-7.5-20.1-17.8
				C577.8,326.1,581.2,315.3,594.4,309.5z"/>
			<path id="XMLID_627_" class="st2" d="M574.4,334.9c1.9,12.7,12.4,21.9,24.8,21.9c0.8,0,43,0.1,68.6,0.1c18.6,0,28.1-13.1,29-25.2
				c0.8-10.5-4.7-22.9-18.6-27.8c-0.1-8.4-4.2-15.5-11.1-19.4c-6.2-3.4-14-3.6-20.7-0.6c-4.3-5.3-9.6-9-15.5-11
				c-7.5-2.5-15.6-2-22.9,1.4c-10.3,4.8-19.8,16.6-17.2,31.7C576.5,313.1,573,325.9,574.4,334.9z M594.4,309.5l1.8-0.8l-0.5-1.9
				c-3.2-13.4,4.8-23.8,14.2-28.2c6.2-2.8,13.1-3.3,19.4-1.2c5.6,1.9,10.5,5.5,14.4,10.9l1.2,1.7l1.8-1c2.9-1.6,6.2-2.5,9.4-2.5
				c3,0,5.9,0.7,8.5,2.2c2.2,1.2,9.2,6,8.6,16.8l-0.1,1.9l1.8,0.5c12.6,3.7,17.6,14.5,17,23.5c-0.7,10-8.6,20.8-24.2,20.8
				c-25.6,0-67.8-0.1-68.6-0.1c-10.1,0-18.5-7.5-20.1-17.8C577.8,326.1,581.2,315.3,594.4,309.5z"/>
		</g>
		<path id="XMLID_623_" class="st2" d="M646.8,289l-1.8,1l-1.2-1.7c-3.9-5.4-8.7-9-14.4-10.9c-6.3-2.1-13.3-1.7-19.4,1.2
			c-9.4,4.3-17.4,14.7-14.2,28.2l0.5,1.9l-1.8,0.8c-13.2,5.8-16.6,16.6-15.4,24.7c1.6,10.3,10,17.8,20.1,17.8c0.8,0,43,0.1,68.6,0.1
			c15.6,0,23.5-10.8,24.2-20.8c0.7-9-4.3-19.8-17-23.5l-1.8-0.5l0.1-1.9c0.6-10.8-6.5-15.6-8.6-16.8c-2.6-1.4-5.5-2.2-8.5-2.2
			C653,286.5,649.7,287.4,646.8,289z"/>
	</g>
	<g class="st3">
		<g>
			<rect y="350.7" width="87.4" height="273.2"/>
			<rect x="812.6" y="350.7" width="87.4" height="273.2"/>
			<rect x="238.6" y="380.3" width="87.4" height="243.6"/>
			<rect x="470.3" y="442.2" width="163" height="181.7"/>
			<rect x="651.1" y="497" width="138.3" height="126.9"/>
			<rect x="705.6" y="453.5" width="77.7" height="115.9"/>
			<polygon points="440.1,621.4 352.8,621.4 353.8,244.7 440.1,307.9 			"/>
			<rect x="56.3" y="471.5" width="87.4" height="152.4"/>
			<rect x="186.9" y="503.4" width="87.4" height="120.5"/>
			<rect x="404.9" y="503.4" width="87.4" height="120.5"/>
			<rect x="607.4" y="570.5" width="87.4" height="53.4"/>
			<rect x="753.1" y="530.4" width="87.4" height="93.6"/>
			<rect x="315.8" y="461.3" width="87.4" height="162.6"/>
			<polygon points="212.2,623.9 124.9,623.9 124.9,269.1 168.6,219.1 212.2,269.1 			"/>
			<rect x="121.1" y="269.7" width="94.5" height="6.8"/>
			<rect x="121.1" y="306.5" width="94.5" height="6.8"/>
			<rect x="121.1" y="343.2" width="94.5" height="6.8"/>
			<rect x="121.1" y="380" width="94.5" height="6.8"/>
			<rect x="235" y="379" width="94.5" height="7.6"/>
			<rect x="466" y="438.4" width="174.1" height="7.6"/>
			<rect x="699.4" y="453.1" width="87.8" height="7.6"/>
			<rect x="749.2" y="426.3" width="33.2" height="7.6"/>
			<rect x="753.1" y="430.1" width="25.7" height="28.4"/>
			<rect x="861" y="289.9" width="33.2" height="7.6"/>
			<rect x="864.9" y="293.7" width="25.7" height="61.9"/>
			<rect x="861" y="334.4" width="6.6" height="16.3"/>
			<rect x="885.2" y="334.4" width="6.6" height="16.3"/>
			<rect x="121.1" y="416.7" width="94.5" height="6.8"/>
			<rect x="121.1" y="453.5" width="94.5" height="6.8"/>
			<rect x="121.1" y="490.2" width="94.5" height="6.8"/>
			<rect x="121.1" y="527" width="94.5" height="6.8"/>
			<rect x="121.1" y="563.7" width="94.5" height="6.8"/>
			<rect x="121.1" y="600.5" width="94.5" height="6.8"/>
			<rect x="186.9" y="229.6" width="14.6" height="27.2"/>
			<rect x="408.8" y="276.5" width="14.6" height="27.2"/>
		</g>
		<rect y="600.5" width="900" height="49.5"/>
	</g>
	<g class="st1">
		<g>
			<polygon class="st4" points="620.6,464.3 520.9,464.3 620.6,412.3 			"/>
			<rect x="537.2" y="408.2" class="st4" width="38.7" height="48.6"/>
			<rect x="483.6" y="465.4" class="st5" width="145.8" height="184.6"/>
			<rect x="477.8" y="463.8" class="st6" width="157.4" height="13.2"/>
			<rect x="477.8" y="514.8" class="st6" width="157.4" height="13.2"/>
			<rect x="477.8" y="565.8" class="st6" width="157.4" height="13.2"/>
			<g>
				<rect x="493.6" y="589.5" class="st7" width="56.4" height="60.8"/>
				<rect x="491" y="586.8" class="st6" width="4.1" height="63.4"/>
				<rect x="549.1" y="586.8" class="st6" width="4.1" height="63.4"/>
				<rect x="520.8" y="586.8" class="st6" width="2.1" height="63.4"/>
				<rect x="491" y="586.1" class="st6" width="62.2" height="4.5"/>
			</g>
			<g>
				<rect x="494.1" y="535.1" class="st7" width="22.5" height="24.2"/>
				<rect x="493.1" y="534" class="st6" width="1.6" height="25.3"/>
				<rect x="516.2" y="534" class="st6" width="1.6" height="25.3"/>
				<rect x="504.9" y="534" class="st6" width="0.8" height="25.3"/>
				<rect x="493.1" y="533.7" class="st6" width="24.8" height="1.8"/>
				<rect x="493.1" y="557.6" class="st6" width="24.8" height="1.8"/>
			</g>
			<g>
				<rect x="528.8" y="535.1" class="st7" width="22.5" height="24.2"/>
				<rect x="527.8" y="534" class="st6" width="1.6" height="25.3"/>
				<rect x="550.9" y="534" class="st6" width="1.6" height="25.3"/>
				<rect x="539.6" y="534" class="st6" width="0.8" height="25.3"/>
				<rect x="527.8" y="533.7" class="st6" width="24.8" height="1.8"/>
				<rect x="527.8" y="557.6" class="st6" width="24.8" height="1.8"/>
			</g>
			<g>
				<rect x="559.6" y="535.1" class="st7" width="22.5" height="24.2"/>
				<rect x="558.5" y="534" class="st6" width="1.6" height="25.3"/>
				<rect x="581.7" y="534" class="st6" width="1.6" height="25.3"/>
				<rect x="570.4" y="534" class="st6" width="0.8" height="25.3"/>
				<rect x="558.5" y="533.7" class="st6" width="24.8" height="1.8"/>
				<rect x="558.5" y="557.6" class="st6" width="24.8" height="1.8"/>
			</g>
			<g>
				<rect x="594.4" y="535.1" class="st7" width="22.5" height="24.2"/>
				<rect x="593.4" y="534" class="st6" width="1.6" height="25.3"/>
				<rect x="616.5" y="534" class="st6" width="1.6" height="25.3"/>
				<rect x="605.2" y="534" class="st6" width="0.8" height="25.3"/>
				<rect x="593.4" y="533.7" class="st6" width="24.8" height="1.8"/>
				<rect x="593.4" y="557.6" class="st6" width="24.8" height="1.8"/>
			</g>
			<g>
				<rect x="561" y="589.5" class="st7" width="56.4" height="60.8"/>
				<rect x="558.5" y="586.8" class="st6" width="4.1" height="63.4"/>
				<rect x="616.6" y="586.8" class="st6" width="4.1" height="63.4"/>
				<rect x="588.2" y="586.8" class="st6" width="2.1" height="63.4"/>
				<rect x="558.5" y="586.1" class="st6" width="62.2" height="4.5"/>
			</g>
			<rect x="483.6" y="482.6" class="st7" width="145.8" height="26.4"/>
			<rect x="482.6" y="479.5" class="st6" width="146.8" height="4.6"/>
			<rect x="482.6" y="505.6" class="st6" width="146.8" height="4.6"/>
			<rect x="489.1" y="482.3" class="st6" width="2" height="24.8"/>
			<rect x="515.2" y="482.3" class="st6" width="2" height="24.8"/>
			<rect x="541.4" y="482.3" class="st6" width="2" height="24.8"/>
			<rect x="567.6" y="482.3" class="st6" width="2" height="24.8"/>
			<rect x="593.8" y="482.3" class="st6" width="2" height="24.8"/>
			<rect x="620" y="482.3" class="st6" width="2" height="24.8"/>
		</g>
		<polygon class="st8" points="561,650.3 562.6,650.3 588.2,650.3 590.3,650.3 616.6,650.3 617.5,650.3 620.7,650.3 620.7,650 
			629.4,650 629.4,579 635.2,579 635.2,565.8 629.4,565.8 629.4,528 635.2,528 635.2,514.8 629.4,514.8 629.4,510.2 629.4,509 
			629.4,505.6 629.4,484.1 629.4,482.6 629.4,479.5 629.4,476.9 635.2,476.9 635.2,463.8 620.6,463.8 620.6,412.3 575.9,435.6 
			575.9,408.2 556.5,408.2 556.5,650 558.5,650 558.5,650.3 		"/>
	</g>
	<g class="st1">
		<g>
			<rect x="155.1" y="639.5" class="st9" width="185.3" height="10.8"/>
			<rect x="162.9" y="531.7" class="st9" width="171.7" height="118.6"/>
			<rect x="212" y="442.7" class="st9" width="68.9" height="73.7"/>
			<circle class="st9" cx="246.4" cy="442.7" r="34.4"/>
			<ellipse class="st9" cx="248.7" cy="531.3" rx="85.9" ry="20.8"/>
			<polygon class="st9" points="235.7,412.3 246.4,343.2 257.2,412.3 			"/>
			<rect x="206.5" y="442.9" class="st10" width="80.1" height="8.8"/>
			<rect x="206.5" y="449.1" class="st11" width="80.1" height="2.6"/>
			<rect x="210.8" y="433.6" class="st10" width="71.9" height="2.5"/>
			<rect x="216.4" y="421.3" class="st10" width="61.1" height="2.5"/>
			<rect x="228.5" y="409.8" class="st10" width="36.9" height="2.4"/>
			<rect x="206.5" y="503.5" class="st10" width="80.1" height="8.8"/>
			<rect x="161" y="529.4" class="st10" width="174.7" height="8.8"/>
			<rect x="161" y="539.6" class="st10" width="174.7" height="4.4"/>
			<rect x="216.4" y="447.4" class="st10" width="8.6" height="61.6"/>
			<rect x="168" y="531.3" class="st10" width="8.6" height="42.6"/>
			<rect x="193.1" y="531.3" class="st10" width="8.6" height="42.6"/>
			<rect x="218.2" y="531.3" class="st10" width="8.6" height="42.6"/>
			<rect x="243.2" y="531.3" class="st10" width="8.6" height="42.6"/>
			<rect x="268.3" y="531.3" class="st10" width="8.6" height="42.6"/>
			<rect x="293.4" y="531.3" class="st10" width="8.6" height="42.6"/>
			<rect x="318.4" y="531.3" class="st10" width="8.6" height="42.6"/>
			<rect x="233.6" y="447.4" class="st10" width="8.6" height="61.6"/>
			<rect x="250.9" y="447.4" class="st10" width="8.6" height="61.6"/>
			<rect x="268.1" y="447.4" class="st10" width="8.6" height="61.6"/>
			<path class="st10" d="M235,411.1c0,0-9.8,11.9-11.3,31.9h3.3c0,0,1.3-17.5,9.8-31.9H235z"/>
			<path class="st10" d="M256.8,411.1c0,0,9.8,11.9,11.3,31.9h-3.3c0,0-1.3-17.5-9.8-31.9H256.8z"/>
			<rect x="244.3" y="411.4" class="st10" width="2.3" height="31.5"/>
			<rect x="206.5" y="510.5" class="st11" width="80.1" height="2.6"/>
			<rect x="161" y="535.4" class="st11" width="174.7" height="2.8"/>
			<rect x="161" y="569.7" class="st10" width="174.7" height="8.8"/>
			<g>
				<rect x="172.3" y="577.7" class="st10" width="17.5" height="72.5"/>
				<polygon class="st10" points="168,578.5 172.3,585 189.8,585 194,578.4 				"/>
				<polygon class="st10" points="194,650.2 189.7,643.7 172.2,643.7 168,650.3 				"/>
				<path class="st11" d="M177.5,642.7c0,0.6-0.5,1.1-1.1,1.1l0,0c-0.6,0-1.1-0.5-1.1-1.1V587c0-0.6,0.5-1.1,1.1-1.1l0,0
					c0.6,0,1.1,0.5,1.1,1.1V642.7z"/>
				<path class="st11" d="M185.5,642.7c0,0.6-0.5,1.1-1.1,1.1l0,0c-0.6,0-1.1-0.5-1.1-1.1V587c0-0.6,0.5-1.1,1.1-1.1l0,0
					c0.6,0,1.1,0.5,1.1,1.1V642.7z"/>
			</g>
			<g>
				<rect x="205" y="577.7" class="st10" width="17.5" height="72.5"/>
				<polygon class="st10" points="200.7,578.5 205,585 222.5,585 226.6,578.4 				"/>
				<polygon class="st10" points="226.6,650.2 222.3,643.7 204.8,643.7 200.7,650.3 				"/>
				<path class="st11" d="M210.2,642.7c0,0.6-0.5,1.1-1.1,1.1l0,0c-0.6,0-1.1-0.5-1.1-1.1V587c0-0.6,0.5-1.1,1.1-1.1l0,0
					c0.6,0,1.1,0.5,1.1,1.1V642.7z"/>
				<path class="st11" d="M218.2,642.7c0,0.6-0.5,1.1-1.1,1.1l0,0c-0.6,0-1.1-0.5-1.1-1.1V587c0-0.6,0.5-1.1,1.1-1.1l0,0
					c0.6,0,1.1,0.5,1.1,1.1V642.7z"/>
			</g>
			<g>
				<rect x="274.1" y="577.7" class="st10" width="17.5" height="72.5"/>
				<polygon class="st10" points="269.8,578.5 274.1,585 291.6,585 295.8,578.4 				"/>
				<polygon class="st10" points="295.8,650.2 291.5,643.7 274,643.7 269.8,650.3 				"/>
				<path class="st11" d="M279.3,642.7c0,0.6-0.5,1.1-1.1,1.1l0,0c-0.6,0-1.1-0.5-1.1-1.1V587c0-0.6,0.5-1.1,1.1-1.1l0,0
					c0.6,0,1.1,0.5,1.1,1.1V642.7z"/>
				<path class="st11" d="M287.4,642.7c0,0.6-0.5,1.1-1.1,1.1l0,0c-0.6,0-1.1-0.5-1.1-1.1V587c0-0.6,0.5-1.1,1.1-1.1l0,0
					c0.6,0,1.1,0.5,1.1,1.1V642.7z"/>
			</g>
			<g>
				<rect x="306.8" y="577.7" class="st10" width="17.5" height="72.5"/>
				<polygon class="st10" points="302.5,578.5 306.8,585 324.3,585 328.4,578.4 				"/>
				<polygon class="st10" points="328.4,650.2 324.1,643.7 306.7,643.7 302.5,650.3 				"/>
				<path class="st11" d="M312,642.7c0,0.6-0.5,1.1-1.1,1.1l0,0c-0.6,0-1.1-0.5-1.1-1.1V587c0-0.6,0.5-1.1,1.1-1.1l0,0
					c0.6,0,1.1,0.5,1.1,1.1V642.7z"/>
				<path class="st11" d="M320,642.7c0,0.6-0.5,1.1-1.1,1.1l0,0c-0.6,0-1.1-0.5-1.1-1.1V587c0-0.6,0.5-1.1,1.1-1.1l0,0
					c0.6,0,1.1,0.5,1.1,1.1V642.7z"/>
			</g>
			<rect x="161" y="575.7" class="st11" width="174.7" height="2.8"/>
			<rect x="228.8" y="643.7" class="st10" width="39.3" height="6.5"/>
			<rect x="237.1" y="640" class="st10" width="22.8" height="3.8"/>
			<rect x="241.1" y="636.4" class="st10" width="14.8" height="3.6"/>
			<polygon class="st10" points="253.8,636.4 242.9,636.4 242.9,596.9 248.3,592.2 253.8,596.9 			"/>
		</g>
		<path class="st8" d="M247.2,650.3h20.9h6h17.5h15.2h17.5h10.3h5.8v-10.8h-5.8v-61h1.1v-2.8v-6h-1.1V544h1.1v-4.4h-1.1v-1.4h1.1
			v-2.8v-6h-1.5c-2.8-7.4-21.4-13.6-47.6-16.7v-0.4v-1.8v-7h-5.7v-51.8h5.7v-2.6v-6.2h-5.7c0-0.1,0-0.2,0-0.3c0-2.3-0.2-4.5-0.6-6.6
			h2.4v-2.5h-3c-1-3.5-2.5-6.8-4.4-9.8h2.3v-2.5h-4.1c-2.9-3.7-6.6-6.8-10.8-9h2.7v-2.4h-8.5h-0.1l-9.6-61.7L247.2,650.3
			L247.2,650.3z"/>
		<circle class="st10" cx="246.4" cy="344" r="2.6"/>
	</g>
	<rect y="671.5" class="st12" width="900" height="129.6"/>
	<rect y="678.7" class="st0" width="900" height="6.4"/>
	<rect y="740.6" class="st0" width="900" height="6.4"/>
	<rect x="27.4" y="708.1" class="st0" width="22.7" height="3.8"/>
	<rect x="103.9" y="708.1" class="st0" width="22.7" height="3.8"/>
	<rect x="180.4" y="708.1" class="st0" width="22.7" height="3.8"/>
	<rect x="256.9" y="708.1" class="st0" width="22.7" height="3.8"/>
	<rect x="333.4" y="708.1" class="st0" width="22.7" height="3.8"/>
	<rect x="410" y="708.1" class="st0" width="22.7" height="3.8"/>
	<rect x="486.5" y="708.1" class="st0" width="22.7" height="3.8"/>
	<rect x="563" y="708.1" class="st0" width="22.7" height="3.8"/>
	<rect x="639.5" y="708.1" class="st0" width="22.7" height="3.8"/>
	<rect x="716" y="708.1" class="st0" width="22.7" height="3.8"/>
	<rect x="792.5" y="708.1" class="st0" width="22.7" height="3.8"/>
	<rect x="869" y="708.1" class="st0" width="22.7" height="3.8"/>
	<rect y="665.1" class="st13" width="900" height="6.4"/>
	<rect y="650" class="st14" width="900" height="15.1"/>
	<rect y="751.7" class="st14" width="900" height="15.1"/>
	<rect y="766.8" class="st15" width="900" height="34.3"/>
	<rect y="775.1" class="st16" width="900" height="60.3"/>
	<g class="st1">
		<rect x="658.2" y="583.6" class="st17" width="105.2" height="66.4"/>
		<polygon class="st18" points="763.5,557.2 712.8,557.2 707.5,557.2 656.9,557.2 644.3,588.2 707.5,588.2 712.8,588.2 776.1,588.2 
					"/>
		<rect x="644.3" y="579" class="st19" width="131.8" height="9.3"/>
		<rect x="732.5" y="598.6" class="st18" width="25.1" height="51.4"/>
		<circle class="st17" cx="753.2" cy="623.9" r="3"/>
		<rect x="663.6" y="598.6" class="st7" width="64" height="42.4"/>
		<rect x="663.6" y="636.6" class="st19" width="64" height="4.4"/>
		<ellipse class="st19" cx="650.8" cy="588.3" rx="6.6" ry="6.4"/>
		<ellipse class="st19" cx="664.1" cy="588.3" rx="6.6" ry="6.4"/>
		<ellipse class="st19" cx="677.4" cy="588.3" rx="6.6" ry="6.4"/>
		<ellipse class="st19" cx="690.5" cy="588.3" rx="6.6" ry="6.4"/>
		<ellipse class="st19" cx="703.4" cy="588.3" rx="6.6" ry="6.4"/>
		<ellipse class="st19" cx="716.4" cy="588.3" rx="6.6" ry="6.4"/>
		<ellipse class="st19" cx="730" cy="588.3" rx="6.6" ry="6.4"/>
		<ellipse class="st19" cx="743" cy="588.3" rx="6.6" ry="6.4"/>
		<ellipse class="st19" cx="756.2" cy="588.3" rx="6.6" ry="6.4"/>
		<ellipse class="st19" cx="769.5" cy="588.3" rx="6.6" ry="6.4"/>
		<rect x="657.4" y="527" class="st19" width="105.4" height="22.9"/>
		<polygon class="st18" points="665,527 674.5,507.1 681.3,507.1 685.4,514.8 679.2,514.8 677.4,510.5 669.1,527 		"/>
		<polygon class="st18" points="699.9,527 709.4,507.1 716.2,507.1 720.3,514.8 714.1,514.8 712.3,510.5 704,527 		"/>
		<polygon class="st18" points="734.8,527 744.3,507.1 751.1,507.1 755.2,514.8 749,514.8 747.2,510.5 738.9,527 		"/>
		<rect x="679.6" y="549.9" class="st18" width="5.8" height="7.3"/>
		<rect x="734.8" y="549.9" class="st18" width="5.8" height="7.3"/>
		<g class="st20">
			<path class="st21" d="M763.5,557.2h-22.9v-7.3h22.2V527h-23.9l8.3-16.5l1.8,4.3h6.2l-4.1-7.7h-6.8l-9.6,19.9h-23.9v22.9h23.9v7.3
				h-22h-2V650h21.6h25.1h5.9v-59.4c1,2.4,3.3,4,6.1,4c3.6,0,6.6-2.9,6.6-6.4V579h-3.7L763.5,557.2z"/>
			<polygon class="st21" points="720.3,514.8 716.2,507.1 710.8,507.1 710.8,513.4 712.3,510.5 714.1,514.8 			"/>
		</g>
	</g>
	<g class="st1">
		<rect x="440.8" y="489.5" class="st21" width="13.7" height="10.9"/>
		<rect x="438.8" y="484.1" class="st21" width="17.6" height="5.5"/>
		<rect x="353" y="527" class="st22" width="105.2" height="123.3"/>
		<polygon class="st21" points="458.2,500.5 407.6,500.5 402.3,500.5 351.6,500.5 339,531.6 402.3,531.6 407.6,531.6 470.8,531.6 		
			"/>
		<rect x="342.6" y="580.3" class="st21" width="126" height="9.3"/>
		<g>
			<circle class="st21" cx="370.2" cy="554.1" r="13.6"/>
			<circle class="st23" cx="370.2" cy="554.1" r="10.6"/>
			<rect x="368.9" y="542.6" class="st21" width="2.6" height="22.9"/>
			<rect x="358.8" y="552.8" class="st21" width="22.9" height="2.6"/>
		</g>
		<g>
			<circle class="st21" cx="405.1" cy="554.1" r="13.6"/>
			<circle class="st23" cx="405.1" cy="554.1" r="10.6"/>
			<rect x="403.8" y="542.6" class="st21" width="2.6" height="22.9"/>
			<rect x="393.7" y="552.8" class="st21" width="22.9" height="2.6"/>
		</g>
		<g>
			<circle class="st21" cx="440.1" cy="554.1" r="13.6"/>
			<circle class="st23" cx="440.1" cy="554.1" r="10.6"/>
			<rect x="438.8" y="542.6" class="st21" width="2.6" height="22.9"/>
			<rect x="428.6" y="552.8" class="st21" width="22.9" height="2.6"/>
		</g>
		<rect x="339" y="522.3" class="st24" width="131.8" height="9.3"/>
		<g>
			<rect x="358.7" y="598.6" class="st9" width="56.9" height="37.9"/>
			<rect x="362.7" y="602.4" class="st23" width="49" height="30.5"/>
			<rect x="385.2" y="598.6" class="st9" width="4.2" height="36.8"/>
		</g>
		<rect x="423.3" y="600.5" class="st21" width="25.1" height="49.5"/>
		<circle class="st22" cx="443.2" cy="623.9" r="3"/>
		<polygon class="st8" points="458.2,500.5 454.5,500.5 454.5,489.5 456.4,489.5 456.4,484.1 438.8,484.1 438.8,489.5 440.8,489.5 
			440.8,500.5 407.6,500.5 403.8,500.5 403.8,650.3 458.2,650.3 458.2,589.5 468.6,589.5 468.6,580.3 458.2,580.3 458.2,531.6 
			470.8,531.6 470.8,522.3 467.1,522.3 		"/>
	</g>
	<g class="st1">
		<rect x="18.8" y="584.9" class="st25" width="121.5" height="65.3"/>
		<rect x="38.3" y="535.9" class="st25" width="82.6" height="44.4"/>
		<rect x="16.4" y="580.3" class="st9" width="126" height="9.3"/>
		<rect x="17.6" y="645.9" class="st9" width="46.1" height="4.3"/>
		<rect x="94" y="645.9" class="st9" width="47.5" height="4.3"/>
		<rect x="34.3" y="527" class="st9" width="90.3" height="9.3"/>
		<g>
			<rect x="43.3" y="545" class="st9" width="28.1" height="18.7"/>
			<rect x="45.2" y="546.8" class="st23" width="24.2" height="15.1"/>
			<rect x="56.4" y="545" class="st9" width="2.1" height="18.2"/>
		</g>
		<g>
			<rect x="24.3" y="601.6" class="st9" width="38.1" height="25.4"/>
			<rect x="26.9" y="604.1" class="st23" width="32.8" height="20.4"/>
			<rect x="42.1" y="601.6" class="st9" width="2.8" height="24.6"/>
		</g>
		<g>
			<rect x="95" y="601.6" class="st9" width="38.1" height="25.4"/>
			<rect x="97.7" y="604.1" class="st23" width="32.8" height="20.4"/>
			<rect x="112.8" y="601.6" class="st9" width="2.8" height="24.6"/>
		</g>
		<g>
			<rect x="87.9" y="545" class="st9" width="28.1" height="18.7"/>
			<rect x="89.9" y="546.8" class="st23" width="24.2" height="15.1"/>
			<rect x="101" y="545" class="st9" width="2.1" height="18.2"/>
		</g>
		<path class="st9" d="M90.5,650.3H68.3v-31.7c0-6.1,5-11.1,11.1-11.1l0,0c6.1,0,11.1,5,11.1,11.1V650.3z"/>
		<circle class="st26" cx="86.8" cy="629.6" r="2.4"/>
		<rect x="103.1" y="516" class="st9" width="13.7" height="10.9"/>
		<rect x="101" y="510.6" class="st9" width="17.6" height="5.5"/>
		<polygon class="st8" points="120.8,536.2 124.5,536.2 124.5,527 116.7,527 116.7,516 118.6,516 118.6,510.6 101,510.6 101,516 
			103.1,516 103.1,527 79.5,527 79.5,650.3 90.5,650.3 94,650.3 140.3,650.3 141.6,650.3 141.6,645.9 140.3,645.9 140.3,589.5 
			142.4,589.5 142.4,580.3 120.8,580.3 		"/>
	</g>
	<g class="st1">
		<rect x="862.2" y="641.8" class="st27" width="13.1" height="6.8"/>
		<g>
			<polygon class="st27" points="779.6,409.4 779.6,401 878.9,401 878.9,409.4 			"/>
			<polygon class="st27" points="784,407.3 791.9,407.3 791.9,436.3 784,436.3 			"/>
			<polygon class="st27" points="804.6,407.3 812.6,407.3 812.6,436.3 804.7,436.3 			"/>
			<polygon class="st27" points="825.3,407.3 833.2,407.3 833.2,436.3 825.3,436.3 			"/>
			<polygon class="st27" points="845.9,407.3 853.8,407.3 853.8,436.3 845.9,436.3 			"/>
			<polygon class="st27" points="866.5,407.3 874.4,407.3 874.4,436.3 866.5,436.3 			"/>
			<polygon class="st28" points="783.1,650.3 783.1,433.9 875.4,433.9 875.4,650 			"/>
			<polygon class="st29" points="779.6,437 779.6,429.1 878.9,429.1 878.9,437 			"/>
			<polygon class="st29" points="779.6,511.1 779.6,503.2 878.9,503.2 878.9,511.1 			"/>
			<polygon class="st29" points="779.6,585.1 779.6,577.2 878.9,577.2 878.9,585.1 			"/>
			<rect x="783.1" y="456.9" class="st27" width="13.1" height="6.8"/>
			<rect x="789.7" y="463.6" class="st27" width="13.1" height="6.8"/>
			<rect x="855.7" y="487.6" class="st27" width="13.1" height="6.8"/>
			<rect x="862.2" y="494.4" class="st27" width="13.1" height="6.8"/>
			<rect x="783.1" y="530.5" class="st27" width="13.1" height="6.8"/>
			<rect x="789.7" y="537.3" class="st27" width="13.1" height="6.8"/>
			<rect x="855.7" y="561.3" class="st27" width="13.1" height="6.8"/>
			<rect x="862.2" y="568.1" class="st27" width="13.1" height="6.8"/>
			<rect x="783.1" y="604.2" class="st27" width="13.1" height="6.8"/>
			<rect x="789.7" y="611" class="st27" width="13.1" height="6.8"/>
			<rect x="855.7" y="635" class="st27" width="13.1" height="6.8"/>
			<g>
				<rect x="789" y="445.6" class="st9" width="23.6" height="35.4"/>
				<rect x="791.3" y="448.1" class="st23" width="19" height="30.5"/>
				<rect x="789.7" y="462.2" class="st9" width="22.9" height="2.6"/>
			</g>
			<g>
				<rect x="817.3" y="445.6" class="st9" width="23.6" height="35.4"/>
				<rect x="819.6" y="448.1" class="st23" width="19" height="30.5"/>
				<rect x="817.9" y="462.2" class="st9" width="22.9" height="2.6"/>
			</g>
			<g>
				<rect x="845.5" y="445.6" class="st9" width="23.6" height="35.4"/>
				<rect x="847.8" y="448.1" class="st23" width="19" height="30.5"/>
				<rect x="846.2" y="462.2" class="st9" width="22.9" height="2.6"/>
			</g>
			<g>
				<rect x="789" y="520.7" class="st9" width="23.6" height="35.4"/>
				<rect x="791.3" y="523.2" class="st23" width="19" height="30.5"/>
				<rect x="789.7" y="537.2" class="st9" width="22.9" height="2.6"/>
			</g>
			<g>
				<rect x="789" y="599.1" class="st9" width="23.6" height="35.4"/>
				<rect x="791.3" y="601.6" class="st23" width="19" height="30.5"/>
				<rect x="789.7" y="615.6" class="st9" width="22.9" height="2.6"/>
			</g>
			<g>
				<rect x="845.5" y="599.1" class="st9" width="23.6" height="35.4"/>
				<rect x="847.8" y="601.6" class="st23" width="19" height="30.5"/>
				<rect x="846.2" y="615.6" class="st9" width="22.9" height="2.6"/>
			</g>
			<g>
				<rect x="817.3" y="520.7" class="st9" width="23.6" height="35.4"/>
				<rect x="819.6" y="523.2" class="st23" width="19" height="30.5"/>
				<rect x="817.9" y="537.2" class="st9" width="22.9" height="2.6"/>
			</g>
			<g>
				<rect x="845.5" y="520.7" class="st9" width="23.6" height="35.4"/>
				<rect x="847.8" y="523.2" class="st23" width="19" height="30.5"/>
				<rect x="846.2" y="537.2" class="st9" width="22.9" height="2.6"/>
			</g>
			<g>
				<polygon class="st30" points="846.2,628.2 846.2,621.4 887,621.4 887,628.2 				"/>
				<polygon class="st30" points="848.7,626.4 854.3,626.4 854.3,649.7 848.7,649.7 				"/>
				<polygon class="st30" points="863.4,626.4 869.1,626.4 869.1,649.7 863.4,649.7 				"/>
				<polygon class="st30" points="878.1,626.4 883.8,626.4 883.8,649.7 878.1,649.7 				"/>
				<polygon class="st30" points="771.6,628.2 771.6,621.4 812.6,621.4 812.6,628.2 				"/>
				<polygon class="st30" points="774.8,626.4 780.5,626.4 780.5,649.7 774.8,649.7 				"/>
				<polygon class="st30" points="789.6,626.4 795.2,626.4 795.2,649.7 789.6,649.7 				"/>
				<polygon class="st30" points="804.3,626.4 810,626.4 810,649.7 804.3,649.7 				"/>
			</g>
			<path class="st30" d="M840.2,650.3H818V608c0-6.1,5-11.1,11.1-11.1l0,0c6.1,0,11.1,5,11.1,11.1V650.3z"/>
			<circle class="st28" cx="835.2" cy="626.9" r="2"/>
		</g>
		<path class="st8" d="M840.2,650.1l35.2-0.1v-21.8h2.8v21.5h5.7v-21.5h3.2v-6.8h-11.6v-36.3h3.6v-7.9h-3.6v-2.4V568v-57h3.6v-7.9
			h-3.6v-2v-6.8V437h3.6v-7.9h-4.5v-19.7h4.5V401h-49.9v249.3h11.1L840.2,650.1L840.2,650.1z M853.8,409.4h12.7v19.7h-12.7V409.4z
			 M833.2,409.4h12.7v19.7h-12.7V409.4z"/>
	</g>
	<g class="st1">
		<rect x="15.4" y="591.4" class="st31" width="4.5" height="66.2"/>
		<path class="st31" d="M12.7,657.6h9.8C22.5,657.6,17.6,648.6,12.7,657.6z"/>
		<polygon class="st31" points="24.8,583.1 23.9,583.1 11.4,583.1 10.4,583.1 14.9,594.4 15,594.9 15.1,594.9 20.2,594.9 
			20.2,594.9 20.4,594.4 		"/>
		<rect x="9.6" y="581.2" class="st31" width="15.6" height="1.8"/>
		<rect x="16.5" y="573.7" class="st31" width="1.8" height="15.6"/>
		<ellipse class="st31" cx="17.5" cy="581.2" rx="7.1" ry="6.1"/>
		<polygon class="st25" points="11.5,583.1 17.2,583.1 17.2,594.4 16.3,594.4 		"/>
		<polygon class="st25" points="23.8,583.1 18.1,583.1 18.1,594.4 19,594.4 		"/>
	</g>
	<g class="st1">
		<rect x="171" y="591.4" class="st31" width="4.5" height="66.2"/>
		<path class="st31" d="M168.3,657.6h9.8C178.1,657.6,173.3,648.6,168.3,657.6z"/>
		<polygon class="st31" points="180.5,583.1 179.5,583.1 167,583.1 166.1,583.1 170.5,594.4 170.6,594.9 170.7,594.9 175.8,594.9 
			175.9,594.9 176,594.4 		"/>
		<rect x="165.3" y="581.2" class="st31" width="15.6" height="1.8"/>
		<rect x="172.1" y="573.7" class="st31" width="1.8" height="15.6"/>
		<ellipse class="st31" cx="173.2" cy="581.2" rx="7.1" ry="6.1"/>
		<polygon class="st25" points="167.2,583.1 172.8,583.1 172.8,594.4 171.9,594.4 		"/>
		<polygon class="st25" points="179.4,583.1 173.7,583.1 173.7,594.4 174.6,594.4 		"/>
	</g>
	<g class="st1">
		<rect x="326.6" y="591.4" class="st31" width="4.5" height="66.2"/>
		<path class="st31" d="M323.9,657.6h9.8C333.8,657.6,328.9,648.6,323.9,657.6z"/>
		<polygon class="st31" points="336.1,583.1 335.2,583.1 322.6,583.1 321.7,583.1 326.1,594.4 326.3,594.9 326.3,594.9 331.5,594.9 
			331.5,594.9 331.7,594.4 		"/>
		<rect x="320.9" y="581.2" class="st31" width="15.6" height="1.8"/>
		<rect x="327.8" y="573.7" class="st31" width="1.8" height="15.6"/>
		<ellipse class="st31" cx="328.8" cy="581.2" rx="7.1" ry="6.1"/>
		<polygon class="st25" points="322.8,583.1 328.5,583.1 328.5,594.4 327.5,594.4 		"/>
		<polygon class="st25" points="335,583.1 329.4,583.1 329.4,594.4 330.3,594.4 		"/>
	</g>
	<g class="st1">
		<rect x="482.3" y="591.4" class="st31" width="4.5" height="66.2"/>
		<path class="st31" d="M479.5,657.6h9.8C489.4,657.6,484.5,648.6,479.5,657.6z"/>
		<polygon class="st31" points="491.7,583.1 490.8,583.1 478.3,583.1 477.3,583.1 481.8,594.4 481.9,594.9 482,594.9 487.1,594.9 
			487.1,594.9 487.3,594.4 		"/>
		<rect x="476.5" y="581.2" class="st31" width="15.6" height="1.8"/>
		<rect x="483.4" y="573.7" class="st31" width="1.8" height="15.6"/>
		<ellipse class="st31" cx="484.4" cy="581.2" rx="7.1" ry="6.1"/>
		<polygon class="st25" points="478.4,583.1 484.1,583.1 484.1,594.4 483.2,594.4 		"/>
		<polygon class="st25" points="490.7,583.1 485,583.1 485,594.4 485.9,594.4 		"/>
	</g>
	<g class="st1">
		<rect x="637.9" y="591.4" class="st31" width="4.5" height="66.2"/>
		<path class="st31" d="M635.2,657.6h9.8C645,657.6,640.1,648.6,635.2,657.6z"/>
		<polygon class="st31" points="647.3,583.1 646.4,583.1 633.9,583.1 633,583.1 637.4,594.4 637.5,594.9 637.6,594.9 642.7,594.9 
			642.8,594.9 642.9,594.4 		"/>
		<rect x="632.1" y="581.2" class="st31" width="15.6" height="1.8"/>
		<rect x="639" y="573.7" class="st31" width="1.8" height="15.6"/>
		<ellipse class="st31" cx="640.1" cy="581.2" rx="7.1" ry="6.1"/>
		<polygon class="st25" points="634,583.1 639.7,583.1 639.7,594.4 638.8,594.4 		"/>
		<polygon class="st25" points="646.3,583.1 640.6,583.1 640.6,594.4 641.5,594.4 		"/>
	</g>
	<g class="st1">
		<rect x="793.5" y="591.4" class="st31" width="4.5" height="66.2"/>
		<path class="st31" d="M790.8,657.6h9.8C800.6,657.6,795.8,648.6,790.8,657.6z"/>
		<polygon class="st31" points="803,583.1 802,583.1 789.5,583.1 788.6,583.1 793,594.4 793.2,594.9 793.2,594.9 798.4,594.9 
			798.4,594.9 798.6,594.4 		"/>
		<rect x="787.8" y="581.2" class="st31" width="15.6" height="1.8"/>
		<rect x="794.7" y="573.7" class="st31" width="1.8" height="15.6"/>
		<ellipse class="st31" cx="795.7" cy="581.2" rx="7.1" ry="6.1"/>
		<polygon class="st25" points="789.7,583.1 795.4,583.1 795.4,594.4 794.4,594.4 		"/>
		<polygon class="st25" points="801.9,583.1 796.3,583.1 796.3,594.4 797.2,594.4 		"/>
	</g>
	<g class="st1">
		<g>
			<path class="st32" d="M47.9,824.1c0,1.9-1.5,3.4-3.4,3.4l0,0c-1.9,0-3.4-1.5-3.4-3.4v-53.2c0-1.9,1.5-3.4,3.4-3.4l0,0
				c1.9,0,3.4,1.5,3.4,3.4V824.1z"/>
			<circle class="st33" cx="45" cy="763.7" r="24"/>
			<circle class="st33" cx="30.1" cy="778" r="14.5"/>
			<circle class="st33" cx="58.2" cy="775.6" r="17"/>
		</g>
		<path class="st8" d="M44.5,827.4c1.9,0,3.4-1.5,3.4-3.4v-34.9c2.9,2.2,6.4,3.5,10.3,3.5c9.4,0,17-7.6,17-17
			c0-5.3-2.5-10.1-6.3-13.2c-0.7-12.6-11.2-22.6-23.9-22.6c-0.1,0-0.3,0-0.4,0v87.6H44.5z"/>
	</g>
	<g class="st1">
		<g>
			<path class="st32" d="M128.4,824.1c0,1.9-1.5,3.4-3.4,3.4l0,0c-1.9,0-3.4-1.5-3.4-3.4v-53.2c0-1.9,1.5-3.4,3.4-3.4l0,0
				c1.9,0,3.4,1.5,3.4,3.4V824.1z"/>
			<circle class="st33" cx="125.4" cy="763.7" r="24"/>
			<circle class="st33" cx="110.6" cy="778" r="14.5"/>
			
				<ellipse transform="matrix(0.1602 -0.9871 0.9871 0.1602 -649.1863 788.1729)" class="st33" cx="138.6" cy="775.6" rx="17" ry="17"/>
		</g>
		<path class="st8" d="M125,827.4c1.9,0,3.4-1.5,3.4-3.4v-34.9c2.9,2.2,6.4,3.5,10.3,3.5c9.4,0,17-7.6,17-17
			c0-5.3-2.5-10.1-6.3-13.2c-0.7-12.6-11.2-22.6-23.9-22.6c-0.2,0-0.3,0-0.4,0L125,827.4L125,827.4z"/>
	</g>
	<g class="st1">
		<g>
			<path class="st32" d="M208.9,824.1c0,1.9-1.5,3.4-3.4,3.4l0,0c-1.9,0-3.4-1.5-3.4-3.4v-53.2c0-1.9,1.5-3.4,3.4-3.4l0,0
				c1.9,0,3.4,1.5,3.4,3.4V824.1z"/>
			<circle class="st33" cx="205.9" cy="763.7" r="24"/>
			<circle class="st33" cx="191.1" cy="778" r="14.5"/>
			<circle class="st33" cx="219.1" cy="775.6" r="17"/>
		</g>
		<path class="st8" d="M205.5,827.4c1.9,0,3.4-1.5,3.4-3.4v-34.9c2.9,2.2,6.4,3.5,10.3,3.5c9.4,0,17-7.6,17-17
			c0-5.3-2.5-10.1-6.3-13.2c-0.7-12.6-11.2-22.6-23.9-22.6c-0.2,0-0.3,0-0.4,0L205.5,827.4L205.5,827.4z"/>
	</g>
	<g class="st1">
		<g>
			<path class="st32" d="M289.3,824.1c0,1.9-1.5,3.4-3.4,3.4l0,0c-1.9,0-3.4-1.5-3.4-3.4v-53.2c0-1.9,1.5-3.4,3.4-3.4l0,0
				c1.9,0,3.4,1.5,3.4,3.4V824.1z"/>
			<circle class="st33" cx="286.4" cy="763.7" r="24"/>
			<circle class="st33" cx="271.6" cy="778" r="14.5"/>
			<circle class="st33" cx="299.6" cy="775.6" r="17"/>
		</g>
		<path class="st8" d="M286,827.4c1.9,0,3.4-1.5,3.4-3.4v-34.9c2.9,2.2,6.4,3.5,10.3,3.5c9.4,0,17-7.6,17-17
			c0-5.3-2.5-10.1-6.3-13.2c-0.7-12.6-11.2-22.6-23.9-22.6c-0.1,0-0.3,0-0.4,0L286,827.4L286,827.4z"/>
	</g>
	<g class="st1">
		<g>
			<path class="st32" d="M369.8,824.1c0,1.9-1.5,3.4-3.4,3.4l0,0c-1.9,0-3.4-1.5-3.4-3.4v-53.2c0-1.9,1.5-3.4,3.4-3.4l0,0
				c1.9,0,3.4,1.5,3.4,3.4V824.1z"/>
			<circle class="st33" cx="366.9" cy="763.7" r="24"/>
			<circle class="st33" cx="352" cy="778" r="14.5"/>
			<circle class="st33" cx="380.1" cy="775.6" r="17"/>
		</g>
		<path class="st8" d="M366.4,827.4c1.9,0,3.4-1.5,3.4-3.4v-34.9c2.9,2.2,6.4,3.5,10.3,3.5c9.4,0,17-7.6,17-17
			c0-5.3-2.5-10.1-6.3-13.2c-0.7-12.6-11.2-22.6-23.9-22.6c-0.1,0-0.3,0-0.4,0L366.4,827.4L366.4,827.4z"/>
	</g>
	<g class="st1">
		<g>
			<path class="st32" d="M450.3,824.1c0,1.9-1.5,3.4-3.4,3.4l0,0c-1.9,0-3.4-1.5-3.4-3.4v-53.2c0-1.9,1.5-3.4,3.4-3.4l0,0
				c1.9,0,3.4,1.5,3.4,3.4V824.1z"/>
			<circle class="st33" cx="447.4" cy="763.7" r="24"/>
			<circle class="st33" cx="432.5" cy="778" r="14.5"/>
			<circle class="st33" cx="460.6" cy="775.6" r="17"/>
		</g>
		<path class="st8" d="M446.9,827.4c1.9,0,3.4-1.5,3.4-3.4v-34.9c2.9,2.2,6.4,3.5,10.3,3.5c9.4,0,17-7.6,17-17
			c0-5.3-2.5-10.1-6.3-13.2c-0.7-12.6-11.2-22.6-23.9-22.6c-0.2,0-0.3,0-0.4,0L446.9,827.4L446.9,827.4z"/>
	</g>
	<g class="st1">
		<g>
			<path class="st32" d="M530.8,824.1c0,1.9-1.5,3.4-3.4,3.4l0,0c-1.9,0-3.4-1.5-3.4-3.4v-53.2c0-1.9,1.5-3.4,3.4-3.4l0,0
				c1.9,0,3.4,1.5,3.4,3.4V824.1z"/>
			<circle class="st33" cx="527.8" cy="763.7" r="24"/>
			<circle class="st33" cx="513" cy="778" r="14.5"/>
			<circle class="st33" cx="541" cy="775.6" r="17"/>
		</g>
		<path class="st8" d="M527.4,827.4c1.9,0,3.4-1.5,3.4-3.4v-34.9c2.9,2.2,6.4,3.5,10.3,3.5c9.4,0,17-7.6,17-17
			c0-5.3-2.5-10.1-6.3-13.2c-0.7-12.6-11.2-22.6-23.9-22.6c-0.1,0-0.3,0-0.4,0L527.4,827.4L527.4,827.4z"/>
	</g>
	<g class="st1">
		<g>
			<path class="st32" d="M611.3,824.1c0,1.9-1.5,3.4-3.4,3.4l0,0c-1.9,0-3.4-1.5-3.4-3.4v-53.2c0-1.9,1.5-3.4,3.4-3.4l0,0
				c1.9,0,3.4,1.5,3.4,3.4V824.1z"/>
			<circle class="st33" cx="608.3" cy="763.7" r="24"/>
			<circle class="st33" cx="593.5" cy="778" r="14.5"/>
			<circle class="st33" cx="621.5" cy="775.6" r="17"/>
		</g>
		<path class="st8" d="M607.9,827.4c1.9,0,3.4-1.5,3.4-3.4v-34.9c2.9,2.2,6.4,3.5,10.3,3.5c9.4,0,17-7.6,17-17
			c0-5.3-2.5-10.1-6.3-13.2c-0.7-12.6-11.2-22.6-23.9-22.6c-0.2,0-0.3,0-0.4,0L607.9,827.4L607.9,827.4z"/>
	</g>
	<g class="st1">
		<g>
			<path class="st32" d="M691.7,824.1c0,1.9-1.5,3.4-3.4,3.4l0,0c-1.9,0-3.4-1.5-3.4-3.4v-53.2c0-1.9,1.5-3.4,3.4-3.4l0,0
				c1.9,0,3.4,1.5,3.4,3.4V824.1z"/>
			<circle class="st33" cx="688.8" cy="763.7" r="24"/>
			<circle class="st33" cx="674" cy="778" r="14.5"/>
			<circle class="st33" cx="702" cy="775.6" r="17"/>
		</g>
		<path class="st8" d="M688.4,827.4c1.9,0,3.4-1.5,3.4-3.4v-34.9c2.9,2.2,6.4,3.5,10.3,3.5c9.4,0,17-7.6,17-17
			c0-5.3-2.5-10.1-6.3-13.2c-0.7-12.6-11.2-22.6-23.9-22.6c-0.2,0-0.3,0-0.4,0L688.4,827.4L688.4,827.4z"/>
	</g>
	<g class="st1">
		<g>
			<path class="st32" d="M772.2,824.1c0,1.9-1.5,3.4-3.4,3.4l0,0c-1.9,0-3.4-1.5-3.4-3.4v-53.2c0-1.9,1.5-3.4,3.4-3.4l0,0
				c1.9,0,3.4,1.5,3.4,3.4V824.1z"/>
			<circle class="st33" cx="769.3" cy="763.7" r="24"/>
			<circle class="st33" cx="754.5" cy="778" r="14.5"/>
			<circle class="st33" cx="782.5" cy="775.6" r="17"/>
		</g>
		<path class="st8" d="M768.8,827.4c1.9,0,3.4-1.5,3.4-3.4v-34.9c2.9,2.2,6.4,3.5,10.3,3.5c9.4,0,17-7.6,17-17
			c0-5.3-2.5-10.1-6.3-13.2c-0.7-12.6-11.2-22.6-23.9-22.6c-0.2,0-0.3,0-0.4,0L768.8,827.4L768.8,827.4z"/>
	</g>
	<g class="st1">
		<g>
			<path class="st32" d="M852.7,824.1c0,1.9-1.5,3.4-3.4,3.4l0,0c-1.9,0-3.4-1.5-3.4-3.4v-53.2c0-1.9,1.5-3.4,3.4-3.4l0,0
				c1.9,0,3.4,1.5,3.4,3.4V824.1z"/>
			<circle class="st33" cx="849.8" cy="763.7" r="24"/>
			<circle class="st33" cx="834.9" cy="778" r="14.5"/>
			<circle class="st33" cx="863" cy="775.6" r="17"/>
		</g>
		<path class="st8" d="M849.3,827.4c1.9,0,3.4-1.5,3.4-3.4v-34.9c2.9,2.2,6.4,3.5,10.3,3.5c9.4,0,17-7.6,17-17
			c0-5.3-2.5-10.1-6.3-13.2c-0.7-12.6-11.2-22.6-23.9-22.6c-0.2,0-0.3,0-0.4,0L849.3,827.4L849.3,827.4z"/>
	</g>
	<g id="XMLID_640_" class="st1">
		<g id="XMLID_644_">
			<path id="XMLID_648_" class="st2" d="M149.6,241l-1.8-0.8l0.5-1.9c3.2-13.4-4.8-23.8-14.2-28.2c-6.2-2.8-13.1-3.3-19.4-1.2
				c-5.6,1.9-10.5,5.5-14.4,10.9l-1.2,1.7l-1.8-1c-2.9-1.6-6.2-2.5-9.4-2.5c-3,0-5.9,0.7-8.5,2.2c-2.2,1.2-9.2,6-8.6,16.8l0.1,1.9
				l-1.8,0.5c-12.6,3.7-17.6,14.5-17,23.5c0.7,10,8.6,20.8,24.2,20.8c25.6,0,67.8-0.1,68.6-0.1c10.1,0,18.5-7.5,20.1-17.8
				C166.3,257.6,162.9,246.8,149.6,241z"/>
			<path id="XMLID_645_" class="st2" d="M153.3,237.5c2.6-15.1-6.9-26.9-17.2-31.7c-7.3-3.4-15.4-3.8-22.9-1.4
				c-5.9,2-11.2,5.8-15.5,11c-6.7-3-14.5-2.8-20.7,0.6c-6.9,3.8-11,11-11.1,19.4c-13.9,4.9-19.4,17.4-18.6,27.8
				c0.9,12.1,10.3,25.2,29,25.2c25.6,0,67.8-0.1,68.6-0.1c12.4,0,22.8-9.2,24.8-21.9C171.1,257.4,167.6,244.6,153.3,237.5z
				 M165,265.7c-1.6,10.3-10,17.8-20.1,17.8c-0.8,0-43,0.1-68.6,0.1c-15.6,0-23.5-10.8-24.2-20.8c-0.7-9,4.3-19.8,17-23.5l1.8-0.5
				l-0.1-1.9c-0.6-10.8,6.5-15.6,8.6-16.8c2.6-1.4,5.5-2.2,8.5-2.2c3.2,0,6.5,0.9,9.4,2.5l1.8,1l1.2-1.7c3.9-5.4,8.7-9,14.4-10.9
				c6.3-2.1,13.3-1.7,19.4,1.2c9.4,4.3,17.4,14.7,14.2,28.2l-0.5,1.9l1.8,0.8C162.9,246.8,166.3,257.6,165,265.7z"/>
		</g>
		<path id="XMLID_641_" class="st2" d="M87.8,218c-3,0-5.9,0.7-8.5,2.2c-2.2,1.2-9.2,6-8.6,16.8l0.1,1.9l-1.8,0.5
			c-12.6,3.7-17.6,14.5-17,23.5c0.7,10,8.6,20.8,24.2,20.8c25.6,0,67.8-0.1,68.6-0.1c10.1,0,18.5-7.5,20.1-17.8
			c1.3-8.1-2.1-18.9-15.4-24.7l-1.8-0.8l0.5-1.9c3.2-13.4-4.8-23.8-14.2-28.2c-6.2-2.8-13.1-3.3-19.4-1.2
			c-5.6,1.9-10.5,5.5-14.4,10.9l-1.2,1.7l-1.8-1C94.3,218.9,91.1,218,87.8,218z"/>
	</g>
	<rect y="99" class="st34" width="900" height="551"/>
	<rect y="99" class="st34" width="900" height="551"/>
	<rect y="99" class="st34" width="900" height="551"/>
</g>
</svg>
