<svg id="Calque_1" data-name="Calque 1" xmlns="http://www.w3.org/2000/svg" xmlns:xlink="http://www.w3.org/1999/xlink" viewBox="0 0 450 450"><defs><style>.cls-1,.cls-14,.cls-15,.cls-16,.cls-17,.cls-18,.cls-19,.cls-20,.cls-25,.cls-27,.cls-3,.cls-31,.cls-39,.cls-40,.cls-6{fill:none;}.cls-2{fill:#f1bd19;}.cls-10,.cls-11,.cls-12,.cls-13,.cls-2,.cls-3,.cls-7,.cls-8,.cls-9{stroke:#231f20;}.cls-10,.cls-11,.cls-12,.cls-13,.cls-14,.cls-15,.cls-16,.cls-17,.cls-18,.cls-19,.cls-2,.cls-20,.cls-21,.cls-3,.cls-34,.cls-36,.cls-39,.cls-4,.cls-5,.cls-6,.cls-7,.cls-8,.cls-9{stroke-linecap:round;stroke-linejoin:round;}.cls-4,.cls-7{fill:#ececec;}.cls-25,.cls-32,.cls-34,.cls-36,.cls-4,.cls-5,.cls-6{stroke:#696992;}.cls-5,.cls-8{fill:#f6d1a7;}.cls-9{fill:#d6a500;}.cls-10{fill:#424242;}.cls-11{fill:#ff8c56;}.cls-12{fill:#add676;}.cls-13{fill:#ec6f39;}.cls-14,.cls-15,.cls-16,.cls-17,.cls-18,.cls-19,.cls-20{stroke:#ececec;}.cls-15{stroke-dasharray:4.45 1.78;}.cls-16{stroke-dasharray:5.03 2.01;}.cls-17{stroke-dasharray:5.06 2.02;}.cls-18{stroke-dasharray:5.06 2.02;}.cls-19{stroke-dasharray:4.84 1.94;}.cls-20{stroke-dasharray:4.21 1.68;}.cls-21,.cls-24{fill:#f2f2f4;}.cls-21,.cls-22{stroke:#6e6e6e;}.cls-21,.cls-22,.cls-31,.cls-32{stroke-width:2px;}.cls-22,.cls-28,.cls-32{fill:#fff;}.cls-22,.cls-25,.cls-27,.cls-28,.cls-31,.cls-32,.cls-38,.cls-40{stroke-miterlimit:10;}.cls-23,.cls-34{fill:#f83600;}.cls-25{stroke-width:3px;}.cls-26{clip-path:url(#clip-path);}.cls-27,.cls-38{stroke:#5c5c74;}.cls-28{stroke:#5d5c74;}.cls-29{fill:#fbd7ce;}.cls-30{fill:#5c5c74;}.cls-31{stroke:#7f7fbc;}.cls-33{fill:#facab8;}.cls-35{fill:#edeff0;}.cls-36,.cls-37,.cls-38{fill:#00b289;}.cls-39,.cls-40{stroke:#fff;}</style><clipPath id="clip-path"><circle class="cls-1" cx="114.5" cy="163" r="49"/></clipPath></defs><title>cute-1-orange</title><path class="cls-2" d="M349.5,186H329.8a2.65,2.65,0,0,0-2.6,2.6v10.5a2.65,2.65,0,0,0,2.6,2.6h1.6a6,6,0,0,1-1.6,4,.85.85,0,0,0,.5,1.4c4.1.4,6.8-2.5,6.8-5.3h12.3a2.65,2.65,0,0,0,2.6-2.6V188.7A2.47,2.47,0,0,0,349.5,186Z"/><line class="cls-3" x1="330.6" y1="190.4" x2="348.6" y2="190.4"/><line class="cls-3" x1="330.6" y1="194.1" x2="348.6" y2="194.1"/><line class="cls-3" x1="330.6" y1="197.7" x2="348.6" y2="197.7"/><path class="cls-4" d="M312,368.5a14.53,14.53,0,0,1-3.8,9.9,14.8,14.8,0,0,1-22,0,14.53,14.53,0,0,1-3.8-9.9,14.8,14.8,0,0,1,29.6,0Z"/><circle class="cls-5" cx="297.2" cy="365.4" r="8.3"/><path class="cls-6" d="M300.1,367.9a1.5,1.5,0,0,1,3,0"/><path class="cls-6" d="M291.3,367.9a1.5,1.5,0,0,1,3,0"/><path class="cls-6" d="M293.3,370.8a6.5,6.5,0,0,0,7.8,0"/><path class="cls-7" d="M349.9,287.7a14.25,14.25,0,0,1-3.6,9.4,13.93,13.93,0,0,1-10.4,4.7,13.77,13.77,0,0,1-10.4-4.7,14.25,14.25,0,0,1-3.6-9.4,14,14,0,1,1,28,0Z"/><circle class="cls-8" cx="335.9" cy="284.7" r="7.9"/><path class="cls-9" d="M335.9,276.8a7.77,7.77,0,0,0-7.8,7.2h9.1a2.19,2.19,0,0,0,2-1.3l.3-.6.7.9a2.14,2.14,0,0,0,1.8.9h1.9A8.18,8.18,0,0,0,335.9,276.8Z"/><path class="cls-3" d="M338.7,287a1.4,1.4,0,0,1,2.8,0"/><path class="cls-3" d="M330.2,287a1.4,1.4,0,0,1,2.8,0"/><path class="cls-3" d="M332.2,289.8a5.86,5.86,0,0,0,3.7,1.2,6.53,6.53,0,0,0,3.7-1.2"/><path class="cls-10" d="M346.3,297.1a13.93,13.93,0,0,1-10.4,4.7,13.77,13.77,0,0,1-10.4-4.7,8.12,8.12,0,0,1,2.9-1.9l4.3-1.4a1.79,1.79,0,0,1,1.7.4l.5.5a1.69,1.69,0,0,0,2.3,0l.5-.5a1.73,1.73,0,0,1,1.7-.4l4.3,1.4A6.72,6.72,0,0,1,346.3,297.1Z"/><path class="cls-7" d="M274.1,268.9a14.17,14.17,0,0,1-3.7,9.6,14.34,14.34,0,0,1-10.7,4.8,14.46,14.46,0,0,1-14.4-14.4,14.4,14.4,0,0,1,28.8,0Z"/><circle class="cls-8" cx="259.7" cy="265.9" r="8.1"/><path class="cls-11" d="M259.7,257.8a8,8,0,0,0-8,7.3H261a2.09,2.09,0,0,0,2-1.3l.3-.6.7.9a2.14,2.14,0,0,0,1.8.9h1.9A8,8,0,0,0,259.7,257.8Z"/><path class="cls-3" d="M262.6,268.3a1.5,1.5,0,0,1,3,0"/><path class="cls-3" d="M254,268.3a1.5,1.5,0,1,1,3,0"/><path class="cls-3" d="M255.9,271.1a6.36,6.36,0,0,0,3.8,1.2,7.13,7.13,0,0,0,3.8-1.2"/><path class="cls-12" d="M270.4,278.6a14.34,14.34,0,0,1-10.7,4.8,14.15,14.15,0,0,1-10.7-4.8,6.72,6.72,0,0,1,3-1.9l4.4-1.5a1.79,1.79,0,0,1,1.7.4l.5.5a1.69,1.69,0,0,0,2.3,0l.5-.5a1.73,1.73,0,0,1,1.7-.4l4.4,1.5A6.14,6.14,0,0,1,270.4,278.6Z"/><path class="cls-13" d="M304.9,283a4.87,4.87,0,0,0-8.8-2.9,4.87,4.87,0,0,0-8.8,2.9s-.7,5.2,8.9,11.1C305.6,288.2,304.9,283,304.9,283Z"/><line class="cls-14" x1="412.4" y1="210.7" x2="419.7" y2="218.1"/><line class="cls-14" x1="419.7" y1="210.7" x2="412.4" y2="218.1"/><line class="cls-14" x1="282.5" y1="240.5" x2="289.9" y2="247.8"/><line class="cls-14" x1="289.9" y1="240.5" x2="282.5" y2="247.8"/><circle class="cls-14" cx="270.2" cy="369.6" r="3.8"/><circle class="cls-14" cx="416" cy="257.1" r="3.8"/><circle class="cls-14" cx="339.6" cy="330.9" r="3.8"/><rect class="cls-14" x="324.62" y="356.32" width="6.9" height="6.9" transform="translate(-158.31 337.35) rotate(-45)"/><rect class="cls-14" x="270.33" y="337.49" width="6.9" height="6.9" transform="translate(-160.89 293.45) rotate(-45)"/><rect class="cls-14" x="271.46" y="285.76" width="6.9" height="6.9" transform="translate(-123.99 279.1) rotate(-45)"/><rect class="cls-14" x="318.36" y="308.56" width="6.9" height="6.9" transform="translate(-126.37 318.94) rotate(-45)"/><circle class="cls-14" cx="377.1" cy="253.3" r="3.8"/><circle class="cls-14" cx="330.2" cy="219.4" r="3.8"/><rect class="cls-14" x="361.76" y="285.76" width="6.9" height="6.9" transform="translate(-97.54 342.95) rotate(-45)"/><rect class="cls-14" x="361.75" y="228.46" width="6.9" height="6.9" transform="translate(-57.02 326.16) rotate(-45)"/><polyline class="cls-14" points="341.3 369.3 341.7 376.2 334.8 375.8 335.3 382.6 328.4 382.2 328.9 389 322 388.6 322.4 395.4 315.6 395 316 401.9 309.2 401.4"/><polyline class="cls-14" points="421.7 308.6 422.1 315.4 415.3 315 415.7 321.8 408.8 321.4 409.3 328.3 402.4 327.8 402.8 334.7 396 334.2 396.4 341.1 389.6 340.7"/><polyline class="cls-14" points="311.9 241.1 312.3 247.9 305.5 247.5 305.9 254.4 299.1 253.9 299.5 260.8 292.6 260.4 293.1 267.2 286.2 266.8 286.6 273.6 279.8 273.2"/><polyline class="cls-14" points="265.1 300.2 265.5 307.1 258.7 306.6 259.1 313.5 252.3 313.1 252.7 319.9 245.8 319.5 246.3 326.3 239.4 325.9 239.9 332.7 233 332.3"/><line class="cls-14" x1="222.5" y1="323.5" x2="224.3" y2="321.8"/><line class="cls-15" x1="225.5" y1="320.5" x2="242.5" y2="303.5"/><line class="cls-14" x1="243.1" y1="302.9" x2="244.9" y2="301.1"/><line class="cls-14" x1="297" y1="228.1" x2="298.8" y2="226.3"/><line class="cls-15" x1="300.1" y1="225.1" x2="317" y2="208.1"/><line class="cls-14" x1="317.7" y1="207.5" x2="319.4" y2="205.7"/><line class="cls-14" x1="301.9" y1="233" x2="303.7" y2="231.3"/><line class="cls-16" x1="305.1" y1="229.8" x2="314.4" y2="220.6"/><line class="cls-14" x1="315.1" y1="219.9" x2="316.9" y2="218.1"/><line class="cls-14" x1="380.4" y1="272.4" x2="382.2" y2="270.6"/><line class="cls-17" x1="383.6" y1="269.2" x2="407.9" y2="244.8"/><line class="cls-14" x1="408.6" y1="244.1" x2="410.4" y2="242.4"/><line class="cls-14" x1="385.8" y1="280.6" x2="387.6" y2="278.9"/><line class="cls-18" x1="389" y1="277.4" x2="403.4" y2="263.1"/><line class="cls-14" x1="404.1" y1="262.4" x2="405.8" y2="260.6"/><line class="cls-14" x1="260.2" y1="329.7" x2="261.9" y2="327.9"/><line class="cls-18" x1="263.4" y1="326.5" x2="277.7" y2="312.2"/><line class="cls-14" x1="278.4" y1="311.4" x2="280.2" y2="309.7"/><line class="cls-14" x1="336.3" y1="318" x2="338.1" y2="316.2"/><line class="cls-18" x1="339.5" y1="314.8" x2="353.8" y2="300.4"/><line class="cls-14" x1="354.6" y1="299.7" x2="356.3" y2="298"/><line class="cls-14" x1="315.1" y1="274.8" x2="316.8" y2="273"/><line class="cls-18" x1="318.3" y1="271.6" x2="332.6" y2="257.3"/><line class="cls-14" x1="333.3" y1="256.6" x2="335.1" y2="254.8"/><line class="cls-14" x1="307.5" y1="269.3" x2="309.3" y2="267.5"/><line class="cls-19" x1="310.6" y1="266.1" x2="319.5" y2="257.2"/><line class="cls-14" x1="320.2" y1="256.6" x2="322" y2="254.8"/><polyline class="cls-14" points="375.4 189.9 375.9 196.7 369 196.3 369.4 203.2 362.6 202.7 363 209.6 356.2 209.1 356.6 216 349.7 215.6 350.2 222.4 343.3 222"/><line class="cls-14" x1="370.5" y1="219.4" x2="372.2" y2="217.6"/><line class="cls-18" x1="373.7" y1="216.2" x2="388" y2="201.8"/><line class="cls-14" x1="388.7" y1="201.1" x2="390.5" y2="199.4"/><line class="cls-14" x1="197.3" y1="398.3" x2="199" y2="396.5"/><line class="cls-17" x1="200.5" y1="395.1" x2="224.8" y2="370.8"/><line class="cls-14" x1="225.5" y1="370.1" x2="227.3" y2="368.3"/><line class="cls-14" x1="374.9" y1="338.3" x2="376.6" y2="336.5"/><line class="cls-20" x1="377.8" y1="335.3" x2="389.7" y2="323.4"/><line class="cls-14" x1="390.3" y1="322.8" x2="392.1" y2="321"/><path class="cls-7" d="M350.1,248.6H321.7a2,2,0,0,1-2-2V231a2,2,0,0,1,2-2h28.4a2,2,0,0,1,2,2v15.7A1.92,1.92,0,0,1,350.1,248.6Z"/><rect class="cls-2" x="319.7" y="233.5" width="32.4" height="2.9"/><rect class="cls-7" x="321.4" y="243.2" width="10.1" height="1.4"/><rect class="cls-7" x="333.9" y="243.2" width="10.1" height="1.4"/><path class="cls-21" d="M369.6,333H81a19.82,19.82,0,0,1-14.5-6.3l-.5-.5v-8.3H384.5v8.3l-.5.5A19.6,19.6,0,0,1,369.6,333Z"/><rect class="cls-21" x="66.1" y="317.9" width="318.5" height="8.3"/><path class="cls-21" d="M225.3,322.4h25.3a14.62,14.62,0,0,0,8.2-2.3l3.2-2.2H188.6l3.2,2.2a14.39,14.39,0,0,0,8.2,2.3Z"/><path class="cls-21" d="M360.3,317.9H90.3V159.3a4.06,4.06,0,0,1,4.1-4.1H356.2a4.06,4.06,0,0,1,4.1,4.1Z"/><rect class="cls-22" x="100.2" y="165.1" width="250.3" height="142.8"/><rect class="cls-23" x="101.1" y="166.1" width="43" height="140.8"/><circle class="cls-24" cx="114.1" cy="155.6" r="57"/><circle class="cls-25" cx="114.1" cy="155.6" r="57"/><g class="cls-26"><path class="cls-23" d="M147.1,170.3c7.6,23.8-3.6,41.8-32.9,41.8-30.9,0-39.9-18-32.6-41.8,4.6-15,2.8-31.4,7.5-38.8,6.7-10.6,12.8-14.7,25-14.7,11.6,0,18.9,3.7,23.7,14C141.7,139,142.1,154.9,147.1,170.3Z"/><path class="cls-27" d="M113.9,116.7c-11.6,0-17.8,3.7-24.7,14.5-2.5,3.9-3.1,10.3-3.9,17.8-.7,6.5-1.4,14-3.6,21-3.9,12.5-3,22.9,2.3,30,5.5,7.5,15.6,11.2,29.9,11.2,14,0,24.3-4.1,30-11.9,5.4-7.4,6.3-17.6,2.5-29.4a173.48,173.48,0,0,1-5-22.2c-1.2-7.1-2.3-13.2-4.3-17.4C132.8,120.8,125.8,116.7,113.9,116.7Z"/><path class="cls-28" d="M72.3,225.9c0-17.5,18.9-31.7,42.1-31.7s42.1,14.2,42.1,31.7"/><path class="cls-29" d="M123.9,146c-9,0-16.8-3.7-20.6-9-1.5,6.1-5.7,10.5-10.8,11.2v19.5c0,7.5,4.7,16.9,12.1,21.6v7.5c0,4.2,2.6,10.1,9.6,10.1,6.7,0,9.8-5.9,9.8-10.1v-7c7.9-4.5,12.1-14.3,12.1-22.1V142.9C134.8,145.3,131.6,146,123.9,146Z"/><path class="cls-30" d="M114.1,207c-7.4,0-10-6.3-10-10.5v-7.4c-7-4.6-12.1-13.7-12.1-21.8V147.8c0-.2.2-.3.3-.4,4.9-.6,9-4.8,10.5-10.8q.15-.3.3-.3a.52.52,0,0,1,.4.2c3.9,5.5,11.6,8.8,20.2,8.8,7.9,0,10.6-.7,11.8-2.9.1-.2.3-.2.5-.2s.3.2.3.4v24.8c0,7.4-3.8,17.5-12.1,22.4v6.7C124.3,200.8,121.2,207,114.1,207ZM92.8,148.1v19.2c0,7.9,5,16.8,11.9,21.3.1.1.2.2.2.3v7.5c0,3.9,2.5,9.6,9.2,9.6,6.4,0,9.4-5.6,9.4-9.6v-7c0-.1.1-.3.2-.3,7.9-4.5,11.9-14.4,11.9-21.8V143.8c-1.9,1.9-5.5,2.3-11.7,2.3-8.6,0-16.3-3.2-20.5-8.5C101.7,143.3,97.7,147.4,92.8,148.1Z"/><path class="cls-30" d="M118.7,175.3s-1.9,2.2-4.3,2.2-4.3-2.2-4.3-2.2a30.69,30.69,0,0,0,4.3.3A28.94,28.94,0,0,0,118.7,175.3Z"/><path class="cls-30" d="M114.7,169.5h0a2.14,2.14,0,0,1-1.7-.8,1.64,1.64,0,0,1-.2-1.2l.4.1a1,1,0,0,0,.1.9,1.7,1.7,0,0,0,2.6,0,1.15,1.15,0,0,0,.1-1l.3-.2a1.39,1.39,0,0,1-.1,1.3A1.51,1.51,0,0,1,114.7,169.5Z"/><path class="cls-30" d="M99.1,156.7a1.42,1.42,0,0,1-.6-.2,1,1,0,0,1-.1-1.2,4.93,4.93,0,0,1,3.9-1.6,3.51,3.51,0,0,1,2.8,1.7.86.86,0,1,1-1.4,1,2,2,0,0,0-1.5-.9,3,3,0,0,0-2.5,1A1.42,1.42,0,0,1,99.1,156.7Z"/><path class="cls-30" d="M130.5,156.7a1.42,1.42,0,0,1-.6-.2,3.39,3.39,0,0,0-2.7-1,2.56,2.56,0,0,0-1.9,1,.86.86,0,0,1-1.4-1,4.17,4.17,0,0,1,3.2-1.6,5,5,0,0,1,4,1.6.91.91,0,0,1,0,1.2C130.9,156.6,130.7,156.7,130.5,156.7Z"/></g><line class="cls-31" x1="76.9" y1="109.1" x2="74.7" y2="106.1"/><line class="cls-31" x1="73.6" y1="104.7" x2="71.4" y2="101.6"/><line class="cls-31" x1="70.4" y1="100.3" x2="68.2" y2="97.2"/><line class="cls-31" x1="67.2" y1="95.9" x2="64.9" y2="92.8"/><line class="cls-31" x1="63.9" y1="91.4" x2="61.6" y2="88.4"/><line class="cls-31" x1="60.6" y1="87" x2="58.4" y2="83.9"/><line class="cls-31" x1="57.4" y1="82.6" x2="55.1" y2="79.5"/><line class="cls-31" x1="57" y1="223.3" x2="59.7" y2="220.5"/><line class="cls-31" x1="60.9" y1="219.3" x2="63.5" y2="216.5"/><line class="cls-31" x1="64.6" y1="215.4" x2="67.3" y2="212.5"/><line class="cls-31" x1="68.5" y1="211.4" x2="71.1" y2="208.5"/><line class="cls-31" x1="72.3" y1="207.4" x2="74.9" y2="204.6"/><line class="cls-31" x1="163.1" y1="115.7" x2="166.1" y2="113.3"/><line class="cls-31" x1="167.3" y1="112.3" x2="170.3" y2="109.8"/><line class="cls-31" x1="171.6" y1="108.7" x2="174.5" y2="106.3"/><line class="cls-31" x1="175.8" y1="105.2" x2="178.7" y2="102.8"/><line class="cls-31" x1="180" y1="101.8" x2="183" y2="99.4"/><circle class="cls-32" cx="198.6" cy="84.8" r="17.6"/><path class="cls-33" d="M192.4,85.7a1.33,1.33,0,1,1-2.6,0,1.3,1.3,0,0,1,2.6,0Z"/><path class="cls-30" d="M191.1,87.5a1.62,1.62,0,0,1-1.4-1.8,1.34,1.34,0,0,1,1.4-1.5,1.39,1.39,0,0,1,1.4,1.5A1.54,1.54,0,0,1,191.1,87.5Zm0-2.9a1,1,0,0,0-1,1.1c0,.8.5,1.4,1,1.4s1-.6,1-1.4A.89.89,0,0,0,191.1,84.6Z"/><path class="cls-29" d="M195.8,94.6c-2.2-.8-3.2-3-4-6.3a18.12,18.12,0,0,1-.7-5.4c0-5.5,2.9-7.6,7.4-7.6s7.6,1.2,7.6,6.7c0,8.3-2.7,13.2-7.6,13.2"/><path class="cls-30" d="M198.5,95.5a.2.2,0,1,1,0-.4c4.7,0,7.4-4.7,7.4-12.9,0-5.4-3-6.5-7.4-6.5a7.66,7.66,0,0,0-5.3,1.7c-1.3,1.2-1.9,3.1-1.9,5.7a17.69,17.69,0,0,0,.7,5.4c1.1,4.3,2.3,5.5,3.9,6.1.1.1.2.2.1.2s-.2.2-.2.1c-2.3-.8-3.3-3-4.1-6.3a17.94,17.94,0,0,1-.7-5.5c0-5.2,2.5-7.8,7.6-7.8,4.1,0,7.9.8,7.9,6.9C206.4,90.6,203.5,95.5,198.5,95.5Z"/><path class="cls-30" d="M198.6,88.1h-.2a1.07,1.07,0,0,1-.8-.6c-.1-.1,0-.2.1-.3s.2,0,.3.1a.69.69,0,0,0,.5.3.57.57,0,0,0,.7-.2.45.45,0,0,0,0-.5,5.31,5.31,0,0,1-.6-2.7c0-.1.1-.2.2-.1s.2.1.1.2a5.66,5.66,0,0,0,.6,2.4.75.75,0,0,1,0,.9A.87.87,0,0,1,198.6,88.1Z"/><path class="cls-30" d="M194.5,84.4c-.1,0-.1,0-.1-.1a.19.19,0,0,1,0-.3,1.28,1.28,0,0,1,1-.4.84.84,0,0,1,.7.4c.1.1.1.2-.1.3s-.2.1-.3-.1a.52.52,0,0,0-.4-.2.71.71,0,0,0-.6.3C194.6,84.4,194.6,84.4,194.5,84.4Z"/><path class="cls-30" d="M202.6,84.4c-.1,0-.1,0-.1-.1a1.08,1.08,0,0,0-.7-.3,1.42,1.42,0,0,0-.6.2.22.22,0,1,1-.4-.2,1.23,1.23,0,0,1,.8-.4,1.28,1.28,0,0,1,1,.4.19.19,0,0,1,0,.3Z"/><path class="cls-30" d="M198.5,90.8a1.21,1.21,0,0,1-1.2-.6c-.1-.1-.1-.2.1-.3s.2-.1.3.1a1.49,1.49,0,0,0,1,.3,1,1,0,0,0,1-.5.22.22,0,0,1,.4.2,1.84,1.84,0,0,1-1.4.6Z"/><path class="cls-33" d="M205.5,87.7a2,2,0,0,0,1.9-1.9c.1-1-.9-1.3-1.6-1.2"/><path class="cls-30" d="M205.6,87.9h-.1a.2.2,0,1,1,0-.4,1.33,1.33,0,0,0,1-.3,2,2,0,0,0,.6-1.4,1.17,1.17,0,0,0-.2-.7,1.8,1.8,0,0,0-1.1-.3.2.2,0,0,1,0-.4,1.59,1.59,0,0,1,1.4.4,1.16,1.16,0,0,1,.4,1,3,3,0,0,1-.8,1.7A1.92,1.92,0,0,1,205.6,87.9Z"/><circle class="cls-32" cx="45.9" cy="66.2" r="18"/><circle class="cls-32" cx="45.9" cy="232.8" r="18"/><path class="cls-29" d="M42.8,78.8c-2.8-1-3.9-3.8-5-7.6a23.24,23.24,0,0,1-.8-6.7c0-6.7,3.5-9.3,9.2-9.3s9.4,1.4,9.4,8.3c0,10.2-3.4,16.2-9.4,16.2"/><path class="cls-30" d="M46.1,79.9a.2.2,0,0,1,0-.4c5.8,0,9.2-5.9,9.2-15.9,0-6.7-3.7-8-9.2-8-2.9,0-5,.6-6.5,2.1s-2.3,3.9-2.3,7a25.36,25.36,0,0,0,.8,6.6c1.4,5.4,2.9,6.8,4.8,7.5.1.1.2.2.2.3s-.2.2-.3.2c-2.8-1-4-3.7-5.1-7.9a22.17,22.17,0,0,1-.9-6.7c0-6.4,3-9.5,9.4-9.5,5,0,9.6,1,9.6,8.5C55.7,73.8,52.2,79.9,46.1,79.9Z"/><path class="cls-30" d="M46.2,70.9h-.3a1.82,1.82,0,0,1-1-.6.22.22,0,0,1,.4-.2,1.08,1.08,0,0,0,.6.4,1.1,1.1,0,0,0,.9-.2c.1-.2.1-.3-.1-.6a7.73,7.73,0,0,1-.8-3.4c.1-.1.2-.2.3-.2s.2.2.2.3a7.48,7.48,0,0,0,.8,3,1.08,1.08,0,0,1,0,1.1C47.1,70.7,46.8,70.9,46.2,70.9Z"/><path class="cls-30" d="M41.2,66.2c-.1,0-.1,0-.2-.1a.19.19,0,0,1,0-.3,1.46,1.46,0,0,1,1.2-.5,1.59,1.59,0,0,1,.9.6c.1.1.1.3-.1.3s-.3.1-.3-.1-.3-.2-.5-.3a1.14,1.14,0,0,0-.8.3C41.3,66.2,41.3,66.2,41.2,66.2Z"/><path class="cls-30" d="M51,66.2c-.1,0-.1,0-.2-.1a1.4,1.4,0,0,0-.9-.3.71.71,0,0,0-.6.3.22.22,0,0,1-.4-.2,1.23,1.23,0,0,1,1-.5,1.5,1.5,0,0,1,1.2.5.19.19,0,0,1,0,.3Z"/><path class="cls-30" d="M46,74a1.56,1.56,0,0,1-1.4-.6c-.1-.1-.1-.3.1-.3s.3-.1.3.1a1.25,1.25,0,0,0,1.1.4,1.21,1.21,0,0,0,1.2-.6c.1-.1.2-.2.3-.1s.2.2.1.3A1.88,1.88,0,0,1,46,74Z"/><path class="cls-33" d="M37.8,70.4a2.16,2.16,0,0,1-1.9-2.5,1.69,1.69,0,0,1,2.2-1.2"/><path class="cls-30" d="M37.8,70.6h0a2.47,2.47,0,0,1-1.6-.8,2.52,2.52,0,0,1-.6-2,1.68,1.68,0,0,1,.6-1.1,2.44,2.44,0,0,1,1.9-.2c.1.1.2.2.2.3s-.2.2-.3.2a1.7,1.7,0,0,0-1.4.2,1.58,1.58,0,0,0-.5.8,2.16,2.16,0,0,0,.5,1.7,1.41,1.41,0,0,0,1.2.6c.1,0,.2.1.2.3Z"/><path class="cls-33" d="M54.6,70.3A2.33,2.33,0,0,0,56.9,68,1.44,1.44,0,0,0,55,66.6"/><path class="cls-30" d="M54.8,70.6h-.2c-.1,0-.2-.1-.2-.3s.1-.2.3-.2a1.34,1.34,0,0,0,1.2-.4,2.14,2.14,0,0,0,.8-1.7,1.14,1.14,0,0,0-.3-.8,1.57,1.57,0,0,0-1.4-.3c-.1,0-.2-.1-.3-.2s.1-.2.2-.3a2,2,0,0,1,1.8.6,1.85,1.85,0,0,1,.5,1.2,3,3,0,0,1-1,2A3.26,3.26,0,0,1,54.8,70.6Z"/><path class="cls-34" d="M365.4,341.4H345.7a2.65,2.65,0,0,0-2.6,2.6v10.5a2.65,2.65,0,0,0,2.6,2.6h1.6a6,6,0,0,1-1.6,4,.85.85,0,0,0,.5,1.4c4.1.4,6.8-2.5,6.8-5.3h12.3a2.65,2.65,0,0,0,2.6-2.6V344A2.5,2.5,0,0,0,365.4,341.4Z"/><path class="cls-34" d="M297.2,357.1a8.35,8.35,0,0,0-8.3,7.5h9.6a2.33,2.33,0,0,0,2.1-1.3l.3-.6.7,1a2.2,2.2,0,0,0,1.9.9h1.9A8.19,8.19,0,0,0,297.2,357.1Z"/><path class="cls-34" d="M308.2,378.4a14.8,14.8,0,0,1-22,0,7.24,7.24,0,0,1,3.1-2l4.5-1.5a1.73,1.73,0,0,1,1.7.4l.5.5a1.63,1.63,0,0,0,2.4,0l.5-.5a1.57,1.57,0,0,1,1.7-.4l4.5,1.5A7.24,7.24,0,0,1,308.2,378.4Z"/><path class="cls-34" d="M393.5,222.8l1.1,2.2a2.25,2.25,0,0,0,1.8,1.3l2.5.4a2.35,2.35,0,0,1,1.3,4l-1.8,1.7a2.29,2.29,0,0,0-.7,2.1l.4,2.5a2.37,2.37,0,0,1-3.4,2.5l-2.2-1.2a2.17,2.17,0,0,0-2.2,0l-2.2,1.2a2.37,2.37,0,0,1-3.4-2.5l.4-2.5a2.38,2.38,0,0,0-.7-2.1l-1.8-1.7a2.35,2.35,0,0,1,1.3-4l2.5-.4a2.42,2.42,0,0,0,1.8-1.3l1.1-2.2A2.37,2.37,0,0,1,393.5,222.8Z"/><path class="cls-23" d="M300.4,212.5H242.5V194.1a8,8,0,0,1,8-8h49.9a8,8,0,0,1,8,8v10.4A8,8,0,0,1,300.4,212.5Z"/><path class="cls-23" d="M328,208.5a9.2,9.2,0,1,1,9.2-9.2A9.21,9.21,0,0,1,328,208.5Zm0-16.4a7.2,7.2,0,1,0,7.2,7.2A7.21,7.21,0,0,0,328,192.1Z"/><path class="cls-23" d="M300.4,286.5H242.5V268.1a8,8,0,0,1,8-8h49.9a8,8,0,0,1,8,8v10.4A8,8,0,0,1,300.4,286.5Z"/><path class="cls-23" d="M328,282.5a9.2,9.2,0,1,1,9.2-9.2A9.21,9.21,0,0,1,328,282.5Zm0-16.4a7.2,7.2,0,1,0,7.2,7.2A7.21,7.21,0,0,0,328,266.1Z"/><path class="cls-23" d="M39.8,58.8c1.3,1.4,3.6,3.2,9,3.6,2.4.2,4.1-.2,4.9.8a7.08,7.08,0,0,1,1.2,4.7c-.1.6,1.9-1.8,1.9-1.8-.8-1.2.8-3.9.3-7.5-.2-1.5-3.3-4.8-7.7-5.9a9.77,9.77,0,0,0-9.9,2.6c-1.1,1-2.6.6-3.8,3-1,2.2.7,6.3.4,7.6-.1.6.4.4,1.6,1.9.5.6.6-1.8.6-3.1A48.41,48.41,0,0,1,39.8,58.8Z"/><path class="cls-30" d="M54.9,68.2a.35.35,0,0,1-.2-.1c-.1-.1-.1-.1-.1-.2a6.81,6.81,0,0,0-1.1-4.5c-.6-.6-1.4-.6-2.9-.6a13.43,13.43,0,0,1-1.9-.1c-5.1-.3-7.5-2-8.8-3.4a53.62,53.62,0,0,0-1.4,5.4c0,.2-.1.6-.1.8-.1,2-.2,2.7-.7,2.7h0c-.1,0-.2-.1-.3-.2a12.94,12.94,0,0,0-1.2-1.2.87.87,0,0,1-.5-.9,7,7,0,0,0-.3-2.2c-.3-1.8-.8-3.9-.1-5.4A3.64,3.64,0,0,1,37.9,56a2.92,2.92,0,0,0,1.2-.7,10,10,0,0,1,7.1-3,10.32,10.32,0,0,1,3,.4,15.36,15.36,0,0,1,5.5,2.9A6,6,0,0,1,57,58.9a18.67,18.67,0,0,1-.3,4.9c-.2,1.1-.4,2.1-.1,2.5a.19.19,0,0,1,0,.3C55.3,68.2,55,68.2,54.9,68.2ZM46.4,52.6a9.4,9.4,0,0,0-6.8,3,5,5,0,0,1-1.4.8,3.29,3.29,0,0,0-2.3,2.1c-.6,1.3-.2,3.4.2,5.1a8.35,8.35,0,0,1,.3,2.5c-.1.2-.1.2.3.4l1.1,1.1a11.49,11.49,0,0,0,.2-2.1c0-.3.1-.6.1-.8a41,41,0,0,1,1.5-5.9.22.22,0,0,1,.2-.2c.1,0,.2,0,.2.1,1.2,1.4,3.4,3.2,8.7,3.5a10.87,10.87,0,0,0,1.8.1c1.5,0,2.6,0,3.3.8A6.31,6.31,0,0,1,55,67.5c.3-.3.8-.9,1.3-1.4a5,5,0,0,1,.1-2.7,14,14,0,0,0,.3-4.7c-.2-1.4-3.2-4.7-7.5-5.7A9,9,0,0,0,46.4,52.6Z"/><path class="cls-30" d="M40.6,57.6l.1.1a.35.35,0,0,0,.2.1l.2.2c.1.1.2.1.2.2s.2.1.3.2.2.1.3.2.2.2.3.2.2.1.3.2.2.1.3.2.2.1.3.2.2.1.2.2a.31.31,0,0,0,.2.1c.1.1.1.1.2.1a.31.31,0,0,0,.2.1h-.4a.37.37,0,0,1-.3-.1c-.1,0-.2-.1-.3-.1a.37.37,0,0,0-.3-.1c-.1-.1-.2-.1-.3-.2s-.2-.2-.3-.2-.2-.2-.3-.2l-.3-.3c-.1-.1-.2-.2-.2-.3s-.1-.2-.2-.3a.31.31,0,0,1-.1-.2c-.1-.1-.1-.1-.1-.2Z"/><path class="cls-35" d="M56.2,233.9c0,1-.6,1.9-1.4,1.9a2,2,0,0,1-1.8-1.9,2,2,0,0,1,1.8-1.9C55.5,232,56.2,232.9,56.2,233.9Z"/><path class="cls-30" d="M54.7,236a2.1,2.1,0,0,1,0-4.2,1.93,1.93,0,0,1,1.7,2.1A1.86,1.86,0,0,1,54.7,236Zm0-3.7a1.6,1.6,0,0,0,0,3.2c.7,0,1.2-.7,1.2-1.6A1.35,1.35,0,0,0,54.7,232.3Z"/><path class="cls-35" d="M39.7,235.5a1.8,1.8,0,0,1-1.7,1.9,1.9,1.9,0,1,1,0-3.8A1.74,1.74,0,0,1,39.7,235.5Z"/><path class="cls-30" d="M38.1,237.7a2.2,2.2,0,0,1,0-4.4,2.11,2.11,0,0,1,1.9,2.2A2,2,0,0,1,38.1,237.7Zm0-3.9a1.83,1.83,0,0,0-1.7,1.7,1.91,1.91,0,0,0,1.7,1.7,1.58,1.58,0,0,0,1.4-1.7A1.65,1.65,0,0,0,38.1,233.8Z"/><path class="cls-29" d="M43.5,245c-2-1-3.4-3.4-4.4-6.8-.6-2-2.3-1.9-2.3-4.5a9.52,9.52,0,0,1,9.6-9.8c5,0,8.3,1.3,8.3,7.4,0,9.2-4.1,14.4-8.3,14.4"/><path class="cls-30" d="M46.4,245.9a.2.2,0,0,1,0-.4c3.9,0,8.1-5,8.1-14.2,0-5.9-3.2-7.1-8.1-7.1a9.27,9.27,0,0,0-9.4,9.5,3.27,3.27,0,0,0,1.1,2.5,3.68,3.68,0,0,1,1.2,1.9c.9,3.4,2.3,5.6,4.3,6.7.1.1.2.2.1.3s-.2.2-.3.1c-2.1-1.1-3.6-3.4-4.5-7a4,4,0,0,0-1-1.7,3.52,3.52,0,0,1-1.2-2.8,9.43,9.43,0,0,1,3-7.3,10.21,10.21,0,0,1,6.9-2.6c4.5,0,8.6,1,8.6,7.6a20.17,20.17,0,0,1-2.6,10.7C50.8,244.5,48.6,245.9,46.4,245.9Z"/><path class="cls-30" d="M46.5,237.9h-.3a1.39,1.39,0,0,1-.9-.6c-.1-.1,0-.2.1-.3s.2,0,.3.1a.75.75,0,0,0,.6.3.78.78,0,0,0,.8-.2.45.45,0,0,0,0-.5,7.87,7.87,0,0,1-.8-3c.1-.1.2-.2.3-.2s.2.2.2.3a5.36,5.36,0,0,0,.7,2.6.91.91,0,0,1,0,1A1.1,1.1,0,0,1,46.5,237.9Z"/><path class="cls-36" d="M416,190.9a4.87,4.87,0,0,0-8.8-2.9,4.87,4.87,0,0,0-8.8,2.9s-.7,5.2,8.9,11.1C416.7,196.1,416,190.9,416,190.9Z"/><path class="cls-37" d="M186.8,250.8h57.9V232.4a8,8,0,0,0-8-8H186.8a8,8,0,0,0-8,8v10.4A7.9,7.9,0,0,0,186.8,250.8Z"/><path class="cls-37" d="M159.1,246.8a9.2,9.2,0,1,1,9.2-9.2A9.21,9.21,0,0,1,159.1,246.8Zm0-16.4a7.2,7.2,0,1,0,7.2,7.2A7.21,7.21,0,0,0,159.1,230.4Z"/><path class="cls-38" d="M205.9,84.7a18.4,18.4,0,0,0,.6-8.6,10.34,10.34,0,0,0-.9-2.5c-1.4.3-1.8-.6-5.6-1-2.7-.3-4,.5-4.5,1a3.55,3.55,0,0,0-2.6.3c-1.7.7-3,2.6-2.1,8.5a29.57,29.57,0,0,0,1,4.5s-.3-4.7.3-6.5a.31.31,0,0,0,.1-.2l.3-.6c1-1.2,2.9-1.4,3.6-.6a3.39,3.39,0,0,0,2.3.7,3.5,3.5,0,0,0,2.3-.7c.8-.8,3.4-.4,4.1,1.4s.3,6.5.3,6.5A6,6,0,0,0,205.9,84.7Z"/><path class="cls-37" d="M39.5,234.4a6.63,6.63,0,0,1,.5-2.8,41.92,41.92,0,0,1,1.9-4.3c2.9,2.6,5.9,3.2,8.5,3.9s2.9,1.5,2.9,4.1-.8,6.1-1.3,6.7.2,3.1,1.8,2.9c2.2-.3,1.6-3.6,1.9-5,.2-1.2,3.9-3.8,3.4-6.3-.3-2.2-1.3-2.7-3-5.9-1.5-3-1.9-5.6-5.4-7-5.8-2.2-9.3-.1-10.3,1.2-.9,1.1-2.6,1.4-3.2,2.8-.8,1.7.2,3-.6,4.9s-3,3.6-3.2,5.3c-.3,2.9,3.8,4.5,4,5.1.2.8-.3,4.2,1.9,4.6,1.9.3,1.6-2.2,1.6-2.2a17,17,0,0,1-1.4-5.6,2.31,2.31,0,0,1-1.4-1.9c-.1-1.4.7-1.7.7-1.7"/><path class="cls-30" d="M53.6,245.3a1.68,1.68,0,0,1-1.5-1c-.5-.8-.6-1.9-.2-2.3.5-.7,1.2-4.1,1.2-6.7s-.3-3.3-2.7-3.9c-.2-.1-.5-.1-.7-.2-2.3-.6-5-1.2-7.6-3.4-.3.8-1.4,3-1.8,3.9a6.81,6.81,0,0,0-.4,2.7.2.2,0,1,1-.4,0,6.14,6.14,0,0,1,.5-2.9c.3-1.1,1.9-4.2,1.9-4.3s.1-.1.2-.1.1,0,.2.1a16.88,16.88,0,0,0,7.6,3.6c.2.1.5.1.7.2,2.6.7,3,1.7,3,4.3s-.8,6.2-1.4,6.9a2.38,2.38,0,0,0,.3,1.9,1.27,1.27,0,0,0,1.2.7c1.4-.2,1.5-2.1,1.5-3.6a4.87,4.87,0,0,1,.1-1.2,6.27,6.27,0,0,1,1.2-1.9c1-1.2,2.4-2.8,2.2-4.3a6.25,6.25,0,0,0-1.4-3.1,24,24,0,0,1-1.6-2.7c-.3-.6-.6-1.3-.9-1.9-1-2.1-1.7-3.9-4.4-5-5.9-2.2-9.2,0-9.9,1a4.19,4.19,0,0,1-1.5,1.2,3.59,3.59,0,0,0-1.7,1.5A5.58,5.58,0,0,0,37,227a5.24,5.24,0,0,1-.3,2.7,9.63,9.63,0,0,1-1.6,2.5,6.18,6.18,0,0,0-1.5,2.7c-.2,1.9,1.7,3.2,3,4.1.6.5,1,.7,1,1a2.79,2.79,0,0,1,.1,1c.1,1.3.1,3.2,1.7,3.4a.78.78,0,0,0,.8-.2c.5-.4.5-1.4.5-1.8a19,19,0,0,1-1.4-5.5,2.74,2.74,0,0,1-1.4-2.1c-.1-1.7.8-1.9.9-1.9s.2.1.3.2-.1.2-.2.3-.6.2-.6,1.4a2.46,2.46,0,0,0,1.2,1.8l.2.2c.4,3.7,1.3,5.5,1.4,5.5v.1a3.25,3.25,0,0,1-.6,2.2,1.31,1.31,0,0,1-1.2.3c-1.9-.3-2-2.6-2.1-3.9,0-.3-.1-.7-.1-.8s-.6-.4-.9-.7c-1.3-.9-3.4-2.3-3.1-4.5.1-1,.9-1.9,1.7-3a12.76,12.76,0,0,0,1.5-2.3,8,8,0,0,0,.3-2.5,5.28,5.28,0,0,1,.3-2.4,4.72,4.72,0,0,1,1.9-1.8,3.81,3.81,0,0,0,1.4-1.1c.9-1.1,4.4-3.6,10.5-1.2,2.8,1.1,3.7,3,4.7,5.2.2.6.6,1.2.9,1.9.6,1.2,1.1,2,1.5,2.7a8.06,8.06,0,0,1,1.4,3.3c.3,1.8-1.1,3.4-2.3,4.7a3.28,3.28,0,0,0-1.2,2.8c0,1.6-.1,3.9-1.9,4.1C53.7,245.3,53.7,245.3,53.6,245.3Z"/><path class="cls-30" d="M42,233.8c-.1,0-.1,0-.2-.1a.19.19,0,0,1,0-.3,1.19,1.19,0,0,1,1.1-.4,1.37,1.37,0,0,1,.8.5c.1.1.1.2-.1.3s-.2.1-.3-.1a.52.52,0,0,0-.4-.2c-.2,0-.6.1-.7.3Z"/><path class="cls-30" d="M50.8,233.8c-.1,0-.1,0-.2-.1a1.14,1.14,0,0,0-.8-.3.86.86,0,0,0-.6.3.37.37,0,0,1-.3.1c-.1,0-.1-.2-.1-.3a1.62,1.62,0,0,1,.9-.5,1.27,1.27,0,0,1,1.1.5q.3.15,0,.3Z"/><path class="cls-30" d="M46.4,240.7a1.49,1.49,0,0,1-1.3-.6c-.1-.1-.1-.2.1-.3s.2-.1.3.1a1.49,1.49,0,0,0,1,.3c.5,0,1-.2,1.1-.5.1-.1.2-.2.3-.1s.2.2.1.3a1.61,1.61,0,0,1-1.4.7Z"/><path class="cls-30" d="M42.5,225.3l.2.2.2.2.2.2.2.2.3.3.3.3.3.3.3.3c.1.1.2.2.3.2s.2.2.3.2.2.1.3.2.2.1.2.2.1.1.2.1a.31.31,0,0,0,.2.1h-.2c-.1,0-.2,0-.2-.1s-.2-.1-.3-.1-.1-.1-.2-.1-.1-.1-.2-.1-.2-.1-.3-.2-.2-.1-.4-.2-.1-.1-.2-.1h-.1c-.2-.2-.5-.4-.6-.6s-.2-.2-.2-.3-.1-.2-.2-.3-.1-.2-.2-.3a.31.31,0,0,1-.1-.2A1,1,0,0,1,42.5,225.3Z"/><path class="cls-30" d="M54.1,233.6a.1.1,0,0,0-.1-.1.1.1,0,0,0-.1-.1.35.35,0,0,1-.1-.2c0-.1-.1-.1-.1-.2s-.1-.1-.1-.2-.1-.1-.1-.2-.1-.1-.1-.2-.1-.1-.1-.2-.1-.1-.1-.2-.1-.1-.1-.2-.1-.1-.1-.2-.1-.1-.1-.2a.1.1,0,0,0-.1-.1l-.1-.1a829303603196.71,829303603196.71,0,0,0,.2.2l.1.1.1.1.1.1c.1.1.1.1.1.2s.1.1.1.2a.31.31,0,0,1,.1.2.9.9,0,0,1,.1.5v.4c.5.1.5.3.5.4Z"/><line class="cls-39" x1="346.5" y1="345.9" x2="364.5" y2="345.9"/><line class="cls-39" x1="346.5" y1="349.5" x2="364.5" y2="349.5"/><line class="cls-39" x1="346.5" y1="353.1" x2="364.5" y2="353.1"/><line class="cls-40" x1="254.9" y1="195.9" x2="292.8" y2="195.9"/><line class="cls-40" x1="254.9" y1="200.2" x2="285.7" y2="200.2"/><line class="cls-40" x1="254.9" y1="204.4" x2="270.9" y2="204.4"/><line class="cls-40" x1="254.9" y1="269.9" x2="292.8" y2="269.9"/><line class="cls-40" x1="254.9" y1="274.2" x2="285.7" y2="274.2"/><line class="cls-40" x1="254.9" y1="278.4" x2="270.9" y2="278.4"/><line class="cls-40" x1="232.2" y1="234.2" x2="194.4" y2="234.2"/><line class="cls-40" x1="232.2" y1="238.5" x2="201.4" y2="238.5"/><line class="cls-40" x1="232.2" y1="242.7" x2="216.3" y2="242.7"/></svg>