<svg id="OBJECTS" xmlns="http://www.w3.org/2000/svg" viewBox="0 0 519 321.3"><defs><style>.cls-1{fill:#2a0159;}.cls-1,.cls-2,.cls-3,.cls-4,.cls-5,.cls-6{fill-rule:evenodd;}.cls-2{fill:#039be5;}.cls-3{fill:#41b6e5;}.cls-4{fill:#51ccfc;}.cls-5{fill:#02729e;}.cls-6{fill:#068bbf;}</style></defs><title>error-7-azur</title><path class="cls-1" d="M232,218.3H187c-.7,0-.9-.1-.9-.8.1-5.9.1-11.9.2-17.8V157.5a3.48,3.48,0,0,1,1.4-3c10-8.2,20-16.4,29.4-25.2a4.8,4.8,0,0,1,3.6-1.2c3.8,0,7.6-.1,11.4,0,.9,0,1.2-.2,1.1-1.1-.1-1.7,0-3.5,0-5.2,0-.7-.1-.9-.9-1-8.4-.6-16.9-1.3-25.3-1.9-1.1-.1-2.2-.2-3.3-.4a1.89,1.89,0,0,1-1.8-2.3c.2-4.7.4-9.5.5-14.3.2-10.9,1.1-21.7,2.1-32.5.1-.9.2-1.8.3-2.6a6.07,6.07,0,0,1,3.2-4.7c8.4-5.3,16.8-10.7,25.2-16.1.2-.1.4-.3.6-.4a13.16,13.16,0,0,1,10.6-3.2,32.29,32.29,0,0,0,4.4,0,1.76,1.76,0,0,0,1.7-1,18.7,18.7,0,0,1,11.1-9.7c.1,0,.2-.1.3-.1,1-.6,1-5.1.1-5.7-4.4-2.9-4.8-8.8-.8-12.5a7.36,7.36,0,0,1,7.8-1.8c3.1,1,4.3,3.6,4.8,6.6a8,8,0,0,1-2.8,7.9c-2.1,1.9-1.7,4.9.9,5.9,4.1,1.5,6.6,4.5,8.1,8.5.7,1.8,1.2,2.1,3.1,2.1,11.2,0,22.4-.1,33.6-.1,3.8,0,4.3.3,4.4,4.2.2,9.9-.3,19.7-.7,29.5-.2,3.6-.1,7.2,0,10.7a9.06,9.06,0,0,1-3.4,7.5l-29.9,26a4,4,0,0,1-2.8,1c-4.3,0-8.5.1-12.8.2-.9,0-1.3.2-1.3,1.2a40.28,40.28,0,0,1-.3,4.9c-.1.9.1,1.1,1,1.1H304c1.7,0,3.4,0,5.1.1s1.9.3,1.9,1.9v34.5c0,7.9-.1,15.8,0,23.8a4.12,4.12,0,0,1-1.6,3.4c-9.8,8.4-19.6,16.9-29.4,25.4a5.87,5.87,0,0,1-4.2,1.3c-6-.2-11.9-.3-17.9-.4-8.7-.1-17.3,0-26,0A1.34,1.34,0,0,0,232,218.3Z"/><path class="cls-2" d="M308.9,132.1v14.6c0,13.6-.1,27.2-.1,40.8a4.75,4.75,0,0,1-1.8,4c-8.8,7.5-17.6,15.1-26.4,22.6-.4.3-.8,1-1.3.8s-.2-1-.2-1.5V211c.1-15.8.1-31.7.2-47.5,0-1.4,0-2.9-.1-4.3a3.6,3.6,0,0,1,1.3-2.9c9.4-7.7,18.3-15.9,27.5-23.7A4.38,4.38,0,0,0,308.9,132.1Z"/><path class="cls-3" d="M311,47.9c-3.6,2.3-7.2,4.7-10.8,7-4.2,2.7-8.5,5.4-12.8,8.1a4.79,4.79,0,0,1-2.8.8c-8.2,0-16.4.1-24.6.1H225.8c-2.9,0-5.9-.1-8.8-.2-.1-.6.4-.9.8-1.1,7.3-4.8,14.4-9.9,21.5-15.1a3.29,3.29,0,0,1,1.3-.7,53.52,53.52,0,0,1,8,.3,17.87,17.87,0,0,1-.9,4c-.4,1.8-.3,2.2,1.4,3.1a24.76,24.76,0,0,0,9.7,2.4c7.2.7,14.2-.4,21.2-2.1,2.7-.7,2.7-.1,2.6-3.6,0-1.4-.3-2.8-.4-4.1,2,0,3.9.4,5.9.4,5.7.1,11.4.7,17.1.2a36.84,36.84,0,0,1,4.7,0A1.22,1.22,0,0,1,311,47.9Z"/><path class="cls-4" d="M285.6,68.3a17,17,0,0,1-5.5.7c-6.1.1-12.1.3-18.2,0-7-.3-13.9-.5-20.9-.4-5.8.1-11.6.4-17.4.6-2.5,0-5,.1-7.4.2-1.8,0-3.6.4-5.4.3-.8-.1-.8.5-.8,1.1,0,4.9-.2,9.8-.3,14.7-.1,4.5-.4,8.9-.9,13.4-.6,5.5-1.4,11-2.3,16.4-.2,1.3-.9,1-1.6,1.1-1-.2-.8-1-.8-1.6.2-5,.4-10,.7-15,.3-6.8.6-13.5,1.1-20.3.3-4.2.7-8.3,1-12.4.1-.7.3-1,1-.9h75.5C285.7,66.1,285.7,66.1,285.6,68.3Z"/><path class="cls-4" d="M191.6,157.5v58.3c-3,.2-3,.2-3-2.7V158.9c0-1.3.3-1.8,1.6-1.5A6.15,6.15,0,0,0,191.6,157.5Z"/><path class="cls-4" d="M233.3,133.2c-4.1.7-8.3-.2-12.4,0a3.1,3.1,0,0,0-2.2.9c-5.2,4.6-10.1,9.4-15.2,14.2a86.3,86.3,0,0,1-8.1,6.6,1.75,1.75,0,0,1-1.2.4h-2.6c-.9-.4-.2-.6.1-.8,2.2-1.9,4.4-3.7,6.5-5.6,6.6-5.7,13.2-11.5,19.7-17.3a4.52,4.52,0,0,1,3.5-1.3c3.4.1,6.9.1,10.3.1,1.3,0,1.8.4,1.6,1.7Z"/><path class="cls-4" d="M248.5,47.1c-2,.6-4-.1-6-.1a6.12,6.12,0,0,0-3.9,1.3c-6.9,5.2-13.9,10.2-21.1,14.8-.2.2-.5.3-.6.6h-6.7a2.71,2.71,0,0,1,1-.9c8.4-5.4,16.9-10.8,25.3-16.2a10.92,10.92,0,0,1,6.8-1.8,36.84,36.84,0,0,0,4.7,0c1-.1,1.2.3.9,1.1A5.64,5.64,0,0,0,248.5,47.1Z"/><path class="cls-4" d="M311,47.9c-4.8-.2-9.6.5-14.4.2-4.4-.3-8.8-.2-13.1-.7a5,5,0,0,1-1.3-.5c-.5-2-.5-2,1.5-2h31a1.49,1.49,0,0,1,.6.1A29.49,29.49,0,0,1,311,47.9Z"/><path class="cls-4" d="M304.1,133.2c-5.9,0-11.8.4-17.8.3-4.8-.1-9.6,0-14.5,0-.6,0-1.2-.2-1.9-.2-.1-2.2-.1-2.2,2.1-2.2h33.6c.2,0,.5,0,.5.2a.76.76,0,0,1-.2.4Z"/><path class="cls-3" d="M285.6,68.3c0,6.8-.3,13.6-.5,20.4-.2,5.4-.2,10.8-.3,16.1-.1,4.3-.2,8.7-.2,13,0,.8-.1,1.2-1.1,1.3-10.7.1-21.4.5-32.2.2-10.4-.3-20.7-1-31.1-1.7-4.9-.3-9.8-.7-14.7-1.1a1.42,1.42,0,0,1-.6-.2c1-.5,1.2-1.5,1.4-2.5,1.2-7.2,2.2-14.5,2.7-21.8a61.88,61.88,0,0,0,.3-7.4c-.1-4.5.3-8.9.3-13.4,0-1.7.3-2,2.1-2.1,6.9-.3,13.7-.3,20.6-.6,7.2-.3,14.4-.7,21.6-.3,7.9.4,15.8.4,23.7.4,2.2,0,4.5-.2,6.7-.4A2.88,2.88,0,0,1,285.6,68.3Z"/><path class="cls-3" d="M191.6,157.5h11.7c8.7.1,17.3.2,26,.2l45.2.3c2.5,0,2.5,0,2.5,2.5v54.7c0,1.1-.2,1.4-1.3,1.4l-40-.3c-11.1-.1-22.1-.1-33.2-.3-3.6-.1-7.2.1-10.8-.2a2.38,2.38,0,0,1-.5-1.8V159.2A2.18,2.18,0,0,1,191.6,157.5Z"/><path class="cls-3" d="M233.3,133.2a85.08,85.08,0,0,1,0,10.1,4,4,0,0,0,2.5,4.1,32.2,32.2,0,0,0,13.7,3c6.3.2,12.4-1.2,18.4-3,1.4-.4,1.9-1.2,1.9-2.9V133.3a1.68,1.68,0,0,1,1.2-.3c1.4.1,2.8.1,4.2.1h19.2c2.6,0,5.2-.4,7.8-.2a2.32,2.32,0,0,1,1.8.4c-2.7,2.7-5.7,5.1-8.6,7.6l-15.3,13.2a8.66,8.66,0,0,1-6.4,2.2l-20.1-.3-32.8-.3c-9.2-.1-18.4-.2-27.6-.1a3.21,3.21,0,0,1-1.7-.2c.6-.6,1.3-.4,1.9-.4a3.6,3.6,0,0,0,2.2-.7A123.37,123.37,0,0,0,209,142.6c3.1-3.1,6.5-5.9,9.6-8.9a2.93,2.93,0,0,1,2.2-.7c3.3-.2,6.6.4,9.9.3C231.7,133.1,232.5,132.7,233.3,133.2Z"/><path class="cls-3" d="M266.4,13.4a4,4,0,0,1,4.2,1.9c1.7,2.5,1.4,5.2.2,7.8a1.93,1.93,0,0,1-1.4,1.1,8.35,8.35,0,0,1-4.7,0,2.41,2.41,0,0,0-.4-1.8c-1.9-2.6-1.5-5.6,1-7.8C265.7,14.4,266.5,14.3,266.4,13.4Z"/><path class="cls-3" d="M265.1,33.6c.5.2,1.2-.2,1.4.3s-.6,1-1,1.3a4.12,4.12,0,0,1-1.9,1.1c-4.1,1.1-6.6,4-8.7,7.4a30.86,30.86,0,0,0-3.3,7.7,2,2,0,0,1-.8,1.2c-.8-.1-.9-.7-.8-1.3,1-6,2.9-11.6,8.1-15.3A12.3,12.3,0,0,1,265.1,33.6Z"/><path class="cls-4" d="M266.4,13.4c.5.1.9.1.3.7a23.37,23.37,0,0,0-2.3,2.2,6.29,6.29,0,0,0-1,4.4c.1.7.7,1.1,1.1,1.6s1.2,1.3.1,2a5.21,5.21,0,0,1-3.1-7.8C262.7,14.8,264.1,13.5,266.4,13.4Z"/><path class="cls-4" d="M239.1,126.5c0,2,0,4,.1,6,0,.3-.1.5-.4.5-3.3-.3-3.3-.3-3.3-3.5v-2.8c0-.5.1-.8.7-.7C237.2,126.3,238.2,126.3,239.1,126.5Z"/><path class="cls-4" d="M239.1,134.7V141H239c-4.1-1.1-3.4-.3-3.4-4.4,0-2.9,0-2.9,2.8-2.1A1.85,1.85,0,0,0,239.1,134.7Z"/><path class="cls-4" d="M267.7,29.2v.2c.1,1.8-.5,2.2-2.2,1.8-.5-.1-.5-.4-.5-.7v-2c0-1.7,0-1.7,1.6-1.7.7,0,1.1.2,1,1a6.6,6.6,0,0,0,.1,1.4Z"/><path class="cls-1" d="M254,109.4h-2.5a1.53,1.53,0,0,1-1.7-1.5c-.2-1.5-.5-3.1-.7-4.6a9.24,9.24,0,0,0-.8-2.7c-.6-1.3-1.4-1.5-2.6-.8a3.25,3.25,0,0,0-1.2,1.6,40,40,0,0,0-1.5,5.7c-.4,1.6-.8,2-2.4,1.9-1.3,0-2.5,0-3.8-.1a1.46,1.46,0,0,1-1.6-1.7c.3-3.5.7-7,2.3-10.3a10.63,10.63,0,0,1,10.7-6c3.5.3,7.4,3.8,8.6,8a67.07,67.07,0,0,1,1.4,8.8c.1.9-.3,1.3-1.1,1.3-1.1.2-2.1.2-3.1.4Z"/><path class="cls-1" d="M257.2,86.7c.2-5.5,3.8-9.1,8.9-9,5.3.2,8.8,3.9,8.6,9.4-.1,5-3.7,8-9.1,7.8S257.1,91.6,257.2,86.7Z"/><path class="cls-1" d="M234.9,87c-.1,5.1-3.4,8.1-8.9,8s-8.6-3.2-8.6-8.5,3.8-8.9,8.9-8.8C231.6,77.8,235,81.5,234.9,87Z"/><path class="cls-1" d="M232.7,210H204c-1.9,0-3.8,0-5.7-.1s-2.2-.4-2.2-2.3v-10c0-9.9,0-19.9-.1-29.8,0-.9-.1-1.8-.2-2.8s.3-1.6,1.5-1.6c11.4,0,22.8-.2,34.2.1,9.2.2,18.4.3,27.6.5,2.5.1,5,.1,7.6.2,1.2,0,1.7.5,1.7,1.7v.6c0,8.4.1,16.8.1,25.3,0,5.8.1,11.5.1,17.3,0,1.5-.1,1.7-1.7,1.6l-34.3-.6C232.7,210.1,232.7,210.1,232.7,210Z"/><path class="cls-5" d="M255.6,104.9c-.2.5.5,1.3-.2,1.6a4.6,4.6,0,0,1-2.8.4c-.6-.1-.7-.7-.8-1.2-.4-1.8-.8-3.7-1.2-5.5a3.81,3.81,0,0,0-3.6-3.1,3.94,3.94,0,0,0-4.3,2.7,38.59,38.59,0,0,0-1.7,5.8c-.3,1-2.4,1.7-3.2,1.1-.3-.2-.2-.5-.2-.7a20.66,20.66,0,0,1,2.4-8.8c2.6-4.3,8.8-5.2,12-1.6a14.5,14.5,0,0,1,3.6,8.4Z"/><path class="cls-5" d="M265.9,92.6c-4.3,0-6.4-2-6.4-6.2,0-4,2.5-6.4,6.6-6.4,3.8,0,6.3,2.7,6.2,6.7C272.4,90.5,270,92.7,265.9,92.6Z"/><path class="cls-5" d="M226,92.6q-6.3,0-6.3-6.3c0-3.9,2.7-6.3,6.9-6.3,3.7,0,6,2.7,6,6.9C232.5,90.6,230.2,92.7,226,92.6Z"/><path class="cls-2" d="M215.9,165.8a64.23,64.23,0,0,1,7.6,0c2.3.2,3.4,1.5,3.2,3.8-.1,1.9,0,2,1.9,2a1.56,1.56,0,0,1,1.5.8c.9,1.6,1.7,3.2,2.6,4.8a1.6,1.6,0,0,1-.7,2.5l-1.8,1.2c-.6.5-.6,1.1.1,1.5s1.5.8,2.2,1.2a1,1,0,0,1,.6,1.5c-.6,1.5-1.2,3-1.8,4.6a1.82,1.82,0,0,1-1.1,1,10.93,10.93,0,0,1-1.7.5c-1.8.6-2,1-.6,2.3.4.4.6.7.2,1.3-1.3,1.8-3.3,2.6-5.2,3.6-.6.3-1.1-.4-1.6-.8s-.8-1-1.5-.8-.7.9-.7,1.5a1.65,1.65,0,0,1-1.5,1.7,28,28,0,0,1-5,.1,2.65,2.65,0,0,1-2.3-2.3c-.5-2.3-.8-2.5-2.8-1.3a1.75,1.75,0,0,1-2.5-.2,25.6,25.6,0,0,0-2.6-2,2,2,0,0,1-.9-2.2c.3-1.7.1-2-1.6-2-1.2,0-1.5-.4-1.5-1.6.1-4.2.1-8.3,0-12.5a6.86,6.86,0,0,1,1.9-4.6c.6-.7,1.3-.5,1.9,0s1.6,1.2,2.4.6.5-1.8,0-2.6c-.7-1.4-.1-2,1-2.7a6.61,6.61,0,0,1,4.1-1C211.8,165.8,213.9,165.8,215.9,165.8Z"/><path class="cls-2" d="M235.8,166.1c1.2,0,2.4,0,3.7-.1.9,0,1,.3.9,1.1-.7,4.3,1,7.8,3.7,10.8,2.8,3.2,6.6,3.3,10.4,2.3,4.8-1.3,7.4-4.9,7.5-9.8a19.22,19.22,0,0,0,0-2.4c-.1-1.1.3-1.6,1.4-1.6.7,0,1.4.1,2.1.1s.7.4.8,1a54.76,54.76,0,0,1,.1,8.1,7.29,7.29,0,0,1-1.1,2.9c-.3.6-.8.5-1.3.4-1.1-.2-1.6.4-1.4,1.3.6,2.4-.7,3.5-2.6,4.3a30.71,30.71,0,0,0-3.1,1.7,1.73,1.73,0,0,1-2.4-.2,5.55,5.55,0,0,0-.8-.6c-1.2-.9-1.6-.8-2.1.6a1.52,1.52,0,0,1-2.1,1.1c-1.9-.4-3.7-.7-5.6-1-1-.2-1.6-.7-1.5-1.8a13.4,13.4,0,0,0-.1-2c-.1-1-.7-1.2-1.6-.8-2.6,1.2-2.8,1.1-4.3-1.4-.4-.6-.7-1.3-1.1-2a3.18,3.18,0,0,1-.1-3.5c.8-1.2.4-1.5-1.4-2.1a3.32,3.32,0,0,0,.9-2.7A6,6,0,0,1,235.8,166.1Z"/><path class="cls-2" d="M241.9,188.8c.5.5,1,1,1.6,1.5s1.1.5,1.6-.3c.9-1.7,1-1.8,2.8-1.1a27.43,27.43,0,0,1,5.3,2.3,1.69,1.69,0,0,1,.9,2,5.9,5.9,0,0,0-.2,1.4c0,1.2.4,1.5,1.6,1.2,1.6-.4,2.1-.2,3,1.2a12.16,12.16,0,0,1,1.5,4.9c.1.6-.3.9-.7,1.3-1.3,1.2-1.2,1.6.4,2.5a5.3,5.3,0,0,1,1,.6,1.6,1.6,0,0,1,.4,1.5.86.86,0,0,1-.9.7h-5.7c.9-7-4-12.3-11-12.7-5.8-.3-11.2,5.2-10.6,10.6.1,1.3-.2,1.8-1.6,1.6-1.6-.1-3.2,0-4.8,0-.4,0-1.1.3-1.2-.5a1.48,1.48,0,0,1,.7-1.7c.2-.1.3-.2.5-.2a1.17,1.17,0,0,0,1-.9c.1-.6-.4-.9-.8-1.1-1.2-.5-1.2-1.3-.5-2.2.4-.6.8-1.3,1.2-1.9,1-1.8,2.4-2.8,4.5-2.5.9.1,1.5-.2,1.2-1.3,2.3-1.2,4.3-2.9,6.8-3.6A3.83,3.83,0,0,0,241.9,188.8Z"/><path class="cls-5" d="M224.9,199.4a19.47,19.47,0,0,1-.9,2,2.43,2.43,0,0,0,0,2.2c.5,1-.4,1.8-.4,2.7,0,1.4-1.1,1.3-2,1.3-6.3,0-12.5,0-18.8.1h-3.4c-.5,0-1-.1-1-.8,0-4.7.1-9.3.1-14,0-.6-.1-1.2.8-1.1s.4.6.4,1a2.39,2.39,0,0,0,1.1,2.3,33.21,33.21,0,0,1,4.2,3.2,1.6,1.6,0,0,0,2.3,0c.8-.6,1.4-.8,1.6.6.2,1.6,1.4,2.3,2.9,2.6a13.48,13.48,0,0,0,7.2-.4,8,8,0,0,1,4.2-.9A4.22,4.22,0,0,0,224.9,199.4Z"/><path class="cls-5" d="M255.6,193.8c.7-2.2-.4-3.4-2.2-4.2-.6-.2-1.1-.6-.7-1.4s.5-1.3,1.4-.5a2.56,2.56,0,0,0,3,.2c2.2-1.1,4.3-2.3,6.4-3.6a1.79,1.79,0,0,0,.8-2.4c-.1-.4-.2-.8.3-1a3.53,3.53,0,0,1,1.7-.4c.3,0,.2.7.2,1v26c0,.7-.2.9-.9.9h-.5c-2.2,0-2.2,0-2.6-2.1-.1-.8-.7-1.2-1.2-1.7-.4-.3-.6-.5-.1-.9a1,1,0,0,0,.4-1.1c-.5-2.6-.7-5.3-2.7-7.4C257.7,193.8,257.3,193.5,255.6,193.8Z"/><path class="cls-2" d="M242.4,166.4c.6-.5,1.2-.2,1.8-.2h5.9c-.5.7-1,1.2-1.4,1.7-1.3,1.8-1.2,3.4.2,4.7a3.39,3.39,0,0,0,4.6.1,3.5,3.5,0,0,0,.4-5,13.1,13.1,0,0,0-1.2-1.3h6.5c.8,0,1,.7,1.1,1.3a9.46,9.46,0,0,1-10,11.5,18.9,18.9,0,0,1-6.1-5.5,7.34,7.34,0,0,1-1-5.6C243.5,167.2,243.3,166.6,242.4,166.4Z"/><path class="cls-2" d="M242.9,197.2c5.6-.3,10.5,4.3,10.1,9.4-.1,1.1-.5,1.7-1.7,1.5a17.09,17.09,0,0,0-3.2,0c-.9,0-1.1-.3-.9-1.1a2.71,2.71,0,0,0-1.1-3.2,3.57,3.57,0,0,0-3.7-.7,3.75,3.75,0,0,0-2.1,3.5c0,1.1-.3,1.4-1.4,1.3s-2.2.1-3.3-.1a13,13,0,0,0,.8-3.4c.4-3.1,1.9-5.4,4.9-6.4A4.77,4.77,0,0,0,242.9,197.2Z"/><path class="cls-5" d="M233,190.4a27.84,27.84,0,0,0,1.6-4.9c.5-2,.3-2.3-1.5-3.2-.3-.2-.7-.3-.9-.6a.1.1,0,0,1,.1-.1c1.9-1.6,1.9-1.5,3.6.2a15.38,15.38,0,0,1,1.2,1.3,2.15,2.15,0,0,0,3,.6c.7-.4.9-.2.9.5v.5c-.1.7.7,1.4.1,2a6.63,6.63,0,0,1-1.9.9Z"/><path class="cls-4" d="M241.9,188.8c.4,1.6.2,2.4-1.3,2.9-2.4.8-4.3,2.2-6.5,3.3a2,2,0,0,1-1.3.4c-.8-1.2-.4-2.2.6-3.1,2.1-1.9,4.7-2.8,7.3-3.7C241.1,188.5,241.6,188.4,241.9,188.8Z"/><path class="cls-4" d="M242.9,197.2c-.1.7-.6,1-1.2,1.2-3.5,1.1-4.7,3.7-4.9,6.8-.1,1,0,2-1.1,2.6-1.1.2-1.5-.3-1.7-1.4A8.8,8.8,0,0,1,242.9,197.2Z"/><path class="cls-4" d="M242.4,166.4h1c.6,0,.6.2.5.7-1,4.2.7,7.3,3.9,9.9a11.31,11.31,0,0,1,2.6,2.3,6.55,6.55,0,0,1-4.8-1.8,12.29,12.29,0,0,1-4-8.8C241.7,167.8,241.7,166.9,242.4,166.4Z"/><path class="cls-5" d="M203.5,165.9c-1.4,1.3-1.1,2.6-.4,3.9-1,0-1.6-.9-2.5-.5s-1.3,1.1-2.2,1.5v-4.3c0-.5.3-.7.7-.6Z"/><path class="cls-4" d="M235.8,166.1a17.53,17.53,0,0,0-.8,5.1c.1.7-.4,1.3-1.3,1.3-1.1-.1-1.5-.7-1.4-1.8a8.6,8.6,0,0,0,.1-1.6C232.7,166.3,233.1,165.9,235.8,166.1Z"/><path class="cls-5" d="M229.3,165.9h.4c1.8,0,1.9.1,1.5,1.9-.1.3-.1.7-.2,1-.1,1.1-.4,1.8-1.8,1.4-.6-.2-1.1-.2-.8-1a2.58,2.58,0,0,0-.5-2.1c-.6-.8-.5-1.2.6-1.1A2.2,2.2,0,0,1,229.3,165.9Z"/><path class="cls-1" d="M215.7,192.9c-5.7,0-10.8-5.5-10.7-11.7A10.14,10.14,0,0,1,215,171c7.6,0,11.9,5,12.1,10.7C227.3,188.4,222.4,192.9,215.7,192.9Z"/><path class="cls-2" d="M215.1,172.6a10.25,10.25,0,0,1,9.5,5.4c1.5,2.9.8,7.8-1.4,10.3a10.67,10.67,0,0,1-10.4,2.5,2,2,0,0,0-.9-1.7c-3.6-3.4-3.7-7.5-2.2-11.8a5.93,5.93,0,0,1,3.2-3.4A15.92,15.92,0,0,0,215.1,172.6Z"/><path class="cls-4" d="M215.1,172.6a1.72,1.72,0,0,1-1.1,1.1c-3.1,1.2-4.4,3.7-4.7,6.8a9.38,9.38,0,0,0,3.2,8.6c.4.4,1.4.9.3,1.7a4.59,4.59,0,0,1-1.6-.7c-3.2-2-5.4-7.5-4.5-11.2A8.88,8.88,0,0,1,215.1,172.6Z"/><path class="cls-1" d="M216.2,185.7a3.76,3.76,0,0,1-3.7-3.7c.1-1.9,1.9-3.8,3.7-3.7a3.48,3.48,0,0,1,3.4,3.6A3.37,3.37,0,0,1,216.2,185.7Z"/><path class="cls-1" d="M264.5,234.2c0,4.2,0,7.4-.8,10.5-1,3.7-2.7,7-6.1,8.9-3.9,2.1-8.1,2-12.2.5a7.2,7.2,0,0,1-3.2-2.8,3,3,0,0,0-2.3-1.3,216.9,216.9,0,0,1-28.9-3.4c-11.3-2-22.4-4.8-33.7-7.1-1-.2-2-.3-3-.6a5.2,5.2,0,0,1-3.9-3.8,34.16,34.16,0,0,1-.2-17.1c.9-3.6,3.5-5.8,6.3-8,.6-.5,1.3-.1,1.9.1,9.7,3,19.2,6.6,28.7,10.2l33,12.3c.9.4,1.2.3,1.4-.8,1.4-7.3,4.7-13.7,8.4-20a8.8,8.8,0,0,1,4.3-3.3,4.23,4.23,0,0,1,4.5,1.1,12.21,12.21,0,0,1,3.3,6.1A80.82,80.82,0,0,1,264.5,234.2Z"/><path class="cls-1" d="M360.4,235.5c-5.6,0-10.7-.9-15.2-3.8-2.1-1.3-4.6-1.3-6.9-1.6-13.4-1.7-26.8-3.2-40.2-4.7-2.8-.3-5.5-.6-8.3-.8a5.27,5.27,0,0,1-4.7-3.2,16.5,16.5,0,0,1-1.6-8.7c.3-3.2.4-6.4,2-9.3s3.1-3.7,6.4-3c14.8,2.9,29.5,5.6,44.1,9.6,3,.8,5.9,1.5,8.9,2.3a4.28,4.28,0,0,0,4.3-1.2c6.1-6.1,13.5-7.3,21.7-6.2,1.5.2,2,.8,1.9,2.3a56.37,56.37,0,0,1-1.5,8.2c-.2.9-1,1.2-1.8,1.3-2,.2-4,.4-6,.7-2.6.4-4.1,1.9-4.3,4.2a1.89,1.89,0,0,0,2,2.4c2.5.2,5,.3,7.6.4,1.1,0,1.5.6,1.4,1.6-.3,2.5-.7,4.9-1.2,7.3-.2,1-1,1.4-1.9,1.7A33.06,33.06,0,0,1,360.4,235.5Z"/><path class="cls-1" d="M283.1,300.3c-3.5,0-6.9-.1-10.4,0-8.7.2-17.4-.1-26.1-.5-1.8-.1-3.5-.2-5.3-.4a1.43,1.43,0,0,0-1.7.8c-3.3,7.2-9.4,8.9-16.6,8.1-2.1-.2-4.2-.5-6.3-.7-.8-.1-1.4-.4-1.4-1.3-.1-3-.4-6-.3-9,.1-1.6.3-1.9,2-1.8s3.4.2,5.2.4c.5,0,1,.1,1.5.1,1.7,0,2.6-.5,2.9-1.7a3.17,3.17,0,0,0-1.7-3.9c-2.5-1-5-2.2-7.8-2.2-1.3,0-1.8-.6-1.9-1.9-.1-2.8-.1-5.6-.1-8.3a1.63,1.63,0,0,1,1.4-1.7c8.6-1.9,16.2.7,21,8.1a3.09,3.09,0,0,0,3.3,1.5l23.5-3,22.4-2.7a47.6,47.6,0,0,1,6.5-.6,3,3,0,0,1,3.1,2c2.3,5.8,1.6,11.5-.3,17.1a2.42,2.42,0,0,1-2.5,1.5C290.2,300.3,286.6,300.3,283.1,300.3Z"/><path class="cls-1" d="M146.4,196.3a62.51,62.51,0,0,1,.9-9.4,3.08,3.08,0,0,1,2.6-2.7,20.67,20.67,0,0,1,4.3-.2,4.05,4.05,0,0,1,3.7,3.6c.2,1.3.7,1.6,2,1.7,4.9.4,9.9,1,14.8,1.5,1.6.2,2,.6,2.3,2.2a28.08,28.08,0,0,1-.8,10c-.2,1.1-1.2,1.2-2.1,1.1-4.9-.5-9.8-.9-14.7-1.6-.4-.1-.8-.1-1.1-.2-.8-.3-1.1,0-1.1.8a3.55,3.55,0,0,1-.2,1c-.5,2.2-1.6,2.9-3.8,2.7a15.17,15.17,0,0,0-2.1-.3c-2.1-.1-3.1-1.4-3.6-3.3A18,18,0,0,1,146.4,196.3Z"/><path class="cls-1" d="M329,187.6h7.8c1.1,0,1.6-.3,1.6-1.5,0-2.9,1-3.9,3.9-4,1.3-.1,2.5-.1,3.8-.1a2.11,2.11,0,0,1,2.3,1.8,77.2,77.2,0,0,1,1.2,8.4c.3,2.3.4,4.6.6,6.9.3,3-.5,4-3.4,4.8a10.68,10.68,0,0,1-2.5.3c-2.3,0-3-.6-3.6-2.7-.5-1.5-.9-1.7-2.5-1.6-3.9.4-7.8,1.1-11.8.4-2.1-.3-2.7-.8-3.1-2.8a31.82,31.82,0,0,1-.9-6.9c.1-1.6.7-2.4,2.3-2.6A36.2,36.2,0,0,1,329,187.6Z"/><path class="cls-6" d="M252.9,217.2a61.33,61.33,0,0,0-2.7,12,44.85,44.85,0,0,0,1.2,16.7c.8,2.5,1.9,4.8,4.7,5.7-3.1,1.8-8.5,1.6-10.9-.2a2.66,2.66,0,0,1-1-1.1c.3-1.4-.2-2.7-.2-4-.3-4.9-.8-9.9.6-14.6,1.5-4.9,3.4-9.8,7-13.7C251.9,217.6,252.2,217,252.9,217.2Z"/><path class="cls-4" d="M191.4,223.2c-2.8-.9-5.7-1.8-8.5-2.8a19.05,19.05,0,0,1,1.8-4.7,1.32,1.32,0,0,1,1.8-.7l6.6,2.4c.5.2.8.4.4,1A29.11,29.11,0,0,0,191.4,223.2Z"/><path class="cls-4" d="M222.7,232.8a1.92,1.92,0,0,1-1.8.1c-2.2-.9-4.4-1.4-6.7-2.1a1.24,1.24,0,0,1-1.1-1.4,26,26,0,0,1,1-4c.1-.5.4-.4.7-.3,2.7,1,5.4,2.1,8.1,3.1.5.2.5.5.4.9C223.1,230.5,222.9,231.7,222.7,232.8Z"/><path class="cls-4" d="M201.8,226c-.7.5-1.4,0-2-.3a32.2,32.2,0,0,0-6.9-2,24.17,24.17,0,0,1,1.9-5.1c.2-.4.4-.4.8-.3,2.4.9,4.9,1.8,7.3,2.6.6.2.6.5.4.9A21,21,0,0,0,201.8,226Z"/><path class="cls-4" d="M211.6,229.6c-.2.2-.3.5-.8.4a57.41,57.41,0,0,1-6.9-2.6,1,1,0,0,1-.6-.9,16.12,16.12,0,0,1,1.2-3.9,1,1,0,0,1,1.3-.6l6.6,2.4c.5.2.5.4.3.9A27,27,0,0,0,211.6,229.6Z"/><path class="cls-4" d="M181.5,219.4a7.29,7.29,0,0,1-2.9-1.1c-1.5-.9-3.3-1.4-4.7-2.7a9.53,9.53,0,0,1,2.6-2.7,1.89,1.89,0,0,1,1.8-.3c1.6.4,3.2.9,4.9,1.3.6.2.7.4.4.9C182.9,216.4,182.2,217.9,181.5,219.4Z"/><path class="cls-4" d="M231.8,236.1a41.48,41.48,0,0,1-6.6-2,1.38,1.38,0,0,1-1-1.4,25.83,25.83,0,0,1,.6-3.7c2.4.9,4.8,1.9,7.2,2.8.5.2.4.5.3.9C232.2,233.9,232,235,231.8,236.1Z"/><path class="cls-4" d="M240.7,237.1a1.14,1.14,0,0,1-1.3.5c-2-.5-4-.6-6-1.3.1-3.8.2-3.9,3.7-2.6a18,18,0,0,0,2.1.8A2,2,0,0,1,240.7,237.1Z"/><path class="cls-4" d="M370.3,207.8c-2.1-.2-4.1.5-6.2.9a57.53,57.53,0,0,0-9.7,3.1,14.76,14.76,0,0,0-3.6,2.3,8.58,8.58,0,0,1-2,1.3c-.2-1,.4-1.6,1-2.2,4.2-4.4,9.5-6.3,15.5-6.6,1.3,0,2.7,0,4,.1C370,206.9,370.4,207.1,370.3,207.8Z"/><path class="cls-4" d="M306.2,208.8a49.93,49.93,0,0,0-8.6-1.5c-.4,0-.8-.2-1.2-.2a5.77,5.77,0,0,1,.9-2.6,1.19,1.19,0,0,1,1.5-.7l7.6,1.5c.6.1.7.3.6.8A13.82,13.82,0,0,0,306.2,208.8Z"/><path class="cls-4" d="M318.7,210.6c-2.6,0-5-.8-7.5-1.1-.9-.1-1.7-.3-2.6-.4a.66.66,0,0,1-.7-.6l.3-1.5c.2-1,.8-1.3,1.8-1.1,2.6.6,5.2,1.1,7.8,1.6,1.1.2,1.4.6,1.1,1.7C318.8,209.7,318.8,210.1,318.7,210.6Z"/><path class="cls-4" d="M294.8,206.6l-6-2.1a1.32,1.32,0,0,1-.9-1,2.36,2.36,0,0,1,2.7-1.3c1.5.3,3,.6,4.6.8.6.1.7.3.5.8C295.4,204.7,295.1,205.7,294.8,206.6Z"/><path class="cls-4" d="M328.9,211.3c0,.8-.3,1-1.1.9-2.5-.4-4.9-1.3-7.5-1.3,0-2.6,0-2.6,2.5-2,1.7.4,3.3.9,5,1.2A1.13,1.13,0,0,1,328.9,211.3Z"/><path class="cls-4" d="M338.5,213.6c-1.2.7-2.4,0-3.5-.1-1.5-.1-2.9-.4-4.3-.6-.2-2.3-.2-2.3,1.9-1.7,1.6.5,3.3.9,4.9,1.4C338.1,212.7,338.6,212.9,338.5,213.6Z"/><path class="cls-4" d="M233.4,282.7a4.89,4.89,0,0,1-2.9-.8,4.83,4.83,0,0,0-2.9-.7c-3.1,0-6.1-.2-9.1.9-.7.2-.8-.1-.8-.7v-2.9C223.6,277.3,229,278.2,233.4,282.7Z"/><path class="cls-4" d="M228.6,295.8a5.32,5.32,0,0,1-2.9,5.3c-2.8,1.1-5.5.6-8.2-.5-.1-2.7-.1-2.7,2.6-2.6,1.3.1,2.5.2,3.8.2A5,5,0,0,0,228.6,295.8Z"/><path class="cls-4" d="M274.1,285.9c-.1.3,0,.7-.5.8-2.8.4-5.6.9-8.4,1.3-.8-3.1-.8-3.1,2.3-3.5,1.4-.2,2.7-.4,4.1-.5C273.8,283.7,273.9,283.8,274.1,285.9Z"/><path class="cls-4" d="M255.1,290c-2.1.4-4.2.7-6.2,1.2-.9.2-1-.1-1-.9v-2.8c2-.4,4-.7,6.1-1.1a.57.57,0,0,1,.8.5A16.28,16.28,0,0,1,255.1,290Z"/><path class="cls-4" d="M285.9,284.9c-3,.1-5.9.8-8.8,1.1-.5.1-.9.1-1.4.2,0-.1-.1-.1-.1-.2-.3-2.5-.3-2.5,2.3-2.8,1.9-.2,3.8-.4,5.6-.5C285.5,282.5,285.8,282.9,285.9,284.9Z"/><path class="cls-4" d="M263.7,288.1a33.21,33.21,0,0,1-6.1,1.3,3,3,0,0,1-1,.2c-.1-.3-.1-.7-.2-1-.4-2.7-.4-2.7,2.3-3a25.12,25.12,0,0,0,2.7-.4,1.33,1.33,0,0,1,1.8,1A18,18,0,0,1,263.7,288.1Z"/><path class="cls-4" d="M246.2,291.7c-2-.1-4.1.3-6.1-.5-.4-3.9-.7-3,2.6-3.2,3.5-.3,3-.7,3.4,3.1C246.3,291.3,246.2,291.5,246.2,291.7Z"/><path class="cls-4" d="M294.8,283.1c-.1.4-.3.5-.7.6-2.2.2-4.4.7-6.6.7-.7-2.2-.7-2.2,1.6-2.2,1.4-.1,2.8-.1,4.2-.2C294.1,282,294.6,282.2,294.8,283.1Z"/><path class="cls-4" d="M155.5,192.7c-.6-.3-.8-.9-1.3-1.4a4.75,4.75,0,0,0-3.5-1.4c-.5,0-1.1.2-1.5-.3v-.9c.1-2.1.5-2.4,2.6-2.4,3.8.1,4.1.5,3.9,4.3C155.6,191.3,155.6,192,155.5,192.7Z"/><path class="cls-4" d="M346.6,186.3c0,.9-.4,1.1-1.2,1.1a8.33,8.33,0,0,0-2.2.3c-.6.1-.8.5-.9,1.1a20.48,20.48,0,0,1-.5,2.4c0,.2-.2.4-.3.6a4.23,4.23,0,0,0-.5-.7l-.6-4.8c-.1-1.7.1-1.9,1.7-2a14.77,14.77,0,0,1,2.1-.1C346.3,184.2,346.5,184.3,346.6,186.3Z"/><path class="cls-2" d="M265.1,33.6c5.7-.7,9.4,1,11.7,5.1a25.34,25.34,0,0,1,3.5,12,1.68,1.68,0,0,1-1.3,1.9c-7.7,1.8-15.4,2.8-23.2,1.5a17,17,0,0,1-5-1.5,42.72,42.72,0,0,1,4.1-9.6c2.1-3.2,4.5-5.9,8.3-7a9.93,9.93,0,0,0,2-1.1C266,34.5,265.9,34.1,265.1,33.6Z"/><path class="cls-2" d="M319.1,45.7v6.9c.1,8-.3,16-.6,24-.1,4-.3,8.1-.4,12.1a3.5,3.5,0,0,1-1.4,2.8c-8.3,7.8-17,15.1-25.6,22.5q-2,1.65-4.2,3.6v-7c.1-6.9.2-13.9.3-20.8.1-3.5.6-7,.5-10.6s0-7.2-.1-10.9a5,5,0,0,1,2.4-4.6L317.9,46A1.92,1.92,0,0,1,319.1,45.7Z"/><path class="cls-2" d="M239.1,126.5a130.8,130.8,0,0,0,18.8.7,59.72,59.72,0,0,0,8.5-.9c1.1-.2,1.4.1,1.3,1.2a29.44,29.44,0,0,0,0,4.2c.1,1.1-.5,1.5-1.5,1.6-4.5.3-9,.8-13.5.9a84.1,84.1,0,0,1-13.3-.8,1.42,1.42,0,0,1-.6-.2,48.66,48.66,0,0,1-.1-5.4A1.7,1.7,0,0,1,239.1,126.5Z"/><path class="cls-2" d="M239.1,134.7a103.38,103.38,0,0,0,14.7.7c4.2-.2,8.4-.4,12.6-.7,1.1-.1,1.4.2,1.3,1.3s0,2.2,0,3.3c0,.8-.4,1.1-1.1,1.2-6.8,1-13.6,1.9-20.5,1.5a28.3,28.3,0,0,1-7.1-1,1.28,1.28,0,0,1-.4-1C238.8,138.3,238.2,136.4,239.1,134.7Z"/><path class="cls-2" d="M250,148.2c-4.3.2-8.9-1-13.4-2.8a2.5,2.5,0,0,1-1-3.3c.2-.3.5-.2.8-.1,8.4,2.6,16.9,1.9,25.4.8,1.7-.2,3.4-.4,5.1-.7.6-.1.8.1.8.7.1,2.3,0,2.5-2.2,3.1A50.9,50.9,0,0,1,250,148.2Z"/><path class="cls-2" d="M252.8,125.8a110.26,110.26,0,0,1-16.2-1.1c-.9-.1-1.1-.4-1-1.3.2-2.4.1-2.4,2.5-2.3,9.6.2,19.2.5,28.8.7.6,0,1.3-.2,1.3.8s.1,1.8-1,2c-1.7.3-3.5.5-5.2.7A72.87,72.87,0,0,1,252.8,125.8Z"/><path class="cls-2" d="M262.2,234.3a58.87,58.87,0,0,1-.5,8.8,12.69,12.69,0,0,1-2,5.1c-1.3,2-3.9,1.8-5.1-.5a20.22,20.22,0,0,1-2.4-8.7,56.6,56.6,0,0,1,2-18.8,15.41,15.41,0,0,1,2.9-5.7c1-1.3,1.8-1.2,2.4.4a60.58,60.58,0,0,1,2.2,11.1A49.7,49.7,0,0,1,262.2,234.3Z"/><path class="cls-2" d="M181.5,219.4a34.11,34.11,0,0,0-.7,18.5c-2.3-.5-4.4-.9-6.5-1.4-1-.2-1.4-1-1.7-1.9-1.4-4.3-1.3-8.8-.8-13.2a10.08,10.08,0,0,1,2.2-5.7,6.25,6.25,0,0,1,2.2,1C177.9,217.6,179.8,218.3,181.5,219.4Z"/><path class="cls-2" d="M201.8,226c-.9,4.7-.9,8.9,1.2,16.6a9.29,9.29,0,0,1-2.9-.5c-1.8-.3-3.5-.7-5.3-1.1a2.44,2.44,0,0,1-2-1.5,24.43,24.43,0,0,1,.2-15.8,1.5,1.5,0,0,1,1.3-.1,25.12,25.12,0,0,1,5.5,1.7A11.76,11.76,0,0,0,201.8,226Z"/><path class="cls-2" d="M191.4,223.2a27.86,27.86,0,0,0,0,16.9,8.21,8.21,0,0,1-2.8-.5c-1.3-.3-2.5-.6-3.8-.8-1.8-.4-2.5-.9-2.8-2.7a32.64,32.64,0,0,1-.2-10.8,20.65,20.65,0,0,1,1.2-4.9.62.62,0,0,1,.7-.1c2.3.7,4.6,1.3,6.8,2.1A2.28,2.28,0,0,1,191.4,223.2Z"/><path class="cls-2" d="M211.6,229.6c-.7,4.8.3,9.4,1.4,13.9.2,1,0,1.2-.9,1-2-.4-4-.7-5.9-1.1a2,2,0,0,1-1.7-1.5c-1.6-5-2.4-10-1.3-15.3,0-.1.1-.1.1-.2A24.69,24.69,0,0,0,211.6,229.6Z"/><path class="cls-2" d="M222.7,232.8a46.16,46.16,0,0,0,.5,12.3c.1.9,0,1.2-1,1-2-.4-4.1-.7-6.1-1a1.42,1.42,0,0,1-1.3-.9,31.45,31.45,0,0,1-1.7-14.9,3.45,3.45,0,0,0,2.1,1.2,51.83,51.83,0,0,1,5.6,1.7A5.19,5.19,0,0,0,222.7,232.8Z"/><path class="cls-2" d="M231.8,236.1a36.94,36.94,0,0,0,.7,10.5c.1.6-.1.6-.6.6-2-.2-3.9-.5-5.9-.7-.8-.1-1.1-.7-1.3-1.4a26.17,26.17,0,0,1-.7-7.9,17,17,0,0,1,.2-4.5c1.5,1.6,3.6,1.9,5.5,2.5C230.5,235.5,231.3,235.4,231.8,236.1Z"/><path class="cls-2" d="M252.9,217.2a23.27,23.27,0,0,0-5.8,9c-.7,2.2-2.2,4.2-2.4,6.6-.1,1.1-.4,2.2-.4,3.4.1,2.4-.2,4.8,0,7.3.2,1.8.2,3.7.5,5.5.1.5.4,1.2-.5,1.5-1.4-1.7-1.6-3.8-1.7-5.8-.4-8.4,1.8-16.2,5.2-23.8a35.87,35.87,0,0,1,5.2-8.6,2.88,2.88,0,0,1,4.3-.6C255,212.9,253.9,215,252.9,217.2Z"/><path class="cls-2" d="M240.7,237.1a64.16,64.16,0,0,0-.2,9.8c0,.7-.2.9-.8.8l-4.3-.3a1.21,1.21,0,0,1-1.3-.8,25.21,25.21,0,0,1-.7-10.2c1.1-.3,2.1.2,3.2.3C237.9,236.9,239.3,237.4,240.7,237.1Z"/><path class="cls-2" d="M370.3,207.8a54.82,54.82,0,0,1-1,5.6c-.1.8-.8.9-1.5,1a35.57,35.57,0,0,0-5.7.8,6.5,6.5,0,0,0-5.1,7.6,3.45,3.45,0,0,0,3.3,3.2c2.1.3,4.3.4,6.4.5.9,0,1.1.3.9,1.1-.3,1.3-.5,2.6-.7,3.8-.1.7-.4,1.3-1.2,1.4a29.22,29.22,0,0,1-18.4-2.6c-.9-.5-1.1-.9-.6-1.8a20.47,20.47,0,0,0,2.5-10.8,16.6,16.6,0,0,0-.3-2.2,16.24,16.24,0,0,1,5.2-3.8,55.42,55.42,0,0,1,13.9-4C368.7,207.4,369.6,207.1,370.3,207.8Z"/><path class="cls-2" d="M318.7,210.6c-.5,4.6-1,9.2-1.4,13.8-.1.7-.3.8-.9.7l-6.7-.6a2,2,0,0,1-2-1.6,26.11,26.11,0,0,1,.2-14.4c3.2.5,6.5,1.1,9.7,1.6A2.22,2.22,0,0,1,318.7,210.6Z"/><path class="cls-2" d="M306.2,208.8c-.2,1.2-.3,2.5-.5,3.7a27.45,27.45,0,0,0,1,11.7c-2.9-.4-5.6-.8-8.3-1.2-.6-.1-.9-.6-1.2-1.1a12,12,0,0,1-1.7-6.4c0-2.9-.1-5.8.9-8.6a1.64,1.64,0,0,1,1-.2,48.12,48.12,0,0,1,7.6,1.2A5.38,5.38,0,0,1,306.2,208.8Z"/><path class="cls-2" d="M294.8,206.6c-.2,1.9-.7,3.8-.8,5.7a23.55,23.55,0,0,0,1.3,9.5,9.44,9.44,0,0,1,.3.9,47.61,47.61,0,0,1-6.6-.8,3,3,0,0,1-1.8-1.7,10.73,10.73,0,0,1-1.4-5.5,36.45,36.45,0,0,1,.7-8.1,6.92,6.92,0,0,1,1.5-3.1c1.7,1.1,3.7,1.3,5.4,2.2A2.63,2.63,0,0,1,294.8,206.6Z"/><path class="cls-2" d="M328.9,211.3a13.69,13.69,0,0,1-.1,5.7,53.77,53.77,0,0,1-2,7.9A1.38,1.38,0,0,1,325,226c-1.8-.3-3.6-.4-5.4-.6-.5-.1-1-.1-.9-.8.5-4.6,1-9.2,1.5-13.7.5-.5,1.2-.3,1.8-.3,1.7.2,3.3.8,5,1A2.37,2.37,0,0,0,328.9,211.3Z"/><path class="cls-2" d="M338.5,213.6c.6,3.7-.3,7.3-1.6,10.7-1.2,3.1-1.3,3.1-4.6,2.8-1.4-.1-2.8-.4-4.4-.6,1.3-4.5,2.7-8.9,2.8-13.6a1.4,1.4,0,0,1,1.4-.2C334.3,212.9,336.4,213.3,338.5,213.6Z"/><path class="cls-2" d="M346.8,218.8a15.73,15.73,0,0,1-1.9,8.2,2,2,0,0,1-2.4,1.3l-4.4-.6c-.9-.1-1.1-.4-.7-1.3a22.77,22.77,0,0,0,2.6-10.9c-.1-2.3,0-2.4,2.3-1.8a18.92,18.92,0,0,0,2.3.5,2.16,2.16,0,0,1,2,2.4A5.66,5.66,0,0,1,346.8,218.8Z"/><path class="cls-2" d="M228.6,295.8c1.1-4.1,0-6.5-4-8.3a18.92,18.92,0,0,0-6.2-1.6c-.6,0-1-.2-1-.8v-6.4c0-.1.1-.2.2-.3.6.6.3,1.4.4,2.2s.3,1,1,.8a30.37,30.37,0,0,1,9-.6c1.7,0,3,1,4.4,1.6.3.1.5.3.8.3a12.65,12.65,0,0,1,4.4,7.3,14.47,14.47,0,0,1-.9,10.8,9.64,9.64,0,0,1-7.8,5.2c-3.5.4-7-.2-10.4-.3a1,1,0,0,1-1.1-1.3c.1-1.2,0-2.4,0-3.7a1.9,1.9,0,0,1,1.3.1,11.39,11.39,0,0,0,5.8.3,4.21,4.21,0,0,0,3.3-3A7,7,0,0,0,228.6,295.8Z"/><path class="cls-2" d="M285.9,284.9c.9,3.5.4,7-.4,10.5-.7,3.1-.4,2.8-3.5,2.8h-6.3c-.5,0-.9,0-.7-.7,1.4-3.7,1.2-7.4.6-11.2.4-.5.9-.5,1.5-.6,2.3-.4,4.6-.7,6.9-1C284.8,284.5,285.4,284.4,285.9,284.9Z"/><path class="cls-2" d="M294.8,283.1c1,1.9.9,3.9.9,5.9a21.89,21.89,0,0,1-1.1,7.6c-.4,1-.8,1.5-2,1.5-2-.1-4,0-6.2,0a32.94,32.94,0,0,0,1-13.6c1-.7,2.3-.5,3.4-.7C292.2,283.5,293.5,283.4,294.8,283.1Z"/><path class="cls-2" d="M274.1,285.9a20.9,20.9,0,0,1-.3,11.1,1.56,1.56,0,0,1-1.8,1.2c-1.9-.1-3.9-.1-5.8-.1-.9,0-1-.4-.9-1.1a30.84,30.84,0,0,0,0-9.1c1.4-.9,3.1-.8,4.7-1.1A20.1,20.1,0,0,0,274.1,285.9Z"/><path class="cls-2" d="M263.7,288.1a16.79,16.79,0,0,1-.2,8.9,1,1,0,0,1-1.2.9h-6.8a29.48,29.48,0,0,0,1-8.3c.1-.2.3-.5.5-.5C259.4,288.8,261.5,288.1,263.7,288.1Z"/><path class="cls-2" d="M255.1,290a19,19,0,0,1-.8,7.1c-.1.5-.4.6-.8.6h-5.2c-.5,0-.7-.2-.7-.7v-9.3c0-.1.1-.1.2-.2a2.32,2.32,0,0,1,.4,1.8c.1,1.4.1,1.5,1.5,1.3s2.5-.5,3.8-.7A1.36,1.36,0,0,1,255.1,290Z"/><path class="cls-2" d="M246.2,291.7a16.17,16.17,0,0,1-.1,4.9c-.1.6-.3.8-.9.7-1.3-.1-2.5-.2-3.8-.2a1,1,0,0,1-1.1-1.1c-.1-1.6-.1-3.2-.2-4.8C242.2,291.3,244.2,291,246.2,291.7Z"/><path class="cls-2" d="M155.5,192.7c-.3,3.6-.6,7.1-.8,10.7-.1,1.1-.7,1.4-1.7,1.4-2.6,0-3.1-.4-3.7-2.8-1.1-4.1-.8-8.2-.1-12.4C152.3,189.2,154.3,190.2,155.5,192.7Z"/><path class="cls-2" d="M172.1,202c-1.7,0-1.7,0-1.6-1.8.2-2.2.3-4.4.3-6.5,0-.7.1-1,1-.9,2.8.4,2.8.4,2.6,3.2-.1,1.4-.2,2.8-.3,4.1C174,202,174,202,172.1,202Z"/><path class="cls-2" d="M165.1,193.8c-.1,2.1-.3,4.2-.4,6.3,0,.8-.3,1-1.1.9-2.3-.2-2.6-.5-2.3-2.8.2-1.8.3-3.5.4-5.3,0-.9.2-1.4,1.3-1.1.2.1.4,0,.6.1C165,192.1,165.2,192.3,165.1,193.8Z"/><path class="cls-2" d="M169.4,194.5c-.1,1.9-.4,3.9-.4,5.8,0,1.2-.6,1.2-1.5,1.2s-1.5-.4-1.4-1.4c.1-2,.2-4,.4-6,.1-1.7.7-2,2.4-1.6.4.1.6.3.5.7a2.85,2.85,0,0,1,0,1.3Z"/><path class="cls-2" d="M160.1,193.2c-.2,2.2-.4,4.2-.5,6.3,0,.5-.1.9-.7.7s-1.6.2-1.6-.8c.1-2.5.3-4.9.4-7.4,0-.7.6-.6,1-.6.6,0,1.2-.1,1.3.8A1.86,1.86,0,0,1,160.1,193.2Z"/><path class="cls-2" d="M346.6,186.3c.3,3,.7,6.1,1,9.1.1,1.3.2,2.7.4,4a1.86,1.86,0,0,1-1.6,2.2l-1.4.3a1.84,1.84,0,0,1-2.4-1.6c-.6-3.1-1-6.1-1.5-9.2.8-.2.6-1,.7-1.6.5-2,.5-2.1,2.6-2.5C345.2,187,346,187.1,346.6,186.3Z"/><path class="cls-2" d="M324.4,192.3c0-1.9.4-2.3,1.5-2.3a.89.89,0,0,1,1,.8c.3,1.9.7,3.8,1,5.7.1.5.6,1.2-.2,1.4a1.89,1.89,0,0,1-2.2-.5,2,2,0,0,1-.4-.8C324.9,195.1,324.6,193.4,324.4,192.3Z"/><path class="cls-2" d="M331.7,197.3c0,.2.2.8-.7.9s-1.2-.2-1.3-.9c-.4-2.1-.9-4.2-1.3-6.3-.1-.6-.3-1.3.8-1.3.9,0,1.8-.3,2,1.1C331.3,192.9,331.5,194.9,331.7,197.3Z"/><path class="cls-2" d="M335.5,195.9c-.1.8.4,1.8-.8,2-.9.1-1.4,0-1.5-1.1-.1-1.9-.4-3.8-.6-5.7-.1-.7-.1-1.2.9-1.3.8,0,1.5,0,1.6,1.1A40.48,40.48,0,0,0,335.5,195.9Z"/><path class="cls-2" d="M338.4,197.4c-1,.2-1.3-.2-1.4-1.2-.1-1.8-.3-3.7-.5-5.5-.1-1.1.7-.9,1.3-1s1,.1,1.1.8a50.32,50.32,0,0,0,.8,5.6C339.9,197.4,339.5,197.7,338.4,197.4Z"/><path class="cls-1" d="M294.9,244.2a2.8,2.8,0,0,0-3.8-.3,1.81,1.81,0,0,0-.2,1.3,21.78,21.78,0,0,1,.3,9.5,14.62,14.62,0,0,1-.5,2,1.65,1.65,0,0,1-1.9,1.3c-.6-.2-1.5-.8-1.6-1.3a20.86,20.86,0,0,1-.4-5.6,35.83,35.83,0,0,1,1.8-6.4c.3-.9-.1-1.2-.8-1.1a4.37,4.37,0,0,0-1.8.9,6.31,6.31,0,0,0-2.1,4.2c-.3,2.4-.5,4.8-.7,7.3-.1.6-.1,1.3-.8,1.1a1.64,1.64,0,0,1-.7-1.2c.2-2.5.4-4.9.7-7.4a7.54,7.54,0,0,1,3.5-5.8,3.18,3.18,0,0,1,3.5-.2,1.65,1.65,0,0,0,1.2,0c1.8-.7,3.6-1.1,5.3.4.2.2.6.1.8.1,1-.3,2.1-.6,3.1-.8,1.4-.3,2,1,2.7,1.7.9-.3,1.8-.7,2.7-.9,1.3-.3,1.4,1.1,1.9,1.7a15.13,15.13,0,0,1,3.1-1.2c1,0,2,.7,3.2,1.2a3.12,3.12,0,0,1,3.2-1.4c1.2.3,2.2,1.3,3.4,2,1.9-1.8,2.5-1.7,5.5.6,2.3-2.1,4-.6,5.6,1.2,2.5-1.8,3.4-1.5,4.1,1.4a16.39,16.39,0,0,1-1,9.8c-.2.5-.9.7-1.5,1-.1.1-.5-.2-.6-.4a1.18,1.18,0,0,1,.1-.8,16.37,16.37,0,0,0,1.2-2.2,30.92,30.92,0,0,0,.7-5.2,19.85,19.85,0,0,0-.6-3.2c-1.1.3-1.1.9-1.2,1.8a36.3,36.3,0,0,1-.9,6.5,4.12,4.12,0,0,1-1.6,2.1,1.42,1.42,0,0,1-2.4-1,4.52,4.52,0,0,1,.1-2c.7-1.9,1.6-3.6,2.4-5.5.2-.4.3-1.2,0-1.4a5.41,5.41,0,0,0-2.2-1.5c-.6-.1-1.4.4-1.1,1.5,1.1,3.4-.4,6.4-1.6,9.4a2.39,2.39,0,0,1-2.6,1.7c-1.3-.4-1.3-1.7-1.3-2.8a7.75,7.75,0,0,1,.7-3q1.05-2.7,2.4-5.4c.7-1.3-.5-1.6-1.1-2.1a1.94,1.94,0,0,0-1.6.3,2.14,2.14,0,0,0-.7,2.4,14.32,14.32,0,0,1-.4,8.2,2.91,2.91,0,0,1-2.1,2.3c-.9.3-1.7,0-1.8-.9a7.8,7.8,0,0,1,0-3.4c.6-2.2,1.4-4.3,2.2-6.5a2.72,2.72,0,0,0-1.9-3.4,2.33,2.33,0,0,0-2.5,1.6,5,5,0,0,0,.2,1.7,9.4,9.4,0,0,1-.5,7.7,5.37,5.37,0,0,1-2.3,1.9,1.32,1.32,0,0,1-1.9-1.1,5.72,5.72,0,0,1-.1-2.6c.6-2.3,1.3-4.5,2.1-6.7.3-.8.3-1.4-.3-1.8a2.41,2.41,0,0,0-1.8-.4,2.25,2.25,0,0,0-1.6,2.9,15.42,15.42,0,0,1,.1,7.4,3,3,0,0,1-.6,1.4,3.12,3.12,0,0,1-1.8.7c-.4,0-.9-.8-1-1.3a3.42,3.42,0,0,1-.1-2c.4-2.2.9-4.4,1.4-6.6a2.88,2.88,0,0,0-.6-2.7c-.1-.2-.7-.3-.9-.2a4.31,4.31,0,0,0-1.3,1.7c-.2.4.2,1.1.2,1.6.1,2.1.2,4.1.2,6.2a3.23,3.23,0,0,1-1.8,2.7c-1.2.8-2.1.5-2.5-.9a6.28,6.28,0,0,1-.3-1.9,19.92,19.92,0,0,1,1.9-7.9,2.5,2.5,0,0,0-.1-1.7,1.22,1.22,0,0,0-1.7-.7c-.3.1-.6.1-.9.2-.9.2-1.3.6-1.1,1.7a15.88,15.88,0,0,1,.3,7.8,14.76,14.76,0,0,1-1,2.7,2,2,0,0,1-2.3,1.1,1.92,1.92,0,0,1-1.6-1.9,28.31,28.31,0,0,1,.4-5.8A37.92,37.92,0,0,1,294.9,244.2Zm.9,2.4h-.3c-.4,1.4-1,2.8-1.3,4.2a26.73,26.73,0,0,0-.1,4c0,.2.3.6.4.6a1.23,1.23,0,0,0,.8-.4,2.73,2.73,0,0,0,.6-1.2A14.65,14.65,0,0,0,295.8,246.6Zm-6.3.1c-.9,3.2-2.2,6.3-.6,9.7A14.71,14.71,0,0,0,289.5,246.7Zm21.6,9.3c2.1-.6,3-4.7,1.7-7.5C311.8,251,310.8,253.4,311.1,256Zm13.8-7c-.9,2.9-2.8,5.2-2.3,8.5C324.2,256.2,325.7,251,324.9,249Zm-23.2-.9c-.7,2.5-1.3,4.8-.9,7.3C302.4,254.3,302.8,250.8,301.7,248.1Zm15.9,9.1c1.3-.9,2.2-5,1.6-6.8C318.7,252.6,317.2,254.6,317.6,257.2Zm10.8-1c.2.1.3.1.5.2,1.6-1.4,1.4-3.4,1.8-5.1a.6.6,0,0,0-.4-.1C329.7,252.8,329,254.5,328.4,256.2Zm-22.5-.9c.2,0,.5.1.7.1.2-1.5.3-3,.5-4.5a.9.9,0,0,1-.5-.1C306.4,252.4,306.2,253.9,305.9,255.3Z"/><path class="cls-1" d="M171.6,263.8c.4,2.4.9,4.5,1.1,6.8a5.1,5.1,0,0,1-.6,2.7c-.5,1-1.6,1.1-2.4.1a3.26,3.26,0,0,1-.8-1.8c0-2.4.1-4.8.3-7.1.1-.8.2-1.5-.5-1.7a2.06,2.06,0,0,0-2.7,2.1c0,2.3,0,4.5.1,6.8,0,.3.4.7.5,1a4.82,4.82,0,0,1,0,1.2c-.4,0-1,.1-1.3-.1a2.4,2.4,0,0,1-.7-1.2,19.19,19.19,0,0,1-.1-8.6,3.51,3.51,0,0,1,3.2-3,2.26,2.26,0,0,1,2.3.8c.4.6.9.6,1.6.4,1.6-.4,3.2-.6,4.1,1.2,2.1-1.2,2.5-1.1,5.1,1.3,2-2,4.1-1.7,6,.1,2.1-2,2.4-2,5.7,0a3.07,3.07,0,0,1,4-.5,2.22,2.22,0,0,0,2.1.1c2.5-1.1,4.4,0,4.7,2.7a15.17,15.17,0,0,0,.3,2.1c.6,2.1-.2,3.9-1.2,5.6a1.77,1.77,0,0,1-2.3,1c-.3-.1-.5-.5-.6-.8,0-.1.3-.4.5-.6.4-.2,1-.2,1.1-.5a7.11,7.11,0,0,0,1-3,21,21,0,0,0-.5-4.3c-.2-1.1-1.1-1.1-2-1s-1.2.5-1.1,1.5a54.21,54.21,0,0,1-.1,5.7,2.09,2.09,0,0,1-.8,1.6,3.12,3.12,0,0,1-2,.6,1.88,1.88,0,0,1-1-1.5c-.4-2.4.8-4.5,1.5-6.7l.4-.8a5.17,5.17,0,0,0-1.3-.6c-.4-.1-1.1-.1-1.3.2a2.12,2.12,0,0,0-.4,1.4c.2,1.3.6,2.6.7,3.9a7.54,7.54,0,0,1-.7,3.3,2.26,2.26,0,0,1-1.7,1.1c-.5,0-1.2-.8-1.3-1.4-.7-2.2,0-4.3.7-6.4a2.21,2.21,0,0,0-2-2.7c-.8.1-1.3,1.2-1.1,2.2a31.07,31.07,0,0,1,.7,4.4,4.31,4.31,0,0,1-.4,2.3,2.65,2.65,0,0,1-1.8,1.1c-.5,0-1.1-.8-1.3-1.4-.6-2,0-3.9.5-5.8.4-1.3.2-1.7-1.2-2.4a2,2,0,0,0-2.7.6,2,2,0,0,0,0,1.5c.7,2.2,1.3,4.4.1,6.6-.3.5-.8,1.1-1.2,1.1a1.93,1.93,0,0,1-1.4-1.1,6.13,6.13,0,0,1-.4-2.7c.1-1.1.4-2.3.6-3.4a2.77,2.77,0,0,0-1.4-3.2,1.48,1.48,0,0,0-1.3,0,1.25,1.25,0,0,0-.3,1.2c.2,1.5.7,2.9.8,4.3a4.27,4.27,0,0,1-.7,2.6,2.21,2.21,0,0,1-1.8.6c-.4,0-.9-.7-1-1.1a10.42,10.42,0,0,1,.1-6.3c.3-.7.5-1.5-.2-1.9a5.26,5.26,0,0,0-1.8-.4C172.1,263.6,171.8,263.7,171.6,263.8Zm-.7,8.3c.7-1.8,0-3.5-.4-5.2C170.4,268.7,170,270.5,170.9,272.1Zm25.5,1.4c1.1-1.4.8-2.9.8-4.5C196.6,270.5,196,271.9,196.4,273.5Zm-4.5,0h.8c.1-1.4.1-2.8.2-4.2h-.6C192.1,270.7,192,272.1,191.9,273.5Zm-16.2-5.9h-.4c.1,1.3.1,2.6.2,3.9h.5A6.54,6.54,0,0,0,175.7,267.6Zm11.6,2.2h-.5c0,1.1-.1,2.1-.1,3.2h.6C187.4,271.9,187.3,270.8,187.3,269.8Zm-6.7,2.9h.6c0-1,.1-2,.1-3h-.4Z"/><path class="cls-1" d="M302.6,171.6a29.93,29.93,0,0,1-1.2,7.3,7.47,7.47,0,0,1-4,4.7c-2.2,1.1-4.8.2-6.3-2.1A13.54,13.54,0,0,1,289,174a17.21,17.21,0,0,1,1.2-7.4,7,7,0,0,1,5.1-4.5c3.5-.7,6.3,1.2,7,4.8A21.31,21.31,0,0,1,302.6,171.6Z"/><path class="cls-5" d="M300.3,171.1a22.55,22.55,0,0,1-.8,5.8,7.15,7.15,0,0,1-2.3,3.8c-1.5,1.4-2.9,1.3-4.1-.4a13,13,0,0,1-1.8-5.1,16,16,0,0,1,1.1-8.1,4.06,4.06,0,0,1,5-2.9,3.59,3.59,0,0,1,2.5,2.8A11.68,11.68,0,0,1,300.3,171.1Z"/></svg>