<svg id="OBJECTS" xmlns="http://www.w3.org/2000/svg" xmlns:xlink="http://www.w3.org/1999/xlink" viewBox="0 0 519 321.3"><defs><style>.cls-1{fill:none;}.cls-16,.cls-2,.cls-29{fill:#fff;}.cls-2{opacity:0.03;}.cls-17,.cls-2,.cls-29,.cls-5{isolation:isolate;}.cls-3{fill:#41aff9;}.cls-4{fill:#00a4ff;}.cls-5{fill:#ffa53e;}.cls-11,.cls-5{opacity:0.4;}.cls-6{fill:#6ebdff;}.cls-7{fill:#048966;}.cls-8{fill:#00b289;}.cls-9{fill:#59d3b3;}.cls-10{clip-path:url(#clip-path);}.cls-12{fill:#dad0ff;}.cls-13,.cls-17{fill:#b2a7ff;}.cls-14{fill:#9fd8ff;}.cls-15,.cls-29{opacity:0.3;}.cls-17{opacity:0.6;}.cls-18{fill:#1c2a8a;}.cls-19{fill:#f5fafc;}.cls-20{fill:#d8e1ef;}.cls-21{fill:#1c66ef;}.cls-22{fill:#2e76ff;}.cls-23{fill:#1a53d8;}.cls-24{fill:#ebf8ff;}.cls-25{fill:#85daff;}.cls-26{fill:#1756c7;}.cls-27{fill:#c9d6f1;}.cls-28{fill:#2e8dff;}</style><clipPath id="clip-path"><path class="cls-1" d="M339.9,222c0,10.5-33.2,18.9-74.2,18.9s-74.2-8.5-74.2-18.9c-6-13.9-14.7-98.7,74.2-98.7C361.5,123.3,343.6,212.1,339.9,222Z"/></clipPath></defs><title>error-6-green</title><circle class="cls-2" cx="193.4" cy="42.2" r="41.2"/><circle class="cls-2" cx="193.4" cy="42.2" r="20.5"/><circle class="cls-2" cx="193.4" cy="42.2" r="12.4"/><path class="cls-3" d="M197.2,46.5a8,8,0,0,1-8-8,8.5,8.5,0,0,1,2.2-5.6,9.38,9.38,0,1,0,11.3,11.4A8,8,0,0,1,197.2,46.5Z"/><polygon class="cls-3" points="295.3 73.5 296.8 76.2 299.5 77.7 296.8 79.2 295.3 81.9 293.8 79.2 291.1 77.7 293.8 76.2 295.3 73.5"/><polygon class="cls-3" points="235.6 19.3 237.1 22.1 239.9 23.6 237.1 25 235.6 27.8 234.2 25 231.4 23.6 234.2 22.1 235.6 19.3"/><polygon class="cls-3" points="201.5 60 203 62.7 205.7 64.2 203 65.7 201.5 68.4 200 65.7 197.3 64.2 200 62.7 201.5 60"/><polygon class="cls-3" points="310.9 62.1 311.6 63.4 313 64.2 311.6 64.9 310.9 66.3 310.2 64.9 308.8 64.2 310.2 63.4 310.9 62.1"/><polygon class="cls-3" points="404.6 36.1 405.3 37.4 406.7 38.2 405.3 38.9 404.6 40.3 403.8 38.9 402.5 38.2 403.8 37.4 404.6 36.1"/><polygon class="cls-3" points="446.4 113.1 447.2 114.5 448.5 115.2 447.2 116 446.4 117.3 445.7 116 444.3 115.2 445.7 114.5 446.4 113.1"/><polygon class="cls-3" points="364.5 149.6 365.3 151 366.6 151.8 365.3 152.5 364.5 153.9 363.8 152.5 362.4 151.8 363.8 151 364.5 149.6"/><polygon class="cls-3" points="325.8 141.7 326.5 143 327.9 143.8 326.5 144.5 325.8 145.9 325 144.5 323.7 143.8 325 143 325.8 141.7"/><polygon class="cls-3" points="413.5 146.3 414.3 147.7 415.7 148.4 414.3 149.2 413.5 150.5 412.8 149.2 411.4 148.4 412.8 147.7 413.5 146.3"/><polygon class="cls-3" points="144.2 143.8 145 145.1 146.3 145.9 145 146.6 144.2 148 143.5 146.6 142.1 145.9 143.5 145.1 144.2 143.8"/><polygon class="cls-3" points="355 105 355.8 105.8 357.1 106.2 355.8 106.6 355 107.3 354.3 106.6 352.9 106.2 354.3 105.8 355 105"/><polygon class="cls-3" points="280.9 31.7 281.4 32.6 282.3 33.1 281.4 33.6 280.9 34.5 280.4 33.6 279.4 33.1 280.4 32.6 280.9 31.7"/><polygon class="cls-3" points="300.6 17.1 300.9 17.6 301.4 17.9 300.9 18.2 300.6 18.7 300.4 18.2 299.8 17.9 300.4 17.6 300.6 17.1"/><polygon class="cls-3" points="267.1 35.2 267.4 35.7 267.9 36 267.4 36.3 267.1 36.8 266.8 36.3 266.3 36 266.8 35.7 267.1 35.2"/><polygon class="cls-3" points="257.4 18.5 257.7 19.1 258.2 19.3 257.7 19.6 257.4 20.1 257.1 19.6 256.6 19.3 257.1 19.1 257.4 18.5"/><polygon class="cls-3" points="242.7 36.6 243 37.1 243.5 37.4 243 37.7 242.7 38.2 242.4 37.7 241.9 37.4 242.4 37.1 242.7 36.6"/><polygon class="cls-3" points="274.6 67.6 274.9 68.1 275.4 68.4 274.9 68.7 274.6 69.2 274.3 68.7 273.8 68.4 274.3 68.1 274.6 67.6"/><polygon class="cls-3" points="240.6 92.3 240.9 92.8 241.4 93.1 240.9 93.3 240.6 93.9 240.3 93.3 239.8 93.1 240.3 92.8 240.6 92.3"/><polygon class="cls-3" points="255.7 102.8 256 103.3 256.5 103.6 256 103.9 255.7 104.4 255.5 103.9 254.9 103.6 255.5 103.3 255.7 102.8"/><polygon class="cls-3" points="217.4 120.7 217.7 121.2 218.2 121.5 217.7 121.7 217.4 122.3 217.1 121.7 216.6 121.5 217.1 121.2 217.4 120.7"/><polygon class="cls-3" points="135.1 121.5 135.4 122 135.9 122.3 135.4 122.5 135.1 123 134.8 122.5 134.3 122.3 134.8 122 135.1 121.5"/><polygon class="cls-3" points="96.2 127.2 96.5 127.7 97 128 96.5 128.3 96.2 128.8 95.9 128.3 95.4 128 95.9 127.7 96.2 127.2"/><polygon class="cls-3" points="125 138.8 125.3 139.4 125.8 139.6 125.3 139.9 125 140.4 124.7 139.9 124.2 139.6 124.7 139.4 125 138.8"/><polygon class="cls-3" points="186.2 128 186.5 128.5 187 128.8 186.5 129.1 186.2 129.6 185.9 129.1 185.4 128.8 185.9 128.5 186.2 128"/><polygon class="cls-3" points="198.1 138 198.4 138.6 198.9 138.8 198.4 139.1 198.1 139.6 197.8 139.1 197.3 138.8 197.8 138.6 198.1 138"/><polygon class="cls-3" points="388.9 128.8 389.2 129.3 389.7 129.6 389.2 129.9 388.9 130.4 388.6 129.9 388.1 129.6 388.6 129.3 388.9 128.8"/><polygon class="cls-3" points="290.6 121.5 290.9 122 291.4 122.3 290.9 122.5 290.6 123 290.3 122.5 289.8 122.3 290.3 122 290.6 121.5"/><polygon class="cls-3" points="380.8 93.1 381.1 93.6 381.6 93.9 381.1 94.1 380.8 94.7 380.5 94.1 380 93.9 380.5 93.6 380.8 93.1"/><polygon class="cls-3" points="440.3 138 440.6 138.6 441.1 138.8 440.6 139.1 440.3 139.6 440.1 139.1 439.6 138.8 440.1 138.6 440.3 138"/><polygon class="cls-3" points="423 156.3 423.3 156.8 423.8 157.1 423.3 157.4 423 157.9 422.7 157.4 422.2 157.1 422.7 156.8 423 156.3"/><polygon class="cls-3" points="381.6 129.6 381.8 130.1 382.4 130.4 381.8 130.6 381.6 131.2 381.3 130.6 380.8 130.4 381.3 130.1 381.6 129.6"/><polygon class="cls-3" points="352.9 130.4 353.2 130.9 353.7 131.2 353.2 131.4 352.9 132 352.6 131.4 352.1 131.2 352.6 130.9 352.9 130.4"/><polygon class="cls-3" points="357.9 73.5 358.2 74 358.7 74.3 358.2 74.6 357.9 75.1 357.6 74.6 357.1 74.3 357.6 74 357.9 73.5"/><polygon class="cls-3" points="121.1 72.7 121.4 73.2 121.9 73.5 121.4 73.8 121.1 74.3 120.8 73.8 120.3 73.5 120.8 73.2 121.1 72.7"/><polygon class="cls-3" points="173.2 45.4 173.4 45.9 174 46.2 173.4 46.5 173.2 47 172.9 46.5 172.4 46.2 172.9 45.9 173.2 45.4"/><polygon class="cls-3" points="197.3 35.2 197.6 35.7 198.1 36 197.6 36.3 197.3 36.8 197 36.3 196.5 36 197 35.7 197.3 35.2"/><polygon class="cls-3" points="151 16.3 151.3 16.8 151.8 17.1 151.3 17.4 151 17.9 150.7 17.4 150.2 17.1 150.7 16.8 151 16.3"/><polygon class="cls-3" points="222.7 81.1 223 81.7 223.5 81.9 223 82.2 222.7 82.7 222.4 82.2 221.9 81.9 222.4 81.7 222.7 81.1"/><polygon class="cls-3" points="138.7 76.1 139 76.6 139.5 76.9 139 77.2 138.7 77.7 138.5 77.2 137.9 76.9 138.5 76.6 138.7 76.1"/><polygon class="cls-3" points="413.5 55.9 413.8 56.4 414.3 56.7 413.8 57 413.5 57.5 413.3 57 412.7 56.7 413.3 56.4 413.5 55.9"/><polygon class="cls-3" points="434.3 34.4 434.6 34.9 435.1 35.2 434.6 35.5 434.3 36 434 35.5 433.5 35.2 434 34.9 434.3 34.4"/><polygon class="cls-3" points="139.5 27 139.8 27.5 140.3 27.8 139.8 28.1 139.5 28.6 139.3 28.1 138.7 27.8 139.3 27.5 139.5 27"/><polygon class="cls-3" points="216.6 99.9 216.9 100.4 217.4 100.7 216.9 101 216.6 101.5 216.3 101 215.8 100.7 216.3 100.4 216.6 99.9"/><polygon class="cls-3" points="308.8 106.5 309.1 107 309.6 107.3 309.1 107.6 308.8 108.1 308.5 107.6 308 107.3 308.5 107 308.8 106.5"/><polygon class="cls-3" points="327.6 76.9 327.9 77.4 328.4 77.7 327.9 78 327.6 78.5 327.4 78 326.8 77.7 327.4 77.4 327.6 76.9"/><polygon class="cls-3" points="334.7 113.6 335 114.1 335.5 114.4 335 114.7 334.7 115.2 334.4 114.7 333.9 114.4 334.4 114.1 334.7 113.6"/><polygon class="cls-3" points="429.2 138.8 429.5 139.4 430 139.6 429.5 139.9 429.2 140.4 428.9 139.9 428.4 139.6 428.9 139.4 429.2 138.8"/><polygon class="cls-3" points="310.9 34.5 311.4 35.5 312.3 36 311.4 36.5 310.9 37.4 310.4 36.5 309.5 36 310.4 35.5 310.9 34.5"/><polygon class="cls-3" points="435.1 18.7 435.6 19.6 436.6 20.1 435.6 20.6 435.1 21.6 434.6 20.6 433.7 20.1 434.6 19.6 435.1 18.7"/><polygon class="cls-3" points="391.1 71.3 391.6 72.2 392.5 72.7 391.6 73.2 391.1 74.1 390.6 73.2 389.7 72.7 390.6 72.2 391.1 71.3"/><polygon class="cls-3" points="262.6 90.5 263.2 91.4 264.1 91.9 263.2 92.4 262.6 93.4 262.1 92.4 261.2 91.9 262.1 91.4 262.6 90.5"/><polygon class="cls-3" points="179 3.9 179.5 4.8 180.4 5.3 179.5 5.8 179 6.7 178.5 5.8 177.6 5.3 178.5 4.8 179 3.9"/><polygon class="cls-3" points="221.3 39.4 221.8 40.3 222.7 40.8 221.8 41.3 221.3 42.2 220.8 41.3 219.8 40.8 220.8 40.3 221.3 39.4"/><polygon class="cls-3" points="239.1 80.5 239.6 81.4 240.6 81.9 239.6 82.4 239.1 83.4 238.6 82.4 237.7 81.9 238.6 81.4 239.1 80.5"/><polygon class="cls-3" points="250.4 67.8 250.9 68.7 251.9 69.2 250.9 69.7 250.4 70.6 249.9 69.7 249 69.2 249.9 68.7 250.4 67.8"/><polygon class="cls-3" points="168 103.6 168.5 104.5 169.4 105 168.5 105.6 168 106.5 167.5 105.6 166.6 105 167.5 104.5 168 103.6"/><polygon class="cls-3" points="341.4 33.1 341.9 34 342.9 34.5 341.9 35 341.4 36 340.9 35 340 34.5 340.9 34 341.4 33.1"/><polygon class="cls-3" points="287.6 60.6 288.1 61.6 289 62.1 288.1 62.6 287.6 63.5 287.1 62.6 286.2 62.1 287.1 61.6 287.6 60.6"/><path class="cls-4" d="M166.8,199.6h-.2c-7-1.8-10.9-4.6-10.9-7.7,0-5.5,12.5-9.7,28.5-9.7a81.25,81.25,0,0,1,12.4.9c.3.1.6.4.5.7s-.4.6-.7.5a78.6,78.6,0,0,0-12.2-.9c-16.3,0-27.3,4.4-27.3,8.5,0,2.4,3.7,4.8,10,6.5a.79.79,0,0,1,.5.8C167.4,199.4,167.1,199.6,166.8,199.6Z"/><path class="cls-4" d="M184.3,197.9c-8.3,0-17.1-2.1-17.1-6s8.8-6,17.1-6,17.1,2.1,17.1,6S192.5,197.9,184.3,197.9Zm0-10.7c-9.3,0-15.8,2.5-15.8,4.7s6.5,4.7,15.8,4.7,15.8-2.5,15.8-4.7S193.6,187.2,184.3,187.2Z"/><path class="cls-4" d="M185.2,195c-4.3,0-8.8-1.1-8.8-3.1s4.5-3.1,8.8-3.1a.3.3,0,0,1,0,.6c-4.8,0-8.1,1.3-8.1,2.4s3.3,2.4,8.1,2.4a.27.27,0,0,1,.3.3C185.5,194.8,185.3,195,185.2,195Z"/><path class="cls-4" d="M359.1,205.6a119,119,0,0,1-16.1-1,1,1,0,0,1-.8-1.1.94.94,0,0,1,1.1-.8,115.52,115.52,0,0,0,15.8,1c24.6,0,41.2-6.6,41.2-12.8,0-2.3-2.4-4.8-6.7-6.8a1,1,0,1,1,.8-1.8c5.1,2.5,7.8,5.4,7.8,8.6C402.2,199.1,383.2,205.6,359.1,205.6Z"/><path class="cls-4" d="M332.7,202.6h-.2c-10.6-2.8-16.5-6.9-16.5-11.7,0-8.2,18.9-14.7,43.1-14.7a124.87,124.87,0,0,1,18.8,1.4,1,1,0,0,1-.3,1.9,120.84,120.84,0,0,0-18.5-1.4c-24.6,0-41.2,6.6-41.2,12.8,0,3.7,5.6,7.3,15.1,9.8a1,1,0,0,1,.7,1.2A1.2,1.2,0,0,1,332.7,202.6Z"/><path class="cls-4" d="M359.1,199.9c-12.5,0-25.8-3.2-25.8-9.1s13.3-9.1,25.8-9.1,25.8,3.2,25.8,9.1S371.6,199.9,359.1,199.9Zm0-16.2c-14.1,0-23.8,3.8-23.8,7.1s9.8,7.1,23.8,7.1,23.8-3.8,23.8-7.1S373.1,183.7,359.1,183.7Z"/><path class="cls-4" d="M355.2,195.5c-6.4,0-13.3-1.6-13.3-4.6s6.8-4.6,13.3-4.6a.5.5,0,0,1,0,1c-7.2,0-12.3,1.9-12.3,3.7s5,3.7,12.3,3.7a.47.47,0,0,1,.5.5C355.7,195.3,355.4,195.5,355.2,195.5Z"/><path class="cls-4" d="M371.2,192.7c2.2,0,4.6-.6,4.6-1.8s-2.4-1.8-4.6-1.8a.5.5,0,0,0,0,1c2.3,0,3.5.6,3.6.9-.1.2-1.3.8-3.6.8a.47.47,0,0,0-.5.5A.46.46,0,0,0,371.2,192.7Z"/><rect class="cls-5" x="224.59" y="51.61" width="1.2" height="23.4" transform="translate(-8.09 46.08) rotate(-11.48)"/><path class="cls-6" d="M244.1,155.8a.78.78,0,0,1-.6.9h0a.78.78,0,0,1-.9-.6l-21-103.7a.78.78,0,0,1,.6-.9h0a.78.78,0,0,1,.9.6Z"/><circle class="cls-7" cx="221.5" cy="48.3" r="3.8"/><polygon class="cls-7" points="294.9 60.2 295 61.1 226.8 74.1 222.3 52 290.4 38.2 290.6 39.1 288.2 50.1 294.9 60.2"/><path class="cls-7" d="M199.2,150.5V128c-1.7-.2-3.4-.4-5.1-.5s-3.4-.2-5.1-.2-3.1.1-4.6.2-3,.3-4.6.5v22.5H159.7l29.1-54-.1-4.8a26.64,26.64,0,0,0-8.4-4.6,40.81,40.81,0,0,0-9.2-2l-39.8,80.4v4.4l48.5-2.5v19.7c1.7.2,3.4.4,5.1.5s3.4.2,5.1.2,3.1-.1,4.6-.2,3-.3,4.6-.5V167.4h10.1a26.54,26.54,0,0,0,.6-4.2c.1-1.5.2-3,.2-4.4a46,46,0,0,0-.8-8.4H199.2Zm179.1,0H368.2V128c-1.7-.2-3.4-.4-5.1-.5s-3.4-.2-5.1-.2-3.1.1-4.6.2-3,.3-4.6.5v22.5H328.7l29-58.8a26.64,26.64,0,0,0-8.4-4.6,40.81,40.81,0,0,0-9.2-2l-39.8,80.4,1.3,2h47.3v19.7c1.7.2,3.4.4,5.1.5s3.4.2,5.1.2,3.1-.1,4.6-.2,3-.3,4.6-.5V167.5h10.1a26.54,26.54,0,0,0,.6-4.2c.1-1.5.2-3,.2-4.4A40,40,0,0,0,378.3,150.5Z"/><path class="cls-7" d="M357.7,91.8v4.9h-1.9l-2.7-1.2a9.21,9.21,0,0,1-.6-2.4c.1-.5-.5-1.1,0-1.2"/><polygon class="cls-8" points="295 61.1 226.9 74.9 222.5 52.9 290.6 39.1 288.3 51 295 61.1"/><path class="cls-8" d="M199.2,154.5V132c-1.7-.2-3.4-.4-5.1-.5s-3.4-.2-5.1-.2-3.1.1-4.6.2-3,.3-4.6.5v22.5H159.7l29.1-58-.1-.8a26.64,26.64,0,0,0-8.4-4.6,40.81,40.81,0,0,0-9.2-2l-39.8,80.4v.8l48.5,1.1v19.7c1.7.2,3.4.4,5.1.5s3.4.2,5.1.2,3.1-.1,4.6-.2,3-.3,4.6-.5V171.4h10.1a26.54,26.54,0,0,0,.6-4.2c.1-1.5.2-3,.2-4.4a46,46,0,0,0-.8-8.4H199.2Zm179.1,0H368.2V132c-1.7-.2-3.4-.4-5.1-.5s-3.4-.2-5.1-.2-3.1.1-4.6.2-3,.3-4.6.5v22.5H328.7l29-57.8v-.9a26.64,26.64,0,0,0-8.4-4.6,40.81,40.81,0,0,0-9.2-2l-39.8,80.4,1.3,2h47.3v19.7c1.7.2,3.4.4,5.1.5s3.4.2,5.1.2,3.1-.1,4.6-.2,3-.3,4.6-.5V171.6h10.1a26.54,26.54,0,0,0,.6-4.2c.1-1.5.2-3,.2-4.4A38.86,38.86,0,0,0,378.3,154.5Z"/><polygon class="cls-9" points="258.8 68.4 265.4 67.1 282.9 40.6 276.4 41.9 258.8 68.4"/><path class="cls-9" d="M263.6,44.5,242,48.9c-4.3,6.2-10.4,15.7-15.5,23.8l.4,2.2L246,71Z"/><circle class="cls-9" cx="220.5" cy="47" r="1.5"/><circle class="cls-9" cx="221.9" cy="46.4" r="0.7"/><circle class="cls-9" cx="222.7" cy="50" r="0.7"/><path class="cls-9" d="M358.1,132.1c-1.6,0-3.1.1-4.6.2s-3,.3-4.6.5v20.5l19.4-19.4v-1.1c-1.7-.2-3.4-.4-5.1-.5S359.8,132.1,358.1,132.1Z"/><polygon class="cls-9" points="346.8 155.3 328.7 155.3 354.9 102.2 313.6 143.5 300.3 170.4 301.5 172.3 329.8 172.3 346.8 155.3"/><polygon class="cls-9" points="348.8 177.3 370.8 155.3 368.2 155.3 368.2 144.9 340.8 172.3 348.8 172.3 348.8 177.3"/><path class="cls-9" d="M199.2,144.2V132.8c-1.7-.2-3.4-.4-5.1-.5s-3.4-.2-5.1-.2-3.1.1-4.6.2-3,.3-4.6.5v22.5H159.7l16.2-32.9-41.4,41.4-3.3,6.6,1.3,2H171Z"/><path class="cls-9" d="M209.7,157.7a20,20,0,0,0-.4-2.4H199.2v-.1l-19.4,19.4v13Z"/><g class="cls-10"><path class="cls-7" d="M309.4,152l-9.1,18.3,1.3,2h28.3A82.38,82.38,0,0,0,309.4,152Z"/><path class="cls-7" d="M209.3,172.3a26.54,26.54,0,0,0,.6-4.2c.1-1.5.2-3,.2-4.4v-1.8a86.37,86.37,0,0,0-8.6,10.4Z"/><path class="cls-7" d="M191.5,192.7c1,0,2-.1,3-.2,1.5-.1,3-.3,4.6-.5V175.9A84.79,84.79,0,0,0,191.5,192.7Z"/></g><g class="cls-10"><circle class="cls-6" cx="265.7" cy="216.6" r="74.3"/></g><g class="cls-10"><g class="cls-11"><path class="cls-12" d="M203.6,175.8a11.88,11.88,0,0,0,7.8,3,11.42,11.42,0,0,0,9.6-5.1,7.4,7.4,0,0,0,3.6.9,7.7,7.7,0,0,0,0-15.4,7.46,7.46,0,0,0-3.8,1,7.52,7.52,0,0,0-1.5-1.6A73.49,73.49,0,0,0,203.6,175.8Z"/><path class="cls-12" d="M248.1,158.2a6.9,6.9,0,1,0,6.9-6.9A6.91,6.91,0,0,0,248.1,158.2Z"/><path class="cls-12" d="M284.2,202.3a12.72,12.72,0,0,0-12.7-12.7,10.88,10.88,0,0,0-4,.7,29.62,29.62,0,1,0,2.5,24.5A12.5,12.5,0,0,0,284.2,202.3Z"/><path class="cls-12" d="M270.5,227a6.9,6.9,0,1,0,6.9-6.9A6.91,6.91,0,0,0,270.5,227Z"/><path class="cls-12" d="M333.2,234.6a9.92,9.92,0,0,0-9.9-9.9,10.07,10.07,0,0,0-7.3,3.2,15.8,15.8,0,1,0,0,13.4,9.85,9.85,0,0,0,7.2,3.2A10,10,0,0,0,333.2,234.6Z"/><path class="cls-12" d="M307.6,214a6.9,6.9,0,1,0,6.9-6.9A7,7,0,0,0,307.6,214Z"/><path class="cls-12" d="M294.6,148.1a31.13,31.13,0,0,0,22.6,52.5,31.4,31.4,0,0,0,19.3-6.7A75.11,75.11,0,0,0,294.6,148.1Z"/></g></g><g class="cls-10"><path class="cls-13" d="M271.6,190.6a10.49,10.49,0,0,0-4.4.9,28.84,28.84,0,1,0,2.2,22.3,16.35,16.35,0,0,0,2.2.2,11.7,11.7,0,0,0,0-23.4Z"/><circle class="cls-13" cx="255" cy="158.2" r="5.9"/><circle class="cls-13" cx="314.5" cy="214" r="5.9"/><circle class="cls-13" cx="277.4" cy="227" r="5.9"/><path class="cls-13" d="M317.2,199.7a29.62,29.62,0,0,0,18.9-6.7,74.69,74.69,0,0,0-40.6-44.5,29.8,29.8,0,0,0-8.5,21A30.17,30.17,0,0,0,317.2,199.7Z"/><path class="cls-13" d="M323.4,225.7a9,9,0,0,0-7.5,4.1,14.8,14.8,0,1,0,0,9.4,8.78,8.78,0,0,0,7.5,4.1,8.8,8.8,0,1,0,0-17.6Z"/><path class="cls-13" d="M220.8,172.4a6.45,6.45,0,0,0,3.9,1.2,6.7,6.7,0,1,0-4.1-12,9.14,9.14,0,0,0-2-2.4A74.63,74.63,0,0,0,204.2,175a10.63,10.63,0,0,0,7.3,2.9A10.81,10.81,0,0,0,220.8,172.4Z"/></g><g class="cls-10"><path class="cls-3" d="M308.6,214a5.9,5.9,0,1,0,5.9-5.9A5.91,5.91,0,0,0,308.6,214Zm8.6-14.3a29.62,29.62,0,0,0,18.9-6.7,74.69,74.69,0,0,0-40.6-44.5,29.8,29.8,0,0,0-8.5,21A30.17,30.17,0,0,0,317.2,199.7ZM255,164.1a5.9,5.9,0,1,0-5.9-5.9A5.85,5.85,0,0,0,255,164.1Zm16.6,26.5a10.49,10.49,0,0,0-4.4.9,28.84,28.84,0,1,0,2.2,22.3,16.35,16.35,0,0,0,2.2.2,11.7,11.7,0,0,0,0-23.4Zm51.8,35.1a9,9,0,0,0-7.5,4.1,14.8,14.8,0,1,0,0,9.4,8.78,8.78,0,0,0,7.5,4.1,8.8,8.8,0,1,0,0-17.6Zm-46-4.6a5.9,5.9,0,1,0,5.9,5.9A6,6,0,0,0,277.4,221.1Zm-56.6-48.7a6.45,6.45,0,0,0,3.9,1.2,6.7,6.7,0,1,0-4.1-12,9.14,9.14,0,0,0-2-2.4A74.63,74.63,0,0,0,204.2,175a10.63,10.63,0,0,0,7.3,2.9A10.81,10.81,0,0,0,220.8,172.4Z"/></g><g class="cls-10"><g class="cls-11"><path class="cls-13" d="M220.8,172.4a6.45,6.45,0,0,0,3.9,1.2,6.79,6.79,0,0,0,6.8-6.7v-.4a6.78,6.78,0,0,1-6.7,6.4,7.47,7.47,0,0,1-3.9-1.2,10.68,10.68,0,0,1-9.3,5.4,10.32,10.32,0,0,1-6.9-2.6c-.1.2-.2.3-.3.5a10.63,10.63,0,0,0,7.3,2.9A10.74,10.74,0,0,0,220.8,172.4Z"/><path class="cls-13" d="M314.5,220a5.85,5.85,0,0,0,5.9-5.9v-.4a5.91,5.91,0,0,1-11.8,0v.4A5.91,5.91,0,0,0,314.5,220Z"/><path class="cls-13" d="M255,164.1a5.85,5.85,0,0,0,5.9-5.9v-.4a5.91,5.91,0,0,1-11.8,0v.4A5.85,5.85,0,0,0,255,164.1Z"/><path class="cls-13" d="M277.4,232.2a5.9,5.9,0,0,1-5.9-5.5v.4a5.9,5.9,0,0,0,11.8,0v-.4A6,6,0,0,1,277.4,232.2Z"/><path class="cls-13" d="M317.2,198.9A30.22,30.22,0,0,1,287,169.1v.4a30.17,30.17,0,0,0,30.2,30.2,29.62,29.62,0,0,0,18.9-6.7c-.1-.2-.1-.4-.2-.6A29.68,29.68,0,0,1,317.2,198.9Z"/><path class="cls-13" d="M323.4,242.7a9,9,0,0,1-7.5-4.1,14.78,14.78,0,0,1-28.8-4.4v.4a14.78,14.78,0,0,0,28.8,4.7,8.78,8.78,0,0,0,7.5,4.1,8.92,8.92,0,0,0,8.9-8.9v-.4A8.93,8.93,0,0,1,323.4,242.7Z"/><path class="cls-13" d="M271.6,213.3a15,15,0,0,1-2.2-.2,28.79,28.79,0,0,1-56.3-8.1v.4a28.79,28.79,0,0,0,56.3,8.5,16.35,16.35,0,0,0,2.2.2,11.65,11.65,0,0,0,11.7-11.7V202A11.77,11.77,0,0,1,271.6,213.3Z"/></g></g><path class="cls-14" d="M265.7,240.9c-39.1,0-71.2-7.7-74-17.5a74.31,74.31,0,0,0,148,0C336.8,233.2,304.8,240.9,265.7,240.9Z"/><path class="cls-4" d="M223.5,250.5h-.2c-37.6-4.8-61-15.4-61-27.6,0-5.7,5.1-11.1,14.8-15.8a1.19,1.19,0,1,1,1.1,2.1c-8.8,4.2-13.5,9-13.5,13.7,0,10.6,23.7,20.7,58.9,25.2a1.2,1.2,0,0,1,1,1.3A1.27,1.27,0,0,1,223.5,250.5Z"/><path class="cls-4" d="M251.5,252.7h0c-4.7-.2-9.3-.4-13.8-.8a1.2,1.2,0,0,1,.2-2.4c4.5.4,9.1.6,13.7.8a1.2,1.2,0,0,1,1.1,1.2A1.29,1.29,0,0,1,251.5,252.7Z"/><path class="cls-4" d="M265.1,253h-5.9a1.22,1.22,0,0,1-1.2-1.2,1.29,1.29,0,0,1,1.2-1.2h5.9a315.76,315.76,0,0,0,41-2.5,1.16,1.16,0,0,1,.3,2.3A303.11,303.11,0,0,1,265.1,253Z"/><path class="cls-4" d="M329,246.6a1.17,1.17,0,0,1-1.1-.9,1.16,1.16,0,0,1,.9-1.4c23.1-5.3,36.8-13.3,36.8-21.4,0-4.7-4.7-9.5-13.6-13.7a1.3,1.3,0,0,1-.6-1.6,1.17,1.17,0,0,1,1.6-.5c9.7,4.7,14.9,10.1,14.9,15.8,0,9.4-14.1,18-38.7,23.6C329.2,246.6,329.1,246.6,329,246.6Z"/><path class="cls-4" d="M265.1,246.6c-32.6,0-62.4-4.9-77.8-12.7-7.2-3.7-10.8-7.7-10.8-12.1,0-3.6,2.4-7,7.3-10.1a1.15,1.15,0,1,1,1.3,1.9c-4.1,2.7-6.2,5.4-6.2,8.2,0,3.4,3.3,6.9,9.5,10.1,15.1,7.7,44.5,12.5,76.7,12.5a282.67,282.67,0,0,0,48-3.9,1.18,1.18,0,0,1,.5,2.3A301.17,301.17,0,0,1,265.1,246.6Z"/><path class="cls-4" d="M339.5,207.9c.1.9.2,1.8.3,2.8,7.5,3.4,11.6,7.3,11.6,11,0,5.6-8.9,11.3-24.5,15.5a1.14,1.14,0,0,0-.8,1.4,1.17,1.17,0,0,0,1.1.9h.3c9.8-2.7,26.2-8.5,26.2-17.8C353.7,216.3,348.3,211.7,339.5,207.9Z"/><path class="cls-4" d="M183.1,202.3c3.3-1.1,6.7-2,10.3-3a26.81,26.81,0,0,1,.7-2.7c-28.5,7-46.7,18.3-46.7,31.2,0,6.5,4.5,12.6,13.3,18.2a1.42,1.42,0,0,0,.6.2,1.23,1.23,0,0,0,1-.5,1.16,1.16,0,0,0-.4-1.6c-8-5-12.2-10.6-12.2-16.2C149.8,218.4,161.9,209.1,183.1,202.3Z"/><path class="cls-4" d="M265.1,266.7c-26.9,0-53.2-3-74-8.5a1.14,1.14,0,0,1,.6-2.2c20.6,5.5,46.7,8.5,73.4,8.5,3,0,6.1,0,9.1-.1h0a1.15,1.15,0,1,1,.1,2.3Z"/><path class="cls-4" d="M291.4,265.7a1.2,1.2,0,0,1-.1-2.4c51.7-3.8,89.2-18.8,89.2-35.6q0-6.45-7.2-12.6a1.13,1.13,0,0,1,1.5-1.7c5.3,4.5,8.1,9.4,8.1,14.4-.1,18.3-37.7,33.9-91.5,37.9Z"/><circle class="cls-4" cx="333.2" cy="288.2" r="2.7"/><circle class="cls-4" cx="351" cy="266.7" r="2.7"/><circle class="cls-4" cx="277.3" cy="278.4" r="2.7"/><circle class="cls-4" cx="214" cy="255.9" r="2.7"/><circle class="cls-4" cx="182.6" cy="250.6" r="2.7"/><circle class="cls-4" cx="280.6" cy="293.5" r="2.7"/><circle class="cls-4" cx="367.8" cy="257.8" r="1"/><circle class="cls-4" cx="398" cy="214.2" r="1"/><circle class="cls-4" cx="158.3" cy="204.3" r="1"/><circle class="cls-4" cx="106.6" cy="223.7" r="1"/><circle class="cls-4" cx="337.2" cy="247.1" r="1"/><circle class="cls-4" cx="351.5" cy="233.5" r="1"/><circle class="cls-4" cx="175.8" cy="266.7" r="1"/><circle class="cls-4" cx="198.2" cy="277.4" r="1"/><circle class="cls-4" cx="242.2" cy="275.3" r="1"/><circle class="cls-4" cx="222.6" cy="274.3" r="1"/><circle class="cls-4" cx="391.6" cy="246.6" r="2.7"/><circle class="cls-4" cx="329" cy="273.2" r="2.7"/><circle class="cls-4" cx="378.9" cy="208.3" r="1.5"/><circle class="cls-4" cx="381.1" cy="249.6" r="1.5"/><circle class="cls-4" cx="145.5" cy="265.7" r="1.5"/><circle class="cls-4" cx="129.2" cy="246.1" r="1.5"/><circle class="cls-4" cx="146" cy="209.6" r="1.5"/><circle class="cls-4" cx="144.6" cy="223.7" r="1.5"/><path class="cls-4" d="M393.7,305.7a146.11,146.11,0,0,1-19.1-1.2,1.16,1.16,0,0,1,.3-2.3,142.59,142.59,0,0,0,18.8,1.2c29.3,0,49-7.9,49-15.2,0-2.8-2.8-5.7-8-8.1a1.12,1.12,0,0,1,1-2c6.1,2.9,9.3,6.4,9.3,10.2C444.9,298,422.4,305.7,393.7,305.7Z"/><path class="cls-4" d="M362.3,302.1H362c-12.6-3.3-19.6-8.2-19.6-13.9,0-9.8,22.5-17.5,51.3-17.5a143.2,143.2,0,0,1,22.3,1.7,1.12,1.12,0,1,1-.4,2.2,140.24,140.24,0,0,0-22-1.7c-29.3,0-49,7.9-49,15.2,0,4.4,6.7,8.7,17.9,11.6a1.14,1.14,0,0,1,.8,1.4A1,1,0,0,1,362.3,302.1Z"/><path class="cls-4" d="M393.7,298.9c-14.9,0-30.6-3.8-30.6-10.8s15.8-10.8,30.6-10.8,30.6,3.8,30.6,10.8S408.5,298.9,393.7,298.9Zm0-19.2c-16.7,0-28.4,4.5-28.4,8.5s11.6,8.5,28.4,8.5,28.3-4.5,28.3-8.5S410.4,279.7,393.7,279.7Z"/><path class="cls-4" d="M395.2,293.7c-7.6,0-15.8-1.9-15.8-5.5s8.1-5.5,15.8-5.5a.6.6,0,0,1,0,1.2c-8.6,0-14.6,2.3-14.6,4.4s6,4.4,14.6,4.4a.65.65,0,0,1,.6.6A.59.59,0,0,1,395.2,293.7Z"/><path class="cls-4" d="M395.2,290.3a.6.6,0,0,1,0-1.2c2.8,0,4.2-.7,4.3-1-.1-.3-1.5-1-4.3-1a.6.6,0,0,1,0-1.2c2.6,0,5.4.7,5.4,2.2S397.8,290.3,395.2,290.3Z"/><path class="cls-4" d="M395.2,290.3c-2.6,0-5.4-.7-5.4-2.2s2.8-2.2,5.4-2.2a.6.6,0,1,1,0,1.2c-2.8,0-4.2.7-4.3,1,.1.3,1.5,1,4.3,1a.65.65,0,0,1,.6.6A.53.53,0,0,1,395.2,290.3Z"/><path class="cls-4" d="M207.4,290.2a94.57,94.57,0,0,1-12.1-.8c-.4-.1-.7-.4-.6-.8s.4-.7.8-.6a91.43,91.43,0,0,0,11.9.8c18.5,0,30.9-5,30.9-9.6,0-1.7-1.8-3.6-5-5.1a.74.74,0,0,1,.7-1.3c3.8,1.8,5.8,4.1,5.8,6.4C239.7,285.4,225.5,290.2,207.4,290.2Z"/><path class="cls-4" d="M187.6,287.9h-.2c-8-2.1-12.4-5.2-12.4-8.7,0-6.2,14.2-11,32.4-11a90.58,90.58,0,0,1,14.1,1.1c.4.1.7.4.6.8s-.4.7-.8.6a87,87,0,0,0-13.9-1.1c-18.5,0-30.9,5-30.9,9.6,0,2.7,4.2,5.5,11.3,7.3a.72.72,0,0,1,.5.9A.75.75,0,0,1,187.6,287.9Z"/><path class="cls-4" d="M207.4,286c-9.4,0-19.3-2.4-19.3-6.8s10-6.8,19.3-6.8,19.3,2.4,19.3,6.8S216.7,286,207.4,286Zm0-12.2c-10.5,0-17.9,2.8-17.9,5.3s7.3,5.3,17.9,5.3,17.9-2.8,17.9-5.3S217.9,273.8,207.4,273.8Z"/><path class="cls-4" d="M208.4,282.7c-4.8,0-9.9-1.2-9.9-3.5s5.1-3.5,9.9-3.5a.4.4,0,0,1,0,.8c-5.4,0-9.2,1.5-9.2,2.8s3.8,2.8,9.2,2.8a.43.43,0,0,1,.4.4C208.7,282.5,208.6,282.7,208.4,282.7Z"/><path class="cls-4" d="M208.4,280.5a.4.4,0,0,1,0-.8,4.85,4.85,0,0,0,2.7-.6c0-.2-1-.6-2.7-.6a.4.4,0,0,1,0-.8c1.6,0,3.4.4,3.4,1.4S210,280.5,208.4,280.5Z"/><path class="cls-4" d="M208.4,280.5c-1.6,0-3.4-.4-3.4-1.4s1.8-1.4,3.4-1.4a.4.4,0,0,1,0,.8,4.85,4.85,0,0,0-2.7.6c.1.2,1,.6,2.7.6a.43.43,0,0,1,.4.4C208.7,280.4,208.6,280.5,208.4,280.5Z"/><path class="cls-4" d="M118.8,233a38.14,38.14,0,0,1-5.9-.4c-.2,0-.3-.2-.3-.4s.2-.3.4-.3a54.62,54.62,0,0,0,5.8.4c9.1,0,15.2-2.4,15.2-4.7,0-.9-.9-1.8-2.5-2.5a.38.38,0,0,1,.3-.7c1.9.9,2.9,2,2.9,3.2C134.6,230.6,127.7,233,118.8,233Z"/><path class="cls-4" d="M109.1,231.9h0c-4-1-6.2-2.6-6.2-4.3,0-3,7-5.4,15.9-5.4a49.73,49.73,0,0,1,6.9.5c.2,0,.3.2.3.4s-.2.3-.4.3a48.26,48.26,0,0,0-6.8-.5c-9.1,0-15.2,2.4-15.2,4.7,0,1.3,2.1,2.7,5.5,3.6.2,0,.3.2.3.4A.32.32,0,0,1,109.1,231.9Z"/><path class="cls-4" d="M118.8,230.9c-4.6,0-9.5-1.2-9.5-3.3s4.9-3.3,9.5-3.3,9.5,1.2,9.5,3.3S123.4,230.9,118.8,230.9Zm0-5.9c-5.2,0-8.8,1.4-8.8,2.6s3.6,2.6,8.8,2.6,8.8-1.4,8.8-2.6S124,225,118.8,225Z"/><path class="cls-4" d="M119.3,229.3c-2.4,0-4.9-.6-4.9-1.7s2.5-1.7,4.9-1.7a.2.2,0,1,1,0,.4c-2.7,0-4.5.7-4.5,1.4s1.9,1.4,4.5,1.4a.22.22,0,0,1,.2.2C119.4,229.2,119.4,229.3,119.3,229.3Z"/><path class="cls-4" d="M119.3,228.3a.2.2,0,1,1,0-.4c.9,0,1.3-.2,1.3-.3s-.5-.3-1.3-.3a.2.2,0,1,1,0-.4c.8,0,1.7.2,1.7.7S120.1,228.3,119.3,228.3Z"/><path class="cls-4" d="M119.3,228.3c-.8,0-1.7-.2-1.7-.7s.9-.7,1.7-.7a.2.2,0,1,1,0,.4c-.9,0-1.3.2-1.3.3s.5.3,1.3.3a.22.22,0,0,1,.2.2C119.4,228.2,119.4,228.3,119.3,228.3Z"/><g class="cls-15"><path class="cls-16" d="M307.3,162.5c15.4,12.8,25.5,29.3,26.5,49.6.5,9.2-13.8,9.2-14.3,0-.8-16.6-9.8-29.2-22.3-39.5-7.1-5.9,3.1-16,10.1-10.1Z"/></g><g class="cls-15"><path class="cls-16" d="M284.8,164.4a10.93,10.93,0,0,0-1.5-.8c-.7-.3-.7-.3.2,0-.3-.1-.7-.3-1-.4-1.4-.5-2.7-.9-4.1-1.4-3.7-1.3-6.1-4.8-5-8.8,1-3.5,5.1-6.3,8.8-5,3.4,1.2,6.8,2.2,9.9,4a7.19,7.19,0,1,1-7.3,12.4Z"/></g><g class="cls-15"><path class="cls-16" d="M210.7,214.9c-.1-.6-.1-1.1-.2-1.7v-.9c.1-1.4.2-2.9.3-4.3.2-3.9-2.1-7.5-6.2-8-3.6-.5-7.8,2.3-8,6.2-.2,3.6-.7,7.1-.2,10.7a7.18,7.18,0,0,0,8,6.2,7.57,7.57,0,0,0,6.3-8.2Z"/></g><polygon class="cls-3" points="22 83.4 23 85.2 24.7 86.1 23 87.1 22 88.8 21.1 87.1 19.4 86.1 21.1 85.2 22 83.4"/><path class="cls-17" d="M280.2,145.5c0-.8-1-1.5-2.8-2.1l.1-.1c-.2,0-.4-.1-.6-.1a42.07,42.07,0,0,0-11.9-1.4c-5.5,0-10.3.7-13,1.8-1.6.3-3.3.7-4.9,1.1a20.67,20.67,0,0,0-1.1,5c-.9.2-1.4.5-1.4.9l-.4,6.5a14.53,14.53,0,0,0-1.8,6.5s-.2.9,1.4,1.2a11.89,11.89,0,0,0,10.7-4.5l.6-9.2c0-.4-.5-.7-1.3-1,.1-.8.2-1.5.3-2a40.31,40.31,0,0,0,7.1,1c0,.5-.1,1.1-.1,1.7-.8.3-1.3.7-1.3,1.1l.3,6.5a14.67,14.67,0,0,0-1.1,6.7s0,1,1.5,1.1a11.81,11.81,0,0,0,10.2-5.6l-.4-9.2c0-.4-.5-.7-1.4-.9v-1.3C275.4,148.6,280.2,147.2,280.2,145.5Z"/><path class="cls-4" d="M281.7,135.2A10.71,10.71,0,0,1,271,145.9h0a10.71,10.71,0,0,1-10.7-10.7v-9.6A10.71,10.71,0,0,1,271,114.9h0a10.71,10.71,0,0,1,10.7,10.7Z"/><path class="cls-18" d="M281.7,131.2v-5.6a14.92,14.92,0,0,0-.2-2.1,5,5,0,0,0-.4,1.3,18.43,18.43,0,0,1-3.9,2.8,3.19,3.19,0,0,0,.3-1.4,1.7,1.7,0,0,0-.1-.7,12.37,12.37,0,0,0,3.5-3.7,10.7,10.7,0,0,0-20.7,3.8v9.6a10.73,10.73,0,0,0,10.1,10.7,4.82,4.82,0,0,1,.8-1.2c.2-.1.4-.3.6-.4s.1-.1.2-.1a10.7,10.7,0,0,0,1.6-1.4l.2-.2c.1-.1.2-.3.4-.4a1.38,1.38,0,0,0,.3-.4c.1-.1.2-.3.3-.4a5.58,5.58,0,0,0,.5-.8c.1-.1.1-.2.2-.4l.3-.6c.1-.1.1-.2.2-.4s.2-.5.3-.7a.35.35,0,0,1,.1-.2c.1-.3.2-.6.3-1a.37.37,0,0,1,.1-.3c0-.3.1-.5.1-.8v-.3c0-.4.1-.7.1-1.1v-1.1a15.33,15.33,0,0,0,3.7-1.6C280.7,131.8,281.2,131.5,281.7,131.2Z"/><path class="cls-19" d="M249.5,133.2a31.48,31.48,0,0,1-10.9-2.3,2.73,2.73,0,0,1,2.2-5c2.1.9,8.3,2.9,12.5,1.2a2.69,2.69,0,0,1,2,5A14.26,14.26,0,0,1,249.5,133.2Z"/><path class="cls-20" d="M250.7,133.1a15.19,15.19,0,0,0,4.7-1,2.94,2.94,0,0,0,1.5-1.4l.2-1.6c0-.2-.1-.3-.1-.5s-.1-.1-.1-.2l-1-1.1a2.87,2.87,0,0,0-2.4-.2,11,11,0,0,1-2.6.6C251.2,128.5,252.4,131.1,250.7,133.1Z"/><path class="cls-21" d="M245.7,130.5a3.55,3.55,0,0,1-4.5,2.3l-3.8-1.1a3.55,3.55,0,0,1-2.3-4.5h0a3.55,3.55,0,0,1,4.5-2.3l3.8,1.1a3.55,3.55,0,0,1,2.3,4.5Z"/><path class="cls-22" d="M240.4,123.5a3.23,3.23,0,0,1,.9,4.5l-1.7,2.5a3.23,3.23,0,0,1-4.5.9l-2.5-1.7a3.23,3.23,0,0,1-.9-4.5l1.7-2.5a3.23,3.23,0,0,1,4.5-.9Z"/><path class="cls-22" d="M232.6,126.1a1.43,1.43,0,0,1,.8,2h0a1.43,1.43,0,0,1-2,.8l-4.2-1.7a1.43,1.43,0,0,1-.8-2h0a1.43,1.43,0,0,1,2-.8Z"/><path class="cls-22" d="M234.6,123.5a1.57,1.57,0,0,0,2.2,0h0a1.57,1.57,0,0,0,0-2.2l-3.2-3.2a1.57,1.57,0,0,0-2.2,0h0a1.57,1.57,0,0,0,0,2.2Z"/><path class="cls-22" d="M233.9,123.2a1.48,1.48,0,0,1,.4,2.1h0a1.48,1.48,0,0,1-2.1.4l-3.7-2.5a1.48,1.48,0,0,1-.4-2.1h0a1.48,1.48,0,0,1,2.1-.4Z"/><path class="cls-22" d="M241.7,127.5a1.6,1.6,0,0,1-2.2.5,1.64,1.64,0,0,1-.7-2.2,4.28,4.28,0,0,0-.4-4.6,1.65,1.65,0,0,1,2.7-1.9c.1.2,2.8,4,.6,8.1Z"/><path class="cls-21" d="M237.3,128.9a.51.51,0,0,1-.5-.4c-1.3-4,1.2-5.9,1.3-5.9a.57.57,0,0,1,.7.9h0c-.1.1-2,1.5-.9,4.7a.61.61,0,0,1-.3.7Z"/><path class="cls-21" d="M235,128.2a.37.37,0,0,1-.3-.1.61.61,0,0,1-.1-.8,3.42,3.42,0,0,1,2.4-1,.55.55,0,1,1-.1,1.1,2.19,2.19,0,0,0-1.5.6C235.4,128.1,235.2,128.2,235,128.2Z"/><path class="cls-21" d="M231.6,127.2h-.1c-.3-.1-.5-.3-.4-.6a8.31,8.31,0,0,1,2.9-5c.1-.1.1-.1.2-.1s.2-.3.4-.3a.57.57,0,0,1,.7.4c.1.4-.2.6-.5.9a7,7,0,0,0-2.5,4.4A1.08,1.08,0,0,1,231.6,127.2Z"/><path class="cls-22" d="M244.3,146.9l-1.1,6.4a15.38,15.38,0,0,0-2.6,6.3s-.3.9,1.2,1.4a11.83,11.83,0,0,0,11.1-3.2l1.6-9-1.5.5-1.9-.2-3.8-.9-2.3-1Z"/><ellipse class="cls-23" cx="249.4" cy="147.8" rx="1.5" ry="5.2" transform="translate(60.28 367.52) rotate(-79.93)"/><path class="cls-24" d="M254.6,135.5a3.92,3.92,0,0,0-1.8.4h0c-.6.3-5.7,2.7-7.2,11.1h0c-.1.5,1.5,1.2,3.6,1.6s3.9.3,4-.2h0c.6-3.9,2-5.2,2.5-5.6a3.85,3.85,0,0,0,2.4-3.3A3.66,3.66,0,0,0,254.6,135.5Z"/><path class="cls-20" d="M256.1,139.5l-.9-1.8-3.2-1.4h0a10.58,10.58,0,0,0,2.6,7.8,3.94,3.94,0,0,1,1.1-1.3,3.76,3.76,0,0,0,1.8-1.5Z"/><ellipse class="cls-23" cx="250.11" cy="141.72" rx="3" ry="2.2" transform="translate(-0.26 282.98) rotate(-58.97)"/><ellipse class="cls-4" cx="249.49" cy="141.3" rx="1.6" ry="1.2" transform="translate(-0.29 282.1) rotate(-58.94)"/><ellipse class="cls-25" cx="249.22" cy="140.92" rx="0.7" ry="0.6" transform="translate(-0.12 281.63) rotate(-58.92)"/><path class="cls-26" d="M249.5,156.5c-.2,1.4.5,2.4,1.5,2.2s1.9-1.5,2.1-3-.5-2.4-1.5-2.2S249.7,155.1,249.5,156.5Z"/><path class="cls-24" d="M249.9,156.4c-.1,1.1.4,1.9,1.1,1.7a2.59,2.59,0,0,0,1.6-2.3c.1-1.1-.4-1.9-1.1-1.7A3,3,0,0,0,249.9,156.4Z"/><path class="cls-22" d="M250.3,156.4c-.1.8.3,1.4.8,1.3s1.1-.9,1.2-1.7-.3-1.4-.8-1.3S250.4,155.6,250.3,156.4Z"/><path class="cls-4" d="M250.7,156.3c-.1.5.2.8.5.7a1.32,1.32,0,0,0,.7-1c.1-.5-.2-.8-.5-.7A1.32,1.32,0,0,0,250.7,156.3Z"/><path class="cls-16" d="M275.5,134.8a11.82,11.82,0,0,1-11.8,11.8h0a11.82,11.82,0,0,1-11.8-11.8V124.3a11.82,11.82,0,0,1,11.8-11.8h0a11.82,11.82,0,0,1,11.8,11.8Z"/><path class="cls-20" d="M259.4,145.7a11.5,11.5,0,0,0,4.1.8,3.36,3.36,0,0,0,1.5-1.2l1.6-2.6.8-1.8,1.3-1.2-1.4-2.1S261.4,138.5,259.4,145.7Z"/><path class="cls-24" d="M263.7,112.5a15.46,15.46,0,0,0-3.1.4,11.7,11.7,0,0,1,8.6,11.3v10.5a11.49,11.49,0,0,1-2.8,7.6,3.86,3.86,0,0,1,1.5,1.6,4.42,4.42,0,0,1,.6,1.6,11.71,11.71,0,0,0,6.9-10.7V124.3A11.61,11.61,0,0,0,263.7,112.5Z"/><circle class="cls-24" cx="269.6" cy="130.4" r="2.2"/><circle class="cls-24" cx="269.6" cy="132.7" r="1.1"/><path class="cls-27" d="M284,107.7c-1.7,7.8-11.7,12.3-19.5,10.6l-7.3-1.6a14.59,14.59,0,0,1-11.1-17.3h0a14.59,14.59,0,0,1,17.3-11.1l9.1,2A14.88,14.88,0,0,1,284,107.7Z"/><path class="cls-25" d="M276.4,126.2a3.4,3.4,0,0,1-3.5,3.4H254.4a3.46,3.46,0,0,1-3.5-3.4h0a3.48,3.48,0,0,1,3.5-3.5H273a3.46,3.46,0,0,1,3.4,3.5Z"/><path class="cls-23" d="M273,122.7H254.5a3.48,3.48,0,0,0-3.5,3.5v.3c.2,0,.4.1.6.1l13.4,1.9a14.19,14.19,0,0,0,11.3-3.3A3.54,3.54,0,0,0,273,122.7Z"/><path class="cls-16" d="M282,116.9a14.37,14.37,0,0,1-17.1,11L251.7,125a14.37,14.37,0,0,1-11-17.1l1.8-8.1a14.37,14.37,0,0,1,17.1-11l13.2,2.9a14.37,14.37,0,0,1,11,17.1Z"/><path class="cls-27" d="M256.4,88.5,272,91.9l-1.5-2.1-7-1.5A15.37,15.37,0,0,0,256.4,88.5Z"/><path class="cls-27" d="M271.6,91.4l-11.9-2.6a14.32,14.32,0,0,0-17.1,11l-1.8,8.1a14.3,14.3,0,0,0,1.8,10.6c.1,0,.1,0,.2.1l9.9,2.2a18.7,18.7,0,0,0,22.2-14.2A19,19,0,0,0,271.6,91.4Z"/><path class="cls-22" d="M269.6,91l-10-2.2a14.32,14.32,0,0,0-17.1,11l-1.8,8.1a14.05,14.05,0,0,0,1,9.1,5,5,0,0,0,1.3.3l9.9,2.2a17.32,17.32,0,0,0,20.7-13.3A17,17,0,0,0,269.6,91Z"/><path class="cls-28" d="M273.6,106.2c.1-.6.2-1.3.3-1.9l-23,14.8,2,.4a14.64,14.64,0,0,0,5.1.3l13.8-8.8A14.5,14.5,0,0,0,273.6,106.2Z"/><path class="cls-28" d="M269.6,91l-1.8-.4L240.7,108a14.42,14.42,0,0,0,1,9,5,5,0,0,0,1.3.3l1.3.3,29.3-18.8A16.66,16.66,0,0,0,269.6,91Z"/><polygon class="cls-28" points="241.4 105 264.8 89.9 261.6 89.2 242.1 101.8 241.4 105"/><circle class="cls-16" cx="270.4" cy="113.4" r="7.8"/><circle class="cls-27" cx="270.4" cy="113.4" r="7"/><circle class="cls-25" cx="270.4" cy="113.4" r="4.9"/><circle class="cls-22" cx="270.4" cy="113.4" r="3.2"/><circle class="cls-23" cx="270.4" cy="113.4" r="1.9"/><path class="cls-25" d="M258,123.5a.75.75,0,0,1-.7.5l-3.2-.7a.75.75,0,0,1-.5-.7h0a.75.75,0,0,1,.7-.5l3.2.7a.75.75,0,0,1,.5.7Z"/><path class="cls-25" d="M260.9,124.2a.75.75,0,0,1-.7.5l-.3-.1a.75.75,0,0,1-.5-.7h0a.75.75,0,0,1,.7-.5l.3.1a.51.51,0,0,1,.5.7Z"/><path class="cls-25" d="M261.3,122.4a.75.75,0,0,1-.7.5l-.3-.1a.75.75,0,0,1-.5-.7h0a.75.75,0,0,1,.7-.5l.3.1a.75.75,0,0,1,.5.7Z"/><path class="cls-25" d="M263.1,122.8a.75.75,0,0,1-.7.5l-.3-.1a.75.75,0,0,1-.5-.7h0a.75.75,0,0,1,.7-.5l.3.1a.75.75,0,0,1,.5.7Z"/><path class="cls-25" d="M262.7,124.6a.75.75,0,0,1-.7.5l-.3-.1a.75.75,0,0,1-.5-.7h0a.75.75,0,0,1,.7-.5l.3.1a.51.51,0,0,1,.5.7Z"/><path class="cls-29" d="M249.1,98.1a2,2,0,0,1-2.3,1.5h0a2,2,0,0,1-1.5-2.3l.4-1.9a2,2,0,0,1,2.3-1.5h0a2,2,0,0,1,1.5,2.3Z"/><path class="cls-29" d="M246.4,110.5a2,2,0,0,1-2.3,1.5h0a2,2,0,0,1-1.5-2.3l1.5-7a2,2,0,0,1,2.3-1.5h0a2,2,0,0,1,1.5,2.3Z"/><path class="cls-22" d="M259.2,149.9l-.4,6.5a15.4,15.4,0,0,0-1.9,6.5s-.2.9,1.4,1.2a11.67,11.67,0,0,0,10.7-4.4l.6-9.2-1.4.7h-1.9l-3.9-.4L260,150Z"/><ellipse class="cls-23" cx="264.39" cy="150.3" rx="1.5" ry="5.2" transform="translate(96.22 403.7) rotate(-86.05)"/><path class="cls-24" d="M268.2,137.4a2.72,2.72,0,0,0-1.7.6h0c-.6.3-5.4,3.2-6,11.8h0c0,.5,1.7,1.1,3.8,1.2s3.9-.2,3.9-.7h0c.2-3.9,1.4-5.4,1.9-5.8a3.92,3.92,0,0,0,2.1-3.5A3.8,3.8,0,0,0,268.2,137.4Z"/><path class="cls-16" d="M266.8,150.2a.32.32,0,0,1-.3-.3c0-.2,0-5.7,4.1-8.4.1-.1.3,0,.4.1s0,.3-.1.4c-3.8,2.5-3.8,7.9-3.8,8S266.9,150.2,266.8,150.2Z"/><ellipse class="cls-23" cx="264.4" cy="144.1" rx="3" ry="2.2" transform="translate(22.28 323.13) rotate(-65.07)"/><ellipse class="cls-4" cx="263.78" cy="143.81" rx="1.6" ry="1.2" transform="translate(22.2 322.42) rotate(-65.08)"/><ellipse class="cls-25" cx="263.47" cy="143.53" rx="0.7" ry="0.6" transform="translate(22.2 321.87) rotate(-65.05)"/><path class="cls-26" d="M265.4,158.9c0,1.4.7,2.4,1.7,2.1s1.8-1.7,1.8-3.2-.7-2.4-1.7-2.1S265.4,157.5,265.4,158.9Z"/><path class="cls-24" d="M265.8,158.8c0,1.1.6,1.8,1.3,1.6s1.3-1.3,1.4-2.4-.6-1.8-1.3-1.6A2.6,2.6,0,0,0,265.8,158.8Z"/><path class="cls-22" d="M266.2,158.7c0,.8.4,1.3,1,1.2a2.06,2.06,0,0,0,1-1.8c0-.8-.4-1.3-1-1.2A1.87,1.87,0,0,0,266.2,158.7Z"/><path class="cls-4" d="M266.6,158.5c0,.5.2.8.6.7a1.17,1.17,0,0,0,.6-1c0-.5-.2-.8-.6-.7A1.17,1.17,0,0,0,266.6,158.5Z"/><path class="cls-16" d="M279.2,132.1a32.59,32.59,0,0,0,8.3-7.4,2.72,2.72,0,1,0-4.4-3.2c-1.3,1.8-5.8,6.6-10.3,7.3a2.73,2.73,0,1,0,.8,5.4A18,18,0,0,0,279.2,132.1Z"/><path class="cls-21" d="M281.1,127.8a3.63,3.63,0,0,0,5.1-.3l2.7-2.9a3.63,3.63,0,0,0-.3-5.1h0a3.63,3.63,0,0,0-5.1.3l-2.7,2.9a3.72,3.72,0,0,0,.3,5.1Z"/><path class="cls-22" d="M282.3,119.2a3.28,3.28,0,0,0,1.4,4.4l2.7,1.4a3.28,3.28,0,0,0,4.4-1.4l1.4-2.7a3.28,3.28,0,0,0-1.4-4.4l-2.7-1.4a3.28,3.28,0,0,0-4.4,1.4Z"/><path class="cls-22" d="M290.4,117.6a1.59,1.59,0,0,0,.3,2.2h0a1.59,1.59,0,0,0,2.2-.3l2.8-3.5a1.59,1.59,0,0,0-.3-2.2h0a1.59,1.59,0,0,0-2.2.3Z"/><path class="cls-22" d="M287.3,116.3a1.46,1.46,0,0,1-1.9,1h0a1.46,1.46,0,0,1-1-1.9l1.2-4.3a1.46,1.46,0,0,1,1.9-1h0a1.46,1.46,0,0,1,1,1.9Z"/><path class="cls-22" d="M287.7,115.6a1.53,1.53,0,0,0,.7,2.1h0a1.53,1.53,0,0,0,2.1-.7l2-4a1.53,1.53,0,0,0-.7-2.1h0a1.53,1.53,0,0,0-2.1.7Z"/><path class="cls-22" d="M283.1,123.2a1.58,1.58,0,0,0,2.1-.6,1.73,1.73,0,0,0-.5-2.3,4.88,4.88,0,0,1-2-4.2,1.66,1.66,0,0,0-3.3-.3c0,.2-.4,4.9,3.5,7.3Z"/><path class="cls-21" d="M287.6,122.3a.6.6,0,0,0,.3-.6c-.8-4.2-3.9-4.5-4.1-4.5a.55.55,0,0,0-.1,1.1h0c.1,0,2.4.3,3.1,3.6.1.3.3.5.6.4C287.5,122.4,287.6,122.4,287.6,122.3Z"/><path class="cls-21" d="M289.2,120.6c.1-.1.2-.2.2-.3a.52.52,0,0,0-.3-.7,2.86,2.86,0,0,0-2.6.4.51.51,0,1,0,.5.9,2,2,0,0,1,1.6-.2A1.76,1.76,0,0,1,289.2,120.6Z"/><path class="cls-21" d="M291.8,118h0c.3-.3.3-.6.1-.8a8.76,8.76,0,0,0-5-2.9h-.2a.75.75,0,0,0-.5-.1.57.57,0,0,0-.4.7c.1.4.4.4.8.5a7.66,7.66,0,0,1,4.4,2.5A.78.78,0,0,0,291.8,118Z"/><g class="cls-15"><path class="cls-16" d="M227.8,126.1a.7.7,0,0,0,0-1.4.7.7,0,0,0,0,1.4Z"/><path class="cls-16" d="M229.3,126.8a.7.7,0,0,0,0-1.4.7.7,0,0,0,0,1.4Z"/><path class="cls-16" d="M229.2,122.3c.2.2.5.3.7.5.7.5,1.4-.7.7-1.2-.2-.2-.5-.3-.7-.5-.7-.5-1.4.7-.7,1.2Z"/><path class="cls-16" d="M231,123.5h0a.67.67,0,1,0,1-.9l-.1-.1c-.6-.6-1.5.4-.9,1Z"/><path class="cls-16" d="M232.6,119.2a.7.7,0,0,0,0-1.4c-.8.1-.8,1.4,0,1.4Z"/><path class="cls-16" d="M239.7,120.7a2.76,2.76,0,0,1,1,2.3.7.7,0,0,0,1.4,0,4.53,4.53,0,0,0-1.4-3.2c-.7-.6-1.7.3-1,.9Z"/><path class="cls-16" d="M240.6,125.4h0a.67.67,0,1,0,1-.9l-.1-.1c-.6-.6-1.5.4-.9,1Z"/><path class="cls-16" d="M244.7,149.9c-.1,1.2-.4,2.4-.4,3.6-.1.9,1.3.9,1.4,0,.1-1.2.4-2.4.4-3.6a.7.7,0,0,0-1.4,0Z"/><path class="cls-16" d="M243.2,155.2a9.17,9.17,0,0,0-.9,2.3c-.3.8,1,1.2,1.3.4a8.36,8.36,0,0,1,.8-2,.7.7,0,0,0-1.2-.7Z"/><path class="cls-16" d="M241.6,159.3h0c0,.9,1.4.9,1.4.1v-.1a.7.7,0,0,0-1.4,0Z"/><path class="cls-16" d="M259.9,152.8c0,.9-.2,1.8-.2,2.7s1.3.9,1.4,0a24.52,24.52,0,0,0,.2-2.7.7.7,0,0,0-1.4,0Z"/><path class="cls-16" d="M259.7,157.9h0a.67.67,0,1,0,1-.9l-.1-.1c-.6-.6-1.5.4-.9,1Z"/><path class="cls-16" d="M258.7,159.2a5.22,5.22,0,0,0-.4,2.1c-.1.9,1.3.9,1.4,0a5.84,5.84,0,0,1,.4-1.8c.2-.8-1.1-1.1-1.4-.3Z"/><path class="cls-16" d="M280.4,116a6.74,6.74,0,0,0,2.1,5.8c.6.6,1.5-.3,1-1a5.38,5.38,0,0,1-1.7-4.4c0-.9-1.3-1.2-1.4-.4Z"/><path class="cls-16" d="M284.5,123.1a.7.7,0,0,0,0-1.4.7.7,0,0,0,0,1.4Z"/><path class="cls-16" d="M286.7,112h0c.9,0,.9-1.4.1-1.4h-.1c-.8.1-.8,1.4,0,1.4Z"/><path class="cls-16" d="M290.5,112.7h0a.67.67,0,1,0,1-.9l-.1-.1c-.6-.5-1.6.4-.9,1Z"/><path class="cls-16" d="M293.7,114.6c-.3.4-.7.8-1,1.2-.6.7.4,1.6,1,1,.3-.4.7-.8,1-1.2.5-.7-.5-1.7-1-1Z"/><path class="cls-16" d="M285.7,116.9a2.23,2.23,0,0,1,1.3.6c.7.5,1.4-.6.7-1.2a4.45,4.45,0,0,0-2-.8.7.7,0,0,0,0,1.4Z"/><path class="cls-16" d="M288.5,118.3h0a.67.67,0,1,0,1-.9l-.1-.1c-.6-.6-1.5.4-.9,1Z"/></g></svg>