<svg id="OBJECTS" xmlns="http://www.w3.org/2000/svg" xmlns:xlink="http://www.w3.org/1999/xlink" viewBox="0 0 519 321.3"><defs><style>.cls-1{fill:#98c4f9;}.cls-18,.cls-2,.cls-6{opacity:0.25;isolation:isolate;}.cls-3{fill:#092533;}.cls-4{fill:url(#linear-gradient);}.cls-5{fill:url(#linear-gradient-2);}.cls-11,.cls-18,.cls-6{fill:none;stroke-miterlimit:10;}.cls-6{stroke:#fff;}.cls-18,.cls-6{stroke-width:0.46px;}.cls-7{fill:#4fc1ea;}.cls-8{fill:url(#linear-gradient-3);}.cls-9{fill:url(#linear-gradient-4);}.cls-10{fill:#12006d;}.cls-11{stroke:#092533;stroke-width:0.92px;}.cls-12{fill:url(#linear-gradient-5);}.cls-13{fill:url(#linear-gradient-6);}.cls-14{fill:url(#linear-gradient-7);}.cls-15{fill:url(#linear-gradient-8);}.cls-16{fill:url(#linear-gradient-9);}.cls-17{fill:#00d1b2;}.cls-18{stroke:#000;}.cls-19{fill:#8be8d9;}.cls-20{fill:url(#linear-gradient-10);}.cls-21{fill:url(#linear-gradient-11);}.cls-22{fill:url(#linear-gradient-12);}.cls-23{fill:url(#linear-gradient-13);}.cls-24{fill:url(#linear-gradient-14);}.cls-25{fill:url(#linear-gradient-15);}.cls-26{fill:url(#linear-gradient-16);}.cls-27{fill:url(#linear-gradient-17);}</style><linearGradient id="linear-gradient" x1="126.8" y1="152.53" x2="127.41" y2="158.28" gradientTransform="matrix(1, 0, 0, -1, 0, 324)" gradientUnits="userSpaceOnUse"><stop offset="0" stop-color="#ffc5ae"/><stop offset="1" stop-color="#ea8b6a"/></linearGradient><linearGradient id="linear-gradient-2" x1="134.45" y1="154.56" x2="129.14" y2="154.18" xlink:href="#linear-gradient"/><linearGradient id="linear-gradient-3" x1="321.67" y1="196.84" x2="321.89" y2="201.9" xlink:href="#linear-gradient"/><linearGradient id="linear-gradient-4" x1="322.61" y1="194.69" x2="322.45" y2="198.29" xlink:href="#linear-gradient"/><linearGradient id="linear-gradient-5" x1="333.87" y1="198.79" x2="336.96" y2="182.46" xlink:href="#linear-gradient"/><linearGradient id="linear-gradient-6" x1="245.98" y1="222.87" x2="247.92" y2="218.75" xlink:href="#linear-gradient"/><linearGradient id="linear-gradient-7" x1="243.05" y1="222.99" x2="247.86" y2="220.97" xlink:href="#linear-gradient"/><linearGradient id="linear-gradient-8" x1="245.73" y1="224.48" x2="248.83" y2="217.9" xlink:href="#linear-gradient"/><linearGradient id="linear-gradient-9" x1="289.82" y1="218.06" x2="281.02" y2="207.61" xlink:href="#linear-gradient"/><linearGradient id="linear-gradient-10" x1="426.34" y1="262.55" x2="277.29" y2="228.05" gradientTransform="matrix(1, 0, 0, -1, 0, 324)" gradientUnits="userSpaceOnUse"><stop offset="0" stop-color="#fff" stop-opacity="0"/><stop offset="1" stop-color="#98c4f9"/></linearGradient><linearGradient id="linear-gradient-11" x1="-2397.53" y1="-612.72" x2="-2546.59" y2="-647.22" gradientTransform="matrix(-0.56, -0.83, -0.83, 0.56, -1727.38, -1568.91)" xlink:href="#linear-gradient-10"/><linearGradient id="linear-gradient-12" x1="441.86" y1="111.54" x2="227.9" y2="62.02" xlink:href="#linear-gradient-10"/><linearGradient id="linear-gradient-13" x1="-2818.31" y1="99.64" x2="-3032.27" y2="50.12" gradientTransform="translate(-2741.16 324) rotate(180)" xlink:href="#linear-gradient-10"/><linearGradient id="linear-gradient-14" x1="127.39" y1="132.82" x2="132.26" y2="150.29" xlink:href="#linear-gradient"/><linearGradient id="linear-gradient-15" x1="311.54" y1="167.56" x2="315.52" y2="193.44" xlink:href="#linear-gradient"/><linearGradient id="linear-gradient-16" x1="265.28" y1="202.07" x2="264.34" y2="213.02" xlink:href="#linear-gradient"/><linearGradient id="linear-gradient-17" x1="263.67" y1="201.99" x2="264.11" y2="204.81" xlink:href="#linear-gradient"/></defs><title>error-3-teal</title><path class="cls-1" d="M378.7,218.7l-6.2-18.2L362.1,204l-21.2-62.1-23.6,8,.1.2-7.6,32.8L299,229.8l6.3,13.9,22.3-7.6,8.1-2.8,9-3.1,7.4,21.6,23.6-8-7.4-21.6ZM335.8,213l-5.4,1.8-10.3,3.5,7-34.7.7-2.9,10.7,31.4Z"/><polygon class="cls-2" points="368.3 222.2 375.7 243.9 360.7 237.4 336.6 150.9 327.8 180.7 323.7 197.6 309.8 183 317.4 150.2 317.3 150 340.9 141.9 362.1 204 372.5 200.5 378.7 218.7 368.3 222.2"/><path class="cls-2" d="M335.7,233.3l-8.1,2.8,1.2-16.7v-3l1.7-1.5,1.1-1,4.3-.8C335.8,213,335.5,225.3,335.7,233.3Z"/><path class="cls-3" d="M141.5,190.7v.4s-.3,6.8-5.4,6.5h0c-3.2-.2-7.1-1.7-9.7-2.8-1.6-.7-2.8-1.2-2.9-1.2-.3.1,3.9,17.5,3.8,18.5a.6.6,0,0,1-.1.4c-.3.9-1.3,2.1-2,2.2-.1,0-.2-.1-.4-.3-1.9-2.4-9.4-16.1-9.6-20.5-.2-4.9,2.3-7.9,5.6-8.4,2.5-.4,9.8.6,13.4,1.1,1.3.2,2.1.3,2.1.3Z"/><path class="cls-2" d="M127.3,212.1a.6.6,0,0,1-.1.4c-.3.9-1.3,2.1-2,2.2-.1,0-.2-.1-.4-.3,2.7-3.8-4.3-22.2-2.8-22.2.8,0,2.4,1.3,4.3,2.6-1.6-.7-2.8-1.2-2.9-1.2C123.1,193.6,127.3,211.1,127.3,212.1Z"/><path class="cls-2" d="M141.5,190.7v.4s-.3,6.8-5.4,6.5c1-.8,1.2-2.2,1.1-3.9-.1-2-1.9-5.4-3-7.1,1.3.2,2.1.3,2.1.3Z"/><path class="cls-4" d="M130.4,168.9a5.56,5.56,0,0,1-.9,1.7,2.42,2.42,0,0,1-1.9,1c-1.6,0-3.1-2.1-3.8-3.2,2.2-.2,3.9-2.3,4.5-2.1.4.1,1,1,1.5,1.7C130.1,168.4,130.3,168.8,130.4,168.9Z"/><path class="cls-5" d="M132.6,169.1s-1.2,2.7-1.6,2.1c-.2-.3-.9-.5-1.5-.7a5.56,5.56,0,0,0,.9-1.7h0a1.33,1.33,0,0,1,.3-.7A4,4,0,0,0,132.6,169.1Z"/><path class="cls-6" d="M136.1,193.1s-11.9-2.2-14.3-1.2,4.3,20,4.3,20"/><path class="cls-7" d="M336.6,136.5a19.45,19.45,0,0,1-7.9-1.1c0,.5.1,1.4.2,2.3a37,37,0,0,1,.2,4.6c0,.9-.1,1.6-.4,1.8h0c-.5.3-1.8.1-3.3-.1a24.6,24.6,0,0,1-2.9-.7l-.9-.3a36.93,36.93,0,0,0-4.7-1c-.2-.1-.3-.1-.3-.2,0-.3.7-1,1.1-1.7,0-.1.1-.2.2-.4a28.11,28.11,0,0,0,1-3.1c.1-.5.2-.9.1-.8-.4.2-2.5,4.2-2.7,4.2a2.93,2.93,0,0,1-1-.6c-.9-.6-1.9-1.4-2-1.8v-.1c.5-.5,4.3-6.9,5.7-8.3a7.57,7.57,0,0,1,2-1.3,3.37,3.37,0,0,1,1.2-.3,10.68,10.68,0,0,1,2.5.3,24.52,24.52,0,0,1,6.7,3.3c1.9,1.1,3.1.8,3.6,1.1C335.3,132.5,337,136.3,336.6,136.5Z"/><path class="cls-2" d="M324.6,127.8c-.1,1.1-.5,2.2-1.6,2.1a2.29,2.29,0,0,1-2.1-2.1,3.37,3.37,0,0,1,1.2-.3A10.68,10.68,0,0,1,324.6,127.8Z"/><path class="cls-7" d="M323.9,125.5a5.48,5.48,0,0,0-.8-1.7c-.4.7-2.2,1.1-3.5,1.2h-1.5a4.13,4.13,0,0,1,3.6-5.4,2.45,2.45,0,0,1,2.7,3C325.8,124,323.9,125.5,323.9,125.5Z"/><path class="cls-8" d="M323.9,125.5c-.1.2-.2.7-.4,1.1h0a1.47,1.47,0,0,1-2,.8h-.1a3,3,0,0,1-1.6-1.8c-.1-.2-.1-.4-.2-.5,1.3-.1,3.1-.5,3.5-1.2a.1.1,0,0,0,.1.1A5.6,5.6,0,0,1,323.9,125.5Z"/><path class="cls-9" d="M323.7,128.3c-.2,1-1.9,1-2,.3a9.44,9.44,0,0,0-.3-.9,1,1,0,0,1-.1-.4h.1a1.48,1.48,0,0,0,2-.8h0c-.1.2.2.5.3,1.1A.85.85,0,0,1,323.7,128.3Z"/><path class="cls-10" d="M315,168.9c-.2,1.3-6.7,6.2-6.6,5.4s3.5-8.5,3.5-8.5l.4.4c.3.1.8-.7.9-1.1C314,166.2,315.1,167.7,315,168.9Z"/><path class="cls-10" d="M319.5,191.7c-1.5-3.3,0-10.4,0-10.4.5.7,2.4-.1,2.4-.4v-.7s.2,3.4.5,6.2C322.8,189.4,321.1,195,319.5,191.7Z"/><path class="cls-2" d="M323.1,123.9c-.7,1.5-2.6,1.6-3.4,1.6-.1-.2-.1-.4-.2-.5,1.4-.1,3.1-.5,3.6-1.1Z"/><path class="cls-2" d="M323.7,127.7a.76.76,0,0,1-.5.2,3.63,3.63,0,0,1-1.9-.1,1,1,0,0,1-.1-.4h.1a1.48,1.48,0,0,0,2-.8h0C323.3,126.8,323.6,127.1,323.7,127.7Z"/><line class="cls-11" x1="332.6" y1="13.2" x2="332.6" y2="150.9"/><path class="cls-12" d="M338.4,134.5v.1c-.4,1.7-1.7,1.8-2,1.7s-.9-.9-1.5-3.6v-.2s-1.3-3.2-1.8-4.8c-1.5-.9-1.7-.5-1.9-1.5a2.9,2.9,0,0,1,.8-2.5c.4-.2,2,1.4,2.2,1.9C334.4,126.4,338.7,132.7,338.4,134.5Z"/><path class="cls-2" d="M338.3,134.6c-.4,1.7-1.7,1.8-2,1.7s-.9-.9-1.5-3.6a5.6,5.6,0,0,0,1.6,2.1A1.29,1.29,0,0,0,338.3,134.6Z"/><path class="cls-7" d="M289.5,221.7l-3.6-18.2c-2.6-13.4-7.7-23.2-15.2-29.4s-16.8-8.2-27.9-6-18.9,7.5-23.5,16-5.6,19.5-3,33l3.6,18.2c2.6,13.4,7.7,23.2,15.2,29.3a29.69,29.69,0,0,0,10.5,5.6,36.17,36.17,0,0,0,17.4.4,40.39,40.39,0,0,0,9.1-2.8,29.82,29.82,0,0,0,14.4-13.2C291.1,246.2,292.1,235.2,289.5,221.7Zm-22.2,24.4a9.36,9.36,0,0,1-7.7,6.7c-4.1.8-7.4-.3-9.9-3.4a28.37,28.37,0,0,1-4.5-9.4h0a50.34,50.34,0,0,1-1.5-6.4l-5-25.5c-1.2-6.7-1.2-11.9,0-15.5a9.27,9.27,0,0,1,7.7-6.6,9.52,9.52,0,0,1,7.8,1.5h0a19.36,19.36,0,0,1,2.1,2c2.6,3.2,4.6,8.3,6,15.5l4.8,24.7C268.5,236.9,268.5,242.4,267.3,246.1Z"/><line class="cls-11" x1="246.2" y1="13.2" x2="246.2" y2="174.2"/><path class="cls-10" d="M284.5,111.9s-2.3-6.4-2.2-6.9,2.8-1.4,3-1.2,1.8,5.3,1.5,5.6A30.86,30.86,0,0,1,284.5,111.9Z"/><path class="cls-13" d="M245.4,103.5a4.54,4.54,0,0,1,2.1,2.1c.6,1.5.4-4,.4-4l-.7-.6Z"/><path class="cls-14" d="M244.7,103.5s1.8,1.3,2.1,1.4.9-3.4.6-4a1.47,1.47,0,0,0-1.9-.7C244.9,100.5,244.4,103.3,244.7,103.5Z"/><path class="cls-15" d="M249.4,103.9s-1.4-3.3-2.1-3.9-1.8.2-1.9.5,1.4.5,1.9,1-.8,4.2.4,5.5C249.1,108.3,249.4,103.9,249.4,103.9Z"/><path class="cls-16" d="M282.7,112.7s1.3-.7,1.5-1.1-.2-1.7.6-3a1.58,1.58,0,0,1,2.9.6c.4,1.5-.7,3.4-1.2,4a46.67,46.67,0,0,1-3.9,3"/><path class="cls-7" d="M283.6,115.6a3,3,0,0,1-.7,1.1c-1.6,1.9-6.1,5.6-14.1,9.8a11.8,11.8,0,0,0-.4,2,31.63,31.63,0,0,0-.2,6.1c0,.5.1,1,.1,1.4.1,2,.3,3.7.3,4.6a1.29,1.29,0,0,1-.2.8,2.09,2.09,0,0,1-.6.4c-4,2.6-11.3-1.3-12.5-2.4-.1-.1-.1-.2-.2-.2-.2-.8.6-1.6,1-2.9a8.79,8.79,0,0,0,.2-1.4c.2-2,.4-5.7.5-8.5a26.62,26.62,0,0,0-.1-3.5h0c-.2-.9-6.9-11-8.9-14.6a5.66,5.66,0,0,1-.6-1.2c.1-.8,1.6-3.7,2-3.6.1,0,.3.3.6.7,1.6,2.2,5.7,8.7,6.5,9.5s4.4,4.6,6,6.3c.4.5.7.8.7.8a22.75,22.75,0,0,0,2.6-.2c7.5-1.2,15-6.4,16.9-7.9a3.61,3.61,0,0,0,.5-.4A9.09,9.09,0,0,1,283.6,115.6Z"/><path class="cls-17" d="M264.8,124c-2.6.4-2.6-2.9-2.4-4.1.4.5.7.8.7.8a22.75,22.75,0,0,0,2.6-.2C266,121.8,265.7,123.9,264.8,124Z"/><path class="cls-1" d="M277.7,154.6c0,1.9-6.9,12.5-8.4,14.7a3,3,0,0,1-.3.4,6.63,6.63,0,0,1-1.6-.4c-.5-.2-.9-.4-.9-.8v-.3c.2-1.5,1.8-6.8,3.7-13.9-1-1.3-8.3-6-8.3-6h0c-.3.7-10.3,23.9-11.5,26.1a.1.1,0,0,1-.1.1c-.5.7-2.7.7-2.8-.7h0c-.6-5.9,4.4-23.5,6.8-31.4.4-1.4.8-2.5,1-3.1,1.2,1.2,8.5,5,12.5,2.4.2-.1.4-.3.6-.4a1.29,1.29,0,0,0,.2-.8c.1.1.2.2.2.3C271.7,144.1,277.7,152.8,277.7,154.6Z"/><path class="cls-10" d="M251.2,177.7c-.3,1.4-7.6,5.5-6.9,3,.5-2,2.6-5.5,3.3-6.8h0c.1,1.4,2.3,1.3,2.8.7a.1.1,0,0,1,.1-.1A6.42,6.42,0,0,1,251.2,177.7Z"/><path class="cls-10" d="M271.7,176.5c-.6.3-7.7-2.5-7.6-3.4a39.56,39.56,0,0,1,2.4-4.7v.3c0,.8,2.6,1.1,2.6,1.1a3,3,0,0,0,.3-.4C269.7,172.2,272.3,176.2,271.7,176.5Z"/><path class="cls-18" d="M261.1,147.6s-8,15.6-10.9,26.4"/><path class="cls-18" d="M263,147.6s8.8,5.8,9.2,6.7-4.6,14-4.6,14"/><path class="cls-2" d="M268.9,140.9c-1,3.9-6.6,2.8-9.5,2.1a22.39,22.39,0,0,0-5-.4c.4-1.4.8-2.5,1-3.1,1.2,1.2,8.5,5,12.5,2.4.2-.1.4-.3.6-.4a1.29,1.29,0,0,0,.2-.8Z"/><path class="cls-2" d="M267.5,169.4c-.5-.2-.9-.4-.9-.8v-.3c.2-1.5,1.8-6.8,3.7-13.9-1-1.3-8.3-6-8.3-6s.6-2,1.3-2.1,8.3,6.4,9.2,7.8C273.2,155.3,268,165.1,267.5,169.4Z"/><circle class="cls-7" cx="228.6" cy="122.9" r="4.3"/><circle class="cls-1" cx="153.2" cy="146.2" r="4.3"/><circle class="cls-7" cx="224.3" cy="278.1" r="4.3"/><path class="cls-19" d="M119.7,185.5a3.14,3.14,0,0,1-1.2-.1c-.2-.1-.9-.4-6.9-11.1l1.1-.6a115.55,115.55,0,0,0,6.4,10.6,51.19,51.19,0,0,0,7.4-.5l.1,1.2C124.6,185.2,121.5,185.5,119.7,185.5Z"/><path class="cls-19" d="M283.6,115.6a3,3,0,0,1-.7,1.1,37.93,37.93,0,0,0-.4-4.1,3.61,3.61,0,0,0,.5-.4A9.79,9.79,0,0,1,283.6,115.6Z"/><path class="cls-19" d="M249.9,104.1c-1.2,1-1.8,3.2-2,4.2a5.66,5.66,0,0,1-.6-1.2c.1-.8,1.6-3.7,2-3.6C249.4,103.4,249.6,103.7,249.9,104.1Z"/><path class="cls-19" d="M335.8,213a7,7,0,0,0-5.6-2.3c-3.5.3-5.5,1.6-5.6,5.3s.8,22.3,0,29.6,4.2,8.1,4.5,2.7-1.8-22.6-.3-25.4.6,3.1,2.3,5,3.4-1.5,1.7-6C330.9,217.4,335.8,213,335.8,213Z"/><path class="cls-19" d="M329,142.3c-2.6,0-8.2-.2-11.2-2.6a28.11,28.11,0,0,0,1-3.1s6,1.8,10,1.1A37,37,0,0,1,329,142.3Z"/><path class="cls-19" d="M268.4,136c-2.6.4-7.6.7-11.9-1.1.2-2,.4-5.7.5-8.5a24.42,24.42,0,0,0,11.5,2A32.44,32.44,0,0,0,268.4,136Z"/><circle class="cls-19" cx="354" cy="135.9" r="1.7"/><circle class="cls-1" cx="227" cy="161.8" r="1.7"/><path class="cls-20" d="M402.2,48.1s-6.6-6.6-19.2-4-21.5,22.6-30.6,27-27.3,17.5-28.6,28.6c17.7-14.7,24.3-8.3,35.8-10.1s12.4-15.3,29-14.8,34.3,21.1,50.9,9.5,36-25.2,20.3-36.5S412.2,53.9,402.2,48.1Z"/><path class="cls-21" d="M133.1,93s-1.7,9.2,7.6,18.1,30.7,5,39.6,10.1,29.8,12.7,39.8,7.5c-22.1-6.3-20.6-15.4-28.5-23.9S172,103.2,163,89.2,161.1,49,142.2,41.8,101,26.3,100.6,45.6C100,64.9,132.2,81.5,133.1,93Z"/><path class="cls-22" d="M454.2,145.9s-27,29.6-32.7,64.3-33.4,32.5-42.8,48.9-31.8,17.7-42,24.3-33.6-4.9-37.6,0,21,12.4,53.4,12.8,38.6-24.8,67.3-28.3,57.5-15.9,67.7-62.8S480.3,133.1,454.2,145.9Z"/><path class="cls-23" d="M64.8,157.8s27,29.6,32.7,64.3,33.4,32.5,42.8,48.9,31.8,17.7,42,24.3,33.6-4.9,37.6,0-21,12.4-53.4,12.8-38.6-24.8-67.3-28.3S41.7,263.9,31.5,217C21.5,170.1,38.7,145,64.8,157.8Z"/><path class="cls-2" d="M269.1,249.5c1,1.6,2.4,12.3,3.1,18.3a40.39,40.39,0,0,1-9.1,2.8,36.17,36.17,0,0,1-17.4-.4l.6-1.5c3.3-9.9-.8-27.9-1-28.7,1.2,4.1,2.7,7.3,4.5,9.4a10.34,10.34,0,0,0,17.6-3.3c1.2-3.7,1.1-9.2-.2-16.4L262.4,205c-1.4-7.2-3.4-12.3-6-15.5a12.91,12.91,0,0,0-2.1-2c7.8,1.5,14.2,25.8,16.9,37.5C273.7,236.8,274,242.2,269.1,249.5Z"/><path class="cls-17" d="M328.4,147.2a20.9,20.9,0,0,1-1.3,3.7c-.9,2.3-2.2,5.4-4.2,9.8,0,2.2-.8,16.4-.9,19.6v.7a2.36,2.36,0,0,1-1.1.6c-.5.1-1.1.2-1.3-.2-.5-.7-3.9-14-4-17.2s-.3-2.4,3.5-15c-.9.4-7,.3-7,.3s1.1,15.4,1.1,15.5v.1a4.05,4.05,0,0,1-.5.9c-.1.1-.2.2-.3.1s-.2-.1-.4-.4a37.88,37.88,0,0,1-6.1-9.3c-2-4.6-2.5-7.8-.6-11s11.7-3.5,11.7-3.5c.6.2,2,.3,3.5.7l1.2.3c2.1.7,6.2,1.6,7.1,1.1A8.47,8.47,0,0,1,328.4,147.2Z"/><path class="cls-17" d="M246.9,244.8s.5,1.3,3.2,2.1,5.2-3.4,6.9-2.1,4.6,6.8,7.1,6,3.2,12.4,2,13.9-2-10.4-5.1-10.1-.8,9.3-2.5,11-1-4-2.9-5,2.1,45.1-.9,45.9-4.9-2.1-3.7-11.9-.3-43.9-2.1-45.7A6.11,6.11,0,0,1,246.9,244.8Z"/><circle class="cls-17" cx="378.7" cy="177.7" r="4.3"/><circle class="cls-17" cx="177.2" cy="139.3" r="1.7"/><path class="cls-17" d="M206.4,149.6l-23.9-4.1v.2L129.8,205l-1.1,14.8,7.6,1.3,13.1,2.2,17.6,3,1.7.3-1.3,7.3-.6,3.4-1.9,11.2,15.5,2.7,8.3,1.4,3.8-21.9,10.5,1.8,3.2-18.4-10.5-1.8ZM176.6,180l-4.9,28.3-5.8-1-12.7-2.2,7.1-8.4,1.6-1.9,13.4-16,1.9-2.2Z"/><path class="cls-17" d="M130.7,168.3a1.33,1.33,0,0,0-.3.7h0a5.76,5.76,0,0,1-.5-.9c-.5-.7-1.1-1.6-1.5-1.7-.6-.2-2.3,1.9-4.5,2.1h-.4c-2.5-.1-5.1-3.6-3-7.7a2.56,2.56,0,0,0,2.2,1.5,1.4,1.4,0,0,1-1-1.3c2.7.5,4.1-1.5,6.4-.8s2.2,2.1,2.2,2.1,1.8-.7,2.3,1.5C133,165.5,131.4,167.2,130.7,168.3Z"/><path class="cls-17" d="M140.9,191.9c-1.9-.3-7-5.8-7-8.2a4.48,4.48,0,0,0-.1-1.1c-.4-2.5-1.8-6.1-2.4-8.7-.7-3,.3-4.1.3-4.1,2.3-4,7.6,3.9,10.5,10.2h0a14.81,14.81,0,0,1,1.7,5.4C144.2,190,142.8,192.2,140.9,191.9Z"/><path class="cls-17" d="M129.4,216.3c.2,1.1-7.3,8.7-6.9,6.7s2.7-8.3,2.7-8.3a3.67,3.67,0,0,0,2-2.2C127.8,213.6,129.2,215.4,129.4,216.3Z"/><path class="cls-17" d="M137,179.9a.44.44,0,0,1-.3.1,16.93,16.93,0,0,1-4.5,0c-.2,0-.3-.1-.4-.1-.7-.3,0-1.1-.2-2.6s-.8-5.6,1.4-6.9,3.9,3.8,3.9,6.3C137.1,179.3,137.5,179.5,137,179.9Z"/><path class="cls-24" d="M136.7,180s-.1,6.2-1.3,9.1h0c-.4.9-.8,1.5-1.5,1.5-2.6-.1-8.3-6.2-8.9-6.4s-3.2.2-3.1-.2a4.7,4.7,0,0,1,2.2-1.7c1.1-.4.9-.2,8,3.1a39.12,39.12,0,0,1,0-4.9v-.6A12,12,0,0,0,136.7,180Z"/><path class="cls-2" d="M135.5,189.2c.2-1.2.4-4.9-.2-6.3-.4-1-2-1.8-3-2.2v-.6a16.93,16.93,0,0,0,4.5,0C136.7,180,136.6,186.3,135.5,189.2Z"/><path class="cls-2" d="M166.9,226.4l-17.6-3c2.1-6.8,4.7-16.3,3.8-18.3l12.7,2.2a12.15,12.15,0,0,1,1.6,5.8C167.9,217.6,167.2,222.3,166.9,226.4Z"/><path class="cls-1" d="M153.9,205.3s1.9-2.7,6.2-1.8,4.6,6.1,2.8,12-2.3,26.3-1.4,33,.3,9.7-1.8,10-3.1-8-1.9-13.7,1.1-11.1-.9-10.2-.3,3.1-1.3,5.1-4,.8-3.9-3S157.9,208.4,153.9,205.3Z"/><polygon class="cls-2" points="195.6 212.4 206.1 214.2 202.9 232.6 192.5 230.8 188.7 252.7 180.4 251.3 195 159.9 206.4 149.6 195.6 212.4"/><line class="cls-11" x1="188.5" y1="13.2" x2="188.5" y2="155.6"/><path class="cls-25" d="M314.6,141.9a.76.76,0,0,0-.1.4c.1.5-.6,7-.3,7.6a12.67,12.67,0,0,1,.3,4.1c-.1,1.3-2.9,2.1-2.9,1s.3-3.8.4-4.9-.9-8.5-.6-9.5a14.94,14.94,0,0,1,1.3-2.5,2.48,2.48,0,0,1,.4-.6c0,.6,2.8,2.4,3,2.4C316.1,140,315,141.2,314.6,141.9Z"/><path class="cls-2" d="M316.1,140a12.15,12.15,0,0,0-1.5,2v-.5a11.21,11.21,0,0,0-1.9-3.3,2.48,2.48,0,0,1,.4-.6C313.1,138.2,315.9,140,316.1,140Z"/><path class="cls-2" d="M319,149.2c-.9.4-7,.3-7,.3s1.1,15.4,1.1,15.5v.1a4.05,4.05,0,0,1-.5.9c-1.1-5.3-3.4-15.3-1.6-17.1,2.3-2.2,8.5-2.8,8.6-2.3A20.74,20.74,0,0,1,319,149.2Z"/><path class="cls-2" d="M328.4,147.2a5.41,5.41,0,0,1-3.5-1.6,19,19,0,0,0-4.6-2.9l1.2.3c2.1.7,6.2,1.6,7.1,1.1A4.89,4.89,0,0,1,328.4,147.2Z"/><path class="cls-2" d="M327.2,150.9c-.9,2.3-2.2,5.4-4.2,9.8,0,2.2-.8,16.4-.9,19.6v.7a2.36,2.36,0,0,1-1.1.6c.1-4.8,0-15.2.8-18.2C322.6,159.6,326.9,151.4,327.2,150.9Z"/><path class="cls-2" d="M322.4,143.3l-.9-.3a36.93,36.93,0,0,0-4.7-1c-.2-.1-.3-.1-.3-.2,0-.3.7-1,1.1-1.7s1.6-4.5,1.2-4.3-2.5,4.2-2.7,4.2a2.93,2.93,0,0,1-1-.6c.1-.1.1-.2.2-.3,1.3-2,3.5-4.4,3.9-6.5.3-1.5.7-.7.7,1.3C319.7,135.7,319.6,141.2,322.4,143.3Z"/><path class="cls-2" d="M328.6,144.1h0c-.5.3-1.9.1-3.4-.1,2.7-2.7,1.2-10,1.6-9.6a13.4,13.4,0,0,0,1.7,1C328.7,137.4,329.5,143.6,328.6,144.1Z"/><path class="cls-2" d="M267.9,128.8a20.65,20.65,0,0,1,1-2.4,17.66,17.66,0,0,0-.4,2,31.63,31.63,0,0,0-.2,6.1"/><path class="cls-2" d="M267.9,141.9c-4.3,2.8-12.4-1.9-12.6-2.6s.6-1.6,1-2.9a8.79,8.79,0,0,0,.2-1.4c.2-2,.4-5.7.5-8.5a26.62,26.62,0,0,0-.1-3.5,67.2,67.2,0,0,1,2.3,9.4c.8,4.6.6,6.9,2.9,8.3A10.41,10.41,0,0,0,267.9,141.9Z"/><path class="cls-2" d="M268.3,134.5c-.5-2.1-.9-4.4-.4-5.7"/><path class="cls-26" d="M267.4,116.8c0,.2-.1.5-.1.8-.3,1.6-1.1,3.9-2.3,3.7h-.2a3.78,3.78,0,0,1-2.1-2.2,7.78,7.78,0,0,1-.3-.9,3.73,3.73,0,0,1,.2-1.2,3.65,3.65,0,0,1,.5-1.1,7.86,7.86,0,0,0,2.3,1.1A2.57,2.57,0,0,0,267.4,116.8Z"/><path class="cls-27" d="M265,122.3c0,.6-.1,1-.5,1.1-.8.1-1.8-1-1.8-2.1v-2.2a3.75,3.75,0,0,0,2.1,2.2h.2Z"/><path class="cls-2" d="M267.4,116.8c0,.2-.1.5-.1.8-1.9,1-3.8-1.2-4.1-1.2-.1,0-.4.4-.6.6a3.65,3.65,0,0,1,.5-1.1,7.86,7.86,0,0,0,2.3,1.1A2.57,2.57,0,0,0,267.4,116.8Z"/><path class="cls-2" d="M265,122.3a3.39,3.39,0,0,1-2.2-2.2v-1a3.75,3.75,0,0,0,2.1,2.2h.2A3.75,3.75,0,0,0,265,122.3Z"/><path class="cls-17" d="M267.4,116.8a2.63,2.63,0,0,1-2,.2,9.25,9.25,0,0,1-2.3-1.1,3.65,3.65,0,0,0-.7,2.3c-1.8-1.6-2.3-3.2-.7-3.7-.6-2.8.7-3.3,3-3.5s2.8,2.2,4.1,2.1C268.9,114.4,268.6,116.1,267.4,116.8Z"/></svg>