<svg id="OBJECTS" xmlns="http://www.w3.org/2000/svg" xmlns:xlink="http://www.w3.org/1999/xlink" viewBox="0 0 519 321.3"><defs><style>.cls-1{fill:none;}.cls-2{fill:#ff6098;}.cls-3{fill:#2a0466;}.cls-4{fill:#8c8cf9;}.cls-5{fill:#e2d2f9;}.cls-6{fill:#fa8b29;}.cls-7{fill:#7617fc;}.cls-8{opacity:0.1;}.cls-31,.cls-32,.cls-9{fill:#fff;}.cls-10{fill:#5e0ae2;}.cls-11{fill:#ced5d8;}.cls-12{opacity:0.24;}.cls-13{opacity:0.33;}.cls-14{fill:#aeaeff;}.cls-15{fill:#4d288a;}.cls-16{fill:#6a6ad3;}.cls-17{fill:#f1e7f2;}.cls-18{fill:#becce4;}.cls-19{fill:#d5e1ef;}.cls-20{fill:#9aa2be;}.cls-21,.cls-23{fill:#c3d2e8;}.cls-22{opacity:0.29;}.cls-23{opacity:0.42;}.cls-23,.cls-31,.cls-32,.cls-38{isolation:isolate;}.cls-24{fill:#cfcff9;}.cls-25{fill:#9e39a4;}.cls-26{fill:#9539ff;}.cls-27{clip-path:url(#clip-path);}.cls-28{fill:url(#radial-gradient);}.cls-29,.cls-31{opacity:0.2;}.cls-30{fill:url(#radial-gradient-2);}.cls-32{opacity:0.5;}.cls-33{fill:#f7fb70;}.cls-34{fill:#f7e470;}.cls-35{opacity:0.18;}.cls-36{fill:#e4a9c2;}.cls-37{fill:#f8beca;}.cls-38{opacity:0.19;fill:url(#radial-gradient-3);}.cls-39{opacity:0.17;}</style><clipPath id="clip-path"><path class="cls-1" d="M268.1,256.2H218a45.45,45.45,0,0,1-45.3-45.3V169.2A45.45,45.45,0,0,1,218,123.9h50.1a45.45,45.45,0,0,1,45.3,45.3V211A45.37,45.37,0,0,1,268.1,256.2Z"/></clipPath><radialGradient id="radial-gradient" cx="78.76" cy="-138.06" r="79.88" gradientTransform="matrix(-0.98, -0.2, -0.2, 0.98, 284.46, 327.34)" gradientUnits="userSpaceOnUse"><stop offset="0" stop-color="#ff8cd2"/><stop offset="0.16" stop-color="#fb8ad1"/><stop offset="0.32" stop-color="#f084cd"/><stop offset="0.47" stop-color="#dc79c6"/><stop offset="0.62" stop-color="#c16abd"/><stop offset="0.77" stop-color="#9e57b1"/><stop offset="0.92" stop-color="#7440a2"/><stop offset="1" stop-color="#5a3299"/></radialGradient><radialGradient id="radial-gradient-2" cx="246.42" cy="-119.32" r="92.36" gradientTransform="translate(0 297.4)" gradientUnits="userSpaceOnUse"><stop offset="0" stop-color="#ff8cd2"/><stop offset="0.2" stop-color="#fb8ad1"/><stop offset="0.38" stop-color="#f086cd"/><stop offset="0.57" stop-color="#dc7ec6"/><stop offset="0.75" stop-color="#c172bd"/><stop offset="0.93" stop-color="#9f64b1"/><stop offset="1" stop-color="#8e5dab"/></radialGradient><radialGradient id="radial-gradient-3" cx="248.17" cy="-164.18" r="96.12" gradientTransform="translate(0 297.4)" gradientUnits="userSpaceOnUse"><stop offset="0" stop-color="#fffde0"/><stop offset="0.17" stop-color="#fcf9df"/><stop offset="0.32" stop-color="#f4eedb"/><stop offset="0.48" stop-color="#e7dad5"/><stop offset="0.63" stop-color="#d3bfcc"/><stop offset="0.78" stop-color="#bb9cc0"/><stop offset="0.93" stop-color="#9d72b2"/><stop offset="1" stop-color="#8e5dab"/></radialGradient></defs><title>error-8-core</title><path class="cls-2" d="M322.7,184.3c1.1-.5,2.2-.9,3.3-1.3a4.43,4.43,0,0,1,2-.3,54.1,54.1,0,0,1-2.1-7.4,2.82,2.82,0,0,0-3.2-2.1,2.59,2.59,0,0,0-2.2,3A47,47,0,0,0,322.7,184.3Z"/><path class="cls-3" d="M395.3,258.4c-17.5-2.1-39.5-6-54-18.1-7.1-5.9-9.8-12.5-7.3-18.1,1.4-3.1,4.2-5.7,8-7.7a46.46,46.46,0,0,0,18.6,10.1c15.2,4.2,26.2,1.7,30.4-2.6a6.72,6.72,0,0,0,1.6-7.4c-2.2-5.2-10.6-8.5-23.6-9.4-10.9-.7-19.4.6-25.8,3L342,207c-1.4,1.2-2.7,2.3-4.1,3.4l.2.2A11,11,0,0,0,336,212c-.1.1-.3.2-.4.3a2.18,2.18,0,0,0-.5.4,20.6,20.6,0,0,0-6.1,7.4c-3.4,7.8-.8,17.3,8.2,24.9,8.2,6.9,25.5,16.6,57.5,18.6h.3a2.63,2.63,0,0,0,2.7-2.3A2.56,2.56,0,0,0,395.3,258.4Zm-26.7-48c13.2.9,18,4.3,18.8,6.1.1.3.4.9-.5,1.9-2.5,2.6-11.1,5-24.7,1.2a42.29,42.29,0,0,1-14.5-7.4A64.41,64.41,0,0,1,368.6,210.4Z"/><path class="cls-4" d="M395,263.5h-.3c-34.8-4.3-48.7-13.2-57-20.5-9-8-12.1-17.2-8.7-25.4a21.64,21.64,0,0,1,9.2-10,70.49,70.49,0,0,1-9.7-14.5,87.94,87.94,0,0,1-7.8-21.9,2.75,2.75,0,1,1,5.4-1c.1.3,4,20.5,17.2,34.8,6.4-2.6,14.9-3.9,25.8-3.2,13,.9,21.3,4.4,23.6,9.9a7.17,7.17,0,0,1-1.6,7.8c-4.2,4.6-15.2,7.3-30.4,2.8a46.63,46.63,0,0,1-18.6-10.7c-3.9,2.1-6.7,4.8-8,8.1-2.5,5.9.2,12.9,7.3,19.2,14.5,12.9,36.5,17,54,19.2a2.8,2.8,0,0,1,2.4,3.1A3,3,0,0,1,395,263.5Zm-47.2-54.3a39.77,39.77,0,0,0,14.5,7.8c13.7,4,22.3,1.5,24.7-1.2a1.87,1.87,0,0,0,.6-2c-.8-2-5.7-5.6-18.8-6.5A57.24,57.24,0,0,0,347.8,209.2Z"/><path class="cls-5" d="M396,260.4a4.83,4.83,0,0,0,4.8-3.8c.2-.9-1.1-1.2-1.3-.4A3.45,3.45,0,0,1,396,259a.7.7,0,0,0,0,1.4Z"/><path class="cls-5" d="M395.6,262.6a8.81,8.81,0,0,1,2.5,2.2.65.65,0,0,0,.9.2c.3-.2.5-.6.2-.9a9.72,9.72,0,0,0-3-2.7c-.6-.5-1.3.7-.6,1.2Z"/><path class="cls-5" d="M397.4,261.8a6.53,6.53,0,0,0,3.4,0c.9-.2.5-1.5-.4-1.3a6.15,6.15,0,0,1-2.7,0,.67.67,0,0,0-.3,1.3Z"/><path class="cls-3" d="M342.1,211.6l-4-4c-.4.2-.7.5-1.1.7,2.5,1.1,2.6,3.7,2.6,4.9A13.25,13.25,0,0,1,342.1,211.6Z"/><path class="cls-3" d="M347.6,209.1l1.1-.1,2.4-.6a15.68,15.68,0,0,1-7.8-3.4h0A25.33,25.33,0,0,0,347.6,209.1Z"/><polygon class="cls-4" points="398 254.9 398.1 255.9 399.2 256.1 398.1 256.3 398 257.3 397.8 256.3 396.7 256.1 397.8 255.9 398 254.9"/><polygon class="cls-4" points="402.1 257.3 402.3 258.4 403.3 258.6 402.3 258.7 402.1 259.8 402 258.7 400.9 258.6 402 258.4 402.1 257.3"/><polygon class="cls-4" points="399.4 253.4 399.6 253.9 400 254 399.6 254.1 399.4 254.6 399.3 254.1 398.8 254 399.3 253.9 399.4 253.4"/><polygon class="cls-4" points="401.2 255.8 401.3 256.1 401.6 256.2 401.3 256.3 401.2 256.6 401.2 256.3 400.9 256.2 401.2 256.1 401.2 255.8"/><polygon class="cls-4" points="399.7 257.3 399.8 257.6 400 257.7 399.8 257.8 399.7 258.1 399.6 257.8 399.3 257.7 399.6 257.6 399.7 257.3"/><polygon class="cls-4" points="401.2 253.9 401.3 254.2 401.6 254.2 401.3 254.3 401.2 254.6 401.2 254.3 400.9 254.2 401.2 254.2 401.2 253.9"/><polygon class="cls-4" points="391.2 255.5 394.3 256.5 394.7 256.1 396.2 257 394.5 254.8 394 255.5 392.5 253.6 391.2 255.5"/><path class="cls-3" d="M458.4,273.6c-10.5-6.2-26.4-8.1-44.3-9.6a2.61,2.61,0,0,0-2.9,2.3,2.73,2.73,0,0,0,2.5,2.8c16.6,1.5,32.5,3.3,41.9,8.9,5.1,3,7.6,6.1,7.5,9.1-.1,3.6-3.7,7.1-7.1,9.5-5-5.5-14.3-3.8-18.4-1.8a.1.1,0,0,0-.1.1h-.1c-2.9,1.5-4.2,4.9-3.7,8.7l-2.1,1.1h0l-.9.5a2.33,2.33,0,0,0-.9,3.3,2.71,2.71,0,0,0,3.5,1l2-1a2.18,2.18,0,0,0,.5.8c.2.3.3.5.5.8l-1.1.6h0l-.9.5a2.33,2.33,0,0,0-.9,3.3,2.71,2.71,0,0,0,3.5,1l3-1.5a12.29,12.29,0,0,0,5.7,2.4h0c.4,0,.7.1,1.1.1h.2a2,2,0,0,0,.8-.1h.3a2.35,2.35,0,0,0,.8-.2.37.37,0,0,0,.3-.1,4.18,4.18,0,0,0,1-.4h.1l.6-.3a.1.1,0,0,0,.1-.1,3,3,0,0,0,.7-.5l.1-.1a3,3,0,0,1,.7-.5l.1-.1c.3-.2.5-.4.8-.6h0c.5-.5,1.1-1,1.6-1.6h0a5.5,5.5,0,0,0,.7-.9h0c.2-.3.5-.6.7-.9h0a13.55,13.55,0,0,0,2-4.4h0a9.23,9.23,0,0,0,.1-3.7c4.2-2.8,10.1-7.8,10.2-14.1C468.8,282.3,465.3,277.7,458.4,273.6Z"/><path class="cls-4" d="M452.6,303.1a3,3,0,0,1-2.5-1.5,2.78,2.78,0,0,1,1.2-3.7c3.1-1.6,11.4-7,11.7-12.8.2-3.2-2.2-6.4-7.1-9.6-9.1-6-24.9-7.9-41.6-9.4a2.76,2.76,0,1,1,.5-5.5c18.1,1.7,33.9,3.6,44.1,10.3,6.6,4.3,9.8,9.2,9.5,14.5-.6,10.1-14.1,17.1-14.7,17.4A1.8,1.8,0,0,1,452.6,303.1Z"/><ellipse class="cls-6" cx="443.45" cy="304.23" rx="9" ry="12.2" transform="translate(-92.01 254.4) rotate(-29.14)"/><path class="cls-4" d="M456.9,296.7c4.3,7.7-3.2,15.7-7.5,18.1s-10.5-.4-13.8-6.2-2.4-12.6,2-15S452.5,288.9,456.9,296.7Z"/><path class="cls-7" d="M452.1,307.2l-7.1,8.4a7.55,7.55,0,0,0,4.4-.8c3.9-2.2,10.3-8.8,8.5-15.7A14.5,14.5,0,0,1,452.1,307.2Z"/><path class="cls-7" d="M450.2,304.2a19.15,19.15,0,0,0,7.1-6.6,5.94,5.94,0,0,0-.4-.8,3,3,0,0,0-.5-.7l-6.8,4.7Z"/><g class="cls-8"><ellipse class="cls-9" cx="443.51" cy="304.12" rx="9.1" ry="12.2" transform="translate(-91.95 254.42) rotate(-29.14)"/></g><ellipse class="cls-10" cx="443.45" cy="304.23" rx="9" ry="12.2" transform="translate(-92.01 254.4) rotate(-29.14)"/><g class="cls-8"><ellipse class="cls-9" cx="443.65" cy="304.11" rx="6.9" ry="9.3" transform="translate(-91.93 254.49) rotate(-29.14)"/></g><ellipse class="cls-4" cx="443.45" cy="304.23" rx="6.7" ry="9.1" transform="translate(-92.01 254.4) rotate(-29.14)"/><path class="cls-5" d="M448.2,311.4c-3.1,1.7-7.5-.3-9.8-4.4s-1.7-8.9,1.4-10.7a4.75,4.75,0,0,1,2.6-.6,5,5,0,0,0-3.4.6c-3.2,1.8-3.9,6.8-1.5,11.2s7,6.4,10.3,4.6a5.82,5.82,0,0,0,2.3-2.6A4.35,4.35,0,0,1,448.2,311.4Z"/><path class="cls-11" d="M440.3,299.1h0l-9.5,5.3a2.51,2.51,0,1,0,2.4,4.4l9.5-5.3h0Z"/><path class="cls-9" d="M441.2,298.6h0l-9.5,5.3a2.51,2.51,0,1,0,2.4,4.4l9.5-5.3h0Z"/><g class="cls-12"><polygon class="cls-11" points="438.7 300 437.9 300.4 436 307.2 436.8 306.8 438.7 300"/><path class="cls-11" d="M433,303.1l-1.5,5.1a2.48,2.48,0,0,0,2.5,0l.9-.5,1.9-6.9Z"/><polygon class="cls-11" points="441 298.7 439.5 299.5 437.5 306.4 439 305.5 441 298.7"/></g><path class="cls-11" d="M443.7,305.2h0l-9.5,5.3a2.51,2.51,0,1,0,2.4,4.4l9.5-5.3h0Z"/><path class="cls-9" d="M444.5,304.7h0L435,310a2.51,2.51,0,1,0,2.4,4.4l9.5-5.3h0Z"/><g class="cls-13"><path class="cls-11" d="M436.1,309.4l-1.4,4.8a2.42,2.42,0,0,0,2.7.2l.6-.3,1.9-6.9Z"/><polygon class="cls-11" points="441.8 306.2 441 306.6 439.1 313.5 439.8 313.1 441.8 306.2"/><polygon class="cls-11" points="444.1 304.9 442.6 305.8 440.6 312.6 442.1 311.8 444.1 304.9"/></g><path class="cls-5" d="M412.4,262.2a6.58,6.58,0,0,1-2.8-.4c-.8-.3-1.2,1-.4,1.3a6.75,6.75,0,0,0,3.1.5c1-.1,1-1.4.1-1.4Z"/><path class="cls-5" d="M413.6,260.6a2.62,2.62,0,0,1-1.6-1.3c-.4-.8-1.6-.1-1.2.7a4.31,4.31,0,0,0,2.4,2,.73.73,0,0,0,.4-1.4Z"/><path class="cls-5" d="M413.2,263.8a5.33,5.33,0,0,0-2.3,1.6c-.5.7.4,1.7,1,1a4.31,4.31,0,0,1,1.7-1.3c.8-.2.4-1.6-.4-1.3Z"/><polygon class="cls-4" points="408.4 257.7 408.7 259.4 410.4 259.6 408.7 259.9 408.4 261.6 408.2 259.9 406.5 259.6 408.2 259.4 408.4 257.7"/><polygon class="cls-4" points="412.7 257 412.8 257.9 413.8 258.1 412.8 258.2 412.7 259.2 412.5 258.2 411.6 258.1 412.5 257.9 412.7 257"/><polygon class="cls-4" points="409.9 264.6 410 265.1 410.5 265.2 410 265.3 409.9 265.8 409.8 265.3 409.3 265.2 409.8 265.1 409.9 264.6"/><polygon class="cls-4" points="417.4 258.3 414.8 259.2 414.5 258.8 413.2 259.6 414.7 257.7 415 258.3 416.3 256.7 417.4 258.3"/><polygon class="cls-4" points="395.4 254.1 395.9 255.4 396.2 255.4 396.3 256.1 396.5 255 396.1 255 396.3 254 395.4 254.1"/><path class="cls-14" d="M464.3,280.5a11.9,11.9,0,0,1-1.3,9.2.69.69,0,1,0,1.2.7,12.62,12.62,0,0,0,1.4-10.2.67.67,0,0,0-1.3.3Z"/><path class="cls-14" d="M462.4,292.5a.7.7,0,0,0,0-1.4.7.7,0,0,0,0,1.4Z"/><path class="cls-14" d="M460.3,294.6a.7.7,0,0,0,0-1.4.7.7,0,0,0,0,1.4Z"/><path class="cls-14" d="M418,263.9c5.7.6,11.4,1.4,17.1,2.3.9.1,1.2-1.2.4-1.3-5.8-.9-11.6-1.7-17.5-2.4-.9-.1-.9,1.3,0,1.4Z"/><path class="cls-14" d="M438.2,266.5a.7.7,0,0,0,0-1.4.7.7,0,0,0,0,1.4Z"/><path class="cls-14" d="M440.6,267a.7.7,0,0,0,0-1.4.7.7,0,0,0,0,1.4Z"/><path class="cls-14" d="M331.8,216a18,18,0,0,0,.9,18.2c.5.7,1.7.1,1.2-.7a16.83,16.83,0,0,1-.9-16.8c.4-.8-.8-1.5-1.2-.7Z"/><path class="cls-14" d="M334.9,236.4a.7.7,0,0,0,0-1.4c-.8,0-.8,1.4,0,1.4Z"/><path class="cls-14" d="M336.2,238.6a.7.7,0,0,0,0-1.4c-.8,0-.8,1.4,0,1.4Z"/><path class="cls-14" d="M367.7,221.9a31.84,31.84,0,0,0,16.5-.8c.8-.3.5-1.6-.4-1.3a30.25,30.25,0,0,1-15.8.8c-.8-.2-1.2,1.2-.3,1.3Z"/><path class="cls-14" d="M385.9,219.6l.1.1c.6.6,1.6-.3,1-1l-.1-.1c-.7-.6-1.7.4-1,1Z"/><path class="cls-14" d="M388.5,218.6a.7.7,0,0,0,0-1.4.7.7,0,0,0,0,1.4Z"/><path class="cls-14" d="M389.8,216h.1a.7.7,0,0,0,0-1.4h-.1a.7.7,0,0,0,0,1.4Z"/><path class="cls-14" d="M333.2,196.6a92,92,0,0,0,6.9,9.5c.6.7,1.5-.3,1-1a85.58,85.58,0,0,1-6.6-9.2c-.6-.8-1.8-.1-1.3.7Z"/><path class="cls-14" d="M342.8,207.9a.7.7,0,0,0,0-1.4.7.7,0,0,0,0,1.4Z"/><path class="cls-14" d="M343.9,209.5l.1.1c.6.6,1.6-.3,1-1l-.1-.1c-.6-.6-1.6.4-1,1Z"/><path class="cls-15" d="M268.1,256.2H218a45.45,45.45,0,0,1-45.3-45.3V169.2A45.45,45.45,0,0,1,218,123.9h50.1a45.45,45.45,0,0,1,45.3,45.3V211A45.37,45.37,0,0,1,268.1,256.2Z"/><path class="cls-16" d="M223.2,291.2h0a6.52,6.52,0,0,1-4.7-7.9l8-31.1a6.52,6.52,0,0,1,7.9-4.7h0a6.52,6.52,0,0,1,4.7,7.9l-8,31.1A6.42,6.42,0,0,1,223.2,291.2Z"/><path class="cls-16" d="M289.9,291.2h0a6.52,6.52,0,0,0,4.7-7.9l-8-31.1a6.52,6.52,0,0,0-7.9-4.7h0a6.52,6.52,0,0,0-4.7,7.9l8,31.1A6.42,6.42,0,0,0,289.9,291.2Z"/><path class="cls-4" d="M209.5,299.5h0a6.52,6.52,0,0,1-4.7-7.9l8-31.1a6.52,6.52,0,0,1,7.9-4.7h0a6.52,6.52,0,0,1,4.7,7.9l-8,31.1A6.42,6.42,0,0,1,209.5,299.5Z"/><path class="cls-4" d="M304,299.5h0a6.52,6.52,0,0,0,4.7-7.9l-8-31.1a6.52,6.52,0,0,0-7.9-4.7h0a6.52,6.52,0,0,0-4.7,7.9l8,31.1A6.47,6.47,0,0,0,304,299.5Z"/><path class="cls-16" d="M197.1,269.5V247.6a10.5,10.5,0,0,1,10.5-10.5H306a10.5,10.5,0,0,1,10.5,10.5v21.9A10.5,10.5,0,0,1,306,280H207.7A10.52,10.52,0,0,1,197.1,269.5Z"/><circle class="cls-16" cx="258.4" cy="137.4" r="44.3"/><path class="cls-4" d="M286.9,106.1H226.7a71.87,71.87,0,0,0-71.8,71.8v24.4a71.87,71.87,0,0,0,71.8,71.8h60.2a71.87,71.87,0,0,0,71.8-71.8V177.9A71.87,71.87,0,0,0,286.9,106.1Z"/><path class="cls-9" d="M286.9,110.9H226.7A67.17,67.17,0,0,0,159.6,178v24.4a67.17,67.17,0,0,0,67.1,67.1h60.2A67.17,67.17,0,0,0,354,202.4V178A67.3,67.3,0,0,0,286.9,110.9Z"/><path class="cls-17" d="M334.9,152.6h-.6A14.3,14.3,0,0,0,320,166.9v46.4a14.3,14.3,0,0,0,14.3,14.3h.6a14.3,14.3,0,0,0,14.3-14.3V166.9A14.3,14.3,0,0,0,334.9,152.6Z"/><path class="cls-18" d="M334.6,225.9h0A12.93,12.93,0,0,1,321.7,213V167.2a12.93,12.93,0,0,1,12.9-12.9h0a12.93,12.93,0,0,1,12.9,12.9V213A12.93,12.93,0,0,1,334.6,225.9Z"/><path class="cls-19" d="M341.7,218.2H327.5a1.37,1.37,0,0,1-1.4-1.4V216a1.37,1.37,0,0,1,1.4-1.4h14.2a1.37,1.37,0,0,1,1.4,1.4v.8A1.43,1.43,0,0,1,341.7,218.2Z"/><path class="cls-19" d="M341.3,212.2H327.9a1.79,1.79,0,0,1-1.8-1.8h0a1.79,1.79,0,0,1,1.8-1.8h13.4a1.79,1.79,0,0,1,1.8,1.8h0A1.79,1.79,0,0,1,341.3,212.2Z"/><path class="cls-19" d="M341.3,206.3H327.9a1.79,1.79,0,0,1-1.8-1.8h0a1.79,1.79,0,0,1,1.8-1.8h13.4a1.79,1.79,0,0,1,1.8,1.8h0A1.79,1.79,0,0,1,341.3,206.3Z"/><path class="cls-19" d="M341.3,200.3H327.9a1.79,1.79,0,0,1-1.8-1.8h0a1.79,1.79,0,0,1,1.8-1.8h13.4a1.79,1.79,0,0,1,1.8,1.8h0A1.79,1.79,0,0,1,341.3,200.3Z"/><path class="cls-19" d="M341.3,194.4H327.9a1.79,1.79,0,0,1-1.8-1.8h0a1.79,1.79,0,0,1,1.8-1.8h13.4a1.79,1.79,0,0,1,1.8,1.8h0A1.79,1.79,0,0,1,341.3,194.4Z"/><path class="cls-19" d="M341.3,188.4H327.9a1.79,1.79,0,0,1-1.8-1.8h0a1.79,1.79,0,0,1,1.8-1.8h13.4a1.79,1.79,0,0,1,1.8,1.8h0A1.79,1.79,0,0,1,341.3,188.4Z"/><path class="cls-20" d="M341.3,218.6H327.9a1.79,1.79,0,0,1-1.8-1.8h0a1.79,1.79,0,0,1,1.8-1.8h13.4a1.79,1.79,0,0,1,1.8,1.8h0A1.79,1.79,0,0,1,341.3,218.6Z"/><path class="cls-20" d="M341.3,212.6H327.9a1.79,1.79,0,0,1-1.8-1.8h0a1.79,1.79,0,0,1,1.8-1.8h13.4a1.79,1.79,0,0,1,1.8,1.8h0A1.79,1.79,0,0,1,341.3,212.6Z"/><path class="cls-20" d="M341.3,206.7H327.9a1.79,1.79,0,0,1-1.8-1.8h0a1.79,1.79,0,0,1,1.8-1.8h13.4a1.79,1.79,0,0,1,1.8,1.8h0A1.79,1.79,0,0,1,341.3,206.7Z"/><path class="cls-20" d="M341.3,200.7H327.9a1.79,1.79,0,0,1-1.8-1.8h0a1.79,1.79,0,0,1,1.8-1.8h13.4a1.79,1.79,0,0,1,1.8,1.8h0A1.79,1.79,0,0,1,341.3,200.7Z"/><path class="cls-20" d="M341.3,194.8H327.9a1.79,1.79,0,0,1-1.8-1.8h0a1.79,1.79,0,0,1,1.8-1.8h13.4a1.79,1.79,0,0,1,1.8,1.8h0A1.86,1.86,0,0,1,341.3,194.8Z"/><path class="cls-20" d="M341.7,188.8H327.5a1.37,1.37,0,0,1-1.4-1.4v-.8a1.37,1.37,0,0,1,1.4-1.4h14.2a1.37,1.37,0,0,1,1.4,1.4v.8A1.43,1.43,0,0,1,341.7,188.8Z"/><circle class="cls-21" cx="321.7" cy="237.9" r="10.1"/><circle class="cls-4" cx="321.7" cy="237.9" r="8"/><circle class="cls-16" cx="321.7" cy="237.9" r="6.4"/><path class="cls-4" d="M325.7,233.9a2.23,2.23,0,0,0-3.2,0l-4.8,4.8a2.36,2.36,0,0,0-.7,1.6,2,2,0,0,0,.7,1.6,2.36,2.36,0,0,0,1.6.7,2.13,2.13,0,0,0,1.6-.7l4.8-4.8h0A2.23,2.23,0,0,0,325.7,233.9Z"/><path class="cls-16" d="M325.4,236.8l-4.8,4.8a1.75,1.75,0,0,1-2.5,0h0a1.75,1.75,0,0,1,0-2.5l4.8-4.8a1.75,1.75,0,0,1,2.5,0h0A1.75,1.75,0,0,1,325.4,236.8Z"/><circle class="cls-21" cx="294" cy="256.2" r="3.6"/><circle class="cls-21" cx="302.8" cy="256.2" r="3.6"/><circle class="cls-21" cx="311.5" cy="256.2" r="3.6"/><circle class="cls-16" cx="294" cy="256.2" r="2.9"/><circle class="cls-16" cx="302.8" cy="256.2" r="2.9"/><circle class="cls-16" cx="311.5" cy="256.2" r="2.9"/><circle class="cls-4" cx="294" cy="256.2" r="2.3"/><circle class="cls-4" cx="302.8" cy="256.2" r="2.3"/><circle class="cls-4" cx="311.5" cy="256.2" r="2.3"/><g class="cls-22"><path class="cls-21" d="M286.9,110.9H252.7l-93,93a67.32,67.32,0,0,0,22.7,48.7L317,118A67.71,67.71,0,0,0,286.9,110.9Z"/><path class="cls-21" d="M352.7,165.3a43.71,43.71,0,0,0-1.2-5.2L242.3,269.3h6.4Z"/><path class="cls-21" d="M344.8,144.1a69.13,69.13,0,0,0-8.5-11.6L203.6,265.2a67.94,67.94,0,0,0,16.3,3.8Z"/></g><path class="cls-23" d="M286.9,112.1A66,66,0,0,1,352.8,178v24.4a66,66,0,0,1-65.9,65.9H226.7a66,66,0,0,1-65.9-65.9V178a66,66,0,0,1,65.9-65.9h60.2m0-1.2H226.7A67.17,67.17,0,0,0,159.6,178v24.4a67.17,67.17,0,0,0,67.1,67.1h60.2A67.17,67.17,0,0,0,354,202.4V178a67.3,67.3,0,0,0-67.1-67.1Z"/><path class="cls-21" d="M259.5,121H226.7a56.93,56.93,0,0,0-56.9,56.9v24.4a56.93,56.93,0,0,0,56.9,56.9h32.8a56.93,56.93,0,0,0,56.9-56.9V177.9A56.93,56.93,0,0,0,259.5,121Z"/><path class="cls-15" d="M268.1,256.2H218a45.45,45.45,0,0,1-45.3-45.3V169.2A45.45,45.45,0,0,1,218,123.9h50.1a45.45,45.45,0,0,1,45.3,45.3V211A45.37,45.37,0,0,1,268.1,256.2Z"/><path class="cls-24" d="M241.2,101.3h0a1.78,1.78,0,0,1-2.4-.6L216,60.5a1.78,1.78,0,0,1,.6-2.4h0a1.78,1.78,0,0,1,2.4.6l22.9,40.2A1.7,1.7,0,0,1,241.2,101.3Z"/><path class="cls-4" d="M220.5,55.9a11.08,11.08,0,0,0-4.3,1.5,13.17,13.17,0,0,0-3.5,2.9l-1.4.8.9,1.5c.7,1.2,3.6.9,6.5-.8s4.7-4,4-5.2l-.9-1.5Z"/><ellipse class="cls-24" cx="216.59" cy="58.14" rx="6.1" ry="2.6" transform="translate(-0.37 114.88) rotate(-29.68)"/><path class="cls-24" d="M274.2,101.2a2.92,2.92,0,0,1-.9-.2,1.69,1.69,0,0,1-.6-2.4l5.3-9a2,2,0,0,1,1.3-.9l3.3-.4-1.4-3.8a1.8,1.8,0,0,1,.2-1.6,1.76,1.76,0,0,1,1.5-.8h4.2l-.9-7.1a2,2,0,0,1,.2-1.1l8.9-15.4a1.73,1.73,0,0,1,2.4-.7,1.81,1.81,0,0,1,.7,2.4L289.7,75l1.1,8.5a1.79,1.79,0,0,1-.4,1.4,1.61,1.61,0,0,1-1.3.6h-3.7l1.3,3.5a1.6,1.6,0,0,1-.2,1.5,1.56,1.56,0,0,1-1.3.8l-4.7.6-4.8,8.2A1.55,1.55,0,0,1,274.2,101.2Z"/><path class="cls-4" d="M293.4,55.9a11.08,11.08,0,0,1,4.3,1.5,13.17,13.17,0,0,1,3.5,2.9l1.4.8-.9,1.5c-.7,1.2-3.6.9-6.5-.8s-4.7-4-4-5.2l.9-1.5Z"/><ellipse class="cls-24" cx="297.26" cy="58.09" rx="2.6" ry="6.1" transform="translate(99.59 287.58) rotate(-60.32)"/><polygon class="cls-25" points="179.1 178.4 179.9 177.9 180.4 177.1 180.8 177.9 181.7 178.4 180.8 178.8 180.4 179.7 179.9 178.8 179.1 178.4"/><polygon class="cls-25" points="231.8 164.2 232.7 163.7 233.1 162.9 233.6 163.7 234.4 164.2 233.6 164.6 233.1 165.5 232.7 164.6 231.8 164.2"/><polygon class="cls-25" points="249.7 178.1 250.5 177.7 251 176.8 251.4 177.7 252.3 178.1 251.4 178.6 251 179.4 250.5 178.6 249.7 178.1"/><polygon class="cls-25" points="260.1 175.2 260.9 174.7 261.4 173.9 261.9 174.7 262.7 175.2 261.9 175.6 261.4 176.5 260.9 175.6 260.1 175.2"/><polygon class="cls-25" points="304.6 194.8 305.4 194.3 305.9 193.5 306.3 194.3 307.2 194.8 306.3 195.2 305.9 196 305.4 195.2 304.6 194.8"/><polygon class="cls-25" points="267.5 164.9 268.4 164.5 268.8 163.6 269.3 164.5 270.1 164.9 269.3 165.4 268.8 166.2 268.4 165.4 267.5 164.9"/><polygon class="cls-25" points="260.1 164.4 260.9 163.9 261.4 163.1 261.9 163.9 262.7 164.4 261.9 164.8 261.4 165.7 260.9 164.8 260.1 164.4"/><polygon class="cls-25" points="273.2 179.4 274.1 179 274.5 178.1 275 179 275.8 179.4 275 179.9 274.5 180.7 274.1 179.9 273.2 179.4"/><polygon class="cls-25" points="277 144.6 277.3 144.5 277.4 144.2 277.6 144.5 277.9 144.6 277.6 144.8 277.4 145.1 277.3 144.8 277 144.6"/><polygon class="cls-25" points="266.9 155.7 267.2 155.6 267.4 155.3 267.6 155.6 267.9 155.7 267.6 155.9 267.4 156.2 267.2 155.9 266.9 155.7"/><polygon class="cls-25" points="261.9 159 262.2 158.9 262.4 158.6 262.6 158.9 262.9 159 262.6 159.2 262.4 159.5 262.2 159.2 261.9 159"/><polygon class="cls-25" points="293.2 234.1 293.5 233.9 293.6 233.6 293.8 233.9 294.1 234.1 293.8 234.3 293.6 234.6 293.5 234.3 293.2 234.1"/><polygon class="cls-25" points="304.6 215.2 304.9 215 305.1 214.7 305.2 215 305.5 215.2 305.2 215.4 305.1 215.7 304.9 215.4 304.6 215.2"/><polygon class="cls-25" points="251.8 251.3 252.1 251.2 252.3 250.9 252.4 251.2 252.7 251.3 252.4 251.5 252.3 251.8 252.1 251.5 251.8 251.3"/><polygon class="cls-25" points="272.7 248.1 273.1 247.9 273.2 247.6 273.4 247.9 273.7 248.1 273.4 248.2 273.2 248.5 273.1 248.2 272.7 248.1"/><polygon class="cls-25" points="253.9 232.8 254.2 232.7 254.4 232.3 254.6 232.7 254.9 232.8 254.6 233 254.4 233.3 254.2 233 253.9 232.8"/><polygon class="cls-25" points="218.3 129.2 218.6 129 218.7 128.7 218.9 129 219.2 129.2 218.9 129.3 218.7 129.6 218.6 129.3 218.3 129.2"/><polygon class="cls-25" points="237.8 137.9 238.2 137.7 238.3 137.4 238.5 137.7 238.8 137.9 238.5 138 238.3 138.3 238.2 138 237.8 137.9"/><polygon class="cls-25" points="244.3 129.2 244.6 129 244.8 128.7 245 129 245.3 129.2 245 129.3 244.8 129.6 244.6 129.3 244.3 129.2"/><polygon class="cls-25" points="283.3 138.8 283.6 138.6 283.8 138.3 284 138.6 284.3 138.8 284 139 283.8 139.3 283.6 139 283.3 138.8"/><polygon class="cls-25" points="270.2 172.8 270.5 172.7 270.6 172.4 270.8 172.7 271.1 172.8 270.8 173 270.6 173.3 270.5 173 270.2 172.8"/><polygon class="cls-25" points="259.7 182.4 260.1 182.2 260.3 181.7 260.6 182.2 261 182.4 260.6 182.6 260.3 183 260.1 182.6 259.7 182.4"/><polygon class="cls-25" points="255.1 196.7 255.5 196.5 255.7 196.1 255.9 196.5 256.4 196.7 255.9 197 255.7 197.4 255.5 197 255.1 196.7"/><polygon class="cls-25" points="270 194 270.4 193.8 270.6 193.4 270.9 193.8 271.3 194 270.9 194.2 270.6 194.6 270.4 194.2 270 194"/><polygon class="cls-25" points="220.3 184.6 220.8 184.4 221 184 221.2 184.4 221.6 184.6 221.2 184.9 221 185.3 220.8 184.9 220.3 184.6"/><polygon class="cls-25" points="223.6 178.1 224 177.9 224.2 177.5 224.5 177.9 224.9 178.1 224.5 178.4 224.2 178.8 224 178.4 223.6 178.1"/><polygon class="cls-25" points="215.2 170.6 215.6 170.4 215.8 170 216 170.4 216.4 170.6 216 170.8 215.8 171.2 215.6 170.8 215.2 170.6"/><polygon class="cls-25" points="223 170 223.4 169.8 223.6 169.4 223.8 169.8 224.2 170 223.8 170.2 223.6 170.6 223.4 170.2 223 170"/><polygon class="cls-25" points="210.8 162.8 211.2 162.6 211.4 162.2 211.7 162.6 212.1 162.8 211.7 163 211.4 163.4 211.2 163 210.8 162.8"/><polygon class="cls-25" points="211.9 198.9 212.7 199.4 213.2 200.2 213.6 199.4 214.5 198.9 213.6 198.4 213.2 197.6 212.7 198.4 211.9 198.9"/><polygon class="cls-25" points="223.3 240.7 224.1 241.1 224.6 241.9 225 241.1 225.9 240.7 225 240.2 224.6 239.4 224.1 240.2 223.3 240.7"/><polygon class="cls-25" points="234.8 227.7 235.6 228.2 236.1 229 236.5 228.2 237.4 227.7 236.5 227.3 236.1 226.5 235.6 227.3 234.8 227.7"/><polygon class="cls-25" points="277.8 232.8 278.6 233.3 279.1 234.1 279.5 233.3 280.4 232.8 279.5 232.4 279.1 231.5 278.6 232.4 277.8 232.8"/><polygon class="cls-25" points="295.7 205.4 296.5 205.8 297 206.7 297.5 205.8 298.3 205.4 297.5 204.9 297 204.1 296.5 204.9 295.7 205.4"/><polygon class="cls-25" points="274.5 217.8 275.3 218.2 275.8 219.1 276.2 218.2 277.1 217.8 276.2 217.3 275.8 216.5 275.3 217.3 274.5 217.8"/><polygon class="cls-25" points="238.3 157.3 239.1 157.7 239.6 158.6 240 157.7 240.9 157.3 240 156.8 239.6 156 239.1 156.8 238.3 157.3"/><polygon class="cls-25" points="238.3 183 239.1 183.5 239.6 184.3 240 183.5 240.9 183 240 182.5 239.6 181.7 239.1 182.5 238.3 183"/><polygon class="cls-25" points="217.4 142.9 218.3 143.3 218.7 144.2 219.2 143.3 220 142.9 219.2 142.4 218.7 141.6 218.3 142.4 217.4 142.9"/><polygon class="cls-25" points="254.9 127.9 255.8 128.3 256.2 129.2 256.7 128.3 257.5 127.9 256.7 127.4 256.2 126.6 255.8 127.4 254.9 127.9"/><polygon class="cls-25" points="301.9 150.4 302.7 150.9 303.2 151.7 303.6 150.9 304.5 150.4 303.6 150 303.2 149.1 302.7 150 301.9 150.4"/><polygon class="cls-25" points="291.1 192.1 291.9 192.5 292.3 193.4 292.8 192.5 293.6 192.1 292.8 191.6 292.3 190.8 291.9 191.6 291.1 192.1"/><polygon class="cls-25" points="291.1 148.5 291.9 149 292.3 149.8 292.8 149 293.6 148.5 292.8 148.1 292.3 147.2 291.9 148.1 291.1 148.5"/><polygon class="cls-25" points="247.3 159 248.2 159.5 248.6 160.3 249.1 159.5 249.9 159 249.1 158.6 248.6 157.8 248.2 158.6 247.3 159"/><polygon class="cls-25" points="181.7 222.3 182.5 222.8 183 223.6 183.4 222.8 184.2 222.3 183.4 221.9 183 221 182.5 221.9 181.7 222.3"/><polygon class="cls-25" points="206.2 232.8 207 233.3 207.5 234.1 207.9 233.3 208.8 232.8 207.9 232.4 207.5 231.5 207 232.4 206.2 232.8"/><polygon class="cls-26" points="303.2 245.7 304 246.2 304.5 247 304.9 246.2 305.7 245.7 304.9 245.3 304.5 244.4 304 245.3 303.2 245.7"/><polygon class="cls-25" points="253.1 216.5 253.9 216.9 254.4 217.8 254.9 216.9 255.7 216.5 254.9 216 254.4 215.2 253.9 216 253.1 216.5"/><polygon class="cls-25" points="229.2 209.1 230 209.6 230.5 210.4 230.9 209.6 231.8 209.1 230.9 208.7 230.5 207.8 230 208.7 229.2 209.1"/><polygon class="cls-25" points="196.6 221 197.4 221.5 197.8 222.3 198.3 221.5 199.1 221 198.3 220.6 197.8 219.8 197.4 220.6 196.6 221"/><polygon class="cls-25" points="216.2 212.2 216.6 212.4 216.8 212.8 217 212.4 217.4 212.2 217 212 216.8 211.6 216.6 212 216.2 212.2"/><polygon class="cls-25" points="190.7 201.8 191.1 202 191.3 202.4 191.6 202 192 201.8 191.6 201.5 191.3 201.1 191.1 201.5 190.7 201.8"/><polygon class="cls-25" points="242.2 245.5 242.6 245.7 242.8 246.1 243 245.7 243.4 245.5 243 245.3 242.8 244.9 242.6 245.3 242.2 245.5"/><polygon class="cls-25" points="255 201.2 255.4 201.5 255.6 201.9 255.8 201.5 256.2 201.2 255.8 201 255.6 200.6 255.4 201 255 201.2"/><polygon class="cls-25" points="264.5 209.9 264.9 210.1 265.1 210.5 265.4 210.1 265.8 209.9 265.4 209.6 265.1 209.2 264.9 209.6 264.5 209.9"/><polygon class="cls-25" points="237 200.2 237.5 200.4 237.7 200.8 237.9 200.4 238.3 200.2 237.9 200 237.7 199.6 237.5 200 237 200.2"/><polygon class="cls-25" points="189.5 153.1 189.9 153.4 190.1 153.8 190.3 153.4 190.7 153.1 190.3 152.9 190.1 152.5 189.9 152.9 189.5 153.1"/><polygon class="cls-25" points="183.6 170.1 184 170.4 184.2 170.8 184.5 170.4 184.9 170.1 184.5 169.9 184.2 169.5 184 169.9 183.6 170.1"/><polygon class="cls-25" points="201.4 177.5 201.8 177.7 202 178.1 202.2 177.7 202.7 177.5 202.2 177.3 202 176.9 201.8 177.3 201.4 177.5"/><polygon class="cls-25" points="202 162.2 202.4 162.4 202.7 162.8 202.9 162.4 203.3 162.2 202.9 161.9 202.7 161.5 202.4 161.9 202 162.2"/><polygon class="cls-25" points="199.1 202.4 199.5 202.6 199.8 203 200 202.6 200.4 202.4 200 202.2 199.8 201.8 199.5 202.2 199.1 202.4"/><polygon class="cls-25" points="249.3 142.9 249.7 143.1 249.9 143.5 250.1 143.1 250.5 142.9 250.1 142.7 249.9 142.3 249.7 142.7 249.3 142.9"/><polygon class="cls-25" points="296.4 170 296.8 170.2 297 170.6 297.2 170.2 297.6 170 297.2 169.8 297 169.4 296.8 169.8 296.4 170"/><polygon class="cls-25" points="200.8 148.5 201.2 148.3 201.4 147.9 201.6 148.3 202 148.5 201.6 148.7 201.4 149.1 201.2 148.7 200.8 148.5"/><polygon class="cls-25" points="197.3 134.2 197.7 134 197.9 133.6 198.1 134 198.5 134.2 198.1 134.5 197.9 134.9 197.7 134.5 197.3 134.2"/><polygon class="cls-25" points="248.6 187.4 249 187.2 249.2 186.8 249.5 187.2 249.9 187.4 249.5 187.6 249.2 188 249 187.6 248.6 187.4"/><polygon class="cls-25" points="264 188 264.4 187.8 264.6 187.4 264.8 187.8 265.2 188 264.8 188.2 264.6 188.7 264.4 188.2 264 188"/><g class="cls-27"><path class="cls-28" d="M229,243.6c-.6,2.7-5.6,13-2.8,13.6,2.4.5,11.6,3.3,12.5,1,.4.2,4-3.9,4.4-3.8,1.3.3,1.3-.6,2.3-1.2.8,3.4,1.6-.7,5.3.1a9.61,9.61,0,0,0,6.9-1.2,18.78,18.78,0,0,0,33.9-6.8,18.14,18.14,0,0,0-.9-10.6c.7.2,1.4.4,2.2.6a18.79,18.79,0,1,0-14.6-22.2,18.14,18.14,0,0,0,.9,10.6c-.7-.2-1.4-.4-2.2-.6a18.83,18.83,0,0,0-21.5,12.1,2.92,2.92,0,0,0-.9-.2,9.54,9.54,0,0,0-9.7,3.9,4.56,4.56,0,0,0-2.9-1.7,5,5,0,0,0-5.7,3.1,5.64,5.64,0,0,0-1.2-.4A4.82,4.82,0,0,0,229,243.6Zm-63.7-50.5a19.72,19.72,0,0,0-5.8,10.1,19.05,19.05,0,0,0,14.8,22.5,25.58,25.58,0,0,0,4.7.4,12.82,12.82,0,0,0,19.4,12.2,8.87,8.87,0,0,0,6.9,7,9.18,9.18,0,0,0,5.7-.7c1.2,1.7.2,12.7,2.4,13.1,3.1.6,11.7-3.1,13.7-5.2,2.5.2,2.1-8.6,2.6-11.2a4.94,4.94,0,0,0-3.7-5.9,8.43,8.43,0,0,0-6.1-4.7,9.18,9.18,0,0,0-5.7.7,8.26,8.26,0,0,0-5.3-3.3,8.44,8.44,0,0,0-4.2.2,12.85,12.85,0,0,0-9.2-13.2,19.85,19.85,0,0,0,1.4-4.1,19.05,19.05,0,0,0-6.6-18.6A18.8,18.8,0,1,0,159,174.9,18.91,18.91,0,0,0,165.3,193.1Z"/><g class="cls-29"><path class="cls-9" d="M190.2,193.2l.5-.5a18.89,18.89,0,0,1,6.2,18.3c0,.1-.1.3-.1.4A18.92,18.92,0,0,0,190.2,193.2Z"/><path class="cls-9" d="M225.8,236.2a8.43,8.43,0,0,0-6.1-4.7,9.18,9.18,0,0,0-5.7.7,8.26,8.26,0,0,0-5.3-3.3,8.44,8.44,0,0,0-4.2.2,12.85,12.85,0,0,0-9.2-13.2c.1-.2.2-.5.3-.7a12.84,12.84,0,0,1,9,13.1,8.5,8.5,0,0,1,4.2-.2,9.48,9.48,0,0,1,5.3,3.3,8.53,8.53,0,0,1,5.7-.7,8.73,8.73,0,0,1,6.1,4.7,5,5,0,0,1,3.7,5.9c0,.1-.1.2-.1.4A4.76,4.76,0,0,0,225.8,236.2Z"/><path class="cls-9" d="M181.1,161.1a18.85,18.85,0,0,0-22.2,14.3.6.6,0,0,1,.1-.4,18.79,18.79,0,0,1,36.8,7.6c0,.1-.1.3-.1.4A18.59,18.59,0,0,0,181.1,161.1Z"/><path class="cls-9" d="M229.6,242.2h0a5.11,5.11,0,0,1,5.4-2.5,5.64,5.64,0,0,1,1.2.4,5.12,5.12,0,0,1,5.7-3.1,5,5,0,0,1,2.9,1.7,9.47,9.47,0,0,1,9.7-3.9c.3.1.6.1.9.2a18.83,18.83,0,0,1,21.5-12.1,8.45,8.45,0,0,1,1.7.5l.3.9c-.7-.2-1.4-.4-2.2-.6a18.83,18.83,0,0,0-21.5,12.1,2.92,2.92,0,0,0-.9-.2,9.54,9.54,0,0,0-9.7,3.9,4.56,4.56,0,0,0-2.9-1.7,5,5,0,0,0-5.7,3.1,5.64,5.64,0,0,0-1.2-.4,5.06,5.06,0,0,0-5.9,3.6.76.76,0,0,1,.1-.4h0A4.71,4.71,0,0,0,229.6,242.2Z"/><path class="cls-9" d="M300.2,199.1A18.85,18.85,0,0,0,278,213.4a.6.6,0,0,1,.1-.4,18.79,18.79,0,0,1,36.8,7.6c0,.1-.1.2-.1.4A18.69,18.69,0,0,0,300.2,199.1Z"/><path class="cls-9" d="M165.2,193.9a18.26,18.26,0,0,0-5.6,9.7.37.37,0,0,1,.1-.3,19.3,19.3,0,0,1,5.3-9.7C165,193.7,165.1,193.8,165.2,193.9Z"/><path class="cls-9" d="M290.9,235.5a18.67,18.67,0,0,1,.6,9.7c0,.1-.1.2-.1.3a18.59,18.59,0,0,0-1-10.2C290.6,235.4,290.7,235.5,290.9,235.5Z"/></g></g><g class="cls-27"><path class="cls-30" d="M231,254.9a7.72,7.72,0,0,0-1.5.2,6.22,6.22,0,0,0-6.1-5.1,6,6,0,0,0-3.9,1.4,11.53,11.53,0,0,0-10.6-7.1,4.1,4.1,0,0,0-1.1.1A23.15,23.15,0,0,0,185,224.5a26.35,26.35,0,0,0-2.8.2,23.08,23.08,0,1,0-19.4,10.6,26.35,26.35,0,0,0,2.8-.2A23.07,23.07,0,0,0,185,270.7a23.49,23.49,0,0,0,16-6.4,11.46,11.46,0,0,0,7.9,3.2,11.64,11.64,0,0,0,10.4-6.5,6.26,6.26,0,0,0,4.2,1.6,7.72,7.72,0,0,0,1.5-.2,6.2,6.2,0,0,0,12.3-1.1A6.42,6.42,0,0,0,231,254.9ZM338.2,196a23.1,23.1,0,1,0-42,13.2,23.44,23.44,0,0,0-11.9,26A15.75,15.75,0,0,0,270,248.8a10.51,10.51,0,0,0-12.1,1.4,10.78,10.78,0,0,0-6.6-2.3,10.56,10.56,0,0,0-8.5,4.2,6.26,6.26,0,0,0-6,6.2,6.33,6.33,0,0,0,5.4,6.2,10.89,10.89,0,0,0,9.1,5.1,10.62,10.62,0,0,0,7.1-2.7,10.75,10.75,0,0,0,16.6-4.4,15.5,15.5,0,0,0,10.6,4.2,15.72,15.72,0,0,0,15.6-14.1,22.55,22.55,0,0,0,5.8.8A23.43,23.43,0,0,0,330.4,230a22.79,22.79,0,0,0-4.4-13.6A23.21,23.21,0,0,0,338.2,196Z"/><g class="cls-29"><path class="cls-9" d="M296.3,210.2a2.51,2.51,0,0,1-.4-.7,23.23,23.23,0,0,0-12,20.4v.5A23,23,0,0,1,296.3,210.2Z"/><path class="cls-9" d="M242.8,253a11,11,0,0,1,8.5-4.2,10.78,10.78,0,0,1,6.6,2.3,10.51,10.51,0,0,1,12.1-1.4,15.84,15.84,0,0,1,14.3-13.6c-.1-.3-.1-.6-.2-.9A15.73,15.73,0,0,0,270,248.7a10.51,10.51,0,0,0-12.1,1.4,10.78,10.78,0,0,0-6.6-2.3,10.56,10.56,0,0,0-8.5,4.2,6.26,6.26,0,0,0-6,6.2v.5A6.42,6.42,0,0,1,242.8,253Z"/><path class="cls-9" d="M315.1,173.9a23,23,0,0,1,23,22.7v-.5a23.1,23.1,0,0,0-46.2,0v.5A23.31,23.31,0,0,1,315.1,173.9Z"/><path class="cls-9" d="M236.9,259.2h0a6.15,6.15,0,0,0-5.9-4.3,7.72,7.72,0,0,0-1.5.2,6.22,6.22,0,0,0-6.1-5.1,6,6,0,0,0-3.9,1.4,11.53,11.53,0,0,0-10.6-7.1,4.1,4.1,0,0,0-1.1.1A23.15,23.15,0,0,0,185,224.5c-.7,0-1.5.1-2.2.1-.2.3-.4.7-.6,1a24.58,24.58,0,0,1,2.8-.2,23,23,0,0,1,22.8,19.9c.4,0,.7-.1,1.1-.1a11.38,11.38,0,0,1,10.6,7.1,6,6,0,0,1,3.9-1.4,6.14,6.14,0,0,1,6.1,5.1,7.72,7.72,0,0,1,1.5-.2,6.16,6.16,0,0,1,6.2,5.8v-.5h0A5.82,5.82,0,0,1,236.9,259.2Z"/><path class="cls-9" d="M162.8,190.1a23,23,0,0,1,23,22.7v-.5a23.1,23.1,0,0,0-46.2,0v.5A23.31,23.31,0,0,1,162.8,190.1Z"/><path class="cls-9" d="M326.1,217.2a22.89,22.89,0,0,1,4.4,13.1v-.4a23.63,23.63,0,0,0-3.9-12.9C326.4,217.1,326.3,217.2,326.1,217.2Z"/><path class="cls-9" d="M164.9,236.1a22.5,22.5,0,0,0-3.1,11.5v.4a22.64,22.64,0,0,1,3.7-12C165.3,236,165.1,236.1,164.9,236.1Z"/></g></g><circle class="cls-31" cx="285.6" cy="194.7" r="1.9"/><path class="cls-31" d="M286.7,193.5h0l-6.9-6.9v.6l-9.9-8.3.1.6-6.2-3.9,4.5,5.7h-.6l9.7,8.6-.6.1,7.6,5.6c.1.2.4.4.6.6a1.64,1.64,0,0,0,2.2-.7A1.87,1.87,0,0,0,286.7,193.5Z"/><path class="cls-32" d="M285.3,195.8a3.45,3.45,0,0,1,.9-.8c.2-.2.4-.3.6-.5l-4-4v.4l-6-5,.1.4-8.1-6.2,7.1,7.3h-.4l5.8,5.2-.4.1Z"/><circle class="cls-33" cx="285.6" cy="194.7" r="1.5"/><path class="cls-34" d="M285,195.3a.55.55,0,0,0-.5.3,1.19,1.19,0,0,0,.9.5.37.37,0,0,0,.1-.3A.54.54,0,0,0,285,195.3Zm0-.8a.3.3,0,1,0,.3.3A.27.27,0,0,0,285,194.5Zm1-.1a.4.4,0,1,0-.4-.4C285.5,194.2,285.7,194.4,286,194.4Zm-1.1-.2a.47.47,0,0,0,.5-.5.37.37,0,0,0-.1-.3,1.46,1.46,0,0,0-.9.6A.76.76,0,0,0,284.9,194.2Zm.9.6c0-.1,0-.1-.1-.1s-.1,0-.1.1,0,.1.1.1S285.8,194.9,285.8,194.8Zm-.1.4a.2.2,0,1,0,.2-.2A.22.22,0,0,0,285.7,195.2Zm1.2-1.2h0a.68.68,0,0,0-.7.7.71.71,0,0,0,.3.6.52.52,0,0,0-.2.4c0,.1.1.3.2.3a1.43,1.43,0,0,0,.6-1.2A1.08,1.08,0,0,0,286.9,194Zm-.9,1.9a.32.32,0,0,0-.3.3h0c.2,0,.3-.1.5-.1A.22.22,0,0,0,286,195.9Z"/><g class="cls-35"><path class="cls-36" d="M284.9,194.2h0a.55.55,0,0,1-.5-.3,1.46,1.46,0,0,1,.9-.6h0a1.46,1.46,0,0,0-.9.6A.55.55,0,0,0,284.9,194.2Z"/><path class="cls-36" d="M284.5,195.7a.55.55,0,0,1,.5-.3h0c-.2-.1-.4.1-.5.3a1.05,1.05,0,0,0,.9.5h0A1.05,1.05,0,0,1,284.5,195.7Z"/><path class="cls-36" d="M284.6,194.8a.27.27,0,0,0,.3.3h0q-.15,0-.3-.3a.32.32,0,0,1,.3-.3h0A.32.32,0,0,0,284.6,194.8Z"/><path class="cls-36" d="M286,195.4h0a.2.2,0,1,1,0-.4h0a.22.22,0,0,0-.2.2C285.7,195.3,285.8,195.4,286,195.4Z"/><path class="cls-36" d="M286,194.4h0a.4.4,0,1,1,0-.8h0a.43.43,0,0,0-.4.4C285.5,194.2,285.7,194.4,286,194.4Z"/><path class="cls-36" d="M286.4,195.6a.76.76,0,0,1,.2-.4.6.6,0,0,1-.3-.6.68.68,0,0,1,.7-.7h0a.68.68,0,0,0-.7.7.71.71,0,0,0,.3.6c-.2.1-.3.3-.2.4s.1.3.2.3h0C286.4,195.9,286.4,195.7,286.4,195.6Z"/><path class="cls-36" d="M285.8,196.2c0-.1.1-.3.2-.3h0c-.1,0-.3.2-.2.3Z"/><path class="cls-36" d="M285.7,194.9c-.1,0-.1,0-.1-.1s0-.1.1-.1h0c-.1,0-.1,0-.1.1a.1.1,0,0,0,.1.1Z"/></g><circle class="cls-31" cx="243.2" cy="184.7" r="39.1"/><circle class="cls-31" cx="243.2" cy="184.7" r="31.3"/><circle class="cls-37" cx="243.2" cy="184.7" r="25.7"/><path class="cls-36" d="M231.8,195.1a9.27,9.27,0,0,0-8.6,5.6,25.74,25.74,0,0,0,16.2,9.3,9.76,9.76,0,0,0,1.8-5.5A9.39,9.39,0,0,0,231.8,195.1Zm0-15.4a5.7,5.7,0,1,0,5.7,5.7A5.7,5.7,0,0,0,231.8,179.7Zm16.8-1.5a7,7,0,1,0-7-7A7,7,0,0,0,248.6,178.2Zm-18.1-3.3a9.38,9.38,0,0,0,7.3-15.3,25.88,25.88,0,0,0-15.6,10.3A9.56,9.56,0,0,0,230.5,174.9Zm16.3,11.2a1.8,1.8,0,1,0-1.8,1.8A1.73,1.73,0,0,0,246.8,186.1Zm-1.9,6.4a3.7,3.7,0,1,0,3.7-3.7A3.69,3.69,0,0,0,244.9,192.5Zm20.4-20.9h0a12,12,0,0,0-12,11.9,11.59,11.59,0,0,0,5.4,9.9,7.32,7.32,0,0,0-3.3,6.1,7.06,7.06,0,0,0,2.9,5.8,25.57,25.57,0,0,0,10.5-20.7A26.34,26.34,0,0,0,265.3,171.6Zm-16,33.8a4.44,4.44,0,0,0-4.4,4.4v.5a24.7,24.7,0,0,0,8.5-2.1A4.38,4.38,0,0,0,249.3,205.4Z"/><g class="cls-35"><path class="cls-36" d="M230.5,174.9h.2a9.33,9.33,0,0,1-8.2-5,25.71,25.71,0,0,1,15.4-10.2v-.1a25.88,25.88,0,0,0-15.6,10.3A9.28,9.28,0,0,0,230.5,174.9Z"/><path class="cls-36" d="M223.4,200.8a9.24,9.24,0,0,1,8.5-5.6h-.2a9.27,9.27,0,0,0-8.6,5.6,25.74,25.74,0,0,0,16.2,9.3h0A26.5,26.5,0,0,1,223.4,200.8Z"/><path class="cls-36" d="M226.1,185.4a5.7,5.7,0,0,0,5.7,5.7h.1a5.7,5.7,0,0,1,0-11.4h-.1A5.63,5.63,0,0,0,226.1,185.4Z"/><path class="cls-36" d="M248.6,196.2h.1a3.65,3.65,0,0,1-3.5-3.7,3.72,3.72,0,0,1,3.5-3.7h-.1a3.69,3.69,0,0,0-3.7,3.7A3.76,3.76,0,0,0,248.6,196.2Z"/><path class="cls-36" d="M248.6,178.2h.1a7,7,0,0,1,0-14h-.1a7,7,0,1,0,0,14Z"/><path class="cls-36" d="M255.6,199.6a7.19,7.19,0,0,1,3.3-6.1,11.86,11.86,0,0,1,6.3-21.8h-.1a11.86,11.86,0,0,0-11.9,11.9,11.59,11.59,0,0,0,5.4,9.9,7.32,7.32,0,0,0-3.3,6.1,7.06,7.06,0,0,0,2.9,5.8l.1-.1A7.42,7.42,0,0,1,255.6,199.6Z"/><path class="cls-36" d="M245.1,209.8a4.42,4.42,0,0,1,4.3-4.4h-.1a4.44,4.44,0,0,0-4.4,4.4v.5h.3C245.2,210.1,245.1,210,245.1,209.8Z"/><path class="cls-36" d="M245.1,188a1.84,1.84,0,0,1-1.7-1.8,1.77,1.77,0,0,1,1.7-1.8H245a1.8,1.8,0,0,0,0,3.6Z"/></g><circle class="cls-31" cx="283.8" cy="158.8" r="2.9"/><path class="cls-31" d="M285.4,156.9h0L275,146.5v.9L260.1,135l.1.9-9.3-5.8,6.8,8.6h-.9l14.5,12.8-.9.1,11.3,8.4a2,2,0,0,0,.9.9,2.45,2.45,0,0,0,3.3-1A2.59,2.59,0,0,0,285.4,156.9Z"/><path class="cls-32" d="M283.2,160.3a8,8,0,0,1,1.3-1.3,3.59,3.59,0,0,1,1-.7l-6.1-6.1v.6l-9-7.5.1.6-12.2-9.3,10.7,11h-.6l8.8,7.8-.6.1Z"/><circle class="cls-33" cx="283.8" cy="158.8" r="2.2"/><path class="cls-34" d="M282.8,159.7a.75.75,0,0,0-.7.5,2.19,2.19,0,0,0,1.4.8.76.76,0,0,0,.2-.5A1,1,0,0,0,282.8,159.7Zm0-1.4a.5.5,0,1,0,.5.5A.54.54,0,0,0,282.8,158.3Zm1.4-.1a.6.6,0,1,0-.6-.6A.65.65,0,0,0,284.2,158.2Zm-1.6-.3a.79.79,0,0,0,.8-.8.76.76,0,0,0-.2-.5,2.16,2.16,0,0,0-1.4.9C282.1,157.7,282.3,157.9,282.6,157.9Zm1.5,1a.2.2,0,1,0-.2.2C284,159,284.1,159,284.1,158.9Zm-.2.5a.3.3,0,1,0,.3-.3A.45.45,0,0,0,283.9,159.4Zm1.8-1.8h0a1,1,0,0,0-1,1,1.05,1.05,0,0,0,.5.9.57.57,0,0,0,0,1,2.14,2.14,0,0,0,.9-1.8A4.87,4.87,0,0,0,285.7,157.6Zm-1.4,3a.43.43,0,0,0-.4.4h0a1.45,1.45,0,0,0,.7-.2C284.6,160.7,284.4,160.6,284.3,160.6Z"/><g class="cls-35"><path class="cls-36" d="M282.6,157.9h0a.84.84,0,0,1-.7-.4,2.38,2.38,0,0,1,1.3-.9h0a2.16,2.16,0,0,0-1.4.9C282.1,157.7,282.3,157.9,282.6,157.9Z"/><path class="cls-36" d="M282,160.2a.75.75,0,0,1,.7-.5h0a.75.75,0,0,0-.7.5,2.19,2.19,0,0,0,1.4.8h0A2.85,2.85,0,0,1,282,160.2Z"/><path class="cls-36" d="M282.3,158.8a.47.47,0,0,0,.5.5h0a.5.5,0,0,1,0-1h0A.47.47,0,0,0,282.3,158.8Z"/><path class="cls-36" d="M284.2,159.8h0a.3.3,0,1,1,0-.6h0a.27.27,0,0,0-.3.3A.45.45,0,0,0,284.2,159.8Z"/><path class="cls-36" d="M284.2,158.2h0a.6.6,0,0,1,0-1.2h0a.6.6,0,0,0,0,1.2Z"/><path class="cls-36" d="M284.8,160.1a.55.55,0,0,1,.3-.5,1.05,1.05,0,0,1-.5-.9,1,1,0,0,1,1-1h0a1,1,0,0,0-1,1,1.05,1.05,0,0,0,.5.9c-.2,0-.3.2-.3.5a.76.76,0,0,0,.2.5h0C284.9,160.4,284.8,160.3,284.8,160.1Z"/><path class="cls-36" d="M283.9,160.9a.43.43,0,0,1,.4-.4h0c-.2.1-.4.2-.4.4Z"/><path class="cls-36" d="M283.9,159c-.1,0-.1-.1-.1-.2a.35.35,0,0,1,.1-.2h0a.22.22,0,0,0-.2.2c0,.2.1.2.2.2Z"/></g><circle class="cls-31" cx="221.2" cy="222" r="1.4"/><path class="cls-31" d="M222,221.1h0l-5-5v.4l-7.1-6,.1.4-4.5-2.8,3.2,4.1h-.4l6.9,6.1-.4.1,5.4,4c.1.2.3.3.4.4a1.17,1.17,0,0,0,1.6-.5C222.5,222.1,222.4,221.5,222,221.1Z"/><path class="cls-32" d="M221,222.8l.6-.6a2.19,2.19,0,0,1,.5-.3l-2.9-2.9v.3l-4.3-3.6v.3l-5.8-4.5,5.1,5.3h-.3l4.2,3.7h-.3Z"/><circle class="cls-33" cx="221.2" cy="222" r="1.1"/><path class="cls-34" d="M220.7,222.5a.52.52,0,0,0-.4.2,1.61,1.61,0,0,0,.7.4c0-.1.1-.1.1-.2C221.1,222.6,221,222.5,220.7,222.5Zm0-.7a.2.2,0,1,0,.2.2C220.9,221.9,220.9,221.8,220.7,221.8Zm.8,0a.3.3,0,1,0-.3-.3A.27.27,0,0,0,221.5,221.8Zm-.8-.2a.43.43,0,0,0,.4-.4c0-.1,0-.2-.1-.2a.92.92,0,0,0-.6.4C220.4,221.5,220.5,221.6,220.7,221.6Zm.7.5c0-.1-.1-.1,0,0a.14.14,0,0,0-.2,0,.14.14,0,0,0,.2,0Zm-.1.2a.2.2,0,1,0,.2-.2Zm.8-.8h0a.47.47,0,0,0-.5.5.52.52,0,0,0,.2.4c-.1.1-.1.1-.1.3s0,.2.1.2a1,1,0,0,0,.4-.9A.44.44,0,0,0,222.1,221.5Zm-.6,1.4a.22.22,0,0,0-.2.2h0a.76.76,0,0,0,.4-.1C221.6,222.9,221.6,222.9,221.5,222.9Z"/><g class="cls-35"><path class="cls-36" d="M220.7,221.6h0c-.1,0-.3-.1-.3-.2.2-.2.4-.4.6-.4h0a.92.92,0,0,0-.6.4C220.4,221.5,220.5,221.6,220.7,221.6Z"/><path class="cls-36" d="M220.4,222.7a.52.52,0,0,1,.4-.2h0a.52.52,0,0,0-.4.2,1.61,1.61,0,0,0,.7.4h0A1.61,1.61,0,0,1,220.4,222.7Z"/><path class="cls-36" d="M220.5,222a.22.22,0,0,0,.2.2h0c-.1.1-.2,0-.2-.2a.22.22,0,0,1,.2-.2h0A.22.22,0,0,0,220.5,222Z"/><path class="cls-36" d="M221.5,222.5h0c-.1,0-.1-.1-.1-.2s.1-.1.1-.2h0a.2.2,0,0,0,0,.4Z"/><path class="cls-36" d="M221.5,221.8h0a.3.3,0,0,1,0-.6h0a.3.3,0,0,0,0,.6Z"/><path class="cls-36" d="M221.7,222.6c0-.1.1-.2.1-.3a.52.52,0,0,1-.2-.4.47.47,0,0,1,.5-.5h0a.47.47,0,0,0-.5.5.52.52,0,0,0,.2.4c0,.1-.1.2-.1.3s0,.2.1.2h0A.35.35,0,0,1,221.7,222.6Z"/><path class="cls-36" d="M221.3,223.1a.22.22,0,0,1,.2-.2h0a.22.22,0,0,0-.2.2Z"/><path class="cls-36" d="M221.3,222.2h0c-.1-.1,0-.1,0-.2h0s-.1,0,0,.2Z"/></g><path class="cls-38" d="M299,143.3a47.86,47.86,0,0,0-36.3-16.7h-19a185.4,185.4,0,0,0-68.2,54.5v24.7a48,48,0,0,0,17.3,36.8C209.5,214.2,243.2,169.4,299,143.3Zm11.6,28.9a48.27,48.27,0,0,0-4.5-18.1c-19,10-67.2,39.6-99.8,96.3a46.78,46.78,0,0,0,16.7,3.2C238.8,227,266.8,191.5,310.6,172.2Zm-69.9,81.4h5.7c13-20.8,33.9-47.1,64.2-65.3V184C294.7,192.7,264.6,213.4,240.7,253.6Z"/><g class="cls-39"><path class="cls-9" d="M290.4,205.8c-2.9,13.9-10.5,25.9-26.1,25.3-10.6-.4-10.6,16.2,0,16.5,22.8.8,37.6-16.5,42-37.5,2.2-10.3-13.8-14.8-15.9-4.3Z"/><path class="cls-9" d="M289.8,180.1c-.1,2.3.1,4.6-.2,6.8.1-.7.2-1.5.3-2.2v.1l2.1-3.6h0c-1.4,1.8-2.4,3.5-2.4,5.8a8.43,8.43,0,0,0,2.4,5.8c3,2.8,8.8,3.6,11.7,0a9.76,9.76,0,0,0,2.5-6c0-.5.1-.9.1-1.4,0-1.8.1-3.6.1-5.4.1-4.3-3.9-8.5-8.3-8.3a8.64,8.64,0,0,0-8.3,8.4Z"/><path class="cls-9" d="M200.3,159.1c1.7-1.5,3.2-3.3,5-4.7-.6.4-1.2.9-1.8,1.3h.1c-1.4.4-2.7.7-4.1,1.1h0a8.67,8.67,0,0,0,5.9-2.4,8.43,8.43,0,0,0,2.4-5.8c-.2-4.1-3.6-8.8-8.2-8.3a10.11,10.11,0,0,0-6,2.5,9,9,0,0,0-1,.9c-1.3,1.2-2.6,2.5-3.9,3.7a8.24,8.24,0,0,0,0,11.7,8.5,8.5,0,0,0,11.6,0Z"/><path class="cls-9" d="M218.6,146.7a32,32,0,0,1,2.7-2.5,8.65,8.65,0,0,1-1,.7h0l-2.2.6h0a4.82,4.82,0,0,0,3.2-1.3,4.22,4.22,0,0,0,1.3-3.2c-.1-2.2-2-4.8-4.5-4.5a5.92,5.92,0,0,0-3.3,1.3c-.2.2-.4.3-.6.5-.7.7-1.4,1.3-2.1,2a4.44,4.44,0,0,0,0,6.3,4.59,4.59,0,0,0,6.5.1Z"/></g><polygon class="cls-4" points="222.6 54.4 234 50.6 241.4 56.1 259 47.5 266.1 54.4 275.2 54.4 286.1 47.5 294.2 51 279.2 47.5 271.7 57.4 260.7 54.4 247.2 47.5 240.5 54.4 233.6 52.5 222.6 54.4"/></svg>