<svg id="OBJECTS" xmlns="http://www.w3.org/2000/svg" viewBox="0 0 519 321.3"><defs><style>.cls-1{fill:#00b289;}.cls-2{fill:#d7e5ff;}.cls-3,.cls-7{fill:#d7f0f9;}.cls-10,.cls-3{opacity:0.55;isolation:isolate;}.cls-4{fill:#79c9e8;}.cls-5{fill:#49b4d6;}.cls-6{fill:#f77e2d;}.cls-8{fill:#a3e1ef;}.cls-9{fill:#edf5f7;}.cls-10{fill:#bad4f4;}.cls-11{fill:#00668e;}.cls-12{fill:#0582c1;}.cls-13{fill:#05556d;}.cls-14{fill:#f98d3d;}.cls-15{fill:#ed701b;}.cls-16{fill:none;}.cls-17{fill:#8c8cf9;}.cls-18{fill:#efaa3a;}.cls-19{fill:#fff;}.cls-20{fill:#f0f5fc;}</style></defs><title>error-5-core</title><rect class="cls-1" x="195.9" y="309.77" width="2" height="144.3"/><rect class="cls-1" x="337.7" y="309.77" width="2" height="166.5"/><path class="cls-2" d="M438.4,299.3a11.21,11.21,0,0,0,11.2-11c.5-30.5,2.9-75.5-54.6-88-46.5-10.1-18.9-92.7-144.2-87.4-89.9,3.8-66,79.6-136,85.9-46.5,4.2-46.9,63-45.1,90a11.25,11.25,0,0,0,11.2,10.5Z"/><path class="cls-3" d="M395.1,200.3c-46.5-10.1-18.9-92.7-144.2-87.4-21.4.9-36.3,5.9-47.6,13.1a113.63,113.63,0,0,1,12.2-1c125.3-5.3,97.7,77.3,144.2,87.4,56.9,12.3,55.1,56.5,54.6,87h24.2a11.21,11.21,0,0,0,11.2-11C450.1,257.8,452.5,212.8,395.1,200.3Z"/><path class="cls-4" d="M128.7,279s-2-1.9-.7-8.9,4.7-13.9,3.1-21.5-14.7-27-14.8-28.3-4,22.5,2.7,31.9,7.6,12.6,7.3,17.5.1,8.9.8,10Z"/><path class="cls-5" d="M127.5,264.8c-.8,3.2-1.3,11.1,0,13,.1.2.3.1.5-.3-.4-1.3-.6-3.6.1-7.4,1.3-7.1,4.7-13.9,3.1-21.5s-14.7-27-14.8-28.3c0,0,2,16.1,8.6,27.2A21.18,21.18,0,0,1,127.5,264.8Z"/><path class="cls-4" d="M131.1,278.5s-3.8-9.6,2.7-17.9,16.9-19,17.1-23.2c0,0,2.7,20-5.8,25.7s-14.4,6.6-12.9,15.3Z"/><path class="cls-5" d="M140.2,259.1c-9.4,6.9-10.2,14.8-8.8,18.5a.9.9,0,0,0,.6.6c-1.3-8.4,4.6-9.4,13-15s5.8-25.7,5.8-25.7S149.7,252.3,140.2,259.1Z"/><path class="cls-4" d="M124.8,278.7a35.39,35.39,0,0,0,.6-10.6c-.7-5.5-6.4-8.6-11.7-14.4-2.8-3-3.6-18.7-1.9-20.2,0,0-9.4,11.4-8,19.8s16.9,13.8,18.3,17.9a22.81,22.81,0,0,1,1.3,7.4Z"/><path class="cls-5" d="M108.6,238.1c-3.1,8.5.1,18.7,10.4,25,7.6,4.7,5.2,14.4,5.2,14.4l1.2-3.8a35.49,35.49,0,0,0-.1-5.6c-.7-5.5-6.4-8.6-11.7-14.4-2.7-2.9-3.5-17.6-2-20C111.2,234.4,109.9,236,108.6,238.1Z"/><path class="cls-5" d="M111.6,233.9l.2-.2A.22.22,0,0,0,111.6,233.9Z"/><path class="cls-4" d="M133.1,278.1s2.2-8.2,7.7-9.3,11.8-9.2,12.1-10.8C152.9,258,151.9,273.3,133.1,278.1Z"/><path class="cls-5" d="M140.4,271.5c-3.4,1.7-4.7,3.9-5.2,6,16.8-5.4,17.7-19.5,17.7-19.5a7,7,0,0,1-.9,1.6C150.3,262.5,146.4,268.5,140.4,271.5Z"/><polygon class="cls-6" points="224.2 236.9 236 236.9 232.9 243.3 221.1 243.3 224.2 236.9"/><polygon class="cls-6" points="250.8 236.9 262.7 236.9 259.5 243.3 247.7 243.3 250.8 236.9"/><polygon class="cls-6" points="277.4 236.9 289.3 236.9 286.1 243.3 274.3 243.3 277.4 236.9"/><polygon class="cls-6" points="304.1 236.9 315.9 236.9 312.7 243.3 300.9 243.3 304.1 236.9"/><polygon class="cls-6" points="342.4 236.9 342.4 237.1 339.3 243.3 327.5 243.3 330.7 236.9 342.4 236.9"/><rect class="cls-7" x="229.1" y="263.3" width="9.1" height="36"/><rect class="cls-8" x="236.1" y="263.3" width="2.1" height="36"/><rect class="cls-7" x="317.9" y="263.3" width="9.1" height="36"/><rect class="cls-8" x="324.3" y="263.3" width="2.7" height="36"/><rect class="cls-8" x="229.1" y="263.2" width="9.1" height="4.5"/><rect class="cls-8" x="317.9" y="263.2" width="9.1" height="4.5"/><rect class="cls-7" x="229.1" y="232.8" width="9.1" height="4.1"/><rect class="cls-8" x="236.1" y="232.8" width="2.1" height="4.1"/><rect class="cls-7" x="317.9" y="232.8" width="9.1" height="4.1"/><rect class="cls-8" x="324.3" y="232.8" width="2.7" height="4.1"/><rect class="cls-8" x="229.1" y="236.4" width="9.1" height="0.5"/><rect class="cls-8" x="317.9" y="236.4" width="9.1" height="0.5"/><path class="cls-9" d="M339.5,109.4,192.4,92.2a11.47,11.47,0,0,0-12.7,10.1l-11,94.1a11.47,11.47,0,0,0,10.1,12.7l147.1,17.2a11.47,11.47,0,0,0,12.7-10.1l11-94.1A11.47,11.47,0,0,0,339.5,109.4Z"/><rect class="cls-7" x="346.9" y="292.5" width="47.2" height="6.7"/><rect class="cls-8" x="383.9" y="292.5" width="10.2" height="6.7"/><path class="cls-2" d="M128.7,146.6a6.17,6.17,0,0,0,6.2-5.3,9.15,9.15,0,0,0,.1-1.7,12.29,12.29,0,0,0-12.3-12.3h-.8a13.07,13.07,0,0,0-26.1,1.1v1a12.52,12.52,0,0,0-7-1.6,13,13,0,0,0-12.4,12.1v.2a6.26,6.26,0,0,0,6.2,6.6h46.1v-.1Z"/><path class="cls-2" d="M422.2,156.3c9.7,0,10.3-14.6.5-15.1h-.8a16.87,16.87,0,0,0-5,.8,16.77,16.77,0,0,0-16.5-14,16.56,16.56,0,0,0-16.5,14.5,14.85,14.85,0,0,0-6.6-1.5,15.83,15.83,0,0,0-3.8.5c-8.5,2.2-6.7,14.8,2.1,14.8Z"/><path class="cls-2" d="M305.4,84.2c9.7,0,10.3-14.6.5-15.1h-.8a16.87,16.87,0,0,0-5,.8,16.77,16.77,0,0,0-16.5-14,16.56,16.56,0,0,0-16.5,14.5,14.85,14.85,0,0,0-6.6-1.5,15.83,15.83,0,0,0-3.8.5c-8.5,2.2-6.7,14.8,2.1,14.8Z"/><circle class="cls-2" cx="150.6" cy="87.9" r="23.3"/><path class="cls-10" d="M150.8,64.6A23.32,23.32,0,0,1,138,107.4h-.2a23.34,23.34,0,0,0,36.1-19.5A23.22,23.22,0,0,0,150.8,64.6Z"/><path class="cls-11" d="M166.8,215.8a79.66,79.66,0,0,0-1.7,17.8c.3,8.1-.7,61.1-.7,61.1h6.5s9.2-41.5,9.6-44.8,5-36.1,5-36.1Z"/><path class="cls-11" d="M171.1,213.4a144.67,144.67,0,0,0,4,19.4c2.5,8,15,61.9,15,61.9h6.5s-1.2-41.5-1.6-44.8-3.7-36.1-3.7-36.1Z"/><path class="cls-12" d="M190.6,294.7v4.5H203a.71.71,0,0,0,.4-1.3c-1.8-1.2-4.7-2.9-7.4-3.2Z"/><path class="cls-12" d="M164.8,294.7v4.5h12.3a.71.71,0,0,0,.4-1.3c-1.8-1.2-4.7-2.9-7.4-3.2Z"/><path class="cls-11" d="M187.1,160.7s4.2-6.4-.6-7.1c-3.7-.5-5.3.6-5.3.6s-4.3-.5-6.7,1.6c-1.6,1.4-7.5,12.2,2,16.2s7.5-6.1,7.5-6.1Z"/><path class="cls-13" d="M186.4,153.7c-3.7-.5-5.3.6-5.3.6s-4.3-.5-6.7,1.6c-1.6,1.4-7.5,12.2,2,16.2,4.5,1.8,6.4.6,7.2-1.2-9.1,2.6-10.1-8.4-8.6-11.5s5.2-1.7,5.2-1.7c1.4-3.6,6.1-3.2,8-2.9C188,154.2,187.4,153.8,186.4,153.7Z"/><path class="cls-14" d="M181.1,163.9s-1.3-1.3-2.2,0-.3,4.1,1.3,4.2c0,0-.5,4.1-3.6,3.9v3.3H184v-2.5s4.6-1.9,4.4-5.7a20.78,20.78,0,0,0-1.3-6.4S184.5,163.6,181.1,163.9Z"/><path class="cls-15" d="M182.2,173.9c.7.3.6.8.6,1.5h1.1v-2.5s-1.8.6-4.4-.9A16.57,16.57,0,0,0,182.2,173.9Z"/><path class="cls-14" d="M183.7,157.9s-3.8-1.5-4.3-.4c-.3.7.5,1.4,1.5,2l-.9.1a.21.21,0,0,0-.1.4,5.88,5.88,0,0,0,2.4.4Z"/><polygon class="cls-16" points="161 199.4 166.1 215.9 166 215 166.1 215.9 167.8 191.8 161 199.4"/><path class="cls-17" d="M144.9,275.1H116.3l3.4,21.4a3.42,3.42,0,0,0,3.3,2.8h15.2a3.42,3.42,0,0,0,3.3-2.8Z"/><rect class="cls-17" x="213" y="236.9" width="129.4" height="26.3"/><circle class="cls-17" cx="233.4" cy="227.1" r="8.1"/><circle class="cls-17" cx="322.4" cy="227.1" r="8.1"/><path class="cls-17" d="M391.4,296.4H350.2l6.3-15.3h0l2.5-6.2.7-1.7,1.1-2.8.2-.6,2.5-6.2.5-1.1,4.5-10.9a2.36,2.36,0,0,1,4.4,0l4.5,10.9.5,1.1,2.5,6.2.2.6,1.1,2.8.7,1.7,2.5,6.2h0Z"/><rect class="cls-17" x="195.9" y="-47.4" width="2" height="144.3"/><rect class="cls-17" x="337.7" y="-47.4" width="2" height="166.5"/><path class="cls-17" d="M348.4,131.4l1.1-9.3a11.47,11.47,0,0,0-10.1-12.7l-147-17.2a11.47,11.47,0,0,0-12.7,10.1l-1.1,9.3Z"/><path class="cls-17" d="M202.4,168.5,221,135.6a6,6,0,0,1,5.9-3h0a6.06,6.06,0,0,1,5.3,6.7l-3.9,33.2h.2a4.23,4.23,0,0,1,3.7,4.6h0a4.23,4.23,0,0,1-4.6,3.7h-.2l-.7,6.1a4.58,4.58,0,0,1-5,4h0a4.58,4.58,0,0,1-4-5l.7-6.1L205,178.2a4.23,4.23,0,0,1-3.7-4.6l.4-3A4.76,4.76,0,0,1,202.4,168.5Zm17.1,2.5,2.4-20.6c0-.1-.2-.2-.2-.1l-11,19.4a.52.52,0,0,0,.4.8l7.8.9A.44.44,0,0,0,219.5,171Z"/><path class="cls-17" d="M284.7,178.1l18.6-32.9a6,6,0,0,1,5.9-3h0a6.06,6.06,0,0,1,5.3,6.7l-3.9,33.2h.2a4.23,4.23,0,0,1,3.7,4.6h0a4.23,4.23,0,0,1-4.6,3.7h-.2l-.7,6.1a4.58,4.58,0,0,1-5,4h0a4.58,4.58,0,0,1-4-5l.7-6.1-13.4-1.6a4.23,4.23,0,0,1-3.7-4.6l.4-3A5.22,5.22,0,0,1,284.7,178.1Zm17.1,2.5,2.4-20.6c0-.1-.2-.2-.2-.1l-11,19.4a.52.52,0,0,0,.4.8l7.8.9C301.5,181.1,301.7,180.9,301.8,180.6Z"/><path class="cls-17" d="M247.7,149.2c1.1-9.3,6.6-14,15.5-13s13.2,6.9,12.1,16.2l-3.5,30.2c-1.1,9.3-6.6,14-15.5,13s-13.2-6.9-12.1-16.2Zm5.5,31.8c-.5,4.1,1.2,5.9,4.1,6.3s4.9-1,5.4-5.2l3.7-31.3c.5-4.1-1.2-5.9-4.1-6.3s-4.9,1-5.4,5.2Z"/><path class="cls-17" d="M211,167.5c-7.3-5.4-27.2-9.7-27.2-9.7l-1.6,3s18.1,7,16.9,8.1c-.7.6-9.5,4.7-12.5,6a4.64,4.64,0,0,1-2.1.4l-9.2-.1a14.38,14.38,0,0,0-11.8,5.2c-4.6,5.3-12.5,17.7-12.5,17.7l13.3,19.6,1.5,2.2h0v.2a7.31,7.31,0,0,0,1.3.1c4.3.4,18,1.5,25.2-.1h.2l-.3-32.1a122.32,122.32,0,0,0,19.1-18.5A1.34,1.34,0,0,0,211,167.5Zm-44.6,43.7-1.3-2.8-4.1-9,6.9-7.7-1.2,16.9Z"/><polygon class="cls-18" points="165.1 208.4 166.4 211.2 165.8 219.8 165.8 219.8 164.3 217.6 165.1 208.4"/><path class="cls-11" d="M195,249.9c-.3-2.4-2.1-20.1-3.1-29.8l-4.7.5s6.8,55.8,7.2,74.1h2.2S195.4,253.2,195,249.9Z"/><circle class="cls-19" cx="192.9" cy="104.8" r="3.1"/><circle class="cls-19" cx="207.6" cy="106.6" r="3.1"/><circle class="cls-19" cx="222.9" cy="108.4" r="3.1"/><polygon class="cls-20" points="236 236.9 223 263.3 213 263.3 213 259.6 224.2 236.9 236 236.9"/><polygon class="cls-20" points="250.8 236.9 237.8 263.3 249.6 263.3 262.7 236.9 250.8 236.9"/><polygon class="cls-20" points="289.3 236.9 276.2 263.3 264.4 263.3 277.4 236.9 289.3 236.9"/><polygon class="cls-20" points="315.9 236.9 302.8 263.3 291 263.3 304.1 236.9 315.9 236.9"/><polygon class="cls-20" points="330.7 236.9 317.6 263.3 329.4 263.3 342.4 237.1 330.7 236.9"/><circle class="cls-7" cx="233.4" cy="227.1" r="3.7"/><circle class="cls-7" cx="322.4" cy="227.1" r="3.7"/><polygon class="cls-20" points="380.5 270 361.1 270 363.6 263.8 378 263.8 380.5 270"/><polygon class="cls-20" points="385.1 281.2 385.1 281.2 356.5 281.2 356.5 281.2 359 275 382.6 275 385.1 281.2"/></svg>