<svg xmlns="http://www.w3.org/2000/svg" xmlns:xlink="http://www.w3.org/1999/xlink" viewBox="0 0 496.33 274.21"><defs><style>.cls-1,.cls-10,.cls-11,.cls-12,.cls-13,.cls-14,.cls-20,.cls-22,.cls-23,.cls-24,.cls-25,.cls-26,.cls-30,.cls-36,.cls-4,.cls-45,.cls-5,.cls-54,.cls-56,.cls-65,.cls-9{fill:none;}.cls-2{isolation:isolate;}.cls-3{fill:#e1f1ff;}.cls-10,.cls-11,.cls-12,.cls-22,.cls-24,.cls-25,.cls-26,.cls-4,.cls-5,.cls-9{stroke:#a1c7ff;}.cls-10,.cls-11,.cls-12,.cls-13,.cls-22,.cls-23,.cls-24,.cls-26,.cls-4,.cls-5,.cls-9{stroke-linejoin:round;}.cls-5{stroke-dasharray:3.01 2.5;}.cls-16,.cls-6,.cls-7{fill:#fff;}.cls-23,.cls-31,.cls-6,.cls-7,.cls-8{stroke:#89b5f4;}.cls-14,.cls-20,.cls-25,.cls-30,.cls-31,.cls-36,.cls-45,.cls-54,.cls-56,.cls-6,.cls-65,.cls-7,.cls-8{stroke-miterlimit:10;}.cls-13,.cls-6{stroke-width:2px;}.cls-29,.cls-8{fill:#e9f1ff;}.cls-9{stroke-dasharray:2.99 2.49;}.cls-10{stroke-dasharray:2.92 2.43;}.cls-11{stroke-dasharray:2.99 2.49;}.cls-12{stroke-dasharray:2.92 2.43;}.cls-13,.cls-20{stroke:#202263;}.cls-13,.cls-25,.cls-26{stroke-linecap:round;}.cls-14{stroke:#fff;}.cls-15,.cls-28{fill:#039be5;}.cls-17{fill:#a1c7ff;}.cls-18{clip-path:url(#clip-path);}.cls-19{opacity:0.44;}.cls-20{stroke-dasharray:3 2;}.cls-21{fill:#202263;}.cls-22{stroke-dasharray:3.03 2.52;}.cls-24{stroke-width:0.75px;}.cls-27{fill:#058ec4;}.cls-28{opacity:0.55;}.cls-28,.cls-47{mix-blend-mode:multiply;}.cls-30{stroke:#bbd8f9;}.cls-31{fill:#cbdcf4;}.cls-32{fill:#d6e7fc;}.cls-33{fill:#fe881c;}.cls-34{fill:#b8daff;}.cls-35{fill:#ffceb6;}.cls-36{stroke:#4d59a3;}.cls-36,.cls-45,.cls-54,.cls-56{stroke-width:0.5px;}.cls-37,.cls-57{fill:#f2b18f;}.cls-38{fill:#212237;}.cls-39{fill:#ffd9c0;}.cls-40{fill:#ffc088;}.cls-41{fill:#ffaf5f;}.cls-42{fill:#f78d37;}.cls-43{fill:#ffcda4;}.cls-44{fill:#ffead7;}.cls-45{stroke:#057ca0;}.cls-46,.cls-47{fill:#c7e2ff;}.cls-48{fill:#f0f8ff;}.cls-49{clip-path:url(#clip-path-2);}.cls-50{opacity:0.35;}.cls-51{fill:#a4d0ff;}.cls-52{clip-path:url(#clip-path-3);}.cls-53{fill:#091e89;}.cls-54{stroke:#2058bc;}.cls-55{fill:#103bb2;}.cls-56{stroke:#4873d3;}.cls-57{fill-rule:evenodd;}.cls-58{fill:#22252d;}.cls-59{fill:#ffd19f;}.cls-60{fill:#6486f2;}.cls-61{fill:#ffac06;}.cls-62{fill:#ff8f08;}.cls-63{fill:#ffd8bd;}.cls-64{fill:#ffc69f;}.cls-65{stroke:#254bb7;}.cls-66{fill:#254bb7;}.cls-67{fill:#141744;}</style><clipPath id="clip-path"><circle class="cls-1" cx="240.25" cy="106.76" r="8.89" transform="translate(-22.55 99.48) rotate(-22.37)"/></clipPath><clipPath id="clip-path-2"><polygon class="cls-1" points="312.89 206.01 298.16 206.01 295.65 196.49 310.38 196.49 312.89 206.01"/></clipPath><clipPath id="clip-path-3"><polygon class="cls-1" points="317.04 211.21 303 211.21 300.61 202.14 314.65 202.14 317.04 211.21"/></clipPath></defs><title>hero-people-3-azur</title><g class="cls-2"><g id="Layer_1" data-name="Layer 1"><path class="cls-3" d="M306.54,64.47a5,5,0,0,1,2,.43,4.14,4.14,0,0,1-.1-.87,3.67,3.67,0,0,1,7.2-1,8.32,8.32,0,0,1,16.64.36,8.22,8.22,0,0,1-.16,1.58,5.73,5.73,0,1,1,4.36,9.45H306.54a5,5,0,1,1,0-9.91Z"/><path class="cls-4" d="M210.14,204.15c-.49-.1-1-.2-1.48-.28"/><path class="cls-5" d="M206.19,203.52c-18.21-1.94-41.44,7.68-59.28,9.26C110.67,216,89.07,199.4,79.54,183.11c-11.93-20.41-8.27-46.84,12.27-66.56,23-22,46.75-20.16,75-29.55C192.2,78.55,213.52,57.45,233,35.4c32.65-37,95.47-30.62,112.27,23.76C351,77.71,352.09,96.09,370,107.54c21.53,13.8,49.09,12.31,72.42,21.48,19.84,7.81,35.29,28.25,31.78,50.21-3.9,24.35-28.57,43.53-50.94,50.15-23.21,6.88-45.11,4.18-68.46,5.19"/><path class="cls-4" d="M353.49,234.62l-1.49.08"/><line class="cls-6" x1="205.88" y1="262.49" x2="211.22" y2="220.7"/><line class="cls-6" x1="274.04" y1="262.49" x2="268.7" y2="220.7"/><rect class="cls-7" x="172.58" y="44.07" width="134.76" height="179.97"/><rect class="cls-8" x="157.37" y="74.07" width="165.17" height="119.96" transform="translate(374.01 -105.91) rotate(90)"/><path class="cls-4" d="M217.73,133.31c.76-.56,1.23-.84,1.23-.84s.2.51.52,1.4"/><path class="cls-9" d="M220.29,136.22c2.51,7.52,7.21,23.89,1.43,26.15s-11.8,15.56-14.08,21.22"/><path class="cls-4" d="M207.18,184.75c-.35.89-.53,1.4-.53,1.4s-.1-.54-.25-1.48"/><path class="cls-10" d="M206,182.27c-1-7-2.7-21.77-.86-30.75,1.79-8.71,8.16-14.76,11.58-17.47"/><path class="cls-4" d="M262.78,133.31c-.77-.56-1.24-.84-1.24-.84s-.19.51-.51,1.4"/><path class="cls-11" d="M260.22,136.22c-2.51,7.52-7.22,23.89-1.43,26.15s11.79,15.56,14.08,21.22"/><path class="cls-4" d="M273.33,184.75l.53,1.4s.1-.54.24-1.48"/><path class="cls-12" d="M274.46,182.27c1-7,2.71-21.77.87-30.75-1.79-8.71-8.17-14.76-11.58-17.47"/><line class="cls-13" x1="240.16" y1="80.94" x2="240.16" y2="65.78"/><path class="cls-14" d="M256.73,163c1,18.5-16.47,29.72-16.47,29.72s-16.5-10.9-16.48-29.72C223.79,154.43,256.27,154.44,256.73,163Z"/><path class="cls-14" d="M240.31,186.72c-4-3.51-11.65-11.67-11.91-23.13,1.21-.9,5.31-2.26,11.68-2.26,6.68,0,10.92,1.47,12.07,2.41C252.5,175,244.51,183.22,240.31,186.72Z"/><path class="cls-14" d="M240.38,180.24c-2.9-3.17-7.32-10.35-7.13-16.67a31.24,31.24,0,0,1,6.75-.67,30.68,30.68,0,0,1,7.31.79C247.46,170.14,243.41,177.07,240.38,180.24Z"/><path class="cls-15" d="M261.39,97.24a48.65,48.65,0,0,0-21.13-22.57c-2.52,1-14.22,6.83-21.15,22.57-8.37,19,1,67.91,1,67.91h40.23S269.76,116.26,261.39,97.24Z"/><path class="cls-16" d="M219.1,159.14h42.3c.16-1,.32-2,.5-3.2H218.61C218.78,157.1,219,158.17,219.1,159.14Z"/><circle class="cls-17" cx="240.25" cy="106.76" r="8.89" transform="translate(-22.55 99.48) rotate(-22.37)"/><g class="cls-18"><g class="cls-19"><rect class="cls-16" x="239.2" y="95.68" width="2.12" height="22.16" transform="translate(133.99 -133.71) rotate(42.2)"/><rect class="cls-16" x="241.67" y="97.78" width="1.37" height="22.16" transform="translate(135.95 -134.58) rotate(42.2)"/><rect class="cls-16" x="237.28" y="93.81" width="1.37" height="22.16" transform="translate(132.14 -132.66) rotate(42.2)"/></g></g><path class="cls-20" d="M240.25,94.73a12,12,0,1,0,12,12A12,12,0,0,0,240.25,94.73Zm0,20.91a8.89,8.89,0,1,1,8.89-8.88A8.89,8.89,0,0,1,240.25,115.64Z"/><path class="cls-21" d="M256.33,88.58a48.83,48.83,0,0,0-16.07-13.91c-2,.83-9.69,4.61-16.26,13.9Z"/><path class="cls-16" d="M222.12,91.45H258.3c-.13-.21-.26-.42-.4-.63H222.5C222.37,91,222.24,91.24,222.12,91.45Z"/><path class="cls-22" d="M240.25,135.72c-8.51,1.41-2.73,44.57-.66,58.41a.66.66,0,0,0,1.32,0C243,180.29,248.77,137.13,240.25,135.72Z"/><line class="cls-23" x1="272.99" y1="67.21" x2="285.2" y2="67.21"/><line class="cls-23" x1="272.99" y1="69.44" x2="292.45" y2="69.44"/><line class="cls-23" x1="272.99" y1="71.67" x2="292.45" y2="71.67"/><line class="cls-23" x1="272.99" y1="73.9" x2="292.45" y2="73.9"/><line class="cls-23" x1="190.84" y1="81.12" x2="203.05" y2="81.12"/><line class="cls-23" x1="190.84" y1="83.35" x2="210.29" y2="83.35"/><line class="cls-23" x1="190.84" y1="85.58" x2="210.29" y2="85.58"/><line class="cls-23" x1="190.84" y1="87.81" x2="210.29" y2="87.81"/><line class="cls-23" x1="285.72" y1="107.28" x2="292.5" y2="107.28"/><line class="cls-23" x1="272.99" y1="109.51" x2="292.45" y2="109.51"/><line class="cls-23" x1="272.99" y1="111.74" x2="292.45" y2="111.74"/><line class="cls-23" x1="272.99" y1="113.97" x2="292.45" y2="113.97"/><line class="cls-23" x1="200.16" y1="195.99" x2="206.94" y2="195.99"/><line class="cls-23" x1="187.43" y1="198.22" x2="206.88" y2="198.22"/><line class="cls-23" x1="187.43" y1="200.46" x2="206.88" y2="200.46"/><line class="cls-23" x1="187.43" y1="202.69" x2="206.88" y2="202.69"/><line class="cls-23" x1="277.33" y1="192.94" x2="265.2" y2="192.94"/><line class="cls-23" x1="284.71" y1="195.17" x2="265.26" y2="195.17"/><line class="cls-23" x1="284.71" y1="197.4" x2="265.26" y2="197.4"/><line class="cls-23" x1="284.71" y1="199.63" x2="265.26" y2="199.63"/><polyline class="cls-24" points="241.83 83.05 254.91 83.05 254.91 69.97 269.44 69.97"/><circle class="cls-17" cx="241.83" cy="83.05" r="0.74"/><polyline class="cls-24" points="228.24 106.76 198.98 106.76 198.98 90.92"/><path class="cls-17" d="M229,106.78a.74.74,0,1,0-.74.74A.74.74,0,0,0,229,106.78Z"/><polyline class="cls-24" points="210.88 149.97 193.38 149.97 193.38 192.67"/><path class="cls-17" d="M211.62,150a.74.74,0,0,0-1.48,0,.74.74,0,1,0,1.48,0Z"/><polyline class="cls-24" points="239.57 149.27 255.95 149.27 255.95 192.67 263.2 192.67"/><path class="cls-17" d="M240.32,149.27a.75.75,0,0,0-.75-.74.74.74,0,0,0-.74.74.75.75,0,0,0,.74.75A.76.76,0,0,0,240.32,149.27Z"/><polyline class="cls-24" points="269.67 146.47 281.57 146.47 281.57 116.55"/><circle class="cls-17" cx="269.67" cy="146.65" r="0.74"/><line class="cls-25" x1="312.77" y1="34.14" x2="321.4" y2="34.14"/><line class="cls-25" x1="350.29" y1="170.68" x2="358.92" y2="170.68"/><line class="cls-25" x1="304.39" y1="34.14" x2="309.53" y2="34.14"/><line class="cls-25" x1="442.65" y1="112.73" x2="451.28" y2="112.73"/><line class="cls-25" x1="434.27" y1="112.73" x2="439.41" y2="112.73"/><line class="cls-25" x1="358.13" y1="166.88" x2="363.27" y2="166.88"/><line class="cls-25" x1="88.98" y1="152.73" x2="97.61" y2="152.73"/><line class="cls-25" x1="80.6" y1="152.73" x2="85.74" y2="152.73"/><path class="cls-25" d="M72.3,88.58A1.58,1.58,0,1,1,70.72,87,1.57,1.57,0,0,1,72.3,88.58Z"/><path class="cls-25" d="M202.72,32.56A1.58,1.58,0,1,1,201.14,31,1.58,1.58,0,0,1,202.72,32.56Z"/><path class="cls-25" d="M431.24,99.44a1.58,1.58,0,1,1-1.58-1.57A1.57,1.57,0,0,1,431.24,99.44Z"/><path class="cls-25" d="M327.47,153.33a1.58,1.58,0,1,1-1.58-1.57A1.57,1.57,0,0,1,327.47,153.33Z"/><line class="cls-25" x1="109.76" y1="131.38" x2="109.76" y2="135.81"/><line class="cls-25" x1="111.98" y1="133.6" x2="107.55" y2="133.6"/><line class="cls-25" x1="233.55" y1="14.68" x2="233.55" y2="19.11"/><line class="cls-25" x1="235.76" y1="16.9" x2="231.33" y2="16.9"/><line class="cls-25" x1="131.51" y1="49.25" x2="131.51" y2="53.68"/><line class="cls-25" x1="133.72" y1="51.47" x2="129.29" y2="51.47"/><line class="cls-25" x1="338.71" y1="83.37" x2="338.71" y2="87.8"/><line class="cls-25" x1="340.92" y1="85.58" x2="336.49" y2="85.58"/><line class="cls-25" x1="441.72" y1="190.45" x2="441.72" y2="194.88"/><line class="cls-25" x1="443.94" y1="192.67" x2="439.51" y2="192.67"/><path class="cls-26" d="M109.58,167.4a8.28,8.28,0,1,1-10.89-4.33A8.28,8.28,0,0,1,109.58,167.4Z"/><path class="cls-26" d="M103.75,174.79c-6.57,2.84-14.18,4.41-15.34,1.74-.9-2.1,3.11-5.22,5.32-6.67l0,1.2c-3.63,2.38-3.58,3.74-3.22,4.58.66,1.53,5.42,1.49,12.89-1.73s10.76-6.66,10.1-8.19c-.37-.85-1.34-1.82-5.55-.81l-.87-.76c4.37-1,7.81-.88,8.48.68C116.69,167.5,110.32,172,103.75,174.79Z"/><circle class="cls-26" cx="383" cy="68.48" r="11.79" transform="translate(265.57 439.41) rotate(-82.57)"/><path class="cls-26" d="M381.15,74.61c-9.78-2.89-19.53-8.11-18.36-12.09.93-3.12,8.16-2.87,11.9-2.44l-1.13,1.27c-6.14-.69-7.34.84-7.7,2.08-.67,2.27,4.57,6.58,15.68,9.87s17.85,2.52,18.52.24c.38-1.26.19-3.2-5.33-5.94L394.47,66c5.73,2.85,9.34,6.16,8.66,8.48C402,78.43,390.93,77.5,381.15,74.61Z"/><polygon class="cls-26" points="346.44 127.69 335.75 133.6 328.99 132.79 339.69 126.87 346.44 127.69"/><polygon class="cls-26" points="340.37 116.47 329.67 122.39 322.91 121.57 333.61 115.66 340.37 116.47"/><line class="cls-26" x1="340.36" y1="116.47" x2="346.44" y2="127.69"/><line class="cls-26" x1="329.56" y1="122.48" x2="335.75" y2="133.6"/><line class="cls-26" x1="322.8" y1="121.67" x2="328.99" y2="132.79"/><line class="cls-26" x1="333.5" y1="115.76" x2="339.69" y2="126.87"/><polygon class="cls-26" points="438.7 158.38 438.94 150.93 444.72 155.66 451.89 153.58 449.17 160.53 453.36 166.71 445.91 166.28 441.33 172.17 439.44 164.95 432.42 162.41 438.7 158.38"/><polygon class="cls-26" points="158.06 26.55 162.39 22.28 163.15 28.31 168.55 31.11 163.05 33.69 162.06 39.69 157.9 35.26 151.89 36.17 154.82 30.85 152.09 25.41 158.06 26.55"/><polygon class="cls-26" points="101.98 68.46 92.78 69.67 80.71 61.43 88.72 59.73 101.98 68.46"/><polyline class="cls-26" points="92.78 69.67 99.73 51.72 101.98 68.46"/><polyline class="cls-26" points="80.71 61.43 99.73 51.72 88.72 59.73"/><path class="cls-3" d="M84,118.61a8.85,8.85,0,0,0-3.57.76A6.49,6.49,0,0,0,67.92,116a14.7,14.7,0,0,0-29.39.64,15.17,15.17,0,0,0,.27,2.79,10.12,10.12,0,1,0-7.69,16.69H84a8.76,8.76,0,0,0,0-17.51Z"/><rect class="cls-17" x="30.75" y="261.49" width="444.59" height="1"/><path class="cls-27" d="M400.6,193.43h14a6.91,6.91,0,0,1,6.91,6.91V303.76a0,0,0,0,1,0,0H393.69a0,0,0,0,1,0,0V200.34A6.91,6.91,0,0,1,400.6,193.43Z" transform="translate(656.18 -158.99) rotate(90)"/><path class="cls-28" d="M453.25,234.7H450.8a6.92,6.92,0,0,1,6.91,6.91v14a6.92,6.92,0,0,1-6.91,6.91h2.45a6.92,6.92,0,0,0,6.91-6.91v-14A6.92,6.92,0,0,0,453.25,234.7Z"/><path class="cls-28" d="M438.45,234.7H436a6.92,6.92,0,0,1,6.91,6.91v14a6.92,6.92,0,0,1-6.91,6.91h2.45a6.92,6.92,0,0,0,6.91-6.91v-14A6.92,6.92,0,0,0,438.45,234.7Z"/><path class="cls-15" d="M377.08,195.09h14A6.91,6.91,0,0,1,398,202V302.1a0,0,0,0,1,0,0H370.16a0,0,0,0,1,0,0V202A6.91,6.91,0,0,1,377.08,195.09Z" transform="translate(632.65 -135.47) rotate(90)"/><path class="cls-29" d="M330.55,238h100.1a3.6,3.6,0,0,1,3.6,3.6v14a3.6,3.6,0,0,1-3.6,3.6H330.55a0,0,0,0,1,0,0V238A0,0,0,0,1,330.55,238Z"/><line class="cls-30" x1="434.25" y1="243.41" x2="337.72" y2="243.41"/><line class="cls-30" x1="434.25" y1="248.59" x2="397.11" y2="248.59"/><line class="cls-30" x1="434.25" y1="253.5" x2="342.37" y2="253.5"/><line class="cls-30" x1="392.1" y1="248.59" x2="354.95" y2="248.59"/><path class="cls-31" d="M388,165.64h14a6.91,6.91,0,0,1,6.91,6.91V276a0,0,0,0,1,0,0H381.1a0,0,0,0,1,0,0V172.55A6.91,6.91,0,0,1,388,165.64Z" transform="translate(615.79 -174.19) rotate(90)"/><path class="cls-17" d="M440.66,206.9h-2.45a6.93,6.93,0,0,1,6.91,6.92v14a6.93,6.93,0,0,1-6.91,6.92h2.45a6.93,6.93,0,0,0,6.91-6.92v-14A6.93,6.93,0,0,0,440.66,206.9Z"/><path class="cls-17" d="M425.85,206.9H423.4a6.94,6.94,0,0,1,6.92,6.92v14a6.94,6.94,0,0,1-6.92,6.92h2.45a6.93,6.93,0,0,0,6.92-6.92v-14A6.93,6.93,0,0,0,425.85,206.9Z"/><path class="cls-17" d="M364.48,167.29h14a6.91,6.91,0,0,1,6.91,6.91v100.1a0,0,0,0,1,0,0H357.57a0,0,0,0,1,0,0V174.21A6.91,6.91,0,0,1,364.48,167.29Z" transform="translate(592.27 -150.67) rotate(90)"/><path class="cls-32" d="M318,210.22h100.1a3.6,3.6,0,0,1,3.6,3.6v14a3.6,3.6,0,0,1-3.6,3.6H318a0,0,0,0,1,0,0V210.22A0,0,0,0,1,318,210.22Z"/><line class="cls-24" x1="421.66" y1="215.62" x2="325.12" y2="215.62"/><line class="cls-24" x1="421.66" y1="220.8" x2="384.51" y2="220.8"/><line class="cls-24" x1="421.66" y1="225.71" x2="329.77" y2="225.71"/><line class="cls-24" x1="379.5" y1="220.8" x2="342.36" y2="220.8"/><path class="cls-33" d="M404.27,251.79a.08.08,0,0,0,0-.15.08.08,0,0,0,0,.15Z"/><polygon class="cls-34" points="384.94 258.63 403.27 250.28 402.58 248.82 384.25 257.17 384.94 258.63"/><path class="cls-15" d="M397.21,243.87l1.75-.35s1.55,1.8,2.44,3.14a10.8,10.8,0,0,1,1.18,2.16l-18.33,8.35s.07-1.17,3.28-5.72a10.47,10.47,0,0,0,1.62-3.35Z"/><path class="cls-35" d="M396.32,237.34l2.64,6.18s-.34,1.28-3.46,2.7a26.17,26.17,0,0,1-6.35,1.88l-4.9-9.42"/><rect class="cls-34" x="394.93" y="261.15" width="20.14" height="1.33" transform="translate(810.29 523.17) rotate(179.94)"/><path class="cls-15" d="M412.2,254.13l1.74.41s.67,2.28.93,3.86a15.26,15.26,0,0,1,.2,2.74l-20.14,0s.52-1.32,5.33-4.14a10.45,10.45,0,0,0,2.85-2.38Z"/><path class="cls-35" d="M414.1,247.82l-.16,6.72s-.84,1-4.26,1a26.25,26.25,0,0,1-6.57-.93l-.56-10.6"/><path class="cls-21" d="M382.41,148.82s-12.86,32.86-14,48.39,14.42,49.17,14.42,49.17l17.38-7s-11.83-30-10-39.2,9.61-29.58,9.61-29.58l2.22-24.4"/><path class="cls-21" d="M413.44,151c5.29,10,3.61,47.33,3.07,59.56s.74,40.3.74,40.3H397.41s-3.4-30.38-4.6-45.65c-1.05-13.28-3.62-36.17-2-51.44"/><path class="cls-36" d="M410.44,159.25c3.8,23.73,2.14,33,1.9,50.56s1.46,41,1.46,41"/><line class="cls-36" x1="397.06" y1="247.08" x2="417.02" y2="246.8"/><path class="cls-36" d="M402.73,160.85c.33,6.33,8.66,5.41,8.66,5.41"/><path class="cls-36" d="M390,161.24c-.66,13.06,1.51,32.82,1.51,32.82"/><path class="cls-36" d="M386.61,162c-.32,9.48,3.38,9.54,3.38,9.54"/><path class="cls-36" d="M382.44,162.08c-1.34,3.86-5.83,2.81-5.83,2.81"/><path class="cls-36" d="M390.93,186.85a53.39,53.39,0,0,0-4.73,15.42c-.88,7.71,8.4,28.56,8.4,28.56"/><line class="cls-36" x1="381.27" y1="242.56" x2="395.79" y2="236.99"/><path class="cls-37" d="M389.66,94.6s-2.93,7.61-.52,10.16c1.25,1.32,5,1.63,6.66.38,1.22-.93,3.11-6.79,2.46-7.84C395.76,93.3,389.66,94.6,389.66,94.6Z"/><path class="cls-37" d="M398.73,102.4l.57,8a5.68,5.68,0,0,1-8.52-.45l.63-5.2Z"/><path class="cls-38" d="M400.7,100.53c.32-1.63,1.15-2.51,1-4.4A2.24,2.24,0,0,0,400,93.9s-.21-1-1.85-1.69-7.37-2.11-10,.15c-.51.43-1.05,3.11.86,3.73,3.14,1,7.39-.77,8.2,1.23a3.59,3.59,0,0,1,.1,2,6.58,6.58,0,0,0-.06.67l1,.43c1.22.51-.74,2.86-.39,3.72.19.46,1.18.47,1.94-.08S400.36,102.31,400.7,100.53Z"/><path class="cls-37" d="M397.65,100.62c.75-1.17,1.47-1.06,1.91-.5.58.75-.28,2.51-.73,2.84-.91.66-1.69.68-1.84-.1"/><path class="cls-15" d="M399.32,110.28a8.45,8.45,0,0,1-4.67,1.29c-2.9,0-3.81-1.72-3.81-1.72s-11.47.3-17.21,5.81c-6.27,6-12.38,18.59-7.49,26.75s18.59-2,18.59-2"/><path class="cls-15" d="M387,112.12c-8.87-2.48-9.73,47.29-9.73,47.29,5.74,3.56,39.91,2.41,39.91,2.41s3.35-28.94-7.22-46.16c-2.06-3.36-10.63-5.38-10.63-5.38S393.2,113.85,387,112.12Z"/><path class="cls-39" d="M364.75,106.4l11.4-2.18,8.38,48s-.85,2.29-4.41,3a7.14,7.14,0,0,1-5.66-1Z"/><path class="cls-40" d="M368.92,101.16s5.74-.93,7.09,2.07-1.76,4.72-4.38,5.39-7.61.45-6.7-3.18c.79-3.2,6.08-3.22,7.28-2.34s1.34,3-2.09,3.49-2.18-2.43-.41-2.55"/><path class="cls-41" d="M368,106.06s1.14,1.45,3.41.36,2.37-5.14-3.37-3.63-3.48,6.54.56,6.24Z"/><path class="cls-42" d="M370,106.84l-.54-2.83s-1.73.65-1.6,1.69C368,107,370,106.84,370,106.84Z"/><path class="cls-43" d="M367.85,105.8l.61,3.24a11.35,11.35,0,0,0,5.17-1.13l-.7-3.69a2.37,2.37,0,0,1-2.08,2.37C368.61,107.17,367.85,105.8,367.85,105.8Z"/><path class="cls-44" d="M379.08,110l8.3-.32,1,41.74a3.85,3.85,0,0,1-3.44,1.92,4.79,4.79,0,0,1-3.9-1.64Z"/><path class="cls-40" d="M382.57,106.11s4.17,0,4.81,2.71-1.73,3.75-3.65,4-5.45-.64-4.43-3.59c.9-2.6,4.64-1.91,5.4-1s.65,2.72-1.83,2.67-1.3-2.35,0-2.21"/><path class="cls-41" d="M381.45,110.14a1.8,1.8,0,0,0,2.38.76c1.72-.62,2.2-4-2-3.52s-3.14,5.07-.24,5.35Z"/><path class="cls-42" d="M382.74,111.06l-.09-2.47s-1.3.33-1.31,1.22C381.33,110.92,382.74,111.06,382.74,111.06Z"/><path class="cls-43" d="M381.34,109.9l.1,2.82a6.86,6.86,0,0,0,3.78-.26l-.12-3.22a1.87,1.87,0,0,1-1.71,1.73A1.78,1.78,0,0,1,381.34,109.9Z"/><path class="cls-39" d="M395.78,110.5l10,3.26L392.2,153.24s-1.65,1.35-4.77.33a6.62,6.62,0,0,1-4.07-3.21Z"/><path class="cls-40" d="M401.31,108.37s5,1.77,4.78,4.59-3.4,2.77-5.77,2.15-6.26-2.92-4-5.25c2-2,6.21.2,6.79,1.38s-.19,2.82-3.13,1.71-.72-2.75.74-2.08"/><path class="cls-41" d="M398.54,111.66s.3,1.57,2.57,1.73,4.06-2.82-1.16-4.16-5.53,3.4-2.18,4.91Z"/><path class="cls-42" d="M399.76,113.07l.76-2.34s-1.66-.26-2,.58C398.13,112.34,399.76,113.07,399.76,113.07Z"/><path class="cls-43" d="M398.5,111.39l-.88,2.68a10.84,10.84,0,0,0,4.6,1.37l1-3.06s-.62,1.41-2.65.88S398.5,111.39,398.5,111.39Z"/><path class="cls-37" d="M386.72,129.52c1.09-.86,5.49-4.3,5.71-4s-1.25,1.83-1.06,1.92,1.6-.8,2.29-1.38,1.7-1.26,2-1c.5.46-2.93,3.27-2.93,3.27s3.12-3.72,3.58-3.38c.65.49-2.8,4.3-2.79,4.55,0,0,2.08-4.13,2.57-3.77s-1.28,4.1-2.16,5c.59-.84,1.59-4.08,1.95-3.82s-.77,2.89-1,3.23a24.12,24.12,0,0,1-4.56,4.56"/><path class="cls-15" d="M367.43,132.15c7.55-.16,21.88-6.56,21.88-6.56l5.68,8s-12.9,11.41-24.25,11.93Z"/><path class="cls-45" d="M387.76,138.8l7.23-5.24-5.68-8s-10.62,5-20.43,6.44"/><path class="cls-37" d="M383.84,150.42c-1.38-.14-7.65-.67-7.66-.3s2,.87,1.92,1-1.77.19-2.67.08-2.11-.14-2.2.2c-.17.65,4.24,1.17,4.24,1.17-.05.2-4.64-1.44-4.84-.91-.29.77,4.68,2.11,4.8,2.33,0,0-4-2.36-4.19-1.79s3.29,2.76,4.49,3c-1-.39-3.55-2.58-3.7-2.17s2.2,2,2.61,2.17a25,25,0,0,0,6.63,1.35"/><path class="cls-15" d="M405.19,157.87c6.48-3.8,12.73-14,13.43-24.27.45-6.74-4.06-15.39-9.84-19.24"/><path class="cls-15" d="M398.37,144.72a83.94,83.94,0,0,1-17.74,5.12l-1.51,11.86c4.85.38,17.79.45,26.75-4.17"/><path class="cls-45" d="M390.37,161.55s11.41-1.6,15.5-4c6.79-4,9.59-12,9.59-12"/><path class="cls-45" d="M380.63,149.84s12.48-2.12,18.69-5.61c4.91-2.77,5.87-16.48,5.87-16.48"/><path class="cls-17" d="M296.66,214.88a1.35,1.35,0,0,1-1.3-1l-4.94-18.77a1.35,1.35,0,0,1,1.3-1.69h23.85a1.35,1.35,0,0,1,1.3,1l4.94,18.76a1.34,1.34,0,0,1-1.3,1.69Z"/><path class="cls-46" d="M320.51,213.92H296.66a.37.37,0,0,1-.36-.29l-4.95-18.76a.38.38,0,0,1,.37-.48h23.85a.38.38,0,0,1,.37.28l4.94,18.77A.39.39,0,0,1,320.51,213.92Z"/><polygon class="cls-47" points="313.36 207.66 296.76 207.66 293.93 196.93 310.54 196.93 313.36 207.66"/><polygon class="cls-48" points="313.99 206.62 297.38 206.62 294.56 195.89 311.16 195.89 313.99 206.62"/><g class="cls-49"><g class="cls-50"><rect class="cls-51" x="294.04" y="197.64" width="21.52" height="0.76"/><rect class="cls-51" x="294.04" y="199.79" width="21.52" height="0.76"/><rect class="cls-51" x="294.04" y="201.95" width="21.52" height="0.76"/><rect class="cls-51" x="294.04" y="204.1" width="21.52" height="0.76"/></g></g><polygon class="cls-47" points="317.49 212.78 301.67 212.78 298.97 202.56 314.8 202.56 317.49 212.78"/><polygon class="cls-48" points="318.08 211.79 302.26 211.79 299.57 201.56 315.39 201.56 318.08 211.79"/><g class="cls-52"><rect class="cls-46" x="299.07" y="203.23" width="20.51" height="0.72"/><rect class="cls-46" x="299.07" y="205.29" width="20.51" height="0.72"/><rect class="cls-46" x="299.07" y="207.34" width="20.51" height="0.72"/><rect class="cls-46" x="299.07" y="209.39" width="20.51" height="0.72"/></g><rect class="cls-34" x="221.44" y="251.4" width="20.14" height="0.9" transform="translate(5.1 508.29) rotate(-95.97)"/><path class="cls-15" d="M240.11,258.2l-.23,1.78s-2.2.89-3.75,1.31a18.58,18.58,0,0,1-3.13.53l-2.09-20s1.79.34,5.09,4.83a10.55,10.55,0,0,0,2.66,2.6Z"/><path class="cls-37" d="M254.48,259l-14.6,1s-1.11-.74-1.46-4.14a26,26,0,0,1,.24-6.62l14.58-.95"/><path class="cls-53" d="M340.81,262.07c-9.93.36-25.9.45-41.84.41-25.77-.05-51.47-.41-51.47-.41l-1.88-15.42s24.27-2.48,47.6-5.72c22.94-3.18,45.2,1.51,45.2,1.51"/><line class="cls-54" x1="246.8" y1="256.35" x2="325.58" y2="256.42"/><rect class="cls-34" x="237.56" y="253.05" width="20.14" height="0.9" transform="translate(187.96 602.81) rotate(-125.98)"/><path class="cls-15" d="M258.25,254.7l.69,1.65a38.89,38.89,0,0,1-2.58,3,18.68,18.68,0,0,1-2.45,2l-11.83-16.3s1.72-.6,6.82,1.64a10.31,10.31,0,0,0,3.6.92Z"/><path class="cls-37" d="M268.06,252.26l-9.12,4.09s-1.32-.08-3.33-2.85a26.37,26.37,0,0,1-3.11-5.86l14.55-6.71"/><path class="cls-55" d="M354.77,232s8.54,30-12.85,30S306.5,247.37,303.48,247s-35.4,12.23-35.4,12.23l-9.5-14.69s25.9-13.36,36-15.42,37.33,4.59,37.33,4.59"/><path class="cls-56" d="M345,234.26s2.65,15.12-2.67,19.35c-7.57,6-34.64-11.9-39.18-11.9s-38,13.13-38,13.13"/><path class="cls-56" d="M336.18,233.91c-.11,7.19,9.16,7.14,9.16,7.14"/><line class="cls-56" x1="262.14" y1="243.37" x2="270.94" y2="258.08"/><path class="cls-57" d="M331.41,175.32c-1.15,3.77-1.13,7.26,2.07,8.23s7.87.67,9.52-4.71c1.16-3.78-.52-7.63-3.72-8.6S332.56,171.54,331.41,175.32Z"/><path class="cls-57" d="M335,187.25a9.49,9.49,0,0,0,4.6.63c2.93-.38,3.51-1.5,3.51-1.5l-2.42-8.1-6.42,1.91Z"/><path class="cls-57" d="M332.12,175.3s-2,2.19-1.95,2.63,1.18.8,1.18.8"/><path class="cls-58" d="M331.75,173.15s0,0,0,0Z"/><path class="cls-58" d="M338.68,178.24a5.93,5.93,0,0,1-3.49-5.86,3.83,3.83,0,0,1-3.44.76,7.75,7.75,0,0,1,8-4.34,6.8,6.8,0,0,1,4.55,2.88c1.65,2.45,1.68,3.81,2.46,6.58.28,1,1,3.22,2.18,3.93-1.52,1.18-6.49,3.27-12.78,1.94a8.32,8.32,0,0,0,2.61-6.83"/><path class="cls-37" d="M337.72,177.28a1.19,1.19,0,0,1,1.72-.13c1.17,1-.46,3.17-1.42,3.49s-1.21-.75-1.21-.75"/><path class="cls-37" d="M302.14,211.43c-1.25-.6-7-3.23-7.11-2.88s1.63,1.51,1.46,1.63-1.73-.42-2.54-.83-1.93-.85-2.13-.56c-.39.56,3.59,2.54,3.59,2.54-.12.17-3.88-2.93-4.25-2.5-.53.62,3.69,3.57,3.73,3.82,0,0-2.95-3.57-3.34-3.11s2.16,3.71,3.21,4.36c-.76-.69-2.47-3.63-2.75-3.29s1.39,2.64,1.72,2.92a24.87,24.87,0,0,0,5.78,3.52"/><path class="cls-15" d="M336,209.48s-3,16.61-12.53,18.15c-11.61,1.88-28.08-8.13-28.08-8.13l4.63-9.24c10.86,3,17.36,3.1,19.08,1.53s3.57-11.67,8.26-18.37S335,186.9,335,186.9s1,1,3.84.87a7.17,7.17,0,0,0,4.33-1.39s4.56,1.06,9.25,9.6,3.36,37.93,3.36,37.93-16.9,3.43-33.84-2.57c0,0-.6-27.66,3.47-33.77"/><path class="cls-45" d="M321.9,227.81c12.39-2,14.91-23.45,14.91-23.45"/><path class="cls-39" d="M122.7,201.32l10.9,9.21L99.48,249s-2.59.65-6-2.23-3.64-5.91-3.64-5.91Z"/><path class="cls-40" d="M130.39,201.89s5.35,4.75,3.92,7.89-5.33,1.33-8-.68-6.45-6.78-2.69-8.22c3.29-1.27,7.53,3.62,7.75,5.29s-1.43,3.13-4.57.26.28-3.56,1.79-2"/><path class="cls-41" d="M125.61,204.16s-.3,2,2.41,3.39,6.17-1,.34-5.42-8.22.89-4.75,4.45Z"/><path class="cls-42" d="M126.5,206.45l1.93-2.28s-1.93-1.2-2.69-.42C124.81,204.71,126.5,206.45,126.5,206.45Z"/><path class="cls-59" d="M125.67,203.82l-2.21,2.6a16.36,16.36,0,0,0,5.06,4.09l2.51-3s-1.35,1.28-3.62-.44S125.67,203.82,125.67,203.82Z"/><path class="cls-44" d="M42.3,216.53l13.43-9.86,28.61,40.81s.08,3.2-4.11,6.28-7.77,2.44-7.77,2.44Z"/><path class="cls-40" d="M44.92,207.79s6.86-4.78,10.13-2.17.17,6.59-2.83,9-9.48,5.43-10.19.64c-.63-4.21,6.1-7.64,8.09-7.39s3.27,2.6-.86,5.37-4-1.4-1.85-2.67"/><path class="cls-41" d="M46.32,214s2.2.94,4.54-1.78.39-7.47-6.17-2-1.07,9.8,3.93,6.84Z"/><path class="cls-42" d="M49.2,213.67l-2.15-2.92s-1.87,1.88-1.16,3C46.76,215.11,49.2,213.67,49.2,213.67Z"/><path class="cls-59" d="M46,213.84l2.45,3.36a18.5,18.5,0,0,0,6-4.65l-2.8-3.8s1.13,2-1.43,4.07S46,213.84,46,213.84Z"/><path class="cls-34" d="M68.15,210.28,69.71,217l-2.45,2.6-3.66-1.18L62,211.69a6.39,6.39,0,1,0,6.12-1.41Z"/><rect class="cls-34" x="67.41" y="221.15" width="6.28" height="26.78" transform="translate(-51.18 22.01) rotate(-13.06)"/><path class="cls-60" d="M73.14,245.68a6.38,6.38,0,1,0,7.65,4.77A6.37,6.37,0,0,0,73.14,245.68Zm5,7.29-2.71,2.53-3.54-1.08L71,250.81l2.7-2.52,3.54,1.07Z"/><path class="cls-60" d="M70.69,259.67l2.06-7.21,3.68-1.17,2.85,3-2.07,7.22a6.9,6.9,0,1,0-6.52-1.87Z"/><rect class="cls-17" x="66.67" y="232.08" width="28.95" height="6.79" transform="matrix(0.28, -0.96, 0.96, 0.28, -167.57, 248.68)"/><path class="cls-17" d="M84.55,223.59a6.9,6.9,0,1,0-4.74-8.53A6.9,6.9,0,0,0,84.55,223.59Zm-.89-9.51,3.89-1L90.33,216l-1.1,3.84-3.89,1-2.78-2.87Z"/><path class="cls-44" d="M102.07,196.48l14.79,7.68-27.19,50s-3,1.82-7.62-.58a10.18,10.18,0,0,1-5.45-6.21Z"/><path class="cls-40" d="M111.43,194.27s7.3,4.07,6.15,8.65-6.18,3.76-9.73,2.18-9-6.26-4.73-9.55c3.74-2.89,9.72,1.78,10.29,3.84s-1.16,4.59-5.45,2.09-.31-4.69,1.79-3.25"/><path class="cls-41" d="M106.08,199s0,2.65,3.52,3.44,7.25-3.69-.57-7.1-9.74,4.29-4.91,7.55Z"/><path class="cls-42" d="M107.57,201.62l1.91-3.67s-2.54-.8-3.31.49C105.22,200,107.57,201.62,107.57,201.62Z"/><path class="cls-59" d="M106.1,198.56l-2.2,4.2a16.16,16.16,0,0,0,6.84,3.32l2.49-4.78s-1.41,2.16-4.45.82S106.1,198.56,106.1,198.56Z"/><rect class="cls-61" x="48.19" y="231.53" width="51.86" height="30.96"/><rect class="cls-62" x="99.53" y="231.53" width="28.38" height="30.96"/><polygon class="cls-63" points="88.43 246.47 36.82 246.47 47.92 231.53 99.53 231.53 88.43 246.47"/><polygon class="cls-64" points="105.86 246.47 134.38 246.47 127.91 231.53 99.39 231.53 105.86 246.47"/><line class="cls-65" x1="148.57" y1="262.49" x2="161.07" y2="152.9"/><line class="cls-65" x1="113.46" y1="262.49" x2="125.96" y2="152.9"/><line class="cls-65" x1="115.39" y1="246.96" x2="150.34" y2="246.96"/><line class="cls-65" x1="116.99" y1="233.54" x2="151.87" y2="233.54"/><line class="cls-65" x1="118.34" y1="219.76" x2="153.15" y2="219.76"/><line class="cls-65" x1="119.83" y1="206.61" x2="154.57" y2="206.61"/><line class="cls-65" x1="121.4" y1="192.88" x2="156.35" y2="192.88"/><line class="cls-65" x1="122.95" y1="179.28" x2="157.7" y2="179.28"/><line class="cls-65" x1="124.66" y1="166.43" x2="159.53" y2="166.43"/><line class="cls-65" x1="138.47" y1="262.49" x2="125.96" y2="152.9"/><line class="cls-65" x1="173.58" y1="262.49" x2="161.07" y2="152.9"/><line class="cls-65" x1="171.65" y1="246.96" x2="136.7" y2="246.96"/><line class="cls-65" x1="170.05" y1="233.54" x2="135.17" y2="233.54"/><line class="cls-65" x1="168.7" y1="219.76" x2="133.89" y2="219.76"/><line class="cls-65" x1="167.2" y1="206.61" x2="132.46" y2="206.61"/><line class="cls-65" x1="165.64" y1="192.88" x2="130.69" y2="192.88"/><line class="cls-65" x1="164.08" y1="179.28" x2="129.34" y2="179.28"/><line class="cls-65" x1="162.37" y1="166.43" x2="127.51" y2="166.43"/><rect class="cls-66" x="120.66" y="150.36" width="45.26" height="3.17"/><polygon class="cls-21" points="191.69 95.37 179.25 118.96 146.38 118.96 146.38 116.01 178.51 116.01 190 94.26 191.69 95.37"/><path class="cls-57" d="M148.87,70.44c.17,4-.72,7.36-4.09,7.5s-7.84-1.32-8.1-7c-.18-4,2.42-7.31,5.79-7.45S148.7,66.47,148.87,70.44Z"/><path class="cls-57" d="M142.35,81.16a11.65,11.65,0,0,1-4.56-.8c-2.77-1.11-3.12-2.09-3.12-2.09L139.05,71l5.79,3.48Z"/><path class="cls-57" d="M148.18,70.24s1.37,2.63,1.24,3.06-1.36.48-1.36.48"/><path class="cls-38" d="M140.27,70.78c.52,1,2,1.69,2.57-.11s.35-2.32,1.26-2.51c1.15-.24.83.6,4.76.85,2.34.16,3.42-1.62,3.16-2.9A2.5,2.5,0,0,0,150,64c-2.09-.37-1.42.07-2.76-.36s-1.87-1.58-4-1.68a4.11,4.11,0,0,0-3.34,1.59,2.57,2.57,0,0,0-3.12,1.12c-1.3,1.8-.5,2.55-1.3,4.37-.7,1.59-.2,4.3.6,5.09a3,3,0,0,0,4.22.08s-2.16-3.62-.58-3.51"/><path class="cls-37" d="M141.09,70.93a1.2,1.2,0,0,0-1.65-.56c-1.4.73-.34,3.2.51,3.75a1,1,0,0,0,1.37-.42"/><rect class="cls-34" x="166.79" y="199.19" width="20.14" height="0.9" transform="translate(25 -19.62) rotate(6.83)"/><path class="cls-58" d="M170.64,191l-1.78.2s-.93,2.18-1.37,3.72a19.29,19.29,0,0,0-.58,3.12l20,2.4s-.31-1.8-4.75-5.16a10.62,10.62,0,0,1-2.56-2.7Z"/><path class="cls-37" d="M166.29,177.36l2.57,13.79s.72,1.11,4.12,1.52a26,26,0,0,0,6.62-.14L178,175"/><polyline class="cls-67" points="180.76 141.81 183.9 188.22 165.63 190.6 161.99 149.56"/><line class="cls-36" x1="165.47" y1="187.18" x2="183.01" y2="184.88"/><rect class="cls-34" x="146.17" y="191" width="20.14" height="0.9" transform="translate(94.71 -47.88) rotate(24.8)"/><path class="cls-58" d="M153,181.27l-1.75-.36s-1.56,1.79-2.46,3.12a18.66,18.66,0,0,0-1.5,2.79l18.28,8.45s.25-1.81-2.93-6.38a10.38,10.38,0,0,1-1.6-3.35Z"/><path class="cls-37" d="M153.93,176l-2.68,4.94s.34,1.28,3.44,2.72a26.52,26.52,0,0,0,6.35,1.91l5.49-8.44"/><path class="cls-21" d="M120.32,120.23s-5.63,30.13,9.06,30.13c11.48,0,24.8.19,30.08.27a1.7,1.7,0,0,1,1.58,2.24l-8.37,24.63,17.83,7.79s14.53-32.71,12.92-45S141,126.46,141,126.46l-4.22-8"/><path class="cls-36" d="M127.73,124s-3,16.53,4.66,19,25.91,2.74,31.36,4a3.85,3.85,0,0,1,2.88,4.67l-9.91,27.7"/><path class="cls-36" d="M139,126.08c-.72,5.47-11.78,7.53-11.78,7.53"/><line class="cls-36" x1="153.69" y1="174.53" x2="171.71" y2="182.48"/><path class="cls-37" d="M171,118.06c1.39-.09,7.67-.41,7.67,0s-2.07.8-2,1,1.77.25,2.67.17,2.11-.07,2.19.28c.15.66-4.28,1-4.28,1,0,.2,4.69-1.28,4.87-.74.26.77-4.75,1.94-4.88,2.15,0,0,4.06-2.21,4.26-1.64s-3.39,2.65-4.6,2.85c1-.35,3.64-2.45,3.78-2s-2.28,1.94-2.69,2.07a24.71,24.71,0,0,1-6.67,1.12"/><path class="cls-15" d="M143.57,91.79c0,13.34,1.92,18,6.59,20.87s15.47,3.84,22,4.39l-.75,10.19s-24.86-.5-31.22-4-7.34-22.56-7.34-22.56"/><path class="cls-15" d="M142.48,80.91c6.41,6.25,9,46.43,9,46.43-15.37.83-36.91,1-36.91,1s1.89-29.43,7.56-38.56A33.7,33.7,0,0,1,134.78,78a7.44,7.44,0,0,0,3.79,2.44,14.47,14.47,0,0,0,3.91.44"/><path class="cls-45" d="M151.23,113.21c-7.3-2.83-7.09-18.4-7.09-18.4"/><path class="cls-45" d="M151.41,125.89s-10.79,0-15.82-9.28A54.76,54.76,0,0,1,129.82,97"/></g></g></svg>