<svg id="Section1" xmlns="http://www.w3.org/2000/svg" xmlns:xlink="http://www.w3.org/1999/xlink" viewBox="0 0 600 600"><defs><style>.cls-1,.cls-12{fill:none;}.cls-2{fill:#fff;}.cls-3{fill:#f55;}.cls-4{clip-path:url(#clip-path);}.cls-5{fill:#ccc;opacity:0.5;}.cls-10,.cls-5{isolation:isolate;}.cls-6{fill:#40405b;}.cls-7{fill:#6f7592;}.cls-8{fill:#38332d;}.cls-9{clip-path:url(#clip-path-9);}.cls-10{fill:#e84376;opacity:0.2;}.cls-11{fill:#ffc931;}.cls-12{stroke:#6f7592;stroke-miterlimit:10;stroke-width:3px;}</style><clipPath id="clip-path"><circle class="cls-1" cx="111.6" cy="316.6" r="44.8"/></clipPath><clipPath id="clip-path-9"><circle class="cls-1" cx="482.1" cy="317.1" r="44.8" transform="translate(91.87 742.18) rotate(-80.78)"/></clipPath></defs><title>method-2-red</title><polygon class="cls-2" points="90.4 293.3 86.1 291.9 83.5 287.3 82.6 282.9 82.6 279.7 83.3 277.3 85.8 276.2 89.4 266 95 255.5 133.3 254.8 136.6 266 136.6 275.3 137.8 276.7 140.1 276.5 142 278.8 142.3 285 139.8 290.9 136.6 292.8 133.7 293.5 123.9 318.3 124.4 324.7 126 329.1 129.3 334.2 125.7 335.3 118.4 336.4 111.1 336.8 104.2 336.3 94.5 334.9 98.8 328.9 99.9 324.2 99.9 315.9 92.4 299.1 90.4 293.3"/><path class="cls-3" d="M136.6,275.8l-3.8-5.2c.5,7.3.5,15.3-1.3,22.5-.6,2.1-1.9,6.1-4.2,5.9s-9-3.2-14.5-3.4c-5.3-.1-10.2,2.2-15.4,2.8-3.6.4-4.2-1.5-4.7-4.7A117,117,0,0,1,91.1,275c0-.9-.6-3.5.1-4.3l-3.8,5.2c.5,17.6,4.7,28,4.7,28a48.5,48.5,0,0,0,1.7,5.3c1.9,4.6,5.5,9.4,10.1,11.4,11,4.9,21.6,3.1,28-11.5C136.5,298.5,136.3,286.8,136.6,275.8Zm-14.8,29.9a11,11,0,0,1-8.8,3.4,10.05,10.05,0,0,1-2.5-.4,15.28,15.28,0,0,1-5.1-2.1c-.7-.5-4.1-3.7-3.3-4.8,0,0,1.4-1.9,10.7-1.7s10.7,2.2,10.7,2.2C124,302.9,122.2,305.3,121.8,305.7Z"/><g class="cls-4"><circle class="cls-5" cx="111.6" cy="316.6" r="44.8"/></g><g class="cls-4"><polygon class="cls-2" points="90.5 293.3 86.2 291.9 83.6 287.3 82.7 282.9 82.7 279.7 83.5 277.3 85.9 276.2 89.6 266 95.1 255.5 133.4 254.8 136.7 266 136.7 275.3 137.9 276.7 140.2 276.5 142.1 278.8 142.4 285 140 290.9 136.7 292.8 133.9 293.5 124 318.3 124.6 324.7 126.1 329.1 129.4 334.2 125.8 335.3 118.6 336.4 111.2 336.8 104.3 336.3 94.6 334.9 98.9 328.9 100.1 324.2 100.1 315.9 92.5 299.1 90.5 293.3"/></g><g class="cls-4"><path class="cls-3" d="M55.4,362s5.6-11.9,16.2-15.9l9-3.4S93,338,95.3,335.6c0,0,23,3.3,33.5-1.5,0,0,9.5,6.5,12.5,7.5,0,0,14.6,3.7,19.4,9.1,0,0,8.2,5.4,7.9,11.4H55.4Z"/></g><g class="cls-4"><path class="cls-6" d="M89.2,282.1c1.6-5.3,1.5-19,8.4-20.7,2.9-.7,12.7,7.3,26.3,0,5.4-2.9,10.9,15.8,11.9,18.5l.4-2.4,2.5-1.9s10.5-38.2-27.4-37.4-27,37.7-27,37.7S88.7,275.2,89.2,282.1Z"/></g><g class="cls-4"><path class="cls-7" d="M58.6,357.4c3.1-5.5,8.9-9.7,14.8-12.3,2.4,5.5,2.7,11.4,2.2,17.3h1.5c.5-6.1.2-12.1-2.3-17.8,5.7-2.2,11.8-3.4,16.9-6.8.1-.1.2-.1.3-.2a18.9,18.9,0,0,0,2.7-2,1.38,1.38,0,0,0,.4.3c11.4,2,23,2.8,34.2-.5h0a17.41,17.41,0,0,0,1.4,1.2c5.4,4.3,13,5.7,19.3,8.3.3.1.5.2.8.3-4,4.4-4.9,11.1-4.8,17.3h1.5c-.1-6.1.8-12.5,4.8-16.6,5.4,2.6,10.5,6.6,13.4,11.6.9,1.6,1.6,3.4,2.3,5h1.4a33.49,33.49,0,0,0-6.4-11.1c-4.2-4.8-10.9-7.4-16.9-9.4-9.9-3.2-20.1-7-21.1-19a87.75,87.75,0,0,1-.1-8.9c4.7-3.3,7.6-9.1,9.1-14.9a68,68,0,0,0,1.9-22.5,7.84,7.84,0,0,1-1.4.5,68.57,68.57,0,0,1-1.7,20.7c-1.9,8-6.4,16.9-15.7,17.4-.2,0-.2,1.5,0,1.5a15.33,15.33,0,0,0,6.5-1.8c0,2.3-.1,4.5.1,6.8a21,21,0,0,0,4.7,12.2c-10.6,2.9-21.5,2.3-32.3.4,3.4-3.6,4.4-7.9,4.7-12.6.2-2.6,0-5.2.1-7.8a16.7,16.7,0,0,0,5.5,2.2c.9.2,1.2-1.3.2-1.5-7.5-1.4-11.7-8.1-14-14.8-2.4-6.9-3.1-14.3-3.1-21.5,0-.9-1.5-.8-1.5.2a69.25,69.25,0,0,0,3.4,22.6,26,26,0,0,0,8,12c-.1,3.3.1,6.7-.2,10a18,18,0,0,1-4.4,10.5c-4.2,5-10.8,6.6-16.8,8.5s-12.7,4.6-16.9,9.4a35.32,35.32,0,0,0-6.4,11.1h1.4C57,360.9,57.7,359,58.6,357.4Z"/></g><g class="cls-4"><path class="cls-8" d="M136,276.9c-.7.5,0,1.7.7,1.2,4.3-3.3,5.1,1.4,5,4.9-.1,4.1-1.9,9-6.6,9.5-.9.1-.9,1.5,0,1.4,6.1-.6,8-6.8,7.9-12.2C143.1,277,140.5,273.5,136,276.9Z"/></g><g class="cls-4"><path class="cls-8" d="M89.1,276.9c.7.5,0,1.7-.7,1.2-4.3-3.3-5.1,1.4-5,4.9.1,4.1,1.9,9,6.6,9.5.9.1.9,1.5,0,1.4-6.1-.6-8-6.8-7.9-12.2C82,277,84.6,273.5,89.1,276.9Z"/></g><g class="cls-4"><path class="cls-3" d="M136.7,276l-3.8-5.2c.5,7.3.5,15.3-1.3,22.5-.6,2.1-1.9,6.1-4.2,5.9s-9-3.2-14.5-3.4c-5.3-.1-10.2,2.2-15.4,2.8-3.6.4-4.2-1.5-4.7-4.7a117,117,0,0,1-1.6-18.7c0-.9-.6-3.5.1-4.3l-3.8,5.2c.5,17.6,4.7,28,4.7,28a48.5,48.5,0,0,0,1.7,5.3c1.9,4.6,5.5,9.4,10.1,11.4,11,4.9,21.6,3.1,28-11.5C136.6,298.7,136.4,287,136.7,276Zm-14.8,29.9a11,11,0,0,1-8.8,3.4,10.05,10.05,0,0,1-2.5-.4,15.28,15.28,0,0,1-5.1-2.1c-.7-.5-4.1-3.7-3.3-4.8,0,0,1.4-1.9,10.7-1.7s10.7,2.2,10.7,2.2C124.1,303.1,122.3,305.6,121.9,305.9Z"/></g><path class="cls-7" d="M136,276.9c-.7.5,0,1.7.7,1.2,4.3-3.3,5.1,1.4,5,4.9-.1,4.1-1.9,9-6.6,9.5-.9.1-.9,1.5,0,1.4,6.1-.6,8-6.8,7.9-12.2C143.1,277,140.5,273.5,136,276.9Z"/><path class="cls-7" d="M89.1,276.9c.7.5,0,1.7-.7,1.2-4.3-3.3-5.1,1.4-5,4.9.1,4.1,1.9,9,6.6,9.5.9.1.9,1.5,0,1.4-6.1-.6-8-6.8-7.9-12.2C82,277,84.6,273.5,89.1,276.9Z"/><path class="cls-3" d="M89.2,282.1c1.6-5.3,1.5-19,8.4-20.7,2.9-.7,12.7,7.3,26.3,0,5.4-2.9,10.9,15.8,11.9,18.5l.4-2.4,2.5-1.9s10.5-38.2-27.4-37.4-27,37.7-27,37.7S88.7,275.2,89.2,282.1Z"/><path class="cls-7" d="M113.3,306.4c-4.5,0-6.5-1.4-6.9-2.2a3.29,3.29,0,0,1-.5-2.2c0-.1.1-.2.1-.3a.37.37,0,0,1,.3-.1c.1,0,10.6,1,13.4.4a.6.6,0,0,1,.4.1c.1.1.1.2.1.4,0,0-.9,3.7-6.1,3.9Zm-6.7-3.9a3,3,0,0,0,.5,1.4c.3.5,2.1,1.9,6.9,1.8,3.3-.1,4.7-1.8,5.1-2.7A94.13,94.13,0,0,1,106.6,302.5Z"/><path class="cls-7" d="M124.7,285.4a.37.37,0,0,1-.3-.1,2.88,2.88,0,0,0-2.1-1.2h0a3.08,3.08,0,0,0-2.3,1.2c-.1.2-.4.2-.6,0s-.2-.4,0-.6a4.39,4.39,0,0,1,2.9-1.4h0a3.62,3.62,0,0,1,2.7,1.4.64.64,0,0,1,0,.6A.37.37,0,0,1,124.7,285.4Z"/><path class="cls-7" d="M105.1,285.4a.37.37,0,0,1-.3-.1,2.59,2.59,0,0,0-2.1-1.2h0a3.08,3.08,0,0,0-2.3,1.2c-.1.2-.4.2-.6,0s-.2-.4,0-.6a4.39,4.39,0,0,1,2.9-1.4,3.62,3.62,0,0,1,2.7,1.4.64.64,0,0,1,0,.6A.37.37,0,0,1,105.1,285.4Z"/><polygon class="cls-2" points="471 262.4 494.1 262.4 494.1 276.4 469 276.4 469 262.4 471 262.4"/><g class="cls-9"><circle class="cls-5" cx="482.1" cy="317.1" r="44.8" transform="translate(91.87 742.18) rotate(-80.78)"/></g><g class="cls-9"><polygon class="cls-2" points="428.7 364.6 431 357.3 432.5 353.9 439 346.5 445 343 455.1 339.3 464.9 335.3 469.5 328.1 470.5 323.9 470.8 318.1 470.8 312.5 466.9 308.5 464.7 304.6 462.9 300.2 462.4 298 457.5 296.5 454.9 293.5 454.1 289.6 455 286.9 457.3 285.2 460 284.6 460.8 269.5 477.1 259.4 501.9 260.6 507.9 279.9 504.6 283.8 505.3 285.1 508.3 285.7 510.2 287.8 510.9 291.1 509.3 294.9 507.4 296.7 505.4 297.6 502.9 298.3 498.9 308.7 495 313.1 493.5 314.1 493.8 321.3 494.7 327 496.9 331.6 500.6 335.3 508.5 339.2 519.6 342.9 526.2 347 528.6 349.2 532.1 354.3 535.4 361.3 535.4 362.5 428.7 364.6"/></g><g class="cls-9"><path class="cls-3" d="M517.9,294c-4-8.9-2.7-20.7-3.6-30.2a37,37,0,0,0-6.8-17.4c-2.7-3.7-8.4-7.3-13.1-7.7a15.48,15.48,0,0,0-11.3,3.5c-2.7,2.4-6.3,4.8-6,8.8,0,0,1.5,4.7,3.7,11.4,7.6-3.1,18.7,3.1,21.2,10.4a38.72,38.72,0,0,1,2.1,13.4,3.52,3.52,0,0,1,3.3-.1,3.55,3.55,0,0,1,.9.4,3.18,3.18,0,0,1,1.1,1.2c.1.1.1.1.2.1,1.9,1.5,1.3,3.5.1,5.1a5.85,5.85,0,0,1-5.7,4.2l-1.3.3h-.4a34.13,34.13,0,0,1-2.4,6.3v.1a16.6,16.6,0,0,1-3.4,6.6c1.8,1.5,9.1,2.3,10.8,2.4a23.18,23.18,0,0,0,13.8-3.7c4.7-3.3,6.4-5.5,8.7-12.2C528.2,301.9,519.8,298.1,517.9,294Z"/><path class="cls-3" d="M518.8,361.9c-1.6-8-4.7-20.9-8.4-21.7a15.79,15.79,0,0,1-8.2-4.6c-19.6,31.1-38.6,1.2-38.6,1.2s-7.9.8-9.6,2.6c-3.3,3.6-4.4,15.1-4.9,22.4h69.7Z"/><path class="cls-7" d="M477.3,315c-7.1-1.4-11.4-8.1-13.6-14.4a64.25,64.25,0,0,1-3-20.4c0-.9-1.4-.7-1.4.2,0,1.3,0,2.6.1,3.8a6.33,6.33,0,0,0-5.9,7.2,9,9,0,0,0,7.8,7.2h.3c.3,1.1.6,2.1,1,3.2,1.5,4.4,4,8.6,7.6,11.3-.1,3.2.1,6.3-.1,9.5a17.18,17.18,0,0,1-4.1,9.9c-4,4.7-10.3,6.3-15.9,8.1s-10.7,3.9-14.7,8.4a36.36,36.36,0,0,0-6.7,12.1H430c.7-1,1.6-4.1,2.8-6.3a26.65,26.65,0,0,1,13.5-11.7,89.64,89.64,0,0,1,11.4-3.8c11.6-3,13.5-13,13.8-17.9.2-2.5,0-4.9,0-7.4a18.83,18.83,0,0,0,5.6,2.5A.76.76,0,0,0,477.3,315Zm-22.1-22.9a4.92,4.92,0,0,1,4.4-6.6,57.15,57.15,0,0,0,1.8,11.6A7.23,7.23,0,0,1,455.2,292.1Z"/><path class="cls-7" d="M529.3,348.9c-4-4.5-9.1-6.8-14.7-8.6s-11.9-3.3-15.9-8a17.18,17.18,0,0,1-4.1-9.9c-.2-2.8-.1-5.6-.1-8.4,4.5-3.1,7.2-8.6,8.6-14.1a7.37,7.37,0,0,1,.4-1.4h.2a9,9,0,0,0,7.8-7.2,6.19,6.19,0,0,0-6-7.2h-.2a66.32,66.32,0,0,0-.7-10c-.1-.9-1.5-.5-1.3.4a68,68,0,0,1-1.1,24.2c-1.8,7.6-6.1,16.4-14.9,16.9a.7.7,0,0,0,0,1.4,13.87,13.87,0,0,0,6.1-2.1c0,2.1-.1,4.3.1,6.4.6,10.3,5.5,15.7,15,18.6,3.5,1,6.8,2,10.1,3.3a26.27,26.27,0,0,1,13.5,11.5c1.2,2.1,2.1,5.3,2.8,6.3h1.3A41,41,0,0,0,529.3,348.9Zm-24.2-63.4h.2a4.86,4.86,0,0,1,4.4,6.6,7.38,7.38,0,0,1-6,5A63.43,63.43,0,0,0,505.1,285.5Z"/><path class="cls-10" d="M498.3,291.6c4.3,2.8-4.4,7.6-7,4.4S495.9,290,498.3,291.6Z"/><path class="cls-10" d="M467,292.3c-4.5,2.9,4.5,7.9,7.3,4.6S469.6,290.7,467,292.3Z"/><path class="cls-11" d="M459.4,280.3s18.1-.8,22.8-12.9c0,0,5.5,10.3,22.8,12.1,0,0,9.6-31.1-23-31.1C450.8,248.4,459.4,280.3,459.4,280.3Z"/></g><path class="cls-3" d="M459.4,280.3s18.1-.8,22.8-12.9c0,0,5.5,10.3,22.8,12.1,0,0,9.6-31.1-23-31.1C450.8,248.4,459.4,280.3,459.4,280.3Z"/><path class="cls-3" d="M528.1,299.1c-9-2.8-11-13.6-10-23.4a52.1,52.1,0,0,0-2-19s-4-15.8-17.8-18-17.9,11.8-17.9,11.8l3.7,11.9c10.7-2,16.7,2.3,20.1,7.6l-1.4,6.6,5.6,8.4a11.3,11.3,0,0,1,5.3,1.4c2.1,1,1.5,4.3,1.5,5.7s-1.7,3.3-4.3,4.9a8.22,8.22,0,0,1-4.3,1.5l-6.8,12c26,10.1,33.2-13.3,33.2-13.3C531.9,300.2,528.1,299.1,528.1,299.1Z"/><path class="cls-7" d="M482.9,308.1c-4.5,0-6.5-1.4-6.9-2.2a3.29,3.29,0,0,1-.5-2.2c0-.1.1-.2.1-.3a.37.37,0,0,1,.3-.1c.1,0,10.6,1,13.4.4a.6.6,0,0,1,.4.1c.1.1.1.2.1.4,0,0-.9,3.7-6.1,3.9Zm-6.7-4a3,3,0,0,0,.5,1.4c.3.5,2.1,1.9,6.9,1.8,3.3-.1,4.7-1.8,5.1-2.7C485.5,305,478.1,304.3,476.2,304.1Z"/><path class="cls-7" d="M494.4,287.1a.37.37,0,0,1-.3-.1,2.88,2.88,0,0,0-2.1-1.2h0a3.08,3.08,0,0,0-2.3,1.2c-.1.2-.4.2-.6,0s-.2-.4,0-.6A4.39,4.39,0,0,1,492,285h0a3.62,3.62,0,0,1,2.7,1.4.64.64,0,0,1,0,.6A.37.37,0,0,1,494.4,287.1Z"/><path class="cls-7" d="M474.8,287.1a.37.37,0,0,1-.3-.1,2.59,2.59,0,0,0-2.1-1.2h0a3.08,3.08,0,0,0-2.3,1.2c-.1.2-.4.2-.6,0s-.2-.4,0-.6a4.39,4.39,0,0,1,2.9-1.4,3.62,3.62,0,0,1,2.7,1.4.64.64,0,0,1,0,.6A.77.77,0,0,1,474.8,287.1Z"/><line class="cls-12" x1="170.8" y1="317.1" x2="247.8" y2="317.1"/><polyline class="cls-12" points="175.9 323.5 169.5 317.1 175.9 310.7"/><polyline class="cls-12" points="243.2 310.7 249.6 317.1 243.2 323.5"/><line class="cls-12" x1="351.4" y1="317.1" x2="428.4" y2="317.1"/><polyline class="cls-12" points="356.6 323.5 350.2 317.1 356.6 310.7"/><polyline class="cls-12" points="423.8 310.7 430.3 317.1 423.8 323.5"/><rect class="cls-3" x="276.8" y="292.2" width="21.5" height="21.5"/><rect class="cls-3" x="304" y="292.2" width="21.5" height="21.5"/><rect class="cls-3" x="276.8" y="320.6" width="21.5" height="21.5"/><rect class="cls-3" x="304" y="320.6" width="21.5" height="21.5"/></svg>