<svg id="layer" xmlns="http://www.w3.org/2000/svg" viewBox="0 0 631 500"><defs><style>.cls-1{fill:gray;}.cls-1,.cls-10,.cls-11,.cls-12,.cls-13,.cls-14,.cls-15,.cls-16,.cls-17,.cls-18,.cls-19,.cls-2,.cls-20,.cls-21,.cls-23,.cls-24,.cls-3,.cls-4,.cls-5,.cls-6,.cls-7,.cls-8,.cls-9{fill-rule:evenodd;}.cls-2{fill:#d8d6d7;}.cls-3,.cls-9{fill:#fff;}.cls-4{fill:#bdb8bb;}.cls-5{fill:#ffdfb6;}.cls-6{fill:#effaff;}.cls-7{fill:#fcffe9;}.cls-8{fill:#ffdede;}.cls-9{opacity:0.2;isolation:isolate;}.cls-10{fill:#feede5;}.cls-11{fill:#00d1b2;}.cls-12{fill:#ffdace;}.cls-13{fill:#fef3e5;}.cls-14{fill:#e7c0b1;}.cls-15{fill:#f3d8c4;}.cls-16{fill:#ffcdb5;}.cls-17{fill:#ffdfac;}.cls-18{fill:#f3877d;}.cls-19{fill:#fff3db;}.cls-20{fill:#ffc8bb;}.cls-21{fill:#e4f2b5;}.cls-22,.cls-23{fill:#463b39;}.cls-24{fill:#b4b4b4;}</style></defs><g id="Ñëîé_3" data-name="Ñëîé 3"><path class="cls-1" d="M88.84,82.05H548.61A2.42,2.42,0,0,1,551,84.47V388.56a2.42,2.42,0,0,1-2.42,2.42H88.84a2.42,2.42,0,0,1-2.42-2.42V84.47A2.42,2.42,0,0,1,88.84,82.05Z"/><path class="cls-2" d="M21.64,391H609.36a2.41,2.41,0,0,1,2.41,2.41l-18.48,24.36L35.8,416.74c-7.78-4.06-16.57-23.29-16.57-23.29A2.41,2.41,0,0,1,21.64,391Z"/><path class="cls-3" d="M110.6,103.93H527.36V368.46H110.6Z"/><path class="cls-4" d="M320.79,92.86a8.9,8.9,0,1,1,8.9,8.91A8.9,8.9,0,0,1,320.79,92.86Z"/><path class="cls-5" d="M110.6,103.93h138v84.78h-138Z"/><path class="cls-5" d="M387.36,270.58h140v84.79h-140Z"/><path class="cls-6" d="M110.6,188.74H248.29v80.8H110.6Z"/><path class="cls-7" d="M247.88,188.4H387.62v82H247.88Z"/><path class="cls-8" d="M110.5,270.55H247.08v83H110.5Z"/><path class="cls-7" d="M387.6,103.52H527.25v84.42H387.6Z"/><path class="cls-9" d="M106.1,391.24,382.33,82.17H470L239.61,390.81Z"/><path class="cls-9" d="M281.43,390.93,522.76,82.22l20-.1L303.05,391.05Z"/></g><g id="Ñëîé_2" data-name="Ñëîé 2"><path class="cls-10" d="M158.22,144.45c0-11.73,10-22.56,21.34-22.28,6.13.16,18.91,11.77,18.91,23.5,0,6.75,2.57,23.35-2.67,32.51-3.87,6.74-15.35,7.45-18,7.45s-16.54-.16-16.51-7.67C161.37,166.87,158.22,151.38,158.22,144.45Z"/><path class="cls-11" d="M151.33,177.6a17.57,17.57,0,0,0,1.82-5.72c.45-2.71.6-10.4.84-13.36s.15-12.37.45-16.26.54-10.79,2-14.74,3.2-9.76,7.39-13.21,7.84-4.63,10.1-4.92,4.39-1.14,7-.94,8.09,1.28,10.75,3.74,5.62,4.88,7.29,8.58,3.89,7.39,3.89,12,.1,15.77,0,18.43-.19,14.39.5,17,1.72,7.4,2.81,9.07,0,2.12-2,1.38-6.95-2.86-9.81-4.38A10,10,0,0,1,189,167.2c-.55-3.06-.53-3.71.45-5.46s1.9-2.3,2.68-4.34a41.06,41.06,0,0,0,1.95-6.68c.19-1.46,1.6-1,2.63-2.39s1.41-2.92.24-3.9-3.51-2.77-4.38-4.63a46.43,46.43,0,0,0-5.46-8.48c-1.76-1.85-5.36-4.63-8-5.51s-5.75-1.41-7.65-.14-2.82,3.51-4.34,5.7a49.81,49.81,0,0,0-4.43,9.21c-.93,2.59-1.51,4.34-1.07,7.17s.78,6.19,2.19,8.43a34.76,34.76,0,0,0,4.14,5.85c1.37,1.31,1.56,1.85,1.27,4.24s-1.27,6.72-2.92,7.16-9.33,3-11.16,3.68S150.69,178.73,151.33,177.6Z"/><path class="cls-10" d="M160,223.12c-.16-11.73,10-22.56,21.35-22.28,6.13.16,18.91,11.77,18.91,23.5,0,2.81-2.37,9.17-4.6,14.4-1,2.41-2.27,3.79-2.8,5.89-1.08,4.3.2,6.51.43,9.39.61,7.75-11.06,10.28-13.66,10.28S165.57,260,169.3,253.52C174.05,245.2,160.22,238.43,160,223.12Z"/><path class="cls-12" d="M158.79,311.55c0-11.72,10.27-23,21.59-22.76,6.13.16,18.91,11.77,18.91,23.5,0,4.28-9.1,14.7-9,19.84,0,1.72-.43,5.54,1.14,6.56,6.59,4.28,6.31,4.21,5.22,6.11-3.87,6.74-15.35,7.46-18,7.46s-16.88-2.1-16.85-9.61c0-1.94,4-.12,6.4-2.84,2.22-2.49,3.35-7.62,2-9.15C166.6,326.51,158.79,316.17,158.79,311.55Z"/><path class="cls-13" d="M298.78,228.49c0-11.73,10-22.56,21.35-22.27,6.12.15,18.91,11.76,18.91,23.49,0,3.68-6.27,7.28-6.42,14-.13,5.63,6.13,14.34,3.74,18.51-3.87,6.75-15.35,7.46-17.95,7.46s-18-1.9-18-9.41c0-2.48,4.58-.59,6.58-3.13,2.14-2.73,3.12-8.12,2-9.46C304.67,242.61,298.78,232.22,298.78,228.49Z"/><path class="cls-14" d="M298.62,312.21c0-11.73,10-22.56,21.34-22.28,6.13.16,18.91,11.77,18.91,23.5,0,4.32-12.92,18.91-8.72,23.66,4.9,5.53,7.94,5.55,6,8.85-3.86,6.74-15.35,7.46-17.95,7.46S301,352.57,301,345.06c0-1.77-.2-2.5,6.17-5.4C313.74,336.67,298.62,318,298.62,312.21Z"/><path class="cls-13" d="M299.93,144.72c0-11.73,10.55-25.84,21.87-25.55,6.13.16,15.62,12.39,15.13,24.11s-2.94,10.54-4.68,18c-.8,3.43-.34,8.32,1.94,10.28,3.55,3,8,2.84,7,4.57-3.87,6.75-20.75,8.48-23.35,8.51-5.33,0-19.24-6.85-16.87-8.64s5.38-2,7.2-5.2c1.15-2,2-8.7,1.21-10.46-1.17-2.43-3.35-5.41-4.13-7.26-.37-.88-1.65-.61-2.36-1.21C300.29,149.64,299.93,147.14,299.93,144.72Z"/><path class="cls-15" d="M441.15,141c0-11.73,9.41-22,20.73-21.77,6.13.16,18.91,11.77,18.91,23.5,0,1.71-2.52,5.07-3.5,9.15-.89,3.73-4.35,13-3.44,16.87,1,4.17,5.18,4.19,3.15,7.72-3.87,6.75-14.24,6.22-16.84,6.22s-14.51,2.52-14.48-5c0-3.21,4.31-4.69,5.41-9.4s-3-15.1-5.21-15.1C441.48,153.17,441.15,144,441.15,141Z"/><path class="cls-16" d="M438.32,226.66c0-1.23.4-2,2.06-2,1.82,0,.64-8.28,1.26-9.79a18.39,18.39,0,0,1,18-11.44c6.13.15,17.44,12.29,15.59,24.59-.35,2.4-2.87,10.86-4.45,13.43s-.09,8.5,1.77,11.14c2.39,3.42,5.21,3.54,3.32,6.84-3.87,6.75-15.35,7.46-17.95,7.46s-16.55-.17-16.52-7.68c0-2.69,3.28-3.63,5.18-6.54,1.26-1.94,1.24-5.82,1.7-7.76s-2.27-6.09-2.64-6.8c-1.25-2.46-1.24-4.26-2.29-4.53A6.84,6.84,0,0,1,438.32,226.66Z"/><path class="cls-11" d="M169.68,334.46c-1.93-.52-6.32,1-9.75-.39s-5.16-1.87-5.81-4.71S153,322,154,319.8a25,25,0,0,0,1.74-9.43c-.06-3.36.39-11.43,1.17-13.88s3.23-9.62,6.13-12.85,8.59-7.3,11.24-7.56,5.68-.13,8.39-.39,8.14.84,10.14,2.65,6.78,5.3,8.27,8.65,3.49,8.14,3.62,11.24.12,6.78.25,9.11-.38,4.58-.19,6.46.65,7,.06,10.26-2.32,7.56-4.64,8.85-5,0-7,.26-3,.52-3-1.68S192,326.84,194,323c1.11-2.11.9-5.17,1.68-5.81s2.26-1,2.91-2.2.06-2.13-1.3-3.55-3.42-2.07-4.32-4.71a79.23,79.23,0,0,0-3.55-8.46c-.85-1.55-3.62-6.66-5.82-7.49s-5.36-1.75-7.55-1.1-5.69,2.65-6.91,5.23-3.62,7.23-4.46,10.65a14.44,14.44,0,0,1-3.23,6.72c-1.48,1.81-1.87,3.87-.84,4.91a18,18,0,0,1,3.88,4.2c1.61,2.51,3.23,5.87,4.65,7.1S171.62,335,169.68,334.46Z"/><path class="cls-11" d="M443.31,226.59c.57,1.56-1.53-1.26-3-1.74s-1.05-1.95-1.58-4.27-1.63-5.59-1.21-8.85.79-6.38,2.53-9.13,2.32-4.16,5-5.37,5.11-2.69,8-3.59,5.85-.26,7.91-.69a27.62,27.62,0,0,1,7.8.11,7.58,7.58,0,0,1,5.07,2.74,28.9,28.9,0,0,1,3.63,6.54c1.06,2.48,2.22,6.75,1.8,9.44s-.53,7-1.74,8.49-2.38,1.84-4.06.37-2.59-3.64-4.22-5.54-4.69-1.63-6.43-3.53-4.8-4.06-6.75-4.38-4.8,0-5.38,1.48-3.22,2.58-4.8,3.9a8.64,8.64,0,0,0-3.06,5.06C442.57,219.48,442.57,224.59,443.31,226.59Z"/><path class="cls-11" d="M300.41,144.17c-1.3,1.71-.78-1.73-1.55-4.75a19.79,19.79,0,0,1-.72-7.1,31.88,31.88,0,0,1,1.87-9,26.09,26.09,0,0,1,4.73-7.7c1.7-1.76,5.33-4.23,7.31-4.34a37.29,37.29,0,0,0,7.37-.88,12.78,12.78,0,0,1,6.49.11,13.88,13.88,0,0,1,6,3.24c2,2,4.67,4.4,6.05,7.43a38.23,38.23,0,0,1,3,9.12c.28,2.26.39,6.66-.6,8.58a22.06,22.06,0,0,1-2.31,3.69c-.66.88-.55-.55-1.21-2.37s-1.21-3.52-2.75-4.73-4.56-2.58-6.1-4.23-2.2-3.36-3.8-5.06-3.73,1.89-5,3.7-4,2.43-6.58,3.32-4.91,3.22-6.29,4.59a18.21,18.21,0,0,0-3.47,5.22C302.71,144,301.46,142.78,300.41,144.17Z"/><path class="cls-11" d="M170.31,249c-1.11-.22-8.47-.22-10.61-1.27s-4.53-1.27-5.85-2.85-3.35-4.08-2.89-7.12a36.12,36.12,0,0,1,2.11-7c.71-2.15.4-5.41.74-7.44s.27-5.84,1.27-8.74,1.12-6.05,4.64-9.78,6.21-6.38,8.74-7.62,6.13-1.2,8.32-1.12,3.27-.29,6.75,0a19.94,19.94,0,0,1,10.15,4.31c2.65,2.24,6.46,9.9,7.12,12s1.7,6.79,2.57,10.36,3.4,10.85,3.23,13.17-4.22,8.32-6.38,9.52-7.49.83-7.58.17,0-1.25,1.21-3.52a28.62,28.62,0,0,0,2.89-9c.42-3.23-.16-7.17-1.32-8.37a25.36,25.36,0,0,1-4.31-7.24c-.91-2.61-3.15-7.46-4.68-8.66s-4.18-3.15-7.2-2.36-6.67,4.8-8.21,7.45-3.89,8.12-5.38,10.28-2.36,1.78-3.35,2.36a2.88,2.88,0,0,0-1.54,3.64c.58,2.11,1.41,4.22,2.57,4.68s2.24-.5,3,1.28,2.49,5.76,3.32,6.75a3.73,3.73,0,0,1,1,2.86C170.61,246.86,171.41,249.2,170.31,249Z"/><path class="cls-11" d="M446,142.18a15.57,15.57,0,0,0,1.47,5c1.12,1.88,2.34,4.7,4.57,5.49s4,1.31,5.58.79a21.38,21.38,0,0,1,6.27-.73c1.87.07,5,.46,6.86-.26s3.42-.89,4.89-2.72,2.79-3.06,2.33-1.32-.65,5.29-1.24,8.7-.82,5.32-2.73,6.93-5.45,3.81-7.25,3.94a57.33,57.33,0,0,1-7.16.36,18.86,18.86,0,0,1-7.22-2.76c-1.42-1.15-3.19-3.05-3.65-5s-1.31-5.16-1.7-7.39-1.29-5.29-1.75-7.55A4.22,4.22,0,0,1,446,142.18Z"/><path class="cls-11" d="M306.78,340c-1.47,1-4-2.4-5.92-2.72-.55-.09-1.43,1.73-2.44,1.6s-1.53-1.08-2.17-1.91c-.25-.32-.31-1-.69-1.18s-1.13.23-1.68.19a5.66,5.66,0,0,1-5.11-3.56,7.22,7.22,0,0,1,.19-3.15,8,8,0,0,0,0-3.64c-.53-1.87-4-2.08-4.43-4.17-.58-3.22,2.21-6.19,2.44-7.93.15-1.15-3.16-1.36-2.51-5.67.59-3.93,3.77-5.1,4.38-7.73.51-2.2-1.56-3.77-1.1-6,.43-2,3.09-3.44,4-5.11,1.05-1.88.49-4.5,1-6.34s2.75-3.69,4.56-5.1a19.65,19.65,0,0,1,11.64-3.8c2.28-.08,4,.56,6.23.22,1.39-.21,2.5-1.74,3.78-2.27,2.89-1.19,6.22-.86,9.22,0,.87.25,1.9,1.87,2.42,2.64.26.39,1.11.5,1.83.36,1.48-.29,2.88-.72,4.31.23,1.67,1.11,1.15,2.95,2.18,4.37s2.87.6,3.89,2.23c.7,1.13.7,3.8,1,5.06.51,1.86,2.5,2.83,2.93,4.55.31,1.26.28,3.07.66,4.34.62,2.07,2.47,2.6,3.14,4.82a5.21,5.21,0,0,1,.25,2.5c-.26.91-1.89,1.32-1.56,2.49.15.53.73.68,1,1.12a9.17,9.17,0,0,1,1.43,3.93c.17,1.46-1.89,2.46-1.55,4.11.39,2,2.41,3.6,1.43,5.8-.45,1-1.9.94-2.43,1.93s.51,1.83.87,2.81a3.65,3.65,0,0,1-.19,2.86c-.84,1.69-3.37.71-4.05,2.06s2.1,2.35.31,3.74c-.95.74-2.35-.19-3.36.31-1.47.74-.6,2.71-2.37,3.37-5,1.89-12.72-.6-11.1-7.11.54-2.13,2.33-4.27,3.31-6.23s1-4.53,2-6.41c.88-1.64,4-2.08,3.63-4.38-.18-1.17-.48-2.8-1.14-3.2-1-.61-2.52.28-3.35-.72s-.72-4.11-1.29-5.32c-1-2-2.33-1.41-3.92-2.92-.74-.71-.16-2.7-.92-3.46s-2.67,0-4-.66c-1.52-.76-1.31-4.11-2.48-4.68s-3.86,0-5.1.4c-.8.23-1.29,1.3-1.89,1.81-1.45,1.18-3.07.29-4.37,1.59-.83.83-.73,1.77-1.25,2.91s-3,.19-3.55,1.47c-.8,1.91-.18,5.8-.94,7.33-.63,1.25-1.9,1.76-2.08,3.1a18.15,18.15,0,0,0,.08,4.41,45.23,45.23,0,0,0,3.19,9.66c1,2.06,3.19,3.22,3.88,5.33C310.2,333.49,309.65,338,306.78,340Z"/><path class="cls-3" d="M173.63,322.74a31,31,0,0,1,5.11-.52,32.52,32.52,0,0,1,5,.47s-2,3.87-5.12,3.87C176.21,326.56,173.63,322.74,173.63,322.74Z"/><path class="cls-17" d="M162.52,319.77a10.39,10.39,0,0,0-1.45,5.09c0,1.35,2.39.27,2.69-.48C164,323.82,162.79,319.34,162.52,319.77Z"/><path class="cls-17" d="M196.43,317.08c-1.57.35-1.11,4.66-.38,6.13.23.46,2.12,1.31,2.27.48s-.63-1.57-.82-2.2C197.06,320,197.9,316.75,196.43,317.08Z"/><path class="cls-3" d="M311.91,240.05s2.74.3,5.49.3a36.13,36.13,0,0,0,5-.35s-2.58,3-5.34,3S311.91,240.05,311.91,240.05Z"/><path class="cls-3" d="M177.22,239.05s2,.22,5.45.22a17.68,17.68,0,0,0,5.14-.57s-1.83,3.54-5.29,3.54S177.22,239.05,177.22,239.05Z"/><path class="cls-3" d="M133.54,270a17.47,17.47,0,0,1,3.63-2.52,42.23,42.23,0,0,1,8.18-3.36c3.31-1,10.38-2.43,13.09-3.58s6.71-2.48,8.22-3.72a9.54,9.54,0,0,0,2.53-2.89c.6-1,.78-.23,1.79.59a42.34,42.34,0,0,0,6.48,3.86c1.65.69,3.58,2.07,5.33,1.88a8.76,8.76,0,0,0,5.14-2c2.07-1.56,3.22-3,4.37-3.76s1.24-.55,2.25.09,4.91,2.85,7.58,4.13a90.65,90.65,0,0,0,12.17,4.78c3.22.83,7.26,1.61,9.37,2.8a15.08,15.08,0,0,1,4,3.95Z"/><path class="cls-18" d="M408.9,270.27a7.73,7.73,0,0,1,2.5-2.6,32.24,32.24,0,0,1,7.93-4.62c2.93-1.08,8.25-2.23,11.4-3.15s8.47-2.77,10.53-3.58,2.39-.49,3.8-2.23,2.12-3.09,3.15-2.06,5.76,3.58,8.26,4.61,3.85,2.39,6,1.25a65.07,65.07,0,0,0,6.74-4.72c1.41-1,1.9-1,3.63-.11a71.12,71.12,0,0,0,7.55,4c3.69,1.58,11.3,4.51,13.41,5s4.62.6,7.06,1.9a11.83,11.83,0,0,1,4.83,4.24,5.41,5.41,0,0,1,.49,2.55Z"/><path class="cls-3" d="M441.1,146.91a14.22,14.22,0,0,1-3.81-5.85c-1-3-2.57-9.87-1.71-13.32s1.53-8.59,3.49-11.47a77.89,77.89,0,0,1,6.84-8.87c1.78-1.79,3.92-3.57,3.92-3.57l24.05-.1s0,1,2,2.21a21.59,21.59,0,0,1,6.7,6.84c1.56,2.85,3.38,7.55,3.66,10.47s.79,7.91,0,10.87-2.28,9-3.81,10.93-2.25,3.1-3.24,3.5-1.43-.22-1.32-1.18,1.1-1,.39-2.49-3.67-7.59-5.59-9.91-6.7-7.3-8.2-8.62-.82-2.46-3-.43-8.55,8.41-10.68,10.41-6.1,4.66-6.06,5.91.5,2.64-.53,2.14-1.64-.36-2.18.5S442.06,147.8,441.1,146.91Z"/><path class="cls-19" d="M413.76,187.69s5.69-4.39,8.62-5.47,8.25-2.23,11.4-3.15,8.47-2.77,10.53-3.58,2.39-.49,3.81-2.23,2.11-3.09,3.15-2.06,5.75,3.58,8.25,4.61,3.85,2.39,6,1.25a64.85,64.85,0,0,0,6.73-4.72c1.41-1,1.9-1,3.64-.11a69.73,69.73,0,0,0,7.54,4c3.7,1.58,11.3,4.51,13.42,5s4.61.6,7.05,1.9a17,17,0,0,1,4.62,4.23Z"/><path class="cls-20" d="M133.07,188.79s1.62-3,3.06-4,6.82-4.25,8.74-4.61a106.84,106.84,0,0,0,11.38-3.29c2.64-1,4.73-2.94,5.51-1.8s4.67,5.75,6.53,6.65,6.47,3,8.56,3.23,7.55.24,9.71-1a29.75,29.75,0,0,0,6.46-4.56c1.62-1.73,2.88-4.19,3.72-3.59a55.2,55.2,0,0,0,10.18,3.65c3.05.66,9.52,3.18,11.86,4a8.19,8.19,0,0,1,4.61,3.11,3.06,3.06,0,0,1,.36,2.46Z"/><path class="cls-18" d="M135.84,353.79s-.15-1,1.28-1.92,6.83-4.25,8.75-4.61A109.94,109.94,0,0,0,157.25,344c2.63-1,4.73-2.94,5.51-1.8s4.67,5.75,6.53,6.65,6.47,3,8.56,3.23,7.55.24,9.7-1a29.78,29.78,0,0,0,6.47-4.55c1.62-1.74,2.88-4.19,3.72-3.59a54.93,54.93,0,0,0,10.18,3.65c3.05.66,9.52,3.18,11.85,3.95a16.34,16.34,0,0,1,5,3.4Z"/><path class="cls-21" d="M274.82,354.26a3.36,3.36,0,0,1,1.51-2.44c1.43-1,6.82-4.25,8.74-4.61a109.24,109.24,0,0,0,11.38-3.29c2.64-1,4.73-2.94,5.51-1.8s4.67,5.75,6.53,6.65,6.47,3,8.56,3.23,7.55.24,9.71-1a29.37,29.37,0,0,0,6.46-4.55c1.62-1.74,2.88-4.19,3.72-3.59a55.2,55.2,0,0,0,10.18,3.65c3.05.66,9.52,3.17,11.86,3.95s5.46,4.28,5.46,4.28Z"/><path class="cls-17" d="M275.68,270.08s2.72-3.45,9-5.31c1.87-.56,8.75-2.27,11.38-3.29s4.73-2.94,5.51-1.8,4.67,5.75,6.53,6.65,6.47,3,8.56,3.23,7.55.24,9.71-1a29.37,29.37,0,0,0,6.46-4.55c1.62-1.73,2.88-4.19,3.72-3.59a55.2,55.2,0,0,0,10.18,3.65c3.05.66,9.52,3.18,11.86,4a10.33,10.33,0,0,1,3.82,2.31Z"/><path class="cls-11" d="M304.83,242.55a7.18,7.18,0,0,1-5.11-2.05,10.07,10.07,0,0,1-3.12-6.1,20.56,20.56,0,0,1-.1-7.66c.5-3.06,1-7.23,1.64-10.42s1.12-6.61,2.36-9.69,2.06-6,4.8-8.39a16.74,16.74,0,0,1,7.85-4.13c2.19-.32,4.14-1,6.62-1s5.68.19,8,1.4a30.79,30.79,0,0,1,7.12,5.93,21.13,21.13,0,0,1,4.36,8,69.75,69.75,0,0,1,2.29,11.2c.21,3.31.12,6.7.5,9.1s.57,5.92.15,7.07-2,4.26-3.5,4.83a24.47,24.47,0,0,0-4.62,2c-1,.73-2.25.8-1,2.64s2.87,3.95,4.15,5.78a21,21,0,0,1,3.15,6.89c.55,2.44,1.15,6,.71,7.5s-1.91,4.83-1.91,4.83l-16.32-.29s1.59-3.27,2.6-4.95,2.85-4.45,3.05-6.74.82-5.26.55-7.56-.1-4.86,1.14-6.25a10.37,10.37,0,0,0,2.86-4.92c.62-2.39.93-4.16,1.35-5.26s1.32,0,2.38-1.13,1.35-3.56,1.35-4.62-2.1-3.24-3.14-4.09-6.13-4.44-7.82-5.54a74.89,74.89,0,0,1-7.23-5.34c-1.23-1.2-1.58-1-3.19-3.72s-6.16-1.1-7.44,1.88a29.6,29.6,0,0,1-4.47,7.84c-1.74,1.93-3.25,7.84-3.06,10.53s.34,5.66,1.2,7.74S305.76,242.6,304.83,242.55Z"/><path class="cls-3" d="M414.09,354.87s3.6-3.44,6.65-4.66,9.53-3.27,11.4-3.78,2.08-.17,4.75,1.32,4.58,3.48,6.93,4.6,5.48,2.56,5.48,2.56Z"/><path class="cls-3" d="M484.49,355.43s3.88-4.49,4.89-5.54,3.79,0,5.71.65,6.11,2.45,7.16,3.36.39,1.62.39,1.62Z"/><path class="cls-21" d="M271.17,188.54a7.91,7.91,0,0,1,2.8-3,23.57,23.57,0,0,1,7.25-3.92c3-.89,6.9-1.55,10-2.62s7-2,8.26-2.61.84.06,2.14,1.31a22,22,0,0,0,7.91,4.16c2.5.47,8.62,1.84,11.18,1.66s9.1-.95,11.83-1.9a30.88,30.88,0,0,0,7.67-4c1.13-1,1.25-1.91,2.44-1.37s7,3.15,9.16,3.63,6.42,1.6,8.38,2a10.37,10.37,0,0,1,5.18,2.79A22.48,22.48,0,0,1,367.5,188Z"/><path class="cls-3" d="M432.54,343.74a16.72,16.72,0,0,0,.9-3.65c.24-1.9.95-3.13.76-4.46s-.95-5.54-1.14-7.91a43.07,43.07,0,0,1,.33-8.76c.43-2.75,1.47-10.1,2-12.47s1.28-8.15,2.18-10.66.81-4.41,3.27-7.86a44.42,44.42,0,0,1,6.87-8,23.94,23.94,0,0,1,6.57-3.51c2.17-.69,4.69-1.66,7.27-.92s7.4,2.47,9.17,3.78,6.25,5.33,7.62,8.48,3.27,7.68,3.61,10.61a103.13,103.13,0,0,1,.29,12c-.11,2.87-.23,10.77.06,12.55a56.68,56.68,0,0,1-.12,9.34c-.23,1.49-2,5-1.09,6.42a36.24,36.24,0,0,0,3.5,5.27c1.15,1.21,3.15,3,4.18,3.9s.92,1.38-.28,2.75-3.84,4.58-3.84,4.58l-34.21-.4s-5.62-2.29-7.22-3.15a65.77,65.77,0,0,1-7-4.47C435,346.17,432.26,344.68,432.54,343.74Z"/><path class="cls-15" d="M441.1,308.38c.34-4.1,1.19-6.14,3.58-7.87,3.5-2.51,9.35-4.07,16.06-3.9a16.42,16.42,0,0,1,10.35,4.55c2,2,2.35,4,2.94,8.78.82,6.71.83,14.17-4.74,20.18-5.28,5.71-9.51,5.43-12.11,5.43S447,332,444.08,325.14C440.81,317.32,440.53,315.29,441.1,308.38Z"/></g><g id="Ñëîé_1" data-name="Ñëîé 1"><path class="cls-22" d="M459.34,248.56q-.39,0-.78,0c-7.65-.48-14.85-8.66-16.75-19a.72.72,0,0,1,.58-.84.74.74,0,0,1,.85.58c2,11.1,9.46,17.48,15.41,17.85,6.86.44,14.64-5.59,15.62-19.82a.75.75,0,0,1,.78-.67.72.72,0,0,1,.67.77C474.71,242.06,466.67,248.56,459.34,248.56Z"/><path class="cls-22" d="M467.61,219.34a.92.92,0,0,1-.28-.05,5.6,5.6,0,0,0-4-.19.73.73,0,0,1-.42-1.39,7.09,7.09,0,0,1,4.95.24.73.73,0,0,1,.39,1A.74.74,0,0,1,467.61,219.34Z"/><path class="cls-22" d="M448.54,220.3a.74.74,0,0,1-.6-.31.72.72,0,0,1,.18-1,6.55,6.55,0,0,1,5.37-.55.73.73,0,0,1,.44.93.72.72,0,0,1-.92.44,5.15,5.15,0,0,0-4.06.37A.71.71,0,0,1,448.54,220.3Z"/><path class="cls-22" d="M460.71,231.64a.73.73,0,0,1-.44-1.3,1.68,1.68,0,0,0,.63-1,2.76,2.76,0,0,0-.49-.5,3.15,3.15,0,0,1-.79-.88,5.48,5.48,0,0,1-.11-4.85.72.72,0,1,1,1.32.59,4.07,4.07,0,0,0,.09,3.6,2.1,2.1,0,0,0,.45.45,2.31,2.31,0,0,1,1,1.5,2.94,2.94,0,0,1-1.19,2.2A.69.69,0,0,1,460.71,231.64Z"/><path class="cls-23" d="M452.47,224.66a1.22,1.22,0,0,0-1.14-1.27,1.37,1.37,0,1,0,1.14,1.27Z"/><path class="cls-22" d="M443.36,227.16a.73.73,0,0,1-.68-.48c-1.34-3.71-.78-10,.62-12a8.27,8.27,0,0,1,1.23-1.53,1.24,1.24,0,0,1,.06-.18l.71.19.66.3a1.37,1.37,0,0,1-.43.73,9.18,9.18,0,0,0-1,1.33c-1,1.46-1.65,7.27-.44,10.62a.71.71,0,0,1-.68,1Z"/><path class="cls-22" d="M442.8,234.24a3.67,3.67,0,0,1-2.39-.93,9.66,9.66,0,0,1-2.75-6.26,3,3,0,0,1,1.3-2.79,2,2,0,0,1,2.23.19.73.73,0,0,1,.19,1,.71.71,0,0,1-1,.19c-.43-.29-.64-.17-.71-.13a1.63,1.63,0,0,0-.56,1.46,8.22,8.22,0,0,0,2.23,5.22,2.14,2.14,0,0,0,1.7.57.72.72,0,0,1,.8.64.73.73,0,0,1-.63.81Z"/><path class="cls-22" d="M442,231.31a.71.71,0,0,1-.56-.27c-.2-.25-.37-.49-.53-.72a4,4,0,0,0-1.2-1.27.73.73,0,0,1-.22-1,.72.72,0,0,1,1-.22,5.45,5.45,0,0,1,1.61,1.66c.14.2.29.42.47.64a.73.73,0,0,1-.11,1A.72.72,0,0,1,442,231.31Z"/><path class="cls-22" d="M468.58,213.81a11.58,11.58,0,0,1-3-.41,11.84,11.84,0,0,1-3.82-2.1,15.13,15.13,0,0,0-2.53-1.58.73.73,0,1,1,.59-1.33,15.94,15.94,0,0,1,2.79,1.73A10.62,10.62,0,0,0,466,212a10,10,0,0,0,5.38,0,.73.73,0,0,1,.36,1.41A12.45,12.45,0,0,1,468.58,213.81Z"/><path class="cls-22" d="M475.75,222c-2.45,0-5.06-2.74-5.77-4.25a.73.73,0,0,1,.35-1,.72.72,0,0,1,1,.35c.61,1.28,3,3.61,4.66,3.41a.71.71,0,0,1,.8.63.72.72,0,0,1-.63.81Z"/><path class="cls-22" d="M449.8,211.07a.87.87,0,0,1-.31-.07.73.73,0,0,1-.35-1,9.87,9.87,0,0,1,5.93-5.14,19.7,19.7,0,0,1,3.7-.59,11.65,11.65,0,0,0,5-1.21.72.72,0,1,1,.7,1.26,12.82,12.82,0,0,1-5.53,1.4,18.31,18.31,0,0,0-3.43.53,8.46,8.46,0,0,0-5,4.37A.74.74,0,0,1,449.8,211.07Z"/><path class="cls-22" d="M447.25,210.78a.73.73,0,0,1-.65-.41,14.07,14.07,0,0,1-1.31-5.23,12.15,12.15,0,0,1,10.06-12.72,20.37,20.37,0,0,1,3.09-.12c2.34,0,4.76,0,6.14-1.33a.72.72,0,1,1,1,1c-1.8,1.8-4.65,1.78-7.18,1.75a20,20,0,0,0-2.87.1A10.65,10.65,0,0,0,446.74,205a12.8,12.8,0,0,0,1.16,4.71.72.72,0,0,1-.32,1A.8.8,0,0,1,447.25,210.78Z"/><path class="cls-22" d="M478.08,199.8l-.18,0a8.57,8.57,0,0,1-4.25-3.1,9.12,9.12,0,0,0-2.81-2.42,6,6,0,0,0-2.7-.4,13.38,13.38,0,0,1-1.41,0,.72.72,0,1,1,.11-1.44c.44,0,.87,0,1.28,0a7.45,7.45,0,0,1,3.32.53,10.2,10.2,0,0,1,3.29,2.77,7.33,7.33,0,0,0,3.52,2.66.73.73,0,0,1-.17,1.43Z"/><path class="cls-22" d="M478.08,218.23l-.16,0a.72.72,0,0,1-.55-.86,31.55,31.55,0,0,0,1-10.24c-.2-2-1.45-4.23-2.65-6.12a.72.72,0,0,1,1.22-.78c1.29,2,2.65,4.43,2.87,6.76a32.75,32.75,0,0,1-1,10.69A.72.72,0,0,1,478.08,218.23Z"/><path class="cls-22" d="M439.25,223a.72.72,0,0,1-.7-.55c-1.55-6.19-2.87-13.37.91-20.18,1.73-3.12,3.63-5,6-6a.73.73,0,1,1,.55,1.35c-2,.82-3.68,2.5-5.24,5.31-3.17,5.71-2.6,11.78-.77,19.13a.73.73,0,0,1-.53.88Z"/><path class="cls-23" d="M466.54,224.86a1.09,1.09,0,1,0-.94,1.42A1.22,1.22,0,0,0,466.54,224.86Z"/><path class="cls-22" d="M177.47,168h-.29c-4.47-.31-15.5-6.84-16.25-21.18a.73.73,0,1,1,1.45-.07c.69,13.24,10.94,19.53,14.9,19.8,1.85.14,6.14-1.69,9.8-4.84a.73.73,0,0,1,1,.08.72.72,0,0,1-.07,1C184.53,165.77,180.07,168,177.47,168Z"/><path class="cls-22" d="M191.55,159.33a.72.72,0,0,1-.63-1.08,22.35,22.35,0,0,0,2.67-10.74.69.69,0,0,1,.74-.71.71.71,0,0,1,.71.73A23.75,23.75,0,0,1,192.18,159,.71.71,0,0,1,191.55,159.33Z"/><path class="cls-22" d="M194.52,150.16a.72.72,0,0,1-.09-1.44c1.28-.17,1.95-.59,2.24-1.42a.73.73,0,0,1,1.37.48,3.84,3.84,0,0,1-3.43,2.37Z"/><path class="cls-22" d="M176.42,150.49a.74.74,0,0,1-.63-.36,3.07,3.07,0,0,0-.48-.47,2.61,2.61,0,0,1-1.18-2,1.82,1.82,0,0,1,.61-1.1,2.62,2.62,0,0,0,.25-.3,3.23,3.23,0,0,0-.35-2.73.72.72,0,0,1,.25-1,.71.71,0,0,1,1,.25,4.62,4.62,0,0,1,.45,4,2.57,2.57,0,0,1-.54.74,2.21,2.21,0,0,0-.23.28c0,.12.39.45.7.71a3.6,3.6,0,0,1,.78.83.73.73,0,0,1-.25,1A.75.75,0,0,1,176.42,150.49Z"/><path class="cls-22" d="M162.14,156.56a.71.71,0,0,1-.53-.24c-3.5-3.89-3.63-8.65-.41-14.54a.71.71,0,0,1,1-.29.72.72,0,0,1,.29,1c-2.89,5.29-2.82,9.51.21,12.88a.73.73,0,0,1-.05,1A.74.74,0,0,1,162.14,156.56Z"/><path class="cls-22" d="M172.36,120.41h-.12a.72.72,0,0,1-.59-.84c.08-.45.15-.89.23-1.34.51-3.11,1-6.32,3-9a.73.73,0,0,1,1-.15.74.74,0,0,1,.15,1c-1.77,2.38-2.28,5.42-2.76,8.36-.08.45-.15.9-.23,1.35A.73.73,0,0,1,172.36,120.41Z"/><path class="cls-22" d="M176.78,157.51a10.48,10.48,0,0,1-6-1.69.72.72,0,1,1,.84-1.18c2.62,1.86,7,1.73,9.79.53a.72.72,0,0,1,1,.37.73.73,0,0,1-.37,1A13.34,13.34,0,0,1,176.78,157.51Z"/><path class="cls-22" d="M158.81,142.46a.92.92,0,0,1-.32-.07.72.72,0,0,1-.33-1,22.91,22.91,0,0,1,4.22-5.42c2.38-2.5,4.63-4.87,4.81-8a.73.73,0,1,1,1.45.09c-.22,3.68-2.75,6.35-5.21,8.93a21.69,21.69,0,0,0-4,5.05A.71.71,0,0,1,158.81,142.46Z"/><path class="cls-23" d="M168.62,141.23c0-.93.53-1.69,1.18-1.69s1.19.76,1.19,1.69-.53,1.7-1.19,1.7S168.62,142.17,168.62,141.23Z"/><path class="cls-23" d="M183.44,141.71c0-.94.53-1.7,1.19-1.7s1.18.76,1.18,1.7-.53,1.69-1.18,1.69S183.44,142.64,183.44,141.71Z"/><path class="cls-22" d="M166.34,174.13a.73.73,0,0,1-.53-1.23,10.94,10.94,0,0,0,2.34-9.35.74.74,0,0,1,.54-.88.72.72,0,0,1,.87.54,12.36,12.36,0,0,1-2.69,10.69A.75.75,0,0,1,166.34,174.13Z"/><path class="cls-22" d="M190.71,173.09a.72.72,0,0,1-.59-.31c-2.17-3-2-6.91-1.92-10a.69.69,0,0,1,.75-.7.73.73,0,0,1,.7.75c-.11,3-.23,6.49,1.65,9.13a.73.73,0,0,1-.17,1A.75.75,0,0,1,190.71,173.09Z"/><path class="cls-22" d="M134.75,186.82a.7.7,0,0,1-.49-.19.73.73,0,0,1,0-1c3.86-4.25,9.27-5.8,14.49-7.29.84-.24,1.66-.47,2.49-.72,2.48-.75,5-1.68,7.36-2.58,1.68-.63,3.41-1.28,5.14-1.86a.73.73,0,0,1,.92.45.74.74,0,0,1-.46.92c-1.7.58-3.42,1.22-5.09,1.85-2.42.91-4.92,1.85-7.46,2.61-.82.25-1.66.49-2.5.73-5,1.43-10.23,2.92-13.82,6.87A.71.71,0,0,1,134.75,186.82Z"/><path class="cls-22" d="M223.47,187.3a.71.71,0,0,1-.55-.26c-1.86-2.16-4.53-3-7.35-3.93-.66-.21-1.31-.42-2-.65-1.7-.6-3.55-1.15-5.51-1.73-5.3-1.57-10.78-3.19-14.75-6.29a.72.72,0,1,1,.89-1.14c3.76,2.93,9.1,4.51,14.28,6,2,.59,3.84,1.14,5.58,1.75.63.23,1.27.44,1.92.64,2.88.93,5.87,1.9,8,4.37a.73.73,0,0,1-.55,1.2Z"/><path class="cls-22" d="M179.26,185.82h-.1a21.48,21.48,0,0,1-17.95-9.92.73.73,0,1,1,1.22-.79,20,20,0,0,0,16.73,9.26h.09A18.43,18.43,0,0,0,194.89,176a.73.73,0,0,1,1.21.8A19.87,19.87,0,0,1,179.26,185.82Z"/><path class="cls-22" d="M151.92,176.07a.77.77,0,0,1-.4-.12.73.73,0,0,1-.2-1c1.52-2.31,1.61-6.55,1.69-9.95,0-1.1.05-2.11.12-3,.28-3.76.33-7.61.38-11.33.12-10.14.26-20.62,5.2-30.26,2.89-5.63,8.95-12.06,16.46-11.74a.73.73,0,0,1,.7.75.76.76,0,0,1-.76.7c-6.84-.3-12.42,5.71-15.11,11-4.79,9.33-4.91,19.18-5,29.61-.05,3.74-.1,7.61-.39,11.42-.06.84-.08,1.82-.11,2.89-.08,3.59-.18,8.06-1.93,10.72A.73.73,0,0,1,151.92,176.07Z"/><path class="cls-22" d="M206.2,177.5a.71.71,0,0,1-.62-.36c-2.49-4.29-3-9.33-3.35-14.54-.3-4.59-.25-9.19-.18-12.69,0-1,.06-2.12.09-3.2.23-7.43.46-15.12-2-21.86-3.25-9.06-12.55-17.48-23.39-15.26a.72.72,0,1,1-.29-1.42c11.63-2.39,21.59,6.56,25,16.19,2.51,7,2.28,14.82,2.05,22.39,0,1.08-.06,2.14-.08,3.19-.08,3.47-.13,8,.17,12.56.33,5,.83,9.89,3.15,13.91a.73.73,0,0,1-.26,1A.71.71,0,0,1,206.2,177.5Z"/><path class="cls-22" d="M199,145.94a4.82,4.82,0,0,1-2.69-1.36l-.47-.36c-3-2.14-4.61-5-6.31-8.05l-.66-1.15c-3.47-6.08-8.9-9.56-14.89-9.56a.73.73,0,0,1,0-1.46c6.53,0,12.41,3.76,16.15,10.3l.66,1.16c1.63,2.9,3.16,5.63,5.89,7.58.16.11.33.25.53.4a4.29,4.29,0,0,0,1.79,1.05.73.73,0,0,1,.73.72A.73.73,0,0,1,199,145.94Z"/><path class="cls-22" d="M167.13,136.94a.75.75,0,0,1-.63-.35.74.74,0,0,1,.25-1,7.91,7.91,0,0,1,6.1-.8.74.74,0,0,1,.46.92.73.73,0,0,1-.92.46,6.5,6.5,0,0,0-4.89.67A.74.74,0,0,1,167.13,136.94Z"/><path class="cls-22" d="M186.35,136.63a.65.65,0,0,1-.27,0,6.58,6.58,0,0,0-4.38-.33.73.73,0,0,1-.35-1.41,8,8,0,0,1,5.27.4.72.72,0,0,1-.27,1.39Z"/><path class="cls-22" d="M317.6,252.46h-.29c-4.47-.3-15.5-6.83-16.25-21.17a.73.73,0,0,1,.69-.76.71.71,0,0,1,.76.68c.69,13.25,10.94,19.53,14.9,19.81,1.88.13,6.14-1.69,9.8-4.84a.73.73,0,1,1,1,1.1C324.65,250.28,320.2,252.46,317.6,252.46Z"/><path class="cls-22" d="M331.68,243.85a.72.72,0,0,1-.63-1.08A22.5,22.5,0,0,0,333.73,232a.7.7,0,0,1,.73-.72.73.73,0,0,1,.71.74,23.88,23.88,0,0,1-2.85,11.43A.73.73,0,0,1,331.68,243.85Z"/><path class="cls-22" d="M334.65,234.68a.73.73,0,0,1-.09-1.45c1.28-.16,1.95-.58,2.24-1.41a.73.73,0,1,1,1.37.48,3.84,3.84,0,0,1-3.43,2.37Z"/><path class="cls-22" d="M316.55,235a.73.73,0,0,1-.63-.35,2.38,2.38,0,0,0-.48-.47,2.62,2.62,0,0,1-1.18-2,1.77,1.77,0,0,1,.61-1.09c.08-.1.22-.24.25-.3a3.23,3.23,0,0,0-.35-2.73.73.73,0,1,1,1.25-.75,4.67,4.67,0,0,1,.44,4,2.55,2.55,0,0,1-.53.74,2.33,2.33,0,0,0-.24.27c0,.12.39.45.7.72a3.6,3.6,0,0,1,.78.83.72.72,0,0,1-.25,1A.74.74,0,0,1,316.55,235Z"/><path class="cls-22" d="M312.49,204.92h-.12a.72.72,0,0,1-.59-.84c.08-.44.15-.89.23-1.33.51-3.11,1-6.32,3-9a.73.73,0,0,1,1-.15.72.72,0,0,1,.15,1c-1.77,2.39-2.28,5.43-2.76,8.36-.08.45-.15.91-.23,1.35A.72.72,0,0,1,312.49,204.92Z"/><path class="cls-22" d="M299.48,226.84a.71.71,0,0,1-.31-.08.72.72,0,0,1-.34-1,22.85,22.85,0,0,1,4.23-5.41c2.37-2.5,4.62-4.86,4.8-8a.73.73,0,1,1,1.45.09c-.21,3.68-2.75,6.35-5.2,8.93a21.42,21.42,0,0,0-4,5.05A.74.74,0,0,1,299.48,226.84Z"/><path class="cls-22" d="M306.47,258.64a.69.69,0,0,1-.5-.2.72.72,0,0,1,0-1,11,11,0,0,0,2.34-9.36.72.72,0,0,1,.54-.87.71.71,0,0,1,.87.53A12.35,12.35,0,0,1,307,258.41.7.7,0,0,1,306.47,258.64Z"/><path class="cls-22" d="M275.76,270.43a.72.72,0,0,1-.49-1.25c3.77-3.56,8.75-5,13.57-6.35l2.48-.72c2.48-.75,5-1.68,7.36-2.58,1.68-.63,3.41-1.28,5.14-1.87a.73.73,0,1,1,.46,1.38c-1.7.58-3.42,1.22-5.09,1.85-2.42.9-4.92,1.84-7.46,2.61l-2.5.72c-4.64,1.33-9.45,2.7-13,6A.69.69,0,0,1,275.76,270.43Z"/><path class="cls-22" d="M362.84,271a.77.77,0,0,1-.49-.19c-1.8-1.66-4.27-2.45-6.65-3.22-.66-.21-1.31-.42-2-.65-1.7-.61-3.55-1.15-5.51-1.73-2.23-.66-4.53-1.34-6.75-2.15a.73.73,0,0,1-.43-.93.72.72,0,0,1,.93-.43c2.17.79,4.46,1.46,6.66,2.12,2,.58,3.85,1.13,5.59,1.75l1.92.64c2.53.82,5.14,1.66,7.18,3.53a.72.72,0,0,1-.49,1.26Z"/><path class="cls-22" d="M319.35,270.34a21.51,21.51,0,0,1-18-9.94.73.73,0,0,1,.21-1,.74.74,0,0,1,1,.21,19.94,19.94,0,0,0,20.21,9A.73.73,0,0,1,323,270,20.89,20.89,0,0,1,319.35,270.34Z"/><path class="cls-22" d="M307.26,221.46a.74.74,0,0,1-.63-.36.73.73,0,0,1,.25-1,7.92,7.92,0,0,1,6.1-.8.73.73,0,0,1-.46,1.38,6.5,6.5,0,0,0-4.89.66A.75.75,0,0,1,307.26,221.46Z"/><path class="cls-22" d="M326.48,221.15a.86.86,0,0,1-.27-.05,6.58,6.58,0,0,0-4.38-.34.72.72,0,0,1-.35-1.4,7.94,7.94,0,0,1,5.27.39.73.73,0,0,1,.4.95A.71.71,0,0,1,326.48,221.15Z"/><path class="cls-22" d="M457.29,336.32H457c-4.47-.31-15.49-6.83-16.25-21.17a.73.73,0,0,1,1.45-.08c.7,13.24,10.94,19.53,14.9,19.8,1.87.14,6.15-1.68,9.8-4.83a.73.73,0,1,1,1,1.1C464.35,334.14,459.89,336.32,457.29,336.32Z"/><path class="cls-22" d="M456.52,320.25a.73.73,0,0,1-.63-.35,2.56,2.56,0,0,0-.47-.47,2.6,2.6,0,0,1-1.19-2,1.8,1.8,0,0,1,.61-1.09,2.44,2.44,0,0,0,.25-.3,3.23,3.23,0,0,0-.35-2.73.73.73,0,1,1,1.25-.74,4.64,4.64,0,0,1,.44,4,2.55,2.55,0,0,1-.53.74,1.72,1.72,0,0,0-.24.27c0,.13.41.47.7.72a3.6,3.6,0,0,1,.78.83.72.72,0,0,1-.25,1A.74.74,0,0,1,456.52,320.25Z"/><path class="cls-22" d="M414.57,355.19A.73.73,0,0,1,414,354c3.87-4.26,9.27-5.8,14.5-7.29L431,346c.76-.23,1.53-.48,2.28-.74a.74.74,0,0,1,.92.46.72.72,0,0,1-.45.92c-.77.26-1.55.51-2.33.74l-2.5.73c-5,1.44-10.24,2.92-13.82,6.87A.73.73,0,0,1,414.57,355.19Z"/><path class="cls-22" d="M503.29,355.67a.71.71,0,0,1-.55-.25c-1.86-2.16-4.52-3-7.34-3.93-.66-.21-1.32-.42-2-.65-1.28-.46-2.65-.88-3.71-1.2a.72.72,0,1,1,.42-1.38c1.07.32,2.47.75,3.77,1.21.63.23,1.28.43,1.92.64,2.89.93,5.87,1.89,8,4.36a.72.72,0,0,1-.55,1.2Z"/><path class="cls-22" d="M446.19,306.71a.72.72,0,0,1-.64-.4.73.73,0,0,1,.32-1,10.69,10.69,0,0,1,7.05-.78.73.73,0,0,1,.5.89.74.74,0,0,1-.9.51,9.32,9.32,0,0,0-6,.68A.76.76,0,0,1,446.19,306.71Z"/><path class="cls-22" d="M469.43,306.36l-.22,0a11.2,11.2,0,0,0-5.87-.35.72.72,0,0,1-.85-.57.73.73,0,0,1,.57-.85,12.52,12.52,0,0,1,6.58.39.71.71,0,0,1,.48.9A.72.72,0,0,1,469.43,306.36Z"/><path class="cls-22" d="M178.78,335h-.29c-4.47-.31-15.49-6.83-16.24-21.18a.72.72,0,0,1,.68-.76.76.76,0,0,1,.77.69c.69,13.24,10.93,19.53,14.89,19.8,1.87.14,6.14-1.68,9.81-4.83a.72.72,0,0,1,1,.07.73.73,0,0,1-.08,1C185.84,332.83,181.38,335,178.78,335Z"/><path class="cls-22" d="M192.86,326.4a.74.74,0,0,1-.35-.1.73.73,0,0,1-.28-1,22.47,22.47,0,0,0,2.68-10.74.72.72,0,0,1,.72-.71h0a.74.74,0,0,1,.72.74A23.85,23.85,0,0,1,193.5,326,.74.74,0,0,1,192.86,326.4Z"/><path class="cls-22" d="M195.83,317.22a.73.73,0,0,1-.72-.63.72.72,0,0,1,.63-.81c1.28-.16,1.95-.59,2.24-1.42a.73.73,0,0,1,.93-.44.71.71,0,0,1,.44.92,3.86,3.86,0,0,1-3.43,2.38Z"/><path class="cls-22" d="M177.73,317.55a.71.71,0,0,1-.62-.36,3.09,3.09,0,0,0-.48-.46,2.58,2.58,0,0,1-1.18-2,1.76,1.76,0,0,1,.6-1.1,2.44,2.44,0,0,0,.25-.3,3.19,3.19,0,0,0-.35-2.73.73.73,0,0,1,1.25-.74,4.65,4.65,0,0,1,.44,4,2.55,2.55,0,0,1-.53.74,1.58,1.58,0,0,0-.23.28c0,.12.4.47.7.72a3.51,3.51,0,0,1,.77.82.71.71,0,0,1-.25,1A.7.7,0,0,1,177.73,317.55Z"/><path class="cls-23" d="M169.94,308.29c0-.93.53-1.69,1.18-1.69s1.18.76,1.18,1.69-.53,1.7-1.18,1.7S169.94,309.23,169.94,308.29Z"/><path class="cls-23" d="M184.76,308.77c0-.94.53-1.7,1.18-1.7s1.18.76,1.18,1.7-.53,1.69-1.18,1.69S184.76,309.7,184.76,308.77Z"/><path class="cls-22" d="M167.65,341.19a.73.73,0,0,1-.52-1.23,11,11,0,0,0,2.34-9.35.73.73,0,1,1,1.41-.34,12.35,12.35,0,0,1-2.7,10.69A.72.72,0,0,1,167.65,341.19Z"/><path class="cls-22" d="M192,340.15a.72.72,0,0,1-.59-.31c-2.16-3-2-6.91-1.92-10a.73.73,0,0,1,.75-.7.72.72,0,0,1,.7.75c-.1,3-.23,6.49,1.65,9.13a.73.73,0,0,1-.17,1A.72.72,0,0,1,192,340.15Z"/><path class="cls-22" d="M136.06,353.88a.72.72,0,0,1-.49-.19.74.74,0,0,1,0-1c3.87-4.25,9.28-5.8,14.51-7.29.82-.24,1.65-.47,2.47-.72,2.49-.75,5-1.68,7.37-2.58,1.67-.63,3.41-1.28,5.13-1.86a.72.72,0,1,1,.46,1.37c-1.7.58-3.42,1.23-5.08,1.85-2.42.91-4.93,1.85-7.46,2.61l-2.5.73c-5,1.43-10.23,2.92-13.82,6.87A.73.73,0,0,1,136.06,353.88Z"/><path class="cls-22" d="M224.78,354.36a.75.75,0,0,1-.55-.25c-1.86-2.17-4.52-3-7.34-3.93-.66-.22-1.32-.43-2-.66-1.71-.6-3.56-1.15-5.52-1.73-5.3-1.57-10.78-3.19-14.75-6.29a.72.72,0,0,1-.12-1,.71.71,0,0,1,1-.13c3.76,2.93,9.1,4.51,14.27,6,2,.59,3.85,1.14,5.59,1.76l1.92.64c2.89.93,5.87,1.89,8,4.36a.72.72,0,0,1-.08,1A.69.69,0,0,1,224.78,354.36Z"/><path class="cls-22" d="M180.57,352.88h-.1A21.54,21.54,0,0,1,162.52,343a.73.73,0,0,1,1.22-.79,20.06,20.06,0,0,0,16.74,9.27h.09A18.42,18.42,0,0,0,196.2,343a.73.73,0,0,1,1-.2.72.72,0,0,1,.2,1A19.86,19.86,0,0,1,180.57,352.88Z"/><path class="cls-22" d="M168.44,304a.7.7,0,0,1-.62-.35.72.72,0,0,1,.25-1,7.89,7.89,0,0,1,6.09-.79.71.71,0,0,1,.46.91.73.73,0,0,1-.92.46,6.56,6.56,0,0,0-4.89.67A.69.69,0,0,1,168.44,304Z"/><path class="cls-22" d="M187.66,303.7a.66.66,0,0,1-.27-.06,6.55,6.55,0,0,0-4.37-.33.73.73,0,1,1-.35-1.41,8,8,0,0,1,5.26.4.73.73,0,0,1-.27,1.4Z"/><path class="cls-22" d="M179.19,290.11a.72.72,0,0,1-.73-.72,36.87,36.87,0,0,1,.83-7.73,6.35,6.35,0,0,1,.48-1.25,4.56,4.56,0,0,0,.4-1,.72.72,0,0,1,.74-.72.73.73,0,0,1,.72.72,4.47,4.47,0,0,1-.54,1.65,5.11,5.11,0,0,0-.38.94,35.49,35.49,0,0,0-.8,7.43A.72.72,0,0,1,179.19,290.11Z"/><path class="cls-22" d="M197.33,306.79a7.56,7.56,0,0,1-4.84-2.17,18.82,18.82,0,0,1-3.81-6,19.47,19.47,0,0,0-3.08-5.18c-1.43-1.56-3-2.92-4.74-2.33a.74.74,0,0,1-.92-.46.73.73,0,0,1,.46-.92c2.88-1,5.17,1.53,6.27,2.73A21,21,0,0,1,190,298a17.49,17.49,0,0,0,3.5,5.6c1.24,1.18,3.25,2.12,4.69,1.64a.73.73,0,0,1,.45,1.38A4.06,4.06,0,0,1,197.33,306.79Z"/><path class="cls-22" d="M160.24,308.16a.73.73,0,0,1-.7-.53.72.72,0,0,1,.5-.89c3.39-1,4.78-4.31,6.25-7.84,1.19-2.84,2.42-5.78,4.79-7.57,1.66-1.23,3.72-2.78,6.62-2.2a.72.72,0,0,1,.57.85.73.73,0,0,1-.85.57c-2.11-.42-3.6.54-5.47,1.95-2.06,1.54-3.15,4.17-4.32,7-1.54,3.69-3.14,7.51-7.19,8.67Z"/><path class="cls-22" d="M163,319.69a2.31,2.31,0,0,1-.88-.18,6,6,0,0,1-2.68-3.36.73.73,0,0,1,.46-.92.71.71,0,0,1,.91.46,4.62,4.62,0,0,0,1.87,2.48.75.75,0,0,0,.64,0,.71.71,0,0,1,1,.32.72.72,0,0,1-.32,1A2.11,2.11,0,0,1,163,319.69Z"/><path class="cls-22" d="M159,318.27a.73.73,0,0,1-.72-.65c-.36-3.23,1.08-4.61,2.47-5.93a8.5,8.5,0,0,0,2.53-3.58.72.72,0,1,1,1.37.46,9.75,9.75,0,0,1-2.9,4.17c-1.34,1.27-2.31,2.2-2,4.72a.72.72,0,0,1-.64.8Z"/><path class="cls-22" d="M200.21,317.45a.73.73,0,0,1-.73-.72c0-2.41-1.53-3.65-3.3-5.08a12,12,0,0,1-3.48-3.8.73.73,0,0,1,1.3-.65,10.71,10.71,0,0,0,3.09,3.32c1.89,1.53,3.84,3.11,3.84,6.21A.72.72,0,0,1,200.21,317.45Z"/><path class="cls-22" d="M151,321.85a5.27,5.27,0,0,1-.87-.07.73.73,0,0,1,.24-1.44,2.65,2.65,0,0,0,2.26-.51c2-1.67,2.15-6.58,2.21-8.94v-.32c.28-10.25,1.29-21.84,9.61-29.74,2.39-2.26,8.48-7.25,13.55-4.72a.73.73,0,0,1-.65,1.3c-4.36-2.18-10.21,2.87-11.9,4.47-7.92,7.52-8.88,18.77-9.16,28.73v.32c-.07,2.77-.21,7.93-2.74,10A3.88,3.88,0,0,1,151,321.85Z"/><path class="cls-22" d="M161.14,334.87a8,8,0,0,1-6.43-2.83,9.9,9.9,0,0,1-1.77-8.23.72.72,0,1,1,1.42.27,8.5,8.5,0,0,0,1.47,7,6.64,6.64,0,0,0,5.31,2.3.72.72,0,0,1,.72.72A.73.73,0,0,1,161.14,334.87Z"/><path class="cls-22" d="M168,334.78h-.06c-2.71-.23-4.11-1.53-5.51-3.56a.73.73,0,0,1,.19-1,.72.72,0,0,1,1,.19c1.21,1.76,2.27,2.75,4.43,2.93a.72.72,0,0,1,.66.78A.73.73,0,0,1,168,334.78Z"/><path class="cls-22" d="M207.59,312.38a2.15,2.15,0,0,1-1-.24c-1.56-.78-2-3.3-2.15-4.35-.21-1.75-.3-3.5-.39-5.2a39.58,39.58,0,0,0-1.21-9.3c-3-10.28-12.93-19.47-23.74-16.38a.72.72,0,0,1-.39-1.39c11.66-3.33,22.33,6.42,25.52,17.37a41.29,41.29,0,0,1,1.27,9.63c.09,1.67.18,3.4.38,5.1s.74,2.92,1.37,3.23c.1,0,.42.21,1.07-.16a.73.73,0,1,1,.72,1.26A3,3,0,0,1,207.59,312.38Z"/><path class="cls-22" d="M198,334.33a.73.73,0,0,1-.23-1.42c7.33-2.44,6.79-10.45,6.32-17.52-.12-1.7-.23-3.31-.23-4.8a.73.73,0,0,1,1.46,0c0,1.44.1,3,.21,4.7.49,7.22,1.09,16.2-7.3,19A.59.59,0,0,1,198,334.33Z"/><path class="cls-22" d="M191.19,334.51a.71.71,0,0,1-.67-.45.72.72,0,0,1,.39-.95l.31-.13c2.61-1.06,4.2-1.84,4.2-4.34a.73.73,0,0,1,.73-.73.73.73,0,0,1,.72.73c0,3.6-2.71,4.71-5.1,5.69l-.31.12A.66.66,0,0,1,191.19,334.51Z"/><path class="cls-22" d="M178.66,327.28c-2.76,0-5.35-3.71-5.63-4.14a.73.73,0,0,1,.46-1.12,31.69,31.69,0,0,1,5.25-.53,33.13,33.13,0,0,1,5.17.48.73.73,0,0,1,.52.4.71.71,0,0,1,0,.65C184.33,323.2,182.15,327.28,178.66,327.28Zm-3.72-4c.94,1.12,2.44,2.57,3.72,2.57,1.77,0,3.18-1.56,3.91-2.59a28,28,0,0,0-3.83-.3A26.49,26.49,0,0,0,174.94,323.26Z"/><path class="cls-22" d="M303,243a.83.83,0,0,1-.22,0c-6.09-2-8.35-8-6.72-17.78.2-1.17.38-2.45.58-3.79,1.64-11.17,4.1-28.06,18.82-28.06a.73.73,0,0,1,.73.73.73.73,0,0,1-.73.72c-13.46,0-15.73,15.5-17.38,26.82-.2,1.35-.39,2.64-.59,3.82-1.49,9,.44,14.39,5.74,16.16A.72.72,0,0,1,303,243Z"/><path class="cls-22" d="M333.71,243.72A.73.73,0,0,1,333,243a.72.72,0,0,1,.72-.72,7.91,7.91,0,0,0,3.46-1.43c5.22-3.18,4.74-7.4,4.13-12.74-.09-.79-.18-1.58-.26-2.39-.09-1-.17-2-.25-3-.39-4.88-.83-10.43-2.49-14.92-3-8.26-11.09-16-21.57-13.35a.72.72,0,1,1-.35-1.4c11.35-2.84,20,5.4,23.29,14.25,1.72,4.68,2.17,10.33,2.57,15.31.08,1,.16,2,.25,3,.07.8.16,1.58.25,2.35.62,5.39,1.2,10.49-4.82,14.15A9,9,0,0,1,333.71,243.72Z"/><path class="cls-22" d="M339.75,270.14a.73.73,0,0,1-.63-1.07c3.05-5.53,1-12.33-2-16.85a22.13,22.13,0,0,0-1.8-2.25c-1.39-1.59-2.83-3.24-3.23-5.26a.72.72,0,0,1,.56-.85.73.73,0,0,1,.86.57c.33,1.64,1.64,3.14,2.9,4.59a23.32,23.32,0,0,1,1.93,2.4c3.19,4.88,5.4,12.25,2,18.35A.72.72,0,0,1,339.75,270.14Z"/><path class="cls-22" d="M322.82,271.25a1,1,0,0,1-.23,0,.72.72,0,0,1-.45-.92,31.35,31.35,0,0,1,2.75-5.61,32.08,32.08,0,0,0,2.88-5.92,24.87,24.87,0,0,0,.68-8.28c0-.82,0-1.63,0-2.43a.72.72,0,0,1,.72-.72.73.73,0,0,1,.73.72c0,.79,0,1.58,0,2.39a26.15,26.15,0,0,1-.75,8.76,33.21,33.21,0,0,1-3,6.2,30.48,30.48,0,0,0-2.64,5.35A.73.73,0,0,1,322.82,271.25Z"/><path class="cls-22" d="M456.89,326.34a7.81,7.81,0,0,1-4.41-1.37.73.73,0,1,1,.81-1.21c2.3,1.53,4.86,1.5,8.06-.1A.73.73,0,0,1,462,325,11.48,11.48,0,0,1,456.89,326.34Z"/><path class="cls-22" d="M161.73,326.23a1.66,1.66,0,0,1-.32,0,1.29,1.29,0,0,1-1.06-1.34,11,11,0,0,1,1.56-5.48h0a.82.82,0,0,1,1-.28c.85.43,1.78,4.88,1.51,5.55A3.29,3.29,0,0,1,161.73,326.23Zm.77-4.8a9.75,9.75,0,0,0-.7,3.35,2.33,2.33,0,0,0,1.29-.68A16,16,0,0,0,162.5,321.43Z"/><path class="cls-22" d="M197.81,324.76a3.14,3.14,0,0,1-2.41-1.23c-.66-1.31-1.1-4.52-.35-6.1a1.75,1.75,0,0,1,1.22-1.06h0a1.3,1.3,0,0,1,1.15.24c.68.55.67,1.63.66,2.89a7.22,7.22,0,0,0,.11,1.78,5.55,5.55,0,0,0,.3.62,3,3,0,0,1,.55,1.92,1.15,1.15,0,0,1-1,.93Zm-1.28-6.95a.7.7,0,0,0-.17.25c-.52,1.09-.17,3.81.34,4.82a2.59,2.59,0,0,0,.85.4,6.3,6.3,0,0,0-.33-.69,4.79,4.79,0,0,1-.42-.89,8.14,8.14,0,0,1-.17-2.21A7.77,7.77,0,0,0,196.53,317.81Zm.05,0s0,0,0,0l-.19-.7Z"/><path class="cls-22" d="M317.06,243.69c-3.07,0-5.6-3.05-5.71-3.18a.73.73,0,0,1,.64-1.18s2.73.29,5.41.29a34.62,34.62,0,0,0,4.89-.34.72.72,0,0,1,.75.37.74.74,0,0,1-.09.83C322.83,240.61,320.11,243.69,317.06,243.69ZM313.91,241a5.42,5.42,0,0,0,3.15,1.29,5.73,5.73,0,0,0,3.19-1.28A53.66,53.66,0,0,1,313.91,241Z"/><path class="cls-22" d="M459.36,238.79a7,7,0,0,1-3.83-1.07.73.73,0,0,1,.8-1.21,6.14,6.14,0,0,0,7.13-.68.72.72,0,0,1,1,0,.74.74,0,0,1,0,1A7.29,7.29,0,0,1,459.36,238.79Z"/><path class="cls-22" d="M444,255.67a.72.72,0,0,1-.61-.32.73.73,0,0,1,.2-1c3.17-2.11,4.46-7.59,3.88-11.66a.73.73,0,0,1,.62-.83.72.72,0,0,1,.82.62c.63,4.46-.73,10.56-4.51,13.08A.77.77,0,0,1,444,255.67Z"/><path class="cls-22" d="M474.61,254.83a.67.67,0,0,1-.24,0c-4.85-1.7-4.83-6.77-4.82-10.84v-.61a.72.72,0,0,1,.72-.72.73.73,0,0,1,.73.72V244c0,4,0,8.11,3.85,9.47a.73.73,0,0,1-.24,1.41Z"/><path class="cls-22" d="M460.44,258.83h-.37a14.73,14.73,0,0,1-4.87-1.77c-.51-.26-1-.5-1.44-.7-2.49-1.1-5.91-2.79-6.84-4.85a.72.72,0,1,1,1.32-.6c.37.82,1.73,2.2,6.1,4.13.47.2,1,.45,1.51.72a13.9,13.9,0,0,0,4.34,1.62c3.07.26,8.47-4.16,10.46-6.61a.72.72,0,0,1,1-.1.73.73,0,0,1,.11,1C469.75,254.16,464.28,258.83,460.44,258.83Z"/><path class="cls-22" d="M450.22,267.83a.8.8,0,0,1-.26-.05c-.43-.14-.73-.59-1.35-1.66-.12-.21-.23-.4-.29-.48l-1.18-1.55c-.88-1.15-1.78-2.34-2.62-3.54a12.66,12.66,0,0,1-.71-1.25c-.45-.86-1-1.94-1.59-2.22a.73.73,0,0,1-.32-1,.71.71,0,0,1,1-.32,6.35,6.35,0,0,1,2.23,2.85c.22.42.43.82.61,1.09.82,1.18,1.72,2.35,2.59,3.49l1.18,1.56c.08.11.22.34.39.62s.28.48.43.73c.29-.27.76-.73,1.55-1.55l.17-.19c.24-.23.54-.57.88-.95,1.86-2.09,4.68-5.25,7.14-4a.72.72,0,0,1,.33,1,.74.74,0,0,1-1,.33c-1.46-.74-4,2.14-5.41,3.69-.36.4-.68.76-.93,1l-.16.16C451.14,267.4,450.64,267.83,450.22,267.83Z"/><path class="cls-22" d="M469,268a.86.86,0,0,1-.49-.15,9.32,9.32,0,0,1-2.53-3.42c-1.27-2.37-2.16-3.79-3.91-3.51a.72.72,0,0,1-.83-.59.73.73,0,0,1,.59-.84c2.89-.48,4.3,2.14,5.43,4.25A10.47,10.47,0,0,0,469,266.4a14.68,14.68,0,0,0,1.54-2.12l.11-.16c.72-1.08,1.52-2.1,2.3-3.08a28.65,28.65,0,0,0,3.32-4.86.73.73,0,1,1,1.3.65,30.33,30.33,0,0,1-3.48,5.1c-.76,1-1.55,2-2.24,3l-.09.14c-1.46,2.29-2.07,2.81-2.58,2.92Z"/><path class="cls-22" d="M409.77,270a.74.74,0,0,1-.48-.18.72.72,0,0,1-.06-1c4.66-5.34,11.57-7.06,18.26-8.72,4.46-1.12,9.07-2.27,12.85-4.49a.73.73,0,0,1,.74,1.26c-4,2.32-8.68,3.5-13.24,4.63-6.77,1.69-13.16,3.28-17.52,8.27A.73.73,0,0,1,409.77,270Z"/><path class="cls-22" d="M506.11,269.64a.74.74,0,0,1-.67-.45c-1.79-4.37-6.51-5.42-11.08-6.43-.63-.14-1.26-.28-1.86-.43a47.2,47.2,0,0,1-13.37-5.19.73.73,0,0,1-.25-1,.72.72,0,0,1,1-.25,46.11,46.11,0,0,0,13,5c.59.15,1.21.28,1.83.42,4.71,1,10,2.23,12.11,7.3a.72.72,0,0,1-.39.95A.69.69,0,0,1,506.11,269.64Z"/><path class="cls-22" d="M320.85,167.27c-.26,0-.52,0-.78,0-7.65-.48-14.85-8.67-16.75-19a.73.73,0,0,1,1.43-.26c2,11.09,9.46,17.48,15.42,17.85,6.85.43,14.63-5.59,15.61-19.82a.75.75,0,0,1,.78-.67.71.71,0,0,1,.67.77C336.22,160.78,328.18,167.27,320.85,167.27Z"/><path class="cls-22" d="M329.12,138.06a.71.71,0,0,1-.28-.06,5.65,5.65,0,0,0-4-.18.73.73,0,0,1-.42-1.39,7,7,0,0,1,4.95.24.71.71,0,0,1,.39.94A.72.72,0,0,1,329.12,138.06Z"/><path class="cls-22" d="M310.05,139a.74.74,0,0,1-.6-.31.72.72,0,0,1,.18-1,6.51,6.51,0,0,1,5.37-.55.71.71,0,0,1,.44.92.73.73,0,0,1-.92.45,5.15,5.15,0,0,0-4.06.37A.76.76,0,0,1,310.05,139Z"/><path class="cls-22" d="M322.22,150.36a.75.75,0,0,1-.57-.28.73.73,0,0,1,.13-1,1.68,1.68,0,0,0,.63-1,2.47,2.47,0,0,0-.49-.5,3.15,3.15,0,0,1-.79-.88,5.5,5.5,0,0,1-.11-4.86.73.73,0,0,1,1-.36.72.72,0,0,1,.36,1,4.07,4.07,0,0,0,.09,3.6,3,3,0,0,0,.44.45,2.29,2.29,0,0,1,1,1.5,3,3,0,0,1-1.19,2.2A.69.69,0,0,1,322.22,150.36Z"/><path class="cls-22" d="M304.31,153a3.63,3.63,0,0,1-2.39-.94,9.62,9.62,0,0,1-2.75-6.25,3,3,0,0,1,1.3-2.79,2,2,0,0,1,2.23.19.72.72,0,1,1-.81,1.2c-.43-.29-.64-.17-.71-.13a1.66,1.66,0,0,0-.56,1.46,8.18,8.18,0,0,0,2.24,5.22,2.08,2.08,0,0,0,1.69.57.73.73,0,0,1,.8.64.72.72,0,0,1-.64.8A2.6,2.6,0,0,1,304.31,153Z"/><path class="cls-22" d="M303.5,150a.74.74,0,0,1-.57-.27c-.2-.25-.37-.49-.53-.72a4,4,0,0,0-1.2-1.27.73.73,0,0,1,.78-1.23,5.56,5.56,0,0,1,1.61,1.66c.14.21.29.42.47.64a.74.74,0,0,1-.11,1A.75.75,0,0,1,303.5,150Z"/><path class="cls-22" d="M320.88,157.51a7,7,0,0,1-3.84-1.07.74.74,0,0,1-.2-1,.72.72,0,0,1,1-.2,6.13,6.13,0,0,0,7.12-.68.73.73,0,1,1,1,1A7.34,7.34,0,0,1,320.88,157.51Z"/><path class="cls-22" d="M305.51,174.39a.73.73,0,0,1-.61-.33.72.72,0,0,1,.2-1c3.17-2.11,4.46-7.59,3.88-11.67a.73.73,0,0,1,1.44-.2c.63,4.46-.73,10.56-4.51,13.08A.77.77,0,0,1,305.51,174.39Z"/><path class="cls-22" d="M336.12,173.55a.67.67,0,0,1-.24,0c-4.85-1.7-4.83-6.77-4.82-10.84v-.61a.73.73,0,0,1,.73-.73.73.73,0,0,1,.72.73v.61c0,4,0,8.11,3.85,9.47a.71.71,0,0,1,.44.92A.72.72,0,0,1,336.12,173.55Z"/><path class="cls-22" d="M271.28,188.67a.74.74,0,0,1-.48-.18.72.72,0,0,1-.06-1c4.66-5.34,11.57-7.06,18.26-8.73,4.46-1.11,9.07-2.26,12.85-4.48a.73.73,0,0,1,1,.26.72.72,0,0,1-.25,1c-4,2.33-8.68,3.5-13.24,4.64-6.76,1.69-13.15,3.28-17.52,8.27A.73.73,0,0,1,271.28,188.67Z"/><path class="cls-22" d="M367.62,188.36a.74.74,0,0,1-.67-.45c-1.79-4.37-6.51-5.42-11.08-6.44-.63-.14-1.26-.27-1.86-.42a47.15,47.15,0,0,1-13.37-5.2.72.72,0,0,1,.74-1.24,46.23,46.23,0,0,0,13,5l1.83.42c4.71,1,10,2.22,12.12,7.3a.74.74,0,0,1-.4.95A.87.87,0,0,1,367.62,188.36Z"/><path class="cls-22" d="M181.64,250.7l-.77,0c-7.65-.48-14.85-8.67-16.75-19a.72.72,0,1,1,1.42-.26c2,11.09,9.46,17.48,15.42,17.85,6.83.43,14.64-5.59,15.62-19.82a.72.72,0,1,1,1.44.1C197,244.21,189,250.7,181.64,250.7Z"/><path class="cls-22" d="M190,221.41a.66.66,0,0,1-.27-.06,5.66,5.66,0,0,0-4-.18.73.73,0,0,1-.43-1.39,7,7,0,0,1,4.95.24.72.72,0,0,1-.28,1.39Z"/><path class="cls-22" d="M171.53,222.1a.74.74,0,0,1-.6-.31.72.72,0,0,1,.18-1,6.59,6.59,0,0,1,5.37-.55.73.73,0,0,1-.48,1.38,5.1,5.1,0,0,0-4.06.36A.69.69,0,0,1,171.53,222.1Z"/><path class="cls-22" d="M183,233.78a.69.69,0,0,1-.57-.28.72.72,0,0,1,.12-1,1.65,1.65,0,0,0,.64-1,2.9,2.9,0,0,0-.5-.5,3.17,3.17,0,0,1-.78-.89,5.45,5.45,0,0,1-.11-4.85.71.71,0,0,1,1-.36.72.72,0,0,1,.36,1,4.06,4.06,0,0,0,.08,3.61,3.13,3.13,0,0,0,.45.45,2.31,2.31,0,0,1,1,1.5,3,3,0,0,1-1.18,2.2A.76.76,0,0,1,183,233.78Z"/><path class="cls-23" d="M174.78,226.81a1.09,1.09,0,1,0-2.13.12,1.09,1.09,0,1,0,2.13-.12Z"/><path class="cls-22" d="M165.11,236.38a3.67,3.67,0,0,1-2.4-.93A9.6,9.6,0,0,1,160,229.2a3,3,0,0,1,1.29-2.8,2,2,0,0,1,2.24.2.71.71,0,0,1,.19,1,.72.72,0,0,1-1,.2c-.43-.29-.65-.17-.72-.13a1.63,1.63,0,0,0-.55,1.46,8.17,8.17,0,0,0,2.23,5.22,2.16,2.16,0,0,0,1.69.57.72.72,0,0,1,.81.64.73.73,0,0,1-.64.8A2.68,2.68,0,0,1,165.11,236.38Z"/><path class="cls-22" d="M164.29,233.45a.71.71,0,0,1-.56-.27c-.2-.24-.37-.48-.54-.72a4.11,4.11,0,0,0-1.19-1.27.72.72,0,0,1-.22-1,.72.72,0,0,1,1-.22,5.4,5.4,0,0,1,1.6,1.66c.15.21.3.42.47.64a.72.72,0,0,1-.1,1A.74.74,0,0,1,164.29,233.45Z"/><path class="cls-23" d="M188.85,227a1.09,1.09,0,1,0-.95,1.43A1.24,1.24,0,0,0,188.85,227Z"/><path class="cls-22" d="M166.3,257.81a.72.72,0,0,1-.4-1.32c3.17-2.12,4.46-7.59,3.88-11.67a.72.72,0,1,1,1.43-.21c.64,4.46-.72,10.56-4.51,13.08A.65.65,0,0,1,166.3,257.81Z"/><path class="cls-22" d="M196.91,257a.69.69,0,0,1-.24-.05c-4.84-1.69-4.83-6.76-4.82-10.84v-.6a.73.73,0,0,1,.72-.73.73.73,0,0,1,.73.73v.61c0,4,0,8.11,3.84,9.47a.72.72,0,0,1,.45.92A.74.74,0,0,1,196.91,257Z"/><path class="cls-22" d="M182.74,261l-.37,0a14.68,14.68,0,0,1-4.86-1.77c-.51-.25-1-.5-1.45-.69-2.49-1.1-5.91-2.8-6.84-4.86a.73.73,0,0,1,1.33-.59c.53,1.18,2.58,2.57,6.1,4.12.46.21,1,.46,1.5.72a14,14,0,0,0,4.34,1.63c3.11.23,8.48-4.17,10.47-6.61a.73.73,0,0,1,1-.11.72.72,0,0,1,.1,1C192.06,256.31,186.59,261,182.74,261Z"/><path class="cls-22" d="M172.53,270a.86.86,0,0,1-.27-.05c-.42-.15-.72-.59-1.34-1.66-.13-.22-.23-.4-.29-.49l-1.17-1.53c-.88-1.15-1.79-2.35-2.63-3.56a12.3,12.3,0,0,1-.72-1.25,5.79,5.79,0,0,0-1.58-2.22.72.72,0,0,1-.33-1,.73.73,0,0,1,1-.33,6.4,6.4,0,0,1,2.22,2.85,12.4,12.4,0,0,0,.62,1.1c.82,1.18,1.72,2.36,2.59,3.5.4.51.79,1,1.18,1.54.08.11.22.35.38.63s.28.48.44.72c.28-.26.75-.72,1.55-1.55l.17-.18c.24-.24.53-.57.88-1,1.86-2.09,4.68-5.24,7.14-4a.73.73,0,0,1,.32,1,.72.72,0,0,1-1,.32c-1.46-.73-4,2.15-5.41,3.69-.37.41-.68.76-.94,1l-.15.15C173.45,269.54,172.94,270,172.53,270Z"/><path class="cls-22" d="M191.26,270.14a.83.83,0,0,1-.48-.15,9.24,9.24,0,0,1-2.53-3.42c-1.27-2.37-2.16-3.79-3.91-3.5a.73.73,0,0,1-.84-.6.72.72,0,0,1,.6-.83c2.9-.49,4.3,2.14,5.43,4.24a10.55,10.55,0,0,0,1.75,2.67,15.07,15.07,0,0,0,1.54-2.13l.1-.16c.72-1.08,1.52-2.09,2.3-3.08a27.94,27.94,0,0,0,3.33-4.86.73.73,0,0,1,1.3.65,29.88,29.88,0,0,1-3.49,5.11c-.76,1-1.54,2-2.23,3l-.09.13c-1.46,2.29-2.07,2.81-2.58,2.92Zm.32-1.35Z"/><path class="cls-22" d="M133.86,270.33a.72.72,0,0,1-.48-1.27c4.53-3.93,10.57-5.43,16.41-6.89,4.46-1.11,9.07-2.26,12.86-4.48a.72.72,0,1,1,.73,1.25c-4,2.33-8.68,3.5-13.24,4.64-5.67,1.41-11.54,2.88-15.81,6.57A.73.73,0,0,1,133.86,270.33Z"/><path class="cls-22" d="M227.84,270.62a.7.7,0,0,1-.62-.35c-2.09-3.49-6.39-4.45-10.56-5.37l-1.85-.42a47,47,0,0,1-13.37-5.2.72.72,0,0,1-.26-1,.74.74,0,0,1,1-.26,45.94,45.94,0,0,0,13,5l1.83.42c4.25.94,9.08,2,11.48,6a.72.72,0,0,1-.25,1A.71.71,0,0,1,227.84,270.62Z"/><path class="cls-22" d="M472.74,139.07a.65.65,0,0,1-.2,0,12.66,12.66,0,0,0-6.21-.2.73.73,0,1,1-.3-1.42,14.16,14.16,0,0,1,6.91.22.73.73,0,0,1,.49.9A.71.71,0,0,1,472.74,139.07Z"/><path class="cls-22" d="M450.86,139.66a.73.73,0,0,1-.64-.38.72.72,0,0,1,.31-1,10.69,10.69,0,0,1,6.77-.52.73.73,0,0,1-.36,1.41,9.38,9.38,0,0,0-5.74.39A.68.68,0,0,1,450.86,139.66Z"/><path class="cls-22" d="M463.89,151a.72.72,0,0,1-.44-1.29,1.68,1.68,0,0,0,.63-1,2.32,2.32,0,0,0-.5-.5,3.27,3.27,0,0,1-.78-.88,5.5,5.5,0,0,1-.11-4.86.72.72,0,0,1,1.32.6,4.07,4.07,0,0,0,.09,3.6,3,3,0,0,0,.44.45,2.32,2.32,0,0,1,1,1.5,3,3,0,0,1-1.19,2.2A.76.76,0,0,1,463.89,151Z"/><path class="cls-23" d="M455.65,144a1.09,1.09,0,1,0-1,1.39A1.22,1.22,0,0,0,455.65,144Z"/><path class="cls-22" d="M446,153.61a3.68,3.68,0,0,1-2.4-.94,9.65,9.65,0,0,1-2.74-6.25,3,3,0,0,1,1.3-2.79,2,2,0,0,1,2.23.19.72.72,0,0,1-.81,1.2c-.43-.29-.64-.17-.71-.13a1.62,1.62,0,0,0-.56,1.46,8.22,8.22,0,0,0,2.23,5.22,2.18,2.18,0,0,0,1.7.57.73.73,0,0,1,.8.64.72.72,0,0,1-.64.8A2.69,2.69,0,0,1,446,153.61Z"/><path class="cls-22" d="M445.16,150.68a.74.74,0,0,1-.56-.27c-.2-.25-.37-.49-.53-.72a3.93,3.93,0,0,0-1.2-1.27.73.73,0,0,1-.22-1,.74.74,0,0,1,1-.22,5.4,5.4,0,0,1,1.6,1.66c.15.21.3.42.48.64a.73.73,0,0,1-.11,1A.75.75,0,0,1,445.16,150.68Z"/><path class="cls-23" d="M469.72,144.23a1.09,1.09,0,1,0-.94,1.42A1.22,1.22,0,0,0,469.72,144.23Z"/><path class="cls-22" d="M462.54,158.16a7,7,0,0,1-3.83-1.07.73.73,0,0,1,.8-1.21,6.15,6.15,0,0,0,7.13-.68.72.72,0,0,1,1,0,.74.74,0,0,1,0,1A7.36,7.36,0,0,1,462.54,158.16Z"/><path class="cls-22" d="M447.17,175a.73.73,0,0,1-.4-1.33c2.1-1.4,3.57-4.43,3.93-8.1a.74.74,0,0,1,.8-.65.73.73,0,0,1,.65.79c-.41,4.1-2.11,7.53-4.57,9.16A.71.71,0,0,1,447.17,175Z"/><path class="cls-22" d="M477.79,174.2a1,1,0,0,1-.24,0c-4.4-1.54-4.8-5.78-4.82-9.63a.73.73,0,0,1,.72-.73.75.75,0,0,1,.73.72c0,3.51.34,7,3.85,8.27a.73.73,0,0,1,.44.92A.72.72,0,0,1,477.79,174.2Z"/><path class="cls-22" d="M463.64,178.2l-.4,0a14.68,14.68,0,0,1-4.86-1.77c-.51-.25-1-.49-1.44-.69-2.49-1.1-5.91-2.8-6.84-4.85a.72.72,0,1,1,1.32-.6c.54,1.18,2.59,2.57,6.1,4.12.47.21,1,.46,1.51.73a13.85,13.85,0,0,0,4.33,1.62c3.12.27,8.48-4.17,10.47-6.61A.73.73,0,1,1,475,171C473.36,173,467.82,178.2,463.64,178.2Z"/><path class="cls-22" d="M453.4,187.2a.8.8,0,0,1-.26,0c-.43-.14-.73-.59-1.35-1.66-.13-.22-.23-.4-.29-.49l-1.17-1.54c-.88-1.15-1.79-2.34-2.63-3.55a10.7,10.7,0,0,1-.71-1.25,5.7,5.7,0,0,0-1.59-2.22.73.73,0,0,1-.33-1,.74.74,0,0,1,1-.33,6.33,6.33,0,0,1,2.22,2.85,11.11,11.11,0,0,0,.62,1.1c.82,1.18,1.72,2.35,2.59,3.49l1.18,1.55c.08.11.22.35.38.63s.28.48.44.72c.28-.26.76-.73,1.56-1.57l.16-.16c.24-.24.54-.57.88-.95,1.86-2.09,4.69-5.25,7.14-4a.72.72,0,0,1,.33,1,.73.73,0,0,1-1,.32c-1.46-.73-4,2.15-5.41,3.69-.36.41-.68.76-.94,1l-.13.14C454.33,186.76,453.82,187.2,453.4,187.2Z"/><path class="cls-22" d="M472.14,187.36a.91.91,0,0,1-.49-.14,9.28,9.28,0,0,1-2.53-3.43c-1.27-2.37-2.16-3.78-3.91-3.5a.73.73,0,0,1-.24-1.43c2.91-.49,4.3,2.14,5.43,4.25a10.65,10.65,0,0,0,1.75,2.66,15.07,15.07,0,0,0,1.54-2.13l.1-.15c.73-1.09,1.53-2.1,2.31-3.09a28.44,28.44,0,0,0,3.32-4.86.74.74,0,0,1,1-.32.73.73,0,0,1,.32,1,30.42,30.42,0,0,1-3.48,5.11c-.76,1-1.55,2-2.24,3l-.09.14c-1.46,2.28-2.07,2.81-2.58,2.91A.65.65,0,0,1,472.14,187.36Z"/><path class="cls-22" d="M414.17,188.05a.72.72,0,0,1-.49-1.25c4.59-4.32,10.89-5.89,17-7.41,4.46-1.11,9.07-2.26,12.85-4.48a.73.73,0,0,1,1,.26.72.72,0,0,1-.25,1c-4,2.33-8.68,3.5-13.24,4.64-5.92,1.47-12,3-16.35,7.06A.73.73,0,0,1,414.17,188.05Z"/><path class="cls-22" d="M508.78,188a.74.74,0,0,1-.63-.36c-2-3.58-6.4-4.54-10.61-5.48l-1.86-.42a47.15,47.15,0,0,1-13.37-5.2.72.72,0,0,1-.25-1,.73.73,0,0,1,1-.26,45.94,45.94,0,0,0,13,5l1.83.42c4.31.95,9.18,2,11.56,6.17a.72.72,0,0,1-.27,1A.74.74,0,0,1,508.78,188Z"/><path class="cls-22" d="M440.71,145.43a.66.66,0,0,1-.52-.27.79.79,0,0,1,.08-1,.76.76,0,0,1,.36-.2c.16-.09.36-.23.46-.3l.46-.33c.62-.44,1.23-.87,1.82-1.35,2.35-1.91,4.84-4.13,7.63-6.78l1.4-1.34c6.51-6.19,13.25-12.59,18.29-20,2-2.94,3.81-6.65,3-8.29a.72.72,0,0,1,.32-1,.74.74,0,0,1,1,.33c1.29,2.59-1.39,7.21-3.1,9.74-5.13,7.59-11.92,14-18.49,20.28l-1.4,1.34c-2.81,2.67-5.34,4.92-7.72,6.86-.61.49-1.25.95-1.89,1.4l-.46.33A2.6,2.6,0,0,1,440.71,145.43Z"/><path class="cls-22" d="M441.21,147.74a.75.75,0,0,1-.33-.07,7.22,7.22,0,0,1-2.44-2.92,26.55,26.55,0,0,1-3.25-8.65c-1.75-12,3-23.63,13.05-31.85a.73.73,0,0,1,1,.11.72.72,0,0,1-.11,1c-9.63,7.88-14.2,19-12.52,30.51a25.5,25.5,0,0,0,3.08,8.17,6.15,6.15,0,0,0,1.82,2.31.72.72,0,0,1,.32,1A.7.7,0,0,1,441.21,147.74Z"/><path class="cls-22" d="M478.42,146a.73.73,0,0,1-.68-.46,45.42,45.42,0,0,0-15-19.61.72.72,0,0,1-.13-1,.73.73,0,0,1,1-.12A47.41,47.41,0,0,1,479.09,145a.73.73,0,0,1-.4,1A.86.86,0,0,1,478.42,146Z"/><path class="cls-22" d="M478.48,149.63a.72.72,0,0,1-.27-1.4c3-1.18,5-6.68,5.79-9,2.58-7.89,3.13-19.23-3.06-27.41-1.78-2.36-3.46-4.42-5.89-5.64a.72.72,0,0,1-.33-1,.73.73,0,0,1,1-.32c2.71,1.35,4.57,3.64,6.4,6.06,6.52,8.62,6,20.49,3.28,28.73-1,3.11-3.23,8.53-6.63,9.89A.65.65,0,0,1,478.48,149.63Z"/><path class="cls-22" d="M455.78,154.5a7.11,7.11,0,0,1-2.25-.34c-3.3-1.11-5.76-4-7.52-8.82-.05-.15-.12-.32-.2-.5a4.69,4.69,0,0,1-.53-3.12.72.72,0,0,1,.92-.45.74.74,0,0,1,.45.93,4.27,4.27,0,0,0,.5,2.09c.09.2.16.39.22.55,1.6,4.39,3.77,7,6.63,7.94a9.35,9.35,0,0,0,4.69-.09,19,19,0,0,1,2.81-.38c.78,0,1.6,0,2.43,0,3.86,0,7.85,0,10.64-2.32a13.46,13.46,0,0,0,3.21-4.84.73.73,0,1,1,1.33.58,14.75,14.75,0,0,1-3.61,5.37c-3.86,3.21-9.51,2.55-13.95,2.68a17.8,17.8,0,0,0-2.6.36A17.5,17.5,0,0,1,455.78,154.5Z"/><path class="cls-22" d="M462,169.37c-4.62,0-8.79-1.58-11.35-4.36-3.18-3.45-4.09-8.7-4.88-13.33-.21-1.22-.42-2.41-.66-3.52-.08-.4-.2-.86-.32-1.34a15.16,15.16,0,0,1-.7-4.53.72.72,0,0,1,.79-.65.73.73,0,0,1,.66.79,14.2,14.2,0,0,0,.66,4c.12.5.24,1,.33,1.39.25,1.14.45,2.35.67,3.59.76,4.43,1.62,9.45,4.52,12.59,2.53,2.74,6.88,4.18,11.62,3.85s8.78-2.36,10.89-5.41c1.32-1.91,1.62-4.5,1.91-7,.11-.88.21-1.75.35-2.56s.27-1.37.42-2.05a24.94,24.94,0,0,0,.58-3.23.72.72,0,0,1,1.44.14,28.89,28.89,0,0,1-.6,3.41c-.15.66-.29,1.31-.41,2s-.23,1.63-.33,2.48c-.32,2.69-.64,5.46-2.17,7.67-2.36,3.41-6.84,5.66-12,6C462.91,169.36,462.43,169.37,462,169.37Z"/><path class="cls-22" d="M319.5,220.33a.76.76,0,0,1-.38-.11c-3.4-2.11-6-5.33-7.94-9.85a.73.73,0,0,1,1.34-.57c1.84,4.29,4.18,7.21,7.36,9.19a.72.72,0,0,1-.38,1.34Z"/><path class="cls-22" d="M340.3,232.18a.73.73,0,0,1-.73-.72c0-3.51-4.13-6.31-6.86-8.16-1.59-1.08-3.2-2-4.76-3-5.18-3.07-10.53-6.24-13.06-12.39a.72.72,0,1,1,1.34-.55c2.35,5.7,7.26,8.61,12.46,11.69,1.58.94,3.21,1.9,4.75,2.95,3.07,2.08,7.58,5.14,7.58,9.42A.72.72,0,0,1,340.3,232.18Z"/><path class="cls-22" d="M310.94,227.47a.66.66,0,0,1-.23,0,6,6,0,0,0-3,0,.72.72,0,0,1-.28-1.42,7.22,7.22,0,0,1,3.7.07.72.72,0,0,1-.23,1.41Z"/><path class="cls-22" d="M326.24,227.82a.65.65,0,0,1-.2,0c-.7-.2-2.33-.67-3.06-.12a.73.73,0,0,1-.87-1.16c1.31-1,3.35-.4,4.33-.12a.73.73,0,0,1,.49.9A.71.71,0,0,1,326.24,227.82Z"/><path class="cls-23" d="M448.5,311.75c0-1,.55-1.8,1.22-1.8s1.22.81,1.22,1.8-.55,1.8-1.22,1.8S448.5,312.74,448.5,311.75Z"/><path class="cls-23" d="M464.18,312.06c0-1,.54-1.8,1.22-1.8s1.22.8,1.22,1.8-.55,1.8-1.22,1.8S464.18,313.05,464.18,312.06Z"/><path class="cls-22" d="M475,306.62a.73.73,0,0,1-.72-.73,6.23,6.23,0,0,0-1.06-1.47c-.13-.14-.24-.27-.32-.37a15.67,15.67,0,0,0-6.2-4.8c-8.14-3.58-19.64-2.68-24.78,5a.73.73,0,0,1-1.21-.81c5.56-8.34,17.88-9.37,26.58-5.55a17.09,17.09,0,0,1,6.75,5.23l.27.32a4.49,4.49,0,0,1,1.42,2.42A.73.73,0,0,1,475,306.62Z"/><path class="cls-22" d="M476.18,306.13a.72.72,0,0,1-.73-.72c0-3-1.81-6.2-3.51-8.16-6.36-7.33-16.47-8.87-23.52-3.58a21.43,21.43,0,0,0-5.86,6.46c-.09.16-.2.33-.32.52a3.83,3.83,0,0,0-.7,1.49.72.72,0,0,1-.72.72.73.73,0,0,1-.73-.72,4.57,4.57,0,0,1,.93-2.27l.28-.46a22.92,22.92,0,0,1,6.25-6.9c7.67-5.75,18.62-4.12,25.48,3.79a14.73,14.73,0,0,1,3.87,9.11A.72.72,0,0,1,476.18,306.13Z"/><path class="cls-22" d="M471.44,337.52a.65.65,0,0,1-.4-.12.72.72,0,0,1-.2-1c2.78-4.18,3-8.5,3-13.31a137.64,137.64,0,0,0-1.6-19.74.73.73,0,0,1,1.44-.2,138.9,138.9,0,0,1,1.61,19.94c0,4.86-.25,9.61-3.25,14.11A.72.72,0,0,1,471.44,337.52Z"/><path class="cls-22" d="M457.17,340.31a.72.72,0,0,1-.32-.08c-12.69-6.34-19.14-22-15.34-37.15a.7.7,0,0,1,.87-.53.72.72,0,0,1,.53.88c-3.63,14.53,2.5,29.46,14.59,35.5a.73.73,0,0,1,.32,1A.72.72,0,0,1,457.17,340.31Z"/><path class="cls-22" d="M459.74,337.33a.72.72,0,0,1-.22-1.41c7.58-2.44,13.76-10.42,13.76-17.8a.72.72,0,0,1,.72-.72.73.73,0,0,1,.73.72c0,8-6.63,16.56-14.77,19.18Z"/><path class="cls-22" d="M433.52,335.22c-.12-1-.31-1.89-.49-2.78a34.21,34.21,0,0,1-.56-3.46c-.59-6.43.59-13.06,1.74-19.48.23-1.29.45-2.57.67-3.84.89-5.37,2-11,4.38-16,3.31-7.1,11.19-14.74,20.67-14.74a.72.72,0,0,1,.72.72.73.73,0,0,1-.72.73c-8.84,0-16.23,7.21-19.36,13.91-2.26,4.85-3.39,10.39-4.26,15.66-.21,1.27-.44,2.56-.67,3.86-1.13,6.32-2.29,12.85-1.73,19.09a33.08,33.08,0,0,0,.54,3.31c.19.91.38,1.86.5,2.83l-.71.17Z"/><path class="cls-22" d="M481.1,340.22a.74.74,0,0,1-.72-.62c0-.13,0-.26,0-.39a14.09,14.09,0,0,1,.47-4c.12-.55.25-1.1.33-1.66a34.37,34.37,0,0,0,.25-6.1c0-.62,0-1.25,0-1.87,0-1.72,0-3.44,0-5.15s0-3.45,0-5.18c0-1.53,0-3.09.07-4.66a76.8,76.8,0,0,0-.39-12.44c-1.31-9.23-6.85-16.92-14.45-20.09-2-.84-4.29-1.79-6.36-1.79a.73.73,0,0,1-.73-.72.73.73,0,0,1,.73-.73c2.36,0,4.88,1,6.91,1.9,8.08,3.36,13.95,11.49,15.34,21.22a79,79,0,0,1,.4,12.69c0,1.55-.07,3.1-.07,4.62,0,1.72,0,3.44,0,5.16s0,3.45,0,5.17c0,.61,0,1.23,0,1.85a37.55,37.55,0,0,1-.27,6.35c-.1.59-.22,1.16-.35,1.74a13,13,0,0,0-.45,3.62,2.51,2.51,0,0,0,0,.27.73.73,0,0,1-.61.83Z"/><path class="cls-22" d="M450.13,348.06a.73.73,0,0,1-.3-.07c-5.69-2.58-12.59-7.57-15.19-12.9a.72.72,0,0,1,1.3-.64c2.45,5,9,9.75,14.49,12.22a.73.73,0,0,1,.36,1A.74.74,0,0,1,450.13,348.06Z"/><path class="cls-22" d="M450.43,355.89a.78.78,0,0,1-.26,0,56.08,56.08,0,0,1-8.57-4,65,65,0,0,1-7.35-4.8l-.21-.16c-1.14-.86-2.27-1.8-2.33-2.8a6.46,6.46,0,0,1,.62-2.44,8.89,8.89,0,0,0,.37-1.11,11.75,11.75,0,0,0,.17-1.21,7.42,7.42,0,0,1,.9-3.24.73.73,0,1,1,1.22.79,6,6,0,0,0-.67,2.61c-.06.46-.11.91-.2,1.34a8.29,8.29,0,0,1-.44,1.34,6,6,0,0,0-.52,1.83c0,.16.27.61,1.76,1.74l.22.17a64.92,64.92,0,0,0,7.19,4.69,55,55,0,0,0,8.35,3.92.72.72,0,0,1,.43.93A.73.73,0,0,1,450.43,355.89Z"/><path class="cls-22" d="M484.68,356a.74.74,0,0,1-.48-.18.73.73,0,0,1-.08-1c.45-.51.87-1,1.29-1.56s1-1.19,1.44-1.73l.24-.25a12.1,12.1,0,0,0,1.87-2.18,4.38,4.38,0,0,0-.82-.62,6,6,0,0,1-1-.76c-.52-.53-1.05-1.05-1.59-1.57a29.31,29.31,0,0,1-4.43-5,.72.72,0,0,1,1.22-.78,29,29,0,0,0,4.22,4.78c.55.53,1.09,1.06,1.61,1.6a5.84,5.84,0,0,0,.75.56,4.23,4.23,0,0,1,1.38,1.25c.44.73-.1,1.64-2.21,3.78l-.18.19c-.46.52-.93,1.1-1.4,1.68s-.86,1.07-1.31,1.59A.74.74,0,0,1,484.68,356Z"/><path class="cls-22" d="M319.63,123.69h0a.69.69,0,0,1-.69-.72v-.09c.14-2.78.25-5-.89-7.46a.72.72,0,1,1,1.31-.61c1.3,2.8,1.17,5.28,1,8.14A.77.77,0,0,1,319.63,123.69Z"/><path class="cls-22" d="M310.69,144.23a.73.73,0,0,1-.33-1.38,4.75,4.75,0,0,1,3.77-.21.72.72,0,1,1-.6,1.32,3.26,3.26,0,0,0-2.52.19A.72.72,0,0,1,310.69,144.23Z"/><path class="cls-22" d="M326.07,143.54a.73.73,0,0,1-.26-1.41,5,5,0,0,1,2.74-.24,6.82,6.82,0,0,0,1.06.1.72.72,0,0,1,.72.72.73.73,0,0,1-.72.73,8.71,8.71,0,0,1-1.27-.11,3.37,3.37,0,0,0-2,.16A.74.74,0,0,1,326.07,143.54Z"/><path class="cls-22" d="M313.53,134.12a.72.72,0,0,1-.7-.55.71.71,0,0,1,.53-.87c4-1,6.88-3.82,7.47-7.35a.74.74,0,0,1,.83-.59.72.72,0,0,1,.6.83c-.68,4.1-4,7.36-8.55,8.51A.55.55,0,0,1,313.53,134.12Z"/><path class="cls-22" d="M303.93,141.7a.7.7,0,0,1-.36-.1.72.72,0,0,1-.27-1c1.7-3,4.37-5.18,6.95-7.27s5.23-4.24,6.68-7.14a.73.73,0,0,1,1-.33.72.72,0,0,1,.32,1c-1.59,3.19-4.37,5.45-7.07,7.63-2.47,2-5,4.08-6.6,6.85A.71.71,0,0,1,303.93,141.7Z"/><path class="cls-22" d="M337.13,141.87a.73.73,0,0,1-.72-.65c-.33-3.35-2.81-5-5.43-6.79a27.42,27.42,0,0,1-3-2.25,9.67,9.67,0,0,1-3-3.56l-.52-.94a.72.72,0,0,1,.27-1,.73.73,0,0,1,1,.27l.53,1a8.45,8.45,0,0,0,2.67,3.17,27,27,0,0,0,2.89,2.14c2.79,1.88,5.66,3.82,6.07,7.85a.73.73,0,0,1-.65.79Z"/><path class="cls-22" d="M299.27,142.75a.72.72,0,0,1-.73-.72,17.63,17.63,0,0,0-.52-3.69,23.63,23.63,0,0,1-.54-3.4c-.43-7.86,2.56-18.23,10.15-22.43,2.17-1.2,4.72-2.35,7.28-1.84a.72.72,0,1,1-.29,1.42c-2.08-.41-4.25.57-6.29,1.69-7,3.89-9.81,13.65-9.4,21.08a21.64,21.64,0,0,0,.51,3.18,19.29,19.29,0,0,1,.55,4A.72.72,0,0,1,299.27,142.75Z"/><path class="cls-22" d="M338.77,142.88a.64.64,0,0,1-.35-.1.72.72,0,0,1-.28-1c4.91-8.68.83-20-5.5-26.16-2.05-2-7.46-6.48-13.35-4.49a.72.72,0,1,1-.46-1.37c4.68-1.59,10.08.17,14.83,4.82,6.71,6.58,11,18.6,5.75,27.91A.75.75,0,0,1,338.77,142.88Z"/><path class="cls-22" d="M320.05,184.11c-7.87,0-14.72-2.24-19.42-6.48a.72.72,0,0,1-.06-1,.73.73,0,0,1,1-.05c8.39,7.55,21.11,6.29,26.19,5.4,5.84-1,10.13-3,13.13-6a.73.73,0,0,1,1,1c-3.22,3.22-7.77,5.31-13.9,6.39A46.62,46.62,0,0,1,320.05,184.11Z"/><path class="cls-22" d="M161.72,225.12a.72.72,0,0,1-.23-1.41c3.79-1.26,6-5.21,8.1-9a40.86,40.86,0,0,1,2.76-4.55c1.25-1.69,5.64-5.83,8.82-4.24a.73.73,0,0,1,.32,1,.72.72,0,0,1-1,.32c-2-1-5.66,2-7,3.81a42.38,42.38,0,0,0-2.67,4.39c-2.14,3.87-4.58,8.25-8.9,9.7Z"/><path class="cls-22" d="M199.54,227.1l-.14,0c-5.51-1.1-7.28-5.57-9-9.9-.38-1-.76-1.92-1.19-2.85-1.67-3.67-3.67-5.86-5.33-5.86a.73.73,0,1,1,0-1.45c3.12,0,5.51,4.2,6.65,6.7.44,1,.84,2,1.22,2.93,1.64,4.15,3.2,8.06,7.93,9a.73.73,0,0,1-.14,1.44Z"/><path class="cls-22" d="M182.6,206.71h-.06a.73.73,0,0,1-.66-.79c.36-4-.55-6.6-2.88-8.31a.73.73,0,0,1-.16-1,.74.74,0,0,1,1-.16c2.78,2,3.88,5.09,3.47,9.62A.74.74,0,0,1,182.6,206.71Z"/><path class="cls-22" d="M150.15,229.14a.72.72,0,0,1-.3-1.38c3.16-1.44,3.51-5.2,3.86-8.83a27.67,27.67,0,0,1,.6-4.17c2.32-8.85,10.59-22,22.86-19.51a.72.72,0,1,1-.28,1.42c-11.3-2.26-19,10.12-21.17,18.46a25.83,25.83,0,0,0-.57,3.94c-.36,3.85-.78,8.23-4.7,10A.8.8,0,0,1,150.15,229.14Z"/><path class="cls-22" d="M159.92,249.61a.72.72,0,0,1-.71-.59c-.29-1.6-1.16-1.9-2.79-2.33a8.49,8.49,0,0,1-2.54-1,8.09,8.09,0,0,1-3.34-5.9c-.52-3.65.56-7.88,2.62-10.28a.72.72,0,0,1,1.1.94c-1.78,2.08-2.74,5.92-2.29,9.14a6.82,6.82,0,0,0,2.7,4.88,7.12,7.12,0,0,0,2.12.81c1.58.43,3.38.9,3.84,3.48a.72.72,0,0,1-.58.84Z"/><path class="cls-22" d="M167.56,249.6c-2.41,0-3.28-1.54-4.34-3.43l-.33-.59a.73.73,0,0,1,1.26-.72l.34.6c1.2,2.15,1.7,3,4.19,2.58a.72.72,0,0,1,.27,1.42A7.26,7.26,0,0,1,167.56,249.6Z"/><path class="cls-22" d="M204.48,220.11a.65.65,0,0,1-.27-.05c-2-.79-2.7-3-3.28-4.8-.1-.32-.21-.63-.31-.92q-.31-.87-.63-1.77c-1.29-3.71-2.63-7.54-5.22-10.33a15.62,15.62,0,0,0-10-5.34l-.27,0c-2.19-.2-2.71,0-2.83.06a.68.68,0,0,1-.94.29.77.77,0,0,1-.3-1c.47-.93,1.95-1,4.2-.77l.25,0a17.16,17.16,0,0,1,10.92,5.8c2.79,3,4.18,7,5.52,10.84l.63,1.76.32,1c.51,1.58,1.09,3.36,2.44,3.9a.73.73,0,0,1,.4.95A.71.71,0,0,1,204.48,220.11Z"/><path class="cls-22" d="M198.13,247.42a.72.72,0,0,1-.33-1.37c4.44-2.22,7.12-4.88,7.73-7.7.53-2.4-.11-5.69-.58-8.1l0-.28a28.15,28.15,0,0,0-1.29-4.16,33.93,33.93,0,0,1-1.18-3.57.74.74,0,0,1,.53-.88.73.73,0,0,1,.88.53A31.67,31.67,0,0,0,205,225.3a28.09,28.09,0,0,1,1.35,4.39l.06.29c.49,2.52,1.16,6,.57,8.68-.73,3.31-3.59,6.23-8.5,8.68A.61.61,0,0,1,198.13,247.42Z"/><path class="cls-22" d="M194.39,246.57a.73.73,0,0,1-.73-.72.73.73,0,0,1,.73-.73c1.14,0,1.69-.76,2.49-2a.74.74,0,0,1,1-.21.73.73,0,0,1,.21,1C197.34,245.1,196.38,246.57,194.39,246.57Z"/><path class="cls-22" d="M182.52,243c-3.84,0-5.84-3.42-5.92-3.56a.72.72,0,0,1,.71-1.08s2,.22,5.36.22a17.89,17.89,0,0,0,4.91-.53.72.72,0,0,1,.78.21.73.73,0,0,1,.09.81C188.37,239.2,186.37,243,182.52,243Zm-3.68-3.07a5.29,5.29,0,0,0,3.68,1.62,5,5,0,0,0,3.6-1.74,25.07,25.07,0,0,1-3.45.22C181.06,240,179.77,240,178.84,239.9Z"/><path class="cls-22" d="M317.89,335.05h-.29c-4.47-.31-15.5-6.83-16.25-21.17a.73.73,0,0,1,.69-.77.74.74,0,0,1,.76.69c.69,13.24,10.94,19.53,14.9,19.8,1.88.15,6.14-1.68,9.8-4.83a.73.73,0,1,1,.95,1.1C324.94,332.87,320.49,335.05,317.89,335.05Z"/><path class="cls-22" d="M332,326.44a.74.74,0,0,1-.35-.1.72.72,0,0,1-.28-1A22.32,22.32,0,0,0,334,314.61a.73.73,0,0,1,.73-.71h0a.73.73,0,0,1,.71.74,23.82,23.82,0,0,1-2.86,11.42A.72.72,0,0,1,332,326.44Z"/><path class="cls-22" d="M334.94,317.26a.72.72,0,0,1-.09-1.44c1.28-.16,1.95-.59,2.24-1.42A.73.73,0,0,1,338,314a.74.74,0,0,1,.44.93,3.86,3.86,0,0,1-3.43,2.37Z"/><path class="cls-22" d="M316.84,317.59a.74.74,0,0,1-.63-.36,2.69,2.69,0,0,0-.48-.46,2.59,2.59,0,0,1-1.18-2,1.81,1.81,0,0,1,.6-1.1,2,2,0,0,0,.26-.3,3.23,3.23,0,0,0-.35-2.73.71.71,0,0,1,.25-1,.73.73,0,0,1,1,.25,4.62,4.62,0,0,1,.45,4,2.32,2.32,0,0,1-.54.74,2.21,2.21,0,0,0-.23.28c0,.12.39.45.7.72a3.77,3.77,0,0,1,.78.82.72.72,0,0,1-.62,1.1Z"/><path class="cls-22" d="M317.2,324.61a10.47,10.47,0,0,1-6-1.68.74.74,0,0,1-.17-1,.73.73,0,0,1,1-.17c2.62,1.87,7,1.73,9.79.53a.73.73,0,0,1,.95.37.73.73,0,0,1-.37,1A13.37,13.37,0,0,1,317.2,324.61Z"/><path class="cls-23" d="M309,308.34c0-.94.53-1.7,1.18-1.7s1.19.76,1.19,1.7-.53,1.69-1.19,1.69S309,309.27,309,308.34Z"/><path class="cls-23" d="M323.86,308.81c0-.94.53-1.7,1.19-1.7s1.18.76,1.18,1.7-.53,1.69-1.18,1.69S323.86,309.75,323.86,308.81Z"/><path class="cls-22" d="M306.76,341.23a.74.74,0,0,1-.5-.2.72.72,0,0,1,0-1,11,11,0,0,0,2.34-9.36.74.74,0,0,1,.54-.88.72.72,0,0,1,.87.54A12.35,12.35,0,0,1,307.29,341,.75.75,0,0,1,306.76,341.23Z"/><path class="cls-22" d="M331.13,340.19a.77.77,0,0,1-.6-.3c-2.16-3.05-2-6.92-1.91-10a.7.7,0,0,1,.75-.7.73.73,0,0,1,.7.75c-.11,3-.23,6.49,1.65,9.13a.72.72,0,0,1-.59,1.15Z"/><path class="cls-22" d="M275.17,353.92a.7.7,0,0,1-.49-.19.72.72,0,0,1-.05-1c3.86-4.26,9.27-5.8,14.49-7.3.83-.23,1.66-.47,2.48-.72,2.49-.75,5-1.68,7.38-2.58,1.67-.63,3.4-1.28,5.12-1.86a.73.73,0,0,1,.47,1.38c-1.7.57-3.42,1.22-5.08,1.84-2.43.91-4.93,1.85-7.47,2.61l-2.5.73c-5,1.44-10.23,2.92-13.82,6.87A.71.71,0,0,1,275.17,353.92Z"/><path class="cls-22" d="M363.89,354.4a.73.73,0,0,1-.55-.25c-1.86-2.17-4.53-3-7.35-3.93-.66-.22-1.31-.43-2-.66-1.7-.6-3.55-1.15-5.51-1.73-5.3-1.56-10.78-3.18-14.75-6.28a.73.73,0,0,1,.89-1.15c3.76,2.93,9.1,4.51,14.27,6,2,.59,3.85,1.14,5.59,1.76l1.91.64c2.89.93,5.88,1.89,8,4.36a.73.73,0,0,1-.55,1.2Z"/><path class="cls-22" d="M319.68,352.92h-.1A21.49,21.49,0,0,1,301.63,343a.72.72,0,0,1,.21-1,.71.71,0,0,1,1,.21,20.06,20.06,0,0,0,16.74,9.27h.09a18.44,18.44,0,0,0,15.64-8.4.73.73,0,0,1,1.21.8A19.85,19.85,0,0,1,319.68,352.92Z"/><path class="cls-22" d="M307.55,304a.72.72,0,0,1-.38-1.34,7.83,7.83,0,0,1,6.1-.8.72.72,0,0,1-.46,1.37,6.55,6.55,0,0,0-4.89.67A.74.74,0,0,1,307.55,304Z"/><path class="cls-22" d="M326.77,303.74a.86.86,0,0,1-.27-.05,6.52,6.52,0,0,0-4.38-.34.72.72,0,0,1-.88-.53.73.73,0,0,1,.53-.88,8,8,0,0,1,5.27.4.72.72,0,0,1,.4.94A.71.71,0,0,1,326.77,303.74Z"/><path class="cls-22" d="M317.36,288.42h-.09a.72.72,0,0,1-.63-.81,15.26,15.26,0,0,0-1.08-8.53.73.73,0,1,1,1.33-.59,16.69,16.69,0,0,1,1.19,9.3A.73.73,0,0,1,317.36,288.42Z"/><path class="cls-22" d="M298.93,339.69a5.05,5.05,0,0,1-1.82-.45,3.56,3.56,0,0,1-1.9-2.14l0-.09c-1.31.42-3.35-.45-4.12-1-3.57-2.53-3.14-5.25-2.73-7.88a21.27,21.27,0,0,0,.28-2.57,12.16,12.16,0,0,0-1.28-.44,7,7,0,0,1-.68-.23,5.11,5.11,0,0,1-2.92-4,10.16,10.16,0,0,1,1.34-5.58,4,4,0,0,1,.65-.84c.27-.3.64-.72.64-.95-.06-.07-.51-.38-.7-.51a3.43,3.43,0,0,1-.47-.36,6,6,0,0,1-1.47-4.45c.14-2.34,1.46-4,2.62-5.44a8.42,8.42,0,0,0,2-3.57c.07-.4-.16-.78-.54-1.37a3.81,3.81,0,0,1-.85-2.75c.36-2.32,1.72-3.69,3-5a17,17,0,0,0,1.74-2,3.5,3.5,0,0,0,.07-2.11,6.14,6.14,0,0,1,.09-3c2.84-7.29,11.54-9.21,14.13-9.62,2-.32,4.44-.71,6.53.6a.73.73,0,0,1-.77,1.23c-1.63-1-3.7-.69-5.53-.4-5,.79-11,3.49-13,8.72a4.89,4.89,0,0,0,0,2.29A4.3,4.3,0,0,1,293,289a17.91,17.91,0,0,1-1.89,2.13c-1.26,1.27-2.35,2.37-2.63,4.22a2.54,2.54,0,0,0,.62,1.74,3.25,3.25,0,0,1,.76,2.42,9.71,9.71,0,0,1-2.34,4.22c-1.12,1.4-2.19,2.73-2.3,4.61a4.57,4.57,0,0,0,1.05,3.34,2.74,2.74,0,0,0,.26.2c.56.38,1.33.91,1.33,1.7a3,3,0,0,1-1,1.92,3.66,3.66,0,0,0-.45.56,8.84,8.84,0,0,0-1.17,4.72,3.63,3.63,0,0,0,2.1,2.82l.48.15c1.35.41,2.32.7,2.32,1.51a20.1,20.1,0,0,1-.31,3.11c-.41,2.59-.7,4.46,2.14,6.47a5.06,5.06,0,0,0,2.68.83s0,0,0-.06c.08-.28.27-1,1-1a.92.92,0,0,1,.7.31,1.5,1.5,0,0,1,.24,1.24,2.15,2.15,0,0,0,0,.42c.34.77.58,1.14,1.11,1.35,1.38.57,1.47.46,2.09-.27.19-.21.39-.45.64-.7s.68-.25,1.82.2c.33.13.81.32.94.35a.75.75,0,0,1,.58.84.7.7,0,0,1-.78.6,6.9,6.9,0,0,1-1.27-.44l-.55-.22-.27.31A2.43,2.43,0,0,1,298.93,339.69Z"/><path class="cls-22" d="M337.39,339a4.12,4.12,0,0,1-3-1.08.74.74,0,0,1,0-1,.72.72,0,0,1,1,0,3,3,0,0,0,2.42.63,4.76,4.76,0,0,0,3.2-1.57c0-.07-.06-.18-.08-.26a1.46,1.46,0,0,1,.27-1.73,3.7,3.7,0,0,1,2.4-.6c1.16,0,1.89-.1,2.34-.85.26-.42.14-.7-.22-1.32a2,2,0,0,1-.31-2,.73.73,0,0,1,.46-.38l2.16-.6a4.66,4.66,0,0,0,1.37-1.58,2.58,2.58,0,0,0-.46-1.89,2.94,2.94,0,0,1-.39-2.71,3.2,3.2,0,0,1,1.35-1.27c.61-.37,1-.61,1.11-1.22a3.56,3.56,0,0,0-.72-2.79,5.36,5.36,0,0,1-.93-2.69,2.84,2.84,0,0,1,.89-1.93,2.1,2.1,0,0,0,.51-.77c.57-2.12-.54-3.77-1.71-5.52l-.2-.3c-.51-.75.2-1.54.78-2.18a4.18,4.18,0,0,0,.4-.48,6.73,6.73,0,0,0-.56-3.18l-.08-.23a5.12,5.12,0,0,0-1.19-1.7,5.82,5.82,0,0,1-1.45-2.23,10,10,0,0,1-.31-2.11,6.4,6.4,0,0,0-.52-2.53,5.38,5.38,0,0,0-1.06-1.22,4.94,4.94,0,0,1-1.51-2.07,21.06,21.06,0,0,1-.38-2.12,9.81,9.81,0,0,0-.93-3.49,3.62,3.62,0,0,0-2-1.43,5.84,5.84,0,0,1-2-1.17,3,3,0,0,1-.53-1.72,4.54,4.54,0,0,0-.2-1.06c-.87-1.43-2-1.38-3.92-1.17a7.72,7.72,0,0,1-2.67,0c-.74-.19-1.18-.95-1.61-1.69a4.26,4.26,0,0,0-.75-1c-1.75-1.16-5.16-1.49-7.95-.75a5.57,5.57,0,0,0-3.69,2.48.73.73,0,0,1-1.3-.65,6.82,6.82,0,0,1,4.62-3.23c3.19-.85,7-.45,9.12.94a4.45,4.45,0,0,1,1.2,1.53,3.61,3.61,0,0,0,.72,1,6.51,6.51,0,0,0,2.15,0c1.75-.19,3.93-.44,5.32,1.87a4.33,4.33,0,0,1,.4,1.62,4.21,4.21,0,0,0,.17.93,4.66,4.66,0,0,0,1.48.8,4.86,4.86,0,0,1,2.73,2.07,11,11,0,0,1,1.11,4,17.41,17.41,0,0,0,.34,2,4.2,4.2,0,0,0,1.12,1.39,6.12,6.12,0,0,1,1.34,1.61,7.54,7.54,0,0,1,.68,3.08,8.78,8.78,0,0,0,.25,1.81,4.64,4.64,0,0,0,1.14,1.65,6.53,6.53,0,0,1,1.49,2.22l.08.22a7.55,7.55,0,0,1,.56,4.1,3,3,0,0,1-.71,1,7.64,7.64,0,0,0-.51.6l.06.09c1.24,1.85,2.65,3.95,1.91,6.7a3.33,3.33,0,0,1-.82,1.36c-.34.39-.53.63-.53,1a4.08,4.08,0,0,0,.74,2,4.89,4.89,0,0,1,.87,3.87,3.35,3.35,0,0,1-1.77,2.11,2,2,0,0,0-.8.67c-.15.3,0,.74.39,1.42a3.78,3.78,0,0,1,.53,3,5.85,5.85,0,0,1-2.08,2.4h0c-.18.08-.6.2-1.93.57a4.24,4.24,0,0,0,.22.41,2.53,2.53,0,0,1,.21,2.8c-.89,1.48-2.43,1.52-3.56,1.55a3.45,3.45,0,0,0-1.4.19l.07.23a1.55,1.55,0,0,1,0,1.45A6,6,0,0,1,338,339Z"/><path class="cls-22" d="M298.23,307.47a.71.71,0,0,1-.59-.3.72.72,0,0,1,.17-1,9.78,9.78,0,0,1,2-1,5.93,5.93,0,0,0,2.35-1.35s-.1-.17-.13-.28a1.07,1.07,0,0,1,.13-1.17,2.82,2.82,0,0,1,1.34-.66c.54-.15.72-.23.79-.42h0a1.05,1.05,0,0,1,0-.2,1.38,1.38,0,0,1,.53-1.51,4.68,4.68,0,0,1,1.68-.53,2.42,2.42,0,0,0,1.6-.67,2.77,2.77,0,0,0,.49-1.24,4.33,4.33,0,0,1,.61-1.57,2.92,2.92,0,0,1,2.31-.89,5,5,0,0,0,.9-.14,6.09,6.09,0,0,0,3.45-3.39.72.72,0,0,1,1.29.65,7.48,7.48,0,0,1-4.23,4.1,4.88,4.88,0,0,1-1.28.22c-.4,0-1.13.11-1.25.28a3.06,3.06,0,0,0-.38,1.07,4.09,4.09,0,0,1-.82,1.87,3.8,3.8,0,0,1-2.44,1.14,4,4,0,0,0-1,.27c0,.05,0,.1,0,.14a1.79,1.79,0,0,1,0,.91,2.27,2.27,0,0,1-1.76,1.31l-.44.13a1.6,1.6,0,0,1-.08,1.39,6.47,6.47,0,0,1-3,1.88,9.37,9.37,0,0,0-1.67.8A.72.72,0,0,1,298.23,307.47Z"/><path class="cls-22" d="M297,317.83a.76.76,0,0,1-.55-.25.74.74,0,0,1,.08-1c.42-.36.86-.72,1.31-1.08a23.6,23.6,0,0,0,3.69-3.48.91.91,0,0,1-.64-1,4.22,4.22,0,0,1,1.27-1.88,5.85,5.85,0,0,0,1.23-1.64.73.73,0,0,1,1.41.35,6.18,6.18,0,0,1-1.57,2.27c-.21.22-.47.51-.66.75a1.06,1.06,0,0,1,.6.61,1.4,1.4,0,0,1-.31,1.23,23.59,23.59,0,0,1-4.1,3.94l-1.29,1.06A.69.69,0,0,1,297,317.83Z"/><path class="cls-22" d="M337.92,306.9a.67.67,0,0,1-.33-.08c-.7-.35-1.45-.67-2.2-1a25.72,25.72,0,0,1-3.21-1.54,2,2,0,0,1-.77-.92,1,1,0,0,0-.22-.34,3.2,3.2,0,0,0-1-.36,3.67,3.67,0,0,1-1.86-.88,3.24,3.24,0,0,1-.74-2.33c0-.68-.05-1.11-.35-1.36a2.44,2.44,0,0,0-1.38-.16,3.87,3.87,0,0,1-2.75-.6,5,5,0,0,1-1.28-2.5c-.23-.75-.51-1.69-.9-1.82-.23-.08-.65.07-1.18.42a.71.71,0,0,1-1-.2.71.71,0,0,1,.2-1,2.75,2.75,0,0,1,2.47-.59c1.07.38,1.44,1.6,1.8,2.77a4.36,4.36,0,0,0,.8,1.78,2.62,2.62,0,0,0,1.78.29,3.36,3.36,0,0,1,2.34.48,3,3,0,0,1,.9,2.45c0,.66.06,1.08.31,1.34a2.55,2.55,0,0,0,1.19.5,4.36,4.36,0,0,1,1.48.56,2.08,2.08,0,0,1,.71.9c.1.18.15.29.22.33a24.46,24.46,0,0,0,3,1.44c.78.33,1.56.66,2.29,1a.72.72,0,0,1-.32,1.37Z"/><path class="cls-22" d="M342,314.85h-.05c-1.51,0-3.85-1.87-4.27-2.34a3.16,3.16,0,0,1-.57-1.18,2.66,2.66,0,0,0-.27-.68,1.18,1.18,0,0,0-.66,0,2.91,2.91,0,0,1-2.19-.49,2.19,2.19,0,0,1-1.26-2.13c0-.13,0-.27,0-.43a.72.72,0,1,1,1.44-.13c0,.18,0,.34,0,.48,0,.61,0,.63.59,1a1.51,1.51,0,0,0,1.23.27,2.46,2.46,0,0,1,1.46.16,2.24,2.24,0,0,1,1,1.55,2.83,2.83,0,0,0,.25.63c.63.69,2.79,2,3.31,1.86a.71.71,0,0,1,1,0,.74.74,0,0,1,0,1A1.38,1.38,0,0,1,342,314.85Z"/><path class="cls-22" d="M246.58,353.67h0a.71.71,0,0,1-.71-.73l2.39-247.85a.73.73,0,0,1,1.45,0L247.31,353A.73.73,0,0,1,246.58,353.67Z"/><path class="cls-22" d="M387.81,353.67a.72.72,0,0,1-.72-.72l-.24-247.81a.73.73,0,0,1,.72-.73h0a.73.73,0,0,1,.73.73l.24,247.8a.73.73,0,0,1-.73.73Z"/><path class="cls-22" d="M110.85,190a.73.73,0,1,1,0-1.45l414.36-1.67h0a.73.73,0,1,1,0,1.45L110.85,190Z"/><path class="cls-22" d="M526.17,271.47h0l-414.4-.72a.73.73,0,0,1-.72-.73.72.72,0,0,1,.72-.72h0l414.4.72a.73.73,0,0,1,.73.72A.73.73,0,0,1,526.17,271.47Z"/><path class="cls-22" d="M526.17,356.3h0l-415.56-1.91a.72.72,0,0,1-.72-.73.67.67,0,0,1,.72-.72l415.56,1.91a.73.73,0,1,1,0,1.45Z"/><path class="cls-22" d="M527.37,369H110.61a.72.72,0,0,1-.72-.72V103.71a.73.73,0,0,1,.72-.73H527.37a.73.73,0,0,1,.72.73V368.24A.72.72,0,0,1,527.37,369Zm-416-1.45h415.3V104.43H111.34Z"/><path class="cls-22" d="M301.52,324.92a2.83,2.83,0,0,1-.95-.16,3.33,3.33,0,0,1-2.09-2.51c-.61-2.51-.06-6.44,1.91-8.41a.73.73,0,0,1,1,1c-1.54,1.54-2,4.94-1.53,7a1.91,1.91,0,0,0,1.15,1.48,1.94,1.94,0,0,0,1.82-.45.72.72,0,1,1,.9,1.13A3.57,3.57,0,0,1,301.52,324.92Z"/><path class="cls-22" d="M334.87,326.22a4.7,4.7,0,0,1-1.06-.13.73.73,0,0,1-.52-.88.72.72,0,0,1,.88-.53,1.63,1.63,0,0,0,1.75-.31c1.4-1.44.84-6.28.22-8.55a1.35,1.35,0,0,0-.27-.38,3.47,3.47,0,0,1-.3-.37.73.73,0,0,1,.18-1,.72.72,0,0,1,1,.18,2.52,2.52,0,0,0,.21.25,2.5,2.5,0,0,1,.57.95c0,.07,1.91,7.39-.59,9.94A2.8,2.8,0,0,1,334.87,326.22Z"/><path class="cls-22" d="M548.61,391.7H88.84a3.15,3.15,0,0,1-3.14-3.14V84.47a3.15,3.15,0,0,1,3.14-3.14H548.61a3.15,3.15,0,0,1,3.15,3.14V388.56A3.15,3.15,0,0,1,548.61,391.7ZM88.84,82.78a1.69,1.69,0,0,0-1.69,1.69V388.56a1.69,1.69,0,0,0,1.69,1.69H548.61a1.7,1.7,0,0,0,1.7-1.69V84.47a1.7,1.7,0,0,0-1.7-1.69Z"/><path class="cls-22" d="M593.29,418.53h0L35.8,417.47a.69.69,0,0,1-.34-.09c-7.91-4.12-16.53-22.83-16.89-23.62a.67.67,0,0,1-.07-.31,3.15,3.15,0,0,1,3.14-3.14H609.36a3.15,3.15,0,0,1,3.14,3.14.69.69,0,0,1-.15.44l-18.48,24.36A.72.72,0,0,1,593.29,418.53ZM36,416l556.95,1.06L611,393.23a1.69,1.69,0,0,0-1.67-1.47H21.64A1.69,1.69,0,0,0,20,393.31C20.8,395.12,28.91,412.14,36,416Zm575.8-22.57h0Z"/><path class="cls-22" d="M329.69,102.49a9.63,9.63,0,1,1,9.62-9.63A9.64,9.64,0,0,1,329.69,102.49Zm0-17.81a8.18,8.18,0,1,0,8.17,8.18A8.19,8.19,0,0,0,329.69,84.68Z"/><path class="cls-1" d="M325.05,92.86a4.64,4.64,0,1,1,4.64,4.64A4.64,4.64,0,0,1,325.05,92.86Z"/><path class="cls-22" d="M329.69,98.23a5.37,5.37,0,1,1,5.36-5.37A5.37,5.37,0,0,1,329.69,98.23Zm0-9.29a3.92,3.92,0,1,0,3.91,3.92A3.92,3.92,0,0,0,329.69,88.94Z"/><path class="cls-24" d="M27.16,407.53l574.34-.59-8.13,11-557-1.06C31.87,416.1,27.16,407.53,27.16,407.53Z"/><path class="cls-22" d="M593.37,418.67h0l-557-1.06h-.12c-4.81-.83-9.55-9.36-9.75-9.72a.74.74,0,0,1,0-.72.75.75,0,0,1,.63-.36l574.34-.59h0a.72.72,0,0,1,.58,1.16l-8.12,11A.72.72,0,0,1,593.37,418.67ZM36.46,416.16,593,417.22l7-9.56-571.64.59C30.09,411,33.49,415.6,36.46,416.16Z"/><path class="cls-24" d="M246.08,391.06H389s.55,3.76-.84,5.48-4.73,1.4-4.73,1.4H251s-3.23-.35-4.46-2.07S246.08,391.06,246.08,391.06Z"/><path class="cls-22" d="M384.07,398.69c-.39,0-.65,0-.69,0H251c-.22,0-3.65-.41-5-2.37s-.62-5.26-.59-5.4a.74.74,0,0,1,.71-.55H389a.73.73,0,0,1,.72.62c.06.41.55,4.12-1,6C387.53,398.48,385.23,398.69,384.07,398.69Zm-.62-1.48c.89.08,3.23,0,4.16-1.13.82-1,.85-3.07.76-4.29H246.68a5.47,5.47,0,0,0,.45,3.65c.86,1.2,3.15,1.69,4,1.78Z"/><path class="cls-3" d="M327.72,92.86a2,2,0,1,1,2,2A2,2,0,0,1,327.72,92.86Z"/></g></svg>