<svg id="layer" xmlns="http://www.w3.org/2000/svg" viewBox="0 0 631 500"><defs><style>.cls-1{fill:#f7f7f7;}.cls-1,.cls-10,.cls-11,.cls-12,.cls-2,.cls-3,.cls-4,.cls-5,.cls-6,.cls-7,.cls-9{fill-rule:evenodd;}.cls-2{fill:#d8ebd7;}.cls-3{fill:#fee3c6;}.cls-4{fill:#feede5;}.cls-5{fill:#837fcb;}.cls-6{fill:#fff;}.cls-7{fill:#bfc9e4;}.cls-10,.cls-8{fill:#463b39;}.cls-9{fill:#d8d6d7;}.cls-11{fill:#f3877d;}.cls-12{fill:#fff6c0;}</style></defs><g id="Ñëîé_5" data-name="Ñëîé 5"><path class="cls-1" d="M21.93,26.1H338a6.87,6.87,0,0,1,6.64,7.09V236.82a6.88,6.88,0,0,1-6.64,7.09H21.93a6.88,6.88,0,0,1-6.64-7.09V33.19A6.87,6.87,0,0,1,21.93,26.1Z"/><path class="cls-2" d="M25.2,39.62H334.77a6.49,6.49,0,0,1,6.51,6.48V232.38a6.49,6.49,0,0,1-6.51,6.48H25.2a6.49,6.49,0,0,1-6.51-6.48V46.1A6.49,6.49,0,0,1,25.2,39.62Z"/><path class="cls-1" d="M292.49,256H608.6a6.87,6.87,0,0,1,6.64,7.08v203.5a6.87,6.87,0,0,1-6.64,7.08H292.49a6.87,6.87,0,0,1-6.64-7.08V263.09A6.87,6.87,0,0,1,292.49,256Z"/><path class="cls-3" d="M295.76,269.53H605.33a6.51,6.51,0,0,1,6.51,6.49V462.29a6.5,6.5,0,0,1-6.51,6.48H295.76a6.49,6.49,0,0,1-6.51-6.48V276A6.5,6.5,0,0,1,295.76,269.53Z"/></g><g id="Ñëîé_4" data-name="Ñëîé 4"><path class="cls-4" d="M151.62,104c-1.12-2-.74-2.07-1.43-3.09a43.23,43.23,0,0,1-6.48-13.08c-2.39-8.86.28-19.18,5.45-26.48,1.93-2.72,4.68-3.58,7.58-4.85,6.81-3,16.74-3.63,23.51.48,7.54,4.6,9.82,13.28,10.6,21.52a34.41,34.41,0,0,1,.49,5.08c-.2,3.64-1.53,7.21-1.88,10.85-.54,5.59-.57,11.2-1.21,16.79-.88,7.57-1.23,20-10.91,21.57-4.76.79-8.07-2.83-10.79-6.18-4-5-7.94-10-11.45-15.39C153.91,109.34,152.74,106,151.62,104Z"/><path class="cls-4" d="M158.85,280.64c-.35-1.47,2-2.66,2.82-4,1.39-2.2,3.75-3.5,4.71-5.93.47-1.17,1.05-3.44,2.27-4.15,1.77-1,6.12,1.84,7.85,2.34,4,1.16,8.36,1.78,12.14,3.73,2.7,1.4,4.81,3.69,7.46,5.06,1.69.87,5,1,5.22,3.51.1,1.19-2.26,1.36-2.84,1.33-3.42-.22-6.23-1.46-9.41-2.52-.49-.16-2.88-.79-3,.12-.12,1.18,3,3.92,3.69,4.75,1.67,1.95,2.74,4.3,4.81,5.9,3.09,2.4,6.75,3.13,10,5.17,1.06.66,4.52,4.54,2.94,6.07-2,2-6.26-.08-8.8,1.23-2.11,1.08-5.61,1.44-7.9,1.93-5,1.08-9.34,1.39-12.85-1-6-4-10.05-10.44-13.84-16.14C162.36,285.38,159.59,283.71,158.85,280.64Z"/><path class="cls-4" d="M141.5,235.72c-2.42-.4-4.54-3.86-3.69-6.12.79-2.09,3.32-3.75,4.81-5.34.86-.94,2.47-3.45,3.23-4.46,4.72-6.28,10.87-4.65,17.94-5,2.4-.11,4.83-.3,7.22-.49.63,0,1.48-.33,1.92.29,1.1,1.53,1.42,4.19,1.86,6,.51,2.12,1.8,4.51,1.38,6.76-.77,4-6.27,2.87-9.11,3-1.91,0-3.06.3-5.13.52a21,21,0,0,0-4.84.92c-4.36,1.53-7.55,4.29-12.34,4.35-.53,0-4.22-.27-4.46-.81Z"/><path class="cls-4" d="M419.68,277.12c2.27-6.51,8.63-13.35,15.82-13.08a19.55,19.55,0,0,1,14.14,7c2.1,2.47,3,5.89,3.88,8.91,1.72,5.69,2.84,11.53,4.74,17.16a122.78,122.78,0,0,0,7.29,17.69c1.51,2.87,4.19,5.67,4.73,9,.75,4.63-1.37,9.14-3.25,13.24-4.09,8.92-8.79,18.71-18.69,22.18-5.47,1.91-16.44,3.3-20.29-2.85-2.28-3.65-.79-10.12-.6-14.18a27.83,27.83,0,0,1,.29-5.16c.61-2.72,2.65-4.08,2.28-7-.45-3.58-2.54-2.41-4.94-3.64-1.35-.68-3.92-4-4.7-5.24-6.39-10.24-6.77-23.13-4.17-34.59C416.88,283.56,418.63,280.13,419.68,277.12Z"/><path class="cls-5" d="M144.62,90.34c-.12.38-.17.09-.72-.57a36.61,36.61,0,0,1-3-4.38c-3.81-6.14-7.82-12.44-9-19.72a31.56,31.56,0,0,1,.38-12.84C135,42.85,146.8,33,156.14,29c5.26-2.26,5.86-1.11,11.34-.61.8.07,3.57.92,4.38,1a17,17,0,0,1,6.65,2.5c2.94,1.68,4.85,4.06,7,6.65,3.37,4.15,4.3,8.23,6.65,12.54s2.12,6.24,2.19,7.63c.13,2.76.15,4.19.15,7a59.19,59.19,0,0,1-.76,10.65,7.88,7.88,0,0,1-1.43,3.33c-.19.24-.38.65-.68.6-2.05-.34-1-4.39-1.51-5.81-1.36-3.66-7-6.76-10.51-8.69a12.87,12.87,0,0,0-6.19-1.67c-1.65-.13-3.25-.62-4.91-.68a45.39,45.39,0,0,0-8.31.84c-2.84.41-5.11.53-7.71,1.88-1.29.67-2.69,1-3.7,2.12-2.16,2.34-.59,5.76-1.06,8.61-.37,2.19-2.22,4.12-3.1,6.12-.77,1.76,0,4,.15,5.82A3.17,3.17,0,0,1,144.62,90.34Z"/><path class="cls-6" d="M431.63,388.71c-1,.41-.59-.06-.71-1.65-.17-2.23-.15-4.46-.31-6.68-.44-6.11-.87-12.19-.87-18.32,0-1.22-.6-4.55.08-5.58.58-.87,3.72,1.77,4.32,2a29.15,29.15,0,0,0,7.71,1.18c2.49.13,4.94-.95,7.15-2,.22-.1,2.6-1.49,2.83-1.1.9,1.5-2.19,5.44-2.75,6.29-2.88,4.37-5.67,8.78-8.33,13.28C438.25,380.35,436.09,386.81,431.63,388.71Z"/><path class="cls-6" d="M191.94,92.47a3.5,3.5,0,0,0-2.55.69c-1.78,1.3-2.34,9.4-2.66,10.94-.91,4.3-.1,6.14-1.58,10.26-1.22,3.4-4.27,14.65-9,14.86-2.83.12-4.23-4.07-6.34-5.65-5.47-4.1-10.34-6.27-14.22-11.92a82.86,82.86,0,0,1-5-8.72c-.36-.76-1.49-5.13-2.54-5.25-2.19-.24-6,4.11-7.88,5-5,2.32-8.09,4.58-12.8,7.51-5.09,3.16-10.21,4.4-14.58,8.64-8.81,8.56-11,23.71-14.78,37.72-2.91,10.91-5.9,31.71-5.33,43.13.59,11.73,0,14.89,6.1,24.72,8.8,14.15,24.19,31.79,38,41.27,5.36,3.66,10.83,8.07,16.28,11.59,1.36.88,4.2,4.14,5.29,3,1.34-1.37,4.2-3.64,5.05-5.29,2.73-5.35,5.57-4.87,3.83-9.21-.73-1.84-4.95-4.32-6.34-5.57-3-2.7-7.46-7.75-10.17-10.71-6.16-6.68-7.71-10.46-13.57-17.4-8.14-9.63-15.29-18.64-13.82-31.94.45-4,.21-10.82,3.11-14.3,2.26-2.71,2.75,5,2.87,6,.72,5.74,1.58,11.41,2.1,17.16.21,2.3.22,5.06,2.14,6.7,2.29,2,6.51.47,9.21.24,5.55-.46,9.91-.1,14-.84s13.56-.24,15.55-.49,2.64,8.42,3.23,11.79c.2,1.13.35,3.63,1.82,4.25,1.66.69,5.69-.94,7.31-1.09,7-.67,11.18-2.44,19.42-3.28a357.42,357.42,0,0,0,44.47-8.64c9.48-2.63,16.32-5.8,20.19-13.37,2.45-4.79,1.19-8.63.52-14.49a231.12,231.12,0,0,0-4.8-27.91c-2.06-7.93-4.79-16-7-23.95-3.06-11-6.32-21.47-15.95-28.79-9-6.85-21.74-9.84-32.59-12.08-1.64-.33-10.33-.92-13.37-3A8.32,8.32,0,0,0,191.94,92.47Zm39.13,70.92c.58,0,1.45,3,2.34,5.77,1.19,3.75,5.14,21,5.53,23.18s-.21,2.65-2.38,2.95-9.13,2.22-9.13,2.22,2.71-29.79,3.15-32.95C230.7,163.77,230.88,163.4,231.07,163.39Z"/><path class="cls-6" d="M286.82,321.07c2.64,17.71,4.07,35.41,4.07,35.41a79.9,79.9,0,0,1-27.51,11.06c-16.63,3.4-43.44,2.74-43.44,2.74s-1.41-19.55-4.11-40c-.41-3.05-2.31-3.32-3-6.53-3.74-18.31-19.43-55.45-19.43-55.45l9.13-1.05,1-2.57s13.89.18,24.16-2c4.17-.87,30.5-14.58,30.5-14.58l2.49,6.53,9.37-3.53a299.77,299.77,0,0,1,12.22,43.69Z"/><path class="cls-4" d="M292.91,354.81c.48.16-.5-.2-.87-.54a4.84,4.84,0,0,1-1.14-2.61,61.58,61.58,0,0,1-1.07-8.45,181.06,181.06,0,0,0-2.48-19.57c-.41-2.17-.2-4.5-.74-6.64-.79-3.16-4.4-4.6-5.29-8a23.49,23.49,0,0,1-1.07-8.18,10.78,10.78,0,0,1,1.2-3.35c.52-.72,1.77,1.82,1.95,2.08,1.36,2,2.46,4.16,3.82,6.16a28.47,28.47,0,0,0,6.36,6.37c1.77,1.35,3.83,2.41,5,4.36,2.5,4,3.27,9.54,3.49,14.14.1,2.19-.65,4.55-.27,6.7.18,1,.73,2.4.27,3.42-1,2.16-3.27,3.74-4.43,5.9-1.06,2-2.61,3.35-3.62,5.57S292.16,354.55,292.91,354.81Z"/><path class="cls-7" d="M351.31,378.46c3.11-2.3,19.65-12,23.34-14.95s9.17-6.07,11.39-8.86a35.19,35.19,0,0,1,11.38-9.2,91.86,91.86,0,0,1,14.49-5.52c4.51-1.23,3.62,1.55,6.67-.57s5.09-3.82,7.82-5.06,2.63-.23,2.68,2.71.87,15.14.77,20.71.63,21.08.75,26.33,0,6.82,1.47,3.81a191.59,191.59,0,0,1,9.8-16.63c2.52-3.54,5.38-8.89,8.32-12.78s5.57-7.23,8.31-11.42,4.4-5,5.51-8.33,11.21-3,14.23-1.85a68.67,68.67,0,0,1,14.27,7.2c5.76,3.9,7.79,2.14,11.8,6.83s5.56,4.79,8.06,11,3.78,12.41,5.3,19.95A173.11,173.11,0,0,1,521.2,407c.67,10.43,1,15.26,1.47,23.19s1.15,9.91,2.5,18.32,2.43,13.87,3.31,16.46,1.86,5.26,1.86,5.26l-30-.51s-.55-6-1.35-10.42-3.09-17.35-3.22-21.67S494,424.27,493.59,419s-1-12.91-1.89-9.47-1.62,4.4-3,7.84-5.57,16.44-7.36,22.09-6.27,20.34-6.94,23.78S473,470.1,473,470.1l-83.21-.22s2.82-13.39,3.85-19.11,3.16-14.64,2.88-18.62-2.11-11.31-2.78-15.42S392,405,392.32,400.07s1.31-11.91-1.21-9.72-7.3,3.44-10.55,5.58-11.18,5.32-15.39,6.7-12.09,3.77-17,4.47c-5.21.75-7.68.46-9.8-.62a62,62,0,0,1-8.62-5.33c-7.45-5.93-16.42-17-23.46-25.57-7.64-9.25-13.07-15.75-13.6-17.5-.66-2.21,1.66-8,4.56-11.76,2.22-2.85,4.26-4.38,5-5.87.95-1.9,5.63,8,14.87,16C330.61,368.18,349.46,379.82,351.31,378.46Z"/><path class="cls-5" d="M416.9,312.9c.14,1-1.9-1.28-2.42-2.09a25,25,0,0,1-3.18-10c-.29-7.58,2.9-15.94,5.21-23.09,3.58-11.09,12.4-22.26,24.78-25.49,5.14-1.35,8.4-1,13.65-.66a26.09,26.09,0,0,1,9.35,2.5c1.41.64,10,7.94,11.81,10.64,4.71,7.2,5.45,13.44,6.55,21.95.7,5.47.42,14.16,1.58,19.57,1.6,7.43,6.12,14.42,4.81,22.07-.79,4.57-5,6.51-8.05,9.18-2.87,2.49-4,4.31-4,7.91-.07,10.33,4.66,23.07,6.88,33,1.39,6.25,2.13,16.16-.45,22.54-1.6,3.93-21,19.84-21.75,27.8-.19,2-5.64-3.46-7.93-10.16s6-14,6.36-15.85c.79-4-2.39-12.54-3.63-14.81-2.71-4.93-5.28-9.91-5.67-15.46-.66-9.14,5.53-19.56,10.2-27.19,1.36-2.22,4.21-4.44,4.66-7.11.52-3.14-3.67-4.88-5.67-6.73a14.57,14.57,0,0,1-4.55-6.76c-2.08-7.18.64-21.65.23-24.59s-4.35-3.68-6.83-7.55c-1.38-2.14-3.19-6.62-4.37-8.87-2.2-4.18-3.38-9.2-7-12.49-4.87-4.38-11.76-1.13-14.15,4.17-1.52,3.36-1.78,7.31-2.72,10.86C418.37,294.58,415.61,304,416.9,312.9Z"/></g><g id="Ñëîé_2" data-name="Ñëîé 2"><path class="cls-8" d="M171.4,115.37c-8.45,0-19.53-7.12-27.86-24.24a1.16,1.16,0,1,1,2.09-1c8.88,18.23,20.69,24.49,28.46,22.61,8.79-2.13,14.32-13,16.44-32.16a1.16,1.16,0,0,1,2.31.25c-2.27,20.58-8.22,31.75-18.2,34.17A13.63,13.63,0,0,1,171.4,115.37Z"/><path class="cls-8" d="M172.57,100.89a1.16,1.16,0,0,1-.73-2.07,2.44,2.44,0,0,0,.88-1.38,7.28,7.28,0,0,0-.71-.66,4.62,4.62,0,0,1-1.21-1.32,8.25,8.25,0,0,1-.28-7.25,1.16,1.16,0,1,1,2.13.92,5.92,5.92,0,0,0,.21,5.25,4,4,0,0,0,.65.63A3.42,3.42,0,0,1,175,97.27a4.48,4.48,0,0,1-1.74,3.36A1.16,1.16,0,0,1,172.57,100.89Z"/><path class="cls-8" d="M154.43,67.16l-.19,0a1.17,1.17,0,0,1-1-1.34c.84-4.95,5.89-6.71,9.57-8l.27-.09a21.68,21.68,0,0,0,8.32-5.15,1.16,1.16,0,0,1,1.69,1.6,24.17,24.17,0,0,1-9.24,5.74l-.27.1c-3.31,1.15-7.44,2.59-8,6.19A1.17,1.17,0,0,1,154.43,67.16Z"/><path class="cls-8" d="M161.73,66a1.49,1.49,0,0,1-.36,0,1.19,1.19,0,0,1-.75-1.48c.72-2.24,4.1-2,6.12-1.86.3,0,.55,0,.73,0,1.08,0,2.25.11,3.49.21,4.36.36,9.31.77,11.68-2.47a1.16,1.16,0,0,1,1.87,1.37c-3.13,4.3-9,3.81-13.74,3.42-1.2-.1-2.33-.2-3.32-.21l-.88,0c-2.76-.2-3.56,0-3.74.26A1.16,1.16,0,0,1,161.73,66Z"/><path class="cls-8" d="M190.74,78.28a1.17,1.17,0,0,1-1.15-1c-.44-2.87-1.33-4.93-2.63-6.14a18,18,0,0,0-4.66-2.71,26.81,26.81,0,0,1-4-2.12,1.16,1.16,0,1,1,1.31-1.92,26.2,26.2,0,0,0,3.67,1.93,19.58,19.58,0,0,1,5.28,3.12c1.71,1.59,2.81,4,3.34,7.48a1.16,1.16,0,0,1-1,1.33Z"/><path class="cls-8" d="M149.9,63.57a1.15,1.15,0,0,1-1-.57c-2.81-4.75-2.85-10.64-.09-16.59a1.16,1.16,0,1,1,2.11,1c-2.42,5.24-2.43,10.37,0,14.44a1.15,1.15,0,0,1-.41,1.59A1.14,1.14,0,0,1,149.9,63.57Z"/><path class="cls-8" d="M137.22,80.16a1.18,1.18,0,0,1-1-.55c-10.4-17-7.64-32.87,7.58-43.7a1.17,1.17,0,0,1,1.35,1.9c-14.3,10.17-16.77,24.58-6.94,40.58a1.17,1.17,0,0,1-.39,1.6A1.12,1.12,0,0,1,137.22,80.16Z"/><path class="cls-8" d="M149.7,34.49a1.16,1.16,0,0,1-.83-2c4.24-4.36,9.53-6.14,16.63-5.63a21.57,21.57,0,0,1,4.05.83c2.3.62,4.46,1.22,6.46.37a1.16,1.16,0,1,1,.91,2.14c-2.74,1.16-5.52.4-8-.27a19.71,19.71,0,0,0-3.61-.75c-6.46-.47-11,1.05-14.8,4.93A1.14,1.14,0,0,1,149.7,34.49Z"/><path class="cls-8" d="M177.89,34.41a1.17,1.17,0,0,1-.27-2.3c1.53-.37,2.28-.63,3-1.59a1.16,1.16,0,1,1,1.88,1.37,6.52,6.52,0,0,1-4.31,2.48A1,1,0,0,1,177.89,34.41Z"/><path class="cls-8" d="M185.28,40.25l-.46,0a1.16,1.16,0,1,1,.21-2.32,3.72,3.72,0,0,0,2.29-.7l.52-.28A1.17,1.17,0,1,1,188.91,39l-.49.26A6.31,6.31,0,0,1,185.28,40.25Z"/><path class="cls-8" d="M195.16,74A1.17,1.17,0,0,1,194,73a73,73,0,0,1-.65-7.87c-.2-4.34-.39-8.45-1.82-12.49a25.12,25.12,0,0,0-2-3.89,19.06,19.06,0,0,1-2.64-6,1.16,1.16,0,0,1,2.3-.36,17.39,17.39,0,0,0,2.36,5.22,27.28,27.28,0,0,1,2.16,4.28c1.54,4.36,1.74,8.83,1.94,13.15a72,72,0,0,0,.63,7.62,1.17,1.17,0,0,1-1,1.33Z"/><path class="cls-8" d="M144.21,85.83a1.1,1.1,0,0,1-.35,0,1.17,1.17,0,0,1-.75-1.47A18.78,18.78,0,0,1,144.66,81a11.88,11.88,0,0,0,1.6-3.81,22.33,22.33,0,0,0,.12-4.11,18.87,18.87,0,0,1,.42-5.84,1.16,1.16,0,1,1,2.24.62A16.91,16.91,0,0,0,148.7,73a23.4,23.4,0,0,1-.15,4.56,13.57,13.57,0,0,1-1.86,4.57A16.39,16.39,0,0,0,145.32,85,1.17,1.17,0,0,1,144.21,85.83Z"/><path class="cls-8" d="M177.33,87a1.16,1.16,0,0,1-.18-2.31l.25,0c1.64-.25,3.68-.56,4.36-1.84a1.16,1.16,0,1,1,2.05,1.1c-1.22,2.3-4,2.73-6.05,3l-.25,0Z"/><path class="cls-8" d="M158,90.3a3.89,3.89,0,0,1-3.38-1.4,1.17,1.17,0,0,1,.27-1.62,1.18,1.18,0,0,1,1.63.27c.51.73,2.76.34,3.83.14l.64-.1a1.16,1.16,0,1,1,.36,2.29l-.59.1A15.64,15.64,0,0,1,158,90.3Z"/><path class="cls-8" d="M158.38,91.48h0a3.25,3.25,0,0,1-2.45-1.75,1.16,1.16,0,0,1,1.89-1.35,4.47,4.47,0,0,0,.54.66v0a1.15,1.15,0,0,1,1.62-.25,1.18,1.18,0,0,1,.26,1.63A2.28,2.28,0,0,1,158.38,91.48Z"/><path class="cls-8" d="M180.29,87.37a2.4,2.4,0,0,1-1.86-1,1.16,1.16,0,1,1,1.79-1.49l.07.08a1.38,1.38,0,0,0,.23-.35,1.16,1.16,0,1,1,2.11,1,2.77,2.77,0,0,1-2.07,1.72Z"/><path class="cls-8" d="M173.91,83.33a1.15,1.15,0,0,1-.76-.28,1.17,1.17,0,0,1-.12-1.64c1.92-2.24,6.24-4.74,9.36-4.74a1.17,1.17,0,0,1,0,2.33c-2.38,0-6,2.11-7.6,3.93A1.14,1.14,0,0,1,173.91,83.33Z"/><path class="cls-8" d="M153,86.09a1.16,1.16,0,0,1-.52-2.2c1.93-1,9-2.31,11.2-.08a1.16,1.16,0,0,1-1.64,1.65c-1.05-1-6.68-.41-8.52.51A1.17,1.17,0,0,1,153,86.09Z"/><path class="cls-8" d="M170.36,106.5a23.22,23.22,0,0,1-4.53-.54,1.16,1.16,0,0,1,.46-2.28c4.45.89,6.49.64,10.36-1.3a1.16,1.16,0,0,1,1,2.08A15.45,15.45,0,0,1,170.36,106.5Z"/><path class="cls-8" d="M258.33,142.32a1.17,1.17,0,0,1-1.12-.86l-.56-2.07c-1.5-5.52-3.55-13.09-6.63-18.45-7.4-12.94-18.6-17.75-34.28-21.33-2.7-.62-5.5-1-8.2-1.46-5.9-.9-12-1.83-17.57-4.81a1.16,1.16,0,1,1,1.1-2c5.22,2.79,10.86,3.65,16.82,4.56,2.74.42,5.58.85,8.37,1.49,16.29,3.72,28,8.77,35.78,22.44,3.23,5.63,5.32,13.36,6.85,19l.57,2.06a1.17,1.17,0,0,1-.82,1.43A1.06,1.06,0,0,1,258.33,142.32Z"/><path class="cls-8" d="M111.07,121.72a1.17,1.17,0,0,1-.85-2c5.27-5.59,12.11-8.89,18.72-12.09,6.24-3,12.7-6.13,17.72-11.16a1.18,1.18,0,0,1,1.65,0,1.16,1.16,0,0,1,0,1.64c-5.31,5.31-11.94,8.52-18.36,11.62-6.71,3.24-13.06,6.31-18,11.59A1.15,1.15,0,0,1,111.07,121.72Z"/><path class="cls-8" d="M227.68,198.9h-.14a1.16,1.16,0,0,1-1-1.3c1.07-8.54,3.4-37.69,3.4-45.56a1.17,1.17,0,0,1,2.33,0c0,8.41-2.46,38.12-3.43,45.85A1.16,1.16,0,0,1,227.68,198.9Z"/><path class="cls-8" d="M132.32,216a1.15,1.15,0,0,1-1.15-1.06c-1.93-20.9-7.36-51.15-9.85-57.62a1.17,1.17,0,0,1,2.18-.84c2.59,6.75,8,36.78,10,58.25a1.15,1.15,0,0,1-1,1.26Z"/><path class="cls-8" d="M429.51,334.74a1.41,1.41,0,0,1-.35-.05,1.18,1.18,0,0,1-.77-1.46,19.37,19.37,0,0,0,1-5.25,1.2,1.2,0,0,1,1.21-1.11,1.17,1.17,0,0,1,1.12,1.21,21.76,21.76,0,0,1-1.06,5.84A1.17,1.17,0,0,1,429.51,334.74Z"/><path class="cls-8" d="M423.32,414.25h-.13a1.16,1.16,0,0,1-1-1.28c1.8-16.15,19.06-43.81,27.94-56.17q1.51-2.1,3.09-4.19c3.35-4.5,6.81-9.15,9.2-14.16a1.17,1.17,0,0,1,2.1,1c-2.49,5.21-6,9.95-9.44,14.53-1,1.39-2.06,2.77-3.06,4.17-7,9.8-25.71,38.81-27.52,55.06A1.17,1.17,0,0,1,423.32,414.25Z"/><path class="cls-8" d="M430.91,390a1.16,1.16,0,0,1-1.16-1.17c0-9.19-.42-18.53-.82-27.57s-.82-18.45-.82-27.71a1.17,1.17,0,0,1,2.33,0c0,9.21.41,18.56.81,27.6s.82,18.44.82,27.68A1.16,1.16,0,0,1,430.91,390Z"/><path class="cls-8" d="M423.73,408.34a1.16,1.16,0,0,1-1.14-.93c-1.42-7.13-5.31-16.57-8.73-24.9-1.76-4.26-3.41-8.29-4.66-11.77-.38-1.08-.76-2.18-1.15-3.27-.75-2.16-1.53-4.4-2.35-6.55a5.8,5.8,0,0,0-.45-.82,3.74,3.74,0,0,1-.76-2.92c.36-1.44,1.69-2.31,3-3.14.83-.54,1.76-1.14,2-1.69,0-.37-.92-1-2.7-2-.44-.24-.82-.44-1.08-.61l-.22-.13c-.94-.51-1.74-1-1.93-1.78a1.37,1.37,0,0,1,.19-1.11c.51-.77,1.66-1.27,3.48-2a15.21,15.21,0,0,0,1.58-.69c2.41-1.42,4.81-3,7.12-4.52a111.6,111.6,0,0,1,11.22-6.76,1.16,1.16,0,0,1,1,2.08,112.2,112.2,0,0,0-11,6.62c-2.34,1.54-4.76,3.14-7.22,4.58a15.62,15.62,0,0,1-1.89.85c-.42.17-1.05.42-1.57.66l.07,0a4.54,4.54,0,0,1,.4.23c.21.14.52.3.88.49,1.77.94,4.73,2.51,3.77,4.89a6.65,6.65,0,0,1-2.87,2.78c-.87.56-1.86,1.2-2,1.76-.05.23.25.74.5,1.14a6.92,6.92,0,0,1,.63,1.21c.83,2.17,1.62,4.43,2.38,6.6.38,1.09.76,2.18,1.15,3.26,1.22,3.43,2.87,7.43,4.61,11.66,3.46,8.43,7.39,18,8.86,25.33a1.16,1.16,0,0,1-.91,1.37Z"/><path class="cls-8" d="M424.3,412.13a1.13,1.13,0,0,1-.69-.24,1.15,1.15,0,0,1-.24-1.62,148.86,148.86,0,0,1,27.79-28,1.16,1.16,0,1,1,1.44,1.82,147.34,147.34,0,0,0-27.37,27.6A1.13,1.13,0,0,1,424.3,412.13Z"/><path class="cls-8" d="M414.28,467.31a1.07,1.07,0,0,1-.25,0,1.16,1.16,0,0,1-.88-1.39c2.07-9.33,3.52-19.06,4.92-28.46,1.18-7.9,2.39-16.07,4-24a1.16,1.16,0,1,1,2.28.46c-1.57,7.85-2.78,16-3.95,23.86-1.41,9.45-2.86,19.22-4.95,28.63A1.17,1.17,0,0,1,414.28,467.31Z"/><path class="cls-8" d="M529.6,470.68a1.16,1.16,0,0,1-1.11-.83c-2.2-7.34-6.12-30.56-6.72-38.56-.32-4.19-.57-8.45-.82-12.57-.71-12.06-1.45-24.52-3.85-36.51l-.18-.87c-1.85-9.29-3.95-19.82-10.47-26.89-4.89-5.29-11.64-8.26-18.17-11.14-2.63-1.15-5.35-2.35-7.93-3.69a1.16,1.16,0,0,1,1.07-2.06c2.52,1.3,5.2,2.48,7.79,3.62,6.75,3,13.73,6,19,11.69,7,7.55,9.13,18.42,11.05,28l.17.86c2.43,12.15,3.17,24.7,3.9,36.83.24,4.11.49,8.37.81,12.53.58,7.72,4.51,31,6.63,38.07a1.17,1.17,0,0,1-.78,1.45A1.33,1.33,0,0,1,529.6,470.68Z"/><path class="cls-8" d="M500.44,468.69a1.16,1.16,0,0,1-1.15-1c-.47-3.3-1-7-1.65-11.07-2.57-16.88-5.76-37.88-5.76-51.79a1.17,1.17,0,0,1,2.33,0c0,13.73,3.17,34.64,5.73,51.45.61,4,1.18,7.78,1.65,11.08a1.17,1.17,0,0,1-1,1.32Z"/><path class="cls-8" d="M473,469.19l-.2,0a1.16,1.16,0,0,1-.95-1.34c2.45-13.87,18.24-59.67,19.94-63.08a1.16,1.16,0,1,1,2.08,1c-1.65,3.31-17.39,49.23-19.73,62.44A1.17,1.17,0,0,1,473,469.19Z"/><path class="cls-8" d="M390.23,469.19a.68.68,0,0,1-.2,0,1.15,1.15,0,0,1-.95-1.33c.35-2.11.93-5.07,1.61-8.48,2-10.28,4.8-24.35,4.32-30.61a89.81,89.81,0,0,0-1.72-10.81c-.51-2.56-1-5.21-1.4-7.87-1.34-9.82-.45-21,.19-26.85a1.16,1.16,0,0,1,1.29-1,1.17,1.17,0,0,1,1,1.29c-.63,5.7-1.5,16.71-.2,26.27.36,2.6.88,5.21,1.38,7.73a94.28,94.28,0,0,1,1.76,11.09c.5,6.58-2.31,20.83-4.36,31.24-.67,3.4-1.25,6.33-1.6,8.41A1.16,1.16,0,0,1,390.23,469.19Z"/><path class="cls-8" d="M440.92,360.75a19,19,0,0,1-10.45-2.87,1.16,1.16,0,0,1,1.29-1.94c4.69,3.13,12.19,3.34,17.84.52a1.16,1.16,0,0,1,1,2.08A22,22,0,0,1,440.92,360.75Z"/><path class="cls-8" d="M433.46,328.77a28,28,0,0,1-9.13-1.42c-4.29-1.59-11.9-17.61-7.56-29.35a1.16,1.16,0,0,1,2.18.81c-3.94,10.66,3.14,25.23,6.19,26.36,3.95,1.47,11.3,1.87,14.86.2a1.17,1.17,0,1,1,1,2.11A18.83,18.83,0,0,1,433.46,328.77Z"/><path class="cls-8" d="M419.39,288.68h-.09a1.16,1.16,0,0,1-1.07-1.24,24.15,24.15,0,0,1,2.58-9l.13-.29a1.17,1.17,0,1,1,2.11,1l-.14.29a22.22,22.22,0,0,0-2.36,8.18A1.17,1.17,0,0,1,419.39,288.68Z"/><path class="cls-8" d="M425.17,307.75a1.18,1.18,0,0,1-1-.63,6,6,0,0,0-.46-.74,4.73,4.73,0,0,1-1.11-3,3.29,3.29,0,0,1,1.22-1.95,3.79,3.79,0,0,0,.46-.49,7.72,7.72,0,0,0,1.05-4.92,1.16,1.16,0,1,1,2.29-.38,9.83,9.83,0,0,1-1.31,6.43,4.49,4.49,0,0,1-.87,1,4.57,4.57,0,0,0-.55.59,3.92,3.92,0,0,0,.75,1.39,10.91,10.91,0,0,1,.6,1,1.15,1.15,0,0,1-.5,1.56A1.12,1.12,0,0,1,425.17,307.75Z"/><path class="cls-8" d="M441.79,293.17a1.14,1.14,0,0,1-.61-.18,11.52,11.52,0,0,0-6.93-1.25,1.16,1.16,0,1,1-.32-2.3A13.93,13.93,0,0,1,442.4,291a1.17,1.17,0,0,1-.61,2.16Z"/><path class="cls-8" d="M425,290.19a1.16,1.16,0,0,1-.7-.24,8.66,8.66,0,0,0-3.7-1.64,1.18,1.18,0,0,1-1.07-1.26,1.15,1.15,0,0,1,1.26-1.06,10.9,10.9,0,0,1,4.92,2.11,1.16,1.16,0,0,1-.71,2.09Z"/><path class="cls-8" d="M427.5,316.58a9.89,9.89,0,0,1-5.67-1.55,1.16,1.16,0,0,1,1.34-1.9c2.39,1.67,6.64,1.34,9.37.06a1.16,1.16,0,1,1,1,2.1A14.66,14.66,0,0,1,427.5,316.58Z"/><path class="cls-8" d="M420.1,278.56a1.27,1.27,0,0,1-.47-.09,1.18,1.18,0,0,1-.6-1.54c1.92-4.35,3.51-7.39,8.05-9.85a1.16,1.16,0,1,1,1.11,2c-3.77,2-5.09,4.34-7,8.75A1.16,1.16,0,0,1,420.1,278.56Z"/><path class="cls-8" d="M431.9,266.11h-.17a1.18,1.18,0,0,1-1-1.33c1-6.5,9.84-9.4,14.1-10.79a1.16,1.16,0,0,1,1.47.74,1.18,1.18,0,0,1-.75,1.47c-3.82,1.25-11.76,3.85-12.51,8.93A1.18,1.18,0,0,1,431.9,266.11Z"/><path class="cls-8" d="M415.92,313.49a1.33,1.33,0,0,1-.28,0c-5.56-1.39-5.23-15.54-4.64-19.42,2.53-16.73,13.31-44.72,37.57-43.38a1.16,1.16,0,0,1,1.1,1.22,1.19,1.19,0,0,1-1.23,1.1c-22.63-1.23-32.73,25.45-35.14,41.41-.78,5.17-.08,16.07,2.9,16.81a1.16,1.16,0,0,1-.28,2.29Z"/><path class="cls-8" d="M455.19,299.13a1.16,1.16,0,0,1-.51-.12c-6.37-3.13-9.13-9.1-11.17-15.09-.24-.7-.47-1.41-.7-2.12-1.81-5.59-3.52-10.86-9.66-12.05a1.16,1.16,0,0,1,.44-2.28c7.49,1.45,9.5,7.63,11.44,13.61.22.7.45,1.4.68,2.09,2.17,6.37,4.7,11.15,10,13.76a1.16,1.16,0,0,1-.51,2.2Z"/><path class="cls-8" d="M480.17,338.69a1.16,1.16,0,0,1-.52-2.2c3.49-1.74,9.22-5.77,8.47-13.19a39.44,39.44,0,0,0-2.45-9.13,51.78,51.78,0,0,1-2.31-7.85,125.17,125.17,0,0,1-1.46-13.46c-.62-8.85-1.22-17.21-5.48-25.13-1.83-3.39-5.22-6.55-8.61-9.46s-9.54-7.16-15.27-5.24a1.16,1.16,0,0,1-1.47-.74,1.15,1.15,0,0,1,.73-1.47c6.82-2.27,13.9,2.58,17.52,5.68s7.14,6.4,9.15,10.12c4.5,8.37,5.14,17.37,5.75,26.08a121.25,121.25,0,0,0,1.43,13.2,47.9,47.9,0,0,0,2.22,7.49,42.25,42.25,0,0,1,2.57,9.68c.65,6.53-2.81,12-9.75,15.5A1.17,1.17,0,0,1,480.17,338.69Z"/><path class="cls-8" d="M467,336.64a1.19,1.19,0,0,1-.58-.15c-.77-.44-1.53-.83-2.27-1.22-2.66-1.38-5.17-2.69-7.2-5.48-4.29-5.9-3.39-13.32-2.61-19.86.24-2,.47-3.88.57-5.7a45.41,45.41,0,0,0-.32-6.64c-.18-1.82-.37-3.71-.37-5.6a1.17,1.17,0,0,1,2.33,0c0,1.78.18,3.61.35,5.38a44.8,44.8,0,0,1,.33,7c-.1,1.9-.34,3.92-.58,5.86-.77,6.42-1.57,13.05,2.18,18.21,1.71,2.35,3.88,3.48,6.4,4.79.76.4,1.55.8,2.34,1.26a1.17,1.17,0,0,1,.44,1.59A1.18,1.18,0,0,1,467,336.64Z"/><path class="cls-8" d="M472.9,341.51a8.61,8.61,0,0,1-5.66-2.06,10,10,0,0,0-1.37-1,1.75,1.75,0,0,1-1-1.88v-.21a1.17,1.17,0,0,1,2.33,0v.18a13,13,0,0,1,1.52,1.12c3.42,2.85,7.45,1.21,11.62-.88a1.16,1.16,0,1,1,1,2.08C479.21,340,476.11,341.51,472.9,341.51Zm-5.69-4.64h0Z"/><path class="cls-8" d="M475.61,337.36c-2,0-3.71-.65-6.2-1.89a1.16,1.16,0,1,1,1-2.08c3.64,1.82,5.15,2.14,8.84.91a1.16,1.16,0,1,1,.73,2.2A13.9,13.9,0,0,1,475.61,337.36Z"/><path class="cls-8" d="M455.35,410.93a1.16,1.16,0,0,1-.77-2c7.66-6.69,4.08-13.69-.06-21.8-2.7-5.27-5.49-10.73-4.94-16.32.69-7.16,2.65-12.62,7-19.46.79-1.27,1.65-2.46,2.47-3.62,2.29-3.21,4.46-6.24,5.14-10.29a1.15,1.15,0,0,1,1.34-1,1.16,1.16,0,0,1,.95,1.34c-.76,4.58-3.19,8-5.54,11.27-.8,1.12-1.64,2.29-2.4,3.5-4.11,6.51-6,11.68-6.63,18.45-.48,4.91,2.15,10.05,4.7,15,4.2,8.22,8.54,16.72-.47,24.61A1.14,1.14,0,0,1,455.35,410.93Z"/><path class="cls-8" d="M461.91,429.89h-.13a1.17,1.17,0,0,1-1-1.29c.84-7.58,6.48-12.67,11.94-17.6,5.67-5.1,11-9.93,11.63-17.36.66-8.12-1.73-16.33-4-24.26-2.83-9.71-5.75-19.75-3.22-29.88a1.16,1.16,0,0,1,2.25.57c-2.37,9.51.33,18.81,3.2,28.66,2.37,8.13,4.82,16.55,4.13,25.1-.69,8.35-6.64,13.71-12.39,18.9-5.37,4.85-10.45,9.42-11.19,16.13A1.17,1.17,0,0,1,461.91,429.89Z"/><path class="cls-8" d="M454.62,427.46a1.16,1.16,0,0,1-1.16-1.17c0-7.31,2.68-13,8.21-17.43a1.17,1.17,0,1,1,1.46,1.82,18.83,18.83,0,0,0-7.34,15.61A1.17,1.17,0,0,1,454.62,427.46Z"/><path class="cls-8" d="M302.16,341.22a1.16,1.16,0,0,1-1.17-1.16v-1.75c0-7.61.06-16.24-4.57-22a24.12,24.12,0,0,0-4.63-4,25.07,25.07,0,0,1-5-4.41,40.71,40.71,0,0,1-4.55-7.44,3.66,3.66,0,0,1-.18-.41l-.22-.52a13.55,13.55,0,0,0-.22,3.23v.4c0,2.81.67,6.54,2.18,8.54a13.43,13.43,0,0,0,1.36,1.51c1.22,1.24,2.49,2.51,2.49,5.22a1.17,1.17,0,0,1-2.33,0c0-1.75-.72-2.48-1.81-3.58a15.6,15.6,0,0,1-1.57-1.75c-1.95-2.6-2.65-6.84-2.65-9.94v-.37c0-2-.07-5.27,2-6,1.73-.58,2.59,1.55,2.92,2.35a2.21,2.21,0,0,0,.1.24,39.15,39.15,0,0,0,4.29,7,23.62,23.62,0,0,0,4.58,4,25.45,25.45,0,0,1,5.06,4.45c5.15,6.44,5.11,15.9,5.08,23.5v1.74A1.16,1.16,0,0,1,302.16,341.22Z"/><path class="cls-8" d="M224.54,368.63a1.18,1.18,0,0,1-1.16-1c0-.31-3.49-31.43-8.67-56.78a395.4,395.4,0,0,0-12.26-45.72,1.16,1.16,0,0,1,.18-1.09,1.13,1.13,0,0,1,1-.46,135,135,0,0,0,32.21-2.22c16.31-3.33,33.56-11.18,33.73-11.26a1.17,1.17,0,0,1,1.57.64,303.88,303.88,0,0,1,12.28,43.88,1.16,1.16,0,0,1-2.28.47,311.48,311.48,0,0,0-11.74-42.37c-4.16,1.82-19,8-33.09,10.92A138.1,138.1,0,0,1,205.2,266,405.61,405.61,0,0,1,217,310.35c4.66,22.81,7.93,50.25,8.58,55.93,4.68-.11,24-.71,38.31-3.64a89.88,89.88,0,0,0,25.94-9.38c-.36-3.24-1.87-16.73-4.15-32a1.16,1.16,0,1,1,2.3-.34c2.61,17.53,4.22,32.71,4.24,32.86a1.14,1.14,0,0,1-.54,1.1c-.42.27-10.68,6.66-27.33,10.06s-39.56,3.7-39.79,3.71Z"/><path class="cls-8" d="M350,379.6a1.16,1.16,0,0,1-.13-2.31c2.37-.28,5.13-2.25,7.57-4,1-.74,2-1.43,2.92-2a166.92,166.92,0,0,0,23.43-16.63l.9-.78c7.17-6.18,13.95-12,23.62-14,1-.2,1.94-.49,3-.81a20.69,20.69,0,0,1,6-1.18,1.17,1.17,0,0,1,0,2.33h-.06a18.06,18.06,0,0,0-5.21,1.07c-1,.32-2.11.65-3.19.87-9.08,1.85-15.63,7.5-22.57,13.47l-.9.78a168.67,168.67,0,0,1-23.75,16.86c-.84.5-1.78,1.17-2.77,1.88-2.67,1.9-5.69,4.06-8.65,4.41Z"/><path class="cls-8" d="M343.76,408.81a19.43,19.43,0,0,1-4.16-.41,1.16,1.16,0,1,1,.5-2.27c12.72,2.79,39.67-10.83,50.68-16.81a1.16,1.16,0,0,1,1.11,2C381.71,396.89,358.13,408.81,343.76,408.81Z"/><path class="cls-8" d="M350.68,380.05a1.19,1.19,0,0,1-.44-.09,74.72,74.72,0,0,1-13-7.51l-1.95-1.3c-1.41-.94-2.84-1.86-4.27-2.78-5.42-3.51-11-7.13-15.89-11.73a100.71,100.71,0,0,1-8.9-10.07c-1.46-1.81-3-3.69-4.54-5.48a1.16,1.16,0,1,1,1.75-1.53c1.59,1.82,3.12,3.72,4.6,5.55a98,98,0,0,0,8.69,9.84c4.7,4.45,10.22,8,15.56,11.46,1.43.93,2.87,1.85,4.29,2.8l1.95,1.31c4,2.7,8.2,5.5,12.57,7.29a1.16,1.16,0,0,1-.44,2.24Z"/><path class="cls-8" d="M339.48,408.24a1.19,1.19,0,0,1-.44-.09c-12.33-5-20.81-15.8-29-26.2-2.58-3.28-5-6.38-7.59-9.32-3.38-3.86-6.18-7.33-8.56-10.59-.16-.22-.38-.45-.61-.71-.89-1-2.1-2.32-1.87-3.89.61-4.23,1.79-7.45,3.61-9.84.59-.78,1.31-1.56,2-2.31a16.15,16.15,0,0,0,3.24-4.38,1.16,1.16,0,0,1,2.15.89,18.13,18.13,0,0,1-3.67,5.06c-.68.75-1.33,1.45-1.85,2.14-1.58,2.08-2.61,4.95-3.17,8.77-.07.49.78,1.43,1.29,2,.3.32.57.63.77.89,2.34,3.22,5.1,6.63,8.43,10.44,2.6,3,5.18,6.25,7.67,9.41,8,10.16,16.3,20.67,28.06,25.49a1.16,1.16,0,0,1,.64,1.51A1.17,1.17,0,0,1,339.48,408.24Z"/><path class="cls-8" d="M155.49,279.48a1.27,1.27,0,0,1-.58-.16,174.68,174.68,0,0,1-49.4-43.7l-1.47-1.9c-5-6.38-10.08-13-11.35-21.26-2.41-15.78.21-32.13,2.74-47.93l.38-2.39a160.85,160.85,0,0,1,6.76-27c.67-2,4.16-11.87,7.39-15a1.16,1.16,0,0,1,1.63,1.65c-2.21,2.19-5.06,9-6.82,14.15a159.45,159.45,0,0,0-6.66,26.66l-.38,2.39c-2.51,15.63-5.1,31.78-2.74,47.21,1.17,7.68,6.11,14,10.88,20.18l1.48,1.91a172.31,172.31,0,0,0,48.73,43.11,1.16,1.16,0,0,1-.59,2.17Z"/><path class="cls-8" d="M168.52,267.43a1.16,1.16,0,0,1-.79-.32,45.19,45.19,0,0,0-4.56-3.64,41.39,41.39,0,0,1-5.65-4.68c-8.58-9-16.5-19-25.68-32.36-.69-1-1.49-2.09-2.31-3.21-3.16-4.29-6.73-9.14-7.58-14.08-1.12-6.59.45-13.08,2-19.36a87.82,87.82,0,0,0,2-10.11,1.15,1.15,0,0,1,1.28-1,1.17,1.17,0,0,1,1,1.29,87.62,87.62,0,0,1-2.08,10.39c-1.47,6-3,12.3-2,18.42.76,4.39,4.16,9,7.16,13.09.84,1.14,1.65,2.24,2.36,3.28,9.1,13.3,17,23.19,25.44,32.06a39.59,39.59,0,0,0,5.34,4.41,48,48,0,0,1,4.78,3.83,1.16,1.16,0,0,1,.05,1.64A1.18,1.18,0,0,1,168.52,267.43Z"/><path class="cls-8" d="M196.34,279.53a12.44,12.44,0,0,1-1.67-.7,19.63,19.63,0,0,1-2.6-2.06,16,16,0,0,0-2.32-1.83c-2.29-1.42-6.33-2.47-10.24-3.49-4.21-1.1-8.56-2.23-11.35-3.94a1.16,1.16,0,1,1,1.21-2c2.5,1.52,6.68,2.61,10.73,3.67,4.26,1.11,8.28,2.16,10.87,3.75a20.44,20.44,0,0,1,2.65,2.08,17.16,17.16,0,0,0,2.29,1.83c.12.07.71.29,1.19.47l-.35,1.11Z"/><path class="cls-8" d="M206.75,299.09a1.15,1.15,0,0,1-1-.59c-1-1.7-4.39-3-7.16-4a33.36,33.36,0,0,1-3.53-1.43c-2.93-1.49-4.82-4.5-6.49-7.16-.39-.63-.78-1.25-1.17-1.82-.22-.33-.49-.66-.77-1a9,9,0,0,1-1.84-3.1,1.36,1.36,0,0,1,.4-1.42c.77-.68,1.95-.47,5.47,1l.34.14c.22.05.54.15.9.26a26.93,26.93,0,0,0,5.68,1.25,1.17,1.17,0,0,1,1.08,1.24,1.19,1.19,0,0,1-1.23,1.09,29.65,29.65,0,0,1-6.2-1.35l-.91-.27-.55-.21c-.76-.32-1.36-.55-1.83-.72l.51.65c.31.39.62.78.88,1.15.4.6.8,1.24,1.21,1.9,1.58,2.52,3.22,5.12,5.58,6.32a34.27,34.27,0,0,0,3.27,1.32c3.29,1.2,7,2.57,8.39,5a1.17,1.17,0,0,1-1,1.73Z"/><path class="cls-8" d="M205.88,301.8a1.1,1.1,0,0,1-.31,0c-1.08-.3-2.16-.59-3.25-.87-7-1.84-14.17-3.73-19-9.76a1.16,1.16,0,0,1,1.81-1.46c4.37,5.43,11.19,7.23,17.79,9,1.1.29,2.2.57,3.28.88a1.16,1.16,0,0,1-.31,2.28Z"/><path class="cls-8" d="M205.92,304h-.19a62.52,62.52,0,0,0-6.69-.6c-4-.22-8.12-.44-11.81-1.85a20.41,20.41,0,0,1-6-4.1,32.24,32.24,0,0,0-3-2.41,1.17,1.17,0,0,1,1.31-1.93,35.65,35.65,0,0,1,3.21,2.59,19,19,0,0,0,5.27,3.68c3.36,1.28,7.3,1.49,11.12,1.7a66,66,0,0,1,6.94.62,1.18,1.18,0,0,1,1,1.34A1.16,1.16,0,0,1,205.92,304Z"/><path class="cls-8" d="M187.89,306.27a9.43,9.43,0,0,1-2.55-.32,18.62,18.62,0,0,1-6.26-3.72,23.93,23.93,0,0,0-3.81-2.63,1.17,1.17,0,0,1,1-2.08,26,26,0,0,1,4.19,2.88,16.94,16.94,0,0,0,5.45,3.31c2.06.57,4.69,0,7.23-.58a29,29,0,0,1,4.83-.8,1.17,1.17,0,0,1,1.21,1.1,1.16,1.16,0,0,1-1.1,1.22,28.61,28.61,0,0,0-4.44.75A27.32,27.32,0,0,1,187.89,306.27Z"/><path class="cls-8" d="M182,307.07c-4.61,0-8-4.49-10.62-7.89-.57-.76-1.12-1.47-1.64-2.09a24.49,24.49,0,0,0-1.64-1.87c-.24-.17-.24-.17-1.05-1.3l-2-2.75c-2-2.83-6.21-8.72-10-11.69a1.16,1.16,0,0,1,1.44-1.83c4,3.18,8.2,9,10.43,12.18l2,2.74c.35.49.5.71.59.82a18.93,18.93,0,0,1,2,2.2c.55.65,1.11,1.39,1.71,2.18,2.89,3.79,6.17,8.09,10.44,6.7a1.16,1.16,0,1,1,.73,2.21A7.76,7.76,0,0,1,182,307.07Z"/><path class="cls-8" d="M158.55,281.54a1.13,1.13,0,0,1-.82-.34,1.15,1.15,0,0,1,0-1.64,42.16,42.16,0,0,0,8.78-12.38,1.17,1.17,0,0,1,1.56-.52,1.16,1.16,0,0,1,.52,1.56,44.18,44.18,0,0,1-9.22,13A1.13,1.13,0,0,1,158.55,281.54Z"/><path class="cls-8" d="M144.25,271a1.16,1.16,0,0,1-.64-2.13c2.81-1.87,8.24-9.73,9.81-13.64a1.16,1.16,0,1,1,2.16.86c-1.56,3.9-7.2,12.4-10.68,14.72A1.2,1.2,0,0,1,144.25,271Z"/><path class="cls-8" d="M176.38,231.86a1.16,1.16,0,0,1-.17-2.31l8.09-1.24c21.58-3.28,48.45-7.36,67.44-13.19,8.13-2.5,17.44-6.66,17.27-16.79-.22-12.65-2.92-24.94-5.53-35.3-.74-2.95-2.51-8.85-3.93-13.59-1.18-3.94-2.11-7.05-2.29-7.9a1.16,1.16,0,1,1,2.27-.49c.17.76,1.18,4.14,2.25,7.72,1.43,4.77,3.21,10.69,4,13.69,2.64,10.49,5.37,22.95,5.59,35.83.2,11.81-10.69,16.53-18.9,19.05-19.16,5.88-46.12,10-67.78,13.27l-8.09,1.24Z"/><path class="cls-8" d="M176.23,231.87h-.14a1.16,1.16,0,0,1-1-1.3c.2-1.62-.73-6.47-1.48-10.36-1.31-6.84-1.39-7.79-.71-8.5.5-.52,1.67-.86,16.68-4.45,13.16-3.14,31.18-7.44,37-9.78a76,76,0,0,1,8.33-2.93,8.19,8.19,0,0,1,1.12-.2c.45-.05,1.49-.18,1.66-.41.67-1.21-.25-4.69-.7-6.36-.1-.4-.2-.75-.27-1l-.21-.9a253.41,253.41,0,0,0-6.84-24.93,1.15,1.15,0,0,1,.71-1.48,1.17,1.17,0,0,1,1.48.71,255.13,255.13,0,0,1,6.91,25.16l.22.91c.06.27.15.61.25,1,.82,3.06,1.53,6.21.49,8.09-.7,1.26-2.26,1.45-3.41,1.59a6.19,6.19,0,0,0-.79.13,76,76,0,0,0-8.08,2.85c-6,2.4-24.09,6.73-37.32,9.89-6.6,1.57-13.39,3.19-15.31,3.8.07,1.19.63,4.06,1.08,6.44.86,4.47,1.75,9.1,1.5,11.09A1.16,1.16,0,0,1,176.23,231.87Z"/><path class="cls-8" d="M144.74,236.91a12.89,12.89,0,0,1-3.68-.53,1.16,1.16,0,0,1,.66-2.23c4.08,1.2,8-.33,12.11-2a37.21,37.21,0,0,1,6.86-2.19c1.74-.31,3.74-.51,5.86-.71a54.19,54.19,0,0,0,8.3-1.2,1.16,1.16,0,1,1,.61,2.24,56.12,56.12,0,0,1-8.69,1.27c-2.07.2-4,.39-5.67.69a34.84,34.84,0,0,0-6.42,2.07C151.48,235.62,148.2,236.91,144.74,236.91Z"/><path class="cls-8" d="M140.27,235.2a1.17,1.17,0,0,1-1.09-.76,1.16,1.16,0,0,1,.68-1.49,155.22,155.22,0,0,0,14.36-6.58,1.16,1.16,0,1,1,1.07,2.06,154.53,154.53,0,0,1-14.61,6.7A1.18,1.18,0,0,1,140.27,235.2Z"/><path class="cls-8" d="M139,232.12a1.17,1.17,0,0,1-.41-2.26,42.53,42.53,0,0,0,7.29-3.88c3.19-2,6.48-4,10.24-4.89a1.16,1.16,0,1,1,.53,2.26c-3.39.81-6.38,2.65-9.54,4.61a44.65,44.65,0,0,1-7.7,4.08A1.24,1.24,0,0,1,139,232.12Z"/><path class="cls-8" d="M139,229.28a1.16,1.16,0,0,1-.71-2.08c1.22-.94,2.43-2,3.59-3,1.48-1.28,3-2.61,4.6-3.76a24.16,24.16,0,0,1,6.28-2.86c1-.34,1.88-.65,2.72-1a1.17,1.17,0,0,1,.9,2.15c-.92.37-1.9.72-2.86,1.05a22.31,22.31,0,0,0-5.68,2.55c-1.51,1.09-3,2.38-4.43,3.63-1.19,1-2.43,2.11-3.71,3.09A1.16,1.16,0,0,1,139,229.28Z"/><path class="cls-8" d="M145.07,221.73a1.16,1.16,0,0,1-.94-1.84c4.47-6.2,10.07-6.16,16.53-6.13,1.05,0,2.14,0,3.25,0,1.55,0,3.13-.17,4.66-.31,1.37-.12,2.78-.25,4.2-.3a1.14,1.14,0,0,1,1.2,1.12,1.16,1.16,0,0,1-1.12,1.2c-1.35,0-2.73.18-4.07.3-1.57.14-3.19.28-4.82.31-1.14,0-2.24,0-3.31,0-6.29,0-10.86-.05-14.64,5.17A1.13,1.13,0,0,1,145.07,221.73Z"/><path class="cls-8" d="M196.41,228.78a1.16,1.16,0,0,1-1.16-1.17v-.86c0-6,0-13.43-3.23-18.3a1.16,1.16,0,1,1,1.93-1.29c3.64,5.46,3.63,13.3,3.63,19.6v.85A1.17,1.17,0,0,1,196.41,228.78Z"/><path class="cls-8" d="M176.29,131.55a1.41,1.41,0,0,1-.35-.05c-.79-.19-1.25-.95-1.64-1.74a21.91,21.91,0,0,0-3.8-4.08,54.76,54.76,0,0,0-5.49-3.86,40.64,40.64,0,0,1-8.07-6.26c-2.52-2.7-4.29-6.21-6-9.59-.5-1-1-2-1.5-2.9a1.16,1.16,0,1,1,2.05-1.1c.51,1,1,1.94,1.53,3,1.64,3.24,3.33,6.59,5.62,9.06a38.38,38.38,0,0,0,7.63,5.88,58.69,58.69,0,0,1,5.72,4,25.13,25.13,0,0,1,4.24,4.56l.13.24a15.74,15.74,0,0,0,.9-1.59c.22-.42.42-.82.61-1.13l.78-1.27c2.79-4.52,5.67-9.19,6.23-14.24.07-.66.1-1.35.12-2a13.72,13.72,0,0,1,1-5.66,1.16,1.16,0,1,1,2.08,1,11.87,11.87,0,0,0-.79,4.71c0,.76-.06,1.51-.14,2.22-.62,5.57-3.77,10.69-6.56,15.2l-.77,1.27c-.17.27-.34.61-.53,1a9.17,9.17,0,0,1-2.16,3.08A1.51,1.51,0,0,1,176.29,131.55Z"/><path class="cls-8" d="M159.73,135.81c-1.29,0-1.66-1.48-1.89-2.37a2.24,2.24,0,0,0-.08-.29,35.42,35.42,0,0,0-1.84-3.06l-.61-1c-.87-1.38-1.84-2.75-2.87-4.2a62.28,62.28,0,0,1-4.81-7.55c-2-4.06-2.73-10.68-3.25-15.51l-.15-1.36a1.16,1.16,0,1,1,2.31-.25l.15,1.36c.5,4.66,1.19,11,3,14.72a59.45,59.45,0,0,0,4.62,7.25c1,1.41,2,2.87,2.94,4.3l.59.93a36.35,36.35,0,0,1,2,3.36,3.49,3.49,0,0,1,.2.62c.22-.31.48-.7.78-1.18.14-.23.25-.4.32-.5.31-.43.65-1,1-1.53,1.45-2.31,3.26-5.17,5.92-5.74a4.85,4.85,0,0,1,3.78.85,1.16,1.16,0,0,1-1.29,1.94,2.57,2.57,0,0,0-2-.51c-1.7.36-3.28,2.87-4.44,4.7-.38.61-.75,1.18-1.08,1.65,0,.07-.13.2-.23.37C161.79,134.53,160.9,135.81,159.73,135.81Z"/><path class="cls-8" d="M191.27,131.44c-1,0-1.65-1-3.09-3.51-.18-.32-.33-.57-.4-.67a12.16,12.16,0,0,0-2.84-3.13,8.27,8.27,0,0,0-1.74-.07.62.62,0,0,0,.19-.11l-.94.09-1.16-.11a2,2,0,0,1,.56-1.72c.65-.59,1.54-.57,3.41-.38.4,0,1.61.17,4.41,4.07.09.12.28.45.52.87l.47.8c0-.87-.06-1.82-.14-2.74a22.81,22.81,0,0,1-.11-3.26,58.65,58.65,0,0,1,1.14-7.58,58.66,58.66,0,0,0,1.1-7.07,57,57,0,0,0-.11-7.38c-.1-1.66-.19-3.37-.19-5.09a1.16,1.16,0,1,1,2.32,0c0,1.65.1,3.33.19,5a59.19,59.19,0,0,1,.11,7.67,63,63,0,0,1-1.13,7.36,56.13,56.13,0,0,0-1.11,7.28,20.06,20.06,0,0,0,.11,2.92,13.94,13.94,0,0,1-.33,5.93,1.31,1.31,0,0,1-1.12.87Z"/><path class="cls-8" d="M180.06,205.15A1.16,1.16,0,0,1,178.9,204v-3c0-4.71,0-9.59-.3-14.26a59.42,59.42,0,0,0-.93-6.36,53.88,53.88,0,0,1-1-7.73,103.69,103.69,0,0,1,.52-11.89c.29-3.5.59-7.13.53-10.7a76.62,76.62,0,0,0-1-9.76c-.31-2.18-.63-4.45-.82-6.75a1.16,1.16,0,1,1,2.32-.19c.19,2.23.5,4.46.81,6.62a80.53,80.53,0,0,1,1,10c.06,3.69-.25,7.37-.54,10.93a99.71,99.71,0,0,0-.51,11.62,51,51,0,0,0,1,7.4,61.31,61.31,0,0,1,1,6.6c.34,4.77.32,9.68.31,14.44v3A1.16,1.16,0,0,1,180.06,205.15Z"/><path class="cls-8" d="M332.58,217.87h0L253,217.71a1.17,1.17,0,0,1,0-2.33h0l79.56.16a1.17,1.17,0,0,1,0,2.33Z"/><path class="cls-8" d="M146.91,217.5h0l-18.81,0a1.17,1.17,0,0,1,0-2.33h0l18.81,0a1.17,1.17,0,0,1,0,2.33Z"/><path class="cls-8" d="M94,217.39h0l-59.35-.12a1.16,1.16,0,0,1,0-2.32h0l59.36.12a1.16,1.16,0,0,1,0,2.32Z"/><path class="cls-8" d="M222.23,371.7h-2a1.17,1.17,0,0,1-1.14-1.07c0-.31-2.64-31.51-7.13-57a394.49,394.49,0,0,0-11-46,1.17,1.17,0,0,1,2.22-.71,401.46,401.46,0,0,1,11.1,46.35c4,22.92,6.57,50.45,7.07,56.14,4.68,0,24-.07,38.39-2.6,16.28-2.87,26.7-9,26.8-9a1.16,1.16,0,1,1,1.19,2c-.44.26-10.86,6.37-27.59,9.32C246.35,371.49,228.19,371.7,222.23,371.7Z"/><path class="cls-8" d="M213,325.67a1.16,1.16,0,0,1-1.13-.86c-1.13-4.2-2.26-8.19-3.36-11.87a399.76,399.76,0,0,0-16.32-44.44,1.14,1.14,0,0,1,.07-1.1,1.17,1.17,0,0,1,1-.54s3.19-.06,8-.55a1.15,1.15,0,0,1,1.27,1,1.17,1.17,0,0,1-1,1.28c-2.82.28-5.06.42-6.49.49a407.35,407.35,0,0,1,15.73,43.16c1.11,3.69,2.25,7.7,3.39,11.93a1.16,1.16,0,0,1-.82,1.42A1,1,0,0,1,213,325.67Z"/><path class="cls-8" d="M220.24,265.44a1.16,1.16,0,0,1-.28-2.29c1.75-.44,3.48-.91,5.14-1.4C241,257,257.51,247.6,257.67,247.51a1.18,1.18,0,0,1,.92-.11,1.16,1.16,0,0,1,.7.6c0,.06.78,1.58,2,4.36a1.16,1.16,0,1,1-2.12.95c-.62-1.38-1.12-2.45-1.46-3.18-4,2.18-18.16,9.7-32,13.85-1.69.5-3.46,1-5.24,1.42A.9.9,0,0,1,220.24,265.44Z"/><path class="cls-9" d="M28.61,215.1a11.85,11.85,0,1,1,11.85,11.7A11.77,11.77,0,0,1,28.61,215.1Z"/><path class="cls-8" d="M40.46,228a12.86,12.86,0,1,1,13-12.86A12.95,12.95,0,0,1,40.46,228Zm0-23.4A10.54,10.54,0,1,0,51.14,215.1,10.63,10.63,0,0,0,40.46,204.56Z"/><path class="cls-6" d="M36.11,210.66h7.24A1.34,1.34,0,0,1,44.69,212v6a1.34,1.34,0,0,1-1.34,1.33H36.11A1.34,1.34,0,0,1,34.78,218v-6A1.34,1.34,0,0,1,36.11,210.66Z"/><path class="cls-8" d="M43.35,220.54H36.11a2.51,2.51,0,0,1-2.49-2.5v-6a2.5,2.5,0,0,1,2.49-2.49h7.24a2.5,2.5,0,0,1,2.5,2.49v6A2.51,2.51,0,0,1,43.35,220.54Zm-7.24-8.72a.18.18,0,0,0-.17.17v6a.18.18,0,0,0,.17.17h7.24a.18.18,0,0,0,.17-.17v-6a.18.18,0,0,0-.17-.17Z"/><path class="cls-6" d="M46.93,211.49a1.34,1.34,0,0,1,1.34,1.34v4a1.34,1.34,0,0,1-1.34,1.33s-1.53-.6-1.53-1.33v-4C45.4,212.09,46.93,211.49,46.93,211.49Z"/><path class="cls-8" d="M46.93,219.28a1.06,1.06,0,0,1-.43-.08c-.68-.26-2.26-1-2.26-2.41v-4c0-1.38,1.58-2.15,2.26-2.42a1.26,1.26,0,0,1,.43-.08,2.5,2.5,0,0,1,2.5,2.5v4A2.5,2.5,0,0,1,46.93,219.28Zm-.36-2.69a3.24,3.24,0,0,0,.49.31.15.15,0,0,0,0-.11v-4a.16.16,0,0,0,0-.12,2.44,2.44,0,0,0-.49.32Z"/><path class="cls-10" d="M420.29,295.32c.2-1.07.94-1.83,1.64-1.7s1.12,1.11.92,2.18-.93,1.83-1.64,1.7S420.1,296.39,420.29,295.32Z"/><path class="cls-10" d="M435.4,297.6c.2-1.07.94-1.82,1.64-1.69s1.11,1.11.91,2.18-.94,1.83-1.65,1.69S435.19,298.67,435.4,297.6Z"/><path class="cls-11" d="M59.66,215a12,12,0,1,1,12,11.86A11.94,11.94,0,0,1,59.66,215Z"/><path class="cls-8" d="M71.67,228a13,13,0,1,1,13.18-13A13.11,13.11,0,0,1,71.67,228Zm0-23.72A10.7,10.7,0,1,0,82.52,215,10.79,10.79,0,0,0,71.67,204.28Z"/><path class="cls-6" d="M64.74,217.59c-3,0-1.44-2.46-.09-4.21a9.26,9.26,0,0,1,7-3.5c5.26.15,10.9,6.82,6.9,7.21s-1.31-4.75-7.25-4.45C65.64,212.93,69.34,217.55,64.74,217.59Z"/><path class="cls-8" d="M64.69,218.76a2.67,2.67,0,0,1-2.64-1.26c-.71-1.43.46-3.24,1.69-4.83a10.27,10.27,0,0,1,8-3.95c4.41.12,9.28,4.28,9.38,7.12a2.32,2.32,0,0,1-2.4,2.41c-2.63.25-3.41-1.42-3.91-2.53s-.94-2.05-3.39-1.92c-2.18.12-2.38.8-2.72,1.93s-.89,3-3.93,3h-.06Zm0-1.17h0Zm-.56-1.2a3.16,3.16,0,0,0,.55,0h0c1.32,0,1.41-.3,1.73-1.37.4-1.35,1-3.38,4.82-3.58,4-.21,5,1.89,5.62,3.27.48,1,.59,1.28,1.57,1.19a.92.92,0,0,0,.37-.09h0a6.29,6.29,0,0,0-.87-1.42A9.58,9.58,0,0,0,71.65,211a8.22,8.22,0,0,0-6.08,3.06A7,7,0,0,0,64.18,216.39Z"/><path class="cls-9" d="M299.92,446.5a11.85,11.85,0,1,1,11.84,11.7A11.77,11.77,0,0,1,299.92,446.5Z"/><path class="cls-8" d="M311.76,459.36a12.86,12.86,0,1,1,13-12.86A13,13,0,0,1,311.76,459.36Zm0-23.39a10.53,10.53,0,1,0,10.69,10.53A10.61,10.61,0,0,0,311.76,436Z"/><path class="cls-6" d="M307.42,442.06h7.24A1.33,1.33,0,0,1,316,443.4v6a1.33,1.33,0,0,1-1.33,1.33h-7.24a1.34,1.34,0,0,1-1.33-1.33v-6A1.34,1.34,0,0,1,307.42,442.06Z"/><path class="cls-8" d="M314.66,451.94h-7.24a2.51,2.51,0,0,1-2.5-2.5v-6a2.51,2.51,0,0,1,2.5-2.5h7.24a2.5,2.5,0,0,1,2.5,2.5v6A2.5,2.5,0,0,1,314.66,451.94Zm-7.24-8.72a.18.18,0,0,0-.17.18v6a.18.18,0,0,0,.17.17h7.24a.18.18,0,0,0,.17-.17v-6a.18.18,0,0,0-.17-.18Z"/><path class="cls-6" d="M318.24,442.89a1.33,1.33,0,0,1,1.33,1.34v4a1.33,1.33,0,0,1-1.33,1.33s-1.53-.6-1.53-1.33v-4C316.71,443.49,318.24,442.89,318.24,442.89Z"/><path class="cls-8" d="M318.24,450.69a1.07,1.07,0,0,1-.43-.09c-.68-.26-2.26-1-2.26-2.41v-4c0-1.38,1.58-2.15,2.26-2.42a1.26,1.26,0,0,1,.43-.08,2.5,2.5,0,0,1,2.5,2.5v4A2.51,2.51,0,0,1,318.24,450.69Zm-.36-2.7a3.24,3.24,0,0,0,.49.31.21.21,0,0,0,0-.11v-4a.21.21,0,0,0,0-.12,2.07,2.07,0,0,0-.49.32Z"/><path class="cls-11" d="M331,446.38a12,12,0,1,1,12,11.86A11.94,11.94,0,0,1,331,446.38Z"/><path class="cls-8" d="M343,459.4a13,13,0,1,1,13.17-13A13.11,13.11,0,0,1,343,459.4Zm0-23.72a10.7,10.7,0,1,0,10.85,10.7A10.79,10.79,0,0,0,343,435.68Z"/><path class="cls-6" d="M336.05,449c-3.05,0-1.45-2.46-.09-4.21a9.26,9.26,0,0,1,7-3.5c5.27.15,10.9,6.82,6.9,7.21s-1.3-4.75-7.24-4.45C336.94,444.33,340.64,449,336.05,449Z"/><path class="cls-8" d="M336,450.16a2.67,2.67,0,0,1-2.64-1.26c-.71-1.43.45-3.24,1.68-4.83a10.24,10.24,0,0,1,8-3.95c4.41.12,9.28,4.28,9.38,7.12a2.33,2.33,0,0,1-2.4,2.41c-2.64.25-3.41-1.42-3.91-2.53s-.93-2-3.39-1.92c-2.18.12-2.38.8-2.72,1.93s-.89,3-3.93,3H336Zm.05-1.16h0Zm-.56-1.21a1.85,1.85,0,0,0,.55,0h0c1.32,0,1.41-.3,1.72-1.37.41-1.35,1-3.38,4.83-3.58,4-.21,5,1.89,5.62,3.27.47,1,.59,1.29,1.57,1.19a.92.92,0,0,0,.37-.09,4.5,4.5,0,0,0-.87-1.42,9.58,9.58,0,0,0-6.32-3.39,8.14,8.14,0,0,0-6.08,3.06A7,7,0,0,0,335.49,447.79Z"/><path class="cls-11" d="M28.85,33a3.94,3.94,0,1,1,3.94,4A4,4,0,0,1,28.85,33Z"/><path class="cls-8" d="M32.79,38a5,5,0,1,1,4.91-5A5,5,0,0,1,32.79,38Zm0-8.1a3.08,3.08,0,1,0,3,3.08A3,3,0,0,0,32.79,29.87Z"/><path class="cls-12" d="M42.86,33A3.94,3.94,0,1,1,46.8,37,4,4,0,0,1,42.86,33Z"/><path class="cls-8" d="M46.8,38a5,5,0,1,1,4.91-5A5,5,0,0,1,46.8,38Zm0-8.1a3.08,3.08,0,1,0,3,3.08A3,3,0,0,0,46.8,29.9Z"/><path class="cls-9" d="M56.57,32.86a3.94,3.94,0,1,1,3.94,4A4,4,0,0,1,56.57,32.86Z"/><path class="cls-8" d="M60.51,37.88a5,5,0,1,1,4.91-5A5,5,0,0,1,60.51,37.88Zm0-8.11a3.09,3.09,0,1,0,3,3.09A3,3,0,0,0,60.51,29.77Z"/><path class="cls-11" d="M300.22,263.16a3.94,3.94,0,1,1,3.94,4.06A4,4,0,0,1,300.22,263.16Z"/><path class="cls-8" d="M304.16,268.19a5,5,0,1,1,4.91-5A5,5,0,0,1,304.16,268.19Zm0-8.11a3.09,3.09,0,1,0,3,3.08A3,3,0,0,0,304.16,260.08Z"/><path class="cls-12" d="M314.24,263.2a3.94,3.94,0,1,1,3.93,4.05A4,4,0,0,1,314.24,263.2Z"/><path class="cls-8" d="M318.17,268.22a5,5,0,1,1,4.91-5A5,5,0,0,1,318.17,268.22Zm0-8.1a3.08,3.08,0,1,0,3,3.08A3,3,0,0,0,318.17,260.12Z"/><path class="cls-9" d="M327.94,263.07a3.94,3.94,0,1,1,3.94,4.05A4,4,0,0,1,327.94,263.07Z"/><path class="cls-8" d="M331.88,268.09a5,5,0,1,1,4.91-5A5,5,0,0,1,331.88,268.09Zm0-8.1a3.09,3.09,0,1,0,3,3.08A3,3,0,0,0,331.88,260Z"/></g><g id="Ñëîé_3" data-name="Ñëîé 3"><path class="cls-8" d="M339,245.33H147.52a1.29,1.29,0,1,1,0-2.58H339a5.26,5.26,0,0,0,5.17-5.32V32.4A5.25,5.25,0,0,0,339,27.09H21.4a5.24,5.24,0,0,0-5.16,5.31v205a5.25,5.25,0,0,0,5.16,5.32h89.27a1.29,1.29,0,1,1,0,2.58H21.4a7.83,7.83,0,0,1-7.75-7.9V32.4a7.84,7.84,0,0,1,7.75-7.9H339a7.84,7.84,0,0,1,7.76,7.9v205A7.84,7.84,0,0,1,339,245.33Z"/><path class="cls-8" d="M335,240.6H144.08a1.29,1.29,0,1,1,0-2.58H335a4.89,4.89,0,0,0,5-4.76V45.66a4.89,4.89,0,0,0-5-4.75H189.3a1.29,1.29,0,1,1,0-2.58H335a7.47,7.47,0,0,1,7.59,7.33v187.6A7.47,7.47,0,0,1,335,240.6Z"/><path class="cls-8" d="M109.08,240.6H25.42a7.47,7.47,0,0,1-7.59-7.34V45.66a7.47,7.47,0,0,1,7.59-7.33H139.64a1.29,1.29,0,1,1,0,2.58H25.42a4.89,4.89,0,0,0-5,4.75v187.6a4.89,4.89,0,0,0,5,4.76h83.66a1.29,1.29,0,1,1,0,2.58Z"/><path class="cls-8" d="M609.6,475.5H292a7.84,7.84,0,0,1-7.76-7.9V362.45a1.3,1.3,0,0,1,2.59,0V467.6a5.25,5.25,0,0,0,5.17,5.31H609.6a5.24,5.24,0,0,0,5.16-5.31V262.72a5.25,5.25,0,0,0-5.16-5.32H477.51a1.29,1.29,0,0,1,0-2.58H609.6a7.83,7.83,0,0,1,7.75,7.9V467.6A7.83,7.83,0,0,1,609.6,475.5Z"/><path class="cls-8" d="M285.52,300.33a1.29,1.29,0,0,1-1.29-1.29V262.66a7.81,7.81,0,0,1,7.76-7.84H420.7a1.29,1.29,0,1,1,0,2.58H292a5.22,5.22,0,0,0-5.17,5.26V299A1.29,1.29,0,0,1,285.52,300.33Z"/><path class="cls-8" d="M605.58,470.92H296a7.47,7.47,0,0,1-7.59-7.34V357a1.29,1.29,0,0,1,2.58,0V463.58a4.9,4.9,0,0,0,5,4.76H605.58a4.9,4.9,0,0,0,5-4.76V276a4.89,4.89,0,0,0-5-4.75H484.36a1.3,1.3,0,0,1,0-2.59H605.58a7.48,7.48,0,0,1,7.59,7.34v187.6A7.47,7.47,0,0,1,605.58,470.92Z"/><path class="cls-8" d="M289.7,306.12a1.3,1.3,0,0,1-1.29-1.3V276a7.48,7.48,0,0,1,7.59-7.34H411.47a1.3,1.3,0,0,1,0,2.59H296a4.89,4.89,0,0,0-5,4.75v28.84A1.3,1.3,0,0,1,289.7,306.12Z"/></g></svg>