<svg id="Layer_1" data-name="Layer 1" xmlns="http://www.w3.org/2000/svg" viewBox="0 0 180 170"><defs><style>.cls-1,.cls-2{fill:none;}.cls-1{stroke:#4c626e;stroke-miterlimit:10;stroke-width:5px;}.cls-2{stroke:#19ad87;stroke-linecap:round;stroke-linejoin:round;stroke-width:4px;}</style></defs><title>cash-green</title><rect class="cls-1" x="24.6" y="48" width="130.9" height="91"/><polyline class="cls-1" points="75.8 48 141.6 22.7 150.5 47.3"/><polyline class="cls-2" points="106.8 47.6 134.8 37.3 138.4 47.2"/><rect class="cls-2" x="36" y="59.4" width="108.1" height="68.3"/><path class="cls-2" d="M53,59.4A17.09,17.09,0,0,1,35.9,76.5"/><path class="cls-2" d="M141.2,76.5a17.09,17.09,0,0,1-17.1-17.1"/><path class="cls-2" d="M124.1,127.7a17.09,17.09,0,0,1,17.1-17.1"/><path class="cls-2" d="M36,110.6a17.09,17.09,0,0,1,17.1,17.1"/><path class="cls-2" d="M96.2,83.1a7.72,7.72,0,0,0-6.6-4C82.2,79,79,89.6,87.7,92.6c13.6,4.7,8.7,15.6,2,15.7a8.81,8.81,0,0,1-8.1-4.3"/><line class="cls-2" x1="89.3" y1="74.4" x2="89.5" y2="113.2"/></svg>