<svg id="Layer_1" data-name="Layer 1" xmlns="http://www.w3.org/2000/svg" viewBox="0 0 500 340"><defs><style>.cls-1{opacity:0.2;}.cls-2{fill:#cacaf9;}.cls-3{fill:#babafb;}.cls-4{fill:#a3a3fa;}.cls-5{fill:#8c8cf9;}.cls-6{fill:#fff;}.cls-7{fill:#d1d1fd;}</style></defs><g class="cls-1"><path class="cls-2" d="M452.78,305.71a196,196,0,0,0-16.94-80,62.05,62.05,0,0,0-74.32-86.16A195.87,195.87,0,0,0,256,108.89q-7.26,0-14.39.52a50.69,50.69,0,0,0-77.84,22.41,197.28,197.28,0,0,0-41.05,29.08,56.19,56.19,0,0,0-55.92,90.41,196.9,196.9,0,0,0-7.62,54.4Z"/></g><g class="cls-1"><path class="cls-2" d="M398.94,305.71a143,143,0,0,0-285.94,0Z"/></g><g class="cls-1"><path class="cls-2" d="M472.69,230.58a11.21,11.21,0,1,1-11.21-11.21A11.21,11.21,0,0,1,472.69,230.58Z"/></g><g class="cls-1"><circle class="cls-2" cx="298.95" cy="90.77" r="17.27"/></g><g class="cls-1"><path class="cls-2" d="M141.26,133a7.4,7.4,0,1,1-7.4-7.39A7.4,7.4,0,0,1,141.26,133Z"/></g><g class="cls-1"><circle class="cls-2" cx="366.84" cy="119.4" r="7.4"/></g><g class="cls-1"><path class="cls-2" d="M211.12,69.38a7.4,7.4,0,1,1-7.39-7.4A7.39,7.39,0,0,1,211.12,69.38Z"/></g><g class="cls-1"><circle class="cls-2" cx="457.43" cy="257.7" r="3.04"/></g><g class="cls-1"><path class="cls-2" d="M365.63,67.1a2.28,2.28,0,1,1-2.28-2.28A2.29,2.29,0,0,1,365.63,67.1Z"/></g><g class="cls-1"><circle class="cls-2" cx="136.8" cy="78.45" r="2.97"/></g><g class="cls-1"><path class="cls-2" d="M16.42,144.71a4,4,0,1,1-4-3.94A4,4,0,0,1,16.42,144.71Z"/></g><g class="cls-1"><path class="cls-2" d="M491.48,173.62a4,4,0,1,1-4-3.94A4,4,0,0,1,491.48,173.62Z"/></g><g class="cls-1"><circle class="cls-2" cx="75.87" cy="128.74" r="16.73"/></g><g class="cls-1"><path class="cls-2" d="M30.56,250.76a3.95,3.95,0,1,1-3.95-3.95A4,4,0,0,1,30.56,250.76Z"/></g><g class="cls-1"><path class="cls-2" d="M466.49,133a16.22,16.22,0,1,1-16.22-16.22A16.23,16.23,0,0,1,466.49,133Z"/></g><g class="cls-1"><circle class="cls-2" cx="26.61" cy="206.26" r="15.94"/></g><path class="cls-2" d="M454.07,278.3l-19.13-19.13a.33.33,0,0,0-.27-.08.31.31,0,0,0-.26.08L415.27,278.3a.32.32,0,0,0,.23.54H424v28.6H445.4v-28.6h8.45A.32.32,0,0,0,454.07,278.3Z"/><path class="cls-3" d="M415.27,278.3a.32.32,0,0,0,.23.54H424v28.6h6.79v-44.6Z"/><path class="cls-4" d="M433.78,239.31l-26.56-26.56a.43.43,0,0,0-.37-.11.45.45,0,0,0-.38.11l-26.55,26.56a.44.44,0,0,0,.31.75H392v67.38h29.79V240.06h11.73A.44.44,0,0,0,433.78,239.31Z"/><path class="cls-5" d="M423.85,307.44H420.4v-69h10.72l-24.27-24.27-24.27,24.27H393.3v69h-3.46V241.87H379.5a2.18,2.18,0,0,1-1.54-3.72l27.34-27.34a2.26,2.26,0,0,1,3.1,0l27.34,27.34a2.18,2.18,0,0,1-1.55,3.72H423.85Z"/><path class="cls-5" d="M447.37,307.35h-3.45V279.24h7.75l-17.86-17.86-4.45,4.45-2.44-2.45,5.41-5.41a2.11,2.11,0,0,1,1.48-.61h0a2,2,0,0,1,1.47.62l21.17,21.17A2.08,2.08,0,0,1,455,282.7h-7.62Z"/><path class="cls-5" d="M345.4,179.34a1.73,1.73,0,0,1-1.22-3l7-7a1.73,1.73,0,1,1,2.44,2.44l-7,7A1.75,1.75,0,0,1,345.4,179.34Z"/><path class="cls-5" d="M352.36,179.34a1.73,1.73,0,0,1-1.22-.5l-7-7a1.73,1.73,0,1,1,2.44-2.44l7,7a1.73,1.73,0,0,1,0,2.45A1.75,1.75,0,0,1,352.36,179.34Z"/><path class="cls-5" d="M55.5,204.19H45.65a1.73,1.73,0,0,1,0-3.45H55.5a1.73,1.73,0,1,1,0,3.45Z"/><path class="cls-5" d="M50.58,209.11a1.72,1.72,0,0,1-1.73-1.72v-9.85a1.73,1.73,0,0,1,3.46,0v9.85A1.73,1.73,0,0,1,50.58,209.11Z"/><path class="cls-5" d="M376.67,88h-9.85a1.73,1.73,0,0,1,0-3.46h9.85a1.73,1.73,0,0,1,0,3.46Z"/><path class="cls-5" d="M371.75,92.93A1.72,1.72,0,0,1,370,91.21V81.36a1.73,1.73,0,1,1,3.45,0v9.85A1.72,1.72,0,0,1,371.75,92.93Z"/><path class="cls-5" d="M142.2,178h-9.85a1.73,1.73,0,0,1,0-3.45h9.85a1.73,1.73,0,1,1,0,3.45Z"/><path class="cls-5" d="M137.28,182.91a1.73,1.73,0,0,1-1.73-1.73v-9.85a1.73,1.73,0,1,1,3.46,0v9.85A1.74,1.74,0,0,1,137.28,182.91Z"/><path class="cls-5" d="M160.89,117.22a1.69,1.69,0,0,1-1.22-.51,1.71,1.71,0,0,1,0-2.44l7-7a1.73,1.73,0,0,1,2.44,2.45l-7,7A1.72,1.72,0,0,1,160.89,117.22Z"/><path class="cls-5" d="M167.85,117.22a1.72,1.72,0,0,1-1.22-.51l-7-7a1.73,1.73,0,1,1,2.44-2.45l7,7a1.73,1.73,0,0,1-1.22,3Z"/><polygon class="cls-5" points="449.14 169.89 453.52 167.37 457.89 169.89 457.89 174.94 453.52 177.47 449.14 174.94 449.14 169.89"/><polygon class="cls-5" points="71.5 160.68 75.87 158.16 80.25 160.68 80.25 165.74 75.87 168.26 71.5 165.74 71.5 160.68"/><polygon class="cls-5" points="74.53 75.92 78.9 73.4 83.28 75.92 83.28 80.98 78.9 83.5 74.53 80.98 74.53 75.92"/><polygon class="cls-5" points="369.82 214.95 374.2 212.42 378.58 214.95 378.58 220 374.2 222.53 369.82 220 369.82 214.95"/><polygon class="cls-5" points="260.52 61.41 266.42 58 272.33 61.41 272.33 68.22 266.42 71.63 260.52 68.22 260.52 61.41"/><path class="cls-5" d="M441.74,142.49H369.43a1.73,1.73,0,0,1,0-3.45h72.31a1.73,1.73,0,1,1,0,3.45Z"/><path class="cls-5" d="M368.36,200.18H302.78a1.73,1.73,0,0,1,0-3.46h65.58a1.73,1.73,0,0,1,0,3.46Z"/><path class="cls-5" d="M363.35,142.49h-5.6a1.73,1.73,0,1,1,0-3.45h5.6a1.73,1.73,0,1,1,0,3.45Z"/><path class="cls-5" d="M348.56,142.49h-9.85a1.73,1.73,0,1,1,0-3.45h9.85a1.73,1.73,0,1,1,0,3.45Z"/><path class="cls-5" d="M343.64,147.42a1.73,1.73,0,0,1-1.73-1.73v-9.85a1.73,1.73,0,1,1,3.45,0v9.85A1.73,1.73,0,0,1,343.64,147.42Z"/><path class="cls-5" d="M247.86,88H238a1.73,1.73,0,1,1,0-3.46h9.85a1.73,1.73,0,0,1,0,3.46Z"/><path class="cls-5" d="M242.93,92.93a1.73,1.73,0,0,1-1.73-1.72V81.36a1.73,1.73,0,1,1,3.46,0v9.85A1.72,1.72,0,0,1,242.93,92.93Z"/><path class="cls-5" d="M302.37,116.65a1.75,1.75,0,0,1-1.22-.5l-7-7a1.73,1.73,0,1,1,2.45-2.44l7,7a1.73,1.73,0,0,1,0,2.45A1.75,1.75,0,0,1,302.37,116.65Z"/><path class="cls-5" d="M295.41,116.65a1.73,1.73,0,0,1-1.23-3l7-7a1.73,1.73,0,1,1,2.44,2.44l-7,7A1.75,1.75,0,0,1,295.41,116.65Z"/><path class="cls-5" d="M149.9,113.74H44.62a1.73,1.73,0,1,1,0-3.46H149.9a1.73,1.73,0,0,1,0,3.46Z"/><path class="cls-5" d="M168.06,158.39H99.67a1.73,1.73,0,0,1,0-3.46h68.39a1.73,1.73,0,1,1,0,3.46Z"/><path class="cls-5" d="M206.2,88H128.75a1.73,1.73,0,0,1,0-3.46H206.2a1.73,1.73,0,1,1,0,3.46Z"/><path class="cls-5" d="M384.36,114H309.6a1.73,1.73,0,0,1,0-3.45h74.76a1.73,1.73,0,1,1,0,3.45Z"/><path class="cls-5" d="M229.55,88H218.46a1.73,1.73,0,0,1,0-3.46h11.09a1.73,1.73,0,0,1,0,3.46Z"/><polygon class="cls-5" points="161.94 204.22 165.33 202.27 168.72 204.22 168.72 208.14 165.33 210.1 161.94 208.14 161.94 204.22"/><circle class="cls-6" cx="249.4" cy="151.87" r="33.49" transform="translate(43.99 359.41) rotate(-76.63)"/><path class="cls-2" d="M249.4,118.38a33.44,33.44,0,0,0-28.83,16.5,33.46,33.46,0,0,1,51.75,41.38,33.46,33.46,0,0,0-22.92-57.88Z"/><path class="cls-5" d="M251.57,154.62h-16v-3.45h16a5.89,5.89,0,0,0,0-11.78h-16v-3.46h16a9.35,9.35,0,0,1,0,18.69Z"/><path class="cls-5" d="M254.34,169.63H235.53v-3.46h18.81c4,0,7.21-2.64,7.21-5.89s-3.24-5.89-7.21-5.89H235.53v-3.45h18.81c5.88,0,10.66,4.19,10.66,9.34S260.22,169.63,254.34,169.63Z"/><rect class="cls-5" x="239.72" y="130.15" width="3.46" height="43.43"/><rect class="cls-5" x="246.78" y="130.15" width="3.46" height="7.5"/><rect class="cls-5" x="246.78" y="167.9" width="3.46" height="5.69"/><path class="cls-5" d="M249.41,187.09a35.22,35.22,0,1,1,35.22-35.22A35.26,35.26,0,0,1,249.41,187.09Zm0-67a31.77,31.77,0,1,0,31.76,31.77A31.8,31.8,0,0,0,249.41,120.1Z"/><path class="cls-5" d="M249.4,113.17a5.14,5.14,0,1,1,5.14-5.14A5.14,5.14,0,0,1,249.4,113.17Zm0-6.81a1.68,1.68,0,1,0,1.68,1.67A1.67,1.67,0,0,0,249.4,106.36Z"/><path class="cls-5" d="M271.27,119a5,5,0,0,1-2.55-.69,5.12,5.12,0,0,1-1.89-7,5.13,5.13,0,1,1,8.9,5.12h0a5.17,5.17,0,0,1-4.46,2.58Zm0-6.82a1.7,1.7,0,0,0-1.46.85,1.65,1.65,0,0,0-.16,1.27,1.67,1.67,0,0,0,3.07.4h0a1.68,1.68,0,0,0-.61-2.29A1.71,1.71,0,0,0,271.28,112.2Z"/><path class="cls-5" d="M287.33,135a5.14,5.14,0,0,1-4.45-2.56,5.13,5.13,0,0,1,1.86-7,5.13,5.13,0,1,1,5.15,8.88A5.05,5.05,0,0,1,287.33,135Zm0-6.81a1.59,1.59,0,0,0-.84.23,1.62,1.62,0,0,0-.78,1,1.64,1.64,0,0,0,.17,1.28,1.68,1.68,0,0,0,2.29.61h0a1.68,1.68,0,0,0-.84-3.13Z"/><path class="cls-5" d="M293.24,156.86a5.14,5.14,0,0,1,0-10.27h0a5.12,5.12,0,0,1,5.13,5.11,5.05,5.05,0,0,1-1.49,3.64,5.12,5.12,0,0,1-3.62,1.52Zm0-6.82h0a1.69,1.69,0,0,0-1.68,1.69,1.63,1.63,0,0,0,.5,1.18,1.84,1.84,0,0,0,1.18.49,1.71,1.71,0,0,0,1.19-.49,1.69,1.69,0,0,0-1.19-2.87Z"/><path class="cls-5" d="M287.46,178.75a5.13,5.13,0,0,1-4.45-7.68,5.14,5.14,0,1,1,4.45,7.68Zm0-6.81a1.68,1.68,0,1,0,1.45,2.51,1.67,1.67,0,0,0-1.45-2.51Z"/><path class="cls-5" d="M271.54,194.84a5.26,5.26,0,0,1-1.3-.16A5.14,5.14,0,1,1,276.5,191a5.12,5.12,0,0,1-5,3.83Zm0-6.81a1.75,1.75,0,0,0-.85.23,1.68,1.68,0,0,0-.6,2.3,1.68,1.68,0,0,0,3.07-.43,1.67,1.67,0,0,0-1.62-2.1Z"/><path class="cls-5" d="M227.78,195.14a5,5,0,0,1-2.52-.67,5.14,5.14,0,0,1-1.94-7h0a5.14,5.14,0,0,1,9.42,1.17,5.13,5.13,0,0,1-5,6.5Zm0-6.81a1.74,1.74,0,0,0-.45.06,1.67,1.67,0,0,0-1,.79h0a1.68,1.68,0,1,0,2.92,1.65,1.67,1.67,0,0,0-.63-2.28A1.64,1.64,0,0,0,227.79,188.33Z"/><path class="cls-5" d="M211.65,179.27a5.13,5.13,0,0,1-1.29-.17,5.13,5.13,0,0,1-1.33-9.39h0a5.14,5.14,0,1,1,2.62,9.56Zm-.86-6.58a1.62,1.62,0,0,0-.77,1,1.65,1.65,0,0,0,.18,1.27,1.7,1.7,0,0,0,1,.78,1.66,1.66,0,0,0,1.27-.18,1.68,1.68,0,1,0-1.7-2.89Z"/><path class="cls-5" d="M205.57,157.45a5.14,5.14,0,0,1,0-10.27,5,5,0,0,1,3.64,1.47,5.13,5.13,0,0,1-3.54,8.8Zm0-6.81h0a1.65,1.65,0,0,0-1.18.5,1.68,1.68,0,0,0,0,2.38,1.88,1.88,0,0,0,1.19.48,1.68,1.68,0,0,0,0-3.36Z"/><path class="cls-5" d="M211.19,135.52a5,5,0,0,1-2.51-.66,5.13,5.13,0,1,1,5-9h0a5.13,5.13,0,0,1,2,7A5.15,5.15,0,0,1,211.19,135.52Zm0-6.81a1.67,1.67,0,0,0-1.47.85,1.68,1.68,0,1,0,3.08.37,1.67,1.67,0,0,0-.79-1h0A1.72,1.72,0,0,0,211.2,128.71Z"/><path class="cls-5" d="M227,119.32a5.13,5.13,0,0,1-4.42-2.52,5.14,5.14,0,0,1,1.79-7,5.14,5.14,0,0,1,7,1.79,5.13,5.13,0,0,1-4.41,7.76Zm0-6.82a1.63,1.63,0,0,0-.85.24,1.68,1.68,0,1,0,1.27-.18A1.52,1.52,0,0,0,227,112.5Z"/><path class="cls-6" d="M92.28,217.43a30.26,30.26,0,1,0,30.26,30.26A30.26,30.26,0,0,0,92.28,217.43Zm0,53.11a22.86,22.86,0,1,1,22.86-22.85A22.85,22.85,0,0,1,92.28,270.54Z"/><rect class="cls-7" x="88.58" y="284.96" width="7.52" height="21.4"/><rect class="cls-6" x="88.58" y="284.96" width="2.85" height="21.4"/><path class="cls-5" d="M97.84,308.09h-11V283.23h11Zm-7.53-3.46h4.07V286.68H90.31Z"/><rect class="cls-5" x="90.62" y="277.69" width="3.46" height="5.95"/><path class="cls-5" d="M92.28,279.68a32,32,0,1,1,27.07-49.05l-2.92,1.85a28.68,28.68,0,0,0-4-5,28.53,28.53,0,1,0,7.26,12.34l3.33-.95a32,32,0,0,1-30.77,40.78Z"/><polygon class="cls-5" points="67.08 265.24 64.62 262.8 88.78 238.4 101.65 251.25 130.85 222.27 133.28 224.72 101.64 256.12 88.79 243.3 67.08 265.24"/><polygon class="cls-5" points="135.31 228.25 131.85 228.25 131.85 223.71 127.31 223.71 127.31 220.26 135.31 220.26 135.31 228.25"/><path class="cls-5" d="M80.16,285.65a40.12,40.12,0,1,1,40.55-66.59l-2.44,2.44a36.66,36.66,0,0,0-51.84,51.85,36.31,36.31,0,0,0,14.77,9Z"/><path class="cls-6" d="M394.93,307.44H110c-11.41,0,4.6-5.63,4.6-15.47h0c0-9.84,17.78-20.32,29.2-20.32H376.72c11.42,0,20.76,8.05,20.76,17.89h0C397.48,299.38,400.1,307.44,394.93,307.44Z"/><path class="cls-6" d="M219.26,244.33A27.32,27.32,0,1,1,191.94,217,27.32,27.32,0,0,1,219.26,244.33Z"/><path class="cls-6" d="M173,248.47a10.81,10.81,0,1,1-10.81-10.81A10.81,10.81,0,0,1,173,248.47Z"/><path class="cls-6" d="M167.67,260.77a15.94,15.94,0,1,1-15.94-15.93A15.94,15.94,0,0,1,167.67,260.77Z"/><path class="cls-6" d="M137.83,291.06a16.38,16.38,0,1,1-16.38-16.38A16.38,16.38,0,0,1,137.83,291.06Z"/><path class="cls-6" d="M120.72,294.15a13.29,13.29,0,1,1-13.29-13.29A13.29,13.29,0,0,1,120.72,294.15Z"/><path class="cls-6" d="M170,285.9a21.54,21.54,0,1,1-21.54-21.54A21.55,21.55,0,0,1,170,285.9Z"/><path class="cls-5" d="M126.93,287.63a1.73,1.73,0,0,1-1.73-1.73,23.3,23.3,0,0,1,9.91-19.06,1.73,1.73,0,1,1,2,2.83,19.85,19.85,0,0,0-8.45,16.23A1.73,1.73,0,0,1,126.93,287.63Z"/><path class="cls-6" d="M225.37,266.11a9,9,0,1,1-9-9A9,9,0,0,1,225.37,266.11Z"/><circle class="cls-6" cx="310.7" cy="243.19" r="24.87"/><path class="cls-6" d="M339.91,257.07c-.8,8.81-7.12,15.91-15.91,15.91a15.91,15.91,0,0,1,0-31.82C332.79,241.16,340.7,248.32,339.91,257.07Z"/><path class="cls-6" d="M324,268.06c-.79,8.81-7.12,15.91-15.91,15.91a15.91,15.91,0,0,1,0-31.82C316.85,252.15,324.76,259.31,324,268.06Z"/><path class="cls-6" d="M214.53,268.27c-1.52,8.81-13.59,15.91-30.34,15.91s-30.35-7.13-30.35-15.91,13.59-15.92,30.35-15.92S216,259.51,214.53,268.27Z"/><path class="cls-6" d="M371.67,260.92c-1.17,12.88-10.42,23.26-23.26,23.26a23.26,23.26,0,1,1,0-46.52C361.25,237.66,372.82,248.12,371.67,260.92Z"/><path class="cls-6" d="M395.68,286.53c-1.05,11.58-9.37,20.91-20.92,20.91a20.92,20.92,0,0,1,0-41.83C386.31,265.61,396.72,275,395.68,286.53Z"/><path class="cls-6" d="M410.27,292.41c-.76,8.32-6.73,15-15,15a15,15,0,0,1,0-30.06C403.54,277.38,411,284.15,410.27,292.41Z"/><path class="cls-6" d="M365.32,285c-1.12,12.42-10.05,22.44-22.44,22.44a22.44,22.44,0,0,1,0-44.88C355.27,262.56,366.44,272.65,365.32,285Z"/><path class="cls-6" d="M304.16,259.67a14.61,14.61,0,1,1-14.6-14.61A14.6,14.6,0,0,1,304.16,259.67Z"/><path class="cls-6" d="M285.32,272.47A8.52,8.52,0,1,1,276.8,264,8.53,8.53,0,0,1,285.32,272.47Z"/><path class="cls-5" d="M267.56,275a1.73,1.73,0,0,1-1.73-1.73A10.26,10.26,0,0,1,276.08,263a1.73,1.73,0,0,1,0,3.46,6.8,6.8,0,0,0-6.79,6.79A1.73,1.73,0,0,1,267.56,275Z"/><path class="cls-6" d="M250.31,277.91c0,5.44-7.61,9.85-17,9.85s-17-4.41-17-9.85,7.6-9.85,17-9.85S250.31,272.47,250.31,277.91Z"/><path class="cls-6" d="M348.88,238.38c0,6.31-10.72,23.17-10.72,15.42,0-6.31-11.45-5.12-11.45-11.44a11.45,11.45,0,0,1,11.45-11.44C344.47,230.92,348.88,232.06,348.88,238.38Z"/><path class="cls-5" d="M348.59,239.38a1.73,1.73,0,0,1-1.58-1,9.73,9.73,0,0,0-8.85-5.72,9.62,9.62,0,0,0-3.89.81,1.73,1.73,0,0,1-1.38-3.17,13,13,0,0,1,5.27-1.1,13.21,13.21,0,0,1,12,7.75,1.73,1.73,0,0,1-.86,2.29A1.81,1.81,0,0,1,348.59,239.38Z"/><path class="cls-5" d="M293.11,262.5a1.75,1.75,0,0,1-1.22-.5,26.6,26.6,0,1,1,45.41-18.81,1.73,1.73,0,1,1-3.46,0,23.14,23.14,0,1,0-39.5,16.36,1.73,1.73,0,0,1-1.23,2.95Z"/><path class="cls-5" d="M289.56,276a16.34,16.34,0,0,1-4.18-32.13,1.75,1.75,0,0,1,2.12,1.23,1.73,1.73,0,0,1-1.23,2.11,12.88,12.88,0,0,0,3.29,25.33,1.73,1.73,0,0,1,0,3.46Z"/><path class="cls-5" d="M205.47,269.79a1.73,1.73,0,0,1-.85-3.23,25.59,25.59,0,1,0-38.27-22.23,1.73,1.73,0,1,1-3.46,0,29,29,0,1,1,43.44,25.24A1.78,1.78,0,0,1,205.47,269.79Z"/><path class="cls-5" d="M157.05,240.66a1.73,1.73,0,0,1-.82-3.25,12.7,12.7,0,0,1,9.61-.93,1.73,1.73,0,0,1-1,3.31,9.11,9.11,0,0,0-7,.66A1.72,1.72,0,0,1,157.05,240.66Z"/><path class="cls-5" d="M216.33,276.88a1.73,1.73,0,1,1,0-3.46,7.31,7.31,0,0,0,0-14.62,1.73,1.73,0,0,1,0-3.46,10.77,10.77,0,0,1,0,21.54Z"/><path class="cls-6" d="M285.21,287.09H220.82l18.64-21V188.56h20l-.86,70.8a13.71,13.71,0,0,0,5.23,10.92Z"/><path class="cls-5" d="M268.86,271.93h-2.07a9.55,9.55,0,0,1-9.45-9.52V188.56h3.45v73.85a6.09,6.09,0,0,0,6,6.07h2.06Z"/><path class="cls-5" d="M232.42,270h-7.07v-3.45h7.07a5.31,5.31,0,0,0,5.31-5.31V188.56h3.45v72.67A8.77,8.77,0,0,1,232.42,270Z"/><path class="cls-5" d="M230.7,303.56a1.73,1.73,0,0,1-1.73-1.71,13.52,13.52,0,0,1,.93-5,13.22,13.22,0,0,1,7.09-7.34,13.15,13.15,0,0,1,5.17-1.11,14,14,0,0,1,5,.92A13.38,13.38,0,0,1,251.5,292a1.73,1.73,0,1,1-2.38,2.5,9.84,9.84,0,0,0-3.2-2,9.59,9.59,0,0,0-3.72-.69,9.9,9.9,0,0,0-9.77,10,1.73,1.73,0,0,1-1.71,1.75Z"/><path class="cls-5" d="M173,275.65a1.72,1.72,0,0,1-1.72-1.71,13.29,13.29,0,0,1,3.67-9.33,13,13,0,0,1,4.34-3,13.24,13.24,0,0,1,5.17-1.12,14.15,14.15,0,0,1,5,.93,13.21,13.21,0,0,1,4.31,2.75,1.73,1.73,0,1,1-2.38,2.5,9.91,9.91,0,0,0-3.19-2,10.19,10.19,0,0,0-3.73-.69,9.76,9.76,0,0,0-3.83.82,9.92,9.92,0,0,0-5.94,9.17,1.72,1.72,0,0,1-1.71,1.74Z"/><path class="cls-5" d="M319.71,268.84a1.87,1.87,0,0,1-.61-.11,1.73,1.73,0,0,1-1-2.23,9.89,9.89,0,0,0-.21-7.43,9.84,9.84,0,0,0-2.27-3.2,9.7,9.7,0,0,0-3.32-2.08,9.37,9.37,0,0,0-3.74-.61,9.55,9.55,0,0,0-3.69.83,1.73,1.73,0,1,1-1.39-3.17,13.29,13.29,0,0,1,5-1.12,13.81,13.81,0,0,1,5.05.83,13.36,13.36,0,0,1,7.83,17.16A1.73,1.73,0,0,1,319.71,268.84Z"/><path class="cls-5" d="M243.78,292.23h-.23a1.73,1.73,0,0,1-1.48-2,13.37,13.37,0,0,1,5.28-8.93,13.31,13.31,0,0,1,9.72-2.5,1.73,1.73,0,0,1-.46,3.43,9.63,9.63,0,0,0-3.78.22,9.89,9.89,0,0,0-7.34,8.24A1.72,1.72,0,0,1,243.78,292.23Z"/><path class="cls-5" d="M320.44,294.6a.9.9,0,0,1-.23,0,1.71,1.71,0,0,1-1.48-1.94,13.19,13.19,0,0,1,1.73-5,13.39,13.39,0,0,1,8.16-6.13,13.11,13.11,0,0,1,5.1-.3,1.74,1.74,0,0,1,1.49,1.94,1.71,1.71,0,0,1-1.95,1.48,10.05,10.05,0,0,0-3.78.23,9.9,9.9,0,0,0-7.33,8.24A1.73,1.73,0,0,1,320.44,294.6Z"/><path class="cls-5" d="M282.93,307.52a2,2,0,0,1-.54-.08,13.33,13.33,0,0,1-8.5-16.84,1.73,1.73,0,0,1,3.28,1.08,9.76,9.76,0,0,0-.47,3.76,9.9,9.9,0,0,0,3.36,6.77,9.74,9.74,0,0,0,3.41,1.94,1.73,1.73,0,0,1-.54,3.37Z"/><path class="cls-5" d="M140.46,273.77a1.72,1.72,0,0,1-1.22-.51A17.66,17.66,0,0,1,163,247.13a1.73,1.73,0,0,1-2.2,2.67,14.2,14.2,0,0,0-23.22,11,14.08,14.08,0,0,0,4.16,10.05,1.73,1.73,0,0,1-1.23,2.95Z"/><path class="cls-5" d="M358.16,283.68a1.73,1.73,0,0,1-.77-3.28c7-3.4,11.77-10.93,12.56-19.64a18.32,18.32,0,0,0-5-14.1A22.92,22.92,0,0,0,343.32,240a1.73,1.73,0,0,1-.81-3.36,24.74,24.74,0,0,1,5.9-.7,26.3,26.3,0,0,1,19.13,8.4,21.74,21.74,0,0,1,5.85,16.74c-.9,9.91-6.45,18.51-14.47,22.44A1.75,1.75,0,0,1,358.16,283.68Z"/><path class="cls-5" d="M105.07,292.79a1.73,1.73,0,0,1-1.72-1.73A18.13,18.13,0,0,1,121.45,273a17.87,17.87,0,0,1,8.07,1.9,1.73,1.73,0,1,1-1.54,3.09,14.41,14.41,0,0,0-6.53-1.53,14.66,14.66,0,0,0-14.65,14.65A1.73,1.73,0,0,1,105.07,292.79Z"/><path class="cls-5" d="M107.44,309.17a15,15,0,0,1-15-15c0-8,7.58-15,16.23-15a1.73,1.73,0,0,1,0,3.46c-6.69,0-12.78,5.51-12.78,11.56a11.58,11.58,0,0,0,11.57,11.56,1.73,1.73,0,0,1,0,3.46Z"/><path class="cls-5" d="M390.15,302a1.72,1.72,0,0,1-1.32-2.84A23.18,23.18,0,0,0,394,286.37a16.31,16.31,0,0,0-4.41-12.54,20.38,20.38,0,0,0-18.72-6.08,1.73,1.73,0,0,1-.71-3.39,23.91,23.91,0,0,1,22,7.14,19.68,19.68,0,0,1,5.3,15.18,26.26,26.26,0,0,1-5.93,14.66A1.73,1.73,0,0,1,390.15,302Z"/><path class="cls-5" d="M395.24,309.17a1.73,1.73,0,0,1,0-3.46c7,0,12.6-5.66,13.3-13.45a11.2,11.2,0,0,0-3-8.64,14.1,14.1,0,0,0-10.26-4.51,1.73,1.73,0,1,1,0-3.45,17.6,17.6,0,0,1,12.81,5.63A14.63,14.63,0,0,1,412,292.57C411.12,302.19,404.08,309.17,395.24,309.17Z"/><path class="cls-5" d="M469,309.17H44.62a1.73,1.73,0,1,1,0-3.46H469a1.73,1.73,0,0,1,0,3.46Z"/><path class="cls-5" d="M481.5,309.17h-6.27a1.73,1.73,0,0,1,0-3.46h6.27a1.73,1.73,0,0,1,0,3.46Z"/><path class="cls-5" d="M38.39,309.17H27.76a1.73,1.73,0,0,1,0-3.46H38.39a1.73,1.73,0,0,1,0,3.46Z"/></svg>