<svg id="Layer_1" data-name="Layer 1" xmlns="http://www.w3.org/2000/svg" viewBox="0 0 500 340"><defs><style>.cls-1{opacity:0.2;}.cls-2{fill:#80b1e0;}.cls-3{fill:#fff;}.cls-4{fill:#8fc4f9;}.cls-5{fill:#519fed;}.cls-6{opacity:0.6;}.cls-7{fill:#a5caef;}.cls-8{fill:#0f7cff;}.cls-9{opacity:0.3;}.cls-10{opacity:0.5;}.cls-11{fill:#92beea;}</style></defs><g class="cls-1"><path class="cls-2" d="M450.78,310.22A194.26,194.26,0,0,0,434,231a61.45,61.45,0,0,0-73.59-85.31,194,194,0,0,0-104.51-30.38q-7.18,0-14.24.52A50.19,50.19,0,0,0,164.59,138a196,196,0,0,0-40.65,28.8,55.63,55.63,0,0,0-55.36,89.52A194.89,194.89,0,0,0,61,310.22Z"/></g><g class="cls-1"><path class="cls-2" d="M397.47,310.22a141.56,141.56,0,0,0-283.12,0Z"/></g><g class="cls-1"><path class="cls-2" d="M470.49,235.83a11.1,11.1,0,1,1-11.1-11.09A11.1,11.1,0,0,1,470.49,235.83Z"/></g><g class="cls-1"><circle class="cls-2" cx="298.47" cy="97.4" r="17.1" transform="translate(134.9 365.38) rotate(-76.67)"/></g><g class="cls-1"><path class="cls-2" d="M142.34,139.17a7.33,7.33,0,1,1-7.33-7.33A7.33,7.33,0,0,1,142.34,139.17Z"/></g><g class="cls-1"><circle class="cls-2" cx="365.68" cy="125.75" r="7.32"/></g><g class="cls-1"><path class="cls-2" d="M211.51,76.22a7.33,7.33,0,1,1-7.33-7.33A7.33,7.33,0,0,1,211.51,76.22Z"/></g><g class="cls-1"><path class="cls-2" d="M458.39,262.68a3,3,0,1,1-3-3A3,3,0,0,1,458.39,262.68Z"/></g><g class="cls-1"><path class="cls-2" d="M364.48,74a2.26,2.26,0,1,1-2.25-2.26A2.26,2.26,0,0,1,364.48,74Z"/></g><g class="cls-1"><path class="cls-2" d="M140.85,85.2a2.94,2.94,0,1,1-2.93-2.93A2.93,2.93,0,0,1,140.85,85.2Z"/></g><g class="cls-1"><path class="cls-2" d="M18.72,150.81a3.91,3.91,0,1,1-3.9-3.91A3.91,3.91,0,0,1,18.72,150.81Z"/></g><g class="cls-1"><circle class="cls-2" cx="485.18" cy="179.44" r="3.91"/></g><g class="cls-1"><circle class="cls-2" cx="77.59" cy="135" r="16.57"/></g><g class="cls-1"><path class="cls-2" d="M32.73,255.81a3.91,3.91,0,1,1-3.91-3.91A3.91,3.91,0,0,1,32.73,255.81Z"/></g><g class="cls-1"><path class="cls-2" d="M464.35,139.17a16.06,16.06,0,1,1-16.06-16.06A16.06,16.06,0,0,1,464.35,139.17Z"/></g><g class="cls-1"><path class="cls-2" d="M44.6,211.75A15.78,15.78,0,1,1,28.82,196,15.78,15.78,0,0,1,44.6,211.75Z"/></g><rect class="cls-3" x="100.51" y="280.67" width="84.24" height="29.55"/><rect class="cls-4" x="100.51" y="280.67" width="84.24" height="14.77"/><rect class="cls-3" x="57.56" y="175.38" width="172.5" height="107.38" rx="4.01"/><path class="cls-5" d="M226.05,175.38a4,4,0,0,1,4,4V258.7H57.56V179.39a4,4,0,0,1,4-4Z"/><g class="cls-6"><polygon class="cls-7" points="89.3 258.69 111.34 258.69 194.66 175.38 172.62 175.38 89.3 258.69"/><polygon class="cls-7" points="114.99 175.38 57.56 232.81 57.56 258.69 77.74 258.69 161.05 175.38 114.99 175.38"/></g><path class="cls-8" d="M225.88,284.48H61.39a5.72,5.72,0,0,1-5.71-5.72V179.39a5.72,5.72,0,0,1,5.71-5.72H225.88a5.72,5.72,0,0,1,5.71,5.72v99.37A5.72,5.72,0,0,1,225.88,284.48ZM61.39,177.09a2.3,2.3,0,0,0-2.29,2.3v99.37a2.3,2.3,0,0,0,2.29,2.29H225.88a2.3,2.3,0,0,0,2.29-2.29V179.39a2.3,2.3,0,0,0-2.29-2.3Z"/><rect class="cls-8" x="98.8" y="282.76" width="3.42" height="27.45"/><rect class="cls-8" x="183.04" y="282.76" width="3.42" height="27.45"/><rect class="cls-8" x="85.47" y="308.5" width="115.25" height="3.42"/><rect class="cls-8" x="57.39" y="257.77" width="172.5" height="3.42"/><g class="cls-9"><path class="cls-8" d="M200.72,306.79H186.46v-24h39.42a5.71,5.71,0,0,0,5.71-5.71V195.69h-85a2.93,2.93,0,0,0-2.92,2.93v91.52h-7.05a2.61,2.61,0,0,0-2,.95,2.65,2.65,0,0,0-.55,2.15l3.27,17h63.38Z"/></g><rect class="cls-5" x="152.31" y="202.53" width="148.72" height="98.01"/><g class="cls-10"><polygon class="cls-7" points="246.1 202.53 229.5 202.53 152.31 279.72 152.31 296.32 246.1 202.53"/><polygon class="cls-7" points="152.31 229.69 152.31 268.97 218.75 202.53 179.47 202.53 152.31 229.69"/></g><path class="cls-3" d="M305.89,310.22H146.41a.72.72,0,0,1-.71-.59l-3.42-17.77a.83.83,0,0,1,.82-1H215l3.72,3.71h14.86l3.71-3.71H309.2a.82.82,0,0,1,.81,1l-3.41,17.77A.72.72,0,0,1,305.89,310.22Z"/><path class="cls-8" d="M305.89,311.93H146.41a2.44,2.44,0,0,1-2.39-2l-3.41-17.77a2.53,2.53,0,0,1,2.49-3h72.61l3.72,3.71h13.44l3.71-3.71H309.2a2.53,2.53,0,0,1,2.49,3L308.28,310A2.43,2.43,0,0,1,305.89,311.93ZM147.22,308.5H305.07l3.06-15.91H238l-3.71,3.72H218l-3.72-3.72H144.17Z"/><path class="cls-8" d="M302.78,291.16h-3.42V205H152.94v86.2h-3.42V204.38a2.84,2.84,0,0,1,2.83-2.84H300a2.84,2.84,0,0,1,2.83,2.84Z"/><path class="cls-8" d="M438.55,112.65H351.66a1.71,1.71,0,0,1,0-3.42h86.89a1.71,1.71,0,0,1,0,3.42Z"/><path class="cls-8" d="M94.49,136.71H34.3a1.71,1.71,0,1,1,0-3.42H94.49a1.71,1.71,0,0,1,0,3.42Z"/><path class="cls-8" d="M166.64,113.48H66.15a1.71,1.71,0,0,1,0-3.42H166.64a1.71,1.71,0,1,1,0,3.42Z"/><path class="cls-8" d="M181.66,113.48h-8.17a1.71,1.71,0,0,1,0-3.42h8.17a1.71,1.71,0,1,1,0,3.42Z"/><path class="cls-8" d="M342.53,112.65H335a1.71,1.71,0,0,1,0-3.42h7.54a1.71,1.71,0,1,1,0,3.42Z"/><path class="cls-8" d="M323.75,112.65H314a1.71,1.71,0,1,1,0-3.42h9.75a1.71,1.71,0,1,1,0,3.42Z"/><path class="cls-8" d="M318.87,117.53a1.72,1.72,0,0,1-1.71-1.71v-9.75a1.71,1.71,0,1,1,3.42,0v9.75A1.71,1.71,0,0,1,318.87,117.53Z"/><path class="cls-8" d="M473.06,248.92h-9.75a1.71,1.71,0,0,1,0-3.42h9.75a1.71,1.71,0,0,1,0,3.42Z"/><path class="cls-8" d="M468.19,253.8a1.71,1.71,0,0,1-1.71-1.72v-9.75a1.71,1.71,0,1,1,3.42,0v9.75A1.72,1.72,0,0,1,468.19,253.8Z"/><path class="cls-8" d="M200.25,113.48H190.5a1.71,1.71,0,1,1,0-3.42h9.75a1.71,1.71,0,1,1,0,3.42Z"/><path class="cls-8" d="M195.37,118.36a1.72,1.72,0,0,1-1.71-1.71v-9.76a1.71,1.71,0,0,1,3.42,0v9.76A1.71,1.71,0,0,1,195.37,118.36Z"/><path class="cls-8" d="M400.37,163.48h-9.75a1.71,1.71,0,0,1,0-3.42h9.75a1.71,1.71,0,0,1,0,3.42Z"/><path class="cls-8" d="M395.49,168.36a1.72,1.72,0,0,1-1.71-1.71V156.9a1.71,1.71,0,1,1,3.42,0v9.75A1.71,1.71,0,0,1,395.49,168.36Z"/><path class="cls-8" d="M222.7,93.3a1.73,1.73,0,0,1-1.21-.5,1.71,1.71,0,0,1,0-2.42l6.9-6.9a1.73,1.73,0,0,1,2.42,0,1.71,1.71,0,0,1,0,2.42l-6.9,6.9A1.71,1.71,0,0,1,222.7,93.3Z"/><path class="cls-8" d="M229.6,93.3a1.71,1.71,0,0,1-1.21-.5l-6.9-6.9a1.71,1.71,0,0,1,0-2.42,1.73,1.73,0,0,1,2.42,0l6.9,6.9a1.71,1.71,0,0,1,0,2.42A1.73,1.73,0,0,1,229.6,93.3Z"/><path class="cls-8" d="M187.05,160.39a1.73,1.73,0,0,1-1.21-.5,1.71,1.71,0,0,1,0-2.42l6.9-6.9a1.71,1.71,0,0,1,2.42,2.42l-6.9,6.9A1.71,1.71,0,0,1,187.05,160.39Z"/><path class="cls-8" d="M194,160.39a1.71,1.71,0,0,1-1.21-.5l-6.9-6.9a1.71,1.71,0,0,1,0-2.42,1.73,1.73,0,0,1,2.42,0l6.9,6.9a1.73,1.73,0,0,1,0,2.42A1.75,1.75,0,0,1,194,160.39Z"/><path class="cls-8" d="M107.67,140.16a1.71,1.71,0,0,1-1.2-2.92l6.89-6.9a1.71,1.71,0,0,1,2.42,2.42l-6.9,6.9A1.71,1.71,0,0,1,107.67,140.16Z"/><path class="cls-8" d="M114.57,140.16a1.71,1.71,0,0,1-1.21-.5l-6.89-6.9a1.71,1.71,0,0,1,2.41-2.42l6.9,6.9a1.71,1.71,0,0,1,0,2.42A1.73,1.73,0,0,1,114.57,140.16Z"/><polygon class="cls-8" points="36.98 177.08 34.3 178.63 31.61 177.08 31.61 173.98 34.3 172.43 36.98 173.98 36.98 177.08"/><polygon class="cls-8" points="474.54 183.24 471.85 184.79 469.17 183.24 469.17 180.14 471.85 178.59 474.54 180.14 474.54 183.24"/><polygon class="cls-8" points="256.06 180.99 253.38 182.54 250.69 180.99 250.69 177.88 253.38 176.33 256.06 177.88 256.06 180.99"/><polygon class="cls-8" points="274.74 87.09 268.71 90.58 262.68 87.09 262.68 80.13 268.71 76.65 274.74 80.13 274.74 87.09"/><polygon class="cls-8" points="56.31 102.96 52.35 105.24 48.39 102.96 48.39 98.39 52.35 96.1 56.31 98.39 56.31 102.96"/><polygon class="cls-8" points="401.43 90.5 397.47 92.79 393.51 90.5 393.51 85.93 397.47 83.64 401.43 85.93 401.43 90.5"/><polygon class="cls-8" points="306.18 162.09 302.22 164.37 298.26 162.09 298.26 157.52 302.22 155.23 306.18 157.52 306.18 162.09"/><path class="cls-8" d="M465.72,135H385.53a1.71,1.71,0,1,1,0-3.42h80.19a1.71,1.71,0,0,1,0,3.42Z"/><g class="cls-9"><path class="cls-8" d="M308.28,308.24l3.41-17.77a2.53,2.53,0,0,0-2.49-3h-6.42V202.67a2.84,2.84,0,0,0-2.83-2.84H256.33v39a9.63,9.63,0,0,0,4.31,8,9.58,9.58,0,0,0-4.48,8.09v45.67a9.62,9.62,0,0,0,9.61,9.61h40.12A2.44,2.44,0,0,0,308.28,308.24Z"/></g><path class="cls-3" d="M318.29,248.75H272.61a7.9,7.9,0,0,0-7.89,7.9v45.67a7.9,7.9,0,0,0,7.89,7.9h45a8.56,8.56,0,0,0,8.56-8.56v-45A7.9,7.9,0,0,0,318.29,248.75Z"/><path class="cls-8" d="M317.62,311.93h-45a9.62,9.62,0,0,1-9.6-9.61V256.65a9.62,9.62,0,0,1,9.6-9.61h45.68a9.62,9.62,0,0,1,9.6,9.61v45A10.29,10.29,0,0,1,317.62,311.93Zm-45-61.47a6.19,6.19,0,0,0-6.18,6.19v45.67a6.18,6.18,0,0,0,6.18,6.18h45a6.85,6.85,0,0,0,6.85-6.84v-45a6.19,6.19,0,0,0-6.18-6.19Z"/><path class="cls-5" d="M318.83,279.48a23.38,23.38,0,1,1-23.38-23.38A23.39,23.39,0,0,1,318.83,279.48Z"/><path class="cls-3" d="M298.35,279.48a2.9,2.9,0,1,1-2.9-2.9A2.9,2.9,0,0,1,298.35,279.48Z"/><path class="cls-8" d="M295.45,284.1a4.62,4.62,0,1,1,4.61-4.62A4.62,4.62,0,0,1,295.45,284.1Zm0-5.8a1.19,1.19,0,1,0,1.19,1.18A1.18,1.18,0,0,0,295.45,278.3Z"/><path class="cls-8" d="M295.45,304.58a25.1,25.1,0,1,1,25.09-25.1A25.12,25.12,0,0,1,295.45,304.58Zm0-46.77a21.68,21.68,0,1,0,21.67,21.67A21.7,21.7,0,0,0,295.45,257.81Z"/><path class="cls-3" d="M301.5,274.74l-5-3.1a5.26,5.26,0,0,1-1.75-1.79l-5-8.48a.39.39,0,0,1,.33-.59h10.46a1.52,1.52,0,0,1,1.51,1.51v12.14A.36.36,0,0,1,301.5,274.74Z"/><path class="cls-3" d="M290.84,273.33l-3.21,4.89a5.29,5.29,0,0,1-1.82,1.7l-8.6,4.85a.39.39,0,0,1-.58-.35l.24-10.45a1.51,1.51,0,0,1,1.54-1.48l12.14.28A.36.36,0,0,1,290.84,273.33Z"/><path class="cls-3" d="M289.19,284l4.81,3.32a5.15,5.15,0,0,1,1.66,1.87l4.65,8.7a.39.39,0,0,1-.36.58l-10.44-.48a1.51,1.51,0,0,1-1.44-1.58l.55-12.13A.37.37,0,0,1,289.19,284Z"/><path class="cls-3" d="M299.77,285.84l3.43-4.73a5.4,5.4,0,0,1,1.9-1.62l8.82-4.45a.39.39,0,0,1,.56.38l-.72,10.43a1.51,1.51,0,0,1-1.61,1.4L300,286.42A.36.36,0,0,1,299.77,285.84Z"/><path class="cls-8" d="M301.69,276.5a2.06,2.06,0,0,1-1.1-.31l-5-3.1a7.14,7.14,0,0,1-2.31-2.36l-5-8.49a2.07,2.07,0,0,1,0-2.11,2.11,2.11,0,0,1,1.82-1.06h10.46a3.22,3.22,0,0,1,3.22,3.22v12.14a2.08,2.08,0,0,1-1.07,1.82A2.06,2.06,0,0,1,301.69,276.5Zm-9.28-14,3.85,6.49a3.62,3.62,0,0,0,1.19,1.21l2.89,1.81v-9.51Z"/><path class="cls-8" d="M277,286.53a2.1,2.1,0,0,1-2.1-2.15l.23-10.45a3.23,3.23,0,0,1,3.3-3.15l12.14.28a2.07,2.07,0,0,1,1.68,3.21l-3.21,4.89a7.11,7.11,0,0,1-2.41,2.25l-8.6,4.85A2.11,2.11,0,0,1,277,286.53Zm1.55-12.32-.18,7.93,6.58-3.71a3.66,3.66,0,0,0,1.23-1.15l1.88-2.85Z"/><path class="cls-8" d="M300,300.13h-.09l-10.45-.49a3.23,3.23,0,0,1-3.07-3.36l.55-12.13a2.07,2.07,0,0,1,3.25-1.61l4.82,3.33a7,7,0,0,1,2.19,2.46l4.65,8.71a2.1,2.1,0,0,1-1.85,3.09Zm-10.18-3.89,7.92.36-3.56-6.66a3.48,3.48,0,0,0-1.12-1.26l-2.81-1.94Z"/><path class="cls-8" d="M312.25,289H312l-12.11-.84a2,2,0,0,1-1.73-1.19,2.07,2.07,0,0,1,.19-2.09l3.44-4.74a6.88,6.88,0,0,1,2.51-2.13l8.81-4.46a2.11,2.11,0,0,1,3.05,2L315.47,286A3.23,3.23,0,0,1,312.25,289Zm-9.67-4.09,9.49.65.54-7.91-6.74,3.4a3.64,3.64,0,0,0-1.28,1.09Z"/><rect class="cls-8" x="268.71" y="252.88" width="4.44" height="3.42"/><rect class="cls-8" x="317.47" y="252.88" width="4.44" height="3.42"/><rect class="cls-8" x="268.71" y="301.83" width="4.44" height="3.42"/><rect class="cls-8" x="317.47" y="301.83" width="4.44" height="3.42"/><path class="cls-3" d="M380.08,248.75H334.41a7.9,7.9,0,0,0-7.9,7.9v45.67a7.9,7.9,0,0,0,7.9,7.9h45a8.57,8.57,0,0,0,8.56-8.56v-45A7.9,7.9,0,0,0,380.08,248.75Z"/><path class="cls-8" d="M379.42,311.93h-45a9.62,9.62,0,0,1-9.61-9.61V256.65a9.62,9.62,0,0,1,9.61-9.61h45.67a9.62,9.62,0,0,1,9.61,9.61v45A10.29,10.29,0,0,1,379.42,311.93Zm-45-61.47a6.2,6.2,0,0,0-6.19,6.19v45.67a6.19,6.19,0,0,0,6.19,6.18h45a6.86,6.86,0,0,0,6.85-6.84v-45a6.2,6.2,0,0,0-6.19-6.19Z"/><circle class="cls-5" cx="357.25" cy="279.48" r="23.38" transform="translate(-92.99 334.47) rotate(-45)"/><path class="cls-3" d="M360.15,279.48a2.91,2.91,0,1,1-2.9-2.9A2.9,2.9,0,0,1,360.15,279.48Z"/><path class="cls-8" d="M357.24,284.1a4.62,4.62,0,1,1,4.62-4.62A4.62,4.62,0,0,1,357.24,284.1Zm0-5.8a1.19,1.19,0,1,0,1.19,1.18A1.18,1.18,0,0,0,357.24,278.3Z"/><path class="cls-8" d="M357.24,304.58a25.1,25.1,0,1,1,25.1-25.1A25.13,25.13,0,0,1,357.24,304.58Zm0-46.77a21.68,21.68,0,1,0,21.68,21.67A21.71,21.71,0,0,0,357.24,257.81Z"/><path class="cls-3" d="M363.29,274.74l-5-3.1a5.32,5.32,0,0,1-1.74-1.79l-5-8.48a.39.39,0,0,1,.34-.59h10.45a1.52,1.52,0,0,1,1.52,1.51v12.14A.37.37,0,0,1,363.29,274.74Z"/><path class="cls-3" d="M352.64,273.33l-3.21,4.89a5.32,5.32,0,0,1-1.83,1.7l-8.6,4.85a.39.39,0,0,1-.58-.35l.24-10.45a1.51,1.51,0,0,1,1.55-1.48l12.13.28A.36.36,0,0,1,352.64,273.33Z"/><path class="cls-3" d="M351,284l4.81,3.32a5.34,5.34,0,0,1,1.66,1.87l4.65,8.7a.4.4,0,0,1-.36.58l-10.45-.48a1.52,1.52,0,0,1-1.44-1.58l.56-12.13A.36.36,0,0,1,351,284Z"/><path class="cls-3" d="M361.57,285.84l3.43-4.73a5.31,5.31,0,0,1,1.9-1.62l8.81-4.45a.39.39,0,0,1,.56.38l-.71,10.43a1.51,1.51,0,0,1-1.62,1.4l-12.11-.83A.36.36,0,0,1,361.57,285.84Z"/><path class="cls-8" d="M363.49,276.5a2.09,2.09,0,0,1-1.11-.31l-4.95-3.1a7,7,0,0,1-2.31-2.36l-5.05-8.49a2.1,2.1,0,0,1,1.81-3.17h10.45a3.23,3.23,0,0,1,3.23,3.22v12.14a2.05,2.05,0,0,1-2.07,2.07Zm-9.29-14,3.86,6.49a3.69,3.69,0,0,0,1.18,1.21l2.9,1.81v-9.51Z"/><path class="cls-8" d="M338.81,286.53a2.1,2.1,0,0,1-2.1-2.15l.24-10.45a3.24,3.24,0,0,1,1-2.26,3.36,3.36,0,0,1,2.3-.89l12.13.28a2.08,2.08,0,0,1,1.79,1.1,2.1,2.1,0,0,1-.1,2.11l-3.21,4.89a7.24,7.24,0,0,1-2.42,2.25l-8.6,4.85A2.09,2.09,0,0,1,338.81,286.53Zm1.56-12.32-.18,7.93,6.57-3.71a3.69,3.69,0,0,0,1.24-1.15l1.87-2.85Z"/><path class="cls-8" d="M361.77,300.13h-.1l-10.44-.49a3.23,3.23,0,0,1-3.08-3.36l.56-12.13a2.07,2.07,0,0,1,1.15-1.76,2.11,2.11,0,0,1,2.1.15l4.81,3.33a7.13,7.13,0,0,1,2.2,2.46l4.65,8.71a2.1,2.1,0,0,1-1.85,3.09Zm-10.19-3.89,7.93.36L356,289.94a3.67,3.67,0,0,0-1.12-1.26L352,286.74Z"/><path class="cls-8" d="M374.05,289h-.23l-12.1-.84a2.07,2.07,0,0,1-1.54-3.28l3.43-4.74a7,7,0,0,1,2.52-2.13l8.81-4.46a2.12,2.12,0,0,1,2.12.14,2.08,2.08,0,0,1,.92,1.89L377.26,286a3.22,3.22,0,0,1-3.21,3Zm-9.67-4.09,9.48.65.55-7.91-6.74,3.4a3.67,3.67,0,0,0-1.29,1.09Z"/><rect class="cls-8" x="330.51" y="252.88" width="4.44" height="3.42"/><rect class="cls-8" x="379.26" y="252.88" width="4.44" height="3.42"/><rect class="cls-8" x="330.51" y="301.83" width="4.44" height="3.42"/><rect class="cls-8" x="379.26" y="301.83" width="4.44" height="3.42"/><path class="cls-3" d="M441.54,248.75H395.87a7.9,7.9,0,0,0-7.89,7.9v45.67a7.9,7.9,0,0,0,7.89,7.9h45a8.56,8.56,0,0,0,8.56-8.56v-45A7.9,7.9,0,0,0,441.54,248.75Z"/><path class="cls-8" d="M440.88,311.93h-45a9.61,9.61,0,0,1-9.6-9.61V256.65a9.61,9.61,0,0,1,9.6-9.61h45.67a9.62,9.62,0,0,1,9.61,9.61v45A10.29,10.29,0,0,1,440.88,311.93Zm-45-61.47a6.19,6.19,0,0,0-6.18,6.19v45.67a6.18,6.18,0,0,0,6.18,6.18h45a6.85,6.85,0,0,0,6.85-6.84v-45a6.2,6.2,0,0,0-6.19-6.19Z"/><path class="cls-5" d="M442.09,279.48a23.38,23.38,0,1,1-23.38-23.38A23.39,23.39,0,0,1,442.09,279.48Z"/><path class="cls-3" d="M421.61,279.48a2.9,2.9,0,1,1-2.9-2.9A2.9,2.9,0,0,1,421.61,279.48Z"/><path class="cls-8" d="M418.71,284.1a4.62,4.62,0,1,1,4.61-4.62A4.61,4.61,0,0,1,418.71,284.1Zm0-5.8a1.19,1.19,0,1,0,1.19,1.18A1.18,1.18,0,0,0,418.71,278.3Z"/><path class="cls-8" d="M418.71,304.58a25.1,25.1,0,1,1,25.09-25.1A25.13,25.13,0,0,1,418.71,304.58Zm0-46.77a21.68,21.68,0,1,0,21.67,21.67A21.7,21.7,0,0,0,418.71,257.81Z"/><path class="cls-3" d="M424.75,274.74l-4.95-3.1a5.26,5.26,0,0,1-1.75-1.79l-5-8.48a.39.39,0,0,1,.33-.59H423.8a1.52,1.52,0,0,1,1.51,1.51v12.14A.37.37,0,0,1,424.75,274.74Z"/><path class="cls-3" d="M414.1,273.33l-3.21,4.89a5.32,5.32,0,0,1-1.83,1.7l-8.6,4.85a.39.39,0,0,1-.58-.35l.24-10.45a1.52,1.52,0,0,1,1.55-1.48l12.13.28A.36.36,0,0,1,414.1,273.33Z"/><path class="cls-3" d="M412.45,284l4.81,3.32a5.34,5.34,0,0,1,1.66,1.87l4.65,8.7a.4.4,0,0,1-.36.58l-10.44-.48a1.52,1.52,0,0,1-1.45-1.58l.56-12.13A.36.36,0,0,1,412.45,284Z"/><path class="cls-3" d="M423,285.84l3.43-4.73a5.4,5.4,0,0,1,1.9-1.62l8.81-4.45a.4.4,0,0,1,.57.38L437,285.85a1.51,1.51,0,0,1-1.62,1.4l-12.1-.83A.36.36,0,0,1,423,285.84Z"/><path class="cls-8" d="M425,276.5a2.09,2.09,0,0,1-1.11-.31l-4.95-3.1a7,7,0,0,1-2.31-2.36l-5.05-8.49a2.1,2.1,0,0,1,1.81-3.17H423.8a3.22,3.22,0,0,1,3.22,3.22v12.14A2.05,2.05,0,0,1,425,276.5Zm-9.29-14,3.86,6.49a3.69,3.69,0,0,0,1.18,1.21l2.9,1.81v-9.51Z"/><path class="cls-8" d="M400.28,286.53a2.07,2.07,0,0,1-1.08-.3,2.11,2.11,0,0,1-1-1.85l.24-10.45a3.24,3.24,0,0,1,1-2.26,3.34,3.34,0,0,1,2.3-.89l12.13.28a2.05,2.05,0,0,1,1.79,1.1,2.1,2.1,0,0,1-.1,2.11l-3.21,4.89a7.05,7.05,0,0,1-2.42,2.25l-8.59,4.85A2.11,2.11,0,0,1,400.28,286.53Zm1.55-12.32-.18,7.93,6.57-3.71a3.6,3.6,0,0,0,1.24-1.15l1.87-2.85Z"/><path class="cls-8" d="M423.23,300.13h-.09l-10.45-.49a3.2,3.2,0,0,1-3.07-3.36l.55-12.13a2.07,2.07,0,0,1,3.25-1.61l4.81,3.33a6.93,6.93,0,0,1,2.2,2.46l4.65,8.71a2.1,2.1,0,0,1-1.85,3.09ZM413,296.24l7.93.36-3.56-6.66a3.67,3.67,0,0,0-1.12-1.26l-2.81-1.94Z"/><path class="cls-8" d="M435.51,289h-.22l-12.11-.84a2.07,2.07,0,0,1-1.54-3.28l3.44-4.74a6.88,6.88,0,0,1,2.51-2.13l8.81-4.46a2.12,2.12,0,0,1,2.11.13,2.09,2.09,0,0,1,.93,1.9L438.72,286A3.21,3.21,0,0,1,435.51,289Zm-9.67-4.09,9.49.65.54-7.91-6.74,3.4a3.55,3.55,0,0,0-1.28,1.09Z"/><rect class="cls-8" x="391.97" y="252.88" width="4.43" height="3.42"/><rect class="cls-8" x="440.73" y="252.88" width="4.44" height="3.42"/><rect class="cls-8" x="391.97" y="301.83" width="4.43" height="3.42"/><rect class="cls-8" x="440.73" y="301.83" width="4.44" height="3.42"/><path class="cls-3" d="M318.45,187H272.78a7.89,7.89,0,0,0-7.89,7.89v45.67a7.9,7.9,0,0,0,7.89,7.9h45a8.56,8.56,0,0,0,8.56-8.56v-45A7.9,7.9,0,0,0,318.45,187Z"/><path class="cls-8" d="M317.79,250.16h-45a9.62,9.62,0,0,1-9.61-9.6V194.88a9.62,9.62,0,0,1,9.61-9.6h45.67a9.62,9.62,0,0,1,9.61,9.6v45A10.29,10.29,0,0,1,317.79,250.16Zm-45-61.46a6.18,6.18,0,0,0-6.18,6.18v45.68a6.18,6.18,0,0,0,6.18,6.18h45a6.86,6.86,0,0,0,6.85-6.85v-45a6.19,6.19,0,0,0-6.19-6.18Z"/><path class="cls-5" d="M319,217.72a23.39,23.39,0,1,1-23.38-23.38A23.38,23.38,0,0,1,319,217.72Z"/><path class="cls-3" d="M298.52,217.72a2.9,2.9,0,1,1-2.9-2.9A2.9,2.9,0,0,1,298.52,217.72Z"/><path class="cls-8" d="M295.62,222.33a4.61,4.61,0,1,1,4.61-4.61A4.62,4.62,0,0,1,295.62,222.33Zm0-5.8a1.19,1.19,0,1,0,0,2.38,1.19,1.19,0,0,0,0-2.38Z"/><path class="cls-8" d="M295.62,242.81a25.09,25.09,0,1,1,25.09-25.09A25.13,25.13,0,0,1,295.62,242.81Zm0-46.76a21.67,21.67,0,1,0,21.67,21.67A21.69,21.69,0,0,0,295.62,196.05Z"/><path class="cls-3" d="M301.66,213l-5-3.1a5.38,5.38,0,0,1-1.74-1.78l-5-8.49a.39.39,0,0,1,.34-.59h10.46a1.52,1.52,0,0,1,1.51,1.52v12.13A.36.36,0,0,1,301.66,213Z"/><path class="cls-3" d="M291,211.56l-3.21,4.89a5.23,5.23,0,0,1-1.83,1.7l-8.6,4.85a.39.39,0,0,1-.58-.34L277,212.2a1.52,1.52,0,0,1,1.55-1.48l12.13.28A.37.37,0,0,1,291,211.56Z"/><path class="cls-3" d="M289.36,222.18l4.81,3.33a5.39,5.39,0,0,1,1.66,1.86l4.65,8.71a.39.39,0,0,1-.36.57l-10.44-.48a1.52,1.52,0,0,1-1.45-1.58l.56-12.12A.36.36,0,0,1,289.36,222.18Z"/><path class="cls-3" d="M299.94,224.08l3.43-4.74a5.37,5.37,0,0,1,1.9-1.61l8.81-4.45a.39.39,0,0,1,.57.37l-.72,10.43a1.52,1.52,0,0,1-1.62,1.41l-12.1-.84A.36.36,0,0,1,299.94,224.08Z"/><path class="cls-8" d="M301.86,214.74a2.1,2.1,0,0,1-1.11-.32l-4.95-3.1a7,7,0,0,1-2.31-2.36l-5.05-8.48a2.11,2.11,0,0,1,1.81-3.18h10.46a3.23,3.23,0,0,1,3.22,3.23v12.13a2.08,2.08,0,0,1-2.07,2.08Zm-9.29-14,3.86,6.48a3.59,3.59,0,0,0,1.18,1.21l2.9,1.81v-9.5Z"/><path class="cls-8" d="M277.18,224.76a2.1,2.1,0,0,1-2.1-2.14l.24-10.46a3.28,3.28,0,0,1,3.3-3.15l12.13.28a2.08,2.08,0,0,1,1.69,3.21h0l-3.21,4.89a7,7,0,0,1-2.42,2.25l-8.6,4.85A2.09,2.09,0,0,1,277.18,224.76Zm1.56-12.32-.18,7.93,6.57-3.71a3.5,3.5,0,0,0,1.24-1.15l1.87-2.85Z"/><path class="cls-8" d="M300.14,238.36H300l-10.43-.48a3.23,3.23,0,0,1-3.08-3.37l.56-12.12a2.1,2.1,0,0,1,1.15-1.77,2.08,2.08,0,0,1,2.1.16l4.81,3.32a6.93,6.93,0,0,1,2.2,2.46l4.65,8.71a2.1,2.1,0,0,1-1.85,3.09ZM290,234.47l7.93.36-3.56-6.66a3.54,3.54,0,0,0-1.12-1.25L290.39,225Z"/><path class="cls-8" d="M312.42,227.2h-.22l-12.11-.83a2.07,2.07,0,0,1-1.54-3.28l3.44-4.74a7,7,0,0,1,2.51-2.14l8.81-4.45a2.1,2.1,0,0,1,3,2l-.72,10.43A3.22,3.22,0,0,1,312.42,227.2Zm-9.67-4.09,9.48.66.55-7.92-6.74,3.4a3.58,3.58,0,0,0-1.28,1.1Z"/><rect class="cls-8" x="268.88" y="191.12" width="4.43" height="3.42"/><rect class="cls-8" x="317.64" y="191.12" width="4.43" height="3.42"/><rect class="cls-8" x="268.88" y="240.07" width="4.43" height="3.42"/><rect class="cls-8" x="317.64" y="240.07" width="4.43" height="3.42"/><path class="cls-3" d="M380.25,187H334.58a7.9,7.9,0,0,0-7.9,7.89v45.67a7.9,7.9,0,0,0,7.9,7.9h45a8.56,8.56,0,0,0,8.56-8.56v-45A7.89,7.89,0,0,0,380.25,187Z"/><path class="cls-8" d="M379.58,250.16h-45a9.62,9.62,0,0,1-9.61-9.6V194.88a9.62,9.62,0,0,1,9.61-9.6h45.67a9.61,9.61,0,0,1,9.6,9.6v45A10.28,10.28,0,0,1,379.58,250.16Zm-45-61.46a6.19,6.19,0,0,0-6.19,6.18v45.68a6.19,6.19,0,0,0,6.19,6.18h45a6.85,6.85,0,0,0,6.85-6.85v-45a6.18,6.18,0,0,0-6.18-6.18Z"/><path class="cls-5" d="M380.79,217.72a23.38,23.38,0,1,1-23.38-23.38A23.38,23.38,0,0,1,380.79,217.72Z"/><path class="cls-3" d="M360.31,217.72a2.9,2.9,0,1,1-2.9-2.9A2.9,2.9,0,0,1,360.31,217.72Z"/><path class="cls-8" d="M357.41,222.33a4.61,4.61,0,1,1,4.61-4.61A4.62,4.62,0,0,1,357.41,222.33Zm0-5.8a1.19,1.19,0,1,0,1.19,1.19A1.19,1.19,0,0,0,357.41,216.53Z"/><path class="cls-8" d="M357.41,242.81a25.09,25.09,0,1,1,25.09-25.09A25.12,25.12,0,0,1,357.41,242.81Zm0-46.76a21.67,21.67,0,1,0,21.67,21.67A21.69,21.69,0,0,0,357.41,196.05Z"/><path class="cls-3" d="M363.46,213l-5-3.1a5.38,5.38,0,0,1-1.74-1.78l-5.05-8.49A.39.39,0,0,1,352,199H362.5a1.51,1.51,0,0,1,1.51,1.52v12.13A.36.36,0,0,1,363.46,213Z"/><path class="cls-3" d="M352.8,211.56l-3.21,4.89a5.2,5.2,0,0,1-1.82,1.7l-8.6,4.85a.39.39,0,0,1-.58-.34l.24-10.46a1.52,1.52,0,0,1,1.55-1.48l12.13.28A.36.36,0,0,1,352.8,211.56Z"/><path class="cls-3" d="M351.15,222.18l4.82,3.33a5.39,5.39,0,0,1,1.66,1.86l4.65,8.71a.39.39,0,0,1-.36.57l-10.45-.48a1.52,1.52,0,0,1-1.44-1.58l.56-12.12A.36.36,0,0,1,351.15,222.18Z"/><path class="cls-3" d="M361.73,224.08l3.44-4.74a5.25,5.25,0,0,1,1.89-1.61l8.82-4.45a.38.38,0,0,1,.56.37l-.72,10.43a1.51,1.51,0,0,1-1.61,1.41L362,224.65A.36.36,0,0,1,361.73,224.08Z"/><path class="cls-8" d="M363.65,214.74a2.1,2.1,0,0,1-1.1-.32l-5-3.1a6.93,6.93,0,0,1-2.3-2.36l-5.05-8.48a2.1,2.1,0,0,1,1.81-3.18H362.5a3.23,3.23,0,0,1,3.22,3.23v12.13a2.08,2.08,0,0,1-2.07,2.08Zm-9.28-14,3.86,6.48a3.57,3.57,0,0,0,1.17,1.21l2.9,1.81v-9.5Z"/><path class="cls-8" d="M339,224.76a2.13,2.13,0,0,1-1.09-.3,2.08,2.08,0,0,1-1-1.84l.24-10.46a3.33,3.33,0,0,1,3.29-3.15l12.14.28a2.07,2.07,0,0,1,1.68,3.22L351,217.39a6.93,6.93,0,0,1-2.41,2.25l-8.6,4.85A2.11,2.11,0,0,1,339,224.76Zm1.55-12.32-.18,7.93,6.58-3.71a3.47,3.47,0,0,0,1.23-1.15l1.88-2.85Z"/><path class="cls-8" d="M361.94,238.36h-.11l-10.44-.48a3.23,3.23,0,0,1-3.07-3.37l.56-12.12a2.06,2.06,0,0,1,3.25-1.61l4.81,3.32a7.13,7.13,0,0,1,2.2,2.46l4.65,8.71a2.12,2.12,0,0,1-.09,2.12A2.07,2.07,0,0,1,361.94,238.36Zm-10.19-3.89,7.92.36-3.55-6.66a3.57,3.57,0,0,0-1.13-1.25L352.18,225Z"/><path class="cls-8" d="M374.21,227.2H374l-12.12-.83a2.07,2.07,0,0,1-1.53-3.28l3.43-4.74a7,7,0,0,1,2.51-2.14l8.82-4.45a2.08,2.08,0,0,1,2.11.13,2.11,2.11,0,0,1,.93,1.89l-.72,10.43A3.23,3.23,0,0,1,374.21,227.2Zm-9.66-4.09,9.48.66.54-7.92-6.73,3.4a3.61,3.61,0,0,0-1.29,1.1Z"/><rect class="cls-8" x="330.68" y="191.12" width="4.43" height="3.42"/><rect class="cls-8" x="379.43" y="191.12" width="4.44" height="3.42"/><rect class="cls-8" x="330.68" y="240.07" width="4.43" height="3.42"/><rect class="cls-8" x="379.43" y="240.07" width="4.44" height="3.42"/><path class="cls-3" d="M441.71,187H396a7.9,7.9,0,0,0-7.9,7.89v45.67a7.9,7.9,0,0,0,7.9,7.9h45a8.56,8.56,0,0,0,8.56-8.56v-45A7.9,7.9,0,0,0,441.71,187Z"/><path class="cls-8" d="M441.05,250.16H396a9.62,9.62,0,0,1-9.61-9.6V194.88a9.62,9.62,0,0,1,9.61-9.6h45.67a9.62,9.62,0,0,1,9.61,9.6v45A10.29,10.29,0,0,1,441.05,250.16ZM396,188.7a6.19,6.19,0,0,0-6.19,6.18v45.68a6.19,6.19,0,0,0,6.19,6.18h45a6.85,6.85,0,0,0,6.84-6.85v-45a6.18,6.18,0,0,0-6.18-6.18Z"/><path class="cls-5" d="M442.26,217.72a23.39,23.39,0,1,1-23.39-23.38A23.39,23.39,0,0,1,442.26,217.72Z"/><path class="cls-3" d="M421.77,217.72a2.9,2.9,0,1,1-2.9-2.9A2.9,2.9,0,0,1,421.77,217.72Z"/><path class="cls-8" d="M418.87,222.33a4.61,4.61,0,1,1,4.62-4.61A4.62,4.62,0,0,1,418.87,222.33Zm0-5.8a1.19,1.19,0,1,0,1.19,1.19A1.19,1.19,0,0,0,418.87,216.53Z"/><path class="cls-8" d="M418.87,242.81A25.09,25.09,0,1,1,444,217.72,25.12,25.12,0,0,1,418.87,242.81Zm0-46.76a21.67,21.67,0,1,0,21.67,21.67A21.7,21.7,0,0,0,418.87,196.05Z"/><path class="cls-3" d="M424.92,213l-5-3.1a5.38,5.38,0,0,1-1.74-1.78l-5.05-8.49a.39.39,0,0,1,.34-.59H424a1.52,1.52,0,0,1,1.52,1.52v12.13A.37.37,0,0,1,424.92,213Z"/><path class="cls-3" d="M414.27,211.56l-3.22,4.89a5.12,5.12,0,0,1-1.82,1.7l-8.6,4.85a.39.39,0,0,1-.58-.34l.24-10.46a1.52,1.52,0,0,1,1.55-1.48L414,211A.37.37,0,0,1,414.27,211.56Z"/><path class="cls-3" d="M412.62,222.18l4.81,3.33a5.39,5.39,0,0,1,1.66,1.86l4.65,8.71a.39.39,0,0,1-.36.57l-10.45-.48a1.52,1.52,0,0,1-1.44-1.58l.56-12.12A.36.36,0,0,1,412.62,222.18Z"/><path class="cls-3" d="M423.19,224.08l3.44-4.74a5.2,5.2,0,0,1,1.9-1.61l8.81-4.45a.38.38,0,0,1,.56.37l-.72,10.43a1.51,1.51,0,0,1-1.61,1.41l-12.11-.84A.36.36,0,0,1,423.19,224.08Z"/><path class="cls-8" d="M425.11,214.74a2.1,2.1,0,0,1-1.1-.32l-5-3.1a7,7,0,0,1-2.3-2.36l-5.05-8.48a2.1,2.1,0,0,1,1.81-3.18H424a3.23,3.23,0,0,1,3.23,3.23v12.13a2.08,2.08,0,0,1-1.07,1.82A2.11,2.11,0,0,1,425.11,214.74Zm-9.28-14,3.86,6.48a3.59,3.59,0,0,0,1.18,1.21l2.89,1.81v-9.5Z"/><path class="cls-8" d="M400.44,224.76a2.16,2.16,0,0,1-1.08-.29,2.14,2.14,0,0,1-1-1.84l.24-10.47a3.33,3.33,0,0,1,3.29-3.15l12.14.28a2.08,2.08,0,0,1,1.69,3.21h0l-3.22,4.89a6.93,6.93,0,0,1-2.41,2.25l-8.6,4.85A2.11,2.11,0,0,1,400.44,224.76ZM402,212.44l-.19,7.93,6.58-3.71a3.47,3.47,0,0,0,1.23-1.15l1.88-2.85Z"/><path class="cls-8" d="M423.4,238.36h-.11l-10.44-.48a3.23,3.23,0,0,1-3.07-3.37l.56-12.12a2.07,2.07,0,0,1,3.25-1.61l4.81,3.32a6.93,6.93,0,0,1,2.2,2.46l4.65,8.71a2.14,2.14,0,0,1-.08,2.12A2.1,2.1,0,0,1,423.4,238.36Zm-10.19-3.89,7.93.36-3.56-6.66a3.57,3.57,0,0,0-1.13-1.25L413.64,225Z"/><path class="cls-8" d="M435.67,227.2h-.21l-12.11-.83a2.07,2.07,0,0,1-1.54-3.28l3.43-4.74a7.09,7.09,0,0,1,2.51-2.14l8.82-4.45a2.1,2.1,0,0,1,3,2l-.72,10.43A3.23,3.23,0,0,1,435.67,227.2ZM426,223.11l9.48.66.55-7.92-6.74,3.4a3.7,3.7,0,0,0-1.29,1.1Z"/><rect class="cls-8" x="392.14" y="191.12" width="4.44" height="3.42"/><rect class="cls-8" x="440.89" y="191.12" width="4.44" height="3.42"/><rect class="cls-8" x="392.14" y="240.07" width="4.44" height="3.42"/><rect class="cls-8" x="440.89" y="240.07" width="4.44" height="3.42"/><circle class="cls-3" cx="248.02" cy="132.4" r="27.55" transform="translate(61.92 343.13) rotate(-76.65)"/><path class="cls-2" d="M248,104.84a27.54,27.54,0,0,0-23.72,13.58,27.52,27.52,0,0,1,42.57,34A27.53,27.53,0,0,0,248,104.84Z"/><path class="cls-8" d="M249.8,135H236.61v-3.42H249.8a4.56,4.56,0,0,0,0-9.11H236.61V119H249.8a8,8,0,0,1,0,15.95Z"/><path class="cls-8" d="M252.08,147.29H236.61v-3.42h15.47c3.11,0,5.64-2,5.64-4.55s-2.53-4.56-5.64-4.56H236.61v-3.42h15.47c5,0,9.06,3.58,9.06,8S257.07,147.29,252.08,147.29Z"/><rect class="cls-8" x="239.76" y="114.53" width="3.42" height="35.73"/><rect class="cls-8" x="245.57" y="114.53" width="3.42" height="6.17"/><rect class="cls-8" x="245.57" y="145.58" width="3.42" height="4.68"/><path class="cls-8" d="M248,161.66a29.27,29.27,0,1,1,29.26-29.26A29.3,29.3,0,0,1,248,161.66Zm0-55.1a25.84,25.84,0,1,0,25.84,25.84A25.87,25.87,0,0,0,248,106.56Z"/><rect class="cls-8" x="204" y="251.72" width="5.74" height="3.42"/><rect class="cls-8" x="204" y="260.31" width="5.74" height="3.42"/><rect class="cls-8" x="204" y="268.89" width="5.74" height="3.42"/><rect class="cls-8" x="204" y="277.48" width="5.74" height="3.42"/><rect class="cls-8" x="204" y="286.06" width="5.74" height="3.42"/><rect class="cls-8" x="204" y="294.65" width="5.74" height="3.42"/><rect class="cls-8" x="263.69" y="256.21" width="7.2" height="3.42"/><rect class="cls-8" x="263.69" y="263.9" width="7.2" height="3.42"/><rect class="cls-8" x="263.69" y="271.59" width="7.2" height="3.42"/><rect class="cls-8" x="263.69" y="279.28" width="7.2" height="3.42"/><rect class="cls-8" x="263.69" y="286.96" width="7.2" height="3.42"/><rect class="cls-8" x="263.69" y="294.65" width="7.2" height="3.42"/><rect class="cls-8" x="215.42" y="243.23" width="3.42" height="7.2"/><rect class="cls-8" x="223.1" y="243.23" width="3.42" height="7.2"/><rect class="cls-8" x="230.79" y="243.23" width="3.42" height="7.2"/><rect class="cls-8" x="238.48" y="243.23" width="3.42" height="7.2"/><rect class="cls-8" x="246.17" y="243.23" width="3.42" height="7.2"/><rect class="cls-8" x="253.85" y="243.23" width="3.42" height="7.2"/><rect class="cls-8" x="215.41" y="303.31" width="3.42" height="6.9"/><rect class="cls-8" x="223.1" y="303.31" width="3.42" height="6.9"/><rect class="cls-8" x="230.79" y="303.31" width="3.42" height="6.9"/><rect class="cls-8" x="238.48" y="303.31" width="3.42" height="6.9"/><rect class="cls-8" x="246.17" y="303.31" width="3.42" height="6.9"/><rect class="cls-8" x="253.85" y="303.31" width="3.42" height="6.9"/><rect class="cls-11" x="209.75" y="250.43" width="53.95" height="52.89"/><rect class="cls-3" x="217.87" y="258.4" width="37.69" height="36.95"/><path class="cls-8" d="M265.4,305H208V248.72H265.4Zm-53.94-3.42H262V252.14H211.46Z"/><path class="cls-8" d="M257.28,297.06H216.16V256.68h41.12Zm-37.69-3.42h34.26V260.11H219.59Z"/><path class="cls-8" d="M238.11,279.09H227.76v-3.42h10.35a3.21,3.21,0,1,0,0-6.41H227.76v-3.43h10.35a6.63,6.63,0,0,1,0,13.26Z"/><path class="cls-8" d="M239.91,288.78H227.76v-3.42h12.15c2.23,0,4.05-1.44,4.05-3.21s-1.82-3.2-4.05-3.2H227.76v-3.42h12.15c4.12,0,7.48,3,7.48,6.62S244,288.78,239.91,288.78Z"/><rect class="cls-8" x="229.87" y="262.7" width="3.42" height="28.04"/><rect class="cls-8" x="234.43" y="262.7" width="3.42" height="4.85"/><rect class="cls-8" x="234.43" y="287.07" width="3.42" height="3.67"/><path class="cls-8" d="M140.63,160H137.2V149.47a20,20,0,0,1,20-20h56.9v3.42H157.2a16.59,16.59,0,0,0-16.57,16.58Z"/><path class="cls-8" d="M358.4,160H355V149.47a16.6,16.6,0,0,0-16.58-16.58H281.5v-3.42h56.9a20,20,0,0,1,20,20Z"/><path class="cls-8" d="M138.91,169.84a5.71,5.71,0,1,1,5.71-5.71A5.71,5.71,0,0,1,138.91,169.84Zm0-8a2.29,2.29,0,1,0,2.29,2.28A2.29,2.29,0,0,0,138.91,161.85Z"/><path class="cls-8" d="M356.78,169.84a5.71,5.71,0,1,1,5.7-5.71A5.71,5.71,0,0,1,356.78,169.84Zm0-8a2.29,2.29,0,1,0,2.28,2.28A2.29,2.29,0,0,0,356.78,161.85Z"/><path class="cls-8" d="M464.87,311.93h-418a1.72,1.72,0,0,1,0-3.43h418a1.72,1.72,0,0,1,0,3.43Z"/><path class="cls-8" d="M477.24,311.93h-6.19a1.72,1.72,0,0,1,0-3.43h6.19a1.72,1.72,0,0,1,0,3.43Z"/><path class="cls-8" d="M39.55,311.93H29.05a1.72,1.72,0,0,1,0-3.43h10.5a1.72,1.72,0,0,1,0,3.43Z"/></svg>