<svg id="Layer_1" data-name="Layer 1" xmlns="http://www.w3.org/2000/svg" viewBox="0 0 500 340"><defs><style>.cls-1{opacity:0.3;}.cls-2{fill:#92ddc9;}.cls-3{fill:#fff;}.cls-4{fill:#00b289;}.cls-5{fill:#aeffea;}.cls-6{fill:#b5eadc;}.cls-7{opacity:0.39;}</style></defs><g class="cls-1"><path class="cls-2" d="M444.85,309.75a188.36,188.36,0,0,0-16.28-76.85,59.64,59.64,0,0,0-71.41-82.8,188.25,188.25,0,0,0-101.43-29.47q-7,0-13.82.5a48.71,48.71,0,0,0-74.8,21.52,190,190,0,0,0-39.44,27.95,54,54,0,0,0-66,52.65,53.76,53.76,0,0,0,12.24,34.23,189,189,0,0,0-7.32,52.27Z"/></g><g class="cls-1"><path class="cls-2" d="M393.11,309.75a137.38,137.38,0,1,0-274.75,0Z"/></g><g class="cls-1"><path class="cls-2" d="M464,237.56a10.77,10.77,0,1,1-10.77-10.77A10.77,10.77,0,0,1,464,237.56Z"/></g><g class="cls-1"><circle class="cls-2" cx="297.04" cy="103.21" r="16.59" transform="translate(128.14 368.46) rotate(-76.67)"/></g><g class="cls-1"><path class="cls-2" d="M145.51,143.75a7.11,7.11,0,1,1-7.1-7.11A7.11,7.11,0,0,1,145.51,143.75Z"/></g><g class="cls-1"><circle class="cls-2" cx="362.27" cy="130.73" r="7.11"/></g><g class="cls-1"><path class="cls-2" d="M212.64,82.66a7.11,7.11,0,1,1-7.1-7.11A7.1,7.1,0,0,1,212.64,82.66Z"/></g><g class="cls-1"><path class="cls-2" d="M452.23,263.61a2.92,2.92,0,1,1-2.92-2.91A2.92,2.92,0,0,1,452.23,263.61Z"/></g><g class="cls-1"><path class="cls-2" d="M361.1,80.47a2.19,2.19,0,1,1-2.19-2.19A2.19,2.19,0,0,1,361.1,80.47Z"/></g><g class="cls-1"><circle class="cls-2" cx="141.23" cy="91.38" r="2.85"/></g><g class="cls-1"><path class="cls-2" d="M25.55,155.05a3.79,3.79,0,1,1-3.79-3.8A3.79,3.79,0,0,1,25.55,155.05Z"/></g><g class="cls-1"><path class="cls-2" d="M482,182.83a3.79,3.79,0,1,1-3.79-3.8A3.79,3.79,0,0,1,482,182.83Z"/></g><g class="cls-1"><circle class="cls-2" cx="82.68" cy="139.7" r="16.08"/></g><g class="cls-1"><path class="cls-2" d="M39.14,257a3.79,3.79,0,1,1-3.79-3.8A3.79,3.79,0,0,1,39.14,257Z"/></g><g class="cls-1"><path class="cls-2" d="M458,143.75a15.59,15.59,0,1,1-15.58-15.59A15.58,15.58,0,0,1,458,143.75Z"/></g><g class="cls-1"><circle class="cls-2" cx="35.35" cy="214.18" r="15.32"/></g><circle class="cls-3" cx="136.69" cy="247.36" r="23.93" transform="translate(-135.54 323.26) rotate(-76.65)"/><path class="cls-2" d="M136.69,223.43a23.89,23.89,0,0,0-20.6,11.79,23.9,23.9,0,0,1,37,29.56,23.91,23.91,0,0,0-16.37-41.35Z"/><path class="cls-4" d="M138.23,249.75H126.78v-3.32h11.45a3.79,3.79,0,0,0,0-7.57H126.78v-3.32h11.45a7.11,7.11,0,1,1,0,14.21Z"/><path class="cls-4" d="M140.21,260.47H126.78v-3.32h13.43c2.61,0,4.73-1.7,4.73-3.78s-2.12-3.78-4.73-3.78H126.78v-3.33h13.43c4.44,0,8,3.19,8,7.11S144.65,260.47,140.21,260.47Z"/><rect class="cls-4" x="129.34" y="231.84" width="3.32" height="31.03"/><rect class="cls-4" x="134.39" y="231.84" width="3.32" height="5.36"/><rect class="cls-4" x="134.39" y="258.81" width="3.32" height="4.06"/><path class="cls-4" d="M136.69,273a25.59,25.59,0,1,1,25.59-25.59A25.62,25.62,0,0,1,136.69,273Zm0-47.86A22.27,22.27,0,1,0,159,247.36,22.29,22.29,0,0,0,136.69,225.09Z"/><path class="cls-3" d="M384.69,184.49A28.53,28.53,0,1,1,356.17,156,28.53,28.53,0,0,1,384.69,184.49Z"/><path class="cls-2" d="M356.17,156A28.48,28.48,0,0,0,331.61,170a28.49,28.49,0,0,1,44.07,35.24A28.5,28.5,0,0,0,356.17,156Z"/><path class="cls-4" d="M358,187H344.35V183.7H358a4.83,4.83,0,0,0,0-9.66H344.35v-3.32H358a8.15,8.15,0,0,1,0,16.3Z"/><path class="cls-4" d="M360.37,199.8h-16v-3.32h16c3.28,0,5.95-2.16,5.95-4.83s-2.67-4.82-5.95-4.82h-16V183.5h16c5.11,0,9.27,3.66,9.27,8.15S365.48,199.8,360.37,199.8Z"/><rect class="cls-4" x="347.73" y="165.99" width="3.32" height="36.99"/><rect class="cls-4" x="353.74" y="165.99" width="3.32" height="6.39"/><rect class="cls-4" x="353.74" y="198.14" width="3.32" height="4.84"/><path class="cls-4" d="M356.17,214.68a30.19,30.19,0,1,1,30.19-30.19A30.23,30.23,0,0,1,356.17,214.68Zm0-57.06A26.87,26.87,0,1,0,383,184.49,26.9,26.9,0,0,0,356.17,157.62Z"/><circle class="cls-3" cx="324.7" cy="189.64" r="23.93" transform="translate(65.23 461.8) rotate(-76.65)"/><path class="cls-2" d="M324.7,165.71a23.89,23.89,0,0,0-20.6,11.79,23.9,23.9,0,0,1,37,29.56,23.91,23.91,0,0,0-16.37-41.35Z"/><path class="cls-4" d="M326.24,192H314.79v-3.32h11.45a3.78,3.78,0,0,0,0-7.56H314.79v-3.32h11.45a7.1,7.1,0,1,1,0,14.2Z"/><path class="cls-4" d="M328.22,202.75H314.79v-3.32h13.43c2.61,0,4.73-1.69,4.73-3.78s-2.12-3.78-4.73-3.78H314.79v-3.32h13.43c4.44,0,8,3.18,8,7.1S332.66,202.75,328.22,202.75Z"/><rect class="cls-4" x="317.35" y="174.13" width="3.32" height="31.03"/><rect class="cls-4" x="322.4" y="174.13" width="3.32" height="5.36"/><rect class="cls-4" x="322.4" y="201.09" width="3.32" height="4.06"/><path class="cls-4" d="M324.7,215.23a25.59,25.59,0,1,1,25.59-25.59A25.62,25.62,0,0,1,324.7,215.23Zm0-47.86A22.27,22.27,0,1,0,347,189.64,22.29,22.29,0,0,0,324.7,167.37Z"/><circle class="cls-3" cx="414.77" cy="188.28" r="23.93" transform="translate(135.84 548.39) rotate(-76.65)"/><path class="cls-2" d="M414.77,164.35a23.89,23.89,0,0,0-20.6,11.79,23.9,23.9,0,0,1,37,29.56,23.91,23.91,0,0,0-16.37-41.35Z"/><path class="cls-4" d="M416.31,190.67H404.86v-3.32h11.45a3.78,3.78,0,1,0,0-7.56H404.86v-3.32h11.45a7.1,7.1,0,1,1,0,14.2Z"/><path class="cls-4" d="M418.29,201.39H404.86v-3.32h13.43c2.61,0,4.73-1.7,4.73-3.78s-2.12-3.78-4.73-3.78H404.86v-3.32h13.43c4.44,0,8,3.18,8,7.1S422.73,201.39,418.29,201.39Z"/><rect class="cls-4" x="407.42" y="172.76" width="3.32" height="31.03"/><rect class="cls-4" x="412.47" y="172.76" width="3.32" height="5.36"/><rect class="cls-4" x="412.47" y="199.73" width="3.32" height="4.06"/><path class="cls-4" d="M414.77,213.87a25.59,25.59,0,1,1,25.59-25.59A25.62,25.62,0,0,1,414.77,213.87Zm0-47.86A22.27,22.27,0,1,0,437,188.28,22.29,22.29,0,0,0,414.77,166Z"/><circle class="cls-3" cx="392.95" cy="195.06" r="23.93" transform="translate(112.46 532.37) rotate(-76.65)"/><path class="cls-2" d="M393,171.13a23.89,23.89,0,0,0-20.6,11.79,23.9,23.9,0,0,1,37,29.56A23.91,23.91,0,0,0,393,171.13Z"/><path class="cls-4" d="M394.49,197.45H383v-3.32h11.45a3.78,3.78,0,1,0,0-7.56H383v-3.32h11.45a7.1,7.1,0,1,1,0,14.2Z"/><path class="cls-4" d="M396.47,208.17H383v-3.32h13.43c2.61,0,4.73-1.69,4.73-3.78s-2.12-3.78-4.73-3.78H383V194h13.43c4.44,0,8,3.18,8,7.1S400.91,208.17,396.47,208.17Z"/><rect class="cls-4" x="385.6" y="179.55" width="3.32" height="31.03"/><rect class="cls-4" x="390.65" y="179.55" width="3.32" height="5.36"/><rect class="cls-4" x="390.65" y="206.51" width="3.32" height="4.06"/><path class="cls-4" d="M393,220.65a25.59,25.59,0,1,1,25.59-25.59A25.62,25.62,0,0,1,393,220.65Zm0-47.86a22.27,22.27,0,1,0,22.27,22.27A22.29,22.29,0,0,0,393,172.79Z"/><circle class="cls-3" cx="171.21" cy="254.81" r="23.93" transform="translate(-116.24 362.58) rotate(-76.65)"/><path class="cls-2" d="M171.21,230.88a23.9,23.9,0,0,0-20.6,11.8,23.9,23.9,0,0,1,37,29.56,23.91,23.91,0,0,0-16.37-41.36Z"/><path class="cls-4" d="M172.75,257.21H161.3v-3.33h11.45a3.78,3.78,0,0,0,0-7.56H161.3V243h11.45a7.11,7.11,0,1,1,0,14.21Z"/><path class="cls-4" d="M174.74,267.93H161.3v-3.32h13.44c2.6,0,4.72-1.7,4.72-3.78s-2.12-3.79-4.72-3.79H161.3v-3.32h13.44c4.43,0,8,3.19,8,7.11S179.17,267.93,174.74,267.93Z"/><rect class="cls-4" x="163.86" y="239.3" width="3.32" height="31.03"/><rect class="cls-4" x="168.91" y="239.3" width="3.32" height="5.36"/><rect class="cls-4" x="168.91" y="266.27" width="3.32" height="4.06"/><path class="cls-4" d="M171.21,280.4a25.59,25.59,0,1,1,25.59-25.59A25.61,25.61,0,0,1,171.21,280.4Zm0-47.86a22.27,22.27,0,1,0,22.27,22.27A22.29,22.29,0,0,0,171.21,232.54Z"/><path class="cls-4" d="M128.75,196.72h-9.46a1.66,1.66,0,0,1,0-3.32h9.46a1.66,1.66,0,0,1,0,3.32Z"/><path class="cls-4" d="M124,201.45a1.66,1.66,0,0,1-1.66-1.66v-9.46a1.66,1.66,0,1,1,3.32,0v9.46A1.66,1.66,0,0,1,124,201.45Z"/><path class="cls-4" d="M457,170.85H447.5a1.66,1.66,0,0,1,0-3.32H457a1.66,1.66,0,1,1,0,3.32Z"/><path class="cls-4" d="M452.23,175.58a1.67,1.67,0,0,1-1.66-1.66v-9.46a1.66,1.66,0,1,1,3.32,0v9.46A1.66,1.66,0,0,1,452.23,175.58Z"/><path class="cls-4" d="M283.16,134.83H273.7a1.66,1.66,0,0,1,0-3.32h9.46a1.66,1.66,0,0,1,0,3.32Z"/><path class="cls-4" d="M278.43,139.56a1.66,1.66,0,0,1-1.66-1.66v-9.46a1.66,1.66,0,1,1,3.32,0v9.46A1.67,1.67,0,0,1,278.43,139.56Z"/><path class="cls-4" d="M393.59,132.52a1.66,1.66,0,0,1-1.17-2.83l6.69-6.69a1.66,1.66,0,0,1,2.35,2.34l-6.69,6.7A1.68,1.68,0,0,1,393.59,132.52Z"/><path class="cls-4" d="M400.28,132.52a1.66,1.66,0,0,1-1.17-.48l-6.69-6.7a1.66,1.66,0,0,1,2.35-2.34l6.69,6.69a1.66,1.66,0,0,1,0,2.35A1.68,1.68,0,0,1,400.28,132.52Z"/><polygon class="cls-4" points="241.14 164.26 245.34 161.84 249.55 164.26 249.55 169.12 245.34 171.55 241.14 169.12 241.14 164.26"/><polygon class="cls-4" points="97.55 97.05 101.75 94.63 105.95 97.05 105.95 101.91 101.75 104.33 97.55 101.91 97.55 97.05"/><polygon class="cls-4" points="407.38 81.89 411.59 79.46 415.79 81.89 415.79 86.75 411.59 89.17 407.38 86.75 407.38 81.89"/><polygon class="cls-4" points="438.23 242.23 442.44 239.81 446.64 242.23 446.64 247.09 442.44 249.52 438.23 247.09 438.23 242.23"/><polygon class="cls-4" points="272.75 72.28 278.43 69 284.1 72.28 284.1 78.82 278.43 82.1 272.75 78.82 272.75 72.28"/><path class="cls-4" d="M286.57,104.87H192.85a1.66,1.66,0,1,1,0-3.32h93.72a1.66,1.66,0,1,1,0,3.32Z"/><path class="cls-4" d="M187,104.87h-5.38a1.66,1.66,0,1,1,0-3.32H187a1.66,1.66,0,1,1,0,3.32Z"/><path class="cls-4" d="M172.8,104.87h-9.47a1.66,1.66,0,0,1,0-3.32h9.47a1.66,1.66,0,1,1,0,3.32Z"/><path class="cls-4" d="M168.06,109.6a1.66,1.66,0,0,1-1.66-1.66V98.48a1.66,1.66,0,1,1,3.32,0v9.46A1.66,1.66,0,0,1,168.06,109.6Z"/><path class="cls-4" d="M223.68,138.9h-9.46a1.66,1.66,0,1,1,0-3.32h9.46a1.66,1.66,0,0,1,0,3.32Z"/><path class="cls-4" d="M219,143.63a1.66,1.66,0,0,1-1.66-1.66v-9.46a1.66,1.66,0,0,1,3.32,0V142A1.66,1.66,0,0,1,219,143.63Z"/><path class="cls-4" d="M362.52,107.83a1.64,1.64,0,0,1-1.17-.48l-6.69-6.7A1.65,1.65,0,0,1,357,98.31l6.69,6.69a1.66,1.66,0,0,1,0,2.35A1.64,1.64,0,0,1,362.52,107.83Z"/><path class="cls-4" d="M355.83,107.83a1.64,1.64,0,0,1-1.17-.48,1.66,1.66,0,0,1,0-2.35l6.69-6.69a1.65,1.65,0,0,1,2.34,2.34l-6.69,6.7A1.64,1.64,0,0,1,355.83,107.83Z"/><path class="cls-4" d="M383,129.18H325.15a1.66,1.66,0,1,1,0-3.32H383a1.66,1.66,0,1,1,0,3.32Z"/><path class="cls-4" d="M183.66,138.9H71.12a1.66,1.66,0,0,1,0-3.32H183.66a1.66,1.66,0,1,1,0,3.32Z"/><path class="cls-4" d="M458,105.3H369.47a1.66,1.66,0,0,1,0-3.32H458a1.66,1.66,0,1,1,0,3.32Z"/><path class="cls-4" d="M206.09,138.9H195.44a1.66,1.66,0,0,1,0-3.32h10.65a1.66,1.66,0,1,1,0,3.32Z"/><polygon class="cls-4" points="80.26 164.81 83.52 162.93 86.78 164.81 86.78 168.57 83.52 170.46 80.26 168.57 80.26 164.81"/><rect class="cls-5" x="206.95" y="180.71" width="8.95" height="129.03" rx="0.87"/><path class="cls-2" d="M210.21,308.32V182.14a1.43,1.43,0,0,1,1.43-1.43h-3.26a1.43,1.43,0,0,0-1.43,1.43V308.32a1.43,1.43,0,0,0,1.43,1.43h3.26A1.43,1.43,0,0,1,210.21,308.32Z"/><path class="cls-4" d="M214,311.41h-5.08a3.61,3.61,0,0,1-3.6-3.6V182.65a3.61,3.61,0,0,1,3.6-3.6H214a3.6,3.6,0,0,1,3.6,3.6V307.81A3.6,3.6,0,0,1,214,311.41Zm-5.08-129a.28.28,0,0,0-.27.28V307.81a.28.28,0,0,0,.27.28H214a.28.28,0,0,0,.28-.28V182.65a.28.28,0,0,0-.28-.28Z"/><path class="cls-3" d="M266.68,204.47c-15.08-8.43-32.6-13.64-55.61-13.64s-40.52,5.21-55.6,13.64v10.59c12.34-6.9,27.43-11.65,45.53-13.14.45,0,1.43,4.81,1.89,4.78,3.57-.26,4.48-.4,8.18-.4s4.46.13,8,.38c.64,0,1.79-4.79,2.43-4.73,18,1.52,32.94,6.25,45.22,13.11Z"/><path class="cls-5" d="M211.07,190.83c-23,0-40.52,5.21-55.6,13.64v4.89c15.08-8.43,32.59-13.65,55.6-13.65s40.53,5.22,55.61,13.65v-4.89C251.6,196,234.08,190.83,211.07,190.83Z"/><path class="cls-4" d="M153.81,217.89V203.5l.85-.47c16.91-9.46,34.83-13.86,56.41-13.86s39.5,4.4,56.42,13.86l.85.47v14.39l-2.47-1.38c-12.54-7-27.21-11.32-43.6-12.83-.16.39-.34.87-.47,1.21-.77,2.07-1.28,3.57-2.88,3.45l-1.78-.13c-2.14-.17-3.21-.25-6.07-.25s-4.07.09-6.3.26l-1.76.13c-1.58.13-2-1.27-2.66-3.57-.1-.33-.22-.75-.34-1.11-16.45,1.5-31.16,5.81-43.73,12.84Zm67.6-17.61h.19c16.19,1.37,30.78,5.4,43.42,12v-6.83c-16.15-8.84-33.32-13-53.95-13s-37.79,4.12-53.94,13v6.83c12.71-6.63,27.41-10.67,43.73-12,1.58-.15,2,1.26,2.67,3.56.11.34.23.76.35,1.13l.64-.05c2.24-.17,3.47-.27,6.55-.27s4.17.09,6.32.26l.83.06c.16-.39.34-.88.47-1.23C219.43,201.74,220,200.28,221.41,200.28Z"/><path class="cls-5" d="M59.07,220.86h49.55a14.73,14.73,0,0,1,14.73,14.73v23a0,0,0,0,1,0,0H59.07a0,0,0,0,1,0,0V220.86A0,0,0,0,1,59.07,220.86Z"/><path class="cls-5" d="M96.9,240.83H59.07V183.51h0A37.83,37.83,0,0,1,96.9,221.34Z"/><path class="cls-5" d="M59.07,247.09h72.41a14.73,14.73,0,0,1,14.73,14.73v23a0,0,0,0,1,0,0H59.07a0,0,0,0,1,0,0V247.09A0,0,0,0,1,59.07,247.09Z"/><path class="cls-6" d="M113.6,247.09h-7.75a32.61,32.61,0,0,1,32.61,32.61v5.11h7.75V279.7A32.61,32.61,0,0,0,113.6,247.09Z"/><path class="cls-5" d="M59.07,272H179.48a14.73,14.73,0,0,1,14.73,14.73v23a0,0,0,0,1,0,0H59.07a0,0,0,0,1,0,0V272A0,0,0,0,1,59.07,272Z"/><path class="cls-4" d="M59.07,303.1v6.65H194.21v-5.12c0-.52-.05-1-.07-1.53Z"/><path class="cls-4" d="M121.14,248.75a1.66,1.66,0,0,1-1.66-1.66c0-14.36-11.7-25.19-27.2-25.19H73.51a1.67,1.67,0,0,1,0-3.33H92.28c17.4,0,30.52,12.26,30.52,28.52A1.67,1.67,0,0,1,121.14,248.75Z"/><path class="cls-4" d="M98.56,221.34H95.24a36.22,36.22,0,0,0-36.17-36.17v-3.32A39.54,39.54,0,0,1,98.56,221.34Z"/><path class="cls-4" d="M145.83,272.94a1.65,1.65,0,0,1-1.63-1.39,27.08,27.08,0,0,0-26.85-22.8H92.57a1.66,1.66,0,0,1,0-3.32h24.78A30.39,30.39,0,0,1,147.48,271a1.67,1.67,0,0,1-1.38,1.9A1.23,1.23,0,0,1,145.83,272.94Z"/><path class="cls-4" d="M86.7,248.75H81.93a1.66,1.66,0,0,1,0-3.32H86.7a1.66,1.66,0,0,1,0,3.32Z"/><path class="cls-4" d="M75.72,248.75H69.84a1.66,1.66,0,0,1,0-3.32h5.88a1.66,1.66,0,0,1,0,3.32Z"/><path class="cls-4" d="M194.21,311.41a1.67,1.67,0,0,1-1.66-1.66v-8.87a27.23,27.23,0,0,0-27.2-27.2H119.46a1.66,1.66,0,1,1,0-3.32h45.89a30.55,30.55,0,0,1,30.52,30.52v8.87A1.66,1.66,0,0,1,194.21,311.41Z"/><path class="cls-4" d="M112.33,273.68h-7.22a1.66,1.66,0,1,1,0-3.32h7.22a1.66,1.66,0,1,1,0,3.32Z"/><g class="cls-7"><circle class="cls-6" cx="77.98" cy="288.06" r="5.53"/></g><g class="cls-7"><circle class="cls-6" cx="69.84" cy="204.4" r="5.53"/></g><g class="cls-7"><circle class="cls-6" cx="132.18" cy="284.81" r="5.53"/></g><g class="cls-7"><circle class="cls-4" cx="105.85" cy="288.06" r="4.1"/></g><g class="cls-7"><circle class="cls-6" cx="69.84" cy="264.8" r="4.1"/></g><g class="cls-7"><circle class="cls-6" cx="154.86" cy="293.6" r="4.1"/></g><g class="cls-7"><circle class="cls-6" cx="69.84" cy="233.66" r="4.1"/></g><g class="cls-7"><circle class="cls-6" cx="94.22" cy="276.82" r="2.72"/></g><g class="cls-7"><circle class="cls-4" cx="179.58" cy="293.6" r="2.72"/></g><g class="cls-7"><path class="cls-4" d="M99.5,236.38a2.72,2.72,0,1,1-2.72-2.72A2.72,2.72,0,0,1,99.5,236.38Z"/></g><g class="cls-7"><circle class="cls-4" cx="86.69" cy="212.17" r="2.72"/></g><g class="cls-7"><circle class="cls-4" cx="164.57" cy="280.64" r="1.47"/></g><g class="cls-7"><path class="cls-4" d="M89.63,259.18a1.47,1.47,0,1,1-1.47-1.46A1.47,1.47,0,0,1,89.63,259.18Z"/></g><g class="cls-7"><path class="cls-6" d="M126.07,296.32a2.72,2.72,0,1,1-2.72-2.72A2.72,2.72,0,0,1,126.07,296.32Z"/></g><g class="cls-7"><path class="cls-6" d="M117.77,260.74a2.72,2.72,0,1,1-2.72-2.72A2.72,2.72,0,0,1,117.77,260.74Z"/></g><circle class="cls-3" cx="190.32" cy="285.37" r="23.93" transform="translate(-131.27 404.68) rotate(-76.65)"/><path class="cls-2" d="M190.32,261.44a23.9,23.9,0,0,0-20.6,11.79,23.9,23.9,0,0,1,37,29.56,23.91,23.91,0,0,0-16.37-41.35Z"/><path class="cls-4" d="M191.87,287.76H180.41v-3.32h11.46a3.78,3.78,0,0,0,0-7.56H180.41v-3.32h11.46a7.1,7.1,0,0,1,0,14.2Z"/><path class="cls-4" d="M193.85,298.48H180.41v-3.32h13.44c2.6,0,4.72-1.69,4.72-3.78s-2.12-3.78-4.72-3.78H180.41v-3.32h13.44c4.43,0,8,3.18,8,7.1S198.28,298.48,193.85,298.48Z"/><rect class="cls-4" x="182.98" y="269.86" width="3.32" height="31.03"/><rect class="cls-4" x="188.02" y="269.86" width="3.32" height="5.36"/><rect class="cls-4" x="188.02" y="296.82" width="3.32" height="4.06"/><path class="cls-4" d="M190.32,311a25.59,25.59,0,1,1,25.59-25.59A25.62,25.62,0,0,1,190.32,311Zm0-47.86a22.27,22.27,0,1,0,22.27,22.27A22.29,22.29,0,0,0,190.32,263.1Z"/><rect class="cls-5" x="296.18" y="275.43" width="13.23" height="6.14"/><path class="cls-4" d="M311.07,283.23H294.52v-9.46h16.55Zm-13.23-3.32h9.9v-2.82h-9.9Z"/><polygon class="cls-3" points="288.6 284.28 296.18 281.57 296.18 275.43 288.6 272.71 288.6 284.28"/><path class="cls-4" d="M286.94,286.64V270.35l10.9,3.91v8.48Zm3.32-11.57v6.85l4.26-1.52v-3.8Z"/><rect class="cls-5" x="428.37" y="275.43" width="13.23" height="6.14" transform="translate(869.96 557) rotate(180)"/><path class="cls-4" d="M443.25,283.23H426.71v-9.46h16.54ZM430,279.91h9.9v-2.82H430Z"/><polygon class="cls-3" points="449.18 284.28 441.59 281.57 441.59 275.43 449.18 272.71 449.18 284.28"/><path class="cls-4" d="M450.84,286.64l-10.91-3.9v-8.48l10.91-3.91Zm-7.59-6.24,4.26,1.52v-6.85l-4.26,1.53Z"/><path class="cls-3" d="M346.65,297.83a11.92,11.92,0,1,1-11.92-11.92A11.92,11.92,0,0,1,346.65,297.83Z"/><path class="cls-4" d="M339.17,297.83a4.44,4.44,0,1,1-4.44-4.44A4.43,4.43,0,0,1,339.17,297.83Z"/><path class="cls-4" d="M334.74,311.41a13.58,13.58,0,1,1,13.57-13.58A13.6,13.6,0,0,1,334.74,311.41Zm0-23.84A10.26,10.26,0,1,0,345,297.83,10.27,10.27,0,0,0,334.74,287.57Z"/><path class="cls-3" d="M413.15,297.83a11.92,11.92,0,1,1-11.92-11.92A11.92,11.92,0,0,1,413.15,297.83Z"/><path class="cls-4" d="M405.66,297.83a4.44,4.44,0,1,1-4.43-4.44A4.43,4.43,0,0,1,405.66,297.83Z"/><path class="cls-4" d="M401.23,311.41a13.58,13.58,0,1,1,13.58-13.58A13.6,13.6,0,0,1,401.23,311.41Zm0-23.84a10.26,10.26,0,1,0,10.26,10.26A10.27,10.27,0,0,0,401.23,287.57Z"/><polygon class="cls-2" points="419.4 280.44 319.25 280.44 305.68 197.84 432.98 197.84 419.4 280.44"/><g class="cls-1"><polygon class="cls-4" points="428.74 223.62 432.98 197.84 305.68 197.84 309.91 223.62 428.74 223.62"/></g><path class="cls-4" d="M420.82,282.1h-103l-14.12-85.92H434.93Zm-100.16-3.32H418l13-79.28H307.63Z"/><rect class="cls-5" x="288.26" y="197.84" width="162.14" height="16.41"/><rect class="cls-3" x="288.26" y="197.84" width="162.14" height="6.15"/><path class="cls-4" d="M452.06,215.91H286.59V196.18H452.06Zm-162.14-3.32H448.74V199.5H289.92Z"/><rect class="cls-5" x="305.68" y="272.3" width="127.3" height="12.52"/><rect class="cls-3" x="305.68" y="272.3" width="127.3" height="6.26"/><path class="cls-4" d="M434.63,286.48H304V270.64H434.63Zm-127.29-3.32h124V274h-124Z"/><path class="cls-4" d="M356,230.53H312.12a1.66,1.66,0,0,1,0-3.32H356a1.66,1.66,0,0,1,0,3.32Z"/><path class="cls-4" d="M356,257.67H315.23a1.66,1.66,0,0,1,0-3.32H356a1.66,1.66,0,0,1,0,3.32Z"/><path class="cls-4" d="M373.18,230.53H362.54a1.66,1.66,0,0,1,0-3.32h10.64a1.66,1.66,0,0,1,0,3.32Z"/><polygon class="cls-5" points="341.52 294.72 327.95 294.72 323.88 284.82 345.59 284.82 341.52 294.72"/><path class="cls-4" d="M342.63,296.38H326.84l-5.44-13.22h26.67Zm-13.57-3.32h11.35l2.7-6.58H326.36Z"/><polygon class="cls-5" points="408.01 294.72 394.44 294.72 390.37 284.82 412.08 284.82 408.01 294.72"/><path class="cls-4" d="M409.13,296.38h-15.8l-5.44-13.22h26.67Zm-13.57-3.32H406.9l2.71-6.58H392.85Z"/><path class="cls-3" d="M284.06,301.69h-10.7v-2.75a34.07,34.07,0,0,0-34.07-34.07h0a34.07,34.07,0,0,0-34.07,34.07V309l-6.65.72h93.55A8.06,8.06,0,0,0,284.06,301.69Z"/><path class="cls-6" d="M273.36,301.69v-2.75a34.07,34.07,0,0,0-34.07-34.07h0a34,34,0,0,0-29,16.33,34,34,0,0,1,23.64-9.57h0c18.82,0,36.7,11.19,36.7,30Z"/><polygon class="cls-6" points="199.8 309.61 198.57 309.75 199.8 309.75 199.8 309.61"/><path class="cls-4" d="M293.78,311.41H198.57a1.66,1.66,0,1,1,0-3.32h91.67a6.41,6.41,0,0,0-6.18-4.74H259.49a1.66,1.66,0,1,1,0-3.32h24.57a9.73,9.73,0,0,1,9.72,9.72Z"/><path class="cls-4" d="M205.21,311.41a1.67,1.67,0,0,1-1.66-1.66V298.94a35.74,35.74,0,0,1,71.48,0,1.67,1.67,0,0,1-3.33,0,32.42,32.42,0,0,0-64.83,0v10.81A1.66,1.66,0,0,1,205.21,311.41Z"/><path class="cls-4" d="M221.07,311.41a1.66,1.66,0,0,1-1.66-1.66v-6A20.57,20.57,0,0,1,240,283.16a1.66,1.66,0,1,1,0,3.32,17.25,17.25,0,0,0-17.27,17.26v6A1.66,1.66,0,0,1,221.07,311.41Z"/><path class="cls-5" d="M270.24,271.87c-7.75,0-14,5.4-14,12.06s6.29,12.06,14,12.06Z"/><path class="cls-4" d="M271.9,297.65h-1.66c-8.66,0-15.7-6.15-15.7-13.72s7-13.72,15.7-13.72h1.66Zm-3.32-24c-6,.69-10.72,5.05-10.72,10.31s4.68,9.63,10.72,10.31Z"/><path class="cls-3" d="M279.54,283.93c0,6.66-3.1,12.06-6.93,12.06s-6.94-5.4-6.94-12.06,3.11-12.06,6.94-12.06S279.54,277.27,279.54,283.93Z"/><path class="cls-4" d="M272.61,297.65c-4.82,0-8.6-6-8.6-13.72s3.78-13.72,8.6-13.72,8.59,6,8.59,13.72S277.42,297.65,272.61,297.65Zm0-24.12c-2.5,0-5.28,4.27-5.28,10.4s2.78,10.4,5.28,10.4,5.27-4.27,5.27-10.4S275.1,273.53,272.61,273.53Z"/><path class="cls-4" d="M460.42,311.41H52.65a1.66,1.66,0,1,1,0-3.32H460.42a1.66,1.66,0,0,1,0,3.32Z"/><path class="cls-4" d="M472.44,311.41h-6a1.66,1.66,0,0,1,0-3.32h6a1.66,1.66,0,0,1,0,3.32Z"/><path class="cls-4" d="M46.67,311.41H36.46a1.66,1.66,0,1,1,0-3.32H46.67a1.66,1.66,0,0,1,0,3.32Z"/></svg>