<svg id="Layer_1" data-name="Layer 1" xmlns="http://www.w3.org/2000/svg" viewBox="0 0 500 340"><defs><style>.cls-1{opacity:0.2;}.cls-2{fill:#fcc6b9;}.cls-3{fill:#f83600;}.cls-4{fill:#fff;}.cls-5{fill:#f9866b;}.cls-6{fill:#ffbdae;}.cls-7{opacity:0.3;}.cls-8{fill:#ffccc0;}</style></defs><g class="cls-1"><path class="cls-2" d="M451.49,310.17a194.73,194.73,0,0,0-16.84-79.46,61.68,61.68,0,0,0-73.84-85.62,194.7,194.7,0,0,0-104.88-30.48q-7.22,0-14.29.52a50.37,50.37,0,0,0-77.35,22.26,196.71,196.71,0,0,0-40.79,28.9,55.83,55.83,0,0,0-55.56,89.83,195.93,195.93,0,0,0-7.57,54.05Z"/></g><g class="cls-1"><path class="cls-2" d="M398,310.17a142.06,142.06,0,0,0-284.12,0Z"/></g><g class="cls-1"><path class="cls-2" d="M471.26,235.53a11.14,11.14,0,1,1-11.13-11.14A11.13,11.13,0,0,1,471.26,235.53Z"/></g><g class="cls-1"><circle class="cls-2" cx="298.64" cy="96.6" r="17.16" transform="translate(19.16 239.46) rotate(-45)"/></g><g class="cls-1"><path class="cls-2" d="M142,138.52a7.35,7.35,0,1,1-7.35-7.35A7.35,7.35,0,0,1,142,138.52Z"/></g><g class="cls-1"><circle class="cls-2" cx="366.09" cy="125.06" r="7.35"/></g><g class="cls-1"><path class="cls-2" d="M211.37,75.35A7.35,7.35,0,1,1,204,68,7.35,7.35,0,0,1,211.37,75.35Z"/></g><g class="cls-1"><path class="cls-2" d="M459.12,262.47a3,3,0,1,1-3-3A3,3,0,0,1,459.12,262.47Z"/></g><g class="cls-1"><path class="cls-2" d="M364.89,73.08a2.27,2.27,0,1,1-2.27-2.26A2.27,2.27,0,0,1,364.89,73.08Z"/></g><g class="cls-1"><circle class="cls-2" cx="137.52" cy="84.37" r="2.95"/></g><g class="cls-1"><path class="cls-2" d="M17.91,150.2A3.92,3.92,0,1,1,14,146.28,3.91,3.91,0,0,1,17.91,150.2Z"/></g><g class="cls-1"><path class="cls-2" d="M489.93,178.93A3.92,3.92,0,1,1,486,175,3.91,3.91,0,0,1,489.93,178.93Z"/></g><g class="cls-1"><circle class="cls-2" cx="76.99" cy="134.34" r="16.63"/></g><g class="cls-1"><path class="cls-2" d="M32,255.57A3.92,3.92,0,1,1,28,251.65,3.91,3.91,0,0,1,32,255.57Z"/></g><g class="cls-1"><path class="cls-2" d="M465.11,138.52A16.12,16.12,0,1,1,449,122.4,16.12,16.12,0,0,1,465.11,138.52Z"/></g><g class="cls-1"><circle class="cls-2" cx="28.04" cy="211.35" r="15.84"/></g><path class="cls-3" d="M429.59,239.1l-8.54-8.54a1.72,1.72,0,1,1,2.43-2.43l6.11,6.11,15.62-15.63a1.72,1.72,0,0,1,2.43,2.43Z"/><path class="cls-3" d="M428.62,249a16.07,16.07,0,1,1,8.16-29.91l-1.74,3A12.63,12.63,0,1,0,441.25,233h3.43A16.08,16.08,0,0,1,428.62,249Z"/><path class="cls-4" d="M405.82,252V197.06a.54.54,0,0,0-.54-.54H341.53a.54.54,0,0,0-.53.54V308.9a.74.74,0,0,0,.74.75h9.06l55,.32Z"/><rect class="cls-5" x="358.23" y="257.01" width="100.99" height="53.21" rx="1.97"/><path class="cls-4" d="M427.58,283.8a18.48,18.48,0,1,1-18.48-18.48A18.48,18.48,0,0,1,427.58,283.8Z"/><rect class="cls-5" x="355.19" y="212.18" width="14.89" height="22.5" rx="0.21"/><path class="cls-3" d="M411,294.37h-9.24v-3.43H411a2.71,2.71,0,1,0,0-5.42h-4.26a6.15,6.15,0,1,1,0-12.29h8.94v3.44h-8.94a2.71,2.71,0,1,0,0,5.41H411a6.15,6.15,0,1,1,0,12.29Z"/><rect class="cls-3" x="407.38" y="270.34" width="3.43" height="4.61"/><rect class="cls-3" x="407.38" y="292.61" width="3.43" height="4.29"/><path class="cls-3" d="M454.72,311.94h-92a6.23,6.23,0,0,1-6.22-6.22v-44.2a6.23,6.23,0,0,1,6.22-6.22h92a6.23,6.23,0,0,1,6.22,6.22v44.2A6.23,6.23,0,0,1,454.72,311.94Zm-92-53.21a2.79,2.79,0,0,0-2.79,2.79v44.2a2.79,2.79,0,0,0,2.79,2.78h92a2.79,2.79,0,0,0,2.79-2.78v-44.2a2.79,2.79,0,0,0-2.79-2.79Z"/><path class="cls-3" d="M358.23,274.41V271a14,14,0,0,0,14-14h3.44A17.43,17.43,0,0,1,358.23,274.41Z"/><path class="cls-3" d="M459.23,274.41a17.43,17.43,0,0,1-17.4-17.4h3.44a14,14,0,0,0,14,14Z"/><path class="cls-3" d="M375.63,310.22h-3.44a14,14,0,0,0-14-14v-3.43A17.42,17.42,0,0,1,375.63,310.22Z"/><path class="cls-3" d="M445.27,310.22h-3.44a17.42,17.42,0,0,1,17.4-17.39v3.43A14,14,0,0,0,445.27,310.22Z"/><path class="cls-3" d="M408.73,303.81a20.2,20.2,0,1,1,20.2-20.19A20.21,20.21,0,0,1,408.73,303.81Zm0-36.95a16.76,16.76,0,1,0,16.76,16.76A16.77,16.77,0,0,0,408.73,266.86Z"/><rect class="cls-3" x="378.72" y="281.9" width="5.98" height="3.43"/><rect class="cls-3" x="432.13" y="281.9" width="5.98" height="3.43"/><path class="cls-3" d="M350.8,311.94h-9.05a2.47,2.47,0,0,1-2.47-2.47V197.63a2.26,2.26,0,0,1,2.25-2.26h63.75a2.26,2.26,0,0,1,2.25,2.26v54.92H404.1V198.8H342.71V308.5h8.09Z"/><rect class="cls-3" x="388.24" y="209.48" width="3.43" height="11.25"/><rect class="cls-3" x="388.24" y="226.36" width="3.43" height="11.25"/><rect class="cls-3" x="388.24" y="243.24" width="3.43" height="7.3"/><path class="cls-3" d="M369.22,236.4h-14a2.19,2.19,0,0,1-2.19-2.19V212.65a2.2,2.2,0,0,1,2.19-2.19h14a2.2,2.2,0,0,1,2.19,2.19v21.56A2.19,2.19,0,0,1,369.22,236.4ZM356.52,233H368V213.9H356.52Z"/><path class="cls-3" d="M332.35,100.44H196.81a1.72,1.72,0,0,1,0-3.43H332.35a1.72,1.72,0,0,1,0,3.43Z"/><path class="cls-3" d="M190.77,100.44h-5.56a1.72,1.72,0,0,1,0-3.44h5.56a1.72,1.72,0,0,1,0,3.44Z"/><path class="cls-3" d="M176.07,100.44h-9.78a1.72,1.72,0,0,1,0-3.44h9.78a1.72,1.72,0,1,1,0,3.44Z"/><path class="cls-3" d="M171.18,105.33a1.72,1.72,0,0,1-1.72-1.72V93.83a1.72,1.72,0,0,1,3.44,0v9.78A1.72,1.72,0,0,1,171.18,105.33Z"/><path class="cls-3" d="M227.33,127.58h-9.79a1.72,1.72,0,0,1,0-3.43h9.79a1.72,1.72,0,1,1,0,3.43Z"/><path class="cls-3" d="M222.44,132.47a1.72,1.72,0,0,1-1.72-1.72V121a1.72,1.72,0,1,1,3.43,0v9.78A1.72,1.72,0,0,1,222.44,132.47Z"/><path class="cls-3" d="M267.74,146.28H258a1.72,1.72,0,1,1,0-3.43h9.78a1.72,1.72,0,1,1,0,3.43Z"/><path class="cls-3" d="M262.85,151.18a1.72,1.72,0,0,1-1.72-1.72v-9.79a1.72,1.72,0,0,1,3.44,0v9.79A1.72,1.72,0,0,1,262.85,151.18Z"/><path class="cls-3" d="M426.87,186.07a1.75,1.75,0,0,1-1.22-.5l-6.91-6.92a1.71,1.71,0,0,1,2.42-2.43l6.92,6.92a1.72,1.72,0,0,1-1.21,2.93Z"/><path class="cls-3" d="M420,186.07a1.72,1.72,0,0,1-1.21-2.93l6.91-6.92a1.72,1.72,0,1,1,2.43,2.43l-6.92,6.92A1.71,1.71,0,0,1,420,186.07Z"/><path class="cls-3" d="M344.94,126.15a1.71,1.71,0,0,1-1.21-.51l-6.92-6.92a1.71,1.71,0,1,1,2.43-2.42l6.92,6.92a1.72,1.72,0,0,1-1.22,2.93Z"/><path class="cls-3" d="M338,126.15a1.72,1.72,0,0,1-1.22-2.93l6.92-6.92a1.71,1.71,0,1,1,2.43,2.42l-6.92,6.92A1.7,1.7,0,0,1,338,126.15Z"/><path class="cls-3" d="M124.05,170.73a1.72,1.72,0,0,1-1.22-2.93l6.92-6.92a1.71,1.71,0,0,1,2.43,2.42l-6.92,6.92A1.68,1.68,0,0,1,124.05,170.73Z"/><path class="cls-3" d="M131,170.73a1.72,1.72,0,0,1-1.22-.51l-6.92-6.92a1.71,1.71,0,0,1,2.43-2.42l6.92,6.92a1.71,1.71,0,0,1,0,2.42A1.68,1.68,0,0,1,131,170.73Z"/><path class="cls-3" d="M185.94,127.58H83.73a1.72,1.72,0,1,1,0-3.43H185.94a1.72,1.72,0,1,1,0,3.43Z"/><path class="cls-3" d="M117.36,168.2H53.52a1.72,1.72,0,1,1,0-3.43h63.84a1.72,1.72,0,0,1,0,3.43Z"/><path class="cls-3" d="M420.52,146.28H277a1.72,1.72,0,1,1,0-3.43H420.52a1.72,1.72,0,0,1,0,3.43Z"/><path class="cls-3" d="M209.14,127.58h-11a1.72,1.72,0,0,1,0-3.43h11a1.72,1.72,0,1,1,0,3.43Z"/><polygon class="cls-3" points="89.5 188.42 93.84 185.91 98.19 188.42 98.19 193.44 93.84 195.95 89.5 193.44 89.5 188.42"/><polygon class="cls-3" points="98.72 93.54 103.06 91.03 107.41 93.54 107.41 98.56 103.06 101.07 98.72 98.56 98.72 93.54"/><polygon class="cls-3" points="465 237.58 467.58 236.09 470.16 237.58 470.16 240.56 467.58 242.05 465 240.56 465 237.58"/><polygon class="cls-3" points="47.7 237.65 50.28 236.16 52.86 237.65 52.86 240.63 50.28 242.13 47.7 240.63 47.7 237.65"/><polygon class="cls-3" points="356.33 166.5 360.68 163.99 365.03 166.5 365.03 171.52 360.68 174.03 356.33 171.52 356.33 166.5"/><polygon class="cls-3" points="370.57 90.44 376.44 87.06 382.3 90.44 382.3 97.22 376.44 100.6 370.57 97.22 370.57 90.44"/><circle class="cls-4" cx="313.45" cy="215.67" r="24.75" transform="translate(31.25 470.87) rotate(-76.65)"/><path class="cls-2" d="M313.45,190.93a24.7,24.7,0,0,0-21.3,12.19,24.72,24.72,0,0,1,38.23,30.57,24.73,24.73,0,0,0-16.93-42.76Z"/><path class="cls-3" d="M315,218.15H303.2v-3.44H315a3.91,3.91,0,0,0,0-7.82H303.2v-3.43H315a7.35,7.35,0,1,1,0,14.69Z"/><path class="cls-3" d="M317.09,229.23H303.2V225.8h13.89c2.7,0,4.89-1.76,4.89-3.91s-2.19-3.91-4.89-3.91H303.2v-3.44h13.89c4.59,0,8.32,3.3,8.32,7.35S321.68,229.23,317.09,229.23Z"/><rect class="cls-3" x="305.85" y="199.63" width="3.43" height="32.08"/><rect class="cls-3" x="311.07" y="199.63" width="3.43" height="5.54"/><rect class="cls-3" x="311.07" y="227.52" width="3.43" height="4.2"/><path class="cls-3" d="M313.45,242.14a26.47,26.47,0,1,1,26.46-26.47A26.5,26.5,0,0,1,313.45,242.14Zm0-49.49a23,23,0,1,0,23,23A23.05,23.05,0,0,0,313.45,192.65Z"/><circle class="cls-4" cx="249.35" cy="215.67" r="24.75" transform="translate(-18.06 408.5) rotate(-76.65)"/><path class="cls-2" d="M249.35,190.93a24.7,24.7,0,0,0-21.3,12.19,24.71,24.71,0,0,1,38.22,30.57,24.72,24.72,0,0,0-16.92-42.76Z"/><path class="cls-3" d="M250.94,218.15H239.1v-3.44h11.84a3.91,3.91,0,0,0,0-7.82H239.1v-3.43h11.84a7.35,7.35,0,1,1,0,14.69Z"/><path class="cls-3" d="M253,229.23H239.1V225.8H253c2.7,0,4.89-1.76,4.89-3.91S255.69,218,253,218H239.1v-3.44H253c4.59,0,8.32,3.3,8.32,7.35S257.58,229.23,253,229.23Z"/><rect class="cls-3" x="241.75" y="199.63" width="3.43" height="32.08"/><rect class="cls-3" x="246.96" y="199.63" width="3.43" height="5.54"/><rect class="cls-3" x="246.96" y="227.52" width="3.43" height="4.2"/><path class="cls-3" d="M249.35,242.14a26.47,26.47,0,1,1,26.46-26.47A26.5,26.5,0,0,1,249.35,242.14Zm0-49.49a23,23,0,1,0,23,23A23.05,23.05,0,0,0,249.35,192.65Z"/><circle class="cls-4" cx="281.4" cy="198.5" r="24.75" transform="translate(23.3 426.48) rotate(-76.65)"/><path class="cls-2" d="M281.4,173.76A24.7,24.7,0,0,0,260.1,186a24.71,24.71,0,0,1,38.22,30.57,24.72,24.72,0,0,0-16.92-42.76Z"/><path class="cls-3" d="M283,201H271.15v-3.44H283a3.91,3.91,0,0,0,0-7.82H271.15v-3.43H283A7.35,7.35,0,1,1,283,201Z"/><path class="cls-3" d="M285,212.06H271.15v-3.43H285c2.7,0,4.89-1.76,4.89-3.91s-2.19-3.91-4.89-3.91H271.15v-3.44H285c4.59,0,8.32,3.3,8.32,7.35S289.63,212.06,285,212.06Z"/><rect class="cls-3" x="273.8" y="182.46" width="3.43" height="32.08"/><rect class="cls-3" x="279.02" y="182.46" width="3.43" height="5.54"/><rect class="cls-3" x="279.02" y="210.35" width="3.43" height="4.2"/><path class="cls-3" d="M281.4,225a26.47,26.47,0,1,1,26.46-26.47A26.51,26.51,0,0,1,281.4,225Zm0-49.49a23,23,0,1,0,23,23A23.05,23.05,0,0,0,281.4,175.48Z"/><rect class="cls-5" x="216.95" y="215.84" width="130.02" height="94.38" rx="1.91"/><path class="cls-3" d="M342.6,311.94H221.32a6.09,6.09,0,0,1-6.09-6.09V220.2a6.09,6.09,0,0,1,6.09-6.08H342.6a6.08,6.08,0,0,1,6.08,6.08v85.65A6.09,6.09,0,0,1,342.6,311.94ZM221.32,217.55a2.65,2.65,0,0,0-2.65,2.65v85.65a2.65,2.65,0,0,0,2.65,2.65H342.6a2.65,2.65,0,0,0,2.65-2.65V220.2a2.65,2.65,0,0,0-2.65-2.65Z"/><path class="cls-6" d="M320.72,251.15H347a0,0,0,0,1,0,0v23.76a0,0,0,0,1,0,0H320.72a2.42,2.42,0,0,1-2.42-2.42V253.57A2.42,2.42,0,0,1,320.72,251.15Z"/><path class="cls-3" d="M348.68,276.63H323.85a7.28,7.28,0,0,1-7.27-7.27V256.69a7.27,7.27,0,0,1,7.27-7.26h24.83Zm-24.83-23.77a3.83,3.83,0,0,0-3.83,3.83v12.67a3.82,3.82,0,0,0,3.83,3.83h21.4V252.86Z"/><path class="cls-5" d="M337.94,263a5.78,5.78,0,1,1-5.78-5.77A5.77,5.77,0,0,1,337.94,263Z"/><path class="cls-3" d="M332.16,270.52a7.49,7.49,0,1,1,7.49-7.49A7.5,7.5,0,0,1,332.16,270.52Zm0-11.55a4.06,4.06,0,1,0,4.06,4.06A4.06,4.06,0,0,0,332.16,259Z"/><rect class="cls-3" x="332.51" y="224.18" width="6.73" height="3.43"/><rect class="cls-3" x="316.76" y="224.18" width="6.73" height="3.43"/><rect class="cls-3" x="301" y="224.18" width="6.73" height="3.43"/><rect class="cls-3" x="285.25" y="224.18" width="6.73" height="3.43"/><rect class="cls-3" x="269.5" y="224.18" width="6.73" height="3.43"/><rect class="cls-3" x="253.75" y="224.18" width="6.73" height="3.43"/><rect class="cls-3" x="238" y="224.18" width="6.73" height="3.43"/><rect class="cls-3" x="222.24" y="224.18" width="6.73" height="3.43"/><rect class="cls-3" x="332.51" y="297.46" width="6.73" height="3.43"/><rect class="cls-3" x="316.76" y="297.46" width="6.73" height="3.43"/><rect class="cls-3" x="301" y="297.46" width="6.73" height="3.43"/><rect class="cls-3" x="285.25" y="297.46" width="6.73" height="3.43"/><rect class="cls-3" x="269.5" y="297.46" width="6.73" height="3.43"/><rect class="cls-3" x="253.75" y="297.46" width="6.73" height="3.43"/><rect class="cls-3" x="238" y="297.46" width="6.73" height="3.43"/><rect class="cls-3" x="222.24" y="297.46" width="6.73" height="3.43"/><path class="cls-4" d="M280.59,265.53H268.24V262.1h12.35a4.15,4.15,0,1,0,0-8.3H268.24v-3.44h12.35a7.59,7.59,0,0,1,0,15.17Z"/><path class="cls-4" d="M282.73,277.09H268.24v-3.43h14.49c2.85,0,5.16-1.86,5.16-4.15s-2.31-4.15-5.16-4.15H268.24v-3.43h14.49c4.74,0,8.6,3.4,8.6,7.58S287.47,277.09,282.73,277.09Z"/><rect class="cls-4" x="271.08" y="246.3" width="3.43" height="33.45"/><rect class="cls-4" x="276.52" y="246.3" width="3.43" height="5.78"/><rect class="cls-4" x="276.52" y="275.38" width="3.43" height="4.38"/><rect class="cls-4" x="259.86" y="262.1" width="4.26" height="3.43"/><rect class="cls-4" x="293" y="262.1" width="4.26" height="3.43"/><path class="cls-4" d="M278.79,288.33a24.52,24.52,0,1,1,24.52-24.51A24.54,24.54,0,0,1,278.79,288.33Zm0-45.59a21.08,21.08,0,1,0,21.08,21.08A21.1,21.1,0,0,0,278.79,242.74Z"/><g class="cls-7"><path class="cls-3" d="M245.64,302.32v-88.2H221.32a6.09,6.09,0,0,0-6.09,6.08v85.65a6.09,6.09,0,0,0,6.09,6.09H236A9.63,9.63,0,0,0,245.64,302.32Z"/></g><rect class="cls-4" x="143.48" y="144.98" width="93.58" height="165.24" rx="7.9"/><rect class="cls-5" x="143.48" y="170.23" width="93.58" height="116.42"/><g class="cls-7"><path class="cls-3" d="M229.16,145H218.29a7.91,7.91,0,0,1,7.91,7.9V302.32a7.91,7.91,0,0,1-7.91,7.9h10.87a7.9,7.9,0,0,0,7.9-7.9V152.88A7.9,7.9,0,0,0,229.16,145Z"/></g><g class="cls-7"><path class="cls-8" d="M151.39,145h10.86a7.9,7.9,0,0,0-7.9,7.9V302.32a7.9,7.9,0,0,0,7.9,7.9H151.39a7.91,7.91,0,0,1-7.91-7.9V152.88A7.91,7.91,0,0,1,151.39,145Z"/></g><path class="cls-3" d="M229.16,311.94H151.39a9.63,9.63,0,0,1-9.62-9.62V152.88a9.63,9.63,0,0,1,9.62-9.62h77.77a9.64,9.64,0,0,1,9.62,9.62V302.32A9.64,9.64,0,0,1,229.16,311.94ZM151.39,146.7a6.19,6.19,0,0,0-6.19,6.18V302.32a6.19,6.19,0,0,0,6.19,6.18h77.77a6.18,6.18,0,0,0,6.18-6.18V152.88a6.18,6.18,0,0,0-6.18-6.18Z"/><rect class="cls-3" x="143.48" y="167.12" width="93.58" height="3.43"/><rect class="cls-3" x="175.25" y="155.74" width="21.48" height="3.43"/><rect class="cls-3" x="199.27" y="155.74" width="6.01" height="3.43"/><rect class="cls-3" x="143.48" y="284.94" width="93.58" height="3.43"/><path class="cls-3" d="M467.58,311.94H45.93a1.72,1.72,0,0,1,0-3.44H467.58a1.72,1.72,0,1,1,0,3.44Z"/><path class="cls-3" d="M480,311.94h-6.23a1.72,1.72,0,0,1,0-3.44H480a1.72,1.72,0,0,1,0,3.44Z"/><path class="cls-3" d="M39.75,311.94H29.19a1.72,1.72,0,0,1,0-3.44H39.75a1.72,1.72,0,0,1,0,3.44Z"/><g class="cls-7"><rect class="cls-3" x="93.84" y="219.51" width="91.96" height="91.96"/></g><rect class="cls-4" x="89.84" y="221.22" width="88.52" height="88.52"/><path class="cls-3" d="M180.07,311.46H88.12V219.51h91.95ZM91.55,308h85.09V222.94H91.55Z"/><path class="cls-3" d="M111.46,241.64H96.2V226.38h15.26ZM99.63,238.2H108v-8.39H99.63Z"/><path class="cls-3" d="M111.46,304.59H96.2V289.33h15.26Zm-11.83-3.43H108v-8.39H99.63Z"/><rect class="cls-3" x="100.83" y="293.97" width="5.99" height="5.99"/><rect class="cls-3" x="100.74" y="230.69" width="5.99" height="5.99"/><rect class="cls-3" x="161.5" y="231.01" width="5.99" height="5.99"/><rect class="cls-3" x="161.5" y="293.97" width="5.99" height="5.99"/><path class="cls-3" d="M172.13,241.64H156.86V226.38h15.27ZM160.3,238.2h8.39v-8.39H160.3Z"/><path class="cls-3" d="M172.13,304.59H156.86V289.33h15.27Zm-11.83-3.43h8.39v-8.39H160.3Z"/><rect class="cls-3" x="115.66" y="226.38" width="7.25" height="3.43"/><rect class="cls-3" x="115.66" y="232.57" width="32.05" height="3.43"/><rect class="cls-3" x="115.66" y="238.78" width="5.72" height="3.43"/><rect class="cls-3" x="123.67" y="238.78" width="5.72" height="3.43"/><rect class="cls-3" x="130.79" y="238.78" width="13.24" height="3.43"/><rect class="cls-3" x="101.92" y="244.98" width="5.72" height="3.43"/><rect class="cls-3" x="109.93" y="244.98" width="5.72" height="3.43"/><rect class="cls-3" x="118.58" y="244.98" width="18.82" height="3.43"/><rect class="cls-3" x="138.55" y="244.98" width="3.43" height="3.43"/><rect class="cls-3" x="144.27" y="244.98" width="3.43" height="3.43"/><rect class="cls-3" x="150" y="244.98" width="3.43" height="3.43"/><rect class="cls-3" x="157.85" y="244.98" width="8.91" height="3.43"/><rect class="cls-3" x="96.2" y="251.18" width="30.33" height="3.43"/><rect class="cls-3" x="128.82" y="251.18" width="5.15" height="3.43"/><rect class="cls-3" x="136.59" y="251.18" width="23.1" height="3.43"/><rect class="cls-3" x="101.92" y="257.38" width="45.79" height="3.43"/><rect class="cls-3" x="151.14" y="257.38" width="8.78" height="3.43"/><rect class="cls-3" x="107.64" y="263.58" width="40.06" height="3.43"/><rect class="cls-3" x="148.85" y="263.58" width="7.82" height="3.43"/><rect class="cls-3" x="160.3" y="263.58" width="7.82" height="3.43"/><rect class="cls-3" x="103.73" y="263.58" width="1.62" height="3.43"/><rect class="cls-3" x="100.3" y="263.58" width="1.62" height="3.43"/><rect class="cls-3" x="126.53" y="269.78" width="43.88" height="3.43"/><rect class="cls-3" x="119.09" y="269.78" width="5.15" height="3.43"/><rect class="cls-3" x="111.08" y="269.78" width="5.15" height="3.43"/><rect class="cls-3" x="103.07" y="269.78" width="5.15" height="3.43"/><rect class="cls-3" x="97.91" y="275.98" width="49.79" height="3.43"/><rect class="cls-3" x="151.91" y="275.98" width="18.5" height="3.43"/><rect class="cls-3" x="115.66" y="282.18" width="24.61" height="3.43"/><rect class="cls-3" x="147.71" y="282.18" width="10.14" height="3.43"/><rect class="cls-3" x="161.28" y="282.18" width="4.45" height="3.43"/><rect class="cls-3" x="109.93" y="282.18" width="3.43" height="3.43"/><rect class="cls-3" x="101.64" y="282.18" width="6.62" height="3.43"/><rect class="cls-3" x="115.66" y="288.38" width="12.02" height="3.43"/><rect class="cls-3" x="130.03" y="288.38" width="21.88" height="3.43"/><rect class="cls-3" x="115.66" y="294.58" width="3.63" height="3.43"/><rect class="cls-3" x="121.38" y="294.58" width="3.63" height="3.43"/><rect class="cls-3" x="128.25" y="294.58" width="3.63" height="3.43"/><rect class="cls-3" x="134.67" y="294.58" width="8.91" height="3.43"/><rect class="cls-3" x="115.66" y="300.78" width="32.05" height="3.43"/><rect class="cls-3" x="100.2" y="285.33" width="32.05" height="3.43"/><rect class="cls-3" x="114" y="279.41" width="32.05" height="3.43"/><rect class="cls-3" x="131.68" y="272.73" width="32.05" height="3.43"/><rect class="cls-3" x="111.94" y="266.82" width="32.05" height="3.43"/><rect class="cls-3" x="132.11" y="260.33" width="32.05" height="3.43"/><rect class="cls-3" x="105.64" y="254.23" width="32.05" height="3.43"/><rect class="cls-3" x="131.68" y="248.12" width="32.05" height="3.43"/><rect class="cls-3" x="114" y="241.64" width="32.05" height="3.43"/><rect class="cls-3" x="120.56" y="291.43" width="32.05" height="3.43"/><rect class="cls-3" x="150" y="232.29" width="3.82" height="3.43"/><rect class="cls-3" x="126.06" y="226.38" width="7.93" height="3.43"/><rect class="cls-5" x="53.66" y="272.39" width="39.74" height="37.18" rx="0.19"/><path class="cls-3" d="M92.77,311.29H53.88a2.15,2.15,0,0,1-2.14-2.15V272.81a2.14,2.14,0,0,1,2.14-2.14H92.77a2.14,2.14,0,0,1,2.14,2.14v36.33A2.15,2.15,0,0,1,92.77,311.29Zm-37.6-3.44H91.48V274.1H55.17Z"/><path class="cls-3" d="M88.78,272.39H85.35v-9.33a12,12,0,0,0-24,0v9.33H57.87v-9.33a15.46,15.46,0,0,1,30.91,0Z"/><path class="cls-4" d="M73.32,299.87A8.89,8.89,0,1,1,82.21,291,8.89,8.89,0,0,1,73.32,299.87Zm0-14.35A5.46,5.46,0,1,0,78.78,291,5.46,5.46,0,0,0,73.32,285.52Z"/></svg>