<svg id="Layer_1" data-name="Layer 1" xmlns="http://www.w3.org/2000/svg" viewBox="0 0 500 340"><defs><style>.cls-1{opacity:0.2;}.cls-2{fill:#f4b0b0;}.cls-3{fill:#fff;}.cls-4{fill:#f55;}.cls-5{fill:#f4cece;}.cls-6{fill:#fc8686;}.cls-7{opacity:0.6;}.cls-8{fill:#ffd7d7;}.cls-9{fill:#ffc0c0;}.cls-10{opacity:0.3;}</style></defs><g class="cls-1"><path class="cls-2" d="M453.22,310.07a196.57,196.57,0,0,0-17-80.14,62.21,62.21,0,0,0-74.49-86.36A196.34,196.34,0,0,0,256,112.83q-7.28,0-14.42.52a50.81,50.81,0,0,0-78,22.45A198.17,198.17,0,0,0,122.41,165a56.31,56.31,0,0,0-56,90.61,197.26,197.26,0,0,0-7.64,54.51Z"/></g><g class="cls-1"><path class="cls-2" d="M399.26,310.07a143.28,143.28,0,0,0-286.56,0Z"/></g><g class="cls-1"><path class="cls-2" d="M473.17,234.78a11.23,11.23,0,1,1-11.23-11.23A11.23,11.23,0,0,1,473.17,234.78Z"/></g><g class="cls-1"><circle class="cls-2" cx="299.06" cy="94.67" r="17.31" transform="translate(20.65 239.19) rotate(-45)"/></g><g class="cls-1"><path class="cls-2" d="M141,137a7.42,7.42,0,1,1-7.42-7.42A7.42,7.42,0,0,1,141,137Z"/></g><g class="cls-1"><circle class="cls-2" cx="367.09" cy="123.36" r="7.41"/></g><g class="cls-1"><path class="cls-2" d="M211,73.23a7.42,7.42,0,1,1-7.41-7.41A7.41,7.41,0,0,1,211,73.23Z"/></g><g class="cls-1"><path class="cls-2" d="M460.92,262a3,3,0,1,1-3-3A3,3,0,0,1,460.92,262Z"/></g><g class="cls-1"><path class="cls-2" d="M365.88,70.94a2.29,2.29,0,1,1-2.29-2.28A2.29,2.29,0,0,1,365.88,70.94Z"/></g><g class="cls-1"><circle class="cls-2" cx="136.55" cy="82.32" r="2.97"/></g><g class="cls-1"><path class="cls-2" d="M15.91,148.73a4,4,0,1,1-4-4A4,4,0,0,1,15.91,148.73Z"/></g><g class="cls-1"><path class="cls-2" d="M492,177.7a4,4,0,1,1-3.95-3.95A4,4,0,0,1,492,177.7Z"/></g><g class="cls-1"><circle class="cls-2" cx="75.5" cy="132.72" r="16.77"/></g><g class="cls-1"><path class="cls-2" d="M30.08,255a4,4,0,1,1-3.95-4A4,4,0,0,1,30.08,255Z"/></g><g class="cls-1"><path class="cls-2" d="M467,137a16.26,16.26,0,1,1-16.25-16.26A16.26,16.26,0,0,1,467,137Z"/></g><g class="cls-1"><circle class="cls-2" cx="26.13" cy="210.41" r="15.98"/></g><circle class="cls-3" cx="420.89" cy="285.17" r="24.96" transform="translate(46.27 628.86) rotate(-76.65)"/><path class="cls-2" d="M420.89,260.21a24.91,24.91,0,0,0-21.49,12.3A24.93,24.93,0,0,1,438,303.34a24.94,24.94,0,0,0-17.07-43.13Z"/><path class="cls-4" d="M420.89,311.86a26.69,26.69,0,1,1,26.69-26.69A26.72,26.72,0,0,1,420.89,311.86Zm0-49.92a23.23,23.23,0,1,0,23.22,23.23A23.26,23.26,0,0,0,420.89,261.94Z"/><path class="cls-4" d="M429.54,294.41H412.76a1.95,1.95,0,0,1-1.37-3.34l12.78-12.62H412.23a1.74,1.74,0,1,1,0-3.47h15.63a2,2,0,0,1,1.37,3.34L416.44,291h13.1a1.73,1.73,0,1,1,0,3.46Z"/><path class="cls-4" d="M420.16,277.71a1.74,1.74,0,0,1-1.73-1.73v-4.62a1.74,1.74,0,0,1,3.47,0V276A1.74,1.74,0,0,1,420.16,277.71Z"/><path class="cls-4" d="M420.16,299.64a1.73,1.73,0,0,1-1.73-1.73v-4.62a1.74,1.74,0,0,1,3.47,0v4.62A1.73,1.73,0,0,1,420.16,299.64Z"/><path class="cls-4" d="M410.89,84.06H274.19a1.74,1.74,0,0,1,0-3.47h136.7a1.74,1.74,0,0,1,0,3.47Z"/><path class="cls-4" d="M268.1,84.06h-5.62a1.74,1.74,0,0,1,0-3.47h5.62a1.74,1.74,0,0,1,0,3.47Z"/><path class="cls-4" d="M253.27,84.06H243.4a1.74,1.74,0,0,1,0-3.47h9.87a1.74,1.74,0,0,1,0,3.47Z"/><path class="cls-4" d="M248.34,89a1.73,1.73,0,0,1-1.74-1.73V77.39a1.74,1.74,0,0,1,3.47,0v9.87A1.73,1.73,0,0,1,248.34,89Z"/><path class="cls-4" d="M207.37,104.87H197.5a1.74,1.74,0,1,1,0-3.47h9.87a1.74,1.74,0,0,1,0,3.47Z"/><path class="cls-4" d="M202.43,109.8a1.72,1.72,0,0,1-1.73-1.73V98.2a1.73,1.73,0,1,1,3.46,0v9.87A1.72,1.72,0,0,1,202.43,109.8Z"/><path class="cls-4" d="M311.49,109.8h-9.87a1.73,1.73,0,1,1,0-3.46h9.87a1.73,1.73,0,1,1,0,3.46Z"/><path class="cls-4" d="M306.55,114.74a1.74,1.74,0,0,1-1.73-1.74v-9.86a1.74,1.74,0,1,1,3.47,0V113A1.74,1.74,0,0,1,306.55,114.74Z"/><path class="cls-4" d="M422,150a1.72,1.72,0,0,1-1.23-.5l-7-7a1.74,1.74,0,0,1,0-2.45,1.73,1.73,0,0,1,2.45,0l7,7a1.73,1.73,0,0,1-1.22,3Z"/><path class="cls-4" d="M415.05,150a1.73,1.73,0,0,1-1.23-3l7-7a1.73,1.73,0,0,1,2.45,2.45l-7,7A1.71,1.71,0,0,1,415.05,150Z"/><path class="cls-4" d="M67.84,179.75a1.73,1.73,0,0,1-1.23-.51l-7-7a1.74,1.74,0,0,1,0-2.45,1.73,1.73,0,0,1,2.45,0l7,7a1.74,1.74,0,0,1-1.22,3Z"/><path class="cls-4" d="M60.86,179.75a1.74,1.74,0,0,1-1.23-3l7-7a1.73,1.73,0,1,1,2.45,2.45l-7,7A1.7,1.7,0,0,1,60.86,179.75Z"/><path class="cls-4" d="M139,125.91a1.73,1.73,0,0,1-1.23-.51,1.74,1.74,0,0,1,0-2.45l7-7a1.74,1.74,0,0,1,2.45,0,1.73,1.73,0,0,1,0,2.45l-7,7A1.72,1.72,0,0,1,139,125.91Z"/><path class="cls-4" d="M146,125.91a1.72,1.72,0,0,1-1.22-.51l-7-7A1.73,1.73,0,1,1,140.2,116l7,7a1.74,1.74,0,0,1-1.23,3Z"/><path class="cls-4" d="M165.62,104.87H62.53a1.74,1.74,0,0,1,0-3.47H165.62a1.74,1.74,0,0,1,0,3.47Z"/><path class="cls-4" d="M132.23,123.36H47.54a1.73,1.73,0,0,1,0-3.46h84.69a1.73,1.73,0,0,1,0,3.46Z"/><path class="cls-4" d="M465.58,109.8H320.85a1.73,1.73,0,1,1,0-3.46H465.58a1.73,1.73,0,1,1,0,3.46Z"/><path class="cls-4" d="M189,104.87H177.91a1.74,1.74,0,0,1,0-3.47H189a1.74,1.74,0,0,1,0,3.47Z"/><polygon class="cls-4" points="39.79 156.61 44.17 154.08 48.56 156.61 48.56 161.67 44.17 164.21 39.79 161.67 39.79 156.61"/><polygon class="cls-4" points="234.36 46.68 238.75 44.15 243.13 46.68 243.13 51.74 238.75 54.27 234.36 51.74 234.36 46.68"/><polygon class="cls-4" points="443.08 241.94 445.68 240.44 448.29 241.94 448.29 244.95 445.68 246.45 443.08 244.95 443.08 241.94"/><polygon class="cls-4" points="55.49 238.82 58.1 237.32 60.71 238.82 60.71 241.83 58.1 243.34 55.49 241.83 55.49 238.82"/><polygon class="cls-4" points="456.17 175.48 460.55 172.95 464.94 175.48 464.94 180.54 460.55 183.08 456.17 180.54 456.17 175.48"/><polygon class="cls-4" points="173.21 68.08 179.13 64.67 185.04 68.08 185.04 74.91 179.13 78.33 173.21 74.91 173.21 68.08"/><rect class="cls-3" x="215.75" y="281.63" width="81.26" height="28.5"/><rect class="cls-5" x="215.75" y="281.63" width="81.26" height="14.25"/><rect class="cls-3" x="174.32" y="180.07" width="166.38" height="103.57" rx="3.86"/><path class="cls-6" d="M336.84,180.07a3.86,3.86,0,0,1,3.86,3.87v76.49H174.32V183.94a3.87,3.87,0,0,1,3.87-3.87Z"/><g class="cls-7"><polygon class="cls-8" points="204.94 260.43 226.2 260.43 306.55 180.07 285.29 180.07 204.94 260.43"/><polygon class="cls-8" points="229.71 180.07 174.32 235.47 174.32 260.43 193.78 260.43 274.14 180.07 229.71 180.07"/></g><path class="cls-4" d="M336.67,285.38H178a5.6,5.6,0,0,1-5.6-5.6V183.94a5.6,5.6,0,0,1,5.6-5.6H336.67a5.6,5.6,0,0,1,5.59,5.6v95.84A5.6,5.6,0,0,1,336.67,285.38ZM178,181.81a2.13,2.13,0,0,0-2.14,2.13v95.84a2.13,2.13,0,0,0,2.14,2.13H336.67a2.13,2.13,0,0,0,2.13-2.13V183.94a2.13,2.13,0,0,0-2.13-2.13Z"/><rect class="cls-4" x="214.01" y="283.65" width="3.46" height="26.48"/><rect class="cls-4" x="295.27" y="283.65" width="3.46" height="26.48"/><rect class="cls-4" x="201.24" y="308.39" width="111.16" height="3.46"/><rect class="cls-4" x="174.15" y="259.46" width="166.38" height="3.46"/><rect class="cls-3" x="270.13" y="218.59" width="3.99" height="3.46"/><rect class="cls-3" x="260.1" y="218.59" width="3.99" height="3.46"/><rect class="cls-3" x="250.07" y="218.59" width="3.99" height="3.46"/><rect class="cls-3" x="240.05" y="218.59" width="3.99" height="3.46"/><path class="cls-3" d="M320.43,136.65h-.63a23,23,0,0,0-34.57-13,31.54,31.54,0,0,0-61.3-4.54,21.6,21.6,0,0,0-27,17.51h-3.53a16.24,16.24,0,0,0-16.19,16.19V154a16.24,16.24,0,0,0,16.19,16.19H320.43A16.24,16.24,0,0,0,336.62,154v-1.19A16.24,16.24,0,0,0,320.43,136.65Z"/><path class="cls-4" d="M320.43,172H298.75v-3.47h21.68A14.47,14.47,0,0,0,334.89,154v-1.19a14.48,14.48,0,0,0-14.46-14.46H318.5l-.36-1.25a21.44,21.44,0,0,0-20.48-15.38,21.22,21.22,0,0,0-11.5,3.39l-2.24,1.44-.41-2.63a29.8,29.8,0,0,0-52.26-14.65A30.42,30.42,0,0,0,228,114a29.79,29.79,0,0,0-2.45,5.69l-.49,1.6-1.61-.44a20.37,20.37,0,0,0-5.19-.7,19.82,19.82,0,0,0-19.67,16.81l-.23,1.46h-5a14.48,14.48,0,0,0-14.46,14.46V154a14.47,14.47,0,0,0,14.46,14.45h23.56V172H193.38A17.94,17.94,0,0,1,175.46,154v-1.19a17.94,17.94,0,0,1,17.92-17.92h2.09a23.31,23.31,0,0,1,27.32-17.82,33.06,33.06,0,0,1,2.22-4.84,33.61,33.61,0,0,1,3.6-5.19A33.26,33.26,0,0,1,286.47,121a24.77,24.77,0,0,1,34.6,14,18,18,0,0,1,17.28,17.91V154A17.94,17.94,0,0,1,320.43,172Z"/><path class="cls-4" d="M231.67,129.52H228.2a9.51,9.51,0,0,0-9.5-9.5v-3.47A13,13,0,0,1,231.67,129.52Z"/><path class="cls-4" d="M312,139.66h-3.46a9.51,9.51,0,0,0-9.5-9.5v-3.47A13,13,0,0,1,312,139.66Z"/><path class="cls-4" d="M240.52,109.89l-2.67-2.21a12.94,12.94,0,0,1,10-4.69v3.46A9.49,9.49,0,0,0,240.52,109.89Z"/><path class="cls-3" d="M287.88,174v-7.71l-6.45-1.76a24.42,24.42,0,0,0-3-7.27l3.86-6.29-5.45-5.45-6.36,3.78a24.34,24.34,0,0,0-7.26-3l-1.78-7h-7.71l-1.77,7a23.93,23.93,0,0,0-7.2,3l-6.13-3.64-5.47,5.44,3.62,6.13a24.49,24.49,0,0,0-3,7.26l-6.46,2,0,7.71,6.45,1.52a24.4,24.4,0,0,0,3,7.27l-3.88,6,5.44,5.46,6.38-3.44a24.25,24.25,0,0,0,7.26,3l1.8,7.42h7.71l1.74-7.41a24.29,24.29,0,0,0,7.27-3l6.38,3.74,5.46-5.44-3.87-6.25a24.52,24.52,0,0,0,3-7.26Z"/><circle class="cls-9" cx="256.74" cy="170" r="10.86"/><polygon class="cls-4" points="257.16 175.71 248.59 167.14 251.04 164.69 257.16 170.81 270.62 157.35 273.07 159.8 257.16 175.71"/><path class="cls-4" d="M256.74,182.6A12.6,12.6,0,1,1,262.85,159l-1.68,3a9.24,9.24,0,0,0-4.43-1.14,9.13,9.13,0,1,0,9.13,9.13h3.47A12.61,12.61,0,0,1,256.74,182.6Z"/><path class="cls-4" d="M262.56,203.15l-10.44,0-1.88-7.73a26.42,26.42,0,0,1-5.86-2.45l-6.65,3.59-7.35-7.37,4.06-6.23a26,26,0,0,1-2.39-5.78l-6.77-1.59,0-10.35,6.76-2.12a26.26,26.26,0,0,1,2.45-5.9l-3.77-6.42,7.37-7.33,6.4,3.8a25.94,25.94,0,0,1,5.77-2.39l1.85-7.31h10.41l1.85,7.31a26.37,26.37,0,0,1,5.84,2.42l6.63-3.94,7.37,7.37-4,6.57a25.68,25.68,0,0,1,2.41,5.84l6.76,1.84v10.35l-6.76,1.87a25.71,25.71,0,0,1-2.42,5.84l4.05,6.52-7.38,7.36L270.2,193a25.72,25.72,0,0,1-5.82,2.41Zm-7.72-3.48h5l1.67-7.13,1.05-.24a22.9,22.9,0,0,0,6.75-2.79l.89-.55,6.13,3.59,3.53-3.53-3.71-6,.56-.91a22.47,22.47,0,0,0,2.81-6.75l.24-1,6.17-1.7v-5.07l-6.17-1.69-.23-1a22.66,22.66,0,0,0-2.8-6.75l-.56-.91,3.7-6-3.54-3.54-6.1,3.63-.89-.55a22.66,22.66,0,0,0-6.75-2.8l-1-.24-1.7-6.72h-5l-1.7,6.72-1,.24a22.56,22.56,0,0,0-6.7,2.77l-.89.55-5.87-3.49-3.56,3.54,3.46,5.89-.55.89a22.69,22.69,0,0,0-2.82,6.74l-.22,1-6.2,1.94v5.07l6.17,1.44.24,1a22.38,22.38,0,0,0,2.79,6.75l.57.94-3.7,5.7,3.54,3.55,6.12-3.31.85.53a22.21,22.21,0,0,0,6.75,2.81l1,.25Z"/><rect class="cls-4" x="255.58" y="146.3" width="3.29" height="3.46"/><rect class="cls-4" x="271.28" y="152.93" width="3.46" height="3.29" transform="translate(-29.4 238.11) rotate(-44.96)"/><rect class="cls-4" x="277.89" y="168.64" width="3.29" height="3.46" transform="translate(108.81 449.69) rotate(-89.93)"/><rect class="cls-4" x="271.33" y="184.42" width="3.29" height="3.46" transform="translate(-51.76 247.1) rotate(-44.92)"/><rect class="cls-4" x="255.44" y="191.02" width="3.46" height="3.29" transform="translate(63.99 449.44) rotate(-89.88)"/><rect class="cls-4" x="239.67" y="184.44" width="3.46" height="3.29" transform="translate(-60.98 224.39) rotate(-44.85)"/><rect class="cls-4" x="233.26" y="168.54" width="3.29" height="3.46" transform="translate(63.86 404.62) rotate(-89.81)"/><rect class="cls-4" x="239.85" y="152.78" width="3.29" height="3.46" transform="translate(-38.75 214.99) rotate(-44.79)"/><circle class="cls-3" cx="131.21" cy="285.17" r="24.96" transform="translate(-176.47 347.35) rotate(-76.72)"/><path class="cls-2" d="M131.21,260.21a24.91,24.91,0,0,0-21.48,12.3,24.93,24.93,0,0,1,38.56,30.83,24.94,24.94,0,0,0-17.08-43.13Z"/><path class="cls-4" d="M131.21,311.86a26.69,26.69,0,1,1,26.69-26.69A26.73,26.73,0,0,1,131.21,311.86Zm0-49.92a23.23,23.23,0,1,0,23.23,23.23A23.25,23.25,0,0,0,131.21,261.94Z"/><path class="cls-4" d="M131.54,305.23a2.13,2.13,0,0,1-1.9-1.17L122,292.26a2.25,2.25,0,0,1,2.86-3.26l6.36,3,6.44-3.06a2.25,2.25,0,0,1,2.9,3.19l-7.16,12a2.06,2.06,0,0,1-1.82,1.07Zm-4.33-11.29,4.29,6.64,4.05-6.79-4.33,2Z"/><rect class="cls-4" x="120.85" y="275.47" width="20.72" height="3.46" transform="translate(-146.16 408.06) rotate(-89.93)"/><path class="cls-4" d="M131.21,289.54l-8.94-3.24a2.11,2.11,0,0,1-1.24-1.21,2.09,2.09,0,0,1,.09-1.73l8.52-16.58a2.28,2.28,0,0,1,1.94-1.16,2.14,2.14,0,0,1,1.9,1.23l7.86,16.56a2.12,2.12,0,0,1-1.19,2.89Zm-6.31-6,6.31,2.29,6.36-2.31-6.08-12.8Z"/><circle class="cls-3" cx="168.79" cy="285.17" r="24.96" transform="translate(-147.53 383.93) rotate(-76.72)"/><path class="cls-2" d="M168.79,260.21a24.91,24.91,0,0,0-21.48,12.3,24.93,24.93,0,0,1,38.56,30.83,24.94,24.94,0,0,0-17.08-43.13Z"/><path class="cls-4" d="M170.4,287.66H158.46V284.2H170.4a3.95,3.95,0,1,0,0-7.89H158.46v-3.47H170.4a7.41,7.41,0,0,1,0,14.82Z"/><path class="cls-4" d="M172.47,298.84h-14v-3.46h14c2.72,0,4.93-1.77,4.93-3.95s-2.21-3.94-4.93-3.94h-14V284h14c4.63,0,8.39,3.32,8.39,7.4S177.1,298.84,172.47,298.84Z"/><rect class="cls-4" x="161.13" y="268.98" width="3.46" height="32.36"/><rect class="cls-4" x="166.39" y="268.98" width="3.46" height="5.59"/><rect class="cls-4" x="166.39" y="297.11" width="3.46" height="4.23"/><path class="cls-4" d="M168.79,311.86a26.69,26.69,0,1,1,26.69-26.69A26.73,26.73,0,0,1,168.79,311.86Zm0-49.92A23.23,23.23,0,1,0,192,285.17,23.25,23.25,0,0,0,168.79,261.94Z"/><circle class="cls-3" cx="343.55" cy="285.17" r="24.96" transform="translate(-16.5 549.2) rotate(-75.95)"/><path class="cls-2" d="M343.55,260.21a24.91,24.91,0,0,0-21.49,12.3,24.93,24.93,0,0,1,38.56,30.83,24.94,24.94,0,0,0-17.07-43.13Z"/><path class="cls-4" d="M343.55,311.86a26.69,26.69,0,1,1,26.69-26.69A26.72,26.72,0,0,1,343.55,311.86Zm0-49.92a23.23,23.23,0,1,0,23.22,23.23A23.26,23.26,0,0,0,343.55,261.94Z"/><path class="cls-4" d="M354.84,303.21H333.68l1.92-16.52-3.05.55L331.47,279l5-.86,1.41-10.87h7.57l1.05,1.18-1,8.09,2.7-.51,1.07,8.3-4.62.81-1,9.37h13l0,8.74Zm-17.27-3.46h15.55v-1.82H339.73l1.75-15.77,3.92-.74-.17-1.35-3.77.72,1.26-10.11h-1.81l-1.33,10.39-4.25.76.18,1.36,4.07-.74Z"/><circle class="cls-6" cx="378.64" cy="285.17" r="24.96" transform="translate(9.69 582.76) rotate(-75.87)"/><g class="cls-10"><path class="cls-4" d="M378.64,260.21a24.93,24.93,0,0,0-21.49,12.3,24.93,24.93,0,0,1,38.56,30.83,24.93,24.93,0,0,0-17.07-43.13Z"/></g><path class="cls-4" d="M378.64,311.86a26.69,26.69,0,1,1,26.69-26.69A26.72,26.72,0,0,1,378.64,311.86Zm0-49.92a23.23,23.23,0,1,0,23.22,23.23A23.26,23.26,0,0,0,378.64,261.94Z"/><path class="cls-3" d="M383.4,285.39a6.79,6.79,0,0,1-3.41-.92,6.86,6.86,0,0,1-2.51-9.36,6.86,6.86,0,1,1,5.92,10.28Zm0-10.24a3.44,3.44,0,0,0-2.94,1.69,3.39,3.39,0,0,0,1.24,4.63,3.35,3.35,0,0,0,2.57.34,3.31,3.31,0,0,0,2.06-1.58,3.39,3.39,0,0,0,.34-2.57,3.44,3.44,0,0,0-1.58-2.06A3.37,3.37,0,0,0,383.42,275.15Z"/><path class="cls-3" d="M369.61,292.63a6.84,6.84,0,1,1,5.95-3.42h0A6.85,6.85,0,0,1,369.61,292.63Zm0-10.24a3.42,3.42,0,0,0-2.94,1.7,3.37,3.37,0,1,0,2.94-1.7Z"/><path class="cls-3" d="M377.4,293.32a3.05,3.05,0,0,0-1.43-1.88,3.11,3.11,0,0,0-2.35-.31l-.89-3.34a6.5,6.5,0,0,1,5,.65,6.57,6.57,0,0,1,3.05,4Z"/><path class="cls-3" d="M382.91,290.62a6.55,6.55,0,0,1-2.39-8.95l3,1.74a3,3,0,0,0-.31,2.34,3,3,0,0,0,1.44,1.87Z"/><path class="cls-3" d="M376.4,285.86a6.54,6.54,0,0,1-3.26-.88l1.73-3a3.09,3.09,0,0,0,2.34.31,3.13,3.13,0,0,0,1.88-1.44l3,1.73a6.5,6.5,0,0,1-4,3.05A6.7,6.7,0,0,1,376.4,285.86Z"/><path class="cls-3" d="M384,301a6.85,6.85,0,1,1,6-3.42h0A6.87,6.87,0,0,1,384,301Zm0-10.24a3.42,3.42,0,0,0-2.94,1.7,3.37,3.37,0,1,0,2.94-1.7Z"/><circle class="cls-6" cx="92.37" cy="285.17" r="24.96" transform="translate(-206.39 309.55) rotate(-76.72)"/><g class="cls-10"><path class="cls-4" d="M92.37,260.21a24.9,24.9,0,0,0-21.48,12.3,24.93,24.93,0,0,1,38.56,30.83,24.94,24.94,0,0,0-17.08-43.13Z"/></g><path class="cls-4" d="M92.37,311.86a26.69,26.69,0,1,1,26.69-26.69A26.73,26.73,0,0,1,92.37,311.86Zm0-49.92a23.23,23.23,0,1,0,23.23,23.23A23.25,23.25,0,0,0,92.37,261.94Z"/><path class="cls-3" d="M100.33,295H81.64a1.74,1.74,0,0,1,0-3.47h18.69a1.85,1.85,0,0,0,1.78-1.35l2.5-9.1a1.79,1.79,0,0,0-.31-1.61,1.81,1.81,0,0,0-1.47-.73H86.11a1.74,1.74,0,0,1,0-3.47h16.72A5.31,5.31,0,0,1,108,282l-2.5,9.09A5.33,5.33,0,0,1,100.33,295Z"/><path class="cls-3" d="M88.92,286.9H78.33a1.74,1.74,0,0,1,0-3.47H88.92a1.74,1.74,0,0,1,0,3.47Z"/><path class="cls-4" d="M469.46,311.86H44.17a1.74,1.74,0,0,1,0-3.47H469.46a1.74,1.74,0,0,1,0,3.47Z"/><path class="cls-4" d="M482,311.86h-6.28a1.74,1.74,0,0,1,0-3.47H482a1.74,1.74,0,0,1,0,3.47Z"/><path class="cls-4" d="M37.94,311.86H27.28a1.74,1.74,0,0,1,0-3.47H37.94a1.74,1.74,0,0,1,0,3.47Z"/><path class="cls-4" d="M95.76,238.43H92.3V181.37A30.45,30.45,0,0,1,122.72,151h44.55v3.46H122.72a27,27,0,0,0-27,27Z"/><path class="cls-4" d="M129.24,238.43h-3.46V181.37A30.45,30.45,0,0,1,156.2,151h6.45v3.46H156.2a27,27,0,0,0-27,27Z"/><path class="cls-4" d="M419.54,238.43h-3.47V181.37a27,27,0,0,0-27-27H344.56V151h44.55a30.46,30.46,0,0,1,30.43,30.42Z"/><path class="cls-4" d="M386.05,238.43h-3.46V181.37a27,27,0,0,0-27-27h-6.45V151h6.45a30.45,30.45,0,0,1,30.42,30.42Z"/><path class="cls-4" d="M94.11,249.05a6.18,6.18,0,1,1,6.17-6.17A6.18,6.18,0,0,1,94.11,249.05Zm0-8.88a2.71,2.71,0,1,0,2.71,2.71A2.71,2.71,0,0,0,94.11,240.17Z"/><path class="cls-4" d="M127.59,249.05a6.18,6.18,0,1,1,6.18-6.17A6.18,6.18,0,0,1,127.59,249.05Zm0-8.88a2.71,2.71,0,1,0,2.71,2.71A2.71,2.71,0,0,0,127.59,240.17Z"/><path class="cls-4" d="M385.06,249.05a6.18,6.18,0,1,1,6.17-6.17A6.18,6.18,0,0,1,385.06,249.05Zm0-8.88a2.71,2.71,0,1,0,2.71,2.71A2.71,2.71,0,0,0,385.06,240.17Z"/><path class="cls-4" d="M418.54,249.05a6.18,6.18,0,1,1,6.17-6.17A6.18,6.18,0,0,1,418.54,249.05Zm0-8.88a2.71,2.71,0,1,0,2.71,2.71A2.71,2.71,0,0,0,418.54,240.17Z"/></svg>