<svg id="Layer_1" data-name="Layer 1" xmlns="http://www.w3.org/2000/svg" viewBox="0 0 512 512"><defs><style>.cls-1{fill:#039be5;}</style></defs><title>diamond-azur</title><path class="cls-1" d="M454.25,258.61l-55.7-86A23.24,23.24,0,0,0,379,161.94H133.2a23.24,23.24,0,0,0-19.56,10.62l-55.88,86a23.4,23.4,0,0,0,2.15,28.23L238.57,487.4A23.36,23.36,0,0,0,256,495.21h0a23.36,23.36,0,0,0,17.42-7.81L452.09,286.8A23.38,23.38,0,0,0,454.25,258.61Zm-86.56-76.67-46.85,72.44L274,181.94Zm-65.23,80.85H209.52L256,191ZM238,181.94l-46.74,72.24-46.73-72.24Zm-112,8.24,47,72.61H78.89ZM83.11,282.79H183.75L237,455.53ZM256,449.34,204.68,282.79H307.3Zm19,6.19,53.22-172.74H428.88Zm64.21-192.74,46.93-72.56,47,72.56Z"/><path class="cls-1" d="M30.33,262.79H10a10,10,0,0,0,0,20H30.33a10,10,0,0,0,0-20Z"/><path class="cls-1" d="M502,262.79H481.67a10,10,0,0,0,0,20H502a10,10,0,0,0,0-20Z"/><path class="cls-1" d="M437.15,91.83a10,10,0,0,0-14.15,0L389.79,125a10,10,0,1,0,14.14,14.14L437.15,106A10,10,0,0,0,437.15,91.83Z"/><path class="cls-1" d="M122.65,124.86,89.43,91.65a10,10,0,0,0-14.14,14.14L108.5,139a10,10,0,1,0,14.15-14.15Z"/><path class="cls-1" d="M256.25,16.79a10,10,0,0,0-10,10V92a10,10,0,0,0,20,0V26.79A10,10,0,0,0,256.25,16.79Z"/><path class="cls-1" d="M263.32,118.72a10,10,0,1,0,2.93,7.07A10.08,10.08,0,0,0,263.32,118.72Z"/></svg>