<svg id="Layer_1" data-name="Layer 1" xmlns="http://www.w3.org/2000/svg" viewBox="0 0 350 350"><defs><style>.cls-1{fill:#a1c0c9;}.cls-2{fill:#f0f1f1;}.cls-3{fill:#424243;}.cls-4{fill:#00b289;}.cls-5{fill:#435e7d;}.cls-6{opacity:0.56;}.cls-7{fill:#a0d4f5;}.cls-8{fill:#2b3d4d;}.cls-9{fill:#9ed1e3;}.cls-10{opacity:0.18;}.cls-11{fill:#272525;}.cls-12{opacity:0.79;}.cls-13{fill:#837fcb;}.cls-14{fill:#618247;}.cls-15{fill:#bcd589;}</style></defs><title>ecommerce-type-2-green</title><rect class="cls-1" x="84.7" y="155.7" width="180.8" height="110.8"/><rect class="cls-2" x="84.7" y="155.7" width="180.8" height="86.9"/><path class="cls-3" d="M265.5,264.3H92.1c-2.2,0-4.8-.4-7,0h-.3l2.2,2.2V155.7l-2.2,2.2H258.2c2.2,0,4.8.4,7,0h.3l-2.2-2.2V266.5c0,2.9,4.5,2.9,4.5,0V155.7a2.22,2.22,0,0,0-2.2-2.2H107.1c-7.3,0-14.6-.3-21.9,0h-.3a2.22,2.22,0,0,0-2.2,2.2V266.5a2.22,2.22,0,0,0,2.2,2.2H243.4c7.3,0,14.6.3,21.9,0h.3C268.4,268.7,268.4,264.3,265.5,264.3Z"/><path class="cls-2" d="M99.7,156.1l9.1-55.4h23.8l-3.1,55.4s-.9,14.9-14.9,14.9S99.7,156.1,99.7,156.1Z"/><path class="cls-2" d="M159.3,156.1V100.7h29.8v55.4s-.4,14.9-14.9,14.9S159.3,156.1,159.3,156.1Z"/><path class="cls-2" d="M219,156.1l-.9-55.4h24.7l6,55.4s-.7,12.7-13.1,14.7S219.3,161.5,219,156.1Z"/><path class="cls-4" d="M278.7,156.1l-11.6-55.4H242.8l6,55.4s0,14.9,14.9,14.9S278.7,156.1,278.7,156.1Z"/><rect class="cls-5" x="217.1" y="177.5" width="35.8" height="89"/><path class="cls-3" d="M252.9,264.3H217.1l2.2,2.2V177.6l-2.2,2.2h35.8l-2.2-2.2v88.9c0,2.9,4.5,2.9,4.5,0V177.6a2.22,2.22,0,0,0-2.2-2.2H217.2a2.22,2.22,0,0,0-2.2,2.2v88.9a2.22,2.22,0,0,0,2.2,2.2H253C255.7,268.7,255.7,264.3,252.9,264.3Z"/><g class="cls-6"><path class="cls-3" d="M171.2,287.9h-99a1.75,1.75,0,0,1-1.7-1.7h0a1.75,1.75,0,0,1,1.7-1.7h99.1a1.75,1.75,0,0,1,1.7,1.7h0A1.77,1.77,0,0,1,171.2,287.9Z"/></g><g class="cls-6"><path class="cls-3" d="M180.6,287.9h-2.4a1.75,1.75,0,0,1-1.7-1.7h0a1.75,1.75,0,0,1,1.7-1.7h2.4a1.75,1.75,0,0,1,1.7,1.7h0A1.69,1.69,0,0,1,180.6,287.9Z"/></g><g class="cls-6"><path class="cls-3" d="M263.8,296.8H167.4a1.79,1.79,0,0,1-1.8-1.8h0a1.79,1.79,0,0,1,1.8-1.8h96.4a1.79,1.79,0,0,1,1.8,1.8h0A1.93,1.93,0,0,1,263.8,296.8Z"/></g><g class="cls-6"><path class="cls-3" d="M274.7,296.8h-4.5a1.79,1.79,0,0,1-1.8-1.8h0a1.79,1.79,0,0,1,1.8-1.8h4.5a1.79,1.79,0,0,1,1.8,1.8h0A1.86,1.86,0,0,1,274.7,296.8Z"/></g><g class="cls-6"><path class="cls-3" d="M150.8,306.2h-4.5a1.79,1.79,0,0,1-1.8-1.8h0a1.79,1.79,0,0,1,1.8-1.8h4.5a1.79,1.79,0,0,1,1.8,1.8h0A1.79,1.79,0,0,1,150.8,306.2Z"/></g><path class="cls-4" d="M132.6,100.7h26.7v55.4s-1.6,14.7-14.9,14.9-14.9-14.9-14.9-14.9Z"/><path class="cls-4" d="M189.2,100.7v55.4s.7,15.1,14.9,14.9S219,156.1,219,156.1l-.9-55.4Z"/><path class="cls-4" d="M108.9,100.7c-1.3,7.9-2.6,15.9-4,23.8-1.7,10.1-3.4,20.1-5,30.2-.6,3.9-1.3,7.4-3.8,10.6a14.4,14.4,0,0,1-11.4,5.6c-13.8.4-13.8-15.4-13.8-15.4l14.8-55Z"/><path class="cls-3" d="M280.8,155.5c-3.4-16.2-6.8-32.4-10.1-48.5-.5-2.3-1-4.6-1.4-6.9a2.25,2.25,0,0,0-2.1-1.6H85.9a2.16,2.16,0,0,0-2.1,1.6c-4.2,15.7-8.5,31.3-12.7,47-.7,2.5-1.5,5-2,7.6-.5,2,0,4.1.5,6.1,1.1,4.6,3.7,9,8.2,11.1,6.5,3.1,15.1,1.1,19.7-4.3a13.76,13.76,0,0,0,2.3-3.6,15.94,15.94,0,0,0,10.1,8.7c5.5,1.5,11.7.5,16-3.3a16.54,16.54,0,0,0,4-5.4c2.2,4.3,5.7,7.7,10.5,8.9a16.88,16.88,0,0,0,19-8.8,15.82,15.82,0,0,0,9.5,8.4c5.4,1.7,12,.9,16.4-2.7a15.44,15.44,0,0,0,4.2-5.3,15.66,15.66,0,0,0,10.7,8.5c7.9,1.6,15.5-1.7,19.1-8.7,3,5.8,8.7,9.8,16.1,8.9a18.62,18.62,0,0,0,13.6-8.7,21.37,21.37,0,0,0,2,3.2c3.5,4.3,9.1,6,14.6,5.6a16.74,16.74,0,0,0,15.6-17.1A1.72,1.72,0,0,1,280.8,155.5ZM97,158c-1,4-3,7.5-6.8,9.4a13.28,13.28,0,0,1-9.8.8c-4-1.3-6.1-5.3-6.9-9.2a31.06,31.06,0,0,1-.4-3.2c0-.1.1-.3.1-.4.7-2.5,1.4-5,2-7.5,2.5-9.1,4.9-18.2,7.4-27.3,1.6-5.9,3.2-11.9,4.8-17.8h18.8c-1.6,9.5-3.1,19-4.7,28.5-.7,4.3-1.4,8.5-2.1,12.8-.2,1.4-.4,2.8-.6,4.1v.2c-.4,2.2-.7,4.4-1.1,6.6a1.7,1.7,0,0,0-.1.7A13.12,13.12,0,0,0,97,158Zm30.3-1.8v.5a18.23,18.23,0,0,1-1.1,4,11.7,11.7,0,0,1-8.3,7.7c-5.2,1.2-10.8-.5-13.6-5.2a16,16,0,0,1-2-5.1c-.1-.5-.2-1.1-.3-1.6v-.3c1.5-9,3-18,4.4-27,1.5-8.8,2.9-17.5,4.4-26.3h19.5c-.7,12.6-1.4,25.1-2.1,37.7l-.6,10.5c-.1,1.2-.2,2.4-.2,3.5,0,.5-.1,1-.1,1.4Zm29.8,0c-1.2,5.7-4.2,11.2-10.5,12.4-7.2,1.3-12.5-3.4-14.3-10a20.48,20.48,0,0,1-.5-2.4c.3-3,.3-6.1.5-9.1.5-9.1,1-18.3,1.5-27.4l.9-16.8h22.4v53.2h0Zm29.8.2v.8a21.7,21.7,0,0,1-1.1,4.2,11.62,11.62,0,0,1-8.7,7.2c-5.3,1-10.8-.8-13.5-5.7a16.16,16.16,0,0,1-1.7-4.8,13.8,13.8,0,0,1-.3-2V137.8c0-11.6.2-23.3,0-34.9H187v53.2A.37.37,0,0,0,186.9,156.4Zm29.7,1.1a8.33,8.33,0,0,1-.4,1.5,25,25,0,0,1-1.5,3.8,11.41,11.41,0,0,1-7.8,5.7c-7.3,1.5-13.2-2.5-15-9.5a8.79,8.79,0,0,1-.5-2.9v-.3c.2-2.6,0-5.3,0-7.9v-45h24.5c.1,9.2.3,18.3.4,27.5V132c.1,5.8.2,11.5.3,17.3,0,2.1.1,4.3.1,6.4a4.1,4.1,0,0,1-.1,1.1h0v.1C216.7,157.1,216.6,157.3,216.6,157.5Zm29.9-.4a16,16,0,0,1-4.5,8.6c-4,3.5-11,4.5-15.5,1.2-3.2-2.4-5-6.8-5.3-10.7-.1-6-.2-12.1-.3-18.1-.2-11.7-.2-23.4-.6-35.1h20.5c1.2,11.5,2.5,22.9,3.7,34.4.3,2.6.6,5.1.8,7.7l1.2,11.4C246.6,156.9,246.6,156.3,246.5,157.1Zm28.7,4.7a11.21,11.21,0,0,1-9.4,6.9c-4.8.6-9.8-.8-12.5-5a16.12,16.12,0,0,1-2.2-7.2v-.4a51.25,51.25,0,0,0-.7-7.7c-1-10.1-2.3-20.1-3.4-30.2V118c-.5-5-1.1-10.1-1.6-15.1h20c3.3,15.6,6.5,31.3,9.8,46.9.4,2.1.9,4.3,1.3,6.4A17.39,17.39,0,0,1,275.2,161.8Z"/><rect class="cls-7" x="93.7" y="181.1" width="108.9" height="52.4"/><path class="cls-3" d="M202.6,234.5H93.7a.94.94,0,0,1-1-1V181.1a.94.94,0,0,1,1-1H202.6a.94.94,0,0,1,1,1v52.4A1.08,1.08,0,0,1,202.6,234.5ZM94.7,232.4H201.6V182H94.7Z"/><rect class="cls-8" x="222.1" y="235.5" width="26.3" height="25.5"/><rect class="cls-9" x="222.1" y="182.4" width="26.3" height="5"/><path class="cls-3" d="M249.5,182.4a1.11,1.11,0,0,0-1.1-1.1H222.1a1.11,1.11,0,0,0-1.1,1.1v5a1.11,1.11,0,0,0,1.1,1.1h26.3a.91.91,0,0,0,.7-.3.1.1,0,0,0,.1-.1l.1-.1a.91.91,0,0,0,.3-.7C249.5,185.7,249.5,184,249.5,182.4Zm-2.3,3.9h-24v-2.8h24Z"/><rect class="cls-8" x="222.1" y="190.5" width="26.3" height="27.5"/><path class="cls-2" d="M242.2,226.9v-.6a.68.68,0,0,1,.7-.7h7.4a.68.68,0,0,1,.7.7v.6a.68.68,0,0,1-.7.7H243A.67.67,0,0,1,242.2,226.9Z"/><path class="cls-3" d="M241.8,226.6a1.54,1.54,0,0,1,1.5-1.5h6.8a1.5,1.5,0,0,1,0,3h-6.8A1.47,1.47,0,0,1,241.8,226.6Zm8.9,0a.65.65,0,0,0-.6-.6h-6.8a.6.6,0,1,0,0,1.2h6.8A.65.65,0,0,0,250.7,226.6Z"/><rect class="cls-4" x="73.9" y="90.1" width="201.6" height="9.1"/><path class="cls-3" d="M275.5,87.8H98.8c-8.1,0-16.4-.3-24.5,0h-.4A2.22,2.22,0,0,0,71.7,90v9.1a2.22,2.22,0,0,0,2.2,2.2H250.6c8.1,0,16.4.3,24.5,0h.4a2.22,2.22,0,0,0,2.2-2.2V90c0-2.9-4.5-2.9-4.5,0v9.1l2.2-2.2H82c-2.5,0-5.4-.4-7.9,0h-.4l2.2,2.2V90l-2.2,2.2H250.4c8.1,0,16.4.3,24.5,0h.4C278.4,92.3,278.4,87.8,275.5,87.8Z"/><rect class="cls-2" x="84.7" y="53.6" width="179.9" height="36.7"/><path class="cls-3" d="M264.7,51.3H107c-7.3,0-14.6-.3-21.9,0h-.3a2.22,2.22,0,0,0-2.2,2.2V90.2a2.22,2.22,0,0,0,2.2,2.2H242.5c7.3,0,14.6.3,21.9,0h.3a2.22,2.22,0,0,0,2.2-2.2V53.5c0-2.9-4.5-2.9-4.5,0V90.2l2.2-2.2H92.1c-2.2,0-4.9-.4-7.1,0h-.3l2.2,2.2V53.5l-2.2,2.2H242.4c7.3,0,14.6.3,21.9,0h.3C267.5,55.8,267.5,51.3,264.7,51.3Z"/><rect class="cls-4" x="73.9" y="46.2" width="201.6" height="9.1"/><path class="cls-3" d="M275.5,44H98.8c-8.1,0-16.4-.3-24.5,0h-.4a2.22,2.22,0,0,0-2.2,2.2v9.1a2.22,2.22,0,0,0,2.2,2.2H250.6c8.1,0,16.4.3,24.5,0h.4a2.22,2.22,0,0,0,2.2-2.2V46.2c0-2.9-4.5-2.9-4.5,0v9.1l2.2-2.2H82c-2.5,0-5.4-.4-7.9,0h-.4l2.2,2.2V46.2l-2.2,2.2H250.4c8.1,0,16.4.3,24.5,0h.4C278.4,48.4,278.4,44,275.5,44Z"/><g class="cls-10"><path class="cls-11" d="M84.2,171a14.94,14.94,0,0,0,14.9-14.9,14.9,14.9,0,1,0,29.8,0,14.9,14.9,0,1,0,29.8,0,14.9,14.9,0,0,0,29.8,0,14.9,14.9,0,0,0,29.8,0,14.9,14.9,0,0,0,29.8,0,14.9,14.9,0,1,0,29.8,0l-.2-.4H70.4S69.4,171,84.2,171Z"/></g><rect class="cls-2" x="70.9" y="266.5" width="208.2" height="12.1"/><path class="cls-3" d="M73.1,278.6V266.5l-2.2,2.2H270.6c2.6,0,5.6.4,8.2,0h.4l-2.2-2.2v12.1c0,2.9,4.5,2.9,4.5,0V266.5a2.22,2.22,0,0,0-2.2-2.2H96.8c-8.4,0-16.9-.3-25.3,0h-.4a2.22,2.22,0,0,0-2.2,2.2v12.1c-.2,2.8,4.2,2.8,4.2,0Z"/><rect class="cls-2" x="94.6" y="225.1" width="107.2" height="7.2"/><rect class="cls-3" x="94.6" y="224.4" width="108.1" height="2.1"/><rect class="cls-3" x="94.6" y="201" width="108.1" height="2.1"/><g class="cls-12"><rect class="cls-13" x="97.2" y="206" width="4.5" height="17.6"/><rect class="cls-13" x="101.7" y="206" width="4.5" height="17.6"/><rect class="cls-13" x="106.3" y="206" width="4.5" height="17.6"/><rect class="cls-13" x="110.8" y="206" width="4.5" height="17.6"/><rect class="cls-13" x="115.3" y="206" width="4.5" height="17.6"/><rect class="cls-13" x="123" y="206.01" width="4.5" height="17.6" transform="translate(-52.82 41.26) rotate(-15.49)"/><path class="cls-3" d="M130.8,222.4l-4.7-17a1,1,0,0,0-1.2-.7l-4,1.1a1.06,1.06,0,0,0-1-.9H97.4a.94.94,0,0,0-1,1v17.6a.94.94,0,0,0,1,1h22.5a.94.94,0,0,0,1-1V210.8l3.7,13.2a1,1,0,0,0,1,.7h.3l4.4-1.2c.3-.1.5-.2.6-.5C130.8,222.9,130.8,222.7,130.8,222.4ZM98.2,207h2.5v15.6H98.2Zm4.5,0h2.5v15.6h-2.5Zm4.6,0h2.5v15.6h-2.5Zm4.5,0h2.5v15.6h-2.5Zm7,15.6h-2.5V207h2.5Zm7.3.1-4.2-15,2.4-.7,4.2,15Z"/></g><g class="cls-12"><rect class="cls-13" x="98.9" y="185.6" width="3.9" height="15.4"/><rect class="cls-13" x="102.8" y="185.6" width="3.9" height="15.4"/><rect class="cls-13" x="106.8" y="185.6" width="3.9" height="15.4"/><rect class="cls-13" x="110.7" y="185.6" width="3.9" height="15.4"/><rect class="cls-13" x="114.7" y="185.6" width="3.9" height="15.4"/><rect class="cls-13" x="121.4" y="185.61" width="3.9" height="15.4" transform="translate(-47.15 39.97) rotate(-15.49)"/><path class="cls-3" d="M128.2,199.9l-4.1-14.8a.86.86,0,0,0-1.1-.6l-3.5,1a1,1,0,0,0-.9-.8H99.1a.9.9,0,0,0-.9.9V201a.9.9,0,0,0,.9.9h19.5a.9.9,0,0,0,.9-.9V189.9l3.2,11.5a.84.84,0,0,0,.8.6h.2l3.8-1.1a1,1,0,0,0,.5-.4C128.2,200.4,128.2,200.2,128.2,199.9ZM99.8,186.4H102V200H99.8Zm3.9,0h2.2V200h-2.2Zm4,0h2.2V200h-2.2Zm3.9,0h2.2V200h-2.2Zm6.1,13.7h-2.2V186.5h2.2Zm6.4,0L120.5,187l2.1-.6,3.6,13.1Z"/></g><g class="cls-12"><rect class="cls-13" x="129.1" y="185.6" width="3.9" height="15.4"/><rect class="cls-13" x="133" y="185.6" width="3.9" height="15.4"/><rect class="cls-13" x="137" y="185.6" width="3.9" height="15.4"/><rect class="cls-13" x="140.9" y="185.6" width="3.9" height="15.4"/><path class="cls-3" d="M143.3,184.7H129.1a.9.9,0,0,0-.9.9V201a.9.9,0,0,0,.9.9h14.2a2.22,2.22,0,0,0,2.2-2.2V186.9A2.22,2.22,0,0,0,143.3,184.7Zm-11.1,15.4H130V186.5h2.2Zm3.9,0h-2.2V186.5h2.2Zm4,0h-2.2V186.5h2.2Zm3.9,0h-2.2V186.5H144Z"/></g><g class="cls-12"><path class="cls-3" d="M196.4,223.5H177.9a2.2,2.2,0,0,1,0-4.4h18.5v-1H177.9a3.2,3.2,0,0,0,0,6.4h18.5Z"/><path class="cls-14" d="M178.9,220.4h17.7v-1.3H177.9a2.1,2.1,0,0,0-2.2,2.2,2.16,2.16,0,0,0,2.2,2.2h18.7v-1.4H178.9a.9.9,0,0,1-.9-.9A1.06,1.06,0,0,1,178.9,220.4Z"/><path class="cls-2" d="M178.9,220.4a.9.9,0,1,0,0,1.8h17.7v-1.7l-17.7-.1Z"/><path class="cls-3" d="M196.5,219.1h-1v-1h1a.47.47,0,0,1,.5.5h0A.47.47,0,0,1,196.5,219.1Z"/><path class="cls-3" d="M196.5,224.5h-1v-1h1a.47.47,0,0,1,.5.5h0A.47.47,0,0,1,196.5,224.5Z"/></g><g class="cls-12"><path class="cls-3" d="M196.4,217.1H177.9a2.2,2.2,0,0,1,0-4.4h18.5v-1H177.9a3.2,3.2,0,0,0,0,6.4h18.5Z"/><path class="cls-14" d="M178.9,214h17.7v-1.3H177.9a2.1,2.1,0,0,0-2.2,2.2,2.16,2.16,0,0,0,2.2,2.2h18.7v-1.4H178.9a.9.9,0,0,1-.9-.9A1.06,1.06,0,0,1,178.9,214Z"/><path class="cls-2" d="M178.9,214a.9.9,0,0,0,0,1.8h17.7V214Z"/><path class="cls-3" d="M196.5,212.7h-1v-1h1a.47.47,0,0,1,.5.5h0A.54.54,0,0,1,196.5,212.7Z"/><path class="cls-3" d="M196.5,218.1h-1v-1h1a.47.47,0,0,1,.5.5h0A.54.54,0,0,1,196.5,218.1Z"/></g><path class="cls-2" d="M107.2,211.3c8.6-6.2,17.3-12.4,25.9-18.7,1.2-.8,0-2.8-1.1-1.9-8.6,6.2-17.3,12.4-25.9,18.7-1.1.9,0,2.8,1.1,1.9Z"/><path class="cls-2" d="M166.1,214.6c8.6-6.2,17.3-12.4,25.9-18.7,1.2-.8,0-2.8-1.1-1.9-8.6,6.2-17.3,12.4-25.9,18.7-1.2.8-.1,2.7,1.1,1.9Z"/><path class="cls-2" d="M176.3,219.5c5.8-4.2,11.7-8.4,17.5-12.6,1.2-.8,0-2.8-1.1-1.9-5.8,4.2-11.7,8.4-17.5,12.6-1.2.8-.1,2.7,1.1,1.9Z"/><g class="cls-12"><rect class="cls-15" x="134.9" y="205" width="16" height="19.6"/><path class="cls-3" d="M150.9,225.6h-16a.94.94,0,0,1-1-1V205a.94.94,0,0,1,1-1h16a.94.94,0,0,1,1,1v19.6A1.08,1.08,0,0,1,150.9,225.6Zm-15-2h13.9V206H135.9Z"/></g><path class="cls-3" d="M125.2,85.3h-9a1.37,1.37,0,0,1-1.1-.4,1.6,1.6,0,0,1-.4-1.1,1.25,1.25,0,0,1,.4-1.1,4.54,4.54,0,0,1,2.1-.3h.7V64.3h-.7a4.31,4.31,0,0,1-2-.3,1.25,1.25,0,0,1-.4-1.1,1.37,1.37,0,0,1,.4-1.1,1.53,1.53,0,0,1,1-.4h9.4a10.94,10.94,0,0,1,6.5,1.7,5.55,5.55,0,0,1,2.2,4.8,5.07,5.07,0,0,1-.7,2.8,5.24,5.24,0,0,1-2,1.9,7,7,0,0,1,3.2,2.2,5.72,5.72,0,0,1,1.1,3.6,6.29,6.29,0,0,1-.9,3.3,7.8,7.8,0,0,1-2.6,2.5,8.26,8.26,0,0,1-2.2.8,14.61,14.61,0,0,1-3.4.3Zm-4-13.6h4.2a7.71,7.71,0,0,0,4.2-.9A3.12,3.12,0,0,0,131,68a3.16,3.16,0,0,0-1.2-2.7,5.94,5.94,0,0,0-3.6-1h-5Zm0,10.7h4.5c2.5,0,4.3-.3,5.3-1a3.46,3.46,0,0,0,1.5-3.2A3.57,3.57,0,0,0,131,75c-1-.6-2.7-.9-5.2-.9h-4.7l.1,8.3Z"/><path class="cls-3" d="M161,73.3a12.8,12.8,0,0,1-3.1,9,9.59,9.59,0,0,1-7.8,3.5,10.19,10.19,0,0,1-7.8-3.5,13.65,13.65,0,0,1-3.1-9,13.67,13.67,0,0,1,3-9.1,10.44,10.44,0,0,1,15.6,0A13.16,13.16,0,0,1,161,73.3Zm-10.8,9.8a6.27,6.27,0,0,0,5.3-2.6c1.3-1.7,1.9-4.1,1.9-7.1s-.6-5.4-1.9-7.1a6.4,6.4,0,0,0-5.3-2.6,6.27,6.27,0,0,0-5.3,2.6c-1.3,1.7-1.9,4.1-1.9,7.2s.6,5.4,1.9,7.1A6.46,6.46,0,0,0,150.2,83.1Z"/><path class="cls-3" d="M185.7,73.3a12.8,12.8,0,0,1-3.1,9,9.59,9.59,0,0,1-7.8,3.5,10.19,10.19,0,0,1-7.8-3.5,13.65,13.65,0,0,1-3.1-9,13.67,13.67,0,0,1,3-9.1,10.44,10.44,0,0,1,15.6,0A13.16,13.16,0,0,1,185.7,73.3Zm-10.8,9.8a6.27,6.27,0,0,0,5.3-2.6c1.3-1.7,1.9-4.1,1.9-7.1s-.6-5.4-1.9-7.1a6.4,6.4,0,0,0-5.3-2.6,6.27,6.27,0,0,0-5.3,2.6c-1.3,1.7-1.9,4.1-1.9,7.2s.6,5.4,1.9,7.1A6.32,6.32,0,0,0,174.9,83.1Z"/><path class="cls-3" d="M195.4,82.4h1.3a3.69,3.69,0,0,1,1.7.3,1.29,1.29,0,0,1,.5,1.1,1.25,1.25,0,0,1-.4,1.1,3,3,0,0,1-1.6.3H190a1.05,1.05,0,0,1-1-.4,1.6,1.6,0,0,1-.4-1.1,1.25,1.25,0,0,1,.4-1.1,2.27,2.27,0,0,1,1.3-.3h1.9v-18H191a3.56,3.56,0,0,1-1.9-.3,1.25,1.25,0,0,1-.4-1.1,1.37,1.37,0,0,1,.4-1.1,1.53,1.53,0,0,1,1-.4H197a3,3,0,0,1,1.6.3,1.25,1.25,0,0,1,.4,1.1,1.29,1.29,0,0,1-.5,1.1,4.6,4.6,0,0,1-2,.3h-.9v8.2l8.4-8.2h-.6a2.42,2.42,0,0,1-1.4-.3,1.25,1.25,0,0,1-.4-1.1,1.15,1.15,0,0,1,1.4-1.4h5.9a1.05,1.05,0,0,1,1,.4,1.6,1.6,0,0,1,.4,1.1,1.29,1.29,0,0,1-.5,1.1,3.42,3.42,0,0,1-1.7.3h-.3L200,71.8a5.94,5.94,0,0,1,3.4,2.3,54.36,54.36,0,0,1,5.1,8.3h.4a3.42,3.42,0,0,1,1.7.3,1.25,1.25,0,0,1,.4,1.1,1.37,1.37,0,0,1-.4,1.1,1.53,1.53,0,0,1-1,.4h-1.9a2.22,2.22,0,0,1-.9-.1,1.7,1.7,0,0,1-.6-.6c-.1-.2-.9-1.5-2.2-4.1l-.8-1.5a13.18,13.18,0,0,0-2.5-3.5,5,5,0,0,0-2.7-1.4l-2.2,2.1v6.2Z"/><path class="cls-3" d="M218.4,84.6a2.23,2.23,0,0,1-.5,1.3,1.6,1.6,0,0,1-1.1.4,1.73,1.73,0,0,1-1.3-.5,3,3,0,0,1-.5-1.6l-.3-4.7v-.4a2,2,0,0,1,.4-1.4,1.46,1.46,0,0,1,1.2-.4c.8,0,1.4.6,1.7,1.7a5.89,5.89,0,0,0,.5,1.3,5.19,5.19,0,0,0,2.2,2.2,8,8,0,0,0,3.6.8,7,7,0,0,0,4.2-1.2,3.71,3.71,0,0,0,1.6-3.1,3.39,3.39,0,0,0-1-2.6,4.84,4.84,0,0,0-2.9-1.2l-3-.4c-2.8-.4-4.8-1.1-6.1-2.2a5.55,5.55,0,0,1-1.9-4.5,6.52,6.52,0,0,1,2.5-5.2,9.58,9.58,0,0,1,6.3-2.1,9.69,9.69,0,0,1,2.3.3,29,29,0,0,1,2.8.9c0-.4.1-.7.3-.8a2.15,2.15,0,0,1,1-.2,1.74,1.74,0,0,1,1.2.3,1.69,1.69,0,0,1,.4,1.2l.3,4.2v.2a1.38,1.38,0,0,1-1.5,1.5c-.7,0-1.3-.5-1.6-1.5a5.35,5.35,0,0,0-.6-1.3,3.58,3.58,0,0,0-1.9-1.5,6.36,6.36,0,0,0-2.8-.5,6.05,6.05,0,0,0-3.9,1.2,3.93,3.93,0,0,0-1.5,3.2,3,3,0,0,0,1.1,2.4,7.16,7.16,0,0,0,3.5,1.2l3.2.4a9.56,9.56,0,0,1,5.3,2.1,5.8,5.8,0,0,1,1.8,4.5,6.38,6.38,0,0,1-2.5,5.4,10.11,10.11,0,0,1-6.7,2,14.28,14.28,0,0,1-2.9-.3A27.54,27.54,0,0,1,218.4,84.6Z"/><path class="cls-14" d="M93.4,225.6c0,19.1-3.6,34.5-8.1,34.5s-8.1-15.5-8.1-34.5c0-22.2,8.1-34.5,8.1-34.5S93.4,203.2,93.4,225.6Z"/><path class="cls-3" d="M85.3,261c-5.8,0-9-18.2-9-35.3,0-22.1,7.9-34.4,8.2-34.9l.7-1.1.8,1.1c.3.5,8.2,12.5,8.2,34.9C94.3,242.8,91.1,261,85.3,261Zm0-68.2c-2,3.7-7.2,15.1-7.2,32.8,0,20.9,4.2,33.7,7.2,33.7s7.2-12.8,7.2-33.7C92.5,207.8,87.3,196.5,85.3,192.8Z"/><path class="cls-3" d="M85.3,255.3a.88.88,0,0,1-.9-.8v-47a.91.91,0,0,1,1.8,0v47A.82.82,0,0,1,85.3,255.3Z"/><path class="cls-15" d="M101.1,227.8c0,12.1-2.8,21.9-6.2,21.9s-6.2-9.8-6.2-21.9c0-14.1,6.2-21.9,6.2-21.9S101.1,213.6,101.1,227.8Z"/><path class="cls-3" d="M94.9,250.3c-4.4,0-6.8-11.6-6.8-22.4,0-14.1,6-21.9,6.3-22.2l.6-.7.6.7c.3.3,6.3,8,6.3,22.2C101.8,238.7,99.4,250.3,94.9,250.3ZM95,207c-1.5,2.3-5.5,9.6-5.5,20.8,0,13.3,3.2,21.4,5.5,21.4s5.5-8.1,5.5-21.4C100.4,216.5,96.5,209.3,95,207Z"/><path class="cls-3" d="M94.9,246.7c-.4,0-.7-.2-.7-.5V216.4c0-.3.3-.5.7-.5s.7.2.7.5v29.8A.68.68,0,0,1,94.9,246.7Z"/><polygon class="cls-2" points="98.8 265.4 78.3 265.4 75.2 239.2 101 239.2 98.8 265.4"/><path class="cls-3" d="M99.2,265.9H77.8l-3.2-27.1h26.8Zm-20.5-1H98.3l2.1-25.1H75.8Z"/><path class="cls-3" d="M98.8,266.2H78.3a.77.77,0,0,1-.8-.7l-3-26.1c0-.2,0-.5.2-.6a.86.86,0,0,1,.6-.3H101a.86.86,0,0,1,.6.3.73.73,0,0,1,.2.6l-2.2,26.1A.85.85,0,0,1,98.8,266.2ZM79,264.6H98l2.1-24.5H76.2Z"/><rect class="cls-2" x="71.7" y="235.8" width="32.8" height="3.8"/><path class="cls-3" d="M105,240.1H71.2v-4.8H105Zm-32.8-1H104v-2.8H72.2Z"/><path class="cls-3" d="M104.5,240.4H71.7a.86.86,0,0,1-.8-.8v-3.8a.86.86,0,0,1,.8-.8h32.8a.86.86,0,0,1,.8.8v3.8A.79.79,0,0,1,104.5,240.4Zm-32-1.6h31.2v-2.2H72.5Z"/></svg>