<svg id="Layer_1" data-name="Layer 1" xmlns="http://www.w3.org/2000/svg" viewBox="0 0 350 350"><defs><style>.cls-1{fill:#fff;}.cls-2{fill:#424243;}.cls-3{fill:#00b289;}.cls-4{fill:#efefef;}.cls-5{fill:#f0f1f1;}.cls-6{opacity:0.56;}.cls-7{fill:#9ed1e3;}.cls-8{opacity:0.77;}.cls-9{fill:#ddb99f;}.cls-10{fill:#cfac98;}.cls-11{fill:#d6ae99;}.cls-12{fill:#c37e77;}.cls-13{fill:#f1e8db;}.cls-14{fill:#313131;}.cls-15{fill:#4e4e4e;}.cls-16{fill:#d0534f;}.cls-17{fill:#e9b13d;}.cls-18{fill:#bf8825;}.cls-19{fill:#b94f49;}.cls-20{fill:#f2f2f2;}.cls-21{fill:#222;}.cls-22{fill:#3f596d;}.cls-23{opacity:0.83;}.cls-24{fill:#bcd589;}.cls-25{opacity:0.18;}.cls-26{fill:#272525;}.cls-27{opacity:0.63;}</style></defs><title>ecommerce-type-5-green</title><polygon class="cls-1" points="163 34.5 124 76.6 244.9 76.6 163 34.5"/><path class="cls-2" d="M161.5,33,127.3,69.9c-1.6,1.7-3.2,3.5-4.9,5.2a2.25,2.25,0,0,0,1.6,3.8H244.9c2.1,0,3.1-3.1,1.1-4.1-9.3-4.8-18.5-9.5-27.8-14.3-14.7-7.5-29.3-15.1-44-22.6-3.4-1.7-6.7-3.5-10.1-5.2-2.5-1.3-4.8,2.5-2.2,3.8,9.3,4.8,18.5,9.5,27.8,14.3,14.7,7.5,29.3,15.1,44,22.6,3.4,1.7,6.7,3.5,10.1,5.2.4-1.4.7-2.8,1.1-4.1H124c.5,1.3,1,2.5,1.6,3.8l34.2-36.9c1.6-1.7,3.2-3.5,4.9-5.2C166.5,34,163.4,30.9,161.5,33Z"/><path class="cls-3" d="M157.8,35.4a15.1,15.1,0,0,0,3.9,2.7c16.1,7.5,32.1,14.9,48.2,22.4l34.8,16.2h19.5c-5.4-2.7-10.8-5.4-16.3-8C230.9,60.3,214,52,197,43.6c-5.3-2.6-10.5-5.2-15.8-7.8-5.9-2.9-12-5.9-18.1-8.4C158.2,25.3,153.7,31.1,157.8,35.4Z"/><path class="cls-2" d="M156.2,37c3.4,3.3,8.2,4.8,12.4,6.8,4.7,2.2,9.4,4.4,14.1,6.5,9.4,4.4,18.7,8.7,28.1,13.1s18.7,8.7,28.1,13c2.2,1,4.4,2.5,6.9,2.5h18.5c2.1,0,3.2-3.1,1.1-4.1-17.1-8.4-34.1-16.9-51.2-25.3-8.6-4.2-17.2-8.5-25.8-12.7-8-4-16.1-8.6-24.5-11.5a7.31,7.31,0,0,0-8.5,2.5c-2.3,2.9-1.5,6.5.8,9.2,1.9,2.2,5-1,3.1-3.1-1.5-1.8-.9-4.6,1.7-4.7,1.6-.1,3.5,1.1,4.9,1.7,1.8.8,3.5,1.6,5.3,2.4,7.4,3.5,14.7,7.2,22,10.8,15,7.4,29.9,14.8,44.9,22.2,8.3,4.1,16.7,8.2,25,12.3.4-1.4.7-2.8,1.1-4.1H244.6c1.1.2-1.3-.8-1.3-.8-18-8.4-36.1-16.8-54.1-25.1-5.1-2.4-10.2-4.7-15.3-7.1-2.7-1.2-5.4-2.5-8-3.7-2.3-1.1-4.8-2-6.7-3.8C157.3,31.8,154.2,35,156.2,37Z"/><path class="cls-3" d="M156.3,45.4,136.6,64.9a13.86,13.86,0,0,0,19.7-19.5Z"/><path class="cls-2" d="M155.5,46.1A12.73,12.73,0,0,1,137.4,64c-1-1-2.6.6-1.6,1.6a14.92,14.92,0,0,0,21.2-21c-.9-1.1-2.4.5-1.5,1.5Z"/><circle class="cls-3" cx="191.9" cy="76.6" r="13.8"/><path class="cls-2" d="M204.7,76.6A12.7,12.7,0,1,1,192,63.9a12.92,12.92,0,0,1,12.7,12.7,1.1,1.1,0,0,0,2.2,0,14.94,14.94,0,1,0-27.8,7.6,15.25,15.25,0,0,0,15.6,7.1,15.09,15.09,0,0,0,12.2-14.7A1.1,1.1,0,0,0,204.7,76.6Z"/><rect class="cls-4" x="85.1" y="175.3" width="180.1" height="110.4"/><path class="cls-2" d="M265.2,283.5H92.5c-2.2,0-4.8-.4-7,0h-.3l2.2,2.2V175.2l-2.2,2.2H257.9c2.2,0,4.8.4,7,0h.3l-2.2-2.2V285.7a2.2,2.2,0,0,0,4.4,0V175.2a2.22,2.22,0,0,0-2.2-2.2H107.3c-7.3,0-14.6-.3-21.9,0h-.3a2.22,2.22,0,0,0-2.2,2.2V285.7a2.22,2.22,0,0,0,2.2,2.2H243c7.3,0,14.6.3,21.9,0h.3C268.1,288,268.1,283.5,265.2,283.5Z"/><rect class="cls-4" x="86" y="84" width="179.3" height="36.5"/><path class="cls-2" d="M265.2,81.8H108c-7.2,0-14.6-.3-21.8,0h-.3A2.22,2.22,0,0,0,83.7,84v36.5a2.22,2.22,0,0,0,2.2,2.2H243.1c7.2,0,14.6.3,21.8,0h.3a2.22,2.22,0,0,0,2.2-2.2V84a2.2,2.2,0,0,0-4.4,0v36.5l2.2-2.2H93.3c-2.2,0-4.8-.4-7.1,0h-.3l2.2,2.2V84l-2.2,2.2H243.1c7.2,0,14.6.3,21.8,0h.3A2.2,2.2,0,0,0,265.2,81.8Z"/><path class="cls-5" d="M99.9,175.8l9.1-55.2h23.7l-3.1,55.2s-.9,14.9-14.9,14.9S99.9,175.8,99.9,175.8Z"/><path class="cls-2" d="M102.1,176.3c2.7-16.1,5.3-32.2,8-48.3.4-2.3.8-4.6,1.1-6.9-.7.5-1.4,1.1-2.1,1.6h23.7l-2.2-2.2c-.7,13.3-1.5,26.5-2.2,39.8-.3,5.1-.6,10.2-.9,15.4v.2c0,.7,0,0-.1.5a18.23,18.23,0,0,1-1.1,4,11.9,11.9,0,0,1-8.3,7.7c-5.2,1.2-10.8-.5-13.6-5.2a16,16,0,0,1-2-5.1l-.3-1.8c.1.6,0,0,0-.3-.2-2.8-4.6-2.9-4.4,0,.5,7.2,4.9,14.5,12.1,16.4,5.4,1.5,11.7.5,16-3.3a18.75,18.75,0,0,0,5.6-10.3c.8-3.8.7-7.9.9-11.8l1.5-27.3c.4-6.3.7-12.6,1.1-18.9a2.22,2.22,0,0,0-2.2-2.2H109a2.16,2.16,0,0,0-2.1,1.6c-2.7,16.1-5.3,32.2-8,48.3-.4,2.3-.8,4.6-1.1,6.9C97.3,178,101.6,179.2,102.1,176.3Z"/><path class="cls-3" d="M159.4,175.8V120.6h29.7v55.2s-.4,14.9-14.9,14.9S159.4,175.8,159.4,175.8Z"/><path class="cls-2" d="M161.6,175.8V120.6l-2.2,2.2h29.7l-2.2-2.2v40.7c0,4.8.2,9.7,0,14.6v.7c-.1.6,0,0-.1.4a21.7,21.7,0,0,1-1.1,4.2,11.31,11.31,0,0,1-8.6,7.1c-5.3,1-10.7-.8-13.4-5.6A16.61,16.61,0,0,1,162,178a11.53,11.53,0,0,1-.4-2.2c-.1-2.8-4.5-2.9-4.4,0,.2,7.1,4.5,14.1,11.4,16.3,5.4,1.7,11.9.9,16.4-2.7a18,18,0,0,0,5.9-10.1c.8-3.8.5-7.8.5-11.7v-47a2.22,2.22,0,0,0-2.2-2.2H159.5a2.22,2.22,0,0,0-2.2,2.2v55.2C157.2,178.6,161.6,178.6,161.6,175.8Z"/><path class="cls-3" d="M218.8,175.8l-.9-55.2h24.6l6,55.2s-.7,12.6-13.1,14.6S219.1,181.1,218.8,175.8Z"/><path class="cls-2" d="M221.1,175.8c-.3-16.1-.5-32.3-.8-48.4,0-2.3-.1-4.5-.1-6.8l-2.2,2.2h24.6l-2.2-2.2c1.3,12.2,2.6,24.3,4,36.5.6,5.8,1.3,11.7,1.9,17.5,0,.4.1.8.1,1.2v.2c0,.6.1-.1-.1.7a15.36,15.36,0,0,1-4.5,8.5c-4,3.5-11,4.5-15.4,1.2-3.3-2.4-5.1-6.7-5.3-10.6-.2-2.8-4.6-2.9-4.4,0,.7,9.8,7.9,18.2,18.2,17,8.4-1,15.7-8,15.9-16.7.1-4-.8-8.3-1.3-12.2-.9-8.7-1.9-17.3-2.8-26-.6-5.8-1.2-11.5-1.9-17.3a2.22,2.22,0,0,0-2.2-2.2H218a2.22,2.22,0,0,0-2.2,2.2c.3,16.1.5,32.3.8,48.4,0,2.3.1,4.5.1,6.8C216.7,178.6,221.1,178.6,221.1,175.8Z"/><path class="cls-3" d="M278.3,175.8l-11.5-55.2H242.6l6,55.2s0,14.9,14.9,14.9S278.3,175.8,278.3,175.8Z"/><path class="cls-2" d="M280.4,175.2c-3.4-16.1-6.7-32.3-10.1-48.4-.5-2.3-1-4.6-1.4-6.8a2.25,2.25,0,0,0-2.1-1.6H242.6a2.22,2.22,0,0,0-2.2,2.2c1.6,14.7,3.2,29.5,4.8,44.2.4,4.1.8,8.3,1.3,12.4a19.68,19.68,0,0,0,3.9,10.1c3.5,4.3,9.1,6,14.5,5.6,9.1-.7,15.5-8,15.6-17a2.2,2.2,0,0,0-4.4,0,15.77,15.77,0,0,1-1.2,5.7,11.38,11.38,0,0,1-9.3,6.9c-4.8.6-9.8-.8-12.5-5a15.76,15.76,0,0,1-2.2-7.2c-1-12.7-2.7-25.5-4.1-38.2-.6-5.8-1.3-11.7-1.9-17.5l-2.2,2.2h24.2c-.7-.5-1.4-1.1-2.1-1.6,3.4,16.1,6.7,32.3,10.1,48.4.5,2.3,1,4.6,1.4,6.8C276.7,179.1,281,178,280.4,175.2Z"/><rect class="cls-3" x="216.9" y="197.1" width="35.6" height="88.7"/><path class="cls-2" d="M252.6,283.5H217l2.2,2.2V197.1l-2.2,2.2h35.6l-2.2-2.2v88.6a2.2,2.2,0,0,0,4.4,0V197.1a2.22,2.22,0,0,0-2.2-2.2H217a2.22,2.22,0,0,0-2.2,2.2v88.6a2.22,2.22,0,0,0,2.2,2.2h35.6C255.4,288,255.4,283.5,252.6,283.5Z"/><g class="cls-6"><path class="cls-2" d="M171.3,307.1H72.5a1.69,1.69,0,0,1-1.7-1.7h0a1.69,1.69,0,0,1,1.7-1.7h98.7a1.69,1.69,0,0,1,1.7,1.7h0A1.67,1.67,0,0,1,171.3,307.1Z"/></g><g class="cls-6"><path class="cls-2" d="M180.6,307.1h-2.4a1.69,1.69,0,0,1-1.7-1.7h0a1.69,1.69,0,0,1,1.7-1.7h2.4a1.69,1.69,0,0,1,1.7,1.7h0A1.83,1.83,0,0,1,180.6,307.1Z"/></g><g class="cls-6"><path class="cls-2" d="M263.4,316H167.3a1.79,1.79,0,0,1-1.8-1.8h0a1.79,1.79,0,0,1,1.8-1.8h96.1a1.79,1.79,0,0,1,1.8,1.8h0A1.79,1.79,0,0,1,263.4,316Z"/></g><g class="cls-6"><path class="cls-2" d="M274.3,316h-4.4a1.79,1.79,0,0,1-1.8-1.8h0a1.79,1.79,0,0,1,1.8-1.8h4.4a1.79,1.79,0,0,1,1.8,1.8h0A1.79,1.79,0,0,1,274.3,316Z"/></g><g class="cls-6"><path class="cls-2" d="M150.9,325.3h-4.4a1.79,1.79,0,0,1-1.8-1.8h0a1.79,1.79,0,0,1,1.8-1.8h4.4a1.79,1.79,0,0,1,1.8,1.8h0A1.79,1.79,0,0,1,150.9,325.3Z"/></g><path class="cls-3" d="M132.8,120.5h26.6v55.2s-1.6,14.6-14.9,14.9-14.9-14.9-14.9-14.9Z"/><path class="cls-2" d="M132.8,122.7h26.6l-2.2-2.2v55.1c0,.5.2-.7,0,.2-1.2,5.7-4.2,11.2-10.4,12.3-7.2,1.3-12.4-3.4-14.3-10-.2-.8-.4-1.7-.6-2.5-.1-.5,0,.5,0-.1.1-1.2.1-2.4.2-3.6.3-5.8.6-11.5,1-17.3.6-11.4,1.3-22.8,1.9-34.2.2-2.9-4.3-2.8-4.4,0-.6,10.4-1.2,20.8-1.7,31.1-.4,6.4-.7,12.7-1.1,19.1-.1,2.6-.4,4.9.1,7.4,1.5,6.4,5.6,12.6,12.4,14.2a16.87,16.87,0,0,0,19.5-10,21.51,21.51,0,0,0,1.9-8.6V157.3c0-12.1.2-24.2,0-36.2v-.8a2.22,2.22,0,0,0-2.2-2.2H132.9C129.9,118.3,129.9,122.7,132.8,122.7Z"/><path class="cls-5" d="M189.1,120.5v55.2s.7,15.1,14.9,14.9,14.9-14.9,14.9-14.9l-.9-55.2Z"/><path class="cls-2" d="M186.9,120.5v50.7a36.37,36.37,0,0,0,.4,7.4c1.3,6.6,5.7,12.5,12.5,13.8,8.4,1.7,16.5-2.2,19.7-10.2a21.42,21.42,0,0,0,1.5-8.3c-.1-5.4-.2-10.9-.3-16.3-.2-12.1-.2-24.3-.6-36.4v-.8a2.22,2.22,0,0,0-2.2-2.2H189.1a2.2,2.2,0,0,0,0,4.4h28.8l-2.2-2.2c.2,9.9.3,19.7.5,29.6.1,6.4.2,12.8.3,19.1a57.66,57.66,0,0,1,0,7.2c-.1.5.1-.5,0,.1,0,.2-.1.4-.1.6a8.33,8.33,0,0,1-.4,1.5,17.68,17.68,0,0,1-1.5,3.8,11.28,11.28,0,0,1-7.8,5.6c-7.3,1.5-13.2-2.5-15-9.5a8.79,8.79,0,0,1-.5-2.9V120.3C191.3,117.7,186.9,117.7,186.9,120.5Z"/><path class="cls-3" d="M109.1,120.5c-1.3,7.9-2.6,15.8-4,23.8-1.7,10-3.4,20.1-5,30.1-.6,3.9-1.3,7.4-3.8,10.6A14.36,14.36,0,0,1,85,190.6c-13.8.4-13.8-15.3-13.8-15.3L86,120.5Z"/><path class="cls-2" d="M107,120c-1.6,9.6-3.2,19.3-4.8,28.9-.8,5-1.7,10-2.5,15-.8,4.6-1.3,9.3-2.4,13.8-1,3.9-3,7.5-6.7,9.4a13.06,13.06,0,0,1-9.7.8c-4-1.3-6.1-5.2-6.9-9.1a31.06,31.06,0,0,1-.4-3.2c-.1-.5-.1.5-.1.3s.1-.4.2-.6c.7-2.5,1.4-5,2-7.5,2.4-9.1,4.9-18.1,7.3-27.2,1.7-6.5,3.5-12.9,5.2-19.4-.7.5-1.4,1.1-2.1,1.6h23.1a2.2,2.2,0,0,0,0-4.4H86.1A2.16,2.16,0,0,0,84,120L71.4,166.8c-.7,2.5-1.4,5-2,7.5a13.64,13.64,0,0,0,.5,6c1.1,4.6,3.7,9,8.1,11.1a17.39,17.39,0,0,0,19.7-4.3c3.1-3.7,4.2-8.3,4.9-13,1-6,2-12,3-18.1,2-11.6,3.9-23.3,5.8-34.9C111.7,118.3,107.4,117.1,107,120Z"/><rect class="cls-3" x="90.2" y="195.7" width="117" height="62.8"/><rect class="cls-7" x="98.7" y="201.9" width="44.6" height="52.2"/><path class="cls-2" d="M143.3,253H98.7l1.1,1.1V201.9L98.7,203h44.6l-1.1-1.1v52.2a1.1,1.1,0,0,0,2.2,0V201.9a1.11,1.11,0,0,0-1.1-1.1H98.7a1.11,1.11,0,0,0-1.1,1.1v52.2a1.11,1.11,0,0,0,1.1,1.1h44.6A1.1,1.1,0,0,0,143.3,253Z"/><rect class="cls-7" x="151.4" y="201.8" width="42.7" height="52.2"/><g class="cls-8"><rect class="cls-2" x="167" y="248.6" width="1.2" height="6.5"/><rect class="cls-2" x="178.7" y="248.6" width="1.2" height="6.5"/><path class="cls-9" d="M182.4,234.5c0,3.7-3.8,6.7-8.4,6.6h-.2c-4.6,0-8.3-3-8.3-6.7V220.9c0-3.7,3.8-6.7,8.4-6.6h.2c4.6,0,8.3,3,8.3,6.7Z"/><rect class="cls-9" x="170.42" y="227.92" width="6.2" height="11.9" transform="translate(-60.81 406.77) rotate(-89.85)"/><rect class="cls-9" x="171" y="219.51" width="6" height="16.9" transform="translate(-54.42 401.34) rotate(-89.85)"/><path class="cls-9" d="M165.6,223.8a1.9,1.9,0,0,0,0,3.8Z"/><path class="cls-10" d="M165.2,224.6a1.1,1.1,0,1,0,0,2.2Z"/><path class="cls-9" d="M182.3,223.9a2,2,0,0,1,1.9,1.9,1.75,1.75,0,0,1-1.9,1.8Z"/><path class="cls-10" d="M182.6,224.7a1.1,1.1,0,0,1,0,2.2Z"/><path class="cls-9" d="M182.4,229.8a.68.68,0,0,1-.7.7H166.3a.68.68,0,0,1-.7-.7v-8.6a.68.68,0,0,1,.7-.7h15.4a.68.68,0,0,1,.7.7Z"/><path class="cls-11" d="M169.2,220.1a6.47,6.47,0,0,1,.4-1.3c.3-.9.7-1.7,1-2.5a4.21,4.21,0,0,1,1.7-1.8,5,5,0,0,0-1.2.2,11.46,11.46,0,0,0-2.3,1,5.66,5.66,0,0,0-2.9,2.8,11.84,11.84,0,0,0-.4,5.3c.1,2.4,0,4.8,0,7.2a15.48,15.48,0,0,1,2.1.1c.4,0,1.2.2,1.3-.3s-.4-1.5-.4-2.2C168.6,225.7,168.5,222.8,169.2,220.1Z"/><polygon class="cls-12" points="172.5 227.4 174.6 227.4 174.3 223.8 172.5 227.4"/><path class="cls-13" d="M174.2,229.2a.43.43,0,0,1-.4.4h0a.43.43,0,0,1-.4-.4v-.8a.43.43,0,0,1,.4-.4h0a.43.43,0,0,1,.4.4Z"/><path class="cls-9" d="M177.8,232.1v.8a3.79,3.79,0,0,1-3.9,3.6l-5.3-4.5h-3v18.2h16.8V232Z"/><path class="cls-14" d="M170.4,224.4a.6.6,0,1,1-.6-.6A.58.58,0,0,1,170.4,224.4Z"/><path class="cls-15" d="M170.2,224.4a.3.3,0,1,1-.3-.3A.32.32,0,0,1,170.2,224.4Z"/><path class="cls-1" d="M170.1,224.1a.2.2,0,1,1-.2-.2C170.1,224,170.1,224,170.1,224.1Z"/><path class="cls-14" d="M178.7,224.4a.6.6,0,1,1-.6-.6A.58.58,0,0,1,178.7,224.4Z"/><path class="cls-15" d="M178.5,224.4a.3.3,0,1,1-.3-.3A.32.32,0,0,1,178.5,224.4Z"/><path class="cls-1" d="M178.5,224.1a.2.2,0,1,1-.2-.2Z"/><polygon class="cls-1" points="182.3 249 165.5 249.5 165.5 230.9 182.4 231 182.3 249"/><path class="cls-14" d="M177.5,223.5h0c.1-.1.2-.2.3-.2a1,1,0,0,1,.9.2c.2.2.6-.1.3-.3a1.26,1.26,0,0,0-1.3-.3l-.6.3c-.1.2.2.5.4.3Z"/><path class="cls-14" d="M169.2,223.5h0c.1-.1.2-.2.3-.2a1,1,0,0,1,.9.2c.2.2.6-.1.3-.3a1.26,1.26,0,0,0-1.3-.3l-.6.3c-.1.2.2.5.4.3Z"/><rect class="cls-16" x="165.5" y="236.4" width="16.8" height="1.2"/><path class="cls-12" d="M177.8,225.7c-.8,0-1.4.4-1.4,1s.6,1,1.4,1,1.4-.4,1.4-1S178.6,225.7,177.8,225.7Z"/><path class="cls-12" d="M169.8,225.7c-.8,0-1.4.4-1.4,1s.6,1,1.4,1,1.4-.4,1.4-1S170.6,225.7,169.8,225.7Z"/><path class="cls-17" d="M168,237.5a6.25,6.25,0,0,1,2.9-2.9c2.1-1,3.4-3.7,3.2-4.3s-1.1-1.6,1.2-1.4l3,.3c.5,0,1,.1,1.5.1.2,0,1,0,1.1.2v.2a3.54,3.54,0,0,1-.3,1.1c0,.1,0,.1-.1.2l-.1.1c-.2.1-.2.5-.3.7s-.1.3-.2.4c-.2.3-.4.7-.6,1a7,7,0,0,1-2.2,2,6.5,6.5,0,0,1-3.1.8C169,235.9,168,237.5,168,237.5Z"/><rect class="cls-18" x="176.61" y="227.68" width="0.4" height="4.7" transform="translate(-78.67 367.52) rotate(-80.74)"/><path class="cls-19" d="M175.6,231.5c.1.5-.5.9-1.2,1s-1.4-.2-1.5-.6.5-.9,1.2-1S175.5,231.1,175.6,231.5Z"/><path class="cls-19" d="M178.8,231.7c.1.5-.5,1-1.2,1.2a1.16,1.16,0,0,1-1.5-.8c-.1-.5.5-1,1.2-1.2S178.8,231.2,178.8,231.7Z"/><path class="cls-19" d="M172.9,234.4c.1.5-.5,1-1.2,1.2s-1.4-.2-1.5-.8.5-1,1.2-1.2C172.2,233.6,172.9,233.9,172.9,234.4Z"/><path class="cls-19" d="M176.1,233.8c.1.5-.4.9-1,1a1.09,1.09,0,0,1-1.3-.7c-.1-.5.4-.9,1-1A1.19,1.19,0,0,1,176.1,233.8Z"/><path class="cls-9" d="M168.5,233.4c1.2.4,2.4,3.3.6,3.5.3.9-1.1,2.4-2,1.7-.6-.4-.3-1.6-.3-2.3s-.2-2.1.4-2.8A2,2,0,0,1,168.5,233.4Z"/><polygon class="cls-20" points="165.5 230.9 166.3 230.9 165.5 239.8 162.7 240 165.5 230.9"/><path class="cls-1" d="M162.6,234.6a13.12,13.12,0,0,1,2.7-3.5l.3-.3h.2l-1.4,7.2a1,1,0,0,0,.7-.4c.3-.2.5-.4.8-.4a2.09,2.09,0,0,1,1.3.7,2.67,2.67,0,0,1,.7,1.4,2.09,2.09,0,0,1-1.1,1.5c-1,.8-2.3,1.7-3.6,1.1a2.08,2.08,0,0,1-1.2-1.4,6.47,6.47,0,0,1-.4-2A7.32,7.32,0,0,1,162.6,234.6Z"/><path class="cls-9" d="M179.2,233.2c-1.2.3-2.7,3-1,3.5-.4.9.9,2.5,1.8,1.9.6-.4.5-1.6.5-2.2,0-.8.5-2.1-.1-2.8A1,1,0,0,0,179.2,233.2Z"/><polygon class="cls-20" points="182.5 231 181.7 230.9 181.6 239.9 184.3 240.3 182.5 231"/><path class="cls-1" d="M185.1,235a12.79,12.79,0,0,0-2.3-3.7l-.3-.3h-.2l.6,7.3c-.2,0-.5-.3-.7-.4a2.18,2.18,0,0,0-.8-.5c-.5-.1-1,.3-1.4.6a1.83,1.83,0,0,0-.8,1.3,2.6,2.6,0,0,0,.9,1.6c.9.9,2.1,1.9,3.5,1.5a2.26,2.26,0,0,0,1.4-1.3,7,7,0,0,0,.6-1.9A7.44,7.44,0,0,0,185.1,235Z"/><path class="cls-21" d="M183.4,222.8a6.12,6.12,0,0,1-.5-1.2c-.5-1.4-.7-3-1.5-4.2a7.84,7.84,0,0,0-2.6-2.2,11.43,11.43,0,0,0-6.3-1.1,11,11,0,0,0-3.5,1.1,7.22,7.22,0,0,0-2.6,2.3,8.46,8.46,0,0,0-.9,4.7,7.52,7.52,0,0,1,0,1.5h.1v.1s2.8-.5,4.1-5.2a1.09,1.09,0,0,0,.4.2,57.66,57.66,0,0,0,5.6,2.7,42.2,42.2,0,0,0,4.5,1.8,6.47,6.47,0,0,0,2,.4,1.86,1.86,0,0,0,1.6-.7A.52.52,0,0,1,183.4,222.8Z"/><path class="cls-21" d="M176.1,228.5c0-.1.1-.2.1-.3a.79.79,0,0,0-.8-.8h-3a.79.79,0,0,0-.8.8.37.37,0,0,0,.1.3Z"/><path class="cls-22" d="M162.2,255.1h4.4a2.92,2.92,0,0,1-.2-.9c-.2-1-2.4-4.7.2-3.8a10.51,10.51,0,0,0,5.8.7,16.27,16.27,0,0,1,5.4.1c1,.3,1,.2,2-.2.7-.3,2-1.2,2.8-.9a1,1,0,0,1,.6,1.3,18.66,18.66,0,0,1-.7,2.2c-.2.5-.3,1-.5,1.5h4.4c0-.1,0-.2.1-.2.3-1.2.6-2.4.9-3.5.3-1.3.8-2.8.4-4.1-.8-2.4-4.1-1.5-5.7-.9-.3.1-.7.3-1,.4a8.27,8.27,0,0,0-1.6.9,3.63,3.63,0,0,1-1.7.7,18.46,18.46,0,0,1-2.3-.4,16.68,16.68,0,0,0-3.2-.2c-.8,0-1.6.3-2.4.3-2.2-.2-4.1-1.6-6.2-2-1.1-.2-2.3-.1-2.7,1.1-.5,1.6.2,3.3.6,4.8A18.75,18.75,0,0,0,162.2,255.1Z"/></g><g class="cls-23"><path class="cls-2" d="M174.6,253.5v-7c0-1.3-2.7-1.3-2.7,0v7Z"/><rect class="cls-5" x="152.1" y="242.3" width="41.7" height="4.5"/><path class="cls-2" d="M152.1,247.3h41.7c.4,0,.7-.2.7-.5v-4.5c0-.3-.3-.5-.7-.5H152.1c-.4,0-.7.2-.7.5v4.5c0,.7,1.4.7,1.4,0v-4.5c-.2.2-.5.3-.7.5h41.7c-.2-.2-.5-.3-.7-.5v4.5c.2-.2.5-.3.7-.5H152.1C151.2,246.3,151.2,247.3,152.1,247.3Z"/></g><path class="cls-2" d="M194.1,200.8H151.4a1.11,1.11,0,0,0-1.1,1.1v52.2a1.11,1.11,0,0,0,1.1,1.1h42.7a.91.91,0,0,0,.7-.3.1.1,0,0,0,.1-.1l.1-.1a.91.91,0,0,0,.3-.7V201.8A1.29,1.29,0,0,0,194.1,200.8ZM156.7,253h-4.2V203H193v50Z"/><path class="cls-24" d="M124.5,242.4a8.19,8.19,0,0,0-16.2-1.7h-1a13.35,13.35,0,0,0-7.9,2.6,4.47,4.47,0,0,0-2.5-.9,4.06,4.06,0,0,0-4.1,4.1,4.17,4.17,0,0,0,1.8,3.4,14.78,14.78,0,0,0-.7,4.2,13.4,13.4,0,0,0,26.8,0,16.19,16.19,0,0,0-.7-4.4A8.17,8.17,0,0,0,124.5,242.4Z"/><path class="cls-2" d="M125.6,242.4a9.31,9.31,0,0,0-18.4-2l1.1-.8a14.69,14.69,0,0,0-9.5,2.7h1.1c-5.6-3.7-11.4,4.1-6.2,8.3-.1-.4-.2-.7-.3-1.1-2.8,9.3,3.9,19.1,13.8,19.1s16.7-9.9,13.8-19.2c-.2.4-.3.8-.5,1.3a9.62,9.62,0,0,0,5.1-8.3c.1-1.4-2.2-1.4-2.2,0a7.09,7.09,0,0,1-4,6.3,1.09,1.09,0,0,0-.5,1.3c2.5,7.9-3.1,16.4-11.6,16.4S93.2,258,95.6,250.1a1.19,1.19,0,0,0-.3-1.1,3,3,0,1,1,3.5-4.9,1.08,1.08,0,0,0,1.1,0,12.58,12.58,0,0,1,8.4-2.4,1.21,1.21,0,0,0,1.1-.8c2-8,13.7-7,14,1.4C123.5,243.8,125.7,243.8,125.6,242.4Z"/><circle class="cls-24" cx="146.5" cy="256.7" r="13.7"/><path class="cls-2" d="M159.1,256.7a12.6,12.6,0,1,1-12.6-12.6,12.74,12.74,0,0,1,12.6,12.6,1.1,1.1,0,0,0,2.2,0,14.85,14.85,0,1,0-12.2,14.5,14.89,14.89,0,0,0,12.1-14.6C161.3,255.3,159.1,255.3,159.1,256.7Z"/><ellipse class="cls-24" cx="184.7" cy="257.6" rx="13.7" ry="14.6"/><path class="cls-2" d="M197.3,257.6c-.1,7-5.3,13.5-12.6,13.5s-12.6-6.6-12.6-13.5,5.4-13.5,12.6-13.5,12.5,6.5,12.6,13.5a1.1,1.1,0,0,0,2.2,0c-.1-6.3-3.7-12.4-9.7-14.8a14.53,14.53,0,0,0-16.5,4.7,16.72,16.72,0,0,0-1.3,18.2,14.79,14.79,0,0,0,15.3,7.4c7.4-1.4,12-8.3,12.2-15.5A1.1,1.1,0,0,0,197.3,257.6Z"/><rect class="cls-5" x="85.1" y="258.5" width="122.1" height="27.2"/><path class="cls-2" d="M207.2,257.4H85a1.11,1.11,0,0,0-1.1,1.1v27.2a1.11,1.11,0,0,0,1.1,1.1H207.2a1.11,1.11,0,0,0,1.1-1.1V258.5a1.1,1.1,0,0,0-2.2,0v27.2l1.1-1.1H85l1.1,1.1V258.5L85,259.6H207.2A1.1,1.1,0,0,0,207.2,257.4Z"/><rect class="cls-5" x="91.6" y="263.3" width="31.9" height="16.4"/><path class="cls-2" d="M123.6,278.8H91.7l.8.8V263.2l-.8.8h31.9l-.8-.8v16.4a.85.85,0,0,0,1.7,0V263.2a.86.86,0,0,0-.8-.8H91.8a.86.86,0,0,0-.8.8v16.4a.86.86,0,0,0,.8.8h31.9C124.6,280.5,124.6,278.8,123.6,278.8Z"/><rect class="cls-5" x="130.2" y="263.3" width="31.9" height="16.4"/><path class="cls-2" d="M162.1,278.8H130.2l.8.8V263.2l-.8.8h31.9l-.8-.8v16.4a.85.85,0,0,0,1.7,0V263.2a.86.86,0,0,0-.8-.8H130.3a.86.86,0,0,0-.8.8v16.4a.86.86,0,0,0,.8.8h31.9C163.2,280.5,163.2,278.8,162.1,278.8Z"/><rect class="cls-5" x="168.7" y="263.3" width="31.9" height="16.4"/><path class="cls-2" d="M200.7,278.8H168.8l.8.8V263.2l-.8.8h31.9l-.8-.8v16.4a.85.85,0,0,0,1.7,0V263.2a.86.86,0,0,0-.8-.8H168.9a.86.86,0,0,0-.8.8v16.4a.86.86,0,0,0,.8.8h31.9C201.7,280.5,201.7,278.8,200.7,278.8Z"/><rect class="cls-3" x="221.9" y="254.8" width="26.2" height="25.4"/><path class="cls-2" d="M248.1,279.1H221.9l1.1,1.1V254.8l-1.1,1.1h26.2l-1.1-1.1v25.4a1.1,1.1,0,0,0,2.2,0V254.8a1.11,1.11,0,0,0-1.1-1.1H221.9a1.11,1.11,0,0,0-1.1,1.1v25.4a1.11,1.11,0,0,0,1.1,1.1h26.2A1.1,1.1,0,0,0,248.1,279.1Z"/><rect class="cls-7" x="221.9" y="201.9" width="26.2" height="5"/><path class="cls-2" d="M248.1,205.8H221.9l1.1,1.1v-5l-1.1,1.1h26.2l-1.1-1.1v5a1.1,1.1,0,0,0,2.2,0v-5a1.11,1.11,0,0,0-1.1-1.1H221.9a1.11,1.11,0,0,0-1.1,1.1v5a1.11,1.11,0,0,0,1.1,1.1h26.2A1.1,1.1,0,0,0,248.1,205.8Z"/><rect class="cls-7" x="221.9" y="210" width="26.2" height="27.4"/><path class="cls-2" d="M248.1,236.3H221.9l1.1,1.1V210l-1.1,1.1h26.2L247,210v27.4a1.1,1.1,0,0,0,2.2,0V210a1.11,1.11,0,0,0-1.1-1.1H221.9a1.11,1.11,0,0,0-1.1,1.1v27.4a1.11,1.11,0,0,0,1.1,1.1h26.2A1.1,1.1,0,0,0,248.1,236.3Z"/><path class="cls-5" d="M246.7,249.4h-.6a.68.68,0,0,1-.7-.7v-7.4a.68.68,0,0,1,.7-.7h.6a.68.68,0,0,1,.7.7v7.4C247.5,249,247.1,249.4,246.7,249.4Z"/><path class="cls-2" d="M246.4,249.8a1.54,1.54,0,0,1-1.5-1.5v-6.8a1.5,1.5,0,0,1,3,0v6.8A1.47,1.47,0,0,1,246.4,249.8Zm0-8.9a.65.65,0,0,0-.6.6v6.8a.6.6,0,1,0,1.2,0v-6.8A.58.58,0,0,0,246.4,240.9Z"/><rect class="cls-3" x="73.8" y="76.6" width="200.8" height="9.1"/><path class="cls-2" d="M274.7,74.4H98.6c-8.1,0-16.3-.3-24.4,0h-.4a2.22,2.22,0,0,0-2.2,2.2v9.1a2.22,2.22,0,0,0,2.2,2.2H249.9c8.1,0,16.3.3,24.4,0h.4a2.22,2.22,0,0,0,2.2-2.2V76.6a2.2,2.2,0,0,0-4.4,0v9.1l2.2-2.2H82c-2.5,0-5.3-.4-7.8,0h-.4L76,85.7V76.6l-2.2,2.2H249.9c8.1,0,16.3.3,24.4,0h.4C277.5,78.9,277.5,74.4,274.7,74.4Z"/><g class="cls-25"><path class="cls-26" d="M84.5,190.6a14.94,14.94,0,0,0,14.9-14.9,14.9,14.9,0,0,0,29.8,0,14.9,14.9,0,0,0,29.8,0,14.9,14.9,0,0,0,29.8,0,14.9,14.9,0,0,0,29.8,0,14.9,14.9,0,0,0,29.8,0,14.9,14.9,0,1,0,29.8,0l-.2-.4H70.8S69.8,190.6,84.5,190.6Z"/></g><rect class="cls-5" x="71.3" y="285.8" width="207.5" height="12"/><path class="cls-2" d="M73.5,297.8v-12L71.3,288H270.2c2.6,0,5.5.4,8.1,0h.4l-2.2-2.2v12a2.2,2.2,0,0,0,4.4,0v-12a2.22,2.22,0,0,0-2.2-2.2H96.9c-8.4,0-16.8-.3-25.2,0h-.4a2.22,2.22,0,0,0-2.2,2.2v12c-.1,2.8,4.4,2.8,4.4,0Z"/><rect class="cls-5" x="116.4" y="92.3" width="112.9" height="23"/><path class="cls-2" d="M229.3,114.1H116.4l1.1,1.1v-23l-1.1,1.1H229.3l-1.1-1.1v23a1.1,1.1,0,0,0,2.2,0v-23a1.11,1.11,0,0,0-1.1-1.1H116.4a1.11,1.11,0,0,0-1.1,1.1v23a1.11,1.11,0,0,0,1.1,1.1H229.3A1.1,1.1,0,0,0,229.3,114.1Z"/><g class="cls-27"><path class="cls-5" d="M107.5,229.6c8.6-6.2,17.2-12.4,25.9-18.6,1.1-.8,0-2.8-1.1-1.9-8.6,6.2-17.2,12.4-25.9,18.6-1.2.9-.1,2.8,1.1,1.9Z"/></g><g class="cls-27"><path class="cls-5" d="M157.8,228.2c8.6-6.2,17.2-12.4,25.9-18.6,1.1-.8,0-2.8-1.1-1.9-8.6,6.2-17.2,12.4-25.9,18.6-1.2.8-.1,2.7,1.1,1.9Z"/></g><g class="cls-27"><path class="cls-5" d="M117.5,231.9c5.8-4.2,11.6-8.4,17.4-12.5,1.1-.8,0-2.8-1.1-1.9-5.8,4.2-11.6,8.4-17.4,12.5-1.2.9-.1,2.8,1.1,1.9Z"/></g><path class="cls-2" d="M146.1,111.7V96h4.4a3.42,3.42,0,0,1,1.8.4,4.6,4.6,0,0,1,2.5,2.5,5.84,5.84,0,0,1,.4,1.8,3.42,3.42,0,0,1-.4,1.8,4.6,4.6,0,0,1-2.5,2.5,5.84,5.84,0,0,1-1.8.4h-1.3v6.3Zm3.2-9.4h1.3a1.6,1.6,0,0,0,0-3.2h-1.3Z"/><path class="cls-2" d="M156.7,96h3.1v15.8h-3.1Z"/><path class="cls-2" d="M168,99.1h-6.5V96h11.9l-7.1,12.6h6.5v3.2H160.9Z"/><path class="cls-2" d="M181.4,99.1h-6.5V96h11.9l-7.1,12.6h6.5v3.2H174.3Z"/><path class="cls-2" d="M198.6,111.7l-1.6-4.4h-4.8l-1.6,4.4h-3.4l5.7-15.8h3.4l5.7,15.8Zm-4.1-11.1-1.3,3.6h2.6Z"/></svg>