<svg id="Layer_1" data-name="Layer 1" xmlns="http://www.w3.org/2000/svg" viewBox="0 0 230 230"><defs><style>.cls-1{fill:#d4d4d4;}.cls-2{fill:#f2f2f2;}.cls-3{fill:#fff;}.cls-4{fill:#414242;}.cls-5{fill:#dfdfdf;}.cls-6{fill:#a4a4a4;}.cls-7{fill:#f1f1f1;}.cls-8{fill:#d5d5d5;}.cls-9{fill:#a5a5a5;}.cls-10{fill:#f5c62c;}.cls-11{fill:#e5d095;}.cls-12{fill:#d19d09;}</style></defs><title>ecommerce-pricing-icon-3-yellow</title><path class="cls-1" d="M54.6,147l-9.1,5.2a5.1,5.1,0,0,1-4.8,0L31.9,147a1.92,1.92,0,0,1,0-3.3l10.5-5.9a2.12,2.12,0,0,1,1.9,0l10.4,5.9A1.92,1.92,0,0,1,54.6,147Z"/><path class="cls-2" d="M53.1,140.9l-11.4,6.5h-.1l-11.1-6.5v-.1l11.3-6.4h.1l11.3,6.4C53.1,140.8,53.1,140.8,53.1,140.9Z"/><path class="cls-3" d="M53,143.1l-11.4,6.5h-.1l-11.1-6.5V143l11.3-6.4h.1L53,143Z"/><path class="cls-4" d="M41.7,147.7l-.2-.1L30.1,141v-.3a.76.76,0,0,1,.2-.4l11.5-6.5.2.2,11.4,6.5v.3a.76.76,0,0,1-.2.4Zm-10.6-6.9L41.7,147l10.8-6.1-10.7-6.1Z"/><path class="cls-5" d="M30.4,140.9v2.4l11.1,6.5a.1.1,0,0,0,.1-.1v-2.4l-11.2-6.4C30.5,140.8,30.4,140.8,30.4,140.9Z"/><path class="cls-4" d="M41.6,150c-.1,0-.1,0-.2-.1l-11.3-6.6v-2.8l.4-.3.2.1L42,146.9v2.8l-.2.2C41.7,150,41.7,150,41.6,150Zm-10.9-7,10.6,6.2v-1.6l-10.6-6.2Z"/><path class="cls-6" d="M53.2,140.9v2.4l-11.4,6.5a.1.1,0,0,1-.1-.1v-2.4l11.5-6.4Z"/><path class="cls-4" d="M41.8,150.1l-.2-.1a.52.52,0,0,1-.2-.4v-2.5l.2-.2,11.6-6.6.2.1a.52.52,0,0,1,.2.4v2.5l-.2.2Zm.2-2.6v1.6L52.8,143v-1.6Z"/><path class="cls-6" d="M41.8,142h0a2.43,2.43,0,0,1-2.4-2.4v-9.2a.27.27,0,0,1,.3-.3H44a.27.27,0,0,1,.3.3v9.2A2.59,2.59,0,0,1,41.8,142Z"/><path class="cls-4" d="M41.8,142.3a2.8,2.8,0,0,1-2.8-2.8v-9.2a.58.58,0,0,1,.6-.6h4.3a.58.58,0,0,1,.6.6v9.2A2.65,2.65,0,0,1,41.8,142.3Zm-2.1-11.9v9.2a2.1,2.1,0,0,0,4.2,0v-9.2Z"/><path class="cls-7" d="M44,129.3H39.7a.27.27,0,0,0-.3.3v2.9a2.4,2.4,0,0,0,4.8,0v-2.9C44.2,129.5,44.1,129.3,44,129.3Z"/><path class="cls-3" d="M44,128H39.7a.27.27,0,0,0-.3.3v2.9a2.4,2.4,0,0,0,4.8,0v-2.9C44.3,128.1,44.2,128,44,128Z"/><path class="cls-4" d="M41.8,135.3a2.8,2.8,0,0,1-2.8-2.8v-2.9a.58.58,0,0,1,.6-.6h4.3a.58.58,0,0,1,.6.6v2.9A2.65,2.65,0,0,1,41.8,135.3Zm-2.1-5.6v2.9a2.1,2.1,0,0,0,4.2,0v-2.9Z"/><circle class="cls-5" cx="41.78" cy="119.74" r="12.2"/><path class="cls-3" d="M52.7,114.2a22,22,0,0,0-1.8-1.4,12.32,12.32,0,0,1-10.3,5.7,11.44,11.44,0,0,1-6.6-2,12.16,12.16,0,0,0-1.9,6.6,11.92,11.92,0,0,0,1.4,5.6,12.24,12.24,0,0,0,20.7-8.8A12.65,12.65,0,0,0,52.7,114.2Z"/><path class="cls-4" d="M41.8,132.3a12.6,12.6,0,1,1,12.6-12.6A12.68,12.68,0,0,1,41.8,132.3Zm0-24.5a11.9,11.9,0,1,0,11.9,11.9A12,12,0,0,0,41.8,107.8Z"/><path class="cls-6" d="M50.2,110.8a13.55,13.55,0,0,1,.2,2A12.21,12.21,0,0,1,38.1,125a11.89,11.89,0,0,1-8.3-3.3,12.28,12.28,0,0,0,24.4-1.9A12.6,12.6,0,0,0,50.2,110.8Z"/><path class="cls-4" d="M41.8,132.3a12.48,12.48,0,0,1-12.4-10.5l.3-1.3.2,1a12.14,12.14,0,0,0,8.1,3.2,11.86,11.86,0,0,0,11.9-11.9,12.25,12.25,0,0,0-.2-1.9l-.2-1,.7.7a12.52,12.52,0,0,1-8.4,21.7Zm-11.5-9.7a11.88,11.88,0,1,0,20.3-10.9v1A12.68,12.68,0,0,1,38,125.3,12.05,12.05,0,0,1,30.3,122.6Z"/><path class="cls-5" d="M50.3,109c0,4.7-3.8,7.3-8.5,7.3s-8.5-2.6-8.5-7.3a8.49,8.49,0,0,1,8.5-8.5A8.62,8.62,0,0,1,50.3,109Z"/><path class="cls-3" d="M50.4,109a7.25,7.25,0,0,0-.7-3.3,8.52,8.52,0,0,0-15.1,5.4,7.08,7.08,0,0,0,.5,2.6,9,9,0,0,0,6.8,2.7C46.6,116.3,50.4,113.7,50.4,109Z"/><path class="cls-4" d="M41.8,116.7c-5.3,0-8.8-3.1-8.8-7.7a8.8,8.8,0,0,1,17.6,0C50.7,113.6,47.1,116.7,41.8,116.7Zm.1-15.8a8.07,8.07,0,0,0-8.1,8.1c0,4.8,4.1,7,8.1,7s8.1-2.1,8.1-7A8.2,8.2,0,0,0,41.9,100.9Z"/><path class="cls-6" d="M43.7,100.8a8.6,8.6,0,0,1,1.7,5c0,4.7-3.8,7.3-8.5,7.3a9.86,9.86,0,0,1-2.4-.3c1.4,2.3,4.2,3.5,7.4,3.5,4.7,0,8.5-2.6,8.5-7.3A8.56,8.56,0,0,0,43.7,100.8Z"/><path class="cls-4" d="M41.8,116.7c-3.4,0-6.2-1.3-7.7-3.7l-.4-.7.8.2c4.6,1,10.5-.9,10.5-6.7a7.71,7.71,0,0,0-1.6-4.8l-.5-.7.9.2a8.87,8.87,0,0,1,6.9,8.6C50.7,113.6,47.1,116.7,41.8,116.7Zm-6.6-3.4a8.42,8.42,0,0,0,6.6,2.7c4,0,8.1-2.1,8.1-7a8.21,8.21,0,0,0-5.5-7.7,8.92,8.92,0,0,1,1.2,4.5c0,4.6-3.6,7.7-8.8,7.6A8.6,8.6,0,0,1,35.2,113.3Z"/><path class="cls-8" d="M199.5,170.8l-58.8,33.9a8.78,8.78,0,0,1-8.6,0L65.5,165.4a2.72,2.72,0,0,1,0-4.7l61.8-35.6a2.62,2.62,0,0,1,2.7,0L199.3,166A2.81,2.81,0,0,1,199.5,170.8Z"/><path class="cls-5" d="M177.1,164.3h0l.1-101.1-77.3-8L60,53.8,59.9,155v.3h0a4.33,4.33,0,0,0,2.4,3.1l58.4,33.9c2.9,1.7,7.4,1.9,10,.4L175.4,167A2.91,2.91,0,0,0,177.1,164.3Z"/><path class="cls-9" d="M130.7,192.7l42.9-25a4.26,4.26,0,0,0,2.1-3.3l.1-101.1-10.1-1L125.4,90.2l-.1,103.5C126.8,193.6,129.6,193.3,130.7,192.7Z"/><path class="cls-4" d="M126.4,194a12.73,12.73,0,0,1-5.8-1.4L62.2,158.7a4.49,4.49,0,0,1-2.6-3.4V155l.1-101.4L99.9,55l77.6,8-.1,101.4a3.12,3.12,0,0,1-1.9,2.9L130.8,193A9.53,9.53,0,0,1,126.4,194ZM60.4,54.2,60.2,155v.3a4.15,4.15,0,0,0,2.3,2.9l58.4,33.9c2.9,1.7,7.2,1.8,9.6.4l44.7-25.7a2.62,2.62,0,0,0,1.6-2.3h0l.2-101-77-8Z"/><path class="cls-5" d="M175.5,65.6,130.8,91.3c-2.6,1.5-7,1.3-10-.4L62.5,57c-2.9-1.7-3.3-4.3-.7-5.7l44.7-25.7c2.6-1.5,7-1.3,10,.4l58.4,33.9C177.8,61.5,178.1,64.1,175.5,65.6Z"/><path class="cls-3" d="M174.8,62,116.4,28.1c-2.9-1.7-7.4-1.9-10-.4L61.8,53.4a3.74,3.74,0,0,0-1.4,1.4,6,6,0,0,0,2.1,2.1l58.4,33.9c2.9,1.7,7.4,1.9,10,.4l44.7-25.7a3.74,3.74,0,0,0,1.4-1.4A5,5,0,0,0,174.8,62Z"/><path class="cls-4" d="M126.6,92.6a12.73,12.73,0,0,1-5.8-1.4L62.3,57.3c-1.6-1-2.6-2.2-2.6-3.5A3.35,3.35,0,0,1,61.6,51l44.7-25.7c2.6-1.5,7.2-1.3,10.3.4L175,59.6c1.6,1,2.6,2.2,2.6,3.5a3.35,3.35,0,0,1-1.9,2.8L131,91.6A10.18,10.18,0,0,1,126.6,92.6ZM110.8,24.8a9,9,0,0,0-4.2.9L61.9,51.5a2.8,2.8,0,0,0-1.6,2.2c0,1.1.8,2.1,2.3,3L121,90.6c2.9,1.7,7.2,1.8,9.6.4l44.7-25.7a2.8,2.8,0,0,0,1.6-2.2c0-1.1-.8-2.1-2.3-3L116.2,26.2A10.85,10.85,0,0,0,110.8,24.8Z"/><path class="cls-5" d="M164.8,64.5,129.7,84.7a8.31,8.31,0,0,1-7.5-.3L73,56c-2.2-1.3-2.5-3.2-.5-4.3l35.1-20.2a8.31,8.31,0,0,1,7.5.3l49.2,28.5C166.5,61.5,166.8,63.4,164.8,64.5Z"/><path class="cls-3" d="M107.9,44.8,83.1,58.9l41.7,24.2a8.31,8.31,0,0,0,7.5.3l24.8-14.1L115.4,45.1A8.31,8.31,0,0,0,107.9,44.8Z"/><path class="cls-4" d="M126.5,85.8a9.56,9.56,0,0,1-4.4-1.1L72.9,56.2a3.27,3.27,0,0,1-2-2.7,2.41,2.41,0,0,1,1.5-2.1l35.1-20.2c2-1.2,5.5-1,7.8.3L164.5,60a3.27,3.27,0,0,1,2,2.7,2.41,2.41,0,0,1-1.5,2.1L129.9,85A6.35,6.35,0,0,1,126.5,85.8ZM110.9,31a5.93,5.93,0,0,0-3.1.7L72.7,51.9a1.94,1.94,0,0,0-1.1,1.6,2.74,2.74,0,0,0,1.7,2.2l49.2,28.5c2.1,1.2,5.4,1.4,7.2.3l35.1-20.2a1.94,1.94,0,0,0,1.1-1.6,2.74,2.74,0,0,0-1.7-2.2L115,32A8.3,8.3,0,0,0,110.9,31Z"/><path class="cls-5" d="M73,56l5.2,3,29.3-16.9a8.31,8.31,0,0,1,7.5.3l44,25.5,5.8-3.3c1.9-1.1,1.7-3.1-.5-4.3L115.1,31.8a8.31,8.31,0,0,0-7.5-.3L72.5,51.6C70.6,52.7,70.8,54.7,73,56Z"/><polygon class="cls-5" points="142.5 171.8 133.7 176.8 133.7 160.1 142.5 155 142.5 171.8"/><path class="cls-4" d="M133.4,177.3V160l.1-.1,9.2-5.3v17.3l-.1.1Zm.5-17.1v16.2l8.3-4.8V155.4Z"/><polygon class="cls-5" points="140.6 156.1 140.6 170.5 133.7 174.5 133.7 176.8 142.5 171.8 142.5 155 140.6 156.1"/><path class="cls-4" d="M133.4,177.3v-2.9l6.9-4V156l2.4-1.4v17.3l-.1.1Zm.5-2.7v1.8l8.3-4.8V155.4l-1.4.8v14.4Z"/><polygon class="cls-5" points="169.6 156.2 160.8 161.3 160.8 144.5 169.6 139.5 169.6 156.2"/><path class="cls-4" d="M160.6,161.7V144.4l.1-.1,9.2-5.3v17.3l-.1.1Zm.5-17v16.2l8.3-4.8V139.9Z"/><polygon class="cls-5" points="167.8 140.6 167.7 154.9 160.8 158.9 160.8 161.3 169.6 156.2 169.6 139.5 167.8 140.6"/><path class="cls-4" d="M160.6,161.7v-2.9l6.9-4V140.4l2.4-1.4v17.3l-.1.1Zm.5-2.6v1.8l8.3-4.8V139.9l-1.4.8v14.4Z"/><polygon class="cls-5" points="142.5 146.1 133.7 151.1 133.7 134.4 142.5 129.3 142.5 146.1"/><path class="cls-4" d="M133.4,151.5V134.2l.1-.1,9.2-5.3v17.3l-.1.1Zm.6-17v16.2l8.3-4.8V129.7Z"/><polygon class="cls-5" points="140.6 130.4 140.6 144.8 133.7 148.8 133.7 151.1 142.5 146.1 142.5 129.3 140.6 130.4"/><path class="cls-4" d="M133.4,151.5v-2.9l6.9-4V130.2l2.4-1.4v17.3l-.1.1Zm.5-2.6v1.8l8.3-4.8V129.7l-1.4.8v14.4Z"/><polygon class="cls-5" points="169.7 130.5 160.9 135.6 160.9 118.8 169.7 113.8 169.7 130.5"/><path class="cls-4" d="M160.6,136V118.7l.1-.1,9.2-5.3v17.3l-.1.1Zm.5-17v16.2l8.3-4.8V114.2Z"/><polygon class="cls-5" points="167.8 114.8 167.8 129.2 160.9 133.2 160.9 135.6 169.7 130.5 169.7 113.8 167.8 114.8"/><path class="cls-4" d="M160.6,136v-2.9l6.9-4V114.7l2.4-1.4v17.3l-.1.1Zm.5-2.7v1.8l8.3-4.8V114.1l-1.4.9v14.4Z"/><polygon class="cls-5" points="156.1 138.4 147.3 143.5 147.3 126.8 156.1 121.7 156.1 138.4"/><path class="cls-4" d="M147,143.9V126.6l.1-.1,9.2-5.3v17.3l-.1.1Zm.5-17v16.2l8.3-4.8V122.1Z"/><polygon class="cls-5" points="154.2 122.8 154.2 137.2 147.3 141.1 147.3 143.5 156.1 138.4 156.1 121.7 154.2 122.8"/><path class="cls-4" d="M147,143.9V141l6.9-4V122.6l2.4-1.4v17.3l-.1.1Zm.5-2.6v1.8l8.3-4.8V122.1l-1.4.8v14.4Z"/><polygon class="cls-5" points="68.3 147.9 77.1 153 77.1 136.3 68.3 131.2 68.3 147.9"/><path class="cls-4" d="M77.3,153.4,68,148V130.7l9.3,5.4Zm-8.8-5.6,8.3,4.8V136.4l-8.3-4.8Z"/><polygon class="cls-3" points="70.2 133.1 70.2 147.5 77.1 151.5 77.1 153.8 68.3 148.7 68.3 132 70.2 133.1"/><path class="cls-4" d="M77.3,153.4,68,148V130.7l2.4,1.4v14.4l6.9,4Zm-8.8-5.6,8.3,4.8v-1.8l-6.9-4V132.4l-1.4-.8Z"/><polygon class="cls-10" points="109.1 171 117.9 176.1 117.9 159.3 109.1 154.2 109.1 171"/><path class="cls-4" d="M118.1,176.5l-9.3-5.4V153.8l9.3,5.4Zm-8.8-5.7,8.3,4.8V159.4l-8.3-4.8Z"/><polygon class="cls-3" points="111 156.2 110.9 170.5 117.9 174.5 117.9 176.9 109.1 171.8 109.1 155.1 111 156.2"/><path class="cls-4" d="M118.1,176.5l-9.3-5.4V153.8l2.4,1.4v14.4l6.9,4Zm-8.8-5.7,8.3,4.8v-1.8l-6.9-4V155.4l-1.4-.8Z"/><polygon class="cls-5" points="156 164.2 147.2 169.2 147.3 152.5 156.1 147.4 156 164.2"/><path class="cls-4" d="M147,169.6V152.3l.1-.1,9.2-5.3v17.3l-.1.1Zm.5-17v16.2l8.3-4.8V147.8Z"/><polygon class="cls-5" points="154.2 148.5 154.2 162.9 147.2 166.9 147.2 169.2 156 164.2 156.1 147.4 154.2 148.5"/><path class="cls-4" d="M147,169.6v-2.9l6.9-4V148.3l2.4-1.4v17.3l-.1.1Zm.5-2.6v1.8l8.3-4.8V147.8l-1.4.8V163Z"/><rect class="cls-4" x="73.38" y="133.52" width="0.5" height="8" transform="translate(-82.28 132.47) rotate(-59.98)"/><polygon class="cls-4" points="147.4 155.7 147.1 155.3 154.1 151.3 154.3 151.7 147.4 155.7"/><rect class="cls-4" x="149.57" y="154.46" width="2.4" height="0.5" transform="translate(-4.16 305.26) rotate(-89.92)"/><path class="cls-4" d="M150.4,157.8a.37.37,0,0,1-.3-.1.78.78,0,0,1-.3-.7,1.49,1.49,0,0,1,.8-1.4l.2-.1a.85.85,0,0,1,.7,0,.78.78,0,0,1,.3.7,1.49,1.49,0,0,1-.8,1.4l-.2.1A.76.76,0,0,1,150.4,157.8Zm.7-1.9H151l-.2.1a1.23,1.23,0,0,0-.5,1c0,.2,0,.3.1.3h.2l.2-.1a.77.77,0,0,0,.3-1.3Z"/><polygon class="cls-4" points="133.8 139.2 133.6 138.7 140.5 134.8 140.8 135.2 133.8 139.2"/><polygon class="cls-4" points="160.8 129.4 160.6 129 167.5 125 167.7 125.5 160.8 129.4"/><polygon class="cls-5" points="142.6 120.5 133.8 125.6 133.8 108.8 142.6 103.7 142.6 120.5"/><path class="cls-4" d="M133.5,126V108.7l.1-.1,9.2-5.3v17.3l-.1.1Zm.5-17v16.2l8.3-4.8V104.2Z"/><polygon class="cls-5" points="140.7 104.8 140.7 119.2 133.8 123.2 133.8 125.6 142.6 120.5 142.6 103.7 140.7 104.8"/><path class="cls-4" d="M133.5,126v-2.9l6.9-4V104.7l2.4-1.4v17.3l-.1.1Zm.5-2.7v1.8l8.3-4.8V104.1l-1.3.9v14.4Z"/><polygon class="cls-5" points="169.7 104.9 160.9 110 160.9 93.3 169.8 88.2 169.7 104.9"/><path class="cls-4" d="M160.7,110.4V93.1l.1-.1,9.2-5.3V105l-.1.1Zm.5-17v16.2l8.3-4.8V88.6Z"/><polygon class="cls-5" points="167.9 89.3 167.9 103.6 160.9 107.6 160.9 110 169.7 104.9 169.8 88.2 167.9 89.3"/><path class="cls-4" d="M160.7,110.4v-2.9l6.9-4V89.1l2.4-1.4V105l-.1.1Zm.5-2.6v1.8l8.3-4.8V88.6l-1.4.8v14.4Z"/><polygon class="cls-5" points="156.1 112.9 147.3 117.9 147.4 101.2 156.2 96.1 156.1 112.9"/><path class="cls-4" d="M147.1,118.4V101.1l.1-.1,9.2-5.3V113l-.1.1Zm.5-17.1v16.2l8.3-4.8V96.5Z"/><polygon class="cls-5" points="154.3 97.2 154.3 111.6 147.3 115.6 147.3 117.9 156.1 112.9 156.2 96.1 154.3 97.2"/><path class="cls-4" d="M147.1,118.4v-2.9l6.9-4V97.1l2.4-1.4V113l-.1.1Zm.5-2.7v1.8l8.3-4.8V96.5l-1.4.8v14.4Z"/><polygon class="cls-4" points="133.9 113.6 133.7 113.2 140.6 109.2 140.8 109.6 133.9 113.6"/><polygon class="cls-4" points="160.9 103.9 160.6 103.5 167.5 99.5 167.8 99.9 160.9 103.9"/><polygon class="cls-5" points="99.2 65.8 88.8 59.8 98.5 54.2 108.8 60.3 99.2 65.8"/><path class="cls-4" d="M99.2,64.5,88.3,58.1l10.2-5.9,10.9,6.4Zm-9.7-6.4,9.7,5.7,9-5.2-9.7-5.7Z"/><polygon class="cls-3" points="102.1 60 97.1 57.2 98.9 56.1 103.9 59 102.1 60"/><path class="cls-4" d="M102.1,59.6l-5.6-3.2L98.9,55l5.6,3.2Zm-4.4-3.3,4.4,2.5,1.2-.7-4.4-2.5Z"/><polygon class="cls-10" points="168.5 185.2 156.1 178 156.1 173.5 159.7 175.6 168.5 183 168.5 185.2"/><polygon class="cls-10" points="168.5 183 182.5 175 173.6 167.6 159.7 175.6 168.5 183"/><polygon class="cls-10" points="156.1 173.5 170 165.5 173.6 167.6 159.7 175.6 156.1 173.5"/><polygon class="cls-11" points="156.1 175.1 170 167.2 173.6 169.2 159.7 177.2 156.1 175.1"/><polygon class="cls-12" points="168.5 185.2 182.5 177.2 182.5 175 168.5 183 168.5 185.2"/><path class="cls-4" d="M182.7,174.9l-8.7-7.2-.3-.2-.1-.1-3.6-2.1-14.2,8.1v4.8l12.7,7.3,14.2-8.1Zm-14.1,7.8-8.5-7,13.5-7.7,8.5,7Zm1.4-16.9,3.1,1.8-5.1,2.9-8.3,4.8-3.1-1.8Zm-13.7,12.1V174l3.2,1.9,2.8,2.3,6,5v1.6Zm25.9-.9-13.4,7.7v-1.6l13.4-7.7Z"/><path class="cls-5" d="M83,158a.1.1,0,0,1-.1-.1l-.2-.1a3.84,3.84,0,0,1-1.4-2.2c0-.2-.1,0-.1,0v1.2a3.84,3.84,0,0,0,1.3,1.5l.2.1c.1.1.2.1.4.2Z"/><polygon class="cls-5" points="101.1 180.9 81 169.3 81.1 150.2 101.1 161.8 101.1 180.9"/><path class="cls-4" d="M101.3,181.3,80.8,169.4V149.7l20.5,11.9Zm-20-12.2,19.5,11.3V161.9L81.3,150.6Z"/><polygon class="cls-5" points="82.9 168.1 83 151.3 81.1 150.2 81 169.3 101.1 180.9 101.1 178.6 82.9 168.1"/><path class="cls-4" d="M101.3,181.3,80.8,169.4V149.7l2.4,1.4v16.8l18.1,10.5Zm-20-12.2,19.5,11.3v-1.8L82.7,168.1V151.3l-1.4-.8Z"/><polygon class="cls-12" points="98.3 165.7 105.8 161.6 105.8 151.3 96.9 155.4 98.3 165.7"/><path class="cls-4" d="M98.1,166.1l-1.5-10.9,9.5-4.1v10.6Zm-1-10.6,1.3,9.8,7.1-3.8v-9.8Z"/><path class="cls-11" d="M98.2,165v-.6c0-4.8,2.9-10.4,6.6-12.5l1-.6h0L78.1,135.4l-1,.6c-3.6,2.1-6.6,7.7-6.6,12.5v.8a3.82,3.82,0,0,0,1.6,3.1l.2.1c.9.5,1.6,0,1.6-1.2a3.82,3.82,0,0,0,1.6,3.1l.2.1c.9.5,1.6,0,1.6-1.2a3.82,3.82,0,0,0,1.6,3.1l.2.1c.9.5,1.6,0,1.6-1.2a3.82,3.82,0,0,0,1.6,3.1l.2.1c.9.5,1.6,0,1.6-1.2a3.82,3.82,0,0,0,1.6,3.1l.2.1c.9.5,1.6,0,1.6-1.2a3.82,3.82,0,0,0,1.6,3.1l.2.1c.9.5,1.6,0,1.6-1.2a3.82,3.82,0,0,0,1.6,3.1l.2.1c.9.5,1.6,0,1.6-1.2a3.82,3.82,0,0,0,1.6,3.1l.2.1c.9.5,1.6,0,1.6-1.2l.5-.3Z"/><path class="cls-4" d="M97.3,167a3.09,3.09,0,0,1-.8-.2l-.2-.1a3.31,3.31,0,0,1-1.5-2.1c-.1.1-.2.3-.4.4a1.24,1.24,0,0,1-1.3-.1l-.2-.1a3.31,3.31,0,0,1-1.5-2.1.78.78,0,0,1-.4.4,1.24,1.24,0,0,1-1.3-.1l-.2-.1a3.31,3.31,0,0,1-1.5-2.1c-.1.1-.2.3-.4.4a1.24,1.24,0,0,1-1.3-.1l-.2-.1a3.31,3.31,0,0,1-1.5-2.1c-.1.1-.2.3-.4.4a1.24,1.24,0,0,1-1.3-.1l-.2-.1a3.31,3.31,0,0,1-1.5-2.1c-.1.1-.2.3-.4.4a1.24,1.24,0,0,1-1.3-.1l-.2-.1a3.31,3.31,0,0,1-1.5-2.1.78.78,0,0,1-.4.4,1.24,1.24,0,0,1-1.3-.1l-.2-.1a3.31,3.31,0,0,1-1.5-2.1c-.1.1-.2.3-.4.4a1.24,1.24,0,0,1-1.3-.1l-.2-.1a4,4,0,0,1-1.7-3.3v-.8c0-4.9,3-10.6,6.7-12.7l1.1-.7.1.1,27.8,16-1.1.9c-3.5,2-6.4,7.6-6.4,12.3v.2h0v.7c0,.7-.2,1.3-.7,1.5C97.6,166.9,97.5,167,97.3,167Zm-2.8-3.7H95a3.78,3.78,0,0,0,1.5,2.9l.2.1a1.06,1.06,0,0,0,.8.1c.3-.2.4-.5.4-1.1v-1c0-4.9,3-10.6,6.7-12.7l.6-.4L78,135.5l-.9.5c-3.5,2-6.4,7.6-6.4,12.3v.8a3.78,3.78,0,0,0,1.5,2.9l.2.1a1.06,1.06,0,0,0,.8.1,1.25,1.25,0,0,0,.4-1.1h.5a3.78,3.78,0,0,0,1.5,2.9l.2.1a1.06,1.06,0,0,0,.8.1,1.25,1.25,0,0,0,.4-1.1h.5A3.78,3.78,0,0,0,79,156l.2.1a1.06,1.06,0,0,0,.8.1,1.25,1.25,0,0,0,.4-1.1h.5a3.78,3.78,0,0,0,1.5,2.9l.2.1a1.06,1.06,0,0,0,.8.1,1.25,1.25,0,0,0,.4-1.1h.5a3.78,3.78,0,0,0,1.5,2.9l.2.1a1.06,1.06,0,0,0,.8.1,1.25,1.25,0,0,0,.4-1.1h.5a3.78,3.78,0,0,0,1.5,2.9l.2.1a1.06,1.06,0,0,0,.8.1,1.25,1.25,0,0,0,.4-1.1h.5a3.78,3.78,0,0,0,1.5,2.9l.2.1a1.06,1.06,0,0,0,.8.1C94.4,164.3,94.5,163.9,94.5,163.3Z"/><path class="cls-10" d="M77.4,153.3v-.8c0-4.8,2.9-10.4,6.6-12.5l1-.6-3.5-2.1-1,.6c-3.6,2.1-6.6,7.7-6.6,12.5v.8a3.82,3.82,0,0,0,1.6,3.1l.2.1c1,.6,1.7.1,1.7-1.1Z"/><path class="cls-4" d="M76.4,154.9a3.09,3.09,0,0,1-.8-.2l-.2-.1a4,4,0,0,1-1.7-3.3v-.8c0-4.9,3-10.6,6.7-12.7l1.1-.7,4,2.3-1.4.8c-3.5,2-6.4,7.6-6.4,12.3v1.2h0a1.68,1.68,0,0,1-.6,1.1A2,2,0,0,1,76.4,154.9Zm5.1-17.3-.9.5c-3.5,2-6.4,7.6-6.4,12.3v.8a3.78,3.78,0,0,0,1.5,2.9l.2.1a1.06,1.06,0,0,0,.8.1,1.25,1.25,0,0,0,.4-1.1h0v-.8c0-4.9,3-10.6,6.7-12.7l.6-.4Z"/><path class="cls-10" d="M84.3,157.3v-.8c0-4.8,2.9-10.4,6.6-12.5l1-.6-3.5-2.1-1,.6c-3.6,2.1-6.6,7.7-6.6,12.5v.8a3.82,3.82,0,0,0,1.6,3.1l.2.1c1,.6,1.7,0,1.7-1.1Z"/><path class="cls-4" d="M83.4,158.9a3.09,3.09,0,0,1-.8-.2l-.2-.1a4,4,0,0,1-1.7-3.3v-.8c0-4.9,3-10.6,6.7-12.7l1.1-.7,4,2.3-1.4.8c-3.5,2-6.4,7.6-6.4,12.3v1.2h0a1.68,1.68,0,0,1-.6,1.1A5.64,5.64,0,0,0,83.4,158.9Zm5.1-17.3-.9.5c-3.5,2-6.4,7.6-6.4,12.3v.8a3.78,3.78,0,0,0,1.5,2.9l.2.1a1.06,1.06,0,0,0,.8.1,1.25,1.25,0,0,0,.4-1.1h0v-.8c0-4.9,3-10.6,6.7-12.7l.6-.4Z"/><path class="cls-10" d="M98.2,165.2v-.8c0-4.8,2.9-10.4,6.6-12.5l1-.6-3.5-2.1-1,.6c-3.6,2.1-6.6,7.7-6.6,12.5v.8a3.82,3.82,0,0,0,1.6,3.1l.2.1c1,.6,1.7.1,1.7-1.1Z"/><path class="cls-4" d="M97.2,166.9a3.09,3.09,0,0,1-.8-.2l-.2-.1a4,4,0,0,1-1.7-3.3v-.8c0-4.9,3-10.6,6.7-12.7l1.1-.7,3.7,2.2-1.1.9c-3.5,2-6.4,7.6-6.4,12.3v1.2h0a1.68,1.68,0,0,1-.6,1.1C97.6,166.8,97.4,166.9,97.2,166.9Zm5.1-17.4-.9.5c-3.5,2-6.4,7.6-6.4,12.3v.8a3.78,3.78,0,0,0,1.5,2.9l.2.1a1.06,1.06,0,0,0,.8.1,1.25,1.25,0,0,0,.4-1.1h0v-.8c0-4.9,3-10.6,6.7-12.7l.6-.4Z"/><path class="cls-10" d="M91.3,161.3v-.8c0-4.8,2.9-10.4,6.6-12.5l1-.6-3.5-2.1-1,.6c-3.6,2.1-6.6,7.7-6.6,12.5v.8a3.82,3.82,0,0,0,1.6,3.1l.2.1c.9.6,1.7,0,1.7-1.1Z"/><path class="cls-4" d="M90.3,162.9a3.09,3.09,0,0,1-.8-.2l-.2-.1a4,4,0,0,1-1.7-3.3v-.8c0-4.9,3-10.6,6.7-12.7l1.1-.7,4,2.3-1.4.8c-3.5,2-6.4,7.6-6.4,12.3v1.2h0a1.68,1.68,0,0,1-.6,1.1A2,2,0,0,1,90.3,162.9Zm5.1-17.3-.9.5c-3.5,2-6.4,7.6-6.4,12.3v.8a3.78,3.78,0,0,0,1.5,2.9l.2.1a1.06,1.06,0,0,0,.8.1,1.25,1.25,0,0,0,.4-1.1h0v-.8c0-4.9,3-10.6,6.7-12.7l.6-.4Z"/><rect class="cls-4" x="86.25" y="167.56" width="10.5" height="0.5" transform="translate(-76.44 259.08) rotate(-89.92)"/><rect class="cls-4" x="84.98" y="165.6" width="5.5" height="0.5" transform="translate(-77.61 77.15) rotate(-33.91)"/><rect class="cls-4" x="93.51" y="172.18" width="8.2" height="0.5" transform="translate(-74.7 74.62) rotate(-30.9)"/><rect class="cls-4" x="94.21" y="170.09" width="3.7" height="0.5" transform="translate(-78.04 81.29) rotate(-33.49)"/><polygon class="cls-5" points="73.4 165.6 61.8 158.9 66.7 156 78.3 162.8 73.4 165.6"/><polygon class="cls-3" points="73.4 166.6 61.8 159.9 66.7 157.1 78.3 163.8 73.4 166.6"/><polygon class="cls-5" points="61.8 158.9 61.8 160.7 73.4 167.4 73.4 165.6 61.8 158.9"/><polygon class="cls-9" points="78.3 162.8 78.3 164.6 73.4 167.4 73.4 165.6 78.3 162.8"/><polygon class="cls-9" points="77.4 165.1 76.5 169.2 72.8 171.3 73.4 167.4 77.4 165.1"/><polygon class="cls-5" points="62.5 161.1 63.2 165.8 72.8 171.3 73.4 167.4 62.5 161.1"/><path class="cls-4" d="M78.5,162.9v-.3l-.2-.1-11.6-6.7-5.1,3v2.1l.8.4.7,4.7,9.8,5.7,3.9-2.2.9-4.1.9-.5Zm-11.8-6.6,11.1,6.4-.9.5-3.5,2-8.7-5-2.4-1.4ZM62,160.5v-1.2l2.4,1.4,8.7,5v1.2l-5.6-3.2-5.4-3.1h0Zm.8,1.1,7,4,3.3,1.9-.5,3.4-9.2-5.3ZM76.2,169l-3.1,1.8.5-3.1.1-.3,3.4-2Zm1.8-4.6-4.4,2.5v-1.2l3.5-2,.9-.5Z"/><path class="cls-5" d="M69.1,153.4,68,154l-1.1-.7c-2.8,1.7-2.2,5.4-2.2,5.4h0a1.66,1.66,0,0,0,1,1.4,5.19,5.19,0,0,0,4.7,0,1.89,1.89,0,0,0,1-1.4C71.5,154.5,69.1,153.4,69.1,153.4Z"/><path class="cls-4" d="M67.9,161a5.14,5.14,0,0,1-2.5-.6,1.94,1.94,0,0,1-1.1-1.6h0s-.6-3.9,2.3-5.6l.1-.1,1.1.7,1.1-.6.1.1c.1.1,2.6,1.3,2.3,5.7a2.08,2.08,0,0,1-1.1,1.6A6.8,6.8,0,0,1,67.9,161Zm-1.1-7.3c-2.5,1.6-2,5.1-2,5.1a1.35,1.35,0,0,0,.9,1.2,4.87,4.87,0,0,0,4.4,0,1.86,1.86,0,0,0,.9-1.1c.2-3.6-1.5-4.9-1.9-5.1l-1.1.6Z"/><path class="cls-5" d="M69.1,154.7a2.35,2.35,0,0,1-2.3,0c-.6-.4-.6-.9,0-1.3a2.35,2.35,0,0,1,2.3,0C69.7,153.7,69.7,154.3,69.1,154.7Z"/><ellipse class="cls-3" cx="67.93" cy="154.71" rx="0.9" ry="1.6" transform="translate(-86.88 222.42) rotate(-89.92)"/><path class="cls-4" d="M67.9,155.2a2.38,2.38,0,0,1-1.2-.3,1,1,0,0,1-.6-.9,1.21,1.21,0,0,1,.6-.9,2.75,2.75,0,0,1,2.5,0,1,1,0,0,1,.6.9,1.21,1.21,0,0,1-.6.9A2.77,2.77,0,0,1,67.9,155.2Zm0-1.8a3,3,0,0,0-1,.2.42.42,0,0,0,0,.8,2.33,2.33,0,0,0,2,0,.42.42,0,0,0,0-.8A1.5,1.5,0,0,0,67.9,153.4Z"/><path class="cls-5" d="M73.6,156l-1.1.6-1.1-.7c-2.8,1.7-2.2,5.4-2.2,5.4h0a1.66,1.66,0,0,0,1,1.4,5.19,5.19,0,0,0,4.7,0,1.89,1.89,0,0,0,1-1.4C76.1,157.2,73.6,156,73.6,156Z"/><path class="cls-4" d="M72.5,163.6A5.14,5.14,0,0,1,70,163a1.94,1.94,0,0,1-1.1-1.6h0s-.6-3.9,2.3-5.6l.1-.1,1.1.7,1.1-.6.1.1c.1.1,2.6,1.3,2.3,5.7a2.08,2.08,0,0,1-1.1,1.6A6.8,6.8,0,0,1,72.5,163.6Zm-1.1-7.3c-2.5,1.6-2,5.1-2,5.1a1.35,1.35,0,0,0,.9,1.2,4.87,4.87,0,0,0,4.4,0,1.4,1.4,0,0,0,.8-1.1c.2-3.5-1.5-4.9-1.9-5.1l-1.1.6Z"/><path class="cls-5" d="M73.6,157.3a2.35,2.35,0,0,1-2.3,0c-.6-.4-.6-.9,0-1.3a2.35,2.35,0,0,1,2.3,0C74.3,156.4,74.3,156.9,73.6,157.3Z"/><path class="cls-3" d="M73.6,158a2.35,2.35,0,0,1-2.3,0c-.6-.4-.6-.9,0-1.3a2.35,2.35,0,0,1,2.3,0C74.2,157.1,74.2,157.7,73.6,158Z"/><path class="cls-4" d="M72.5,157.8a2.38,2.38,0,0,1-1.2-.3,1,1,0,0,1-.6-.9,1.21,1.21,0,0,1,.6-.9,2.75,2.75,0,0,1,2.5,0,1,1,0,0,1,.6.9,1.21,1.21,0,0,1-.6.9A2.77,2.77,0,0,1,72.5,157.8Zm0-1.8a3,3,0,0,0-1,.2.42.42,0,0,0,0,.8,2.33,2.33,0,0,0,2,0,.42.42,0,0,0,0-.8A3,3,0,0,0,72.5,156Z"/><polygon class="cls-5" points="109.1 186.3 97.5 179.6 102.4 176.8 114 183.5 109.1 186.3"/><polygon class="cls-3" points="109.1 187.3 97.5 180.6 102.4 177.8 114 184.5 109.1 187.3"/><polygon class="cls-5" points="97.5 179.6 97.5 181.4 109.1 188.1 109.1 186.3 97.5 179.6"/><polygon class="cls-9" points="114 183.5 114 185.3 109.1 188.1 109.1 186.3 114 183.5"/><polygon class="cls-9" points="113.1 185.8 112.2 189.9 108.5 192.1 109.1 188.1 113.1 185.8"/><polygon class="cls-5" points="98.3 181.8 99 186.5 108.5 192.1 109.1 188.1 98.3 181.8"/><path class="cls-4" d="M114.3,183.7v-.3l-.2-.1-11.6-6.7-5.1,3v2.1l.6.3.7,4.7,9.8,5.7,3.9-2.2.9-4.1.9-.5Zm-11.9-6.6,11.1,6.4-.9.5-3.5,2-8.7-5L98,179.6Zm-4.6,4.2v-1.2l2.4,1.4,8.7,5v1.2l-5.6-3.2-5.4-3.1h0Zm.8,1,7,4,3.3,1.9-.5,3.4-9.2-5.3Zm13.4,7.5-3.1,1.8.5-3.1.1-.3,3.4-2Zm1.8-4.6-4.4,2.5v-1.2l3.5-2,.9-.5Z"/><path class="cls-5" d="M104.8,174.1l-1.1.6-1.1-.7c-2.8,1.7-2.2,5.4-2.2,5.4h0a1.66,1.66,0,0,0,1,1.4,5.19,5.19,0,0,0,4.7,0,1.89,1.89,0,0,0,1-1.4C107.2,175.3,104.8,174.1,104.8,174.1Z"/><path class="cls-4" d="M103.7,181.7a5.14,5.14,0,0,1-2.5-.6,1.94,1.94,0,0,1-1.1-1.6h0s-.6-3.9,2.3-5.6l.1-.1,1.1.7,1.1-.6.1.1c.1.1,2.6,1.3,2.3,5.7a2.08,2.08,0,0,1-1.1,1.6A6.8,6.8,0,0,1,103.7,181.7Zm-1.1-7.3c-2.5,1.6-2,5.1-2,5.1a1.35,1.35,0,0,0,.9,1.2,4.87,4.87,0,0,0,4.4,0,1.86,1.86,0,0,0,.9-1.1c.2-3.6-1.5-4.9-1.9-5.1l-1.1.6Z"/><path class="cls-5" d="M104.8,175.4a2.35,2.35,0,0,1-2.3,0c-.6-.4-.6-.9,0-1.3a2.35,2.35,0,0,1,2.3,0C105.4,174.5,105.4,175.1,104.8,175.4Z"/><path class="cls-3" d="M104.8,176.1a2.35,2.35,0,0,1-2.3,0c-.6-.4-.6-.9,0-1.3a2.35,2.35,0,0,1,2.3,0C105.4,175.1,105.4,175.7,104.8,176.1Z"/><path class="cls-4" d="M103.7,175.9a2.38,2.38,0,0,1-1.2-.3,1,1,0,0,1-.6-.9,1.21,1.21,0,0,1,.6-.9,2.75,2.75,0,0,1,2.5,0,1,1,0,0,1,.6.9,1.21,1.21,0,0,1-.6.9A3.08,3.08,0,0,1,103.7,175.9Zm0-1.8a3,3,0,0,0-1,.2.54.54,0,0,0-.3.4c0,.2.1.3.3.4a2.33,2.33,0,0,0,2,0,.54.54,0,0,0,.3-.4c0-.2-.1-.3-.3-.4A3,3,0,0,0,103.7,174.1Z"/><path class="cls-5" d="M109.4,176.7l-1.1.6-1.1-.7c-2.8,1.7-2.2,5.4-2.2,5.4h0a1.66,1.66,0,0,0,1,1.4,5.19,5.19,0,0,0,4.7,0,1.89,1.89,0,0,0,1-1.4C111.8,177.9,109.4,176.7,109.4,176.7Z"/><path class="cls-4" d="M108.2,184.3a5.14,5.14,0,0,1-2.5-.6,1.94,1.94,0,0,1-1.1-1.6h0s-.6-3.9,2.3-5.6l.1-.1,1.1.7,1.1-.6.1.1c.1.1,2.6,1.3,2.3,5.7a2.08,2.08,0,0,1-1.1,1.6A6.8,6.8,0,0,1,108.2,184.3Zm-1.1-7.3c-2.5,1.6-2,5.1-2,5.1a1.35,1.35,0,0,0,.9,1.2,4.87,4.87,0,0,0,4.4,0,1.4,1.4,0,0,0,.8-1.1c.2-3.5-1.5-4.9-1.9-5.1l-1.1.6Z"/><path class="cls-5" d="M109.4,178a2.35,2.35,0,0,1-2.3,0c-.6-.4-.6-.9,0-1.3a2.35,2.35,0,0,1,2.3,0C110,177.1,110,177.7,109.4,178Z"/><path class="cls-3" d="M109.4,178.8a2.35,2.35,0,0,1-2.3,0c-.6-.4-.6-.9,0-1.3a2.35,2.35,0,0,1,2.3,0C110,177.8,110,178.4,109.4,178.8Z"/><path class="cls-4" d="M108.2,178.6a2.38,2.38,0,0,1-1.2-.3,1,1,0,0,1-.6-.9,1.21,1.21,0,0,1,.6-.9,2.75,2.75,0,0,1,2.5,0,1,1,0,0,1,.6.9,1.21,1.21,0,0,1-.6.9A2.77,2.77,0,0,1,108.2,178.6Zm.1-1.9a3,3,0,0,0-1,.2.54.54,0,0,0-.3.4c0,.2.1.3.3.4a2.33,2.33,0,0,0,2,0,.54.54,0,0,0,.3-.4c0-.2-.1-.3-.3-.4A3.55,3.55,0,0,0,108.3,176.7Z"/><polygon class="cls-9" points="110.7 30.6 110.7 41.4 109.1 41.4 78.3 59 72 55.2 71.2 53.9 71.5 52.5 72.5 51.6 108.2 31.1 109.4 30.6 110.7 30.6"/><polygon class="cls-10" points="68.3 122 77.1 127.1 77.2 110.4 68.3 105.3 68.3 122"/><path class="cls-4" d="M77.4,127.5l-9.3-5.4V104.8l9.3,5.4Zm-8.8-5.6,8.3,4.8V110.5l-8.3-4.8Z"/><polygon class="cls-3" points="70.2 107.2 70.2 121.6 77.1 125.6 77.1 127.9 68.3 122.8 68.3 106.1 70.2 107.2"/><path class="cls-4" d="M77.4,127.5l-9.3-5.4V104.8l2.4,1.4v14.4l6.9,4Zm-8.8-5.6,8.3,4.8v-1.8l-6.9-4V106.5l-1.4-.8Z"/><polygon class="cls-5" points="81.9 130 90.7 135.1 90.7 118.4 81.9 113.3 81.9 130"/><path class="cls-4" d="M91,135.5l-9.3-5.4V112.8l9.3,5.4Zm-8.8-5.6,8.3,4.8V118.5l-8.3-4.8Z"/><polygon class="cls-3" points="83.8 115.2 83.8 129.6 90.7 133.6 90.7 135.9 81.9 130.8 81.9 114.1 83.8 115.2"/><path class="cls-4" d="M91,135.5l-9.3-5.4V112.8l2.4,1.4v14.4l6.9,4Zm-8.8-5.6,8.3,4.8v-1.8l-6.9-4V114.5l-1.4-.8Z"/><polygon class="cls-5" points="109.1 145.3 117.9 150.4 117.9 133.6 109.1 128.5 109.1 145.3"/><path class="cls-4" d="M118.2,150.8l-9.3-5.4V128.1l9.3,5.4Zm-8.9-5.7,8.3,4.8V133.7l-8.3-4.8Z"/><polygon class="cls-3" points="111 130.4 111 144.8 117.9 148.8 117.9 151.2 109.1 146.1 109.1 129.3 111 130.4"/><path class="cls-4" d="M118.2,150.8l-9.3-5.4V128.1l2.4,1.4v14.4l6.9,4Zm-8.9-5.7,8.3,4.8v-1.8l-6.9-4V129.7l-1.4-.8Z"/><polygon class="cls-5" points="95.6 137.7 104.4 142.8 104.4 126 95.6 120.9 95.6 137.7"/><path class="cls-4" d="M104.6,143.2l-9.3-5.4V120.5l9.3,5.4Zm-8.8-5.7,8.3,4.8V126.1l-8.3-4.8Z"/><polygon class="cls-3" points="97.5 122.8 97.5 137.2 104.4 141.2 104.4 143.6 95.6 138.5 95.6 121.7 97.5 122.8"/><path class="cls-4" d="M104.6,143.2l-9.3-5.4V120.5l2.4,1.4v14.4l6.9,4Zm-8.8-5.7,8.3,4.8v-1.8l-6.9-4V122.1l-1.4-.8Z"/><rect class="cls-4" x="100.65" y="128.3" width="0.5" height="8" transform="translate(-64.13 153.47) rotate(-59.98)"/><rect class="cls-4" x="99.65" y="133.18" width="2.4" height="0.5" transform="translate(-32.73 234.09) rotate(-89.92)"/><path class="cls-4" d="M101.2,136.6a.6.6,0,0,1-.4-.1l-.2-.1a1.84,1.84,0,0,1-.8-1.4.78.78,0,0,1,.3-.7.85.85,0,0,1,.7,0l.2.1a1.84,1.84,0,0,1,.8,1.4.78.78,0,0,1-.3.7A.37.37,0,0,1,101.2,136.6Zm-.7-1.9h0c-.1,0-.1.1-.1.3a1.23,1.23,0,0,0,.5,1l.2.1a.14.14,0,0,0,.2,0,.44.44,0,0,0,.1-.3,1.23,1.23,0,0,0-.5-1l-.2-.1Z"/><rect class="cls-4" x="73.41" y="106.64" width="0.5" height="8" transform="translate(-59 119.07) rotate(-59.98)"/><polygon class="cls-5" points="68.5 97.3 77.3 102.4 77.3 85.6 68.5 80.5 68.5 97.3"/><path class="cls-4" d="M77.5,102.8l-9.3-5.4V80.1l9.3,5.4Zm-8.8-5.7,8.3,4.8V85.7l-8.3-4.8Z"/><polygon class="cls-3" points="70.4 82.4 70.4 96.8 77.3 100.8 77.3 103.2 68.5 98.1 68.5 81.3 70.4 82.4"/><path class="cls-4" d="M77.5,102.8l-9.3-5.4V80.1l2.4,1.4V95.9l6.9,4Zm-8.8-5.7,8.3,4.8v-1.8l-6.9-4V81.7l-1.4-.8Z"/><polygon class="cls-5" points="82.1 105.2 90.9 110.3 90.9 93.6 82.1 88.5 82.1 105.2"/><path class="cls-4" d="M91.1,110.7l-9.3-5.4V88l9.3,5.4Zm-8.8-5.6,8.3,4.8V93.7l-8.3-4.8Z"/><polygon class="cls-3" points="84 90.4 84 104.8 90.9 108.8 90.9 111.1 82.1 106.1 82.1 89.3 84 90.4"/><path class="cls-4" d="M91.1,110.7l-9.3-5.4V88l2.4,1.4v14.4l6.9,4Zm-8.8-5.6,8.3,4.8v-1.8l-6.9-4V89.7l-1.4-.8Z"/><polygon class="cls-10" points="109.3 120.5 118.1 125.6 118.1 108.8 109.3 103.8 109.3 120.5"/><path class="cls-4" d="M118.3,126l-9.3-5.4V103.3l9.3,5.4Zm-8.8-5.6,8.3,4.8V109l-8.3-4.8Z"/><polygon class="cls-3" points="111.2 105.7 111.1 120 118.1 124 118.1 126.4 109.3 121.3 109.3 104.6 111.2 105.7"/><path class="cls-4" d="M118.3,126l-9.3-5.4V103.3l2.4,1.4v14.4l6.9,4Zm-8.8-5.6,8.3,4.8v-1.8l-6.9-4V105l-1.4-.8Z"/><polygon class="cls-5" points="95.7 112.9 104.6 118 104.6 101.2 95.8 96.2 95.7 112.9"/><path class="cls-4" d="M104.8,118.4,95.5,113V95.7l9.3,5.4ZM96,112.8l8.3,4.8V101.4L96,96.6Z"/><polygon class="cls-3" points="97.6 98.1 97.6 112.4 104.6 116.4 104.6 118.8 95.7 113.7 95.8 97 97.6 98.1"/><path class="cls-4" d="M104.8,118.4,95.5,113V95.7l2.4,1.4v14.4l6.9,4ZM96,112.8l8.3,4.8v-1.8l-6.9-4V97.4L96,96.6Z"/><rect class="cls-4" x="100.8" y="103.48" width="0.5" height="8" transform="translate(-42.57 141.2) rotate(-59.98)"/><rect class="cls-4" x="99.87" y="108.47" width="2.4" height="0.5" transform="translate(-7.79 209.64) rotate(-89.92)"/><path class="cls-4" d="M101.4,111.8a.6.6,0,0,1-.4-.1l-.2-.1a1.84,1.84,0,0,1-.8-1.4.78.78,0,0,1,.3-.7.85.85,0,0,1,.7,0l.2.1a1.84,1.84,0,0,1,.8,1.4.78.78,0,0,1-.3.7A.37.37,0,0,1,101.4,111.8Zm-.7-1.9h0c-.1,0-.1.1-.1.3a1.23,1.23,0,0,0,.5,1l.2.1a.14.14,0,0,0,.2,0,.44.44,0,0,0,.1-.3,1.23,1.23,0,0,0-.5-1l-.2-.1Z"/><rect class="cls-4" x="73.64" y="81.87" width="0.5" height="8" transform="translate(-37.43 106.9) rotate(-59.98)"/><path class="cls-5" d="M152.3,186.7l-.9,3.2a1.93,1.93,0,0,1-2.8,0l-1-3Z"/><polygon class="cls-9" points="150.1 187.7 150 190.4 151.4 190 152 187.1 150.1 187.7"/><path class="cls-4" d="M150,190.8a2.55,2.55,0,0,1-1.6-.7l-.1-.1-1.2-3.5,5.7-.2-1.1,3.7-.1.1A2.55,2.55,0,0,1,150,190.8Zm-1.1-1.2a1.88,1.88,0,0,0,1,.4,1.57,1.57,0,0,0,1-.4l.8-2.6-3.7.1Z"/><path class="cls-5" d="M146.2,182.8h0l2.1-8.3h0a1.61,1.61,0,0,1,3.2,0h0l2.1,8.3h0a3.08,3.08,0,0,1,.1,1,3.9,3.9,0,1,1-7.8,0A3.81,3.81,0,0,0,146.2,182.8Z"/><path class="cls-3" d="M153.7,182.8l-1.8-7.2a1.27,1.27,0,0,0-.6-.1,1.62,1.62,0,0,0-1.6,1.4h0l-2.1,8.3h0a3.08,3.08,0,0,0-.1,1,1.27,1.27,0,0,0,.1.6,3.66,3.66,0,0,0,2.5.9,3.9,3.9,0,0,0,3.9-3.9,1.69,1.69,0,0,1-.3-1Z"/><path class="cls-4" d="M149.9,188a4.23,4.23,0,0,1-4.2-4.2v-.6h0l2.3-8.9v-.2h0a2,2,0,0,1,1.9-1.4,1.93,1.93,0,0,1,1.9,1.5l.1.2,2.2,8.8h0v.6A4.23,4.23,0,0,1,149.9,188Zm-3.2-5.5h0l-.1.5a2.77,2.77,0,0,0-.1.9,3.5,3.5,0,0,0,7,0,3.08,3.08,0,0,0-.1-.9l-.1-.5h0l-2-7.9a1.28,1.28,0,0,0-1.2-1.1,1.19,1.19,0,0,0-1.2,1.1l-.1.3Z"/><path class="cls-4" d="M159,68.2,115,42.7c-2.1-1.2-5.4-1.4-7.2-.3l-29.5,17-5.4-3.1a3.27,3.27,0,0,1-2-2.7,2.41,2.41,0,0,1,1.5-2.1l35.1-20.2c2-1.2,5.5-1,7.8.3l49.2,28.5a3.27,3.27,0,0,1,2,2.7,2.41,2.41,0,0,1-1.5,2.1ZM110.9,41.1a9.56,9.56,0,0,1,4.4,1.1L159,67.5l5.6-3.3a1.94,1.94,0,0,0,1.1-1.6,2.74,2.74,0,0,0-1.7-2.2L115,32c-2.1-1.2-5.4-1.4-7.2-.3L72.7,51.9a1.94,1.94,0,0,0-1.1,1.6,2.74,2.74,0,0,0,1.7,2.2l5.1,3,29.2-16.8A5.58,5.58,0,0,1,110.9,41.1Z"/><path class="cls-5" d="M124.8,56.9v3.8a1.21,1.21,0,0,0,.6.9,3.19,3.19,0,0,0,3,0,1.07,1.07,0,0,0,.6-.9V56.9Z"/><path class="cls-4" d="M126.9,62.3a3.29,3.29,0,0,1-1.7-.4,1.4,1.4,0,0,1-.8-1.1V56.7h4.9v4.1a1.27,1.27,0,0,1-.8,1.1A3.77,3.77,0,0,1,126.9,62.3Zm-1.8-5.1v3.5c0,.2.2.4.5.6a3.19,3.19,0,0,0,2.7,0c.3-.2.5-.4.5-.6V57.2Z"/><path class="cls-5" d="M133.4,52.9H120.5l4.3,4.2h0a1.38,1.38,0,0,0,.4.3,3.82,3.82,0,0,0,3.6,0c.1-.1.3-.2.4-.3h0Z"/><path class="cls-4" d="M126.9,58.1a3.83,3.83,0,0,1-1.9-.5c-.1-.1-.2-.1-.3-.2h0l-.1-.1-4.8-4.8h14.4l-5,4.8c-.1.1-.2.2-.3.2A3,3,0,0,1,126.9,58.1Zm-2-1.2h0l.3.3a3.82,3.82,0,0,0,3.3,0c.1-.1.2-.1.3-.2l.1-.1,3.7-3.6H121.2Z"/><path class="cls-5" d="M134.5,49.5h0c0-.1-.1-.4-.2-.4h0a13.58,13.58,0,0,0-4.2-5.3L129,43h-4.1l-1.2.9a14.33,14.33,0,0,0-4.1,5l-.1.2c-.1.1-.1.1-.1.3v.1c-.7,1.9.8,4.1,4.6,5.1a12.3,12.3,0,0,0,7.1-.3C134,53.1,135.2,51.3,134.5,49.5Z"/><path class="cls-4" d="M127,55.3a11,11,0,0,1-3.1-.4c-2.3-.6-3.9-1.7-4.6-3a3.13,3.13,0,0,1-.2-2.5l.1-.1c0-.1,0-.1.1-.2l.1-.2a13.89,13.89,0,0,1,4.2-5.1l1.3-1h4.3l1.2.9a13.26,13.26,0,0,1,4.3,5.4,1.47,1.47,0,0,0,.2.4v.1c.7,2-.7,3.9-3.7,5.1A20.26,20.26,0,0,1,127,55.3Zm-2-12-1.1.8a13.53,13.53,0,0,0-4,4.9l-.1.2c0,.1,0,.1-.1.1v.1a2.32,2.32,0,0,0,.1,2c.6,1.2,2.1,2.2,4.2,2.7a11.56,11.56,0,0,0,6.9-.3c2.6-1,3.9-2.7,3.3-4.3v-.1a1,1,0,0,1-.1-.3,13,13,0,0,0-4.2-5.1l-1-.8Z"/><path class="cls-5" d="M128.7,42.8c1,.6,1,1.5,0,2.1a3.82,3.82,0,0,1-3.6,0c-1-.6-1-1.5,0-2.1A4.51,4.51,0,0,1,128.7,42.8Z"/><path class="cls-3" d="M128.7,43.8c1,.6,1,1.5,0,2.1a3.82,3.82,0,0,1-3.6,0c-1-.6-1-1.5,0-2.1A3.82,3.82,0,0,1,128.7,43.8Z"/><path class="cls-4" d="M126.9,45.6a3.83,3.83,0,0,1-1.9-.5,1.39,1.39,0,0,1,0-2.6,4.45,4.45,0,0,1,3.9,0h0a1.39,1.39,0,0,1,0,2.6A3.51,3.51,0,0,1,126.9,45.6Zm0-2.9a2.73,2.73,0,0,0-1.6.4.94.94,0,0,0-.6.8c0,.3.2.5.6.8a3.82,3.82,0,0,0,3.3,0,.94.94,0,0,0,.6-.8c0-.3-.2-.5-.6-.8h0A3.29,3.29,0,0,0,126.9,42.7Z"/><path class="cls-5" d="M139,65.2V69a1.21,1.21,0,0,0,.6.9,3.19,3.19,0,0,0,3,0,1.07,1.07,0,0,0,.6-.9V65.2Z"/><path class="cls-4" d="M141.1,70.6a3.29,3.29,0,0,1-1.7-.4,1.4,1.4,0,0,1-.8-1.1V65h4.9v4.1a1.27,1.27,0,0,1-.8,1.1A2.73,2.73,0,0,1,141.1,70.6Zm-1.8-5.1V69c0,.2.2.4.5.6a3.19,3.19,0,0,0,2.7,0c.3-.2.5-.4.5-.6V65.5Z"/><path class="cls-5" d="M147.6,61.3H134.7l4.3,4.2h0a1.38,1.38,0,0,0,.4.3,3.82,3.82,0,0,0,3.6,0c.1-.1.3-.2.4-.3h0Z"/><path class="cls-4" d="M141.1,66.5a3.83,3.83,0,0,1-1.9-.5c-.1-.1-.2-.1-.3-.2h0l-.1-.1L134,60.9h14.4l-5,4.8c-.1.1-.2.2-.3.2A3.61,3.61,0,0,1,141.1,66.5Zm-2-1.3h0l.3.3a3.82,3.82,0,0,0,3.3,0c.1-.1.2-.1.3-.2l.1-.1,3.7-3.6H135.4Z"/><path class="cls-5" d="M148.7,57.9h0c0-.1-.1-.4-.2-.4h0a13.58,13.58,0,0,0-4.2-5.3l-1.1-.8h-4.1l-1.2.9a14.33,14.33,0,0,0-4.1,5l-.1.2c-.1.1-.1.1-.1.3v.1c-.7,1.9.8,4.1,4.6,5.1a12.26,12.26,0,0,0,7.1-.3C148.2,61.4,149.4,59.6,148.7,57.9Z"/><path class="cls-4" d="M141.2,63.6a11,11,0,0,1-3.1-.4c-2.3-.6-3.9-1.7-4.6-3a3.13,3.13,0,0,1-.2-2.5l.1-.1c0-.1,0-.1.1-.2l.1-.2a13.89,13.89,0,0,1,4.2-5.1l1.3-1h4.3l1.2.9a13.26,13.26,0,0,1,4.3,5.4,1.47,1.47,0,0,0,.2.4v.1c.7,2-.7,3.9-3.7,5.1A15.23,15.23,0,0,1,141.2,63.6Zm-2-11.9-1.1.8a13.53,13.53,0,0,0-4,4.9l-.1.2c0,.1,0,.1-.1.1v.1a2.32,2.32,0,0,0,.1,2c.6,1.2,2.1,2.2,4.2,2.7a11.56,11.56,0,0,0,6.9-.3c2.6-1,3.9-2.7,3.3-4.3v-.1a1,1,0,0,1-.1-.3,13,13,0,0,0-4.2-5.1l-1-.8Z"/><path class="cls-5" d="M142.9,51.2c1,.6,1,1.5,0,2.1a3.82,3.82,0,0,1-3.6,0c-1-.6-1-1.5,0-2.1A3.83,3.83,0,0,1,142.9,51.2Z"/><path class="cls-3" d="M142.9,52.1c1,.6,1,1.5,0,2.1a3.83,3.83,0,0,1-3.6,0c-1-.6-1-1.5,0-2.1A3.82,3.82,0,0,1,142.9,52.1Z"/><path class="cls-4" d="M141.1,54a3.83,3.83,0,0,1-1.9-.5,1.39,1.39,0,0,1,0-2.6,4.45,4.45,0,0,1,3.9,0h0a1.39,1.39,0,0,1,0,2.6A4.55,4.55,0,0,1,141.1,54Zm0-2.9a2.73,2.73,0,0,0-1.6.4.94.94,0,0,0-.6.8c0,.3.2.5.6.8a3.82,3.82,0,0,0,3.3,0,.94.94,0,0,0,.6-.8c0-.3-.2-.5-.6-.8h0A3.29,3.29,0,0,0,141.1,51.1Z"/><path class="cls-1" d="M197.6,169.1l-1.8,1.1a3.39,3.39,0,0,1-3.1,0l-6.3-3.7a1.12,1.12,0,0,1,0-1.9l2.8-1.6a1.08,1.08,0,0,1,1.1,0l7.3,4.3A1,1,0,0,1,197.6,169.1Z"/><path class="cls-3" d="M194.8,148.5l-3.2,1.8h0l-6.1-3.5h0l3.2-1.8h0l6.1,3.5Z"/><path class="cls-3" d="M194.7,149.8l-3.2,1.8h0l-6.1-3.5h0l3.2-1.8h0l6.1,3.5Z"/><path class="cls-4" d="M191.6,150.8l-.3-.1L185,147v-.6l.2-.2,3.4-2,.3.1,6.3,3.7v.6l-.2.2Zm-5.2-4.1,5.2,3,2.3-1.3-5.2-3Z"/><path class="cls-5" d="M185.5,146.8v16.8h0l6.1,3.5h0V150.3h0l-6.1-3.5Z"/><path class="cls-4" d="M191.6,167.7l-.3-.1-6.3-3.7V146.5l.5-.3.3.1,6.3,3.7v17.4Zm-5.7-4.4,5.2,3V150.5l-5.2-3Z"/><path class="cls-6" d="M194.8,148.5v16.8h0l-3.2,1.8h0V150.3h0l3.2-1.8Z"/><path class="cls-4" d="M191.6,167.7l-.5-.3V150l.3-.2,3.4-2,.5.3v17.4l-.3.2Zm.5-17.1v15.8l2.3-1.3V149.3Z"/></svg>