<svg id="Layer_1" data-name="Layer 1" xmlns="http://www.w3.org/2000/svg" viewBox="0 0 512 512"><defs><style>.cls-1{fill:#d4e1f4;}.cls-2{fill:#4a00e0;}</style></defs><title>fast-night</title><path class="cls-1" d="M261.5,154.2V304.8a22.79,22.79,0,0,1-22.8,22.8H12v20H258.6a22.79,22.79,0,0,0,22.8-22.8v-170H264A5.42,5.42,0,0,1,261.5,154.2Z"/><path class="cls-1" d="M261.3,92.6c.1.9-.7,50.2.2,50.2h20V115.3A22.9,22.9,0,0,0,261.3,92.6Z"/><path class="cls-2" d="M293.5,324.8V115.3a34.83,34.83,0,0,0-34.8-34.8H4.1v12H258.6a22.79,22.79,0,0,1,22.8,22.8v27.5H264a6,6,0,0,0,0,12h17.4v170a22.79,22.79,0,0,1-22.8,22.8H4.1v12H258.6A34.72,34.72,0,0,0,293.5,324.8Z"/><path class="cls-2" d="M138.5,283.2a43.07,43.07,0,0,0,61.7,38.9,43.14,43.14,0,1,0,0-77.9,43.07,43.07,0,0,0-61.7,39Zm49.1,0a31.31,31.31,0,0,1,12.6-25,31.1,31.1,0,0,1,0,50,31.31,31.31,0,0,1-12.6-25Zm62.2,0a31.15,31.15,0,0,1-37.7,30.4,43,43,0,0,0,0-60.8,31,31,0,0,1,26.1,6.2A30.56,30.56,0,0,1,249.8,283.2Zm-68.2-31.1a29.62,29.62,0,0,1,6.6.7,43,43,0,0,0,0,60.8,31.1,31.1,0,1,1-6.6-61.5Z"/><path class="cls-2" d="M241.2,154.8a6,6,0,0,0,0-12H207.5a6,6,0,0,0,0,12Z"/><path class="cls-2" d="M185.6,154.8a6,6,0,0,0,0-12H180a6,6,0,0,0,0,12Z"/><path class="cls-2" d="M157.5,142.8H9a6,6,0,0,0,0,12H157.5a6,6,0,0,0,0-12Z"/><path class="cls-2" d="M345.5,25.7l-24-24a6,6,0,0,0-8.4.1,6.07,6.07,0,0,0-.1,8.4L326.8,24H245.5a6,6,0,0,0,0,12h81.3L313,49.8a6,6,0,0,0,2.7,10.1,5.93,5.93,0,0,0,5.8-1.6l24-24A6.22,6.22,0,0,0,345.5,25.7Z"/><path class="cls-2" d="M171.7,24h-1.1a6,6,0,0,0,0,12h1.1a6,6,0,0,0,0-12Z"/><path class="cls-2" d="M190.6,36h.7a6,6,0,0,0,0-12h-.7a6,6,0,0,0,0,12Z"/><path class="cls-2" d="M218.5,24a6,6,0,0,0,0,12h.3a6,6,0,0,0,0-12Z"/><path class="cls-2" d="M332.6,394.7a5.72,5.72,0,0,0-5.8-1.6,6.21,6.21,0,0,0-4.3,4.3,5.93,5.93,0,0,0,1.6,5.8L337.9,417H208.5a6,6,0,0,0,0,12H337.9l-13.8,13.8a6,6,0,0,0,8.5,8.5l24-24a6.1,6.1,0,0,0,0-8.5Z"/><path class="cls-2" d="M134.8,417h-1.1a6,6,0,1,0,0,12h1.1a6,6,0,0,0,6-6A6,6,0,0,0,134.8,417Z"/><path class="cls-2" d="M154.4,417h-.7a6,6,0,0,0,0,12h.7a6,6,0,0,0,6-6,6,6,0,0,0-6-6Z"/><path class="cls-2" d="M181.9,417h-.3a6,6,0,0,0,0,12h.3a6,6,0,0,0,6-6A6,6,0,0,0,181.9,417Z"/><path class="cls-2" d="M385.6,132.7a6.1,6.1,0,0,0,0,8.5L399.4,155H375.8a6,6,0,1,0,0,12h23.6l-13.8,13.8a6,6,0,0,0,8.5,8.5l24-24a6.1,6.1,0,0,0,0-8.5l-24-24A5.83,5.83,0,0,0,385.6,132.7Z"/><path class="cls-2" d="M307.8,167a6,6,0,0,0,0-12h-1.1a6,6,0,0,0,0,12Z"/><path class="cls-2" d="M327.5,155h-.7a6,6,0,0,0,0,12h.7a6,6,0,0,0,0-12Z"/><path class="cls-2" d="M354.6,155a6,6,0,0,0,0,12h.3a6,6,0,0,0,0-12Z"/><path class="cls-2" d="M413.5,263.7a6,6,0,0,0-8.4.1,6.07,6.07,0,0,0-.1,8.4L418.8,286h-59a6,6,0,1,0,0,12h59L405,311.8a6,6,0,0,0,2.7,10.1,5.93,5.93,0,0,0,5.8-1.6l24-24a6.1,6.1,0,0,0,0-8.5Z"/><path class="cls-2" d="M310.8,298h.7a6,6,0,0,0,0-12h-.7a6,6,0,1,0,0,12Z"/><path class="cls-2" d="M338.7,298h.3a6,6,0,0,0,0-12h-.3a6,6,0,0,0,0,12Z"/><path class="cls-2" d="M33.3,8.4H6a6,6,0,0,0-6,6V425.7a6,6,0,0,0,6,6H33.3a6,6,0,0,0,6-6V359.2h-12v60.5H12V20.4H27.3V80h12V14.4A6,6,0,0,0,33.3,8.4Z"/></svg>