<svg id="Capa_1" data-name="Capa 1" xmlns="http://www.w3.org/2000/svg" viewBox="0 0 430 430"><defs><style>.cls-1{fill:#f83600;}</style></defs><title>hero-3-orange</title><path class="cls-1" d="M405.83,213.11c.09-.18.09-.36.19-.55a.36.36,0,0,1,.09-.28c0-.18.09-.46.09-.64v-1.11c0-53.88-14.3-101.76-41.24-138.48C340.88,39.3,306.84,16,269,6.27a208.27,208.27,0,0,0-102.23,0h0C129,16,94.91,39.3,70.83,72.05c-27,36.81-41.33,84.69-41.33,138.57v1.11c0,.18.09.46.09.65a.33.33,0,0,0,.09.27,1.38,1.38,0,0,0,.19.56c0,.09.09.27.09.37v.09l70.4,211.27a9.21,9.21,0,0,0,8.76,6.28H326.49a9.36,9.36,0,0,0,8.76-6.28l70.4-211.27v-.09C405.74,213.39,405.74,213.3,405.83,213.11ZM257.48,22.6V92.53H178.32V22.6a190.37,190.37,0,0,1,79.16,0Zm-97.71,5.16v74A9.25,9.25,0,0,0,169,111h97.61a9.26,9.26,0,0,0,9.23-9.22v-74c53.32,18.82,110.34,74.83,111.82,178.8l-95,87a9.11,9.11,0,0,0-3,6.08l-3.78,49.64-13.28,4.43-4.89-13.84a9.16,9.16,0,0,0-8.68-6.09H176.66a9.28,9.28,0,0,0-8.68,6.09l-4.89,13.84-13.28-4.43L146,299.65a9.11,9.11,0,0,0-3-6.08l-95-87C49.43,102.59,106.54,46.58,159.77,27.76Zm-5.16,384.91-3.33-43.36,14.49,4.8a9.23,9.23,0,0,0,11.62-5.63l5.82-16.24h69.28l5.82,16.24a9.2,9.2,0,0,0,8.67,6.09,11.34,11.34,0,0,0,2.95-.46l14.49-4.8-3.33,43.36ZM58.75,241.44l69.19,63.29,4,52v.1l4.15,55.81h-20.3ZM319.94,412.67h-20.3L303.88,357v-.09l4-52,69.2-63.29Z"/><path class="cls-1" d="M188.74,225.29A8.88,8.88,0,0,0,195,222.8a9.3,9.3,0,0,0,2.95-6.73V183.59h39.67v32.48a9.3,9.3,0,0,0,3,6.73,9.46,9.46,0,0,0,6.28,2.49h.64L319.84,220a9.26,9.26,0,0,0,8.58-9.22V183.59h9.23a9.23,9.23,0,1,0,0-18.45H98a9.23,9.23,0,1,0,0,18.45h9.22v27.13a9.26,9.26,0,0,0,8.58,9.22l72.34,5.26A1.58,1.58,0,0,0,188.74,225.29Zm121.32-41.7v18.64l-53.88,4v-22.6ZM179.52,206.1l-53.88-4V183.59h53.88Z"/></svg>