<svg id="Capa_1" data-name="Capa 1" xmlns="http://www.w3.org/2000/svg" viewBox="0 0 430 430"><defs><style>.cls-1{fill:#8c8cf9;}</style></defs><title>hero-4-core</title><path class="cls-1" d="M338.08,51.92a170.47,170.47,0,0,0-55.37-38.41,164.28,164.28,0,0,0-130.48,0A170.47,170.47,0,0,0,96.86,51.92C62.93,87.05,44.2,136.27,44.2,190.33,44.2,245.78,63,304.6,95.93,351.67c34,49,78.39,77.08,121.45,77.08S304.8,400.69,339,351.67c32.81-47.07,51.73-105.89,51.73-161.34C390.65,136.17,372,87.05,338.08,51.92ZM323.73,341c-30.67,43.9-69.44,69.07-106.35,69.07S141.69,384.94,111,341C80.74,297.7,62.65,241.4,62.65,190.33c.1-111.48,79.79-171.69,154.73-171.69S372,78.85,372,190.33C372,241.31,353.92,297.7,323.73,341Z"/><path class="cls-1" d="M206.94,233.76c-.56-.47-58.91-48.93-100.85-102.25a9.37,9.37,0,0,0-16.5,3.73,187.07,187.07,0,0,0,2,87.34c9.79,35.6,30.2,62.26,59.19,77.17a9.69,9.69,0,0,0,4.29,1,9.54,9.54,0,0,0,6.61-2.71c1.21-1.21,30.76-30.75,46.61-51.35A9.29,9.29,0,0,0,206.94,233.76Zm-53.41,46c-42.22-25.81-52.29-79.87-48.75-120.51,32.16,37.65,68.23,69.9,83.24,82.86C176.65,255.94,161.36,271.88,153.53,279.8Z"/><path class="cls-1" d="M345.07,135.24a9.34,9.34,0,0,0-7.08-7.08,9.17,9.17,0,0,0-9.42,3.35c-41.85,53.22-100.19,101.78-100.85,102.25a9.44,9.44,0,0,0-1.49,12.86c15.85,20.6,45.39,50.15,46.6,51.36a9.41,9.41,0,0,0,6.62,2.7,10,10,0,0,0,4.29-1c29-14.92,49.4-41.57,59.19-77.18A185.42,185.42,0,0,0,345.07,135.24ZM281.22,279.8c-7.73-7.92-23.11-24-34.48-37.65,14.91-13,51.07-45.21,83.23-82.86C333.42,199.93,323.45,254,281.22,279.8Z"/></svg>