<svg id="Calque_1" data-name="Calque 1" xmlns="http://www.w3.org/2000/svg" viewBox="0 0 580 370"><defs><style>.cls-1,.cls-3{fill:none;}.cls-1,.cls-2{stroke:#cde5f8;stroke-width:2px;}.cls-1,.cls-2,.cls-3{stroke-miterlimit:10;}.cls-1{opacity:0.2;isolation:isolate;}.cls-2{fill:#fff;}.cls-3{stroke:#837fcb;stroke-width:3px;}</style></defs><title>kit2-5-purple</title><circle class="cls-1" cx="283" cy="198.2" r="60.8"/><circle class="cls-1" cx="283" cy="198.2" r="125.5"/><path class="cls-2" d="M430.8,285.5H116.9c-13.5,0-24.4-12.3-24.4-27.5V218.7c0-15.2,10.9-27.5,24.4-27.5H406.4c13.5,0,24.4,12.3,24.4,27.5Z"/><path class="cls-2" d="M430.8,175.5H157.9a22.68,22.68,0,0,1-22.7-22.7v-8a22.68,22.68,0,0,1,22.7-22.7H408.1a22.68,22.68,0,0,1,22.7,22.7Z"/><path class="cls-2" d="M430.8,110.2H250.5a15.3,15.3,0,0,1-15.3-15.3V81.4a15.3,15.3,0,0,1,15.3-15.3H415.6a15.3,15.3,0,0,1,15.3,15.3v28.8Z"/><line class="cls-3" x1="185" y1="220.7" x2="377" y2="220.7"/><line class="cls-3" x1="185" y1="236.7" x2="343.8" y2="236.7"/><line class="cls-3" x1="185" y1="252.7" x2="304.3" y2="252.7"/></svg>