<svg id="Calque_1" data-name="Calque 1" xmlns="http://www.w3.org/2000/svg" viewBox="0 0 580 370"><defs><style>.cls-1,.cls-6{fill:#fff;}.cls-1,.cls-3{stroke:#cde5f8;}.cls-1,.cls-3,.cls-5,.cls-6{stroke-miterlimit:10;}.cls-1{stroke-width:2px;}.cls-2{fill:#f8f9fa;}.cls-3,.cls-5{fill:none;}.cls-3{stroke-width:3px;}.cls-4{fill:#4a00e0;}.cls-5,.cls-6{stroke:#4a00e0;}</style></defs><title>kit2-4-night</title><rect class="cls-1" x="193.2" y="174.9" width="320.6" height="151.2"/><rect class="cls-1" x="164.4" y="132.9" width="320.6" height="151.2"/><rect class="cls-1" x="135.6" y="84" width="320.6" height="151.2"/><rect class="cls-2" x="286.8" y="85" width="168.3" height="149.2"/><circle class="cls-1" cx="209.3" cy="145.9" r="38.4"/><line class="cls-3" x1="165.4" y1="201.3" x2="255.9" y2="201.3"/><line class="cls-3" x1="183" y1="213.4" x2="240.4" y2="213.4"/><line class="cls-3" x1="303.3" y1="103.5" x2="332" y2="103.5"/><path class="cls-4" d="M318.8,208.5h-6.1a.65.65,0,0,1-.6-.6v-23a.65.65,0,0,1,.6-.6h6.1a.65.65,0,0,1,.6.6v23A.58.58,0,0,1,318.8,208.5Z"/><path class="cls-4" d="M331.4,208.5h-6.1a.65.65,0,0,1-.6-.6V166.6a.65.65,0,0,1,.6-.6h6.1a.65.65,0,0,1,.6.6v41.3A.58.58,0,0,1,331.4,208.5Z"/><path class="cls-4" d="M344,208.5h-6.1a.65.65,0,0,1-.6-.6V178.8a.65.65,0,0,1,.6-.6H344a.65.65,0,0,1,.6.6v29.1Q344.45,208.5,344,208.5Z"/><path class="cls-4" d="M356.5,208.5h-6.1a.65.65,0,0,1-.6-.6V189.8a.65.65,0,0,1,.6-.6h6.1a.65.65,0,0,1,.6.6v18.1A.53.53,0,0,1,356.5,208.5Z"/><path class="cls-4" d="M369.1,208.5H363a.65.65,0,0,1-.6-.6V195.4a.65.65,0,0,1,.6-.6h6.1a.65.65,0,0,1,.6.6v12.5A.53.53,0,0,1,369.1,208.5Z"/><path class="cls-4" d="M381.7,208.5h-6.1a.65.65,0,0,1-.6-.6V181a.65.65,0,0,1,.6-.6h6.1a.65.65,0,0,1,.6.6v26.9A.58.58,0,0,1,381.7,208.5Z"/><path class="cls-4" d="M394.3,208.5h-6.1a.65.65,0,0,1-.6-.6v-23a.65.65,0,0,1,.6-.6h6.1a.65.65,0,0,1,.6.6v23A.58.58,0,0,1,394.3,208.5Z"/><path class="cls-4" d="M406.9,208.5h-6.1a.65.65,0,0,1-.6-.6V177a.65.65,0,0,1,.6-.6h6.1a.65.65,0,0,1,.6.6v30.9A.58.58,0,0,1,406.9,208.5Z"/><path class="cls-4" d="M419.5,208.5h-6.1a.65.65,0,0,1-.6-.6V191.6a.65.65,0,0,1,.6-.6h6.1a.65.65,0,0,1,.6.6v16.3Q420,208.5,419.5,208.5Z"/><path class="cls-4" d="M432,208.5h-6a.65.65,0,0,1-.6-.6V181.8a.65.65,0,0,1,.6-.6h6.1a.65.65,0,0,1,.6.6v26.1A.66.66,0,0,1,432,208.5Z"/><polyline class="cls-5" points="313.9 138.4 330.3 120.4 346.7 139.9 363.1 127.3 379.5 132.5 395.9 126 412.3 138.6 428.7 122.8"/><circle class="cls-6" cx="313.9" cy="138" r="1.9"/><circle class="cls-6" cx="330.3" cy="120.4" r="1.9"/><circle class="cls-6" cx="346.7" cy="139.9" r="1.9"/><circle class="cls-6" cx="363.1" cy="127.4" r="1.9"/><circle class="cls-6" cx="379.5" cy="132.5" r="1.9"/><circle class="cls-6" cx="395.9" cy="126.2" r="1.9"/><circle class="cls-6" cx="412.3" cy="138.7" r="1.9"/><circle class="cls-6" cx="428.7" cy="122.7" r="1.9"/></svg>