<svg id="Layer_1" data-name="Layer 1" xmlns="http://www.w3.org/2000/svg" viewBox="0 0 512 512"><defs><style>.cls-1{fill:#837fcb;}</style></defs><title>launch-purple</title><path class="cls-1" d="M505.28,20.09A10,10,0,0,0,502.47,14l-.11-.11A10,10,0,0,0,496.25,11,324.66,324.66,0,0,0,194.17,96.25l-6.7,6.62-91.19-.52a10,10,0,0,0-7.09,2.89L3.3,190.16a10,10,0,0,0-.08,14.14l40.37,40.83-9.12,9a10,10,0,0,0-.08,14.14l34.46,34.85-27.48,48a10,10,0,0,0,1.57,12l12.57,12.72a199.76,199.76,0,0,0-45.23,82.06L-1,499.43a10,10,0,0,0,12.17,12.31l41.63-10.85a199.62,199.62,0,0,0,82.57-44.3l12.55,12.69a10,10,0,0,0,12,1.7l48.31-26.93L242.73,479a10,10,0,0,0,14.14.08l9.12-9,40.22,40.68a10,10,0,0,0,14.14.08l85.88-84.92a10,10,0,0,0,3-7.06l.52-90.89,6.85-6.77a324.68,324.68,0,0,0,88.71-301.1ZM24.48,197.35l75.83-75,67.05.38L76.22,212.87h0L57.81,231.07ZM47.72,481.53,22.8,488l6.78-24.84a179.62,179.62,0,0,1,40-73.1l51.66,52.26A179.56,179.56,0,0,1,47.72,481.53Zm109-31.72-13.25-13.4a9.67,9.67,0,0,0-.74-.84,8.28,8.28,0,0,0-.83-.74L77.35,369.5c-.23-.29-.47-.57-.73-.84s-.55-.51-.83-.75L62.51,354.49,83.45,317.9,193.58,429.29ZM389.23,414.6l-75.83,75L280.22,456,389.61,347.85l-.38,66.75ZM402.51,307,259.05,448.81h0l-9.11,9-32.87-33.24h0L88.42,294.48h0L55.65,261.34l27.51-27.21L215.87,368.35a10,10,0,0,0,14.22-14.06L97.39,220.07l110.84-109.6C282,37.52,385.74,7.43,486.8,29.34,507.56,130.65,476.3,234,402.51,307Z"/><path class="cls-1" d="M372.93,205.47a10,10,0,0,0-10.06,9.94V216a10,10,0,0,0,9.86,10.14h.08a10,10,0,0,0,10.06-9.86v-.8A10,10,0,0,0,372.93,205.47Z"/><path class="cls-1" d="M367.7,244.07a10,10,0,0,0-13.7,3.52,64,64,0,1,1-5.83-73.37,10,10,0,0,0,15.39-12.77,84,84,0,1,0,7.65,96.32A10,10,0,0,0,367.7,244.07Z"/><path class="cls-1" d="M253.42,377.89a10,10,0,1,0,2.89,7.09A10,10,0,0,0,253.42,377.89Z"/></svg>