<svg id="Layer_1" data-name="Layer 1" xmlns="http://www.w3.org/2000/svg" viewBox="0 0 512 512"><defs><style>.cls-1{fill:#8c8cf9;}</style></defs><title>learn-core</title><path class="cls-1" d="M236.07,356.91A10,10,0,1,0,239,364,10,10,0,0,0,236.07,356.91Z"/><path class="cls-1" d="M448,268a10,10,0,0,0-10,10v44H266V297.31a74.72,74.72,0,0,0-65.4-74,52,52,0,0,0,11.64-32.84V120.08a10,10,0,0,0-10-10H149.92a42.21,42.21,0,0,0-42.16,42.16v38.19a52,52,0,0,0,11.65,32.84,74.72,74.72,0,0,0-65.41,74V322H20V81.74A7.79,7.79,0,0,1,27.81,74H235.67a10,10,0,1,0,0-20H27.81A27.81,27.81,0,0,0,0,81.74v296.5A27.81,27.81,0,0,0,27.81,406H180v46.19A50.14,50.14,0,0,0,135,502a10,10,0,0,0,10,10H313a10,10,0,0,0,10-10,50.14,50.14,0,0,0-45-49.81V406H430.2A27.81,27.81,0,0,0,458,378.24V278A10,10,0,0,0,448,268ZM127.76,152.24a22.18,22.18,0,0,1,22.16-22.15h42.32v16a14.4,14.4,0,0,1-14.39,14.39H127.76Zm0,28.2h50.1a34.11,34.11,0,0,0,14.38-3.17v13.17h0a32.24,32.24,0,0,1-64.48,0Zm43.91,62.24L160,254.35l-11.67-11.67ZM74,297.31a54.71,54.71,0,0,1,46.64-54l32.29,32.29a10,10,0,0,0,14.14,0l32.29-32.29a54.71,54.71,0,0,1,46.64,54V322H74ZM301.29,492H156.71a30.11,30.11,0,0,1,28.35-20.06h87.88A30.11,30.11,0,0,1,301.29,492ZM200,451.93V406h58v45.94Zm238-73.69a7.79,7.79,0,0,1-7.8,7.75H27.81A7.79,7.79,0,0,1,20,378.24V342H438Z"/><path class="cls-1" d="M455.07,233.27a10,10,0,1,0,2.93,7.07A10.08,10.08,0,0,0,455.07,233.27Z"/><path class="cls-1" d="M448,47H373a10,10,0,1,0,0,20h75a10,10,0,0,0,0-20Z"/><path class="cls-1" d="M339.07,49.94A10,10,0,1,0,342,57,10.08,10.08,0,0,0,339.07,49.94Z"/><path class="cls-1" d="M448,91H332a10,10,0,0,0,0,20H448a10,10,0,0,0,0-20Z"/><path class="cls-1" d="M448,135H332a10,10,0,0,0,0,20H448a10,10,0,0,0,0-20Z"/><path class="cls-1" d="M462,0H318a50.06,50.06,0,0,0-50,50V157a50.07,50.07,0,0,0,44.33,49.68v26a10,10,0,0,0,6.18,9.23,9.8,9.8,0,0,0,3.82.77,10,10,0,0,0,7.07-2.93L362.14,207H462a50.06,50.06,0,0,0,50-50V50A50.06,50.06,0,0,0,462,0Zm30,157a30,30,0,0,1-30,30H358a10,10,0,0,0-7.07,2.93l-18.6,18.6V197a10,10,0,0,0-10-10H318a30,30,0,0,1-30-30V50a30,30,0,0,1,30-30H462a30,30,0,0,1,30,30Z"/></svg>