<svg id="Layer_1" data-name="Layer 1" xmlns="http://www.w3.org/2000/svg" viewBox="0 0 464 464"><defs><style>.cls-1{fill:#f55;}.cls-2{fill:#4c616d;}</style></defs><title>megaphone-red</title><path class="cls-1" d="M73.9,453.4a37.67,37.67,0,0,0,52.8,0,7.73,7.73,0,0,0,0-11.2L41.9,357.4a7.73,7.73,0,0,0-11.2,0,37.67,37.67,0,0,0,0,52.8Z"/><path class="cls-1" d="M414.8,250.2a7.73,7.73,0,0,0,11.2,0l8-7.2c10.4-8.8,10.4-24.8.8-34.4L273.1,43a16.21,16.21,0,0,0-22.4-.8L233.9,57.4a7.73,7.73,0,0,0,0,11.2l9.6,9.6,160,160Z"/><path class="cls-2" d="M433.1,15.8,399.5,49.4a7.73,7.73,0,0,0,0,11.2,7.73,7.73,0,0,0,11.2,0L444.3,27a7.73,7.73,0,0,0,0-11.2C441.1,12.6,435.5,12.6,433.1,15.8Z"/><path class="cls-2" d="M372.4,47.8q4.8,0,7.2-4.8l16-32c1.6-4,0-8.8-3.2-10.4-4-1.6-8.8,0-10.4,3.2l-16,32c-1.6,4,0,8.8,3.2,10.4C370,47.8,370.8,47.8,372.4,47.8Z"/><path class="cls-2" d="M448.4,64.6l-32,16A7.06,7.06,0,0,0,413.2,91q2.4,4.8,7.2,4.8c1.6,0,2.4,0,3.2-.8l32-16a7.06,7.06,0,0,0,3.2-10.4C456.4,64.6,452.4,63,448.4,64.6Z"/><path class="cls-2" d="M245.1,13.4,228.3,28.6c-2.4,3.2-4.8,7.2-4.8,11.2s1.6,8.8,4.8,11.2l4.8,4.8L49.9,329.4l-2.4-1.6A15.79,15.79,0,0,0,36.3,323h0a15.79,15.79,0,0,0-11.2,4.8c-8,8-12.8,20-12.8,32a44.85,44.85,0,0,0,13.6,32L69.1,435a44.45,44.45,0,0,0,64,0,15.47,15.47,0,0,0,0-22.4l-4-4L156.3,391l9.6,15.2c10.4,16.8,28.8,25.6,47.2,25.6,10.4,0,20.8-3.2,30.4-8.8a56.49,56.49,0,0,0,16.8-77.6l-10.4-16.8L404.3,226.2l6.4,6.4c6.4,5.6,16,6.4,21.6,0l8-7.2A29.76,29.76,0,0,0,450.7,203a34.85,34.85,0,0,0-8.8-23.2L278.8,13.4A24,24,0,0,0,245.1,13.4ZM79.6,423.8,36.4,380.6c-5.6-5.6-8-12.8-8-20.8A29,29,0,0,1,37.2,339l84,84.8C109.9,435,91.6,435,79.6,423.8Zm166.3-69.6c12,18.4,6.4,43.2-12,55.2s-43.2,6.4-55.2-12l-9.6-15.2,66.4-44Zm187.2-152a15.28,15.28,0,0,1-5.6,11.2l-8,7.2-11.2-10.4a8.39,8.39,0,0,0-10.4-.8L233.1,319.8h0l-80,52.8h0l-36,24-56-56L244.3,67.8,369.1,192.6a7.92,7.92,0,1,0,11.2-11.2L249.9,50.2h0l-9.6-9.6,16.8-15.2a7.73,7.73,0,0,1,11.2,0L429.9,191A12.87,12.87,0,0,1,433.1,202.2Z"/><path class="cls-2" d="M254.8,194.2l-64,64a7.73,7.73,0,0,0,0,11.2,7.73,7.73,0,0,0,11.2,0l64-64a7.92,7.92,0,0,0-11.2-11.2Z"/><path class="cls-2" d="M196.4,239.8a7.26,7.26,0,0,0,5.6-2.4l32-32a7.92,7.92,0,0,0-11.2-11.2l-32,32a7.73,7.73,0,0,0,0,11.2A8.64,8.64,0,0,0,196.4,239.8Z"/><path class="cls-2" d="M254.8,226.2l-32,32a7.73,7.73,0,0,0,0,11.2,7.73,7.73,0,0,0,11.2,0l32-32a7.92,7.92,0,0,0-11.2-11.2Z"/></svg>