<svg id="Layer_1" data-name="Layer 1" xmlns="http://www.w3.org/2000/svg" viewBox="0 0 511.88 511.88"><defs><style>.cls-1{fill:#b3e5db;}.cls-2{fill:#d7fff7;}.cls-3{fill:#7ee0cf;}.cls-4{fill:#fff;}.cls-5{opacity:0.2;}.cls-6{fill:#00b289;}</style></defs><title>pricing-icon-1-green</title><path class="cls-1" d="M160,384a64,64,0,1,1-64-64A64,64,0,0,1,160,384Z"/><path class="cls-2" d="M40,384H32a64,64,0,0,0,64,64c1.35,0,2.67-.11,4-.2A64,64,0,0,1,40,384Z"/><path class="cls-3" d="M152,384h8a64,64,0,0,1-64,64c-1.35,0-2.67-.11-4-.2A64,64,0,0,0,152,384Z"/><path class="cls-2" d="M128,384a32,32,0,1,1-32-32A32,32,0,0,1,128,384Z"/><path class="cls-1" d="M507.89,384a64,64,0,1,1-64-64A64,64,0,0,1,507.89,384Z"/><path class="cls-2" d="M475.89,384a32,32,0,1,1-32-32A32,32,0,0,1,475.89,384Z"/><path class="cls-4" d="M419.9,384a31.93,31.93,0,0,1,28-31.59,31,31,0,0,0-4-.4,32,32,0,0,0,0,64,31,31,0,0,0,4-.4A31.91,31.91,0,0,1,419.9,384Z"/><path class="cls-1" d="M467.89,384a31.91,31.91,0,0,1-28,31.59,31,31,0,0,0,4,.4,32,32,0,1,0,0-64,31,31,0,0,0-4,.4A31.93,31.93,0,0,1,467.89,384Z"/><path class="cls-4" d="M72,384H64a32,32,0,0,0,32,32,31.32,31.32,0,0,0,4-.4A31.91,31.91,0,0,1,72,384Z"/><path class="cls-1" d="M120,384h8a32,32,0,0,1-32,32,31.14,31.14,0,0,1-4-.4A31.91,31.91,0,0,0,120,384Z"/><path class="cls-3" d="M493.93,344.16a64,64,0,0,0-114,39.84,64.56,64.56,0,0,0,.68,8.85c5.17-12.58,18.39-38.64,42.61-49.54,8.82-4,19.18-6,30.77-6C471,337.33,486.52,341.7,493.93,344.16Z"/><path class="cls-2" d="M419.9,336c-36.23,16.32-49.59,61.59-49.59,61.59a71.73,71.73,0,0,1,10.88-76.38,71.74,71.74,0,0,1,25.11-18.88A70.11,70.11,0,0,1,433.41,296a72,72,0,0,1,68.15,42.39S456.21,319.7,419.9,336Z"/><path class="cls-1" d="M482.46,332.71a133.29,133.29,0,0,1,19.1,5.7A72,72,0,0,0,433.41,296c-1.81.05-3.63.23-5.44.42A71.79,71.79,0,0,1,482.46,332.71Z"/><path class="cls-4" d="M371.91,369.61a72.73,72.73,0,0,1,17.28-48.39,71.74,71.74,0,0,1,25.11-18.88,70.13,70.13,0,0,1,24.39-6.11c-1.76-.07-3.5-.27-5.28-.21a70.07,70.07,0,0,0-27.11,6.32,71.74,71.74,0,0,0-25.11,18.88,71.73,71.73,0,0,0-10.88,76.38,101.68,101.68,0,0,1,4.18-10.94A72.87,72.87,0,0,1,371.91,369.61Z"/><path class="cls-3" d="M483.29,341.11A63.85,63.85,0,0,1,439.9,447.8c1.32.09,2.64.2,4,.2a64,64,0,0,0,50-103.84C491.3,343.29,487.67,342.19,483.29,341.11Z"/><path class="cls-2" d="M387.89,384a63.75,63.75,0,0,1,.36-6.67,127.62,127.62,0,0,0-7.68,15.51A64,64,0,0,0,443.89,448c1.35,0,2.67-.11,4-.2A64,64,0,0,1,387.89,384Z"/><path class="cls-1" d="M313.68,96.39a8,8,0,0,1,4.57,15.36,8,8,0,1,1-4.57-15.36Z"/><path class="cls-3" d="M323.6,101.83a8,8,0,0,0-9.92-5.44L348.8,86.07a21,21,0,0,0-.88,6,19.7,19.7,0,0,0,2.71,10.08l-32.39,9.6A7.94,7.94,0,0,0,323.6,101.83Z"/><path class="cls-1" d="M367.91,72.08v40a18.61,18.61,0,0,1-6.07-1,19.69,19.69,0,0,1-11.13-8.95h-.07a19.61,19.61,0,0,1-2.72-10.08,21,21,0,0,1,.88-6h.08A19.89,19.89,0,0,1,367.91,72.08Z"/><polygon class="cls-1" points="392.87 116.63 367.91 112.07 367.91 72.08 411.9 64.08 411.9 120.06 392.87 116.63"/><path class="cls-3" d="M367.91,104.07a18.88,18.88,0,0,1-6.07-1,19.75,19.75,0,0,1-11.13-9h-.07a19.47,19.47,0,0,1-2.23-6.34,20.67,20.67,0,0,0-.49,4.26,19.61,19.61,0,0,0,2.72,10.08h.07a19.69,19.69,0,0,0,11.13,8.95,18.61,18.61,0,0,0,6.07,1l25,4.56,19,3.43v-8l-19-3.44Z"/><path class="cls-2" d="M367.91,72.08a19.89,19.89,0,0,0-19,14h-.08a21,21,0,0,0-.88,6,19.93,19.93,0,0,0,.49,3.74c.13-.58.23-1.19.39-1.74h.08a19.89,19.89,0,0,1,19-14l44-8v-8Z"/><path class="cls-1" d="M235.94,184.05v48a8,8,0,0,1-8,8H76a8,8,0,0,1-8-8v-32a8,8,0,0,1,8-8H220a8,8,0,0,0,8-8Z"/><path class="cls-3" d="M228,184.05a8,8,0,0,1-8,8v40a8,8,0,0,1-8,8h16a8,8,0,0,0,8-8v-48Z"/><path class="cls-2" d="M84,232v-32a8,8,0,0,1,8-8H76a8,8,0,0,0-8,8v32a8,8,0,0,0,8,8H92A8,8,0,0,1,84,232Z"/><polygon class="cls-1" points="75.98 256.03 27.99 297.14 27.99 272.03 75.98 256.03"/><polygon class="cls-2" points="75.98 256.03 27.99 272.03 27.99 280.03 60.7 269.12 75.98 256.03"/><path class="cls-2" d="M188,376H4c0-23.11,11.28-43.91,29.27-58.46C49.67,304.18,71.74,296,96,296,146.85,296,188,331.86,188,376Z"/><path class="cls-1" d="M96,296c-2.76,0-5.49.14-8.18.35C135,299.82,172,334.15,172,376h16C188,331.86,146.85,296,96,296Z"/><path class="cls-4" d="M49.27,317.54C63.8,305.7,82.79,298,103.79,296.37c-2.58-.19-5.17-.35-7.81-.35-24.24,0-46.31,8.16-62.71,21.52C15.28,332.09,4,352.89,4,376H20C20,352.89,31.27,332.09,49.27,317.54Z"/><path class="cls-2" d="M392.87,116.63l-25-4.56a18.61,18.61,0,0,1-6.07-1l2.07,9.53c9.52,58,8,156.6,8,167.39a55.93,55.93,0,0,1-55.34,56H243.94a40,40,0,0,1-40-40c0-40,24-48,24-48V240H76v16L28,297.14,20,304l12.16,12.15,1.12,1.37C49.67,304.17,71.74,296,96,296c50.87,0,92,35.84,92,80h152a47.77,47.77,0,0,0,24-6.4,72.72,72.72,0,0,1,17.28-48.38,71.62,71.62,0,0,1,25.11-18.88A69.89,69.89,0,0,1,433.41,296Z"/><g class="cls-5"><polygon class="cls-1" points="392.87 116.63 382.94 114.45 417.88 298.23 433.41 296.02 392.87 116.63"/></g><polygon class="cls-4" points="27.61 311.63 43.99 297.14 89.71 260.41 91.98 240.04 75.98 240.04 75.98 256.03 27.99 297.14 20 304.02 27.61 311.63"/><path class="cls-3" d="M32.53,376a64,64,0,0,0-.55,8H160a64,64,0,0,0-.56-8Z"/><path class="cls-1" d="M65.12,376A31.54,31.54,0,0,0,64,384h64a32,32,0,0,0-1.13-8Z"/><path class="cls-6" d="M96,451.89a68,68,0,0,1-67.85-63.73,4,4,0,1,1,8-.49,60,60,0,0,0,119.74,0,4,4,0,1,1,8,.49A68.05,68.05,0,0,1,96,451.89Z"/><path class="cls-6" d="M96,419.9a36,36,0,0,1-35.71-31.49,4,4,0,1,1,7.93-1,28,28,0,0,0,55.55,0,4,4,0,0,1,7.94,1A36,36,0,0,1,96,419.9Z"/><path class="cls-6" d="M96,427.9a4,4,0,0,1-4-4v-8a4,4,0,0,1,8,0v8A4,4,0,0,1,96,427.9Z"/><path class="cls-6" d="M116,422.54a4,4,0,0,1-3.46-2l-4-6.92a4,4,0,1,1,6.92-4l4,6.92A4,4,0,0,1,118,422,3.91,3.91,0,0,1,116,422.54Z"/><path class="cls-6" d="M130.61,407.9a3.93,3.93,0,0,1-2-.54l-6.92-4a4,4,0,0,1,4-6.92l6.92,4a4,4,0,0,1-2,7.46Z"/><path class="cls-6" d="M61.34,407.9a4,4,0,0,1-2-7.46l6.94-4a4,4,0,1,1,4,6.93l-7,4A4,4,0,0,1,61.34,407.9Z"/><path class="cls-6" d="M76,422.54a3.91,3.91,0,0,1-2-.54,4,4,0,0,1-1.46-5.46l4-6.93a4,4,0,1,1,6.92,4l-4,6.94A4,4,0,0,1,76,422.54Z"/><path class="cls-6" d="M443.89,451.89a68,68,0,0,1-65.76-50.69,4,4,0,1,1,7.73-2,60,60,0,1,0,108.76-47.28,4,4,0,0,1,6.77-4.28,68,68,0,0,1-57.5,104.28Z"/><path class="cls-6" d="M443.89,419.9a36,36,0,1,1,36-36A36,36,0,0,1,443.89,419.9Zm0-64a28,28,0,1,0,28,28A28,28,0,0,0,443.89,355.92Z"/><path class="cls-6" d="M443.89,355.92a4,4,0,0,1-4-4v-8a4,4,0,1,1,8,0v8A4,4,0,0,1,443.89,355.92Z"/><path class="cls-6" d="M443.89,427.9a4,4,0,0,1-4-4v-8a4,4,0,1,1,8,0v8A4,4,0,0,1,443.89,427.9Z"/><path class="cls-6" d="M427.9,360.2a4,4,0,0,1-3.46-2l-4-6.92a4,4,0,1,1,6.92-4l4,6.93a4,4,0,0,1-3.46,6Z"/><path class="cls-6" d="M463.89,422.54a4,4,0,0,1-3.46-2l-4-6.92a4,4,0,1,1,6.92-4l4,6.92a4,4,0,0,1-1.46,5.46A3.91,3.91,0,0,1,463.89,422.54Z"/><path class="cls-6" d="M416.2,371.91a4,4,0,0,1-2-.53l-6.94-4a4,4,0,1,1,4-6.93l6.94,4a4,4,0,0,1-2,7.47Z"/><path class="cls-6" d="M478.53,407.9a3.93,3.93,0,0,1-2-.54l-6.92-4a4,4,0,0,1,4-6.92l6.92,4a4,4,0,0,1-2,7.46Z"/><path class="cls-6" d="M411.92,387.91h-8a4,4,0,0,1,0-8h8a4,4,0,0,1,0,8Z"/><path class="cls-6" d="M483.89,387.91h-8a4,4,0,0,1,0-8h8a4,4,0,0,1,0,8Z"/><path class="cls-6" d="M409.26,407.9a4,4,0,0,1-2-7.46l6.95-4a4,4,0,0,1,4,6.92l-6.95,4A3.93,3.93,0,0,1,409.26,407.9Z"/><path class="cls-6" d="M471.61,371.91a4,4,0,0,1-2-7.46l6.92-4a4,4,0,0,1,4,6.92l-6.92,4A3.93,3.93,0,0,1,471.61,371.91Z"/><path class="cls-6" d="M423.9,422.54a3.88,3.88,0,0,1-2-.54,4,4,0,0,1-1.46-5.46l4-6.93a4,4,0,0,1,6.93,4l-4,6.94A4,4,0,0,1,423.9,422.54Z"/><path class="cls-6" d="M459.9,360.2a4,4,0,0,1-3.47-6l4-6.92a4,4,0,0,1,6.94,4l-4,6.93A4,4,0,0,1,459.9,360.2Z"/><path class="cls-6" d="M370.27,401.5a4,4,0,0,1-3.64-2.36,76,76,0,0,1,138.11-63.39,4,4,0,0,1,.94,2.58,4.27,4.27,0,0,1-4.1,4A2.44,2.44,0,0,1,500,342c-.22-.09-21.64-8.8-46.09-8.8-12.15,0-23,2.14-32.37,6.35-34.09,15.36-47.31,58.63-47.43,59.07a4,4,0,0,1-3.57,2.85Zm65.57-101.6a68,68,0,0,0-65.51,86c6.38-14.85,21.06-41.55,47.93-53.66,10.36-4.67,22.35-7,35.65-7a141.39,141.39,0,0,1,39.23,6A68.21,68.21,0,0,0,435.84,299.9Z"/><path class="cls-6" d="M339.9,379.91H196a4,4,0,0,1,0-8h144a4,4,0,0,1,0,8Z"/><path class="cls-6" d="M431.9,293.43a4,4,0,0,1-3.9-3.12L391.46,128.86a4,4,0,0,1,7.8-1.76L435.8,288.55a4,4,0,0,1-3,4.78A3.83,3.83,0,0,1,431.9,293.43Z"/><path class="cls-6" d="M371.91,291.93a4,4,0,0,1-4-4l0-4.08c.58-90.52-4-138.43-8-162.68a4,4,0,1,1,7.89-1.29c4,24.55,8.67,72.94,8.07,164l0,4A4,4,0,0,1,371.91,291.93Z"/><path class="cls-6" d="M204,307.93a4,4,0,0,1-4-4c0-34.67,17.16-47,24-50.58v-5.41a4,4,0,1,1,8,0v8a4,4,0,0,1-2.73,3.8c-.84.29-21.26,7.87-21.26,44.19A4,4,0,0,1,204,307.93Z"/><path class="cls-6" d="M20,307.93a4,4,0,0,1-2.6-7L72,254.1v-6.16a4,4,0,0,1,8,0v8a4,4,0,0,1-1.4,3l-56,48A4,4,0,0,1,20,307.93Z"/><path class="cls-6" d="M68,235.94a4,4,0,0,1-4-4V200a4,4,0,1,1,8,0v32A4,4,0,0,1,68,235.94Z"/><path class="cls-6" d="M235.94,235.94a4,4,0,0,1-4-4V184a4,4,0,1,1,8,0v48A4,4,0,0,1,235.94,235.94Z"/><path class="cls-6" d="M228,212H76a4,4,0,0,1,0-8H228a4,4,0,0,1,0,8Z"/><path class="cls-6" d="M339.9,379.92a4,4,0,0,1,0-8,44,44,0,0,0,22-5.88,4,4,0,0,1,4,6.92A52,52,0,0,1,339.9,379.92Z"/><path class="cls-6" d="M315.92,347.92a4,4,0,0,1,0-8,52,52,0,0,0,52-52,4,4,0,0,1,8,0A60.06,60.06,0,0,1,315.92,347.92Z"/><path class="cls-6" d="M243.94,347.92a44,44,0,0,1-44-44,4,4,0,0,1,8,0,36,36,0,0,0,36,36,4,4,0,0,1,0,8Z"/><path class="cls-6" d="M316.55,347.92H243.94a4,4,0,0,1,0-8h72.61a4,4,0,0,1,0,8Z"/><path class="cls-6" d="M220,196H76a4,4,0,1,1,0-8H220a4,4,0,1,1,0,8Z"/><path class="cls-6" d="M68,204a4,4,0,0,1-4-4,12,12,0,0,1,12-12,4,4,0,1,1,0,8,4,4,0,0,0-4,4A4,4,0,0,1,68,204Z"/><path class="cls-6" d="M76,243.93a12,12,0,0,1-12-12,4,4,0,1,1,8,0,4,4,0,0,0,4,4,4,4,0,1,1,0,8Z"/><path class="cls-6" d="M228,243.93a4,4,0,0,1,0-8,4,4,0,0,0,4-4,4,4,0,0,1,8,0A12,12,0,0,1,228,243.93Z"/><path class="cls-6" d="M220,196a4,4,0,1,1,0-8,4,4,0,0,0,4-4,4,4,0,1,1,8,0A12,12,0,0,1,220,196Z"/><path class="cls-6" d="M235.94,188h-8a4,4,0,0,1,0-8h8a4,4,0,0,1,0,8Z"/><path class="cls-6" d="M228,243.93H76a4,4,0,0,1,0-8H228a4,4,0,0,1,0,8Z"/><path class="cls-6" d="M28,315.92a4,4,0,0,1-2.82-1.17l-8-8a4,4,0,0,1,5.65-5.65l8,8a4,4,0,0,1,0,5.65A3.94,3.94,0,0,1,28,315.92Z"/><path class="cls-6" d="M188,379.92H4a4,4,0,0,1-4-4c0-46.31,43.05-84,96-84s96,37.68,96,84A4,4,0,0,1,188,379.92Zm-179.85-8H183.84c-2.41-40.05-40.91-72-87.86-72S10.53,331.87,8.11,371.92Z"/><path class="cls-6" d="M367.91,116a24,24,0,0,1,0-48,4,4,0,0,1,0,8,16,16,0,0,0,0,32,4,4,0,0,1,0,8Z"/><path class="cls-6" d="M367.9,76a4,4,0,0,1-.71-7.93l44-8a4.06,4.06,0,0,1,4.66,3.22,4,4,0,0,1-3.22,4.65l-44,8A4.4,4.4,0,0,1,367.9,76Z"/><path class="cls-6" d="M411.91,124a4.59,4.59,0,0,1-.73-.06l-44-8a4,4,0,0,1,1.44-7.87l44,8a4,4,0,0,1-.71,7.94Z"/><path class="cls-6" d="M411.9,124a4,4,0,0,1-4-4V64a4,4,0,0,1,8,0v56A4,4,0,0,1,411.9,124Z"/><path class="cls-6" d="M315.92,116a12,12,0,0,1-3.38-23.5,12.23,12.23,0,0,1,14.89,8.11,12,12,0,0,1-8.12,14.9A11.78,11.78,0,0,1,315.92,116Zm0-16a4.17,4.17,0,0,0-1.16.17,4,4,0,0,0-2.71,5,4.06,4.06,0,0,0,5,2.71,4,4,0,0,0,2.71-5A3.94,3.94,0,0,0,316,100Z"/><path class="cls-6" d="M318.18,115.64a4,4,0,0,1-1.13-7.83l32.48-9.57a4,4,0,0,1,2.26,7.67l-32.47,9.57A4.13,4.13,0,0,1,318.18,115.64Z"/><path class="cls-6" d="M313.67,100.3a4,4,0,0,1-1.13-7.83l35.18-10.36A4,4,0,0,1,350,89.78L314.8,100.14A4.06,4.06,0,0,1,313.67,100.3Z"/><path class="cls-6" d="M28,275.93a4,4,0,0,1-1.26-7.79l24-8a4,4,0,0,1,2.53,7.59l-24,8A4,4,0,0,1,28,275.93Z"/><path class="cls-6" d="M28,291.93a4,4,0,0,1-4-4v-16a4,4,0,0,1,8,0v16A4,4,0,0,1,28,291.93Z"/><path class="cls-6" d="M367.91,116a4,4,0,0,1-4-4V72a4,4,0,0,1,8,0v40A4,4,0,0,1,367.91,116Z"/></svg>