<svg id="Layer_1" data-name="Layer 1" xmlns="http://www.w3.org/2000/svg" viewBox="0 0 511.88 511.88"><defs><style>.cls-1{fill:#d7e9ff;}.cls-2{fill:#5c9eff;}.cls-3{fill:#94c1ff;}.cls-4{fill:#ac92ec;}.cls-5{opacity:0.5;}.cls-6{fill:#fff;}.cls-7{fill:#0f7cff;}</style></defs><title>pricing-icon-3-blue</title><path class="cls-1" d="M334.56,319.14l-10.64,32.79H243.7l-10.08-35.75A644.77,644.77,0,0,0,334.56,319.14Z"/><path class="cls-2" d="M149.73,301.78,132,319.93H52V267.55C82.14,282.1,115.42,293.46,149.73,301.78Z"/><path class="cls-3" d="M132,160l17.6,18C115.33,186.28,82.22,197.56,52,212V160Z"/><path class="cls-4" d="M149.57,178c166.44-40.31,358.31-10.08,358.31,61.9,0,45.67-75.82,74.31-173.32,79.27a646,646,0,0,1-100.94-3,640.69,640.69,0,0,1-83.89-14.4C115.42,293.46,82.14,282.1,52,267.55A338.14,338.14,0,0,1,4,239.87a345,345,0,0,1,48-27.76V212C82.22,197.56,115.33,186.29,149.57,178Z"/><path class="cls-3" d="M149.57,178c166.44-40.31,358.31-10.08,358.31,61.9,0,45.67-75.82,74.31-173.32,79.27a646,646,0,0,1-100.94-3,640.69,640.69,0,0,1-83.89-14.4C115.42,293.46,82.14,282.1,52,267.55A338.14,338.14,0,0,1,4,239.87a345,345,0,0,1,48-27.76V212C82.22,197.56,115.33,186.29,149.57,178Z"/><path class="cls-2" d="M334.56,303.14C138,310.54,4,239.88,4,239.88a339.06,339.06,0,0,0,48,27.67c30.15,14.55,63.43,25.91,97.74,34.23a640.55,640.55,0,0,0,83.9,14.4,644.61,644.61,0,0,0,100.93,3c97.5-5,173.32-33.6,173.32-79.26a39,39,0,0,0-.86-7.81C498.49,273,426.14,299.7,334.56,303.14Z"/><path class="cls-1" d="M334.56,176.75C138,169.35,4,240,4,240a339.06,339.06,0,0,1,48-27.67c30.15-14.55,63.43-25.91,97.74-34.23a640.55,640.55,0,0,1,83.9-14.4,644.61,644.61,0,0,1,100.93-3c97.5,5,173.32,33.6,173.32,79.26a39,39,0,0,1-.86,7.81C498.49,206.93,426.14,180.19,334.56,176.75Z"/><path class="cls-3" d="M331.94,327.21l2.62-8.07a644.77,644.77,0,0,1-100.94-3l2.32,8.2A644.45,644.45,0,0,0,331.94,327.21Z"/><g class="cls-5"><path class="cls-6" d="M235.94,324.38l7.77,27.55h8l-7.56-26.84C241.4,324.84,238.68,324.66,235.94,324.38Z"/></g><path class="cls-1" d="M311.77,240a28,28,0,1,1-28-28A28,28,0,0,1,311.77,240Z"/><path class="cls-7" d="M252.18,339.92a4,4,0,0,1-4-4,4,4,0,0,1,4-4h.08a4,4,0,0,1,0,8Z"/><path class="cls-7" d="M268.18,339.92a4,4,0,0,1-4-4,4,4,0,0,1,3.95-4h.09a4,4,0,0,1,0,8Z"/><path class="cls-7" d="M284.18,339.92a4,4,0,0,1-4-4,4,4,0,0,1,3.95-4h.09a4,4,0,0,1,0,8Z"/><path class="cls-7" d="M300.17,339.92a4,4,0,0,1-4-4,4,4,0,0,1,4-4h.08a4,4,0,0,1,0,8Z"/><path class="cls-7" d="M316.17,339.92a4,4,0,0,1-4-4,4,4,0,0,1,3.95-4h.09a4,4,0,0,1,0,8Z"/><path class="cls-7" d="M4,243.87a4,4,0,0,1-2.28-7.28c138-96,379.43-96.4,468.66-49.77,27.15,14.18,41.5,32.53,41.5,53.05a4,4,0,0,1-8,0c0-21.92-20.23-37.1-37.2-46C379.13,148.18,142,148.72,6.29,243.15A4,4,0,0,1,4,243.87Z"/><path class="cls-7" d="M305.7,323.86c-104.73,0-225.48-26.08-304-80.7a4,4,0,0,1,4.57-6.57c135.84,94.52,372.89,95.24,460.3,49.57,17-8.9,37.29-24.14,37.29-46.29a4,4,0,0,1,8,0c0,20.7-14.38,39.16-41.59,53.37C431.63,313.44,371.86,323.86,305.7,323.86Z"/><path class="cls-7" d="M139.8,172a4,4,0,0,1-2.86-1.2l-7.83-8a4,4,0,1,1,5.72-5.59l7.82,8a4,4,0,0,1-2.85,6.8Z"/><path class="cls-7" d="M132,164H52a4,4,0,0,1,0-8h80a4,4,0,0,1,0,8Z"/><path class="cls-7" d="M52,202.68a4,4,0,0,1-4-4V160a4,4,0,0,1,8,0v38.72A4,4,0,0,1,52,202.68Z"/><path class="cls-7" d="M132,323.92a4,4,0,0,1-2.86-6.79l7.83-8a4,4,0,1,1,5.71,5.59l-7.82,8A4,4,0,0,1,132,323.92Z"/><path class="cls-7" d="M132,323.92H52a4,4,0,1,1,0-8h80a4,4,0,1,1,0,8Z"/><path class="cls-7" d="M52,323.92a4,4,0,0,1-4-4V281.09a4,4,0,0,1,8,0v38.83A4,4,0,0,1,52,323.92Z"/><path class="cls-7" d="M140,243.87H52a4,4,0,1,1,0-8h88a4,4,0,1,1,0,8Z"/><path class="cls-7" d="M491.89,243.87h-16a4,4,0,1,1,0-8h16a4,4,0,0,1,0,8Z"/><path class="cls-7" d="M491.89,228a3.92,3.92,0,0,1-1.79-.42l-16-8a4,4,0,0,1,3.58-7.16l16,8a4,4,0,0,1-1.78,7.58Z"/><path class="cls-7" d="M475.89,267.94a4,4,0,0,1-1.79-7.58l16-8a4,4,0,0,1,3.57,7.16l-16,8A4.12,4.12,0,0,1,475.89,267.94Z"/><path class="cls-7" d="M243.69,355.92a4,4,0,0,1-3.85-2.92l-7.74-27.47a4,4,0,1,1,7.7-2.18l7.74,27.48a4,4,0,0,1-2.76,4.94A4.09,4.09,0,0,1,243.69,355.92Z"/><path class="cls-7" d="M323.92,355.92H243.69a4,4,0,0,1,0-8h80.23a4,4,0,0,1,0,8Z"/><path class="cls-7" d="M323.92,355.92a3.81,3.81,0,0,1-1.23-.2,4,4,0,0,1-2.57-5l8-24.64a4,4,0,1,1,7.61,2.47l-8,24.64A4,4,0,0,1,323.92,355.92Z"/><path class="cls-7" d="M261,260a4,4,0,0,1-3.28-1.71A31.7,31.7,0,0,1,251.94,240a32.22,32.22,0,0,1,22.85-30.67,4,4,0,1,1,2.29,7.67,24.15,24.15,0,0,0-17.14,23,23.8,23.8,0,0,0,4.3,13.7,4,4,0,0,1-1,5.57A3.93,3.93,0,0,1,261,260Z"/><path class="cls-7" d="M291.93,270.87a4,4,0,0,1-1.14-7.84,24,24,0,0,0,13-36.42,4,4,0,0,1,6.62-4.47A31.85,31.85,0,0,1,315.93,240a32.18,32.18,0,0,1-22.86,30.67A4.09,4.09,0,0,1,291.93,270.87Z"/><path class="cls-7" d="M291.62,251.71a4,4,0,0,1-2.83-1.17l-15.68-15.68a4,4,0,0,1,5.65-5.66l15.69,15.69a4,4,0,0,1-2.83,6.82Z"/><path class="cls-7" d="M275.94,236a4,4,0,0,1-2.83-6.82l32-32a4,4,0,0,1,5.66,5.66l-32,32A4,4,0,0,1,275.94,236Z"/><path class="cls-7" d="M259.63,283.71a4,4,0,0,1-2.83-6.83l32-32a4,4,0,1,1,5.66,5.65l-32,32A4,4,0,0,1,259.63,283.71Z"/></svg>