<svg id="Layer_1" data-name="Layer 1" xmlns="http://www.w3.org/2000/svg" viewBox="0 0 464 464"><defs><style>.cls-1{fill:#4c616d;}.cls-2{fill:#0f7cff;}</style></defs><title>records-blue</title><path class="cls-1" d="M314.1,96h-96a8,8,0,0,0,0,16h96a8,8,0,0,0,0-16Z"/><path class="cls-1" d="M314.1,160h-96a8,8,0,0,0,0,16h96a8,8,0,0,0,0-16Z"/><path class="cls-1" d="M218.1,240h32a8,8,0,1,0,0-16h-32a8,8,0,0,0,0,16Z"/><path class="cls-1" d="M314.1,224h-32a8,8,0,0,0,0,16h32a8,8,0,0,0,0-16Z"/><path class="cls-1" d="M186.1,320h-96a8,8,0,0,0,0,16h96a8,8,0,1,0,0-16Z"/><path class="cls-1" d="M314.1,320h-96a8,8,0,0,0,0,16h96a8,8,0,0,0,0-16Z"/><path class="cls-1" d="M314.1,192h-96a8,8,0,0,0,0,16h96a8,8,0,0,0,0-16Z"/><path class="cls-1" d="M258.1,296a7.56,7.56,0,0,0-8-8H90.1a8,8,0,0,0,0,16h160A7.56,7.56,0,0,0,258.1,296Z"/><path class="cls-1" d="M314.1,288h-32a8,8,0,0,0,0,16h32a8,8,0,0,0,0-16Z"/><path class="cls-1" d="M218.1,144h32a8,8,0,1,0,0-16h-32a8,8,0,0,0,0,16Z"/><path class="cls-1" d="M314.1,128h-32a8,8,0,0,0,0,16h32a8,8,0,0,0,0-16Z"/><path class="cls-1" d="M314.1,256h-96a8,8,0,0,0,0,16h96a8,8,0,0,0,0-16Z"/><path class="cls-2" d="M420.5,124.8,378.1,104V456l59.2-296A31.7,31.7,0,0,0,420.5,124.8Z"/><path class="cls-1" d="M423.7,85.6,385.3,66.4A39.7,39.7,0,0,0,346.1,32H161.3A40.24,40.24,0,0,0,122.1,0h-32c-19.2,0-36,14.4-39.2,32.8C32.5,36,18.1,52.8,18.1,72V424a39.61,39.61,0,0,0,40,40h288c21.6,0,40-16.8,40-38.4h0l59.2-296C448.5,112,439.7,93.6,423.7,85.6ZM90.1,16h32a23.3,23.3,0,0,1,22.4,16H67.7A23.3,23.3,0,0,1,90.1,16Zm280,408a23.57,23.57,0,0,1-24,24h-88V424a8,8,0,0,0-16,0v24h-16V392a8,8,0,0,0-16,0v56h-16V424a8,8,0,0,0-16,0v24h-80V424a7.56,7.56,0,0,0-8-8,7.56,7.56,0,0,0-8,8v24h-24a23.57,23.57,0,0,1-24-24V72a23.57,23.57,0,0,1,24-24h88V200a24,24,0,0,1-48,0V72a7.56,7.56,0,0,0-8-8,7.56,7.56,0,0,0-8,8V200a40,40,0,0,0,80,0V48h184a23.57,23.57,0,0,1,24,24Zm59.2-297.6L386.1,343.2V84.8L416.5,100C426.1,104.8,431.7,116,429.3,126.4Z"/></svg>