<svg id="Hero" xmlns="http://www.w3.org/2000/svg" viewBox="0 0 41 41"><defs><style>.cls-1{fill:#d3e6f8;}.cls-2{fill:#0f7cff;}.cls-3{fill:#a4cff2;}.cls-4{fill:#7babf1;}.cls-5{fill:#fff;}.cls-6{fill:#4c4372;}</style></defs><title>robotics-7-blue</title><path class="cls-1" d="M27.43,31.53H17.28a2.08,2.08,0,0,1-2.06-2.06V17.55H29.44V29.47a2,2,0,0,1-2,2.06Z"/><path class="cls-2" d="M29.49,17.59H25.93V8.24a1.78,1.78,0,1,1,3.56,0Z"/><path class="cls-2" d="M25.93,17.59H22.38V6.37a1.78,1.78,0,1,1,3.55,0Z"/><path class="cls-2" d="M22.38,17.59H18.82V5.15a1.78,1.78,0,1,1,3.56,0V17.59Z"/><path class="cls-2" d="M15.27,28.35a3.56,3.56,0,0,1-3.56-3.56V16.94a1.78,1.78,0,1,1,3.56,0Z"/><path class="cls-2" d="M18.82,17.59H15.27V6.37a1.78,1.78,0,1,1,3.55,0Z"/><path class="cls-3" d="M27.76,31.53a2,2,0,0,0,1.73-2V17.59H27.76Z"/><path class="cls-4" d="M27.05,34.19H17.51a.73.73,0,0,1-.74-.74h0v-2h11v2A.72.72,0,0,1,27.05,34.19Z"/><path class="cls-3" d="M19.38,34.19h5.8V38h-5.8Z"/><path class="cls-5" d="M22.33,21.33a3.14,3.14,0,0,0-3.13,3.14v7.11h6.26V24.47a3.14,3.14,0,0,0-3.13-3.14Z"/><path class="cls-6" d="M27.43,32H17.28a2.41,2.41,0,0,1-2.43-2.43V17.59a.42.42,0,0,1,.42-.42H29.49a.42.42,0,0,1,.42.42h0V29.52A2.49,2.49,0,0,1,27.43,32ZM15.64,18v11.5a1.66,1.66,0,0,0,1.64,1.64H27.43a1.65,1.65,0,0,0,1.63-1.64V18Z"/><path class="cls-6" d="M27.05,34.62H17.51a1.15,1.15,0,0,1-1.12-1.13v-2a.42.42,0,0,1,.42-.42h11a.42.42,0,0,1,.42.42v2a1.21,1.21,0,0,1-1.17,1.13Zm-9.86-2.76v1.59a.32.32,0,0,0,.32.32h9.54a.32.32,0,0,0,.33-.32V31.86Z"/><path class="cls-6" d="M25.14,38.4H19.38A.42.42,0,0,1,19,38h0V34.19a.42.42,0,0,1,.42-.42h5.8a.42.42,0,0,1,.42.42h0V38a.48.48,0,0,1-.46.42Zm-5.34-.79h5v-3h-5Z"/><path class="cls-6" d="M25.46,32H19.2a.42.42,0,0,1-.42-.42h0V24.42a3.51,3.51,0,1,1,7,0v7.11A.33.33,0,0,1,25.46,32Zm-5.84-.84H25V24.42a2.71,2.71,0,1,0-5.42,0Z"/><path class="cls-6" d="M26.59,32.84a.57.57,0,0,1-1.13,0h0a.57.57,0,0,1,1.13,0Z"/><path class="cls-6" d="M29.49,18H25.93a.42.42,0,0,1-.42-.42h0V8.19a2.2,2.2,0,0,1,4.4,0v9.36a.42.42,0,0,1-.42.42Zm-3.14-.8h2.76V8.24a1.36,1.36,0,1,0-2.71,0v8.93Z"/><path class="cls-6" d="M25.93,18H22.38a.42.42,0,0,1-.42-.42h0V6.32a2.2,2.2,0,1,1,4.39,0V17.55a.42.42,0,0,1-.42.42Zm-3.13-.8h2.76V6.37a1.36,1.36,0,1,0-2.72,0v10.8Z"/><path class="cls-6" d="M22.38,18H18.82a.42.42,0,0,1-.42-.42h0V5.1a2.2,2.2,0,0,1,4.4,0V17.55a.42.42,0,0,1-.42.42Zm-3.18-.8H22V5.1a1.36,1.36,0,0,0-2.72,0V17.17Z"/><path class="cls-6" d="M15.27,28.72a3.92,3.92,0,0,1-3.93-3.93V16.94a2.2,2.2,0,1,1,4.4,0V28.35a.62.62,0,0,1-.47.37ZM13.49,15.53a1.35,1.35,0,0,0-1.35,1.36v7.86a3.16,3.16,0,0,0,2.71,3.13v-11a1.36,1.36,0,0,0-1.36-1.36Z"/><path class="cls-6" d="M18.82,18H15.27a.42.42,0,0,1-.42-.42h0V6.32a2.2,2.2,0,1,1,4.39,0V17.55a.44.44,0,0,1-.42.42Zm-3.18-.8H18.4V6.37a1.36,1.36,0,1,0-2.71,0v10.8Z"/><path class="cls-6" d="M18.82,8.29H15.27a.43.43,0,0,1,0-.85h3.55a.42.42,0,0,1,.42.42c0,.28-.18.43-.42.43Z"/><path class="cls-6" d="M22.38,7.77H18.82a.42.42,0,0,1,0-.84h3.56a.42.42,0,1,1,0,.84Z"/><path class="cls-6" d="M25.93,8.29H22.38a.43.43,0,0,1,0-.85h3.55a.42.42,0,0,1,.42.42.4.4,0,0,1-.42.43Z"/><path class="cls-6" d="M29.49,10.39H25.93a.42.42,0,0,1-.42-.42.42.42,0,0,1,.42-.42h3.56a.42.42,0,0,1,.42.42A.42.42,0,0,1,29.49,10.39Z"/><path class="cls-6" d="M15.27,18.85H11.71a.42.42,0,0,1-.42-.42.42.42,0,0,1,.42-.42h3.56a.42.42,0,0,1,.42.42c0,.24-.19.42-.42.42Z"/></svg>