<svg id="Hero" xmlns="http://www.w3.org/2000/svg" viewBox="0 0 41 41"><defs><style>.cls-1{fill:#dfffdc;}.cls-2{fill:#d3e6f8;}.cls-3{fill:#a4cff2;}.cls-4{fill:#fff;}.cls-5{fill:#7babf1;}.cls-6{fill:#4c4372;}.cls-7{fill:#8e6cf4;}</style></defs><title>robotics-6-night</title><path class="cls-1" d="M33.37,20.45A12.75,12.75,0,1,1,20.62,7.7,12.75,12.75,0,0,1,33.37,20.45Z"/><path class="cls-2" d="M28.89,35.48H20V11.73h8.89a1.9,1.9,0,0,1,1.91,1.91V33.57A1.9,1.9,0,0,1,28.89,35.48Z"/><path class="cls-3" d="M28.89,11.73H26.77a1.9,1.9,0,0,1,1.91,1.91V33.57a1.9,1.9,0,0,1-1.91,1.91h2.12a1.9,1.9,0,0,0,1.91-1.91V13.64A1.88,1.88,0,0,0,28.89,11.73Z"/><path class="cls-4" d="M20,28.46h4.57a1,1,0,0,1,1,1V30.7a1,1,0,0,1-1,1H20Z"/><path class="cls-5" d="M33.66,26.76H30.8V19.49h2.86a1.23,1.23,0,0,1,1.25,1.25v4.77a1.23,1.23,0,0,1-1.25,1.25Z"/><path class="cls-4" d="M20,35.48H17A7.69,7.69,0,0,1,9.33,27.8V15.51a3.79,3.79,0,0,1,3.78-3.78H20Z"/><path class="cls-4" d="M8.46,26h.91V19.49H8.46a3.24,3.24,0,0,0,0,6.48Z"/><path class="cls-3" d="M13.69,5.41a7.28,7.28,0,0,0-7.27,7.27v7.56a3.1,3.1,0,0,1,2-.71h.91v-4a3.79,3.79,0,0,1,3.78-3.78H20V5.41Z"/><path class="cls-5" d="M27.85,11.73H20V7.08h5.61a2.21,2.21,0,0,1,2.2,2.2v2.45Z"/><path class="cls-5" d="M15.6,23.73a1.23,1.23,0,0,1-1.25-1.25V20.74a1.25,1.25,0,0,1,2.5,0v1.74a1.25,1.25,0,0,1-1.25,1.25Z"/><path class="cls-6" d="M28.89,35.85H20a.36.36,0,0,1-.37-.37h0V11.73a.37.37,0,0,1,.37-.38h8.89a2.31,2.31,0,0,1,2.28,2.29V33.57a2.3,2.3,0,0,1-2.28,2.28Zm-8.51-.74h8.51a1.58,1.58,0,0,0,1.58-1.58V13.6A1.58,1.58,0,0,0,28.89,12H20.38Z"/><path class="cls-6" d="M33.66,27.13H30.8a.37.37,0,0,1-.38-.37h0V19.49a.37.37,0,0,1,.38-.37h2.86a1.61,1.61,0,0,1,1.62,1.62v4.77A1.59,1.59,0,0,1,33.66,27.13Zm-2.49-.7h2.49a.89.89,0,0,0,.88-.87V20.78a.88.88,0,0,0-.88-.87H31.17Z"/><path class="cls-6" d="M34.91,22.57a.37.37,0,0,1-.37-.38h0V16.83a.37.37,0,1,1,.74,0v5.36a.35.35,0,0,1-.37.38Z"/><path class="cls-6" d="M33.66,25.56a.38.38,0,0,1-.37-.38h0V21A.38.38,0,0,1,34,21v4.15a.38.38,0,0,1-.38.38Z"/><path class="cls-6" d="M20,35.85H17a8,8,0,0,1-8-8V15.51a4.17,4.17,0,0,1,4.15-4.16H20a.38.38,0,0,1,.38.38h0V35.48a.37.37,0,0,1-.38.37ZM13.15,12.06a3.43,3.43,0,0,0-3.41,3.4V27.8a7.33,7.33,0,0,0,7.31,7.31h2.62v-23Z"/><path class="cls-6" d="M6.42,20.57a.36.36,0,0,1-.37-.37V12.64A7.6,7.6,0,0,1,13.65,5H20a.38.38,0,0,1,.38.37h0v6.32a.38.38,0,0,1-.38.37H13.15a3.43,3.43,0,0,0-3.41,3.41v4a.37.37,0,0,1-.37.38H8.46a2.73,2.73,0,0,0-1.79.62.57.57,0,0,1-.25.08ZM13.69,5.75A6.87,6.87,0,0,0,6.8,12.64v6.89a3.74,3.74,0,0,1,1.66-.41H9V15.51a4.17,4.17,0,0,1,4.15-4.16h6.48V5.79h-6Z"/><path class="cls-6" d="M9.37,26.34H8.46a3.61,3.61,0,1,1,0-7.22h.91a.36.36,0,0,1,.37.37h0V26a.36.36,0,0,1-.37.37Zm-.91-6.47a2.87,2.87,0,1,0,0,5.73H9V19.82H8.46Z"/><path class="cls-6" d="M27.85,12.06H20a.37.37,0,0,1-.37-.37h0V7A.37.37,0,0,1,20,6.66h5.61a2.58,2.58,0,0,1,2.57,2.58v2.45a.32.32,0,0,1-.33.37Zm-7.47-.71h7.1V9.28a1.86,1.86,0,0,0-1.87-1.87H20.38Z"/><path class="cls-6" d="M24.57,32H20a.36.36,0,0,1-.37-.37h0v-3.2a.36.36,0,0,1,.37-.37h4.57a1.34,1.34,0,0,1,1.33,1.33v1.24A1.32,1.32,0,0,1,24.57,32Zm-4.19-.7h4.19a.64.64,0,0,0,.62-.63V29.42a.65.65,0,0,0-.62-.63H20.38Z"/><path class="cls-6" d="M25.57,30.41H16.64A1.38,1.38,0,0,1,15.27,29v-.58a.36.36,0,0,1,.37-.37.37.37,0,0,1,.38.37V29a.66.66,0,0,0,.66.67h8.93a.36.36,0,0,1,.37.37A.54.54,0,0,1,25.57,30.41Z"/><path class="cls-6" d="M22,32a.37.37,0,0,1-.37-.37h0v-3.2a.38.38,0,0,1,.75,0v3.2A.43.43,0,0,1,22,32Z"/><path class="cls-6" d="M23.82,32a.36.36,0,0,1-.37-.37h0v-3.2a.36.36,0,0,1,.37-.37.37.37,0,0,1,.38.37v3.2C24.15,31.83,24,32,23.82,32Z"/><path class="cls-6" d="M15.6,24.06A1.63,1.63,0,0,1,14,22.44V20.7a1.62,1.62,0,0,1,1.62-1.62,1.59,1.59,0,0,1,1.62,1.62v1.74a1.6,1.6,0,0,1-1.62,1.62Zm0-4.24a.88.88,0,0,0-.87.88v1.74a.87.87,0,1,0,1.74,0V20.7a.83.83,0,0,0-.87-.88Z"/><path class="cls-7" d="M36,15.75a1.12,1.12,0,1,1-1.12-1.12A1.12,1.12,0,0,1,36,15.75Z"/><path class="cls-7" d="M28.43,21.57a3,3,0,1,1-3-3,3,3,0,0,1,3,3Z"/><path class="cls-6" d="M34.91,17.25a1.5,1.5,0,1,1,1.49-1.5A1.49,1.49,0,0,1,34.91,17.25Zm0-2.24a.75.75,0,1,0,.75.74A.72.72,0,0,0,34.91,15Z"/><path class="cls-6" d="M25.4,25a3.36,3.36,0,1,1,3.36-3.36A3.34,3.34,0,0,1,25.4,25Zm0-6a2.66,2.66,0,1,0,2.66,2.66A2.63,2.63,0,0,0,25.4,19Z"/></svg>