<svg id="Hero" xmlns="http://www.w3.org/2000/svg" viewBox="0 0 41 41"><defs><style>.cls-1{fill:#d3e6f8;}.cls-2{fill:#a4cff2;}.cls-3{fill:#7babf1;}.cls-4{fill:#8c8cf9;}.cls-5{fill:#4c4372;}.cls-6{fill:#00b289;}</style></defs><title>robotics-3-green</title><path class="cls-1" d="M26.4,25H14.6V14.7a1.22,1.22,0,0,1,1.2-1.2h9.5a1.22,1.22,0,0,1,1.2,1.2V25Z"/><path class="cls-2" d="M25.3,13.5H24.1a1.22,1.22,0,0,1,1.2,1.2V25h1.1V14.7A1.13,1.13,0,0,0,25.3,13.5Z"/><path class="cls-1" d="M25.2,11.6H15.7a1.22,1.22,0,0,1-1.2-1.2V3.5a1.22,1.22,0,0,1,1.2-1.2h9.5a1.22,1.22,0,0,1,1.2,1.2v6.9A1.16,1.16,0,0,1,25.2,11.6Z"/><path class="cls-2" d="M25.2,2.5H24a1.22,1.22,0,0,1,1.2,1.2v6.9A1.22,1.22,0,0,1,24,11.8h1.2a1.22,1.22,0,0,0,1.2-1.2V3.7A1.16,1.16,0,0,0,25.2,2.5Z"/><path class="cls-2" d="M23.5,9.9H17.4a.68.68,0,0,0-.7.7h0v1h7.4v-1a.56.56,0,0,0-.6-.7Z"/><path class="cls-3" d="M23.5,9.9H22.3a.68.68,0,0,1,.7.7h0v1h1.2v-1a.68.68,0,0,0-.7-.7Z"/><path class="cls-3" d="M27.4,9.1h-1V5h1a.65.65,0,0,1,.6.6h0v3a.56.56,0,0,1-.6.5Z"/><path class="cls-2" d="M13.6,9.1h1V5h-1a.65.65,0,0,0-.6.6h0v3a.56.56,0,0,0,.6.5Z"/><path class="cls-3" d="M18.5,11.6h4v1.9h-4Z"/><path class="cls-3" d="M21.4.4H19.6a2,2,0,0,0-2,2h5.8a2,2,0,0,0-2-2Z"/><path class="cls-4" d="M22.5,20.2H18.6a1.5,1.5,0,0,1,0-3h3.9a1.5,1.5,0,0,1,0,3Z"/><path class="cls-5" d="M14.6,25.4a.35.35,0,0,1-.4-.4V14.7a1.58,1.58,0,0,1,1.6-1.6h9.5a1.58,1.58,0,0,1,1.6,1.6V25a.43.43,0,0,1-.4.4H14.6ZM15.7,14a.68.68,0,0,0-.7.7v9.9H26V14.7a.68.68,0,0,0-.7-.7Z"/><path class="cls-5" d="M25.2,12.1H15.7a1.58,1.58,0,0,1-1.6-1.6V3.6A1.58,1.58,0,0,1,15.7,2h9.5a1.58,1.58,0,0,1,1.6,1.6v6.9A1.58,1.58,0,0,1,25.2,12.1ZM15.8,2.9a.68.68,0,0,0-.7.7v6.9a.68.68,0,0,0,.7.7h9.5a.68.68,0,0,0,.7-.7V3.6a.68.68,0,0,0-.7-.7Z"/><path class="cls-5" d="M24.2,12.1H16.8a.43.43,0,0,1-.4-.4h0v-1a1.11,1.11,0,0,1,1.1-1.1h6.1a1.11,1.11,0,0,1,1.1,1.1v1a.46.46,0,0,1-.5.4Zm-7-.9h6.5v-.6a.22.22,0,0,0-.2-.2H17.4a.22.22,0,0,0-.2.2Z"/><path class="cls-5" d="M27.4,9.6h-1a.43.43,0,0,1-.4-.4h0V5.1a.43.43,0,0,1,.4-.4h1a1,1,0,0,1,1,1v3A1,1,0,0,1,27.4,9.6Zm-.6-.9h.6a.1.1,0,0,0,.1-.1v-3a.1.1,0,0,0-.1-.1h-.6Z"/><path class="cls-5" d="M14.6,9.6h-1a1,1,0,0,1-1-1v-3a1,1,0,0,1,1-1h1A.43.43,0,0,1,15,5V9.1a.46.46,0,0,1-.4.5Zm-1-4.2a.1.1,0,0,0-.1.1v3a.1.1,0,0,0,.1.1h.6V5.4Z"/><path class="cls-5" d="M22.5,14h-4a.43.43,0,0,1-.4-.4h0V11.7a.43.43,0,0,1,.4-.4h4a.43.43,0,0,1,.4.4h0v1.9a.43.43,0,0,1-.4.4Zm-3.6-.9H22v-1H18.9Z"/><path class="cls-5" d="M23.4,2.9H17.6a.43.43,0,0,1-.4-.4h0A2.48,2.48,0,0,1,19.7,0h1.8A2.48,2.48,0,0,1,24,2.5a.68.68,0,0,1-.6.4ZM18.1,2h4.8A1.5,1.5,0,0,0,21.4.9H19.6A1.63,1.63,0,0,0,18.1,2Z"/><path class="cls-5" d="M22.5,20.7H18.6a2,2,0,0,1,0-4h3.9a2,2,0,0,1,0,4Zm-4-3.1a1.1,1.1,0,0,0,0,2.2h3.9a1.1,1.1,0,1,0,0-2.2Z"/><path class="cls-1" d="M36,38.3H24.2V28a1.22,1.22,0,0,1,1.2-1.2h9.5A1.22,1.22,0,0,1,36.1,28V38.3Z"/><path class="cls-2" d="M34.8,26.8H33.6A1.22,1.22,0,0,1,34.8,28V38.3h1.1V28A1.07,1.07,0,0,0,34.8,26.8Z"/><path class="cls-1" d="M34.8,25H25.3a1.22,1.22,0,0,1-1.2-1.2V16.9a1.22,1.22,0,0,1,1.2-1.2h9.5A1.22,1.22,0,0,1,36,16.9v6.9A1.16,1.16,0,0,1,34.8,25Z"/><path class="cls-2" d="M34.8,15.8H33.6A1.22,1.22,0,0,1,34.8,17v6.9a1.22,1.22,0,0,1-1.2,1.2h1.2A1.22,1.22,0,0,0,36,23.9V17A1.16,1.16,0,0,0,34.8,15.8Z"/><path class="cls-2" d="M33.1,23.3H27a.68.68,0,0,0-.7.7h0v1h7.4V24a.56.56,0,0,0-.6-.7Z"/><path class="cls-3" d="M33.1,23.3H31.9a.68.68,0,0,1,.7.7v1h1.2V24a.68.68,0,0,0-.7-.7Z"/><path class="cls-3" d="M37,22.5H36V18.4h1a.65.65,0,0,1,.6.6v3a.65.65,0,0,1-.6.5Z"/><path class="cls-2" d="M23.1,22.5h1V18.4h-1a.65.65,0,0,0-.6.6v3c.1.2.3.5.6.5Z"/><path class="cls-3" d="M28.1,25h4v1.9h-4Z"/><path class="cls-3" d="M22.8,28.6h1.4v2.6H22.8Z"/><path class="cls-3" d="M36,28.6h1.3v2.6H36Z"/><path class="cls-3" d="M31,13.8H29.2a2,2,0,0,0-2,2H33A2,2,0,0,0,31,13.8Z"/><path class="cls-1" d="M20.5,38.3h2.3V27.9a1.1,1.1,0,0,0-2.2,0V38.3Z"/><path class="cls-2" d="M37.4,38.3h2.3V27.9a1.1,1.1,0,0,0-2.2,0l-.1,10.4Z"/><path class="cls-5" d="M24.2,38.8a.35.35,0,0,1-.4-.4V28.1a1.58,1.58,0,0,1,1.6-1.6h9.5a1.58,1.58,0,0,1,1.6,1.6V38.4a.43.43,0,0,1-.4.4H24.2Zm1.1-11.5a.68.68,0,0,0-.7.7v9.9H35.5V28a.68.68,0,0,0-.7-.7Z"/><path class="cls-5" d="M34.8,25.4H25.3a1.58,1.58,0,0,1-1.6-1.6V16.9a1.58,1.58,0,0,1,1.6-1.6h9.5a1.58,1.58,0,0,1,1.6,1.6v6.9a1.58,1.58,0,0,1-1.6,1.6Zm-9.5-9.1a.68.68,0,0,0-.7.7v6.9a.68.68,0,0,0,.7.7h9.5a.68.68,0,0,0,.7-.7V17a.68.68,0,0,0-.7-.7Z"/><path class="cls-5" d="M33.8,25.4H26.4A.43.43,0,0,1,26,25V24a1.11,1.11,0,0,1,1.1-1.1h6.1A1.11,1.11,0,0,1,34.3,24v1a.66.66,0,0,1-.5.4Zm-7-.9h6.5v-.6a.22.22,0,0,0-.2-.2H27a.22.22,0,0,0-.2.2Z"/><path class="cls-5" d="M37,22.9H36a.43.43,0,0,1-.4-.4h0V18.4A.43.43,0,0,1,36,18h1a1,1,0,0,1,1,1v3A.92.92,0,0,1,37,22.9Zm-.6-.9H37a.1.1,0,0,0,.1-.1v-3a.1.1,0,0,0-.1-.1h-.6Z"/><path class="cls-5" d="M24.2,22.9h-1a1,1,0,0,1-1-1v-3a1,1,0,0,1,1-1h1a.43.43,0,0,1,.4.4h0v4.1a.46.46,0,0,1-.4.5Zm-1.1-4.1a.1.1,0,0,0-.1.1v3a.1.1,0,0,0,.1.1h.6V18.8Z"/><path class="cls-5" d="M32.1,27.3h-4a.43.43,0,0,1-.4-.4h0V25a.43.43,0,0,1,.4-.4h4a.43.43,0,0,1,.4.4h0v1.9a.43.43,0,0,1-.4.4Zm-3.6-.9h3.1v-1H28.5Z"/><path class="cls-5" d="M24.2,31.7H22.8a.43.43,0,0,1-.4-.4h0V28.7a.43.43,0,0,1,.4-.4h1.4a.43.43,0,0,1,.4.4h0v2.6c0,.1-.2.4-.4.4Zm-1-.9h.5V29.1h-.5Z"/><path class="cls-5" d="M37.3,31.7H36a.43.43,0,0,1-.4-.4h0V28.7a.43.43,0,0,1,.4-.4h1.3a.43.43,0,0,1,.4.4h0v2.6c.1.1-.1.4-.4.4Zm-.9-.9h.4V29.1h-.4Z"/><path class="cls-5" d="M33,16.3H27.2a.43.43,0,0,1-.4-.4h0a2.48,2.48,0,0,1,2.5-2.5h1.8a2.48,2.48,0,0,1,2.5,2.5c-.2.2-.4.4-.6.4Zm-5.3-.9h4.8A1.5,1.5,0,0,0,31,14.3H29.2A1.4,1.4,0,0,0,27.7,15.4Z"/><path class="cls-5" d="M22.8,38.8H20.5a.43.43,0,0,1-.4-.4V27.9a1.6,1.6,0,0,1,3.2,0V38.3c-.1.3-.3.5-.5.5Zm-1.9-.9h1.4v-10a.7.7,0,0,0-1.4,0Z"/><path class="cls-5" d="M39.7,38.8H37.4a.43.43,0,0,1-.4-.4V27.9a1.6,1.6,0,0,1,3.2,0V38.3c-.1.3-.3.5-.5.5Zm-1.9-.9h1.4v-10a.7.7,0,0,0-1.4,0Z"/><path class="cls-1" d="M16.8,38.3H5V28a1.22,1.22,0,0,1,1.2-1.2h9.5A1.22,1.22,0,0,1,16.9,28V38.3Z"/><path class="cls-2" d="M15.7,26.8H14.5A1.22,1.22,0,0,1,15.7,28V38.3h1.1V28a1.2,1.2,0,0,0-1.1-1.2Z"/><path class="cls-1" d="M15.7,25H6.2A1.22,1.22,0,0,1,5,23.8V16.9a1.22,1.22,0,0,1,1.2-1.2h9.5a1.22,1.22,0,0,1,1.2,1.2v6.9A1.29,1.29,0,0,1,15.7,25Z"/><path class="cls-2" d="M15.7,15.8H14.5A1.22,1.22,0,0,1,15.7,17v6.9a1.22,1.22,0,0,1-1.2,1.2h1.2a1.22,1.22,0,0,0,1.2-1.2V17A1.29,1.29,0,0,0,15.7,15.8Z"/><path class="cls-2" d="M14,23.3H7.9a.68.68,0,0,0-.7.7v1h7.4V24A.67.67,0,0,0,14,23.3Z"/><path class="cls-3" d="M14,23.3H12.8a.68.68,0,0,1,.7.7v1h1.2V24A.84.84,0,0,0,14,23.3Z"/><path class="cls-3" d="M17.9,22.5h-1V18.4h1a.65.65,0,0,1,.6.6v3c-.1.2-.3.5-.6.5Z"/><path class="cls-2" d="M4,22.5H5V18.4H4a.65.65,0,0,0-.6.6v3a.65.65,0,0,0,.6.5Z"/><path class="cls-3" d="M8.9,25h4v1.9h-4Z"/><path class="cls-3" d="M3.6,28.6H5v2.6H3.6Z"/><path class="cls-3" d="M16.8,28.6h1.3v2.6H16.8Z"/><path class="cls-3" d="M11.8,13.8H10a2,2,0,0,0-2,2h5.8A2,2,0,0,0,11.8,13.8Z"/><path class="cls-1" d="M1.3,38.3H3.6V27.9a1.1,1.1,0,0,0-2.2,0V38.3Z"/><path class="cls-2" d="M18.2,38.3h2.3V27.9a1.1,1.1,0,0,0-2.2,0V38.3Z"/><path class="cls-5" d="M5,38.8a.43.43,0,0,1-.4-.4V28.1a1.58,1.58,0,0,1,1.6-1.6h9.5a1.58,1.58,0,0,1,1.6,1.6V38.4a.43.43,0,0,1-.4.4H5ZM6.2,27.3a.68.68,0,0,0-.7.7v9.9H16.4V28a.68.68,0,0,0-.7-.7Z"/><path class="cls-5" d="M15.7,25.4H6.2a1.58,1.58,0,0,1-1.6-1.6V16.9a1.58,1.58,0,0,1,1.6-1.6h9.5a1.58,1.58,0,0,1,1.6,1.6v6.9a1.58,1.58,0,0,1-1.6,1.6ZM6.2,16.3a.68.68,0,0,0-.7.7v6.9a.68.68,0,0,0,.7.7h9.5a.68.68,0,0,0,.7-.7V17a.68.68,0,0,0-.7-.7Z"/><path class="cls-5" d="M14.6,25.4H7.2a.43.43,0,0,1-.4-.4V24a1.11,1.11,0,0,1,1.1-1.1H14A1.11,1.11,0,0,1,15.1,24v1a.46.46,0,0,1-.5.4Zm-6.9-.9h6.5v-.6a.22.22,0,0,0-.2-.2H7.9a.22.22,0,0,0-.2.2v.6Z"/><path class="cls-5" d="M17.9,22.9h-1a.43.43,0,0,1-.4-.4h0V18.4a.43.43,0,0,1,.4-.4h1a1,1,0,0,1,1,1v3A1,1,0,0,1,17.9,22.9Zm-.6-.9h.6a.1.1,0,0,0,.1-.1v-3a.1.1,0,0,0-.1-.1h-.6Z"/><path class="cls-5" d="M5,22.9H4a1,1,0,0,1-1-1v-3a1,1,0,0,1,1-1H5a.43.43,0,0,1,.4.4h0v4.1c.1.3-.1.5-.4.5ZM4,18.8a.1.1,0,0,0-.1.1v3A.1.1,0,0,0,4,22h.6V18.8Z"/><path class="cls-5" d="M12.9,27.3h-4a.43.43,0,0,1-.4-.4h0V25a.43.43,0,0,1,.4-.4h4a.43.43,0,0,1,.4.4h0v1.9c.1.2-.1.4-.4.4Zm-3.5-.9h3.1v-1H9.4Z"/><path class="cls-5" d="M5,31.7H3.6a.43.43,0,0,1-.4-.4h0V28.7a.43.43,0,0,1,.4-.4H5a.43.43,0,0,1,.4.4h0v2.6c0,.1-.2.4-.4.4Zm-.9-.9h.5V29.1H4.1Z"/><path class="cls-5" d="M18.2,31.7H16.9a.43.43,0,0,1-.4-.4h0V28.7a.43.43,0,0,1,.4-.4h1.3a.43.43,0,0,1,.4.4h0v2.6c0,.1-.2.4-.4.4Zm-.9-.9h.4V29.1h-.4Z"/><path class="cls-5" d="M13.8,16.3H8a.43.43,0,0,1-.4-.4h0a2.48,2.48,0,0,1,2.5-2.5h1.8a2.48,2.48,0,0,1,2.5,2.5.68.68,0,0,1-.6.4Zm-5.3-.9h4.8a1.5,1.5,0,0,0-1.5-1.1H10A1.4,1.4,0,0,0,8.5,15.4Z"/><path class="cls-5" d="M3.6,38.8H1.3a.43.43,0,0,1-.4-.4V27.9a1.58,1.58,0,0,1,1.6-1.6,1.58,1.58,0,0,1,1.6,1.6V38.3a.47.47,0,0,1-.5.5Zm-1.8-.9H3.2v-10a.68.68,0,0,0-.7-.7.68.68,0,0,0-.7.7v10Z"/><path class="cls-5" d="M20.5,38.8H18.2a.43.43,0,0,1-.4-.4V27.9a1.6,1.6,0,0,1,3.2,0V38.3C20.9,38.6,20.7,38.8,20.5,38.8Zm-1.8-.9h1.4v-10a.7.7,0,1,0-1.4,0v10Z"/><path class="cls-6" d="M25.1,7a1.7,1.7,0,0,1-3.4,0,1.7,1.7,0,0,1,3.4,0Z"/><path class="cls-6" d="M19.3,7a1.7,1.7,0,1,1-3.4,0,1.75,1.75,0,0,1,1.7-1.7A1.69,1.69,0,0,1,19.3,7Z"/><path class="cls-6" d="M34.7,20.4A1.7,1.7,0,1,1,33,18.7a1.69,1.69,0,0,1,1.7,1.7Z"/><path class="cls-6" d="M28.9,20.4a1.7,1.7,0,1,1-1.7-1.7,1.69,1.69,0,0,1,1.7,1.7Z"/><path class="cls-6" d="M32,33.5H28.1a1.5,1.5,0,0,1,0-3H32A1.54,1.54,0,0,1,33.5,32,1.47,1.47,0,0,1,32,33.5Z"/><path class="cls-6" d="M15.5,20.4a1.7,1.7,0,1,1-1.7-1.7,1.63,1.63,0,0,1,1.7,1.7Z"/><path class="cls-6" d="M9.7,20.4A1.75,1.75,0,0,1,8,22.1a1.7,1.7,0,1,1,0-3.4,1.63,1.63,0,0,1,1.7,1.7Z"/><path class="cls-6" d="M12.9,33.5H9a1.5,1.5,0,0,1,0-3h3.9a1.5,1.5,0,0,1,0,3Z"/><path class="cls-5" d="M23.4,9.2A2.2,2.2,0,1,1,25.6,7a2.22,2.22,0,0,1-2.2,2.2Zm0-3.4a1.3,1.3,0,1,0,1.3,1.3A1.32,1.32,0,0,0,23.4,5.8Z"/><path class="cls-5" d="M17.6,9.2A2.2,2.2,0,1,1,19.8,7a2.22,2.22,0,0,1-2.2,2.2Zm0-3.4a1.3,1.3,0,1,0,1.3,1.3A1.32,1.32,0,0,0,17.6,5.8Z"/><path class="cls-5" d="M33,22.6a2.2,2.2,0,1,1,2.2-2.2A2.22,2.22,0,0,1,33,22.6Zm0-3.5a1.3,1.3,0,1,0,1.3,1.3A1.4,1.4,0,0,0,33,19.1Z"/><path class="cls-5" d="M27.2,22.6a2.2,2.2,0,1,1,2.2-2.2,2.22,2.22,0,0,1-2.2,2.2Zm0-3.5a1.3,1.3,0,1,0,1.3,1.3,1.4,1.4,0,0,0-1.3-1.3Z"/><path class="cls-5" d="M32,34H28.1a2,2,0,0,1,0-4H32a2,2,0,0,1,0,4Zm-3.9-3.1a1.1,1.1,0,1,0,0,2.2H32a1.1,1.1,0,0,0,0-2.2Z"/><path class="cls-5" d="M13.8,22.6A2.2,2.2,0,1,1,16,20.4a2.22,2.22,0,0,1-2.2,2.2Zm0-3.5a1.3,1.3,0,1,0,1.3,1.3,1.32,1.32,0,0,0-1.3-1.3Z"/><path class="cls-5" d="M8,22.6a2.2,2.2,0,1,1,2.2-2.2A2.22,2.22,0,0,1,8,22.6Zm0-3.5a1.3,1.3,0,1,0,1.3,1.3A1.32,1.32,0,0,0,8,19.1Z"/><path class="cls-5" d="M12.9,34H9a2,2,0,0,1,0-4h3.9a2,2,0,0,1,0,4ZM9,30.9a1.1,1.1,0,1,0,0,2.2h3.9a1.1,1.1,0,0,0,0-2.2Z"/></svg>