<svg id="Hero" xmlns="http://www.w3.org/2000/svg" viewBox="0 0 41 41"><defs><style>.cls-1{fill:#d3e6f8;}.cls-2{fill:#a4cff2;}.cls-3{fill:#4c4372;}.cls-4{fill:#7babf1;}.cls-5{fill:#0f7cff;}</style></defs><title>robotics-5-blue</title><path class="cls-1" d="M40,14.15,37.84,11a5,5,0,1,0-7.53,4.31h0a5.77,5.77,0,0,0,1.61.59l5.22,1.88a2.4,2.4,0,0,0,3-1.23A2.15,2.15,0,0,0,40,14.15Z"/><path class="cls-1" d="M25.84,15.6A5.3,5.3,0,0,0,22,17.22H13.24A6.19,6.19,0,1,0,7,27.12L6,22A1.82,1.82,0,0,1,7.37,19.8a1.77,1.77,0,0,1,2.16,1.45l1.07,5.6a6.72,6.72,0,0,0,2.1-1.4h9.75a3.32,3.32,0,0,0,.8.49l1.35-5.17a1.8,1.8,0,0,1,2.21-1.29,1.86,1.86,0,0,1,1.34,2.2l-1.24,4.79A5.49,5.49,0,0,0,25.84,15.6Z"/><path class="cls-2" d="M25.84,15.6a5.81,5.81,0,0,0-1.35.16,5.5,5.5,0,0,1,4.15,5.33,5.55,5.55,0,0,1-1.13,3.34l-.54,2a5.45,5.45,0,0,0,4.36-5.38,5.56,5.56,0,0,0-5.49-5.49Z"/><path class="cls-3" d="M7,27.61H6.89a6.69,6.69,0,0,1-3.71-2.32,6.53,6.53,0,0,1-1.46-4.2,6.62,6.62,0,0,1,6.62-6.62,6.76,6.76,0,0,1,5.06,2.32h8.35A5.93,5.93,0,1,1,27,26.91a.45.45,0,0,1-.54-.38v-.22l1.24-4.79a1.13,1.13,0,0,0-.16-1,1.35,1.35,0,0,0-.86-.65c-.11,0-.22-.05-.32-.05a1.38,1.38,0,0,0-1.3,1L23.74,26a.46.46,0,0,1-.59.32c-.06,0-.06,0-.11,0a2.76,2.76,0,0,1-.75-.49H12.92a5.93,5.93,0,0,1-2.1,1.35.5.5,0,0,1-.38,0,.36.36,0,0,1-.21-.32L9.15,21.2a1.33,1.33,0,0,0-1.34-1.08c-.11,0-.22,0-.27.06a1.34,1.34,0,0,0-1,1.56l1,5.17V27c0,.38-.21.6-.48.6ZM8.34,15.39a5.74,5.74,0,0,0-5.7,5.7,5.86,5.86,0,0,0,3.71,5.38l-.86-4.41a2.32,2.32,0,0,1,1.78-2.69,1.57,1.57,0,0,1,.48-.05A2.29,2.29,0,0,1,10,21.15l1,5a6.54,6.54,0,0,0,1.4-1A.47.47,0,0,1,12.7,25h9.75a.41.41,0,0,1,.27.11c.05.05.16.1.21.16l1.19-4.58a2.28,2.28,0,0,1,2.2-1.72,2,2,0,0,1,.54,0,2.32,2.32,0,0,1,1.4,1.08,2.42,2.42,0,0,1,.27,1.72l-1,4a5,5,0,0,0,3.23-4.68,5,5,0,0,0-5-5,5.11,5.11,0,0,0-3.55,1.45.47.47,0,0,1-.33.16H13.13a.47.47,0,0,1-.37-.16,5.51,5.51,0,0,0-4.42-2.15Z"/><path class="cls-2" d="M30.09,38.8H25.84a1.85,1.85,0,0,1-1.78-1.4l-1.67-7a3.49,3.49,0,0,1,0-1l2.21-8.61a1.8,1.8,0,0,1,2.21-1.29,1.86,1.86,0,0,1,1.34,2.2l-2,7.76a1.62,1.62,0,0,0,0,1l1.13,4.68h.32a2.51,2.51,0,0,1,2.48,2.48V38.8Z"/><path class="cls-2" d="M11.84,38.8H6.57A1.81,1.81,0,0,1,4.9,36.27l2.42-5.54a2.77,2.77,0,0,0,.16-1.35L6,21.9a1.82,1.82,0,0,1,1.4-2.15A1.77,1.77,0,0,1,9.58,21.2l1.67,8.56a2,2,0,0,1-.16,1.34l-1.78,4a2.51,2.51,0,0,1,2.48,2.48V38.8Z"/><path class="cls-2" d="M40,14.15,37.84,11a5,5,0,0,0-5-5,8.47,8.47,0,0,0-1.13.1A5,5,0,0,1,35.58,11l2.15,3.18a2.38,2.38,0,0,1,.17,2.47,2.52,2.52,0,0,1-1.13,1.13l.26.11a2.42,2.42,0,0,0,3-1.24A2.1,2.1,0,0,0,40,14.15Z"/><path class="cls-4" d="M35.53,13.45l4.95,1.88a2.2,2.2,0,0,0-.43-1.18L37.9,11a2.32,2.32,0,0,0-.06-.64l-4.57-2.1a4,4,0,0,0,2.26,5.22Z"/><path class="cls-4" d="M30.31,15.33h0a5,5,0,0,1-1.94-2l-1.56,2.42A5.51,5.51,0,0,1,30,17.54l1.19-1.83a6.45,6.45,0,0,1-.86-.38Z"/><path class="cls-4" d="M32.08,6.07l-.64-3.55s-3.13.81-3.13,5.6a2.32,2.32,0,0,0,.06.64,5,5,0,0,1,3.71-2.69Z"/><path class="cls-3" d="M3.34,13.45l1.13,3.12-.86.32L2.48,13.77Z"/><path class="cls-3" d="M30,18a.46.46,0,0,1-.37-.16,5.21,5.21,0,0,0-2.91-1.67.44.44,0,0,1-.38-.53c0-.06.06-.11.06-.17l1.56-2.42a.49.49,0,0,1,.43-.21.38.38,0,0,1,.37.27A4.83,4.83,0,0,0,30.47,15h0a5.21,5.21,0,0,0,.75.37.43.43,0,0,1,.27.59c0,.06,0,.06,0,.11l-1.19,1.83c.06.11-.11.16-.27.16Zm-2.37-2.58a5.66,5.66,0,0,1,2.32,1.4l.54-.86a1.49,1.49,0,0,1-.38-.22h0a5.65,5.65,0,0,1-1.72-1.56Z"/><path class="cls-3" d="M28.37,9.2h-.11a.48.48,0,0,1-.38-.44c0-.21-.05-.43-.05-.69a6.44,6.44,0,0,1,1.72-4.9A4.25,4.25,0,0,1,31.33,2a.47.47,0,0,1,.38,0,.49.49,0,0,1,.21.32L32.57,6a.5.5,0,0,1-.11.37c-.05.11-.16.16-.32.22A4.64,4.64,0,0,0,28.74,9c0,.11-.16.22-.37.22Zm2.74-6c-.7.37-2,1.45-2.26,4.09A5.18,5.18,0,0,1,31.54,5.7Z"/><path class="cls-3" d="M30.09,39.29H25.84a2.2,2.2,0,0,1-2.21-1.78l-1.67-7a2.37,2.37,0,0,1,0-1.24l2.21-8.61a2.29,2.29,0,0,1,2.21-1.72,1.91,1.91,0,0,1,.53,0,2.3,2.3,0,0,1,1.4,1.08,2.37,2.37,0,0,1,.27,1.72l-2,7.75a2.21,2.21,0,0,0,0,.81l1,4.36a2.94,2.94,0,0,1,2.91,3v1.19a.46.46,0,0,1-.43.43ZM26.38,19.91a1.38,1.38,0,0,0-1.3,1l-2.2,8.61a1.84,1.84,0,0,0,0,.81l1.67,7a1.37,1.37,0,0,0,1.29,1h3.77v-.7a2,2,0,0,0-2-2h-.32a.42.42,0,0,1-.43-.38l-1.13-4.68a2.37,2.37,0,0,1,0-1.24l2-7.75a1.12,1.12,0,0,0-.16-1A1.31,1.31,0,0,0,26.7,20a.74.74,0,0,0-.32-.05Z"/><path class="cls-3" d="M11.84,39.29H6.57a2.34,2.34,0,0,1-1.94-1,2.18,2.18,0,0,1-.16-2.15l2.42-5.54a1.75,1.75,0,0,0,.11-1H7L5.54,22.06a2.32,2.32,0,0,1,1.78-2.69,1.6,1.6,0,0,1,.49-.05,2.31,2.31,0,0,1,2.26,1.83l1.66,8.55a2.71,2.71,0,0,1-.16,1.62l-1.5,3.44a3,3,0,0,1,2.26,2.86V38.8a.58.58,0,0,1-.49.49Zm-3.93-10a2.67,2.67,0,0,1-.16,1.61L5.33,36.49a1.37,1.37,0,0,0,.11,1.29,1.32,1.32,0,0,0,1.13.59h4.84v-.7a2,2,0,0,0-2-2A.36.36,0,0,1,9,35.46.44.44,0,0,1,9,35l1.78-4a1.67,1.67,0,0,0,.1-1h0L9.2,21.41a1.32,1.32,0,0,0-1.34-1.07c-.11,0-.22,0-.27.05a1.33,1.33,0,0,0-1,1.56Z"/><path class="cls-3" d="M40.43,15.82a.2.2,0,0,1-.17-.06l-4.95-1.88a4.42,4.42,0,0,1-2.47-2.37,4.25,4.25,0,0,1-.06-3.44.64.64,0,0,1,.27-.27.42.42,0,0,1,.38,0L38,9.9a.4.4,0,0,1,.27.37c0,.22.06.38.06.59l2.1,3a2.8,2.8,0,0,1,.48,1.4.49.49,0,0,1-.48.54Zm-7-7a3.61,3.61,0,0,0,.22,2.26,3.43,3.43,0,0,0,2,1.89l4,1.56c-.06-.06-.06-.11-.11-.16l-2.15-3.18a.37.37,0,0,1-.11-.27v-.32Z"/><path class="cls-3" d="M38,18.45h0a3.29,3.29,0,0,1-1-.16l-5.17-1.88a5.08,5.08,0,0,1-1.72-.65h0a5.49,5.49,0,1,1,8.29-4.9l2.1,3a2.83,2.83,0,0,1,.21,2.91A3,3,0,0,1,38,18.45ZM30.58,14.9a5,5,0,0,0,1.5.54h.06l5.22,1.88a2.45,2.45,0,0,0,.7.11,1.94,1.94,0,0,0,1.77-1.13,1.89,1.89,0,0,0-.16-2l-2.15-3.18a.42.42,0,0,1-.11-.27,4.52,4.52,0,1,0-9,0A4.43,4.43,0,0,0,30.58,14.9Z"/><path class="cls-3" d="M11.3,31h-.05l-3.82-.65a.45.45,0,0,1-.38-.54.44.44,0,0,1,.54-.37h0l3.82.64a.45.45,0,0,1,.38.54.53.53,0,0,1-.49.38Z"/><path class="cls-3" d="M26.11,30.35H22.34a.48.48,0,0,1-.49-.48.49.49,0,0,1,.49-.49h3.77a.48.48,0,0,1,.48.49.47.47,0,0,1-.48.48Z"/><path class="cls-3" d="M4.9,38.26a.48.48,0,0,1-.49-.48.45.45,0,0,1,.06-.27,5.84,5.84,0,0,1,4.84-2.85.4.4,0,0,1,.43.48h0a.4.4,0,0,1-.48.43,5,5,0,0,0-4,2.42A.29.29,0,0,1,4.9,38.26Z"/><path class="cls-3" d="M24.22,38.32a.48.48,0,0,1-.48-.49.33.33,0,0,1,.05-.21,5.29,5.29,0,0,1,3.39-3,.43.43,0,0,1,.54.37.44.44,0,0,1-.37.54A4.33,4.33,0,0,0,24.6,38a.4.4,0,0,1-.38.33Z"/><path class="cls-5" d="M21.42,22.33H13.83a1.07,1.07,0,0,0-1.07,1.08v2H22.5v-2A1.08,1.08,0,0,0,21.42,22.33Z"/><path class="cls-5" d="M3.82,12.59a1.68,1.68,0,0,1-1.67,1.67,1.67,1.67,0,0,1,0-3.34A1.61,1.61,0,0,1,3.82,12.59Z"/><path class="cls-3" d="M22.5,25.94H12.76a.49.49,0,0,1-.49-.49v-2a1.56,1.56,0,0,1,1.56-1.56h7.59A1.56,1.56,0,0,1,23,23.41v2a.49.49,0,0,1-.49.49Zm-9.26-1H22V23.41a.6.6,0,0,0-.6-.6H13.83a.6.6,0,0,0-.59.6Z"/><path class="cls-3" d="M2.15,14.74a2.16,2.16,0,1,1,2.16-2.15,2.16,2.16,0,0,1-2.16,2.15Zm0-3.39a1.24,1.24,0,0,0,0,2.47,1.21,1.21,0,0,0,1.24-1.23A1.25,1.25,0,0,0,2.15,11.35Z"/></svg>