<svg id="Layer_1" data-name="Layer 1" xmlns="http://www.w3.org/2000/svg" viewBox="0 0 512 512"><defs><style>.cls-1{fill:#d4e1f4;}.cls-2{fill:#837fcb;}</style></defs><title>secured-purple</title><path class="cls-1" d="M156.4,388.7c-33-21.6-59.9-70.5-59.9-108.9V114.6L268.4,33.7l-29.6-14L57.3,105.1V270.4c0,38.4,26.9,87.2,59.9,108.9L238.8,459l12.4-8.1Z"/><path class="cls-2" d="M305.4,341.5h7.3a6,6,0,1,0,0-12h-1.3V308.7h20.9a5.93,5.93,0,0,0,7.2,4.5,6,6,0,0,0,4.7-5.9v-4.7a6,6,0,0,0-6-6H305.4a6,6,0,0,0-6,6v32.8a6,6,0,0,0,6,6.1Z"/><path class="cls-2" d="M305.4,405.3h32.8a6,6,0,0,0,6-6V366.5a6,6,0,0,0-6-6H305.4a6,6,0,0,0-6,6v32.8A6,6,0,0,0,305.4,405.3Zm6-32.8h20.8v20.8H311.4Z"/><path class="cls-2" d="M312.7,457.1h-1.3V436.3h20.8v.7a6,6,0,0,0,12,0h0v-6.7a6,6,0,0,0-6-6H305.4a6,6,0,0,0-6,6v32.8a6,6,0,0,0,6,6h7.3a6,6,0,0,0,0-12Z"/><path class="cls-2" d="M354.9,304.9,333.8,326l-6.9-6.9a6,6,0,0,0-8.5,8.5l11.1,11.1a6.1,6.1,0,0,0,8.5,0l25.3-25.3a6,6,0,1,0-8.4-8.5Z"/><path class="cls-2" d="M354.9,433.5l-21.1,21.1-6.9-6.9a6,6,0,1,0-8.6,8.4l.1.1,11.1,11.1a6.1,6.1,0,0,0,8.5,0L363.3,442a6.1,6.1,0,0,0,0-8.5,5.8,5.8,0,0,0-8.4,0Z"/><path class="cls-2" d="M425.7,313.1H382a6,6,0,0,0,0,12h43.7a6,6,0,0,0,0-12Z"/><path class="cls-2" d="M425.7,376.9H382a6,6,0,0,0,0,12h43.7a6,6,0,0,0,0-12Z"/><path class="cls-2" d="M425.7,440.7H382a6,6,0,0,0,0,12h43.7a6,6,0,0,0,0-12Z"/><path class="cls-2" d="M235.5,468.4a6.74,6.74,0,0,0,3.4-1l42.7-29.1-6.8-9.9-39.3,26.8L122.1,377.8c-34.6-23.6-60.8-73-60.8-114.9V108L235.5,22.7l174.1,85.5V249h12V104.5a6,6,0,0,0-3.4-5.4L238.1,10.6a6.15,6.15,0,0,0-5.3,0L52.7,98.8a6,6,0,0,0-3.4,5.4V262.9c0,45.5,28.4,99.2,66,124.8l116.8,79.6a5.33,5.33,0,0,0,3.4,1.1Z"/><path class="cls-2" d="M377.4,230.9V133.7a6,6,0,0,0-3.4-5.4L238.1,61.6a6.15,6.15,0,0,0-5.3,0L97,128.2a6,6,0,0,0-3.4,5.4V260.9c0,32,21.5,72.6,47.9,90.6l90.6,61.8a6,6,0,0,0,6.8,0l37.3-25.5-6.8-9.9-34,23.2-87.2-59.5c-23.1-15.8-42.7-52.7-42.7-80.7V137.3L235.4,73.7l129.9,63.8v93.4Z"/><path class="cls-2" d="M433.7,243H408.1a23.2,23.2,0,0,0-22.6-18.1h-40A23.2,23.2,0,0,0,322.9,243H297.3a29.09,29.09,0,0,0-29,29V473a29.09,29.09,0,0,0,29,29H433.6a29.09,29.09,0,0,0,29-29V272A29,29,0,0,0,433.7,243Zm-99.3,5.1a11.18,11.18,0,0,1,11.2-11.2h40a11.18,11.18,0,0,1,11.2,11.2v.9a11.18,11.18,0,0,1-11.2,11.2h-40A11.18,11.18,0,0,1,334.4,249ZM450.6,473a17,17,0,0,1-17,17H297.4a17,17,0,0,1-17-17V272a17,17,0,0,1,17-17h25.8a23.14,23.14,0,0,0,22.4,17.1h40A23.23,23.23,0,0,0,408,255h25.8a17,17,0,0,1,17,17V473Z"/></svg>