<svg id="Layer_1" data-name="Layer 1" xmlns="http://www.w3.org/2000/svg" viewBox="0 0 464 464"><defs><style>.cls-1{fill:#837fcb;}.cls-2{fill:#4c616d;}</style></defs><title>secure-purple</title><path class="cls-1" d="M83.62,93.76v139.5a226.89,226.89,0,0,0,86.14,178.38L236.08,465l66.32-53.36a226.86,226.86,0,0,0,86.14-178.38V93.76A30.18,30.18,0,0,0,364.15,64L236.08,38.11,108,64C93.53,66.32,83.62,79.28,83.62,93.76Zm30.49,17.54a14.7,14.7,0,0,1,11.44-14.49l110.53-28.2L346.61,96.05a14.68,14.68,0,0,1,11.44,14.48V221.07c0,67.08-32,130.35-85.38,170.75l-36.59,27.44-36.59-27.44c-53.36-40.4-85.38-103.67-85.38-170.75Z"/><path class="cls-2" d="M237.61,0h-3.05L106.49,25.92A38.34,38.34,0,0,0,76,63.27v139.5c0,72.42,32,139.5,88.43,184.48l66.32,53.36.76.76a.74.74,0,0,1,.76.76c.76,0,1.53.76,3,.76a5.79,5.79,0,0,0,3.05-.76.74.74,0,0,0,.76-.76.74.74,0,0,0,.76-.76l66.32-53.36c57.94-45,90-112.06,90-184.48V63.27a38.34,38.34,0,0,0-30.49-37.35ZM380.92,63.27v139.5a219,219,0,0,1-83.09,172.28L243.7,418.5V392.58l33.55-25.15c55.64-41.17,88.42-107.49,88.42-176.86v-61a7.62,7.62,0,1,0-15.24,0v61A205.81,205.81,0,0,1,268.1,355.23l-36.59,27.44a6.93,6.93,0,0,0-3,6.1V418.5l-54.12-43.45A220.09,220.09,0,0,1,91.25,202.77V63.27c0-10.67,7.62-20.58,18.29-22.11L228.46,16.77V32L124,57.93A23.58,23.58,0,0,0,106.49,80.8V190.57c0,69.37,32.78,135.69,88.43,176.86a10.84,10.84,0,0,0,4.57,1.52,6.92,6.92,0,0,0,6.1-3.05,8.2,8.2,0,0,0-1.52-10.67,205.78,205.78,0,0,1-82.33-164.66V80.8a7.41,7.41,0,0,1,6.1-7.62L236.08,45.74,344.33,73.18a8.2,8.2,0,0,1,6.1,7.62V99.1a7.62,7.62,0,0,0,15.24,0V80.8c0-10.67-6.86-19.82-17.53-22.1L243.7,32V16.77L362.62,40.4A23.61,23.61,0,0,1,380.92,63.27Z"/><path class="cls-2" d="M261.24,154.75l-61,61a7.37,7.37,0,0,0,0,10.67,7.37,7.37,0,0,0,10.68,0l61-61a7.54,7.54,0,1,0-10.67-10.67Z"/><path class="cls-2" d="M205.59,198.2a7,7,0,0,0,5.34-2.29l30.49-30.49a7.54,7.54,0,0,0-10.67-10.67l-30.5,30.49a7.37,7.37,0,0,0,0,10.67A7,7,0,0,0,205.59,198.2Z"/><path class="cls-2" d="M261.24,185.24l-30.49,30.49a7.37,7.37,0,0,0,0,10.67,7.36,7.36,0,0,0,10.67,0l30.49-30.49a7.54,7.54,0,1,0-10.67-10.67Z"/></svg>