<svg id="Layer_1" data-name="Layer 1" xmlns="http://www.w3.org/2000/svg" viewBox="0 0 464 464"><defs><style>.cls-1{fill:#0f7cff;}.cls-2{fill:#4c616d;}</style></defs><title>shop-blue</title><path class="cls-1" d="M344,64a16,16,0,0,0,0-32H120a16,16,0,0,0,0,32h16L40,192a32,32,0,0,0,64,0,32,32,0,0,0,64,0,32,32,0,0,0,64,0,32,32,0,0,0,64,0,32,32,0,0,0,64,0,32,32,0,0,0,64,0L328,64Z"/><path class="cls-2" d="M24,464H440a24,24,0,0,0,0-48H400V207.2c17.6-4,31.2-19.2,32-37.6h0v-3.2c0-.8-.8-.8-.8-1.6V164L344,48h0a23.57,23.57,0,0,0,24-24A23.57,23.57,0,0,0,344,0H120A23.57,23.57,0,0,0,96,24a23.57,23.57,0,0,0,24,24h0L33.6,163.2c0,.8-.8.8-.8,1.6v.8c-.8,0-.8.8-.8,2.4h0v1.6h0c.8,18.4,14.4,34.4,32,37.6V416H24a24,24,0,0,0,0,48ZM112,24a7.56,7.56,0,0,1,8-8H344a7.56,7.56,0,0,1,8,8,7.56,7.56,0,0,1-8,8H325.6c-.8,0-.8.8-1.6.8h-.8v.8c-.8,0-.8.8-.8,1.6l-.8.8c0,.8,0,.8-.8,1.6v4.8c0,.8.8.8.8,1.6v.8L416,170.4c-.8,12-11.2,21.6-24,21.6a23.3,23.3,0,0,1-22.4-16H392a8,8,0,0,0,0-16H364.8L303.2,36.8Q300.8,32,296,32H120A7.56,7.56,0,0,1,112,24Zm77.6,24-28,112H116.8l56-112ZM158.4,176a23.68,23.68,0,0,1-44.8,0ZM200,160H178.4l28-112H224V168a23.57,23.57,0,0,1-24,24,23.3,23.3,0,0,1-22.4-16H200a8,8,0,0,0,0-16Zm64,0H240V48h17.6L288,168.8c0,12.8-11.2,23.2-24,23.2a23.3,23.3,0,0,1-22.4-16H264a8,8,0,0,0,0-16Zm38.4,0-28-112h16.8l56,112Zm48,16a23.68,23.68,0,0,1-44.8,0ZM49.6,176H72a8,8,0,0,0,0-16H56L140,48h15.2L96.8,164.8h0c-.8.8-.8,1.6-.8,3.2a23.57,23.57,0,0,1-24,24A23.3,23.3,0,0,1,49.6,176ZM80,207.2A44.56,44.56,0,0,0,104,192a40,40,0,0,0,64,0,40,40,0,0,0,64,0,40,40,0,0,0,64,0,40,40,0,0,0,64,0,37.06,37.06,0,0,0,24,15.2V416H80ZM24,432H440a8,8,0,0,1,0,16H24a8,8,0,0,1,0-16Z"/><path class="cls-2" d="M200,224H104a7.56,7.56,0,0,0-8,8V392a7.56,7.56,0,0,0,8,8h96a7.56,7.56,0,0,0,8-8V232A7.56,7.56,0,0,0,200,224Zm-8,160H112V240h80Z"/><path class="cls-2" d="M360,224H232a7.56,7.56,0,0,0-8,8V360a7.56,7.56,0,0,0,8,8H360a7.56,7.56,0,0,0,8-8V232A7.56,7.56,0,0,0,360,224Zm-8,128H240V240H352Z"/><path class="cls-2" d="M264,336a7.26,7.26,0,0,0,5.6-2.4l64-64a7.92,7.92,0,0,0-11.2-11.2l-64,64a7.73,7.73,0,0,0,0,11.2A7.26,7.26,0,0,0,264,336Z"/><path class="cls-2" d="M264,304a7.26,7.26,0,0,0,5.6-2.4l32-32a7.92,7.92,0,0,0-11.2-11.2l-32,32a7.73,7.73,0,0,0,0,11.2A7.26,7.26,0,0,0,264,304Z"/><path class="cls-2" d="M322.4,290.4l-32,32a7.73,7.73,0,0,0,0,11.2,7.73,7.73,0,0,0,11.2,0l32-32a7.92,7.92,0,0,0-11.2-11.2Z"/><circle class="cls-2" cx="168" cy="296" r="16"/><path class="cls-2" d="M328,384H264a8,8,0,0,0,0,16h64a8,8,0,0,0,0-16Z"/></svg>