<svg id="Layer_1" data-name="Layer 1" xmlns="http://www.w3.org/2000/svg" viewBox="0 0 464 464"><defs><style>.cls-1{fill:#8c8cf9;}.cls-2{fill:#4c616d;}</style></defs><title>spaceship-core</title><path class="cls-1" d="M190.4,374.4a31.59,31.59,0,0,0,22.4,9.6h37.6c8.8,0,16.8-3.2,22.4-9.6L296,352H168Z"/><circle class="cls-1" cx="232" cy="96" r="32"/><path class="cls-2" d="M224,392v64a8,8,0,0,0,16,0V392a8,8,0,0,0-16,0Z"/><path class="cls-2" d="M208,392a8,8,0,0,0-16,0v32a8,8,0,0,0,16,0Z"/><path class="cls-2" d="M256,392v32a8,8,0,0,0,16,0V392a8,8,0,0,0-16,0Z"/><path class="cls-2" d="M232,112a39.61,39.61,0,0,0,40-40,40,40,0,0,0-80,0A39.61,39.61,0,0,0,232,112Zm0-64a23.57,23.57,0,0,1,24,24,24,24,0,0,1-48,0A23.57,23.57,0,0,1,232,48Z"/><path class="cls-2" d="M200,240a7.26,7.26,0,0,0,5.6-2.4l64-64a7.92,7.92,0,1,0-11.2-11.2l-64,64a7.73,7.73,0,0,0,0,11.2A7.26,7.26,0,0,0,200,240Z"/><path class="cls-2" d="M200,208a7.26,7.26,0,0,0,5.6-2.4l32-32a7.92,7.92,0,0,0-11.2-11.2l-32,32a7.73,7.73,0,0,0,0,11.2A7.26,7.26,0,0,0,200,208Z"/><path class="cls-2" d="M258.4,194.4l-32,32a7.73,7.73,0,0,0,0,11.2,7.73,7.73,0,0,0,11.2,0l32-32a7.92,7.92,0,1,0-11.2-11.2Z"/><path class="cls-2" d="M64,296a7.56,7.56,0,0,0,8,8h56.8A40,40,0,0,0,164,336l20.8,20.8c7.2,7.2,17.6,12,28,12h37.6a37.53,37.53,0,0,0,28-12L299.2,336a39.08,39.08,0,0,0,35.2-32H392a7.56,7.56,0,0,0,8-8,79.64,79.64,0,0,0-70.4-79.2h-2.4l-16-146.4a79.75,79.75,0,0,0-158.4,0l-16,146.4h-2.4A79.64,79.64,0,0,0,64,296Zm186.4,56H212.8c-6.4,0-12.8-2.4-16.8-7.2l-8.8-8.8h89.6l-8.8,8.8A24.82,24.82,0,0,1,250.4,352Zm132.8-64h-48l-6.4-55.2C357.6,236.8,380,260,383.2,288ZM168.8,72.8C172.8,40,199.2,16,232,16s59.2,24,63.2,56.8L320,296c0,12.8-11.2,24-24,24H168a23.3,23.3,0,0,1-22.4-16H296a8,8,0,0,0,0-16H144.8Zm-33.6,160L128.8,288h-48C84,260,106.4,236.8,135.2,232.8Z"/><path class="cls-2" d="M0,408a55.66,55.66,0,0,0,56,56h96a23.92,23.92,0,0,0,18.4-8.8A24.84,24.84,0,0,0,176,436c-1.6-11.2-12.8-20-24.8-20a7.17,7.17,0,0,1-7.2-7.2V408h0a23.57,23.57,0,0,0-24-24c-4,0-8.8.8-12,3.2C100,366.4,79.2,352,56,352A55.66,55.66,0,0,0,0,408Zm96,0a8,8,0,0,0,16,0,8,8,0,1,1,8,8,8,8,0,0,0,0,16c6.4,0,11.2-2.4,16-5.6,4,4,9.6,5.6,15.2,5.6,4,0,8,3.2,8.8,6.4,0,2.4,0,4.8-1.6,6.4A7.28,7.28,0,0,1,152,448H56a40,40,0,0,1,0-80A39.61,39.61,0,0,1,96,408Z"/><path class="cls-2" d="M32,408a7.56,7.56,0,0,0,8,8,7.56,7.56,0,0,0,8-8,7.56,7.56,0,0,1,8-8,8,8,0,0,0,0-16A23.57,23.57,0,0,0,32,408Z"/><path class="cls-2" d="M408,352c-23.2,0-44,14.4-52,35.2-3.2-2.4-8-3.2-12-3.2a23.57,23.57,0,0,0-24,24h0v.8a7.17,7.17,0,0,1-7.2,7.2A25.71,25.71,0,0,0,288,436c-.8,7.2.8,14.4,5.6,19.2S304.8,464,312,464h96a56,56,0,0,0,0-112Zm0,96H312a7.28,7.28,0,0,1-6.4-3.2c-1.6-1.6-1.6-4-1.6-6.4.8-4,4.8-6.4,8.8-6.4a25.26,25.26,0,0,0,15.2-5.6c4,4,9.6,5.6,16,5.6a8,8,0,0,0,0-16,8,8,0,1,1,8-8,8,8,0,0,0,16,0,40,40,0,1,1,40,40Z"/><path class="cls-2" d="M424,400a7.56,7.56,0,0,0-8,8,7.56,7.56,0,0,1-8,8H392a8,8,0,0,0,0,16h16a23.57,23.57,0,0,0,24-24A7.56,7.56,0,0,0,424,400Z"/></svg>