<svg id="Layer_1" data-name="Layer 1" xmlns="http://www.w3.org/2000/svg" viewBox="0 0 464 464"><defs><style>.cls-1{fill:#f47d62;}.cls-2{fill:#4c616d;}</style></defs><title>business-orange</title><polygon class="cls-1" points="103.8 91.8 7.8 187.8 231.8 411.8 455.8 187.8 359.8 91.8 103.8 91.8"/><path class="cls-2" d="M.6,159c.8.8.8,1.6,1.6,2.4l224,224h.8l1.6,1.6h.8c.8,0,1.6.8,2.4.8a2.94,2.94,0,0,0,2.4-.8h.8a1.72,1.72,0,0,0,1.6-1.6h.8l224-224c.8-.8,1.6-1.6,1.6-2.4a8.76,8.76,0,0,0,0-6.4c-.8-.8-.8-1.6-1.6-2.4l-96-96a7.26,7.26,0,0,0-5.6-2.4h-256a7.26,7.26,0,0,0-5.6,2.4l-96,96c-.8.8-1.6,1.6-1.6,2.4A8.83,8.83,0,0,0,.6,159Zm436-11.2H359.8a8,8,0,0,0,0,16h76.8L255.8,344.6l80-185.6h0c0-.8.8-1.6.8-2.4h0v-.8a2.94,2.94,0,0,0-.8-2.4v-.8c0-.8-.8-1.6-1.6-2.4h0L251,67.8H356.6ZM107,67.8H228.6l80,80H295.8a8,8,0,0,0,0,16h20l-84,196-84-196h116a8,8,0,0,0,0-16H155l50.4-50.4a7.92,7.92,0,1,0-11.2-11.2l-64,64h0c-.8.8-.8,1.6-1.6,2.4v.8a2.94,2.94,0,0,1-.8,2.4v.8h0a2.94,2.94,0,0,0,.8,2.4h0l80,185.6L27,163.8h76.8a8,8,0,1,0,0-16H27Z"/><path class="cls-2" d="M98.2,129.4a7.73,7.73,0,0,0,11.2,0l32-32a7.92,7.92,0,1,0-11.2-11.2l-32,32A7.73,7.73,0,0,0,98.2,129.4Z"/><path class="cls-2" d="M322.2,97.4l32,32a7.73,7.73,0,0,0,11.2,0,7.73,7.73,0,0,0,0-11.2l-32-32a7.92,7.92,0,1,0-11.2,11.2Z"/><path class="cls-2" d="M231.8,243.8a7.56,7.56,0,0,0-8,8v32a8,8,0,0,0,16,0v-32A7.56,7.56,0,0,0,231.8,243.8Z"/></svg>