<svg id="Layer_1" data-name="Layer 1" xmlns="http://www.w3.org/2000/svg" viewBox="0 0 464 464"><defs><style>.cls-1{fill:#00d1b2;}.cls-2{fill:#4c616d;}</style></defs><title>chrono-teal</title><path class="cls-1" d="M264,104V72h16a16,16,0,0,0,0-32H184a16,16,0,0,0,0,32h16v32Z"/><path class="cls-1" d="M72,296c0,88,72,160,160,160s160-72,160-160S320,136,232,136,72,208,72,296ZM232,168c70.4,0,128,57.6,128,128S302.4,424,232,424,104,366.4,104,296,161.6,168,232,168Z"/><path class="cls-2" d="M32,264c0,110.4,89.6,200,200,200s200-89.6,200-200c0-60-27.2-114.4-69.6-151.2L376,99.2l10.4,10.4a7.73,7.73,0,0,0,11.2,0,7.73,7.73,0,0,0,0-11.2l-32-32a7.92,7.92,0,0,0-11.2,11.2L364.8,88l-14.4,14.4A197.71,197.71,0,0,0,272,68V48h8a23.57,23.57,0,0,0,24-24A23.57,23.57,0,0,0,280,0H184a23.57,23.57,0,0,0-24,24,23.57,23.57,0,0,0,24,24h8V68a197.71,197.71,0,0,0-78.4,34.4L99.2,88l10.4-10.4A7.92,7.92,0,0,0,98.4,66.4L68,96.8A7.73,7.73,0,0,0,68,108a8.64,8.64,0,0,0,5.6,2.4,8.64,8.64,0,0,0,5.6-2.4L88,99.2l13.6,13.6C59.2,149.6,32,204,32,264Zm384,0c0,101.6-82.4,184-184,184S48,365.6,48,264,130.4,80,232,80,416,162.4,416,264ZM208,48h24a7.56,7.56,0,0,0,8-8,7.56,7.56,0,0,0-8-8H184a7.56,7.56,0,0,1-8-8,7.56,7.56,0,0,1,8-8h96a7.56,7.56,0,0,1,8,8,7.56,7.56,0,0,1-8,8H264a7.56,7.56,0,0,0-8,8V65.6c-8-.8-16-1.6-24-1.6s-16,.8-24,1.6Z"/><path class="cls-2" d="M232,416a152,152,0,0,1,0-304,8,8,0,0,0,0-16A168,168,0,1,0,400,264a8,8,0,0,0-16,0A151.93,151.93,0,0,1,232,416Z"/><path class="cls-2" d="M232,128a7.56,7.56,0,0,0-8,8v32a8,8,0,0,0,16,0V144c62.4,4,112,56,112,120S302.4,380,240,384V360a8,8,0,0,0-16,0v32a7.56,7.56,0,0,0,8,8,136,136,0,0,0,0-272Z"/><circle class="cls-2" cx="144" cy="176" r="8"/><circle class="cls-2" cx="112" cy="264" r="8"/><circle class="cls-2" cx="144" cy="352" r="8"/><path class="cls-2" d="M301.6,194.4a7.73,7.73,0,0,0-11.2,0l-36,36A43,43,0,0,0,232,224a40,40,0,1,0,40,40,43,43,0,0,0-6.4-22.4l36-36A7.73,7.73,0,0,0,301.6,194.4ZM256,264a24,24,0,1,1-24-24,22.14,22.14,0,0,1,10.4,2.4l-16,16a7.73,7.73,0,0,0,0,11.2,7.73,7.73,0,0,0,11.2,0l16-16A22.14,22.14,0,0,1,256,264Z"/></svg>