<svg id="Layer_1" data-name="Layer 1" xmlns="http://www.w3.org/2000/svg" viewBox="0 0 180 170"><defs><style>.cls-1,.cls-2{fill:none;}.cls-1{stroke:#4c626e;stroke-miterlimit:10;stroke-width:5px;}.cls-2{stroke:#4a00e0;stroke-linecap:round;stroke-linejoin:round;stroke-width:4px;}</style></defs><title>credit-card-night</title><line class="cls-1" x1="24.8" y1="58.2" x2="155.2" y2="58.2"/><line class="cls-1" x1="24.8" y1="79.4" x2="155.2" y2="79.4"/><path class="cls-1" d="M91.5,128H36.9a12.08,12.08,0,0,1-12.1-12.1V46.1A12.08,12.08,0,0,1,36.9,34H143.1a12.08,12.08,0,0,1,12.1,12.1V88.6"/><line class="cls-1" x1="97.6" y1="67.3" x2="97.6" y2="70.3"/><line class="cls-1" x1="109.7" y1="67.3" x2="109.7" y2="70.3"/><line class="cls-1" x1="121.9" y1="67.3" x2="121.9" y2="70.3"/><line class="cls-1" x1="134" y1="67.3" x2="134" y2="70.3"/><path class="cls-2" d="M143.1,146.2H118.8a6.06,6.06,0,0,1-6.1-6.1V121.9h36.4v18.2A6,6,0,0,1,143.1,146.2Z"/><path class="cls-2" d="M114.3,118.1a16.7,16.7,0,1,1,33.4,0"/></svg>