<svg id="Layer_1" data-name="Layer 1" xmlns="http://www.w3.org/2000/svg" viewBox="0 0 500 340"><defs><style>.cls-1{opacity:0.3;}.cls-2{fill:#aae8d8;}.cls-3{fill:#23e2af;}.cls-4{fill:#fff;}.cls-5{fill:#eaeafd;}.cls-6{fill:#00b289;}.cls-7{opacity:0.5;}.cls-8{fill:#9ee8d5;}.cls-9{fill:#8addc7;}.cls-10{fill:#d7fff4;}</style></defs><g class="cls-1"><path class="cls-2" d="M449.26,309.71a192.8,192.8,0,0,0-16.64-78.59,61,61,0,0,0-73-84.66,192.41,192.41,0,0,0-103.72-30.15q-7.12,0-14.13.51a49.8,49.8,0,0,0-76.49,22,193.78,193.78,0,0,0-40.34,28.58,55.19,55.19,0,0,0-67.46,53.83,55,55,0,0,0,12.51,35,193.6,193.6,0,0,0-7.49,53.45Z"/></g><g class="cls-1"><path class="cls-2" d="M396.35,309.71a140.49,140.49,0,0,0-281,0Z"/></g><g class="cls-1"><path class="cls-2" d="M468.82,235.89a11,11,0,1,1-11-11A11,11,0,0,1,468.82,235.89Z"/></g><g class="cls-1"><circle class="cls-2" cx="298.1" cy="98.5" r="16.97" transform="translate(133.54 365.87) rotate(-76.67)"/></g><g class="cls-1"><path class="cls-2" d="M143.15,140a7.27,7.27,0,1,1-7.27-7.27A7.27,7.27,0,0,1,143.15,140Z"/></g><g class="cls-1"><circle class="cls-2" cx="364.81" cy="126.64" r="7.27"/></g><g class="cls-1"><path class="cls-2" d="M211.8,77.48a7.27,7.27,0,1,1-7.27-7.27A7.28,7.28,0,0,1,211.8,77.48Z"/></g><g class="cls-1"><path class="cls-2" d="M456.81,262.54a3,3,0,1,1-3-3A3,3,0,0,1,456.81,262.54Z"/></g><g class="cls-1"><path class="cls-2" d="M363.62,75.24A2.24,2.24,0,1,1,361.38,73,2.24,2.24,0,0,1,363.62,75.24Z"/></g><g class="cls-1"><circle class="cls-2" cx="138.76" cy="86.4" r="2.92"/></g><g class="cls-1"><path class="cls-2" d="M20.47,151.51a3.88,3.88,0,1,1-3.88-3.88A3.88,3.88,0,0,1,20.47,151.51Z"/></g><g class="cls-1"><path class="cls-2" d="M487.29,179.92a3.88,3.88,0,1,1-3.88-3.88A3.88,3.88,0,0,1,487.29,179.92Z"/></g><g class="cls-1"><circle class="cls-2" cx="78.9" cy="135.82" r="16.44"/></g><g class="cls-1"><path class="cls-2" d="M34.37,255.72a3.88,3.88,0,1,1-3.88-3.88A3.88,3.88,0,0,1,34.37,255.72Z"/></g><g class="cls-1"><path class="cls-2" d="M462.74,140a15.95,15.95,0,1,1-15.94-16A15.94,15.94,0,0,1,462.74,140Z"/></g><g class="cls-1"><circle class="cls-2" cx="30.49" cy="211.99" r="15.66"/></g><path class="cls-3" d="M436.47,211.73a31.53,31.53,0,0,0,3.91-9.46l12.53-2.88v-10l-12.53-1.73a31.43,31.43,0,0,0-3.91-9.46l6-9.24-7.1-7.1-9.23,6a31.61,31.61,0,0,0-9.37-3.89l-1.91-10.49-10,0-2.71,10.47a31.74,31.74,0,0,0-9.46,3.89l-9.26-5.89-7.1,7.07,6,9.15a31.68,31.68,0,0,0-3.93,9.45l-11,1.86,0,10,11,2.76a31.74,31.74,0,0,0,3.89,9.46l-5.95,9.27,7.09,7.09,9.2-6A31.76,31.76,0,0,0,402,226h0a18.4,18.4,0,0,0,14.2.19l.45-.18a31.51,31.51,0,0,0,9.46-3.9l9.29,6,7.1-7.09Z"/><path class="cls-4" d="M425.94,210.68a22.8,22.8,0,1,1,0-32.25A22.81,22.81,0,0,1,425.94,210.68Z"/><path class="cls-5" d="M425.94,178.43a22.69,22.69,0,0,0-15.49-6.65,22.78,22.78,0,0,1-8.88,44,22.79,22.79,0,0,0,24.37-37.37Z"/><path class="cls-3" d="M415.15,234.73a.56.56,0,0,0-.55-.56H404.14a.56.56,0,0,0-.56.56v76h11.57Z"/><path class="cls-4" d="M408.16,310.68h7v-76a.56.56,0,0,0-.55-.56h-6.44Z"/><path class="cls-6" d="M436.1,229.87l-9.57-6.18a33.38,33.38,0,0,1-9,3.55l-.78-3.3a30.1,30.1,0,0,0,9-3.7l.91-.56,9.05,5.85,5.15-5.15-5.87-9,.57-.91a29.78,29.78,0,0,0,3.7-8.95l.25-1,12.24-2.82v-7.2l-12.21-1.68-.27-1.14a30,30,0,0,0-3.7-8.95l-.57-.91,5.82-9-5.15-5.15-9,5.82-.92-.56a29.76,29.76,0,0,0-8.86-3.69l-1.08-.25-1.86-10.19H406.6L404,164.93l-1,.23a30.16,30.16,0,0,0-9,3.68l-.91.56-9-5.74-5.16,5.15,5.82,8.89-.57.92a29.83,29.83,0,0,0-3.72,8.95l-.26,1.09-10.7,1.81,0,7.27,10.72,2.69.23,1a30,30,0,0,0,3.69,8.95l.56.91-5.79,9,5.15,5.15,8.95-5.83.92.57a30.06,30.06,0,0,0,8.95,3.71l-.78,3.31a33.43,33.43,0,0,1-9-3.57l-9.46,6.16-9-9,6.12-9.54a33.54,33.54,0,0,1-3.3-8l-11.3-2.83,0-12.79,11.32-1.91a33.4,33.4,0,0,1,3.3-7.92l-6.16-9.42,9.05-9,9.52,6.06a33.78,33.78,0,0,1,8-3.3L404,151.33l12.77,0,2,10.81a33,33,0,0,1,7.86,3.26l9.51-6.15,9,9-6.15,9.51a33,33,0,0,1,3.28,7.9l12.86,1.77v12.87l-12.83,2.95a32.88,32.88,0,0,1-3.31,8l6.21,9.53Z"/><path class="cls-6" d="M409.82,219a24.49,24.49,0,1,1,17.32-41.81h0A24.49,24.49,0,0,1,409.82,219Zm0-45.58a21.1,21.1,0,1,0,14.92,6.17A21,21,0,0,0,409.82,173.46Z"/><path class="cls-6" d="M416.85,310.68h-3.4V235.87h-8.17v74.81h-3.39v-76a2.26,2.26,0,0,1,2.25-2.26H414.6a2.26,2.26,0,0,1,2.25,2.26Z"/><rect class="cls-6" x="408.07" y="221.66" width="3.4" height="11.19"/><polygon class="cls-6" points="404.05 206.87 394.47 197.29 396.87 194.89 404.05 202.07 421.52 184.6 423.92 187 404.05 206.87"/><path class="cls-6" d="M95.6,203.42H85.92a1.7,1.7,0,0,1,0-3.4H95.6a1.7,1.7,0,0,1,0,3.4Z"/><path class="cls-6" d="M90.76,208.26a1.7,1.7,0,0,1-1.7-1.7v-9.68a1.7,1.7,0,0,1,3.4,0v9.68A1.7,1.7,0,0,1,90.76,208.26Z"/><path class="cls-6" d="M67.29,122.77H57.61a1.7,1.7,0,1,1,0-3.4h9.68a1.7,1.7,0,0,1,0,3.4Z"/><path class="cls-6" d="M62.45,127.61a1.7,1.7,0,0,1-1.7-1.7v-9.68a1.7,1.7,0,0,1,3.4,0v9.68A1.7,1.7,0,0,1,62.45,127.61Z"/><path class="cls-6" d="M484.37,203.79h-9.68a1.7,1.7,0,1,1,0-3.4h9.68a1.7,1.7,0,0,1,0,3.4Z"/><path class="cls-6" d="M479.53,208.63a1.7,1.7,0,0,1-1.7-1.7v-9.68a1.7,1.7,0,0,1,3.4,0v9.68A1.7,1.7,0,0,1,479.53,208.63Z"/><path class="cls-6" d="M135.06,176a1.7,1.7,0,0,1-1.2-2.9l6.84-6.84a1.7,1.7,0,0,1,2.4,2.4l-6.84,6.84A1.71,1.71,0,0,1,135.06,176Z"/><path class="cls-6" d="M141.9,176a1.71,1.71,0,0,1-1.2-.5l-6.84-6.84a1.7,1.7,0,0,1,2.4-2.4l6.84,6.84a1.7,1.7,0,0,1-1.2,2.9Z"/><polygon class="cls-6" points="410.85 104.65 415.15 102.17 419.45 104.65 419.45 109.61 415.15 112.1 410.85 109.61 410.85 104.65"/><polygon class="cls-6" points="153.28 88.53 157.58 86.05 161.88 88.53 161.88 93.5 157.58 95.98 153.28 93.5 153.28 88.53"/><polygon class="cls-6" points="207.85 145.56 212.15 143.07 216.45 145.56 216.45 150.52 212.15 153 207.85 150.52 207.85 145.56"/><polygon class="cls-6" points="453.51 248.62 457.81 246.14 462.11 248.62 462.11 253.59 457.81 256.07 453.51 253.59 453.51 248.62"/><polygon class="cls-6" points="254.88 71.35 260.68 68 266.48 71.35 266.48 78.05 260.68 81.39 254.88 78.05 254.88 71.35"/><path class="cls-6" d="M332.55,100.2H236.71a1.7,1.7,0,0,1,0-3.4h95.84a1.7,1.7,0,0,1,0,3.4Z"/><path class="cls-6" d="M230.73,100.2h-5.5a1.7,1.7,0,1,1,0-3.4h5.5a1.7,1.7,0,1,1,0,3.4Z"/><path class="cls-6" d="M216.2,100.2h-9.68a1.7,1.7,0,0,1,0-3.4h9.68a1.7,1.7,0,1,1,0,3.4Z"/><path class="cls-6" d="M211.36,105a1.7,1.7,0,0,1-1.7-1.7V93.66a1.7,1.7,0,1,1,3.4,0v9.68A1.7,1.7,0,0,1,211.36,105Z"/><path class="cls-6" d="M278.67,125.71H269a1.7,1.7,0,1,1,0-3.39h9.68a1.7,1.7,0,1,1,0,3.39Z"/><path class="cls-6" d="M273.83,130.55a1.7,1.7,0,0,1-1.7-1.7v-9.67a1.7,1.7,0,1,1,3.4,0v9.67A1.7,1.7,0,0,1,273.83,130.55Z"/><path class="cls-6" d="M353.87,145.07a1.68,1.68,0,0,1-1.2-.49l-6.84-6.85a1.68,1.68,0,0,1,0-2.4,1.7,1.7,0,0,1,2.4,0l6.84,6.85a1.7,1.7,0,0,1,0,2.4A1.68,1.68,0,0,1,353.87,145.07Z"/><path class="cls-6" d="M347,145.07a1.69,1.69,0,0,1-1.2-2.89l6.84-6.85a1.7,1.7,0,0,1,2.4,2.4l-6.84,6.85A1.7,1.7,0,0,1,347,145.07Z"/><path class="cls-6" d="M124.26,172.62H65.06a1.7,1.7,0,1,1,0-3.4h59.2a1.7,1.7,0,0,1,0,3.4Z"/><path class="cls-6" d="M237.74,125.71H122.65a1.7,1.7,0,1,1,0-3.39H237.74a1.7,1.7,0,1,1,0,3.39Z"/><path class="cls-6" d="M451.54,142.48H361a1.7,1.7,0,1,1,0-3.39h90.56a1.7,1.7,0,1,1,0,3.39Z"/><path class="cls-6" d="M260.68,125.71h-10.9a1.7,1.7,0,1,1,0-3.39h10.9a1.7,1.7,0,1,1,0,3.39Z"/><polygon class="cls-6" points="75.56 256.25 78.89 254.32 82.23 256.25 82.23 260.1 78.89 262.02 75.56 260.1 75.56 256.25"/><rect class="cls-3" x="157.58" y="165.94" width="198.58" height="130.87"/><g class="cls-7"><polygon class="cls-8" points="282.8 165.94 260.65 165.94 157.58 269 157.58 291.16 282.8 165.94"/><polygon class="cls-8" points="157.58 202.2 157.58 254.64 246.28 165.94 193.84 165.94 157.58 202.2"/></g><path class="cls-4" d="M362.64,309.72H149.69a1,1,0,0,1-.94-.78l-4.56-23.73a1.1,1.1,0,0,1,1.08-1.31h96l5,5h19.84l5-5h96a1.11,1.11,0,0,1,1.09,1.31l-4.56,23.73A1,1,0,0,1,362.64,309.72Z"/><path class="cls-6" d="M362.64,311.42H149.69a2.66,2.66,0,0,1-2.61-2.17l-4.56-23.72a2.8,2.8,0,0,1,2.76-3.33H242l5,5h18.44l4.95-5h96.72a2.8,2.8,0,0,1,2.75,3.33l-4.55,23.73A2.68,2.68,0,0,1,362.64,311.42ZM150.3,308H362l4.31-22.42h-94.6l-5,5H245.54l-5-5H146Z"/><path class="cls-6" d="M357.9,284.28h-3.39V168.6H157.83V284.28h-3.4V168.4a3.2,3.2,0,0,1,3.2-3.2H354.71a3.19,3.19,0,0,1,3.19,3.2Z"/><rect class="cls-4" x="203.71" y="257.05" width="8.38" height="3.4"/><rect class="cls-4" x="222.86" y="257.05" width="8.38" height="3.4"/><rect class="cls-4" x="242.01" y="257.05" width="8.38" height="3.4"/><rect class="cls-4" x="261.16" y="257.05" width="8.38" height="3.4"/><rect class="cls-4" x="280.31" y="257.05" width="8.38" height="3.4"/><rect class="cls-4" x="299.45" y="257.05" width="8.38" height="3.4"/><rect class="cls-4" x="202.11" y="199.36" width="25.62" height="3.4"/><rect class="cls-4" x="189.43" y="218.24" width="38.3" height="3.4"/><rect class="cls-4" x="208.58" y="237.13" width="19.15" height="3.4"/><rect class="cls-4" x="184.43" y="237.13" width="14.42" height="3.4"/><rect class="cls-4" x="175.7" y="199.36" width="17.45" height="3.4"/><path class="cls-4" d="M197.79,207.39a6.34,6.34,0,1,1,6.33-6.33A6.34,6.34,0,0,1,197.79,207.39Zm0-9.27a2.94,2.94,0,1,0,2.94,2.94A2.94,2.94,0,0,0,197.79,198.12Z"/><path class="cls-4" d="M203.69,245.16a6.34,6.34,0,1,1,6.34-6.33A6.34,6.34,0,0,1,203.69,245.16Zm0-9.27a2.94,2.94,0,1,0,2.94,2.94A2.94,2.94,0,0,0,203.69,235.89Z"/><path class="cls-4" d="M180.55,245.16a6.34,6.34,0,1,1,6.33-6.33A6.34,6.34,0,0,1,180.55,245.16Zm0-9.27a2.94,2.94,0,1,0,2.94,2.94A2.94,2.94,0,0,0,180.55,235.89Z"/><path class="cls-4" d="M172.24,207.39a6.34,6.34,0,1,1,6.33-6.33A6.35,6.35,0,0,1,172.24,207.39Zm0-9.27a2.94,2.94,0,1,0,2.94,2.94A2.94,2.94,0,0,0,172.24,198.12Z"/><path class="cls-4" d="M185.18,226.28a6.34,6.34,0,1,1,6.34-6.34A6.35,6.35,0,0,1,185.18,226.28Zm0-9.28a2.94,2.94,0,1,0,2.94,2.94A2.94,2.94,0,0,0,185.18,217Z"/><rect class="cls-4" x="289.92" y="199.36" width="11.4" height="3.4"/><rect class="cls-4" x="289.92" y="218.24" width="22.81" height="3.4"/><rect class="cls-4" x="321.62" y="218.24" width="13.16" height="3.4"/><rect class="cls-4" x="289.92" y="237.13" width="9.17" height="3.4"/><rect class="cls-4" x="308.31" y="237.13" width="24.78" height="3.4"/><rect class="cls-4" x="311.04" y="199.36" width="13.17" height="3.4"/><path class="cls-4" d="M306.4,207.39a6.34,6.34,0,1,1,6.34-6.33A6.34,6.34,0,0,1,306.4,207.39Zm0-9.27a2.94,2.94,0,1,0,2.94,2.94A2.94,2.94,0,0,0,306.4,198.12Z"/><path class="cls-4" d="M303.83,245.16a6.34,6.34,0,1,1,6.33-6.33A6.34,6.34,0,0,1,303.83,245.16Zm0-9.27a2.94,2.94,0,1,0,2.94,2.94A2.94,2.94,0,0,0,303.83,235.89Z"/><path class="cls-4" d="M337,245.16a6.34,6.34,0,1,1,6.34-6.33A6.34,6.34,0,0,1,337,245.16Zm0-9.27a2.94,2.94,0,1,0,2.94,2.94A2.94,2.94,0,0,0,337,235.89Z"/><path class="cls-4" d="M328.62,207.39a6.34,6.34,0,1,1,6.33-6.33A6.34,6.34,0,0,1,328.62,207.39Zm0-9.27a2.94,2.94,0,1,0,2.94,2.94A2.94,2.94,0,0,0,328.62,198.12Z"/><path class="cls-4" d="M316.78,226.28a6.34,6.34,0,1,1,6.34-6.34A6.35,6.35,0,0,1,316.78,226.28Zm0-9.28a2.94,2.94,0,1,0,2.94,2.94A2.94,2.94,0,0,0,316.78,217Z"/><path class="cls-4" d="M339,226.28a6.34,6.34,0,1,1,6.34-6.34A6.35,6.35,0,0,1,339,226.28Zm0-9.28a2.94,2.94,0,1,0,2.94,2.94A2.94,2.94,0,0,0,339,217Z"/><rect class="cls-4" x="228.04" y="190" width="62.2" height="58.19" rx="0.19"/><path class="cls-2" d="M289.77,190h-7v50.23a.47.47,0,0,1-.46.47H228v7a.47.47,0,0,0,.47.47h61.26a.47.47,0,0,0,.47-.47V190.47A.47.47,0,0,0,289.77,190Z"/><path class="cls-6" d="M289.5,249.89H228.15a2.12,2.12,0,0,1-2.12-2.12V190.43a2.13,2.13,0,0,1,2.12-2.13H289.5a2.13,2.13,0,0,1,2.12,2.13v57.34A2.12,2.12,0,0,1,289.5,249.89Zm-60.08-3.4h58.8V191.7h-58.8Z"/><path class="cls-6" d="M282,190h-3.39V175.41a19.81,19.81,0,0,0-39.61,0V190h-3.39V175.41a23.2,23.2,0,1,1,46.39,0Z"/><path class="cls-6" d="M258.82,213.05a6.05,6.05,0,1,0,6.05,6A6,6,0,0,0,258.82,213.05Z"/><path class="cls-6" d="M258.82,232a12.92,12.92,0,1,1,12.93-12.92A12.94,12.94,0,0,1,258.82,232Zm0-22.45a9.53,9.53,0,1,0,9.53,9.53A9.53,9.53,0,0,0,258.82,209.57Z"/><g class="cls-1"><path class="cls-6" d="M367.06,282.2H357.9V220.12h-8.21l-2.57,10.21a35.76,35.76,0,0,0-8.8,3.63l-8.93-5.3-9.59,9.55,5.26,8.95a36.12,36.12,0,0,0-3.72,8.94l-9.42,2.95,0,13.5,9.43,2.21a36.72,36.72,0,0,0,3.64,8.83l-5.65,8.68,9.56,9.59,9.28-5a35.85,35.85,0,0,0,8.91,3.72l2.62,10.8,13.13,0a2.44,2.44,0,0,0,.47-.09l2.52-10.7c.4-.11.79-.24,1.19-.36l2.82-14.71a2.8,2.8,0,0,0-2.75-3.33Z"/></g><path class="cls-4" d="M406.46,270.94V260l-9.13-2.48a34.28,34.28,0,0,0-4.26-10.28l5.45-8.89-7.71-7.72-9,5.35a34.48,34.48,0,0,0-10.27-4.26l-2.51-9.91h-10.9l-2.5,9.91A34.44,34.44,0,0,0,345.46,236l-8.67-5.14-7.73,7.69,5.11,8.68a34.73,34.73,0,0,0-4.28,10.26l-9.14,2.87,0,10.91,9.12,2.14a34.36,34.36,0,0,0,4.25,10.28l-5.48,8.42,7.7,7.72,9-4.87a34.26,34.26,0,0,0,10.27,4.28l2.55,10.49,10.9,0,2.46-10.49A34.26,34.26,0,0,0,381.79,295l9,5.29,7.72-7.7-5.48-8.83a34.5,34.5,0,0,0,4.27-10.27Z"/><circle class="cls-9" cx="362.42" cy="265.27" r="21.31" transform="translate(-81.42 333.97) rotate(-45)"/><path class="cls-6" d="M362.42,288.28a23,23,0,1,1,23-23A23,23,0,0,1,362.42,288.28Zm0-42.62A19.61,19.61,0,1,0,382,265.27,19.64,19.64,0,0,0,362.42,245.66Z"/><path class="cls-6" d="M370.05,311.39l-13.58,0-2.62-10.8a35.85,35.85,0,0,1-8.91-3.72l-9.28,5-9.55-9.59,5.65-8.68a35.92,35.92,0,0,1-3.64-8.83l-9.44-2.21,0-13.5,9.42-2.95a36.15,36.15,0,0,1,3.73-8.94l-5.27-8.95,9.59-9.55,8.93,5.3a35.76,35.76,0,0,1,8.8-3.63l2.57-10.21H370l2.59,10.21A36.23,36.23,0,0,1,381.5,234l9.25-5.5,9.59,9.59-5.61,9.16a36.11,36.11,0,0,1,3.67,8.89l9.42,2.56V272.2l-9.43,2.61a35.91,35.91,0,0,1-3.68,8.88l5.64,9.1-9.6,9.57-9.29-5.44a36,36,0,0,1-8.87,3.68ZM359.14,308h8.22l2.4-10.2,1-.24a33,33,0,0,0,9.77-4l.86-.54,8.78,5.14,5.84-5.82-5.32-8.58.55-.9a32.52,32.52,0,0,0,4.06-9.76l.23-1,8.86-2.45v-8.31l-8.86-2.41-.23-1a32.48,32.48,0,0,0-4-9.77l-.55-.89,5.29-8.64-5.82-5.83-8.75,5.2-.87-.55a32.77,32.77,0,0,0-9.77-4.05l-1-.24-2.44-9.62h-8.26l-2.43,9.62-1,.24a32.53,32.53,0,0,0-9.68,4l-.88.53-8.42-5-5.86,5.83,5,8.43-.55.87a32.8,32.8,0,0,0-4.07,9.76l-.22.94-8.88,2.79,0,8.31,8.85,2.07.24,1a32.72,32.72,0,0,0,4,9.77l.57.92-5.32,8.17,5.83,5.85,8.77-4.73.84.52a32.52,32.52,0,0,0,9.76,4.06l1,.24Z"/><rect class="cls-6" x="360.77" y="232.5" width="4.65" height="3.4"/><rect class="cls-6" x="383.73" y="241.12" width="3.39" height="4.65" transform="translate(-59.32 343.55) rotate(-44.96)"/><rect class="cls-6" x="392.96" y="263.46" width="3.4" height="4.65"/><rect class="cls-6" x="383.05" y="286.4" width="4.65" height="3.39" transform="translate(-90.94 356.23) rotate(-44.92)"/><rect class="cls-6" x="361.33" y="294.99" width="3.4" height="4.65" transform="translate(64.94 659.71) rotate(-89.88)"/><rect class="cls-6" x="339.03" y="285.68" width="3.39" height="4.65" transform="translate(-103.95 324.17) rotate(-44.86)"/><rect class="cls-6" x="329.21" y="263.96" width="4.65" height="3.4" transform="translate(64.8 596.32) rotate(-89.81)"/><rect class="cls-6" x="338.54" y="241.66" width="4.65" height="3.4" transform="translate(-72.5 310.76) rotate(-44.79)"/><path class="cls-6" d="M373.14,273.74h-2.81a4,4,0,0,1-4-4v-9.27a4,4,0,0,1,4-4h2.81a4,4,0,0,1,4,4v9.27A4,4,0,0,1,373.14,273.74Zm-2.81-13.87a.6.6,0,0,0-.6.6v9.27a.6.6,0,0,0,.6.6h2.81a.6.6,0,0,0,.6-.6v-9.27a.6.6,0,0,0-.6-.6Z"/><rect class="cls-6" x="346.15" y="263.41" width="21.88" height="3.4"/><rect class="cls-6" x="348.57" y="265.11" width="3.4" height="7.11"/><rect class="cls-6" x="353.77" y="265.11" width="3.4" height="5.63"/><path class="cls-6" d="M375.44,270.36V267a1.86,1.86,0,1,0,0-3.71v-3.4a5.26,5.26,0,0,1,0,10.51Z"/><rect class="cls-6" x="370.49" y="263.41" width="2.49" height="3.4"/><g class="cls-1"><path class="cls-6" d="M153.83,311.41a2.06,2.06,0,0,0,1.17-.35l22.62-15.48a44.88,44.88,0,0,0,19.55-37.06V225.65a2.86,2.86,0,0,0-2.86-2.86H154.43V282.2h-9.15a2.8,2.8,0,0,0-2.76,3.33l4.11,21.4,6,4.12A2.07,2.07,0,0,0,153.83,311.41Z"/></g><path class="cls-4" d="M169.87,294.18l-22.62,15.47a.36.36,0,0,1-.42,0l-22.62-15.47a43.21,43.21,0,0,1-18.81-35.66V225.65a1.16,1.16,0,0,1,1.16-1.16h81a1.16,1.16,0,0,1,1.16,1.16v32.87A43.21,43.21,0,0,1,169.87,294.18Z"/><path class="cls-2" d="M187.52,224.49H178.7a1.16,1.16,0,0,1,1.16,1.16v32.87a43.21,43.21,0,0,1-18.81,35.66l-18.42,12.6,4.2,2.87a.36.36,0,0,0,.42,0l22.62-15.47a43.21,43.21,0,0,0,18.81-35.66V225.65A1.16,1.16,0,0,0,187.52,224.49Z"/><path class="cls-6" d="M147,311.41a2.07,2.07,0,0,1-1.17-.36l-22.62-15.47a44.88,44.88,0,0,1-19.55-37.06V225.65a2.87,2.87,0,0,1,2.86-2.86h81a2.86,2.86,0,0,1,2.86,2.86v32.87a44.88,44.88,0,0,1-19.55,37.06l-22.62,15.48A2.06,2.06,0,0,1,147,311.41ZM107.1,226.19v32.33a41.48,41.48,0,0,0,18.07,34.26l21.87,15,21.87-15A41.48,41.48,0,0,0,187,258.52V226.19Z"/><path class="cls-4" d="M147,239.72a19.59,19.59,0,1,0,19.59,19.58A19.59,19.59,0,0,0,147,239.72Z"/><path class="cls-10" d="M147,239.72a19.56,19.56,0,0,0-16.65,9.3A19.56,19.56,0,0,1,157.32,276,19.57,19.57,0,0,0,147,239.72Z"/><path class="cls-6" d="M142.1,269.21l-9.26-9.27a1.68,1.68,0,0,1,0-2.4,1.7,1.7,0,0,1,2.4,0l6.86,6.87,13.81-13.81a1.7,1.7,0,0,1,2.4,2.4Z"/><path class="cls-6" d="M147,280.59a21.29,21.29,0,1,1,21.29-21.29A21.3,21.3,0,0,1,147,280.59Zm0-39.18a17.89,17.89,0,1,0,17.89,17.89A17.92,17.92,0,0,0,147,241.41Z"/><polygon class="cls-3" points="122.8 285.21 75.09 285.21 61.63 285.21 61.63 309.72 139.28 309.72 139.28 285.21 122.8 285.21"/><path class="cls-6" d="M141,311.42h-81v-27.9h81ZM63.33,308h74.25V286.91H63.33Z"/><rect class="cls-4" x="71.39" y="296.75" width="4.34" height="3.4"/><rect class="cls-4" x="85.27" y="296.75" width="4.34" height="3.4"/><rect class="cls-4" x="99.15" y="296.75" width="4.34" height="3.4"/><rect class="cls-4" x="113.02" y="296.75" width="4.34" height="3.4"/><rect class="cls-4" x="126.9" y="296.75" width="4.34" height="3.4"/><path class="cls-4" d="M448.09,285.32a24.41,24.41,0,1,1-24.41-24.41A24.41,24.41,0,0,1,448.09,285.32Z"/><path class="cls-2" d="M423.68,260.91a24.37,24.37,0,0,0-21,12,24.37,24.37,0,0,1,37.7,30.14,24.38,24.38,0,0,0-16.7-42.17Z"/><path class="cls-6" d="M425.26,287.76H413.58v-3.4h11.68a3.85,3.85,0,1,0,0-7.7H413.58v-3.4h11.68a7.25,7.25,0,0,1,0,14.5Z"/><path class="cls-6" d="M427.28,298.69h-13.7V295.3h13.7c2.65,0,4.81-1.73,4.81-3.85s-2.16-3.86-4.81-3.86h-13.7V284.2h13.7c4.53,0,8.21,3.25,8.21,7.25S431.81,298.69,427.28,298.69Z"/><rect class="cls-6" x="416.19" y="269.5" width="3.4" height="31.64"/><rect class="cls-6" x="421.33" y="269.5" width="3.4" height="5.47"/><rect class="cls-6" x="421.33" y="297" width="3.4" height="4.14"/><path class="cls-6" d="M423.68,311.42a26.1,26.1,0,1,1,26.11-26.1A26.13,26.13,0,0,1,423.68,311.42Zm0-48.81a22.71,22.71,0,1,0,22.71,22.71A22.74,22.74,0,0,0,423.68,262.61Z"/><path class="cls-6" d="M465.18,311.42h-417a1.7,1.7,0,1,1,0-3.4h417a1.7,1.7,0,0,1,0,3.4Z"/><path class="cls-6" d="M477.48,311.42h-6.16a1.7,1.7,0,0,1,0-3.4h6.16a1.7,1.7,0,0,1,0,3.4Z"/><path class="cls-6" d="M42.07,311.42H31.62a1.7,1.7,0,1,1,0-3.4H42.07a1.7,1.7,0,0,1,0,3.4Z"/></svg>