<svg id="Layer_1" data-name="Layer 1" xmlns="http://www.w3.org/2000/svg" viewBox="0 0 500 340"><defs><style>.cls-1{opacity:0.2;}.cls-2{fill:#fcc6b9;}.cls-3{fill:#eaeafd;}.cls-4{fill:#fff;}.cls-5{fill:#f83600;}.cls-6{fill:#f9866b;}.cls-7{fill:#fcc2b4;}.cls-8{opacity:0.3;}.cls-9{fill:#ffe4de;}</style></defs><g class="cls-1"><path class="cls-2" d="M449.87,308.22a193.23,193.23,0,0,0-16.7-78.82,61.18,61.18,0,0,0-73.26-84.93,193,193,0,0,0-104-30.23q-7.15,0-14.18.51A50,50,0,0,0,165,136.83a195,195,0,0,0-40.46,28.67,55.38,55.38,0,0,0-67.67,54,55.12,55.12,0,0,0,12.56,35.11,194,194,0,0,0-7.51,53.61Z"/></g><g class="cls-1"><path class="cls-2" d="M396.8,308.22a140.92,140.92,0,0,0-281.83,0Z"/></g><g class="cls-1"><path class="cls-2" d="M469.48,234.18a11,11,0,1,1-11-11.05A11,11,0,0,1,469.48,234.18Z"/></g><g class="cls-1"><circle class="cls-2" cx="298.25" cy="96.37" r="17.02" transform="translate(135.72 364.38) rotate(-76.67)"/></g><g class="cls-1"><path class="cls-2" d="M142.83,138a7.29,7.29,0,1,1-7.29-7.29A7.29,7.29,0,0,1,142.83,138Z"/></g><g class="cls-1"><circle class="cls-2" cx="365.16" cy="124.6" r="7.29"/></g><g class="cls-1"><path class="cls-2" d="M211.68,75.29A7.29,7.29,0,1,1,204.39,68,7.29,7.29,0,0,1,211.68,75.29Z"/></g><g class="cls-1"><path class="cls-2" d="M457.44,260.9a3,3,0,1,1-3-3A3,3,0,0,1,457.44,260.9Z"/></g><g class="cls-1"><path class="cls-2" d="M364,73a2.25,2.25,0,1,1-2.24-2.24A2.24,2.24,0,0,1,364,73Z"/></g><g class="cls-1"><path class="cls-2" d="M141.35,84.24a2.93,2.93,0,1,1-2.92-2.93A2.92,2.92,0,0,1,141.35,84.24Z"/></g><g class="cls-1"><path class="cls-2" d="M19.78,149.54a3.89,3.89,0,1,1-3.89-3.89A3.89,3.89,0,0,1,19.78,149.54Z"/></g><g class="cls-1"><circle class="cls-2" cx="484.11" cy="178.04" r="3.89"/></g><g class="cls-1"><circle class="cls-2" cx="78.38" cy="133.8" r="16.49"/></g><g class="cls-1"><path class="cls-2" d="M33.72,254.06a3.89,3.89,0,1,1-3.89-3.88A3.89,3.89,0,0,1,33.72,254.06Z"/></g><g class="cls-1"><path class="cls-2" d="M463.38,138a16,16,0,1,1-16-16A16,16,0,0,1,463.38,138Z"/></g><g class="cls-1"><path class="cls-2" d="M45.54,210.2a15.72,15.72,0,1,1-15.71-15.71A15.71,15.71,0,0,1,45.54,210.2Z"/></g><path class="cls-3" d="M289.05,177.87h.58a21.29,21.29,0,0,1,32-12,29.18,29.18,0,0,1,56.71-4.2,20,20,0,0,1,25,16.2h3.26a15,15,0,0,1,15,15v1.1a15,15,0,0,1-15,15H289.05a15,15,0,0,1-15-15v-1.1A15,15,0,0,1,289.05,177.87Z"/><path class="cls-4" d="M299.18,183h.49a17.76,17.76,0,0,1,26.66-10,24.33,24.33,0,0,1,47.28-3.5A16.64,16.64,0,0,1,394.45,183h2.72a12.52,12.52,0,0,1,12.48,12.48v.92a12.52,12.52,0,0,1-12.48,12.49h-98a12.52,12.52,0,0,1-12.48-12.49v-.92A12.52,12.52,0,0,1,299.18,183Z"/><path class="cls-5" d="M331.39,164.43l-2.85-1.85a26,26,0,0,1,35.08-8.24l-1.73,2.93a22.63,22.63,0,0,0-30.5,7.16Z"/><path class="cls-5" d="M406.58,210.62H289.05a16.7,16.7,0,0,1-16.68-16.68v-1.1a16.69,16.69,0,0,1,16-16.66,23.15,23.15,0,0,1,21.72-15.4,22.9,22.9,0,0,1,10.28,2.44,30.89,30.89,0,0,1,59.05-3.56,21.3,21.3,0,0,1,4.09-.4,21.61,21.61,0,0,1,21.19,16.9h1.86a16.7,16.7,0,0,1,16.68,16.68v1.1A16.7,16.7,0,0,1,406.58,210.62ZM289.05,179.57a13.28,13.28,0,0,0-13.27,13.27v1.1a13.29,13.29,0,0,0,13.27,13.28H406.58a13.29,13.29,0,0,0,13.27-13.28v-1.1a13.28,13.28,0,0,0-13.27-13.27h-4.72l-.22-1.44a18.2,18.2,0,0,0-22.88-14.81l-1.58.42-.48-1.56a27.48,27.48,0,0,0-53.4,3.95l-.4,2.59-2.21-1.42a19.51,19.51,0,0,0-10.58-3.11,19.71,19.71,0,0,0-18.84,14.15l-.36,1.23Z"/><path class="cls-5" d="M374.47,171.27h-3.41a12.12,12.12,0,0,1,12.1-12.1v3.41A8.7,8.7,0,0,0,374.47,171.27Z"/><path class="cls-3" d="M157.87,182h.37a13.22,13.22,0,0,1,19.87-7.45,18.13,18.13,0,0,1,35.23-2.61,12.28,12.28,0,0,1,3.23-.44,12.46,12.46,0,0,1,12.3,10.5h2a9.33,9.33,0,0,1,9.3,9.3V192a9.33,9.33,0,0,1-9.3,9.3h-73a9.33,9.33,0,0,1-9.3-9.3v-.69A9.33,9.33,0,0,1,157.87,182Z"/><path class="cls-4" d="M164.17,185.19h.3A11,11,0,0,1,181,179a15.11,15.11,0,0,1,29.37-2.17,10.33,10.33,0,0,1,13,8.39h1.69a7.78,7.78,0,0,1,7.75,7.75v.57a7.78,7.78,0,0,1-7.75,7.76H164.17a7.78,7.78,0,0,1-7.76-7.76v-.57A7.78,7.78,0,0,1,164.17,185.19Z"/><path class="cls-5" d="M184.72,174l-2.85-1.85a16.79,16.79,0,0,1,22.66-5.32l-1.73,2.93A13.41,13.41,0,0,0,184.72,174Z"/><path class="cls-5" d="M230.9,203H218.76v-3.4H230.9a7.6,7.6,0,0,0,7.59-7.6v-.69a7.6,7.6,0,0,0-7.59-7.6h-3.49l-.23-1.43a10.68,10.68,0,0,0-13.4-8.69l-1.58.43-.49-1.57a16.43,16.43,0,0,0-31.92,2.37l-.4,2.59-2.2-1.42a11.54,11.54,0,0,0-17.32,6.49l-.35,1.23h-1.65a7.61,7.61,0,0,0-7.6,7.6V192a7.61,7.61,0,0,0,7.6,7.6h47.18V203H157.87a11,11,0,0,1-11-11v-.69a11,11,0,0,1,10.13-11A15,15,0,0,1,176.92,172a19.84,19.84,0,0,1,37.53-2,14.1,14.1,0,0,1,15.8,10.34h.65a11,11,0,0,1,11,11V192A11,11,0,0,1,230.9,203Z"/><path class="cls-5" d="M211.59,177.88h-3.41a8.17,8.17,0,0,1,8.16-8.16v3.41A4.75,4.75,0,0,0,211.59,177.88Z"/><path class="cls-5" d="M394.66,116.3h-86.5a1.71,1.71,0,0,1,0-3.41h86.5a1.71,1.71,0,0,1,0,3.41Z"/><path class="cls-5" d="M112.11,159.66H52.19a1.7,1.7,0,0,1,0-3.4h59.92a1.7,1.7,0,1,1,0,3.4Z"/><path class="cls-5" d="M186.59,131.61h-100a1.71,1.71,0,0,1,0-3.41h100a1.71,1.71,0,0,1,0,3.41Z"/><path class="cls-5" d="M201.54,131.61H193.4a1.71,1.71,0,0,1,0-3.41h8.14a1.71,1.71,0,0,1,0,3.41Z"/><path class="cls-5" d="M299.07,116.3h-7.51a1.71,1.71,0,0,1,0-3.41h7.51a1.71,1.71,0,1,1,0,3.41Z"/><path class="cls-5" d="M280.38,116.3h-9.71a1.71,1.71,0,0,1,0-3.41h9.71a1.71,1.71,0,0,1,0,3.41Z"/><path class="cls-5" d="M275.52,121.15a1.7,1.7,0,0,1-1.7-1.7v-9.71a1.71,1.71,0,0,1,3.41,0v9.71A1.71,1.71,0,0,1,275.52,121.15Z"/><path class="cls-5" d="M220,131.61h-9.7a1.71,1.71,0,1,1,0-3.41H220a1.71,1.71,0,1,1,0,3.41Z"/><path class="cls-5" d="M215.19,136.46a1.7,1.7,0,0,1-1.7-1.7v-9.71a1.7,1.7,0,1,1,3.4,0v9.71A1.7,1.7,0,0,1,215.19,136.46Z"/><path class="cls-5" d="M304.46,144.76h-9.7a1.71,1.71,0,1,1,0-3.41h9.7a1.71,1.71,0,1,1,0,3.41Z"/><path class="cls-5" d="M299.61,149.61a1.7,1.7,0,0,1-1.7-1.7V138.2a1.7,1.7,0,0,1,3.4,0v9.71A1.7,1.7,0,0,1,299.61,149.61Z"/><path class="cls-5" d="M460,197.59a1.71,1.71,0,0,1-1.21-2.91l6.87-6.87a1.7,1.7,0,1,1,2.4,2.41l-6.86,6.87A1.71,1.71,0,0,1,460,197.59Z"/><path class="cls-5" d="M466.81,197.59a1.69,1.69,0,0,1-1.2-.5l-6.87-6.87a1.7,1.7,0,1,1,2.41-2.41l6.86,6.87a1.71,1.71,0,0,1-1.2,2.91Z"/><path class="cls-5" d="M39.37,122.25a1.71,1.71,0,0,1-1.21-2.91L45,112.48a1.7,1.7,0,0,1,2.41,2.4l-6.87,6.87A1.71,1.71,0,0,1,39.37,122.25Z"/><path class="cls-5" d="M46.23,122.25a1.71,1.71,0,0,1-1.2-.5l-6.87-6.87a1.7,1.7,0,0,1,2.41-2.4l6.87,6.86a1.71,1.71,0,0,1-1.21,2.91Z"/><path class="cls-5" d="M125.24,163.09a1.7,1.7,0,0,1-1.21-2.9l6.87-6.87a1.7,1.7,0,1,1,2.4,2.41l-6.86,6.86A1.66,1.66,0,0,1,125.24,163.09Z"/><path class="cls-5" d="M132.1,163.09a1.65,1.65,0,0,1-1.2-.5L124,155.73a1.7,1.7,0,1,1,2.41-2.41l6.86,6.87a1.68,1.68,0,0,1,0,2.4A1.65,1.65,0,0,1,132.1,163.09Z"/><polygon class="cls-5" points="58.49 199.9 55.81 201.45 53.14 199.9 53.14 196.81 55.81 195.27 58.49 196.81 58.49 199.9"/><polygon class="cls-5" points="429.82 167.62 427.14 169.16 424.47 167.62 424.47 164.53 427.14 162.98 429.82 164.53 429.82 167.62"/><polygon class="cls-5" points="200.46 95.49 194.45 98.96 188.45 95.49 188.45 88.56 194.45 85.1 200.46 88.56 200.46 95.49"/><polygon class="cls-5" points="119.2 111.53 115.26 113.8 111.32 111.53 111.32 106.98 115.26 104.7 119.2 106.98 119.2 111.53"/><polygon class="cls-5" points="441.91 106.98 437.97 109.25 434.03 106.98 434.03 102.43 437.97 100.15 441.91 102.43 441.91 106.98"/><path class="cls-5" d="M441.82,133.87H362a1.7,1.7,0,1,1,0-3.4h79.83a1.7,1.7,0,1,1,0,3.4Z"/><path class="cls-5" d="M47.81,240.56a5.68,5.68,0,1,1,5.68-5.68A5.69,5.69,0,0,1,47.81,240.56Zm0-7.95a2.27,2.27,0,1,0,2.27,2.27A2.27,2.27,0,0,0,47.81,232.61Z"/><path class="cls-5" d="M469.48,241a5.68,5.68,0,1,1,5.68-5.68A5.68,5.68,0,0,1,469.48,241Zm0-8a2.27,2.27,0,1,0,2.27,2.27A2.27,2.27,0,0,0,469.48,233Z"/><path class="cls-5" d="M341.8,238.39H328.07a9.38,9.38,0,1,1,0-18.76h7.8a1.7,1.7,0,1,1,0,3.4h-7.8a6,6,0,1,0,0,11.95H341.8a6,6,0,0,0,6-6,1.7,1.7,0,1,1,3.4,0A9.39,9.39,0,0,1,341.8,238.39Z"/><path class="cls-5" d="M359,238.39h-7.8a1.71,1.71,0,1,1,0-3.41H359A6,6,0,1,0,359,223H345.31a6,6,0,0,0-6,6,1.7,1.7,0,0,1-3.4,0,9.38,9.38,0,0,1,9.38-9.38H359a9.38,9.38,0,0,1,0,18.76Z"/><path class="cls-5" d="M334.32,230.71h-4.85a1.71,1.71,0,1,1,0-3.41h4.85a1.71,1.71,0,0,1,0,3.41Z"/><path class="cls-5" d="M359.1,230.71h-4.85a1.71,1.71,0,0,1,0-3.41h4.85a1.71,1.71,0,0,1,0,3.41Z"/><path class="cls-5" d="M346.63,230.71h-4.85a1.71,1.71,0,0,1,0-3.41h4.85a1.71,1.71,0,1,1,0,3.41Z"/><path class="cls-5" d="M258.15,178.63a9.39,9.39,0,0,1-9.38-9.38v-7.81a1.71,1.71,0,0,1,3.41,0v7.81a6,6,0,0,0,11.95,0V155.51a6,6,0,0,0-6-6,1.71,1.71,0,0,1,0-3.41,9.39,9.39,0,0,1,9.38,9.38v13.74A9.39,9.39,0,0,1,258.15,178.63Z"/><path class="cls-5" d="M258.15,161.39a9.39,9.39,0,0,1-9.38-9.38V138.27a9.38,9.38,0,0,1,18.76,0v7.81a1.7,1.7,0,1,1-3.4,0v-7.81a6,6,0,0,0-11.95,0V152a6,6,0,0,0,6,6,1.71,1.71,0,1,1,0,3.41Z"/><path class="cls-5" d="M258.15,169.55a1.7,1.7,0,0,1-1.7-1.7V163a1.71,1.71,0,1,1,3.41,0v4.85A1.71,1.71,0,0,1,258.15,169.55Z"/><path class="cls-5" d="M258.15,144.77a1.7,1.7,0,0,1-1.7-1.7v-4.85a1.71,1.71,0,1,1,3.41,0v4.85A1.71,1.71,0,0,1,258.15,144.77Z"/><path class="cls-5" d="M258.15,157.23a1.7,1.7,0,0,1-1.7-1.7v-4.85a1.71,1.71,0,0,1,3.41,0v4.85A1.71,1.71,0,0,1,258.15,157.23Z"/><path class="cls-5" d="M179.43,238.39H165.69a9.38,9.38,0,0,1,0-18.76h7.81a1.7,1.7,0,0,1,0,3.4h-7.81a6,6,0,0,0,0,11.95h13.74a6,6,0,0,0,6-6,1.7,1.7,0,1,1,3.4,0A9.39,9.39,0,0,1,179.43,238.39Z"/><path class="cls-5" d="M196.67,238.39h-7.81a1.71,1.71,0,0,1,0-3.41h7.81a6,6,0,0,0,0-11.95H182.93a6,6,0,0,0-6,6,1.71,1.71,0,0,1-3.41,0,9.39,9.39,0,0,1,9.38-9.38h13.74a9.38,9.38,0,1,1,0,18.76Z"/><path class="cls-5" d="M171.94,230.71h-4.85a1.71,1.71,0,0,1,0-3.41h4.85a1.71,1.71,0,1,1,0,3.41Z"/><path class="cls-5" d="M196.72,230.71h-4.84a1.71,1.71,0,1,1,0-3.41h4.84a1.71,1.71,0,1,1,0,3.41Z"/><path class="cls-5" d="M184.26,230.71h-4.85a1.71,1.71,0,0,1,0-3.41h4.85a1.71,1.71,0,0,1,0,3.41Z"/><rect class="cls-2" x="373.92" y="201.64" width="66.48" height="66.48"/><polygon class="cls-6" points="434.53 201.64 434.53 262.25 373.92 262.25 373.92 268.12 440.4 268.12 440.4 201.64 434.53 201.64"/><path class="cls-5" d="M442.11,269.82H372.22V199.93h69.89Zm-66.49-3.4H438.7V203.34H375.62Z"/><rect class="cls-2" x="82.1" y="201.64" width="66.48" height="66.48"/><polygon class="cls-6" points="142.71 201.64 142.71 262.25 82.1 262.25 82.1 268.12 148.59 268.12 148.59 201.64 142.71 201.64"/><path class="cls-5" d="M150.29,269.82H80.4V199.93h69.89Zm-66.48-3.4h63.07V203.34H83.81Z"/><rect class="cls-7" x="210.55" y="183.47" width="102.82" height="102.82"/><g class="cls-8"><polygon class="cls-5" points="304.29 183.47 304.29 277.2 210.55 277.2 210.55 286.29 313.37 286.29 313.37 183.47 304.29 183.47"/></g><path class="cls-5" d="M315.07,288H208.85V181.77H315.07Zm-102.81-3.4h99.41V185.17H212.26Z"/><g class="cls-8"><path class="cls-5" d="M150.29,231a36.31,36.31,0,0,0-6.88-.68,35.69,35.69,0,0,0-35,28,26.51,26.51,0,0,0-28,2.18v9.31h69.89Z"/></g><g class="cls-8"><path class="cls-5" d="M397.19,257.35l-.34,0v-.1a11.17,11.17,0,0,0-2.53.32l-.74.1a28,28,0,0,0-21.36-17.85v30h43.41A19.76,19.76,0,0,0,397.19,257.35Z"/></g><path class="cls-3" d="M307,280.06h.53a19.32,19.32,0,0,1,29-10.88,26.46,26.46,0,0,1,51.43-3.81,18.43,18.43,0,0,1,4.73-.64,18.17,18.17,0,0,1,17.94,15.33h3a13.62,13.62,0,0,1,13.58,13.58v1a13.62,13.62,0,0,1-13.58,13.58H307a13.62,13.62,0,0,1-13.58-13.58v-1A13.62,13.62,0,0,1,307,280.06Z"/><path class="cls-4" d="M316.14,284.75h.44a16.11,16.11,0,0,1,24.19-9.08,22.07,22.07,0,0,1,42.88-3.17,15,15,0,0,1,3.93-.54,15.15,15.15,0,0,1,15,12.79H405a11.36,11.36,0,0,1,11.33,11.32v.83A11.36,11.36,0,0,1,405,308.22H316.14a11.35,11.35,0,0,1-11.32-11.32v-.83A11.35,11.35,0,0,1,316.14,284.75Z"/><path class="cls-5" d="M345.49,268l-2.86-1.85a23.76,23.76,0,0,1,32-7.53l-1.74,2.94A20.34,20.34,0,0,0,345.49,268Z"/><path class="cls-5" d="M413.55,309.93H307a15.3,15.3,0,0,1-15.28-15.29v-1a15.29,15.29,0,0,1,14.57-15.26,21,21,0,0,1,29-11.84A28.18,28.18,0,0,1,389,263.37a19.34,19.34,0,0,1,3.61-.34A19.76,19.76,0,0,1,412,278.36h1.56a15.31,15.31,0,0,1,15.29,15.28v1A15.31,15.31,0,0,1,413.55,309.93ZM307,281.77a11.89,11.89,0,0,0-11.88,11.87v1A11.89,11.89,0,0,0,307,306.52h106.6a11.89,11.89,0,0,0,11.88-11.88v-1a11.89,11.89,0,0,0-11.88-11.87h-4.41l-.23-1.44A16.35,16.35,0,0,0,388.36,267l-1.58.42-.49-1.56a24.76,24.76,0,0,0-48.12,3.56l-.4,2.59-2.2-1.42a17.61,17.61,0,0,0-26.45,9.93l-.36,1.23Z"/><path class="cls-5" d="M384.58,274.08h-3.4A11.14,11.14,0,0,1,392.31,263v3.41A7.73,7.73,0,0,0,384.58,274.08Z"/><path class="cls-5" d="M68.19,236.82H52.33a1.7,1.7,0,1,1,0-3.4H68.19a1.7,1.7,0,1,1,0,3.4Z"/><path class="cls-5" d="M465.37,236.82H449.5a1.7,1.7,0,0,1,0-3.4h15.87a1.7,1.7,0,0,1,0,3.4Z"/><rect class="cls-5" x="223.88" y="204.25" width="6.45" height="3.41"/><rect class="cls-5" x="223.88" y="213.91" width="6.45" height="3.41"/><rect class="cls-5" x="223.88" y="223.56" width="6.45" height="3.41"/><rect class="cls-5" x="223.88" y="233.2" width="6.45" height="3.41"/><rect class="cls-5" x="223.88" y="242.85" width="6.45" height="3.41"/><rect class="cls-5" x="223.88" y="252.51" width="6.45" height="3.41"/><rect class="cls-5" x="290.97" y="209.3" width="8.09" height="3.41"/><rect class="cls-5" x="290.97" y="217.94" width="8.09" height="3.41"/><rect class="cls-5" x="290.97" y="226.58" width="8.09" height="3.41"/><rect class="cls-5" x="290.97" y="235.22" width="8.09" height="3.41"/><rect class="cls-5" x="290.97" y="243.87" width="8.09" height="3.41"/><rect class="cls-5" x="290.97" y="252.51" width="8.09" height="3.41"/><rect class="cls-5" x="236.93" y="194.49" width="3.41" height="8.09"/><rect class="cls-5" x="245.57" y="194.49" width="3.41" height="8.09"/><rect class="cls-5" x="254.21" y="194.49" width="3.41" height="8.09"/><rect class="cls-5" x="262.85" y="194.49" width="3.41" height="8.09"/><rect class="cls-5" x="271.49" y="194.49" width="3.41" height="8.09"/><rect class="cls-5" x="280.13" y="194.49" width="3.41" height="8.09"/><rect class="cls-5" x="236.93" y="262.02" width="3.41" height="7.76"/><rect class="cls-5" x="245.57" y="262.02" width="3.41" height="7.76"/><rect class="cls-5" x="254.21" y="262.02" width="3.41" height="7.76"/><rect class="cls-5" x="262.85" y="262.02" width="3.41" height="7.76"/><rect class="cls-5" x="271.49" y="262.02" width="3.41" height="7.76"/><rect class="cls-5" x="280.13" y="262.02" width="3.41" height="7.76"/><rect class="cls-9" x="230.33" y="202.58" width="60.63" height="59.44"/><rect class="cls-4" x="239.47" y="211.54" width="42.36" height="41.53"/><path class="cls-5" d="M292.67,263.73h-64V200.88h64ZM232,260.32h57.22v-56H232Z"/><path class="cls-5" d="M283.54,254.77H237.77V209.83h45.77Zm-42.37-3.4h39V213.24h-39Z"/><path class="cls-5" d="M262.22,234.58H250.59v-3.41h11.63a3.83,3.83,0,0,0,0-7.65H250.59v-3.4h11.63a7.23,7.23,0,0,1,0,14.46Z"/><path class="cls-5" d="M264.23,245.47H250.59v-3.41h13.64c2.64,0,4.78-1.71,4.78-3.82s-2.14-3.82-4.78-3.82H250.59V231h13.64c4.52,0,8.19,3.24,8.19,7.23S268.75,245.47,264.23,245.47Z"/><rect class="cls-5" x="253.17" y="216.38" width="3.41" height="31.52"/><rect class="cls-5" x="258.3" y="216.38" width="3.41" height="5.44"/><rect class="cls-5" x="258.3" y="243.77" width="3.41" height="4.12"/><g class="cls-8"><path class="cls-5" d="M270.11,284.3h-1.58a19.9,19.9,0,0,0-19.48-15.45l-.34,0v-.1a11.43,11.43,0,0,0-2.56.32c-.24,0-.49.06-.74.11a28.24,28.24,0,0,0-26.6-18.46,28.6,28.6,0,0,0-10,1.79V288h71.24A15.3,15.3,0,0,0,270.11,284.3Z"/></g><path class="cls-3" d="M173.38,285.48h.42a15.61,15.61,0,0,1,23.43-8.78,21.37,21.37,0,0,1,41.53-3.08,14.61,14.61,0,0,1,18.3,11.86h2.39a11,11,0,0,1,11,11v.81a11,11,0,0,1-11,11H173.38a11,11,0,0,1-11-11v-.81A11,11,0,0,1,173.38,285.48Z"/><path class="cls-4" d="M180.8,289.27h.35a13,13,0,0,1,19.53-7.33,17.81,17.81,0,0,1,34.62-2.56,12,12,0,0,1,3.19-.44,12.25,12.25,0,0,1,12.08,10.33h2a9.16,9.16,0,0,1,9.14,9.14v.67a9.16,9.16,0,0,1-9.14,9.14H180.8a9.17,9.17,0,0,1-9.15-9.14v-.67A9.17,9.17,0,0,1,180.8,289.27Z"/><path class="cls-5" d="M204.77,275.89,201.91,274a19.51,19.51,0,0,1,26.31-6.18l-1.73,2.93a16.12,16.12,0,0,0-21.72,5.1Z"/><path class="cls-5" d="M259.45,309.93H173.38a12.68,12.68,0,0,1-12.67-12.67v-.81a12.69,12.69,0,0,1,11.86-12.64,17.42,17.42,0,0,1,16.23-11.3A17.24,17.24,0,0,1,196,274.1a23.08,23.08,0,0,1,43.85-2.46,16.28,16.28,0,0,1,18.58,12.14h1a12.68,12.68,0,0,1,12.67,12.67v.81A12.68,12.68,0,0,1,259.45,309.93Zm-86.07-22.74a9.27,9.27,0,0,0-9.27,9.26v.81a9.27,9.27,0,0,0,9.27,9.26h86.07a9.27,9.27,0,0,0,9.27-9.26v-.81a9.27,9.27,0,0,0-9.27-9.26h-3.84l-.23-1.44a12.89,12.89,0,0,0-16.18-10.48l-1.58.42-.49-1.56A19.67,19.67,0,0,0,198.91,277l-.4,2.59-2.2-1.42A13.9,13.9,0,0,0,175.44,286l-.36,1.23Z"/><path class="cls-5" d="M236.39,280.65H233a9.33,9.33,0,0,1,9.32-9.31v3.4A5.92,5.92,0,0,0,236.39,280.65Z"/><g class="cls-8"><path class="cls-5" d="M219.89,293.11V292a16.83,16.83,0,0,0-16.82-16.82h-1.89a21.62,21.62,0,0,0-2.8-6.82A23.43,23.43,0,0,0,196,274.1a17.24,17.24,0,0,0-7.22-1.59,17.42,17.42,0,0,0-16.23,11.3,12.69,12.69,0,0,0-11.86,12.64v.81a12.68,12.68,0,0,0,12.67,12.67h29.69A16.84,16.84,0,0,0,219.89,293.11Z"/></g><path class="cls-3" d="M77.61,276.88h.59a21.5,21.5,0,0,1,32.29-12.11,29.46,29.46,0,0,1,57.24-4.24A20.17,20.17,0,0,1,193,276.88h3.3A15.16,15.16,0,0,1,211.37,292v1.11a15.16,15.16,0,0,1-15.11,15.11H77.61A15.16,15.16,0,0,1,62.5,293.11V292A15.16,15.16,0,0,1,77.61,276.88Z"/><path class="cls-4" d="M87.84,282.09h.49A17.93,17.93,0,0,1,115.25,272,24.56,24.56,0,0,1,163,268.46a17.16,17.16,0,0,1,4.39-.59A16.87,16.87,0,0,1,184,282.09h2.75a12.64,12.64,0,0,1,12.6,12.6v.93a12.64,12.64,0,0,1-12.6,12.6H87.84a12.64,12.64,0,0,1-12.6-12.6v-.93A12.64,12.64,0,0,1,87.84,282.09Z"/><path class="cls-5" d="M120.35,263.31l-2.86-1.86a26.24,26.24,0,0,1,35.39-8.31l-1.73,2.93a22.85,22.85,0,0,0-30.8,7.24Z"/><path class="cls-5" d="M196.26,309.93H77.61a16.84,16.84,0,0,1-16.82-16.82V292A16.84,16.84,0,0,1,77,275.19a23.22,23.22,0,0,1,32.31-13.08,31.16,31.16,0,0,1,59.58-3.59,21.83,21.83,0,0,1,25.52,16.66h1.89A16.84,16.84,0,0,1,213.08,292v1.11A16.84,16.84,0,0,1,196.26,309.93ZM77.61,278.58A13.43,13.43,0,0,0,64.2,292v1.11a13.43,13.43,0,0,0,13.41,13.41H196.26a13.43,13.43,0,0,0,13.41-13.41V292a13.43,13.43,0,0,0-13.41-13.42h-4.75l-.23-1.43a18.42,18.42,0,0,0-23.11-15l-1.58.43-.48-1.57a27.76,27.76,0,0,0-53.94,4l-.4,2.59-2.2-1.42a19.81,19.81,0,0,0-29.73,11.16l-.36,1.22Z"/><path class="cls-5" d="M163.83,270.22h-3.41A12.2,12.2,0,0,1,172.61,258v3.4A8.79,8.79,0,0,0,163.83,270.22Z"/><path class="cls-5" d="M463.89,309.93H47.76a1.71,1.71,0,0,1,0-3.41H463.89a1.71,1.71,0,1,1,0,3.41Z"/><path class="cls-5" d="M476.21,309.93h-6.16a1.71,1.71,0,1,1,0-3.41h6.16a1.71,1.71,0,0,1,0,3.41Z"/><path class="cls-5" d="M40.5,309.93H30.05a1.71,1.71,0,0,1,0-3.41H40.5a1.71,1.71,0,1,1,0,3.41Z"/></svg>