<svg id="Layer_1" data-name="Layer 1" xmlns="http://www.w3.org/2000/svg" viewBox="0 0 500 340"><defs><style>.cls-1{opacity:0.2;}.cls-2{fill:#f4b0b0;}.cls-3{fill:#fc8686;}.cls-4{opacity:0.3;}.cls-5{fill:#f55;}.cls-6{fill:#fff;}.cls-7{fill:#ffd7d7;}.cls-8{fill:#eaeafd;}</style></defs><g class="cls-1"><path class="cls-2" d="M450.69,306.87a194.56,194.56,0,0,0-16.81-79.36A61.58,61.58,0,0,0,360.12,142a194.39,194.39,0,0,0-104.74-30.44q-7.2,0-14.28.51a50.3,50.3,0,0,0-77.25,22.23,196.26,196.26,0,0,0-40.74,28.87,55.76,55.76,0,0,0-55.49,89.72,195.38,195.38,0,0,0-7.56,54Z"/></g><g class="cls-1"><path class="cls-2" d="M397.26,306.87a141.88,141.88,0,0,0-283.76,0Z"/></g><g class="cls-1"><path class="cls-2" d="M470.44,232.32a11.12,11.12,0,1,1-11.12-11.12A11.12,11.12,0,0,1,470.44,232.32Z"/></g><g class="cls-1"><circle class="cls-2" cx="298.03" cy="93.57" r="17.14"/></g><g class="cls-1"><path class="cls-2" d="M141.54,135.43a7.34,7.34,0,1,1-7.34-7.34A7.33,7.33,0,0,1,141.54,135.43Z"/></g><g class="cls-1"><circle class="cls-2" cx="365.4" cy="121.99" r="7.34"/></g><g class="cls-1"><path class="cls-2" d="M210.87,72.34A7.34,7.34,0,1,1,203.53,65,7.34,7.34,0,0,1,210.87,72.34Z"/></g><g class="cls-1"><circle class="cls-2" cx="455.3" cy="259.23" r="3.01"/></g><g class="cls-1"><path class="cls-2" d="M364.2,70.08a2.26,2.26,0,1,1-2.26-2.26A2.26,2.26,0,0,1,364.2,70.08Z"/></g><g class="cls-1"><circle class="cls-2" cx="137.12" cy="81.35" r="2.94"/></g><g class="cls-1"><path class="cls-2" d="M17.65,147.1a3.92,3.92,0,1,1-3.91-3.91A3.92,3.92,0,0,1,17.65,147.1Z"/></g><g class="cls-1"><path class="cls-2" d="M489.09,175.79a3.92,3.92,0,1,1-3.92-3.91A3.91,3.91,0,0,1,489.09,175.79Z"/></g><g class="cls-1"><circle class="cls-2" cx="76.66" cy="131.25" r="16.61"/></g><g class="cls-1"><path class="cls-2" d="M31.69,252.34a3.92,3.92,0,1,1-3.92-3.92A3.93,3.93,0,0,1,31.69,252.34Z"/></g><g class="cls-1"><path class="cls-2" d="M464.3,135.43a16.1,16.1,0,1,1-16.1-16.09A16.1,16.1,0,0,1,464.3,135.43Z"/></g><g class="cls-1"><circle class="cls-2" cx="27.77" cy="208.18" r="15.82"/></g><circle class="cls-3" cx="148.24" cy="243.09" r="24.71" transform="translate(-122.5 331.22) rotate(-76.65)"/><g class="cls-4"><path class="cls-5" d="M148.24,218.37A24.67,24.67,0,0,0,127,230.55a24.69,24.69,0,0,1,38.18,30.53,24.69,24.69,0,0,0-16.91-42.71Z"/></g><path class="cls-5" d="M148.24,269.52a26.43,26.43,0,1,1,26.43-26.43A26.46,26.46,0,0,1,148.24,269.52Zm0-49.43a23,23,0,1,0,23,23A23,23,0,0,0,148.24,220.09Z"/><path class="cls-6" d="M153,243.31a6.71,6.71,0,0,1-3.38-.91,6.79,6.79,0,1,1,9.27-2.48h0A6.79,6.79,0,0,1,153,243.31Zm0-10.14a3.37,3.37,0,1,0,1.67.45A3.25,3.25,0,0,0,153,233.17Z"/><path class="cls-6" d="M139.31,250.48a6.77,6.77,0,1,1,5.89-3.39h0A6.79,6.79,0,0,1,139.31,250.48Zm0-10.14a3.36,3.36,0,1,0,2.9,5h0a3.36,3.36,0,0,0-2.9-5Z"/><path class="cls-6" d="M147,251.16a3,3,0,0,0-3.74-2.16l-.89-3.31a6.47,6.47,0,0,1,7.94,4.58Z"/><path class="cls-6" d="M152.48,248.49a6.49,6.49,0,0,1-2.37-8.86l3,1.71a3.05,3.05,0,0,0,1.11,4.18Z"/><path class="cls-6" d="M146,243.77a6.42,6.42,0,0,1-3.23-.87l1.71-3a3.05,3.05,0,0,0,4.18-1.12l3,1.72a6.42,6.42,0,0,1-3.94,3A6.48,6.48,0,0,1,146,243.77Z"/><path class="cls-6" d="M153.58,258.72a6.78,6.78,0,0,1-5.87-10.17,6.79,6.79,0,1,1,11.76,6.78h0A6.79,6.79,0,0,1,153.58,258.72Zm0-10.14a3.35,3.35,0,0,0-2.92,1.68,3.36,3.36,0,0,0,1.23,4.58,3.36,3.36,0,0,0,4.59-1.22h0a3.36,3.36,0,0,0-2.9-5Z"/><path class="cls-3" d="M179.9,161.77h8.44a.87.87,0,0,1,.87.87V307.71a.87.87,0,0,1-.87.87H179.9a.88.88,0,0,1-.87-.87V162.64A.88.88,0,0,1,179.9,161.77Z"/><path class="cls-2" d="M182.73,307V163.39a1.62,1.62,0,0,1,1.62-1.62h-3.7a1.61,1.61,0,0,0-1.62,1.62V307a1.62,1.62,0,0,0,1.62,1.62h3.7A1.63,1.63,0,0,1,182.73,307Z"/><path class="cls-5" d="M187.21,310.3H181a3.72,3.72,0,0,1-3.72-3.71V163.77a3.73,3.73,0,0,1,3.72-3.72h6.18a3.73,3.73,0,0,1,3.72,3.72V306.59A3.72,3.72,0,0,1,187.21,310.3ZM181,163.48a.29.29,0,0,0-.29.29V306.59a.29.29,0,0,0,.29.28h6.18a.29.29,0,0,0,.29-.28V163.77a.29.29,0,0,0-.29-.29Z"/><path class="cls-6" d="M247,188.8c-17.16-9.59-37.09-15.52-63.27-15.52s-46.11,5.93-63.27,15.52v12c14.05-7.85,31.22-13.25,51.81-14.95.52-.05,1.63,5.47,2.15,5.43,4.07-.29,5.1-.45,9.31-.45s5.08.15,9.06.44c.72.05,2-5.45,2.76-5.39C216,187.66,233,193,247,200.85Z"/><path class="cls-3" d="M183.71,173.28c-26.18,0-46.11,5.93-63.27,15.52v5.56c17.16-9.59,37.09-15.52,63.27-15.52s46.11,5.93,63.27,15.52V188.8C229.82,179.21,209.89,173.28,183.71,173.28Z"/><path class="cls-5" d="M248.69,203.77l-2.55-1.42c-14.32-8-31.07-12.93-49.8-14.63-.19.46-.42,1.07-.58,1.49-.89,2.37-1.48,3.92-3.12,3.82l-2-.15c-2.43-.19-3.65-.28-6.91-.28s-4.66.1-7.22.29l-2,.15c-1.6.11-2.07-1.32-2.85-3.94-.12-.41-.28-.95-.43-1.4-18.8,1.69-35.61,6.62-50,14.65l-2.55,1.42v-16l.87-.49c19.22-10.74,39.59-15.74,64.11-15.74s44.89,5,64.11,15.74l.87.49Zm-126.53-14V198c14.51-7.61,31.3-12.24,50-13.78,1.59-.16,2.08,1.31,2.86,3.93.12.43.29,1,.43,1.42l.83-.06c2.65-.21,4-.31,7.48-.31s4.73.1,7.16.29l1.08.08c.2-.47.43-1.09.6-1.53.88-2.36,1.51-3.95,3.12-3.79,18.51,1.57,35.18,6.19,49.59,13.75v-8.16c-18.42-10.1-38-14.82-61.55-14.82S140.58,179.71,122.16,189.81Z"/><rect class="cls-3" x="401.65" y="212.43" width="52.99" height="96.15" rx="0.22"/><path class="cls-7" d="M411.69,308.05V213a.55.55,0,0,1,.54-.55h-10a.55.55,0,0,0-.54.55v95.07a.54.54,0,0,0,.54.54h10A.54.54,0,0,1,411.69,308.05Z"/><g class="cls-4"><path class="cls-5" d="M444.88,308.05V213a.55.55,0,0,0-.54-.55h10a.55.55,0,0,1,.54.55v95.07a.54.54,0,0,1-.54.54h-10A.54.54,0,0,0,444.88,308.05Z"/></g><path class="cls-5" d="M454.14,310.17h-52a2.21,2.21,0,0,1-2.21-2.21V212.8a2.21,2.21,0,0,1,2.21-2.21h52a2.21,2.21,0,0,1,2.21,2.21V308A2.21,2.21,0,0,1,454.14,310.17Zm-50.78-3.43h49.56V214H403.36Z"/><rect class="cls-5" x="401.65" y="230.07" width="52.99" height="3.43"/><rect class="cls-5" x="401.65" y="250.16" width="52.99" height="3.43"/><rect class="cls-5" x="402.23" y="288.05" width="52.99" height="3.43"/><rect class="cls-5" x="402.52" y="268.8" width="52.99" height="3.43"/><rect class="cls-6" x="413.13" y="221.16" width="4.44" height="3.43"/><rect class="cls-6" x="426.21" y="221.16" width="4.44" height="3.43"/><rect class="cls-2" x="414.4" y="236.56" width="26.3" height="3.43"/><rect class="cls-6" x="414.4" y="242.66" width="10.79" height="3.43"/><rect class="cls-6" x="429.9" y="242.66" width="10.79" height="3.43"/><rect class="cls-2" x="414.4" y="255.75" width="26.3" height="3.43"/><rect class="cls-6" x="414.4" y="261.85" width="10.79" height="3.43"/><rect class="cls-6" x="429.9" y="261.85" width="10.79" height="3.43"/><rect class="cls-2" x="414.4" y="274.93" width="26.3" height="3.43"/><rect class="cls-6" x="414.4" y="281.03" width="10.79" height="3.43"/><rect class="cls-6" x="429.9" y="281.03" width="10.79" height="3.43"/><rect class="cls-6" x="439.3" y="221.16" width="4.44" height="3.43"/><rect class="cls-3" x="358.31" y="190.39" width="65.13" height="118.19" rx="0.22"/><path class="cls-7" d="M370.66,307.92V191.06a.67.67,0,0,1,.66-.67H359a.67.67,0,0,0-.67.67V307.92a.67.67,0,0,0,.67.67h12.34A.67.67,0,0,1,370.66,307.92Z"/><g class="cls-4"><path class="cls-5" d="M411.45,307.92V191.06a.67.67,0,0,0-.66-.67h12.34a.67.67,0,0,1,.67.67V307.92a.67.67,0,0,1-.67.67H410.79A.67.67,0,0,0,411.45,307.92Z"/></g><path class="cls-5" d="M423,310.14H358.81a2.21,2.21,0,0,1-2.21-2.2V190.72a2.21,2.21,0,0,1,2.21-2.2H423a2.21,2.21,0,0,1,2.21,2.2V307.94A2.21,2.21,0,0,1,423,310.14ZM360,306.71h61.7V192H360Z"/><rect class="cls-5" x="358.31" y="212.46" width="65.13" height="3.43"/><rect class="cls-5" x="358.31" y="237.16" width="65.13" height="3.43"/><rect class="cls-5" x="359.03" y="283.73" width="65.13" height="3.43"/><rect class="cls-5" x="359.39" y="260.08" width="65.13" height="3.43"/><rect class="cls-6" x="372.42" y="201.51" width="5.46" height="3.43"/><rect class="cls-6" x="388.51" y="201.51" width="5.46" height="3.43"/><rect class="cls-2" x="373.98" y="220.44" width="32.33" height="3.43"/><rect class="cls-6" x="373.98" y="227.94" width="13.27" height="3.43"/><rect class="cls-6" x="393.05" y="227.94" width="13.27" height="3.43"/><rect class="cls-2" x="373.98" y="244.03" width="32.33" height="3.43"/><rect class="cls-6" x="373.98" y="251.52" width="13.27" height="3.43"/><rect class="cls-6" x="393.05" y="251.52" width="13.27" height="3.43"/><rect class="cls-2" x="373.98" y="267.61" width="32.33" height="3.43"/><rect class="cls-6" x="373.98" y="275.11" width="13.27" height="3.43"/><rect class="cls-6" x="393.05" y="275.11" width="13.27" height="3.43"/><rect class="cls-6" x="404.59" y="201.51" width="5.46" height="3.43"/><circle class="cls-6" cx="327.83" cy="228.96" r="24.71" transform="translate(29.38 495.08) rotate(-76.65)"/><path class="cls-2" d="M327.83,204.24a24.69,24.69,0,0,0-21.28,12.18A24.68,24.68,0,0,1,344.73,247a24.69,24.69,0,0,0-16.9-42.71Z"/><path class="cls-5" d="M327.83,255.39A26.43,26.43,0,1,1,354.26,229,26.46,26.46,0,0,1,327.83,255.39Zm0-49.43a23,23,0,1,0,23,23A23,23,0,0,0,327.83,206Z"/><path class="cls-5" d="M328.15,248.82a2.12,2.12,0,0,1-1.89-1.15L318.71,236a2.23,2.23,0,0,1,2.82-3.23l6.3,3,6.38-3a2.23,2.23,0,0,1,2.87,3.16L330,247.75a2.06,2.06,0,0,1-1.81,1.07Zm-4.28-11.17,4.24,6.57,4-6.73-4.29,2Z"/><rect class="cls-5" x="317.56" y="219.36" width="20.52" height="3.43" transform="translate(106.34 548.61) rotate(-89.93)"/><path class="cls-5" d="M327.82,233.29,319,230.08a2.08,2.08,0,0,1-1.14-2.9h0l8.43-16.41a2.07,2.07,0,0,1,1.92-1.16,2.15,2.15,0,0,1,1.89,1.21l7.78,16.41a2.11,2.11,0,0,1,0,1.69,2.05,2.05,0,0,1-1.22,1.16Zm-6.24-5.91,6.24,2.26,6.3-2.28-6-12.68Z"/><path class="cls-3" d="M283.06,232.17a24.71,24.71,0,1,1-24.71-24.72A24.71,24.71,0,0,1,283.06,232.17Z"/><g class="cls-4"><path class="cls-5" d="M258.35,207.45a24.67,24.67,0,0,0-21.27,12.18,24.69,24.69,0,0,1,38.18,30.53,24.7,24.7,0,0,0-16.91-42.71Z"/></g><path class="cls-5" d="M258.35,258.6a26.43,26.43,0,1,1,26.43-26.43A26.46,26.46,0,0,1,258.35,258.6Zm0-49.43a23,23,0,1,0,23,23A23,23,0,0,0,258.35,209.17Z"/><path class="cls-6" d="M266.23,241.94H247.72a1.72,1.72,0,0,1,0-3.43h18.51a1.83,1.83,0,0,0,1.76-1.35l2.48-9a1.8,1.8,0,0,0-.31-1.6,1.84,1.84,0,0,0-1.45-.72H252.15a1.72,1.72,0,0,1,0-3.43h16.56a5.26,5.26,0,0,1,5.07,6.66l-2.48,9A5.28,5.28,0,0,1,266.23,241.94Z"/><path class="cls-6" d="M254.93,233.88H244.45a1.72,1.72,0,1,1,0-3.43h10.48a1.72,1.72,0,0,1,0,3.43Z"/><path class="cls-8" d="M234.57,278.66h.56A20.52,20.52,0,0,1,266,267.1a28.12,28.12,0,0,1,54.65-4.05,19.25,19.25,0,0,1,24.09,15.61h3.15a14.48,14.48,0,0,1,14.43,14.43v1.07a14.48,14.48,0,0,1-14.43,14.43H234.57a14.48,14.48,0,0,1-14.44-14.43v-1.07A14.48,14.48,0,0,1,234.57,278.66Z"/><path class="cls-6" d="M244.33,283.64h.47A17.12,17.12,0,0,1,270.5,274a23.45,23.45,0,0,1,45.57-3.38,16.07,16.07,0,0,1,20.08,13h2.62a12.07,12.07,0,0,1,12,12v.89a12.08,12.08,0,0,1-12,12H244.33a12.07,12.07,0,0,1-12-12v-.89A12.07,12.07,0,0,1,244.33,283.64Z"/><path class="cls-5" d="M275.44,265.75l-2.88-1.86a25.17,25.17,0,0,1,33.92-8l-1.75,3a21.74,21.74,0,0,0-29.29,6.88Z"/><path class="cls-5" d="M347.85,310.3H234.57a16.16,16.16,0,0,1-16.15-16.14v-1.07A16.16,16.16,0,0,1,233.88,277a22.38,22.38,0,0,1,21-14.84,22,22,0,0,1,9.86,2.32,29.84,29.84,0,0,1,57-3.41,20.67,20.67,0,0,1,3.89-.38A20.91,20.91,0,0,1,346.11,277h1.74A16.16,16.16,0,0,1,364,293.09v1.07A16.16,16.16,0,0,1,347.85,310.3ZM234.57,280.38a12.73,12.73,0,0,0-12.72,12.71v1.07a12.73,12.73,0,0,0,12.72,12.71H347.85a12.72,12.72,0,0,0,12.71-12.71v-1.07a12.72,12.72,0,0,0-12.71-12.71h-4.62l-.23-1.45a17.5,17.5,0,0,0-17.37-14.85,17.29,17.29,0,0,0-4.57.63l-1.6.43-.49-1.58a26.41,26.41,0,0,0-51.32,3.8l-.4,2.61L265,268.54a18.81,18.81,0,0,0-28.25,10.6l-.36,1.24Z"/><path class="cls-5" d="M317,272.3h-3.43a11.74,11.74,0,0,1,11.73-11.73V264A8.31,8.31,0,0,0,317,272.3Z"/><g class="cls-4"><path class="cls-5" d="M305.69,291.36V290.1a19,19,0,0,0-18.94-18.94h-2.34a24.58,24.58,0,0,0-14.66-17.55,29.73,29.73,0,0,0-5,10.83,22,22,0,0,0-9.86-2.32,22.38,22.38,0,0,0-21,14.84,16.16,16.16,0,0,0-15.46,16.13v1.07a16.16,16.16,0,0,0,16.15,16.14h52.18A19,19,0,0,0,305.69,291.36Z"/></g><path class="cls-8" d="M145.83,272.87h.67a24.49,24.49,0,0,1,36.79-13.8,33.57,33.57,0,0,1,65.23-4.83,23,23,0,0,1,28.76,18.63H281a17.28,17.28,0,0,1,17.23,17.23v1.26A17.28,17.28,0,0,1,281,308.59H145.83a17.27,17.27,0,0,1-17.22-17.23V290.1A17.27,17.27,0,0,1,145.83,272.87Z"/><path class="cls-6" d="M157.49,278.81h.56a20.42,20.42,0,0,1,30.67-11.5,28,28,0,0,1,54.38-4,19.14,19.14,0,0,1,24,15.53h3.13a14.4,14.4,0,0,1,14.36,14.36v1.06a14.4,14.4,0,0,1-14.36,14.36H157.49a14.4,14.4,0,0,1-14.36-14.36v-1.06A14.4,14.4,0,0,1,157.49,278.81Z"/><path class="cls-5" d="M194.34,257.28l-2.88-1.86a29.7,29.7,0,0,1,40-9.41l-1.75,3a26.26,26.26,0,0,0-35.4,8.31Z"/><path class="cls-5" d="M281,310.3H145.83a19,19,0,0,1-18.94-18.94V290.1a19,19,0,0,1,18.36-18.93,26.38,26.38,0,0,1,24.81-17.71,26.06,26.06,0,0,1,12,2.92,35.28,35.28,0,0,1,67.59-4.17,24.67,24.67,0,0,1,29,19H281A19,19,0,0,1,300,290.1v1.26A19,19,0,0,1,281,310.3Zm-135.2-35.71a15.52,15.52,0,0,0-15.51,15.51v1.26a15.53,15.53,0,0,0,15.51,15.51H281a15.53,15.53,0,0,0,15.51-15.51V290.1A15.52,15.52,0,0,0,281,274.59h-5.22l-.23-1.45a21.23,21.23,0,0,0-21.06-18,21,21,0,0,0-5.55.76l-1.59.43-.49-1.58a31.85,31.85,0,0,0-61.9,4.58l-.4,2.61-2.22-1.43a22.79,22.79,0,0,0-34.22,12.84l-.36,1.24Z"/><path class="cls-5" d="M243.85,265.28h-3.43a13.68,13.68,0,0,1,13.67-13.67V255A10.25,10.25,0,0,0,243.85,265.28Z"/><path class="cls-5" d="M78.87,208.4a1.72,1.72,0,0,1-1.21-2.93l6.91-6.91A1.71,1.71,0,1,1,87,201l-6.91,6.91A1.72,1.72,0,0,1,78.87,208.4Z"/><path class="cls-5" d="M85.78,208.4a1.7,1.7,0,0,1-1.21-.51L77.66,201a1.71,1.71,0,1,1,2.43-2.42L87,205.47a1.72,1.72,0,0,1-1.22,2.93Z"/><path class="cls-5" d="M47.1,159.73H37.32a1.72,1.72,0,0,1,0-3.43H47.1a1.72,1.72,0,0,1,0,3.43Z"/><path class="cls-5" d="M42.21,164.62a1.72,1.72,0,0,1-1.72-1.72v-9.77a1.72,1.72,0,0,1,3.43,0v9.77A1.72,1.72,0,0,1,42.21,164.62Z"/><path class="cls-5" d="M407.41,121h-9.78a1.72,1.72,0,0,1,0-3.43h9.78a1.72,1.72,0,0,1,0,3.43Z"/><path class="cls-5" d="M402.52,125.86a1.7,1.7,0,0,1-1.71-1.71v-9.77a1.72,1.72,0,1,1,3.43,0v9.77A1.71,1.71,0,0,1,402.52,125.86Z"/><path class="cls-5" d="M464,173.86a1.67,1.67,0,0,1-1.21-.5,1.71,1.71,0,0,1,0-2.42l6.91-6.91a1.71,1.71,0,0,1,2.42,2.42l-6.91,6.91A1.67,1.67,0,0,1,464,173.86Z"/><path class="cls-5" d="M470.9,173.86a1.67,1.67,0,0,1-1.21-.5l-6.91-6.91A1.71,1.71,0,0,1,465.2,164l6.91,6.91a1.71,1.71,0,0,1,0,2.42A1.67,1.67,0,0,1,470.9,173.86Z"/><polygon class="cls-5" points="338.47 173.44 342.81 170.93 347.15 173.44 347.15 178.45 342.81 180.96 338.47 178.45 338.47 173.44"/><polygon class="cls-5" points="122.63 114.35 126.97 111.84 131.31 114.35 131.31 119.36 126.97 121.87 122.63 119.36 122.63 114.35"/><polygon class="cls-5" points="241.21 81.71 245.56 79.2 249.9 81.71 249.9 86.73 245.56 89.23 241.21 86.73 241.21 81.71"/><polygon class="cls-5" points="466.1 237.71 470.44 235.21 474.78 237.71 474.78 242.73 470.44 245.24 466.1 242.73 466.1 237.71"/><polygon class="cls-5" points="342.81 92.5 348.67 89.12 354.53 92.5 354.53 99.27 348.67 102.65 342.81 99.27 342.81 92.5"/><path class="cls-5" d="M310.62,116.36H213.83a1.72,1.72,0,1,1,0-3.43h96.79a1.72,1.72,0,1,1,0,3.43Z"/><path class="cls-5" d="M207.8,116.36h-5.56a1.72,1.72,0,1,1,0-3.43h5.56a1.72,1.72,0,0,1,0,3.43Z"/><path class="cls-5" d="M193.11,116.36h-9.77a1.72,1.72,0,0,1,0-3.43h9.77a1.72,1.72,0,1,1,0,3.43Z"/><path class="cls-5" d="M188.23,121.25a1.72,1.72,0,0,1-1.72-1.72v-9.77a1.72,1.72,0,1,1,3.43,0v9.77A1.72,1.72,0,0,1,188.23,121.25Z"/><path class="cls-5" d="M242.77,142.21H233a1.72,1.72,0,1,1,0-3.43h9.77a1.72,1.72,0,1,1,0,3.43Z"/><path class="cls-5" d="M237.88,147.1a1.72,1.72,0,0,1-1.71-1.72v-9.77a1.72,1.72,0,0,1,3.43,0v9.77A1.72,1.72,0,0,1,237.88,147.1Z"/><path class="cls-5" d="M344.59,149.3a1.67,1.67,0,0,1-1.21-.5l-6.91-6.91a1.71,1.71,0,0,1,2.42-2.42l6.91,6.91a1.71,1.71,0,0,1,0,2.42A1.67,1.67,0,0,1,344.59,149.3Z"/><path class="cls-5" d="M337.68,149.3a1.67,1.67,0,0,1-1.21-.5,1.71,1.71,0,0,1,0-2.42l6.91-6.91a1.71,1.71,0,1,1,2.42,2.42l-6.91,6.91A1.67,1.67,0,0,1,337.68,149.3Z"/><path class="cls-5" d="M453.09,170.41H393.3a1.72,1.72,0,1,1,0-3.43h59.79a1.72,1.72,0,0,1,0,3.43Z"/><path class="cls-5" d="M201.44,142.21H85.21a1.72,1.72,0,1,1,0-3.43H201.44a1.72,1.72,0,0,1,0,3.43Z"/><path class="cls-5" d="M443.22,146.69H351.77a1.72,1.72,0,1,1,0-3.43h91.45a1.72,1.72,0,1,1,0,3.43Z"/><path class="cls-5" d="M224.61,142.21h-11a1.72,1.72,0,0,1,0-3.43h11a1.72,1.72,0,0,1,0,3.43Z"/><polygon class="cls-5" points="92.36 238.54 95.72 236.6 99.09 238.54 99.09 242.43 95.72 244.37 92.36 242.43 92.36 238.54"/><circle class="cls-6" cx="357.14" cy="280.96" r="27.63" transform="translate(1.3 563.56) rotate(-76.65)"/><path class="cls-2" d="M357.14,253.33a27.58,27.58,0,0,0-23.78,13.61A27.59,27.59,0,0,1,376,301.07a27.6,27.6,0,0,0-18.9-47.74Z"/><path class="cls-5" d="M358.93,283.52H345.7v-3.43h13.23a4.57,4.57,0,0,0,0-9.14H345.7v-3.43h13.23a8,8,0,0,1,0,16Z"/><path class="cls-5" d="M361.21,295.9H345.7v-3.43h15.51c3.12,0,5.66-2.05,5.66-4.57s-2.54-4.57-5.66-4.57H345.7V279.9h15.51c5,0,9.09,3.59,9.09,8S366.23,295.9,361.21,295.9Z"/><rect class="cls-5" x="348.86" y="263.04" width="3.43" height="35.83"/><rect class="cls-5" x="354.69" y="263.04" width="3.43" height="6.19"/><rect class="cls-5" x="354.69" y="294.18" width="3.43" height="4.69"/><path class="cls-5" d="M357.14,310.3A29.35,29.35,0,1,1,386.49,281,29.37,29.37,0,0,1,357.14,310.3Zm0-55.26A25.92,25.92,0,1,0,383.06,281,25.94,25.94,0,0,0,357.14,255Z"/><path class="cls-3" d="M142.73,300.13H131.5v-2.89a35.77,35.77,0,0,0-35.78-35.77h0A35.76,35.76,0,0,0,60,297.24v10.6l-7,.75h98.22A8.46,8.46,0,0,0,142.73,300.13Z"/><path class="cls-7" d="M131.5,300.13v-2.89a35.77,35.77,0,0,0-35.78-35.77h0a35.72,35.72,0,0,0-30.5,17.14,35.67,35.67,0,0,1,24.82-10h0c19.76,0,38.53,11.75,38.53,31.51Z"/><polygon class="cls-7" points="54.26 308.45 52.97 308.59 54.26 308.59 54.26 308.45"/><path class="cls-5" d="M152.9,310.3H53a1.72,1.72,0,1,1,0-3.43h96.28a6.75,6.75,0,0,0-6.52-5h-25.8a1.72,1.72,0,0,1,0-3.43h25.8a10.18,10.18,0,0,1,10.17,10.17Z"/><path class="cls-5" d="M60,310.3a1.72,1.72,0,0,1-1.72-1.71V297.24a37.49,37.49,0,0,1,75,0,1.72,1.72,0,1,1-3.43,0,34.06,34.06,0,0,0-68.12,0v11.35A1.72,1.72,0,0,1,60,310.3Z"/><path class="cls-5" d="M76.59,310.3a1.72,1.72,0,0,1-1.71-1.71v-6.3A21.59,21.59,0,0,1,96.46,280.7a1.72,1.72,0,1,1,0,3.43,18.12,18.12,0,0,0-18.15,18.16v6.3A1.72,1.72,0,0,1,76.59,310.3Z"/><path class="cls-3" d="M128.22,268.82c-8.14,0-14.74,5.67-14.74,12.66s6.6,12.67,14.74,12.67Z"/><path class="cls-5" d="M129.93,295.86h-1.71c-9.08,0-16.46-6.45-16.46-14.37s7.38-14.38,16.46-14.38h1.71Zm-3.43-25.23c-6.37.71-11.31,5.31-11.31,10.86s4.94,10.14,11.31,10.85Z"/><path class="cls-6" d="M138,281.48c0,7-3.26,12.67-7.28,12.67s-7.28-5.67-7.28-12.67,3.26-12.66,7.28-12.66S138,274.49,138,281.48Z"/><path class="cls-5" d="M130.7,295.86c-5,0-9-6.31-9-14.37s4-14.38,9-14.38,9,6.31,9,14.38S135.75,295.86,130.7,295.86Zm0-25.32c-2.63,0-5.56,4.49-5.56,10.95s2.93,10.94,5.56,10.94,5.57-4.49,5.57-10.94S133.33,270.54,130.7,270.54Z"/><path class="cls-6" d="M320.82,184.68v-7.31l-6.12-1.67a23.12,23.12,0,0,0-2.85-6.89l3.65-6-5.17-5.17-6,3.59a23.14,23.14,0,0,0-6.89-2.86l-1.68-6.64h-7.31l-1.68,6.64a23.24,23.24,0,0,0-6.83,2.82l-5.81-3.45-5.18,5.16,3.43,5.82a22.74,22.74,0,0,0-2.87,6.88l-6.13,1.92,0,7.31,6.12,1.44a23.12,23.12,0,0,0,2.85,6.89l-3.68,5.64L273.8,204l6.05-3.26a23,23,0,0,0,6.88,2.86l1.71,7h7.31l1.65-7a23.12,23.12,0,0,0,6.89-2.85l6,3.55,5.17-5.17-3.67-5.92a23,23,0,0,0,2.86-6.88Zm-29.52,6.49a10.3,10.3,0,1,1,10.3-10.3A10.3,10.3,0,0,1,291.3,191.17Z"/><path class="cls-5" d="M297.1,212.39l-10,0L285.31,205a25.5,25.5,0,0,1-5.5-2.3l-6.32,3.41-7-7.07,3.85-5.92a24.29,24.29,0,0,1-2.23-5.41l-6.43-1.51V176.3l6.42-2a25.35,25.35,0,0,1,2.31-5.54l-3.59-6.09,7.06-7,6.09,3.61a24.6,24.6,0,0,1,5.41-2.24l1.75-6.95h10l1.76,6.95a25.37,25.37,0,0,1,5.47,2.27l6.3-3.75,7.07,7.07-3.82,6.24a24.73,24.73,0,0,1,2.26,5.48l6.43,1.75V186l-6.42,1.78a25.17,25.17,0,0,1-2.27,5.47l3.84,6.2-7.08,7-6.32-3.7a24.77,24.77,0,0,1-5.46,2.26ZM289.79,209h4.6l1.58-6.74,1-.24a21.33,21.33,0,0,0,6.38-2.64l.87-.54,5.8,3.4,3.28-3.27-3.52-5.67.56-.9A21.19,21.19,0,0,0,313,186l.24-1,5.84-1.62v-4.69l-5.83-1.59-.24-1a21.42,21.42,0,0,0-2.64-6.37l-.56-.9,3.5-5.71-3.27-3.27-5.77,3.43-.88-.55a21.81,21.81,0,0,0-6.38-2.64l-1-.24-1.61-6.36h-4.64l-1.6,6.36-1,.24a21.28,21.28,0,0,0-6.32,2.61l-.88.55-5.56-3.3-3.3,3.28,3.28,5.56-.55.88a21.8,21.8,0,0,0-2.66,6.38l-.22.94-5.86,1.84v4.69l5.83,1.37.24,1a21.18,21.18,0,0,0,2.64,6.38l.57.92-3.51,5.39,3.28,3.29,5.79-3.12.84.52a21.53,21.53,0,0,0,6.38,2.66l1,.24Zm1.51-16.06a12,12,0,1,1,12-12A12,12,0,0,1,291.3,192.89Zm0-20.6a8.59,8.59,0,1,0,8.58,8.58A8.59,8.59,0,0,0,291.3,172.29Z"/><rect class="cls-5" x="290.2" y="158.33" width="3.12" height="3.43"/><rect class="cls-5" x="305.01" y="164.69" width="3.43" height="3.12" transform="translate(-27.71 265.6) rotate(-45)"/><rect class="cls-5" x="311.35" y="179.5" width="3.12" height="3.43" transform="translate(131.28 493.89) rotate(-89.92)"/><rect class="cls-5" x="305.13" y="194.46" width="3.12" height="3.43" transform="translate(-49.03 273.67) rotate(-44.89)"/><rect class="cls-5" x="290" y="200.79" width="3.43" height="3.12" transform="translate(88.74 493.63) rotate(-89.88)"/><rect class="cls-5" x="275.04" y="194.56" width="3.43" height="3.12" transform="translate(-57.76 252.31) rotate(-44.86)"/><rect class="cls-5" x="269.04" y="179.42" width="3.12" height="3.43" transform="translate(88.76 451.26) rotate(-89.85)"/><rect class="cls-5" x="275.29" y="164.47" width="3.12" height="3.43" transform="translate(-36.71 243.27) rotate(-44.79)"/><path class="cls-5" d="M466.77,310.3H45.64a1.72,1.72,0,1,1,0-3.43H466.77a1.72,1.72,0,0,1,0,3.43Z"/><path class="cls-5" d="M479.19,310.3H473a1.72,1.72,0,1,1,0-3.43h6.22a1.72,1.72,0,0,1,0,3.43Z"/><path class="cls-5" d="M39.46,310.3H28.91a1.72,1.72,0,0,1,0-3.43H39.46a1.72,1.72,0,1,1,0,3.43Z"/></svg>