<svg id="Layer_1" data-name="Layer 1" xmlns="http://www.w3.org/2000/svg" viewBox="0 0 512 512"><defs><style>.cls-1{fill:#837fcb;}</style></defs><title>diamond-purple</title><path class="cls-1" d="M454.2,271.73,399,185.4a23.22,23.22,0,0,0-19.52-10.76l-245.76-1.4a23.27,23.27,0,0,0-19.63,10.51L57.72,269.46a23.4,23.4,0,0,0,2,28.24L237.23,499.29a23.34,23.34,0,0,0,17.37,7.91h0a23.33,23.33,0,0,0,17.46-7.71L451.88,299.91A23.38,23.38,0,0,0,454.2,271.73Zm-86.13-77.16-47.26,72.18L274.35,194Zm-65.68,80.48-92.94-.52L256.32,203Zm-64-81.21-47.16,72-46.31-72.5Zm-112,7.6L173,274.32l-94.14-.54ZM82.93,293.81l100.64.57,52.23,173ZM254.86,461.33,204.5,294.5l102.61.58Zm19,6.3L328,295.2l100.65.57Zm65.31-192.37L386.48,203l46.58,72.83Z"/><path class="cls-1" d="M30.26,273.51l-20.33-.12a10,10,0,1,0-.11,20l20.33.12a10,10,0,1,0,.11-20Z"/><path class="cls-1" d="M501.92,276.18l-20.33-.11a10,10,0,1,0-.11,20l20.33.11a10,10,0,1,0,.11-20Z"/><path class="cls-1" d="M438,104.85a10,10,0,0,0-14.14-.08l-33.41,33A10,10,0,1,0,404.55,152L438,119A10,10,0,0,0,438,104.85Z"/><path class="cls-1" d="M123.36,136.11l-33-33.41a10,10,0,0,0-14.22,14.06l33,33.41a10,10,0,1,0,14.22-14.06Z"/><path class="cls-1" d="M257.58,28.79a10,10,0,0,0-10.06,10l-.37,65.16a10,10,0,1,0,20,.12l.37-65.17A10,10,0,0,0,257.58,28.79Z"/><path class="cls-1" d="M264.06,130.76a10,10,0,1,0,2.89,7.09A10.05,10.05,0,0,0,264.06,130.76Z"/></svg>