<svg id="Layer_1" data-name="Layer 1" xmlns="http://www.w3.org/2000/svg" viewBox="0 0 230 230"><defs><style>.cls-1{fill:#d3d3d3;}.cls-2{fill:#00d1b2;}.cls-3{fill:#5cffe0;}.cls-4{fill:#414242;}.cls-5{fill:#04b597;}.cls-6{fill:#d5d5d5;}.cls-7{fill:#dfdfdf;}.cls-8{fill:#a5a5a5;}.cls-9{fill:#fff;}.cls-10{fill:#d4d4d4;}.cls-11{fill:#f2f2f2;}.cls-12{fill:#a4a4a4;}.cls-13{fill:#f1f1f1;}</style></defs><title>ecommerce-pricing-icon-2-teal</title><path class="cls-1" d="M48,149.8l-1.9,1.1a2.89,2.89,0,0,1-3.1,0l-6.5-3.8a1.12,1.12,0,0,1,0-1.9l2.9-1.7a1.08,1.08,0,0,1,1.1,0l7.5,4.3A1.13,1.13,0,0,1,48,149.8Z"/><path class="cls-2" d="M45.1,128.6l-3.2,1.9h0l-6.2-3.6h0l3.2-1.9h0l6.2,3.6Z"/><path class="cls-3" d="M45.1,130l-3.2,1.9h0l-6.2-3.6h0l3.2-1.9h0l6.2,3.6Z"/><path class="cls-4" d="M41.9,131.1l-.3-.1-6.4-3.7v-.6l.2-.2,3.5-2,.3.1,6.4,3.7v.6l-.3.2Zm-5.3-4.2,5.3,3.1,2.3-1.3-5.3-3.1Z"/><path class="cls-2" d="M35.6,126.9v17.2h0l6.2,3.6h0V130.5h0l-6.2-3.6Z"/><path class="cls-4" d="M41.8,148.3l-.3-.1-6.4-3.7V126.7l.5-.3.3.1,6.4,3.7V148Zm-5.7-4.4,5.3,3.1V130.9l-5.3-3.1Z"/><path class="cls-5" d="M45.2,128.7v17.2h0L42,147.8h0V130.6h0l3.2-1.9C45.1,128.6,45.2,128.6,45.2,128.7Z"/><path class="cls-4" d="M41.9,148.3l-.5-.3V130.2l.3-.2,3.5-2,.5.3v17.8l-.3.2Zm.4-17.5v16.1l2.3-1.3V129.5Z"/><path class="cls-6" d="M191.2,151l-61.6,35.6a8.4,8.4,0,0,1-8.4,0L58.5,150.2a2.63,2.63,0,0,1,0-4.6L123,108.3a2.44,2.44,0,0,1,2.6,0l65.3,37.9C192.7,147.3,193,150,191.2,151Z"/><path class="cls-7" d="M62.7,119.2l-.1-35.7,116.9-1.6.1,61.4a1.83,1.83,0,0,1-1.1,1.9l-55.7,31.9a7.06,7.06,0,0,1-6.6-.3L64.3,146.7C63.2,146.1,62.7,120,62.7,119.2Z"/><polygon class="cls-8" points="119.7 118 119.6 177.7 122.8 177.1 179.6 144.4 179.4 84.6 122 117.7 119.7 118"/><path class="cls-4" d="M119.9,178.1a7.32,7.32,0,0,1-3.9-1L64.1,147c-1.4-.8-1.7-27.1-1.8-27.9h0L62.2,83l117.6-1.6.1,61.7a2,2,0,0,1-1.3,2.2L123,177.4A7.09,7.09,0,0,1,119.9,178.1ZM63,83.8l.1,35.4h0c-.1,1.3.5,26.4,1.4,27.2l51.9,30.1a6.84,6.84,0,0,0,6.2.3l55.7-31.9a1.55,1.55,0,0,0,.9-1.6l-.1-61.1Z"/><path class="cls-7" d="M122.7,115.7l55.7-31.9c1.7-1,1.5-2.7-.5-3.8L126,49.9a7.69,7.69,0,0,0-6.6-.3L63.7,81.5c-1.7,1-1.5,2.7.5,3.8l51.9,30.1C118.1,116.5,121,116.7,122.7,115.7Z"/><path class="cls-4" d="M119.8,116.7a7.32,7.32,0,0,1-3.9-1L64,85.7a3.14,3.14,0,0,1-1.8-2.5,2.42,2.42,0,0,1,1.3-2l55.7-31.9a7.67,7.67,0,0,1,6.9.3L178,79.7a3.14,3.14,0,0,1,1.8,2.5,2.42,2.42,0,0,1-1.3,2L122.9,116A5.93,5.93,0,0,1,119.8,116.7Zm2.5-67.3a5.67,5.67,0,0,0-2.7.6L63.9,81.8c-.6.4-1,.8-1,1.3a2.34,2.34,0,0,0,1.4,1.8L116.2,115a6.84,6.84,0,0,0,6.2.3h0l55.7-31.9c.6-.4,1-.8,1-1.3a2.34,2.34,0,0,0-1.4-1.8L125.8,50.2A8.17,8.17,0,0,0,122.3,49.4Z"/><path class="cls-7" d="M62.6,76.9a2.63,2.63,0,0,0,1.6,1.9l51.9,30.1a7.69,7.69,0,0,0,6.6.3l55.7-31.9a2.39,2.39,0,0,0,1.1-1.4v7.7a1.83,1.83,0,0,1-1.1,1.9l-55.7,31.9a7.06,7.06,0,0,1-6.6-.3l-51.9-30c-1.1-.7-1.7-1.5-1.6-2.3V76.9Z"/><path class="cls-7" d="M63.7,75.1l55.7-31.9a7.06,7.06,0,0,1,6.6.3l51.9,30.1c2,1.1,2.2,2.8.5,3.8l-55.7,31.9a7.06,7.06,0,0,1-6.6-.3L64.2,78.9C62.2,77.8,62,76.1,63.7,75.1Zm7,3.3L117,105.2a6.06,6.06,0,0,0,5.4.2L172.2,77c1.4-.8,1.2-2.2-.4-3.1L125.5,47.1a6.06,6.06,0,0,0-5.4-.2L70.3,75.3C69,76.1,69.1,77.5,70.7,78.4Z"/><path class="cls-9" d="M120.1,60.4,82.8,81.7l37.5,21.7a6.06,6.06,0,0,0,5.4.2L163.6,82,126.7,60.6A7.34,7.34,0,0,0,120.1,60.4Z"/><path class="cls-9" d="M126,45.1a7.69,7.69,0,0,0-6.6-.3L63.7,76.7a1.91,1.91,0,0,0-.9.9,3.56,3.56,0,0,0,1.4,1.3L116.1,109a7.69,7.69,0,0,0,6.6.3l55.7-31.9a1.91,1.91,0,0,0,.9-.9,3.56,3.56,0,0,0-1.4-1.3Zm46.2,33.4L122.4,107a6.06,6.06,0,0,1-5.4-.2L70.7,79.9c-1.2-.7-1.6-1.7-1.1-2.5a1.5,1.5,0,0,1,.6-2.2L120,46.8a6.06,6.06,0,0,1,5.4.2l46.3,26.8c1.2.7,1.6,1.7,1.1,2.5A1.46,1.46,0,0,1,172.2,78.5Z"/><path class="cls-7" d="M70.3,75.3l49.8-28.4a6.06,6.06,0,0,1,5.4.2l46.3,26.8c1.6.9,1.8,2.3.4,3.1l-5.9,3.4L125.9,57a6.06,6.06,0,0,0-5.4-.2l-43.8,25-5.9-3.4C69.1,77.5,69,76.1,70.3,75.3Z"/><polygon class="cls-7" points="167.8 147.4 167.9 114.7 125.7 138.9 125.7 171.7 167.8 147.4"/><path class="cls-4" d="M125.4,172.2V138.8l.1-.1L168,114.2v33.3l-.1.1Zm.6-33.1v32.2l41.6-24V115.2Z"/><polygon class="cls-7" points="167 146.8 167 115.1 167.9 114.7 167.8 147.4 125.7 171.7 125.7 170.6 167 146.8"/><path class="cls-4" d="M125.4,172.2v-1.7l.1-.1,41.2-23.8V115l1.4-.8v33.3l-.1.1Zm.6-1.4v.4l41.6-24V115.1l-.3.2v31.6l-.1.1Z"/><polygon class="cls-7" points="176.3 142.6 176.4 110.1 170.7 113.3 170.6 145.9 176.3 142.6"/><path class="cls-4" d="M170.3,146.4V113.2l6.2-3.5v33.1Zm.6-32.9v32l5.2-3V110.6Z"/><polygon class="cls-7" points="175.5 142 175.5 110.6 176.4 110.1 176.3 142.6 170.6 145.9 170.6 144.9 175.5 142"/><path class="cls-4" d="M170.3,146.4v-1.7l4.9-2.9V110.4l1.4-.8v33.1Zm.6-1.4v.4l5.2-3V110.5l-.3.2v31.4Z"/><path class="cls-4" d="M99,165.3l-7.9-4.7V130.7l7.9,4.4Zm-7.4-4.9,6.9,4V135.6l-6.9-3.8Z"/><polygon class="cls-7" points="92.3 131.6 92.3 159.8 98.7 163.5 98.7 164.8 91.3 160.5 91.3 131 92.3 131.6"/><path class="cls-4" d="M99,165.3l-7.9-4.7V130.5l1.5.8v28.2l6.4,3.7Zm-7.4-4.9,6.9,4v-.7L92.1,160V131.8l-.5-.3Z"/><polygon class="cls-7" points="98.7 146 98.7 147.4 92.7 144.1 92.7 142.6 98.7 146"/><path class="cls-4" d="M106.3,169.7,98.4,165V134.9l7.9,4.4Zm-7.3-5,6.9,4V139.6L99,135.8Z"/><polygon class="cls-7" points="99.7 135.9 99.7 164.2 106.1 167.9 106.1 169.2 98.7 164.9 98.7 135.4 99.7 135.9"/><path class="cls-4" d="M106.3,169.7,98.4,165V134.9l1.5.8v28.2l6.4,3.7Zm-7.3-5,6.9,4V168l-6.4-3.7V136.1l-.5-.3Z"/><polygon class="cls-7" points="110.8 132.5 100.6 126.6 100.6 117.8 110.8 123.7 110.8 132.5"/><polygon class="cls-7" points="100.6 117.8 103.8 116.1 114 122 110.8 123.7 100.6 117.8"/><polygon class="cls-9" points="102 118.5 103.8 117.6 114 123.5 112.2 124.4 102 118.5"/><polygon class="cls-8" points="110.8 132.5 114 130.8 114 122 110.8 123.7 110.8 132.5"/><path class="cls-4" d="M114.3,121.8l-10.5-6.1-3.6,1.9v9.2l10.5,6.1,3.6-1.9Zm-10.5-5.3,9.5,5.5-1.9,1-.6.3-9.5-5.5Zm-2.9,9.9v-8l9.5,5.5v8Zm12.7,4.2-2.5,1.4v-8l.6-.3,1.9-1Z"/><path class="cls-9" d="M109.2,127.7c0,1.6-1.1,2.2-2.4,1.4a5.56,5.56,0,0,1-2.4-4.2c0-1.6,1.1-2.2,2.4-1.4A5.4,5.4,0,0,1,109.2,127.7Z"/><path class="cls-4" d="M106.7,128.7a2.42,2.42,0,0,1-1.3-.4,5.48,5.48,0,0,1-2.6-4.5,2,2,0,0,1,.9-1.9,2,2,0,0,1,2.1.2,5.62,5.62,0,0,1,2.6,4.5,2,2,0,0,1-.9,1.9A1.88,1.88,0,0,1,106.7,128.7Zm-2.2-6.3a.9.9,0,0,0-.5.1,1.58,1.58,0,0,0-.5,1.3,4.91,4.91,0,0,0,2.3,3.9,1.47,1.47,0,0,0,1.4.2,1.58,1.58,0,0,0,.5-1.3,4.91,4.91,0,0,0-2.3-3.9A1.61,1.61,0,0,0,104.5,122.4Z"/><polygon class="cls-8" points="122.5 46.3 122.4 56.3 121.3 56.5 76.6 81.8 70.3 78.1 69.4 76.9 69.9 75.5 120.1 46.9 122.5 46.3"/><polygon class="cls-8" points="119.7 109.9 119.7 118 122.4 117.6 179 85 179.5 84.1 179.2 76.6 122.7 109.3 121.2 109.8 119.7 109.9"/><path class="cls-7" d="M133.7,175.7l-.9,3.1a2.14,2.14,0,0,1-1.3.6,1.83,1.83,0,0,1-1.3-.6l-1-2.9Z"/><polygon class="cls-8" points="131.6 176.6 131.4 179.3 132.8 178.9 133.4 176 131.6 176.6"/><path class="cls-4" d="M131.4,179.6a2.1,2.1,0,0,1-1.6-.7l-.1-.1-1.2-3.4,5.5-.2-1.1,3.6.1.2A2.18,2.18,0,0,1,131.4,179.6Zm-1-1.1a1.45,1.45,0,0,0,2,0l.7-2.5-3.6.1Z"/><path class="cls-7" d="M127.8,171.9h0l2.1-8.1h0a1.53,1.53,0,0,1,1.6-1.3,1.71,1.71,0,0,1,1.6,1.3h0l2.1,8.1h0a2.77,2.77,0,0,1,.1.9,3.8,3.8,0,1,1-7.6,0A1.41,1.41,0,0,1,127.8,171.9Z"/><path class="cls-9" d="M135,171.9l-1.8-7.1a1.09,1.09,0,0,0-.5-.1,1.71,1.71,0,0,0-1.6,1.3h0l-2.1,8.1h0a2.77,2.77,0,0,0-.1.9,1.27,1.27,0,0,0,.1.6,4.17,4.17,0,0,0,2.4.9,3.8,3.8,0,0,0,3.8-3.8c-.1-.2-.1-.5-.2-.8Z"/><path class="cls-4" d="M131.4,177a4.12,4.12,0,0,1-4.1-4.1v-.6h0l2.2-8.6v-.2h0a1.92,1.92,0,0,1,1.8-1.3,2,2,0,0,1,1.9,1.4l.1.2,2.2,8.6h0v.6A4.17,4.17,0,0,1,131.4,177Zm-3.2-5.4h0l-.1.4a2.49,2.49,0,0,0-.1.8,3.4,3.4,0,1,0,6.8,0,2.2,2.2,0,0,0-.1-.8l-.1-.4h0l-2-7.7a1.22,1.22,0,0,0-2.4,0l-.1.3Z"/><polygon class="cls-4" points="132.7 161 132.1 160.7 142.2 138.7 142.8 139 132.7 161"/><polygon class="cls-4" points="140.2 152.2 139.6 151.9 147.7 134.8 148.3 135 140.2 152.2"/><polygon class="cls-4" points="154 149.9 153.4 149.6 162.4 130.8 163.1 131.1 154 149.9"/><polygon class="cls-4" points="93.5 147.7 93.1 147.3 97.5 142.4 97.9 142.8 93.5 147.7"/><rect class="cls-4" x="92.6" y="148.9" width="4.3" height="0.5" transform="translate(-79.85 121.96) rotate(-48.72)"/><rect class="cls-4" x="99.96" y="153.92" width="4.3" height="0.5" transform="translate(-81.11 129.19) rotate(-48.72)"/><polygon class="cls-5" points="85.1 139.2 97.2 132.3 97.2 127.9 93.7 130 85.1 137.1 85.1 139.2"/><polygon class="cls-2" points="85.1 137.1 53 118.2 61.5 111.1 93.7 130 85.1 137.1"/><polygon class="cls-2" points="85.1 137.1 53 119.7 61.5 112.6 92.4 130.8 85.1 137.1"/><polygon class="cls-2" points="97.2 127.9 65 109 61.5 111.1 93.7 130 97.2 127.9"/><polygon class="cls-3" points="95.9 128.7 65 110.6 61.5 112.6 92.4 130.8 95.9 128.7"/><polygon class="cls-2" points="85.1 139.2 53 120.3 53 118.2 85.1 137.1 85.1 139.2"/><path class="cls-4" d="M52.7,118.1l8.4-7,.3-.2.1-.1,3.5-2,32.4,19v4.6l-12.3,7.1-32.4-19Zm32.4,18.7,8.2-6.8L61.6,111.4l-8.2,6.8ZM65,109.3,62,111l4.9,2.9,26.8,15.7,3-1.7Zm32,22.9v-3.8l-3.1,1.8-2.7,2.2-5.8,4.8v1.6Zm-43.8-12,31.7,18.6v-1.6L53.2,118.6Z"/><path class="cls-2" d="M183.7,96.4l-6.3-3.6h0a1.21,1.21,0,0,0-1,.1l-50.3,29a3.78,3.78,0,0,0-1.5,2.9v10.7a1.69,1.69,0,0,0,.4,1.2h0a.1.1,0,0,1,.1.1l6.1,3.5,4-8.7,2.1-1.3,39.1-22.5a3.78,3.78,0,0,0,1.5-2.9v-.5l2.8-1.8Z"/><path class="cls-3" d="M177.4,95.4h0a1.21,1.21,0,0,0-1,.1l-50.3,29a3.78,3.78,0,0,0-1.5,2.9h0l9,5.1,1.6,1.6,2.1-1.3,39.1-22.5a3.78,3.78,0,0,0,1.5-2.9v-.5l2.8-1.8,2.9-6Z"/><path class="cls-4" d="M131.4,140.7l-6.5-3.7a.1.1,0,0,1-.1-.1,1.75,1.75,0,0,1-.6-1.5V124.7a4,4,0,0,1,1.7-3.2l50.4-29a1.23,1.23,0,0,1,1.3-.1h.1l6.1,3.5a.54.54,0,0,1,.2.8h0l-2.9,5.9-2.8,1.8v.3a4,4,0,0,1-1.7,3.2l-39.1,22.5-2,1.3ZM177,93.1c-.1,0-.3.1-.4.1l-50.4,29a3.39,3.39,0,0,0-1.4,2.6v10.7a1.22,1.22,0,0,0,.3.9l5.9,3.4,3.9-8.5,2.2-1.4,39.1-22.5a3.39,3.39,0,0,0,1.4-2.6v-.7l2.9-1.9,2.7-5.6-5.8-3.3h0l-.2-.1C177.2,93.1,177.1,93.1,177,93.1Z"/><path class="cls-5" d="M182.6,111.2l-50.3,29c-.8.5-1.5,0-1.5-1.2V128.3a3.78,3.78,0,0,1,1.5-2.9l50.3-29c.8-.5,1.5,0,1.5,1.2v10.7A3.27,3.27,0,0,1,182.6,111.2Z"/><path class="cls-4" d="M131.7,140.7a1.42,1.42,0,0,1-.6-.2,1.81,1.81,0,0,1-.7-1.5V128.3a4,4,0,0,1,1.7-3.2l50.4-29a1.42,1.42,0,0,1,1.4-.1,1.81,1.81,0,0,1,.7,1.5v10.7a4,4,0,0,1-1.7,3.2l-50.4,29A1,1,0,0,1,131.7,140.7Zm51.5-44.1c-.2,0-.3.1-.4.1l-50.4,29a3.39,3.39,0,0,0-1.4,2.6V139q0,.75.3.9a.61.61,0,0,0,.6-.1l50.4-29a3.39,3.39,0,0,0,1.4-2.6V97.5q0-.75-.3-.9C183.4,96.7,183.3,96.6,183.2,96.6Z"/><path class="cls-4" d="M119.8,110.3a7.32,7.32,0,0,1-3.9-1L64,79.2a3.14,3.14,0,0,1-1.8-2.5,2.42,2.42,0,0,1,1.3-2h0l55.7-31.9a7.67,7.67,0,0,1,6.9.3L178,73.2a3.14,3.14,0,0,1,1.8,2.5,2.42,2.42,0,0,1-1.3,2l-55.7,31.9A6.32,6.32,0,0,1,119.8,110.3ZM63.9,75.4c-.6.4-1,.8-1,1.3a2.34,2.34,0,0,0,1.4,1.8l51.9,30.1a6.84,6.84,0,0,0,6.2.3L178.1,77c.6-.4,1-.8,1-1.3a2.34,2.34,0,0,0-1.4-1.8L125.8,43.8a6.84,6.84,0,0,0-6.2-.3Zm56.2,30.9a6.9,6.9,0,0,1-3.2-.8L70.6,78.7a2.6,2.6,0,0,1-1.5-2.1,2.08,2.08,0,0,1,1.1-1.7L120,46.5a6.08,6.08,0,0,1,5.7.2L172,73.6a2.6,2.6,0,0,1,1.5,2.1,2.08,2.08,0,0,1-1.1,1.7l-49.8,28.4A6.55,6.55,0,0,1,120.1,106.3Zm2.4-59.6a5.09,5.09,0,0,0-2.2.5L70.5,75.6a1.26,1.26,0,0,0-.7,1c0,.5.4,1,1.1,1.4h0l46.3,26.8a5.54,5.54,0,0,0,5,.2L172,76.7a1.26,1.26,0,0,0,.7-1c0-.5-.4-1-1.1-1.4L125.3,47.5A4.79,4.79,0,0,0,122.5,46.7Z"/><path class="cls-4" d="M76.6,82.2l-6.1-3.5A2.6,2.6,0,0,1,69,76.6a2.08,2.08,0,0,1,1.1-1.7h0l49.8-28.4a6.08,6.08,0,0,1,5.7.2L172,73.6a2.6,2.6,0,0,1,1.5,2.1,2.08,2.08,0,0,1-1.1,1.7l-6.1,3.5L125.7,57.4a5.54,5.54,0,0,0-5-.2Zm-6.1-6.6a1.26,1.26,0,0,0-.7,1c0,.5.4,1,1.1,1.4l5.7,3.3,43.7-24.9a6.08,6.08,0,0,1,5.7.2L166.3,80l5.7-3.3c.3-.2.8-.5.7-1s-.4-1-1.1-1.4L125.3,47.5a5.54,5.54,0,0,0-5-.2L70.5,75.6Z"/><polygon class="cls-8" points="153.6 77.3 153.6 69 135.4 79.1 135.7 87.4 153.6 77.3"/><polygon class="cls-7" points="135.4 79.1 118.2 68.9 118.2 77.2 135.7 87.4 135.4 79.1"/><polygon class="cls-7" points="158.5 79.1 154.1 76 153.6 77.3 135.6 87.8 139.3 89.8 158.5 79.1"/><polygon class="cls-7" points="153.6 69 135.8 58.4 118.2 68.9 135.4 79.1 153.6 69"/><polygon class="cls-9" points="151.9 70.1 135.8 60.6 118.2 71.1 135.4 81.3 135.4 79.1 151.9 70.1"/><path class="cls-4" d="M154,68.8,135.8,58,117.9,68.7v8.6l17.8,10.4L154,77.5Zm-18.2-9.9L152.9,69l-17.5,9.7-16.5-9.8ZM118.5,77V69.6L135,79.4l.1,3.5.1,3.9ZM136,86.8l-.1-4.1-.1-3.4,17.5-9.8V77Z"/><path class="cls-7" d="M134.6,67.9c-1.4.2-2,.8-2,1.6v.1l-4.3,2.1a3.72,3.72,0,0,1-.7-2c0-2.7,3.3-4.8,7.5-5Z"/><path class="cls-7" d="M133.9,70.9a3.58,3.58,0,0,0,1.9.4,2.56,2.56,0,0,0,1.8-.4l4.5,1.9a11.19,11.19,0,0,1-12.9-.3Z"/><path class="cls-7" d="M138.8,69.5c.1-.1,0,.2,0,0a2,2,0,0,0-2-2l-.5-2.8c4.2.2,7.5,2.4,7.5,5a3.52,3.52,0,0,1-.9,2.3Z"/><path class="cls-4" d="M133.1,68.6l-.1-.2v-.1c0-.3,0-1.1,1.7-1.3h.3l.6-3.9h-.4c-4.4.2-7.8,2.5-7.8,5.4a3.6,3.6,0,0,0,.7,2.2l.2.2,4.6-2.2Zm-.8-.4L128.5,70a2.93,2.93,0,0,1-.4-1.6c0-2.3,2.9-4.3,6.7-4.6l-.4,2.5C132.7,66.6,132.3,67.5,132.3,68.2Z"/><path class="cls-4" d="M137.4,69.4a2.89,2.89,0,0,1-1.7.3,2.73,2.73,0,0,1-1.7-.3l-.1-.1-5.5,1.9.4.4a11.59,11.59,0,0,0,13.3.2l.5-.4-5.2-2.2Zm3.9,2.3a11.11,11.11,0,0,1-5.6,1.5,10,10,0,0,1-5.9-1.7l4-1.4a6.17,6.17,0,0,0,3.8,0Z"/><path class="cls-4" d="M136.4,63.1H136l.6,3.5h.3a1.66,1.66,0,0,1,1.7,1.6l-.1.2.1.1v.2h.3l4.2,2.5.2-.2a4.17,4.17,0,0,0,1-2.5C144.2,65.6,140.8,63.3,136.4,63.1Zm6.4,7.2-3.6-2.2-.1-.1a2.32,2.32,0,0,0-2-2l-.4-2.1c3.8.3,6.7,2.3,6.7,4.6A2.2,2.2,0,0,1,142.8,70.3Z"/><path class="cls-7" d="M132.6,68.3c0,1,1.4,1.8,3.1,1.8s3.1-.8,3.1-1.8c0-.7-.8-2.6-1.9-2.8-.4-.1-.8,1.1-1.2,1.1s-.8-1.2-1.2-1.1C133.5,65.7,132.6,67.6,132.6,68.3Z"/><polygon class="cls-8" points="135.7 67.7 135.7 70.1 137.1 69.8 138.3 69.3 138.8 68.3 138.2 66.5 136.9 67.6 135.7 67.7"/><path class="cls-4" d="M135.7,70.4c-1.9,0-3.5-.9-3.5-2.1,0-.8.9-2.8,2.2-3.2.5-.1.7.3,1,.6a4,4,0,0,1,.3.4c.1,0,.2-.3.3-.4.2-.3.5-.8,1-.6,1.2.3,2.2,2.3,2.2,3.2C139.2,69.5,137.7,70.4,135.7,70.4Zm-1.1-4.6a3.66,3.66,0,0,0-1.6,2.5c0,.7,1.1,1.4,2.8,1.4s2.8-.7,2.8-1.4a3.36,3.36,0,0,0-1.6-2.5l-.3.3c-.2.3-.5.7-.9.7s-.7-.4-.9-.7A.32.32,0,0,1,134.6,65.8Z"/><path class="cls-4" d="M119.8,118.4a7.32,7.32,0,0,1-3.9-1L64,87.4a3,3,0,0,1-1.8-2.6V77l.7-.1a2.75,2.75,0,0,0,1.4,1.7l51.9,30.1a6.84,6.84,0,0,0,6.2.3l55.8-32c.5-.3.9-.7.9-1.1l.7.1v7.7a2,2,0,0,1-1.3,2.2l-55.7,31.9A6.39,6.39,0,0,1,119.8,118.4ZM63,78.3v6.5c-.1.7.5,1.4,1.4,2l51.9,30.1a6.84,6.84,0,0,0,6.2.3l55.7-31.9a1.55,1.55,0,0,0,.9-1.6V77.2a2.09,2.09,0,0,1-.6.4l-55.7,31.9a7.67,7.67,0,0,1-6.9-.3L64,79.1A2.72,2.72,0,0,1,63,78.3Z"/><path class="cls-7" d="M133.6,66.5c0,.7,1,1.2,2.2,1.2s2.2-.5,2.2-1.2-1-1.2-2.2-1.2S133.6,65.8,133.6,66.5Z"/><path class="cls-9" d="M133.6,67.3c0,.7,1,1.2,2.2,1.2s2.2-.5,2.2-1.2-1-1.2-2.2-1.2S133.6,66.7,133.6,67.3Z"/><path class="cls-4" d="M135.7,68.1c-1.4,0-2.5-.7-2.5-1.6s1.1-1.6,2.5-1.6,2.5.7,2.5,1.6S137.1,68.1,135.7,68.1Zm0-2.5c-1,0-1.8.5-1.8.9s.8.9,1.8.9,1.8-.5,1.8-.9S136.8,65.6,135.7,65.6Z"/><path class="cls-10" d="M75.3,181,66,186.3a5,5,0,0,1-4.9,0l-9-5.3a1.88,1.88,0,0,1,0-3.3l10.7-6a2.12,2.12,0,0,1,1.9,0l10.6,6.1A1.8,1.8,0,0,1,75.3,181Z"/><path class="cls-11" d="M73.7,174.6,62,181.2h-.1l-11.4-6.6v-.1L62,168h.1l11.5,6.6Z"/><path class="cls-9" d="M73.6,177l-11.7,6.6h-.1L50.4,177v-.1l11.5-6.5H62L73.5,177C73.6,176.9,73.6,176.9,73.6,177Z"/><path class="cls-4" d="M62.1,181.7l-.2-.1-11.6-6.7v-.3a.76.76,0,0,1,.2-.4l11.7-6.6.2.1,11.7,6.7v.3a.76.76,0,0,1-.2.4Zm-10.9-7.1L62,180.9l11.1-6.3-10.9-6.2Z"/><path class="cls-7" d="M50.5,174.7v2.4l11.4,6.6a.1.1,0,0,0,.1-.1v-2.4l-11.5-6.5C50.6,174.6,50.5,174.6,50.5,174.7Z"/><path class="cls-4" d="M62,184c-.1,0-.1,0-.2-.1l-11.6-6.7v-2.8l.4-.3.2.1,11.6,6.7v2.8l-.2.2A.31.31,0,0,1,62,184Zm-11.1-7.2,10.8,6.3v-1.6l-10.8-6.3Z"/><path class="cls-12" d="M73.8,174.7v2.4l-11.7,6.6a.1.1,0,0,1-.1-.1v-2.4l11.8-6.5Z"/><path class="cls-4" d="M62.1,184.1l-.2-.1a.52.52,0,0,1-.2-.4v-2.5l.2-.2,11.8-6.7.2.1a.52.52,0,0,1,.2.4v2.5l-.2.2Zm.3-2.6v1.6l11.1-6.3v-1.6Z"/><path class="cls-12" d="M62.2,175.8h0a2.48,2.48,0,0,1-2.5-2.5v-9.4a.27.27,0,0,1,.3-.3h4.4a.27.27,0,0,1,.3.3v9.4A2.54,2.54,0,0,1,62.2,175.8Z"/><path class="cls-4" d="M62.2,176.2a2.8,2.8,0,0,1-2.8-2.8V164a.58.58,0,0,1,.6-.6h4.4a.58.58,0,0,1,.6.6v9.4A2.86,2.86,0,0,1,62.2,176.2Zm-2.1-12.3v9.4a2.1,2.1,0,1,0,4.2,0v-9.4Z"/><path class="cls-13" d="M64.4,162.8H60a.27.27,0,0,0-.3.3v3a2.5,2.5,0,0,0,5,0v-3A.45.45,0,0,0,64.4,162.8Z"/><path class="cls-9" d="M64.5,161.5H60.1a.27.27,0,0,0-.3.3v3a2.5,2.5,0,0,0,5,0v-3A.32.32,0,0,0,64.5,161.5Z"/><path class="cls-4" d="M62.2,169a2.8,2.8,0,0,1-2.8-2.8v-3a.58.58,0,0,1,.6-.6h4.4a.58.58,0,0,1,.6.6v3A2.86,2.86,0,0,1,62.2,169Zm-2.1-5.8v2.9a2.1,2.1,0,1,0,4.2,0v-2.9Z"/><circle class="cls-7" cx="62.25" cy="153.06" r="12.5"/><path class="cls-9" d="M73.4,147.3l-1.8-1.5a12.58,12.58,0,0,1-17.4,3.8,12.57,12.57,0,0,0-2,6.7,12,12,0,0,0,1.4,5.7,12.18,12.18,0,0,0,8.6,3.5A12.5,12.5,0,0,0,74.7,153,14,14,0,0,0,73.4,147.3Z"/><path class="cls-4" d="M62.2,165.9a12.85,12.85,0,1,1,12.9-12.8A12.78,12.78,0,0,1,62.2,165.9Zm0-25a12.15,12.15,0,1,0,12.1,12.2A12.16,12.16,0,0,0,62.2,140.9Z"/><path class="cls-12" d="M70.7,143.9a13.55,13.55,0,0,1,.2,2,12.5,12.5,0,0,1-12.5,12.5,12.67,12.67,0,0,1-8.5-3.3,12.48,12.48,0,0,0,24.8-2A12.3,12.3,0,0,0,70.7,143.9Z"/><path class="cls-4" d="M62.2,165.9a12.8,12.8,0,0,1-12.7-10.8l.3-1.4.2,1.1a12.17,12.17,0,0,0,20.4-8.9,13.55,13.55,0,0,0-.2-2l-.2-1,.8.7a13,13,0,0,1,4.1,9.4A12.58,12.58,0,0,1,62.2,165.9ZM50.4,156a12,12,0,0,0,11.8,9.2,12.16,12.16,0,0,0,12.2-12.1,11.91,11.91,0,0,0-3.2-8.2V146a12.81,12.81,0,0,1-20.8,10Z"/><path class="cls-7" d="M70.9,142.1c0,4.8-3.9,7.5-8.7,7.5s-8.7-2.7-8.6-7.5a8.65,8.65,0,0,1,17.3,0Z"/><path class="cls-9" d="M71,142.1a8,8,0,0,0-.7-3.4,8.8,8.8,0,0,0-6.7-3.2,8.69,8.69,0,0,0-8.7,8.6,7.63,7.63,0,0,0,.5,2.7,9,9,0,0,0,6.9,2.7C67.1,149.6,71,146.9,71,142.1Z"/><path class="cls-4" d="M62.2,149.9c-5.4,0-9-3.2-9-7.8a9,9,0,0,1,18,0C71.2,146.8,67.6,149.9,62.2,149.9Zm0-16.1a8.28,8.28,0,0,0-8.3,8.3c0,4.9,4.2,7.1,8.3,7.1s8.3-2.2,8.3-7.1A8.28,8.28,0,0,0,62.2,133.8Z"/><path class="cls-12" d="M64.1,133.6a8.24,8.24,0,0,1,1.7,5.1c0,4.8-3.9,7.5-8.7,7.5a10.07,10.07,0,0,1-2.5-.3c1.5,2.3,4.3,3.6,7.6,3.6,4.8,0,8.7-2.7,8.7-7.5A8.75,8.75,0,0,0,64.1,133.6Z"/><path class="cls-4" d="M62.2,149.9c-3.5,0-6.4-1.4-7.9-3.8l-.5-.7.8.2c4.7,1,10.7-1,10.7-6.9a8.44,8.44,0,0,0-1.6-4.9l-.6-.8.9.2a9.08,9.08,0,0,1,7.1,8.8C71.2,146.8,67.6,149.9,62.2,149.9Zm-6.8-3.4a8.87,8.87,0,0,0,6.8,2.7c4.1,0,8.3-2.2,8.3-7.1a8.33,8.33,0,0,0-5.6-7.9,9,9,0,0,1,1.2,4.6c0,4.7-3.6,7.8-9,7.8A9.7,9.7,0,0,1,55.4,146.5Z"/><path class="cls-10" d="M194.2,164.7l-11.7,6.6a5.15,5.15,0,0,1-5.1,0l-8.8-5a1.5,1.5,0,0,1,0-2.6L182,156a1.36,1.36,0,0,1,1.5,0l10.7,6.1A1.59,1.59,0,0,1,194.2,164.7Z"/><path class="cls-2" d="M191.6,156.6l-13.3,7.5h-.1l-11-6.2v-.1l13.3-7.5h.1l11,6.3Z"/><path class="cls-3" d="M191.6,158.5,178.3,166h-.1l-11-6.2v-.1l13.3-7.5h.1l11,6.3Z"/><path class="cls-4" d="M178.3,164.6l-.2-.1L167,158.2V158c0-.1.1-.3.2-.3l13.5-7.6.2.1,11.1,6.3v.3c0,.1-.1.3-.2.3Zm-10.4-6.7,10.4,5.9,12.7-7.2-10.4-5.9Z"/><path class="cls-2" d="M167.2,158v3.7h0l11,6.2h.1v-3.7h0L167.2,158Z"/><path class="cls-4" d="M178.2,168.3c-.1,0-.1,0-.2-.1l-11.1-6.3v-4.1l.4-.2.2.1,11.1,6.3v4.1l-.2.1C178.3,168.3,178.3,168.3,178.2,168.3Zm-10.7-6.8,10.4,5.9v-3l-10.4-5.9Z"/><path class="cls-5" d="M191.6,156.7v3.7h0l-13.3,7.5h-.1v-3.7h0l13.4-7.5Z"/><path class="cls-4" d="M178.3,168.4l-.2-.1c-.1-.1-.2-.2-.2-.3v-3.9l.2-.1,13.5-7.6.2.1c.1.1.2.2.2.3v3.9l-.2.1Zm.3-4v3l12.7-7.2v-3Z"/><path class="cls-4" d="M178.9,161.6a1.48,1.48,0,0,1-1.3,0c-.4-.2-.4-.5,0-.7a1.48,1.48,0,0,1,1.3,0C179.3,161.1,179.3,161.4,178.9,161.6Z"/><ellipse class="cls-4" cx="180.47" cy="153.33" rx="0.5" ry="0.9" transform="translate(26.89 333.58) rotate(-89.92)"/></svg>