<svg id="Layer_1" data-name="Layer 1" xmlns="http://www.w3.org/2000/svg" viewBox="0 0 350 350"><defs><style>.cls-1{opacity:0.48;}.cls-2{fill:#424243;}.cls-3{fill:#ffdcdc;}.cls-4{fill:#f0f1f1;}.cls-5{fill:#f55;}.cls-6{fill:#9ed1e3;}.cls-7{fill:#cfd0d2;}.cls-8{fill:#bcd589;}.cls-9{opacity:0.74;}.cls-10{fill:#837fcb;}.cls-11{fill:#d0534f;}.cls-12{opacity:0.71;}.cls-13{fill:#b94f49;}.cls-14{fill:#ddb99f;}.cls-15{fill:#cfac98;}.cls-16{fill:#d6ae99;}.cls-17{fill:#f1e8db;}.cls-18{fill:#313131;}.cls-19{fill:#c37e77;}.cls-20{opacity:0.5;}.cls-21{fill:#f5dc58;}.cls-22{fill:#94b7e1;}.cls-23{opacity:0.98;}.cls-24{fill:#dc8d98;}.cls-25{fill:#4e4e4e;}.cls-26{fill:#5e738c;}.cls-27{fill:#222;}.cls-28{fill:#c6a693;}.cls-29{fill:#566a7d;}.cls-30{fill:#828f98;}.cls-31{fill:#e0e0e0;}.cls-32{opacity:0.7;}.cls-33{fill:#cacaca;}.cls-34{fill:#59595b;}.cls-35{fill:#3e3e3e;}.cls-36{fill:#fdfce7;}.cls-37{opacity:0.2;}.cls-38{fill:#f3d45b;}.cls-39{opacity:0.79;}.cls-40{fill:#618247;}.cls-41{fill:#e9b13d;}.cls-42{fill:#8b6739;}.cls-43{opacity:0.68;}</style></defs><title>ecommerce-type-8-red</title><g class="cls-1"><path class="cls-2" d="M136.3,312.6H69.1a1.79,1.79,0,0,1-1.8-1.8v-1.5a1.79,1.79,0,0,1,1.8-1.8h67.2a1.79,1.79,0,0,1,1.8,1.8v1.5A1.79,1.79,0,0,1,136.3,312.6Z"/></g><polygon class="cls-3" points="271.5 269.2 69.8 269.2 69.8 45.5 271.5 66.6 271.5 269.2"/><path class="cls-2" d="M271.5,270.9H69.8a1.58,1.58,0,0,1-1.6-1.6V45.5a1.66,1.66,0,0,1,.5-1.2,1.48,1.48,0,0,1,1.3-.4L271.7,65a1.71,1.71,0,0,1,1.5,1.6V269.3A1.61,1.61,0,0,1,271.5,270.9Zm-200-3.3H269.9V68.1L71.5,47.3Z"/><rect class="cls-4" x="54.1" y="268.8" width="232.3" height="11.5"/><path class="cls-2" d="M56.6,280.3V268.8l-2.1,2.1H277.4c2.9,0,6.2.4,9,0h.4l-2.1-2.1v11.5c0,2.7,4.3,2.7,4.3,0V268.8a2.11,2.11,0,0,0-2.1-2.1H83.1c-9.4,0-18.8-.3-28.2,0h-.4a2.11,2.11,0,0,0-2.1,2.1v11.5a2.1,2.1,0,1,0,4.2,0Z"/><g class="cls-1"><path class="cls-2" d="M158.8,291.5H54.5a1.58,1.58,0,0,1-1.6-1.6v-.3a1.58,1.58,0,0,1,1.6-1.6H158.8a1.58,1.58,0,0,1,1.6,1.6v.3A1.72,1.72,0,0,1,158.8,291.5Z"/></g><g class="cls-1"><path class="cls-2" d="M271.2,299.5H146.3a1.75,1.75,0,0,1-1.7-1.7v-1.2a1.75,1.75,0,0,1,1.7-1.7H271.1a1.75,1.75,0,0,1,1.7,1.7v1.2A1.55,1.55,0,0,1,271.2,299.5Z"/></g><g class="cls-1"><path class="cls-2" d="M285.1,299.5h-6.9a1.75,1.75,0,0,1-1.7-1.7v-1.2a1.75,1.75,0,0,1,1.7-1.7h6.9a1.75,1.75,0,0,1,1.7,1.7v1.2A1.63,1.63,0,0,1,285.1,299.5Z"/></g><rect class="cls-5" x="166.42" y="-53.66" width="10.6" height="223.3" transform="translate(93.84 221.65) rotate(-83.21)"/><path class="cls-2" d="M283.4,63.8c-7.4-.9-14.8-1.8-22.2-2.6l-53-6.3c-21.3-2.5-42.7-5.1-64-7.6L88.9,40.7C80,39.6,71,38.2,62.1,37.5h-.4a2.27,2.27,0,0,0-2.4,1.9c-.4,3.5-.8,7-1.3,10.6a2.27,2.27,0,0,0,1.9,2.4c7.4.9,14.8,1.8,22.2,2.6l53,6.3c21.3,2.5,42.7,5.1,64,7.6l55.3,6.6c8.9,1.1,17.9,2.5,26.9,3.2h.4a2.27,2.27,0,0,0,2.4-1.9c.4-3.5.8-7,1.3-10.6.3-2.7-3.9-3.2-4.2-.5-.4,3.5-.8,7-1.3,10.6.8-.6,1.6-1.2,2.4-1.9-7.4-.9-14.8-1.8-22.2-2.6l-53-6.3c-21.3-2.5-42.7-5.1-64-7.6L87.8,51.3c-6.1-.7-12.1-1.4-18.2-2.2-2.8-.3-5.9-1.1-8.7-1h-.4c.6.8,1.2,1.6,1.9,2.4.4-3.5.8-7,1.3-10.6-.8.6-1.6,1.2-2.4,1.9,7.4.9,14.8,1.8,22.2,2.6l53,6.3c21.3,2.5,42.7,5.1,64,7.6l55.3,6.6c8.9,1.1,17.9,2.5,26.9,3.2h.4C285.6,68.4,286.2,64.1,283.4,63.8Z"/><rect class="cls-4" x="215.8" y="159.8" width="36.6" height="108.2"/><path class="cls-2" d="M252.4,266H215.8l2.1,2.1V159.8l-2.1,2.1h36.6l-2.1-2.1V268.1c0,2.7,4.3,2.7,4.3,0V159.8a2.11,2.11,0,0,0-2.1-2.1H215.9a2.11,2.11,0,0,0-2.1,2.1V268.1a2.11,2.11,0,0,0,2.1,2.1h36.6C255.1,270.2,255.1,266,252.4,266Z"/><rect class="cls-6" x="221.9" y="239.1" width="23.4" height="23.5"/><rect class="cls-6" x="221.9" y="169.8" width="23.4" height="63.4"/><path class="cls-7" d="M269.8,258.5h-5.5A2.38,2.38,0,0,0,262,261v1.2a2.38,2.38,0,0,0,2.3,2.5h5.5Z"/><path class="cls-2" d="M270.2,265.2h-6a2.88,2.88,0,0,1-2.8-2.9v-1.2a2.82,2.82,0,0,1,2.8-2.9h6Zm-5.9-6.2a2,2,0,0,0-1.9,2.1v1.2a2,2,0,0,0,1.9,2.1h5.1V259Z"/><rect class="cls-5" x="59.1" y="101.5" width="223.6" height="10.6"/><path class="cls-2" d="M282.7,99.4H86.7c-9,0-18.2-.3-27.2,0h-.4a2.11,2.11,0,0,0-2.1,2.1v10.6a2.11,2.11,0,0,0,2.1,2.1h196c9,0,18.2.3,27.2,0h.4a2.11,2.11,0,0,0,2.1-2.1V101.5c0-2.7-4.3-2.7-4.3,0v10.6l2.1-2.1H68.1c-2.8,0-6-.4-8.8,0h-.4l2.1,2.1V101.5l-2.1,2.1h196c9,0,18.2.3,27.2,0h.4C285.4,103.6,285.4,99.4,282.7,99.4Z"/><rect class="cls-7" x="206.3" y="268.8" width="55.6" height="5.4"/><path class="cls-2" d="M262.5,274.9H205.6v-6.7h56.9Zm-55.6-1.3h54.3v-4.2H206.9v4.2Z"/><rect class="cls-7" x="206.3" y="278.1" width="55.6" height="4.5"/><path class="cls-2" d="M262.5,283.2H205.6v-5.8h56.9ZM206.9,282h54.3v-3.3H206.9V282Z"/><path class="cls-8" d="M291.6,239.3c-3.2-5.8-6.7-16.5-15.4-16.3-9.7.2-11.2,10.1-14.7,16.3-2,3.7-4.1,7.5-3.8,11.6.4,5.4,6.4,9.1,12,9.1h13.6c5.6,0,11.7-3.8,12-9.1C295.8,246.9,293.7,243,291.6,239.3Z"/><path class="cls-2" d="M293.5,238.3c-3.8-6.9-7.2-16.9-16.5-17.4a13.33,13.33,0,0,0-11.1,5.2c-2.5,3.3-3.7,7.3-5.6,11-2.4,4.9-5.9,10.1-4.4,15.8,1.2,4.8,6,8.1,10.7,9,3,.6,6.3.3,9.3.3H283c4.8,0,9.8-1.9,12.7-5.9C299.8,250.6,296.5,243.7,293.5,238.3Zm-1.3,15.6c-2.1,2.9-5.8,4-9.2,4H270.2c-3.4,0-7.1-1.2-9.2-4-3.1-4.2.3-9.7,2.4-13.5,2.8-5.3,4.4-14,11.4-15.1,8.6-1.4,11.8,9.3,15,15.1C291.9,244.2,295.2,249.8,292.2,253.9Z"/><rect class="cls-4" x="258.4" y="266.6" width="36.4" height="24.4"/><path class="cls-2" d="M294.8,288.9H258.5l2.1,2.1V266.6l-2.1,2.1h36.3l-2.1-2.1V291c0,2.7,4.3,2.7,4.3,0V266.6a2.11,2.11,0,0,0-2.1-2.1H258.6a2.11,2.11,0,0,0-2.1,2.1V291a2.11,2.11,0,0,0,2.1,2.1h36.3C297.5,293.1,297.5,288.9,294.8,288.9Z"/><path class="cls-2" d="M274.4,251.7v14.6c0,2.7,4.3,2.7,4.3,0V251.7C278.7,248.9,274.4,248.9,274.4,251.7Z"/><rect class="cls-6" x="80.2" y="160.9" width="126.5" height="99.2"/><g class="cls-9"><rect class="cls-4" x="102.4" y="247.5" width="3.7" height="13.4"/><path class="cls-2" d="M106.2,261.4h-3.7a.47.47,0,0,1-.5-.5V247.5a.47.47,0,0,1,.5-.5h3.7a.47.47,0,0,1,.5.5v13.4A.47.47,0,0,1,106.2,261.4Zm-3.2-1.1h2.7V248H103Z"/><path class="cls-10" d="M116.8,248.3h-25a.9.9,0,0,1-.9-.9v-5.3a.9.9,0,0,1,.9-.9h25a.9.9,0,0,1,.9.9v5.3A.9.9,0,0,1,116.8,248.3Z"/><path class="cls-2" d="M116.8,249.5h-25a2.11,2.11,0,0,1-2.1-2.1v-5.3a2.11,2.11,0,0,1,2.1-2.1h25a2.11,2.11,0,0,1,2.1,2.1v5.3A2.11,2.11,0,0,1,116.8,249.5Zm-24.7-2.3h24.4v-4.7H92.1Z"/><rect class="cls-4" x="141.7" y="247.5" width="3.7" height="13.4"/><path class="cls-2" d="M145.5,261.4h-3.7a.47.47,0,0,1-.5-.5V247.5a.47.47,0,0,1,.5-.5h3.7a.47.47,0,0,1,.5.5v13.4A.47.47,0,0,1,145.5,261.4Zm-3.2-1.1H145V248h-2.7Z"/><path class="cls-10" d="M156.1,248.3h-25a.9.9,0,0,1-.9-.9v-5.3a.9.9,0,0,1,.9-.9h25a.9.9,0,0,1,.9.9v5.3A.9.9,0,0,1,156.1,248.3Z"/><path class="cls-2" d="M156.1,249.5h-25a2.11,2.11,0,0,1-2.1-2.1v-5.3a2.11,2.11,0,0,1,2.1-2.1h25a2.11,2.11,0,0,1,2.1,2.1v5.3A2.11,2.11,0,0,1,156.1,249.5Zm-24.7-2.3h24.4v-4.7H131.4Z"/><rect class="cls-4" x="181" y="247.5" width="3.7" height="13.4"/><path class="cls-2" d="M184.8,261.4H181a.47.47,0,0,1-.5-.5V247.5a.47.47,0,0,1,.5-.5h3.7a.47.47,0,0,1,.5.5v13.4C185.3,261.2,185.1,261.4,184.8,261.4Zm-3.2-1.1h2.7V248h-2.7Z"/><path class="cls-11" d="M195.4,248.3h-25a.9.9,0,0,1-.9-.9v-5.3a.9.9,0,0,1,.9-.9h25a.9.9,0,0,1,.9.9v5.3A.9.9,0,0,1,195.4,248.3Z"/><path class="cls-2" d="M195.4,249.5h-25a2.11,2.11,0,0,1-2.1-2.1v-5.3a2.11,2.11,0,0,1,2.1-2.1h25a2.11,2.11,0,0,1,2.1,2.1v5.3A2.18,2.18,0,0,1,195.4,249.5Zm-24.7-2.3h24.4v-4.7H170.7Z"/></g><path class="cls-2" d="M206.8,158.7H80.2a2.22,2.22,0,0,0-2.2,2.2v99.2a2.22,2.22,0,0,0,2.2,2.2H206.8a2,2,0,0,0,1.5-.6l.1-.1h0a1.75,1.75,0,0,0,.6-1.5V160.9A2.36,2.36,0,0,0,206.8,158.7Zm-42.9,99.2H82.4V163H204.6v94.9Z"/><g class="cls-12"><path class="cls-13" d="M164.5,194.4a.47.47,0,0,1-.5.5h-.4a.47.47,0,0,1-.5-.5h0a.47.47,0,0,1,.5-.5h.4c.3-.1.5.2.5.5Z"/><path class="cls-10" d="M154.4,202.4s-6.2,4.5-3.1,8.3,7.4-3.1,7.4-3.1Z"/><path class="cls-14" d="M173.6,219.6c0,4-4.1,7.2-9,7.2h-.2c-5,0-9-3.2-9-7.2V205.1c0-4,4.1-7.2,9-7.2h.2c5,0,9,3.2,9,7.2Z"/><rect class="cls-14" x="160.67" y="212.6" width="6.7" height="12.8" transform="translate(-55.42 382.43) rotate(-89.85)"/><polygon class="cls-14" points="173.6 216.1 155.4 215.8 155.4 209.4 173.6 209.4 173.6 216.1"/><path class="cls-14" d="M155.5,208.2a2.15,2.15,0,0,0-2.1,2.1,2,2,0,0,0,2.1,2Z"/><path class="cls-15" d="M155,209a1.2,1.2,0,1,0,0,2.4Z"/><path class="cls-14" d="M173.4,208.2a2.15,2.15,0,0,1,2.1,2.1,2,2,0,0,1-2.1,2Z"/><path class="cls-15" d="M173.8,209a1.2,1.2,0,0,1,0,2.4Z"/><path class="cls-14" d="M173.6,214.6a.68.68,0,0,1-.7.7H156.2a.68.68,0,0,1-.7-.7v-9.4a.68.68,0,0,1,.7-.7h16.7a.68.68,0,0,1,.7.7Z"/><path class="cls-16" d="M161.4,198.2a17.55,17.55,0,0,0-2.4,1.1,6.45,6.45,0,0,0-3.1,3c-.7,1.8-.5,3.8-.5,5.7v1.6h0v6.2a14.12,14.12,0,0,1,2.2.1c.5,0,1.2.2,1.4-.3s-.4-1.7-.4-2.3a39.45,39.45,0,0,1,.6-9.1c.1-.5.3-1,.4-1.4.3-.9.8-1.8,1.1-2.7a4.14,4.14,0,0,1,1.8-1.9A4,4,0,0,0,161.4,198.2Z"/><path class="cls-17" d="M166.2,213.9a.47.47,0,0,1-.5.5h0a.47.47,0,0,1-.5-.5V213a.47.47,0,0,1,.5-.5h0a.47.47,0,0,1,.5.5Z"/><path class="cls-14" d="M173.5,230.3V217.1h-4.9v.9a4,4,0,0,1-4.2,3.9l-5.8-4.8h-3.2v13.2Z"/><polygon class="cls-10" points="173.6 230.3 173.8 215.9 155.4 215.9 155.4 230.3 173.6 230.3"/><path class="cls-18" d="M160.7,205.7a1.06,1.06,0,0,1,1.4,0c.2.1.4-.1.2-.2a1.39,1.39,0,0,0-1.9,0c-.1.1.2.4.3.2Z"/><path class="cls-19" d="M164.9,208.1V211a.9.9,0,1,0,1.8,0v-2.9Z"/><path class="cls-18" d="M168.9,205.5a1.06,1.06,0,0,1,1.4,0c.2.1.4-.1.2-.2a1.39,1.39,0,0,0-1.9,0c-.1.1.1.3.3.2Z"/><path class="cls-18" d="M167.1,208.8a2.57,2.57,0,0,0-3.1,0l-.2-.3a3,3,0,0,1,3.5,0Z"/><path class="cls-18" d="M174.2,205.9c-.1.4-.1.9-.2,1.3s-.2.7-.3,1.1c0,0-.2.5-.1.5-.1-.1-.2-.1-.4-.2l-.4-.2.4-3.8c-1.3-.9-3.8-2.6-3.8-2.6a13.09,13.09,0,0,1-5.1,2.8c-2.8.8-5.7.4-8.6.4a18.41,18.41,0,0,0,.3,3.3,5.3,5.3,0,0,1-1,.6c-.9-3.3-1.2-7.4,1.6-9.9a11.29,11.29,0,0,1,3.1-2.1c2.5-1,5.5-1.9,8.2-1.2,3.2.9,6.3,3.1,6.5,6.6a15.06,15.06,0,0,1-.1,3A.6.6,0,0,1,174.2,205.9Z"/><g class="cls-20"><circle class="cls-21" cx="161.4" cy="208.6" r="2.4"/></g><g class="cls-20"><path class="cls-22" d="M172.3,208.4a2.6,2.6,0,1,1-2.6-2.6A2.52,2.52,0,0,1,172.3,208.4Z"/></g><path class="cls-18" d="M161.4,211.2a2.6,2.6,0,1,1,2.6-2.6A2.58,2.58,0,0,1,161.4,211.2Zm0-4.8a2.2,2.2,0,1,0,2.2,2.2A2.1,2.1,0,0,0,161.4,206.4Z"/><path class="cls-18" d="M169.7,211.2a2.8,2.8,0,1,1,2.8-2.8A2.86,2.86,0,0,1,169.7,211.2Zm0-5.2a2.4,2.4,0,1,0,2.4,2.4A2.43,2.43,0,0,0,169.7,206Z"/><g class="cls-23"><path class="cls-24" d="M163.4,212.5c0,.6-.7,1-1.6,1s-1.6-.4-1.6-1,.7-1,1.6-1S163.4,211.9,163.4,212.5Z"/></g><g class="cls-23"><ellipse class="cls-24" cx="170.3" cy="212.5" rx="1.6" ry="1"/></g><rect class="cls-14" x="183.03" y="212.5" width="6.7" height="12.8" transform="translate(-33.01 404.69) rotate(-89.85)"/><path class="cls-14" d="M178.2,208.1a2.15,2.15,0,0,0-2.1,2.1,2,2,0,0,0,2.1,2Z"/><path class="cls-15" d="M177.8,208.9a1.2,1.2,0,0,0,0,2.4Z"/><path class="cls-14" d="M195.8,208.1a2.15,2.15,0,0,1,2.1,2.1,2,2,0,0,1-2.1,2Z"/><path class="cls-15" d="M196.2,209a1.2,1.2,0,1,1,0,2.4Z"/><path class="cls-14" d="M196,209.3h0V205c0-4-4-7.2-9-7.2h-.2c-4.9,0-8.9,3.1-9,7,0,.1-.1.2-.1.4v10.5h0v3.8c0,4,4,7.2,9,7.2h.2c5,0,8.8-3.2,8.8-7.2l.1-3.8h.2Z"/><path class="cls-16" d="M181.7,204c.1-.5.3-1,.4-1.4.3-.9.8-1.8,1.1-2.7A4.14,4.14,0,0,1,185,198a5,5,0,0,0-1.2.2,17.55,17.55,0,0,0-2.4,1.1,6.45,6.45,0,0,0-3.1,3c-.7,1.8-.5,3.8-.5,5.7.1,2.6,0,5.2,0,7.8,0-.2,2.1.1,2.3.1.5,0,1.2.2,1.4-.3s-.4-1.7-.4-2.3C181.1,210.1,180.9,207,181.7,204Z"/><polygon class="cls-19" points="183.9 212.1 186.1 212.2 186.1 208.2 183.9 212.1"/><path class="cls-17" d="M186,214.3a.47.47,0,0,1-.5.5h0a.47.47,0,0,1-.5-.5v-.9a.47.47,0,0,1,.5-.5h0a.47.47,0,0,1,.5.5Z"/><path class="cls-14" d="M195.8,230.3V217h-4.9v.9a4,4,0,0,1-4.2,3.9l-5.8-4.8h-3.2v13.3Z"/><path class="cls-18" d="M182.6,208.8a.6.6,0,1,1-.6-.6A.58.58,0,0,1,182.6,208.8Z"/><path class="cls-25" d="M182.3,208.8a.3.3,0,1,1-.3-.3A.27.27,0,0,1,182.3,208.8Z"/><path class="cls-18" d="M189.9,208.8a.6.6,0,1,1-.6-.6A.65.65,0,0,1,189.9,208.8Z"/><path class="cls-25" d="M189.6,208.9a.3.3,0,1,1-.3-.3C189.5,208.5,189.6,208.7,189.6,208.9Z"/><polygon class="cls-26" points="195.9 230.3 195.9 215.8 177.7 215.7 177.7 230.3 195.9 230.3"/><path class="cls-27" d="M196,207.7V206a9.74,9.74,0,0,0-.2-2.4,7.17,7.17,0,0,0-3.9-4.9,11.33,11.33,0,0,0-6.8-1.1,11.49,11.49,0,0,0-3.7,1.2,8.14,8.14,0,0,0-2.8,2.4c-1,1.5-1,3.3-1,5a8.55,8.55,0,0,1,0,1.6,7.49,7.49,0,0,0,1.6-.5c2.5-.8,14-3.1,13.8-5v.6a6.15,6.15,0,0,0,.1,1.4,5.1,5.1,0,0,0,1.1,3.1,2.16,2.16,0,0,0,1.7.5C196,207.9,196,207.8,196,207.7Z"/><path class="cls-18" d="M181.7,207.7h1.7a.3.3,0,1,0,0-.6h-1.7a.3.3,0,0,0,0,.6Z"/><path class="cls-18" d="M188.6,207.7a1.05,1.05,0,0,1,1.3,0c.3.2.7-.2.4-.4a1.54,1.54,0,0,0-2.1,0,.28.28,0,1,0,.4.4Z"/><path class="cls-28" d="M181.5,210.3c0,.1-.1.1-.3.1a1,1,0,0,1-.3-.1c0-.1.1-.1.3-.1S181.5,210.2,181.5,210.3Z"/><path class="cls-28" d="M182.4,210.8c0,.1-.1.1-.3.1a1,1,0,0,1-.3-.1c0-.1.1-.1.3-.1S182.4,210.7,182.4,210.8Z"/><path class="cls-28" d="M182.7,210.2c0,.1-.1.1-.2.1s-.2,0-.2-.1.1-.1.2-.1A.35.35,0,0,1,182.7,210.2Z"/><path class="cls-28" d="M188.8,211.1c0,.1-.1.1-.2.1s-.2,0-.2-.1.1-.1.2-.1S188.8,211,188.8,211.1Z"/><path class="cls-28" d="M190.2,210c0,.1-.1.1-.2.1s-.2,0-.2-.1.1-.1.2-.1A.35.35,0,0,1,190.2,210Z"/><path class="cls-28" d="M188.5,210.4c0,.1-.1.1-.3.1a1,1,0,0,1-.3-.1c0-.1.1-.1.3-.1A.44.44,0,0,1,188.5,210.4Z"/><path class="cls-28" d="M189.7,211.2c0,.1-.1.1-.3.1a.17.17,0,1,1,0-.2C189.6,211.1,189.7,211.1,189.7,211.2Z"/><path class="cls-28" d="M190.8,210.4c0,.1-.1.1-.3.1a1,1,0,0,1-.3-.1c0-.1.1-.1.3-.1A.44.44,0,0,1,190.8,210.4Z"/><path class="cls-28" d="M189.7,210.6c0,.1-.1.1-.2.1a.35.35,0,0,1-.2-.1c0-.1.1-.1.2-.1S189.7,210.5,189.7,210.6Z"/><path class="cls-28" d="M181.4,211.2c0,.1-.1.1-.2.1a.13.13,0,1,1,0-.2C181.3,211.1,181.4,211.1,181.4,211.2Z"/><ellipse class="cls-28" cx="180.5" cy="210.8" rx="0.2" ry="0.1"/><path class="cls-14" d="M197.5,230.3h2.6a12.39,12.39,0,0,0,.7-4c0-5.9-4.9-10.6-4.9-10.6l.1,4.2A11.48,11.48,0,0,1,197.5,230.3Z"/><path class="cls-26" d="M197,222.5h3.3c-.4-3.7-4.5-6.8-4.5-6.8l.1,4.2A18.7,18.7,0,0,1,197,222.5Z"/><path class="cls-29" d="M191.2,194.3c-2.9-1.7-7.9-2.1-10.1,1.3,0,0-4.4,4.3,14.8,8.9C195.9,200.1,195.3,196.6,191.2,194.3Z"/><polygon class="cls-30" points="195.7 230.3 196.6 230.2 196.6 229.5 155.1 229.5 155.1 230.3 195.7 230.3"/><path class="cls-10" d="M177.1,223.8v-5.7c0-1.2-1.3-2.2-2.9-2.2s-2.9,1-2.9,2.2v5.7Z"/><path class="cls-26" d="M179.6,223.6v-5.7a2.2,2.2,0,1,0-4.4,0v5.7Z"/><path class="cls-31" d="M183.2,218.6a.47.47,0,0,0-.5-.5H165.8a.47.47,0,0,0-.5.5V229a.47.47,0,0,0,.5.5h16.9a.47.47,0,0,0,.5-.5Z"/><g class="cls-32"><path class="cls-33" d="M181.9,219.4a.43.43,0,0,0-.4-.4H166.3a.43.43,0,0,0-.4.4v9.4a.43.43,0,0,0,.4.4h15.2a.43.43,0,0,0,.4-.4Z"/></g><g class="cls-20"><path class="cls-34" d="M182.5,218.9a2,2,0,0,1-2.2,1.9,2.11,2.11,0,0,1-2.2-1.9,2.22,2.22,0,0,1,4.4,0Z"/></g><g class="cls-20"><path class="cls-34" d="M168.3,226.5h-2.9v2.6h2.9a1.3,1.3,0,0,0,0-2.6Z"/></g><path class="cls-14" d="M167.8,226.9H156.1v-5.5a1.2,1.2,0,1,0-2.4,0v6.8a1.32,1.32,0,0,0,1.3,1.3h12.9a1.32,1.32,0,0,0,1.3-1.3A1.42,1.42,0,0,0,167.8,226.9Z"/><path class="cls-10" d="M156.9,223.8v-5.7a2.2,2.2,0,0,0-4.4,0v5.7Z"/><path class="cls-35" d="M174.5,223.6a.77.77,0,0,1-.7-.8.37.37,0,0,1,.1-.3h-.2a1.31,1.31,0,0,0-1.2,1.3,1.24,1.24,0,0,0,1.2,1.3h.3a1.31,1.31,0,0,0,1.2-1.3.9.9,0,0,0-.1-.5A.71.71,0,0,1,174.5,223.6Z"/><path class="cls-14" d="M182.9,218.5a2,2,0,0,1-2.2,1.9,2.11,2.11,0,0,1-2.2-1.9,2,2,0,0,1,2.2-1.9A2.11,2.11,0,0,1,182.9,218.5Z"/><g class="cls-20"><path class="cls-34" d="M198.9,218a2.18,2.18,0,0,1-2.6,1.4,2,2,0,0,1-1.7-2.4,2.18,2.18,0,0,1,2.6-1.4A2.24,2.24,0,0,1,198.9,218Z"/></g><path class="cls-14" d="M199.2,217.5a2.18,2.18,0,0,1-2.6,1.4,2,2,0,0,1-1.7-2.4,2.18,2.18,0,0,1,2.6-1.4A2.15,2.15,0,0,1,199.2,217.5Z"/><path class="cls-36" d="M154.4,203.9l19.8-2.6s-1.5-8.3-11.6-6.8C153.5,196,154.4,203.9,154.4,203.9Z"/><path class="cls-18" d="M169.3,200a2.66,2.66,0,0,0-2.9-2.2,2.56,2.56,0,0,0-2.4,2.7Z"/><path class="cls-13" d="M169.3,200a.73.73,0,0,1-.6.7l-4.1.3a.73.73,0,0,1-.7-.6h0a.73.73,0,0,1,.6-.7l4.1-.3a.67.67,0,0,1,.7.6Z"/><path class="cls-36" d="M165.6,200.4a.3.3,0,1,1-.3-.3A.27.27,0,0,1,165.6,200.4Z"/><path class="cls-36" d="M166.9,200.3a.3.3,0,1,1-.3-.3A.27.27,0,0,1,166.9,200.3Z"/><path class="cls-36" d="M168.1,200.1a.3.3,0,1,1-.3-.3Q168.1,200,168.1,200.1Z"/><g class="cls-37"><path class="cls-34" d="M156.1,199.3a5.47,5.47,0,0,0-1.1,3.6,6.35,6.35,0,0,0,2.3-.5c.6-.1,1.3-.3,1.9-.4.8-.1,1.1.1.9-.8a6.64,6.64,0,0,1,.4-5c-.9-.3-2.5,1-3.1,1.6A10,10,0,0,0,156.1,199.3Z"/></g><path class="cls-26" d="M183.9,196a7.72,7.72,0,0,1,4.1-1.6c-1.7.9-1.8,3.3-1.8,4.9,0,.4.2,1.3.2,2.2a66,66,0,0,0,9.5,2.9c0-4.4-.6-7.9-4.7-10.2-2.9-1.7-7.9-2.1-10.1,1.3,0,0-1.3,1.3.5,3.1A15.57,15.57,0,0,1,183.9,196Z"/><path class="cls-38" d="M195.9,204.6s-14.4.6-18.1,0c0,0-4.8-3.8-1.2-7.5C179.7,194,192.3,199.6,195.9,204.6Z"/><rect class="cls-4" x="81.3" y="230.5" width="124.6" height="5.5"/><g class="cls-39"><polygon class="cls-4" points="115.1 215.8 106.2 215.8 107.3 230 114 230 115.1 215.8"/><path class="cls-2" d="M114,230.5h-6.8a.47.47,0,0,1-.5-.5l-1.1-14.2c0-.2,0-.3.1-.4a.76.76,0,0,1,.4-.2h9a.52.52,0,0,1,.4.2c.1.1.2.3.1.4L114.5,230C114.6,230.3,114.3,230.5,114,230.5Zm-6.2-1.1h5.8l1-13.1h-7.8Z"/><polygon class="cls-4" points="114.2 212.5 107.1 212.5 106 214.1 115.3 214.1 114.2 212.5"/><path class="cls-2" d="M115.3,214.7H106a.55.55,0,0,1-.5-.3.64.64,0,0,1,0-.6l1.1-1.7c.1-.2.3-.2.5-.2h7.1a.76.76,0,0,1,.5.2l1.1,1.7a.64.64,0,0,1,0,.6A.55.55,0,0,1,115.3,214.7Zm-8.2-1.1h7.2l-.4-.6h-6.5Z"/><rect class="cls-4" x="105.2" y="214.3" width="11" height="2.1"/><path class="cls-2" d="M116.1,216.9h-11a.47.47,0,0,1-.5-.5v-2.1a.47.47,0,0,1,.5-.5h11a.47.47,0,0,1,.5.5v2.1C116.7,216.7,116.4,216.9,116.1,216.9Zm-10.4-1.1h9.9v-1h-9.9Z"/><circle class="cls-40" cx="110.8" cy="222.1" r="2.9"/><path class="cls-41" d="M121.4,224.7c.3,2.2,2,4.7,4.2,4.7h4.7c2.1,0,3.9-2.4,4.2-4.7Z"/><path class="cls-2" d="M130.3,230h-4.7c-2.5,0-4.5-2.7-4.8-5.2,0-.2,0-.4.2-.5a.76.76,0,0,1,.5-.2h13.1c.2,0,.3.1.5.2a.76.76,0,0,1,.2.5C134.8,227.3,132.8,230,130.3,230Zm-8.1-4.6c.5,1.7,1.8,3.4,3.4,3.4h4.7c1.6,0,3-1.7,3.4-3.4Z"/><path class="cls-41" d="M134.8,223.5V223c0-3.2-3-5.8-6.8-5.8s-6.8,2.6-6.8,5.8v.5Z"/><path class="cls-2" d="M134.8,224H121.3a.47.47,0,0,1-.5-.5V223c0-3.5,3.3-6.3,7.3-6.3s7.3,2.8,7.3,6.3v.5A.74.74,0,0,1,134.8,224Zm-13.1-1h12.5c0-2.9-2.8-5.3-6.3-5.3S121.7,220.1,121.7,223Z"/><rect class="cls-42" x="120.5" y="223.5" width="15" height="1.1"/><path class="cls-4" d="M129.7,218.9a.41.41,0,1,1-.4-.5C129.6,218.4,129.7,218.6,129.7,218.9Z"/><path class="cls-4" d="M126.2,219.4c0,.3-.2.5-.3.5s-.3-.2-.3-.5.2-.5.3-.5S126.2,219.1,126.2,219.4Z"/><ellipse class="cls-4" cx="131.7" cy="220.2" rx="0.3" ry="0.5"/><path class="cls-4" d="M128.1,219.6c0,.2-.1.3-.2.3s-.2-.1-.2-.3.1-.3.2-.3S128.1,219.4,128.1,219.6Z"/><path class="cls-4" d="M127.2,218.6c0,.2-.1.3-.2.3s-.2-.1-.2-.3.1-.3.2-.3S127.2,218.4,127.2,218.6Z"/><path class="cls-4" d="M124,220.3c0,.2-.1.4-.3.4s-.3-.2-.3-.4.1-.4.3-.4S124,220.1,124,220.3Z"/></g><path class="cls-2" d="M205.9,234.9H81.3l1.1,1.1v-5.5l-1.1,1.1H205.9l-1.1-1.1V236a1.1,1.1,0,0,0,2.2,0v-5.5a1.11,1.11,0,0,0-1.1-1.1H81.3a1.11,1.11,0,0,0-1.1,1.1V236a1.11,1.11,0,0,0,1.1,1.1H205.9A1.1,1.1,0,0,0,205.9,234.9Z"/></g><path class="cls-8" d="M205.6,239.3c-3.2-5.8-6.7-16.5-15.4-16.3-9.7.2-11.2,10.1-14.7,16.3-2,3.7-4.1,7.5-3.8,11.6.4,5.4,6.4,9.1,12,9.1h13.6c5.6,0,11.7-3.8,12-9.1C209.8,246.9,207.7,243,205.6,239.3Z"/><path class="cls-2" d="M207.5,238.3c-3.8-6.9-7.2-16.9-16.5-17.4a13.33,13.33,0,0,0-11.1,5.2c-2.5,3.3-3.7,7.3-5.6,11-2.4,4.9-5.9,10.1-4.4,15.8,1.2,4.8,6,8.1,10.7,9,3,.6,6.3.3,9.3.3H197c4.8,0,9.8-1.9,12.7-5.9,4.1-5.7.8-12.6-2.2-18-1.3-2.4-5-.3-3.7,2.1,2.1,3.8,5.4,9.4,2.4,13.5-2.1,2.9-5.8,4-9.2,4H184.2c-3.4,0-7.1-1.2-9.2-4-3.1-4.2.3-9.7,2.4-13.5,2.8-5.3,4.4-14,11.4-15.1,8.6-1.4,11.8,9.3,15,15.1C205.1,242.8,208.8,240.7,207.5,238.3Z"/><rect class="cls-4" x="172.4" y="266.6" width="36.4" height="24.4"/><path class="cls-2" d="M208.8,288.9H172.5l2.1,2.1V266.6l-2.1,2.1h36.3l-2.1-2.1V291c0,2.7,4.3,2.7,4.3,0V266.6a2.11,2.11,0,0,0-2.1-2.1H172.6a2.11,2.11,0,0,0-2.1,2.1V291a2.11,2.11,0,0,0,2.1,2.1h36.3C211.5,293.1,211.5,288.9,208.8,288.9Z"/><path class="cls-2" d="M188.4,251.7v14.6c0,2.7,4.3,2.7,4.3,0V251.7c0-2.8-4.3-2.8-4.3,0Z"/><rect class="cls-10" x="82.4" y="164.6" width="122.2" height="2.2"/><rect class="cls-10" x="82.4" y="169.2" width="122.2" height="2.2"/><rect class="cls-10" x="82.4" y="173.8" width="122.2" height="2.2"/><rect class="cls-10" x="82.4" y="178.4" width="122.2" height="2.2"/><rect class="cls-10" x="82.4" y="182.9" width="122.2" height="2.2"/><rect class="cls-10" x="82.4" y="187.5" width="122.2" height="2.2"/><rect class="cls-10" x="82.4" y="192.1" width="122.2" height="2.2"/><polygon class="cls-2" points="204.7 195.6 82.5 195.6 82.4 198.9 204.6 198.9 204.7 195.6"/><rect class="cls-4" x="82.4" y="162.5" width="122.2" height="2.2"/><rect class="cls-4" x="82.4" y="167" width="122.2" height="2.2"/><rect class="cls-4" x="82.4" y="171.6" width="122.2" height="2.2"/><rect class="cls-4" x="82.4" y="176.2" width="122.2" height="2.2"/><rect class="cls-4" x="82.4" y="180.7" width="122.2" height="2.2"/><rect class="cls-4" x="82.4" y="185.3" width="122.2" height="2.2"/><rect class="cls-4" x="82.4" y="189.9" width="122.2" height="2.2"/><rect class="cls-4" x="82.4" y="194.5" width="122.2" height="2.2"/><g class="cls-43"><path class="cls-4" d="M143.2,205.1,123.5,223c-1.6,1.5.8,3.9,2.4,2.4l19.7-17.9c1.6-1.5-.8-3.9-2.4-2.4Z"/></g><g class="cls-43"><path class="cls-4" d="M149,214.9c-3.7,4-7.5,7.9-11.2,11.9-1.5,1.6.9,4,2.4,2.4,3.7-4,7.5-7.9,11.2-11.9,1.5-1.6-.9-4-2.4-2.4Z"/></g><rect class="cls-4" x="80.2" y="117.7" width="176.5" height="36.4"/><path class="cls-2" d="M256.7,155.8H80.2a1.58,1.58,0,0,1-1.6-1.6V117.8a1.58,1.58,0,0,1,1.6-1.6H256.7a1.58,1.58,0,0,1,1.6,1.6v36.4A1.64,1.64,0,0,1,256.7,155.8ZM81.9,152.5H255V119.4H81.9Z"/><path class="cls-2" d="M86.9,146.5V126a1.27,1.27,0,0,1,1.4-1.2H99a1.21,1.21,0,1,1,0,2.4H89.6v7.1h5.9a1.33,1.33,0,0,1,1.4,1.2,1.27,1.27,0,0,1-1.4,1.2H89.6v9.9a1.34,1.34,0,0,1-1.4,1.2A1.48,1.48,0,0,1,86.9,146.5Z"/><path class="cls-2" d="M100.6,146.6c0-.3,7.3-19.8,7.9-21.3a1.29,1.29,0,0,1,1.3-.8,1.44,1.44,0,0,1,1.3.8c.1.5,1,2.8,2.1,5.7,2.4,6.2,5.9,15.4,5.9,15.7a1.41,1.41,0,0,1-1.4,1.2,1.22,1.22,0,0,1-1.3-.9l-2.8-7.6h-7.5c-.9,2.6-1.9,5-2.9,7.6a1.42,1.42,0,0,1-1.3.9A1.48,1.48,0,0,1,100.6,146.6ZM107,137h5.7l-2.8-7.6Z"/><path class="cls-2" d="M130.5,134.5c3.8,1.1,7.8,3.1,7.8,7.2,0,3.9-3.3,6.4-7.6,6.4-4.7,0-8.1-2.8-8.1-7a1.33,1.33,0,0,1,1.4-1.2c.9,0,1.3.5,1.3,1.1v.5a1.09,1.09,0,0,0,.1.5,4,4,0,0,0,2.2,2.9,5.32,5.32,0,0,0,3,.7c2.9,0,5-1.5,5-4,0-2.7-3.2-4.2-5.9-4.9-3.5-1-7.1-2.4-7.1-6.3,0-3.5,3.4-6,7.2-6,4.3,0,7.4,2.7,7.4,6.5a1.27,1.27,0,0,1-1.4,1.2,1.16,1.16,0,0,1-1.3-1h0v-.7c0-.2-.1-.6-.1-.7-.6-1.8-2.2-2.8-4.4-2.9h-.2c-2.4,0-4.5,1.5-4.5,3.6C125.3,132.9,128.1,133.8,130.5,134.5Z"/><path class="cls-2" d="M156.7,126.2a1.27,1.27,0,0,1-1.4,1.2h-4.8v19.1a1.42,1.42,0,0,1-2.8,0V127.4h-4.8a1.21,1.21,0,1,1,0-2.4h12.4A1.27,1.27,0,0,1,156.7,126.2Z"/><path class="cls-2" d="M174.3,146.5V126a1.27,1.27,0,0,1,1.4-1.2h10.8a1.21,1.21,0,1,1,0,2.4H177v7.1h5.9a1.33,1.33,0,0,1,1.4,1.2,1.27,1.27,0,0,1-1.4,1.2H177v9.9a1.34,1.34,0,0,1-1.4,1.2A1.48,1.48,0,0,1,174.3,146.5Z"/><path class="cls-2" d="M202.8,125.4c3.8,2.2,5.3,7.1,5.3,10.8s-1.5,8.6-5.3,10.8a8,8,0,0,1-3.8,1,8.27,8.27,0,0,1-3.8-1c-3.8-2.2-5.3-7.1-5.3-10.8s1.5-8.6,5.3-10.8a8.27,8.27,0,0,1,3.8-1A7,7,0,0,1,202.8,125.4ZM201.2,145c3-1.7,4.1-5.8,4.1-8.8s-1.3-7-4.1-8.8a5.55,5.55,0,0,0-2.2-.6,6.54,6.54,0,0,0-2.3.6c-2.8,1.8-4.1,5.9-4.1,8.8s1.2,7.1,4.1,8.8a4.65,4.65,0,0,0,2.3.6A4.28,4.28,0,0,0,201.2,145Z"/><path class="cls-2" d="M225.9,125.4c3.8,2.2,5.3,7.1,5.3,10.8s-1.5,8.6-5.3,10.8a8,8,0,0,1-3.8,1,8.27,8.27,0,0,1-3.8-1c-3.8-2.2-5.3-7.1-5.3-10.8s1.5-8.6,5.3-10.8a8.27,8.27,0,0,1,3.8-1A7,7,0,0,1,225.9,125.4ZM224.4,145c3-1.7,4.1-5.8,4.1-8.8s-1.3-7-4.1-8.8a5.55,5.55,0,0,0-2.2-.6,6.54,6.54,0,0,0-2.3.6c-2.8,1.8-4.1,5.9-4.1,8.8s1.2,7.1,4.1,8.8a4.65,4.65,0,0,0,2.3.6A4.28,4.28,0,0,0,224.4,145Z"/><path class="cls-2" d="M236.4,146.6V126a1.34,1.34,0,0,1,1.4-1.2h5.8c4.3,0,6.9,4,7.9,7a14.08,14.08,0,0,1,.7,4.5,14.52,14.52,0,0,1-.7,4.5c-1,3.1-3.6,7-7.9,7h-5.3a4.33,4.33,0,0,1-.5.1A1.5,1.5,0,0,1,236.4,146.6Zm12.5-14.2c-.6-2.2-2.5-5.3-5.3-5.3h-4.5v18.2h4.5c2.8,0,4.7-3,5.3-5.2a15.87,15.87,0,0,0,.6-3.8A22.77,22.77,0,0,0,248.9,132.4Z"/></svg>