<svg id="Layer_1" data-name="Layer 1" xmlns="http://www.w3.org/2000/svg" viewBox="0 0 350 350"><defs><style>.cls-1{fill:#a1c0c9;}.cls-2{fill:#f0f1f1;}.cls-3{fill:#424243;}.cls-4{fill:#435e7d;}.cls-5{opacity:0.56;}.cls-6{fill:#a0d4f5;}.cls-7{fill:#2b3d4d;}.cls-8{fill:#9ed1e3;}.cls-9{fill:#837fcb;}.cls-10{opacity:0.82;}.cls-11{fill:#618247;}.cls-12{fill:#bcd589;}.cls-13{opacity:0.7;}.cls-14{fill:none;}</style></defs><title>ecommerce-type-3-purple</title><rect class="cls-1" x="73.8" y="119.2" width="212.3" height="130.1"/><rect class="cls-2" x="73.8" y="119.2" width="212.3" height="102"/><path class="cls-3" d="M286.1,246.7H82.5c-2.6,0-5.7-.4-8.3,0h-.4l2.6,2.6V119.2l-2.6,2.6H277.4c2.6,0,5.7.4,8.3,0h.4l-2.6-2.6V249.3c0,3.4,5.2,3.4,5.2,0V119.2a2.65,2.65,0,0,0-2.6-2.6H100c-8.6,0-17.2-.4-25.7,0h-.4a2.65,2.65,0,0,0-2.6,2.6V249.3a2.65,2.65,0,0,0,2.6,2.6H260c8.6,0,17.2.4,25.7,0h.4C289.5,251.9,289.5,246.7,286.1,246.7Z"/><rect class="cls-4" x="229.2" y="144.8" width="42" height="104.5"/><path class="cls-3" d="M271.2,246.7h-42l2.6,2.6V144.9l-2.6,2.6h42l-2.6-2.6V249.3c0,3.4,5.2,3.4,5.2,0V144.9a2.65,2.65,0,0,0-2.6-2.6h-42a2.65,2.65,0,0,0-2.6,2.6V249.3a2.65,2.65,0,0,0,2.6,2.6h42C274.6,251.9,274.6,246.7,271.2,246.7Z"/><g class="cls-5"><path class="cls-3" d="M175.4,274.4H59.1a2,2,0,0,1-2-2h0a2,2,0,0,1,2-2H175.4a2,2,0,0,1,2,2h0A2,2,0,0,1,175.4,274.4Z"/></g><g class="cls-5"><path class="cls-3" d="M186.4,274.4h-2.9a2,2,0,0,1-2-2h0a2,2,0,0,1,2-2h2.9a2,2,0,0,1,2,2h0A2.07,2.07,0,0,1,186.4,274.4Z"/></g><g class="cls-5"><path class="cls-3" d="M284,284.9H170.8a2.05,2.05,0,0,1-2.1-2.1h0a2.05,2.05,0,0,1,2.1-2.1H284a2.05,2.05,0,0,1,2.1,2.1h0A2.05,2.05,0,0,1,284,284.9Z"/></g><g class="cls-5"><path class="cls-3" d="M296.8,284.9h-5.2a2.05,2.05,0,0,1-2.1-2.1h0a2.05,2.05,0,0,1,2.1-2.1h5.2a2.05,2.05,0,0,1,2.1,2.1h0A2.05,2.05,0,0,1,296.8,284.9Z"/></g><g class="cls-5"><path class="cls-3" d="M151.4,295.9h-5.2a2.05,2.05,0,0,1-2.1-2.1h0a2.05,2.05,0,0,1,2.1-2.1h5.2a2.05,2.05,0,0,1,2.1,2.1h0A2.11,2.11,0,0,1,151.4,295.9Z"/></g><rect class="cls-6" x="81.5" y="149" width="136.7" height="77.1"/><rect class="cls-7" x="235.1" y="212.9" width="30.8" height="29.9"/><rect class="cls-8" x="235.1" y="150.5" width="30.8" height="5.9"/><path class="cls-3" d="M267.2,150.5a1.32,1.32,0,0,0-1.3-1.3H235.1a1.32,1.32,0,0,0-1.3,1.3v5.9a1.32,1.32,0,0,0,1.3,1.3h30.8a1,1,0,0,0,.8-.3.1.1,0,0,0,.1-.1.1.1,0,0,1,.1-.1,1.14,1.14,0,0,0,.3-.8Zm-2.6,4.6H236.4v-3.3h28.2Z"/><rect class="cls-7" x="235.1" y="160.1" width="30.8" height="32.3"/><path class="cls-2" d="M258.7,202.8v-.7a.9.9,0,0,1,.9-.9h8.7a.9.9,0,0,1,.9.9v.7a.9.9,0,0,1-.9.9h-8.7A.9.9,0,0,1,258.7,202.8Z"/><path class="cls-3" d="M258.2,202.4a1.79,1.79,0,0,1,1.8-1.8h8a1.8,1.8,0,1,1,0,3.6h-8A1.79,1.79,0,0,1,258.2,202.4Zm10.5,0a.68.68,0,0,0-.7-.7h-8a.7.7,0,0,0,0,1.4h8C268.4,203.2,268.7,202.8,268.7,202.4Z"/><rect class="cls-9" x="61.1" y="108.4" width="236.7" height="10.7"/><path class="cls-3" d="M297.8,105.8H90.3c-9.6,0-19.2-.4-28.8,0h-.4a2.65,2.65,0,0,0-2.6,2.6v10.7a2.65,2.65,0,0,0,2.6,2.6H268.6c9.6,0,19.2.4,28.8,0h.4a2.65,2.65,0,0,0,2.6-2.6V108.4c0-3.4-5.2-3.4-5.2,0v10.7l2.6-2.6H70.7c-2.9,0-6.3-.5-9.2,0h-.4l2.6,2.6V108.4L61.1,111H268.6c9.6,0,19.2.4,28.8,0h.4C301.1,111,301.1,105.8,297.8,105.8Z"/><rect class="cls-2" x="85" y="64.4" width="189.9" height="43.1"/><path class="cls-3" d="M274.9,61.8H108.4c-7.7,0-15.4-.4-23.1,0H85a2.55,2.55,0,0,0-2.4,2.6v43.1a2.55,2.55,0,0,0,2.4,2.6H251.5c7.7,0,15.4.4,23.1,0h.3a2.55,2.55,0,0,0,2.4-2.6V64.4a2.36,2.36,0,1,0-4.7,0v43.1c.8-.9,1.6-1.7,2.4-2.6H92.9c-2.4,0-5.1-.4-7.5,0h-.3c.8.9,1.6,1.7,2.4,2.6V64.4c-.8.9-1.6,1.7-2.4,2.6H251.6c7.7,0,15.4.4,23.1,0h.3C277.9,67,278,61.8,274.9,61.8Z"/><rect class="cls-9" x="73.6" y="56.9" width="212.8" height="10.7"/><path class="cls-3" d="M286.4,54.3H99.8c-8.6,0-17.3-.4-25.9,0h-.4a2.55,2.55,0,0,0-2.4,2.6V67.6a2.55,2.55,0,0,0,2.4,2.6H260.1c8.6,0,17.3.4,25.9,0h.4a2.55,2.55,0,0,0,2.4-2.6V56.9a2.36,2.36,0,1,0-4.7,0V67.6c.8-.9,1.6-1.7,2.4-2.6H82.3c-2.6,0-5.7-.5-8.3,0h-.4c.8.9,1.6,1.7,2.4,2.6V56.9c-.8.9-1.6,1.7-2.4,2.6H260.2c8.6,0,17.3.4,25.9,0h.4C289.4,59.5,289.4,54.3,286.4,54.3Z"/><rect class="cls-2" x="57.6" y="249.3" width="244.5" height="14.2"/><path class="cls-3" d="M60.2,263.5V249.3l-2.6,2.6H292.1c3.1,0,6.5.5,9.6,0h.4l-2.6-2.6v14.2c0,3.4,5.2,3.4,5.2,0V249.3a2.65,2.65,0,0,0-2.6-2.6H87.7c-9.9,0-19.8-.4-29.7,0h-.4a2.65,2.65,0,0,0-2.6,2.6v14.2c-.1,3.3,5.2,3.3,5.2,0Z"/><rect class="cls-2" x="81.6" y="204.2" width="39.1" height="9"/><g class="cls-10"><rect class="cls-3" x="81.5" y="203.3" width="42.4" height="2.6"/></g><path class="cls-2" d="M102.8,191c10.9-7.8,21.7-15.6,32.6-23.4,1.4-1,.1-3.5-1.4-2.4-10.9,7.8-21.7,15.6-32.6,23.4-1.4,1,0,3.5,1.4,2.4Z"/><path class="cls-2" d="M172.9,191c10.9-7.8,21.7-15.6,32.6-23.4,1.4-1,.1-3.5-1.4-2.4-10.9,7.8-21.7,15.6-32.6,23.4-1.5,1.1-.1,3.5,1.4,2.4Z"/><path class="cls-2" d="M185.6,197.2c7.3-5.3,14.6-10.5,21.9-15.8,1.4-1,.1-3.5-1.4-2.4-7.3,5.3-14.6,10.5-21.9,15.8-1.4,1,0,3.5,1.4,2.4Z"/><path class="cls-3" d="M219.2,227.4H82.8a1.37,1.37,0,0,1-1.4-1.4V149a1.37,1.37,0,0,1,1.4-1.4H219.2a1.37,1.37,0,0,1,1.4,1.4v77A1.5,1.5,0,0,1,219.2,227.4ZM84.1,224.7H217.8V150.4H84.1Z"/><path class="cls-3" d="M127.5,89.6a6.65,6.65,0,0,1,1.2,4.1,6.39,6.39,0,0,1-2.3,5.2,9.88,9.88,0,0,1-6.5,1.9H108.2v-26h11.3a10.24,10.24,0,0,1,6.3,1.8,6.53,6.53,0,0,1,1.2,8.6,6.43,6.43,0,0,1-2.9,2.2A6.15,6.15,0,0,1,127.5,89.6Zm-14.8-3.9h6c3.2,0,4.8-1.2,4.8-3.7a3.16,3.16,0,0,0-1.2-2.7,6,6,0,0,0-3.6-.9h-6Zm10.4,10.5a3.43,3.43,0,0,0,1.2-2.9,3.77,3.77,0,0,0-1.2-3,6.1,6.1,0,0,0-3.7-.9h-6.6v7.7h6.6A6.31,6.31,0,0,0,123.1,96.2Z"/><path class="cls-3" d="M175.5,100.8h-4.9l-3.3-8.7a2.9,2.9,0,0,0-1.3-1.7,5.21,5.21,0,0,0-2.3-.5H159v10.8h-4.6v-26h11c2.9,0,5.1.6,6.6,1.9a7,7,0,0,1,2.3,5.6,7.22,7.22,0,0,1-1.4,4.4,7.44,7.44,0,0,1-3.8,2.6,4.6,4.6,0,0,1,3.3,3.2ZM164.7,86.3a5.89,5.89,0,0,0,3.9-1,3.84,3.84,0,0,0,1.3-3,3.43,3.43,0,0,0-1.2-2.9,6.52,6.52,0,0,0-3.9-1H159v7.9Z"/><path class="cls-3" d="M199,89.6a6.65,6.65,0,0,1,1.2,4.1,6.39,6.39,0,0,1-2.3,5.2,9.88,9.88,0,0,1-6.5,1.9H179.7v-26H191a10,10,0,0,1,6.3,1.8,6.53,6.53,0,0,1,1.2,8.6,6.43,6.43,0,0,1-2.9,2.2A5.82,5.82,0,0,1,199,89.6Zm-14.7-3.9h6c3.2,0,4.8-1.2,4.8-3.7a3.16,3.16,0,0,0-1.2-2.7,6,6,0,0,0-3.6-.9h-6Zm10.3,10.5a3.43,3.43,0,0,0,1.2-2.9,3.77,3.77,0,0,0-1.2-3,6.1,6.1,0,0,0-3.7-.9h-6.6v7.7h6.6A6.1,6.1,0,0,0,194.6,96.2Z"/><path class="cls-3" d="M204.7,100.8v-26h17.2v3.7H209.3v7.2h11.9v3.7H209.3V97h12.6v3.7H204.7Z"/><path class="cls-3" d="M247.4,100.8h-4.9l-3.3-8.7a2.9,2.9,0,0,0-1.3-1.7,5.21,5.21,0,0,0-2.3-.5h-4.7v10.8h-4.6v-26h11c2.9,0,5.1.6,6.6,1.9a7,7,0,0,1,2.3,5.6,7.22,7.22,0,0,1-1.4,4.4,7.44,7.44,0,0,1-3.8,2.6,4.6,4.6,0,0,1,3.3,3.2ZM236.5,86.3a5.89,5.89,0,0,0,3.9-1,3.84,3.84,0,0,0,1.3-3,3.43,3.43,0,0,0-1.2-2.9,6.52,6.52,0,0,0-3.9-1h-5.8v7.9Z"/><path class="cls-11" d="M294.8,211.9c0,17.4-3.3,31.5-7.4,31.5s-7.4-14.1-7.4-31.5c0-20.2,7.4-31.5,7.4-31.5S294.8,191.4,294.8,211.9Z"/><path class="cls-3" d="M287.4,244.1c-5.3,0-8.2-16.6-8.2-32.2,0-20.2,7.2-31.4,7.5-31.9l.7-1,.7,1c.3.5,7.5,11.5,7.5,31.9C295.6,227.5,292.8,244.1,287.4,244.1Zm.1-62.2c-1.8,3.4-6.6,13.8-6.6,29.9,0,19.1,3.8,30.8,6.6,30.8s6.6-11.7,6.6-30.8C294,195.6,289.3,185.3,287.5,181.9Z"/><path class="cls-3" d="M287.4,239a.77.77,0,0,1-.8-.7V195.4a.81.81,0,0,1,1.6,0v42.9A.71.71,0,0,1,287.4,239Z"/><path class="cls-12" d="M301.9,213.9c0,11-2.5,20-5.6,20s-5.6-9-5.6-20c0-12.8,5.6-20,5.6-20S301.9,200.9,301.9,213.9Z"/><path class="cls-3" d="M296.2,234.4c-4.1,0-6.2-10.5-6.2-20.5,0-12.8,5.5-19.9,5.7-20.2l.5-.7.5.7c.2.3,5.7,7.3,5.7,20.3C302.5,223.8,300.3,234.4,296.2,234.4Zm0-39.5c-1.4,2.1-5,8.8-5,19,0,12.1,2.9,19.5,5,19.5s5-7.4,5-19.5C301.3,203.6,297.6,197,296.2,194.9Z"/><path class="cls-3" d="M296.2,231.1a.56.56,0,0,1-.6-.5V203.3a.61.61,0,0,1,1.2,0v27.3C296.8,230.9,296.6,231.1,296.2,231.1Z"/><polygon class="cls-2" points="299.7 248.2 281 248.2 278.2 224.3 301.7 224.3 299.7 248.2"/><path class="cls-3" d="M300.1,248.6H280.6v-.4l-2.8-24.4h24.5Zm-18.7-.9h17.9l2-22.9H278.8Z"/><path class="cls-3" d="M299.7,248.9H281a.68.68,0,0,1-.7-.7l-2.8-23.9a.73.73,0,0,1,.2-.6c.1-.2.3-.2.6-.2h23.5a.76.76,0,0,1,.5.2,1.42,1.42,0,0,1,.2.6l-2,23.9A.85.85,0,0,1,299.7,248.9Zm-18-1.5H299l1.9-22.4H279Z"/><rect class="cls-2" x="275" y="221.2" width="30" height="3.5"/><path class="cls-3" d="M305.4,225.1H274.5v-4.4h30.9Zm-29.9-.9h29.1v-2.6H275.5Z"/><path class="cls-3" d="M305,225.4H275a.68.68,0,0,1-.7-.7v-3.5a.68.68,0,0,1,.7-.7h30a.68.68,0,0,1,.7.7v3.5A.75.75,0,0,1,305,225.4Zm-29.2-1.5h28.5v-2H275.8Z"/><rect class="cls-3" x="63.6" y="151.5" width="9.1" height="2.3"/><rect class="cls-3" x="63.6" y="193.1" width="9.1" height="2.3"/><rect class="cls-2" x="46.4" y="149" width="20.9" height="50.3"/><path class="cls-3" d="M67.9,199.9H45.8V148.5H67.9ZM47,198.7H66.8V149.6H47Z"/><path class="cls-3" d="M67.9,145.7H45.7a1.54,1.54,0,0,0-1.5,1.5v.9a1.54,1.54,0,0,0,1.5,1.5H67.9a1.54,1.54,0,0,0,1.5-1.5v-.9A1.47,1.47,0,0,0,67.9,145.7Z"/><path class="cls-3" d="M68,196.8H45.6a1.37,1.37,0,0,0-1.4,1.4v1a1.37,1.37,0,0,0,1.4,1.4H68a1.37,1.37,0,0,0,1.4-1.4v-1A1.37,1.37,0,0,0,68,196.8Z"/><polygon class="cls-9" points="67.3 166.2 46.4 158.1 46.4 151.2 67.3 159.3 67.3 166.2"/><path class="cls-3" d="M67.9,167.1l-22.1-8.6v-8.1L67.9,159ZM47,157.7l19.8,7.7v-5.6L47,152.1Z"/><polygon class="cls-9" points="67.3 180.5 46.4 172.4 46.4 165.5 67.3 173.6 67.3 180.5"/><path class="cls-3" d="M67.9,181.4l-22.1-8.6v-8.1l22.1,8.6ZM47,172l19.8,7.7V174L47,166.4Z"/><polygon class="cls-9" points="67.3 194.8 46.4 186.7 46.4 179.8 67.3 187.9 67.3 194.8"/><path class="cls-3" d="M67.9,195.7l-22.1-8.6V179l22.1,8.6ZM47,186.3,66.8,194v-5.6L47,180.7Z"/><g class="cls-13"><polygon class="cls-14" points="146.4 209 146.7 206.6 144.8 208.1 146.4 209"/><polygon class="cls-14" points="143.3 172.7 141.6 171.8 142.1 173.7 143.3 172.7"/><path class="cls-14" d="M147.1,169.4a.45.45,0,0,0,0-.5c-.1-.2-.2-.3-.4-.3a1.27,1.27,0,0,0-.6.1l-.8.4.6,1.1.8-.4C146.9,169.7,147.1,169.6,147.1,169.4Z"/><path class="cls-14" d="M152.7,208.6l-1.2-.2-.3,1.6,1.2.3c.6.1,1-.1,1.1-.6S153.3,208.8,152.7,208.6Z"/><path class="cls-14" d="M151.5,168.6l-1,.3.3,1.2,1-.3a1.07,1.07,0,0,0,.5-.3.75.75,0,0,0,.1-.5c-.1-.2-.1-.3-.3-.4Z"/><path class="cls-14" d="M138.8,175c-.2-.1-.3-.2-.5-.1s-.3.2-.5.4l-.6.8.9.7.6-.8C139,175.6,139.1,175.3,138.8,175Z"/><path class="cls-14" d="M140.2,177.1a.86.86,0,0,0,.3-.6.52.52,0,0,0-.2-.4c-.2-.1-.3-.2-.5-.1s-.3.2-.5.4l-.7.8,1,.8Z"/><path class="cls-14" d="M175.2,175.3a2.09,2.09,0,0,0-1.8,1.3,1.3,1.3,0,0,0,.2,1,1.05,1.05,0,0,0,.9.5,2.09,2.09,0,0,0,1.8-1.3,1.3,1.3,0,0,0-.2-1A1.38,1.38,0,0,0,175.2,175.3Z"/><path class="cls-14" d="M178.2,181.6a.45.45,0,0,0,.5,0c.2-.1.3-.2.3-.4a1.27,1.27,0,0,0-.1-.6l-.4-.9-1.1.5.4.9A1,1,0,0,0,178.2,181.6Z"/><path class="cls-3" d="M160.4,161.2a28.14,28.14,0,0,0-20.8,5.7,28.15,28.15,0,0,0,13.7,50.2,21.74,21.74,0,0,0,3.6.2,27.79,27.79,0,0,0,17.2-5.9,28.47,28.47,0,0,0,10.7-18.7A28.1,28.1,0,0,0,160.4,161.2Zm23.3,31.3a27,27,0,1,1-26.8-30.4c1.1,0,2.3.1,3.4.2A27,27,0,0,1,183.7,192.5Z"/><path class="cls-3" d="M163.1,180a1.68,1.68,0,0,0-1.6,1,10.08,10.08,0,0,0-.5,2.5,11,11,0,0,0,1.8.2,3,3,0,0,0,1.3-.2,2,2,0,0,0,.8-2.1A2.18,2.18,0,0,0,163.1,180Z"/><path class="cls-3" d="M154.3,179.6a2,2,0,0,0-2-.8,1.82,1.82,0,0,0-1.4,1.4,1.64,1.64,0,0,0,1.2,2,11.27,11.27,0,0,0,1.8.3c.4,0,.4,0,.5-.4,0-.2.1-.3.1-.5a3.35,3.35,0,0,0,0-1A1.8,1.8,0,0,0,154.3,179.6Z"/><path class="cls-3" d="M158.9,173.2a16.12,16.12,0,1,0,14,18A16.1,16.1,0,0,0,158.9,173.2Zm6.7,10.2a2.92,2.92,0,0,1-2.8,1.5,16.6,16.6,0,0,1-2.2-.3.37.37,0,0,0-.3.1c-.7.8-1.3,1.6-1.9,2.3-.1.1,0,.2,0,.3,1.1,2.3,2.3,4.5,3.4,6.8a18.77,18.77,0,0,1,1.2,3,3.57,3.57,0,0,1-.2,2.5,1.89,1.89,0,0,1-1.2,1.1c-1.6-3.7-3.1-7.4-4.7-11.2-2.5,3.2-4.9,6.4-7.4,9.7-.2-.3-.4-.5-.6-.8a3.11,3.11,0,0,1-.1-2.5,9.8,9.8,0,0,1,1.3-2.2c1.8-2.4,3.7-4.6,5.7-6.8.2-.2.2-.3.1-.5-.4-.8-.8-1.7-1.2-2.6-.1-.2-.2-.2-.4-.2a8,8,0,0,1-2.7-.4,3.06,3.06,0,0,1-1.9-2.8,3.05,3.05,0,0,1,6.1-.1,16.35,16.35,0,0,1-.2,2.2v.3c.6.8,1.1,1.6,1.7,2.4.8-.7,1.5-1.3,2.3-1.9a.37.37,0,0,0,.1-.3,15.72,15.72,0,0,1,.4-2.3,2.77,2.77,0,0,1,2.5-2,2.91,2.91,0,0,1,2.9,1.4A2.86,2.86,0,0,1,165.6,183.4Z"/><polygon class="cls-3" points="144.2 204.5 143 205.8 141 204.2 142.2 202.8 142 202.5 139.3 205.6 139.6 205.8 140.8 204.4 142.8 206.1 141.5 207.5 141.8 207.7 144.4 204.7 144.2 204.5"/><path class="cls-3" d="M143.2,208.8l.3.2.9-.7,1.9,1-.1,1.2.3.2.4-4.4-.3-.2Zm3.2.2-1.7-.9,1.9-1.5Z"/><polygon class="cls-3" points="148.2 211.2 148.5 211.3 149.9 207.5 149.6 207.4 148.2 211.2"/><path class="cls-3" d="M152.8,208.4l-1.5-.3-.8,4,.3.1.4-1.8,1.1.2a.76.76,0,0,1,.5.2.52.52,0,0,1,.2.4l.2,1.4.4.1-.2-1.5c0-.2-.1-.3-.1-.4s-.2-.2-.3-.2a1.45,1.45,0,0,0,.7-.2.6.6,0,0,0,.3-.6,1,1,0,0,0-.2-.9A1.39,1.39,0,0,0,152.8,208.4Zm.7,1.2c-.1.5-.5.7-1.1.6l-1.2-.3.3-1.6,1.2.2C153.3,208.8,153.6,209.1,153.5,209.6Z"/><path class="cls-3" d="M159.9,212.3c-.2.1-.4.1-.6.2a1.37,1.37,0,0,1-1.1-.4,2.23,2.23,0,0,1-.5-1.3,2.27,2.27,0,0,1,.3-1.3,1.23,1.23,0,0,1,1-.5,1.7,1.7,0,0,1,.7.1l.6.3.1-.3a.86.86,0,0,0-.6-.3,2,2,0,0,0-.8-.1,1.69,1.69,0,0,0-1,.3,1.24,1.24,0,0,0-.6.8,2,2,0,0,0-.1,1.1,2,2,0,0,0,.3,1.1,2.34,2.34,0,0,0,.7.7,3,3,0,0,0,1,.2,2.35,2.35,0,0,0,.8-.2c.2-.1.4-.3.6-.4l-.2-.3A3.33,3.33,0,0,0,159.9,212.3Z"/><path class="cls-3" d="M164.4,207.6l-.3.1.7,2.4a1.7,1.7,0,0,1,0,1c-.1.3-.4.4-.8.6a1.09,1.09,0,0,1-1.5-.9l-.7-2.4-.3.1.7,2.4a1.32,1.32,0,0,0,.7,1,1.57,1.57,0,0,0,1.2.1,1.53,1.53,0,0,0,1-.7,1.84,1.84,0,0,0,.1-1.3Z"/><polygon class="cls-3" points="168.3 206.1 168.1 205.8 165.2 207.2 165.4 207.5 166.7 206.9 168.4 210.2 168.7 210 167 206.7 168.3 206.1"/><path class="cls-3" d="M140.7,177.4a1.43,1.43,0,0,0,.4-1,.91.91,0,0,0-.4-.8c-.2-.2-.4-.2-.6-.3a1.42,1.42,0,0,0-.6.2.64.64,0,0,0,0-.6,2.19,2.19,0,0,0-.3-.5,1,1,0,0,0-.9-.2,2.36,2.36,0,0,0-.9.6l-1.1,1.4,3.2,2.6Zm-3.5-1.4.6-.8a1.76,1.76,0,0,1,.5-.4.9.9,0,0,1,.5.1c.3.2.3.6,0,1l-.6.8Zm2,.3a1.76,1.76,0,0,1,.5-.4.9.9,0,0,1,.5.1.4.4,0,0,1,.2.4c0,.2-.1.3-.3.6l-.7.8-1-.8Z"/><path class="cls-3" d="M142.6,175.3l-.3-1,1.6-1.3.9.5.6-.5-4.1-2.1-.5.4,1.1,4.4Zm.7-2.6-1.2,1-.5-1.9Z"/><path class="cls-3" d="M146.8,172.3l-.8-1.6.7-.3a.6.6,0,0,1,.4-.1c.1,0,.2.1.3.1l1.1,1,.7-.3-1-1a.66.66,0,0,0-.7-.2,2.09,2.09,0,0,0,.4-.6,1.7,1.7,0,0,0-.1-.7c-.2-.3-.4-.6-.7-.6a1.54,1.54,0,0,0-1.1.2l-1.6.8,1.8,3.7Zm-1.6-3.2.8-.4c.3-.1.5-.2.6-.1s.3.1.4.3a.45.45,0,0,1,0,.5.7.7,0,0,1-.5.4l-.8.4Z"/><path class="cls-3" d="M152,170.4a1.93,1.93,0,0,0,.9-.5,1,1,0,0,0,.2-.9l-.3-.6a1.42,1.42,0,0,0-.6-.2,1,1,0,0,0,.4-.5.64.64,0,0,0,0-.6,1.28,1.28,0,0,0-.5-.7,1.7,1.7,0,0,0-1,0l-1.8.4,1,4Zm.2-1.8a1.38,1.38,0,0,1,.3.4.75.75,0,0,1-.1.5,2.19,2.19,0,0,1-.5.3l-1,.3-.3-1.2,1-.3ZM151,167q.45-.15.6,0a1.38,1.38,0,0,1,.3.4c.1.4-.1.6-.6.8l-.9.2-.3-1.1Z"/><polygon class="cls-3" points="157.3 169.8 157.3 169.2 155.2 169.3 155.2 168.1 157.1 168 157.1 167.4 155.2 167.5 155.1 166.3 157.1 166.3 157.1 165.7 154.3 165.8 154.5 169.9 157.3 169.8"/><path class="cls-3" d="M159.4,168.3l.7.1c.2,0,.3.1.4.1s.1.2.2.3l.3,1.4.8.1-.3-1.4a.92.92,0,0,0-.4-.6,1,1,0,0,0,1-1,.9.9,0,0,0-.2-.9,1.87,1.87,0,0,0-1-.5l-1.8-.3-.6,4.1.7.1Zm.3-1.8.9.1a.6.6,0,0,1,.6.3.44.44,0,0,1,.1.5c0,.2-.1.4-.3.4a1.27,1.27,0,0,1-.6.1l-.9-.1Z"/><path class="cls-3" d="M166,172.1a3.18,3.18,0,0,0,.9.3,1.48,1.48,0,0,0,.7-.1,1.21,1.21,0,0,0,.5-.5,1.27,1.27,0,0,0,.1-.6.86.86,0,0,0-.3-.6l-.6-.6a2.25,2.25,0,0,1-.5-.5.3.3,0,0,1,0-.4c.1-.2.2-.3.4-.3a1.27,1.27,0,0,1,.6.1,2,2,0,0,1,.9.9l.5-.4a2.09,2.09,0,0,0-.4-.6,1.79,1.79,0,0,0-.7-.5,3.09,3.09,0,0,0-.8-.2.84.84,0,0,0-.7.2,1.21,1.21,0,0,0-.5.5.75.75,0,0,0,0,.9,2.17,2.17,0,0,0,.8.9,2.25,2.25,0,0,1,.5.5.3.3,0,0,1,0,.4c-.1.2-.2.3-.4.3a1.08,1.08,0,0,1-.7-.2c-.2-.1-.4-.3-.6-.4a2.09,2.09,0,0,1-.4-.6l-.5.4a2.65,2.65,0,0,0,.5.6A1.79,1.79,0,0,0,166,172.1Z"/><polygon class="cls-3" points="169 173.8 170.1 172.4 171.8 173.8 170.6 175.2 171.2 175.6 173.8 172.4 173.2 171.9 172.1 173.3 170.5 171.9 171.6 170.6 171 170.1 168.4 173.3 169 173.8"/><path class="cls-3" d="M175.7,174.7a1.73,1.73,0,0,0-1-.1,1.91,1.91,0,0,0-1,.5,6.47,6.47,0,0,0-.8.9,1.8,1.8,0,0,0-.2,1,2.11,2.11,0,0,0,.4,1,2.7,2.7,0,0,0,.8.7,1.73,1.73,0,0,0,1,.1,1.91,1.91,0,0,0,1-.5,2.76,2.76,0,0,0,.7-.9,1.8,1.8,0,0,0,.2-1,2.11,2.11,0,0,0-.4-1A1.58,1.58,0,0,0,175.7,174.7Zm-.1,3a1.86,1.86,0,0,1-1.1.4,1.38,1.38,0,0,1-.9-.5,1.16,1.16,0,0,1-.2-1,2.09,2.09,0,0,1,1.8-1.3,1.38,1.38,0,0,1,.9.5,1.16,1.16,0,0,1,.2,1A2.43,2.43,0,0,1,175.6,177.7Z"/><path class="cls-3" d="M175.3,181.2l1.6-.7.4,1c.2.4.4.7.7.8a1.7,1.7,0,0,0,1,0c.3-.2.6-.4.6-.7a2.16,2.16,0,0,0-.1-1.1l-.8-1.6-3.8,1.8Zm3.2-1.5.4.9a1.27,1.27,0,0,1,.1.6c0,.2-.2.3-.3.4a.45.45,0,0,1-.5,0,.7.7,0,0,1-.4-.5l-.4-.9Z"/><path class="cls-3" d="M157.1,187.2c-.3,0-.7.2-.7.5s.2.7.5.7.7-.2.7-.5S157.5,187.3,157.1,187.2Z"/></g><path class="cls-3" d="M147,72.4a3.71,3.71,0,0,0-3.2,3.1,18.16,18.16,0,0,0-.3,3.2.6.6,0,0,1-.1.4c-.9,1-1.9,1.9-2.8,2.9-.9-1-1.8-2-2.7-3.1a.37.37,0,0,1-.1-.3c0-1,0-2-.1-3.1a4.09,4.09,0,0,0-5.2-3.5,4.17,4.17,0,0,0-3.1,4.5,4.11,4.11,0,0,0,2.9,3.5,12,12,0,0,0,3.8.2c.3,0,.4,0,.5.3.6,1.1,1.3,2.2,2,3.3.2.3.2.5,0,.7a117,117,0,0,0-6.8,10,9.58,9.58,0,0,0-1.4,3.1,4.08,4.08,0,0,0,.4,3.4c.2.4.6.6.9,1,2.9-4.8,5.8-9.4,8.7-14.1,2.7,4.9,5.3,9.7,8,14.5a2.91,2.91,0,0,0,1.4-1.7,5,5,0,0,0-.1-3.4,17.94,17.94,0,0,0-2-3.9c-1.8-2.9-3.7-5.8-5.5-8.8-.1-.1-.2-.3-.1-.4.8-1.1,1.5-2.3,2.3-3.4a.76.76,0,0,1,.4-.2c1,0,2,.1,3.1.1a3.72,3.72,0,0,0,3.5-2.3,4,4,0,0,0-.5-4.4A3.45,3.45,0,0,0,147,72.4Zm-10.7,5a1.48,1.48,0,0,1-.1.7c0,.5-.1.6-.6.6a10.55,10.55,0,0,1-2.5-.2,2.42,2.42,0,0,1-1.9-2.6,2.25,2.25,0,0,1,1.7-2.1,2.64,2.64,0,0,1,2.8.8,3.36,3.36,0,0,1,.5,1.4A6.6,6.6,0,0,1,136.3,77.4Zm4.3,8.9a.85.85,0,1,1,.9-.8A1,1,0,0,1,140.6,86.3Zm8.8-7.8a2.62,2.62,0,0,1-1.7.5h-2.4a9.61,9.61,0,0,1,.3-3.4,2.16,2.16,0,0,1,2.1-1.5,2.34,2.34,0,0,1,2.5,1.5A2.72,2.72,0,0,1,149.4,78.5Z"/></svg>