<svg id="Layer_1" data-name="Layer 1" xmlns="http://www.w3.org/2000/svg" viewBox="0 0 350 350"><defs><style>.cls-1{opacity:0.48;}.cls-2{fill:#424243;}.cls-3{fill:#b6fff3;}.cls-4{fill:#f0f1f1;}.cls-5{fill:#9ed1e3;}.cls-6{opacity:0.57;}.cls-7{fill:#00d1b2;}.cls-8{opacity:0.75;}.cls-9{fill:#f1e8da;}.cls-10{fill:#4f4f50;}.cls-11{opacity:0.77;}.cls-12{fill:#4e4e4e;}.cls-13{fill:#dcb89e;}.cls-14{fill:#cfad98;}.cls-15{fill:#d6ae98;}.cls-16{fill:#c47e78;}.cls-17{fill:#313130;}.cls-18{fill:#4f4f4f;}.cls-19{fill:#fff;}.cls-20{fill:#212121;}.cls-21{fill:#5e748c;}.cls-22{fill:#f4d45b;}.cls-23{fill:#dbb79c;}.cls-24{fill:#f9fbf8;}.cls-25{opacity:0.78;}.cls-26{opacity:0.73;}.cls-27{fill:#bcd589;}</style></defs><title>ecommerce-type-7-teal</title><g class="cls-1"><path class="cls-2" d="M136.7,298.6H58.9a2.05,2.05,0,0,1-2.1-2.1v-1.7a2.05,2.05,0,0,1,2.1-2.1h77.8a2.05,2.05,0,0,1,2.1,2.1v1.7A2.18,2.18,0,0,1,136.7,298.6Z"/></g><rect class="cls-3" x="59.9" y="60.2" width="233.6" height="187.6"/><path class="cls-2" d="M293.5,245.4H69.4c-2.9,0-6.3-.5-9.1,0h-.4l2.5,2.5V68c0-2.3.4-5,0-7.3v-.3l-2.5,2.5H284c2.9,0,6.3.5,9.1,0h.4L291,60.4V224.8c0,7.6-.3,15.3,0,22.9v.3c0,3.2,4.9,3.2,4.9,0V83.6c0-7.6.3-15.3,0-22.9v-.3a2.54,2.54,0,0,0-2.5-2.5H88.6c-9.4,0-19-.4-28.4,0h-.4a2.54,2.54,0,0,0-2.5,2.5V224.8c0,7.6-.3,15.3,0,22.9v.3a2.54,2.54,0,0,0,2.5,2.5H264.6c9.4,0,19,.4,28.4,0h.4C296.7,250.3,296.7,245.4,293.5,245.4Z"/><rect class="cls-4" x="42" y="247.8" width="269.1" height="13.4"/><path class="cls-2" d="M44.5,261.2V247.8L42,250.3H300.1c3.4,0,7.1.5,10.5,0h.5l-2.5-2.5v13.4c0,3.2,4.9,3.2,4.9,0V247.8a2.54,2.54,0,0,0-2.5-2.5H75.1c-10.9,0-21.8-.4-32.6,0H42a2.54,2.54,0,0,0-2.5,2.5v13.4c0,3.2,5,3.2,5,0Z"/><g class="cls-1"><path class="cls-2" d="M162.7,274.2H42a1.79,1.79,0,0,1-1.8-1.8V272a1.79,1.79,0,0,1,1.8-1.8H162.8a1.79,1.79,0,0,1,1.8,1.8v.4A2,2,0,0,1,162.7,274.2Z"/></g><g class="cls-1"><path class="cls-2" d="M292.9,283.4H148.3a2,2,0,0,1-2-2v-1.3a2,2,0,0,1,2-2H292.9a2,2,0,0,1,2,2v1.3A1.94,1.94,0,0,1,292.9,283.4Z"/></g><g class="cls-1"><path class="cls-2" d="M309.1,283.4h-8a2,2,0,0,1-2-2v-1.3a2,2,0,0,1,2-2h8a2,2,0,0,1,2,2v1.3A1.94,1.94,0,0,1,309.1,283.4Z"/></g><rect class="cls-5" x="132" y="121.4" width="144.4" height="113.1"/><path class="cls-2" d="M276.4,119H132a2.54,2.54,0,0,0-2.5,2.5V234.7a2.54,2.54,0,0,0,2.5,2.5H276.4a2.41,2.41,0,0,0,1.7-.7l.1-.1h0a2.24,2.24,0,0,0,.7-1.7V121.5A2.61,2.61,0,0,0,276.4,119Zm-49,113.1h-93V123.9H273.9V232.1Z"/><g class="cls-6"><path class="cls-4" d="M207.7,128.7c-9.4,12-18.7,24.1-28.1,36.1-1.3,1.7-2.7,3.4-4,5.1-1,1.2.8,3,1.7,1.7,9.4-12,18.7-24.1,28.1-36.1,1.3-1.7,2.7-3.4,4-5.1,1-1.2-.7-3-1.7-1.7Z"/></g><rect class="cls-7" x="47.3" y="54.1" width="258.9" height="12.3"/><path class="cls-2" d="M308,52.4h0l-.1-.1a2.24,2.24,0,0,0-1.7-.7H79.2c-10.5,0-21-.4-31.5,0h-.4a2.54,2.54,0,0,0-2.5,2.5V66.4a2.54,2.54,0,0,0,2.5,2.5h227c10.5,0,21,.4,31.5,0h.4a2.54,2.54,0,0,0,2.5-2.5V54.1A2.41,2.41,0,0,0,308,52.4ZM280.4,63.9H57.8c-2.6,0-5.4-.3-8.1-.2V56.5H274.2c9.8,0,19.7.3,29.5.1v7.3Z"/><path class="cls-7" d="M98.7,136.4H96.8c-11.1,0-20.2,6.9-20.2,15.2v95.1H119V151.6C119,143.3,109.9,136.4,98.7,136.4Z"/><path class="cls-2" d="M98.7,134c-7.1,0-14.3,1.5-19.6,6.6-3.7,3.6-5,8-5,13v93.2a2.54,2.54,0,0,0,2.5,2.5H119a2.54,2.54,0,0,0,2.5-2.5V158.4c0-4.5.5-9.1-1.6-13.3-3.9-7.6-13.1-11-21.2-11.1-3.2,0-3.2,4.9,0,4.9,6.6.1,15.1,3,17.3,10,.9,3,.4,6.8.4,9.9v87.9l2.5-2.5H76.5l2.5,2.5V160.3c0-3.7-.7-8.6.6-12.1,2.9-7.6,12-9.5,19.1-9.5C101.9,138.9,101.9,134,98.7,134Z"/><path class="cls-5" d="M111.3,165.7V153.8c0-4.8-5.7-8.8-12.7-8.8H97.4c-7,0-12.7,3.9-12.7,8.8v11.9Z"/><path class="cls-2" d="M112.5,165.7v-9.9c0-4.2-1.3-7.5-5.2-9.7-7.6-4.4-23.9-2.7-23.9,8.5v11.1a1.22,1.22,0,0,0,1.2,1.2h26.6a1.25,1.25,0,0,0,0-2.5H84.6l1.2,1.2V154.9c0-6.4,6.6-8.6,12.1-8.6s12.1,2.2,12.1,8.6v10.7A1.25,1.25,0,0,0,112.5,165.7Z"/><g class="cls-8"><path class="cls-9" d="M145.2,154.1c6,0,10.8,3.3,10.8,7.3v2.2a4.88,4.88,0,0,1,.7-.3c2.7-.6,5.6-2.8,7.5-4.2a6.79,6.79,0,0,0,1.2-1.2,3.17,3.17,0,0,0,.8-1.2c-.2.1-.4.1-.6.2-3.3.6-2.9-3.6-.6-3.8a3,3,0,0,0-1.3-.5c-.2-.1-.3-.1-.5-.2a6.9,6.9,0,0,1-2.8-1.5l-.3.6-3.6-3.2s.3-.3.8-.7a8.23,8.23,0,0,0-8.7-.3,4.49,4.49,0,0,1,1,1.3s-3,1.1-4,2.7a5.2,5.2,0,0,0-.3-.5,9.19,9.19,0,0,0-1.1,3.3h1Zm13.6-2.7a.8.8,0,1,1-.8.8A.74.74,0,0,1,158.8,151.4Z"/><path class="cls-9" d="M148.6,147.4a6.25,6.25,0,0,0-4-1.4c-1.2,1.3,0,3.7.7,4.8A9,9,0,0,1,148.6,147.4Z"/><path class="cls-9" d="M149.6,148.7a6.42,6.42,0,0,0-1-1.3,8.3,8.3,0,0,0-3.3,3.4,5.2,5.2,0,0,1,.3.5C146.6,149.7,149.6,148.7,149.6,148.7Z"/><path class="cls-9" d="M160.3,150.9l.1.1a7.38,7.38,0,0,0,.5-5.1c-.7-.2-2.5,1-3.5,1.8A10,10,0,0,1,160.3,150.9Z"/><path class="cls-9" d="M160,151.6l.3-.6-.1-.1a8.37,8.37,0,0,0-3-3.2c-.5.4-.8.7-.8.7Z"/><path class="cls-10" d="M158.8,153a.8.8,0,1,0-.8-.8A.79.79,0,0,0,158.8,153Z"/><path class="cls-10" d="M166.1,154.5a2.8,2.8,0,0,1,0,2.2c1.7-.7,1.9-2.8-.2-3.5a1.8,1.8,0,0,0-1-.1A2.69,2.69,0,0,1,166.1,154.5Z"/><path class="cls-10" d="M165.6,156.9a1.42,1.42,0,0,0,.6-.2,2.8,2.8,0,0,0,0-2.2,2.76,2.76,0,0,0-1.2-1.4C162.6,153.3,162.3,157.5,165.6,156.9Z"/><path class="cls-9" d="M156,163.7a8.53,8.53,0,0,1-11.9-8.3,4.87,4.87,0,0,1,.1-1.2c-4.5.1-8.3,2-9.7,4.7v22.9c1.5,2.8,5.5,4.7,10.1,4.7h.7a12.53,12.53,0,0,0,8.3-2.7c-2.7-.6-6.6-2.1-5.4-4.7l.9.7a11.85,11.85,0,0,0,6.4,1.7,4.65,4.65,0,0,0,.6-2.3V163.7Z"/><path class="cls-9" d="M152.8,164.3a7.54,7.54,0,0,0,3.3-.7v-2.2c0-4-4.8-7.3-10.8-7.3h-1.1c0,.4-.1.8-.1,1.2A8.84,8.84,0,0,0,152.8,164.3Z"/><path class="cls-9" d="M153.6,183.9a8.08,8.08,0,0,0,1.9.3c4.6.2,8-3.7,9.7-7.5,1.4-3.2,2.3-9.6-2.3-11-1.2-.3-6.9-.3-5.4,2.3,1.1,2,4.1-.6,5.7.3,2,1.2,1.3,4.5.8,6.3-1.3,4.6-4.6,6.9-8.4,7A14.34,14.34,0,0,1,153.6,183.9Z"/><path class="cls-9" d="M149,179.8l-.9-.7c-1.2,2.6,2.7,4.1,5.4,4.7a8,8,0,0,0,1.9-2.3A11.85,11.85,0,0,1,149,179.8Z"/></g><g class="cls-11"><path class="cls-12" d="M205.8,232l.2-12.2s-1.2-3.9-5.2-1.2l.1,13.3h4.9Z"/><path class="cls-12" d="M223.1,232V218.7c-4-2.7-5,1.2-5,1.2l.2,12.2h4.8Z"/><path class="cls-12" d="M226.3,221.8a4.69,4.69,0,0,1-4.7,4.7H203a4.69,4.69,0,0,1-4.7-4.7v-8.6a4.69,4.69,0,0,1,4.7-4.7h18.6a4.69,4.69,0,0,1,4.7,4.7Z"/><path class="cls-13" d="M195.9,185c-1.6-2.4-3.9-4.3-5.7-6.6-1.7-2-3.4-4.2-6.1-4.8a8.22,8.22,0,0,0-7.5,2c-.9.9-.7,1.8-1.1,2.8s-1.6,1.1-2.3,1.9c-1.2,1.4,0,1.8,1.3,1.6,2.6-.5,4.4-1.8,7-.8.7.3,2.3,1.3,3,.7s-.3-1.9-.8-2.3l-.1-.1c1.5,1.6,3.6,2.5,5.2,4a43.23,43.23,0,0,1,4.5,5.1C193.6,188.2,196.2,185.5,195.9,185Z"/><path class="cls-13" d="M226.6,191.3c0,6.2-6.3,11.2-14,11.1h-.3c-7.7,0-14-5-14-11.2l.1-22.6c0-6.2,6.3-11.2,14-11.1h.3c7.7,0,14,5,14,11.2Z"/><rect class="cls-13" x="207.51" y="166.16" width="10" height="28.4" transform="translate(31.59 392.39) rotate(-89.85)"/><path class="cls-13" d="M198.5,173.5s-3.2.1-3.2,3.2a3,3,0,0,0,3.2,3.1Z"/><path class="cls-14" d="M197.8,174.8a1.86,1.86,0,0,0-1.9,1.9,1.75,1.75,0,0,0,1.9,1.8Z"/><path class="cls-13" d="M226.3,173.5a3.25,3.25,0,0,1,3.2,3.3,3,3,0,0,1-3.2,3.1Z"/><path class="cls-14" d="M227,174.9a2,2,0,0,1,1.9,1.9,1.75,1.75,0,0,1-1.9,1.8Z"/><path class="cls-13" d="M226.6,183.4a1.24,1.24,0,0,1-1.3,1.2l-25.9-.1a1.24,1.24,0,0,1-1.2-1.3V168.8a1.24,1.24,0,0,1,1.3-1.2l25.9.1a1.24,1.24,0,0,1,1.2,1.3Z"/><path class="cls-15" d="M204.4,167.2a18.66,18.66,0,0,1,.7-2.2c.5-1.4,1.2-2.8,1.7-4.2s1.7-2.1,2.8-3c-.6.2-1.3.1-1.9.3a25.9,25.9,0,0,0-3.8,1.7c-2,1.1-4,2.5-4.8,4.6-1.1,2.8-.8,5.9-.7,8.8.1,4,0,8.1,0,12.1,0-.3,3.3.1,3.6.1.7,0,1.9.4,2.2-.5s-.6-2.6-.6-3.6C203.5,176.6,203.2,171.8,204.4,167.2Z"/><polygon class="cls-16" points="209.8 179.5 213.3 179.6 213.3 173.4 209.8 179.5"/><path class="cls-9" d="M213.2,182.8a.68.68,0,0,1-.7.7h-.1a.68.68,0,0,1-.7-.7v-1.4a.68.68,0,0,1,.7-.7h.1a.68.68,0,0,1,.7.7Z"/><path class="cls-17" d="M206.5,174.4a1,1,0,1,1-1.9-.1c0-.6.4-.9,1-.9A.92.92,0,0,1,206.5,174.4Z"/><path class="cls-18" d="M206.1,174.4a.5.5,0,1,1-.5-.5A.54.54,0,0,1,206.1,174.4Z"/><path class="cls-19" d="M206,174a.3.3,0,1,1-.3-.3A.27.27,0,0,1,206,174Z"/><path class="cls-17" d="M220.4,174.4a.92.92,0,0,1-1,.9.87.87,0,0,1-.9-1,.92.92,0,0,1,1-.9A1,1,0,0,1,220.4,174.4Z"/><path class="cls-18" d="M220,174.4a.5.5,0,1,1-.5-.5A.47.47,0,0,1,220,174.4Z"/><path class="cls-19" d="M220,174a.3.3,0,1,1-.3-.3A.32.32,0,0,1,220,174Z"/><path class="cls-20" d="M226.6,172.9a23.48,23.48,0,0,0,.1-2.7,24.2,24.2,0,0,0-.2-3.8,11,11,0,0,0-6-7.6A18.24,18.24,0,0,0,210,157a17.2,17.2,0,0,0-5.8,1.9,12.39,12.39,0,0,0-4.4,3.8c-1.5,2.3-1.5,5.1-1.6,7.8,0,.2.1,2.3.1,2.5h0a18.24,18.24,0,0,0,2.5-.7c3.8-1.2,21.8-4.8,21.5-7.7,0,0-.6,8.8,3.7,8.7a.37.37,0,0,0,.3.1h.3l-.1-.3C226.6,173.1,226.6,173,226.6,172.9Z"/><path class="cls-17" d="M204.4,172.8h2.7a.4.4,0,0,0,0-.8h-2.7a.4.4,0,0,0,0,.8Z"/><path class="cls-17" d="M218.7,172.5h0c0-.1.1-.1,0,0l.1-.1a.76.76,0,0,1,.4-.2,1.63,1.63,0,0,1,1.5.3c.4.3,1-.2.6-.6a2.4,2.4,0,0,0-2.1-.6,2.07,2.07,0,0,0-1,.6c-.5.4.1.9.5.6Z"/><rect class="cls-13" x="211.54" y="175.25" width="0.3" height="19.8" transform="translate(25.98 396.35) rotate(-89.85)"/><polygon class="cls-21" points="198.3 187.2 201.8 187.2 201.8 185.3 198.3 185.3 198.2 217.7 226.4 217.8 198.2 217.7 198.3 187.2"/><rect class="cls-21" x="223.11" y="183.89" width="1.9" height="4.9" transform="translate(37.13 409.9) rotate(-89.85)"/><path class="cls-21" d="M203.3,187.2l8.7,7.3h1.8a6.18,6.18,0,0,0,4.9-5.9v-1.4h2.8v-1.9l-19.8-.1v1.9Z"/><polygon class="cls-21" points="221.6 194.5 226.5 194.5 226.5 187.3 221.6 187.3 221.6 194.5"/><polygon class="cls-21" points="198.3 196.6 198.3 194.5 201.7 194.5 201.8 187.2 198.3 187.2 198.2 217.7 226.4 217.8 226.4 196.6 198.3 196.6"/><path class="cls-21" d="M221.6,187.3h-2.8v1.4a6.26,6.26,0,0,1-4.9,5.9h7.7Z"/><polygon class="cls-21" points="203.3 187.2 201.8 187.2 201.7 194.5 212 194.5 203.3 187.2"/><polygon class="cls-19" points="226.5 194.5 226.4 196.6 226.4 196.6 226.5 194.5"/><path class="cls-19" d="M213.9,194.5H212l.2.2A4.68,4.68,0,0,0,213.9,194.5Z"/><polygon class="cls-19" points="221.6 195.5 201.7 195.4 201.7 194.5 198.3 194.5 198.3 196.6 226.4 196.6 226.5 194.5 221.6 194.5 221.6 195.5"/><path class="cls-19" d="M221.6,195.5v-.9h-7.7a8.75,8.75,0,0,1-1.6.2l-.2-.2H201.8v.9Z"/><path class="cls-16" d="M206.7,178.5h-2.5a.47.47,0,0,1-.5-.5v-.4a.47.47,0,0,1,.5-.5h2.5a.47.47,0,0,1,.5.5v.4A.47.47,0,0,1,206.7,178.5Z"/><path class="cls-16" d="M221,178.5h-2.5a.47.47,0,0,1-.5-.5v-.4a.47.47,0,0,1,.5-.5H221a.47.47,0,0,1,.5.5v.4A.54.54,0,0,1,221,178.5Z"/><path class="cls-21" d="M219.2,152c-4.5-2.6-12.3-3.2-15.7,2,0,0-6.8,6.7,22.9,13.9C226.5,161,225.6,155.6,219.2,152Z"/><polygon class="cls-21" points="198.3 185.3 195.9 183.9 191.5 190.2 198.5 193.8 198.3 185.3"/><path class="cls-22" d="M226.5,168.1s-22.4.9-28.1,0c0,0-7.4-6-1.8-11.7C201.3,151.6,220.8,160.3,226.5,168.1Z"/><path class="cls-23" d="M221.5,217.1c-.2.2-.2.5,0,.6l1.9,2.2a.37.37,0,0,0,.6,0l2.6-2.3c.2-.2.2-.5,0-.6l-1.9-2.2a.38.38,0,0,0-.6,0Z"/><path class="cls-13" d="M226.7,192s8.8,12-2.7,22.8l2.5,2.8s7.4-6.7,7.4-15.8-7.5-16.4-7.5-16.4Z"/><path class="cls-21" d="M228.2,195.2h4.6a15.48,15.48,0,0,0-6.4-9.9l.1,6.6A14.67,14.67,0,0,1,228.2,195.2Z"/><polygon class="cls-24" points="222.9 215.8 225.5 218.7 226.6 217.6 224 214.8 222.9 215.8"/></g><rect class="cls-4" x="134" y="182.3" width="141" height="6.2"/><path class="cls-2" d="M275,187.3H134.1l1.2,1.2v-6.2l-1.2,1.2H275l-1.2-1.2v6.2a1.25,1.25,0,0,0,2.5,0v-6.2a1.22,1.22,0,0,0-1.2-1.2H134.2a1.22,1.22,0,0,0-1.2,1.2v6.2a1.22,1.22,0,0,0,1.2,1.2H275.1C276.6,189.8,276.6,187.3,275,187.3Z"/><g class="cls-6"><path class="cls-4" d="M214.1,136.9c-6.4,8.2-12.8,16.4-19.2,24.7-1,1.2.8,3,1.7,1.7,6.4-8.2,12.8-16.4,19.2-24.7,1-1.2-.8-2.9-1.7-1.7Z"/></g><g class="cls-25"><rect class="cls-9" x="197.3" y="198" width="76.7" height="3.5"/><rect class="cls-9" x="202.7" y="201.5" width="3.9" height="30.6"/><rect class="cls-9" x="218.6" y="201.5" width="3.9" height="30.6"/><rect class="cls-9" x="234.6" y="201.5" width="3.9" height="30.6"/><rect class="cls-9" x="250.5" y="201.5" width="3.9" height="30.6"/><rect class="cls-9" x="266.4" y="201.5" width="3.9" height="30.6"/></g><g class="cls-26"><path class="cls-9" d="M171.2,227.9c-3.3-.2-1.9-4.2.4-3.9a4.44,4.44,0,0,0-1.1-.8,2.19,2.19,0,0,0-.5-.3,7.28,7.28,0,0,1-2.4-2.2,8.61,8.61,0,0,0-6.2-6.3,9,9,0,0,0-4.9.2l.1.1a3.07,3.07,0,0,1,.8,2.4,28.24,28.24,0,0,1-1.3,9.1,11.18,11.18,0,0,1-1.1,2.5c.7,1,1.3,2.1,1.9,3.1a6.15,6.15,0,0,0,1.9.2h.3a11,11,0,0,0,1.8-.2c2.8.1,6.1-1.3,8.3-2.2a3.39,3.39,0,0,0,1.4-.9,3.46,3.46,0,0,0,1.1-1C171.6,227.9,171.4,227.9,171.2,227.9Zm-5.6-6.4a6.63,6.63,0,0,1-3.9.9.3.3,0,0,1,0-.6,5.87,5.87,0,0,0,3.5-.8C165.6,220.8,165.9,221.3,165.6,221.5Z"/><path class="cls-10" d="M172.5,224.4a3.55,3.55,0,0,0-.9-.4,3,3,0,0,1,.8,1.7,3.29,3.29,0,0,1-.5,2.2A1.84,1.84,0,0,0,172.5,224.4Z"/><path class="cls-10" d="M172.4,225.7a3.81,3.81,0,0,0-.8-1.7c-2.3-.4-3.7,3.6-.4,3.9h.6A2.86,2.86,0,0,0,172.4,225.7Z"/><path class="cls-10" d="M165.3,221a6.23,6.23,0,0,1-3.5.8.3.3,0,1,0,0,.6,6.63,6.63,0,0,0,3.9-.9C165.9,221.3,165.6,220.8,165.3,221Z"/><path class="cls-9" d="M157.1,232.2a.35.35,0,0,0-.1-.2h0a7.43,7.43,0,0,1-3.3-1.7,6,6,0,0,1-6.8.1,5.27,5.27,0,0,1-2-3.1,7,7,0,0,1,1.1-4.2,22.23,22.23,0,0,1,1.9-2.7,17.55,17.55,0,0,0-7.2-.7,7.14,7.14,0,0,0-4.2,1.7,11.83,11.83,0,0,0-2.1,3.2v7.6Z"/><path class="cls-9" d="M155,228.8a6.2,6.2,0,0,1-1.4,1.4,8,8,0,0,0,3.3,1.7h0a25.86,25.86,0,0,0-1.9-3.1Z"/><path class="cls-10" d="M148.8,220.7c.6.7,1.2,1.3,1.7,2a4.53,4.53,0,0,1,.3-1.6,8.87,8.87,0,0,1,5.7-6.3l-.1-.1a17.62,17.62,0,0,0-8.5,5.7,15.87,15.87,0,0,1,2,.7Z"/><path class="cls-10" d="M150.8,221.1c-.1.5-.2,1.1-.3,1.6a68.54,68.54,0,0,1,4.5,6.1,11.18,11.18,0,0,0,1.1-2.5,30.81,30.81,0,0,0,1.3-9.1,2.84,2.84,0,0,0-.8-2.4l-.1-.1A9.22,9.22,0,0,0,150.8,221.1Z"/><path class="cls-10" d="M144.9,227.2a4.73,4.73,0,0,0,2,3.1,6,6,0,0,0,6.8-.1,9.1,9.1,0,0,1-3.1-7.5c-.6-.7-1.1-1.4-1.7-2l1,.4a11.76,11.76,0,0,0-2-.7,18.48,18.48,0,0,0-1.9,2.7A5.81,5.81,0,0,0,144.9,227.2Z"/><path class="cls-10" d="M153.6,230.2a6.2,6.2,0,0,0,1.4-1.4h0a68.54,68.54,0,0,0-4.5-6.1A9.1,9.1,0,0,0,153.6,230.2Z"/></g><rect class="cls-5" x="84.6" y="175.3" width="26.6" height="58.3"/><path class="cls-2" d="M111.3,232.5H84.7l1.2,1.2V175.3l-1.2,1.2h26.6l-1.2-1.2v58.4a1.25,1.25,0,0,0,2.5,0V175.3a1.22,1.22,0,0,0-1.2-1.2H84.8a1.22,1.22,0,0,0-1.2,1.2v58.4a1.22,1.22,0,0,0,1.2,1.2h26.6A1.2,1.2,0,0,0,111.3,232.5Z"/><rect class="cls-4" x="131.7" y="74.8" width="144.6" height="38.2"/><path class="cls-2" d="M276.4,111.8H131.8L133,113V74.8L131.8,76H276.4l-1.2-1.2V113a1.25,1.25,0,0,0,2.5,0V74.8a1.22,1.22,0,0,0-1.2-1.2H131.9a1.22,1.22,0,0,0-1.2,1.2V113a1.22,1.22,0,0,0,1.2,1.2H276.5A1.2,1.2,0,0,0,276.4,111.8Z"/><path class="cls-2" d="M138.8,105.2V82.5h6.3a7.51,7.51,0,0,1,2.6.5,7.82,7.82,0,0,1,2.2,1.5,5.55,5.55,0,0,1,1.4,2.2,5.75,5.75,0,0,1,.5,2.6,7.51,7.51,0,0,1-.5,2.6,6.17,6.17,0,0,1-1.5,2.2,5.55,5.55,0,0,1-2.2,1.4,5.75,5.75,0,0,1-2.6.5h-1.9v9.1h-4.3Zm4.5-13.6h1.8a2,2,0,0,0,1.6-.7,2.36,2.36,0,0,0,.7-1.6,2,2,0,0,0-.7-1.6,2.36,2.36,0,0,0-1.6-.7h-1.8Z"/><path class="cls-2" d="M154,82.5h13.7V87h-9.1v4.5h9.1V96h-9.1v4.5h9.1V105H154Z"/><path class="cls-2" d="M180.6,87.1v18.1h-4.5V87.1h-6.4V82.6H187v4.5Z"/><path class="cls-2" d="M203.3,95.9a7.22,7.22,0,0,1-2-.9,5.72,5.72,0,0,1-1.6-1.5,7.24,7.24,0,0,1-1.1-1.9,5.87,5.87,0,0,1-.4-2.3,7.51,7.51,0,0,1,.5-2.6,10.23,10.23,0,0,1,1.4-2.2,7.12,7.12,0,0,1,2.2-1.5,5.75,5.75,0,0,1,2.6-.5,12.09,12.09,0,0,1,3.8.6,9.16,9.16,0,0,1,3.2,1.8l-3.3,3.3a8.86,8.86,0,0,0-1.7-.8,6.45,6.45,0,0,0-2-.3,2,2,0,0,0-1.6.7,2.36,2.36,0,0,0-.7,1.6,3,3,0,0,0,.5,1.5,2.58,2.58,0,0,0,1.3.8,8.81,8.81,0,0,0,1.7.2,5.83,5.83,0,0,1,2.6.6,6,6,0,0,1,2.1,1.4,7.18,7.18,0,0,1,1.4,2,7,7,0,0,1,0,5.2,10.23,10.23,0,0,1-1.4,2.2,6,6,0,0,1-2.1,1.4,5.75,5.75,0,0,1-2.6.5,12.17,12.17,0,0,1-4.3-.8,11.81,11.81,0,0,1-3.5-2.3l3.2-3.2a5.71,5.71,0,0,0,2.1,1.3,7,7,0,0,0,2.5.5,2.13,2.13,0,0,0,1.6-.7,2.36,2.36,0,0,0,.7-1.6,3.55,3.55,0,0,0-.2-1,1.21,1.21,0,0,0-.7-.7,1.61,1.61,0,0,0-.9-.3,3.4,3.4,0,0,0-1-.1c-.4,0-.7-.1-1.1-.1C203.9,96,203.5,96,203.3,95.9Z"/><path class="cls-2" d="M214.8,82.5h4.5v9.1h8.3V82.5h4.5v22.7h-4.5V96.1h-8.3v9.1h-4.5Z"/><path class="cls-2" d="M245.5,82.5a10.82,10.82,0,0,1,4.4.9,11,11,0,0,1,6,6,11.21,11.21,0,0,1,0,8.8,11,11,0,0,1-6,6,11.21,11.21,0,0,1-8.8,0,11,11,0,0,1-6-6,11.21,11.21,0,0,1,0-8.8,11,11,0,0,1,6-6A10.82,10.82,0,0,1,245.5,82.5Zm0,4.6a7.51,7.51,0,0,0-2.6.5,10.23,10.23,0,0,0-2.2,1.4,8,8,0,0,0-1.5,2.1,5.75,5.75,0,0,0-.5,2.6,7.51,7.51,0,0,0,.5,2.6,7.82,7.82,0,0,0,1.5,2.2,7.12,7.12,0,0,0,2.2,1.5,5.75,5.75,0,0,0,2.6.5,7.51,7.51,0,0,0,2.6-.5,7.82,7.82,0,0,0,2.2-1.5,5.55,5.55,0,0,0,1.4-2.2,5.75,5.75,0,0,0,.5-2.6,7.51,7.51,0,0,0-.5-2.6,7.71,7.71,0,0,0-1.4-2.1,5.55,5.55,0,0,0-2.2-1.4A5.75,5.75,0,0,0,245.5,87.1Z"/><path class="cls-2" d="M258.9,105.2V82.5h6.3a7.51,7.51,0,0,1,2.6.5,7.82,7.82,0,0,1,2.2,1.5,5.55,5.55,0,0,1,1.4,2.2,5.75,5.75,0,0,1,.5,2.6,7,7,0,0,1-1.9,4.8,5.55,5.55,0,0,1-2.2,1.4,5.75,5.75,0,0,1-2.6.5h-1.9v9.1h-4.4Zm4.5-13.6h1.8a2,2,0,0,0,1.6-.7,2.36,2.36,0,0,0,.7-1.6,2,2,0,0,0-.7-1.6,2.36,2.36,0,0,0-1.6-.7h-1.8Z"/><rect class="cls-4" x="256.3" y="210.4" width="52.7" height="6.1"/><path class="cls-2" d="M309,215.3H256.2l1.2,1.2v-6.1l-1.2,1.2H309l-1.2-1.2v6.1a1.25,1.25,0,0,0,2.5,0v-6.1a1.22,1.22,0,0,0-1.2-1.2H256.3a1.22,1.22,0,0,0-1.2,1.2v6.1a1.22,1.22,0,0,0,1.2,1.2h52.8C310.6,217.8,310.6,215.3,309,215.3Z"/><rect class="cls-4" x="261.5" y="216.5" width="42.4" height="31.3"/><path class="cls-2" d="M303.8,246.5H261.4l1.2,1.2V216.4l-1.2,1.2h42.4l-1.2-1.2v31.3a1.25,1.25,0,0,0,2.5,0V216.4a1.22,1.22,0,0,0-1.2-1.2H261.5a1.22,1.22,0,0,0-1.2,1.2v31.3a1.22,1.22,0,0,0,1.2,1.2h42.4C305.4,249,305.4,246.5,303.8,246.5Z"/><path class="cls-27" d="M306.5,210.3v-.9a13,13,0,0,0-12-12.8,13,13,0,0,0-24.3,1.8H270a11.2,11.2,0,0,0-11.3,11.2v.7Z"/><path class="cls-2" d="M307.7,210.3a14.35,14.35,0,0,0-13.2-14.9c.4.2.7.4,1.1.6-5.8-11.5-22.6-10.1-26.6,2.1l1.2-.9a12.56,12.56,0,0,0-12.7,13.1,1.16,1.16,0,0,0,1.2,1.2h47.7a1.25,1.25,0,0,0,0-2.5H258.7l1.2,1.2a10.2,10.2,0,0,1,10.3-10.7,1.29,1.29,0,0,0,1.2-.9c2.8-8.6,14-11.3,20.1-4.4.9,1.1,1.5,3,2.8,3.5.9.3,1.9.3,2.8.6a9.6,9.6,0,0,1,2.7,1.3,11.5,11.5,0,0,1,5.3,10.6C305.2,211.9,307.7,211.9,307.7,210.3Z"/><rect class="cls-4" x="37.7" y="212.4" width="46.9" height="5.4"/><path class="cls-2" d="M84.6,216.6H37.7l1.2,1.2v-5.4l-1.2,1.2H84.6l-1.2-1.2v5.4a1.25,1.25,0,0,0,2.5,0v-5.4a1.22,1.22,0,0,0-1.2-1.2H37.8a1.22,1.22,0,0,0-1.2,1.2v5.4a1.22,1.22,0,0,0,1.2,1.2H84.7C86.2,219.1,86.2,216.6,84.6,216.6Z"/><rect class="cls-4" x="42.3" y="217.8" width="37.7" height="27.8"/><path class="cls-2" d="M80,244.4H42.3l1.2,1.2V217.8L42.3,219H80l-1.2-1.2v27.8a1.25,1.25,0,0,0,2.5,0V217.8a1.22,1.22,0,0,0-1.2-1.2H42.4a1.22,1.22,0,0,0-1.2,1.2v27.8a1.22,1.22,0,0,0,1.2,1.2H80.1A1.2,1.2,0,0,0,80,244.4Z"/><path class="cls-27" d="M82.4,212.3v-.8a11.53,11.53,0,0,0-10.6-11.4,11.68,11.68,0,0,0-10.5-6.7,11.55,11.55,0,0,0-11.1,8.2H50a10.05,10.05,0,0,0-10.1,10v.6H82.4Z"/><path class="cls-2" d="M83.6,212.3c.3-7.1-4.9-12.6-11.8-13.4.4.2.7.4,1.1.6-5.2-10.4-20.3-9-23.9,1.9l1.2-.9a11.39,11.39,0,0,0-11.5,11.8,1.16,1.16,0,0,0,1.2,1.2H82.4a1.25,1.25,0,0,0,0-2.5H39.9l1.2,1.2a8.8,8.8,0,0,1,9-9.3,1.29,1.29,0,0,0,1.2-.9c2.5-7.7,12.8-9.9,18-3.5.8,1,1.1,2.3,2.3,2.8,1.7.6,3.2.6,4.9,1.6a10.56,10.56,0,0,1,4.7,9.3A1.2,1.2,0,0,0,83.6,212.3Z"/></svg>