<svg id="Layer_1" data-name="Layer 1" xmlns="http://www.w3.org/2000/svg" viewBox="0 0 464 464"><defs><style>.cls-1{fill:#837fcb;}.cls-2{fill:#4c616d;}</style></defs><title>gateway-purple</title><rect class="cls-1" x="8" y="168" width="448" height="64"/><path class="cls-2" d="M392,256a40,40,0,1,0,40,40A39.61,39.61,0,0,0,392,256Zm0,64a24,24,0,1,1,24-24A23.57,23.57,0,0,1,392,320Z"/><path class="cls-2" d="M40,400H424a39.61,39.61,0,0,0,40-40V104a39.61,39.61,0,0,0-40-40H40A39.61,39.61,0,0,0,0,104V360A39.61,39.61,0,0,0,40,400Zm384-16H40a23.57,23.57,0,0,1-24-24V208H448V360A23.57,23.57,0,0,1,424,384ZM16,144H448v48H16ZM40,80H424a23.57,23.57,0,0,1,24,24v24H16V104A23.57,23.57,0,0,1,40,80Z"/><path class="cls-2" d="M72,320H40a8,8,0,0,0,0,16H72a8,8,0,0,0,0-16Z"/><path class="cls-2" d="M136,320H104a8,8,0,0,0,0,16h32a8,8,0,0,0,0-16Z"/><path class="cls-2" d="M200,320H168a8,8,0,0,0,0,16h32a8,8,0,0,0,0-16Z"/><path class="cls-2" d="M264,320H232a8,8,0,0,0,0,16h32a8,8,0,0,0,0-16Z"/><path class="cls-2" d="M40,304H168a8,8,0,0,0,0-16H40a8,8,0,0,0,0,16Z"/></svg>