<svg id="Capa_1" data-name="Capa 1" xmlns="http://www.w3.org/2000/svg" viewBox="0 0 430 430"><defs><style>.cls-1{fill:#f5c62c;}</style></defs><title>hero-2-yellow</title><path class="cls-1" d="M215.76,0C114.41,0,32,82.41,32,183.76v224.6a9.3,9.3,0,0,0,8.54,9.28l116.2,9.28a9.4,9.4,0,0,0,7-2.41,9.14,9.14,0,0,0,3-6.78V256.9a9.34,9.34,0,0,0-6.59-8.91c-1.86-.56-3.62-1.21-5.29-1.86-23-9.28-36.94-30.63-30.44-46.59,4.17-10.39,16.33-16.89,31.65-16.89a61.57,61.57,0,0,1,22.64,4.55c13.09,5.29,23.67,14.47,28.86,25.05a9.31,9.31,0,0,0,16.71,0c5.2-10.67,15.69-19.76,28.86-25.05a61.26,61.26,0,0,1,22.65-4.55c15.31,0,27.47,6.5,31.65,16.89,6.4,16-7.52,37.31-30.44,46.59-1.67.65-3.44,1.3-5.39,1.86A9.36,9.36,0,0,0,265,256.9V417.64a9.22,9.22,0,0,0,3,6.78,9.55,9.55,0,0,0,6.31,2.5h.75l116.19-9.28a9.3,9.3,0,0,0,8.54-9.28V183.76C399.52,82.41,317.11,0,215.76,0Zm0,18.56c91.14,0,165.2,74.16,165.2,165.2V371.24H320.45V285.39a107.63,107.63,0,0,0,30.91-32.3c14.29-23.57,17-50.67,7.42-74.43-9.37-23.11-28.68-40.1-53.92-47.52,3.43-15.31,3.53-29.79.28-42.32A9.23,9.23,0,0,0,295.21,82c-27.47,3-57.92,24-79.45,54.94-21.53-31-52-52.06-79.54-54.94a9.23,9.23,0,0,0-9.93,6.87c-3.24,12.43-3.15,26.91.28,42.32-25.15,7.42-44.55,24.41-53.92,47.52-9.56,23.76-6.87,50.86,7.43,74.43a107.72,107.72,0,0,0,30.9,32.3v85.85H50.56V183.76C50.56,92.72,124.62,18.56,215.76,18.56Zm67.57,389.06V263.39c.09,0,.18-.09.28-.09,15.49-6.22,28.21-16.71,36-29.51,8.26-13.65,9.93-28.31,4.73-41.21-7.05-17.54-25.8-28.49-48.82-28.49a79.39,79.39,0,0,0-29.6,5.94,78.19,78.19,0,0,0-30.26,21.44A77.26,77.26,0,0,0,185.41,170a79,79,0,0,0-29.6-5.94c-23,0-41.77,10.95-48.82,28.49-5.2,12.9-3.53,27.56,4.73,41.21,7.8,12.8,20.51,23.2,36,29.51.1,0,.19.09.28.09V407.53l-97.45-7.71v-10h69.79a9.31,9.31,0,0,0,9.29-9.28V280.38a9.39,9.39,0,0,0-4.37-7.89A90.16,90.16,0,0,1,96,243.44C84.81,225,82.58,203.9,89.91,185.62,98,165.57,116.18,151.56,139.75,147a9.09,9.09,0,0,0,6.22-4.36,9.31,9.31,0,0,0,.93-7.52c-3.62-11.79-5-23.29-4.09-33.23,20,5.48,41.86,22.56,57.82,45.57,2.51,3.62,4.92,7.43,7.06,11.23a9.39,9.39,0,0,0,8.07,4.74,9.22,9.22,0,0,0,8.08-4.74,126,126,0,0,1,7-11.23c16-23,37.87-40.09,57.82-45.57.93,9.94-.46,21.35-4.08,33.23a9.27,9.27,0,0,0,.92,7.52,9.74,9.74,0,0,0,6.22,4.36c23.58,4.45,41.67,18.56,49.84,38.61,7.33,18.28,5.2,39.35-6.12,57.82a90.19,90.19,0,0,1-29.24,29.05,9.27,9.27,0,0,0-4.36,7.89V380.52a9.31,9.31,0,0,0,9.28,9.28H381v10Z"/></svg>