<svg id="Capa_1" data-name="Capa 1" xmlns="http://www.w3.org/2000/svg" viewBox="0 0 430 430"><defs><style>.cls-1{fill:#f5c62c;}</style></defs><title>hero-6-yellow</title><path class="cls-1" d="M338.32,52a170.54,170.54,0,0,0-55.41-38.43,164.34,164.34,0,0,0-130.6,0A170.65,170.65,0,0,0,96.9,52C63,87.13,44.2,136.38,44.2,190.48,44.2,246,63,304.85,96,352,130,401,174.42,429.1,217.52,429.1S305,401,339.25,352C372.09,304.85,391,246,391,190.48,390.93,136.29,372.27,87.13,338.32,52ZM324,341.32c-30.69,43.94-69.49,69.12-106.43,69.12s-75.75-25.18-106.44-69.12C80.77,297.94,62.67,241.6,62.67,190.48,62.76,78.92,142.52,18.66,217.52,18.66S372.27,78.92,372.27,190.48C372.27,241.51,354.18,297.94,324,341.32Z"/><path class="cls-1" d="M137.2,106.16a46.41,46.41,0,0,0-5.13.28C95.13,110.82,71.81,161.1,78.9,220.8c6.72,56.44,38.34,98.88,73.51,98.88a46.41,46.41,0,0,0,5.13-.28c18.56-2.24,34.23-16,44.12-38.81,9.14-21.17,12.31-47.94,9.05-75.56C204,148.69,172.37,106.16,137.2,106.16Zm47.3,167.06c-7.09,16.51-17.45,26.31-29.2,27.71-.93.09-2,.19-2.89.19-24.91,0-49.54-37-54.95-82.47C91.77,171,108.66,128.08,134.31,125c.93-.09,2-.19,2.89-.19,24.91,0,49.54,37,55,82.46.09,1.12.28,2.24.37,3.27L124.24,181.9a9.44,9.44,0,0,0-8.49.65,9.55,9.55,0,0,0-4.48,7.19A50.7,50.7,0,0,0,193,233.86C192.33,248.41,189.44,261.84,184.5,273.22Zm-9.7-49.9a32.21,32.21,0,0,1-25.19.09,31.83,31.83,0,0,1-17.54-18.1Z"/><path class="cls-1" d="M303,106.44a46.59,46.59,0,0,0-5.14-.28c-35.16,0-66.79,42.53-73.5,98.87-3.27,27.62-.1,54.39,9,75.56,9.88,22.86,25.56,36.57,44.12,38.81a46.41,46.41,0,0,0,5.13.28h0c35.17,0,66.79-42.54,73.51-98.88C363.23,161.1,339.9,110.82,303,106.44Zm34.6,112.12C332.16,264.08,307.44,301,282.63,301c-.93,0-2-.09-2.89-.18-11.66-1.4-22-11.2-29.2-27.71-4.94-11.38-7.84-24.81-8.58-39.27a50.69,50.69,0,0,0,81.71-44.12,9.16,9.16,0,0,0-4.47-7.19,9.73,9.73,0,0,0-8.49-.65l-68.29,28.64c.1-1.12.19-2.24.38-3.27,5.41-45.52,30.13-82.46,54.94-82.46.93,0,2,.1,2.89.19C326.38,128,343.26,170.89,337.57,218.56Zm-77.33,4.76L303,205.41a32.39,32.39,0,0,1-17.54,18.09,31.7,31.7,0,0,1-25.19-.18Z"/></svg>