<svg id="Capa_1" data-name="Capa 1" xmlns="http://www.w3.org/2000/svg" viewBox="0 0 430 430"><defs><style>.cls-1{fill:#8c8cf9;}</style></defs><title>hero-1-core</title><path class="cls-1" d="M104.1,285.8a61.85,61.85,0,0,0,71-16.6,10,10,0,0,0,2.2-8.8,9.77,9.77,0,0,0-5.9-6.9L80,215a10.1,10.1,0,0,0-9.1.7,10.23,10.23,0,0,0-4.8,7.7A62.38,62.38,0,0,0,104.1,285.8Zm44.4-20.4a42.24,42.24,0,0,1-60.9-25.5Z"/><path class="cls-1" d="M423.5,16.1a9.76,9.76,0,0,0-11,2.8L338,104.2c-34.2-30.8-77.5-47.7-123-47.7S126.2,73.4,92,104.2L17.5,18.9a10.1,10.1,0,0,0-11-2.8A10.07,10.07,0,0,0,0,25.5V239.4A86,86,0,0,0,79.9,325l49.8,84.6a10,10,0,0,0,11.2,4.6,10.05,10.05,0,0,0,7.4-9.6V325.3H281.7v79.3a9.85,9.85,0,0,0,7.4,9.6,12.66,12.66,0,0,0,2.6.4,9.9,9.9,0,0,0,8.6-4.9L350,325a85.81,85.81,0,0,0,79.9-85.6V25.5A9.84,9.84,0,0,0,423.5,16.1ZM188,305.2H138.3a10,10,0,0,0-10,10v52.6L94.4,310.1a9.9,9.9,0,0,0-8.6-4.9A65.85,65.85,0,0,1,20,239.4V52.2L188,244.5Zm34-64.5v64.5H208V240.7a10,10,0,0,0-2.5-6.6L105.2,119.3C135.7,91.6,174.4,76.5,215,76.5s79.3,15.1,109.8,42.8L224.5,234.1A10,10,0,0,0,222,240.7Zm188-1.3a65.85,65.85,0,0,1-65.8,65.8,10.12,10.12,0,0,0-8.6,4.9l-33.9,57.7V315.2a10,10,0,0,0-10-10H242V244.4L410,52.2Z"/><path class="cls-1" d="M301.8,290.6a60.27,60.27,0,0,0,24-4.9,62,62,0,0,0,37.9-62.3,9.8,9.8,0,0,0-4.8-7.7,10.07,10.07,0,0,0-9.1-.7l-91.5,38.4a9.9,9.9,0,0,0-3.7,15.7A62.76,62.76,0,0,0,301.8,290.6Zm40.6-50.7a42.2,42.2,0,0,1-60.9,25.5Z"/></svg>