<svg id="Layer_1" data-name="Layer 1" xmlns="http://www.w3.org/2000/svg" viewBox="0 0 512 512"><defs><style>.cls-1{fill:#d4e1f4;}.cls-2{fill:#8c8cf9;}</style></defs><title>hidden-core</title><path class="cls-1" d="M346.2,436.8c-8.9-6-17.3-16.6-23.1-29.1-4.4-9.5-6.8-19.2-6.8-27.4V292.8L407.8,248l71.5,35.1v-.2L387.9,238l-91.5,44.8v87.5c0,8.2,2.4,17.9,6.8,27.4,5.8,12.4,14.2,23,23.1,29.1l61.6,42,2.7-1.8Z"/><path class="cls-2" d="M159.4,159.2a15.35,15.35,0,0,1-30.7,0,6,6,0,1,0-12,0,27.35,27.35,0,0,0,54.7,0,6,6,0,0,0-12,0Z"/><path class="cls-2" d="M453.8,168a6,6,0,0,0-6,6A30.38,30.38,0,0,1,421,204.2c-9.6-78.7-83.2-140-172.3-140a203.27,203.27,0,0,0-32.1,2.5,81.55,81.55,0,0,0-67.9-36.6,6,6,0,0,0-6,6,5.66,5.66,0,0,0,.3,1.8l1.9,6a103.44,103.44,0,0,1,4.2,38.3,171.54,171.54,0,0,0-81.2,67.3l-7.6,12h-21a18.56,18.56,0,0,0-18.6,18.6v79.8a18.56,18.56,0,0,0,18.6,18.6H60.8a146,146,0,0,0,21.6,31.2,103,103,0,0,1,26.3,69.1,24.54,24.54,0,0,0,24.5,24.5H159a24.54,24.54,0,0,0,24.5-24.5A12.5,12.5,0,0,1,196,366.3h48.1a12.5,12.5,0,0,1,12.5,12.5,24.54,24.54,0,0,0,24.5,24.5h15.2a6,6,0,0,0,0-12H281.1a12.5,12.5,0,0,1-12.5-12.5,24.54,24.54,0,0,0-24.5-24.5H196a24.54,24.54,0,0,0-24.5,24.5A12.5,12.5,0,0,1,159,391.3H133.2a12.5,12.5,0,0,1-12.5-12.5,114.64,114.64,0,0,0-29.4-77.1A135.92,135.92,0,0,1,69.9,270a6,6,0,0,0-5.4-3.4H39.2a6.59,6.59,0,0,1-6.6-6.6V180a6.59,6.59,0,0,1,6.6-6.6H63.5a6.09,6.09,0,0,0,5.1-2.8l9.3-14.8A160.12,160.12,0,0,1,156.5,92a6.08,6.08,0,0,0,4.1-5A115.73,115.73,0,0,0,157,42.4a69.55,69.55,0,0,1,61.2,68.9,6,6,0,1,0,12,0,81,81,0,0,0-7.3-33.6A203.58,203.58,0,0,1,248.8,76c89,0,161.3,65.3,161.3,145.6a131.47,131.47,0,0,1-1.8,21.7,6,6,0,0,0,11.8,2h0a143.56,143.56,0,0,0,1.9-23.6c0-1.9,0-3.7-.1-5.6A42.44,42.44,0,0,0,459.8,174a5.89,5.89,0,0,0-6-6Z"/><path class="cls-2" d="M385.2,226l-97.5,47.7a6,6,0,0,0-3.4,5.4v91.3c0,10,2.7,21.3,7.9,32.4,6.7,14.3,16.6,26.7,27.2,33.9l65,44.3a6,6,0,0,0,6.8,0l65-44.3c19.7-13.4,35.1-42.6,35.1-66.4V279.2a6,6,0,0,0-3.4-5.4L390.5,226a6.15,6.15,0,0,0-5.3,0Zm94.2,144.3c0,19.6-13.7,45.4-29.9,56.4l-61.6,42-61.6-42c-8.9-6-17.3-16.6-23.1-29.1-4.4-9.5-6.8-19.2-6.8-27.4V282.7l91.5-44.8,91.5,44.9v87.5Z"/><path class="cls-2" d="M350.8,346.5a6,6,0,1,0-8.4,8.6h0l29.4,28.7a6,6,0,0,0,8.4,0L433.3,332a6,6,0,0,0-8.3-8.7h0L376.1,371Z"/></svg>