<svg id="Layer_1" data-name="Layer 1" xmlns="http://www.w3.org/2000/svg" viewBox="0 0 464 464"><defs><style>.cls-1{fill:#4c616d;}.cls-2{fill:#f5c62c;}</style></defs><title>invoice-yellow</title><path class="cls-1" d="M77.6,461.7,104,435.3l26.4,26.4a7.73,7.73,0,0,0,11.2,0L168,435.3l26.4,26.4a7.73,7.73,0,0,0,11.2,0L232,435.3l26.4,26.4a7.73,7.73,0,0,0,11.2,0L296,435.3l26.4,26.4a7.73,7.73,0,0,0,11.2,0L360,435.3l26.4,26.4a7.26,7.26,0,0,0,5.6,2.4c.8,0,2.4,0,3.2-.8q4.8-2.4,4.8-7.2V8.1c0-3.2-1.6-6.4-4.8-7.2a7.3,7.3,0,0,0-8.8,1.6L360,28.9,333.6,2.5a7.73,7.73,0,0,0-11.2,0L296,28.9,269.6,2.5a7.73,7.73,0,0,0-11.2,0L232,28.9,205.6,2.5a7.73,7.73,0,0,0-11.2,0L168,28.9,141.6,2.5a7.73,7.73,0,0,0-11.2,0L104,28.9,77.6,2.5A7.3,7.3,0,0,0,68.8.9c-3.2.8-4.8,4-4.8,7.2v448c0,3.2,1.6,6.4,4.8,7.2A7.3,7.3,0,0,0,77.6,461.7ZM80,27.3,98.4,45.7a7.73,7.73,0,0,0,11.2,0L136,19.3l26.4,26.4a7.73,7.73,0,0,0,11.2,0L200,19.3l26.4,26.4a7.73,7.73,0,0,0,11.2,0L264,19.3l26.4,26.4a7.73,7.73,0,0,0,11.2,0L328,19.3l26.4,26.4a7.73,7.73,0,0,0,11.2,0L384,27.3V436.9l-18.4-18.4a7.73,7.73,0,0,0-11.2,0L328,444.9l-26.4-26.4a7.73,7.73,0,0,0-11.2,0L264,444.9l-26.4-26.4a7.73,7.73,0,0,0-11.2,0L200,444.9l-26.4-26.4a7.73,7.73,0,0,0-11.2,0L136,444.9l-26.4-26.4a7.73,7.73,0,0,0-11.2,0L80,436.9V27.3Z"/><path class="cls-1" d="M136,80.1H264a7.56,7.56,0,0,0,8-8,7.56,7.56,0,0,0-8-8H136a7.56,7.56,0,0,0-8,8A7.56,7.56,0,0,0,136,80.1Z"/><path class="cls-1" d="M296,80.1h32a7.56,7.56,0,0,0,8-8,7.56,7.56,0,0,0-8-8H296a7.56,7.56,0,0,0-8,8A7.56,7.56,0,0,0,296,80.1Z"/><path class="cls-1" d="M136,112.1h32a8,8,0,0,0,0-16H136a8,8,0,0,0,0,16Z"/><path class="cls-1" d="M328,96.1H200a8,8,0,0,0,0,16H328a8,8,0,0,0,0-16Z"/><path class="cls-1" d="M136,144.1h96a8,8,0,0,0,0-16H136a8,8,0,0,0,0,16Z"/><path class="cls-1" d="M328,128.1H264a8,8,0,0,0,0,16h64a8,8,0,0,0,0-16Z"/><path class="cls-1" d="M136,176.1H328a8,8,0,0,0,0-16H136a8,8,0,0,0,0,16Z"/><circle class="cls-2" cx="232" cy="328.1" r="96"/><path class="cls-1" d="M232,400.1a104,104,0,1,0-104-104A103.79,103.79,0,0,0,232,400.1Zm0-192a88,88,0,1,1-88,88A87.75,87.75,0,0,1,232,208.1Z"/><path class="cls-1" d="M248,320.1H200a8,8,0,0,0,0,16h24v24a8,8,0,0,0,16,0v-24h8a24,24,0,0,0,0-48H216a8,8,0,0,1,0-16h48a8,8,0,0,0,0-16H240v-24a8,8,0,0,0-16,0v24h-8a24,24,0,0,0,0,48h32a8,8,0,0,1,0,16Z"/></svg>