<svg id="Calque_1" data-name="Calque 1" xmlns="http://www.w3.org/2000/svg" viewBox="0 0 580 370"><defs><style>.cls-1,.cls-3,.cls-6,.cls-8{fill:none;}.cls-1,.cls-2,.cls-3,.cls-4{stroke:#cde5f8;}.cls-1,.cls-2,.cls-3,.cls-4,.cls-5,.cls-6,.cls-7,.cls-8{stroke-miterlimit:10;}.cls-1,.cls-2,.cls-3,.cls-5,.cls-6,.cls-8{stroke-width:2px;}.cls-1{opacity:0.2;isolation:isolate;}.cls-2,.cls-4,.cls-5,.cls-7{fill:#fff;}.cls-5,.cls-6,.cls-7,.cls-8{stroke:#f55;}.cls-7{stroke-width:0.8px;}.cls-8{stroke-linecap:round;}</style></defs><title>kit2-3-red</title><circle class="cls-1" cx="149.5" cy="96.1" r="56"/><circle class="cls-1" cx="149.5" cy="96.1" r="90.1"/><polyline class="cls-1" points="5 263.8 94.5 214.4 135.5 232.9 483 99.2 523 146.2 602 108.4"/><path class="cls-2" d="M448.7,296.2H131.3a8.49,8.49,0,0,1-8.5-8.5V82.3a8.49,8.49,0,0,1,8.5-8.5H448.7a8.49,8.49,0,0,1,8.5,8.5V287.7A8.43,8.43,0,0,1,448.7,296.2Z"/><line class="cls-3" x1="186.4" y1="73.8" x2="186.4" y2="296.2"/><line class="cls-3" x1="353.3" y1="73.8" x2="353.3" y2="83.8"/><line class="cls-3" x1="353.3" y1="86.1" x2="353.3" y2="96.1"/><line class="cls-3" x1="353.3" y1="98.4" x2="353.3" y2="108.4"/><line class="cls-3" x1="353.3" y1="110.8" x2="353.3" y2="120.8"/><line class="cls-3" x1="353.3" y1="123.1" x2="353.3" y2="133.1"/><line class="cls-3" x1="353.3" y1="135.4" x2="353.3" y2="145.4"/><line class="cls-3" x1="353.3" y1="147.8" x2="353.3" y2="157.8"/><line class="cls-3" x1="353.3" y1="160.1" x2="353.3" y2="170.1"/><line class="cls-3" x1="353.3" y1="172.4" x2="353.3" y2="182.4"/><line class="cls-3" x1="353.3" y1="184.8" x2="353.3" y2="194.8"/><line class="cls-3" x1="353.3" y1="197.1" x2="353.3" y2="207.1"/><line class="cls-3" x1="353.3" y1="209.4" x2="353.3" y2="219.4"/><line class="cls-3" x1="353.3" y1="221.8" x2="353.3" y2="231.8"/><line class="cls-3" x1="353.3" y1="234.1" x2="353.3" y2="244.1"/><line class="cls-3" x1="353.3" y1="246.4" x2="353.3" y2="256.4"/><line class="cls-3" x1="353.3" y1="258.8" x2="353.3" y2="268.8"/><line class="cls-3" x1="353.3" y1="271.1" x2="353.3" y2="281.1"/><line class="cls-3" x1="353.3" y1="283.4" x2="353.3" y2="293.4"/><rect class="cls-4" x="145.7" y="91.7" width="7.5" height="7.5"/><rect class="cls-4" x="155.4" y="91.7" width="7.5" height="7.5"/><rect class="cls-4" x="145.7" y="101.5" width="7.5" height="7.5"/><rect class="cls-4" x="155.4" y="101.5" width="7.5" height="7.5"/><circle class="cls-2" cx="218.8" cy="107" r="11.5"/><circle class="cls-2" cx="218.8" cy="152.8" r="11.5"/><circle class="cls-2" cx="218.8" cy="198.6" r="11.5"/><circle class="cls-2" cx="218.8" cy="244.4" r="11.5"/><line class="cls-3" x1="245.8" y1="107" x2="333.3" y2="107"/><line class="cls-3" x1="245.8" y1="152.8" x2="333.3" y2="152.8"/><line class="cls-3" x1="245.8" y1="198.6" x2="333.3" y2="198.6"/><line class="cls-3" x1="245.8" y1="244.4" x2="333.3" y2="244.4"/><circle class="cls-2" cx="405.4" cy="135.8" r="20.3"/><path class="cls-5" d="M493.5,317.5H409a9,9,0,0,1-9-9V144.4a9,9,0,0,1,9-9h84.6a9,9,0,0,1,9,9V308.5A9.11,9.11,0,0,1,493.5,317.5Z"/><line class="cls-6" x1="400" y1="162" x2="502.5" y2="162"/><rect class="cls-7" x="411.4" y="144" width="4.3" height="4.3"/><rect class="cls-7" x="416.9" y="144" width="4.3" height="4.3"/><rect class="cls-7" x="411.4" y="149.6" width="4.3" height="4.3"/><rect class="cls-7" x="416.9" y="149.6" width="4.3" height="4.3"/><circle class="cls-5" cx="423.4" cy="192.3" r="9.8"/><circle class="cls-5" cx="423.4" cy="219.4" r="9.8"/><circle class="cls-5" cx="423.4" cy="246.6" r="9.8"/><circle class="cls-5" cx="423.4" cy="273.8" r="9.8"/><line class="cls-8" x1="440.8" y1="192.3" x2="490.5" y2="192.3"/><line class="cls-8" x1="440.8" y1="219.4" x2="490.5" y2="219.4"/><line class="cls-8" x1="440.8" y1="246.6" x2="490.5" y2="246.6"/><line class="cls-8" x1="440.8" y1="273.8" x2="490.5" y2="273.8"/></svg>