<svg id="Calque_1" data-name="Calque 1" xmlns="http://www.w3.org/2000/svg" viewBox="0 0 580 370"><defs><style>.cls-1,.cls-4{fill:none;}.cls-1,.cls-2{stroke:#cde5f8;stroke-dasharray:1000;}.cls-1,.cls-2,.cls-3,.cls-4{stroke-miterlimit:10;}.cls-1,.cls-3{stroke-width:3px;}.cls-1{opacity:0.2;isolation:isolate;}.cls-2,.cls-3{fill:#fff;}.cls-2,.cls-4{stroke-width:2px;}.cls-3,.cls-4{stroke:#4a00e0;}</style></defs><title>kit2-1-night</title><circle class="cls-1" cx="288.8" cy="191.3" r="51.5"/><circle class="cls-1" cx="288.8" cy="191.3" r="148.6"/><circle class="cls-1" cx="288.8" cy="191.3" r="102.5"/><path class="cls-2" d="M288.5,294.9l-5.1,12.6a.55.55,0,0,1-.8.3L265.8,301a.55.55,0,0,1-.3-.8l5.1-12.6a.55.55,0,0,1,.8-.3l16.8,6.8A.67.67,0,0,1,288.5,294.9Z"/><path class="cls-2" d="M311.3,340.2,300,345.6a.63.63,0,0,1-.8-.3L292,330.2a.63.63,0,0,1,.3-.8l11.3-5.4a.63.63,0,0,1,.8.3l7.2,15.1A.67.67,0,0,1,311.3,340.2Z"/><path class="cls-2" d="M306.3,276.5l-3,8.5a.68.68,0,0,1-.8.4l-11.4-4.1a.68.68,0,0,1-.4-.8l3-8.5a.68.68,0,0,1,.8-.4l11.4,4.1A.63.63,0,0,1,306.3,276.5Z"/><path class="cls-2" d="M278.7,343.4l-17.9,1.4a.58.58,0,0,1-.6-.6l-1.8-23.7a.58.58,0,0,1,.6-.6l17.9-1.4a.58.58,0,0,1,.6.6l1.8,23.7A.58.58,0,0,1,278.7,343.4Z"/><path class="cls-2" d="M280,252.5l5.1,7.4a.52.52,0,0,1-.2.8l-10,6.8a.52.52,0,0,1-.8-.2L269,260a.52.52,0,0,1,.2-.8l10-6.8A.62.62,0,0,1,280,252.5Z"/><path class="cls-2" d="M303.9,249.3,299,253a.52.52,0,0,1-.8-.1l-5.1-6.7a.52.52,0,0,1,.1-.8l4.9-3.8a.52.52,0,0,1,.8.1l5.1,6.7A.63.63,0,0,1,303.9,249.3Z"/><path class="cls-2" d="M396.8,64.8l11.9,5.4a.63.63,0,0,1,.3.8l-7.2,15.9a.63.63,0,0,1-.8.3l-12-5.5a.63.63,0,0,1-.3-.8L395.9,65A.76.76,0,0,1,396.8,64.8Z"/><path class="cls-2" d="M447.2,77.5l6.3-12a.67.67,0,0,1,.8-.3l16,8.5a.67.67,0,0,1,.3.8l-6.3,12a.67.67,0,0,1-.8.3l-16-8.5C447.1,78.1,447,77.8,447.2,77.5Z"/><path class="cls-2" d="M418,90.1l17.8-6.4a.68.68,0,0,1,.8.4l8.5,23.6a.68.68,0,0,1-.4.8l-17.8,6.4a.68.68,0,0,1-.8-.4l-8.5-23.6C417.6,90.6,417.7,90.2,418,90.1Z"/><path class="cls-2" d="M346.9,131.2l3.8-8.1a.63.63,0,0,1,.8-.3l11,5.2a.63.63,0,0,1,.3.8l-3.8,8.1a.63.63,0,0,1-.8.3l-11-5.2A.63.63,0,0,1,346.9,131.2Z"/><path class="cls-2" d="M395.6,99.3l17.7,2.7c.3.1.6.4.5.7l-3.6,23.5c-.1.3-.4.6-.7.5L391.8,124c-.3-.1-.6-.4-.5-.7l3.6-23.5A.75.75,0,0,1,395.6,99.3Z"/><path class="cls-2" d="M375.3,130.5l6.1-6.6a.63.63,0,0,1,.9,0l8.9,8.3a.63.63,0,0,1,0,.9l-6.1,6.6a.63.63,0,0,1-.9,0l-8.9-8.3A.75.75,0,0,1,375.3,130.5Z"/><path class="cls-2" d="M340.6,152.1l5.3-3.3a.52.52,0,0,1,.8.2l4.4,7.2a.52.52,0,0,1-.2.8l-5.3,3.3a.52.52,0,0,1-.8-.2l-4.4-7.2A.55.55,0,0,1,340.6,152.1Z"/><path class="cls-2" d="M477.7,87l12,3.1a.57.57,0,0,1,.4.7L486,107a.57.57,0,0,1-.7.4l-12-3.1a.57.57,0,0,1-.4-.7l4.2-16.1A.46.46,0,0,1,477.7,87Z"/><path class="cls-2" d="M183.1,65.2l-11.9,5.4a.63.63,0,0,0-.3.8l7.2,15.9a.63.63,0,0,0,.8.3l11.9-5.4a.63.63,0,0,0,.3-.8l-7.2-15.9A.67.67,0,0,0,183.1,65.2Z"/><path class="cls-2" d="M132.7,77.9l-6.3-12a.67.67,0,0,0-.8-.3l-16,8.5a.67.67,0,0,0-.3.8l6.3,12a.67.67,0,0,0,.8.3l16-8.5A.63.63,0,0,0,132.7,77.9Z"/><path class="cls-2" d="M161.8,90.6,144,84.2a.68.68,0,0,0-.8.4l-8.5,23.6a.68.68,0,0,0,.4.8l17.8,6.4a.68.68,0,0,0,.8-.4l8.5-23.6A.63.63,0,0,0,161.8,90.6Z"/><path class="cls-2" d="M232.9,131.6l-3.8-8.1a.63.63,0,0,0-.8-.3l-11,5.2a.63.63,0,0,0-.3.8l3.8,8.1a.63.63,0,0,0,.8.3l11-5.2A.55.55,0,0,0,232.9,131.6Z"/><path class="cls-2" d="M184.2,99.8l-17.7,2.7c-.3.1-.6.4-.5.7l3.6,23.5c.1.3.4.6.7.5l17.7-2.7c.3-.1.6-.4.5-.7l-3.6-23.5A.51.51,0,0,0,184.2,99.8Z"/><path class="cls-2" d="M204.6,130.9l-6.1-6.6a.63.63,0,0,0-.9,0l-8.9,8.3a.63.63,0,0,0,0,.9l6.1,6.6a.63.63,0,0,0,.9,0l8.9-8.3A.75.75,0,0,0,204.6,130.9Z"/><path class="cls-2" d="M239.3,152.6l-5.3-3.3a.52.52,0,0,0-.8.2l-4.4,7.2a.52.52,0,0,0,.2.8l5.3,3.3a.52.52,0,0,0,.8-.2l4.4-7.2A.63.63,0,0,0,239.3,152.6Z"/><path class="cls-2" d="M102.1,87.4l-12,3.1a.57.57,0,0,0-.4.7l4.2,16.1a.57.57,0,0,0,.7.4l12-3.1a.57.57,0,0,0,.4-.7l-4.2-16.1C102.8,87.5,102.4,87.3,102.1,87.4Z"/><g id="_9" data-name="9"><path class="cls-3" d="M317.1,230.2H253.8s-27.3-2.8-27.1-27.1c.1-13.7,12.2-26.3,27.1-27.1,0-18.7,12-36.2,31.6-36.2,15.5,0,25.9,9.5,29.6,22.7,22.4-1,37.6,16.7,38.3,31.6C354.2,214,333.4,230.2,317.1,230.2Z"/></g><line class="cls-4" x1="323.7" y1="288.8" x2="323.7" y2="244.4"/><polyline class="cls-4" points="318.2 250.3 323.7 242.8 328.9 250.3"/><line class="cls-4" x1="250" y1="271.7" x2="250" y2="245.5"/><polyline class="cls-4" points="246.8 248.9 250 244.5 253.1 248.9"/><line class="cls-4" x1="345.8" y1="313.1" x2="345.8" y2="283.2"/><polyline class="cls-4" points="342.2 287.1 345.8 282.1 349.4 287.1"/></svg>