<svg id="Layer_1" data-name="Layer 1" xmlns="http://www.w3.org/2000/svg" viewBox="0 0 512 512"><defs><style>.cls-1{fill:#837fcb;}</style></defs><title>learn-purple</title><path class="cls-1" d="M235.52,347.9A10,10,0,1,0,221.3,362a10,10,0,1,0,14.22-14.06Z"/><path class="cls-1" d="M448,260.2a10,10,0,0,0-10.05,9.94l-.25,44-172-1,.14-24.69a74.73,74.73,0,0,0-65-74.41,52,52,0,0,0,11.83-32.76l.4-70.35a10,10,0,0,0-9.95-10l-52.32-.3a42.2,42.2,0,0,0-42.39,41.92l-.22,38.19a51.94,51.94,0,0,0,11.46,32.89,74.74,74.74,0,0,0-65.83,73.67L53.65,312l-34-.2L21,71.51a7.78,7.78,0,0,1,7.85-7.71L236.72,65a10,10,0,1,0,.12-20L29,43.8A27.8,27.8,0,0,0,1,71.4L-.66,367.88A27.81,27.81,0,0,0,27,395.8l152.18.86-.27,46.19a50.13,50.13,0,0,0-45.26,49.55,10,10,0,0,0,9.94,10.06l168,1a10,10,0,0,0,10.06-9.94,50.13,50.13,0,0,0-44.7-50.06l.26-46.19,152.18.86a27.81,27.81,0,0,0,28-27.6l.57-100.22A10,10,0,0,0,448,260.2ZM128.38,142.62a22.17,22.17,0,0,1,22.28-22l42.32.24-.09,16a14.4,14.4,0,0,1-14.47,14.3l-50.09-.29Zm-.16,28.19,50.09.29a34,34,0,0,0,14.4-3.09l-.07,13.17h0a32.24,32.24,0,1,1-64.48-.37Zm43.55,62.49L160,244.9l-11.61-11.73,23.34.13Zm-98,54.08a54.72,54.72,0,0,1,46.95-53.78l32.1,32.48a10,10,0,0,0,14.15.08l32.47-32.11a54.7,54.7,0,0,1,46.33,54.3L245.65,313l-172-1ZM300,483.35l-144.57-.82a30.11,30.11,0,0,1,28.46-19.91l4.92,0,78,.44,4.92,0A30.12,30.12,0,0,1,300,483.35ZM198.89,442.71l.26-45.94,58,.33L256.93,443Zm238.44-72.34a7.8,7.8,0,0,1-7.85,7.71L27.1,375.8a7.79,7.79,0,0,1-7.76-7.8l.2-36.25,418,2.37Z"/><path class="cls-1" d="M455.22,225.5a10,10,0,1,0,2.89,7.09A10.09,10.09,0,0,0,455.22,225.5Z"/><path class="cls-1" d="M449.21,39.21l-75-.43a10,10,0,1,0-.11,20l75,.42a10,10,0,1,0,.12-20Z"/><path class="cls-1" d="M340.26,41.52a10,10,0,1,0,2.89,7.08A10.05,10.05,0,0,0,340.26,41.52Z"/><path class="cls-1" d="M449,83.2l-116-.65a10,10,0,1,0-.11,20l116,.65a10,10,0,1,0,.12-20Z"/><path class="cls-1" d="M448.71,127.2l-116-.65a10,10,0,1,0-.11,20l116,.65a10,10,0,1,0,.12-20Z"/><path class="cls-1" d="M463.47-7.71l-144-.82a50.06,50.06,0,0,0-50.29,49.71l-.6,107a50.06,50.06,0,0,0,44.05,49.93l-.15,26a10,10,0,0,0,17,7.17l32.92-32.55,99.86.56a50,50,0,0,0,50.28-49.71l.61-107A50.05,50.05,0,0,0,463.47-7.71Zm29.11,157.16a30,30,0,0,1-30.17,29.83l-104-.59a10,10,0,0,0-7.08,2.89l-18.7,18.49.06-11.52a10,10,0,0,0-9.94-10.06l-4.33,0a30,30,0,0,1-29.83-30.17l.6-107a30,30,0,0,1,30.17-29.83l144,.82a30,30,0,0,1,29.83,30.16Z"/></svg>