<svg id="Layer_1" data-name="Layer 1" xmlns="http://www.w3.org/2000/svg" viewBox="0 0 89.8 122.2"><defs><style>.cls-1,.cls-2,.cls-3,.cls-4,.cls-6{fill:none;}.cls-1,.cls-2,.cls-3,.cls-6{stroke:#cdcccc;}.cls-1,.cls-2,.cls-3,.cls-5,.cls-6{stroke-miterlimit:10;}.cls-1{stroke-width:4px;}.cls-3,.cls-4,.cls-6{stroke-width:2px;}.cls-4{stroke:#514f4f;stroke-linejoin:round;opacity:0.2;isolation:isolate;}.cls-5{fill:#fff;stroke:#f5c62c;}.cls-6{stroke-linecap:round;}</style></defs><title>motion-icon-3-yellow</title><path class="cls-1" d="M76.5,113.6H13.3a6.49,6.49,0,0,1-6.5-6.5v-92a6.49,6.49,0,0,1,6.5-6.5H76.5A6.49,6.49,0,0,1,83,15.1V107A6.51,6.51,0,0,1,76.5,113.6Z"/><rect class="cls-2" x="13.8" y="19" width="62.1" height="79.1"/><circle class="cls-2" cx="44.9" cy="104.7" r="3.9"/><polyline class="cls-3" points="13.7 67.8 35.1 54.8 55.2 64.4 80 47.4"/><line class="cls-4" x1="63.6" y1="31.7" x2="55.1" y2="31.7"/><circle class="cls-5" cx="34.9" cy="55.7" r="2.9"/><circle class="cls-5" cx="55.7" cy="64" r="2.9"/><polygon class="cls-5" points="83 46.7 55.8 46.7 55.8 54.5 67.9 54.5 69.5 57.3 71.1 54.5 83 54.5 83 46.7"/><polygon class="cls-5" points="66.2 26.5 38.9 26.5 38.9 34.3 51.2 34.3 52.8 37.1 54.4 34.3 66.2 34.3 66.2 26.5"/><polygon class="cls-5" points="22.7 74.3 49.9 74.3 49.9 66.5 37.7 66.5 36.1 63.7 34.5 66.5 22.7 66.5 22.7 74.3"/><polygon class="cls-5" points="37.9 40.9 11 40.9 11 48.7 22.7 48.7 24.7 52.1 26.7 48.7 37.9 48.7 37.9 40.9"/><line class="cls-4" x1="13.3" y1="43.5" x2="22.1" y2="43.5"/><line class="cls-4" x1="13.3" y1="46.1" x2="35.7" y2="46.1"/><line class="cls-6" x1="41.6" y1="14.7" x2="48.2" y2="14.7"/><line class="cls-4" x1="58.4" y1="49.3" x2="66.8" y2="49.3"/><line class="cls-4" x1="58.4" y1="52.2" x2="80.4" y2="52.2"/><line class="cls-4" x1="25.3" y1="69.1" x2="33.7" y2="69.1"/><line class="cls-4" x1="25.3" y1="72" x2="47.4" y2="72"/><line class="cls-4" x1="63.6" y1="28.8" x2="41.5" y2="28.8"/><line class="cls-4" x1="56.2" y1="31.6" x2="41.5" y2="31.6"/></svg>