<svg id="Layer_1" data-name="Layer 1" xmlns="http://www.w3.org/2000/svg" viewBox="0 0 93.2 114.73"><defs><style>.cls-1,.cls-3,.cls-4{fill:none;}.cls-2{fill:#cdcccc;}.cls-3{stroke:#cdcccc;stroke-miterlimit:10;}.cls-4{stroke:#f83600;stroke-linecap:round;stroke-linejoin:round;}</style></defs><title>motion-icon-1-orange</title><circle class="cls-1" cx="46.6" cy="61.1" r="44.6"/><path class="cls-2" d="M46.6,107.7A46.6,46.6,0,1,1,93.2,61.1,46.65,46.65,0,0,1,46.6,107.7Zm0-89.3A42.7,42.7,0,1,0,89.3,61.1,42.74,42.74,0,0,0,46.6,18.4Z"/><circle class="cls-1" cx="46.6" cy="61.1" r="37.9"/><path class="cls-1" d="M47.6,1.9H46.1a5.8,5.8,0,0,0-5.8,5.8v4.1H53.4V7.6A5.72,5.72,0,0,0,47.6,1.9Z"/><path class="cls-2" d="M55.3,13.6H38.5V5.9A5.85,5.85,0,0,1,44.4,0h5a5.85,5.85,0,0,1,5.9,5.9ZM42.2,9.8h9.4V5.9a2.22,2.22,0,0,0-2.2-2.2h-5a2.22,2.22,0,0,0-2.2,2.2Z"/><rect class="cls-2" x="43.6" y="11.7" width="6.4" height="4.8"/><path class="cls-1" d="M74.4,14.4,73,13.6a5.83,5.83,0,0,0-7.9,2.1l-2,3.5,11.3,6.5,2-3.5A5.62,5.62,0,0,0,74.4,14.4Z"/><path class="cls-2" d="M75.1,28.3,60.5,19.9l3.8-6.6a6.05,6.05,0,0,1,5.1-3,5.74,5.74,0,0,1,2.9.8l4.3,2.5a6,6,0,0,1,2.2,8.1Zm-9.5-9.7,8.1,4.7,2-3.4a2.26,2.26,0,0,0-.8-3l-4.3-2.5a2,2,0,0,0-1.1-.3,2.14,2.14,0,0,0-1.9,1.1Z"/><path class="cls-1" d="M19,13.9l1.3-.8a5.83,5.83,0,0,1,7.9,2.1l2,3.5L18.9,25.2l-2-3.5A5.65,5.65,0,0,1,19,13.9Z"/><path class="cls-2" d="M18.2,27.8l-3.8-6.6a5.89,5.89,0,0,1,2.2-8.1l4.3-2.5a6,6,0,0,1,2.9-.8,5.73,5.73,0,0,1,5.1,3l3.8,6.6Zm5.6-14.2a2,2,0,0,0-1.1.3l-4.3,2.5a2.12,2.12,0,0,0-1,1.3,2,2,0,0,0,.2,1.7l2,3.4,8.1-4.7-2-3.4A2,2,0,0,0,23.8,13.6Z"/><path class="cls-3" d="M84.7,98.4a54.14,54.14,0,0,1-76.5,0"/><path class="cls-3" d="M14.4,60.4a32,32,0,0,1,32-32"/><circle class="cls-4" cx="46.6" cy="61.3" r="11.2"/><circle class="cls-4" cx="46.6" cy="61.3" r="38.2"/><circle class="cls-4" cx="46.6" cy="61.3" r="4.1"/><line class="cls-4" x1="49.2" y1="58.2" x2="69.4" y2="38.7"/></svg>