<svg id="Layer_1" data-name="Layer 1" xmlns="http://www.w3.org/2000/svg" viewBox="0 0 511.88 511.88"><defs><style>.cls-1{fill:#7ee0cf;}.cls-2{fill:#b3e5db;}.cls-3{fill:#d7fff7;}.cls-4{fill:#48cfad;}.cls-5{fill:#fff;}.cls-6{fill:#00d1b2;}</style></defs><title>pricing-icon-2-teal</title><rect class="cls-1" x="315.93" y="431.9" width="47.99" height="23.99"/><path class="cls-2" d="M451.89,391.91a56,56,0,1,0,56,56A56,56,0,0,0,451.89,391.91Zm0,96a40,40,0,1,1,40-40A40,40,0,0,1,451.89,487.89Z"/><rect class="cls-1" x="411.9" y="303.93" width="25.12" height="36.63"/><path class="cls-3" d="M423,351.6c-.72.16-62.63,13.35-73.9,80.3-.48,2.56-.8,5.2-1.12,8h-.16a8,8,0,1,1-15.92,0c.24-2.72.56-5.36,1-8,11.92-80.94,87-96,87-96l10.72-2.24,1.84,15.92Z"/><path class="cls-3" d="M451.89,391.91a55.77,55.77,0,0,1,41.2,18.16l9.7-13.09a72,72,0,0,0-122.88,50.91h16A56,56,0,0,1,451.89,391.91Z"/><path class="cls-2" d="M48,415.9a44,44,0,1,0,44,44A44,44,0,0,0,48,415.9Zm.56,72A28,28,0,1,1,76,459.33,28,28,0,0,1,48.55,487.88Z"/><path class="cls-3" d="M12,459.89A44,44,0,0,1,52,416.1c-1.32-.11-2.65-.2-4-.2a44,44,0,0,0,0,88c1.35,0,2.68-.09,4-.2A44,44,0,0,1,12,459.89Z"/><path class="cls-1" d="M84,459.89a44,44,0,0,1-40,43.79c1.32.11,2.65.2,4,.2a44,44,0,0,0,0-88c-1.35,0-2.68.09-4,.2A44,44,0,0,1,84,459.89Z"/><path class="cls-2" d="M400,8a20.12,20.12,0,1,1-20.07,20.16A20.17,20.17,0,0,1,400,8Z"/><path class="cls-3" d="M387.91,28.16A20.17,20.17,0,0,1,404,8.41,19.72,19.72,0,0,0,400,8a20.12,20.12,0,0,0,0,40.23,20.45,20.45,0,0,0,4-.4A20.09,20.09,0,0,1,387.91,28.16Z"/><path class="cls-1" d="M412.14,28.07a20.19,20.19,0,0,1-16.09,19.76,20.53,20.53,0,0,0,4,.4,20.12,20.12,0,0,0,0-40.23,20.53,20.53,0,0,0-4,.4A20.09,20.09,0,0,1,412.14,28.07Z"/><polygon class="cls-3" points="35.99 455.89 363.92 455.89 363.92 479.89 67.98 479.89 35.99 455.89"/><path class="cls-4" d="M16.88,428.79a44,44,0,0,1,74.9,27.1h16A59.93,59.93,0,0,0,5.53,417.52l11.35,11.26Z"/><path class="cls-3" d="M16.88,428.79a44,44,0,0,1,74.9,27.1h16A59.93,59.93,0,0,0,5.53,417.52l11.35,11.26Z"/><polygon class="cls-3" points="428.06 191.96 414.14 191.96 397.27 48 409.79 45.65 428.06 191.96"/><polygon class="cls-5" points="363.92 463.87 46.62 463.87 35.99 455.89 363.92 455.89 363.92 463.87"/><path class="cls-2" d="M428.05,192,459.89,447.9a8,8,0,0,1-16,0L414.15,192Z"/><path class="cls-1" d="M456.67,392.15c1.47.14,2.93.34,4.37.57l.26,2.07a55.89,55.89,0,0,1-13.4,108.89c1.32.09,2.64.2,4,.2a56,56,0,0,0,4.78-111.73Z"/><path class="cls-3" d="M403.9,447.89a55.81,55.81,0,0,1,26.43-47.46l-.47-4a56,56,0,0,0,22,107.46c1.36,0,2.68-.11,4-.2A56,56,0,0,1,403.9,447.89Z"/><path class="cls-6" d="M400.27,32.12a4,4,0,0,1-4-4,4,4,0,0,1,3.95-4h.08a4,4,0,1,1,0,8Z"/><path class="cls-6" d="M451.89,507.88A60,60,0,0,1,424.2,394.67a4,4,0,0,1,3.7,7.09,52,52,0,1,0,36.37-4.38,4,4,0,1,1,1.91-7.76,60,60,0,0,1-14.29,118.26Z"/><path class="cls-6" d="M451.89,491.88a44,44,0,0,1-26.21-79.31,4,4,0,0,1,4.77,6.42,36,36,0,1,0,35.44-4.26,4,4,0,0,1-2.12-5.25,4,4,0,0,1,5.24-2.11,44,44,0,0,1-17.12,84.51Z"/><path class="cls-6" d="M379.9,451.89h0a4,4,0,0,1-4-4,76.12,76.12,0,0,1,46.69-70.13,4,4,0,0,1,3.08,7.37A68.12,68.12,0,0,0,383.9,447.9,4,4,0,0,1,379.9,451.89Z"/><path class="cls-6" d="M502.79,401a4,4,0,0,1-2.83-1.17,67.36,67.36,0,0,0-37.43-19.08,4,4,0,0,1-3.33-4.57,4.07,4.07,0,0,1,4.57-3.33,75.33,75.33,0,0,1,41.85,21.33,4,4,0,0,1-2.83,6.82Z"/><path class="cls-6" d="M48,507.88a48,48,0,1,1,44.72-65.45,4,4,0,0,1-7.45,2.91A40,40,0,1,0,75.45,489a4,4,0,1,1,5.5,5.81A47.78,47.78,0,0,1,48,507.88Z"/><path class="cls-6" d="M105.81,447.89A4,4,0,0,1,102,445,56,56,0,0,0,8.4,420.3a4,4,0,1,1-5.66-5.65,64,64,0,0,1,106.93,28.18,4,4,0,0,1-2.8,4.92A3.91,3.91,0,0,1,105.81,447.89Z"/><path class="cls-6" d="M459.88,451.89a4,4,0,0,1-4-3.5L407.5,58.6a4,4,0,1,1,7.93-1L463.86,447.4a4,4,0,0,1-3.48,4.46A2.74,2.74,0,0,1,459.88,451.89Z"/><path class="cls-6" d="M443.89,451.89a4,4,0,0,1-4-3.53l-45-387.69a4,4,0,1,1,8-.93l45,387.69a4,4,0,0,1-3.51,4.44A3.77,3.77,0,0,1,443.89,451.89Z"/><path class="cls-6" d="M331.93,443.89h-.37a4,4,0,0,1-3.62-4.34c8.18-89.92,90.35-107.38,91.18-107.54a4,4,0,0,1,1.57,7.84c-3.15.63-77.16,16.56-84.78,100.41A4,4,0,0,1,331.93,443.89Z"/><path class="cls-6" d="M347.86,445.34l-.36,0a4,4,0,0,1-3.63-4.34c7.08-77.82,77.66-93.15,78.37-93.3a4,4,0,0,1,1.61,7.84c-.65.14-65.5,14.48-72,86.18A4,4,0,0,1,347.86,445.34Z"/><path class="cls-6" d="M363.92,459.89H36a4,4,0,0,1,0-8H363.91a4,4,0,0,1,0,8Z"/><path class="cls-6" d="M363.92,483.89H68a4,4,0,1,1,0-8H363.91a4,4,0,0,1,0,8Z"/><path class="cls-6" d="M68,483.89a4,4,0,0,1-2.4-.8l-32-24a4,4,0,0,1,4.8-6.41l32,24A4,4,0,0,1,68,483.89Z"/><path class="cls-6" d="M363.92,435.9H349.08a4,4,0,0,1,0-8h14.84a4,4,0,0,1,0,8Z"/><path class="cls-6" d="M315.93,451.89a4,4,0,0,1-4-4v-16a4,4,0,1,1,8,0v16A4,4,0,0,1,315.93,451.89Z"/><path class="cls-6" d="M363.92,451.89a4,4,0,0,1-4-4v-16a4,4,0,1,1,8,0v16A4,4,0,0,1,363.92,451.89Z"/><path class="cls-6" d="M339.92,451.86a12,12,0,0,1-12-12,4,4,0,0,1,8,0,4,4,0,0,0,7.94,0,4,4,0,0,1,8,0A12,12,0,0,1,339.92,451.86Z"/><path class="cls-6" d="M332.88,435.9H315.93a4,4,0,1,1,0-8h16.95a4,4,0,0,1,0,8Z"/><path class="cls-6" d="M363.92,483.89a4,4,0,0,1-4-4v-24a4,4,0,1,1,8,0v24A4,4,0,0,1,363.92,483.89Z"/><path class="cls-6" d="M493.13,414a4,4,0,0,1-3.21-6.38l9.66-13a4,4,0,0,1,6.42,4.76l-9.66,13A4,4,0,0,1,493.13,414Z"/><path class="cls-6" d="M395.91,451.89h-16a4,4,0,1,1,0-8h16a4,4,0,1,1,0,8Z"/><path class="cls-6" d="M451.89,459.89a12,12,0,0,1-12-12,4,4,0,1,1,8,0,4,4,0,0,0,8,0,4,4,0,0,1,8,0A12,12,0,0,1,451.89,459.89Z"/><path class="cls-6" d="M483.89,451.89h-8a4,4,0,1,1,0-8h8a4,4,0,0,1,0,8Z"/><path class="cls-6" d="M427.9,451.89h-8a4,4,0,1,1,0-8h8a4,4,0,1,1,0,8Z"/><path class="cls-6" d="M467.89,479.61a4,4,0,0,1-3.47-2l-4-6.94a4,4,0,0,1,6.94-4l4,6.94a4,4,0,0,1-3.47,6Z"/><path class="cls-6" d="M435.88,479.61a4,4,0,0,1-3.46-6l4-6.94a4,4,0,0,1,6.92,4l-4,6.94A4,4,0,0,1,435.88,479.61Z"/><path class="cls-6" d="M16.89,432.79a4,4,0,0,1-2.83-1.17L2.74,420.3a4,4,0,0,1,5.66-5.65L19.72,426a4,4,0,0,1-2.83,6.83Z"/><path class="cls-6" d="M400,52.24a24.12,24.12,0,1,1,24.12-24.12A24.15,24.15,0,0,1,400,52.24ZM400,12a16.12,16.12,0,1,0,16.12,16.12A16.14,16.14,0,0,0,400,12Z"/><path class="cls-6" d="M419.9,307.93h-8a4,4,0,0,1,0-8h8a4,4,0,0,1,0,8Z"/><path class="cls-6" d="M411.9,331.92a4,4,0,0,1-4-4v-24a4,4,0,1,1,8,0v24A4,4,0,0,1,411.9,331.92Z"/><path class="cls-6" d="M435.68,196H403.9a4,4,0,0,1,0-8h31.78a4,4,0,1,1,0,8Z"/><path class="cls-6" d="M48,491.88a32,32,0,1,1,26.25-50.27,4,4,0,1,1-6.56,4.57,24,24,0,1,0-12.17,36.5A4,4,0,0,1,58,490.27,31.4,31.4,0,0,1,48,491.88Z"/></svg>