<svg id="Hero" xmlns="http://www.w3.org/2000/svg" viewBox="0 0 41 41"><defs><style>.cls-1{fill:#a4cff2;}.cls-2{fill:#fff;}.cls-3{fill:#d3e6f8;}.cls-4{fill:#7babf1;}.cls-5{fill:#4c4372;}.cls-6{fill:#8e6cf4;}</style></defs><title>robotics-2-night</title><path class="cls-1" d="M9.4,38.1V31.9H21.7a3.1,3.1,0,1,1,0,6.2Z"/><path class="cls-2" d="M27.5,32.4c.3,0,.6.1.9.1V21.2H26.5V32.6a1.64,1.64,0,0,1,1-.2Z"/><path class="cls-3" d="M30.3,17.4h-6a1.16,1.16,0,0,1-1.2-1.2v-7h8.4v7a1.15,1.15,0,0,1-1.2,1.2Z"/><path class="cls-1" d="M30.5,17.4a1.19,1.19,0,0,0,1-1.2V9.1h-1Z"/><path class="cls-4" d="M30.1,19H24.5a.43.43,0,0,1-.4-.4h0V17.4h6.5v1.2a.66.66,0,0,1-.5.4Z"/><path class="cls-1" d="M25.6,19H29v2.2H25.6Z"/><path class="cls-2" d="M27.3,11.3a1.79,1.79,0,0,0-1.8,1.8v4.2h3.7V13.1a2,2,0,0,0-1.9-1.8Z"/><path class="cls-5" d="M30.3,17.8h-6a1.58,1.58,0,0,1-1.6-1.6v-7a.43.43,0,0,1,.4-.4h8.4a.43.43,0,0,1,.4.4h0v7a1.47,1.47,0,0,1-1.6,1.6ZM23.6,9.6v6.6a.79.79,0,0,0,.8.8h6a.79.79,0,0,0,.8-.8V9.6Z"/><path class="cls-5" d="M30.1,19.4H24.5a.9.9,0,0,1-.9-.9V17.3a.43.43,0,0,1,.4-.4h6.5a.43.43,0,0,1,.4.4h0v1.2A.77.77,0,0,1,30.1,19.4Zm-5.6-1.6v.8h5.6v-.8Z"/><path class="cls-5" d="M29,21.6H25.6a.43.43,0,0,1-.4-.4V19a.43.43,0,0,1,.4-.4H29a.43.43,0,0,1,.4.4h0v2.2a.43.43,0,0,1-.4.4Zm-3-.8h2.5V19.4H26Z"/><path class="cls-4" d="M21.8,31.9h-2a3.1,3.1,0,0,1,0,6.2h2A3.12,3.12,0,0,0,24.9,35,3.25,3.25,0,0,0,21.8,31.9Z"/><path class="cls-5" d="M21.8,38.5H9.5a.43.43,0,0,1-.4-.4h0V31.9a.43.43,0,0,1,.4-.4H21.8a3.5,3.5,0,0,1,0,7ZM9.9,37.6H21.8a2.6,2.6,0,0,0,0-5.2H9.9Z"/><path class="cls-5" d="M29.2,17.8H25.5a.43.43,0,0,1-.4-.4h0V13.2a2.3,2.3,0,0,1,4.6,0v4.2a.66.66,0,0,1-.5.4Zm-3.3-.9h2.8V13.1a1.4,1.4,0,1,0-2.8,0v3.8Z"/><path class="cls-5" d="M26.4,33a.43.43,0,0,1-.4-.4V21.2a.43.43,0,0,1,.4-.4h1.9a.43.43,0,0,1,.4.4h0V32.5a.43.43,0,0,1-.4.4h-.1a1.7,1.7,0,0,0-.7-.1,1.88,1.88,0,0,0-.8.2Zm.5-11.4V31.9a1.7,1.7,0,0,1,1,0V21.6Z"/><path class="cls-5" d="M27.5,38.1A3.1,3.1,0,1,1,30.6,35,3.25,3.25,0,0,1,27.5,38.1Zm0-5.3A2.2,2.2,0,1,0,29.7,35,2.22,2.22,0,0,0,27.5,32.8Z"/><path class="cls-5" d="M17.1,38.5a.43.43,0,0,1-.4-.4h0V31.9a.4.4,0,0,1,.8,0V38c.1.3-.1.5-.4.5Z"/><path class="cls-6" d="M30.1,35a2.6,2.6,0,1,1-2.6-2.6A2.58,2.58,0,0,1,30.1,35Z"/><path class="cls-6" d="M28.6,35a1.1,1.1,0,1,1-1.1-1.1A1.11,1.11,0,0,1,28.6,35Z"/><path class="cls-6" d="M31.6,9.1H29.5V3.6a1.1,1.1,0,1,1,2.2,0V9.1Z"/><path class="cls-6" d="M29.5,9.1H27.4V2.5a1.1,1.1,0,0,1,2.2,0Z"/><path class="cls-6" d="M27.3,9.1H25.2V1.7a1.1,1.1,0,0,1,2.2,0Z"/><path class="cls-6" d="M23.1,15.5A2.05,2.05,0,0,1,21,13.4V8.7a1,1,0,0,1,1-1,1.08,1.08,0,0,1,1,1v6.8Z"/><path class="cls-6" d="M25.2,9.1H23.1V2.5a1.1,1.1,0,1,1,2.2,0Z"/><path class="cls-5" d="M23.1,10.1H21a.4.4,0,1,1,0-.8h2.1a.43.43,0,0,1,.4.4c.1.2-.1.4-.4.4Z"/><path class="cls-5" d="M25.2,3.8H23.1a.43.43,0,0,1-.4-.4.43.43,0,0,1,.4-.4h2.1a.43.43,0,0,1,.4.4c.1.3-.1.4-.4.4Z"/><path class="cls-5" d="M27.3,3.5H25.2a.43.43,0,0,1-.4-.4.43.43,0,0,1,.4-.4h2.1a.43.43,0,0,1,.4.4C27.8,3.3,27.6,3.5,27.3,3.5Z"/><path class="cls-5" d="M29.5,3.8H27.4a.43.43,0,0,1-.4-.4.43.43,0,0,1,.4-.4h2.1a.43.43,0,0,1,.4.4.37.37,0,0,1-.4.4Z"/><path class="cls-5" d="M31.6,5.1H29.5a.43.43,0,0,1-.4-.4.43.43,0,0,1,.4-.4h2.1a.43.43,0,0,1,.4.4.43.43,0,0,1-.4.4Z"/><path class="cls-5" d="M31.6,9.6H29.5a.43.43,0,0,1-.4-.4h0V3.7a1.5,1.5,0,0,1,3,0V9.2a.66.66,0,0,1-.5.4Zm-1.7-.9h1.2V3.6a.6.6,0,0,0-1.2,0V8.7Z"/><path class="cls-5" d="M29.5,9.6H27.4a.43.43,0,0,1-.4-.4h0V2.6a1.5,1.5,0,0,1,3,0V9.2a.66.66,0,0,1-.5.4Zm-1.7-.9H29V2.5a.6.6,0,1,0-1.2,0V8.7Z"/><path class="cls-5" d="M27.3,9.6H25.2a.43.43,0,0,1-.4-.4h0V1.8a1.5,1.5,0,0,1,3,0V9.2a.46.46,0,0,1-.5.4Zm-1.6-.9h1.2V1.8a.6.6,0,0,0-1.2,0V8.7Z"/><path class="cls-5" d="M23.1,15.9a2.48,2.48,0,0,1-2.5-2.5V8.7a1.5,1.5,0,0,1,3,0v6.7a.47.47,0,0,1-.5.5Zm-1-7.8a.65.65,0,0,0-.6.6v4.7A1.62,1.62,0,0,0,22.7,15V8.7a.65.65,0,0,0-.6-.6Z"/><path class="cls-5" d="M25.2,9.6H23.1a.43.43,0,0,1-.4-.4h0V2.6a1.5,1.5,0,0,1,3,0V9.2a.46.46,0,0,1-.5.4Zm-1.6-.9h1.2V2.5a.6.6,0,1,0-1.2,0V8.7Z"/><path class="cls-5" d="M27.5,36.6A1.6,1.6,0,1,1,29.1,35,1.72,1.72,0,0,1,27.5,36.6Zm0-2.3a.7.7,0,1,0,.7.7.84.84,0,0,0-.7-.7Z"/></svg>