<svg id="Hero" xmlns="http://www.w3.org/2000/svg" viewBox="0 0 41 41"><defs><style>.cls-1{fill:#d3e6f8;}.cls-2{fill:#a4cff2;}.cls-3{fill:#4c4372;}.cls-4{fill:#ff3131;}.cls-5{fill:#8e6cf4;}</style></defs><title>robotics-1-night</title><path class="cls-1" d="M20.5.4a10,10,0,0,0-10,10V22.5h3.4v4.3a3,3,0,0,0,3,3h3.4v8.5H30.5V10.4a10,10,0,0,0-10-10Z"/><path class="cls-2" d="M20.5.4a3.4,3.4,0,0,0-1,.1,10.06,10.06,0,0,1,9,9.9V38.3h2V10.4a10,10,0,0,0-10-10Z"/><path class="cls-3" d="M30.5,38.7H20.3a.43.43,0,0,1-.4-.4h0v-8H17a3.37,3.37,0,0,1-3.4-3.4v-4h-3a.43.43,0,0,1-.4-.4h0V10.4a10.4,10.4,0,1,1,20.8,0V38.3a.66.66,0,0,1-.5.4Zm-9.7-.8h9.3V10.5a9.5,9.5,0,0,0-19,0V22.1h3a.43.43,0,0,1,.4.4v4.3a2.58,2.58,0,0,0,2.6,2.6h3.4a.43.43,0,0,1,.4.4v8.1Z"/><path class="cls-4" d="M22.1,9.1h-.4V15h.4a1.22,1.22,0,0,0,1.2-1.2V10.2a1.13,1.13,0,0,0-1.2-1.1Z"/><path class="cls-3" d="M17.4,14h-2a.4.4,0,0,1,0-.8h2a.4.4,0,1,1,0,.8Z"/><path class="cls-3" d="M17.4,12.5H14.7a.66.66,0,0,1-.5-.4.66.66,0,0,1,.4-.5h2.7a.43.43,0,0,1,.4.4.35.35,0,0,1-.3.5Z"/><path class="cls-3" d="M17.4,11.1h-2a.43.43,0,0,1-.4-.4V9.2a.4.4,0,0,1,.8,0v1.1h1.5a.43.43,0,0,1,.4.4c.1.2-.1.4-.3.4Z"/><path class="cls-3" d="M25.3,15.5a.43.43,0,0,1-.4-.4h0V14H23.4a.4.4,0,0,1,0-.8h2a.43.43,0,0,1,.4.4h0v1.5A.66.66,0,0,1,25.3,15.5Z"/><path class="cls-3" d="M26,12.5H23.3a.66.66,0,0,1-.5-.4.66.66,0,0,1,.4-.5h2.7a.43.43,0,0,1,.4.4.35.35,0,0,1-.3.5Z"/><path class="cls-3" d="M25.3,11.1h-2a.4.4,0,1,1,0-.8h2a.4.4,0,0,1,0,.8Z"/><path class="cls-3" d="M18.9,9.6a.43.43,0,0,1-.4-.4h0v-2a.4.4,0,0,1,.8,0v2a.43.43,0,0,1-.4.4Z"/><path class="cls-3" d="M20.3,9.6a.43.43,0,0,1-.4-.4h0V6.5a.4.4,0,1,1,.8,0h0V9.2c.1.2-.1.4-.4.4Z"/><path class="cls-3" d="M21.8,9.6a.43.43,0,0,1-.4-.4h0v-2a.4.4,0,1,1,.8,0v2a.43.43,0,0,1-.4.4Z"/><path class="cls-3" d="M18.9,17.5a.43.43,0,0,1-.4-.4h0v-2a.4.4,0,1,1,.8,0v2a.43.43,0,0,1-.4.4Z"/><path class="cls-3" d="M20.3,18.2a.43.43,0,0,1-.4-.4h0V15.1a.4.4,0,0,1,.8,0h0v2.7c.1.2-.1.4-.4.4Z"/><path class="cls-3" d="M21.8,17.5a.43.43,0,0,1-.4-.4h0v-2a.4.4,0,0,1,.8,0v2a.43.43,0,0,1-.4.4Z"/><path class="cls-5" d="M22.1,15.1H18.5a1.22,1.22,0,0,1-1.2-1.2V10.3a1.22,1.22,0,0,1,1.2-1.2h3.6a1.22,1.22,0,0,1,1.2,1.2v3.6a1.16,1.16,0,0,1-1.2,1.2Z"/><path class="cls-5" d="M14.7,12.1a1,1,0,1,1-1-1A1.08,1.08,0,0,1,14.7,12.1Z"/><path class="cls-5" d="M27.9,12.1a1,1,0,1,1-1-1A1,1,0,0,1,27.9,12.1Z"/><path class="cls-5" d="M21.3,5.5a1,1,0,1,1-1-1,.94.94,0,0,1,1,1Z"/><path class="cls-5" d="M21.3,18.7a1,1,0,1,1-1-1,1.07,1.07,0,0,1,1,1Z"/><path class="cls-3" d="M22.1,15.5H18.5a1.58,1.58,0,0,1-1.6-1.6V10.3a1.58,1.58,0,0,1,1.6-1.6h3.6a1.58,1.58,0,0,1,1.6,1.6v3.6a1.58,1.58,0,0,1-1.6,1.6ZM18.5,9.6a.68.68,0,0,0-.7.7v3.6a.68.68,0,0,0,.7.7h3.6a.68.68,0,0,0,.7-.7V10.3a.68.68,0,0,0-.7-.7Z"/><path class="cls-3" d="M13.7,13.5a1.4,1.4,0,1,1,1.4-1.4A1.37,1.37,0,0,1,13.7,13.5Zm0-1.9a.5.5,0,1,0,.5.5.47.47,0,0,0-.5-.5Z"/><path class="cls-3" d="M27,13.5a1.4,1.4,0,1,1,1.4-1.4A1.43,1.43,0,0,1,27,13.5Zm0-1.9a.5.5,0,1,0,.5.5A.47.47,0,0,0,27,11.6Z"/><path class="cls-3" d="M20.3,6.9a1.37,1.37,0,0,1-1.4-1.4,1.4,1.4,0,1,1,2.8,0,1.43,1.43,0,0,1-1.4,1.4Zm0-2a.47.47,0,0,0-.5.5.5.5,0,1,0,1,0A.47.47,0,0,0,20.3,4.9Z"/><path class="cls-3" d="M20.3,20.2a1.4,1.4,0,1,1,1.4-1.4A1.43,1.43,0,0,1,20.3,20.2Zm0-2a.5.5,0,1,0,.5.5A.54.54,0,0,0,20.3,18.2Z"/></svg>