<svg id="Hero" xmlns="http://www.w3.org/2000/svg" viewBox="0 0 47.2 92.9"><defs><style>.cls-1,.cls-2{fill:#00b289;}.cls-1{stroke:#00b289;stroke-linecap:round;stroke-linejoin:round;stroke-width:2px;}</style></defs><title>robot-heading-green</title><line class="cls-1" x1="23.7" y1="34.2" x2="23.7" y2="27.7"/><line class="cls-1" x1="23.7" y1="20.4" x2="23.7" y2="13.9"/><line class="cls-1" x1="23.7" y1="7.4" x2="23.7" y2="0.9"/><path class="cls-2" d="M19.3,51.9A3.1,3.1,0,1,0,22.4,55,3.12,3.12,0,0,0,19.3,51.9Zm0,4.6a1.5,1.5,0,1,1,0-3h0A1.54,1.54,0,0,1,20.8,55,1.47,1.47,0,0,1,19.3,56.5Z"/><path class="cls-2" d="M28.1,51.9A3.1,3.1,0,1,0,31.2,55,3.12,3.12,0,0,0,28.1,51.9Zm0,4.6a1.5,1.5,0,1,1,0-3h0a1.5,1.5,0,0,1,0,3Z"/><path class="cls-2" d="M37.5,55.5A4.36,4.36,0,0,0,33.9,52,4.63,4.63,0,0,0,29,48.5H24.5V46.8a2.56,2.56,0,1,0-3.2-1.7A2.86,2.86,0,0,0,23,46.8v1.7H18.5A4.7,4.7,0,0,0,13.6,52a4.24,4.24,0,0,0-.2,8.4h0c.2,3.4,2.7,4.6,5.1,4.6H29a4.72,4.72,0,0,0,5.1-4.6A4.21,4.21,0,0,0,37.5,55.5ZM13.4,58.9a2.72,2.72,0,0,1-1.9-3.4,3,3,0,0,1,1.9-1.9Zm9.3-14.5a1,1,0,0,1,1-1,1,1,0,0,1,0,2A1,1,0,0,1,22.7,44.4Zm9.8,15.5a3.3,3.3,0,0,1-3.6,3.6H18.5a3.3,3.3,0,0,1-3.6-3.6V53.7a3.26,3.26,0,0,1,3.6-3.6H29a3.26,3.26,0,0,1,3.6,3.6v6.2ZM34,58.8V53.5a2.67,2.67,0,0,1,2,2.6A2.7,2.7,0,0,1,34,58.8Z"/><path class="cls-2" d="M28.1,60.2H19.3a.79.79,0,0,0-.8.8.74.74,0,0,0,.8.8h8.8a.8.8,0,0,0,0-1.6Z"/><path class="cls-2" d="M40.8,66.5h0a3.08,3.08,0,0,0-3-3,3,3,0,0,0-2.9,2.3l-2.1.4H14.5l-2.1-.4a3.07,3.07,0,0,0-3.6-2.3,3.07,3.07,0,0,0-2.3,3.6,2.77,2.77,0,0,0,2.2,2.2V75a2.92,2.92,0,0,0-2.2,2.9v1.4a.79.79,0,0,0,.8.8.74.74,0,0,0,.8-.8V78a1.4,1.4,0,0,1,2.8,0v1.4a.79.79,0,0,0,.8.8.74.74,0,0,0,.8-.8V78a3.09,3.09,0,0,0-2.2-2.9V69.4a3,3,0,0,0,2.1-2l1.3.3v9.5a9,9,0,0,0,.9,4v.1a10,10,0,0,0,13.2,5,10.14,10.14,0,0,0,5-5v-.1a9.34,9.34,0,0,0,.9-4V67.7l1.3-.3a3,3,0,0,0,2.1,2v5.7A2.92,2.92,0,0,0,34.9,78v1.4a.8.8,0,0,0,1.6,0V78a1.4,1.4,0,1,1,2.8,0v1.4a.79.79,0,0,0,.8.8.74.74,0,0,0,.8-.8V78a3.09,3.09,0,0,0-2.2-2.9V69.4A3.13,3.13,0,0,0,40.8,66.5ZM9.6,67.9A1.4,1.4,0,1,1,11,66.5,1.37,1.37,0,0,1,9.6,67.9ZM23.7,85.6a8.4,8.4,0,0,1-7.1-3.9H30.9A8.7,8.7,0,0,1,23.7,85.6Zm8.5-8.5a8,8,0,0,1-.6,3H15.8a8,8,0,0,1-.6-3V67.7H32.1v9.4Zm5.6-9.2h0a1.54,1.54,0,0,1-1.5-1.5,1.4,1.4,0,1,1,2.8,0A1.23,1.23,0,0,1,37.8,67.9Z"/><path class="cls-2" d="M26.4,73.2a.76.76,0,0,0-.5-.2H23.6l2.8-2.9a.79.79,0,0,0-.1-1.1.91.91,0,0,0-1,0l-4.1,4.2a.78.78,0,0,0,0,1.1.76.76,0,0,0,.5.2h2.4l-2.9,3.2a.71.71,0,0,0,.1,1.1h0a.71.71,0,0,0,1.1-.1l4.1-4.5C26.8,74,26.7,73.5,26.4,73.2Z"/></svg>