<svg id="Layer_1" data-name="Layer 1" xmlns="http://www.w3.org/2000/svg" viewBox="0 0 512 512"><defs><style>.cls-1{fill:#837fcb;}</style></defs><title>rocket-purple</title><path class="cls-1" d="M256.49,173.53a91,91,0,0,0-78,138.7,9.79,9.79,0,0,0,.94,1.49,91,91,0,1,0,77-140.19ZM190.11,291a71,71,0,0,1,124.12-67L259,278.63l-20.84-21.08a10,10,0,0,0-14.15-.08Zm65.46,44.53a70.89,70.89,0,0,1-55-26.71L231,278.72l20.84,21.08a10,10,0,0,0,14.14.08l57.64-57a71,71,0,0,1-68,92.62Z"/><path class="cls-1" d="M409.86,252.5A296.55,296.55,0,0,0,262.39,3.88a10,10,0,0,0-9.94,0A296.52,296.52,0,0,0,102.17,250.75a96.1,96.1,0,0,0-58.65,87.92l-.4,70.65a10,10,0,0,0,9.94,10.06l146.94.83a125.64,125.64,0,0,0,36.43,80.34l11.09,11.05a10,10,0,0,0,14,.08l11.22-10.93a125.58,125.58,0,0,0,37.33-79.91l30.94.17-.29,51.61a10,10,0,0,0,20,.12l.29-51.62,96,.55a10,10,0,0,0,10.06-9.95l.4-70.64A96.08,96.08,0,0,0,409.86,252.5ZM257.31,24.13A275.93,275.93,0,0,1,336.47,97l-159.15-.9A276,276,0,0,1,257.31,24.13ZM63.17,399.43l.35-60.65a76.06,76.06,0,0,1,38.37-65.62l-.66,116.49a30,30,0,0,0,1.66,10Zm195.65,87-4.16,4.05-4.12-4.1a105.51,105.51,0,0,1-30.48-66.06l70,.4A105.49,105.49,0,0,1,258.82,486.43Zm130.4-95.15a10,10,0,0,1-10.05,10l-248-1.41a10,10,0,0,1-9.94-10.06L122,260.35a276,276,0,0,1,21-104l45.28.26a10,10,0,1,0,.11-20l-36.19-.21Q157.51,126,163.71,116l186.14,1A276.69,276.69,0,0,1,390,261.87Zm57.95,10.33-39.72-.22a29.85,29.85,0,0,0,1.77-10l.66-116.49a76.06,76.06,0,0,1,37.63,66Z"/><path class="cls-1" d="M231.72,145.81a10,10,0,1,0,2.89,7.09A10.09,10.09,0,0,0,231.72,145.81Z"/><path class="cls-1" d="M158.91,452.73a10,10,0,0,0-10.06,9.94l-.18,30.81a10,10,0,0,0,20,.11l.18-30.81A10,10,0,0,0,158.91,452.73Z"/><path class="cls-1" d="M357.69,504a10,10,0,1,0,2.89,7.08A10,10,0,0,0,357.69,504Z"/></svg>