<svg id="Layer_1" data-name="Layer 1" xmlns="http://www.w3.org/2000/svg" viewBox="0 0 512 512"><defs><style>.cls-1{fill:#8c8cf9;}</style></defs><title>send-core</title><path class="cls-1" d="M511.9,9.66a9.45,9.45,0,0,0-.34-1.73,11.45,11.45,0,0,0-.74-1.81,10.09,10.09,0,0,0-.4-1c-.12-.2-.32-.33-.46-.52a12,12,0,0,0-1.26-1.41A11.32,11.32,0,0,0,507.26,2c-.19-.13-.31-.32-.5-.43a9.08,9.08,0,0,0-1-.39,10.64,10.64,0,0,0-1.86-.75A11.36,11.36,0,0,0,502.29.1a11.63,11.63,0,0,0-2-.09,10.06,10.06,0,0,0-1.81.3,11.29,11.29,0,0,0-1.14.19L7.54,167.49a11.12,11.12,0,0,0-.39,20.92L236,276.35,334.9,505.29A11.15,11.15,0,0,0,345.12,512h.56a11.13,11.13,0,0,0,10.05-7.74L511.59,14.41a9.65,9.65,0,0,0,.15-1.06,10.79,10.79,0,0,0,.25-1.86A10.21,10.21,0,0,0,511.9,9.66Zm-468.1,169L459.25,37,241.61,254.64ZM343.53,469.13l-85.94-199L476.49,51.24Z"/><path class="cls-1" d="M174.87,337.14a11.11,11.11,0,0,0-15.74,0L3.27,493A11.13,11.13,0,1,0,19,508.74L174.87,352.88A11.12,11.12,0,0,0,174.87,337.14Z"/><path class="cls-1" d="M203.66,415.07,125.73,493a11.13,11.13,0,1,0,15.74,15.74l77.93-77.93a11.13,11.13,0,0,0-15.74-15.74Z"/><path class="cls-1" d="M11.14,389.54A11.1,11.1,0,0,0,19,386.28l77.93-77.93A11.13,11.13,0,0,0,81.2,292.6L3.27,370.53a11.14,11.14,0,0,0,7.87,19Z"/></svg>