<svg id="Layer_1" data-name="Layer 1" xmlns="http://www.w3.org/2000/svg" viewBox="0 0 180 170"><defs><style>.cls-1,.cls-2{fill:none;}.cls-1{stroke:#4c626e;stroke-miterlimit:10;stroke-width:5px;opacity:0.3;isolation:isolate;}.cls-2{stroke:#8c8cf9;stroke-linecap:round;stroke-linejoin:round;stroke-width:4px;}</style></defs><title>store-core</title><path class="cls-1" d="M89.3,75.4a14.2,14.2,0,1,1-28.4,0"/><path class="cls-1" d="M60.9,75.4a14.2,14.2,0,1,1-28.4,0l9.6-28.7A5.37,5.37,0,0,1,47.2,43h84.1a5.37,5.37,0,0,1,5.1,3.7L146,75.4a14.2,14.2,0,1,1-28.4,0"/><path class="cls-1" d="M117.7,75.4a14.2,14.2,0,0,1-28.4,0"/><line class="cls-1" x1="138" y1="94.3" x2="138" y2="88.9"/><path class="cls-1" d="M40.7,88.9v46a5.38,5.38,0,0,0,5.4,5.4H111"/><path class="cls-1" d="M48.8,40.2V32.1a5.38,5.38,0,0,1,5.4-5.4h70.3a5.38,5.38,0,0,1,5.4,5.4v8.1"/><polyline class="cls-1" points="89.3 137.6 89.3 102.4 97.4 102.4"/><polyline class="cls-1" points="78.5 102.4 78.5 118.6 51.5 118.6 51.5 102.4"/><circle class="cls-2" cx="121.8" cy="115.9" r="25.7"/><polyline class="cls-2" points="111 118.6 119.1 124.1 132.6 107.8"/></svg>