<svg id="Layer_1" data-name="Layer 1" xmlns="http://www.w3.org/2000/svg" viewBox="0 0 512 512"><defs><style>.cls-1{fill:#837fcb;}</style></defs><title>study-purple</title><path class="cls-1" d="M364.2-11.76l-294-1.36A30,30,0,0,0,40.06,16.74l-.47,102a10,10,0,0,0,20,.09l.47-102a10,10,0,0,1,10-9.95l294,1.36a10,10,0,0,1,9.95,10l-1.73,372a10,10,0,0,1-10,10l-294-1.37a10,10,0,0,1-10-10l.86-185.67a10,10,0,0,0-20-.09l-.86,185.66A30,30,0,0,0,68.2,418.87l294,1.37a30,30,0,0,0,30.13-29.86l1.73-372A30,30,0,0,0,364.2-11.76Z"/><path class="cls-1" d="M56.53,156.35a10,10,0,1,0,2.89,7.09A10.08,10.08,0,0,0,56.53,156.35Z"/><path class="cls-1" d="M95,441.86A10,10,0,1,0,97.86,449,10.07,10.07,0,0,0,95,441.86Z"/><path class="cls-1" d="M424.26,28.8a10,10,0,0,0-10.06,9.94l-2.22,392a10,10,0,0,1-10.06,9.95l-274-1.56a10,10,0,0,0-.11,20l274,1.56A30,30,0,0,0,432,430.85l2.22-392A10,10,0,0,0,424.26,28.8Z"/><path class="cls-1" d="M464.09,69a10,10,0,0,0-10,9.94l-2.23,392a10,10,0,0,1-10.05,9.94l-314-1.78a10,10,0,1,0-.11,20l314,1.78A30,30,0,0,0,471.81,471L474,79A10,10,0,0,0,464.09,69Z"/><path class="cls-1" d="M202,61.47l-96-.54A10,10,0,0,0,96,70.87l-.55,96a10,10,0,0,0,9.95,10.06l96,.54a10,10,0,0,0,10.05-9.94l.55-96A10,10,0,0,0,202,61.47Zm-10.54,95.95-76-.43.43-76,76,.43Z"/><path class="cls-1" d="M168.91,222.69a10,10,0,0,0-14.14-.08L128,249l-12.29-12.43a10,10,0,0,0-14.23,14.06l19.33,19.55a10,10,0,0,0,14.14.08l33.84-33.47A10,10,0,0,0,168.91,222.69Z"/><path class="cls-1" d="M332.68,237.22,216,236.56a10,10,0,0,0-.11,20l116.66.66a10,10,0,1,0,.12-20Z"/><path class="cls-1" d="M328,62.19l-70-.4a10,10,0,0,0-.11,20l70,.4a10,10,0,1,0,.11-20Z"/><path class="cls-1" d="M327.73,110.19l-70-.4a10,10,0,1,0-.11,20l70,.4a10,10,0,0,0,.11-20Z"/><path class="cls-1" d="M327.46,158.19l-70-.4a10,10,0,1,0-.11,20l70,.4a10,10,0,0,0,.12-20Z"/><path class="cls-1" d="M168.48,299.06a10,10,0,0,0-14.14-.08L127.6,325.41,115.31,313A10,10,0,0,0,101.09,327l19.32,19.54a10,10,0,0,0,14.15.08L168.4,313.2A10,10,0,0,0,168.48,299.06Z"/><path class="cls-1" d="M332.25,313.22l-116.67-.66a10,10,0,1,0-.11,20l116.66.66a10,10,0,0,0,.12-20Z"/></svg>