<svg id="Layer_1" data-name="Layer 1" xmlns="http://www.w3.org/2000/svg" viewBox="0 0 512 512"><defs><style>.cls-1{fill:#0f7cff;}</style></defs><title>study-blue</title><path class="cls-1" d="M362.71-.15l-294,.3a30,30,0,0,0-30,30l.11,102a10,10,0,0,0,20,0l-.11-102a10,10,0,0,1,10-10l294-.3a10,10,0,0,1,10,10l.39,372a10,10,0,0,1-10,10l-294,.3a10,10,0,0,1-10-10L58.94,216.5a10,10,0,0,0-20,0l.19,185.66a30,30,0,0,0,30,30l294-.3a30,30,0,0,0,30-30l-.39-372A30,30,0,0,0,362.71-.15Z"/><path class="cls-1" d="M56,169.7a10,10,0,1,0,2.93,7.07A10.07,10.07,0,0,0,56,169.7Z"/><path class="cls-1" d="M96.07,455A10,10,0,1,0,99,462.06,10.06,10.06,0,0,0,96.07,455Z"/><path class="cls-1" d="M423,40.06a10,10,0,0,0-10,10v392a10,10,0,0,1-10,10H129a10,10,0,1,0,0,20H403a30,30,0,0,0,30-30v-392A10,10,0,0,0,423,40.06Z"/><path class="cls-1" d="M463.06,80a10,10,0,0,0-10,10V482a10,10,0,0,1-10,10h-314a10,10,0,1,0,0,20h314a30,30,0,0,0,30-30V90A10,10,0,0,0,463.06,80Z"/><path class="cls-1" d="M200.94,74h-96a10,10,0,0,0-10,10v96a10,10,0,0,0,10,10h96a10,10,0,0,0,10-10V84A10,10,0,0,0,200.94,74Zm-10,96h-76V94h76Z"/><path class="cls-1" d="M168.76,235.4a10,10,0,0,0-14.14,0L128,262l-12.36-12.36a10,10,0,0,0-14.15,14.15L121,283.2a10,10,0,0,0,14.15,0l33.65-33.66A10,10,0,0,0,168.76,235.4Z"/><path class="cls-1" d="M332.6,249H215.94a10,10,0,0,0,0,20H332.6a10,10,0,0,0,0-20Z"/><path class="cls-1" d="M326.94,74h-70a10,10,0,0,0,0,20h70a10,10,0,0,0,0-20Z"/><path class="cls-1" d="M326.94,122h-70a10,10,0,0,0,0,20h70a10,10,0,0,0,0-20Z"/><path class="cls-1" d="M326.94,170h-70a10,10,0,0,0,0,20h70a10,10,0,0,0,0-20Z"/><path class="cls-1" d="M168.76,311.77a10,10,0,0,0-14.14,0L128,338.35,115.68,326a10,10,0,0,0-14.15,14.14L121,359.57a10,10,0,0,0,14.15,0l33.65-33.66A10,10,0,0,0,168.76,311.77Z"/><path class="cls-1" d="M332.6,325H215.94a10,10,0,0,0,0,20H332.6a10,10,0,0,0,0-20Z"/></svg>