<svg id="Layer_1" data-name="Layer 1" xmlns="http://www.w3.org/2000/svg" viewBox="0 0 512 512"><defs><style>.cls-1{fill:#837fcb;}</style></defs><title>time-purple</title><path class="cls-1" d="M473.85,196h0l-22.4-2.77a206.57,206.57,0,0,0-8.3-20.35l14.08-17.65c13.78-17.28,13.88-40.72.23-54.54l-38.87-39.3c-13.65-13.81-37.1-14-54.54-.39L346.24,74.9A206.31,206.31,0,0,0,326,66.37l-2.53-22.43c-2.47-22-19-38.62-38.4-38.73L229.8,4.9C210.37,4.79,193.67,21.25,191,43.19l-2.77,22.4a206.32,206.32,0,0,0-20.34,8.29L150.19,59.8C132.91,46,109.47,45.92,95.65,59.58L56.35,98.44c-13.81,13.65-14,37.1-.39,54.54l13.87,17.81A205.22,205.22,0,0,0,61.31,191l-22.44,2.52C16.91,196,.26,212.54.15,232l-.32,55.27c-.11,19.42,16.35,36.12,38.29,38.84l22.4,2.78a206.39,206.39,0,0,0,8.3,20.34L54.73,366.84c-13.78,17.28-13.88,40.73-.22,54.55l38.86,39.3c13.65,13.81,37.1,14,54.54.39l17.81-13.88A206.31,206.31,0,0,0,186,455.73l2.53,22.43c2.47,22,19,38.62,38.4,38.73l55.27.32c19.43.11,36.12-16.35,38.85-38.29l2.77-22.4a207.75,207.75,0,0,0,20.36-8.3l17.65,14.08c17.28,13.78,40.73,13.88,54.54.22l39.3-38.86c13.81-13.65,14-37.1.39-54.54l-13.88-17.81a206.31,206.31,0,0,0,8.53-20.24l22.43-2.53c22-2.47,38.61-19,38.72-38.41l.32-55.27C512.25,215.44,495.79,198.74,473.85,196Zm18,94c-.05,9.29-9.06,17.31-21,18.65l-28.72,3.23a10,10,0,0,0-8.39,6.85,186.21,186.21,0,0,1-12.24,29.06,10,10,0,0,0,1,10.8l17.77,22.8c7.36,9.45,7.93,21.5,1.32,28l-39.3,38.86c-6.61,6.53-18.65,5.83-28-1.64l-22.6-18a10,10,0,0,0-10.79-1.09,186.52,186.52,0,0,1-29.2,11.92,10,10,0,0,0-6.95,8.31l-3.56,28.69c-1.47,11.88-9.59,20.8-18.88,20.75L227,496.89c-9.3-.05-17.31-9.06-18.65-21l-3.23-28.73a10,10,0,0,0-6.85-8.39,186.21,186.21,0,0,1-29.06-12.24,10,10,0,0,0-10.8,1l-22.81,17.77c-9.44,7.36-21.49,7.92-28,1.32l-38.86-39.3c-6.53-6.61-5.83-18.65,1.64-28l18-22.61a10,10,0,0,0,1.09-10.78,186.09,186.09,0,0,1-11.91-29.2,10,10,0,0,0-8.31-7l-28.69-3.55c-11.88-1.48-20.8-9.6-20.75-18.89l.32-55.27c.05-9.29,9.06-17.3,21-18.64l28.72-3.23a10,10,0,0,0,8.4-6.85,186.21,186.21,0,0,1,12.24-29.06,10,10,0,0,0-1-10.8L71.73,140.68c-7.36-9.44-7.93-21.49-1.32-28l39.3-38.86c6.61-6.54,18.65-5.83,28,1.64l22.6,18a10,10,0,0,0,10.79,1.09A185.59,185.59,0,0,1,200.3,82.65a10,10,0,0,0,6.94-8.31l3.56-28.69c1.47-11.88,9.59-20.8,18.88-20.75l55.27.31c9.29.06,17.31,9.07,18.65,21l3.23,28.73a10,10,0,0,0,6.85,8.39,186.21,186.21,0,0,1,29.06,12.24,10,10,0,0,0,10.8-1l22.81-17.78c9.44-7.36,21.49-7.93,28-1.32l38.86,39.3c6.54,6.61,5.83,18.65-1.63,28l-18,22.6a10,10,0,0,0-1.08,10.79,186.66,186.66,0,0,1,11.91,29.2,10,10,0,0,0,8.31,6.94l28.69,3.56h0c11.88,1.47,20.8,9.59,20.75,18.88Z"/><path class="cls-1" d="M256.9,99.34C167.73,98.83,94.77,171,94.27,260.14a160.19,160.19,0,0,0,32.3,97.91A163,163,0,0,0,209.39,416a10,10,0,0,0,5.75-19.16c-59.75-17.95-101.23-74.1-100.87-136.55.44-78.15,64.37-141.36,142.52-140.92S398.15,183.71,397.7,261.86a141.67,141.67,0,0,1-106.85,136.6,10,10,0,0,0,2.39,19.69,9.51,9.51,0,0,0,2.52-.31A161.65,161.65,0,0,0,417.7,262C418.21,172.8,346.07,99.84,256.9,99.34Z"/><path class="cls-1" d="M334,308.44l-68-52.29.26-44.66a10,10,0,0,0-20-.12L246,261a10,10,0,0,0,3.9,8l72,55.31A10,10,0,1,0,334,308.44Z"/><circle class="cls-1" cx="256.51" cy="169.07" r="10"/><circle class="cls-1" cx="251.48" cy="412.75" r="10" transform="translate(-197.24 592.33) rotate(-80.46)"/></svg>