<svg id="Layer_1" data-name="Layer 1" xmlns="http://www.w3.org/2000/svg" viewBox="0 0 512 512"><defs><style>.cls-1{fill:#4a00e0;}</style></defs><title>time-night</title><path class="cls-1" d="M473.49,189.74h0l-22.42-2.66a206.31,206.31,0,0,0-8.41-20.29l14-17.73c13.69-17.36,13.65-40.81-.08-54.54L417.47,55.44c-13.73-13.74-37.18-13.77-54.54-.09l-17.73,14a208.77,208.77,0,0,0-20.29-8.41l-2.65-22.41C319.66,16.55,303.05,0,283.63,0H228.36c-19.42,0-36,16.56-38.63,38.51l-2.65,22.42a208.53,208.53,0,0,0-20.28,8.4l-17.73-14c-17.36-13.68-40.81-13.65-54.54.09L55.44,94.52c-13.73,13.73-13.77,37.18-.08,54.54l14,17.73a206.31,206.31,0,0,0-8.41,20.29l-22.42,2.65C16.56,192.33,0,208.93,0,228.36v55.27c0,19.42,16.55,36,38.51,38.62l22.41,2.66a208.77,208.77,0,0,0,8.41,20.29l-14,17.73c-13.68,17.36-13.65,40.81.09,54.54l39.08,39.09c13.73,13.73,37.18,13.77,54.54.08l17.73-14a203.89,203.89,0,0,0,20.29,8.41l2.65,22.42c2.6,22,19.2,38.51,38.63,38.51h55.27c19.42,0,36-16.55,38.63-38.51l2.65-22.41a206.55,206.55,0,0,0,20.3-8.42l17.73,14c17.36,13.69,40.81,13.65,54.54-.08l39.08-39.09c13.74-13.73,13.77-37.18.09-54.54l-14-17.73a208.77,208.77,0,0,0,8.41-20.29l22.41-2.65c22-2.6,38.51-19.21,38.51-38.63V228.36C512,208.93,495.45,192.33,473.49,189.74ZM492,283.63c0,9.29-9,17.36-20.85,18.76l-28.71,3.4a10,10,0,0,0-8.35,6.9A186.65,186.65,0,0,1,422,341.82a10,10,0,0,0,1,10.79l17.9,22.7c7.42,9.41,8.05,21.45,1.48,28l-39.08,39.08c-6.57,6.57-18.61,5.94-28-1.47L352.62,423a10,10,0,0,0-10.79-1,186.15,186.15,0,0,1-29.14,12.07,10,10,0,0,0-6.9,8.36l-3.39,28.7C301,483,292.92,492,283.63,492H228.36c-9.29,0-17.36-9-18.76-20.86l-3.4-28.7a10,10,0,0,0-6.9-8.36A186.44,186.44,0,0,1,170.17,422a10,10,0,0,0-10.79,1l-22.7,17.91c-9.41,7.41-21.45,8-28,1.48L69.58,403.33c-6.57-6.57-5.94-18.61,1.48-28L89,352.61a10,10,0,0,0,1-10.79,186.65,186.65,0,0,1-12.08-29.13,10,10,0,0,0-8.35-6.9l-28.7-3.4C29,301,20,292.92,20,283.63V228.36c0-9.29,9-17.36,20.86-18.76l28.7-3.4a10,10,0,0,0,8.36-6.9A186,186,0,0,1,90,170.17a10,10,0,0,0-1-10.79l-17.91-22.7c-7.41-9.41-8-21.45-1.47-28l39.08-39.08c6.57-6.57,18.61-5.94,28,1.48L159.39,89a10,10,0,0,0,10.79,1A185.93,185.93,0,0,1,199.3,77.92a10,10,0,0,0,6.9-8.36l3.39-28.7C211,29,219.07,20,228.36,20h55.27c9.29,0,17.36,9,18.76,20.85l3.4,28.71a10,10,0,0,0,6.9,8.35A186.65,186.65,0,0,1,341.82,90a10,10,0,0,0,10.79-1l22.71-17.9c9.4-7.41,21.44-8.05,28-1.48l39.09,39.08c6.56,6.57,5.93,18.61-1.48,28L423,159.38a10,10,0,0,0-1,10.79,186.6,186.6,0,0,1,12.07,29.13,10,10,0,0,0,8.36,6.9l28.7,3.39h0C483,211,492,219.07,492,228.36Z"/><path class="cls-1" d="M256,94.28C166.83,94.28,94.28,166.83,94.28,256a160.26,160.26,0,0,0,32.86,97.73,162.87,162.87,0,0,0,83.14,57.43A10,10,0,1,0,215.93,392c-59.85-17.61-101.65-73.53-101.65-136,0-78.14,63.57-141.72,141.72-141.72S397.72,177.85,397.72,256A141.66,141.66,0,0,1,291.65,393.2a10,10,0,0,0,2.5,19.69,9.89,9.89,0,0,0,2.51-.33A161.66,161.66,0,0,0,417.72,256C417.72,166.83,345.17,94.28,256,94.28Z"/><path class="cls-1" d="M334.32,302.94,266,251V206.38a10,10,0,0,0-20,0V256a10,10,0,0,0,3.95,8l72.28,54.9a10,10,0,1,0,12.09-15.92Z"/><circle class="cls-1" cx="256" cy="164.02" r="10"/><circle class="cls-1" cx="252.36" cy="407.72" r="10" transform="translate(-190.52 591.51) rotate(-80.78)"/></svg>