<svg id="Layer_1" data-name="Layer 1" xmlns="http://www.w3.org/2000/svg" viewBox="0 0 180 170"><defs><style>.cls-1,.cls-2{fill:none;}.cls-1{stroke:#4c626e;stroke-miterlimit:10;stroke-width:5px;opacity:0.3;isolation:isolate;}.cls-2{stroke:#00d1b2;stroke-linecap:round;stroke-linejoin:round;stroke-width:4px;}</style></defs><title>warehouse-teal</title><line class="cls-1" x1="148.5" y1="148.4" x2="39.1" y2="148.4"/><path class="cls-2" d="M54,148.4V81.2a7.49,7.49,0,0,1,7.5-7.5h64.7a7.49,7.49,0,0,1,7.5,7.5v67.2"/><line class="cls-2" x1="133.6" y1="135.9" x2="54" y2="135.9"/><line class="cls-2" x1="133.6" y1="123.5" x2="54" y2="123.5"/><line class="cls-2" x1="133.6" y1="111.1" x2="54" y2="111.1"/><line class="cls-2" x1="133.6" y1="98.6" x2="54" y2="98.6"/><line class="cls-2" x1="133.6" y1="86.2" x2="54" y2="86.2"/><line class="cls-1" x1="44.1" y1="58.8" x2="44.1" y2="145.9"/><line class="cls-1" x1="143.6" y1="58.8" x2="143.6" y2="145.9"/><path class="cls-1" d="M39.1,58.8l20.8-9.4a82.08,82.08,0,0,1,67.9,0l20.8,9.4"/><line class="cls-1" x1="86.4" y1="58.8" x2="101.3" y2="58.8"/><line class="cls-2" x1="54" y1="148.4" x2="133.6" y2="148.4"/></svg>