<svg id="Layer_1" data-name="Layer 1" xmlns="http://www.w3.org/2000/svg" viewBox="0 0 450 450"><defs><style>.cls-1,.cls-10,.cls-16,.cls-18{fill:#fff;}.cls-1,.cls-2,.cls-3,.cls-4,.cls-5,.cls-8{stroke:#0f7cff;}.cls-1,.cls-10,.cls-11,.cls-12,.cls-13,.cls-14,.cls-15,.cls-17,.cls-18,.cls-2,.cls-3,.cls-4,.cls-5,.cls-8,.cls-9{stroke-miterlimit:10;}.cls-2,.cls-5,.cls-9{fill:#0f7cff;}.cls-15,.cls-3{fill:#c5edf9;}.cls-10,.cls-11,.cls-12,.cls-15,.cls-3,.cls-5,.cls-8{stroke-linecap:round;}.cls-12,.cls-14,.cls-4,.cls-8{fill:none;}.cls-6{fill:#b8dff2;}.cls-7{fill:#236d9b;}.cls-10,.cls-11,.cls-12,.cls-13,.cls-14,.cls-15,.cls-17,.cls-18,.cls-9{stroke:#236d9b;}.cls-11{fill:#b9e5ef;}.cls-13{fill:#a2dffe;}.cls-17{fill:#056fd8;}</style></defs><title>drawing-2-blue</title><g id="Calque_9" data-name="Calque 9"><rect class="cls-1" x="228.4" y="111.2" width="142.6" height="109.3"/><rect class="cls-2" x="225.5" y="105.1" width="148.3" height="6.1"/><rect class="cls-2" x="225.1" y="220.5" width="149.1" height="2.6"/><circle class="cls-3" cx="265.8" cy="133.4" r="14.5"/><rect class="cls-4" x="299.8" y="144.4" width="50.2" height="2.6"/><rect class="cls-2" x="302.7" y="124.4" width="11" height="20.1"/><rect class="cls-2" x="319.2" y="118.9" width="10.3" height="25.5"/><rect class="cls-5" x="334.7" y="122.5" width="10.8" height="21.9"/><path class="cls-6" d="M281.2,153.6H249.8a.47.47,0,0,1-.5-.5v-.3a.47.47,0,0,1,.5-.5h31.4a.47.47,0,0,1,.5.5v.3A.54.54,0,0,1,281.2,153.6Z"/><path class="cls-6" d="M349.4,153.6H299.1a.47.47,0,0,1-.5-.5v-.3a.47.47,0,0,1,.5-.5h50.3a.47.47,0,0,1,.5.5v.3A.54.54,0,0,1,349.4,153.6Z"/><path class="cls-6" d="M349.4,181.4H249.7a.47.47,0,0,1-.5-.5v-.3a.47.47,0,0,1,.5-.5h99.7a.47.47,0,0,1,.5.5v.3A.47.47,0,0,1,349.4,181.4Z"/><path class="cls-6" d="M349.4,157.3H299.1a.47.47,0,0,1-.5-.5v-.3a.47.47,0,0,1,.5-.5h50.3a.47.47,0,0,1,.5.5v.3A.47.47,0,0,1,349.4,157.3Z"/><path class="cls-6" d="M349.4,161H299.1a.47.47,0,0,1-.5-.5v-.3a.47.47,0,0,1,.5-.5h50.3a.47.47,0,0,1,.5.5v.3A.47.47,0,0,1,349.4,161Z"/><path class="cls-6" d="M349.4,164.7H299.1a.47.47,0,0,1-.5-.5v-.3a.47.47,0,0,1,.5-.5h50.3a.47.47,0,0,1,.5.5v.3A.47.47,0,0,1,349.4,164.7Z"/><path class="cls-6" d="M349.4,168.5H299.1a.47.47,0,0,1-.5-.5v-.3a.47.47,0,0,1,.5-.5h50.3a.47.47,0,0,1,.5.5v.3A.54.54,0,0,1,349.4,168.5Z"/><path class="cls-6" d="M329.6,172.2H299.2a.47.47,0,0,1-.5-.5v-.3a.47.47,0,0,1,.5-.5h30.4a.47.47,0,0,1,.5.5v.3A.54.54,0,0,1,329.6,172.2Z"/><path class="cls-6" d="M281.2,157.3H249.8a.47.47,0,0,1-.5-.5v-.3a.47.47,0,0,1,.5-.5h31.4a.47.47,0,0,1,.5.5v.3A.47.47,0,0,1,281.2,157.3Z"/><path class="cls-6" d="M281.2,161H249.8a.47.47,0,0,1-.5-.5v-.3a.47.47,0,0,1,.5-.5h31.4a.47.47,0,0,1,.5.5v.3A.47.47,0,0,1,281.2,161Z"/><path class="cls-6" d="M317.3,185.9H249.8a.47.47,0,0,1-.5-.5v-.3a.47.47,0,0,1,.5-.5h67.5a.47.47,0,0,1,.5.5v.3A.47.47,0,0,1,317.3,185.9Z"/><path class="cls-6" d="M266.1,164.7H249.8a.47.47,0,0,1-.5-.5v-.3a.47.47,0,0,1,.5-.5h16.3a.47.47,0,0,1,.5.5v.3A.47.47,0,0,1,266.1,164.7Z"/><rect class="cls-6" x="250.3" y="191" width="11.3" height="5.6"/><rect class="cls-6" x="250.3" y="202.3" width="11.3" height="5.3"/><rect class="cls-6" x="267.4" y="191" width="11.3" height="5.6"/><rect class="cls-6" x="267.4" y="202.3" width="11.3" height="5.3"/><rect class="cls-7" x="284.4" y="191" width="11.3" height="5.6"/><rect class="cls-7" x="284.4" y="202.3" width="11.3" height="5.3"/><rect class="cls-6" x="301.4" y="191" width="11.3" height="5.6"/><rect class="cls-6" x="301.4" y="202.3" width="11.3" height="5.3"/><rect class="cls-6" x="318.5" y="191" width="11.3" height="5.6"/><rect class="cls-6" x="318.5" y="202.3" width="11.3" height="5.3"/><rect class="cls-6" x="335.5" y="191" width="11.3" height="5.6"/><rect class="cls-6" x="335.5" y="202.3" width="11.3" height="5.3"/><circle class="cls-4" cx="115.5" cy="130.4" r="17.4"/><path class="cls-4" d="M117.9,130.4a2.4,2.4,0,1,1-2.4-2.4,2,2,0,0,1,1.3.4A2.31,2.31,0,0,1,117.9,130.4Z"/><line class="cls-8" x1="116.8" y1="128.4" x2="119.5" y2="125.9"/><line class="cls-8" x1="116.8" y1="132.4" x2="121.5" y2="136.8"/><circle class="cls-1" cx="265.8" cy="133.4" r="9"/><path class="cls-9" d="M99.5,203.2s-4.4,2.5-5.7,1.6-2.1-5.1-2.3-6.7-2-5.3-1.9-7.8,0-12.1,12.1-15c0,0,5.8-1.2,15.9-.6,0,0,1.5.6,0,4.9,0,0,2.2,3.3,1.8,6.3a90.58,90.58,0,0,1-2.8,10.3l-9.7,2.4Z"/><polygon class="cls-10" points="99.5 214.7 100.7 204.8 109.4 206.5 110.4 207.2 109.9 215.6 99.5 214.7"/><path class="cls-11" d="M113.4,213.6s4.9-2.1,8.3-1.5,9.2,6.9,9.2,6.9l6.8,10.1-3.9,15.8-26.2-6.1Z"/><path class="cls-9" d="M86.9,275.2s-2.4,11.5,10.7,18.9a38.53,38.53,0,0,0,6.5,1h35.6l16.8,44.7h20.9l-27.2-59.6-25-1.7Z"/><path class="cls-9" d="M169.7,121.5l12.7,7.3,16.7-6.7s-.1-8,0-12.2-5.1-5.8-6.4-6.3-10.5-1.6-10.5-1.6c-.9-1.2-6.4-1.3-6.4-1.3v3.2c-4.7,1.2-5.9,4.6-5.9,4.6l-.3,13.5"/><polygon class="cls-10" points="174.4 152.5 180.1 140 189.6 140 193.2 154.6 178.3 158.4 174.4 152.5"/><path class="cls-9" d="M356.6,216.4l.4-30.6s2.3-12.3,15.5-13.6c0,0,14.2-.5,17.7,14v33.1l-14.7,2.3-16.7-2.4Z"/><polygon class="cls-10" points="368.7 203.5 368.7 215.2 379.4 215.2 378.3 202.7 368.7 203.5"/><polygon class="cls-9" points="203.7 225.7 204.7 338.6 191.3 338.6 185.8 249 174.8 332.1 174.8 338.6 163.9 337.3 162.2 221.8 203.7 225.7"/><path class="cls-10" d="M177.3,110.9h14.6s5.4,2.8,4.9,6.1l-.3,16.7a13.83,13.83,0,0,1-12,11.6s-8.5.1-11.9-10.3l-.5-19.2C172,115.7,173.4,110.9,177.3,110.9Z"/><path class="cls-12" d="M172.2,121.6a3.25,3.25,0,0,0-3.8,3.2c-.2,3.7,1.4,5.5,1.4,5.5l2.4,1.4"/><path class="cls-12" d="M196.7,121.5s3.6-.3,3.7,2.6a27.57,27.57,0,0,1-.6,5.5s-1.1,2.1-3,2"/><line class="cls-8" x1="175.5" y1="123.3" x2="180" y2="123.2"/><line class="cls-8" x1="188.5" y1="123.3" x2="193.5" y2="123.3"/><path class="cls-12" d="M186.1,124.5v9.7s-3,2.7-3.5-.6"/><circle class="cls-7" cx="177.9" cy="127.1" r="1.1"/><circle class="cls-7" cx="190.7" cy="127.1" r="1"/><path class="cls-12" d="M180.7,138.4a10.38,10.38,0,0,0,7,0"/><path class="cls-10" d="M204,260.1s6.9-5.8,8.1-9.2-.6-12.1-.6-12.1h-6.7l.1,13.2s.2,3,2.9.5l.1-6.7"/><path class="cls-13" d="M204.7,349H191.2l.1-10.5h13.4a54.87,54.87,0,0,1,2.7,7.3,5.87,5.87,0,0,1,0,3.1h-2.7Z"/><path class="cls-14" d="M176.7,107.8a13,13,0,0,1-.8-3.8"/><path class="cls-11" d="M325.3,252.2l25.9-35.5s5.3-6.6,9.2-2.4,2.9,13.2,2.9,13.2l-5.9,1.3-15,20.5h6l.1,11.1H325.3S321.6,255.3,325.3,252.2Z"/><path class="cls-15" d="M392.4,248.1l.3-16.6,12.6,17.6-12.8-.5-4.9-.2v12l26.5.2c10.8-3.1,5.3-11.5,5.3-11.5L400.5,223c-4.5-9.7-12.8-11-12.8-11s-17.3.3-24.7,0-8.6,6.8-8.6,6.8v58.5h38.2l.2-16"/><path class="cls-10" d="M348.4,251.9s4-.7,5.4,0,6.8,4.5,7.8,7.5,0,1.3,0,1.3l-13.1-.3Z"/><path class="cls-10" d="M329.5,295.1l-3.2,2.1-19.9,36.1.2,6.5s-15.2,3.5-16.4,3.2-2.1-2.2-2.1-2.2,5.9-6,8.7-8.1,14.9-46.5,14.9-46.5,13.8-8.9,16.2-9,19.9,0,19.9,0l-2.6,8.5"/><path class="cls-13" d="M288,340.8s-5.7,3.9-6.1,4.9a8.72,8.72,0,0,0-.2,2.5s20.5-1.3,24.1-2.7.7-5.8.7-5.8l-16.4,3.2C290.2,342.9,287.6,341.2,288,340.8Z"/><path class="cls-15" d="M394.5,301.6h-51a1.54,1.54,0,0,1-1.5-1.5v-6a1.54,1.54,0,0,1,1.5-1.5h51a1.54,1.54,0,0,1,1.5,1.5v6A1.54,1.54,0,0,1,394.5,301.6Z"/><path class="cls-15" d="M374.5,310.9H364a.27.27,0,0,1-.3-.3V302a.27.27,0,0,1,.3-.3h10.5a.27.27,0,0,1,.3.3v8.6A.32.32,0,0,1,374.5,310.9Z"/><rect class="cls-9" x="364.9" y="310.9" width="8.2" height="18.3"/><rect class="cls-15" x="363.7" y="329.1" width="11.2" height="6.8"/><path class="cls-9" d="M344.6,339.9a3.67,3.67,0,0,1,3.5-3.7c3.6-.4,42.9-.3,42.9-.3s3.4,1.5,3,4Z"/><circle class="cls-9" cx="348.4" cy="344.8" r="3.7"/><circle class="cls-9" cx="369.3" cy="344.8" r="3.7"/><circle class="cls-9" cx="390" cy="344.8" r="3.7"/><path class="cls-15" d="M135.1,304.5h-51a1.54,1.54,0,0,1-1.5-1.5v-6a1.54,1.54,0,0,1,1.5-1.5h51a1.54,1.54,0,0,1,1.5,1.5v6A1.54,1.54,0,0,1,135.1,304.5Z"/><path class="cls-15" d="M115.2,310.9H104.7a.27.27,0,0,1-.3-.3v-5.8a.27.27,0,0,1,.3-.3h10.5a.27.27,0,0,1,.3.3v5.8A.45.45,0,0,1,115.2,310.9Z"/><rect class="cls-9" x="105.6" y="310.9" width="8.2" height="18.3"/><rect class="cls-15" x="104.3" y="329.1" width="11.2" height="6.8"/><path class="cls-9" d="M85.2,339.9a3.67,3.67,0,0,1,3.5-3.7c3.6-.4,42.9-.3,42.9-.3s3.4,1.5,3,4Z"/><circle class="cls-9" cx="89" cy="344.8" r="3.7"/><circle class="cls-9" cx="109.9" cy="344.8" r="3.7"/><path class="cls-10" d="M344,260.4a5.62,5.62,0,0,1,5.8-4.8c5.2.1,41.8,0,41.8,0v5Z"/><circle class="cls-9" cx="130.6" cy="344.8" r="3.7"/><line class="cls-14" x1="382" y1="197.7" x2="383.4" y2="197.6"/><path class="cls-10" d="M381.7,193l1.6-.2c-.3,0-2.5-.6-3.6-6-1-5.2-7.4-5.4-7.4-5.4-2.8,5.4-10,5.2-10,5.2v12.2s1.7,8.5,10.7,8.7,10.4-8.4,10.4-8.4v-1.6a2.25,2.25,0,0,0,2-2.8c-.3-2.6-2.2-2-2.2-2"/><path class="cls-8" d="M374.8,190.6s2.4-.6,3.2,0"/><path class="cls-8" d="M364.6,190.5s3.1-.4,3.5,0"/><path class="cls-14" d="M369.8,202.3s.8,1.3,4.5,0"/><path class="cls-14" d="M369.8,197.7s.8.7,2.5,0"/><circle class="cls-7" cx="366.7" cy="193.7" r="0.7"/><circle class="cls-7" cx="376.2" cy="193.7" r="0.8"/><path class="cls-15" d="M86.9,261.3V278l38.3.5V219.6s1.3-6.2-7.1-7.7-27,0-27,0S85.9,213.4,81,220s-20.9,29.4-20.9,29.4-3.7,5.1,1.3,8.9c0,0,0,1.1,4.2,2.3l26.5.2V249.2l-17.7.2L87,232.3v16.6"/><line class="cls-14" x1="168.9" y1="339.8" x2="159.6" y2="312.9"/><path class="cls-10" d="M92,249.2h4.7L104,256s-.2,2.6-1.4,2.7-2.6,1.1-3.6.6-1.7.7-2.8.2-2.3.6-2.3.6H92V249.2Z"/><line class="cls-14" x1="95.4" y1="252.9" x2="99.6" y2="259"/><line class="cls-14" x1="94.1" y1="255.4" x2="96.1" y2="259"/><path class="cls-10" d="M120.4,260.8H168l8.2-35s-46.1-.3-48,0-3.4,4.8-3.4,4.8l-5.2,30.2H105.2l-.7-3.3,11.7-.3,5.4-28.4s1.3-5.5,11.5-3.9"/><path class="cls-10" d="M116.8,187.4l.5,6.8a2.45,2.45,0,0,1,2.1,2.7,3.47,3.47,0,0,1-2.6,2.9,9.59,9.59,0,0,1-4,6.7,12.76,12.76,0,0,1-10.3,1.9c-5.9-1.5-7-9-7-9s-1.1-.3-1.2-2.3a2.57,2.57,0,0,1,1.2-2.6l-.1-5.3s1.2-3.1,4.1-3.8,7.6.6,11.1-.4,4-1.9,4-1.9S117.1,185.9,116.8,187.4Z"/><circle class="cls-7" cx="103.6" cy="195.2" r="0.9"/><circle class="cls-7" cx="112.7" cy="195.2" r="0.9"/><line class="cls-8" x1="101.1" y1="191.6" x2="105.3" y2="191.6"/><line class="cls-8" x1="111.2" y1="192" x2="114.6" y2="192"/><path class="cls-14" d="M108.7,192.6l1.7,5.7s.6,2.2-.3,2.2h-2.2"/><line class="cls-12" x1="95.5" y1="194.7" x2="97.6" y2="194.7"/><line class="cls-12" x1="95.5" y1="199.5" x2="97" y2="199.5"/><path class="cls-14" d="M114.6,183.3a8.43,8.43,0,0,0,1.7-2.2"/><path class="cls-14" d="M104.5,203.1a4.55,4.55,0,0,0,4.9.4"/><path class="cls-10" d="M372.4,257.2l6.2-7.8h9.1v11l-6.2.2v-1.1s-1.8,0-2-1.5l-1.4,1.6s-2,.4-2.3-1.3C375.8,258.4,372.3,259.8,372.4,257.2Z"/><line class="cls-14" x1="375.8" y1="258.4" x2="379.9" y2="252.9"/><line class="cls-14" x1="379.4" y1="258.1" x2="383.1" y2="252.9"/><line class="cls-14" x1="381.5" y1="259.6" x2="385.1" y2="254.8"/><path class="cls-9" d="M340.7,277.3h51.9s1.1,12.7-13.9,14.6H340.6V277.3Z"/><path class="cls-13" d="M303.6,341.8s-5.7,2.5-5.9,4.5,5.9,1.9,5.9,1.9l14.7-2s6.5-4.4,7-4.9-3.1-5.6-3.2-6.1"/><path class="cls-10" d="M303.6,341.8s4.7-5.7,9.1-6.6l14.6-50.6s3.2-8.3,13.4-7.3v14.6s-18.3,40-18.5,41a15.12,15.12,0,0,0,0,3.1s-11.1,7.1-15.3,7S303.6,341.8,303.6,341.8Z"/><path class="cls-10" d="M156.5,193.8l1.8-37.4s2.1-5.3,5.7-5.3h38.3s6.5,1.5,6.5,8.4,3.6,79.2,3.6,79.2h-7.1l-.5-5H156.6V193.8Z"/><line class="cls-12" x1="202.7" y1="160.9" x2="204.7" y2="233.8"/><line class="cls-12" x1="165.1" y1="164.4" x2="163.9" y2="216.3"/><path class="cls-9" d="M182.8,159.7l-2.6-2.8a9.36,9.36,0,0,1,0-1.9c.1-1.2,3.6-2.5,3.6-2.5s3.7,1.6,3.6,3.3-2.3,3.8-2.3,3.8l1.5,2.5s-1.2,25.7-2.2,27.2-2.4-.6-2.4-.6-1.6-24.4-1.9-25.9S182.8,159.7,182.8,159.7Z"/><path class="cls-14" d="M374.3,177s.3,2.2-2.3,4.9"/><path class="cls-16" d="M122.8,246.8s2.2-20.6,5.5-20.3a15.8,15.8,0,0,0,4.5,0l-7.5,20.6Z"/><rect class="cls-10" x="53.4" y="260" width="351.4" height="9.5"/><line class="cls-12" x1="59.2" y1="269.5" x2="59.2" y2="349.2"/><line class="cls-12" x1="69.5" y1="269.5" x2="69.5" y2="349.2"/><line class="cls-12" x1="379.1" y1="269.5" x2="379.1" y2="348.9"/><line class="cls-12" x1="389.6" y1="269.5" x2="389.6" y2="348.9"/><path class="cls-15" d="M334.4,203.2s7.1-.9,8.3,3.5v35.1s-2.2,5.3-7.7,3.5-16.3-14.1-16.3-14.1Z"/><polygon class="cls-12" points="321.8 242.8 321.8 249.3 329.8 258 330.2 260 295.8 260 304.5 240.6 321.8 242.8"/><path class="cls-10" d="M277,209.2v36.1h58s4.9-.8,4-7l.1-31.4s-.8-3.9-4.7-3.8-55,0-55,0a3.89,3.89,0,0,0-2.5,3.5Z"/><polygon class="cls-13" points="244.3 342.7 267 334.9 270.8 334.9 273.9 348.3 244.3 348.7 244.3 342.7"/><path class="cls-10" d="M200.1,226.2a16,16,0,0,1,2.1-2.5c.7-.6,8.6-4.9,8.6-4.9a1.45,1.45,0,0,1,1.2,0c.6.3,5.3-3.3,5.3-3.3s2.8-1.8,2.7,2.1c0,0-6.4,6.9-8.1,7.8s-4.3,2.4-4.3,2.4l-2.8,3.4Z"/><path class="cls-12" d="M206.9,224.5l5.1-3.3s.7-1.7,0-2.5"/><path class="cls-10" d="M158.8,289.4l14.2-.5s-8.1,42.3-8.7,44,10.7,6.7,10,8.2-16.8-2.4-16.8-2.4l-2-2.4s.9-41.8,1.8-43.3a10.39,10.39,0,0,0,1.2-4.1"/><path class="cls-10" d="M178.2,281.6s6.5-2.2,11.4,2.6-3.4,30.4-3.4,30.4l-3.3,18.3,9.4,8.4s-.4,1.4-2.9,1.4-15-5.8-15-5.8l1.8-50.3Z"/><path class="cls-13" d="M155.5,336.3l-.6,12H158l1-4.3s11.4,6.3,20.7,4.5a4.54,4.54,0,0,0-2.2-6c-4-2.1-4.1-2.9-4.1-2.9s2.7,2-.6,1.7-15.2-2.7-15.2-2.7Z"/><path class="cls-10" d="M148.7,214.2V199.8L145.3,186l16.3-7.1,5.4.8,3.4,12.7-2.6,1.8a12.26,12.26,0,0,1-.4,2.4c-.3.9.4,5.3-5.2,6s-1.5,2.3-1.5,2.3L160,215Z"/><path class="cls-9" d="M167.4,174.5s-6.3-5.5-17.9-3.2-13.4,20.3-13.4,20.3-.3,11.3.6,14.6c0,0,25.3,1.9,29,.3,0,0-2.7-11.4-2.3-12.5a4.21,4.21,0,0,1-1.6-3.7c.2-2.6,2.1-2.7,2.1-2.7s-.1-5.8,4.2-8.8A4.29,4.29,0,0,0,167.4,174.5Z"/><path class="cls-12" d="M221.4,256.8s-.9,3.4,0,3.4h16.8v-2.7l-3.7-1.2Z"/><path class="cls-10" d="M223.5,254.2c.4-.2,10.3-3.8,10.3-3.8l6.6.6.6,5.7a27.69,27.69,0,0,1-6.6.5c-2.5-.3-6.1,1.1-6.1,1.1l-2.3-1-3.3-1.3Z"/><line class="cls-12" x1="225.2" y1="257" x2="234.5" y2="253.6"/><path class="cls-17" d="M261.9,288l-1.5,48.9h12.3s6.1-46.4,5.2-50.2S261.9,288,261.9,288Z"/><path class="cls-13" d="M218.9,345.1c.3-.4,24.5-9.6,24.5-9.6l7.1-.6,1.3,4.3v9.6l-32.2-.5C219.5,348.3,217,347.4,218.9,345.1Z"/><path class="cls-10" d="M284.4,213.1l.4-6.6s-6.8-2.6-7.4-9.8c0,0-2.4-.9-2.7-2.4s3.1-7.7,3.1-7.7l-1.1-2.1s-.4-6.3,2.7-8.1,16.8-1.9,16.8-1.9l5.8,5.6-.9,17.3-4.4,3.9-.1,13-11.4,1.2Z"/><path class="cls-12" d="M290.3,207.7s-4.8-.3-5.5-1.2"/><path class="cls-12" d="M281.7,198.9s-.5,1-3.6.9"/><line class="cls-8" x1="278.8" y1="184.5" x2="284" y2="184.3"/><circle class="cls-7" cx="282" cy="188.5" r="1.2"/><path class="cls-9" d="M275.3,167.6s-2.7,7.8,3.9,10.8l11.6.4s4.9,5.7,3.3,9.7l-.1,1.2s5.9,2,.7,5.7c0,0-.3,5.8-1.1,7.2s7.7,1,9.5-1.1,3.2-9.8,3.2-9.8,3.9-8.8-.5-16.1a18.57,18.57,0,0,0-12.3-8.4l-17.9-.2Z"/><path class="cls-9" d="M129,275.5l-1.8,13.1,6.5,6.6h42l6.6-14.2s-28.6-4.9-33.5-5.5-13.7,0-13.7,0Z"/><path class="cls-13" d="M174.4,336.9l-.4,11.3h3.8l.2-4.3s9.8,4.9,15.4,4.3l5.6-.5s.9-3.9-3.5-5.1-3.2-1.2-3.2-1.2a3.08,3.08,0,0,1-2.9,1.4C187.2,342.6,174.4,336.9,174.4,336.9Z"/><path class="cls-9" d="M239.4,337.9h12.9s4-40.9,3.9-42.7,56.6,0,56.6,0V269.7l-36.7-1.3-5.4,10.1H250.8s-10.3,5.3-9.4,13.5S239.4,337.9,239.4,337.9Z"/><path class="cls-15" d="M270.7,278.5h43.9V219.6s-.1-7.4-11.2-8.4-28.8,0-28.8,0-5.7,2.7-6.6,8.7-11.5,27.2-11.5,27.2-14,2.5-18.8,1.9c0,0,.9,10.3.3,11s25.4.3,25.4.3,5.9-5,7.1-7.4,1.2,3.6,1.2,3.6Z"/><line class="cls-12" x1="282.6" y1="228.1" x2="270.5" y2="252.7"/><line class="cls-12" x1="164.9" y1="231" x2="168.8" y2="240.1"/><path class="cls-15" d="M125.2,282.1l9.3-63.2s3.8-7.2,10.5-7.4,24.9,0,24.9,0,4.6,2.4,5.6,5.9,10.8,24.3,10.8,24.3l11.9-17.6L206,232s-12.3,22.2-13.2,23.6-3.7,4.9-8.2,4.9-7.9-3.8-7.9-3.8l-7.8-16.6s-3,5.7-5.9,7.2l-4.2,29.4-17.2-.5Z"/><line class="cls-12" x1="164.9" y1="228.5" x2="168.8" y2="240.6"/><polygon class="cls-18" points="129.1 301.1 129.7 348.4 132.2 348.4 134.3 299.8 129.1 301.1"/><polygon class="cls-18" points="158.9 301.3 160.6 349 163.1 349 163.1 300.9 158.9 301.3"/><path class="cls-13" d="M116.6,250.8l6,50.3a3.69,3.69,0,0,0,4.3,4h38.8a3.65,3.65,0,0,0,2.5-3.6,29.9,29.9,0,0,0,0-3.7s0-2.7-3.4-2.6l-6.3.2-9.2-45.6s-.4-2.6-4.1-2.2-26.9,0-26.9,0S116,247.7,116.6,250.8Z"/><line class="cls-14" x1="159.4" y1="299.2" x2="158.5" y2="295.4"/><path class="cls-13" d="M318.9,304.9H271.1s-3.3-.1-3-3.3,0-3.5,0-3.5a3,3,0,0,1,3.5-2.7c3.3.3,14.5,0,14.5,0l9.5-45.5a3.26,3.26,0,0,1,3.2-2.3c2.5.2,28.3.4,28.3.4s1.7.2,1.2,3.3-6.3,50.8-6.3,50.8A2.72,2.72,0,0,1,318.9,304.9Z"/><line class="cls-14" x1="285" y1="298.9" x2="286.1" y2="295.4"/><path class="cls-13" d="M300.2,311.9H289.7a.32.32,0,0,1-.3-.3v-6.4a.32.32,0,0,1,.3-.3h10.5a.32.32,0,0,1,.3.3v6.4A.32.32,0,0,1,300.2,311.9Z"/><rect class="cls-9" x="291" y="311.9" width="8.1" height="17.9"/><path class="cls-13" d="M300,336.4H289.8a.43.43,0,0,1-.4-.4v-5.8a.43.43,0,0,1,.4-.4H300a.43.43,0,0,1,.4.4V336C300.5,336.2,300.3,336.4,300,336.4Z"/><path class="cls-13" d="M270.4,340.7s1.2-4.3,4.1-4.3h42.3a5.67,5.67,0,0,1,3.1,4.1Z"/><circle class="cls-13" cx="274.4" cy="344.7" r="3.2"/><circle class="cls-13" cx="295.2" cy="344.7" r="3.2"/><circle class="cls-13" cx="315.9" cy="344.7" r="3.2"/><line class="cls-12" x1="15" y1="349.2" x2="435" y2="349.2"/></g></svg>