<svg id="Layer_1" data-name="Layer 1" xmlns="http://www.w3.org/2000/svg" viewBox="0 0 450 450"><defs><style>.cls-1,.cls-10,.cls-16,.cls-18{fill:#fff;}.cls-1,.cls-2,.cls-3,.cls-4,.cls-5,.cls-8{stroke:#837fcb;}.cls-1,.cls-10,.cls-11,.cls-12,.cls-13,.cls-14,.cls-15,.cls-17,.cls-18,.cls-19,.cls-2,.cls-3,.cls-4,.cls-5,.cls-8,.cls-9{stroke-miterlimit:10;}.cls-2,.cls-5,.cls-9{fill:#837fcb;}.cls-3{fill:#d7d7ff;}.cls-10,.cls-11,.cls-12,.cls-13,.cls-3,.cls-5,.cls-8{stroke-linecap:round;}.cls-12,.cls-13,.cls-15,.cls-4,.cls-8{fill:none;}.cls-6{fill:#b8dff2;}.cls-7{fill:#236d9b;}.cls-10,.cls-11,.cls-12,.cls-14,.cls-15,.cls-17,.cls-18,.cls-19,.cls-9{stroke:#236d9b;}.cls-11{fill:#f3f3ff;}.cls-13{stroke:#8c8cf9;}.cls-14{fill:#babaf7;}.cls-17{fill:#6b6bd6;}.cls-19{fill:#8c8cf9;}</style></defs><title>drawing-2-purple</title><g id="Calque_9" data-name="Calque 9"><rect class="cls-1" x="227.27" y="111.2" width="142.6" height="109.3"/><rect class="cls-2" x="224.37" y="105.1" width="148.3" height="6.1"/><rect class="cls-2" x="223.97" y="220.5" width="149.1" height="2.6"/><circle class="cls-3" cx="264.67" cy="133.4" r="14.5"/><rect class="cls-4" x="298.67" y="144.4" width="50.2" height="2.6"/><rect class="cls-2" x="301.57" y="124.4" width="11" height="20.1"/><rect class="cls-2" x="318.07" y="118.9" width="10.3" height="25.5"/><rect class="cls-5" x="333.57" y="122.5" width="10.8" height="21.9"/><path class="cls-6" d="M280.07,153.6h-31.4a.47.47,0,0,1-.5-.5v-.3a.47.47,0,0,1,.5-.5h31.4a.47.47,0,0,1,.5.5v.3A.54.54,0,0,1,280.07,153.6Z"/><path class="cls-6" d="M348.27,153.6H298a.47.47,0,0,1-.5-.5v-.3a.47.47,0,0,1,.5-.5h50.3a.47.47,0,0,1,.5.5v.3A.54.54,0,0,1,348.27,153.6Z"/><path class="cls-6" d="M348.27,181.4h-99.7a.47.47,0,0,1-.5-.5v-.3a.47.47,0,0,1,.5-.5h99.7a.47.47,0,0,1,.5.5v.3A.47.47,0,0,1,348.27,181.4Z"/><path class="cls-6" d="M348.27,157.3H298a.47.47,0,0,1-.5-.5v-.3a.47.47,0,0,1,.5-.5h50.3a.47.47,0,0,1,.5.5v.3A.47.47,0,0,1,348.27,157.3Z"/><path class="cls-6" d="M348.27,161H298a.47.47,0,0,1-.5-.5v-.3a.47.47,0,0,1,.5-.5h50.3a.47.47,0,0,1,.5.5v.3A.47.47,0,0,1,348.27,161Z"/><path class="cls-6" d="M348.27,164.7H298a.47.47,0,0,1-.5-.5v-.3a.47.47,0,0,1,.5-.5h50.3a.47.47,0,0,1,.5.5v.3A.47.47,0,0,1,348.27,164.7Z"/><path class="cls-6" d="M348.27,168.5H298a.47.47,0,0,1-.5-.5v-.3a.47.47,0,0,1,.5-.5h50.3a.47.47,0,0,1,.5.5v.3A.54.54,0,0,1,348.27,168.5Z"/><path class="cls-6" d="M328.47,172.2h-30.4a.47.47,0,0,1-.5-.5v-.3a.47.47,0,0,1,.5-.5h30.4a.47.47,0,0,1,.5.5v.3A.54.54,0,0,1,328.47,172.2Z"/><path class="cls-6" d="M280.07,157.3h-31.4a.47.47,0,0,1-.5-.5v-.3a.47.47,0,0,1,.5-.5h31.4a.47.47,0,0,1,.5.5v.3A.47.47,0,0,1,280.07,157.3Z"/><path class="cls-6" d="M280.07,161h-31.4a.47.47,0,0,1-.5-.5v-.3a.47.47,0,0,1,.5-.5h31.4a.47.47,0,0,1,.5.5v.3A.47.47,0,0,1,280.07,161Z"/><path class="cls-6" d="M316.17,185.9h-67.5a.47.47,0,0,1-.5-.5v-.3a.47.47,0,0,1,.5-.5h67.5a.47.47,0,0,1,.5.5v.3A.47.47,0,0,1,316.17,185.9Z"/><path class="cls-6" d="M265,164.7h-16.3a.47.47,0,0,1-.5-.5v-.3a.47.47,0,0,1,.5-.5H265a.47.47,0,0,1,.5.5v.3A.47.47,0,0,1,265,164.7Z"/><rect class="cls-6" x="249.17" y="191" width="11.3" height="5.6"/><rect class="cls-6" x="249.17" y="202.3" width="11.3" height="5.3"/><rect class="cls-6" x="266.27" y="191" width="11.3" height="5.6"/><rect class="cls-6" x="266.27" y="202.3" width="11.3" height="5.3"/><rect class="cls-7" x="283.27" y="191" width="11.3" height="5.6"/><rect class="cls-7" x="283.27" y="202.3" width="11.3" height="5.3"/><rect class="cls-6" x="300.27" y="191" width="11.3" height="5.6"/><rect class="cls-6" x="300.27" y="202.3" width="11.3" height="5.3"/><rect class="cls-6" x="317.37" y="191" width="11.3" height="5.6"/><rect class="cls-6" x="317.37" y="202.3" width="11.3" height="5.3"/><rect class="cls-6" x="334.37" y="191" width="11.3" height="5.6"/><rect class="cls-6" x="334.37" y="202.3" width="11.3" height="5.3"/><circle class="cls-4" cx="114.37" cy="130.4" r="17.4"/><path class="cls-4" d="M116.77,130.4a2.4,2.4,0,1,1-2.4-2.4,2,2,0,0,1,1.3.4A2.31,2.31,0,0,1,116.77,130.4Z"/><line class="cls-8" x1="115.67" y1="128.4" x2="118.37" y2="125.9"/><line class="cls-8" x1="115.67" y1="132.4" x2="120.37" y2="136.8"/><circle class="cls-1" cx="264.67" cy="133.4" r="9"/><path class="cls-9" d="M98.37,203.2s-4.4,2.5-5.7,1.6-2.1-5.1-2.3-6.7-2-5.3-1.9-7.8,0-12.1,12.1-15c0,0,5.8-1.2,15.9-.6,0,0,1.5.6,0,4.9,0,0,2.2,3.3,1.8,6.3a90.58,90.58,0,0,1-2.8,10.3l-9.7,2.4Z"/><polygon class="cls-10" points="98.37 214.7 99.57 204.8 108.27 206.5 109.27 207.2 108.77 215.6 98.37 214.7"/><path class="cls-11" d="M112.27,213.6s4.9-2.1,8.3-1.5,9.2,6.9,9.2,6.9l6.8,10.1-3.9,15.8-26.2-6.1Z"/><path class="cls-9" d="M85.77,275.2s-2.4,11.5,10.7,18.9a38.53,38.53,0,0,0,6.5,1h35.6l16.8,44.7h20.9l-27.2-59.6-25-1.7Z"/><path class="cls-9" d="M168.57,121.5l12.7,7.3,16.7-6.7s-.1-8,0-12.2-5.1-5.8-6.4-6.3-10.5-1.6-10.5-1.6c-.9-1.2-6.4-1.3-6.4-1.3v3.2c-4.7,1.2-5.9,4.6-5.9,4.6l-.3,13.5"/><polygon class="cls-10" points="173.27 152.5 178.97 140 188.47 140 192.07 154.6 177.17 158.4 173.27 152.5"/><path class="cls-9" d="M355.47,216.4l.4-30.6s2.3-12.3,15.5-13.6c0,0,14.2-.5,17.7,14v33.1l-14.7,2.3-16.7-2.4Z"/><polygon class="cls-10" points="367.57 203.5 367.57 215.2 378.27 215.2 377.17 202.7 367.57 203.5"/><polygon class="cls-9" points="202.57 225.7 203.57 338.6 190.17 338.6 184.67 249 173.67 332.1 173.67 338.6 162.77 337.3 161.07 221.8 202.57 225.7"/><path class="cls-10" d="M176.17,110.9h14.6s5.4,2.8,4.9,6.1l-.3,16.7a13.83,13.83,0,0,1-12,11.6s-8.5.1-11.9-10.3l-.5-19.2C170.87,115.7,172.27,110.9,176.17,110.9Z"/><path class="cls-12" d="M171.07,121.6a3.25,3.25,0,0,0-3.8,3.2c-.2,3.7,1.4,5.5,1.4,5.5l2.4,1.4"/><path class="cls-12" d="M195.57,121.5s3.6-.3,3.7,2.6a27.57,27.57,0,0,1-.6,5.5s-1.1,2.1-3,2"/><line class="cls-13" x1="174.37" y1="123.3" x2="178.87" y2="123.2"/><line class="cls-13" x1="187.37" y1="123.3" x2="192.37" y2="123.3"/><path class="cls-12" d="M185,124.5v9.7s-3,2.7-3.5-.6"/><circle class="cls-7" cx="176.77" cy="127.1" r="1.1"/><circle class="cls-7" cx="189.57" cy="127.1" r="1"/><path class="cls-12" d="M179.57,138.4a10.38,10.38,0,0,0,7,0"/><path class="cls-10" d="M202.87,260.1s6.9-5.8,8.1-9.2-.6-12.1-.6-12.1h-6.7l.1,13.2s.2,3,2.9.5l.1-6.7"/><path class="cls-14" d="M203.57,349h-13.5l.1-10.5h13.4a54.87,54.87,0,0,1,2.7,7.3,5.87,5.87,0,0,1,0,3.1h-2.7Z"/><path class="cls-15" d="M175.57,107.8a13,13,0,0,1-.8-3.8"/><path class="cls-11" d="M324.17,252.2l25.9-35.5s5.3-6.6,9.2-2.4,2.9,13.2,2.9,13.2l-5.9,1.3-15,20.5h6l.1,11.1h-23.2S320.47,255.3,324.17,252.2Z"/><path class="cls-11" d="M391.27,248.1l.3-16.6,12.6,17.6-12.8-.5-4.9-.2v12l26.5.2c10.8-3.1,5.3-11.5,5.3-11.5L399.37,223c-4.5-9.7-12.8-11-12.8-11s-17.3.3-24.7,0-8.6,6.8-8.6,6.8v58.5h38.2l.2-16"/><path class="cls-10" d="M347.27,251.9s4-.7,5.4,0,6.8,4.5,7.8,7.5,0,1.3,0,1.3l-13.1-.3Z"/><path class="cls-10" d="M328.37,295.1l-3.2,2.1-19.9,36.1.2,6.5s-15.2,3.5-16.4,3.2-2.1-2.2-2.1-2.2,5.9-6,8.7-8.1,14.9-46.5,14.9-46.5,13.8-8.9,16.2-9,19.9,0,19.9,0l-2.6,8.5"/><path class="cls-14" d="M286.87,340.8s-5.7,3.9-6.1,4.9a8.72,8.72,0,0,0-.2,2.5s20.5-1.3,24.1-2.7.7-5.8.7-5.8L289,342.9C289.07,342.9,286.47,341.2,286.87,340.8Z"/><path class="cls-11" d="M393.37,301.6h-51a1.54,1.54,0,0,1-1.5-1.5v-6a1.54,1.54,0,0,1,1.5-1.5h51a1.54,1.54,0,0,1,1.5,1.5v6A1.54,1.54,0,0,1,393.37,301.6Z"/><path class="cls-11" d="M373.37,310.9h-10.5a.27.27,0,0,1-.3-.3V302a.27.27,0,0,1,.3-.3h10.5a.27.27,0,0,1,.3.3v8.6A.32.32,0,0,1,373.37,310.9Z"/><rect class="cls-9" x="363.77" y="310.9" width="8.2" height="18.3"/><rect class="cls-11" x="362.57" y="329.1" width="11.2" height="6.8"/><path class="cls-9" d="M343.47,339.9a3.67,3.67,0,0,1,3.5-3.7c3.6-.4,42.9-.3,42.9-.3s3.4,1.5,3,4Z"/><circle class="cls-9" cx="347.27" cy="344.8" r="3.7"/><circle class="cls-9" cx="368.17" cy="344.8" r="3.7"/><circle class="cls-9" cx="388.87" cy="344.8" r="3.7"/><path class="cls-11" d="M134,304.5H83a1.54,1.54,0,0,1-1.5-1.5v-6a1.54,1.54,0,0,1,1.5-1.5h51a1.54,1.54,0,0,1,1.5,1.5v6A1.54,1.54,0,0,1,134,304.5Z"/><path class="cls-11" d="M114.07,310.9h-10.5a.27.27,0,0,1-.3-.3v-5.8a.27.27,0,0,1,.3-.3h10.5a.27.27,0,0,1,.3.3v5.8A.45.45,0,0,1,114.07,310.9Z"/><rect class="cls-9" x="104.47" y="310.9" width="8.2" height="18.3"/><rect class="cls-11" x="103.17" y="329.1" width="11.2" height="6.8"/><path class="cls-9" d="M84.07,339.9a3.67,3.67,0,0,1,3.5-3.7c3.6-.4,42.9-.3,42.9-.3s3.4,1.5,3,4Z"/><circle class="cls-9" cx="87.87" cy="344.8" r="3.7"/><circle class="cls-9" cx="108.77" cy="344.8" r="3.7"/><path class="cls-10" d="M342.87,260.4a5.62,5.62,0,0,1,5.8-4.8c5.2.1,41.8,0,41.8,0v5Z"/><circle class="cls-9" cx="129.47" cy="344.8" r="3.7"/><line class="cls-15" x1="380.87" y1="197.7" x2="382.27" y2="197.6"/><path class="cls-10" d="M380.57,193l1.6-.2c-.3,0-2.5-.6-3.6-6-1-5.2-7.4-5.4-7.4-5.4-2.8,5.4-10,5.2-10,5.2v12.2s1.7,8.5,10.7,8.7,10.4-8.4,10.4-8.4v-1.6a2.25,2.25,0,0,0,2-2.8c-.3-2.6-2.2-2-2.2-2"/><path class="cls-13" d="M373.67,190.6s2.4-.6,3.2,0"/><path class="cls-13" d="M363.47,190.5s3.1-.4,3.5,0"/><path class="cls-15" d="M368.67,202.3s.8,1.3,4.5,0"/><path class="cls-15" d="M368.67,197.7s.8.7,2.5,0"/><circle class="cls-7" cx="365.57" cy="193.7" r="0.7"/><circle class="cls-7" cx="375.07" cy="193.7" r="0.8"/><path class="cls-11" d="M85.77,261.3V278l38.3.5V219.6s1.3-6.2-7.1-7.7-27,0-27,0-5.2,1.5-10.1,8.1S59,249.4,59,249.4s-3.7,5.1,1.3,8.9c0,0,0,1.1,4.2,2.3l26.5.2V249.2l-17.7.2,12.6-17.1v16.6"/><line class="cls-15" x1="167.77" y1="339.8" x2="158.47" y2="312.9"/><path class="cls-10" d="M90.87,249.2h4.7l7.3,6.8s-.2,2.6-1.4,2.7-2.6,1.1-3.6.6-1.7.7-2.8.2-2.3.6-2.3.6h-1.9V249.2Z"/><line class="cls-15" x1="94.27" y1="252.9" x2="98.47" y2="259"/><line class="cls-15" x1="92.97" y1="255.4" x2="94.97" y2="259"/><path class="cls-10" d="M119.27,260.8h47.6l8.2-35s-46.1-.3-48,0-3.4,4.8-3.4,4.8l-5.2,30.2h-14.4l-.7-3.3,11.7-.3,5.4-28.4s1.3-5.5,11.5-3.9"/><path class="cls-10" d="M115.67,187.4l.5,6.8a2.45,2.45,0,0,1,2.1,2.7,3.47,3.47,0,0,1-2.6,2.9,9.59,9.59,0,0,1-4,6.7,12.76,12.76,0,0,1-10.3,1.9c-5.9-1.5-7-9-7-9s-1.1-.3-1.2-2.3a2.57,2.57,0,0,1,1.2-2.6l-.1-5.3s1.2-3.1,4.1-3.8,7.6.6,11.1-.4,4-1.9,4-1.9S116,185.9,115.67,187.4Z"/><circle class="cls-7" cx="102.47" cy="195.2" r="0.9"/><circle class="cls-7" cx="111.57" cy="195.2" r="0.9"/><line class="cls-13" x1="99.97" y1="191.6" x2="104.17" y2="191.6"/><line class="cls-13" x1="110.07" y1="192" x2="113.47" y2="192"/><path class="cls-15" d="M107.57,192.6l1.7,5.7s.6,2.2-.3,2.2h-2.2"/><line class="cls-12" x1="94.37" y1="194.7" x2="96.47" y2="194.7"/><line class="cls-12" x1="94.37" y1="199.5" x2="95.87" y2="199.5"/><path class="cls-15" d="M113.47,183.3a8.43,8.43,0,0,0,1.7-2.2"/><path class="cls-15" d="M103.37,203.1a4.55,4.55,0,0,0,4.9.4"/><path class="cls-10" d="M371.27,257.2l6.2-7.8h9.1v11l-6.2.2v-1.1s-1.8,0-2-1.5l-1.4,1.6s-2,.4-2.3-1.3C374.67,258.4,371.17,259.8,371.27,257.2Z"/><line class="cls-15" x1="374.67" y1="258.4" x2="378.77" y2="252.9"/><line class="cls-15" x1="378.27" y1="258.1" x2="381.97" y2="252.9"/><line class="cls-15" x1="380.37" y1="259.6" x2="383.97" y2="254.8"/><path class="cls-9" d="M339.57,277.3h51.9s1.1,12.7-13.9,14.6h-38.1V277.3Z"/><path class="cls-14" d="M302.47,341.8s-5.7,2.5-5.9,4.5,5.9,1.9,5.9,1.9l14.7-2s6.5-4.4,7-4.9-3.1-5.6-3.2-6.1"/><path class="cls-10" d="M302.47,341.8s4.7-5.7,9.1-6.6l14.6-50.6s3.2-8.3,13.4-7.3v14.6s-18.3,40-18.5,41a15.12,15.12,0,0,0,0,3.1s-11.1,7.1-15.3,7S302.47,341.8,302.47,341.8Z"/><path class="cls-10" d="M155.37,193.8l1.8-37.4s2.1-5.3,5.7-5.3h38.3s6.5,1.5,6.5,8.4,3.6,79.2,3.6,79.2h-7.1l-.5-5h-48.2V193.8Z"/><line class="cls-12" x1="201.57" y1="160.9" x2="203.57" y2="233.8"/><line class="cls-12" x1="163.97" y1="164.4" x2="162.77" y2="216.3"/><path class="cls-9" d="M181.67,159.7l-2.6-2.8a9.36,9.36,0,0,1,0-1.9c.1-1.2,3.6-2.5,3.6-2.5s3.7,1.6,3.6,3.3-2.3,3.8-2.3,3.8l1.5,2.5s-1.2,25.7-2.2,27.2-2.4-.6-2.4-.6-1.6-24.4-1.9-25.9S181.67,159.7,181.67,159.7Z"/><path class="cls-15" d="M373.17,177s.3,2.2-2.3,4.9"/><path class="cls-16" d="M121.67,246.8s2.2-20.6,5.5-20.3a15.8,15.8,0,0,0,4.5,0l-7.5,20.6Z"/><rect class="cls-10" x="52.27" y="260" width="351.4" height="9.5"/><line class="cls-12" x1="58.07" y1="269.5" x2="58.07" y2="349.2"/><line class="cls-12" x1="68.37" y1="269.5" x2="68.37" y2="349.2"/><line class="cls-12" x1="377.97" y1="269.5" x2="377.97" y2="348.9"/><line class="cls-12" x1="388.47" y1="269.5" x2="388.47" y2="348.9"/><path class="cls-11" d="M333.27,203.2s7.1-.9,8.3,3.5v35.1s-2.2,5.3-7.7,3.5-16.3-14.1-16.3-14.1Z"/><polygon class="cls-12" points="320.67 242.8 320.67 249.3 328.67 258 329.07 260 294.67 260 303.37 240.6 320.67 242.8"/><path class="cls-10" d="M275.87,209.2v36.1h58s4.9-.8,4-7l.1-31.4s-.8-3.9-4.7-3.8-55,0-55,0a3.89,3.89,0,0,0-2.5,3.5Z"/><polygon class="cls-14" points="243.17 342.7 265.87 334.9 269.67 334.9 272.77 348.3 243.17 348.7 243.17 342.7"/><path class="cls-10" d="M199,226.2a16,16,0,0,1,2.1-2.5c.7-.6,8.6-4.9,8.6-4.9a1.45,1.45,0,0,1,1.2,0c.6.3,5.3-3.3,5.3-3.3s2.8-1.8,2.7,2.1c0,0-6.4,6.9-8.1,7.8s-4.3,2.4-4.3,2.4l-2.8,3.4Z"/><path class="cls-12" d="M205.77,224.5l5.1-3.3s.7-1.7,0-2.5"/><path class="cls-10" d="M157.67,289.4l14.2-.5s-8.1,42.3-8.7,44,10.7,6.7,10,8.2-16.8-2.4-16.8-2.4l-2-2.4s.9-41.8,1.8-43.3a10.39,10.39,0,0,0,1.2-4.1"/><path class="cls-10" d="M177.07,281.6s6.5-2.2,11.4,2.6-3.4,30.4-3.4,30.4l-3.3,18.3,9.4,8.4s-.4,1.4-2.9,1.4-15-5.8-15-5.8l1.8-50.3Z"/><path class="cls-14" d="M154.37,336.3l-.6,12h3.1l1-4.3s11.4,6.3,20.7,4.5a4.54,4.54,0,0,0-2.2-6c-4-2.1-4.1-2.9-4.1-2.9s2.7,2-.6,1.7-15.2-2.7-15.2-2.7Z"/><path class="cls-10" d="M147.57,214.2V199.8l-3.4-13.8,16.3-7.1,5.4.8,3.4,12.7-2.6,1.8a12.26,12.26,0,0,1-.4,2.4c-.3.9.4,5.3-5.2,6s-1.5,2.3-1.5,2.3l-.7,10.1Z"/><path class="cls-9" d="M166.27,174.5s-6.3-5.5-17.9-3.2S135,191.6,135,191.6s-.3,11.3.6,14.6c0,0,25.3,1.9,29,.3,0,0-2.7-11.4-2.3-12.5a4.21,4.21,0,0,1-1.6-3.7c.2-2.6,2.1-2.7,2.1-2.7s-.1-5.8,4.2-8.8A4.29,4.29,0,0,0,166.27,174.5Z"/><path class="cls-12" d="M220.27,256.8s-.9,3.4,0,3.4h16.8v-2.7l-3.7-1.2Z"/><path class="cls-10" d="M222.37,254.2c.4-.2,10.3-3.8,10.3-3.8l6.6.6.6,5.7a27.69,27.69,0,0,1-6.6.5c-2.5-.3-6.1,1.1-6.1,1.1l-2.3-1-3.3-1.3Z"/><line class="cls-12" x1="224.07" y1="257" x2="233.37" y2="253.6"/><path class="cls-17" d="M260.77,288l-1.5,48.9h12.3s6.1-46.4,5.2-50.2S260.77,288,260.77,288Z"/><path class="cls-14" d="M217.77,345.1c.3-.4,24.5-9.6,24.5-9.6l7.1-.6,1.3,4.3v9.6l-32.2-.5C218.37,348.3,215.87,347.4,217.77,345.1Z"/><path class="cls-10" d="M283.27,213.1l.4-6.6s-6.8-2.6-7.4-9.8c0,0-2.4-.9-2.7-2.4s3.1-7.7,3.1-7.7l-1.1-2.1s-.4-6.3,2.7-8.1,16.8-1.9,16.8-1.9l5.8,5.6-.9,17.3-4.4,3.9-.1,13-11.4,1.2Z"/><path class="cls-12" d="M289.17,207.7s-4.8-.3-5.5-1.2"/><path class="cls-12" d="M280.57,198.9s-.5,1-3.6.9"/><line class="cls-13" x1="277.67" y1="184.5" x2="282.87" y2="184.3"/><circle class="cls-7" cx="280.87" cy="188.5" r="1.2"/><path class="cls-9" d="M274.17,167.6s-2.7,7.8,3.9,10.8l11.6.4s4.9,5.7,3.3,9.7l-.1,1.2s5.9,2,.7,5.7c0,0-.3,5.8-1.1,7.2s7.7,1,9.5-1.1,3.2-9.8,3.2-9.8,3.9-8.8-.5-16.1a18.57,18.57,0,0,0-12.3-8.4l-17.9-.2Z"/><path class="cls-9" d="M127.87,275.5l-1.8,13.1,6.5,6.6h42l6.6-14.2s-28.6-4.9-33.5-5.5-13.7,0-13.7,0Z"/><path class="cls-14" d="M173.27,336.9l-.4,11.3h3.8l.2-4.3s9.8,4.9,15.4,4.3l5.6-.5s.9-3.9-3.5-5.1-3.2-1.2-3.2-1.2a3.08,3.08,0,0,1-2.9,1.4C186.07,342.6,173.27,336.9,173.27,336.9Z"/><path class="cls-9" d="M238.27,337.9h12.9s4-40.9,3.9-42.7,56.6,0,56.6,0V269.7L275,268.4l-5.4,10.1h-19.9s-10.3,5.3-9.4,13.5S238.27,337.9,238.27,337.9Z"/><path class="cls-11" d="M269.57,278.5h43.9V219.6s-.1-7.4-11.2-8.4-28.8,0-28.8,0-5.7,2.7-6.6,8.7-11.5,27.2-11.5,27.2-14,2.5-18.8,1.9c0,0,.9,10.3.3,11s25.4.3,25.4.3,5.9-5,7.1-7.4,1.2,3.6,1.2,3.6Z"/><line class="cls-12" x1="281.47" y1="228.1" x2="269.37" y2="252.7"/><line class="cls-12" x1="163.77" y1="231" x2="167.67" y2="240.1"/><path class="cls-11" d="M124.07,282.1l9.3-63.2s3.8-7.2,10.5-7.4,24.9,0,24.9,0,4.6,2.4,5.6,5.9,10.8,24.3,10.8,24.3l11.9-17.6,7.8,7.9s-12.3,22.2-13.2,23.6-3.7,4.9-8.2,4.9-7.9-3.8-7.9-3.8l-7.8-16.6s-3,5.7-5.9,7.2l-4.2,29.4-17.2-.5Z"/><line class="cls-12" x1="163.77" y1="228.5" x2="167.67" y2="240.6"/><polygon class="cls-18" points="127.97 301.1 128.57 348.4 131.07 348.4 133.17 299.8 127.97 301.1"/><polygon class="cls-18" points="157.77 301.3 159.47 349 161.97 349 161.97 300.9 157.77 301.3"/><path class="cls-14" d="M115.47,250.8l6,50.3a3.69,3.69,0,0,0,4.3,4h38.8a3.65,3.65,0,0,0,2.5-3.6,29.9,29.9,0,0,0,0-3.7s0-2.7-3.4-2.6l-6.3.2-9.2-45.6s-.4-2.6-4.1-2.2-26.9,0-26.9,0S114.87,247.7,115.47,250.8Z"/><line class="cls-15" x1="158.27" y1="299.2" x2="157.37" y2="295.4"/><path class="cls-14" d="M317.77,304.9H270s-3.3-.1-3-3.3,0-3.5,0-3.5a3,3,0,0,1,3.5-2.7c3.3.3,14.5,0,14.5,0l9.5-45.5a3.26,3.26,0,0,1,3.2-2.3c2.5.2,28.3.4,28.3.4s1.7.2,1.2,3.3-6.3,50.8-6.3,50.8A2.72,2.72,0,0,1,317.77,304.9Z"/><line class="cls-15" x1="283.87" y1="298.9" x2="284.97" y2="295.4"/><path class="cls-14" d="M299.07,311.9h-10.5a.32.32,0,0,1-.3-.3v-6.4a.32.32,0,0,1,.3-.3h10.5a.32.32,0,0,1,.3.3v6.4A.32.32,0,0,1,299.07,311.9Z"/><rect class="cls-19" x="289.87" y="311.9" width="8.1" height="17.9"/><path class="cls-14" d="M298.87,336.4h-10.2a.43.43,0,0,1-.4-.4v-5.8a.43.43,0,0,1,.4-.4h10.2a.43.43,0,0,1,.4.4V336C299.37,336.2,299.17,336.4,298.87,336.4Z"/><path class="cls-14" d="M269.27,340.7s1.2-4.3,4.1-4.3h42.3a5.67,5.67,0,0,1,3.1,4.1Z"/><circle class="cls-14" cx="273.27" cy="344.7" r="3.2"/><circle class="cls-14" cx="294.07" cy="344.7" r="3.2"/><circle class="cls-14" cx="314.77" cy="344.7" r="3.2"/><line class="cls-12" x1="13.87" y1="349.2" x2="433.87" y2="349.2"/></g></svg>