<svg id="Layer_1" data-name="Layer 1" xmlns="http://www.w3.org/2000/svg" xmlns:xlink="http://www.w3.org/1999/xlink" viewBox="0 0 450 450"><defs><style>.cls-1,.cls-14,.cls-3,.cls-9{fill:none;}.cls-2{clip-path:url(#clip-path);}.cls-10,.cls-11,.cls-12,.cls-13,.cls-14,.cls-3,.cls-4,.cls-5,.cls-6,.cls-8,.cls-9{stroke:#236d9b;stroke-miterlimit:10;}.cls-11,.cls-13,.cls-3,.cls-5,.cls-6,.cls-8{stroke-linecap:round;}.cls-12,.cls-15,.cls-4{fill:#039be5;}.cls-11,.cls-5{fill:#fff;}.cls-13,.cls-16,.cls-6{fill:#c5edf9;}.cls-7{fill:#236d9b;}.cls-8{fill:#a5d1f6;}.cls-10{fill:#a2dffe;}.cls-11,.cls-12,.cls-13,.cls-14{stroke-width:1.6px;}</style><clipPath id="clip-path"><rect class="cls-1" x="26.7" y="79.1" width="396.7" height="291.7"/></clipPath></defs><title>drawing-4-azur</title><g id="Calque_5" data-name="Calque 5"><g class="cls-2"><line class="cls-3" x1="104.5" y1="195.5" x2="103.7" y2="266.2"/><path class="cls-4" d="M60.5,192.5V157.2s4.6-19.3,21.4-18.1c0,0,15.7.2,19.2,16.5l.7,37.3Z"/><polygon class="cls-5" points="76.8 370.9 79.3 331.5 64.5 331.5 65 370.9 65.2 374 76.4 374 76.8 370.9"/><polygon class="cls-5" points="96.9 370.9 99.4 331.5 84.6 331.5 85.1 370.9 85.2 374 96.5 374 96.9 370.9"/><path class="cls-5" d="M111.5,284.9s1.8,10-7.6,9.2-5.7-9.2-5.7-9.2Z"/><polygon class="cls-5" points="74.7 188.6 75.5 175.5 87.5 177.3 87 189.6 74.7 188.6"/><line class="cls-3" x1="69.1" y1="169.8" x2="70.6" y2="169.8"/><polygon class="cls-4" points="59.9 331.5 57.7 262 104.1 263.5 103.7 331.5 64.5 331.5 59.9 331.5"/><line class="cls-3" x1="68.6" y1="160.4" x2="66.7" y2="160.4"/><path class="cls-3" d="M94.4,156.6a3.23,3.23,0,0,0,2.2,0"/><path class="cls-3" d="M84.3,150.6s-1.1-3.8-1.6-4.8"/><path class="cls-6" d="M50.1,284.9l4.2-90.8s-.3-5.8,7.1-7.6,40.7,0,40.7,0a8.59,8.59,0,0,1,7,8.3c.4,7.3,4.6,90,4.6,90h-9.5l-.4-18.8-36.6-.1-1,18.9v1Z"/><line class="cls-3" x1="70.6" y1="195.5" x2="67.2" y2="266"/><path class="cls-5" d="M51.7,285s-1.1,8.9,5,8.9c0,0,8.5,1.5,7.8-8Z"/><line class="cls-3" x1="103.7" y1="266.2" x2="101.8" y2="197.4"/><path class="cls-5" d="M68.6,164s-2.1,0-1.9,2.6a3.29,3.29,0,0,0,2.3,3.1c.3,10.4,12,11.7,12,11.7,10.4.7,13.4-11.5,13.4-11.5V156.6s-9.4-2.9-10.2-6.1c0,0-6.5,10.6-15.6,9.9V164h1.9"/><line class="cls-3" x1="78.3" y1="161.7" x2="81.1" y2="161.7"/><line class="cls-3" x1="88.4" y1="161.7" x2="90.7" y2="161.7"/><path class="cls-3" d="M80,174.3a5.63,5.63,0,0,0,5.7.2"/><path class="cls-3" d="M85,162.1l2,6s.8,2-.4,2.5a3,3,0,0,1-2.3,0"/></g><g class="cls-2"><polygon class="cls-5" points="267.1 179.9 267.1 196.6 280 196.6 279.3 180.7 267.1 179.9"/><path class="cls-4" d="M260.7,179.1s-6.4-8.5-6-17.4,4.8-13.2,4.8-13.2,6.9-7.1,16.3-5.3a15.13,15.13,0,0,1,11.7,10.1s.9,7.6-1.5,10.8S271.5,183.6,260.7,179.1Z"/><polygon class="cls-6" points="296.1 266.2 296.1 370.9 281.5 370.9 275.1 287.5 270.3 287.5 263.6 372.3 244.5 370.9 244.5 266 296.1 266.2"/><line class="cls-3" x1="280" y1="287.4" x2="264.9" y2="287.4"/><path class="cls-5" d="M260.6,172s-1.1,14.2,13.7,12.8,13.2-14.6,13.2-14.6l-.3-13.2s.8-7.1-15.2-5.8c0,0-10.3,4.1-11.4,13.4l-.2,1.3a4,4,0,0,0-1.9,3.7C258.8,172,260.6,172,260.6,172Z"/><path class="cls-3" d="M277.2,164.2c0,.1,2.7,8.3,2.7,8.3s-.3,1.4-.9,1.6-3-.5-3-.5"/><path class="cls-3" d="M272.9,178.1s3.3,1,5.4,0"/><circle class="cls-7" cx="271.6" cy="164.2" r="0.7"/><circle class="cls-7" cx="282.4" cy="164.2" r="0.6"/><line class="cls-3" x1="260.3" y1="165.9" x2="263.1" y2="165.9"/><line class="cls-3" x1="260.6" y1="172" x2="262" y2="172"/><path class="cls-5" d="M247.4,190.7h42.1s9.8,2.2,12.5,3.5,4.1,79.8,4.1,79.8H234.4Z"/></g><g class="cls-2"><path class="cls-4" d="M135.6,174.5s-4.6,1-6.5-2.6-3.1-13.4-3.1-13.4.3-9.4,7.1-14.1,11.1-3.3,11.1-3.3,11.8.2,13.8.1-1,7.8-1,7.8,2.4,4.2,1.7,6.4S135.6,174.5,135.6,174.5Z"/><polygon class="cls-5" points="138.3 176.4 137.9 188.8 150.5 188.8 150.5 177 138.3 176.4"/><path class="cls-5" d="M173.2,284.7s1.5,9.8-5.8,9.5-8.3-8.5-8.3-8.5Z"/><polygon class="cls-4" points="120.4 257.7 119.3 375.2 133.8 375.2 139.7 278.6 143.8 279.2 149.9 375.2 164.3 375.2 164.3 257.7 120.4 257.7"/><path class="cls-5" d="M115.4,284.7l3.9-90.5s1.6-8.4,9.7-7.6l35.7-.1s6.9,2.9,6,9.4,4.2,88.7,4.2,88.7H165l-.7-19.2H132.5l-.8,20.2Z"/><polyline class="cls-5" points="136 195.3 132.5 265.5 131.6 285.6"/><line class="cls-3" x1="163.4" y1="197" x2="164.3" y2="265.5"/><path class="cls-3" d="M143.8,279.2s4.7.7,5.7,0"/><path class="cls-5" d="M117.3,284.8s-1.7,8.9,5.1,9.4c0,0,8.4.4,7.5-8.6Z"/><polygon class="cls-8" points="143 191.5 147.3 188.1 151 192 147.6 196.1 143 191.5"/><polygon class="cls-8" points="147.6 196.1 143.8 199.4 145.7 229.6 147.6 230.9 149.2 229.2 151 199.6 147.6 196.1"/><path class="cls-5" d="M132.5,172.6s2.3,7.8,12.3,8.9a13.5,13.5,0,0,0,12.4-8.9s1.4-14.8.7-17.3c0,0-1.9-3.9-2.4-4.2s-2.6,2.9-7.5,2.7-9.6,0-10.6.4-4.5,1.9-4.8,4.6a21.12,21.12,0,0,0,0,4.8,3,3,0,0,0-2.2,3c0,2.6,1.3,3.2,1.3,3.2l.7.2Z"/><line class="cls-3" x1="132.5" y1="163.5" x2="134.3" y2="163.5"/><line class="cls-3" x1="132.4" y1="169.9" x2="133.9" y2="170.1"/><path class="cls-3" d="M148,161.5l2.5,7.4s0,2-1.3,1.9a6.16,6.16,0,0,1-1.5-.2"/><path class="cls-3" d="M143.5,174.2s1.9,1.7,5.6.7"/><circle class="cls-7" cx="143.5" cy="161.5" r="1"/><circle class="cls-7" cx="152.4" cy="161.5" r="1"/><path class="cls-6" d="M142.2,333.9h-39a4.48,4.48,0,0,1-4.5-4.5V301.8a4.48,4.48,0,0,1,4.5-4.5h39.1a4.48,4.48,0,0,1,4.5,4.5v27.6A4.77,4.77,0,0,1,142.2,333.9Z"/><path class="cls-9" d="M111.4,297.4V293s.1-2,2.7-2,19,.3,19,.3,2.1.4,2,2v4.2"/><polygon class="cls-4" points="98.7 303.9 146.6 304.3 146.6 325.9 98.7 324.8 98.7 303.9"/><path class="cls-10" d="M98.7,306.1l4.3,8.8a3.31,3.31,0,0,0,3.2,2.1c2.5,0,34.7.3,34.7.3s1.3.1,1.9-1.6,3.8-9.5,3.8-9.5v-4.3a4.55,4.55,0,0,0-4.3-4.5c-4.3-.4-40.3.1-40.3.1s-3,.5-3.4,4.3v4.3Z"/><path class="cls-6" d="M126.5,322h-7.2a2.43,2.43,0,0,1-2.4-2.4v-3.9a2.43,2.43,0,0,1,2.4-2.4h7.2a2.43,2.43,0,0,1,2.4,2.4v3.9A2.31,2.31,0,0,1,126.5,322Z"/><path class="cls-7" d="M123.9,318.7h-1.8a1,1,0,0,1-1-1v-.4a1,1,0,0,1,1-1h1.8a1,1,0,0,1,1,1v.4A.94.94,0,0,1,123.9,318.7Z"/></g><g class="cls-2"><path class="cls-4" d="M310.4,155s-.6-6.9.8-8.4-.5-1.8-.5-1.8-1.8-6.4,4.7-7.5,10.9.3,12.6,0,11.8,2.1,15.1,11.3.7,13.9.7,13.9-2.3,7.9-2.2,8.9-3.6,4.3-8.3,4S310.4,155,310.4,155Z"/><path class="cls-5" d="M293.4,284.7s-1.8,8.5,5.7,9.6,8.3-5.6,8.3-5.6v-3.5Z"/><polygon class="cls-4" points="301.9 265.5 301.3 376.5 317.6 376.5 323.4 285.2 328.3 285.2 334.4 376.5 350.1 376.5 350.1 267.6 301.9 265.5"/><line class="cls-9" x1="317.6" y1="285.2" x2="323.4" y2="285.2"/><path class="cls-5" d="M342.4,284.7s-1.4,7.9,5.1,9.5a7.06,7.06,0,0,0,8.6-4.3l.1-5.2Z"/><polygon class="cls-5" points="318.5 189.8 318.8 176.8 331.9 176.8 331.9 189.8 318.5 189.8"/><path class="cls-5" d="M324.5,180.8s9.3-.4,13-8.5a20.27,20.27,0,0,0,.8-4.3s2-1.2,1.5-3.1a3,3,0,0,0-2.4-3.2l.1-6s-1.4-5.3-6.9-5.3-12-.2-13.4-1-4.1-1.6-4.3-2.3c0,0-2.5,5.4-2.5,7.5v14.7S312.4,180.6,324.5,180.8Z"/><line class="cls-9" x1="335.6" y1="161.9" x2="337.5" y2="161.8"/><line class="cls-9" x1="336" y1="168.3" x2="338.3" y2="168.1"/><path class="cls-9" d="M323.6,158h8.5v3.9s-1,1.7-2.3,1.7h-3.9a3.89,3.89,0,0,1-2-1.9A23.44,23.44,0,0,1,323.6,158Z"/><path class="cls-9" d="M310.4,158h7.4l.2,2.8s-.8,2.5-2,2.5h-4.5s-1.4-1.2-1.3-1.7A26.38,26.38,0,0,0,310.4,158Z"/><line class="cls-9" x1="323.6" y1="159.6" x2="318" y2="159.6"/><line class="cls-9" x1="332.2" y1="159.6" x2="337.3" y2="161.8"/><path class="cls-9" d="M320.8,160.7l-1.8,5.7a2.1,2.1,0,0,0-.2,1.9c.3,1.1,2.6,1.2,2.6,1.2"/><path class="cls-9" d="M319.8,173.5s2.1,1.6,5.9-.2"/><path class="cls-6" d="M301.9,272.1v13.2l-11.1-.7,4.5-90.3s.7-6.8,7.5-7.6,44.3,0,44.3,0,6.3,4.4,7.5,9.6,3.5,88.5,3.5,88.5H340.5L339.4,272Z"/><line class="cls-9" x1="335.6" y1="201.7" x2="339.5" y2="271.9"/><polyline class="cls-9" points="300.6 200.2 300.6 271.9 301.9 272.1"/></g><g class="cls-2"><line class="cls-3" x1="355.8" y1="195.5" x2="356.6" y2="266.2"/><path class="cls-4" d="M399.8,192.5V157.2s-4.6-19.3-21.4-18.1c0,0-15.7.2-19.2,16.5l-.7,37.3Z"/><polygon class="cls-5" points="383.5 370.9 381 331.5 395.8 331.5 395.3 370.9 395.1 374 383.9 374 383.5 370.9"/><polygon class="cls-5" points="363.4 370.9 360.9 331.5 375.7 331.5 375.2 370.9 375.1 374 363.8 374 363.4 370.9"/><path class="cls-5" d="M348.8,284.9s-1.8,10,7.6,9.2,5.7-9.2,5.7-9.2Z"/><polygon class="cls-5" points="385.6 188.6 384.8 175.5 372.9 177.3 373.3 189.6 385.6 188.6"/><line class="cls-3" x1="391.2" y1="169.8" x2="389.7" y2="169.8"/><polygon class="cls-6" points="400.4 331.5 402.6 262 356.2 263.5 356.6 331.5 395.8 331.5 400.4 331.5"/><line class="cls-3" x1="391.7" y1="160.4" x2="393.6" y2="160.4"/><path class="cls-3" d="M365.9,156.6a3.23,3.23,0,0,1-2.2,0"/><path class="cls-3" d="M376,150.6s1.1-3.8,1.6-4.8"/><path class="cls-4" d="M410.2,284.9,406,194.1s.3-5.8-7.1-7.6-40.7,0-40.7,0a8.59,8.59,0,0,0-7,8.3c-.4,7.3-4.6,90-4.6,90h9.5l.4-18.8,36.6-.1,1,18.9v1Z"/><line class="cls-3" x1="389.8" y1="195.5" x2="393.1" y2="266"/><path class="cls-5" d="M408.6,285s1.1,8.9-5,8.9c0,0-8.5,1.5-7.8-8Z"/><line class="cls-3" x1="356.6" y1="266.2" x2="358.5" y2="197.4"/><path class="cls-5" d="M391.7,164s2.1,0,1.9,2.6a3.29,3.29,0,0,1-2.3,3.1c-.3,10.4-12,11.7-12,11.7-10.4.7-13.4-11.5-13.4-11.5V156.6s9.4-2.9,10.2-6.1c0,0,6.5,10.6,15.6,9.9V164h-1.9"/><line class="cls-3" x1="382" y1="161.7" x2="379.2" y2="161.7"/><line class="cls-3" x1="371.9" y1="161.7" x2="369.6" y2="161.7"/><path class="cls-3" d="M380.3,174.3a5.63,5.63,0,0,1-5.7.2"/><path class="cls-3" d="M375.3,162.1l-2,6s-.8,2,.4,2.5a3.11,3.11,0,0,0,2.3,0"/></g><g class="cls-2"><path class="cls-11" d="M209.2,171.9s6.6-4.2,6.6-15.1h16.9s.8,15.1,5.6,16S209.2,171.9,209.2,171.9Z"/></g><g class="cls-2"><path class="cls-12" d="M201.2,130.1V107a12.41,12.41,0,0,1,9.3-9.1l.2-4.5s12.2,2.4,15.8,2c0,0,12.5,1,15.6,3.9s5.6,4.4,5.4,11-.3,20.2-.3,20.2Z"/></g><g class="cls-2"><path class="cls-13" d="M189.9,205.6v82.3H259V207.8l17.4,24.7-18.9,44.3,18.9,6,21.9-46.7s1.9-7.2-2-11.7-32.1-45-32.1-45-8.6-9.9-21.9-10-40.9.4-40.9.4-8.3,0-17.6,8.9-32,44.8-32,44.8-5.7,6.7-2.2,14.8,22.3,44.6,22.3,44.6l19-6.4-20.3-43.8Z"/></g><g class="cls-2"><line class="cls-14" x1="193.3" y1="201" x2="189.9" y2="205.6"/></g><g class="cls-2"><line class="cls-14" x1="254.3" y1="201.4" x2="259" y2="207.8"/></g><g class="cls-2"><path class="cls-11" d="M187.4,277.6s6.2,18.1,6.2,19.8c0,0,.3,2.8-1.6,3.3s-1.9,0-1.9,0l6,7.7-1.5,4.6s-14.1-11.6-15.5-16.7v-8.6l-3.3-6.2Z"/></g><g class="cls-2"><path class="cls-14" d="M185.5,288.4l2.9,10.7a2.49,2.49,0,0,0,2.6,1.7"/></g><g class="cls-2"><path class="cls-11" d="M259.7,277.6s-6.2,18.1-6.2,19.8c0,0-.3,2.8,1.6,3.3s1.9,0,1.9,0l-6,7.7,1.5,4.6s14.1-11.6,15.5-16.7v-8.6l3.3-6.2Z"/></g><g class="cls-2"><path class="cls-14" d="M261.6,288.4l-2.9,10.7a2.49,2.49,0,0,1-2.6,1.7"/></g><g class="cls-2"><polygon class="cls-12" points="189.9 280.6 189.9 374.9 215.5 374.9 220.7 305.7 226.9 306.2 231.8 374.9 257.1 374.9 257.1 282.4 189.9 280.6"/></g><g class="cls-2"><line class="cls-14" x1="234.5" y1="306.2" x2="226.9" y2="306.2"/></g><g class="cls-2"><rect class="cls-7" x="211.3" y="199.8" width="12.2" height="12.2"/></g><g class="cls-2"><rect class="cls-7" x="225" y="199.8" width="12.2" height="12.2"/></g><g class="cls-2"><rect class="cls-7" x="211.3" y="213.3" width="12.2" height="12.2"/></g><g class="cls-2"><rect class="cls-15" x="225" y="213.3" width="12.2" height="12.2"/></g><g class="cls-2"><path class="cls-11" d="M204.6,116.9V143s3.6,19,18.9,19.6,19.7-17.4,19.7-17.4l.5-28.7s-2.6-6.8-9.8-7.8H212C212.1,108.7,206.1,109.1,204.6,116.9Z"/></g><g class="cls-2"><path class="cls-11" d="M243.5,125l3.6.2s2.8,1.7,2.3,2.9l-1.3,9.2s-2.1,4.3-4.9,3.9Z"/></g><g class="cls-2"><path class="cls-11" d="M204.6,125h-3.3s-2.8,1.3-2.5,4.2,1.6,8.7,1.6,8.7,1.3,2.9,4.2,3V125Z"/></g><g class="cls-2"><path class="cls-14" d="M226.9,130.1v14.4s-1.1,2.3-2.7,2c0,0-2.1.1-2.5-1.7l-.2-1.8"/></g><g class="cls-2"><path class="cls-14" d="M218.4,151.9a11.72,11.72,0,0,0,12,0"/></g><g class="cls-2"><line class="cls-14" x1="209.8" y1="127.8" x2="217.7" y2="127.8"/></g><g class="cls-2"><line class="cls-14" x1="230.8" y1="127.8" x2="238.5" y2="127.8"/></g><g class="cls-2"><circle class="cls-7" cx="214.2" cy="133.9" r="1.8"/></g><g class="cls-2"><circle class="cls-7" cx="234" cy="133.9" r="1.8"/></g><g class="cls-2"><path class="cls-11" d="M211.5,101.6a8.8,8.8,0,0,1-1-3.7"/></g><g class="cls-2"><polygon class="cls-16" points="258.2 276.3 259.6 273.1 260.6 277.2 258.2 276.3"/></g><g class="cls-2"><polygon class="cls-16" points="189.3 274.5 190 276.1 188.5 276.6 189.3 274.5"/></g></g></svg>