<svg id="Layer_1" data-name="Layer 1" xmlns="http://www.w3.org/2000/svg" viewBox="0 0 450 450"><defs><style>.cls-1,.cls-10,.cls-11,.cls-9{fill:#fff;}.cls-1,.cls-11,.cls-12,.cls-13,.cls-14,.cls-15,.cls-2,.cls-3,.cls-4,.cls-5,.cls-8,.cls-9{stroke:#236d9b;}.cls-1,.cls-2,.cls-3,.cls-4,.cls-5,.cls-6{stroke-miterlimit:10;}.cls-2{fill:#f3f3ff;}.cls-3,.cls-7{fill:#cbcbf4;}.cls-12,.cls-16,.cls-4,.cls-8{fill:#837fcb;}.cls-15,.cls-5,.cls-6{fill:none;}.cls-6{stroke:#8c8cf9;}.cls-14,.cls-15,.cls-8,.cls-9{stroke-linecap:round;}.cls-11,.cls-12,.cls-13,.cls-14,.cls-15,.cls-8,.cls-9{stroke-linejoin:round;}.cls-13,.cls-14{fill:#6ebdff;}</style></defs><title>drawing-1-purple</title><g id="Calque_3" data-name="Calque 3"><rect class="cls-1" x="64.5" y="300.25" width="79.4" height="59"/><rect class="cls-2" x="143.9" y="260.05" width="79.4" height="99.3"/><rect class="cls-2" x="84" y="332.45" width="16" height="26.8"/><rect class="cls-3" x="100.1" y="332.45" width="25.3" height="26.8"/><rect class="cls-2" x="116.4" y="280.35" width="10.5" height="19.9"/><rect class="cls-3" x="126.9" y="280.35" width="17" height="19.9"/><rect class="cls-3" x="223.3" y="219.75" width="78.3" height="139.6"/><rect class="cls-4" x="301.6" y="178.95" width="78.9" height="180.3"/><rect class="cls-2" x="257.7" y="328.55" width="18" height="30.7"/><rect class="cls-3" x="275.7" y="328.55" width="39.3" height="30.7"/><rect class="cls-4" x="265.6" y="312.95" width="11.8" height="15.6"/><rect class="cls-1" x="277.4" y="312.95" width="18" height="15.6"/><line class="cls-5" x1="20.4" y1="359.25" x2="429.6" y2="359.25"/><line class="cls-6" x1="40.2" y1="366.15" x2="247.8" y2="366.15"/><line class="cls-6" x1="260.3" y1="366.15" x2="394.2" y2="366.15"/><line class="cls-6" x1="79.6" y1="370.95" x2="175.9" y2="370.95"/><line class="cls-6" x1="194.7" y1="370.95" x2="282.1" y2="370.95"/><line class="cls-6" x1="297.6" y1="370.95" x2="317.1" y2="370.95"/><line class="cls-6" x1="155.2" y1="377.15" x2="236.3" y2="377.15"/><line class="cls-6" x1="257.7" y1="377.15" x2="275.7" y2="377.15"/><line class="cls-6" x1="327.2" y1="370.95" x2="361.7" y2="370.95"/><path class="cls-7" d="M61.9,269l105.3-82.9a4.17,4.17,0,0,1,6.4,1.7l7.2,18.5a4.1,4.1,0,0,0,7.2.9l50.5-71a4.18,4.18,0,0,1,4.9-1.4l22.6,9a4.23,4.23,0,0,0,3.8-.4L360,81.45h-8.2a4.1,4.1,0,0,1-4.1-4v-.3a4.16,4.16,0,0,1,4.1-4.3h22.1a4.12,4.12,0,0,1,3.9,5.4l-7.9,23.5a4.14,4.14,0,0,1-4.7,2.7h-.1a4,4,0,0,1-3.1-5.4l3.6-10.4-95.9,65a4,4,0,0,1-3.8.4l-20.1-8a4.18,4.18,0,0,0-4.9,1.4L185.6,224a4.17,4.17,0,0,1-7.2-.9l-8.6-21.7a4.11,4.11,0,0,0-6.4-1.7L67,275.45a4.14,4.14,0,0,1-5.8-.7h0A4.15,4.15,0,0,1,61.9,269Z"/><path class="cls-8" d="M392.6,352.15l-.5,2.2s-4.2,2.6-4.3,4.4h11.6v-7.1Z"/><path class="cls-8" d="M408.1,351.75v2.6l-3.4,2.9V359h11.9a2.6,2.6,0,0,0-.6-2.7,11,11,0,0,1-1.6-4.4h-6.3Z"/><path class="cls-8" d="M309.7,213s-.3-1.3.6-1.8,8.6-4.4,9.7-5.3,6.1-.4,6.1-.4,1,7.7,0,8.2-16.4,0-16.4,0Z"/><path class="cls-8" d="M323.3,213l.7-1.5s8.6-4.8,10.2-5.2a21.3,21.3,0,0,1,4.1-.4h1s.7,5.6.3,6.6a1.69,1.69,0,0,1-.9,1.2H323.2V213Z"/><path class="cls-8" d="M327.4,207.35s2.5-23.8,1.9-26.7c0,0,6.6.3,8.2-.7s1.3-10.4,1.3-10.4H322.2a19.7,19.7,0,0,0-3.2,5c-1.4,3.1-2.1,32.8-2.1,32.8Z"/><path class="cls-3" d="M330.4,207.35l1.9-33.3s.1-3.7,4.7-4.2,17.7-3.5,17.7-3.5h10.7s0,7.2-.4,8.1-1,4.5-3.3,5.3l-18.8-.2s-1.6,24.9-2.5,27.5Z"/><path class="cls-9" d="M379.9,108.35a3.7,3.7,0,0,1-1.8-3.1,1.76,1.76,0,0,1,1.8-1.9l1.2,1.8.4-3.9,5.6,1s1.7,4.5.7,5.3a18.75,18.75,0,0,0-2.5,3h-3.7Z"/><polygon class="cls-9" points="349.8 131.65 349.8 126.95 356.7 126.35 356.7 131.65 349.8 131.65"/><path class="cls-3" d="M189.4,352.65v5.4c0,.6,11.5,0,11.5,0s-7.2-6.4-7.7-6.6S189.4,352.65,189.4,352.65Z"/><path class="cls-3" d="M166.9,358.25a8.26,8.26,0,0,1,0-2.3,37.89,37.89,0,0,1,2.9-4.6h4.7s2.1,5.1,2.8,5.4.4,1.5.4,1.5Z"/><path class="cls-1" d="M167.6,306.45s-1.9,7.1-.8,8.6a3.46,3.46,0,0,0,2.8,1.4l.9-5.3s2.6,3.1,2.6,3.8,1.4-4,1.4-4l-5.3-6.6Z"/><polygon class="cls-10" points="99 196.05 99.6 206.45 105.8 206.45 105.8 195.65 99.2 196.05 99 196.05"/><path class="cls-3" d="M118.5,271.75s-.9,6.5,0,7.8l13,.4,3.6-2.4s-14.7-4-15-5.2S118.5,271.75,118.5,271.75Z"/><path class="cls-3" d="M98.7,292.55v7.7h16.1a2.61,2.61,0,0,0-.6-2c-.8-1-11.9-3.8-12.2-4.9S98.7,292.55,98.7,292.55Z"/><path class="cls-8" d="M107.7,246.75c-2.8,1.5-2.1,1.2-2.8,1.5a7.6,7.6,0,0,0-.2,1.9c-.3,8.7.2,44,.2,44H97.6l-2.8-55.6H115l.8,4.4s9.8,6.1,10.8,8.3-1.9,22.4-1.9,22.4H117s2.1-13.8,2.2-17.1l-14.9-8.1"/><rect class="cls-1" x="129.8" y="185.85" width="10.7" height="94"/><polygon class="cls-9" points="140.5 185.55 135.1 173.55 129.8 185.55 140.5 185.55"/><line class="cls-5" x1="132.5" y1="179.35" x2="137.7" y2="179.35"/><path class="cls-1" d="M119.4,217.35l-1.3,19.2a5.88,5.88,0,0,1-5.8,5.5H97.8a5.81,5.81,0,0,1-5.8-5.5l-1.7-25.1s-2.4-7.4,3-7.4h23.6a6.38,6.38,0,0,1,5.3,3c1.9,3.2,7.7,9.5,7.7,9.5v8.3C129.8,224.85,125.6,227.65,119.4,217.35Z"/><path class="cls-1" d="M99.8,213.45s6.4,9.3,7.1,9.9,20.4-3.1,20.4-3.1l1,8.8s-15.4,4.3-23.2,3.3-14.6-18.9-14.6-18.9"/><path class="cls-11" d="M99.3,204.05v-4.2l-1.1-11.6,6-1.7,3.4.7,1-.7,2.8,4.6-.6,2.6,2.5,1.5-1.5.9-1.1,4.2a2.54,2.54,0,0,1-2.6,1.4,31.11,31.11,0,0,1-5.4-1.5"/><line class="cls-5" x1="105.8" y1="204.05" x2="105.8" y2="201.25"/><path class="cls-12" d="M103,197.65l.7-1.3a2.14,2.14,0,0,1-2.2-1.8c-.6-2,2.2-1.4,2.2-1.4l1.1.4-.3-2.2a5.13,5.13,0,0,1,2-1.8c1-.3,4.4-.4,4.8-.9s2.2-1.5,2.4-2.8-9.7-3.6-11.7-3.1-5.4,1.7-6,5.9c0,0-2.4,3.3,1.2,8.4,0,0,2.2,3.9,2.7,4.2C100.6,201.65,103,197.65,103,197.65Z"/><path class="cls-13" d="M118.5,211.55s.9,4.7.9,5.8"/><path class="cls-8" d="M172.2,315.35s-.6-9.7,0-10.6,19.6,0,19.6,0l1.2.8s3.2,26.7,3.1,34.8,0,13.5,0,13.5h-7.7s-2.2-35.7-3.5-39.7a9.33,9.33,0,0,1-3.8-1.5s-1.6,35.7-4.2,41.2h-9C168,354,172,322.55,172.2,315.35Z"/><path class="cls-1" d="M215.2,253.25v-5.7l1.2-.7v-4h1.9v3l1.6-6.8s1.1-.6,1.3.5a51.17,51.17,0,0,1,0,5.6l3.3,3.5s-1.8,5.3-3.3,5.9S215.2,253.25,215.2,253.25Z"/><path class="cls-1" d="M178.1,272.85v-9.5l-1.4-4.7,4.6-5.8,4,1s3.6-.4,4.4,4.8c0,0,1.2,2.6,2,2.7s-.4,1.2-.4,1.2l-1.2.3s.3,3.9-.4,4.5-3.2.6-4.3.5,0,5.7,0,5.7l-5,1.8"/><path class="cls-8" d="M186.8,259.85s-1.7-1.7-2.8,0,1.4,2.6,1.4,2.6l-.4,2s-2.5,2.9-5.5,2.9-4.7-2.9-5.7-4.7-.6-5.7-.5-6.3-3.1-2.6-.8-5.5a3.47,3.47,0,0,1,5-.8s1.3.9,1.2,1.4c0,0,3.2-2.1,7.3.5s1.5,3.6,1.5,3.6l-1.7.8a1.49,1.49,0,0,0,.3,1.3A8.51,8.51,0,0,1,186.8,259.85Z"/><path class="cls-1" d="M94,204.05a9.81,9.81,0,0,1,4.3,6.7"/><path class="cls-3" d="M172.8,276.35c-.3.6-3,28.5-3,29.3a3.13,3.13,0,0,0,1.9,2.5c1.1.4,21.6.3,22.5-.8s-2.4-17.3-2.4-17.3a5.31,5.31,0,0,1,.7-2.6c.6-1,2.4-1.7,2.6-6.2,0,0,13.6-1.7,15.9-3.6,0,0,11.8-22.1,11.3-22.9s-8-2.5-8-2.5c-.4.6-9.2,16.6-9.2,16.6s-2.2,1.9-10.6,2.8a104.82,104.82,0,0,1-18.8,0s-4.1.6-5.3,3.5-4.3,31.7-4.3,31.7-.3,1.2.6,1.5a52.65,52.65,0,0,0,5.3.9"/><line class="cls-5" x1="192" y1="281.25" x2="195.2" y2="281.15"/><path class="cls-14" d="M181.2,312.65s-2-.9-2.2-1.5"/><path class="cls-9" d="M325.8,161.15S336.2,145,336.2,142c0,0-.6-7.2,5.8-7.7s5.6-.6,5.6-.6v-3.2H360v2.7l7.4-.1s8-1.7,9.7-4.8,2.1-18.7,2.1-18.7,6.1-1,7.5,0-1.1,22.8-1.4,23.2-5,7.5-16.3,8.6l-1.2,26.1s-.9,2.6-2.1,2.5-23.9,0-23.9,0,.5-13.8.1-14.9c0,0-6.4,11.1-9,11.5S325.8,161.15,325.8,161.15Z"/><path class="cls-15" d="M347.5,133.55a53.4,53.4,0,0,0,5.8,0"/><path class="cls-15" d="M340.4,141.55s.5,10.4,1.3,13.4"/><rect class="cls-9" x="379.6" y="98.15" width="2.3" height="5.3"/><rect class="cls-9" x="382.5" y="98.65" width="1.9" height="5.3"/><rect class="cls-9" x="385.1" y="99.35" width="1.7" height="4.4"/><rect class="cls-9" x="387.4" y="100.75" width="1.6" height="3.3"/><path class="cls-9" d="M347.5,113.75l-.3,12.7a5.58,5.58,0,0,0,4.1,2.3c2.6,0,6.8-1.2,6.8-1.8s0-13.4,0-13.4l-4.4-2.8Z"/><path class="cls-12" d="M347.3,122.45s8.1.8,10.9-.9v5.3s-7.3,4.5-11-.5Z"/><path class="cls-9" d="M358.4,118.85a1.6,1.6,0,0,1,0,3.2"/><path class="cls-9" d="M347.3,118.75a1.6,1.6,0,1,0,0,3.2"/><path class="cls-12" d="M348.3,117.65s-1.8,1-2.4-.6.2-5.6.2-5.6,1.9-3.3,3.9-1.7c0,0,1.2,3.1.5,3.8a21.17,21.17,0,0,0-1.6,1.6Z"/><path class="cls-12" d="M350,110s2.9-3.5,6-2,3.6,2.8,3.8,3.6,1.1,4.8,0,6a3.49,3.49,0,0,1-2.6,1.1,4.92,4.92,0,0,1-.8-2c-.1-.7-2.7-4.1-5.7-3.6C350.7,113.15,350.7,110.65,350,110Z"/><polygon class="cls-12" points="300.3 152.95 324.5 152.95 334.5 167.35 309.9 167.35 300.3 152.95"/><rect class="cls-12" x="309.9" y="167.35" width="24.6" height="2.5"/><rect class="cls-12" x="334.5" y="167.35" width="15" height="2.5"/><path class="cls-15" d="M394.9,282.35s-4.5,11.2-5.5,12.1"/><path class="cls-3" d="M391.4,300.55l-.6,52.8h9.5v-40a7.87,7.87,0,0,0,2.2-.4c.5-.3,0,16.6,0,16.6s1.8,18.5,3.3,23.8h10.1s-3.6-23.8-5-26.4.6-20.6.3-25.3S391.4,300.55,391.4,300.55Z"/><path class="cls-15" d="M402.5,313a6.82,6.82,0,0,0,2.2-2.2"/><path class="cls-1" d="M365.7,288.05s-.8-1.7,0-2.2.3-3.7,1-3.5,1-.1,1.4.9.8,6.6,1.6,7.1,1.2,2.9,1.2,2.9-7.8-1.5-8.4-3.7-.8-4.7-.5-4.7,1.2-.8,1.2-.8a4.09,4.09,0,0,1,.5-1.7l2.4-.8"/><path class="cls-1" d="M405.9,266.65l-.3,6.8h-9.2s3.7-4.6,3.1-5.8c0,0-4.7.1-5.3-.4s-.7-3.4-.7-4-1.4-.4-1.4-.4.5-2.4,1.1-2.8l.3-2.4s.5-4.1,1.8-4.4,9.1-.3,9.1-.3a17.25,17.25,0,0,1,1.5,2.7C405.8,255.85,405.9,266.65,405.9,266.65Z"/><path class="cls-8" d="M393.2,253.35s1.4,2.5,3,2.1,1.7,3.1,1.7,3.1l-.6,1.6a1.58,1.58,0,0,1,2.5-.6c1.8,1-.6,2.8-.6,2.8s-1.1.9-.3,1.7,4.3,3,5.3,3,5.9-5.7,5.7-6.8,1.8-6-1.7-8.2c0,0-1.4-2.4-3.2-2.7a21.75,21.75,0,0,0-4.6-.3c-2.2,0-2.6.7-3.5.7s-3.3-.3-4,0-.8,1.4-.8,1.4A2,2,0,0,0,393.2,253.35Z"/><path class="cls-8" d="M363.3,275.55c0,.4,6,18.9,6,18.9l18.5-3.2-3-15.7Z"/><polygon class="cls-3" points="366.3 277.95 371.3 291.05 385.4 289.45 382.8 277.25 366.1 277.25 366.3 277.95"/><path class="cls-1" d="M378.9,282.35s3-1.9,3.3-2,.1,1.7,0,2.3,1,1,2.9.9,4.9-2.9,4.9-2.9l-.5-2.2s-7.2-.8-7.9-.3-3.5,2.5-3.7,2.7-.4,1.8,0,1.9S378.9,282.35,378.9,282.35Z"/><path class="cls-1" d="M367.4,295.25s0-5.9,3.5-8.6c0,0,8.6,3.6,9.4,3.6s6.9-15.5,8.3-17,19.8-2.4,24.3-1.1c0,0,2.3.5,1,10.9a81.25,81.25,0,0,0-.1,18.4s-1.5,1.9-2.4,2.1c0,0-18.6.3-20.6-.4s-1.4-8.8-1.4-8.8-1.8,5.6-3.9,5.6c0,0-2.6.9-6.8-.6C374.6,298.05,368,296.45,367.4,295.25Z"/><path class="cls-1" d="M389.4,294.45a82,82,0,0,0,3.1-9.4"/><rect class="cls-7" x="135" y="186.35" width="2.5" height="93.2"/><rect class="cls-16" x="137.5" y="186.35" width="2.5" height="93.2"/><path class="cls-1" d="M127.4,221.55c-.6,0,.8,6.1.8,6.1s5.1-.7,6.9-3,0-2.3,0-2.3l1.8-1.5-1.8-1.8h-5.3Z"/></g></svg>