<?xml version="1.0" encoding="utf-8"?>
<!-- Generator: Adobe Illustrator 25.2.0, SVG Export Plug-In . SVG Version: 6.00 Build 0)  -->
<svg version="1.1" id="Calque_1" xmlns="http://www.w3.org/2000/svg" xmlns:xlink="http://www.w3.org/1999/xlink" x="0px" y="0px"
	 viewBox="0 0 422 422" style="enable-background:new 0 0 422 422;" xml:space="preserve">
<style type="text/css">
	.st0{fill:#D4E1F4;}
	.st1{fill:#6978A8;}
	.st2{fill:#0D1226;}
</style>
<g>
	<polygon class="st0" points="55.7,266.7 384.3,266.7 384.3,248.7 37.7,248.7 37.7,407.6 55.7,407.6 	"/>
	<path class="st1" d="M83.5,382.6c3.5,0,6.3-2.8,6.3-6.3v-96.4c0-3.5-2.8-6.3-6.3-6.3s-6.3,2.8-6.3,6.3v96.4
		C77.2,379.8,80.1,382.6,83.5,382.6z"/>
	<path class="st1" d="M147.3,382.6c3.5,0,6.3-2.8,6.3-6.3v-96.4c0-3.5-2.8-6.3-6.3-6.3s-6.3,2.8-6.3,6.3v96.4
		C141,379.8,143.8,382.6,147.3,382.6z"/>
	<path class="st1" d="M211,382.6c3.5,0,6.3-2.8,6.3-6.3v-96.4c0-3.5-2.8-6.3-6.3-6.3s-6.3,2.8-6.3,6.3v96.4
		C204.7,379.8,207.5,382.6,211,382.6z"/>
	<path class="st1" d="M274.7,382.6c3.5,0,6.3-2.8,6.3-6.3v-96.4c0-3.5-2.8-6.3-6.3-6.3s-6.3,2.8-6.3,6.3v96.4
		C268.5,379.8,271.3,382.6,274.7,382.6z"/>
	<path class="st1" d="M338.5,382.6c3.5,0,6.3-2.8,6.3-6.3v-96.4c0-3.5-2.8-6.3-6.3-6.3s-6.3,2.8-6.3,6.3v96.4
		C332.2,379.8,335,382.6,338.5,382.6z"/>
	<path class="st1" d="M25.3,241.3c0,0.1,0,0.2,0,0.3c0,0.1,0,0.2-0.1,0.4c0,0.1,0,0.1,0,0.2c0,0.2,0,0.3,0,0.5l0,0v171.1
		c0,3.5,2.8,6.4,6.3,6.5h359.1c3.5-0.1,6.3-3,6.3-6.5V242.6c0-0.2,0-0.4,0-0.6c0,0,0,0,0-0.1c0-0.2,0-0.3-0.1-0.4
		c-0.1-0.6-0.3-1.2-0.6-1.8v-0.1c-0.1-0.1-0.1-0.2-0.2-0.3c0-0.1-0.1-0.1-0.1-0.2c-0.1-0.1-0.1-0.1-0.2-0.2s-0.1-0.2-0.2-0.3
		l-0.1-0.1c-0.1-0.1-0.2-0.2-0.3-0.3l0,0c-0.3-0.3-0.6-0.5-1-0.8c-0.2-0.1-0.3-0.2-0.5-0.3l0,0c-0.2-0.1-0.4-0.2-0.6-0.3h-0.1
		l-173.7-71.6v-16.7c0-3.5-2.8-6.3-6.3-6.3s-6.3,2.8-6.3,6.3v16.6L29,236.8l0,0c-0.1,0.1-0.2,0.1-0.4,0.2c-0.1,0-0.1,0.1-0.1,0.1
		c-0.1,0.1-0.2,0.1-0.3,0.2c-0.1,0-0.1,0.1-0.2,0.1s-0.1,0.1-0.2,0.1c-1.2,0.9-2.1,2.1-2.4,3.6C25.3,241.2,25.3,241.2,25.3,241.3z
		 M213,176.1l145.8,60.1H63.9L213,176.1z M384.3,407.6H37.7V248.7h346.5L384.3,407.6L384.3,407.6z"/>
	<path class="st2" d="M211,141.3c-9.8,0-17.8-8-17.8-17.8c0-3.5-2.8-6.3-6.3-6.3s-6.3,2.8-6.3,6.3c0,16.8,13.6,30.4,30.4,30.4
		c16.8,0,30.4-13.6,30.4-30.4c0-14.4-10.1-26.8-24.1-29.7V62.9h5.8c2.9,0,5.4-2,6.1-4.8l12-48.2c0.5-1.9,0-3.9-1.1-5.5
		c-1.2-1.6-3-2.5-5-2.5h-48.2c-3.5,0.1-6.4,3-6.3,6.6c0,0.5,0.1,0.9,0.2,1.4l12,48.3c0.7,2.8,3.2,4.8,6.1,4.8h5.8v36.5
		c0,3.5,2.8,6.3,6.3,6.3c9.8-0.1,17.9,7.9,17.9,17.7c0.1,9.8-7.9,17.9-17.7,17.9C211.2,141.3,211.1,141.3,211,141.3z M194.9,14.4
		H227l-8.9,35.9h-14.3L194.9,14.4z"/>
</g>
</svg>
