<?xml version="1.0" encoding="utf-8"?>
<!-- Generator: Adobe Illustrator 25.2.0, SVG Export Plug-In . SVG Version: 6.00 Build 0)  -->
<svg version="1.1" id="Calque_1" xmlns="http://www.w3.org/2000/svg" xmlns:xlink="http://www.w3.org/1999/xlink" x="0px" y="0px"
	 viewBox="0 0 422 422" style="enable-background:new 0 0 422 422;" xml:space="preserve">
<style type="text/css">
	.st0{fill:#D4E1F4;}
	.st1{fill:#6978A8;}
	.st2{fill:#0D1226;}
</style>
<g>
	<path class="st0" d="M73.6,312.9v-95.2l-39.8-16.9v141.9c0,7.1,5.8,12.9,12.9,12.9h18.5c2.2-12.7,10.1-23.7,21.4-29.8h-0.2
		C79.4,325.8,73.6,320,73.6,312.9z"/>
	<path class="st0" d="M126.2,325.8c11.4,6.1,19.3,17.1,21.4,29.8h95.5v-29.8H126.2z"/>
	<path class="st0" d="M86.7,325.8h39.5C113.8,319.2,99,319.2,86.7,325.8z"/>
	<path class="st1" d="M26.9,178.2c-3.8,0-7,3.1-7,7v157.5c0,14.8,12,26.8,26.9,26.9h24.9c3.8,0,7-3.1,7-7c0-3.8-3.1-7-7-7H46.8
		c-7.1,0-12.9-5.8-12.9-12.9V185.2C33.8,181.4,30.7,178.2,26.9,178.2z"/>
	<path class="st1" d="M242.1,253.6v102H141.2c-3.8,0-7,3.1-7,7c0,3.8,3.1,7,7,7h159.1c3.8,0,7-3.1,7-7c0-3.8-3.1-7-7-7H256v-95
		h151.7v82.1c0,7.1-5.8,12.9-12.9,12.9H370c-3.8,0-7,3.1-7,7c0,3.8,3.1,7,7,7h24.9c14.8,0,26.8-12,26.9-26.9v-89.1
		c0-0.1,0-0.1,0-0.2s0-0.3,0-0.4s0-0.2,0-0.3c0-0.1,0-0.2-0.1-0.4c0-0.1,0-0.2-0.1-0.3c0-0.1-0.1-0.2-0.1-0.3c0-0.1-0.1-0.2-0.1-0.3
		c0-0.1-0.1-0.2-0.1-0.3c0-0.1-0.1-0.2-0.1-0.3c0-0.1-0.1-0.2-0.1-0.3c-0.1-0.1-0.1-0.2-0.2-0.3c-0.1-0.1-0.1-0.2-0.2-0.3
		c-0.1-0.1-0.1-0.2-0.2-0.3c-0.1-0.1-0.1-0.2-0.2-0.3c-0.1-0.1-0.2-0.2-0.2-0.3l-0.1-0.1l-51.2-55.8c-5.1-5.5-12.3-8.7-19.8-8.7
		h-92.8v-72.2c0-14.8-12-26.8-26.9-26.9h-73.2c-3.8,0-7,3.1-7,7c0,3.8,3.1,7,7,7h73.1c7.1,0,12.9,5.8,12.9,12.9L242.1,253.6
		L242.1,253.6z M348.8,198.3c3.6,0,7.1,1.5,9.5,4.2l40.5,44.2H256.1v-48.3h92.7V198.3z"/>
	<g>
		<path class="st2" d="M335.1,404.4c-23.1,0-41.8-18.7-41.8-41.8s18.7-41.8,41.8-41.8s41.8,18.7,41.8,41.8
			C376.9,385.6,358.2,404.3,335.1,404.4z M335.1,334.7c-15.4,0-27.8,12.5-27.8,27.8c0,15.4,12.5,27.8,27.8,27.8S363,378,363,362.6
			C363,347.2,350.5,334.8,335.1,334.7z"/>
		<path class="st2" d="M86.5,218.6C38.7,218.6,0,179.9,0,132.1s38.7-86.5,86.5-86.5S173,84.3,173,132.1S134.3,218.6,86.5,218.6z
			 M86.5,59.5c-40.1,0-72.6,32.5-72.6,72.6s32.5,72.6,72.6,72.6s72.6-32.5,72.6-72.6S126.6,59.6,86.5,59.5z"/>
		<path class="st2" d="M128.2,139.2H86.8c-3.8,0-7-3.1-7-7V90.8c0-3.8,3.1-7,7-7c3.9,0,7,3.1,7,7v34.4h34.4c3.8,0,7,3.1,7,7
			C135.1,136.1,132,139.2,128.2,139.2z"/>
		<path class="st2" d="M106.4,404.4c-23.1,0-41.8-18.7-41.8-41.8s18.7-41.8,41.8-41.8s41.8,18.7,41.8,41.8
			C148.2,385.6,129.5,404.3,106.4,404.4z M106.4,334.7c-15.4,0-27.8,12.5-27.8,27.8c0,15.4,12.5,27.8,27.8,27.8s27.8-12.5,27.8-27.8
			S121.8,334.8,106.4,334.7z"/>
	</g>
</g>
</svg>
