<svg id="Calque_1" data-name="Calque 1" xmlns="http://www.w3.org/2000/svg" viewBox="0 0 450 450"><defs><style>.cls-1{fill:none;stroke:#3c4349;}.cls-1,.cls-11,.cls-12,.cls-15,.cls-2,.cls-3,.cls-4{stroke-miterlimit:10;}.cls-1,.cls-15,.cls-3{stroke-width:2px;}.cls-2{fill:#0d82c5;}.cls-11,.cls-2,.cls-3,.cls-4{stroke:#5d5c74;}.cls-15,.cls-3{fill:#039be5;}.cls-4{fill:#344258;}.cls-11,.cls-12,.cls-5{fill:#fbd7ce;}.cls-6{fill:#5c5c74;}.cls-7{fill:#e4e6e9;}.cls-8{fill:#cdcfd2;}.cls-9{fill:#3c4349;}.cls-10{fill:#fff;}.cls-12{stroke:#5e5c74;}.cls-13{fill:#facab8;}.cls-14{fill:#1d99ce;}.cls-15{stroke:#5c5c74;}</style></defs><title>cute-4-azur</title><line class="cls-1" x1="-8.4" y1="314.4" x2="458.4" y2="314.4"/><path class="cls-2" d="M410.7,213.5c8.6,26.7-4.1,47-37,47-34.8,0-44.8-20.2-36.6-47,5.2-16.9,3.2-35.3,8.5-43.7,7.5-11.9,14.4-16.5,28.1-16.5,13,0,21.3,4.1,26.6,15.7C404.7,178.4,405.1,196.2,410.7,213.5Z"/><path class="cls-3" d="M373.4,153.3c-13.1,0-20.1,4.1-27.7,16.3-2.8,4.4-3.5,11.6-4.4,20-.8,7.3-1.6,15.7-4.1,23.6-4.3,14-3.4,25.7,2.6,33.8,6.2,8.4,17.5,12.7,33.6,12.7,15.7,0,27.4-4.6,33.8-13.4,6.1-8.3,7-19.7,2.8-33a187.08,187.08,0,0,1-5.6-25c-1.4-7.9-2.6-14.8-4.7-19.5C394.7,157.9,386.9,153.3,373.4,153.3Z"/><path class="cls-4" d="M326.7,276.1c0-19.7,21.2-35.6,47.4-35.6s47.4,16,47.4,35.6"/><path class="cls-5" d="M384.7,186.2c-10.2,0-19-4.1-23.1-10.2-1.7,6.8-6.4,11.8-12.2,12.5v21.9c0,8.5,5.3,19,13.6,24.3v8.5c0,4.7,3,11.4,10.8,11.4,7.6,0,11-6.6,11-11.4v-7.9c8.8-5.1,13.6-16.1,13.6-24.9V182.5C396.9,185.5,393.3,186.2,384.7,186.2Z"/><path class="cls-6" d="M373.7,254.8c-8.3,0-11.3-7.1-11.3-11.8v-8.2c-7.9-5.2-13.6-15.5-13.6-24.6V188.3a.66.66,0,0,1,.4-.5c5.5-.7,10.1-5.5,11.8-12.2,0-.2.2-.3.4-.3s.4,0,.5.2c4.3,6.1,13,10,22.8,10,8.8,0,11.9-.8,13.2-3.3a.37.37,0,0,1,.5-.2.43.43,0,0,1,.4.4v27.9c0,8.3-4.3,19.7-13.6,25.2v7.6C385.1,247.9,381.6,254.8,373.7,254.8Zm-24-66.1v21.5c0,8.9,5.6,18.9,13.4,23.9a.52.52,0,0,1,.2.4V243c0,4.4,2.8,10.9,10.3,10.9,7.2,0,10.5-6.4,10.5-10.9v-7.9a.52.52,0,0,1,.2-.4c8.8-5.1,13.4-16.2,13.4-24.5V183.8c-2.1,2.1-6.1,2.6-13.2,2.6-9.6,0-18.3-3.6-23-9.6C359.7,183.3,355.2,187.8,349.7,188.7Z"/><path class="cls-6" d="M378.8,219.2s-2.1,2.4-4.7,2.4-4.7-2.4-4.7-2.4a37,37,0,0,0,9.4,0Z"/><path class="cls-6" d="M374.3,212.7h0a2.41,2.41,0,0,1-1.9-.8,1.4,1.4,0,0,1-.2-1.4l.4.1a1.15,1.15,0,0,0,.1,1,1.68,1.68,0,0,0,1.4.6,1.94,1.94,0,0,0,1.7-.7,1.15,1.15,0,0,0,.1-1l.4-.2a1.49,1.49,0,0,1-.1,1.5A2.06,2.06,0,0,1,374.3,212.7Z"/><path class="cls-7" d="M426.4,266v56.1a5.34,5.34,0,0,1-5.3,5.3H326a5.34,5.34,0,0,1-5.3-5.3V265.9a5.34,5.34,0,0,1,5.3-5.3h95.1a5.42,5.42,0,0,1,5.3,5.4"/><path class="cls-8" d="M426.4,316v6.1a5.34,5.34,0,0,1-5.3,5.3H326a5.34,5.34,0,0,1-5.3-5.3v-6.2Z"/><path class="cls-9" d="M320.8,295.2a1.11,1.11,0,0,1-1.1-1.1V283a1.18,1.18,0,0,1,1.1-1.1,1.11,1.11,0,0,1,1.1,1.1v11a1.13,1.13,0,0,1-1.1,1.2"/><path class="cls-9" d="M421.2,328.6H326a6.44,6.44,0,0,1-6.4-6.4V300.9a1.18,1.18,0,0,1,1.1-1.1,1.11,1.11,0,0,1,1.1,1.1v21.3a4.23,4.23,0,0,0,4.2,4.2h95.2a4.23,4.23,0,0,0,4.2-4.2V266a4.23,4.23,0,0,0-4.2-4.2H326a4.23,4.23,0,0,0-4.2,4.2v11a1.1,1.1,0,0,1-2.2,0V266a6.44,6.44,0,0,1,6.4-6.4h95.1a6.44,6.44,0,0,1,6.4,6.4v56.1a6.38,6.38,0,0,1-6.3,6.5"/><path class="cls-10" d="M419.2,283.9a.9.9,0,0,1-.9-.9V272.9a4.44,4.44,0,0,0-4.4-4.4H402.5a.9.9,0,1,1,0-1.8H414a6.12,6.12,0,0,1,6.1,6.1V283c.1.4-.4.9-.9.9m-22.9-15.4h-7.9a.9.9,0,1,1,0-1.8h7.9a.9.9,0,0,1,.9.9,1,1,0,0,1-.9.9m-19.7,30c4.2,5,1,7.2-3,7.2a7.2,7.2,0,0,1,0-14.4c4,0,5.9,3.6,3,7.2"/><path class="cls-9" d="M373.6,292.4a6.1,6.1,0,0,0,0,12.2c1.9,0,3.4-.6,3.7-1.4s-.1-2.3-1.6-4a1.06,1.06,0,0,1,0-1.4c1.1-1.4,1.4-2.8.9-3.8a3.08,3.08,0,0,0-3-1.6m0,14.4a8.3,8.3,0,0,1,0-16.6,5.34,5.34,0,0,1,5,2.8,5.56,5.56,0,0,1-.6,5.5c1.6,2.2,2.1,4.1,1.4,5.6-.8,1.7-3,2.7-5.8,2.7"/><path class="cls-9" d="M372.5,288.1a1.11,1.11,0,0,1-1.1-1.1.37.37,0,0,1,.1-.3c.1-.1,1-3.5,3.8-4.3a1.14,1.14,0,0,1,1.4.8,1.09,1.09,0,0,1-.7,1.3c-1.6.5-2.3,2.7-2.3,2.8a1.41,1.41,0,0,1-1.2.8"/><path class="cls-6" d="M356.7,198.3a.71.71,0,0,1-.6-.3.85.85,0,0,1,0-1.3,5.47,5.47,0,0,1,4.4-1.8,4.17,4.17,0,0,1,3.1,1.8.94.94,0,0,1-1.6,1,2.33,2.33,0,0,0-1.7-1,3.46,3.46,0,0,0-2.9,1.2A.75.75,0,0,1,356.7,198.3Z"/><path class="cls-6" d="M392.1,198.3a1.08,1.08,0,0,1-.7-.3,3.93,3.93,0,0,0-3.1-1.2,3,3,0,0,0-2.2,1.1.93.93,0,1,1-1.5-1.1,4.69,4.69,0,0,1,3.6-1.8,5.74,5.74,0,0,1,4.5,1.8.93.93,0,0,1,0,1.3A1.42,1.42,0,0,1,392.1,198.3Z"/><path class="cls-4" d="M182.9,278.2c0-19.7,21.2-35.6,47.4-35.6s47.4,16,47.4,35.6"/><path class="cls-7" d="M282.6,268.1v56.1a5.34,5.34,0,0,1-5.3,5.3H182.2a5.34,5.34,0,0,1-5.3-5.3V268a5.34,5.34,0,0,1,5.3-5.3h95.1a5.49,5.49,0,0,1,5.3,5.4"/><path class="cls-9" d="M176.9,297.3a1.11,1.11,0,0,1-1.1-1.1V285a1.1,1.1,0,1,1,2.2,0v11.1a1,1,0,0,1-1.1,1.2"/><path class="cls-9" d="M277.3,330.7H182.2a6.44,6.44,0,0,1-6.4-6.4V303a1.1,1.1,0,1,1,2.2,0v21.3a4.23,4.23,0,0,0,4.2,4.2h95.2a4.23,4.23,0,0,0,4.2-4.2V268.1a4.23,4.23,0,0,0-4.2-4.2H182.3a4.23,4.23,0,0,0-4.2,4.2v11.1a1.1,1.1,0,0,1-2.2,0V268.1a6.44,6.44,0,0,1,6.4-6.4h95.1a6.44,6.44,0,0,1,6.4,6.4v56.1a6.55,6.55,0,0,1-6.5,6.5"/><path class="cls-10" d="M275.4,286a.9.9,0,0,1-.9-.9V275a4.44,4.44,0,0,0-4.4-4.4H258.7a.9.9,0,0,1,0-1.8h11.4a6.12,6.12,0,0,1,6.1,6.1V285a.85.85,0,0,1-.8,1m-22.9-15.4h-7.9a.9.9,0,1,1,0-1.8h7.9a.9.9,0,0,1,.9.9,1,1,0,0,1-.9.9m-19.7,30c4.2,5,1,7.2-3,7.2a7.2,7.2,0,0,1,0-14.4c4,0,5.9,3.6,3,7.2"/><path class="cls-9" d="M229.8,294.5a6.1,6.1,0,0,0,0,12.2c1.9,0,3.4-.6,3.7-1.4s-.1-2.3-1.6-4a1.06,1.06,0,0,1,0-1.4c1.1-1.4,1.4-2.8.9-3.8a3.08,3.08,0,0,0-3-1.6m0,14.4a8.3,8.3,0,0,1,0-16.6,5.34,5.34,0,0,1,5,2.8,5.56,5.56,0,0,1-.6,5.5c1.6,2.2,2.1,4.1,1.4,5.6-.9,1.8-3,2.7-5.8,2.7"/><path class="cls-9" d="M228.7,290.2a1.11,1.11,0,0,1-1.1-1.1.37.37,0,0,1,.1-.3c.1-.1,1-3.5,3.8-4.3a1.14,1.14,0,0,1,1.4.8,1.09,1.09,0,0,1-.7,1.3c-1.6.5-2.3,2.7-2.3,2.8a1.41,1.41,0,0,1-1.2.8"/><path class="cls-11" d="M229.9,256c7.2,0,10.5-6.4,10.5-10.9v-7.9a.52.52,0,0,1,.2-.4,9.91,9.91,0,0,0,1.7-1.1,51.9,51.9,0,0,1-12,1.4,53.3,53.3,0,0,1-11.5-1.3c.2.1.4.3.6.4a.52.52,0,0,1,.2.4v8.5C219.5,249.5,222.3,256,229.9,256Z"/><path class="cls-4" d="M33.4,276.1c0-19.7,21.2-35.6,47.4-35.6s47.4,16,47.4,35.6"/><path class="cls-7" d="M133.1,266v56.1a5.34,5.34,0,0,1-5.3,5.3H32.7a5.34,5.34,0,0,1-5.3-5.3V265.9a5.34,5.34,0,0,1,5.3-5.3h95.1a5.42,5.42,0,0,1,5.3,5.4"/><path class="cls-9" d="M27.5,295.2a1.11,1.11,0,0,1-1.1-1.1V283a1.18,1.18,0,0,1,1.1-1.1,1.11,1.11,0,0,1,1.1,1.1v11a1.13,1.13,0,0,1-1.1,1.2"/><path class="cls-9" d="M127.8,328.6H32.7a6.44,6.44,0,0,1-6.4-6.4V300.9a1.18,1.18,0,0,1,1.1-1.1,1.11,1.11,0,0,1,1.1,1.1v21.3a4.23,4.23,0,0,0,4.2,4.2h95.2a4.23,4.23,0,0,0,4.2-4.2V266a4.23,4.23,0,0,0-4.2-4.2H32.7a4.23,4.23,0,0,0-4.2,4.2v11a1.1,1.1,0,0,1-2.2,0V266a6.44,6.44,0,0,1,6.4-6.4h95.1a6.44,6.44,0,0,1,6.4,6.4v56.1a6.47,6.47,0,0,1-6.4,6.5"/><path class="cls-10" d="M125.9,283.9a.9.9,0,0,1-.9-.9V272.9a4.44,4.44,0,0,0-4.4-4.4H109.2a.9.9,0,1,1,0-1.8h11.4a6.12,6.12,0,0,1,6.1,6.1V283a.81.81,0,0,1-.8.9M103,268.5H95.1a.9.9,0,0,1,0-1.8H103a.9.9,0,0,1,.9.9,1,1,0,0,1-.9.9m-19.7,30c4.2,5,1,7.2-3,7.2a7.2,7.2,0,0,1,0-14.4c4,0,5.9,3.6,3,7.2"/><path class="cls-9" d="M80.3,292.4a6.1,6.1,0,1,0,0,12.2c1.9,0,3.4-.6,3.7-1.4s-.1-2.3-1.6-4a1.06,1.06,0,0,1,0-1.4c1.1-1.4,1.4-2.8.9-3.8a3.08,3.08,0,0,0-3-1.6m0,14.4a8.3,8.3,0,1,1,0-16.6,5.34,5.34,0,0,1,5,2.8,5.56,5.56,0,0,1-.6,5.5c1.6,2.2,2.1,4.1,1.4,5.6-.9,1.7-3,2.7-5.8,2.7"/><path class="cls-9" d="M79.2,288.1a1.11,1.11,0,0,1-1.1-1.1.37.37,0,0,1,.1-.3c.1-.1,1-3.5,3.8-4.3a1.14,1.14,0,0,1,1.4.8,1.09,1.09,0,0,1-.7,1.3c-1.6.5-2.3,2.7-2.3,2.8a1.41,1.41,0,0,1-1.2.8"/><path class="cls-12" d="M80.4,253.9c7.2,0,10.5-6.4,10.5-10.9v-7.9a.52.52,0,0,1,.2-.4,9.91,9.91,0,0,0,1.7-1.1,51.9,51.9,0,0,1-12,1.4,53.3,53.3,0,0,1-11.5-1.3c.2.1.4.3.6.4a.52.52,0,0,1,.2.4V243C70,247.4,72.8,253.9,80.4,253.9Z"/><path class="cls-13" d="M262.2,200.5c0,3.3-2.2,6-4.8,6s-4.8-2.7-4.8-6a4.8,4.8,0,1,1,9.6,0Z"/><path class="cls-6" d="M257.4,207.3c-3.1,0-5.6-3-5.6-6.8,0-3.5,2.2-5.7,5.6-5.7s5.6,2.2,5.6,5.7C263,204.2,260.5,207.3,257.4,207.3Zm0-11c-2.6,0-4.1,1.6-4.1,4.2,0,2.9,1.8,5.2,4.1,5.2s4.1-2.4,4.1-5.2C261.4,197.9,259.9,196.3,257.4,196.3Z"/><path class="cls-13" d="M207.8,200.5c0,3.3-2.2,6-4.8,6s-4.8-2.7-4.8-6a4.8,4.8,0,1,1,9.6,0Z"/><path class="cls-6" d="M202.9,207.3c-3.1,0-5.6-3-5.6-6.8,0-3.5,2.2-5.7,5.6-5.7s5.6,2.2,5.6,5.7C208.5,204.2,206,207.3,202.9,207.3Zm0-11c-2.6,0-4.1,1.6-4.1,4.2,0,2.9,1.8,5.2,4.1,5.2s4.1-2.4,4.1-5.2C207,197.9,205.5,196.3,202.9,196.3Z"/><path class="cls-5" d="M257.6,190.8c0,32.5-11.3,46.4-27.4,46.4s-27.9-13-27.9-46.4c0-20.1,11.7-24.3,27.9-24.3S257.6,170.8,257.6,190.8Z"/><path class="cls-6" d="M230.1,238c-8.8,0-15.8-3.7-20.6-11-5.3-8-8-20.1-8-36.2,0-22.1,14.5-25.1,28.6-25.1,14.6,0,28.2,3,28.2,25.1C258.3,221.2,248.3,238,230.1,238Zm0-70.7c-9.1,0-15.3,1.4-19.5,4.5-5.1,3.7-7.6,9.9-7.6,19,0,37.7,14.7,45.6,27.1,45.6,17.2,0,26.6-16.2,26.6-45.6C256.8,171.3,246.1,167.3,230.1,167.3Z"/><path class="cls-14" d="M229.6,206.9c10.8,0,13.3,6.7,18.3,6.7s8.5-7.2,8.5-7.2,3.2,37-25.8,37-26.9-36.6-26.9-36.6,1.4,6.7,7.6,6.7S217.9,206.9,229.6,206.9Z"/><path class="cls-6" d="M230.5,244.3c-7.7,0-13.9-2.5-18.5-7.4-5.3-5.6-7.5-13.5-8.4-19.1a53.41,53.41,0,0,1-.7-10.9.68.68,0,0,1,.7-.7.76.76,0,0,1,.8.6c.1.2,1.3,6.1,6.8,6.1,2.4,0,3.8-1.1,5.6-2.4a18.79,18.79,0,0,1,12.7-4.3c6.7,0,10.3,2.5,13.2,4.4,1.9,1.3,3.3,2.3,5.1,2.3,4.5,0,7.8-6.7,7.8-6.8a.74.74,0,0,1,.8-.4.75.75,0,0,1,.6.7,59,59,0,0,1-.4,11.1c-.8,5.7-2.8,13.7-8,19.4C244.3,241.8,238.1,244.3,230.5,244.3Zm-26.1-33.6c.2,5.9,1.7,17.7,8.7,25.1,4.3,4.6,10.2,6.9,17.4,6.9s12.9-2.3,17.1-6.9c7.4-8.1,8.2-21.2,8.1-26.7-1.5,2.3-4.3,5.3-7.8,5.3-2.3,0-4-1.2-6-2.6a19.33,19.33,0,0,0-12.3-4.2c-6.5,0-9.3,2.1-11.8,4-1.9,1.4-3.7,2.7-6.5,2.7A7.66,7.66,0,0,1,204.4,210.7Z"/><path class="cls-13" d="M239.7,219.3c-1.1,3.6-5.2,3.5-9.5,3.5s-9.5.5-10.5-3.2c-1.2-4.1,6.1-4.5,10.5-4.5S240.9,215.4,239.7,219.3Z"/><path class="cls-6" d="M227.5,223.6c-3.6,0-7.6-.3-8.6-3.8a3.25,3.25,0,0,1,.5-2.9c1.3-1.8,4.8-2.6,10.8-2.6,4.1,0,8.4.3,9.9,2.4a3,3,0,0,1,.4,2.8c-1.3,4.1-5.7,4.1-10,4.1h-3Zm2.6-7.7c-6.7,0-8.9,1.1-9.6,2a1.55,1.55,0,0,0-.2,1.5c.6,2.2,3.2,2.7,7.1,2.7h2.9c4.7,0,7.6-.2,8.5-3a1.45,1.45,0,0,0-.1-1.4C237.6,215.9,232,215.9,230.1,215.9Z"/><path class="cls-6" d="M212.9,198.3a.86.86,0,0,1-.6-.3.71.71,0,0,1,.1-1.1,5.8,5.8,0,0,1,4.2-1.4,3.58,3.58,0,0,1,2.8,1.5.79.79,0,0,1-1.3.9,2.14,2.14,0,0,0-1.7-.8,4.06,4.06,0,0,0-3,1A.76.76,0,0,1,212.9,198.3Z"/><path class="cls-6" d="M246.9,198.3a.76.76,0,0,1-.5-.2,4.41,4.41,0,0,0-3.2-1,3.69,3.69,0,0,0-2.2.9.78.78,0,0,1-1.2-1,4.22,4.22,0,0,1,3.3-1.4,6,6,0,0,1,4.3,1.4.91.91,0,0,1,.1,1.1A1.42,1.42,0,0,1,246.9,198.3Z"/><path class="cls-14" d="M222.8,151.1c10.2-2.8,21,4.2,25.9,10.6,4.1,5.3,9,3.8,12.8,9.6s1.3,16.6-1.5,21.2l-2.7,4.6s-3.6-14.2-9.1-16.6-5.3,3.4-17.5,2.4-16.3-8.2-19.3-7.2-2.5,6.3-5.1,11.5a95.09,95.09,0,0,0-4,9.9s-8.1-15.5-4.8-24.3c2.5-6.7,7.2-4.3,10.6-8.7S215.6,153.1,222.8,151.1Z"/><path class="cls-6" d="M202.5,197.8a1,1,0,0,1-.7-.4c-.3-.6-8.2-15.9-4.9-24.9,1.6-4.2,4-5.1,6.3-6a9.2,9.2,0,0,0,4.4-2.8c.5-.6,1-1.3,1.5-2,3.1-4.3,7.1-9.6,13.5-11.3a20.74,20.74,0,0,1,5-.6c8.8,0,17.3,5.8,21.8,11.5a14.65,14.65,0,0,0,6,4.3c2.4,1.1,4.8,2.2,6.9,5.4,4.1,6.2,1.3,17.4-1.4,22l-2.7,4.6a.91.91,0,0,1-.8.4.65.65,0,0,1-.6-.6c-1-3.8-4.4-14.2-8.6-16.1a4.55,4.55,0,0,0-2.1-.5,7.79,7.79,0,0,0-3,.9,19.49,19.49,0,0,1-9.5,2.2,24.37,24.37,0,0,1-2.7-.1,29.75,29.75,0,0,1-15.2-5.6c-1.7-1.1-2.9-1.9-3.7-1.7-1.4.4-1.9,2.3-2.5,5a30.26,30.26,0,0,1-2.1,6.2,81,81,0,0,0-4,9.8,3.18,3.18,0,0,1-.9.3Zm43.4-18.7a6.09,6.09,0,0,1,2.8.7c4.6,2,7.8,11.4,9,15.4l1.8-3c2.5-4.1,5.1-14.7,1.5-20.3a13,13,0,0,0-6.2-4.8,15.1,15.1,0,0,1-6.5-4.7c-4.1-5.3-12.3-10.9-20.6-10.9a17.59,17.59,0,0,0-4.6.6c-5.9,1.6-9.6,6.6-12.6,10.7-.5.7-1,1.4-1.5,2a9.94,9.94,0,0,1-5,3.3c-2.2.8-4.1,1.6-5.5,5.1-2.5,6.8,2.1,17.9,4,22,.7-1.8,1.9-4.9,3.4-8.2a31.63,31.63,0,0,0,2-5.9c.7-2.9,1.4-5.3,3.5-6.1a2.2,2.2,0,0,1,.8-.1c1.3,0,2.5.8,4.2,2a28.17,28.17,0,0,0,14.5,5.3,23.48,23.48,0,0,0,2.6.1,17.94,17.94,0,0,0,8.8-2A6.47,6.47,0,0,1,245.9,179.1Z"/><path class="cls-6" d="M229.8,208.9a2.77,2.77,0,0,1-.9-.1,4.18,4.18,0,0,1-2.9-1.9.74.74,0,0,1,1.3-.7,2.47,2.47,0,0,0,1.7,1.1,2.6,2.6,0,0,0,2.6-.7,1.38,1.38,0,0,0-.1-1.5c-1.1-1.7-2.9-7.5-2.4-9.4a.73.73,0,0,1,1.4.4c-.4,1.3,1.1,6.5,2.2,8.2a2.71,2.71,0,0,1,.1,3.1A3.12,3.12,0,0,1,229.8,208.9Z"/><path class="cls-6" d="M229.8,220.7a5.82,5.82,0,0,1-4.9-2.1.8.8,0,0,1,.2-1.1.81.81,0,0,1,1.1.2,4.31,4.31,0,0,0,3.6,1.4h0c1.9,0,3.7-.7,4.3-1.6.2-.4.7-.4,1.1-.2s.4.7.2,1.1c-1.1,1.6-3.6,2.3-5.6,2.3Z"/><path class="cls-13" d="M55.9,201.3c0,3.6-2.3,6.4-5.2,6.4s-5.2-2.9-5.2-6.4,2.3-5.3,5.2-5.3S55.9,197.7,55.9,201.3Z"/><path class="cls-6" d="M50.7,208.5c-3.3,0-6-3.3-6-7.3a5.7,5.7,0,0,1,6-6.1,5.7,5.7,0,0,1,6,6.1C56.7,205.3,54,208.5,50.7,208.5Zm0-11.7a4.12,4.12,0,0,0-4.4,4.5c0,3.1,2,5.6,4.4,5.6s4.4-2.5,4.4-5.6C55,198.5,53.4,196.8,50.7,196.8Z"/><path class="cls-5" d="M69.8,237.4c-9.1-3.2-12.9-12.4-16.3-25.3a73.67,73.67,0,0,1-2.8-21.9c0-22.5,11.6-30.7,30.1-30.7s30.9,4.7,30.9,27.2c0,33.7-11,53.4-30.9,53.4"/><path class="cls-6" d="M80.8,240.9a.8.8,0,1,1,0-1.6c19.1,0,30.1-19.2,30.1-52.6,0-21.9-12-26.4-30.1-26.4-9.6,0-16.6,2.2-21.4,6.7-5.2,4.9-7.9,12.7-7.9,23.2a73.3,73.3,0,0,0,2.8,21.7c4.6,17.6,9.5,22.5,15.8,24.7.4.2.7.6.5,1s-.6.7-1,.5c-9.2-3.2-13.3-12.3-16.8-25.8A76.14,76.14,0,0,1,50,190.2c0-21.2,10.1-31.6,30.9-31.6,16.5,0,31.8,3.4,31.8,28C112.5,221.1,100.9,240.9,80.8,240.9Z"/><path class="cls-6" d="M81.1,211.2a3.4,3.4,0,0,1-1-.1,4.27,4.27,0,0,1-3.2-2.2.81.81,0,0,1,1.4-.8,2.82,2.82,0,0,0,2,1.3c1.4.2,2.5-.1,3-.8a1.87,1.87,0,0,0-.1-1.9c-1.2-2-3.3-8.7-2.7-11a.82.82,0,0,1,1.6.4c-.4,1.6,1.3,7.8,2.5,9.8a3.36,3.36,0,0,1,.1,3.6A4.08,4.08,0,0,1,81.1,211.2Z"/><path class="cls-6" d="M64.5,196.1a1.42,1.42,0,0,1-.6-.2.91.91,0,0,1,0-1.2,4.93,4.93,0,0,1,4-1.6,3.51,3.51,0,0,1,2.8,1.7.81.81,0,1,1-1.4.8,1.89,1.89,0,0,0-1.6-.9,3.28,3.28,0,0,0-2.7,1.1A.55.55,0,0,1,64.5,196.1Z"/><path class="cls-6" d="M97,196.1a.86.86,0,0,1-.6-.3,3.44,3.44,0,0,0-2.9-1.1,2.66,2.66,0,0,0-2.1,1,.86.86,0,1,1-1.4-1,4.3,4.3,0,0,1,3.3-1.7,5.21,5.21,0,0,1,4.1,1.6.91.91,0,0,1,0,1.2C97.5,196,97.3,196.1,97,196.1Z"/><path class="cls-6" d="M80.4,221.6a5.75,5.75,0,0,1-4.8-2.1.79.79,0,0,1,1.3-.9c.6.9,2,1.4,3.7,1.3s3.5-.8,4.1-1.8a.81.81,0,1,1,1.4.8c-.9,1.5-3,2.5-5.5,2.6C80.6,221.6,80.5,221.6,80.4,221.6Z"/><path class="cls-13" d="M108.9,209.5c4.4.3,7.4-3.9,7.6-7.7s-3.5-5.2-6.5-4.9"/><path class="cls-6" d="M109.4,210.3h-.5a.85.85,0,1,1,.1-1.7,5.74,5.74,0,0,0,4.1-1.4,8.52,8.52,0,0,0,2.7-5.5,3.48,3.48,0,0,0-1-2.8,5.29,5.29,0,0,0-4.5-1.2.81.81,0,0,1-.2-1.6,7.46,7.46,0,0,1,5.9,1.7,5.2,5.2,0,0,1,1.6,4,9.69,9.69,0,0,1-3.2,6.6A7.84,7.84,0,0,1,109.4,210.3Z"/><path class="cls-15" d="M110.8,197a63.28,63.28,0,0,0,2.1-34.9,39.18,39.18,0,0,0-3.7-10c-5.7,1.3-7.3-2.1-22.7-4.2-11.1-1.5-16.2,2-18.1,4.1,0,0-3.6-1.8-10.9,1.4-6.6,2.9-12.3,10.5-8.3,34.3A93.78,93.78,0,0,0,53.6,206s-1.5-18.9,1.5-26.4a3.13,3.13,0,0,1,.5-1l1.5-2.2c4.1-4.7,11.7-5.4,14.6-2.6,3.4,3.3,9.2,2.9,9.2,2.9s5.8.4,9.2-2.9,13.6-1.7,16.5,5.8,1.5,26.4,1.5,26.4A86,86,0,0,0,110.8,197Z"/></svg>