<svg id="Layer_1" data-name="Layer 1" xmlns="http://www.w3.org/2000/svg" viewBox="0 0 633.66 409.82"><defs><style>.cls-1{fill:#e9eaeb;}.cls-10,.cls-11,.cls-12,.cls-2,.cls-8{fill:none;}.cls-11,.cls-2,.cls-5,.cls-6,.cls-8,.cls-9{stroke:#263238;}.cls-10,.cls-11,.cls-12,.cls-2,.cls-5,.cls-6,.cls-8,.cls-9{stroke-linecap:round;stroke-linejoin:round;}.cls-3{fill:#f55;}.cls-4{fill:#f0ae00;}.cls-5,.cls-7{fill:#263238;}.cls-13,.cls-6,.cls-9{fill:#fff;}.cls-8,.cls-9{stroke-width:2px;}.cls-10{stroke:#fff;}.cls-11{stroke-width:3px;}.cls-12{stroke:#f55;}.cls-14{fill:#a2a7a9;}</style></defs><title>drawing-bw-3-red</title><path class="cls-1" d="M605.76,163.62S594.45,103.88,531,70.49s-140.84-24.6-173,12.3S328.43,184.71,294.52,183s-46.94-48.32-93.89-18.45-22.6,70.29-26.08,95.77-43.47-14.06-75.64-3.52-46.94,40.42-43.47,58-12.17,39.53-12.17,39.53H611S619.67,240.06,605.76,163.62Z"/><line class="cls-2" x1="13.69" y1="354.61" x2="619.97" y2="354.61"/><path class="cls-3" d="M116.58,259.43c2.55,1.11,8.77,1,8.78,1s-1.34-4.08-1.46-4.33c-1.36-2.85-5.68-7.57-9.2-7.1a4.21,4.21,0,0,0-3.37,5.26C111.92,256.67,114.41,258.48,116.58,259.43Z"/><path class="cls-3" d="M118.73,277.46c2.64.39,8.2-1.23,8.64-1.36a75.3,75.3,0,0,0,3.37,9.33c.76,1.77,1.59,3.53,2.44,5.28-.51-.74-1-1.4-1-1.49-2.07-2.39-7.49-5.8-10.75-4.42a4.21,4.21,0,0,0-1.86,6c1.2,2.19,4.09,3.28,6.43,3.62s7.14-.94,8.4-1.29l1,2c1.61,3.2,3.23,6.39,4.72,9.57.53,1.12,1,2.24,1.49,3.36-.45-.66-.84-1.21-.9-1.29-2.08-2.39-7.49-5.8-10.75-4.42a4.2,4.2,0,0,0-1.86,6c1.2,2.19,4.09,3.28,6.43,3.62s6.68-.81,8.17-1.23c.46,1.17.92,2.33,1.31,3.48.25.79.55,1.53.76,2.34s.44,1.58.65,2.36c.37,1.51.75,3.07,1.07,4.56.23,1,.43,2,.63,3-.51-1.12-1.56-3.3-1.66-3.47-1.69-2.68-6.52-6.87-10-6a4.19,4.19,0,0,0-2.74,5.61c.86,2.35,3.55,3.86,5.81,4.55,2.49.76,8,.07,8.69,0,.33,1.64.64,3.25.9,4.77.6,3.35,1,6.36,1.38,8.91h2.33c-.41-2.64-.94-5.77-1.64-9.3-.33-1.67-.71-3.45-1.13-5.28A46.85,46.85,0,0,0,153.9,324c1.82,2,6.47,4.27,7.07,4.56-.63,1.56-1.26,3.06-1.88,4.48-1.28,3-2.51,5.58-3.59,7.82H158c.93-2.06,1.95-4.41,3-7,.65-1.57,1.31-3.27,2-5,.67.14,6.13,1.24,8.68.67,2.3-.52,5.1-1.83,6.13-4.11a4.19,4.19,0,0,0-2.32-5.8c-3.36-1.13-8.49,2.69-10.37,5.24-.11.15-1.13,1.91-1.76,3,.27-.72.54-1.41.8-2.15.54-1.47,1-2.94,1.57-4.53.23-.77.46-1.55.7-2.34s.42-1.64.63-2.46c.46-1.92.83-3.89,1.16-5.88,1.28.47,5.85,2.06,8.23,1.89s5.32-1,6.68-3.13a4.2,4.2,0,0,0-1.41-6.09c-3.15-1.62-8.8,1.38-11.05,3.61-.14.14-1.57,1.92-2.34,2.92.19-1.2.39-2.39.54-3.61.43-3.52.77-7.09,1.11-10.66.11-1.09.23-2.17.34-3.26.46.17,5.86,2.18,8.51,2,2.36-.16,5.32-1,6.69-3.13a4.19,4.19,0,0,0-1.41-6.08c-3.16-1.63-8.81,1.37-11.05,3.6-.17.17-2.23,2.74-2.72,3.42.26-2.4.53-4.78.9-7.12a74.75,74.75,0,0,1,2-9.37c.21.08,5.84,2.2,8.56,2,2.36-.16,5.32-1,6.68-3.13a4.2,4.2,0,0,0-1.41-6.09c-3.15-1.62-8.8,1.38-11.05,3.61-.17.18-2.38,2.94-2.75,3.47.06-.17.09-.37.15-.54a53.39,53.39,0,0,1,3.71-8.87c.8-1.58,1.66-3,2.53-4.44,1,.5,5.64,2.75,8.1,2.84s5.4-.44,7-2.37a4.2,4.2,0,0,0-.73-6.21c-3-2-8.9.4-11.38,2.37-.13.11-1.38,1.35-2.28,2.27.4-.63.81-1.28,1.2-1.88,1.49-2.23,3-4.19,4.32-5.91.77-1,1.49-1.83,2.16-2.63,1.25,0,6.27-.18,8.46-1.21s4.59-2.88,5.11-5.33a4.2,4.2,0,0,0-3.51-5.17c-3.53-.38-7.72,4.46-9,7.35-.12.25-1.41,4.36-1.34,4.36h.07c-.67.76-1.37,1.58-2.13,2.49-1.38,1.69-2.92,3.62-4.46,5.83a76.36,76.36,0,0,0-4.62,7.37,54,54,0,0,0-3.95,8.9s0,.07,0,.11c0-1,0-3.95,0-4.17-.41-3.14-3-9-6.53-9.62a4.2,4.2,0,0,0-4.84,3.95c-.21,2.5,1.6,5,3.37,6.57,2,1.78,7.51,3.5,7.95,3.64a74.8,74.8,0,0,0-2.33,9.63c-.34,1.9-.62,3.82-.88,5.75,0-.9,0-1.7-.05-1.81-.41-3.14-3-9-6.53-9.62a4.2,4.2,0,0,0-4.84,4c-.2,2.49,1.61,5,3.37,6.57s6.47,3.16,7.71,3.56c-.09.74-.19,1.48-.27,2.22-.43,3.56-.84,7.11-1.35,10.59-.17,1.22-.4,2.42-.61,3.62,0-.8,0-1.47,0-1.57-.4-3.14-3-9-6.52-9.62a4.21,4.21,0,0,0-4.85,4c-.2,2.5,1.61,5,3.38,6.57s6,3,7.49,3.49c-.26,1.22-.52,2.44-.83,3.62-.22.79-.39,1.58-.66,2.36s-.5,1.57-.75,2.33c-.53,1.47-1.08,3-1.63,4.4-.38,1-.76,1.92-1.14,2.86.19-1.21.52-3.6.52-3.81a16.32,16.32,0,0,0-2.18-7.92,4.74,4.74,0,0,0-.06-.93,4.19,4.19,0,0,0-5.13-3.56c-3.43.91-5.61,6.93-5.77,10.09,0,.18.12,2.22.21,3.5-.17-.74-.33-1.47-.52-2.23-.36-1.52-.76-3-1.19-4.64-.23-.77-.47-1.55-.71-2.34s-.55-1.6-.82-2.4c-.68-1.86-1.46-3.7-2.28-5.54,1.32-.32,6-1.52,7.9-3s3.87-3.8,3.85-6.3a4.19,4.19,0,0,0-4.53-4.3c-3.53.38-6.59,6-7.23,9.1,0,.19-.25,2.47-.34,3.72-.5-1.1-1-2.2-1.54-3.3-1.58-3.18-3.27-6.34-4.95-9.5l-1.52-2.91c.47-.11,6.09-1.41,8.2-3,1.87-1.43,3.87-3.79,3.85-6.3a4.2,4.2,0,0,0-4.54-4.29c-3.52.38-6.58,6-7.22,9.1,0,.23-.35,3.51-.38,4.35-1.11-2.14-2.2-4.28-3.19-6.44a75.77,75.77,0,0,1-3.46-8.94c.22-.05,6.09-1.38,8.25-3,1.88-1.44,3.87-3.79,3.85-6.3a4.21,4.21,0,0,0-4.54-4.3c-3.52.39-6.58,6-7.22,9.11,0,.24-.37,3.77-.38,4.41,0-.18-.13-.36-.18-.53a54.34,54.34,0,0,1-1.8-9.44c-.2-1.76-.29-3.46-.34-5.11,1.12-.14,6.22-.82,8.33-2.09s4.26-3.35,4.52-5.84a4.2,4.2,0,0,0-4-4.77c-3.55,0-7.21,5.24-8.19,8.25,0,.17-.41,1.89-.65,3.15,0-.74,0-1.51,0-2.23,0-2.68.17-5.14.34-7.31.11-1.24.23-2.35.35-3.39,1-.71,5.13-3.6,6.39-5.67s2.24-4.94,1.32-7.27a4.19,4.19,0,0,0-5.78-2.37c-3.15,1.63-4,8-3.46,11.09,0,.27,1.24,4.41,1.29,4.38l.06,0c-.14,1-.27,2.07-.4,3.25-.21,2.17-.44,4.63-.5,7.32a74.12,74.12,0,0,0,.21,8.7,54.38,54.38,0,0,0,1.61,9.6l0,.11c-.55-.88-2.2-3.27-2.34-3.44-2.08-2.4-7.49-5.81-10.75-4.42a4.19,4.19,0,0,0-1.86,6C113.5,276,116.39,277.12,118.73,277.46Z"/><path class="cls-3" d="M179.56,260.8c.05,0,1.13-4.14,1.17-4.41.43-3.14-.57-9.46-3.76-11a4.19,4.19,0,0,0-5.71,2.53c-.86,2.35.23,5.24,1.51,7.22C174.28,257.47,179.55,260.79,179.56,260.8Z"/><path class="cls-4" d="M564.22,305.6c1.52.67,5.24.58,5.24.58s-.8-2.43-.87-2.58c-.81-1.71-3.4-4.53-5.5-4.25a2.51,2.51,0,0,0-2,3.15C561.42,304,562.92,305,564.22,305.6Z"/><path class="cls-3" d="M565.5,316.39c1.58.23,4.9-.74,5.17-.81a43.86,43.86,0,0,0,2,5.57c.46,1.06,1,2.11,1.46,3.16l-.62-.89c-1.24-1.43-4.48-3.47-6.43-2.64a2.51,2.51,0,0,0-1.11,3.57,5.24,5.24,0,0,0,3.85,2.16,16.61,16.61,0,0,0,5-.77l.59,1.2c1,1.92,1.93,3.83,2.83,5.73.31.67.6,1.34.88,2-.27-.4-.5-.73-.54-.77-1.24-1.44-4.47-3.48-6.43-2.65a2.52,2.52,0,0,0-1.11,3.57c.72,1.31,2.45,2,3.85,2.17a16.22,16.22,0,0,0,4.89-.74c.27.7.55,1.39.78,2.08.15.47.33.92.45,1.4s.27.95.4,1.41c.21.91.44,1.84.63,2.73.14.62.26,1.21.38,1.81-.31-.67-.93-2-1-2.08-1-1.6-3.9-4.11-6-3.58a2.51,2.51,0,0,0-1.64,3.35c.51,1.41,2.12,2.31,3.47,2.73s4.79,0,5.2,0c.2,1,.39,2,.54,2.86.36,2,.62,3.8.83,5.32h1.39c-.24-1.57-.56-3.45-1-5.55-.2-1-.43-2.07-.67-3.16a28.58,28.58,0,0,0,2.9-1.37,18.31,18.31,0,0,0,4.22,2.73c-.37.93-.75,1.83-1.12,2.68-.77,1.77-1.5,3.34-2.15,4.67H589c.55-1.23,1.16-2.63,1.8-4.18.39-.95.78-2,1.18-3,.4.08,3.66.74,5.19.4,1.37-.31,3.05-1.09,3.66-2.46a2.51,2.51,0,0,0-1.38-3.47c-2-.67-5.08,1.61-6.21,3.14-.06.09-.67,1.14-1,1.82l.48-1.29c.32-.88.62-1.76.94-2.71l.42-1.4c.15-.47.25-1,.38-1.47.27-1.15.49-2.33.69-3.52a16.36,16.36,0,0,0,4.92,1.14,5.25,5.25,0,0,0,4-1.88,2.51,2.51,0,0,0-.85-3.64c-1.88-1-5.26.82-6.6,2.16-.09.08-.94,1.15-1.4,1.75.11-.72.23-1.44.32-2.16.26-2.11.46-4.25.66-6.38l.21-1.95c.27.1,3.5,1.3,5.08,1.19,1.42-.1,3.19-.61,4-1.87a2.51,2.51,0,0,0-.84-3.64c-1.89-1-5.27.82-6.61,2.16-.1.1-1.33,1.64-1.62,2,.15-1.43.31-2.86.53-4.26a43.07,43.07,0,0,1,1.23-5.6c.12.05,3.49,1.32,5.11,1.2,1.41-.1,3.19-.61,4-1.87a2.51,2.51,0,0,0-.84-3.64c-1.89-1-5.27.82-6.61,2.16-.1.1-1.43,1.76-1.64,2.07,0-.1.05-.22.08-.32a32.17,32.17,0,0,1,2.22-5.3c.48-1,1-1.82,1.51-2.66a17.13,17.13,0,0,0,4.85,1.7A5.23,5.23,0,0,0,611,307.1a2.5,2.5,0,0,0-.44-3.71c-1.77-1.18-5.32.23-6.8,1.42-.08.06-.83.8-1.37,1.35.24-.37.48-.77.72-1.12.89-1.34,1.78-2.51,2.59-3.54.46-.58.88-1.09,1.29-1.57a17.22,17.22,0,0,0,5.06-.72c1.28-.61,2.74-1.73,3.05-3.19a2.5,2.5,0,0,0-2.1-3.09c-2.11-.23-4.61,2.66-5.38,4.39-.07.15-.84,2.61-.8,2.61h0c-.4.45-.82.94-1.27,1.49-.83,1-1.75,2.16-2.67,3.49a45.26,45.26,0,0,0-2.77,4.4,33.55,33.55,0,0,0-2.36,5.32s0,.05,0,.07c0-.62,0-2.36,0-2.49-.25-1.88-1.82-5.37-3.91-5.75a2.51,2.51,0,0,0-2.89,2.36c-.12,1.49,1,3,2,3.93s4.5,2.09,4.76,2.17a45.7,45.7,0,0,0-1.4,5.76c-.2,1.14-.37,2.29-.52,3.44,0-.54,0-1,0-1.08-.24-1.88-1.82-5.37-3.9-5.75a2.5,2.5,0,0,0-2.9,2.36c-.12,1.49,1,3,2,3.93a16.59,16.59,0,0,0,4.61,2.12c-.05.45-.11.89-.17,1.33-.25,2.13-.5,4.26-.8,6.34-.11.73-.24,1.44-.37,2.16,0-.47,0-.88,0-.94-.25-1.88-1.82-5.36-3.91-5.75a2.51,2.51,0,0,0-2.89,2.36c-.13,1.49,1,3,2,3.93a16.24,16.24,0,0,0,4.48,2.09c-.15.73-.31,1.46-.49,2.16-.14.48-.23.95-.4,1.42l-.45,1.39c-.32.88-.64,1.78-1,2.63-.23.59-.45,1.15-.68,1.71.11-.73.31-2.15.31-2.28a9.76,9.76,0,0,0-1.31-4.74,2.54,2.54,0,0,0,0-.55,2.5,2.5,0,0,0-3.07-2.13c-2.05.54-3.35,4.14-3.45,6,0,.11.07,1.33.13,2.1-.11-.45-.2-.88-.31-1.34-.22-.9-.46-1.8-.71-2.77-.14-.46-.29-.93-.43-1.4s-.33-1-.49-1.44c-.41-1.11-.87-2.21-1.37-3.31a16.6,16.6,0,0,0,4.73-1.77,5.25,5.25,0,0,0,2.3-3.77,2.5,2.5,0,0,0-2.71-2.57c-2.11.23-3.94,3.59-4.32,5.44,0,.12-.15,1.48-.2,2.23-.3-.66-.6-1.32-.93-2-.94-1.9-1.95-3.79-3-5.68-.3-.58-.6-1.16-.91-1.74.29-.07,3.64-.84,4.91-1.81a5.25,5.25,0,0,0,2.3-3.77,2.5,2.5,0,0,0-2.71-2.57c-2.11.23-3.94,3.59-4.32,5.44,0,.14-.21,2.1-.23,2.6-.66-1.27-1.31-2.56-1.9-3.84a43.6,43.6,0,0,1-2.07-5.35c.13,0,3.63-.83,4.93-1.82a5.25,5.25,0,0,0,2.3-3.77,2.51,2.51,0,0,0-2.71-2.57c-2.11.23-3.94,3.59-4.32,5.45,0,.14-.22,2.25-.23,2.63,0-.1-.08-.21-.11-.31a32,32,0,0,1-1.07-5.65c-.12-1-.18-2.07-.21-3,.67-.09,3.72-.49,5-1.26a5.24,5.24,0,0,0,2.71-3.49,2.51,2.51,0,0,0-2.42-2.85c-2.12,0-4.31,3.13-4.89,4.93,0,.1-.24,1.13-.39,1.89,0-.45,0-.91,0-1.33,0-1.61.11-3.08.21-4.38.06-.74.13-1.4.2-2a16.68,16.68,0,0,0,3.83-3.39c.73-1.21,1.34-2.95.79-4.34a2.51,2.51,0,0,0-3.46-1.42c-1.88,1-2.38,4.76-2.07,6.63,0,.16.74,2.64.77,2.62l0,0c-.08.6-.17,1.25-.24,2-.13,1.3-.26,2.77-.3,4.38a46.32,46.32,0,0,0,.12,5.2,32.65,32.65,0,0,0,1,5.74.14.14,0,0,0,0,.07c-.34-.52-1.32-2-1.41-2.06-1.24-1.43-4.47-3.47-6.43-2.64a2.51,2.51,0,0,0-1.11,3.56C562.37,315.53,564.1,316.18,565.5,316.39Z"/><path class="cls-3" d="M601.88,306.42s.68-2.47.7-2.64c.26-1.87-.34-5.65-2.25-6.57a2.5,2.5,0,0,0-3.41,1.51c-.52,1.41.13,3.13.9,4.32C598.72,304.44,601.88,306.42,601.88,306.42Z"/><path class="cls-5" d="M385.51,309.57a256.72,256.72,0,0,1,30.17-2.47c15.6-.25,20.71.77,24.55,2s7.26,12,2.23,22.26S419.77,350.07,395.73,348s-41.17-6.9-50.38-13.81-1-10.74,9.21-16.37S378.62,309.22,385.51,309.57Z"/><path class="cls-6" d="M365.56,333.19s35.8-19.69,48.33-23.27,26.85-4.35,33.5,0,5.11,18.41,2.05,23.78-27.88,16.62-41.69,20.71-67.77,3.84-82.6,5.12-50.64.51-55.75-2.3-2-5.89,5.37-7.68,32-1.79,43.47-5.11S357.12,337.53,365.56,333.19Z"/><path class="cls-5" d="M449.44,333.7c1.49-2.62,2.62-7.3,2.62-11.92-9.27,7.35-23.71,16.05-43.67,23.18-18.93,6.76-72.53,12.81-94.69,15.1,4.4-.09,8.38-.27,11.45-.53,14.83-1.28,68.79-1,82.6-5.12S446.37,339.07,449.44,333.7Z"/><path class="cls-5" d="M424.13,348.37c3.8-1.61,7.59-3.36,11.06-5.1.76-3.76,1.66-14.81-6.43-36.11a77.87,77.87,0,0,0-14.87,2.76S429.05,327.26,424.13,348.37Z"/><path class="cls-6" d="M330.55,341.64c-4.81,1-9.15,1.89-12.31,2.8-11.5,3.32-36.05,3.32-43.47,5.11s-10.49,4.86-5.37,7.68,40.92,3.58,55.75,2.3c1.75-.15,4.05-.28,6.76-.4C326,352.7,328.69,345.19,330.55,341.64Z"/><path class="cls-6" d="M307.25,301s-23.27,2.82-35,3.84-33,10.49-37.33,19.69S243.57,344.7,251,347s29.66,7.41,41.94,6.65,48.59-11.51,55-13.56,17.65-6.9,17.65-6.9-10.75,0-28.9-9.21S315.69,305.31,307.25,301Z"/><path class="cls-5" d="M257.29,308.27s18.35-1.91,26.76,4.21,13.76,24.85,13.76,24.85L336.66,324s-2.91-3.09-10.18-11.89S297.81,298.33,285.19,301,257.29,308.27,257.29,308.27Z"/><path class="cls-6" d="M346.07,340.67l1.84-.58c6.39-2,17.65-6.9,17.65-6.9s-8.25,0-22.51-6.2C345.08,330.41,347.11,335.4,346.07,340.67Z"/><path class="cls-5" d="M359.91,335.55A318.81,318.81,0,0,0,313.67,345c-22.11,6.25-48.77,4-61.69,2.34,8.24,2.41,29.18,7.08,41,6.35,12.27-.77,48.59-11.51,55-13.56C351.34,339,356.17,337.09,359.91,335.55Z"/><path class="cls-6" d="M384.13,226.64l-5.25,51.69s2.49,12.44,4.15,17.42,3.31,13,2.48,13.82-1.38.28-7.18,1.93S365.61,323.11,356.77,327s-16,1.94-24.33-1.38-23.77-23.49-27.09-24.05-13.26-2.21-17.41-3.59-9.12-7.19-9.12-7.19-.83,0-.83-3,.28-3.31.28-3.31A9.59,9.59,0,0,1,275.5,280c-.55-2.48,5.25-15.75,5.25-24.05s4.15-39.52,4.15-43.39,5.8-4.7,11.88-7.19,38.15-14.37,38.7-17.69,2.77-26.54,2.77-26.54,17.2,18.4,19.35,19.91a18.29,18.29,0,0,1,4.14,3.87L359.81,194s8.29,6.08,13.82,9.4,13,6.35,13.27,8.56"/><path class="cls-2" d="M297.25,287.44a18.69,18.69,0,0,1,3.68,3.89"/><path class="cls-2" d="M278,287.73s7.94-5.51,15.88-2.26"/><path class="cls-6" d="M364.78,197.58c-2.83-2-5-3.55-5-3.55l1.93-9.12A18.29,18.29,0,0,0,357.6,181c-2.15-1.51-19.35-19.91-19.35-19.91s-2.21,23.22-2.77,26.54c-.18,1.08-3.68,3.06-8.53,5.32.85,5.34,3.88,14.23,14.61,17.62S360.58,204.19,364.78,197.58Z"/><path class="cls-7" d="M359.89,194.09l-.08-.06,1.93-9.12A18.29,18.29,0,0,0,357.6,181c-1.22-.86-7.3-7.16-12.32-12.44L344,174.65S344,192,359.89,194.09Z"/><path class="cls-5" d="M342.51,104.11s-.79-6.6-6.07-7.92-17.42-.53-21.65,7.39-1.05,14,.53,15a18.2,18.2,0,0,0,2.91,1.58l1.32-6.6s.52,5.81,4.22,7.13,11.35,0,11.35,0S341.72,116,342.51,104.11Z"/><path class="cls-5" d="M391.32,127.69s9.4,6.08,9.4,12.16-11.61,8.29-11.61,8.29Z"/><path class="cls-6" d="M393.46,128.92s-1.06,12.67-2.11,19.8-5.54,12.93-5.81,17.69-10.82,16.36-16.1,20.32-13.2,2.64-17.16-.52a51.3,51.3,0,0,1-13.73-19c-3.16-8.18-.79-20.06,0-23.76s20.59-18.21,35.64-18.21S393.46,128.92,393.46,128.92Z"/><path class="cls-2" d="M376.83,158.49s1.06,9.5,1.06,10.29-2.38,3.17-6.34.79"/><path class="cls-2" d="M361,169.57s4.22,5.28,11.09,5"/><path class="cls-8" d="M375.25,150a32.73,32.73,0,0,0-19.8-3.7s-3.17,0-1.32,2.38c0,0-.79,7.92,1.05,10.3s6.08,4.22,10.3,4.22S373.93,158.22,375.25,150Z"/><line class="cls-9" x1="353.86" y1="146.61" x2="336.71" y2="145.55"/><path class="cls-8" d="M375.25,150l4.48,1.32s-1.84,9.77-.79,12.41h0a5.81,5.81,0,0,0,3.95,3.46,21,21,0,0,0,4.24.76c2.11,0,6.59-4.22,7.65-11.61,0,0,1.32-.53.79-1.32s-6.91-4.49-15.62-3.7"/><path class="cls-8" d="M375,152.42s3.37.22,4.37,1.49"/><path class="cls-7" d="M365.87,155.43c-.31,1.73-1.16,3-1.92,2.89s-1.11-1.64-.8-3.37,1.16-3,1.91-2.89S366.17,153.7,365.87,155.43Z"/><ellipse class="cls-7" cx="383.92" cy="159.74" rx="2.85" ry="1.24" transform="translate(127.28 486.91) rotate(-74.48)"/><path class="cls-8" d="M360.36,149.25S367,147,370,150.63"/><path class="cls-8" d="M382.2,154.22s3-2.76,5.53,1.11"/><path class="cls-5" d="M347.79,144s14.26-7.66,26.4-10,21.38-1.32,23.49-8.45-12.14-19-26.92-23.23-32.47.26-39.6,10.82-4.75,23.23-2.64,28,3.7,8.45,7.66,9S347.79,144,347.79,144Z"/><path class="cls-10" d="M337.47,135.59a15.47,15.47,0,0,0-3.84,3.19"/><path class="cls-10" d="M387.13,117.61s3.84,2.31-7.32,6.93c-8.1,3.35-24.52,4.27-36,8.2"/><path class="cls-10" d="M372.3,114.91a10.62,10.62,0,0,0,2.12-3.46"/><path class="cls-10" d="M330.93,134.16s-3.46-5,8.47-8.47c8.61-2.5,21-3.39,28.71-7.6"/><path class="cls-6" d="M340.4,154s-2.09-10.3-6.59-10.3-5.09,4.76-3.29,10.56,4.79,7.66,7.49,5.81"/><path class="cls-2" d="M305.35,301.55s1.11-1.38,1.11-5.8-3-19.07-4.42-29.3-2.77-29.85-2.77-38.15"/><path class="cls-2" d="M333.21,269.6a27.83,27.83,0,0,0,2.27,3.21"/><path class="cls-2" d="M317.79,218.63s5,30.55,13.44,47.41"/><path class="cls-2" d="M335.14,244.63c1.12,2.11,2.25,4.08,3.38,5.79"/><path class="cls-2" d="M321.11,210.06a286.41,286.41,0,0,0,12.11,30.75"/><path class="cls-6" d="M261.68,289.67s3,2.49,9.12,2.49,11.34-3.05,19.07-1.11,7.74,9.67,6.91,11.89-8.29,3.59-15.2,2.76-21-2.21-21-2.21S262.79,295.47,261.68,289.67Z"/><path class="cls-6" d="M256,282.64a8.09,8.09,0,0,0,4.16,4.8c3.52,1.92,4.8,7,4.8,9.91a13.14,13.14,0,0,1-.64,4.48s-1,3.84-4.16,4.48-5.12,2.56-8.95-1.28S242,289,242,289l.64-1.92a14.8,14.8,0,0,0,5.76-1.28C250.93,284.56,256,282.64,256,282.64Z"/><line class="cls-11" x1="238.13" y1="269.53" x2="260.2" y2="306.31"/><path class="cls-6" d="M244.85,306a10.45,10.45,0,0,0,7,2.56c4.47,0,8.95-2.88,6.71-3.84s-3.84-1.92-5.44-1.28S244.85,306,244.85,306Z"/><path class="cls-6" d="M241.65,301.19s1.92,5.44,3.52,6.08,8.31-1,10.23-2.24-1.28-3.52-4.15-3.52S241.65,301.19,241.65,301.19Z"/><path class="cls-6" d="M240.37,292.88s-1.28,6.71,1.28,8.31,12.47,2.24,13.43.32-2.56-2.88-6.07-4.48S240.37,292.88,240.37,292.88Z"/><path class="cls-6" d="M250.29,283.6s.32,12.48,1.6,13.75,4.15,1.6,4.79.64,1.28-11.83-.64-15.35S250.29,283.6,250.29,283.6Z"/><path class="cls-6" d="M242.61,287.12s-4.16-1-4.16,3.2,5.76,6.71,8.32,7,5.44-.64,3.2-2.55S244.53,288.72,242.61,287.12Z"/><path class="cls-5" d="M274,307.36l17.9-2.56s-2.3-3.32-8.18-3.32-9.46,2.81-10.23,3.83S274,307.36,274,307.36Z"/><path class="cls-6" d="M310.06,328.58l28.64-10s-6.9-14.58-19.94-19.69-32.39-3.8-40.58-.73l3,3.29s5.89.25,12.28,7.67,12.79,19.18,12.79,19.18Z"/><path class="cls-12" d="M292.19,299.57s11.37-1.62,23.29,23.83"/><path class="cls-12" d="M297.8,298.45s11.37-1.62,23.28,23.83"/><path class="cls-12" d="M302.5,297.56s11.38-1.63,23.29,23.82"/><path class="cls-6" d="M233.85,325.26s12.79-18.92,36.57-17.39l3.58-.51s2.3-5.37,8.95-4.09,23.79,27.62,23.79,27.62l3.32-2.31s-9.05-15.33-15.95-24-15.93-8.4-18.82-5.21a44.76,44.76,0,0,0-4.19,6.35s-2.66-4-10.53-2.21c-9.66,2.21-15,6.51-17.74,9.48-4,4.32-12.06,10.19-11.28,9.73Z"/><polygon class="cls-6" points="306.74 330.89 337.17 320.4 338.7 318.61 310.06 328.58 306.74 330.89"/><path class="cls-6" d="M381.79,208s11,3.79,12.64,9.59,9.88,37.54,12.09,42.23,7.19,7.47,7.19,11.06.27,6.36.27,6.36,5.81.28,6.36,5S422,293,422,293l22.12,34.22s13.19,1.06,16.23.79,12.08.3,15.38,2c1.28.67,3.83,2.87,5.82,9.9,1,3.5,3.2,10.27,1.81,10s-3.08-4.13-3.63-5a55.56,55.56,0,0,1-2.17-5.55s1.11,8,1.38,9.68a6.14,6.14,0,0,1-.55,3.31l-.12,0a6.72,6.72,0,0,1-4.27.26l-1.14-.31h0a4.56,4.56,0,0,1-3.47.37l-1.23-.37s-1.79-5.67-3.45-7.89-6.87-4.61-6.87-4.61,5.62,6.42,5.35,10.57c-.12,1.68.27,3-1.11,2.21s-3-5-6.08-6.36-10.23-3.31-13-5-7.19-7.74-7.19-7.74L399.61,301s-3.59-3.59-4.15-5.53l-.55-1.93s-5-3-6.36-4.7-1.93-5.25-1.93-5.25L379.16,275l5-47.27"/><path class="cls-6" d="M381.31,238.7,379.16,275l7.46,8.57s.55,3.59,1.93,5.25,6.36,4.7,6.36,4.7l.55,1.93c.56,1.94,4.15,5.53,4.15,5.53l5.42,4.88c2.2-4.29,7.44-12,16.9-13.28-.25-1.39-1.12-6.39-1.59-10.4-.55-4.69-6.36-5-6.36-5s-.27-2.77-.27-6.36-5-6.36-7.19-11.06-10.43-36.42-12.09-42.23S381.79,208,381.79,208"/><polygon class="cls-7" points="380.88 249.68 384.52 280.75 379.16 275.02 380.88 249.68"/><path class="cls-2" d="M406.55,282.1a28.82,28.82,0,0,1,2.46-1.55"/><path class="cls-2" d="M397.68,292.16a25.7,25.7,0,0,1,6.12-7.87"/><path class="cls-2" d="M403.7,277.19a20.74,20.74,0,0,1,3.65-.24"/><path class="cls-2" d="M390.21,283.86a28.87,28.87,0,0,1,9.18-5.54"/><path class="cls-2" d="M459.32,341.91s-3-4.15-7.19-4.42"/><path class="cls-2" d="M460.7,332.79s3.32.83,7.46,6.08,5.25,13,5.25,13"/><path class="cls-2" d="M468.61,331.68s6.19,5,7.29,9.68,2.49,11.05,2.49,11.05"/><path class="cls-2" d="M477.56,339.42a27.88,27.88,0,0,0-3.87-8.84"/><polygon class="cls-6" points="561.31 350.47 485.02 350.47 506.03 280.81 582.32 280.81 561.31 350.47"/><path class="cls-5" d="M561.31,350.47l17.8-59c-22.53,2.78-35.78,21.34-56.62,41.69-13.11,12.81-22.22,16.49-27.56,17.33Z"/><ellipse class="cls-6" cx="536.71" cy="312.32" rx="6.04" ry="5.8"/><rect class="cls-6" x="419.51" y="350.19" width="142.63" height="4.42"/><rect class="cls-5" x="489.17" y="350.19" width="72.97" height="4.42"/><path class="cls-6" d="M233.71,338.29H176.54a9.17,9.17,0,0,0-9.17,9.17v1a9.17,9.17,0,0,0,9.17,9.17h57.17a20,20,0,0,1-3.06-9.8A18.57,18.57,0,0,1,233.71,338.29Z"/><path class="cls-6" d="M206.57,338.29H149.4a9.17,9.17,0,0,0-9.17,9.17v1a9.17,9.17,0,0,0,9.17,9.17h57.17a20,20,0,0,1-3.06-9.8A18.57,18.57,0,0,1,206.57,338.29Z"/><path class="cls-6" d="M140.23,347.46v1a9.17,9.17,0,0,0,5.3,8.31l1.26.05V339.7l-.74-.77A9.16,9.16,0,0,0,140.23,347.46Z"/><path class="cls-11" d="M233.71,338.29H149.4a9.17,9.17,0,0,0-9.17,9.17v1a9.17,9.17,0,0,0,9.17,9.17h84.31"/><line class="cls-2" x1="147.08" y1="342.56" x2="175.04" y2="342.56"/><line class="cls-2" x1="179.04" y1="345.13" x2="183.32" y2="345.13"/><line class="cls-2" x1="152.5" y1="345.13" x2="175.33" y2="345.13"/><line class="cls-2" x1="147.08" y1="350.83" x2="161.35" y2="350.83"/><line class="cls-2" x1="189.88" y1="353.97" x2="193.02" y2="353.97"/><line class="cls-2" x1="169.91" y1="353.97" x2="187.31" y2="353.97"/><line class="cls-2" x1="152.5" y1="353.97" x2="164.77" y2="353.97"/><path class="cls-6" d="M177.1,338.29H97a9.18,9.18,0,0,0-9.17,9.17v1A9.18,9.18,0,0,0,97,357.64H177.1a20.06,20.06,0,0,1-3-9.8A18.61,18.61,0,0,1,177.1,338.29Z"/><line class="cls-2" x1="128.4" y1="341.33" x2="128.4" y2="355.18"/><line class="cls-2" x1="128.83" y1="343.5" x2="151.77" y2="343.5"/><line class="cls-2" x1="128.83" y1="346.96" x2="160.42" y2="346.96"/><line class="cls-2" x1="138.57" y1="350.85" x2="146.79" y2="350.85"/><line class="cls-2" x1="157.18" y1="353.45" x2="132.51" y2="353.45"/><path class="cls-5" d="M124.41,348.47v-1a9.18,9.18,0,0,1,9.18-9.17H97a9.18,9.18,0,0,0-9.17,9.17v1A9.18,9.18,0,0,0,97,357.64h36.57A9.18,9.18,0,0,1,124.41,348.47Z"/><path class="cls-11" d="M172.89,338.29H97a9.18,9.18,0,0,0-9.17,9.17v1A9.18,9.18,0,0,0,97,357.64h75.87"/><path class="cls-11" d="M178.81,338.29h-45a9.18,9.18,0,0,0-9.17,9.17v1a9.18,9.18,0,0,0,9.17,9.17h45"/><path class="cls-6" d="M224.62,319.24H167.45a9.17,9.17,0,0,0-9.17,9.17v1a9.16,9.16,0,0,0,9.17,9.17h57.17a20,20,0,0,1-3.06-9.8A18.57,18.57,0,0,1,224.62,319.24Z"/><path class="cls-6" d="M197.48,319.24H140.31a9.17,9.17,0,0,0-9.17,9.17v1a9.16,9.16,0,0,0,9.17,9.17h57.17a20,20,0,0,1-3.06-9.8A18.57,18.57,0,0,1,197.48,319.24Z"/><path class="cls-6" d="M131.14,328.41v1a9.17,9.17,0,0,0,5.3,8.31l1.26,0V320.66l-.74-.78A9.16,9.16,0,0,0,131.14,328.41Z"/><path class="cls-11" d="M224.62,319.24H140.31a9.17,9.17,0,0,0-9.17,9.17v1a9.16,9.16,0,0,0,9.17,9.17h84.31"/><line class="cls-2" x1="137.99" y1="323.51" x2="165.95" y2="323.51"/><line class="cls-2" x1="169.95" y1="326.08" x2="174.23" y2="326.08"/><line class="cls-2" x1="143.41" y1="326.08" x2="166.24" y2="326.08"/><line class="cls-2" x1="137.99" y1="331.79" x2="152.25" y2="331.79"/><line class="cls-2" x1="180.79" y1="334.93" x2="183.93" y2="334.93"/><line class="cls-2" x1="160.82" y1="334.93" x2="178.22" y2="334.93"/><line class="cls-2" x1="143.41" y1="334.93" x2="155.68" y2="334.93"/><path class="cls-2" d="M450.53,267.92H431a1.5,1.5,0,0,1-1.5-1.5v-5.68a1.5,1.5,0,0,1,1.5-1.49h26.19a1.5,1.5,0,0,1,1.5,1.49V263"/><path class="cls-2" d="M450.34,277.16V265a2,2,0,0,1,2-1.95h25.94a2,2,0,0,1,1.95,1.95v14.55"/><path class="cls-2" d="M480.18,291.54v15.15a2,2,0,0,1-1.95,1.95H452.29a2,2,0,0,1-2-1.95V280.08"/><line class="cls-2" x1="452.19" y1="270.16" x2="478.32" y2="270.16"/><line class="cls-2" x1="464.67" y1="278.05" x2="478.32" y2="278.05"/><line class="cls-2" x1="452.19" y1="278.05" x2="462.54" y2="278.05"/><line class="cls-2" x1="452.19" y1="285.93" x2="478.32" y2="285.93"/><line class="cls-2" x1="473.64" y1="293.81" x2="478.32" y2="293.81"/><line class="cls-2" x1="452.19" y1="293.81" x2="471.28" y2="293.81"/><line class="cls-2" x1="452.19" y1="301.69" x2="478.32" y2="301.69"/><line class="cls-2" x1="434.76" y1="263.39" x2="449" y2="263.39"/><path class="cls-2" d="M247.79,113.55H223.66a1.85,1.85,0,0,1-1.85-1.85v-7a1.85,1.85,0,0,1,1.85-1.85H256a1.85,1.85,0,0,1,1.85,1.85v2.75"/><path class="cls-2" d="M247.56,125V110a2.41,2.41,0,0,1,2.4-2.4h32a2.4,2.4,0,0,1,2.4,2.4v18"/><path class="cls-2" d="M284.39,142.7v18.71a2.39,2.39,0,0,1-2.4,2.4H250a2.4,2.4,0,0,1-2.4-2.4V128.55"/><line class="cls-2" x1="249.84" y1="116.32" x2="282.1" y2="116.32"/><line class="cls-2" x1="265.25" y1="126.05" x2="282.1" y2="126.05"/><line class="cls-2" x1="249.84" y1="126.05" x2="262.62" y2="126.05"/><line class="cls-2" x1="249.84" y1="135.78" x2="282.1" y2="135.78"/><line class="cls-2" x1="276.32" y1="145.51" x2="282.1" y2="145.51"/><line class="cls-2" x1="249.84" y1="145.51" x2="273.41" y2="145.51"/><line class="cls-2" x1="249.84" y1="155.24" x2="282.1" y2="155.24"/><line class="cls-2" x1="228.33" y1="107.95" x2="245.91" y2="107.95"/><path class="cls-7" d="M289.19,143.67a5.34,5.34,0,0,1-3.71-1.5L282,138.76a1.24,1.24,0,0,1-.17-1.54,1.22,1.22,0,0,1,.89-.58,1.25,1.25,0,0,1,1,.33l.68.64L281,130.49a1.44,1.44,0,0,1,0-1.15,1.47,1.47,0,0,1,2.7-.11l1.3,2.52a1.55,1.55,0,0,1,.93-.54,2,2,0,0,1,1.36.4,1.47,1.47,0,0,1,1-.58,1.88,1.88,0,0,1,1.15.27,1,1,0,0,1,1-.6,1.41,1.41,0,0,1,1.13.73l2.44,4.49a5.34,5.34,0,0,1-4.75,7.75Zm-6.27-6.48h-.09a.72.72,0,0,0-.49.32.68.68,0,0,0,.09.85l3.44,3.41a4.77,4.77,0,0,0,7.57-5.59L291,131.7a.85.85,0,0,0-.67-.45c-.22,0-.47,0-.55.55l-.08.51-.38-.35a1.52,1.52,0,0,0-1.05-.38,1.1,1.1,0,0,0-.75.57l-.18.29-.25-.23a1.62,1.62,0,0,0-1.14-.45,1.18,1.18,0,0,0-.81.67l-.27.46-1.73-3.42A.92.92,0,0,0,282,129a.94.94,0,0,0-.5.52,1,1,0,0,0,0,.71l4.7,9.75-2.8-2.63A.69.69,0,0,0,282.92,137.19Z"/><path class="cls-7" d="M286.18,135.58a.27.27,0,0,1-.25-.17l-1.28-3a.28.28,0,0,1,.15-.36.27.27,0,0,1,.36.14l1.28,3a.28.28,0,0,1-.15.36A.2.2,0,0,1,286.18,135.58Z"/><path class="cls-7" d="M288.41,134.92a.3.3,0,0,1-.26-.17L287,132.11a.28.28,0,0,1,.15-.36.27.27,0,0,1,.36.15l1.11,2.63a.28.28,0,0,1-.15.37Z"/><path class="cls-7" d="M290.59,134.34a.28.28,0,0,1-.25-.16l-1.07-2.31a.26.26,0,0,1,.13-.36.27.27,0,0,1,.37.13l1.07,2.31a.27.27,0,0,1-.13.37Z"/><rect class="cls-2" x="265.94" y="97.44" width="4.24" height="4.24" transform="translate(8.11 218.71) rotate(-45)"/><path class="cls-2" d="M242.18,124a2.22,2.22,0,1,0-2.22,2.23A2.22,2.22,0,0,0,242.18,124Z"/><rect class="cls-2" x="538.47" y="53.93" width="12.17" height="12.17" transform="translate(117.06 402.64) rotate(-45)"/><rect class="cls-2" x="241.69" y="290.33" width="12.17" height="12.17" transform="translate(-137.03 262.02) rotate(-45)"/><rect class="cls-2" x="204.19" y="273.57" width="12.17" height="12.17" transform="translate(-136.16 230.6) rotate(-45)"/><rect class="cls-2" x="525.24" y="68.56" width="6.64" height="6.64" transform="translate(103.98 394.8) rotate(-45)"/><circle class="cls-2" cx="530.12" cy="261.92" r="3.48"/><circle class="cls-2" cx="241.6" cy="231.78" r="3.48"/><circle class="cls-2" cx="395.03" cy="66.97" r="3.48"/><rect class="cls-3" x="412.76" y="98.47" width="168.66" height="152.14"/><rect class="cls-6" x="422.28" y="90.65" width="169.99" height="152.8"/><rect class="cls-5" x="467.06" y="90.65" width="125.22" height="20.73"/><rect class="cls-6" x="422.28" y="90.65" width="169.99" height="10.78"/><rect class="cls-5" x="429.74" y="126.31" width="103.66" height="66.34"/><rect class="cls-6" x="429.74" y="185.26" width="103.66" height="7.39"/><rect class="cls-6" x="429.74" y="187.87" width="103.66" height="2.16"/><circle class="cls-3" cx="479.77" cy="159.15" r="15.26" transform="translate(93.31 484.96) rotate(-58.49)"/><polygon class="cls-13" points="488.61 159.48 475.33 151.81 475.33 167.15 488.61 159.48"/><rect class="cls-5" x="542.7" y="126.31" width="40.93" height="26.2"/><rect class="cls-6" x="542.7" y="149.58" width="40.93" height="2.92"/><rect class="cls-6" x="542.7" y="150.62" width="40.93" height="0.85"/><circle class="cls-3" cx="562.46" cy="139.28" r="6.03"/><polygon class="cls-13" points="565.95 139.41 560.71 136.38 560.71 142.44 565.95 139.41"/><rect class="cls-5" x="542.7" y="155.09" width="40.93" height="26.2"/><rect class="cls-6" x="542.7" y="178.37" width="40.93" height="2.92"/><rect class="cls-6" x="542.7" y="179.4" width="40.93" height="0.85"/><path class="cls-3" d="M568.48,168.06a6,6,0,1,0-6,6A6,6,0,0,0,568.48,168.06Z"/><polygon class="cls-13" points="565.95 168.19 560.71 165.16 560.71 171.22 565.95 168.19"/><rect class="cls-5" x="542.7" y="183.88" width="40.93" height="26.2"/><rect class="cls-6" x="542.7" y="207.16" width="40.93" height="2.92"/><rect class="cls-6" x="542.7" y="208.19" width="40.93" height="0.85"/><path class="cls-3" d="M568.48,196.85a6,6,0,1,0-6,6A6,6,0,0,0,568.48,196.85Z"/><polygon class="cls-13" points="565.95 196.98 560.71 193.95 560.71 200.01 565.95 196.98"/><rect class="cls-5" x="542.7" y="212.66" width="40.93" height="26.2"/><rect class="cls-6" x="542.7" y="235.94" width="40.93" height="2.92"/><rect class="cls-6" x="542.7" y="236.97" width="40.93" height="0.85"/><path class="cls-3" d="M568.48,225.63a6,6,0,1,0-6,6A6,6,0,0,0,568.48,225.63Z"/><polygon class="cls-13" points="565.95 225.76 560.71 222.74 560.71 228.79 565.95 225.76"/><line class="cls-2" x1="430.55" y1="199.65" x2="509.92" y2="199.65"/><line class="cls-2" x1="430.55" y1="218.4" x2="477.7" y2="218.4"/><line class="cls-2" x1="430.55" y1="225.82" x2="477.7" y2="225.82"/><line class="cls-2" x1="430.55" y1="233.23" x2="477.7" y2="233.23"/><line class="cls-2" x1="486.75" y1="218.4" x2="533.91" y2="218.4"/><line class="cls-2" x1="486.75" y1="225.82" x2="533.91" y2="225.82"/><line class="cls-2" x1="486.75" y1="233.23" x2="533.91" y2="233.23"/><line class="cls-2" x1="430.55" y1="205.76" x2="530.86" y2="205.76"/><rect class="cls-14" x="586.08" y="126.35" width="4.09" height="113.48"/><rect class="cls-7" x="586.08" y="153.88" width="4.09" height="14.51"/><line class="cls-2" x1="548.38" y1="243.66" x2="548.38" y2="281.04"/><path class="cls-5" d="M489.17,350.19l.28.28h.65A5.36,5.36,0,0,1,489.17,350.19Z"/></svg>