<svg id="OBJECTS" xmlns="http://www.w3.org/2000/svg" viewBox="0 0 519 321.3"><defs><style>.cls-1,.cls-10,.cls-11,.cls-19,.cls-2,.cls-5,.cls-8{fill:none;}.cls-1,.cls-2,.cls-5{stroke:#d2e8f9;}.cls-1,.cls-10,.cls-19,.cls-2,.cls-8{stroke-miterlimit:10;}.cls-2{stroke-dasharray:4.01 4.01;}.cls-3{fill:#f0faff;}.cls-4{fill:#b5ddf7;}.cls-11,.cls-5{stroke-linecap:round;stroke-linejoin:round;}.cls-6{fill:#26387a;}.cls-7{fill:#ffb288;}.cls-8{stroke:#0061a6;}.cls-10,.cls-19,.cls-8{stroke-width:0.5px;}.cls-9{fill:#d9f0ff;}.cls-10{stroke:#94c1f2;}.cls-11{stroke:#b4e8fd;stroke-width:5px;}.cls-12{fill:#b9e5fb;}.cls-13{fill:#039be5;}.cls-14{fill:#fdae2b;opacity:0.5;isolation:isolate;}.cls-15{fill:#0061a6;}.cls-16{fill:#ef9467;}.cls-17{fill:#e2e8ed;}.cls-18{fill:#b6e9fe;}.cls-19{stroke:#6cb1ef;}.cls-20{fill:#e7f5fe;}.cls-21{fill:#94c1f2;}</style></defs><title>error-1-azur</title><path class="cls-1" d="M428.8,82.5h2"/><path class="cls-2" d="M434.8,82.8c12.9,1.3,28.7,6.8,26.8,17.9-2.9,17.8-82.1,11.2-101,11.4-38,.4-76.4.5-113.7,8.8-9.1,2-22,6.5-21.1,18,.3,4,2.7,7.7,5.8,10.4,10.9,9.8,26,10.8,40.1,12.5,21.3,2.6,122.6-.9,155.7,10,6.5,2.1,14.7,4.9,14.9,14.2.7,23.7-58.1,22.5-75.8,23-47.1,1.2-94.2.7-141.3-.2-38.1-.8-76.2-1.4-114.2-3.9-14.2-.9-37.3-1.2-48.1-11.8-6-5.9-6.8-16.8,2.7-22.3,6.7-3.9,26.5-2.2,34.1-2.8,23-2,16-15.9-2.6-17.7"/><path class="cls-1" d="M95.2,150.3h-2"/><path class="cls-3" d="M430.2,99.8l-6.1-32.1a2.5,2.5,0,0,0-4.1-1.4L395.3,87.6a2.52,2.52,0,0,0,.8,4.3l30.8,10.8A2.58,2.58,0,0,0,430.2,99.8Z"/><path class="cls-4" d="M425.5,99.3a.9.9,0,0,1-.5-.1l-25.3-8.9a1.55,1.55,0,0,1-1-1.2,1.65,1.65,0,0,1,.5-1.5l20.3-17.5a1.4,1.4,0,0,1,1.5-.3,1.55,1.55,0,0,1,1,1.2l5,26.4a1.65,1.65,0,0,1-.5,1.5A1.28,1.28,0,0,1,425.5,99.3ZM401,88.7l23.9,8.4-4.7-24.9Z"/><path class="cls-4" d="M414.5,88.6h0a1,1,0,0,1-.6-1.2l2.5-8.8a1.46,1.46,0,0,1,1.9-1h0a1.55,1.55,0,0,1,.9,2l-3.5,8.5A1.08,1.08,0,0,1,414.5,88.6Z"/><circle class="cls-4" cx="413.8" cy="90.6" r="1"/><path class="cls-3" d="M91.3,139.4l-19.9-9.9a1.72,1.72,0,0,0-2.5,1.7l1.4,22.2a1.72,1.72,0,0,0,2.7,1.3l18.6-12.3A1.79,1.79,0,0,0,91.3,139.4Z"/><path class="cls-4" d="M89.1,141.8c-.1.1-.2.2-.3.2L73.5,152.1a1.38,1.38,0,0,1-1.1.1,1.15,1.15,0,0,1-.6-.9l-1-18.3a1.14,1.14,0,0,1,1.6-1.1l16.4,8.2a1.15,1.15,0,0,1,.6.9A6.89,6.89,0,0,1,89.1,141.8Zm-15.9,8.9,14.4-9.6-15.5-7.7Z"/><path class="cls-4" d="M78.7,143.3h0a.65.65,0,0,1-.9-.2l-3.8-5a1,1,0,0,1,.3-1.4h0a1,1,0,0,1,1.4.3l3.1,5.4A.56.56,0,0,1,78.7,143.3Z"/><circle class="cls-4" cx="79.5" cy="144.6" r="0.7"/><circle class="cls-1" cx="105.1" cy="182.6" r="1.7"/><circle class="cls-1" cx="351.5" cy="151.9" r="1.7"/><circle class="cls-1" cx="220.8" cy="105.4" r="1.7"/><circle class="cls-1" cx="218.8" cy="231.6" r="1.7"/><line class="cls-5" x1="257.5" y1="133.9" x2="257.5" y2="137.6"/><line class="cls-5" x1="259.3" y1="135.7" x2="255.6" y2="135.7"/><line class="cls-5" x1="324.9" y1="85.9" x2="324.9" y2="89.6"/><line class="cls-5" x1="326.7" y1="87.8" x2="323" y2="87.8"/><line class="cls-5" x1="429.2" y1="187.2" x2="429.2" y2="190.9"/><line class="cls-5" x1="431" y1="189.1" x2="427.3" y2="189.1"/><path class="cls-6" d="M291.2,294.6s-7,3-7,4.5c0,.9,9.6-.4,10.2-.9.9-.9-.4-3.4-.4-3.4Z"/><path class="cls-7" d="M290.7,290.4l.4,4.3a1.29,1.29,0,0,0,1.2.8,1.86,1.86,0,0,0,1.6-.8l-.3-5.4"/><path class="cls-6" d="M302.9,191.8c2.5,10.2,1.6,15.4-2.1,23.2-2.3,26-3.8,51.9-6.9,77.2l-3.2.2c-7.3-24.7-14-61.5-13.2-95.3"/><path class="cls-8" d="M301.3,195.3a19.77,19.77,0,0,1,1.1,7.6c-.1,3.9-1.7,7.4-2.7,11.1-1.4,4.9-1.5,9.8-1.8,14.9l-1.8,23.7c-1,12.9-2,25.7-3,38.6,0,.4-.1.8-.1,1.1"/><path class="cls-6" d="M319,295.6s-7,3-7,4.5c0,.9,9.6-.4,10.2-.9.9-.9-.4-3.4-.4-3.4Z"/><path class="cls-7" d="M318.6,291.4l.4,4.3a1.29,1.29,0,0,0,1.2.8,1.86,1.86,0,0,0,1.6-.8l-.3-5.4"/><path class="cls-6" d="M326.2,190.9c3.2,10.1,2.6,15.3-.6,23.3-.5,26.1-2.3,53.3-3.7,78.8h-3.3c-8.9-24.1-18.5-61.4-19.8-95.1"/><path class="cls-8" d="M324.6,195.1s3.7,8.7-2.6,21c-.7,11.6-1.1,76.9-1.1,76.9"/><path class="cls-8" d="M315.4,197.9a5.14,5.14,0,0,0,2.7,2.1,18.73,18.73,0,0,0,3.4.8,19.72,19.72,0,0,0,4.2.2"/><path class="cls-8" d="M315.8,199.5a9.64,9.64,0,0,0,4.3,2.1,26.07,26.07,0,0,0,4.8.5"/><path class="cls-7" d="M288,142.3c-11.1,19.3-23.1,36.9-30.2,58l-2.1-1.1c.5-19.6,6.9-48.2,15.3-66"/><path class="cls-9" d="M282.6,122.1a31.22,31.22,0,0,0-7.5,3.7,24.91,24.91,0,0,0-8.6,10.4,45.68,45.68,0,0,0-3.7,13.1,36.71,36.71,0,0,0,10,3,50.27,50.27,0,0,0,11,0"/><path class="cls-9" d="M274.3,133.6c-1.2,20.9-.3,42.4.3,62.8,0,0,7.3,1.9,25,1.9s29.2-5.4,29.2-5.4c-3.4-20.9-6.1-46.6-14.5-63.8,0,0-9.5-10.2-18.8-10.6a12.14,12.14,0,0,0-5.5,1.4c-1.3.6-7.4,2.1-7.4,2.1Z"/><path class="cls-10" d="M274.2,135.4c-.5,4-.5,16.4-.5,16.4"/><path class="cls-11" d="M291.8,203c29.6-3.3,42,34.3,48.8,48.8,15.9,34.4,76.1,30.6,103.5,30.6,35.9,0,51.7,12.1,34.9,18.4"/><path class="cls-12" d="M302,204.7c0,15.2-11.5,24.4-21.4,24.4H264.4V180.2h16.2C290.5,180.2,302,189.4,302,204.7Z"/><path class="cls-13" d="M293.7,204.7c0,14.9-8.8,27-19.7,27H256.2V177.8H274C284.9,177.7,293.7,189.8,293.7,204.7Z"/><path class="cls-14" d="M297.7,189.9c-3.9,5.3-7.6,10.6-11.3,16a3.69,3.69,0,0,0,1.4-.7c0,.4-.6,1.1-.1,1.4s1.2-.4,1.8-.2c.6-.1,1.1-.8,1.5-1.2a9.2,9.2,0,0,0-.3.9c3.9-1.5,7.5-5.2,10.5-8.2A25.25,25.25,0,0,0,297.7,189.9Z"/><ellipse class="cls-12" cx="257.5" cy="204.7" rx="19.7" ry="27"/><ellipse class="cls-13" cx="255.7" cy="214.2" rx="3.4" ry="4"/><ellipse class="cls-13" cx="255.7" cy="195.1" rx="3.4" ry="4"/><path class="cls-7" d="M319.7,149s1.2,12.7-4.4,23.3c-4.9,9.1-14.5,20.8-22.4,27.2L291,199c2.7-10.4,11.3-29,11.8-35.9s.4-15,.5-18.9"/><path class="cls-9" d="M295.5,118.5s10.5.7,16.6,5.9c8.7,7.3,10,21.7,10,25-2.6,2.8-8.4,3-12.5,3a14.12,14.12,0,0,1-7.2-2l-.9-15.8"/><path class="cls-7" d="M291.8,197.6a6.88,6.88,0,0,0-3.4,1.5c-.9.7-2,1.9-1.9,2.5s1.6-.5,1.8-.3-2.6,4.4-2.1,4.7,2.9-3.5,2.9-3.5-2.3,4-1.4,4.1c.7.1,2.8-3.7,2.8-3.7s-1.7,3.4-1.1,3.5,2.2-3.3,2.2-3.3-1.3,2.9-.8,3a6.78,6.78,0,0,0,2.1-3.2c.5-1.7,1.1-3.2.7-4.6"/><line class="cls-10" x1="302.7" y1="136.2" x2="302.7" y2="150.6"/><path class="cls-13" d="M273.8,105.2a12.1,12.1,0,0,0-.1,1.9,6.52,6.52,0,0,0,1,3.9,4,4,0,0,0,2.2,1.6c.6.2,1.5.1,1.7-.5a1.7,1.7,0,0,0,.1-.7,20,20,0,0,0-1.3-6.8"/><path class="cls-7" d="M289.6,106.5c-.9-3.5-3.7-8.4-8.3-7.4a8.5,8.5,0,0,0-6.4,5.3c-1,3.3.6,7.1,2.6,9.8a8.09,8.09,0,0,0,2.7,2.5c2.7,1.4,6.3.2,8.1-2S290.3,109.3,289.6,106.5Z"/><path class="cls-7" d="M283.1,115.7l1.5,5.5-2,1a4.88,4.88,0,0,0,4.6,1.6c6.3-.9,8.3-5.3,8.3-5.3l-3.5-.4-3.9-6.7"/><path class="cls-13" d="M292.6,102.7a8.73,8.73,0,0,0-4.2-5.7c-3.7-2.3-9-2.4-12.3.7-1.9,1.8-5.3,8-1.2,9.3,1.3.4,2.6-.4,3.7-1.1s2.2-1.5,3.4-2.2a3.1,3.1,0,0,1,1.3-.6,2,2,0,0,1,1.7,1.4,18.92,18.92,0,0,1,.5,2.3,2.48,2.48,0,0,0,.8,1.4,1.1,1.1,0,0,0,1.5-.3c.2-.4,0-.8,0-1.2s.2-.9.6-.8a.76.76,0,0,1,.4.2c1,.8.7,2.3,1,3.5a26.45,26.45,0,0,0-.2,2.7C292.7,111.5,293,104.4,292.6,102.7Z"/><path class="cls-7" d="M288,106.1c-.1-.4.4-.9.8-.9a1.85,1.85,0,0,1,1.2.5,2.61,2.61,0,0,1,1,2,2.72,2.72,0,0,1-.6,1.7,1.76,1.76,0,0,1-.9.8,1.42,1.42,0,0,1-1.4-.4"/><path class="cls-6" d="M176.7,294.4s6.7,1.1,6.9,2.6c.1.8-9.5,1.9-10.1,1.4-1-.8.2-3.8.2-3.8Z"/><path class="cls-7" d="M176.1,290.3l.6,4.3s-.1.7-1.1.9a1.93,1.93,0,0,1-1.7-.6l-.8-5.3"/><path class="cls-6" d="M150.9,193.1c-1.2,10.5-1.3,15.5,3.4,22.7,2.2,10.1,5.6,20.5,8.2,30.9-1.1,12.4,6.7,32.2,10.9,46.3l3-.5c4.1-25.4,5.6-64.4,1.9-98.5"/><path class="cls-8" d="M152.9,207.3s11.6,36.8,11.6,38.8.3,8.9.8,13.3c.9,8.2,8.3,32.2,8.3,32.2"/><polygon class="cls-15" points="173.3 293.6 172.8 291.8 176.7 291.6 176.8 293.3 173.3 293.6"/><path class="cls-6" d="M124.2,294.6s5.3,3.8,4.8,5.2c-.3.8-8.9-2.4-9.2-3.1-.5-1.1,1.8-3.1,1.8-3.1Z"/><path class="cls-7" d="M125.5,290.9l-1.3,3.9a1.09,1.09,0,0,1-1.3.3,1.83,1.83,0,0,1-1.2-1.2l1.6-4.9"/><path class="cls-6" d="M128.3,190.9c-3.2,10.1-2.6,15.3.6,23.3.2,9.5.3,19.2.4,28.8-6.8,17-7.9,32.2-7,48.4l3.3,1.2s19.5-34,23.1-47.4a227.41,227.41,0,0,0,7.1-47.3"/><path class="cls-8" d="M129.1,193.1s-3.5,10.4,1.1,20.4c0,2.8,1.6,26,1,29.6-.3,1.7-3.5,9.9-5.6,17.9-2.4,8.8-2.9,29.7-2.9,29.7"/><polygon class="cls-15" points="121.6 291.4 122.2 289.2 126.4 291.2 125.5 293.1 121.6 291.4"/><path class="cls-16" d="M182.8,113.3l-2.6-2.2v-4.6c0-.7-1-5-1.9-5s-1.1-1.1-1.5-.6.4,5.3,0,5.7-.8-2.3-1.2-2-.4,2.3-.4,3.3a6.81,6.81,0,0,0,1.6,3.7c.8.8,4.3,4.6,4.3,4.6Z"/><path class="cls-9" d="M181.5,111.8l-2.2,2.5s8.7,11.5,11.4,15.3a53.39,53.39,0,0,1-8.2-4.4c-4.1-2.7-8.2-4.1-11-4.1-6,0-2.9,19.8,4.1,22.7,13.2,2,28,.7,30.3-3.9C209.3,133,189.9,116.8,181.5,111.8Z"/><path class="cls-10" d="M190.7,129.6s1.7,4.6,4.6,6.1"/><path class="cls-9" d="M141.2,126.3c-15.8,17.7-15.5,48.1-15.5,68.8,0,0,11.6,7.9,29.2,7.9s25-4.4,25-4.4c.5-20.9-3.2-30,.3-64.6,0,0-5.6-12.9-8.6-12.9s-14.8-1.2-14.8-1.2Z"/><path class="cls-10" d="M179.3,144.2s.4-6.1,1.8-7.5"/><path class="cls-7" d="M162,106.7c.6-3.6,3.1-8.7,7.8-8.1a10.13,10.13,0,0,1,6.8,4.8c1.4,2,.9,4-1.1,9.1a11.88,11.88,0,0,1-3.1,3.6c-2.5,1.6-6.2.8-8.2-1.3A9.53,9.53,0,0,1,162,106.7Z"/><path class="cls-13" d="M162.6,106.2c.7-.1,0-.5.3.1.2.4.2.5.6.6s.4.5.7.7c.5.4.9-.1,1.1-.5a4.35,4.35,0,0,0,.3-2.5c-.1-.7-.3-1.7.4-2.2.5-.4,1.7.2,2.2.3a24.13,24.13,0,0,1,2.5.8,14.86,14.86,0,0,0,6.3.9,5.81,5.81,0,0,0,4.6-2.9c1.1-2.1-1.1-4.7-3.2-4.7a10.1,10.1,0,0,0-1.7.3c-.2,0-.4.1-.6,0-.5-.1-.7-.7-.9-1.1a3.81,3.81,0,0,0-3.6-1.5,23.48,23.48,0,0,0-4.5,1.4,8.85,8.85,0,0,1-2.3,0,2.67,2.67,0,0,0-2.1,1.3c-.7-.7-2.1,1-2.5,1.4-1.6,1.9-2.1,4.7-2.1,7.2,0,2.1.3,5.3,2.7,6.1,1,.4,1.6.6,1.7-.4a15.92,15.92,0,0,1-.6-3.6,1.75,1.75,0,0,1,.9-2"/><path class="cls-7" d="M170.2,115.2l-.5,5.4,1.8.5a4.87,4.87,0,0,1-4,2.8c-6.3.8-10.7-4-10.7-4l2.1-.4,3.2-10"/><path class="cls-7" d="M163.6,106.2a.88.88,0,0,0-.9-.8,2,2,0,0,0-1.2.6c-1.8,1.8.5,6,2.2,3.8"/><path class="cls-13" d="M175.5,112.4c-.3.7-1.4.9-2,1-3,.3-5.4-1.6-8.2-1.9a1.77,1.77,0,0,0-1.6.3,2,2,0,0,0-.4,1.5v2a4.28,4.28,0,0,0,.5,1.6c1.3,2.1,5.5,2.5,7.7,2.4a5.2,5.2,0,0,0,2.5-.7c1-.7,1.2-2,1.5-3.1A9.15,9.15,0,0,0,175.5,112.4Z"/><path class="cls-7" d="M173.4,114.7a.37.37,0,0,0-.3-.1,25.32,25.32,0,0,1-3.2-.4h-.5a1.11,1.11,0,0,0-.7.9.76.76,0,0,0,.5.9,7.17,7.17,0,0,0,2.1.5,3.08,3.08,0,0,0,1.9-.3C173.4,115.8,173.8,115,173.4,114.7Z"/><path class="cls-11" d="M160.4,192.8c-34.4-1.8-54.4,16-68.7,48.3-18.5,42-44.3,45.3-55.9,45.1"/><path class="cls-12" d="M147.2,195.6c1.3,15.2,13.5,23.4,23.3,22.6l16.1-1.3-4.1-48.7-16.1,1.3C156.6,170.3,145.9,180.4,147.2,195.6Z"/><path class="cls-13" d="M155.5,194.9c1.2,14.8,11,26.1,21.9,25.2l17.8-1.5-4.5-53.7-17.8,1.5C162,167.3,154.2,180,155.5,194.9Z"/><ellipse class="cls-12" cx="191.6" cy="191.85" rx="19.7" ry="27" transform="matrix(1, -0.08, 0.08, 1, -15.28, 16.59)"/><ellipse class="cls-13" cx="194.14" cy="201.29" rx="3.4" ry="4" transform="translate(-16.06 16.84) rotate(-4.77)"/><ellipse class="cls-13" cx="192.56" cy="182.22" rx="3.4" ry="4" transform="translate(-14.48 16.64) rotate(-4.77)"/><path class="cls-17" d="M193.1,185c2-.2,25.1-2.1,25.1-2.1a2.72,2.72,0,0,0,2.5-3h0a2.87,2.87,0,0,0-3-2.6s-23.2,1.9-25.1,2.1S191.1,185.2,193.1,185Z"/><path class="cls-17" d="M194.7,204c2-.2,25.1-2.1,25.1-2.1a2.72,2.72,0,0,0,2.5-3h0a2.87,2.87,0,0,0-3-2.6s-23.2,1.9-25.1,2.1S192.7,204.2,194.7,204Z"/><path class="cls-7" d="M132.8,149s-1.2,12.7,4.4,23.3c4.9,9.1,14.5,20.8,22.4,27.2l1.9-.5c-2.7-10.4-11.3-29-11.8-35.9s-.4-15-.5-18.9"/><path class="cls-9" d="M156.7,119.9s-11,.6-17.4,5.4c-11,8.3-8.8,30.6-5.6,41.5s18.6,27.2,23.5,30.7c.8,0,3.2-.2,3.1-2.1-2.7-8.5-10.6-30.8-10.6-30.8l1.2-30.1"/><path class="cls-7" d="M160.7,197.6a6.88,6.88,0,0,1,3.4,1.5c.9.7,2,1.9,1.9,2.5s-1.6-.5-1.8-.3,2.6,4.4,2.1,4.7-2.9-3.5-2.9-3.5,2.3,4,1.4,4.1c-.7.1-2.8-3.7-2.8-3.7s1.7,3.4,1.1,3.5-2.2-3.3-2.2-3.3,1.3,2.9.8,3a6.78,6.78,0,0,1-2.1-3.2c-.5-1.7-1.1-3.2-.7-4.6"/><path class="cls-10" d="M152.9,173.5c-1.8-5.1-3.1-8.9-3.1-8.9l2.3-25.3"/><path class="cls-10" d="M131.2,145.5a81.31,81.31,0,0,0,2.5,21.3c1.5,5.2,5.9,11.7,10.6,17.5"/><path class="cls-7" d="M367.4,108.3l1.8-1.2a25.83,25.83,0,0,1,1.3-4.6,12.63,12.63,0,0,1,2.4-3c.4-.3,2.4-1.4,2.9-.9a6.29,6.29,0,0,1-1,2.9c-.4.4-1.5,2.1-1.3,2.6s1.1-.6,1.3-.9.5-.5.6-.2c.2.5-.8,3.2-1.6,3.9a4.82,4.82,0,0,1-2.9,1.5l-2.8,2.4"/><path class="cls-13" d="M388.7,95.6a12.67,12.67,0,0,1,5.5,8.3,3.49,3.49,0,0,0,.6,1.7,2.92,2.92,0,0,0,1.2.7,10.13,10.13,0,0,1,5.2,5.9c.4,1.1.1,2.6.5,3.5.5,1.1,2.4,1.4,3.5,1.7a8,8,0,0,1,5.4,7.4,8.16,8.16,0,0,1-5.2,7.5,5.33,5.33,0,0,1,.6,4.1,8.37,8.37,0,0,1-2.2,3.6,20.27,20.27,0,0,1-15.7,6.5,15.83,15.83,0,0,1-4.9-1,18.78,18.78,0,0,1-4.8-3.1,15,15,0,0,1-4.6-5.1,5.91,5.91,0,0,1,.7-6.5,4.92,4.92,0,0,1-5-2.3,6.86,6.86,0,0,1-.8-5.6,13.42,13.42,0,0,1,2.6-5.2c.8-1.1,1.8-2.2,1.9-3.6.3-2.3-1-4.3-1.3-6.5-.5-3.5-.4-6.5,2.6-8.4,1-2.5,2.1-4.4,4.9-5.1A11.8,11.8,0,0,1,388.7,95.6Z"/><path class="cls-18" d="M381.5,122.1c-10-2.6-21.4,1.5-23.9,1.5,3.5-3.5,9.9-11.2,12.1-13.9a2.64,2.64,0,0,0-1.1-2.4s-27.4,14.1-24.6,23.4c2.9,9.6,29.7,4.9,31.8,7.7"/><path class="cls-7" d="M383.5,211.9c0,.8-3.6,18.4-3.9,20.3-.8,5.5,2.1,11,1.9,19.5-.3,10.3-4.7,38.2-5.3,39.4s-3.2.1-3.2.1-7.7-37.3-8.2-52.6c-.4-12.6,1.5-39.8,1.5-39.8"/><path class="cls-6" d="M376.5,291.5a4.86,4.86,0,0,1,.4,1.4c-.1,1.2-.1,1.9-.1,1.9h-.5l-.2-.9a7.72,7.72,0,0,0-2.7,1.1,9.83,9.83,0,0,1-4.5.1c-.6-.3-.4-.8-.2-1.1s3.8-1.8,3.8-1.8"/><path class="cls-7" d="M372.9,291.2c-.3.7-3.1,2.2-2.9,2.5a6.69,6.69,0,0,0,3.7-.4c1.7-.6,2.6-1.2,2.7-1.6l-.3-1.2"/><path class="cls-7" d="M408.3,212.6c0,.8-3,18.5-3.2,20.4-.6,5.5,2.5,10.9,2.4,19.4,0,10.4-3.6,38.3-4.1,39.5s-3.2.2-3.2.2-8.9-37-9.8-52.3c-.7-12.6.3-39.8.3-39.8"/><path class="cls-6" d="M403.7,292.4a4.17,4.17,0,0,1,.5,1.4v2h-.5l-.2-.9a9.53,9.53,0,0,0-2.7,1.2c-.6.5-4,.5-4.5.3s-.4-.8-.2-1.1,3.7-1.9,3.7-1.9"/><path class="cls-7" d="M400.2,292.2c-.3.7-3.1,2.3-2.8,2.5a6.18,6.18,0,0,0,3.7-.5c1.6-.6,2.6-1.3,2.6-1.7l-.4-1.2"/><path class="cls-13" d="M399.3,167.4s7.9,5.2,10.9,17.6c4.1,16.8-1.9,49.7-1.9,49.7a102.31,102.31,0,0,1-25.9,3.5c-13.5-.1-21.5-4.7-21.5-5.5s-2-25.7.7-42.6c3.1-19,10.9-24.1,10.9-24.1"/><path class="cls-18" d="M388.6,121.8c1.2-.5,4.4.7,10.4,2.9,2.6,2.8,3.8,9.1,4.3,14.6-1.5,13.4-3.3,20.7-2.4,25.2.2,1.1,1.2,1.9,1,3.4-.3,3.1-5.4,3.6-15,4.6s-18.2-3.3-17.7-4.6,2.2-2.6,2.4-3.5,1-12.4,0-13.7-3.7-5.3-3.7-9.1c0-5.4,3-7.8,4.9-10.7,3.2-4.9,5.7-8,8.8-8.8C386.5,120.9,388.6,121.8,388.6,121.8Z"/><path class="cls-19" d="M372.4,128.6a7.47,7.47,0,0,1-.8,4.2c-.4.6-2.5,2.8-3,4.2"/><path class="cls-7" d="M386.3,115.2c2.6-2.6,3-7.5,1.8-10.9-1.3-3.8-6.7-6.6-10.4-4.2C370.5,104.8,377.8,123.6,386.3,115.2Z"/><path class="cls-7" d="M381.3,114.8l.1,8s-.3,1.8,2.8,1.9c4.3.2,4.3-2.9,4.3-2.9l-2.5-8.3"/><path class="cls-13" d="M384.5,96.6a2.42,2.42,0,0,0-2.7-.1c-.6.3-1,.9-1.5,1.1a5.77,5.77,0,0,1-1.4.3,7.63,7.63,0,0,0-4.9,4.2c-.9,2-.6,5.3,1.1,6.7a10.1,10.1,0,0,1,1.2-5.1c.4-.7,1.1-1.4,1.9-1.3s1.4,1.1,2.1,1.7a6.27,6.27,0,0,0,3.7,1.4c1.5.2,2.6.5,3.4,1.9a11.76,11.76,0,0,1,.7,2,18.43,18.43,0,0,1,.5,2.5,4.4,4.4,0,0,0,.2,1.6,3.19,3.19,0,0,0,2.3,1.9c.8.3,2,.5,2.5-.4a10.64,10.64,0,0,0,.9-2.5,10.92,10.92,0,0,0-1.9-7.8c-1.6-2.5-3.9-4.2-5.9-6.4C385.8,97.7,385.2,97,384.5,96.6Z"/><path class="cls-7" d="M386.6,109a1.76,1.76,0,0,1,1.2-1.3c2-.3,1.7,2.7.9,3.8-.5.6-1.7,1.4-2.2-.3"/><path class="cls-7" d="M408.3,171.5l-1,2.1s-3.6.9-4,1.5c-.6,1-1.5,2.4-1.5,3.2s.1,4.3,1.1,4.3c.6,0,2.1-2.8,2.4-3.2.7-.9,3.6-1.6,3.6-4.1l1.8-3.7"/><path class="cls-18" d="M388.6,121.7s8.5-2.2,15.1,2c5.1,3.2,18.4,19.4,18.4,28.7,0,6.2-12.4,21.7-12.4,21.7l-2.1-1.5s1.2-12.2,4.8-18.8c-2.7-2.7-13-10.9-15.6-13.5"/><path class="cls-19" d="M395.5,139.4c1.9,1.6,6.7,5.6,6.7,5.6"/><path class="cls-20" d="M145.5,107.4l-10.2-8.3s4.6-17-1.5-23a31.7,31.7,0,0,0-11.6-6.9c-9.4-3.6-20.7-4.4-29.1,1.2-6.2,4.1-10,11.2-11.7,18.4-1.5,6.4-1.4,13.6,2.6,18.8a21.42,21.42,0,0,0,6.8,5.5c8.1,4.2,29.5,5.8,38.8-.4,2.6-1.7,2.3-4.1,3.4-7.7Z"/><circle class="cls-21" cx="98.1" cy="92.6" r="2.9"/><circle class="cls-21" cx="107.7" cy="92.6" r="2.9"/><circle class="cls-21" cx="117.3" cy="92.6" r="2.9"/></svg>