<svg id="OBJECTS" xmlns="http://www.w3.org/2000/svg" xmlns:xlink="http://www.w3.org/1999/xlink" viewBox="0 0 519 321.3"><defs><style>.cls-1{fill:#dca86e;}.cls-2{fill:url(#linear-gradient);}.cls-3{fill:#2167be;}.cls-4{fill:url(#linear-gradient-2);}.cls-5{fill:#277fd9;}.cls-6{fill:#fec4ad;}.cls-7{fill:url(#linear-gradient-3);}.cls-8{fill:#f8d2a1;}.cls-12,.cls-9{fill:none;stroke-miterlimit:10;}.cls-9{stroke:#d4dbe2;stroke-width:0.25px;}.cls-10{fill:#ffba01;}.cls-11{fill:#d2dceb;}.cls-12{stroke:#a6aeba;stroke-width:0.5px;}.cls-13{fill:#f3ba7a;}.cls-14{fill:#a6aeba;}.cls-15{fill:#b6bfcc;}.cls-16{fill:#fff;}.cls-17{fill:#4a00e0;}</style><linearGradient id="linear-gradient" x1="818.92" y1="-1242.41" x2="843.67" y2="-1242.41" gradientTransform="matrix(0.81, 0.59, 0.59, -0.81, 357.69, -1210.9)" gradientUnits="userSpaceOnUse"><stop offset="0" stop-color="#343a44"/><stop offset="0.3" stop-color="#232d3e"/><stop offset="0.64" stop-color="#182439"/><stop offset="1" stop-color="#142138"/></linearGradient><linearGradient id="linear-gradient-2" x1="316.2" y1="-1403.42" x2="340.95" y2="-1403.42" gradientTransform="matrix(1, 0, 0, -1, 0, -1118.27)" xlink:href="#linear-gradient"/><linearGradient id="linear-gradient-3" x1="362.2" y1="-1326.12" x2="444.3" y2="-1326.12" gradientTransform="matrix(1, 0, 0, -1, 0, -1118.27)" xlink:href="#linear-gradient"/></defs><title>error-2-night</title><polygon class="cls-1" points="408 235.5 436.2 296.3 439.4 296.3 415 231.5 408 235.5"/><polygon class="cls-1" points="378.9 236.8 350.8 296.3 347.6 296.3 371.9 235.4 378.9 236.8"/><path class="cls-2" d="M307.4,283.3l-14.3,12.5-16.9-11.9s5.7-1.9,15.6.7l10.1-8.5Z"/><path class="cls-3" d="M390.2,214.2s-31.6,16.2-42.8,21.1-49.2,42.9-49.2,42.9,4.9,9.9,7.3,8.2c21.5-15.3,41.2-29.1,54-33.9,25.2-9.5,32.2-11.6,38.6-19C398.1,233.5,394.3,224.5,390.2,214.2Z"/><path class="cls-4" d="M340.9,276.9l-4.1,18.6-20.6.4s3.5-5,13-8.7l3.1-12.8Z"/><path class="cls-5" d="M391,210.1s-29.4,3.2-40.2,9-19.3,58.7-19.3,58.7,8.3,4.5,9.4,1.7a369.79,369.79,0,0,1,17.6-40.4c10.6-1.9,35.1,10,52.8-7.4C411.2,231.6,395.9,220,391,210.1Z"/><path class="cls-6" d="M441.7,174.3a41.81,41.81,0,0,0-3.5,7.9l-12.1-1.1s6.2-9.5,5.8-15.2Z"/><path class="cls-6" d="M439.1,154.8c-.7-.2-3.3-.9-3.8-.7-.7.3.1,1.2-.4,1.8-.8.9-2.5,1-3.5,1.5a7.42,7.42,0,0,0-2.9,2.6c-1,1.7,2.6,5.6,3.2,8.5,1.2,6.1,8.8,7,15.1,5.1a11.26,11.26,0,0,0,5.5-4.6c1.4-2.3.6-6.1-.6-8.4a10.05,10.05,0,0,0-3.4-3.4c-1.1-.8-1.4-4-2.8-4.2C445.5,153.1,440.6,155.2,439.1,154.8Z"/><path class="cls-7" d="M362.2,233.2s19.6,7.3,45.8-2.6,33.3-56.3,33.3-56.3l3,1.5s-2.9,51.1-37.4,62.2c-26.3,8.5-44.7-1.6-44.7-1.6v-3.2Z"/><path class="cls-8" d="M438.1,204.5s3.1,10.9,3.3,16.3-2.1,23.8-2.1,23.8l5,.6s4.4-21.9,4.5-29.1-4-18.7-4-18.7Z"/><path class="cls-8" d="M437.1,247.3c-1.2,2.3-1.7,3.9-1,4.5.5.4,1.3-1.8,2.2-2.6a6.67,6.67,0,0,1-.3,4.1c-.7,1.6-.6,3,.6,3.2s3.3,0,3.7-1,1.5-5.3,2-6.8-.2-3.1,0-3.9-3.7-2.2-3.7-2.2c-.2.3-1.4,2-1.4,2a9,9,0,0,1-1.4,1.4A8.79,8.79,0,0,0,437.1,247.3Z"/><line class="cls-9" x1="407.6" y1="25" x2="407.6" y2="62.7"/><circle class="cls-10" cx="407.6" cy="76.7" r="6.6"/><polygon class="cls-11" points="438.8 79.5 376.3 79.5 403.7 59.6 411.4 59.6 438.8 79.5"/><line class="cls-9" x1="113.6" y1="25" x2="113.6" y2="62.7"/><circle class="cls-10" cx="113.7" cy="76.7" r="6.6"/><polygon class="cls-11" points="144.8 79.5 82.4 79.5 109.7 59.6 117.5 59.6 144.8 79.5"/><line class="cls-12" x1="46" y1="296" x2="473" y2="296"/><polygon class="cls-11" points="204 188.2 194 188.2 191 170.6 207.5 170.6 204 188.2"/><polygon class="cls-1" points="318.3 193 334.7 296.1 337.9 296.1 324.9 193 318.3 193"/><polygon class="cls-1" points="204.6 193.1 183.1 296.3 178.9 296.3 195.7 193.1 204.6 193.1"/><rect class="cls-1" x="170.8" y="187" width="177.4" height="7.9"/><rect class="cls-13" x="162.3" y="187" width="194.4" height="5.3"/><polygon class="cls-14" points="302.3 184.2 295.4 184.2 288.5 140.2 293.8 140.2 302.3 184.2"/><polygon class="cls-11" points="300.4 184.2 273.4 184.2 266.5 140.2 293.5 140.2 300.4 184.2"/><rect class="cls-11" x="273.1" y="183.2" width="29.3" height="3.3"/><rect class="cls-14" x="302.3" y="183.2" width="36.9" height="3.3"/><path class="cls-14" d="M285.6,164.4c.8,3.4.2,7-1.2,8.1s-3.3-.7-4-4.1-.2-7,1.2-8.1S284.8,161,285.6,164.4Z"/><path class="cls-14" d="M243.7,186.4h-3.8a3.32,3.32,0,0,1-3.2-2.7l-1.5-9.8h13.2l-1.5,9.8A3.32,3.32,0,0,1,243.7,186.4Z"/><path class="cls-14" d="M247.2,184.3h-.6l-.1-.1a6.12,6.12,0,0,1-2.3-4.3c0-2.6,1.7-4.6,3.8-4.6a3.66,3.66,0,0,1,3.8,4.7h0C251.2,182.7,249.6,184.3,247.2,184.3Zm-.1-1.2c2.4.1,3.2-1.8,3.5-3.4h0a3.36,3.36,0,0,0-.4-2.5,2.66,2.66,0,0,0-2.2-.9c-1.4,0-2.6,1.5-2.6,3.4A4.73,4.73,0,0,0,247.1,183.1Z"/><polygon class="cls-11" points="233.9 187.2 250.6 187.2 253.2 184.3 231.2 184.3 233.9 187.2"/><rect class="cls-15" x="65.2" y="123" width="80" height="173.1"/><rect class="cls-11" x="74.4" y="130.5" width="61.6" height="18.2"/><path class="cls-16" d="M112.5,141.8H97.9a.86.86,0,0,1-.8-.8v-2.8a.86.86,0,0,1,.8-.8h14.5a.86.86,0,0,1,.8.8V141A.67.67,0,0,1,112.5,141.8Z"/><rect class="cls-11" x="74.4" y="153.6" width="61.6" height="18.2"/><path class="cls-16" d="M112.5,164.9H97.9a.86.86,0,0,1-.8-.8v-2.8a.86.86,0,0,1,.8-.8h14.5a.86.86,0,0,1,.8.8v2.8A.67.67,0,0,1,112.5,164.9Z"/><rect class="cls-11" x="74.4" y="176.7" width="61.6" height="18.2"/><path class="cls-16" d="M112.5,188H97.9a.86.86,0,0,1-.8-.8v-2.8a.86.86,0,0,1,.8-.8h14.5a.86.86,0,0,1,.8.8v2.8A.67.67,0,0,1,112.5,188Z"/><rect class="cls-11" x="74.4" y="200.1" width="61.6" height="89"/><path class="cls-16" d="M112.5,211.4H97.9a.86.86,0,0,1-.8-.8v-2.8a.86.86,0,0,1,.8-.8h14.5a.86.86,0,0,1,.8.8v2.8A.71.71,0,0,1,112.5,211.4Z"/><path class="cls-17" d="M456.5,171s-.2-1,1.5-2.7c5.8-5.5-.4-16.2-6.7-18-3.2-1-5.3.1-6.5-3.2.1.2-1.3.8-1.4.9a2.32,2.32,0,0,0-1.1,2.2c-.1,4.7,4.1,9,7.2,12,1.4,1.3-2.1.4-3.5.7-.9.2-3.3,2.7-3.8,3.1,1.3,1.7,2.5.2,4.3,1s.6,2.8-.9,3.1a3.28,3.28,0,0,1-3.4-1.2c-1.1.6-1.3,4.1-2.1,5.1,1.2.7,8.1,1.9,9.7,1.8A7.16,7.16,0,0,0,456.5,171Z"/><path class="cls-17" d="M441.3,176.2c2.5,28.3-30.1,55.4-30.1,55.4s-21.3.8-20.3-21.6c0,0,1.7-4.1,14.8-16,8.8-8,15-19.9,21.2-19.6C443.9,175.1,441.3,176.2,441.3,176.2Z"/><path class="cls-17" d="M201.2,164.9a26.35,26.35,0,0,1,3.7-6.1c2.4-2.9,6-7.7,6-7.7s-1.7,3.4-4.1,7.3A31.63,31.63,0,0,1,201.2,164.9Z"/><path class="cls-17" d="M203.7,159.2a15.67,15.67,0,0,0,4.2-6.5c1.6-4.4,3-7.8,3-7.8a65.15,65.15,0,0,0-4.9,8.3C204.6,156.7,203.7,159.2,203.7,159.2Z"/><path class="cls-17" d="M201.4,164.2a55.65,55.65,0,0,0,1.7-9.1,62.74,62.74,0,0,0,.2-6.5s-1.7,7.3-2.3,10.4A10.14,10.14,0,0,0,201.4,164.2Z"/><path class="cls-17" d="M200.2,167.6a30.65,30.65,0,0,0-1-9.8,27.16,27.16,0,0,1-1.5-7.6,32.4,32.4,0,0,0,.1,9.1A58.51,58.51,0,0,0,200.2,167.6Z"/><path class="cls-17" d="M200.6,166.4a34.47,34.47,0,0,1,5.6-3.9,20.11,20.11,0,0,0,4.5-2.9s-3.2,4.1-5,4.9A42.48,42.48,0,0,1,200.6,166.4Z"/><path class="cls-17" d="M199.4,170.8a14.41,14.41,0,0,0-1.3-6.9,39.08,39.08,0,0,1-2-6s-.1,5.5,1,7.5S199.4,170.8,199.4,170.8Z"/><path class="cls-17" d="M199.7,168.8a12,12,0,0,1,4.2-1.7,10.29,10.29,0,0,0,2.6-.6,4.72,4.72,0,0,1-3.6,2.2A10.17,10.17,0,0,1,199.7,168.8Z"/><path class="cls-17" d="M198.3,173.5c.5-1.8,1-4.5,1.7-6.4a52.42,52.42,0,0,1,4.5-9.3c-1.9,4.3-3.4,6.8-4.4,10.5-.4,1.5-1.1,3.5-1.4,4.9C198.7,173.6,198.4,173.9,198.3,173.5Z"/><path class="cls-17" d="M199.3,166.3a27.84,27.84,0,0,0-1.6-7.4c-1.4-3.7-3.3-9.8-3.3-9.8s.6,4,1.6,8.7A30.76,30.76,0,0,0,199.3,166.3Z"/><path class="cls-17" d="M198.7,159.8a16.63,16.63,0,0,1-2-8c-.1-5-.4-8.9-.4-8.9a62.56,62.56,0,0,1,2.1,10.1C198.7,157,198.7,159.8,198.7,159.8Z"/><path class="cls-17" d="M199.3,165.6a64.38,64.38,0,0,1,1.5-9.7c1.1-4.1,2-6.7,2-6.7s-.8,7.9-1.3,11.2A11.23,11.23,0,0,1,199.3,165.6Z"/><path class="cls-17" d="M199.3,169.4a29.45,29.45,0,0,1,4.4-9.5,33.43,33.43,0,0,0,4.2-7.1,34.45,34.45,0,0,1-3.3,9.1A62,62,0,0,1,199.3,169.4Z"/><path class="cls-17" d="M199.3,168.1s-2.6-4.4-4.2-5.8a24.91,24.91,0,0,1-3.5-4.5s1.8,5.2,3.3,6.7S199.3,168.1,199.3,168.1Z"/><path class="cls-17" d="M199.1,173a15,15,0,0,1,3.7-6.4,47.6,47.6,0,0,0,4.1-5.3s-1.8,5.5-3.6,7.2A51.58,51.58,0,0,0,199.1,173Z"/><path class="cls-17" d="M199.4,170.8a10.89,10.89,0,0,0-3.6-3.1,8.29,8.29,0,0,1-2.4-1.5,5,5,0,0,0,2.8,3.4A10.12,10.12,0,0,0,199.4,170.8Z"/><path class="cls-17" d="M199.2,176c.2-1.9.5-4.9.5-7a57.79,57.79,0,0,0-1.3-10.9c.5,5,1.1,8,.7,12-.1,1.6-.2,3.9-.3,5.4C198.8,176,199,176.4,199.2,176Z"/><path class="cls-17" d="M196.5,167.1a26.35,26.35,0,0,0-3.7-6.1c-2.4-2.9-6-7.7-6-7.7s1.7,3.4,4.1,7.3A31.63,31.63,0,0,0,196.5,167.1Z"/><path class="cls-17" d="M194,161.5a15.67,15.67,0,0,1-4.2-6.5c-1.6-4.4-3-7.8-3-7.8a65.15,65.15,0,0,1,4.9,8.3C193.1,158.9,194,161.5,194,161.5Z"/><path class="cls-17" d="M196.3,166.4a55.65,55.65,0,0,1-1.7-9.1,62.74,62.74,0,0,1-.2-6.5s1.7,7.3,2.3,10.4A10.14,10.14,0,0,1,196.3,166.4Z"/><path class="cls-17" d="M197.5,169.8a30.65,30.65,0,0,1,1-9.8,27.16,27.16,0,0,0,1.5-7.6,32.4,32.4,0,0,1-.1,9.1A58.51,58.51,0,0,1,197.5,169.8Z"/><path class="cls-17" d="M197,168.6a34.47,34.47,0,0,0-5.6-3.9,20.11,20.11,0,0,1-4.5-2.9s3.2,4.1,5,4.9A50.3,50.3,0,0,0,197,168.6Z"/><path class="cls-17" d="M198.3,173.1a14.41,14.41,0,0,1,1.3-6.9,39.08,39.08,0,0,0,2-6s.1,5.5-1,7.5S198.3,173.1,198.3,173.1Z"/><path class="cls-17" d="M198,171a12,12,0,0,0-4.2-1.7,10.29,10.29,0,0,1-2.6-.6,4.72,4.72,0,0,0,3.6,2.2A10.17,10.17,0,0,0,198,171Z"/><path class="cls-17" d="M199.4,175.8c-.5-1.8-1-4.5-1.7-6.4a52.42,52.42,0,0,0-4.5-9.3c1.9,4.3,3.4,6.8,4.4,10.5.4,1.5,1.1,3.5,1.4,4.9C199,175.8,199.3,176.1,199.4,175.8Z"/><path class="cls-17" d="M437.8,204.9c3.6,15.8,2.1,37,2.1,37l5.4.3c5.9-12.4,5.4-39.9,2.2-51.5-1.8-6.8-2.9-13.6-7.5-14.7-2.9-.7-8.8,1.4-9.6,4.3C428.8,186.6,436.1,197.2,437.8,204.9Z"/></svg>