<svg id="Section1" xmlns="http://www.w3.org/2000/svg" xmlns:xlink="http://www.w3.org/1999/xlink" viewBox="0 0 600 600"><defs><style>.cls-1,.cls-10,.cls-11{fill:none;}.cls-2,.cls-6{fill:#fff;}.cls-3{fill:#00d1b2;}.cls-4{clip-path:url(#clip-path);}.cls-17,.cls-5{fill:#ccc;}.cls-5{opacity:0.5;}.cls-12,.cls-20,.cls-5{isolation:isolate;}.cls-6{stroke:#fff;}.cls-11,.cls-15,.cls-6{stroke-miterlimit:10;}.cls-7{fill:#40405b;}.cls-8{fill:#6f7592;}.cls-9{fill:#38332d;}.cls-10,.cls-11,.cls-15,.cls-16{stroke:#6f7592;stroke-width:3px;}.cls-10,.cls-16{stroke-linecap:round;stroke-linejoin:round;}.cls-13{fill:#332d55;}.cls-14,.cls-15,.cls-16{fill:#fafafa;}.cls-18{clip-path:url(#clip-path-10);}.cls-19{fill:#54bbd3;}.cls-20{fill:#e84376;opacity:0.2;}.cls-21{clip-path:url(#clip-path-13);}.cls-22{clip-path:url(#clip-path-18);}.cls-23{fill:#9043ff;}</style><clipPath id="clip-path"><circle class="cls-1" cx="300.5" cy="291.5" r="35.2"/></clipPath><clipPath id="clip-path-10"><circle class="cls-1" cx="464.5" cy="195.3" r="27.8"/></clipPath><clipPath id="clip-path-13"><rect class="cls-1" x="448.7" y="169.8" width="32.5" height="31.6"/></clipPath><clipPath id="clip-path-18"><circle class="cls-1" cx="109.5" cy="318.3" r="27.8"/></clipPath></defs><title>method-1-teal</title><polygon class="cls-2" points="283.8 273.3 280.4 272.2 278.4 268.6 277.7 265.1 277.7 262.6 278.3 260.7 280.2 259.8 283.1 251.8 287.4 243.6 317.5 243 320.1 251.8 320.1 259.1 321 260.3 322.8 260.1 324.4 261.9 324.6 266.8 322.7 271.4 320.1 272.9 317.9 273.5 310.1 292.9 310.6 298 311.7 301.4 314.4 305.4 311.5 306.2 305.8 307.1 300.1 307.4 294.7 307 287 305.9 290.4 301.3 291.3 297.5 291.3 291 285.4 277.8 283.8 273.3"/><path class="cls-3" d="M320.1,259.5l-3-4c.4,5.8.4,12-1.1,17.6-.4,1.7-1.5,4.8-3.3,4.6s-7.1-2.5-11.4-2.6-8,1.7-12.1,2.2c-2.9.3-3.3-1.2-3.7-3.7a90.17,90.17,0,0,1-1.2-14.7c0-.7-.4-2.7,0-3.4l-3,4c.4,13.8,3.7,22,3.7,22a33,33,0,0,0,1.4,4.2c1.5,3.6,4.4,7.4,8,9,8.7,3.9,16.9,2.5,22-9C320.1,277.3,319.8,268.2,320.1,259.5ZM308.5,283a8.07,8.07,0,0,1-6.9,2.6,6.93,6.93,0,0,1-2-.3,10.11,10.11,0,0,1-4-1.7c-.6-.4-3.2-2.9-2.6-3.8,0,0,1.1-1.5,8.4-1.4s8.4,1.7,8.4,1.8C310.2,280.8,308.8,282.7,308.5,283Z"/><g class="cls-4"><circle class="cls-5" cx="300.5" cy="291.5" r="35.2"/></g><g class="cls-4"><polygon class="cls-6" points="283.9 273.3 280.5 272.2 278.5 268.6 277.8 265.1 277.8 262.6 278.4 260.7 280.3 259.8 283.2 251.8 287.6 243.6 317.6 243 320.2 251.8 320.2 259.1 321.1 260.3 322.9 260.1 324.5 261.9 324.7 266.8 322.8 271.4 320.2 272.9 318 273.5 310.2 292.9 310.7 298 311.9 301.4 314.5 305.4 311.6 306.2 305.9 307.1 300.2 307.4 294.8 307 287.1 305.9 290.5 301.3 291.4 297.5 291.4 291 285.5 277.8 283.9 273.3"/></g><g class="cls-4"><path class="cls-3" d="M256.3,327s4.4-9.2,12.7-12.4l7.1-2.6s9.7-3.7,11.6-5.6c0,0,18.1,2.6,26.3-1.2,0,0,7.4,5.1,9.8,5.9,0,0,11.4,2.8,15.2,7,0,0,6.4,4.8,6.2,8.8H256.3Z"/></g><g class="cls-4"><path class="cls-7" d="M282.9,264.5c1.2-4.2,1.2-14.9,6.6-16.3,2.3-.6,10,5.7,20.7,0,4.3-2.3,8.6,12.4,9.4,14.5l.3-1.9,2-1.5s8.3-30-21.5-29.4-21.2,29.6-21.2,29.6S282.5,259.1,282.9,264.5Z"/></g><g class="cls-4"><path class="cls-8" d="M258.9,323.7c2.4-4.3,7-7.6,11.6-9.6,1.9,4.3,2.1,8.9,1.7,13.6h1.2a29.07,29.07,0,0,0-1.8-14c4.5-1.8,9.3-2.7,13.3-5.4.1-.1.2-.1.2-.2a17.68,17.68,0,0,0,2.2-1.6c.1.1.2.2.3.2,9,1.6,18.1,2.2,26.9-.4h0a11,11,0,0,0,1.1,1c4.3,3.3,10.2,4.5,15.1,6.5l.6.3c-3.1,3.5-3.9,8.7-3.8,13.6h1.2c-.1-4.8.6-9.9,3.7-13.1,4.2,2,8.3,5.2,10.5,9.1a33.89,33.89,0,0,1,1.8,3.9h1.1a28.13,28.13,0,0,0-5-8.7c-3.3-3.7-8.6-5.8-13.3-7.4-7.8-2.5-15.8-5.5-16.6-14.9-.2-2.3-.1-4.6-.1-7,3.7-2.6,5.9-7.2,7.2-11.7a55.42,55.42,0,0,0,1.5-17.7,4.87,4.87,0,0,1-1.1.4,55,55,0,0,1-1.3,16.2c-1.5,6.3-5.1,13.3-12.4,13.7a2.44,2.44,0,0,0,0,1.2,12.08,12.08,0,0,0,5.1-1.4c0,1.8-.1,3.5,0,5.3a16.37,16.37,0,0,0,3.7,9.6c-8.3,2.3-16.9,1.8-25.4.3,2.7-2.8,3.5-6.2,3.7-9.9.1-2,0-4.1,0-6.1a12.25,12.25,0,0,0,4.4,1.7c.7.1.9-1,.2-1.1-5.9-1.1-9.2-6.4-11-11.6a50.94,50.94,0,0,1-2.5-16.9c0-.7-1.1-.6-1.1.1a52.83,52.83,0,0,0,2.7,17.7,20.38,20.38,0,0,0,6.3,9.4c0,2.6.1,5.2-.1,7.8a14.35,14.35,0,0,1-3.4,8.2c-3.3,3.9-8.5,5.2-13.2,6.7s-10,3.6-13.3,7.4a28.13,28.13,0,0,0-5,8.7h1.1C257.6,326.4,258.2,324.9,258.9,323.7Z"/></g><g class="cls-4"><path class="cls-8" d="M296.9,281.8a10.76,10.76,0,0,1,9.1.5c.5.2.9-.4.4-.7a11.77,11.77,0,0,0-9.7-.6C296.2,281.2,296.4,282,296.9,281.8Z"/></g><g class="cls-4"><path class="cls-9" d="M319.7,260.4c-.5.4,0,1.4.5.9,3.3-2.6,4,1.1,4,3.9-.1,3.2-1.5,7.1-5.1,7.5-.7.1-.7,1.2,0,1.1,4.8-.5,6.3-5.3,6.2-9.6C325.2,260.5,323.2,257.7,319.7,260.4Z"/></g><g class="cls-4"><path class="cls-9" d="M282.8,260.4c.5.4,0,1.4-.5.9-3.3-2.6-4,1.1-4,3.9.1,3.2,1.5,7.1,5.1,7.5.7.1.7,1.2,0,1.1-4.8-.5-6.3-5.3-6.2-9.6C277.2,260.5,279.3,257.7,282.8,260.4Z"/></g><g class="cls-4"><path class="cls-3" d="M320.2,259.7l-3-4c.4,5.8.4,12-1.1,17.6-.4,1.7-1.5,4.8-3.3,4.6s-7.1-2.5-11.4-2.6-8,1.7-12.1,2.2c-2.9.3-3.3-1.2-3.7-3.7a90.17,90.17,0,0,1-1.2-14.7c0-.7-.4-2.7,0-3.4l-3,4c.4,13.8,3.7,22,3.7,22a33,33,0,0,0,1.4,4.2c1.5,3.6,4.4,7.4,8,9,8.7,3.9,16.9,2.5,22-9C320.1,277.5,319.9,268.4,320.2,259.7Zm-11.6,23.5a8.07,8.07,0,0,1-6.9,2.6,6.93,6.93,0,0,1-2-.3,10.11,10.11,0,0,1-4-1.7c-.6-.4-3.2-2.9-2.6-3.8,0,0,1.1-1.5,8.4-1.4s8.4,1.7,8.4,1.8C310.3,281,308.9,282.9,308.6,283.2Z"/></g><path class="cls-8" d="M319.7,260.4c-.5.4,0,1.4.5.9,3.3-2.6,4,1.1,4,3.9-.1,3.2-1.5,7.1-5.1,7.5-.7.1-.7,1.2,0,1.1,4.8-.5,6.3-5.3,6.2-9.6C325.2,260.5,323.2,257.7,319.7,260.4Z"/><path class="cls-8" d="M282.8,260.4c.5.4,0,1.4-.5.9-3.3-2.6-4,1.1-4,3.9.1,3.2,1.5,7.1,5.1,7.5.7.1.7,1.2,0,1.1-4.8-.5-6.3-5.3-6.2-9.6C277.2,260.5,279.3,257.7,282.8,260.4Z"/><path class="cls-3" d="M282.9,264.5c1.2-4.2,1.2-14.9,6.6-16.3,2.3-.6,10,5.7,20.7,0,4.3-2.3,8.6,12.4,9.4,14.5l.3-1.9,2-1.5s8.3-30-21.5-29.4-21.2,29.6-21.2,29.6S282.5,259.1,282.9,264.5Z"/><polyline class="cls-10" points="249 83 252.8 90.3 245.5 94.1"/><polyline class="cls-10" points="143.8 273.5 135.6 272.8 136.2 264.6"/><path class="cls-11" d="M92.5,267.4s-6.7-28.3,22.4-48.7"/><path class="cls-11" d="M249.2,272s-23.3-43.1,17.8-91.3"/><path class="cls-11" d="M328.1,232.3s29.3-40.1,90.5-20"/><path class="cls-11" d="M351,273.2s35.8-38.9,9.1-92.5"/><path class="cls-11" d="M365.2,98.3s46.4-9.2,81.2,47.6"/><path class="cls-11" d="M501.3,347.5s37.6-44.5,8.9-94.1"/><path class="cls-11" d="M392.8,425s-45.3-90.7,29.5-158.7"/><path class="cls-11" d="M204.3,401.3s-36.6-50.6-5.5-98.6,5.5-72,5.5-72"/><path class="cls-11" d="M136.6,272s43-31,91.2-3.3"/><path class="cls-11" d="M110.1,392.2s-6.7,56.5,54.6,67.6"/><path class="cls-11" d="M226.3,401.3s-16.1-54.6,26.8-87.1"/><path class="cls-11" d="M284,361.2s14,64.6,84.8,79.1"/><path class="cls-11" d="M265.1,460.8s10.1-59.9,65-72.4,72.5-29.1,72.5-29.1"/><path class="cls-11" d="M273.4,521.2s46.5,29.3,95.5-3.7"/><polyline class="cls-10" points="361.3 516.3 369.5 516.3 369.5 524.6"/><polyline class="cls-10" points="273.8 528.6 271.9 520.6 279.9 518.7"/><polyline class="cls-10" points="271.7 458.3 264.4 462.1 260.6 454.8"/><polyline class="cls-10" points="231.1 395.9 226.8 403 219.8 398.6"/><polyline class="cls-10" points="207.3 394.8 205.1 402.7 197.2 400.6"/><polyline class="cls-10" points="161.7 453.2 166.1 460.1 159.2 464.6"/><polyline class="cls-10" points="104 395.3 110.2 389.8 115.7 395.9"/><polyline class="cls-10" points="365.5 433.8 370.5 440.3 364 445.4"/><polyline class="cls-10" points="395.4 418.2 393.6 426.3 385.5 424.4"/><polyline class="cls-10" points="395.6 358.1 403.9 358.5 403.5 366.7"/><polyline class="cls-10" points="278.8 366.5 283.6 359.8 290.3 364.6"/><polyline class="cls-10" points="245.7 312.9 254 313.3 253.5 321.5"/><polyline class="cls-10" points="508.5 348.2 500.2 348.7 499.7 340.5"/><polyline class="cls-10" points="507.6 260.3 509.3 252.2 517.3 253.8"/><polyline class="cls-10" points="415 265.5 423.2 264.9 423.8 273.1"/><polyline class="cls-10" points="417.3 205.3 419.8 213.2 411.9 215.7"/><polyline class="cls-10" points="335.1 232.7 326.9 233.3 326.3 225.1"/><polyline class="cls-10" points="358.3 273.8 350.1 274.4 349.5 266.2"/><polyline class="cls-10" points="356.6 187.3 359.7 179.7 367.3 182.7"/><polyline class="cls-10" points="259.9 180.5 268.1 179.8 268.8 188"/><polyline class="cls-10" points="191.3 118.2 183.3 120.2 181.4 112.2"/><polyline class="cls-10" points="252.4 265.5 250.2 273.4 242.2 271.2"/><polyline class="cls-10" points="228.5 261.8 228.8 270.1 220.6 270.3"/><polyline class="cls-10" points="97.2 261.8 92.9 268.8 85.9 264.5"/><polyline class="cls-10" points="107.8 217.2 116 217.6 115.6 225.8"/><polyline class="cls-10" points="201.3 237.2 203.8 229.3 211.7 231.9"/><polyline class="cls-10" points="369.5 103.6 363.5 98 369.1 92"/><polyline class="cls-10" points="449.2 139.2 447.2 147.2 439.2 145.3"/><g class="cls-12"><path class="cls-13" d="M291.83,330l2,3.66,2.09-3.66h1.79v.08l-3.14,5.12v3.66h-1.49v-3.66l-3-5.12V330Z"/><path class="cls-13" d="M297.5,333.42a2.6,2.6,0,0,1,2.08-.93,2.64,2.64,0,0,1,2.1.93,3.43,3.43,0,0,1,.8,2.32,3.48,3.48,0,0,1-.78,2.32,2.63,2.63,0,0,1-2.11.93,2.59,2.59,0,0,1-2.09-.93,3.48,3.48,0,0,1-.78-2.32A3.52,3.52,0,0,1,297.5,333.42Zm2.09.47a1.27,1.27,0,0,0-1.1.55,2.31,2.31,0,0,0,0,2.6,1.42,1.42,0,0,0,2.21,0,2.12,2.12,0,0,0,.4-1.3,2.08,2.08,0,0,0-.42-1.29A1.31,1.31,0,0,0,299.59,333.89Z"/><path class="cls-13" d="M303.46,332.61h1.37v3.27a2,2,0,0,0,.35,1.2,1.17,1.17,0,0,0,1,.47,1.25,1.25,0,0,0,1-.51,1.92,1.92,0,0,0,.4-1.24v-3.19H309v6.25h-1.23l-.09-.84a2.48,2.48,0,0,1-1.87.93,2,2,0,0,1-1.66-.82,3.55,3.55,0,0,1-.64-2.24Z"/></g><g class="cls-12"><path class="cls-13" d="M182.74,509.81a2.83,2.83,0,0,1,1.25.27,2.64,2.64,0,0,1,.92.71,3.09,3.09,0,0,1,.53,1,3.76,3.76,0,0,1,0,2.3,3.09,3.09,0,0,1-.53,1,2.64,2.64,0,0,1-.92.71,2.83,2.83,0,0,1-1.25.27h-2.23v2.61H179v-8.86h3.72Zm-2.23,1.59v3.14h2.23a1.25,1.25,0,0,0,1-.49,1.66,1.66,0,0,0,.38-1.08,1.8,1.8,0,0,0-.38-1.08,1.28,1.28,0,0,0-1-.49Z"/><path class="cls-13" d="M190.64,513.3l.05-.86H192v6.24h-1.29l-.07-.91a1.68,1.68,0,0,1-.75.79,2.26,2.26,0,0,1-1,.31,2.61,2.61,0,0,1-2.06-.86,3.48,3.48,0,0,1-.8-2.46,3.38,3.38,0,0,1,.82-2.41,2.67,2.67,0,0,1,2.07-.85,2,2,0,0,1,1,.28A1.8,1.8,0,0,1,190.64,513.3Zm-1.64.37a1.56,1.56,0,0,0-1.18.5,2,2,0,0,0-.46,1.38,2,2,0,0,0,.46,1.39,1.54,1.54,0,0,0,1.18.51,1.48,1.48,0,0,0,1-.39,1.7,1.7,0,0,0,.52-.94,3.45,3.45,0,0,0,0-1.11,1.69,1.69,0,0,0-.52-1A1.48,1.48,0,0,0,189,513.67Z"/><path class="cls-13" d="M194.53,521.28h-1.37v-8.84h1.28l.09.86a2,2,0,0,1,.8-.75,2.28,2.28,0,0,1,1-.25,2.57,2.57,0,0,1,2,.93,3.47,3.47,0,0,1,.79,2.34,3.61,3.61,0,0,1-.75,2.34,2.51,2.51,0,0,1-2,.92,2.81,2.81,0,0,1-1.05-.21,1.51,1.51,0,0,1-.79-.68Zm.57-4.46a1.49,1.49,0,0,0,2.26,0,1.82,1.82,0,0,0,.44-1.25,1.93,1.93,0,0,0-.42-1.27,1.55,1.55,0,0,0-2.3,0,1.93,1.93,0,0,0-.43,1.27A1.83,1.83,0,0,0,195.1,516.82Z"/><path class="cls-13" d="M205.69,516.11h-4.33a1.38,1.38,0,0,0,.5,1,1.71,1.71,0,0,0,1.15.37,2.26,2.26,0,0,0,.83-.16,1.59,1.59,0,0,0,.65-.42l.88,1a2.59,2.59,0,0,1-1.07.75,3.36,3.36,0,0,1-1.31.26,2.88,2.88,0,0,1-2.24-.9,3.51,3.51,0,0,1-.81-2.43,3.45,3.45,0,0,1,.8-2.35,2.72,2.72,0,0,1,2.15-.91,2.6,2.6,0,0,1,2.19,1A4.09,4.09,0,0,1,205.69,516.11Zm-4.31-1.28h3a1.28,1.28,0,0,0-.45-.9,1.52,1.52,0,0,0-1-.31,1.6,1.6,0,0,0-1,.31A1.52,1.52,0,0,0,201.38,514.83Z"/><path class="cls-13" d="M206.74,512.44H208l.1.72a1.62,1.62,0,0,1,.68-.71,2.05,2.05,0,0,1,.89-.17,1.81,1.81,0,0,1,1.43.59l-.62,1.34a1.41,1.41,0,0,0-1-.4,1.37,1.37,0,0,0-1,.38,1.64,1.64,0,0,0-.4,1.2v3.29h-1.37Z"/><path class="cls-13" d="M215.75,512.43H217l1.22,4.69,1.27-4.69H221L219,518.7h-1.6l-.57-1.84-.49-2.09-.5,2.09-.57,1.84h-1.6l-1.94-6.27h1.53l1.27,4.69Z"/><path class="cls-13" d="M222.64,513.25a2.61,2.61,0,0,1,2.08-.94,2.66,2.66,0,0,1,2.1.94,3.41,3.41,0,0,1,.8,2.32,3.5,3.5,0,0,1-.78,2.32,2.63,2.63,0,0,1-2.11.93,2.59,2.59,0,0,1-2.09-.93,3.84,3.84,0,0,1,0-4.64Zm2.09.47a1.28,1.28,0,0,0-1.1.54,2.15,2.15,0,0,0-.4,1.31,2.09,2.09,0,0,0,.4,1.29,1.4,1.4,0,0,0,2.21,0,2.23,2.23,0,0,0,0-2.58A1.28,1.28,0,0,0,224.73,513.72Z"/><path class="cls-13" d="M228.57,512.44h1.27l.1.72a1.62,1.62,0,0,1,.68-.71,2,2,0,0,1,.88-.17,1.8,1.8,0,0,1,1.43.59l-.62,1.34a1.37,1.37,0,0,0-1-.4,1.41,1.41,0,0,0-1,.38,1.63,1.63,0,0,0-.39,1.2v3.29h-1.37Z"/><path class="cls-13" d="M233.41,509.83h1.38V515l1.86-2.51h1.64v.09L236,515.38l2.57,3.18v.12H237l-2.17-2.82v2.82h-1.38Z"/></g><g class="cls-12"><path class="cls-13" d="M293.37,166.84h-1.49V158h5.66v1.61h-4.17V162h3.94v1.54h-3.94Z"/><path class="cls-13" d="M298.49,160.6h1.38v3.26a2,2,0,0,0,.34,1.21,1.18,1.18,0,0,0,1,.46,1.22,1.22,0,0,0,1-.5,1.92,1.92,0,0,0,.4-1.24V160.6H304v6.25h-1.22l-.09-.85a2.49,2.49,0,0,1-1.88.94,2,2,0,0,1-1.66-.82,3.61,3.61,0,0,1-.64-2.24Z"/><path class="cls-13" d="M310.65,166.84h-1.37v-3.27a2,2,0,0,0-.35-1.2,1.16,1.16,0,0,0-1-.47,1.25,1.25,0,0,0-1,.51,2,2,0,0,0-.4,1.24v3.19h-1.36v-6.25h1.23l.09.85a2.44,2.44,0,0,1,1.82-.94,2.1,2.1,0,0,1,1.68.81,3.45,3.45,0,0,1,.67,2.25Z"/><path class="cls-13" d="M316.22,158h1.37v8.85h-1.28l-.09-.86a1.94,1.94,0,0,1-1.79,1,2.67,2.67,0,0,1-2.05-.88,4,4,0,0,1,0-4.8,2.63,2.63,0,0,1,2-.85,2.37,2.37,0,0,1,1,.27,1.58,1.58,0,0,1,.79.73Zm-1.7,3.9a1.47,1.47,0,0,0-1.13.5,1.89,1.89,0,0,0-.45,1.32,1.93,1.93,0,0,0,.46,1.32,1.42,1.42,0,0,0,1.12.52,1.48,1.48,0,0,0,1.14-.51,1.89,1.89,0,0,0,.47-1.33,1.84,1.84,0,0,0-.48-1.31A1.48,1.48,0,0,0,314.52,161.89Z"/><path class="cls-13" d="M318.91,159.51a.87.87,0,0,1-.25-.67.88.88,0,0,1,.25-.67.76.76,0,0,1,1.11,0,.89.89,0,0,1,.26.67.87.87,0,0,1-.26.67.76.76,0,0,1-1.11,0Zm1.24,1.06h-1.37v6.27h1.37Z"/><path class="cls-13" d="M326.84,166.84h-1.37v-3.27a2,2,0,0,0-.35-1.2,1.16,1.16,0,0,0-1-.47,1.25,1.25,0,0,0-1,.51,2,2,0,0,0-.4,1.24v3.19h-1.36v-6.25h1.23l.09.85a2.46,2.46,0,0,1,1.82-.94,2.07,2.07,0,0,1,1.68.81,3.45,3.45,0,0,1,.67,2.25Z"/><path class="cls-13" d="M331.82,160.75l.55-.78,1,.86-.62.88a2.92,2.92,0,0,1,.58,1.85,3.5,3.5,0,0,1-.27,1.35,1.88,1.88,0,0,1-.9,1,2.19,2.19,0,0,1,1.15,2.06,2.84,2.84,0,0,1-4.79,2,2.67,2.67,0,0,1-.8-2h1.36a1.24,1.24,0,0,0,.42,1,1.52,1.52,0,0,0,1,.37,1.49,1.49,0,0,0,1-.35,1.25,1.25,0,0,0,.4-1,1.11,1.11,0,0,0-.42-.93,1.61,1.61,0,0,0-1-.32,2.6,2.6,0,0,1-2.05-.84,3.29,3.29,0,0,1-.76-2.3,3.25,3.25,0,0,1,.81-2.3,2.66,2.66,0,0,1,2-.86A2.06,2.06,0,0,1,331.82,160.75Zm-1.27,1.05a1.31,1.31,0,0,0-1,.48,1.88,1.88,0,0,0-.42,1.28,1.85,1.85,0,0,0,.42,1.27,1.33,1.33,0,0,0,1,.46,1.3,1.3,0,0,0,1-.47,1.89,1.89,0,0,0,.41-1.26,1.92,1.92,0,0,0-.41-1.27A1.29,1.29,0,0,0,330.55,161.8Z"/></g><g class="cls-12"><path class="cls-13" d="M131.63,209.66l1,1.15a3.82,3.82,0,0,1-3,1.32,4.36,4.36,0,0,1-1.88-.39,3.48,3.48,0,0,1-1.31-1,4.6,4.6,0,0,1-.73-1.45,5.48,5.48,0,0,1-.25-1.69,6.1,6.1,0,0,1,.25-1.71,4.77,4.77,0,0,1,.76-1.49,3.42,3.42,0,0,1,1.32-1.07,4.11,4.11,0,0,1,1.84-.4,3.77,3.77,0,0,1,2.89,1.35l-1,1.08a2.43,2.43,0,0,0-1.9-.84,2.39,2.39,0,0,0-2,.92,3.37,3.37,0,0,0-.69,2.16,3.45,3.45,0,0,0,.69,2.12,2.4,2.4,0,0,0,2,.88,2.55,2.55,0,0,0,1.06-.24A2.44,2.44,0,0,0,131.63,209.66Z"/><path class="cls-13" d="M133.79,206.5a2.58,2.58,0,0,1,2.08-.94,2.63,2.63,0,0,1,2.1.94,3.43,3.43,0,0,1,.8,2.31,3.48,3.48,0,0,1-.78,2.32,2.63,2.63,0,0,1-2.11.93,2.58,2.58,0,0,1-2.09-.93,3.44,3.44,0,0,1-.79-2.32A3.48,3.48,0,0,1,133.79,206.5Zm2.09.46a1.32,1.32,0,0,0-1.11.55,2.31,2.31,0,0,0,0,2.6,1.41,1.41,0,0,0,2.22,0,2.25,2.25,0,0,0,0-2.59A1.32,1.32,0,0,0,135.88,207Z"/><path class="cls-13" d="M145.17,211.92H143.8v-3.26a2,2,0,0,0-.35-1.2,1.16,1.16,0,0,0-1-.47,1.25,1.25,0,0,0-1,.51,2,2,0,0,0-.4,1.23v3.19h-1.36v-6.25h1.23l.09.85a2.48,2.48,0,0,1,1.82-.94,2.11,2.11,0,0,1,1.68.82,3.41,3.41,0,0,1,.67,2.25Z"/><path class="cls-13" d="M146.68,204.09l1.37-.16v1.77h1.53V207H148v2.69a1,1,0,0,0,.19.66.69.69,0,0,0,.53.23,1.42,1.42,0,0,0,.66-.19l.38,1.31a2.8,2.8,0,0,1-1.13.27,1.79,1.79,0,0,1-1.46-.55,2.47,2.47,0,0,1-.53-1.73V207h-1V205.7h1Z"/><path class="cls-13" d="M150.6,205.69h1.27l.1.72a1.56,1.56,0,0,1,.68-.71,2,2,0,0,1,.89-.18,1.79,1.79,0,0,1,1.42.6l-.61,1.34a1.42,1.42,0,0,0-1-.41,1.34,1.34,0,0,0-1,.39,1.57,1.57,0,0,0-.4,1.19v3.29H150.6Z"/><path class="cls-13" d="M159.83,206.55l0-.86h1.31v6.23H159.9l-.07-.91a1.66,1.66,0,0,1-.75.8,2.33,2.33,0,0,1-1.05.3,2.62,2.62,0,0,1-2.06-.85,3.52,3.52,0,0,1-.79-2.46,3.4,3.4,0,0,1,.81-2.42,2.76,2.76,0,0,1,2.08-.85,2.1,2.1,0,0,1,1,.28A1.71,1.71,0,0,1,159.83,206.55Zm-1.64.36a1.52,1.52,0,0,0-1.17.51,2.26,2.26,0,0,0,0,2.76,1.52,1.52,0,0,0,1.17.52,1.44,1.44,0,0,0,1-.4,1.67,1.67,0,0,0,.52-.94,3.44,3.44,0,0,0,0-1.11,1.67,1.67,0,0,0-.52-.94A1.44,1.44,0,0,0,158.19,206.91Z"/><path class="cls-13" d="M166.31,210.11l.92,1a2.78,2.78,0,0,1-2.13,1,2.83,2.83,0,0,1-2.11-.85,4,4,0,0,1,0-4.9,2.83,2.83,0,0,1,2.11-.85,2.64,2.64,0,0,1,2,.92l-.87,1a1.51,1.51,0,0,0-1.11-.5,1.47,1.47,0,0,0-1.15.52,2,2,0,0,0-.45,1.33,1.89,1.89,0,0,0,.45,1.34,1.49,1.49,0,0,0,1.13.48A1.53,1.53,0,0,0,166.31,210.11Z"/><path class="cls-13" d="M168.4,204.09l1.37-.16v1.77h1.53V207h-1.54v2.69a1,1,0,0,0,.2.66.65.65,0,0,0,.52.23,1.38,1.38,0,0,0,.66-.19l.39,1.31a2.88,2.88,0,0,1-1.14.27,1.77,1.77,0,0,1-1.45-.55,2.47,2.47,0,0,1-.54-1.73V207h-1V205.7h1Z"/><path class="cls-13" d="M176.71,206.33l-.76,1a1.82,1.82,0,0,0-1.38-.55c-.67,0-1,.2-1,.62s.35.63,1,.68a5.5,5.5,0,0,1,.65.08,2.9,2.9,0,0,1,.63.18,1.82,1.82,0,0,1,.56.34,1.67,1.67,0,0,1,.38.56,2.17,2.17,0,0,1,.15.84,1.94,1.94,0,0,1-.62,1.46,2.5,2.5,0,0,1-1.76.59,4.09,4.09,0,0,1-1.39-.23A3,3,0,0,1,172,211l.68-1.1a2.12,2.12,0,0,0,.85.61,2.86,2.86,0,0,0,1.06.27,1.11,1.11,0,0,0,.7-.2.66.66,0,0,0,.3-.55.53.53,0,0,0-.25-.47,2.13,2.13,0,0,0-.85-.19,3.79,3.79,0,0,1-.81-.14,3.12,3.12,0,0,1-.73-.32,1.52,1.52,0,0,1-.56-.59,2,2,0,0,1,0-1.79,1.55,1.55,0,0,1,.58-.61,2.86,2.86,0,0,1,.74-.32,2.76,2.76,0,0,1,.8-.11A2.92,2.92,0,0,1,176.71,206.33Z"/></g><g class="cls-12"><path class="cls-13" d="M440.44,376.17a2.91,2.91,0,0,1,1.26.28,2.49,2.49,0,0,1,.91.71,3.09,3.09,0,0,1,.53,1,3.43,3.43,0,0,1,.19,1.15,3.51,3.51,0,0,1-.19,1.15,3.2,3.2,0,0,1-.53,1,2.72,2.72,0,0,1-.91.71,2.91,2.91,0,0,1-1.26.27h-2.23V385h-1.48v-8.85h3.71Zm-2.23,1.6v3.14h2.23a1.3,1.3,0,0,0,1.06-.49,1.69,1.69,0,0,0,.37-1.08,1.71,1.71,0,0,0-.38-1.08,1.24,1.24,0,0,0-1.05-.49Z"/><path class="cls-13" d="M444.23,376.2h1.36V385h-1.36Z"/><path class="cls-13" d="M451.14,379.67l.05-.86h1.31V385h-1.29l-.07-.91a1.66,1.66,0,0,1-.75.8,2.21,2.21,0,0,1-1.05.3,2.62,2.62,0,0,1-2.06-.85,3.52,3.52,0,0,1-.79-2.46,3.4,3.4,0,0,1,.81-2.42,2.72,2.72,0,0,1,2.08-.84,2.1,2.1,0,0,1,1,.27A1.71,1.71,0,0,1,451.14,379.67Zm-1.64.36a1.52,1.52,0,0,0-1.17.51,2.26,2.26,0,0,0,0,2.76,1.49,1.49,0,0,0,1.17.52,1.44,1.44,0,0,0,1-.4,1.61,1.61,0,0,0,.52-.94,3.38,3.38,0,0,0,0-1.1,1.61,1.61,0,0,0-.52-.95A1.48,1.48,0,0,0,449.5,380Z"/><path class="cls-13" d="M459.12,385h-1.37v-3.26a2,2,0,0,0-.35-1.2,1.19,1.19,0,0,0-1-.47,1.25,1.25,0,0,0-1,.51,1.9,1.9,0,0,0-.4,1.24V385h-1.36v-6.25h1.23l.09.85a2.46,2.46,0,0,1,1.82-.93,2.1,2.1,0,0,1,1.68.81,3.49,3.49,0,0,1,.67,2.25Z"/><path class="cls-13" d="M465.75,385h-1.37v-3.26a2,2,0,0,0-.35-1.2,1.16,1.16,0,0,0-1-.47,1.25,1.25,0,0,0-1,.51,2,2,0,0,0-.4,1.24V385h-1.36v-6.25h1.23l.09.85a2.48,2.48,0,0,1,1.82-.93,2.07,2.07,0,0,1,1.68.81,3.43,3.43,0,0,1,.67,2.25Z"/><path class="cls-13" d="M467.06,377.72a.88.88,0,0,1-.25-.67.87.87,0,0,1,.25-.67.81.81,0,0,1,.56-.24.77.77,0,0,1,.55.24.87.87,0,0,1,.26.67.89.89,0,0,1-.26.67.77.77,0,0,1-.55.24A.81.81,0,0,1,467.06,377.72Zm1.24,1.06h-1.37V385h1.37Z"/><path class="cls-13" d="M475,385h-1.37v-3.26a1.9,1.9,0,0,0-.35-1.2,1.16,1.16,0,0,0-1-.47,1.22,1.22,0,0,0-1,.51,1.9,1.9,0,0,0-.4,1.24V385h-1.36v-6.25h1.22l.09.85a2.48,2.48,0,0,1,1.82-.93,2.11,2.11,0,0,1,1.69.81,3.49,3.49,0,0,1,.66,2.25Z"/><path class="cls-13" d="M480,379l.55-.79,1,.86-.62.89a2.91,2.91,0,0,1,.59,1.85,3.55,3.55,0,0,1-.28,1.35,1.84,1.84,0,0,1-.89,1,2.21,2.21,0,0,1,1.14,2.07,2.63,2.63,0,0,1-2.77,2.78,2.79,2.79,0,0,1-2-.77,2.7,2.7,0,0,1-.8-2h1.36a1.26,1.26,0,0,0,.43,1,1.53,1.53,0,0,0,1,.37,1.43,1.43,0,0,0,1-.36,1.22,1.22,0,0,0,.4-1,1.09,1.09,0,0,0-.42-.93,1.55,1.55,0,0,0-1-.33,2.63,2.63,0,0,1-2.06-.84,3.31,3.31,0,0,1-.76-2.29,3.23,3.23,0,0,1,.81-2.3,2.64,2.64,0,0,1,2-.87A2,2,0,0,1,480,379ZM478.71,380a1.32,1.32,0,0,0-1,.48,1.88,1.88,0,0,0-.42,1.28,1.81,1.81,0,0,0,.42,1.26,1.36,1.36,0,0,0,2.06,0,2.16,2.16,0,0,0,0-2.53A1.29,1.29,0,0,0,478.71,380Z"/></g><g class="cls-12"><path class="cls-13" d="M403.35,495a2.89,2.89,0,0,1,2,.65,2.39,2.39,0,0,1,.74,1.92,1.78,1.78,0,0,1-1,1.71,1.66,1.66,0,0,1,.94.83,2.53,2.53,0,0,1,.32,1.14c0,1.74-1,2.61-2.95,2.61h-3.73V495Zm-2.27,1.52v2h2.27c.83,0,1.24-.32,1.24-.95a1.12,1.12,0,0,0-.3-.74,1.21,1.21,0,0,0-.94-.35Zm0,3.51v2.27h2.27a2.39,2.39,0,0,0,.66-.08,1.24,1.24,0,0,0,.56-.33.89.89,0,0,0,.26-.65,1,1,0,0,0-.48-.89,1.8,1.8,0,0,0-1-.32Z"/><path class="cls-13" d="M407.28,497.61h1.37v3.27a2,2,0,0,0,.35,1.2,1.16,1.16,0,0,0,1,.47,1.22,1.22,0,0,0,1-.51,1.92,1.92,0,0,0,.4-1.24v-3.19h1.36v6.25h-1.22l-.09-.85a2.48,2.48,0,0,1-1.88.94,2,2,0,0,1-1.66-.82,3.61,3.61,0,0,1-.63-2.24Z"/><path class="cls-13" d="M418.36,495h1.38v8.85h-1.29l-.09-.86a1.91,1.91,0,0,1-1.78,1,2.66,2.66,0,0,1-2.06-.88,4,4,0,0,1,0-4.8,2.63,2.63,0,0,1,2-.85,2.37,2.37,0,0,1,1,.27,1.64,1.64,0,0,1,.78.73Zm-1.69,3.9a1.47,1.47,0,0,0-1.13.5,2.16,2.16,0,0,0,0,2.65,1.43,1.43,0,0,0,1.12.51,1.48,1.48,0,0,0,1.14-.51,1.89,1.89,0,0,0,.46-1.33,1.85,1.85,0,0,0-.47-1.31A1.48,1.48,0,0,0,416.67,498.9Z"/><path class="cls-13" d="M424.73,497.76l.55-.78,1,.86-.62.88a2.93,2.93,0,0,1,.59,1.85,3.38,3.38,0,0,1-.28,1.36,1.88,1.88,0,0,1-.89,1,2.2,2.2,0,0,1,1.15,2.06,2.7,2.7,0,0,1-.78,2,3,3,0,0,1-4,0,2.66,2.66,0,0,1-.79-2H422a1.24,1.24,0,0,0,.42,1,1.61,1.61,0,0,0,2,0,1.25,1.25,0,0,0,.4-1,1.11,1.11,0,0,0-.42-.93,1.6,1.6,0,0,0-1-.32,2.63,2.63,0,0,1-2.06-.84,3.34,3.34,0,0,1-.75-2.3,3.2,3.2,0,0,1,.81-2.29,2.61,2.61,0,0,1,2-.87A2.08,2.08,0,0,1,424.73,497.76Zm-1.27,1.05a1.33,1.33,0,0,0-1,.48,1.93,1.93,0,0,0-.41,1.28,1.88,1.88,0,0,0,.41,1.27,1.35,1.35,0,0,0,1,.46,1.3,1.3,0,0,0,1-.47,1.84,1.84,0,0,0,.42-1.26,1.89,1.89,0,0,0-.42-1.27A1.32,1.32,0,0,0,423.46,498.81Z"/><path class="cls-13" d="M432.63,501.28H428.3a1.43,1.43,0,0,0,.51,1,1.71,1.71,0,0,0,1.15.37,2.3,2.3,0,0,0,.83-.16,1.5,1.5,0,0,0,.65-.42l.88,1a2.59,2.59,0,0,1-1.07.75,3.36,3.36,0,0,1-1.31.26,2.88,2.88,0,0,1-2.24-.9,4,4,0,0,1,0-4.78,2.74,2.74,0,0,1,2.14-.91,2.59,2.59,0,0,1,2.2,1A4,4,0,0,1,432.63,501.28Zm-4.3-1.28h3a1.32,1.32,0,0,0-.45-.9,1.52,1.52,0,0,0-1-.31,1.6,1.6,0,0,0-1,.31A1.48,1.48,0,0,0,428.33,500Z"/><path class="cls-13" d="M434,496l1.37-.17v1.77h1.53V499h-1.54v2.7a1,1,0,0,0,.19.65.66.66,0,0,0,.53.23,1.31,1.31,0,0,0,.66-.19l.38,1.32a2.63,2.63,0,0,1-1.13.26,1.73,1.73,0,0,1-1.46-.55,2.49,2.49,0,0,1-.53-1.72V499h-1v-1.33h1Z"/></g><g class="cls-12"><path class="cls-13" d="M85.92,364.19l-.67-1.67H81.14l-.68,1.67h-1.6l3.53-8.85H84l3.53,8.85ZM84.66,361,83.2,357.2,81.73,361Z"/><path class="cls-13" d="M91.82,362.38l.92,1a2.78,2.78,0,0,1-2.13,1,2.83,2.83,0,0,1-2.11-.85,4,4,0,0,1,0-4.9,2.83,2.83,0,0,1,2.11-.85,2.62,2.62,0,0,1,2,.92l-.87,1a1.51,1.51,0,0,0-1.11-.5,1.47,1.47,0,0,0-1.15.52,2,2,0,0,0-.45,1.33,1.89,1.89,0,0,0,.45,1.34,1.49,1.49,0,0,0,1.13.48A1.53,1.53,0,0,0,91.82,362.38Z"/><path class="cls-13" d="M97.18,362.38l.93,1a2.93,2.93,0,0,1-4.25.13,4,4,0,0,1,0-4.9,2.83,2.83,0,0,1,2.11-.85,2.61,2.61,0,0,1,2,.92l-.86,1a1.55,1.55,0,0,0-1.12-.5,1.46,1.46,0,0,0-1.14.52,2,2,0,0,0-.45,1.33,1.89,1.89,0,0,0,.45,1.34,1.47,1.47,0,0,0,1.12.48A1.52,1.52,0,0,0,97.18,362.38Z"/><path class="cls-13" d="M99.36,358.76a2.57,2.57,0,0,1,2.08-.93,2.62,2.62,0,0,1,2.09.93,3.44,3.44,0,0,1,.81,2.32,3.49,3.49,0,0,1-.79,2.32,2.63,2.63,0,0,1-2.1.93,2.6,2.6,0,0,1-2.1-.93,3.82,3.82,0,0,1,0-4.64Zm2.09.47a1.27,1.27,0,0,0-1.11.55,2.31,2.31,0,0,0,0,2.6,1.4,1.4,0,0,0,2.21,0,2.25,2.25,0,0,0,0-2.59A1.3,1.3,0,0,0,101.45,359.23Z"/><path class="cls-13" d="M105.31,358h1.38v3.26a1.9,1.9,0,0,0,.35,1.2,1.16,1.16,0,0,0,1,.47,1.22,1.22,0,0,0,1-.51,1.9,1.9,0,0,0,.4-1.24V358h1.36v6.25h-1.22l-.09-.85a2.51,2.51,0,0,1-1.88.93,2,2,0,0,1-1.66-.82,3.59,3.59,0,0,1-.64-2.24Z"/><path class="cls-13" d="M117.47,364.19H116.1v-3.26a2,2,0,0,0-.35-1.2,1.14,1.14,0,0,0-1-.47,1.27,1.27,0,0,0-1,.5,2,2,0,0,0-.4,1.24v3.19H112v-6.25h1.23l.09.85a2.49,2.49,0,0,1,1.82-.94,2.1,2.1,0,0,1,1.68.82,3.41,3.41,0,0,1,.67,2.25Z"/><path class="cls-13" d="M119,356.36l1.37-.16V358h1.53v1.33h-1.54V362a1,1,0,0,0,.19.66.69.69,0,0,0,.53.23,1.42,1.42,0,0,0,.66-.19l.38,1.31a2.8,2.8,0,0,1-1.13.27,1.79,1.79,0,0,1-1.46-.55A2.52,2.52,0,0,1,119,362V359.3h-1V358h1Z"/><path class="cls-13" d="M127.25,358.82l0-.86h1.31v6.23h-1.29l-.07-.91a1.7,1.7,0,0,1-.75.8,2.33,2.33,0,0,1-1,.3,2.62,2.62,0,0,1-2.06-.85,3.52,3.52,0,0,1-.79-2.46,3.39,3.39,0,0,1,.81-2.42,2.72,2.72,0,0,1,2.08-.85,2.1,2.1,0,0,1,1,.28A1.71,1.71,0,0,1,127.25,358.82Zm-1.64.36a1.52,1.52,0,0,0-1.17.51,2.26,2.26,0,0,0,0,2.76,1.52,1.52,0,0,0,1.17.51,1.48,1.48,0,0,0,1-.39,1.67,1.67,0,0,0,.52-.94,3.44,3.44,0,0,0,0-1.11,1.73,1.73,0,0,0-.52-.95A1.48,1.48,0,0,0,125.61,359.18Z"/><path class="cls-13" d="M135.23,364.19h-1.38v-3.26a1.9,1.9,0,0,0-.35-1.2,1.13,1.13,0,0,0-1-.47,1.24,1.24,0,0,0-1,.5,1.92,1.92,0,0,0-.4,1.24v3.19h-1.36v-6.25H131l.09.85a2.49,2.49,0,0,1,1.82-.94,2.12,2.12,0,0,1,1.69.82,3.47,3.47,0,0,1,.67,2.25Z"/><path class="cls-13" d="M136.73,356.36l1.37-.16V358h1.53v1.33h-1.54V362a1,1,0,0,0,.2.66.65.65,0,0,0,.52.23,1.45,1.45,0,0,0,.67-.19l.38,1.31a2.88,2.88,0,0,1-1.14.27,1.77,1.77,0,0,1-1.45-.55,2.47,2.47,0,0,1-.54-1.73V359.3h-1V358h1Z"/></g><g class="cls-12"><path class="cls-13" d="M449.19,231.47a2.91,2.91,0,0,1,1.26.27,2.6,2.6,0,0,1,.91.71,3.2,3.2,0,0,1,.53,1,3.51,3.51,0,0,1,.19,1.15,3.47,3.47,0,0,1-.19,1.15,3.09,3.09,0,0,1-.53,1,2.6,2.6,0,0,1-.91.71,2.91,2.91,0,0,1-1.26.27H447v2.61h-1.48v-8.86h3.71ZM447,233.06v3.14h2.23a1.29,1.29,0,0,0,1.06-.48,1.69,1.69,0,0,0,.37-1.09,1.76,1.76,0,0,0-.38-1.08,1.26,1.26,0,0,0-1.05-.49Z"/><path class="cls-13" d="M457.09,235l.05-.86h1.32v6.24h-1.3l-.07-.91a1.7,1.7,0,0,1-.75.8,2.33,2.33,0,0,1-1,.3,2.65,2.65,0,0,1-2.06-.85,3.52,3.52,0,0,1-.79-2.47,3.38,3.38,0,0,1,.81-2.41,2.69,2.69,0,0,1,2.08-.85,2,2,0,0,1,1,.28A1.69,1.69,0,0,1,457.09,235Zm-1.64.37a1.52,1.52,0,0,0-1.17.51,1.93,1.93,0,0,0-.47,1.37,2,2,0,0,0,.47,1.39,1.52,1.52,0,0,0,1.17.51,1.46,1.46,0,0,0,1-.39,1.64,1.64,0,0,0,.52-.94,3.44,3.44,0,0,0,0-1.11,1.64,1.64,0,0,0-.52-.95A1.46,1.46,0,0,0,455.45,235.33Z"/><path class="cls-13" d="M459.61,234.1h1.27l.11.72a1.6,1.6,0,0,1,.67-.71,2.21,2.21,0,0,1,.89-.17,1.85,1.85,0,0,1,1.43.59l-.62,1.34a1.41,1.41,0,0,0-1-.4,1.37,1.37,0,0,0-1,.38,1.63,1.63,0,0,0-.39,1.2v3.29h-1.38Z"/><path class="cls-13" d="M465.4,232.51l1.38-.17v1.77h1.53v1.33h-1.54v2.7a1,1,0,0,0,.19.66.67.67,0,0,0,.53.22,1.33,1.33,0,0,0,.66-.19l.38,1.32a2.88,2.88,0,0,1-1.14.27,1.75,1.75,0,0,1-1.45-.56,2.45,2.45,0,0,1-.54-1.72v-2.7h-1v-1.33h1Z"/><path class="cls-13" d="M474.78,240.34h-1.37v-3.26a2,2,0,0,0-.35-1.21,1.16,1.16,0,0,0-1-.47,1.25,1.25,0,0,0-1,.51,2,2,0,0,0-.39,1.24v3.19h-1.37v-6.25h1.23l.09.85a2.46,2.46,0,0,1,1.82-.94,2.06,2.06,0,0,1,1.68.82,3.4,3.4,0,0,1,.67,2.24Z"/><path class="cls-13" d="M481.46,237.77h-4.33a1.43,1.43,0,0,0,.51,1,1.69,1.69,0,0,0,1.15.37,2.34,2.34,0,0,0,.83-.16,1.56,1.56,0,0,0,.65-.42l.88,1a2.66,2.66,0,0,1-1.07.75,3.41,3.41,0,0,1-1.32.26,2.86,2.86,0,0,1-2.23-.9,3.49,3.49,0,0,1-.82-2.42,3.43,3.43,0,0,1,.81-2.36,2.73,2.73,0,0,1,2.14-.91,2.58,2.58,0,0,1,2.19,1A4,4,0,0,1,481.46,237.77Zm-4.31-1.28h3a1.35,1.35,0,0,0-.45-.9,1.52,1.52,0,0,0-1-.31,1.53,1.53,0,0,0-1.56,1.21Z"/><path class="cls-13" d="M482.52,234.1h1.27l.1.72a1.6,1.6,0,0,1,.67-.71,2.28,2.28,0,0,1,.89-.17,1.83,1.83,0,0,1,1.43.59l-.62,1.34a1.37,1.37,0,0,0-1-.4,1.41,1.41,0,0,0-1,.38,1.63,1.63,0,0,0-.39,1.2v3.29h-1.37Z"/></g><path class="cls-14" d="M480.4,362.2l-40.9,6.2a6.85,6.85,0,0,1-7.9-5.8l-7.5-48.8a6.85,6.85,0,0,1,5.8-7.9l40.9-6.2a6.85,6.85,0,0,1,7.9,5.8l7.5,48.8A6.78,6.78,0,0,1,480.4,362.2Z"/><path class="cls-8" d="M467.8,348.3l-8.2,1.2a1,1,0,0,0-.8,1.2l1.2,8.2a1,1,0,0,0,1.2.8l8.2-1.2a1,1,0,0,0,.8-1.2l-1.2-8.2A1.16,1.16,0,0,0,467.8,348.3Zm.2,8.3-6.2.9-.9-6.2,6.2-.9Z"/><path class="cls-8" d="M455.6,350.1l-8.2,1.2a1,1,0,0,0-.8,1.2l1.2,8.2a1,1,0,0,0,1.2.8l8.2-1.2a1,1,0,0,0,.8-1.2l-1.2-8.2A1.13,1.13,0,0,0,455.6,350.1Zm.3,8.4-6.2.9-.9-6.2,6.2-.9Z"/><path class="cls-8" d="M453.7,338l-8.2,1.2a1,1,0,0,0-.8,1.2l1.2,8.2a1,1,0,0,0,1.2.8l8.2-1.2a1,1,0,0,0,.8-1.2l-1.2-8.2A1,1,0,0,0,453.7,338Zm.3,8.3-6.2.9-.9-6.2,6.2-.9Z"/><path class="cls-8" d="M443.4,352l-8.2,1.2a1,1,0,0,0-.8,1.2l1.2,8.2a1,1,0,0,0,1.2.8l8.2-1.2a1,1,0,0,0,.8-1.2l-1.2-8.2A1,1,0,0,0,443.4,352Zm.3,8.3-6.2.9-.9-6.2,6.2-.9Z"/><path class="cls-8" d="M476.9,326.3l-8.2,1.2a1,1,0,0,0-.8,1.2l.6,4a1,1,0,0,0,1.2.8l8.2-1.2a1,1,0,0,0,.8-1.2l-.6-4A1.06,1.06,0,0,0,476.9,326.3Zm-.4,4.1-6.2.9-.3-2,6.2-.9Z"/><path class="cls-8" d="M465.9,336.1l-8.2,1.2a1,1,0,0,0-.8,1.2l1.2,8.2a1,1,0,0,0,1.2.8l8.2-1.2a1,1,0,0,0,.8-1.2l-1.2-8.2A1,1,0,0,0,465.9,336.1Zm.3,8.3-6.2.9-.9-6.2,6.2-.9Z"/><path class="cls-8" d="M464.7,328.1l-8.2,1.2a1,1,0,0,0-.8,1.2l.6,4a1,1,0,0,0,1.2.8l8.2-1.2a1,1,0,0,0,.8-1.2l-.6-4A1,1,0,0,0,464.7,328.1Zm-.4,4.2-6.2.9-.3-2,6.2-.9Z"/><path class="cls-8" d="M472.8,299.2,428.1,306a5,5,0,0,0-4.2,5.8l8,52.7a5,5,0,0,0,5.8,4.2l44.7-6.8a5,5,0,0,0,4.2-5.8l-8-52.7A5.21,5.21,0,0,0,472.8,299.2Zm11.8,57.3a3.06,3.06,0,0,1-2.5,3.5l-44.7,6.8a3.06,3.06,0,0,1-3.5-2.5l-8-52.7a3.06,3.06,0,0,1,2.5-3.5l44.7-6.8a3.06,3.06,0,0,1,3.5,2.5Z"/><path class="cls-8" d="M473.6,304.6l-44.7,6.8a1,1,0,0,0-.8,1.2l2.5,16.3a1,1,0,0,0,1.2.8l8.2-1.2a1,1,0,0,0-.4-2l-7.2,1.1-2.2-14.3,42.7-6.5,2.2,14.3-31.5,4.8a1,1,0,1,0,.4,2l32.5-5a1,1,0,0,0,.8-1.2l-2.5-16.3A1.16,1.16,0,0,0,473.6,304.6Z"/><path class="cls-8" d="M466.5,311.8l4-.6a1,1,0,0,0-.4-2l-4,.6a1,1,0,0,0-.8,1.2A1,1,0,0,0,466.5,311.8Z"/><path class="cls-8" d="M467.7,319.8l4-.6a1,1,0,0,0-.4-2l-4,.6a1,1,0,0,0-.8,1.2A1,1,0,0,0,467.7,319.8Z"/><path class="cls-8" d="M466.1,316.3a1,1,0,0,0,2-.4l-.4-2.7a1,1,0,1,0-2,.4Z"/><polygon class="cls-2" points="430.5 487.9 429.8 482.2 436.6 473.8 443.2 479 436.3 487.7 430.5 487.9"/><path class="cls-2" d="M442.9,478.9l-44,5.2a6.81,6.81,0,0,1-7.5-5.9L388,449.5a6.81,6.81,0,0,1,5.9-7.5l44-5.2a6.81,6.81,0,0,1,7.5,5.9l3.4,28.7A6.75,6.75,0,0,1,442.9,478.9Z"/><path class="cls-3" d="M426.5,460.5a1.17,1.17,0,0,0-1.1-.9l-15.8,1.9a1,1,0,1,0,.2,2l15.8-1.9A1.17,1.17,0,0,0,426.5,460.5Z"/><path class="cls-8" d="M407,448.7a1.17,1.17,0,0,0-1.1-.9L396,449a1,1,0,0,0,.2,2l9.9-1.2A.9.9,0,0,0,407,448.7Z"/><path class="cls-3" d="M410.2,467.4a1,1,0,0,0,.2,2l5.9-.7a1,1,0,0,0-.2-2Z"/><path class="cls-8" d="M426.7,479.5,396,483.1a3,3,0,0,1-3.3-2.6l-4-33.7a3,3,0,0,1,2.6-3.3l49.5-5.8a3,3,0,0,1,3.3,2.6l2.9,23.8a1,1,0,0,0,2-.2l-2.8-23.8a5,5,0,0,0-5.5-4.4l-49.5,5.8a5,5,0,0,0-4.4,5.5l4,33.7a5,5,0,0,0,5.5,4.4l30.7-3.6a1.17,1.17,0,0,0,.9-1.1A1.4,1.4,0,0,0,426.7,479.5Z"/><path class="cls-8" d="M435.6,444.4a1.17,1.17,0,0,0-.9,1.1c0,.5.6.9,1.1.9l2-.2a1.17,1.17,0,0,0,.9-1.1c0-.5-.6-.9-1.1-.9Z"/><path class="cls-8" d="M425.9,447.5a1,1,0,0,0-.2-2l-2,.2a1,1,0,0,0,.2,2Z"/><path class="cls-8" d="M431.9,446.8a1,1,0,0,0-.2-2l-2,.2a1,1,0,0,0,.2,2Z"/><path class="cls-8" d="M436.4,459.3a1.17,1.17,0,0,0-1.1-.9l-5.9.7a1,1,0,0,0,.2,2l5.9-.7A1,1,0,0,0,436.4,459.3Z"/><path class="cls-8" d="M420.3,468.2l11.9-1.4a1,1,0,0,0-.2-2l-11.9,1.4a1.17,1.17,0,0,0-.9,1.1A1,1,0,0,0,420.3,468.2Z"/><path class="cls-3" d="M403.4,469.7l.5,1.3a.93.93,0,0,1-.6,1.2,3,3,0,0,1-1,.2,6,6,0,0,1-3.9-.7,6.22,6.22,0,0,1-2.2-3l-1.1.1-.1-1.7.9-.1v-.9l-.9.1-.2-1.8,1.1-.1a6.26,6.26,0,0,1,1.5-3.4,5.92,5.92,0,0,1,5.3-1.5l-.4,2.2a2,2,0,0,0-1.1,0,3.42,3.42,0,0,0-3.1,2.5l2.6-.3a.87.87,0,0,1,1,.9h0a.86.86,0,0,1-.8.8l-3.1.4v.5c0,.2,0,.3.1.4l2.5-.3a.92.92,0,0,1,1,.9h0a.86.86,0,0,1-.8.8l-2,.2a3.5,3.5,0,0,0,3.7,1.7A2.11,2.11,0,0,0,403.4,469.7Zm67.6,0,.5,1.3a.93.93,0,0,1-.6,1.2,3,3,0,0,1-1,.2,6,6,0,0,1-3.9-.7,6.22,6.22,0,0,1-2.2-3l-1.1.1-.2-1.8.9-.1V466l-.9.1-.2-1.8,1.1-.1a6.26,6.26,0,0,1,1.5-3.4,5.92,5.92,0,0,1,5.3-1.5l-.4,2.2a2,2,0,0,0-1.1,0,3.42,3.42,0,0,0-3.1,2.5l2.6-.3a.87.87,0,0,1,1,.9h0a.86.86,0,0,1-.8.8l-3.1.4v.5c0,.2,0,.3.1.4l2.5-.3a.92.92,0,0,1,1,.9h0a.86.86,0,0,1-.8.8l-2,.2a3.5,3.5,0,0,0,3.7,1.7A1.38,1.38,0,0,0,471,469.7Z"/><path class="cls-14" d="M276.3,141.1l1-3.3h5.4v-4.1h1.5v-3.5H286l.5-24.2-2.1-.4-.1-2.5-2-2.2.3-7.7s-7,.1-7.2,0-.3-1.5-.3-1.5l37.4-24.1,37.4,24.1-.7,1.5-7.1-.1.3,8.8-1.3.5-.4,3.2-1.6.7.1,23.6,1.4.9.1,3,1.5.1-.2,4-12.8-.4-.1-3,1.6-.4.1-3.4,2-1.3-.1-23.6-2.2-.8v-2.8l-1.2-1.5-.1-2.7-10.7.3v3.8l-1.3,1.1-.1,2.6h-1.5l.1,23.8,1.8,1.1v2.6l1.4,1.2.1,3.4H305.7l1.5-4.3.5-3.5,1.8-.9-.3-23-1.8-1.5v-2.4l-1.3-.8-.2-2.7-10.5-.5.1,3.4-1.2,1.1-.3,2.8-1.7.5-.2,23.5,2,1.1v2.8l1.8.5-.2,2.6-.1.9,52.5-.1.5,2.5-1.9,2.4H278.2Z"/><path class="cls-8" d="M350.1,90.5,324.7,74.1a1.08,1.08,0,1,0-1.2,1.8L348.6,92h-5.8L314.3,73.6a3.07,3.07,0,0,0-3.2,0L282.4,92.1h-5.8l36-23.2,5.1,3.3a1.08,1.08,0,1,0,1.2-1.8l-5.1-3.3a2.11,2.11,0,0,0-2.4,0L275,90.5a2.09,2.09,0,0,0-.9,2.3,2.13,2.13,0,0,0,2,1.5h5.5v7.1a1.83,1.83,0,0,0,1.4,1.8v1.9a1.79,1.79,0,0,0,1.8,1.8h.2v13.4a1.1,1.1,0,1,0,2.2,0V105.8a1.11,1.11,0,0,0-1.1-1.1h-.9v-1.5h7.7v1.5H292a1.11,1.11,0,0,0-1.1,1.1V130a1.11,1.11,0,0,0,1.1,1.1h.9v1.6h-7.7v-1.6h.9a1.11,1.11,0,0,0,1.1-1.1v-2.9a1.1,1.1,0,1,0-2.2,0v1.7h-.2a1.79,1.79,0,0,0-1.8,1.8v1.9a1.83,1.83,0,0,0-1.4,1.8v2.2h-3.9a2.22,2.22,0,0,0-2.2,2.2V141a2.22,2.22,0,0,0,2.2,2.2h69.6a2.22,2.22,0,0,0,2.2-2.2v-2.3a2.22,2.22,0,0,0-2.2-2.2h-3.9v-2.2a1.83,1.83,0,0,0-1.4-1.8v-1.9a1.79,1.79,0,0,0-1.8-1.8H340v-22h.2A1.79,1.79,0,0,0,342,105v-1.9a1.83,1.83,0,0,0,1.4-1.8v-7h5.5a2.13,2.13,0,0,0,2-1.5A1.91,1.91,0,0,0,350.1,90.5Zm-38-14.9a.6.6,0,0,1,.8,0l25.7,16.5H286.4ZM283.8,94.3h57.5V97H283.9V94.3Zm34.8,38.3v-1.9a1.79,1.79,0,0,0-1.8-1.8h-.2v-22h.2a1.79,1.79,0,0,0,1.8-1.8v-2a1.83,1.83,0,0,0,1.4-1.8V99.1h8.4v2.2a1.83,1.83,0,0,0,1.4,1.8V105a1.79,1.79,0,0,0,1.8,1.8h.2v22h-.2a1.79,1.79,0,0,0-1.8,1.8v1.9a1.83,1.83,0,0,0-1.4,1.8v2.2H320v-2.2A1.63,1.63,0,0,0,318.6,132.6Zm-23.4,0v-1.9a1.79,1.79,0,0,0-1.8-1.8h-.2v-22h.2a1.79,1.79,0,0,0,1.8-1.8v-2a1.83,1.83,0,0,0,1.4-1.8V99.1H305v2.2a1.83,1.83,0,0,0,1.4,1.8V105a1.79,1.79,0,0,0,1.8,1.8h.2v22h-.2a1.79,1.79,0,0,0-1.8,1.8v1.9a1.83,1.83,0,0,0-1.4,1.8v2.2h-8.4v-2.2A1.72,1.72,0,0,0,295.2,132.6Zm20.4-1.6h.9v1.6h-7.7V131h.9a1.11,1.11,0,0,0,1.1-1.1V105.7a1.11,1.11,0,0,0-1.1-1.1h-.9v-1.5h7.7v1.5h-.9a1.11,1.11,0,0,0-1.1,1.1v24.2A1.11,1.11,0,0,0,315.6,131Zm-8-30h-.3V99.2h10.6V101H307.6Zm-.4,33.8c.1,0,.2.1.3.1h9.9a.37.37,0,0,0,.3-.1v1.8H307.1v-1.8Zm-23-33.8h-.3V99.2h10.6V101H284.2Zm-.4,33.8c.1,0,.2.1.3.1H294a.37.37,0,0,0,.3-.1v1.8H283.7v-1.8Zm63.6,3.9V141H277.8v-2.3Zm-6.5-3.8a.37.37,0,0,0,.3-.1v1.8H330.6v-1.8c.1,0,.2.1.3.1ZM333,104.7h-.9v-1.5h7.7v1.5H339a1.11,1.11,0,0,0-1.1,1.1V130a1.11,1.11,0,0,0,1.1,1.1h.9v1.6h-7.7v-1.6h.9a1.11,1.11,0,0,0,1.1-1.1V105.8A1.28,1.28,0,0,0,333,104.7Zm8.3-3.7H330.7V99.2h10.6V101Z"/><rect class="cls-8" x="307.3" y="83" width="10.5" height="7.2"/><rect class="cls-2" x="310.7" y="83" width="3.6" height="7.2"/><path class="cls-11" d="M183.9,118.6s22.5-36.2,67.7-28.8"/><path class="cls-15" d="M231.9,497.7l-40.8-2.5a5.73,5.73,0,0,1-5.4-6.1l3.9-63.6a5.73,5.73,0,0,1,6.1-5.4l40.8,2.5a5.73,5.73,0,0,1,5.4,6.1L238,492.3A5.67,5.67,0,0,1,231.9,497.7Z"/><path class="cls-13" d="M209,431.6l-11-.7a.81.81,0,0,1-.8-.9h0a.81.81,0,0,1,.9-.8l11,.7a.81.81,0,0,1,.8.9h0A.77.77,0,0,1,209,431.6Z"/><path class="cls-13" d="M202.1,440.5l-4.6-.3a.81.81,0,0,1-.8-.9h0a.81.81,0,0,1,.9-.8l4.6.3a.81.81,0,0,1,.8.9h0A.77.77,0,0,1,202.1,440.5Z"/><path class="cls-13" d="M213.8,436.5l-16-1a.81.81,0,0,1-.8-.9h0a.81.81,0,0,1,.9-.8l16,1a.81.81,0,0,1,.8.9h0A.88.88,0,0,1,213.8,436.5Z"/><path class="cls-13" d="M226.2,449.7l-29.1-1.8a.81.81,0,0,1-.8-.9h0a.81.81,0,0,1,.9-.8l29.1,1.8a.81.81,0,0,1,.8.9h0A.82.82,0,0,1,226.2,449.7Z"/><path class="cls-13" d="M229.7,460.8l-33.2-2a.81.81,0,0,1-.8-.9h0a.81.81,0,0,1,.9-.8l33.2,2a.81.81,0,0,1,.8.9h0A1,1,0,0,1,229.7,460.8Z"/><path class="cls-13" d="M231.3,466.7l-35.2-2.1a.81.81,0,0,1-.8-.9h0a.81.81,0,0,1,.9-.8l35.2,2.1a.81.81,0,0,1,.8.9h0A.88.88,0,0,1,231.3,466.7Z"/><path class="cls-13" d="M221.5,471.9l-25.8-1.6a.81.81,0,0,1-.8-.9h0a.81.81,0,0,1,.9-.8l25.8,1.6a.81.81,0,0,1,.8.9h0A1,1,0,0,1,221.5,471.9Z"/><path class="cls-8" d="M228.6,478.1l-33.2-2a.81.81,0,0,1-.8-.9h0a.81.81,0,0,1,.9-.8l33.2,2a.81.81,0,0,1,.8.9h0A.77.77,0,0,1,228.6,478.1Z"/><path class="cls-8" d="M220.8,483.5,195,481.9a.81.81,0,0,1-.8-.9h0a.81.81,0,0,1,.9-.8l25.8,1.6a.81.81,0,0,1,.8.9h0A1,1,0,0,1,220.8,483.5Z"/><path class="cls-8" d="M227.9,489.7l-33.2-2a.81.81,0,0,1-.8-.9h0a.81.81,0,0,1,.9-.8l33.2,2a.81.81,0,0,1,.8.9h0A.82.82,0,0,1,227.9,489.7Z"/><path class="cls-13" d="M233.8,455.6l-37.1-2.2a.81.81,0,0,1-.8-.9h0a.81.81,0,0,1,.9-.8l37.1,2.2a.81.81,0,0,1,.8.9h0A.77.77,0,0,1,233.8,455.6Z"/><rect class="cls-13" x="231.31" y="431.31" width="3" height="4.6" transform="translate(-214.08 639.8) rotate(-86.54)"/><path class="cls-13" d="M233,430.4l-3.3,1.5c-.1,0,0,.1,0,.1l6.4.4c.1,0,.1-.1,0-.1l-3.1-1.9Z"/><path class="cls-16" d="M195.2,469.4l-2.4-46.9a4.58,4.58,0,0,1,4.3-4.8l43.2-2.2a4.58,4.58,0,0,1,4.8,4.3l3.3,66.1a4.58,4.58,0,0,1-4.3,4.8l-43.2,2.2a4.58,4.58,0,0,1-4.8-4.3l-.6-11.4"/><path class="cls-3" d="M213,427.6l-11,.6a.88.88,0,0,1-.9-.8h0a.88.88,0,0,1,.8-.9l11-.6a.88.88,0,0,1,.9.8h0A.88.88,0,0,1,213,427.6Z"/><path class="cls-3" d="M207.1,437.2l-4.6.2a.88.88,0,0,1-.9-.8h0a.88.88,0,0,1,.8-.9l4.6-.2a.88.88,0,0,1,.9.8h0A.88.88,0,0,1,207.1,437.2Z"/><path class="cls-3" d="M218.2,431.9l-16,.8a.88.88,0,0,1-.9-.8h0a.88.88,0,0,1,.8-.9l16-.8a.88.88,0,0,1,.9.8h0A.81.81,0,0,1,218.2,431.9Z"/><path class="cls-8" d="M232,443.7l-29.1,1.5a.88.88,0,0,1-.9-.8h0a.88.88,0,0,1,.8-.9l29.1-1.5a.88.88,0,0,1,.9.8h0A1,1,0,0,1,232,443.7Z"/><path class="cls-8" d="M236.7,454.2l-33.3,1.7a.88.88,0,0,1-.9-.8h0a.88.88,0,0,1,.8-.9l33.3-1.7a.88.88,0,0,1,.9.8h0A.82.82,0,0,1,236.7,454.2Z"/><path class="cls-8" d="M238.9,459.9l-35.2,1.8a.88.88,0,0,1-.9-.8h0a.88.88,0,0,1,.8-.9l35.2-1.8a.88.88,0,0,1,.9.8h0A.77.77,0,0,1,238.9,459.9Z"/><path class="cls-8" d="M229.8,466.2,204,467.5a.88.88,0,0,1-.9-.8h0a.88.88,0,0,1,.8-.9l25.8-1.3a.88.88,0,0,1,.9.8h0A.88.88,0,0,1,229.8,466.2Z"/><path class="cls-8" d="M237.6,471.6l-33.3,1.7a.88.88,0,0,1-.9-.8h0a.88.88,0,0,1,.8-.9l33.3-1.7a.88.88,0,0,1,.9.8h0A.88.88,0,0,1,237.6,471.6Z"/><path class="cls-8" d="M230.3,477.8l-25.8,1.3a.88.88,0,0,1-.9-.8h0a.88.88,0,0,1,.8-.9l25.8-1.3a.88.88,0,0,1,.9.8h0A.77.77,0,0,1,230.3,477.8Z"/><path class="cls-8" d="M238.1,483.2l-33.3,1.7a.88.88,0,0,1-.9-.8h0a.88.88,0,0,1,.8-.9l33.3-1.7a.88.88,0,0,1,.9.8h0A.77.77,0,0,1,238.1,483.2Z"/><path class="cls-8" d="M240.2,448.7l-37.1,1.9a.88.88,0,0,1-.9-.8h0a.88.88,0,0,1,.8-.9l37.1-1.9a.88.88,0,0,1,.9.8h0A.81.81,0,0,1,240.2,448.7Z"/><polygon class="cls-14" points="130.3 189.9 126.9 187.7 123.2 144.5 124.9 142.3 164.8 138.9 167.8 141.3 167.8 148.8 160.8 149.5 163 176.9 170.4 176.8 170.5 185.1 168.9 186.7 150.4 188.2 150.9 195.7 145.2 193.8 140.8 196.4 140.2 189.3 130.3 189.9"/><path class="cls-8" d="M168,149.5a.85.85,0,0,0,.8-1l-.5-6.4a4.5,4.5,0,0,0-4.9-4.1l-36.8,3a4.46,4.46,0,0,0-4.2,4.9l3.3,40.8a4.58,4.58,0,0,0,4.9,4.2l9-.7.5,6.3a.75.75,0,0,0,.5.7,1.39,1.39,0,0,0,.9,0l4.3-2.6,4.6,1.9a.6.6,0,0,0,.4.1c.2,0,.3-.1.5-.2a.91.91,0,0,0,.4-.8l-.5-6.3,16.3-1.4a4.61,4.61,0,0,0,4.2-5l-.5-6.4a.85.85,0,0,0-1-.8l-6.4.5-2.1-26.1Zm-1.5-7.2.4,5.5-5.5.4-.4-5.4a2.85,2.85,0,0,1,2.5-3A2.73,2.73,0,0,1,166.5,142.3Zm-17.4,38.5-.3.3a6.7,6.7,0,0,1-4,1.8,6.37,6.37,0,0,1-4.4-1.3,6.84,6.84,0,0,1-2.5-4.6,6.42,6.42,0,0,1,12.8-1A6,6,0,0,1,149.1,180.8Zm.6,13.4-3.7-1.5a.75.75,0,0,0-.8.1l-3.4,2.1-.9-10.8a8.28,8.28,0,0,0,7.9-.6Zm.9-12.2a8.09,8.09,0,0,0,2-6.1,8.23,8.23,0,0,0-16.4,1.4,8.12,8.12,0,0,0,2.9,5.6l.5,5.5-9,.7a2.86,2.86,0,0,1-3-2.6l-3.3-40.8a2.7,2.7,0,0,1,2.5-2.9l33.2-2.7a4.52,4.52,0,0,0-.7,2.8l3.3,40.7a4.47,4.47,0,0,0,1.2,2.7l-12.7,1.1Zm18.8-4.5.4,5.5a2.79,2.79,0,0,1-2.5,3,2.7,2.7,0,0,1-2.9-2.5L164,178Z"/><path class="cls-8" d="M144,172a4.56,4.56,0,1,0,4.9,4.2A4.58,4.58,0,0,0,144,172Zm.6,7.3a2.76,2.76,0,0,1-.5-5.5,2.78,2.78,0,0,1,3,2.5A2.72,2.72,0,0,1,144.6,179.3Z"/><path class="cls-8" d="M155,157.3l-24.3,2a.91.91,0,0,0,.2,1.8l24.3-2a.85.85,0,0,0,.8-1A.89.89,0,0,0,155,157.3Z"/><path class="cls-8" d="M151.7,161.2l-17,1.4a.85.85,0,0,0-.8,1,.89.89,0,0,0,1,.8l17-1.4a.85.85,0,0,0,.8-1A1.08,1.08,0,0,0,151.7,161.2Z"/><path class="cls-13" d="M154.7,153.6l-3.6.3a.91.91,0,0,0,.2,1.8l3.6-.3a.85.85,0,0,0,.8-1A1,1,0,0,0,154.7,153.6Z"/><path class="cls-8" d="M130.6,157.5l17-1.4a.85.85,0,0,0,.8-1,.89.89,0,0,0-1-.8l-17,1.4a.85.85,0,0,0-.8,1A1,1,0,0,0,130.6,157.5Z"/><path class="cls-3" d="M133.2,152.2a.66.66,0,0,0,.6.1,1,1,0,0,0,.7-.4l1.9-2.9,2.3,2.5a1.08,1.08,0,0,0,.7.3,1,1,0,0,0,.7-.4l1.9-2.9,2.3,2.5a1.08,1.08,0,0,0,.7.3,1.27,1.27,0,0,0,.7-.4l1.9-2.9,2.3,2.5a.92.92,0,1,0,1.4-1.2l-3.1-3.4a1.08,1.08,0,0,0-.7-.3,1.27,1.27,0,0,0-.7.4l-1.9,2.9-2.3-2.5a1.08,1.08,0,0,0-.7-.3,1,1,0,0,0-.7.4l-1.9,2.9-2.3-2.5a1.08,1.08,0,0,0-.7-.3,1,1,0,0,0-.7.4l-2.5,3.9A.85.85,0,0,0,133.2,152.2Z"/><polygon class="cls-14" points="138.3 177.3 135.7 174.1 145.6 131.9 147.9 130.3 186.9 139.5 189 142.7 186.7 149.9 179.8 148.3 173.5 175 180.5 177.3 178 185.1 176 186.1 157.9 181.9 156.1 189.2 151.2 185.6 146.3 186.7 147.9 179.8 138.3 177.3"/><path class="cls-8" d="M186.7,150.5a.92.92,0,0,0,1.1-.7l1.5-6.2a4.49,4.49,0,0,0-3.4-5.4l-36-8.5a4.53,4.53,0,0,0-5.5,3.3L135,172.8a4.62,4.62,0,0,0,3.4,5.6l8.7,2.1-1.5,6.2a1,1,0,0,0,.2.9.9.9,0,0,0,.9.2l4.9-1.1,3.8,3.2a.52.52,0,0,0,.4.2h.5a.88.88,0,0,0,.6-.7l1.5-6.2,16,3.8a4.51,4.51,0,0,0,5.5-3.4l1.5-6.2a.92.92,0,0,0-.7-1.1l-6.2-1.5,6-25.5Zm.8-7.3-1.3,5.3-5.3-1.3,1.3-5.3a2.63,2.63,0,0,1,3.3-2A2.89,2.89,0,0,1,187.5,143.2ZM159,174.5a.76.76,0,0,0-.4.2,6.4,6.4,0,0,1-4.3.5,6.74,6.74,0,0,1-3.8-2.6,6.64,6.64,0,0,1-1-5.1,6.42,6.42,0,0,1,12.5,2.9A6.58,6.58,0,0,1,159,174.5Zm-3.5,12.9-3.1-2.6a.78.78,0,0,0-.8-.2l-3.9.9,2.5-10.5a8.18,8.18,0,0,0,3.7,1.9,7.76,7.76,0,0,0,4-.1ZM160,176a8.1,8.1,0,0,0,3.8-5.2,8.22,8.22,0,0,0-16-3.8,8.46,8.46,0,0,0,1,6.2l-1.3,5.4-8.7-2.1a2.73,2.73,0,0,1-2-3.4l9.4-39.8a2.7,2.7,0,0,1,3.3-2l32.4,7.7a4.58,4.58,0,0,0-1.5,2.5L171,181.2a4.78,4.78,0,0,0,.3,2.9l-12.4-2.9Zm19.3,1.6-1.3,5.3a2.81,2.81,0,0,1-3.3,2.1,2.67,2.67,0,0,1-2-3.3l1.3-5.3Z"/><path class="cls-8" d="M156.8,164.5a4.57,4.57,0,1,0,3.4,5.5A4.56,4.56,0,0,0,156.8,164.5Zm-1.6,7.1a2.63,2.63,0,0,1-2-3.3,2.67,2.67,0,0,1,3.3-2,2.63,2.63,0,0,1,2,3.3A2.72,2.72,0,0,1,155.2,171.6Z"/><path class="cls-8" d="M171.9,153.9l-23.7-5.6a.92.92,0,0,0-.4,1.8l23.7,5.6a.92.92,0,1,0,.4-1.8Z"/><path class="cls-8" d="M167.5,156.6l-16.6-3.9a.92.92,0,0,0-.4,1.8l16.6,3.9a.92.92,0,0,0,1.1-.7A1,1,0,0,0,167.5,156.6Z"/><path class="cls-8" d="M172.8,150.4l-3.6-.8a.92.92,0,1,0-.4,1.8l3.6.8a.92.92,0,0,0,1.1-.7A1,1,0,0,0,172.8,150.4Z"/><path class="cls-8" d="M148.6,146.5l16.6,3.9a.92.92,0,0,0,.4-1.8L149,144.7a.92.92,0,0,0-.4,1.8Z"/><path class="cls-3" d="M152.7,142.3a.55.55,0,0,0,.5.3.78.78,0,0,0,.8-.2l2.7-2.2,1.4,3.1c.1.3.3.4.6.5a.78.78,0,0,0,.8-.2l2.7-2.2,1.4,3.1c.1.3.3.4.6.5a.78.78,0,0,0,.8-.2l2.7-2.2,1.4,3.1a.92.92,0,0,0,1.7-.7l-1.8-3.9c-.1-.3-.3-.4-.6-.5a.78.78,0,0,0-.8.2l-2.7,2.2-1.4-3.1c-.1-.3-.3-.4-.6-.5a.78.78,0,0,0-.8.2l-2.7,2.2-1.4-3.1c-.1-.3-.3-.4-.6-.5a.78.78,0,0,0-.8.2l-3.6,2.9C152.5,141.3,152.4,141.9,152.7,142.3Z"/><rect class="cls-3" x="472.64" y="336.7" width="7.3" height="18.6" transform="translate(-46.4 75.14) rotate(-8.6)"/><path class="cls-8" d="M478.1,334.3l-8.2,1.2a1,1,0,0,0-.8,1.2l3.1,20.3a1,1,0,0,0,1.2.8l8.2-1.2a1,1,0,0,0,.8-1.2l-1.9-12.3a1,1,0,1,0-2,.4l1.7,11.3-6.2.9-2.8-18.3,6.2-.9.5,3a1,1,0,1,0,2-.4l-.6-4A1.1,1.1,0,0,0,478.1,334.3Z"/><rect class="cls-3" x="434.89" y="342.18" width="6.8" height="6.8" transform="translate(-47.33 70.44) rotate(-8.72)"/><path class="cls-8" d="M441.6,339.8l-8.2,1.2a1,1,0,0,0-.8,1.2l1.2,8.2a1,1,0,0,0,1.2.8l8.2-1.2a1,1,0,0,0,.8-1.2l-1.2-8.2A1.16,1.16,0,0,0,441.6,339.8Zm.2,8.4-6.2.9-.9-6.2,6.2-.9Z"/><polygon class="cls-3" points="439.7 469.8 442.3 466.7 445 466.6 449 470.3 449 472.1 446.3 475.1 439.7 469.8"/><path class="cls-8" d="M448.3,468.2l-2.2-1.7a3.83,3.83,0,0,0-5.4.6l-11.4,14.5a1,1,0,0,0-.2.7l.7,5.9a1.17,1.17,0,0,0,1.1.9l5.9-.7a1,1,0,0,0,.7-.4l11.4-14.5A3.63,3.63,0,0,0,448.3,468.2Zm-8.4,3.1,1.8,1.4-7.6,9.6-1.8-1.4ZM431.6,487l-.5-4.5,5.1,4Zm5.8-2.1-1.8-1.4,7.6-9.6,1.8,1.4Zm9.9-12.6-1.1,1.4-5.1-4,1.1-1.4a1.72,1.72,0,0,1,2.6-.3l2.2,1.7A1.72,1.72,0,0,1,447.3,472.3Z"/><circle id="SVGID" class="cls-17" cx="464.5" cy="195.3" r="27.8"/><g class="cls-18"><circle class="cls-5" cx="464.5" cy="195.3" r="27.8"/></g><g class="cls-18"><polygon class="cls-2" points="453.3 189 445.5 182.6 448.7 169.8 468.4 163.2 477.8 169.4 482.4 183 476.1 190 476.2 191.6 474 192.8 471.6 195.2 471.7 199.9 472.6 203.5 474.5 206.5 471.2 208.2 467.8 208.7 463 208.7 458.2 207.4 456.1 205.9 455.9 205.7 457.2 203.4 458.1 200.3 458.1 194.3 456 192 454.9 190.3 453.3 189"/></g><g class="cls-18"><path class="cls-19" d="M484.1,176.9c-3.8-3.8-1-21.8-19.1-21.5-12.4.2-16.9,6.7-22,20.9-4.6,13,9.9,15.1,12.4,15.3l-.6-1.2c-.6-1.8-1.3-3.8-1.9-5.8h-.7c-1.3-.2-2.4-2-2.9-3.5-.7-1.1-1-2.2.1-2.9a.31.31,0,0,1,.2-.1,2,2,0,0,1,.8-.4l.2-.2a1,1,0,0,1,1.2.2,9.16,9.16,0,0,1,1.9-5.5c2.3-2.9,6.1-4.7,9.7-5.4,8.3-1.5,14.9,2.4,14.6,10.7v.6a.37.37,0,0,0,.3-.1h0a1.48,1.48,0,0,1,.7-.1,2.62,2.62,0,0,1,.9.5,1.64,1.64,0,0,1,.7,1.1,1.09,1.09,0,0,1,.1.5,3.13,3.13,0,0,1-.4,1.9c-.5,1.7-1.5,3.4-3.4,3.4-.2.8-.5,1.6-.7,2.4a21.72,21.72,0,0,1-1.9,4.1h.4C485.7,192.2,487.9,180.7,484.1,176.9Z"/><path class="cls-3" d="M493.9,217.3c-5.2-6.2-15.3-7.7-15.3-7.7-.9,3.4-6.1,5.6-6.1,5.6-4.8.2-7-5.2-7-5.2s-3.3,4.9-6.8,4.7c-2.2-.1-5.4-6.2-5.4-6.2s-3.6,1.6-6.6,2.6,0-.1-5.6,2.3c-5,2.2-6.7,8.1-7,9.4h61.8"/><path class="cls-8" d="M492.7,215.9a18.19,18.19,0,0,0-8.7-5.2c-3.3-1.1-7-2-9.4-4.8a10.65,10.65,0,0,1-2.4-5.9c-.1-1.7-.1-3.3-.1-5,2.6-1.8,4.2-5.1,5.1-8.4a38.94,38.94,0,0,0,.8-15.2c-.1-.5-.9-.3-.8.2a40.44,40.44,0,0,1-.7,14.3c-1.1,4.5-3.6,9.7-8.8,10-.5,0-.5.9,0,.8a9.56,9.56,0,0,0,3.6-1.2v3.8a11.93,11.93,0,0,0,2.6,6.9,13.93,13.93,0,0,1-8,2.1h-.8c-3-.1-6.4-.8-8.8-2.7a11.58,11.58,0,0,0,2.1-6.3c.1-1.5,0-2.9,0-4.4a9.68,9.68,0,0,0,3.3,1.4c.5.1.6-.7.1-.8-4.2-.8-6.8-4.8-8.1-8.5a37.75,37.75,0,0,1-1.8-12.1c0-.5-.8-.4-.8.1a38.14,38.14,0,0,0,1.9,12.6,14.26,14.26,0,0,0,4.5,6.7,52.33,52.33,0,0,1-.1,5.6,10.65,10.65,0,0,1-2.4,5.9c-2.4,2.8-6.1,3.7-9.4,4.8a19.9,19.9,0,0,0-8.7,5.2,20.28,20.28,0,0,0-3.8,6.9h.8a21.69,21.69,0,0,1,1.5-3.5,15.87,15.87,0,0,1,8-7.1c3.2-1.3,6.6-1.9,9.6-3.7.1,3.2,2,5.9,5.4,6.1a6.7,6.7,0,0,0,6.8-4.7,6.17,6.17,0,0,0,5.6,5.2c3.8.4,6.3-2.4,8.2-5.2h0c2.2.9,4.6,1.4,6.8,2.3a15.82,15.82,0,0,1,8,7.1"/><path class="cls-14" d="M474.5,207h0a11.6,11.6,0,0,0,2.1,1.6,19.83,19.83,0,0,0,2,1.1c-1.6,2.4-3.5,4.6-6.5,4.8a5.36,5.36,0,0,1-5.8-5.1C469.1,209.2,472.2,208.7,474.5,207Z"/><path class="cls-14" d="M455.9,206.4c2.5,1.9,5.8,2.6,9,2.8a6.07,6.07,0,0,1-5.8,4.7c-3.3,0-5-2.8-4.9-5.8h0C454.7,207.5,455.3,207,455.9,206.4Z"/><path class="cls-20" d="M474.4,182.8c2.6,1.6-2.6,4.5-4.2,2.6S473,181.9,474.4,182.8Z"/><path class="cls-20" d="M455.9,183.3c-2.6,1.7,2.7,4.7,4.3,2.7S457.4,182.3,455.9,183.3Z"/><path class="cls-8" d="M467.8,190.2a7.07,7.07,0,0,1-5.7-.1c-.5-.3-1,.4-.5.7a7.62,7.62,0,0,0,6.6.2C468.7,190.8,468.3,190,467.8,190.2Z"/><path class="cls-9" d="M480.5,178.1c-.8-1.1-2.1-.4-2.8.3-.3.3.1.9.4.6,1.3-1.3,2.1-.4,2.3,1a5.87,5.87,0,0,1-.4,2.3c-.5,1.4-1.4,3.2-3.1,3.1-.5,0-.5.7-.1.7,2.4.2,3.7-2.5,4.1-4.5A3.6,3.6,0,0,0,480.5,178.1Z"/><path class="cls-9" d="M449.4,177.6c.8-1.1,2.1-.4,2.8.3.3.3-.1.9-.4.6-1.3-1.3-2.1-.4-2.3,1a5.87,5.87,0,0,0,.4,2.3c.5,1.4,1.4,3.2,3.1,3.1.5,0,.5.7.1.7-2.4.2-3.7-2.5-4.1-4.5A3.6,3.6,0,0,1,449.4,177.6Z"/><circle class="cls-14" cx="465.5" cy="215" r="1.2"/><circle class="cls-14" cx="465.5" cy="220.2" r="1.2"/><path class="cls-19" d="M450.5,176.2s14.8-1.2,21.5-8.4l6.4,9.9s4.4-20.4-13.7-20.1C448.1,157.8,450.5,176.2,450.5,176.2Z"/></g><path class="cls-3" d="M484.1,176.9c-3.8-3.8-1-21.8-19.1-21.5-12.4.2-16.9,6.7-22,20.9-4.6,13,9.9,15.1,12.4,15.3l-.6-1.2c-.6-1.8-1.3-3.8-1.9-5.8h-.7c-1.3-.2-2.4-2-2.9-3.5-.7-1.1-1-2.2.1-2.9a.31.31,0,0,1,.2-.1,2,2,0,0,1,.8-.4l.2-.2a1,1,0,0,1,1.2.2,9.16,9.16,0,0,1,1.9-5.5c2.3-2.9,6.1-4.7,9.7-5.4,8.3-1.5,14.9,2.4,14.6,10.7v.6a.37.37,0,0,0,.3-.1h0a1.48,1.48,0,0,1,.7-.1,2.62,2.62,0,0,1,.9.5,1.64,1.64,0,0,1,.7,1.1,1.09,1.09,0,0,1,.1.5,3.13,3.13,0,0,1-.4,1.9c-.5,1.7-1.5,3.4-3.4,3.4-.2.8-.5,1.6-.7,2.4a21.72,21.72,0,0,1-1.9,4.1h.4C485.7,192.2,487.9,180.7,484.1,176.9Z"/><path class="cls-3" d="M450.5,176.2s14.8-1.2,21.5-8.4l6.4,9.9s4.4-20.4-13.7-20.1C448.1,157.8,450.5,176.2,450.5,176.2Z"/><g class="cls-21"><path class="cls-8" d="M492.7,215.9a18.19,18.19,0,0,0-8.7-5.2c-3.3-1.1-7-2-9.4-4.8a10.65,10.65,0,0,1-2.4-5.9c-.1-1.7-.1-3.3-.1-5,2.6-1.8,4.2-5.1,5.1-8.4a38.94,38.94,0,0,0,.8-15.2c-.1-.5-.9-.3-.8.2a40.44,40.44,0,0,1-.7,14.3c-1.1,4.5-3.6,9.7-8.8,10-.5,0-.5.9,0,.8a9.56,9.56,0,0,0,3.6-1.2v3.8a11.93,11.93,0,0,0,2.6,6.9,13.93,13.93,0,0,1-8,2.1h-.8c-3-.1-6.4-.8-8.8-2.7a11.58,11.58,0,0,0,2.1-6.3c.1-1.5,0-2.9,0-4.4a9.68,9.68,0,0,0,3.3,1.4c.5.1.6-.7.1-.8-4.2-.8-6.8-4.8-8.1-8.5a37.75,37.75,0,0,1-1.8-12.1c0-.5-.8-.4-.8.1a38.14,38.14,0,0,0,1.9,12.6,14.26,14.26,0,0,0,4.5,6.7,52.33,52.33,0,0,1-.1,5.6,10.65,10.65,0,0,1-2.4,5.9c-2.4,2.8-6.1,3.7-9.4,4.8a19.9,19.9,0,0,0-8.7,5.2,20.28,20.28,0,0,0-3.8,6.9h.8a21.69,21.69,0,0,1,1.5-3.5,15.87,15.87,0,0,1,8-7.1c3.2-1.3,6.6-1.9,9.6-3.7.1,3.2,2,5.9,5.4,6.1a6.7,6.7,0,0,0,6.8-4.7,6.17,6.17,0,0,0,5.6,5.2c3.8.4,6.3-2.4,8.2-5.2h0c2.2.9,4.6,1.4,6.8,2.3a15.82,15.82,0,0,1,8,7.1"/></g><g class="cls-21"><path class="cls-20" d="M474.4,182.8c2.6,1.6-2.6,4.5-4.2,2.6S473,181.9,474.4,182.8Z"/></g><g class="cls-21"><path class="cls-20" d="M455.9,183.3c-2.6,1.7,2.7,4.7,4.3,2.7S457.4,182.3,455.9,183.3Z"/></g><g class="cls-21"><path class="cls-8" d="M480.5,178.1c-.8-1.1-2.1-.4-2.8.3-.3.3.1.9.4.6,1.3-1.3,2.1-.4,2.3,1a5.87,5.87,0,0,1-.4,2.3c-.5,1.4-1.4,3.2-3.1,3.1-.5,0-.5.7-.1.7,2.4.2,3.7-2.5,4.1-4.5A3.6,3.6,0,0,0,480.5,178.1Z"/></g><g class="cls-21"><path class="cls-8" d="M449.4,177.6c.8-1.1,2.1-.4,2.8.3.3.3-.1.9-.4.6-1.3-1.3-2.1-.4-2.3,1a5.87,5.87,0,0,0,.4,2.3c.5,1.4,1.4,3.2,3.1,3.1.5,0,.5.7.1.7-2.4.2-3.7-2.5-4.1-4.5A3.6,3.6,0,0,1,449.4,177.6Z"/></g><g class="cls-22"><circle class="cls-5" cx="109.5" cy="318.3" r="27.8"/></g><g class="cls-22"><polygon class="cls-2" points="79.5 348 81.5 341.3 83.4 338.5 86.2 336.3 89.7 334.7 95.3 332.8 98.9 331.3 101.3 329 102.9 325.4 103.3 318.7 100.5 315.6 98.9 311.7 98 308.8 95.6 307.7 94.4 306 94 303.1 94.2 301.3 95.3 299.9 99.8 289.4 118.4 288.2 121.8 298.6 122.1 300.3 123.5 300.2 124.3 301.2 124.6 303.5 124.1 306.1 122.8 308 121.2 308.8 120.8 308.8 119.7 313.2 117.7 317.1 115.4 319.3 115.7 324.1 116 326.3 118.3 329.9 120.5 331.6 123.7 333.1 129 334.7 134.6 338.1 137 340.9 138 343.2 138.7 345.4 109.5 354.3 79.5 348"/></g><g class="cls-22"><polygon class="cls-3" points="109.4 332.3 107.4 336.3 108.8 337 112.2 337 113.7 335.5 110.7 331.9 109.4 332.3"/><path class="cls-23" d="M97.4,303c.8-2.7.8-9.7,4.3-10.6,1.5-.4,6.5,3.7,13.4,0,2.8-1.5,5.6,8.1,6.1,9.4l.2-1.2,1.3-1s5.4-19.5-14-19.1S95,299.8,95,299.8,97.1,299.5,97.4,303Z"/><path class="cls-8" d="M135.3,338.4c-2.1-2.4-5.6-3.8-8.6-4.8-2.4-.8-4.9-1.4-7-2.9-.1-.1-.2-.2-.3-.2a7.41,7.41,0,0,1-1.3-1.2,9.61,9.61,0,0,1-2.2-5.3c-.1-1.5-.1-3-.1-4.5,2.4-1.7,3.9-4.7,4.7-7.6a34.31,34.31,0,0,0,1-11.5c-.2.1-.5.2-.7.3a34.36,34.36,0,0,1-.9,10.6c-1,4.1-3.3,8.6-8,8.9a.4.4,0,0,0,0,.8,9,9,0,0,0,3.3-.9v3.5a13,13,0,0,0,.9,4h0c-2.1,1.5-4,3.2-6.2,4.5-2.6-1.3-5.2-2.3-7.8-3.6a11.07,11.07,0,0,0,1.3-4.8c.1-1.3,0-2.7,0-4a8.62,8.62,0,0,0,2.8,1.1c.5.1.6-.7.1-.7-3.8-.7-6-4.1-7.1-7.6a34.09,34.09,0,0,1-1.6-11c0-.5-.7-.4-.7.1a34.58,34.58,0,0,0,1.8,11.5,13,13,0,0,0,4.1,6.1,43.41,43.41,0,0,1-.1,5.1,9.32,9.32,0,0,1-2.2,5.3c-2.2,2.5-5.5,3.4-8.6,4.3s-6.5,2.3-8.6,4.8c-1.4,1.6-2.5,2.6-3.2,5.6h.7c.3,0,.7-1.7,1.2-2.5,1.6-3,4.8-5.1,8-6.4,2.9-1.2,6.1-1.7,8.8-3.4.1,0,.1-.1.2-.1,2.1,2.5,5.4,3.4,7.8,5.6a.36.36,0,0,0,.6-.2,37.42,37.42,0,0,0,2.7-4.2.1.1,0,0,1,.1.1.1.1,0,0,0,.1.1c.9,1.3,2,2.5,3,3.8,0,.1.1.1.2.1h0a.6.6,0,0,0,.4-.1c1.9-1.7,3.6-3.7,5.5-5.5.2.1.3.2.5.3,2.7,1.7,5.9,2.2,8.8,3.4,3.1,1.3,6.3,3.5,8,6.4.5.8.8,2.5,1.2,2.5h.7A10.15,10.15,0,0,0,135.3,338.4Zm-28.4-2.1c-2.3-1.9-5.4-2.9-7.4-5.2a10,10,0,0,0,2.2-2.4c2.5,1.3,5.2,2.4,7.7,3.6A33.36,33.36,0,0,1,106.9,336.3Zm6.8-.3c-.9-1.2-1.8-2.3-2.7-3.4l-.1-.1c0-.1,0-.2-.2-.3,2-1.2,3.8-2.8,5.8-4.2a9.55,9.55,0,0,0,2.4,2.9C117,332.5,115.4,334.3,113.7,336Z"/><path class="cls-8" d="M113.6,313.5a10,10,0,0,1-8.1-.4c-.4-.2-.8.4-.4.6a10.36,10.36,0,0,0,8.6.5C114.2,314,114,313.3,113.6,313.5Z"/><path class="cls-9" d="M121.3,300.4c-.4.3,0,.9.4.6,2.2-1.7,2.6.7,2.6,2.5,0,2.1-1,4.6-3.3,4.9-.4,0-.5.8,0,.7,3.1-.3,4.1-3.5,4.1-6.2C124.9,300.4,123.6,298.6,121.3,300.4Z"/><path class="cls-9" d="M97.3,300.4c.4.3,0,.9-.4.6-2.2-1.7-2.6.7-2.6,2.5,0,2.1,1,4.6,3.3,4.9.4,0,.5.8,0,.7-3.1-.3-4.1-3.5-4.1-6.2C93.7,300.4,95,298.6,97.3,300.4Z"/><polygon class="cls-3" points="108.8 337 108 339.7 108 346 113 346 113 339.7 112.2 337 108.8 337"/></g><g class="cls-22"><path class="cls-3" d="M117.6,300.2a4.5,4.5,0,0,0-6,2.9,2.35,2.35,0,0,0-.2.8,4.22,4.22,0,0,0-1.9-.3c-.6,0-1.3.3-2,.3a4.78,4.78,0,0,0-9.2-.8c-1.9,5.4,7,8.1,9,2.7a3.55,3.55,0,0,0,.2-1c.5,0,.9-.2,1.4-.2a3.59,3.59,0,0,1,2.5.3c.3,4.2,7.4,5.7,9.2,1A4.57,4.57,0,0,0,117.6,300.2Zm-11.2,5.2a3.32,3.32,0,0,1-2,2.3c-2.8,1.2-6.1-1-5.4-4.1a3.69,3.69,0,0,1,4.7-2.6A3.44,3.44,0,0,1,106.4,305.4Zm13.3,0a3.32,3.32,0,0,1-2,2.3c-2.8,1.2-6.1-1-5.4-4.1A3.69,3.69,0,0,1,117,301,3.44,3.44,0,0,1,119.7,305.4Z"/></g><path class="cls-3" d="M97.4,303c.8-2.7.8-9.7,4.3-10.6,1.5-.4,6.5,3.7,13.4,0,2.8-1.5,5.6,8.1,6.1,9.4l.2-1.2,1.3-1s5.4-19.5-14-19.1S95,299.8,95,299.8,97.1,299.5,97.4,303Z"/><path class="cls-8" d="M121.3,300.4c-.4.3,0,.9.4.6,2.2-1.7,2.6.7,2.6,2.5,0,2.1-1,4.6-3.3,4.9-.4,0-.5.8,0,.7,3.1-.3,4.1-3.5,4.1-6.2C124.9,300.4,123.6,298.6,121.3,300.4Z"/><path class="cls-8" d="M97.3,300.4c.4.3,0,.9-.4.6-2.2-1.7-2.6.7-2.6,2.5,0,2.1,1,4.6,3.3,4.9.4,0,.5.8,0,.7-3.1-.3-4.1-3.5-4.1-6.2C93.7,300.4,95,298.6,97.3,300.4Z"/></svg>