<svg id="layer" xmlns="http://www.w3.org/2000/svg" viewBox="0 0 631 500"><defs><style>.cls-1{fill:#a89c95;}.cls-1,.cls-10,.cls-11,.cls-12,.cls-13,.cls-14,.cls-15,.cls-16,.cls-17,.cls-18,.cls-19,.cls-2,.cls-20,.cls-21,.cls-22,.cls-3,.cls-4,.cls-5,.cls-7,.cls-8,.cls-9{fill-rule:evenodd;}.cls-2{fill:#eef7ff;}.cls-3{fill:#f0eadf;}.cls-4{fill:#c5bbb2;}.cls-5{fill:#fff;}.cls-18,.cls-6{fill:#714449;}.cls-7{fill:#fee4d6;}.cls-8{fill:#f55;}.cls-9{fill:#f17674;}.cls-10{fill:#fff1df;}.cls-11{fill:#f5dab7;}.cls-12{fill:#fffada;}.cls-13{fill:#eee7b5;}.cls-14{fill:#e3eefe;}.cls-15{fill:#bdd0ea;}.cls-16{fill:#ffe2e2;}.cls-17{fill:#f4bbba;}.cls-19{fill:#ffc8bb;}.cls-20{fill:#ffdfac;}.cls-21{fill:#80a9d9;}.cls-22{fill:#9ebde9;}</style></defs><g id="Ñëîé_2" data-name="Ñëîé 2"><path class="cls-1" d="M87.89,71.47h458a8.81,8.81,0,0,1,8.84,8.77V380.38a8.81,8.81,0,0,1-8.84,8.77h-458a8.81,8.81,0,0,1-8.84-8.77V80.24A8.81,8.81,0,0,1,87.89,71.47Z"/><path class="cls-2" d="M98.15,89.23H535.59a8.19,8.19,0,0,1,8.44,7.9V367.67a8.19,8.19,0,0,1-8.44,7.9H98.15a8.19,8.19,0,0,1-8.44-7.9V97.13A8.19,8.19,0,0,1,98.15,89.23Z"/><path class="cls-3" d="M24.48,388.28h582a4.87,4.87,0,0,1,4.86,4.86h0a4.86,4.86,0,0,1-4.86,4.86h-582a4.86,4.86,0,0,1-4.86-4.86h0A4.87,4.87,0,0,1,24.48,388.28Z"/><path class="cls-4" d="M53.17,407.56c120,5.4,452.68,3.11,533.86.27,2.27-.08,22.17-9.83,19.49-9.83h-582C21.8,398,42.52,407.08,53.17,407.56Z"/><path class="cls-3" d="M357.22,388.86c1.4,0-1.7,6.54-3.1,6.54H278.94c-1.4,0-5.57-6.46-4.17-6.46Z"/></g><g id="Ñëîé_6" data-name="Ñëîé 6"><path class="cls-5" d="M379.89,89.33l157.54-.21c1.69,0,6.6,3.65,6.6,8V367.67c0,4.36-4,7.86-5.66,7.86H380.11Z"/></g><g id="Ñëîé_4" data-name="Ñëîé 4"><path class="cls-6" d="M551.17,388.16a.78.78,0,0,1-.63-.31.8.8,0,0,1,.16-1.1,7.89,7.89,0,0,0,3.21-6.37V80.24a8,8,0,0,0-8.06-8h-458a8,8,0,0,0-8,8V380.38a8,8,0,0,0,2.69,6,.78.78,0,0,1-1,1.17,9.52,9.52,0,0,1-3.22-7.13V80.24a9.6,9.6,0,0,1,9.62-9.55h458a9.6,9.6,0,0,1,9.62,9.55V380.38a9.46,9.46,0,0,1-3.83,7.63A.8.8,0,0,1,551.17,388.16Z"/><path class="cls-6" d="M535.59,376.36H98.15a9,9,0,0,1-9.22-8.69V97.13a9,9,0,0,1,9.22-8.69H535.59a9,9,0,0,1,9.22,8.69V367.67A9,9,0,0,1,535.59,376.36ZM98.15,90a7.41,7.41,0,0,0-7.65,7.12V367.67a7.4,7.4,0,0,0,7.65,7.12H535.59a7.4,7.4,0,0,0,7.65-7.12V97.13A7.41,7.41,0,0,0,535.59,90Z"/><path class="cls-6" d="M606.52,398.79h-582a5.65,5.65,0,0,1,0-11.29h582a5.65,5.65,0,0,1,0,11.29Zm-582-9.72a4.08,4.08,0,0,0,0,8.15h582a4.08,4.08,0,1,0,0-8.15Z"/><path class="cls-6" d="M296.3,411.64c-95.52,0-189.63-.89-243.16-3.3h0c-8.86-.4-29.73-8.08-29.68-10.26a.91.91,0,0,1,1-.86h582a.93.93,0,0,1,1,.88c0,.51,0,1.29-9.5,5.95-.94.46-9.25,4.51-11,4.57C541.75,410.2,417.88,411.64,296.3,411.64ZM53.21,406.78c121.64,5.47,452.91,3.1,533.79.27,1.62-.06,13.49-5.71,17.68-8.26H26.79c5,2.43,18.43,7.63,26.42,8Z"/><path class="cls-6" d="M354.12,396.18H278.94c-1.77,0-5.24-5.26-5.24-6.89a1.15,1.15,0,0,1,.24-.74,1,1,0,0,1,.83-.39.79.79,0,0,1,.53,1.36c.31,1.28,2.86,4.87,3.69,5.1h75.13c.72-.28,2.63-3.91,2.68-5.1a.77.77,0,0,1-.36-.66.78.78,0,0,1,.78-.78,1.08,1.08,0,0,1,.94.51,1.57,1.57,0,0,1,.2.81C358.36,391,356,396.18,354.12,396.18Zm3.1-6.54Z"/></g><g id="Ñëîé_5" data-name="Ñëîé 5"><path class="cls-7" d="M189.43,96.18c0-7.44,15.5-15.89,21.58-15.89s9.08,11,9.08,18.41c0,2-3.26,10.22-7.6,14.18-.88.8-.59,5,.2,7.78.36,1.3,2.16.89,1.62,2.23-2.89,7.13-8.63,12.46-10.16,12.59-1.68.15-8.09-6-10.77-13.38-.53-1.46,1.81-1.76,2.83-4.69.84-2.4.83-7,0-8-2.32-3.06-3-8.39-4.13-8.85A5.53,5.53,0,0,1,189.43,96.18Z"/><path class="cls-7" d="M256.6,178.4c10.6-.12,21,1.48,31.63.9a25.55,25.55,0,0,0,9.31-2.21,25.23,25.23,0,0,1,4.13-2c3.2-.94,9.12.32,12.4.37,1.89,0,4.1-1.08,5.88,0s-.91,2.16,0,2.81c.62.45,2.19,0,2.83-.19,2.58-.54,4.91-2.41,7.44-2.95.65-.14,2.92.21,3,1.26.15,2.62-1.76,3.82-4.18,5.2-1.73,1-3.79,2.36-5.24,3.07-4.2,2-9.78,3.54-14.5,2.94-2.16-.28-3.51-.8-5.66-.94-4.85-.3-8.8,1.17-14.82,2.3-5.52,1-12.71,2.72-18.23,3.71-4.07.73-8.15,1.39-12.21,2.18-2.49.48-6.16.49-8.06.74-1.68.23-1-3.71-.9-4.66a20.47,20.47,0,0,1,4.18-10C253.75,180.72,256,178.4,256.6,178.4Z"/><path class="cls-7" d="M176.62,303.15c2.37-.4,4.62.42,6.94.68,3.5.39,7.26,0,10.78,0,.72,0,5.84-.27,4.93.19s.08,6.65.27,8.21c1.07,8.58-.74,16.3-1.46,24.93-.62,7.42,1.1,10.75,1.1,18.17,0,7.2-1.34,17.83-1.47,25-.08,4.38.28,9.59.46,14s.55,10.38.87,15.14c.11,1.64.94,2.42.78,3.94-.15,1.33-1.9,2.14-2.38,3.47-1.36,3.73-2.42,9.55-7,10.78-1.37.36-6.64,2.8-7.49.27s3-5.84,4.11-7.76c2.26-4,2.7-8.3,2.92-12.88.65-13.51-3.19-25.35-7.21-37.8a93.24,93.24,0,0,1-4.38-24.66c-.18-7.27.09-14.16-.28-21.46-.21-4.34.25-8.21-.36-12.51C177.45,309,176.35,303.19,176.62,303.15Z"/><path class="cls-7" d="M203.56,303.92c5.93-.85,11.58.34,17.53-.36.52-.06,5-1.55,5.12-.09a50.55,50.55,0,0,1-1.47,8.58c-1.35,5-2.52,9.33-2,14.52.83,8.38,2.23,16.79,1.46,25.29A181,181,0,0,1,220,375.91c-2.19,9.17-4.45,17-5,26.36-.35,6.07.83,13.33,1.37,17.9.39,3.23,1.1,5.84-3.1,8.22s-8.34-2.1-9.5-6.21c-1.67-5.94-.26-10.5.87-16.34a60.31,60.31,0,0,0,1-10c0-9.72-.85-18.86-1.74-28.49-1.25-13.6.92-36.16-.63-41.83s-1.34-9.33-.83-15C202.58,309.19,202.15,304.13,203.56,303.92Z"/><path class="cls-5" d="M193,121c1.09-.23,1.44,3.55,1.9,4.61,1.32,3,6.88,8.75,8,9.48s7.84-5.61,9.15-8.1c.55-1.06,1.52-4.42,3.32-4,1.51.38,2,2.47,3.64,3,4.63,1.54,9.88,2.65,13.68,5.91a28.8,28.8,0,0,1,5.38,7.22c4.66,8,5.89,15.16,9.72,23.54,1.09,2.37,3.7,9.26,4.25,10,.31.39,1.44.2,2.83.89a5.22,5.22,0,0,1,2.76,3.24c.26,1.56-2,1.07-5.08,5.67-1.94,2.87-3.2,8.68-2.77,12.14.15,1.24,1.81,4.92.73,5.18-2,.47-5.17-2.57-5.89-3.55-1.63-2.27-.79-5.14-2-7.33-1.09-1.91-13-21.26-13.49-20.92-1.87,1.34-1.92,6.06-2.23,8.08a72.84,72.84,0,0,0-.4,17.08c.17,1.85,1.58,5.4,1.09,7.12-.34,1.18-2.46,2.9-3.44,3.3-3.1,1.27-5,2.37-8.25,3-5.37,1.11-9.29,1.17-14.73,1.71a60.84,60.84,0,0,1-18.83-2.51c-1.5-.51-3.24-2.41-4.52-3.39-2-1.55-3.7-1.72-3.8-4.14-.13-3.17,1.61-3.36,1.19-11.29a276.12,276.12,0,0,0-4.56-32.56c-.19-.74.24-2-.58-2.28-1.32-.45-7.28,3.16-8,3.88-3.23,3.12-2.42,1.82-5.57,5-3.55,3.55-6.37,7.28-8.94,9-.95.62-1,2.27-2.23,3.68-.86,1-2.36,3.32-3,2.06s-5.13-4.39-8.54-4.6a17.78,17.78,0,0,0-6.8,1.76c-1.19.57-.87,1.45-2.82,1s-.41-3.64.9-5c1.75-1.87,3.73-2.94,5.49-4.81s1.27-2.47,2.72-4.66a29.72,29.72,0,0,1,4.44-4.38c4.54-3.61,9.83-7.54,14.27-12.31,5-5.42,13.6-13.75,19-16.17,3.14-1.41,11-1.61,16.86-2.45C190.39,123.57,190.33,121.52,193,121Z"/><path class="cls-8" d="M205.86,208.29c-6.36.56-14.32-.53-21.47-1.56a47,47,0,0,0-16.22.47c-.4,3.31-2,19.83-2.26,24.77-1.41,24.14,3.87,67.74,7,70.37,2.38,2,56.41,1.38,57,.5,1.07-1.61,4.59-60.35,1.08-83.09-.64-4.2-4.1-16-4.1-17.73C226.91,202,220.54,207,205.86,208.29Z"/><path class="cls-7" d="M131,171.31a8.93,8.93,0,0,0-5.22,2.91c1.62,11.2,19.88,23.18,28.6,30.71,2.19,1.89,3.67,4.38,5.83,6.31,1.59,1.42,3.7,2.3,5.31,3.75,2.74,2.45,4.92,6.54,8.83,7.36,2.07.43-5.27-7.28-6.08-8.8-.08-.15-1.32-3-1.12-3.07.46-.26,2.75,1.81,3.07,2.05,2.42,1.78,4.76,4,7.51,5.21.41.18,3.16,1.44,3.49.95.51-.78-1.18-2.32-1.56-2.73-2-2.18-4.43-3.87-6.63-5.9-.24-.22-2.69-2.3-2.44-2.68.13-.19,2.71,1.72,2.9,1.83,2.7,1.61,5.34,3.24,8,5,.35.24,1.92,1.07,2.39.54.79-.89-1.31-2.81-1.81-3.31a68.57,68.57,0,0,0-6.36-5.19c-.21-.17-2.12-1.76-2.07-2.12s2.28,1,2.51,1.14c2.21,1.3,4.46,2.51,6.7,3.73.49.26,2.11,1.28,2.32.17s-1.27-2.11-1.9-2.54c-2.64-1.75-4.8-4.35-7.63-5.82-3.33-1.72-7.23-1-10.63-2.43-4.81-2-20-17.39-22.64-21.5a2.68,2.68,0,0,1-.22-1.12C141.89,173.8,135.55,170.5,131,171.31Z"/><path class="cls-8" d="M206.34,67.32c4.63-1,8,1.2,11.12,4.35,9.27,9.27,7,19.79,7.67,31.67.42,7.12,5.94,14.64-2.66,19.22-1,.55-2.4,1.84-3.5,2.12-4.17,1-7.67-6.23-6.89-9.73.63-2.85,3.31-4.56,4.77-7a16.35,16.35,0,0,0,2.24-9.31c-.34-3.38-2.71-5.63-3.81-8.65s-1.67-7.28-5.2-8.16c-.91-.22-1.69,1.19-2.11,1.76a49.53,49.53,0,0,1-7.26,6.83,16.91,16.91,0,0,1-8,3.68c-3.14.55-2.94,1-3.2,2.3-.58,2.89,2.19,3,3.2,5,.65,1.29,1,3.24,1.66,4.54,1.68,3.46,2.94,5.37,2.33,9.42s-6,7.76-9.18,6.95a31.75,31.75,0,0,0-4-1.09c-1.61-.18-4,.48-5.08-1-3-4,.46-9.34,2.66-12.27a10.32,10.32,0,0,0,2.05-5.81c.6-4.48-1.22-8.76-.84-13.23.77-9.29,4.47-18,16.44-22.55,1.94-.74,2.51-.07,4.41.24.8.14,1.28,1.39,2.06,1.39Z"/><path class="cls-5" d="M210.13,107.26s-1.81-.17-4-.27a27.21,27.21,0,0,1-3.92-.5,4.51,4.51,0,0,0,3.51,2.92C208.25,109.66,210.13,107.26,210.13,107.26Z"/><path class="cls-9" d="M104.14,107.82a3.67,3.67,0,1,1,3.67,3.66A3.67,3.67,0,0,1,104.14,107.82Z"/><path class="cls-8" d="M183.15,425.71c.19-.18-.1.48-.12.72,0,.5.18,1.29.74,1.42a10,10,0,0,0,7.24-1,12.5,12.5,0,0,0,5.93-7.09c.7-1.83.58-5,2.51-6.08.46-.26,1.11.73,1.23,1a31.2,31.2,0,0,1,1.32,4.65c.7,3.19-1.11,4-2.76,6.16-.84,1.13-1.43,2.43-2.34,3.51a15.1,15.1,0,0,1-14.46,5.48c-1.42-.24-5.83-.49-5.32-2.82C177.74,428.83,181.34,427.37,183.15,425.71Z"/><path class="cls-8" d="M203.43,418.13c1.06-.26.63,2.49.9,3.51.88,3.29,2.88,7.21,7,7a5.46,5.46,0,0,0,4.56-3.83c.22-.59.83-3.11.84-3.09a14.82,14.82,0,0,1,.9,2.83c.79,2.19,2.76,5.05,1.75,7.51-2,4.79-10.16,4.5-13.32,1.64s-3.18-7.21-3-11.07C203.07,421.56,202.65,418.32,203.43,418.13Z"/><path class="cls-5" d="M379.87,89.13l.25,285.09Z"/><path class="cls-10" d="M394.69,128.42a19.92,19.92,0,1,1,19.92,19.81A19.86,19.86,0,0,1,394.69,128.42Z"/><path class="cls-11" d="M405.16,122.52a9,9,0,1,1,9,8.8A8.92,8.92,0,0,1,405.16,122.52Z"/><path class="cls-11" d="M415.42,148.22c-10.71.21-14.59-5.74-14.59-5.74,1.73-3.51,4.56-8.24,6.27-8.24h15.63c1.65,0,4.71,4.28,6.72,7.44C429.61,141.94,422,148.09,415.42,148.22Z"/><path class="cls-12" d="M394.69,180.64a19.92,19.92,0,1,1,19.92,19.81A19.87,19.87,0,0,1,394.69,180.64Z"/><path class="cls-13" d="M405.16,174.74a9,9,0,1,1,9,8.8A8.92,8.92,0,0,1,405.16,174.74Z"/><path class="cls-13" d="M415.48,200.56c-10.94.08-14.19-6.08-14.19-6.08,1.73-3.51,4.1-8,5.81-8h15.63c1.65,0,4.18,3.78,6.18,6.94C429.07,193.66,424.48,200.5,415.48,200.56Z"/><path class="cls-14" d="M394.69,247.22A19.92,19.92,0,1,1,414.61,267,19.87,19.87,0,0,1,394.69,247.22Z"/><path class="cls-15" d="M405.16,241.32a9,9,0,1,1,9,8.8A8.92,8.92,0,0,1,405.16,241.32Z"/><path class="cls-15" d="M415.34,266.92a19,19,0,0,1-14.4-5.45c1.74-3.51,4.45-8.43,6.16-8.43h15.63c1.65,0,4.42,3.83,6.43,7C429.33,260.3,425.42,266.47,415.34,266.92Z"/><path class="cls-16" d="M394.69,299.44a19.92,19.92,0,1,1,19.92,19.8A19.87,19.87,0,0,1,394.69,299.44Z"/><path class="cls-17" d="M405.16,293.53a9,9,0,1,1,9,8.8A8.92,8.92,0,0,1,405.16,293.53Z"/><path class="cls-17" d="M415.41,319.29c-10.38.68-14.6-5.68-14.6-5.68,1.73-3.51,4.58-8.35,6.29-8.35h15.63c1.65,0,4.42,4,6.42,7.14C429.32,312.67,425.72,318.61,415.41,319.29Z"/><path class="cls-12" d="M394.69,351.66a19.92,19.92,0,1,1,19.92,19.8A19.87,19.87,0,0,1,394.69,351.66Z"/><path class="cls-13" d="M405.16,345.75a9,9,0,1,1,9,8.8A8.92,8.92,0,0,1,405.16,345.75Z"/><path class="cls-13" d="M415.52,371.21c-10.43.54-14.54-5.59-14.54-5.59,1.74-3.52,4.41-8.15,6.12-8.15h15.63c1.65,0,4.28,3.79,6.29,6.95C429.19,364.7,425.14,370.71,415.52,371.21Z"/><path class="cls-9" d="M346.46,163c-2.66-5.67,4.26-9.57,6.93-8.24s4.18,4.63,4.18,4.63,2-3.75,4.52-4.17c5.42-.88,8.1,5.47,6,9.39s-11,9.46-11,9.46S349.11,168.68,346.46,163Z"/><path class="cls-5" d="M346.15,198.4c0-4.08,5.25-7.39,11.72-7.39s11.73,3.31,11.73,7.39c0,2.09-1.39,4-3.62,5.33-.7.43,1.11,4.81,1.11,4.81s-4.92-3.25-5.72-3.09a17.92,17.92,0,0,1-3.5.33C351.4,205.78,346.15,202.47,346.15,198.4Z"/><path class="cls-5" d="M357,243.85l-6.74-23.58,20.88,15.83-8.87,1.35Z"/><path class="cls-5" d="M442.16,111.46H491.4a2,2,0,0,1,2,2h0a2,2,0,0,1-2,2H442.16a2,2,0,0,1-2-2h0A2,2,0,0,1,442.16,111.46Z"/><path class="cls-5" d="M441.5,166.29h33.19c.75,0,1.35.9,1.35,2h0c0,1.11-.6,2-1.35,2H441.5c-.75,0-1.35-.9-1.35-2h0C440.15,167.19,440.75,166.29,441.5,166.29Z"/><path class="cls-5" d="M440.78,231.57h15.5c.35,0,.64.89.64,2h0c0,1.11-.29,2-.64,2h-15.5c-.35,0-.63-.89-.63-2h0C440.15,232.46,440.43,231.57,440.78,231.57Z"/><path class="cls-5" d="M441.5,238.09h33.19c.75,0,1.35.9,1.35,2h0c0,1.11-.6,2-1.35,2H441.5c-.75,0-1.35-.9-1.35-2h0C440.15,239,440.75,238.09,441.5,238.09Z"/><path class="cls-5" d="M441.5,286.39h33.19c.75,0,1.35.9,1.35,2h0c0,1.11-.6,2-1.35,2H441.5c-.75,0-1.35-.9-1.35-2h0C440.15,287.29,440.75,286.39,441.5,286.39Z"/><path class="cls-5" d="M441,338.61h20.72c.47,0,.85.9.85,2h0c0,1.11-.38,2-.85,2H441c-.46,0-.84-.9-.84-2h0C440.15,339.51,440.53,338.61,441,338.61Z"/><path class="cls-5" d="M443.28,124.52H520c1.73,0,3.13.9,3.13,2h0c0,1.11-1.4,2-3.13,2H443.28c-1.73,0-3.13-.9-3.13-2h0C440.15,125.42,441.55,124.52,443.28,124.52Z"/><path class="cls-5" d="M442.47,132.35h56.84a2.18,2.18,0,0,1,2.32,2h0a2.18,2.18,0,0,1-2.32,2H442.47a2.18,2.18,0,0,1-2.32-2h0A2.18,2.18,0,0,1,442.47,132.35Z"/><path class="cls-5" d="M443.28,175.43H520c1.73,0,3.13.9,3.13,2h0c0,1.11-1.4,2-3.13,2H443.28c-1.73,0-3.13-.9-3.13-2h0C440.15,176.33,441.55,175.43,443.28,175.43Z"/><path class="cls-5" d="M443.28,183.26H520c1.73,0,3.13.9,3.13,2h0c0,1.11-1.4,2-3.13,2H443.28c-1.73,0-3.13-.9-3.13-2h0C440.15,184.16,441.55,183.26,443.28,183.26Z"/><path class="cls-5" d="M442.41,191.1h55.48a2.15,2.15,0,0,1,2.27,2h0a2.15,2.15,0,0,1-2.27,2H442.41a2.14,2.14,0,0,1-2.26-2h0A2.14,2.14,0,0,1,442.41,191.1Z"/><path class="cls-5" d="M303.91,79.57c0-8.51-13.86-15.41-31-15.41s-31,6.9-31,15.41c0,4.38,3.67,8.33,9.56,11.14,1.85.88-14.52,11.4-14.52,11.4S261.6,94,263.7,94.28A59.66,59.66,0,0,0,273,95C290.05,95,303.91,88.08,303.91,79.57Z"/><path class="cls-6" d="M237,102.89a.77.77,0,0,1-.7-.44.79.79,0,0,1,.28-1c6.17-4,12.76-8.65,14.1-10.28-6.14-3-9.5-7.15-9.5-11.6,0-8.93,14.24-16.19,31.75-16.19s31.75,7.26,31.75,16.19S290.45,95.77,273,95.77a61.31,61.31,0,0,1-9.37-.71c-1.54-.15-17,4.7-26.31,7.79A.69.69,0,0,1,237,102.89ZM273,65c-16.65,0-30.19,6.56-30.19,14.62,0,3.87,3.33,7.67,9.12,10.43a1.05,1.05,0,0,1,.59.86c.07,1.18-3.32,4.1-10.11,8.68,7.67-2.48,19.81-6.29,21.46-6a59.44,59.44,0,0,0,9.13.69c16.64,0,30.18-6.56,30.18-14.63S289.59,65,273,65Z"/></g><g id="Ñëîé_1" data-name="Ñëîé 1"><path class="cls-6" d="M206.05,116h0c-7.89,0-13.28-8.27-13.93-16.24a.78.78,0,0,1,1.56-.13c.6,7.27,5.38,14.79,12.37,14.81h0c5.35,0,11.08-6.84,12-12.44a.79.79,0,0,1,1.55.26C218.57,108.47,212.29,116,206.05,116Z"/><path class="cls-6" d="M192.66,101.69a.77.77,0,0,1-.3-.06A7.27,7.27,0,0,1,188.72,97a.77.77,0,0,1,.52-1,.78.78,0,0,1,1,.52,5.71,5.71,0,0,0,2.74,3.61.79.79,0,0,1-.3,1.51Z"/><path class="cls-6" d="M192.59,97.69a.8.8,0,0,1-.74-.51,6.52,6.52,0,0,0-.46-1,.78.78,0,1,1,1.35-.79,8.3,8.3,0,0,1,.59,1.29.79.79,0,0,1-.47,1A.86.86,0,0,1,192.59,97.69Z"/><path class="cls-6" d="M206.81,103.5a.79.79,0,0,1-.31-1.51c1.25-.53,1.16-.79.79-1.89a4,4,0,0,1,.16-3.77.78.78,0,0,1,1.08-.25.79.79,0,0,1,.25,1.08,2.52,2.52,0,0,0,0,2.44c.37,1.09.93,2.73-1.66,3.84A.8.8,0,0,1,206.81,103.5Z"/><path class="cls-6" d="M205.13,91.6a.78.78,0,0,1-.64-.34,3.26,3.26,0,0,0-2.33-.73.78.78,0,0,1-.77-.79.81.81,0,0,1,.8-.77c.8,0,2.75.18,3.59,1.4a.79.79,0,0,1-.2,1.09A.75.75,0,0,1,205.13,91.6Z"/><path class="cls-6" d="M217.37,93.65a.78.78,0,0,1-.6-.28c-.87-1-2.8-.86-4.18-.41a.78.78,0,1,1-.48-1.49c1.93-.63,4.49-.73,5.86.89a.79.79,0,0,1-.6,1.29Z"/><path class="cls-18" d="M200.66,96c0-.75.49-1.34,1-1.31s.89.66.85,1.41-.49,1.33-1,1.3S200.62,96.78,200.66,96Z"/><path class="cls-18" d="M212.65,97.93c0-.75.49-1.34,1-1.31s.89.66.85,1.41-.49,1.33-1,1.3S212.61,98.68,212.65,97.93Z"/><path class="cls-6" d="M206.77,78.83h-.1A.78.78,0,0,1,206,78a10.12,10.12,0,0,0-1.05-5.77.78.78,0,1,1,1.41-.68,11.73,11.73,0,0,1,1.2,6.64A.79.79,0,0,1,206.77,78.83Z"/><path class="cls-6" d="M252.54,174.17a.79.79,0,0,1-.71-.44c-2.62-5.37-5.31-11.71-8-18.87l-.39-1c-2.59-6.93-5.27-14.09-10-20.1-1.79-2.29-6.31-4.08-10.68-5.8-1.91-.76-3.72-1.48-5.31-2.24a.78.78,0,1,1,.67-1.41c1.55.74,3.33,1.44,5.22,2.19,4.56,1.8,9.28,3.67,11.34,6.3,4.85,6.19,7.57,13.47,10.2,20.51l.39,1c2.66,7.11,5.33,13.41,7.93,18.73a.78.78,0,0,1-.36,1.05A.84.84,0,0,1,252.54,174.17Z"/><path class="cls-6" d="M214.07,123.54a.77.77,0,0,1-.6-.29,10.85,10.85,0,0,1-1.74-10.16.79.79,0,0,1,1-.46.77.77,0,0,1,.46,1,9.37,9.37,0,0,0,1.48,8.64.79.79,0,0,1-.11,1.1A.78.78,0,0,1,214.07,123.54Z"/><path class="cls-6" d="M243.37,190.56a.81.81,0,0,1-.62-.3,120.28,120.28,0,0,1-8-12.15c-2.11-3.52-4.29-7.16-6.68-10.43a.78.78,0,1,1,1.26-.93c2.44,3.33,4.64,7,6.77,10.56a114.86,114.86,0,0,0,7.85,12,.79.79,0,0,1-.14,1.1A.78.78,0,0,1,243.37,190.56Z"/><path class="cls-6" d="M193.68,121.35a.79.79,0,0,1-.71-.44.78.78,0,0,1,.36-1c3.17-1.55,2.68-6.24,2.45-8.49,0-.45-.08-.79-.08-1a.79.79,0,1,1,1.57,0c0,.18,0,.47.07.85.25,2.4.83,8-3.32,10.06A.71.71,0,0,1,193.68,121.35Z"/><path class="cls-6" d="M226.76,201.53a.8.8,0,0,1-.64-.32.8.8,0,0,1,.18-1.1c.65-.47-.18-4.06-.54-5.59a22.77,22.77,0,0,1-.53-2.75c-.6-8.51,1.07-17.59,2.69-26.37.42-2.25.83-4.46,1.18-6.62a.79.79,0,0,1,.91-.64.78.78,0,0,1,.64.9c-.36,2.16-.77,4.38-1.19,6.64-1.6,8.68-3.26,17.66-2.66,26a21.73,21.73,0,0,0,.49,2.51c.7,3,1.42,6.13-.07,7.21A.79.79,0,0,1,226.76,201.53Z"/><path class="cls-6" d="M174.89,200.69a.77.77,0,0,1-.36-.09c-2.13-1.11-1.33-3.87-.68-6.1a12.58,12.58,0,0,0,.57-2.54c.33-8.89-1.14-17.63-2.56-26.08-.83-4.9-1.68-10-2.19-15.08a.77.77,0,0,1,.7-.85.79.79,0,0,1,.86.7c.5,5,1.35,10.1,2.17,15,1.44,8.53,2.92,17.35,2.58,26.4a13,13,0,0,1-.63,2.92c-.62,2.13-1,3.79-.1,4.27a.79.79,0,0,1-.36,1.48Z"/><path class="cls-6" d="M215.5,414.38a.78.78,0,0,1-.76-.62c-1.39-6.58-.35-16.38.69-21.36.65-3.14,1.43-6.52,2.25-10.1,2.67-11.64,5.7-24.83,5.77-35.11a104.44,104.44,0,0,0-.72-10.91c-.63-6.06-1.27-12.34,0-18.61.22-1.12.53-2.72.89-4.59.53-2.7,1.16-6,1.8-9.18a.79.79,0,0,1,1.54.31c-.65,3.22-1.28,6.47-1.8,9.17-.36,1.87-.67,3.47-.9,4.6-1.2,6-.57,12.19,0,18.14A101.71,101.71,0,0,1,225,347.2c-.07,10.45-3.12,23.73-5.81,35.45-.82,3.57-1.6,6.94-2.25,10.07-1,4.85-2,14.37-.69,20.72a.79.79,0,0,1-.6.93Z"/><path class="cls-6" d="M203.67,412.31l-.16,0a.79.79,0,0,1-.6-.94,80.66,80.66,0,0,0,1.78-12.63,174.87,174.87,0,0,0-1.09-20.1c-.46-5-.94-10.15-1.08-15.33-.21-8,.07-16.2.35-24.09.08-2.42.17-4.83.24-7.24a35,35,0,0,0-.87-7.41,45.51,45.51,0,0,1-.88-6.21,79,79,0,0,1,.65-11.57c.09-.85.18-1.7.26-2.54a.8.8,0,0,1,.86-.71.79.79,0,0,1,.7.86c-.08.85-.17,1.7-.26,2.55a76.36,76.36,0,0,0-.64,11.33,43.55,43.55,0,0,0,.85,6,35.62,35.62,0,0,1,.89,7.75c-.07,2.41-.15,4.83-.24,7.24-.27,7.88-.56,16-.35,24,.14,5.13.62,10.26,1.08,15.23a173,173,0,0,1,1.09,20.28,81.72,81.72,0,0,1-1.81,12.93A.79.79,0,0,1,203.67,412.31Z"/><path class="cls-6" d="M199,412.18a.78.78,0,0,1-.78-.74l-1.29-21.26a180.17,180.17,0,0,1,.45-22.47c.22-3.43.44-7,.57-10.57.11-3.13-.06-6.58-.21-9.91s-.31-6.54-.24-9.68c.08-3.69.41-6.77.72-9.75a76.7,76.7,0,0,0-.39-22.85.77.77,0,0,1,.65-.89.79.79,0,0,1,.9.65,78.07,78.07,0,0,1,.4,23.25c-.31,3-.63,6-.72,9.62-.07,3.1.09,6.39.24,9.57.16,3.37.32,6.85.21,10-.12,3.62-.35,7.18-.56,10.62a176.58,176.58,0,0,0-.46,22.27l1.29,21.27a.78.78,0,0,1-.73.83Z"/><path class="cls-6" d="M183.41,425.73a.84.84,0,0,1-.48-.16.79.79,0,0,1-.15-1.1c4.58-6,6.15-9.05,6.39-15.17a131.89,131.89,0,0,0-1-16.77,138,138,0,0,0-4.78-18.47c-2.21-7.18-4.5-14.61-5.31-22.23a143.07,143.07,0,0,1-.5-19.51,155.4,155.4,0,0,0-.4-19.27c-.07-.76-.6-4.54-1.33-9.32a.8.8,0,0,1,.66-.9.78.78,0,0,1,.89.66c.67,4.36,1.26,8.5,1.34,9.42a156.58,156.58,0,0,1,.41,19.45,138.19,138.19,0,0,0,.49,19.3c.79,7.48,3.06,14.83,5.25,21.94a140.25,140.25,0,0,1,4.83,18.68,136.44,136.44,0,0,1,1,17.08c-.28,6.9-2.36,10.35-6.71,16.06A.79.79,0,0,1,183.41,425.73Z"/><path class="cls-6" d="M204.72,135.93a.76.76,0,0,1-.7-.43.77.77,0,0,1,.35-1.05c1.68-.84,6.95-6.88,8.65-10.63a.79.79,0,1,1,1.43.65c-1.79,3.93-7.28,10.33-9.38,11.38A.72.72,0,0,1,204.72,135.93Z"/><path class="cls-6" d="M206.08,110.21l-.46,0a5.16,5.16,0,0,1-4.22-3.7.77.77,0,0,1,.3-.61.82.82,0,0,1,.66-.16,24,24,0,0,0,3.78.49c2.21.1,4.05.27,4.06.27a.79.79,0,0,1,.65.47.82.82,0,0,1-.1.8A6.68,6.68,0,0,1,206.08,110.21Zm-2.33-2.66a3.38,3.38,0,0,0,2,1.08,3.88,3.88,0,0,0,2.48-.73l-2.19-.13C205.21,107.73,204.41,107.64,203.75,107.55Z"/><path class="cls-6" d="M203.2,135.6a.73.73,0,0,1-.35-.09c-4.38-2.19-10-9.66-10-14.6a.79.79,0,0,1,1.57,0c0,4.36,5.24,11.24,9.16,13.2a.79.79,0,0,1-.35,1.49Z"/><path class="cls-6" d="M174.46,223.15a1.27,1.27,0,0,1-.32,0c-3-.62-4.94-2.88-6.85-5.07a29.48,29.48,0,0,0-2.33-2.47,18.36,18.36,0,0,0-2.57-1.81,19.15,19.15,0,0,1-2.74-1.94,28.59,28.59,0,0,1-2.91-3.16,24.94,24.94,0,0,0-2.91-3.14c-1.77-1.52-3.94-3.24-6.25-5.06-9.38-7.4-21.06-16.61-22.4-25.83a.79.79,0,0,1,.67-.89.78.78,0,0,1,.88.66C128,183,139.38,192,148.55,199.23c2.32,1.83,4.51,3.56,6.3,5.1a27.63,27.63,0,0,1,3.1,3.33,26.13,26.13,0,0,0,2.74,3,17.24,17.24,0,0,0,2.53,1.78,20.4,20.4,0,0,1,2.78,2,27.92,27.92,0,0,1,2.47,2.61c1.45,1.66,2.95,3.37,4.84,4.19-.79-1.13-2.23-2.84-3.2-4a29.23,29.23,0,0,1-2.57-3.29c-1.24-2.33-1.52-3.72-.82-4.12s1.57.13,3.61,1.84l.32.26c.66.48,1.31,1,2,1.51A26.93,26.93,0,0,0,178,217a17.52,17.52,0,0,0,2.3.9,9.63,9.63,0,0,0-1.06-1.22l-.21-.21a41.11,41.11,0,0,0-3.95-3.58c-.87-.72-1.77-1.47-2.63-2.27l-.15-.13c-2.42-2.14-2.89-2.84-2.42-3.56a.86.86,0,0,1,.54-.35c.44-.08.79.08,3.06,1.69l.37.25c2.89,1.72,5.5,3.36,8,5a4.59,4.59,0,0,0,1.35.57,6.53,6.53,0,0,0-1.62-2l-.13-.13a45.12,45.12,0,0,0-4.67-3.88c-.55-.42-1.09-.83-1.62-1.25-2.48-1.93-2.4-2.61-2.37-2.83a.91.91,0,0,1,.48-.66c.48-.24,1-.1,3.09,1.16l.11.07c2.14,1.24,4.34,2.44,6.47,3.59l.36.2a5,5,0,0,0,1,.47,4.13,4.13,0,0,0-1.54-1.57,31.63,31.63,0,0,1-3.25-2.6,23,23,0,0,0-4.3-3.18,15.4,15.4,0,0,0-5.41-1.3,19.61,19.61,0,0,1-5.16-1.11c-4.92-2-20.2-17.51-23-21.79a2.54,2.54,0,0,1-.34-1.6.78.78,0,1,1,1.56.11,1.05,1.05,0,0,0,.09.63c2.57,3.94,17.62,19.28,22.29,21.21a18.22,18.22,0,0,0,4.75,1,16.89,16.89,0,0,1,5.94,1.47,24.07,24.07,0,0,1,4.6,3.39,31.33,31.33,0,0,0,3.1,2.47c.76.51,2.51,1.86,2.24,3.33a1.38,1.38,0,0,1-.74,1,3.06,3.06,0,0,1-2.6-.58l-.34-.18L179,207.8a39.22,39.22,0,0,1,3.59,3.07l.12.12c.88.86,2.95,2.89,1.71,4.27-1,1.16-3.38-.39-3.41-.41-1.54-1-3.13-2-4.8-3.07a43.93,43.93,0,0,1,4,3.65l.17.17c.8.81,2.28,2.31,1.47,3.52-.44.66-1.31.76-4.43-.65a28.16,28.16,0,0,1-5.76-3.83c-.64-.5-1.28-1-1.92-1.48l-.39-.32c-.33-.28-.62-.51-.86-.7.2.48.39.91.46,1.05a33.38,33.38,0,0,0,2.39,3c3.67,4.39,4.52,5.61,4,6.48A1,1,0,0,1,174.46,223.15Z"/><path class="cls-6" d="M142.72,176.77a.75.75,0,0,1-.51-.2h0c-3.08-2.68-6.52-5.08-10.82-4.61a15.25,15.25,0,0,0-2.39.91c-2.91,1.26-4.89,2-6,1.15a1.74,1.74,0,0,1-.46-1.87c.64-2.87,2.34-4.33,4.14-5.87.58-.5,1.18-1,1.75-1.58A5.94,5.94,0,0,0,129,164a3.58,3.58,0,0,1,2.44-1.7c4.88-.55,12.85,4.38,15.47,7.88,1.26,1.68-1.29,4.36-2.45,5.43C143.8,176.29,143.22,176.77,142.72,176.77Zm.51-1.38h0Zm0,0Zm-10.73-5.06c4.09,0,7.37,2.19,10.32,4.7.82-.65,2.6-2.43,2.87-3.57a.52.52,0,0,0,0-.31c-2.56-3.41-10.11-7.69-14.05-7.26-.54.06-.87.45-1.36,1.09a8,8,0,0,1-.69.83c-.62.61-1.24,1.14-1.84,1.66-1.67,1.43-3.11,2.66-3.63,5a.9.9,0,0,0,0,.38c.5.21,3.06-.9,4.28-1.44a12.82,12.82,0,0,1,2.84-1C131.65,170.36,132.08,170.33,132.5,170.33Z"/><path class="cls-6" d="M146.69,171.21a.77.77,0,0,1-.65-.35.79.79,0,0,1,.22-1.09c3-2,5.89-5.13,8.72-8.17,1.21-1.31,2.36-2.55,3.52-3.71a27.2,27.2,0,0,1,7.58-4.88,32.45,32.45,0,0,0,3.58-1.94.79.79,0,0,1,1.09.22.78.78,0,0,1-.22,1.08,34.34,34.34,0,0,1-3.76,2,25.87,25.87,0,0,0-7.16,4.58c-1.14,1.14-2.28,2.36-3.48,3.66-2.89,3.12-5.88,6.34-9,8.42A.8.8,0,0,1,146.69,171.21Z"/><path class="cls-6" d="M131.81,163.13a.91.91,0,0,1-.23,0,.77.77,0,0,1-.52-1c1.26-4.22,5.57-7.39,9.38-10.19a50.41,50.41,0,0,0,4.46-3.53c2.28-2.14,4.54-4.51,6.73-6.79,6.15-6.44,12.52-13.09,20.88-16.58,1.08-.45,4.42-.84,9.38-1.39,2.75-.3,5.6-.62,7.19-.91a.79.79,0,0,1,.91.63.77.77,0,0,1-.63.91c-1.65.3-4.39.61-7.3.93-3.75.41-8,.88-8.95,1.28-8.06,3.36-14.31,9.89-20.35,16.21-2.2,2.3-4.48,4.68-6.79,6.85a52.08,52.08,0,0,1-4.6,3.65c-3.79,2.78-7.7,5.66-8.81,9.38A.78.78,0,0,1,131.81,163.13Z"/><path class="cls-6" d="M250.27,200.16a8.76,8.76,0,0,1-2.53-.48c-3.47-1.63-4.72-2.59-5.1-6.93-.57-6.7,3.81-13.14,6.48-16.38l.45-.59c1.46-1.95,3-3.83,4.65-3.55s3.41,2.33,3.91,4.07a.78.78,0,1,1-1.5.43c-.38-1.31-1.73-2.8-2.67-3s-2.57,2.19-3.14,2.95l-.49.64c-2,2.46-6.67,8.88-6.13,15.25.31,3.53,1,4.13,4.21,5.66a6.71,6.71,0,0,0,1.63.31,10.29,10.29,0,0,1-1.53-5c.11-6.89,4.84-16.14,8.3-16.24a.77.77,0,0,1,.81.76.78.78,0,0,1-.76.8c-2.17.06-6.68,8.17-6.78,14.7a9.51,9.51,0,0,0,1.57,4.61c.3.51.54.91.2,1.36A1.91,1.91,0,0,1,250.27,200.16Z"/><path class="cls-18" d="M129.39,121.73a1.38,1.38,0,0,1,.7.45,1,1,0,0,1,.21.62,1,1,0,0,1-.26.6,1.32,1.32,0,0,1-.73.39l-3.83.06q-1.91,0-3.81.06a1.1,1.1,0,0,1-1.08-1.08c0-2.2,0-4.4,0-6.58s0-4.4,0-6.62a1.29,1.29,0,0,1,.39-.72,1,1,0,0,1,.6-.27,1,1,0,0,1,.62.22,1.34,1.34,0,0,1,.45.7q0,3.1,0,6.15t0,6.15c1.12,0,2.24-.06,3.35-.07S128.25,121.77,129.39,121.73Z"/><path class="cls-18" d="M134.72,122.91a1.19,1.19,0,0,1-.34.86,1,1,0,0,1-.69.29,1,1,0,0,1-.65-.26,1.29,1.29,0,0,1-.37-.82c0-1.57,0-3.17,0-4.8s0-3.25,0-4.81a1.49,1.49,0,0,1,.4-.76,1,1,0,0,1,.63-.25,1,1,0,0,1,.61.23,1.31,1.31,0,0,1,.42.7c0,1.57,0,3.17,0,4.81S134.7,121.34,134.72,122.91Zm-2.3-13.63a1.34,1.34,0,0,1,.35-.94,1.09,1.09,0,0,1,.85-.39,1.14,1.14,0,0,1,.86.39,1.36,1.36,0,0,1,.37.94,1.33,1.33,0,0,1-.37.92,1.14,1.14,0,0,1-.86.39,1.09,1.09,0,0,1-.85-.39A1.31,1.31,0,0,1,132.42,109.28Z"/><path class="cls-18" d="M144.52,113.22a1.22,1.22,0,0,1,.58-.57,1,1,0,0,1,.65-.05.94.94,0,0,1,.53.4,1.24,1.24,0,0,1,.19.79c-.24.9-.51,1.78-.82,2.64s-.61,1.73-.91,2.6-.56,1.59-.84,2.36-.58,1.55-.91,2.32a1.08,1.08,0,0,1-1,.48,1.13,1.13,0,0,1-.86-.7q-.9-2.38-1.84-4.71t-2.09-4.59a1.12,1.12,0,0,1-.12-.89,1,1,0,0,1,1.14-.69,1.18,1.18,0,0,1,.73.53c.59,1.17,1.14,2.35,1.66,3.56s1,2.42,1.5,3.65c.12-.31.23-.63.34-.95s.22-.63.34-1l.9-2.59C144,115,144.26,114.12,144.52,113.22Z"/><path class="cls-18" d="M156.86,120.78a1.27,1.27,0,0,1,.91,0,1,1,0,0,1,.58,1.2,1.17,1.17,0,0,1-.58.68,17.34,17.34,0,0,1-1.78.88,8.6,8.6,0,0,1-1.93.55,6,6,0,0,1-1.93,0,4.47,4.47,0,0,1-1.83-.76,4.52,4.52,0,0,1-1.6-2,6.49,6.49,0,0,1-.09-5.16,4.38,4.38,0,0,1,1.62-2,8.64,8.64,0,0,1,2.5-1.16,5.49,5.49,0,0,1,2.73-.09,2.7,2.7,0,0,1,1.23.64,3.91,3.91,0,0,1,.89,1.13,3.16,3.16,0,0,1,.36,1.35,2.39,2.39,0,0,1-.35,1.34,3.52,3.52,0,0,1-1.23,1.19,9.29,9.29,0,0,1-1.74.82,16.2,16.2,0,0,1-1.88.57l-1.64.42a1.39,1.39,0,0,1-.57,0,3.27,3.27,0,0,0,1.11,1.31,2.76,2.76,0,0,0,1.84.44,4.41,4.41,0,0,0,1.77-.49C155.84,121.35,156.38,121.06,156.86,120.78ZM152,115.44a3.14,3.14,0,0,0-1.38,1.34,3.92,3.92,0,0,0-.45,1.82,1.72,1.72,0,0,1,.38-.2l.91-.26.94-.27.81-.22c.35-.1.7-.22,1.07-.35a6.17,6.17,0,0,0,1-.47,1.4,1.4,0,0,0,.6-.58,1.17,1.17,0,0,0-.4-1.13,1.9,1.9,0,0,0-1.08-.3,4.4,4.4,0,0,0-1.3.21A9.1,9.1,0,0,0,152,115.44Z"/><path class="cls-6" d="M107.81,112.26a4.44,4.44,0,1,1,4.45-4.44A4.45,4.45,0,0,1,107.81,112.26Zm0-7.31a2.88,2.88,0,1,0,2.88,2.87A2.88,2.88,0,0,0,107.81,105Z"/><path class="cls-6" d="M280.22,180.22c-3.55,0-7.11-.24-10.58-.47-4.07-.28-8.28-.56-12.39-.44a.79.79,0,0,1-.8-.77.77.77,0,0,1,.76-.8c4.17-.12,8.43.17,12.54.44a103.31,103.31,0,0,0,15.64.27l.45,0c3.6-.3,8.08-.67,11.38-2.1.77-.32,1.4-.66,2-1a9.13,9.13,0,0,1,6-1.41c1,.1,2,.25,3.07.4a24.69,24.69,0,0,0,7.71.37l.17,0c1.92-.35,3.79-.51,4.42.68a2,2,0,0,1,.1,1.95c-.74,1.45-3.23,1.89-5.93,2.25l-.63.09a.78.78,0,0,1-.23-1.55l.65-.09c1.29-.17,4.31-.58,4.74-1.41,0-.05.09-.18-.08-.5-.07-.05-.54-.28-2.76.12l-.18,0a26.18,26.18,0,0,1-8.21-.37c-1-.15-2-.3-3-.39a7.68,7.68,0,0,0-5.15,1.23c-.61.32-1.3.69-2.12,1-3.54,1.53-8.16,1.91-11.87,2.22l-.45,0C283.76,180.16,282,180.22,280.22,180.22Z"/><path class="cls-6" d="M315.88,179.79a18.05,18.05,0,0,1-5.61-.8.79.79,0,0,1-.5-1,.78.78,0,0,1,1-.49,21.1,21.1,0,0,0,13.09-.77l1-.47c2.34-1.07,5.56-2.53,8.05-1.54a.79.79,0,1,1-.58,1.46c-1.88-.75-4.74.55-6.82,1.5l-1.08.49A22.58,22.58,0,0,1,315.88,179.79Z"/><path class="cls-6" d="M317.18,181h-.26a.78.78,0,0,1-.76-.81.77.77,0,0,1,.8-.76,10.89,10.89,0,0,0,3.23-.47l.22-.06a28.13,28.13,0,0,0,3-.92c.29-.1.59-.22.88-.34l.8-.31.48-.2c2.93-1.26,6.13-2.42,7.65-1.51a1.77,1.77,0,0,1,.85,1.4.79.79,0,0,1-.72.85.78.78,0,0,1-.84-.71c0-.15-.06-.17-.1-.2-.38-.23-1.71-.33-6.22,1.61l-.56.23-.76.3-.93.36a29.44,29.44,0,0,1-3.15,1l-.22.06A12.61,12.61,0,0,1,317.18,181Z"/><path class="cls-6" d="M318.12,182.81a.78.78,0,0,1-.11-1.56,28.78,28.78,0,0,0,6.93-2.3,46.5,46.5,0,0,1,4.67-1.79l.23-.08c1.14-.38,3.51-1.17,4.2.43s-1.43,2.74-3.09,3.72a9,9,0,0,0-1.14.73.81.81,0,0,1-1.11.06.78.78,0,0,1-.09-1.08,6.8,6.8,0,0,1,1.54-1.06c.7-.41,2.34-1.38,2.44-1.83a8,8,0,0,0-2.25.52l-.28.09a44.44,44.44,0,0,0-4.5,1.73,30.24,30.24,0,0,1-7.32,2.41Z"/><path class="cls-6" d="M252.2,196.28a11.17,11.17,0,0,1-1.87-.13.78.78,0,0,1,.26-1.54c4.55.76,19.72-2.58,31.9-5.27,8.67-1.91,16.15-3.56,19.29-3.7a21.51,21.51,0,0,1,5.22.64,15.49,15.49,0,0,0,5.37.52,41.3,41.3,0,0,0,11.92-3.56c.09,0,.26-.12.5-.21a8.63,8.63,0,0,0,2.51-1.3,4,4,0,0,0-1.49.34,20.77,20.77,0,0,1-8.33,1.92.78.78,0,0,1-.76-.81.76.76,0,0,1,.8-.76,19,19,0,0,0,7.69-1.79c.66-.27,2.85-1,3.61.39a1.3,1.3,0,0,1,.07,1.09c-.37,1-2,1.77-3.52,2.37l-.37.16a42.51,42.51,0,0,1-12.4,3.71,17.13,17.13,0,0,1-5.92-.53,19.5,19.5,0,0,0-4.83-.61c-3,.13-10.78,1.85-19,3.66C271.25,193.42,258.29,196.28,252.2,196.28Z"/><path class="cls-6" d="M310.92,182.59a.85.85,0,0,1-.43-.12c-2.69-1.76-7.08-3.27-10.6-1.76a.78.78,0,1,1-.62-1.44c4.09-1.75,9.06-.08,12.08,1.88a.8.8,0,0,1,.23,1.09A.78.78,0,0,1,310.92,182.59Z"/><path class="cls-6" d="M380.13,375a.78.78,0,0,1-.79-.78l-.25-285.09a.77.77,0,0,1,.78-.78h0a.78.78,0,0,1,.78.78l.26,285.09a.78.78,0,0,1-.78.78Z"/><path class="cls-6" d="M414.61,149a20.59,20.59,0,1,1,20.7-20.59A20.67,20.67,0,0,1,414.61,149Zm0-39.61a19,19,0,1,0,19.13,19A19.09,19.09,0,0,0,414.61,109.4Z"/><path class="cls-6" d="M414.2,132.1a9.58,9.58,0,1,1,9.82-9.58A9.71,9.71,0,0,1,414.2,132.1Zm0-17.6a8,8,0,1,0,8.25,8A8.15,8.15,0,0,0,414.2,114.5Z"/><path class="cls-6" d="M401.21,142.79a.89.89,0,0,1-.35-.08.79.79,0,0,1-.35-1.05c3.62-7.35,5.49-8.2,6.58-8.2h15.64c1,0,2.91.74,7,7.17a.79.79,0,0,1-.24,1.08.77.77,0,0,1-1.08-.24c-3.9-6.13-5.41-6.45-5.67-6.45H407.09c-.16,0-1.66.21-5.18,7.33A.77.77,0,0,1,401.21,142.79Z"/><path class="cls-6" d="M414.61,201.23a20.59,20.59,0,1,1,20.7-20.59A20.67,20.67,0,0,1,414.61,201.23Zm0-39.61a19,19,0,1,0,19.13,19A19.09,19.09,0,0,0,414.61,161.62Z"/><path class="cls-6" d="M414.2,184.32a9.58,9.58,0,1,1,9.82-9.58A9.71,9.71,0,0,1,414.2,184.32Zm0-17.6a8,8,0,1,0,8.25,8A8.15,8.15,0,0,0,414.2,166.72Z"/><path class="cls-6" d="M401.21,195a.89.89,0,0,1-.35-.08.8.8,0,0,1-.35-1.05c3.62-7.35,5.49-8.2,6.58-8.2h15.64c1,0,2.91.74,7,7.17a.78.78,0,1,1-1.32.84c-3.9-6.14-5.41-6.45-5.67-6.45H407.09c-.16,0-1.66.21-5.18,7.33A.77.77,0,0,1,401.21,195Z"/><path class="cls-6" d="M414.61,267.81a20.59,20.59,0,1,1,20.7-20.59A20.67,20.67,0,0,1,414.61,267.81Zm0-39.61a19,19,0,1,0,19.13,19A19.09,19.09,0,0,0,414.61,228.2Z"/><path class="cls-6" d="M414.2,250.9a9.59,9.59,0,1,1,9.82-9.58A9.71,9.71,0,0,1,414.2,250.9Zm0-17.6a8,8,0,1,0,8.25,8A8.15,8.15,0,0,0,414.2,233.3Z"/><path class="cls-6" d="M401.21,261.59a.76.76,0,0,1-.35-.09.79.79,0,0,1-.35-1.05c3.62-7.35,5.49-8.2,6.58-8.2h15.64c1,0,2.91.75,7,7.18a.78.78,0,0,1-1.32.84c-3.9-6.14-5.41-6.45-5.67-6.45H407.09c-.16,0-1.66.21-5.18,7.33A.79.79,0,0,1,401.21,261.59Z"/><path class="cls-6" d="M414.61,320a20.59,20.59,0,1,1,20.7-20.59A20.67,20.67,0,0,1,414.61,320Zm0-39.62a19,19,0,1,0,19.13,19A19.1,19.1,0,0,0,414.61,280.41Z"/><path class="cls-6" d="M414.2,303.12a9.59,9.59,0,1,1,9.82-9.59A9.71,9.71,0,0,1,414.2,303.12Zm0-17.6a8,8,0,1,0,8.25,8A8.14,8.14,0,0,0,414.2,285.52Z"/><path class="cls-6" d="M401.21,313.8a.74.74,0,0,1-.35-.08.79.79,0,0,1-.35-1.05c3.62-7.35,5.49-8.2,6.58-8.2h15.64c1,0,2.91.75,7,7.18a.78.78,0,1,1-1.32.84c-3.9-6.14-5.41-6.45-5.67-6.45H407.09c-.16,0-1.66.21-5.18,7.33A.78.78,0,0,1,401.21,313.8Z"/><path class="cls-6" d="M414.61,372.24a20.59,20.59,0,1,1,20.7-20.58A20.66,20.66,0,0,1,414.61,372.24Zm0-39.61a19,19,0,1,0,19.13,19A19.1,19.1,0,0,0,414.61,332.63Z"/><path class="cls-6" d="M414.2,355.33a9.58,9.58,0,1,1,9.82-9.58A9.7,9.7,0,0,1,414.2,355.33Zm0-17.59a8,8,0,1,0,8.25,8A8.14,8.14,0,0,0,414.2,337.74Z"/><path class="cls-6" d="M401.21,366a.74.74,0,0,1-.35-.08.79.79,0,0,1-.35-1.05c3.62-7.35,5.49-8.2,6.58-8.2h15.64c1,0,2.91.74,7,7.17a.8.8,0,0,1-.24,1.09.78.78,0,0,1-1.08-.25c-3.9-6.13-5.41-6.44-5.67-6.44H407.09c-.16,0-1.66.2-5.18,7.32A.77.77,0,0,1,401.21,366Z"/><path class="cls-6" d="M491.4,116.27H442.16a2.8,2.8,0,1,1,0-5.59H491.4a2.8,2.8,0,0,1,0,5.59Zm-49.24-4a1.23,1.23,0,1,0,0,2.45H491.4a1.23,1.23,0,1,0,0-2.45Z"/><path class="cls-6" d="M474.69,171.1H441.5c-1.2,0-2.14-1.23-2.14-2.8s.94-2.79,2.14-2.79h33.19c1.2,0,2.14,1.23,2.14,2.79S475.89,171.1,474.69,171.1Zm-33.19-4c-.2,0-.57.46-.57,1.22s.37,1.23.57,1.23h33.19c.2,0,.57-.47.57-1.23s-.37-1.22-.57-1.22Z"/><path class="cls-6" d="M456.28,236.37h-15.5c-1.31,0-1.42-2.14-1.42-2.79s.11-2.8,1.42-2.8h15.5c1.32,0,1.42,2.14,1.42,2.8S457.6,236.37,456.28,236.37Zm-15.19-1.57H456a4.77,4.77,0,0,0,0-2.45H441.09a4.77,4.77,0,0,0,0,2.45Zm15.19-2.45h0Z"/><path class="cls-6" d="M474.69,242.89H441.5c-1.2,0-2.14-1.22-2.14-2.79s.94-2.79,2.14-2.79h33.19c1.2,0,2.14,1.23,2.14,2.79S475.89,242.89,474.69,242.89Zm-33.19-4c-.2,0-.57.46-.57,1.22s.37,1.23.57,1.23h33.19c.2,0,.57-.47.57-1.23s-.37-1.22-.57-1.22Z"/><path class="cls-6" d="M474.69,291.2H441.5c-1.2,0-2.14-1.23-2.14-2.8s.94-2.79,2.14-2.79h33.19c1.2,0,2.14,1.23,2.14,2.79S475.89,291.2,474.69,291.2Zm-33.19-4c-.2,0-.57.46-.57,1.22s.37,1.23.57,1.23h33.19c.2,0,.57-.46.57-1.23s-.37-1.22-.57-1.22Z"/><path class="cls-6" d="M461.71,343.41H441c-1,0-1.63-1.14-1.63-2.79s.67-2.79,1.63-2.79h20.72c1,0,1.63,1.15,1.63,2.79S462.67,343.41,461.71,343.41Zm-20.54-1.56h20.37a2.77,2.77,0,0,0,.24-1.23,2.67,2.67,0,0,0-.24-1.22H441.17a2.54,2.54,0,0,0-.24,1.22A2.63,2.63,0,0,0,441.17,341.85Zm20.54-2.45h0Z"/><path class="cls-6" d="M520,129.32H443.28c-2.2,0-3.92-1.23-3.92-2.79s1.72-2.8,3.92-2.8H520c2.19,0,3.91,1.23,3.91,2.8S522.23,129.32,520,129.32Zm-76.76-4c-1.34,0-2.35.65-2.35,1.23s1,1.22,2.35,1.22H520c1.34,0,2.35-.64,2.35-1.22s-1-1.23-2.35-1.23Z"/><path class="cls-6" d="M499.31,137.15H442.47a2.81,2.81,0,1,1,0-5.58h56.84a2.81,2.81,0,1,1,0,5.58Zm-56.84-4a1.26,1.26,0,1,0,0,2.46h56.84a1.26,1.26,0,1,0,0-2.46Z"/><path class="cls-6" d="M520,180.23H443.28c-2.2,0-3.92-1.22-3.92-2.79s1.72-2.79,3.92-2.79H520c2.19,0,3.91,1.22,3.91,2.79S522.23,180.23,520,180.23Zm-76.76-4c-1.34,0-2.35.65-2.35,1.23s1,1.23,2.35,1.23H520c1.34,0,2.35-.65,2.35-1.23s-1-1.23-2.35-1.23Z"/><path class="cls-6" d="M520,188.07H443.28c-2.2,0-3.92-1.23-3.92-2.8s1.72-2.79,3.92-2.79H520c2.19,0,3.91,1.23,3.91,2.79S522.23,188.07,520,188.07Zm-76.76-4c-1.34,0-2.35.64-2.35,1.22s1,1.23,2.35,1.23H520c1.34,0,2.35-.65,2.35-1.23s-1-1.22-2.35-1.22Z"/><path class="cls-6" d="M497.89,195.9H442.41a2.81,2.81,0,1,1,0-5.59h55.48a2.81,2.81,0,1,1,0,5.59Zm-55.48-4a1.25,1.25,0,1,0,0,2.45h55.48a1.25,1.25,0,1,0,0-2.45Z"/><path class="cls-6" d="M533.79,177.94a.79.79,0,0,1-.56-.23.77.77,0,0,1-.11-1l7.4-11.9h-5.1a5.62,5.62,0,0,1-5.62-5.62v-36.6a5.62,5.62,0,0,1,5.62-5.62h52.31a5.62,5.62,0,0,1,5.62,5.62v36.6a5.62,5.62,0,0,1-5.62,5.62H556.4l-22.22,13A.78.78,0,0,1,533.79,177.94Zm1.63-59.36a4.05,4.05,0,0,0-4,4v36.6a4,4,0,0,0,4,4.05h6.51a.8.8,0,0,1,.69.4.79.79,0,0,1,0,.8l-6.48,10.41,19.68-11.5a.77.77,0,0,1,.39-.11h31.54a4,4,0,0,0,4-4.05v-36.6a4.05,4.05,0,0,0-4-4Z"/><path class="cls-6" d="M561.12,157.8a16.29,16.29,0,1,1,16.2-16.28A16.26,16.26,0,0,1,561.12,157.8Zm0-31a14.72,14.72,0,1,0,14.63,14.72A14.69,14.69,0,0,0,561.12,126.8Z"/><path class="cls-19" d="M556.81,145.94l9.7-.1s.31,5.27-4.75,5.37S556.81,145.94,556.81,145.94Z"/><path class="cls-6" d="M561.62,152a5.22,5.22,0,0,1-3.85-1.46,6.9,6.9,0,0,1-1.74-4.6.79.79,0,0,1,.77-.77l9.7-.1h0a.77.77,0,0,1,.78.74,6.73,6.73,0,0,1-1.53,4.57,5.31,5.31,0,0,1-4,1.62Zm-4-5.27a4.81,4.81,0,0,0,1.22,2.71,3.74,3.74,0,0,0,2.87,1,3.85,3.85,0,0,0,2.86-1.13,4.76,4.76,0,0,0,1.08-2.67Z"/><path class="cls-5" d="M535.42,117.8h52.31a4.84,4.84,0,0,1,4.84,4.83v36.6a4.84,4.84,0,0,1-4.84,4.84H556.19l-22.4,13.09,8.14-13.09h-6.51a4.84,4.84,0,0,1-4.84-4.84v-36.6A4.84,4.84,0,0,1,535.42,117.8Z"/><path class="cls-6" d="M533.79,177.94a.79.79,0,0,1-.56-.23.77.77,0,0,1-.11-1l7.4-11.9h-5.1a5.62,5.62,0,0,1-5.62-5.62v-36.6a5.62,5.62,0,0,1,5.62-5.62h52.31a5.62,5.62,0,0,1,5.62,5.62v36.6a5.62,5.62,0,0,1-5.62,5.62H556.4l-22.22,13A.78.78,0,0,1,533.79,177.94Zm1.63-59.36a4.05,4.05,0,0,0-4,4v36.6a4,4,0,0,0,4,4.05h6.51a.8.8,0,0,1,.69.4.79.79,0,0,1,0,.8l-6.48,10.41,19.68-11.5a.77.77,0,0,1,.39-.11h31.54a4,4,0,0,0,4-4.05v-36.6a4.05,4.05,0,0,0-4-4Z"/><path class="cls-20" d="M545.72,141.52a15.41,15.41,0,1,1,15.4,15.5A15.45,15.45,0,0,1,545.72,141.52Z"/><path class="cls-6" d="M561.12,157.8a16.29,16.29,0,1,1,16.2-16.28A16.26,16.26,0,0,1,561.12,157.8Zm0-31a14.72,14.72,0,1,0,14.63,14.72A14.69,14.69,0,0,0,561.12,126.8Z"/><path class="cls-18" d="M554.47,138.5c0-2.22.64-4,1.43-4s1.42,1.81,1.42,4-.64,4-1.42,4S554.47,140.73,554.47,138.5Z"/><path class="cls-18" d="M565.62,138.81c0-2.23.64-4,1.42-4s1.42,1.8,1.42,4-.63,4-1.42,4S565.62,141,565.62,138.81Z"/><path class="cls-19" d="M556.81,145.94l9.7-.1s.31,5.27-4.75,5.37S556.81,145.94,556.81,145.94Z"/><path class="cls-6" d="M561.62,152a5.22,5.22,0,0,1-3.85-1.46,6.9,6.9,0,0,1-1.74-4.6.79.79,0,0,1,.77-.77l9.7-.1h0a.77.77,0,0,1,.78.74,6.73,6.73,0,0,1-1.53,4.57,5.31,5.31,0,0,1-4,1.62Zm-4-5.27a4.81,4.81,0,0,0,1.22,2.71,3.74,3.74,0,0,0,2.87,1,3.85,3.85,0,0,0,2.86-1.13,4.76,4.76,0,0,0,1.08-2.67Z"/><path class="cls-6" d="M466.9,264a.82.82,0,0,1-.56-.23.79.79,0,0,1-.1-1l2.93-4.72h-1.53a3,3,0,0,1-3-3V238.65a3,3,0,0,1,3-3h23.61a3,3,0,0,1,3,3v16.52a3,3,0,0,1-3,3h-14l-9.93,5.81A.79.79,0,0,1,466.9,264Zm.74-26.78a1.4,1.4,0,0,0-1.4,1.39v16.52a1.4,1.4,0,0,0,1.4,1.4h2.94a.78.78,0,0,1,.69.4.8.8,0,0,1,0,.79l-2,3.23,7.38-4.32a.79.79,0,0,1,.4-.1h14.23a1.4,1.4,0,0,0,1.4-1.4V238.65a1.4,1.4,0,0,0-1.4-1.39Z"/><path class="cls-21" d="M472.8,244.47h1.07a1.71,1.71,0,0,1,1.7,1.71v6.67a1.7,1.7,0,0,1-1.7,1.7H472.8a1.7,1.7,0,0,1-1.71-1.7v-6.67A1.71,1.71,0,0,1,472.8,244.47Z"/><path class="cls-6" d="M473.87,255.33h-1.08a2.48,2.48,0,0,1-2.48-2.48v-6.67a2.49,2.49,0,0,1,2.48-2.49h1.08a2.5,2.5,0,0,1,2.49,2.49v6.67A2.49,2.49,0,0,1,473.87,255.33Zm-1.08-10.08a.93.93,0,0,0-.92.93v6.67a.93.93,0,0,0,.92.92h1.08a.92.92,0,0,0,.92-.92v-6.67a.93.93,0,0,0-.92-.93Z"/><path class="cls-5" d="M467.64,236.47h23.61a2.19,2.19,0,0,1,2.18,2.18v16.52a2.18,2.18,0,0,1-2.18,2.18H477l-10.12,5.91,3.68-5.91h-2.94a2.18,2.18,0,0,1-2.18-2.18V238.65A2.19,2.19,0,0,1,467.64,236.47Z"/><path class="cls-6" d="M466.9,264a.82.82,0,0,1-.56-.23.79.79,0,0,1-.1-1l2.93-4.72h-1.53a3,3,0,0,1-3-3V238.65a3,3,0,0,1,3-3h23.61a3,3,0,0,1,3,3v16.52a3,3,0,0,1-3,3h-14l-9.93,5.81A.79.79,0,0,1,466.9,264Zm.74-26.78a1.4,1.4,0,0,0-1.4,1.39v16.52a1.4,1.4,0,0,0,1.4,1.4h2.94a.78.78,0,0,1,.69.4.8.8,0,0,1,0,.79l-2,3.23,7.38-4.32a.79.79,0,0,1,.4-.1h14.23a1.4,1.4,0,0,0,1.4-1.4V238.65a1.4,1.4,0,0,0-1.4-1.39Z"/><path class="cls-22" d="M472.8,244.47h1.07a1.71,1.71,0,0,1,1.7,1.71v6.67a1.7,1.7,0,0,1-1.7,1.7H472.8a1.7,1.7,0,0,1-1.71-1.7v-6.67A1.71,1.71,0,0,1,472.8,244.47Z"/><path class="cls-6" d="M473.87,255.33h-1.08a2.48,2.48,0,0,1-2.48-2.48v-6.67a2.49,2.49,0,0,1,2.48-2.49h1.08a2.5,2.5,0,0,1,2.49,2.49v6.67A2.49,2.49,0,0,1,473.87,255.33Zm-1.08-10.08a.93.93,0,0,0-.92.93v6.67a.93.93,0,0,0,.92.92h1.08a.92.92,0,0,0,.92-.92v-6.67a.93.93,0,0,0-.92-.93Z"/><path class="cls-6" d="M479.06,251.85a.78.78,0,0,1-.31-1.5c2.34-1,2.38-2,2.48-4.35,0-.3,0-.62,0-.94a7.68,7.68,0,0,1,.38-1.85,6.54,6.54,0,0,0,.32-1.42,4.59,4.59,0,0,0-.82-2.78.29.29,0,0,0-.27-.1,3.75,3.75,0,0,0-.29,1.45,5.87,5.87,0,0,1-.17,1.12c-.56,1.84-2,4.3-4.27,5.2a.78.78,0,1,1-.58-1.45,6.78,6.78,0,0,0,3.36-4.21,7.21,7.21,0,0,0,.1-.79c.08-1,.21-2.64,1.59-2.87a1.87,1.87,0,0,1,1.59.49,6,6,0,0,1,1.32,4.05,8.33,8.33,0,0,1-.37,1.76,6.35,6.35,0,0,0-.33,1.49c0,.32,0,.62,0,.91-.1,2.35-.19,4.38-3.44,5.73A.8.8,0,0,1,479.06,251.85Z"/><path class="cls-6" d="M480.26,256a8.6,8.6,0,0,1-3.52-.59,3.11,3.11,0,0,1-.87-.9,3.08,3.08,0,0,0-.42-.51.72.72,0,0,1-.72-.77.83.83,0,0,1,.84-.77c.75,0,1.2.63,1.57,1.13a3.56,3.56,0,0,0,.38.46,9.29,9.29,0,0,0,4.29.23.78.78,0,1,1,.49,1.49A7.34,7.34,0,0,1,480.26,256Z"/><path class="cls-6" d="M484,248.54a3.09,3.09,0,0,1-1.61-.36,1.57,1.57,0,0,1-.92-1.81,2.66,2.66,0,0,1,1.47-1.48h-.4a.78.78,0,1,1,0-1.56,7.94,7.94,0,0,1,4.72,1.33,1.91,1.91,0,0,1,.81,2,2.73,2.73,0,0,1-2.26,1.68A12.61,12.61,0,0,1,484,248.54Zm-1-1.82.18.12a5.2,5.2,0,0,0,2.32,0,1.42,1.42,0,0,0,1-.56s-.05-.2-.3-.41a3.31,3.31,0,0,0-.59-.37.79.79,0,0,1-.69.41A3.68,3.68,0,0,0,483.06,246.72Z"/><path class="cls-6" d="M484.05,251.15a9.68,9.68,0,0,1-1.65-.13,1.48,1.48,0,0,1-1.33-1.21,1.79,1.79,0,0,1,1.08-1.78,3.66,3.66,0,0,1,.58-.22c.13-.05.26-.09.38-.15a.78.78,0,1,1,.71,1.4,3.28,3.28,0,0,1-.59.23l-.38.14-.1.06a6.59,6.59,0,0,0,3.48-.29.11.11,0,0,0,.07-.12.77.77,0,0,0-.33-.56.77.77,0,0,1-.29-1.07.79.79,0,0,1,1.07-.29,2.33,2.33,0,0,1,1.11,1.92,1.65,1.65,0,0,1-.86,1.48A6.21,6.21,0,0,1,484.05,251.15Z"/><path class="cls-6" d="M484.63,253.76a9.44,9.44,0,0,1-2.66-.39c-1-.31-1.08-1-1.07-1.25,0-1,1.37-1.65,1.86-1.77a.79.79,0,0,1,.95.57.77.77,0,0,1-.57.94l-.27.12a6.69,6.69,0,0,0,3.11,0s.09-.14.09-.25a.78.78,0,0,0-.22-.63.8.8,0,0,1-.47-1,.77.77,0,0,1,1-.48,2.15,2.15,0,0,1,1.29,2.11,1.77,1.77,0,0,1-1.21,1.75A6.17,6.17,0,0,1,484.63,253.76Z"/><path class="cls-6" d="M484,256.29a4.25,4.25,0,0,1-2.09-.51,2.08,2.08,0,0,1-1-2.1,1.33,1.33,0,0,1,1.42-1,.78.78,0,0,1,.21,1.54.79.79,0,0,0,.15.16,2.63,2.63,0,0,0,2.55-.06c.18-.19,0-.56-.19-.83a.79.79,0,1,1,1.31-.87,2.08,2.08,0,0,1,0,2.77A3.28,3.28,0,0,1,484,256.29Z"/><path class="cls-6" d="M503.16,247.28a.77.77,0,0,1-.56-.24.78.78,0,0,1-.1-1l3.95-6.36H504.1a3.58,3.58,0,0,1-3.57-3.57V215a3.59,3.59,0,0,1,3.57-3.57h30.19a3.58,3.58,0,0,1,3.57,3.57v21.12a3.57,3.57,0,0,1-3.57,3.57h-18l-12.74,7.45A.83.83,0,0,1,503.16,247.28ZM504.1,213a2,2,0,0,0-2,2v21.12a2,2,0,0,0,2,2h3.76a.78.78,0,0,1,.69.4.79.79,0,0,1,0,.8l-3,4.86,10.19-5.95a.8.8,0,0,1,.4-.11h18.2a2,2,0,0,0,2-2V215a2,2,0,0,0-2-2Z"/><path class="cls-21" d="M510.69,222.47h1.38a2.19,2.19,0,0,1,2.18,2.18v8.53a2.19,2.19,0,0,1-2.18,2.18h-1.38a2.19,2.19,0,0,1-2.18-2.18v-8.53A2.19,2.19,0,0,1,510.69,222.47Z"/><path class="cls-6" d="M512.07,236.14h-1.38a3,3,0,0,1-3-3v-8.53a3,3,0,0,1,3-3h1.38a3,3,0,0,1,3,3v8.53A3,3,0,0,1,512.07,236.14Zm-1.38-12.88a1.39,1.39,0,0,0-1.39,1.39v8.53a1.4,1.4,0,0,0,1.39,1.4h1.38a1.4,1.4,0,0,0,1.39-1.4v-8.53a1.39,1.39,0,0,0-1.39-1.39Z"/><path class="cls-5" d="M504.1,212.25h30.19a2.78,2.78,0,0,1,2.79,2.78v21.12a2.79,2.79,0,0,1-2.79,2.79h-18.2l-12.93,7.56,4.7-7.56H504.1a2.78,2.78,0,0,1-2.78-2.79V215A2.77,2.77,0,0,1,504.1,212.25Z"/><path class="cls-6" d="M503.16,247.28a.77.77,0,0,1-.56-.24.78.78,0,0,1-.1-1l3.95-6.36H504.1a3.58,3.58,0,0,1-3.57-3.57V215a3.59,3.59,0,0,1,3.57-3.57h30.19a3.58,3.58,0,0,1,3.57,3.57v21.12a3.57,3.57,0,0,1-3.57,3.57h-18l-12.74,7.45A.83.83,0,0,1,503.16,247.28ZM504.1,213a2,2,0,0,0-2,2v21.12a2,2,0,0,0,2,2h3.76a.78.78,0,0,1,.69.4.79.79,0,0,1,0,.8l-3,4.86,10.19-5.95a.8.8,0,0,1,.4-.11h18.2a2,2,0,0,0,2-2V215a2,2,0,0,0-2-2Z"/><path class="cls-22" d="M510.69,222.47h1.38a2.19,2.19,0,0,1,2.18,2.18v8.53a2.19,2.19,0,0,1-2.18,2.18h-1.38a2.19,2.19,0,0,1-2.18-2.18v-8.53A2.19,2.19,0,0,1,510.69,222.47Z"/><path class="cls-6" d="M512.07,236.14h-1.38a3,3,0,0,1-3-3v-8.53a3,3,0,0,1,3-3h1.38a3,3,0,0,1,3,3v8.53A3,3,0,0,1,512.07,236.14Zm-1.38-12.88a1.39,1.39,0,0,0-1.39,1.39v8.53a1.4,1.4,0,0,0,1.39,1.4h1.38a1.4,1.4,0,0,0,1.39-1.4v-8.53a1.39,1.39,0,0,0-1.39-1.39Z"/><path class="cls-6" d="M518.7,231.69a.77.77,0,0,1-.72-.48.79.79,0,0,1,.42-1c3.11-1.29,3.17-2.78,3.3-5.75q0-.57.06-1.2a9.88,9.88,0,0,1,.48-2.3,8.45,8.45,0,0,0,.42-1.87c.05-.88-.33-3-1.12-3.73a.56.56,0,0,0-.53-.18c-.39.06-.5,1.35-.56,2a6.62,6.62,0,0,1-.2,1.38c-.71,2.31-2.53,5.39-5.33,6.52a.79.79,0,0,1-.59-1.46c2.15-.86,3.77-3.39,4.43-5.52a6.91,6.91,0,0,0,.13-1.05c.11-1.28.27-3.2,1.86-3.47a2.13,2.13,0,0,1,1.84.57c1.29,1.17,1.7,3.87,1.63,5a10.44,10.44,0,0,1-.47,2.21,8.86,8.86,0,0,0-.43,2c0,.4,0,.79-.06,1.16-.12,3-.22,5.46-4.26,7.14A.8.8,0,0,1,518.7,231.69Z"/><path class="cls-6" d="M520.26,237a10.84,10.84,0,0,1-4.41-.72,3.62,3.62,0,0,1-1-1.09,3.32,3.32,0,0,0-.62-.71.76.76,0,0,1-.76-.78.81.81,0,0,1,.82-.78c.84,0,1.38.75,1.82,1.35a3.65,3.65,0,0,0,.55.65,11.79,11.79,0,0,0,5.67.31.79.79,0,0,1,1,.5.78.78,0,0,1-.49,1A9,9,0,0,1,520.26,237Z"/><path class="cls-6" d="M525.07,227.46a3.74,3.74,0,0,1-1.94-.43c-1.24-.74-1.21-1.62-1.09-2.08.27-1,1.47-1.68,2.59-2.09a13.26,13.26,0,0,0-1.43-.08.78.78,0,1,1,0-1.56c1.18,0,4.12.16,5.9,1.65a2.23,2.23,0,0,1,1,2.37,3.29,3.29,0,0,1-2.72,2A15.06,15.06,0,0,1,525.07,227.46Zm-1.52-2.09a1.23,1.23,0,0,0,.39.32c.65.39,2.37.12,3.1,0a1.89,1.89,0,0,0,1.52-.87c.07-.26-.26-.58-.46-.75a4.09,4.09,0,0,0-1-.6.79.79,0,0,1-.76.59c-1,0-2.7.9-2.78,1.31Z"/><path class="cls-6" d="M525.09,230.8a13.31,13.31,0,0,1-2.07-.16,1.69,1.69,0,0,1-1.53-1.37,2.06,2.06,0,0,1,1.27-2.05,5.13,5.13,0,0,1,.72-.28,4.45,4.45,0,0,0,.51-.19.78.78,0,0,1,.7,1.4,5.66,5.66,0,0,1-.72.28,3.84,3.84,0,0,0-.51.19.78.78,0,0,0-.42.41h0a1.73,1.73,0,0,0,.25.06,8.64,8.64,0,0,0,4.69-.38.34.34,0,0,0,.19-.34,1.14,1.14,0,0,0-.53-.9.8.8,0,0,1-.29-1.07.78.78,0,0,1,1.07-.29,2.7,2.7,0,0,1,1.32,2.26,1.91,1.91,0,0,1-1,1.7A7.76,7.76,0,0,1,525.09,230.8Z"/><path class="cls-6" d="M525.82,234.13a11.69,11.69,0,0,1-3.33-.49c-1.12-.35-1.22-1.08-1.22-1.38,0-1.06,1.48-1.88,2.22-2.07a.78.78,0,1,1,.38,1.52,2.56,2.56,0,0,0-.84.46,9.26,9.26,0,0,0,4.59.17c.24-.07.27-.42.27-.57a1.08,1.08,0,0,0-.44-1,.78.78,0,0,1-.49-1,.77.77,0,0,1,1-.5,2.55,2.55,0,0,1,1.5,2.49,2,2,0,0,1-1.38,2A8.11,8.11,0,0,1,525.82,234.13Z"/><path class="cls-6" d="M525.05,237.38a5.35,5.35,0,0,1-2.58-.63,2.45,2.45,0,0,1-1.16-2.45,1.5,1.5,0,0,1,1.61-1.05.79.79,0,0,1,0,1.57h-.07a1.18,1.18,0,0,0,.41.57c1,.6,2.92.53,3.53-.11.1-.1.39-.42-.21-1.33a.78.78,0,1,1,1.3-.87c1.17,1.76.43,2.87,0,3.27A4,4,0,0,1,525.05,237.38Z"/><path class="cls-6" d="M544.32,262.68a.76.76,0,0,1-.56-.24.78.78,0,0,1-.11-1l2.93-4.71h-1.53a3,3,0,0,1-3-3V237.29a3,3,0,0,1,3-3h23.61a3,3,0,0,1,3,3v16.52a3,3,0,0,1-3,3h-14l-9.93,5.8A.7.7,0,0,1,544.32,262.68Zm.73-26.78a1.39,1.39,0,0,0-1.39,1.39v16.52a1.4,1.4,0,0,0,1.39,1.4H548a.78.78,0,0,1,.69.4.77.77,0,0,1,0,.79l-2,3.23,7.38-4.32a.79.79,0,0,1,.4-.1h14.23a1.4,1.4,0,0,0,1.4-1.4V237.29a1.4,1.4,0,0,0-1.4-1.39Z"/><path class="cls-21" d="M550.21,243.11h1.07a1.72,1.72,0,0,1,1.71,1.71v6.66a1.71,1.71,0,0,1-1.71,1.71h-1.07a1.71,1.71,0,0,1-1.71-1.71v-6.66A1.72,1.72,0,0,1,550.21,243.11Z"/><path class="cls-6" d="M551.28,254h-1.07a2.48,2.48,0,0,1-2.49-2.49v-6.66a2.49,2.49,0,0,1,2.49-2.49h1.07a2.5,2.5,0,0,1,2.49,2.49v6.66A2.49,2.49,0,0,1,551.28,254Zm-1.07-10.08a.93.93,0,0,0-.93.93v6.66a.93.93,0,0,0,.93.93h1.07a.93.93,0,0,0,.92-.93v-6.66a.93.93,0,0,0-.92-.93Z"/><path class="cls-5" d="M545.05,235.11h23.61a2.19,2.19,0,0,1,2.18,2.18v16.52a2.19,2.19,0,0,1-2.18,2.18H554.43l-10.11,5.91L548,256h-2.94a2.19,2.19,0,0,1-2.18-2.18V237.29A2.19,2.19,0,0,1,545.05,235.11Z"/><path class="cls-6" d="M544.32,262.68a.76.76,0,0,1-.56-.24.78.78,0,0,1-.11-1l2.93-4.71h-1.53a3,3,0,0,1-3-3V237.29a3,3,0,0,1,3-3h23.61a3,3,0,0,1,3,3v16.52a3,3,0,0,1-3,3h-14l-9.93,5.8A.7.7,0,0,1,544.32,262.68Zm.73-26.78a1.39,1.39,0,0,0-1.39,1.39v16.52a1.4,1.4,0,0,0,1.39,1.4H548a.78.78,0,0,1,.69.4.77.77,0,0,1,0,.79l-2,3.23,7.38-4.32a.79.79,0,0,1,.4-.1h14.23a1.4,1.4,0,0,0,1.4-1.4V237.29a1.4,1.4,0,0,0-1.4-1.39Z"/><path class="cls-22" d="M550.21,243.11h1.07a1.72,1.72,0,0,1,1.71,1.71v6.66a1.71,1.71,0,0,1-1.71,1.71h-1.07a1.71,1.71,0,0,1-1.71-1.71v-6.66A1.72,1.72,0,0,1,550.21,243.11Z"/><path class="cls-6" d="M551.28,254h-1.07a2.48,2.48,0,0,1-2.49-2.49v-6.66a2.49,2.49,0,0,1,2.49-2.49h1.07a2.5,2.5,0,0,1,2.49,2.49v6.66A2.49,2.49,0,0,1,551.28,254Zm-1.07-10.08a.93.93,0,0,0-.93.93v6.66a.93.93,0,0,0,.93.93h1.07a.93.93,0,0,0,.92-.93v-6.66a.93.93,0,0,0-.92-.93Z"/><path class="cls-6" d="M556.47,250.49a.77.77,0,0,1-.72-.48.79.79,0,0,1,.42-1c2.33-1,2.38-2,2.47-4.35,0-.3,0-.61.05-.93a7.68,7.68,0,0,1,.39-1.85,7.28,7.28,0,0,0,.31-1.42,4.58,4.58,0,0,0-.81-2.78.32.32,0,0,0-.28-.1A3.71,3.71,0,0,0,558,239a5.91,5.91,0,0,1-.16,1.12c-.57,1.84-2,4.3-4.28,5.2a.78.78,0,0,1-.58-1.45,6.78,6.78,0,0,0,3.36-4.21,4.28,4.28,0,0,0,.1-.79c.09-1.05.22-2.64,1.59-2.87a1.83,1.83,0,0,1,1.59.49c1.15,1,1.37,3.33,1.33,4a9,9,0,0,1-.38,1.77,6.9,6.9,0,0,0-.33,1.49c0,.31,0,.62,0,.91-.1,2.35-.18,4.37-3.44,5.73A.8.8,0,0,1,556.47,250.49Z"/><path class="cls-6" d="M557.67,254.61a8.63,8.63,0,0,1-3.52-.59,3.22,3.22,0,0,1-.86-.9,3.06,3.06,0,0,0-.43-.51.72.72,0,0,1-.72-.77.83.83,0,0,1,.85-.77c.74,0,1.2.63,1.56,1.13a3.56,3.56,0,0,0,.38.46,9.29,9.29,0,0,0,4.29.23.79.79,0,0,1,.5,1.49A7.37,7.37,0,0,1,557.67,254.61Z"/><path class="cls-6" d="M561.45,247.18a3.05,3.05,0,0,1-1.6-.36,1.57,1.57,0,0,1-.93-1.81,2.69,2.69,0,0,1,1.47-1.48H560a.78.78,0,1,1,0-1.56,7.92,7.92,0,0,1,4.72,1.33,1.89,1.89,0,0,1,.81,2,2.72,2.72,0,0,1-2.26,1.68A12.47,12.47,0,0,1,561.45,247.18Zm-1-1.82.17.12a5.2,5.2,0,0,0,2.32,0,1.42,1.42,0,0,0,1-.56c0-.05,0-.2-.3-.41a2.59,2.59,0,0,0-.59-.37.78.78,0,0,1-.69.4A3.66,3.66,0,0,0,560.48,245.36Z"/><path class="cls-6" d="M561.46,249.79a9.56,9.56,0,0,1-1.64-.13,1.48,1.48,0,0,1-1.34-1.21,1.8,1.8,0,0,1,1.09-1.78,5,5,0,0,1,.58-.23,2.46,2.46,0,0,0,.38-.14.78.78,0,1,1,.7,1.4,3.45,3.45,0,0,1-.59.23,2.35,2.35,0,0,0-.37.14l-.11.06a6.7,6.7,0,0,0,3.48-.29.11.11,0,0,0,.07-.12.77.77,0,0,0-.33-.56.77.77,0,0,1-.29-1.07.79.79,0,0,1,1.07-.29,2.32,2.32,0,0,1,1.12,1.92,1.67,1.67,0,0,1-.86,1.48A6.28,6.28,0,0,1,561.46,249.79Z"/><path class="cls-6" d="M562,252.4a9.44,9.44,0,0,1-2.66-.39c-1-.31-1.08-1-1.07-1.25,0-1,1.37-1.65,1.86-1.78a.78.78,0,0,1,.38,1.52,1.25,1.25,0,0,0-.27.12,6.73,6.73,0,0,0,3.12,0c.05,0,.08-.14.08-.25a.75.75,0,0,0-.22-.63.8.8,0,0,1-.46-1,.75.75,0,0,1,1-.48,2.15,2.15,0,0,1,1.29,2.11,1.75,1.75,0,0,1-1.2,1.75A6.24,6.24,0,0,1,562,252.4Z"/><path class="cls-6" d="M561.43,254.93a4.29,4.29,0,0,1-2.1-.51,2.11,2.11,0,0,1-1-2.1,1.34,1.34,0,0,1,1.43-.95.78.78,0,0,1,.2,1.54.79.79,0,0,0,.15.16,2.63,2.63,0,0,0,2.55-.06c.18-.19,0-.56-.18-.83a.78.78,0,1,1,1.3-.87,2.06,2.06,0,0,1,0,2.77A3.25,3.25,0,0,1,561.43,254.93Z"/><path class="cls-5" d="M461.21,329.58h28.27a2.61,2.61,0,0,1,2.61,2.61V352a2.61,2.61,0,0,1-2.61,2.61h-17l-12.11,7.07,4.4-7.07h-3.52A2.61,2.61,0,0,1,458.6,352V332.19A2.61,2.61,0,0,1,461.21,329.58Z"/><path class="cls-6" d="M460.33,362.44a.77.77,0,0,1-.56-.24.79.79,0,0,1-.1-1l3.65-5.88h-2.11a3.39,3.39,0,0,1-3.39-3.39V332.19a3.4,3.4,0,0,1,3.39-3.4h28.27a3.4,3.4,0,0,1,3.39,3.4V352a3.39,3.39,0,0,1-3.39,3.39H472.65l-11.92,7A.83.83,0,0,1,460.33,362.44Zm.88-32.08a1.84,1.84,0,0,0-1.83,1.83V352a1.84,1.84,0,0,0,1.83,1.82h3.52a.79.79,0,0,1,.69.41.77.77,0,0,1,0,.79l-2.73,4.39L472,353.9a.8.8,0,0,1,.4-.11h17a1.83,1.83,0,0,0,1.83-1.82V332.19a1.83,1.83,0,0,0-1.83-1.83Z"/><path class="cls-6" d="M460.33,362.44a.77.77,0,0,1-.56-.24.79.79,0,0,1-.1-1l3.65-5.88h-2.11a3.39,3.39,0,0,1-3.39-3.39V332.19a3.4,3.4,0,0,1,3.39-3.4h28.27a3.4,3.4,0,0,1,3.39,3.4V352a3.39,3.39,0,0,1-3.39,3.39H472.65l-11.92,7A.83.83,0,0,1,460.33,362.44Zm.88-32.08a1.84,1.84,0,0,0-1.83,1.83V352a1.84,1.84,0,0,0,1.83,1.82h3.52a.79.79,0,0,1,.69.41.77.77,0,0,1,0,.79l-2.73,4.39L472,353.9a.8.8,0,0,1,.4-.11h17a1.83,1.83,0,0,0,1.83-1.82V332.19a1.83,1.83,0,0,0-1.83-1.83Z"/><path class="cls-18" d="M475.65,342.12a.68.68,0,0,1,.61.23.92.92,0,0,1,.13.49.93.93,0,0,1-.13.5.71.71,0,0,1-.61.24v3.12a.76.76,0,0,1-.25.67.87.87,0,0,1-.53.18.59.59,0,0,1-.44-.21.86.86,0,0,1-.2-.64v-3.12h-4.39v3.1a.81.81,0,0,1-.24.68,1,1,0,0,1-.53.17.57.57,0,0,1-.43-.21.91.91,0,0,1-.19-.64v-8.3a1.08,1.08,0,0,1,.08-.44.62.62,0,0,1,.22-.28,1.08,1.08,0,0,1,.29-.13l.31,0a.44.44,0,0,1,.35.18.83.83,0,0,1,.14.54v3.9h4.39v-3.74a.94.94,0,0,1,.08-.44.91.91,0,0,1,.22-.28,1,1,0,0,1,.3-.13l.31,0a.46.46,0,0,1,.37.18.83.83,0,0,1,.14.54Z"/><path class="cls-18" d="M479.14,346.83a.77.77,0,0,1-.22.55.64.64,0,0,1-.44.18.6.6,0,0,1-.42-.17.77.77,0,0,1-.24-.52c0-1,0-2,0-3.08s0-2.07,0-3.08a.93.93,0,0,1,.26-.48.57.57,0,0,1,.4-.16.64.64,0,0,1,.39.14.84.84,0,0,1,.27.45c0,1,0,2,0,3.08S479.13,345.82,479.14,346.83Zm-1.48-8.73a.88.88,0,0,1,.22-.61.75.75,0,0,1,1.1,0,.85.85,0,0,1,.24.61.8.8,0,0,1-.24.58.73.73,0,0,1-1.1,0A.82.82,0,0,1,477.66,338.1Z"/><path class="cls-18" d="M481.4,346.52a.84.84,0,0,1,.26-.63.82.82,0,0,1,.6-.25.85.85,0,0,1,.63.25.88.88,0,0,1,.26.63.83.83,0,0,1-.26.61.86.86,0,0,1-.63.26.83.83,0,0,1-.6-.26A.8.8,0,0,1,481.4,346.52Zm.14-8.28a.92.92,0,0,1,.25-.47.6.6,0,0,1,.78,0,.93.93,0,0,1,.29.45v5.54a.78.78,0,0,1-.21.54.62.62,0,0,1-.86,0,.85.85,0,0,1-.25-.52Z"/><path class="cls-5" d="M472.36,277.77h28.27a2.61,2.61,0,0,1,2.61,2.61v19.77a2.61,2.61,0,0,1-2.61,2.61h-17l-12.11,7.08,4.4-7.08h-3.52a2.61,2.61,0,0,1-2.61-2.61V280.38A2.61,2.61,0,0,1,472.36,277.77Z"/><path class="cls-6" d="M471.48,310.62a.76.76,0,0,1-.56-.24.78.78,0,0,1-.11-1l3.66-5.87h-2.11a3.4,3.4,0,0,1-3.39-3.4V280.38a3.4,3.4,0,0,1,3.39-3.4h28.27a3.4,3.4,0,0,1,3.39,3.4v19.77a3.4,3.4,0,0,1-3.39,3.4H483.8l-11.93,7A.7.7,0,0,1,471.48,310.62Zm.88-32.07a1.83,1.83,0,0,0-1.83,1.83v19.77a1.83,1.83,0,0,0,1.83,1.83h3.52a.78.78,0,0,1,.69.4.81.81,0,0,1,0,.8l-2.73,4.39,9.37-5.48a.8.8,0,0,1,.4-.11h17a1.83,1.83,0,0,0,1.83-1.83V280.38a1.83,1.83,0,0,0-1.83-1.83Z"/><path class="cls-20" d="M477.93,290.58a8.33,8.33,0,1,1,8.32,8.38A8.35,8.35,0,0,1,477.93,290.58Z"/><path class="cls-6" d="M486.25,299.74a9.16,9.16,0,1,1,9.11-9.16A9.15,9.15,0,0,1,486.25,299.74Zm0-16.75a7.59,7.59,0,1,0,7.54,7.59A7.57,7.57,0,0,0,486.25,283Z"/><path class="cls-6" d="M481,290.9a.76.76,0,0,1-.61-.29.78.78,0,0,1,.12-1.1,2.71,2.71,0,0,1,3.83.06.78.78,0,0,1-1.1,1.11c-.5-.5-1.08-.48-1.75.05A.75.75,0,0,1,481,290.9Z"/><path class="cls-6" d="M491.78,291.14a.82.82,0,0,1-.47-.15c-1.13-.85-1.43-.89-2.17-.27a.78.78,0,1,1-1-1.2c1.68-1.4,2.91-.7,4.12.21a.78.78,0,0,1,.16,1.1A.81.81,0,0,1,491.78,291.14Z"/><path class="cls-6" d="M486.26,294.93H486a4.15,4.15,0,0,1-3-1.64.78.78,0,1,1,1.23-1,2.6,2.6,0,0,0,1.89,1.05,3.3,3.3,0,0,0,2.46-1.06.78.78,0,0,1,1.11,1.11A5,5,0,0,1,486.26,294.93Z"/><path class="cls-6" d="M357.14,174.85a.78.78,0,0,1-.44-.13c-.33-.23-8.24-5.57-10.95-11.38h0A6.16,6.16,0,0,1,347.1,156c2-1.93,4.89-2.77,6.64-1.9a10.4,10.4,0,0,1,3.87,3.78c.87-1.24,2.44-3.08,4.36-3.39a6.16,6.16,0,0,1,6.17,2.55,7.86,7.86,0,0,1,.68,8c-2.14,4.07-10.9,9.53-11.27,9.76A.75.75,0,0,1,357.14,174.85Zm-5-19.57a6.08,6.08,0,0,0-3.94,1.8,4.64,4.64,0,0,0-1,5.59h0c2.19,4.7,8.33,9.28,10,10.46,1.79-1.16,8.58-5.68,10.27-8.89a6.25,6.25,0,0,0-.56-6.33,4.61,4.61,0,0,0-4.65-1.91c-1.76.28-3.45,2.8-4,3.75a.75.75,0,0,1-.71.42.78.78,0,0,1-.69-.46s-1.43-3.06-3.82-4.25A2,2,0,0,0,352.13,155.28Z"/><path class="cls-6" d="M367.09,209.32a.75.75,0,0,1-.43-.13,30.18,30.18,0,0,0-5.25-3,17,17,0,0,1-3.53.35c-6.9,0-12.51-3.67-12.51-8.17s5.61-8.18,12.51-8.18,12.5,3.67,12.5,8.18c0,2.25-1.34,4.33-3.78,5.87a17.21,17.21,0,0,0,1.21,4,.77.77,0,0,1-.22.9A.79.79,0,0,1,367.09,209.32Zm-5.69-4.66c.38,0,1.32.23,4.14,2-1-3-.31-3.35,0-3.56,2.08-1.26,3.23-2.91,3.23-4.66,0-3.65-4.9-6.61-10.93-6.61s-10.94,3-10.94,6.61,4.9,6.6,10.94,6.6a17.43,17.43,0,0,0,3.34-.32Z"/><path class="cls-6" d="M357,244.63h-.16a.78.78,0,0,1-.6-.55l-6.73-23.58a.77.77,0,0,1,.31-.86.78.78,0,0,1,.91,0l20.89,15.83a.78.78,0,0,1,.28.82.8.8,0,0,1-.64.58l-8.57,1.3-5.09,6.17A.78.78,0,0,1,357,244.63Zm-5.34-22.31,5.68,19.88,4.33-5.25a.75.75,0,0,1,.49-.27l7-1.07Z"/><path class="cls-6" d="M362.47,238.46a.8.8,0,0,1-.65-.34l-11.56-16.61a.78.78,0,0,1,.2-1.09.78.78,0,0,1,1.09.19l11.56,16.62a.78.78,0,0,1-.2,1.09A.79.79,0,0,1,362.47,238.46Z"/><path class="cls-6" d="M184.65,435.39a19.67,19.67,0,0,1-6-.81,3.36,3.36,0,0,1-2.24-1.68c-.93-2.32,2-4.71,4.37-6.63a16.85,16.85,0,0,0,1.7-1.49.78.78,0,0,1,1.11-.07.8.8,0,0,1,.07,1.11,19.14,19.14,0,0,1-1.89,1.67c-1.65,1.34-4.41,3.58-3.9,4.83,0,0,.18.39,1.29.78,3.22,1.11,9.88,1,12.77-.65a15.08,15.08,0,0,0,6.48-7.06,5.14,5.14,0,0,1,1.49-1.75c.57-.49,1.06-.92,1.15-1.48.3-1.81-.52-7.59-1.85-8.58a.79.79,0,0,1,.94-1.26c2.15,1.62,2.75,8.32,2.46,10.09a4.12,4.12,0,0,1-1.68,2.41,4.18,4.18,0,0,0-1.09,1.21,16.8,16.8,0,0,1-7.11,7.77C190.84,434.89,187.68,435.39,184.65,435.39Z"/><path class="cls-6" d="M212.77,436.62a14.86,14.86,0,0,1-3-.34c-1.93-.43-4.42-1.39-5.13-2.71a16.79,16.79,0,0,1-2.06-8.11c0-.55-.07-1.14-.13-1.78-.09-1.17-.3-11.52.84-12.48a.79.79,0,0,1,1.13,1.08c-.39,1-.65,8.28-.4,11.27,0,.65.09,1.25.13,1.81a15.31,15.31,0,0,0,1.87,7.47c.25.47,1.72,1.4,4.08,1.92,2.55.56,4.8.35,6-.57,4.39-3.29,2.29-7.2.43-10.65l-.08-.14c-.41-.76-.73-3-1.17-6.38-.17-1.29-.32-2.5-.43-3a.79.79,0,0,1,.59-.94.8.8,0,0,1,.94.6c.12.56.28,1.75.46,3.12a40,40,0,0,0,1,5.85l.08.14c1.83,3.4,4.6,8.54-.87,12.65A7.14,7.14,0,0,1,212.77,436.62Zm-8.5-24.22Z"/><path class="cls-6" d="M201.43,208.87a108.65,108.65,0,0,1-17.93-1.8.78.78,0,1,1,.26-1.54c12.89,2.15,23,2.81,33.51-.51.39-.13.83-.26,1.31-.4,2.38-.71,6-1.77,7.3-3.33a.79.79,0,0,1,1.11-.09.78.78,0,0,1,.09,1.1c-1.63,1.92-5.35,3-8.06,3.82l-1.28.39A53.58,53.58,0,0,1,201.43,208.87Z"/><path class="cls-6" d="M198.75,304.43c-12.78,0-24.95-.35-26.32-1.49-3.56-3-8.68-47.34-7.31-71,.29-4.86.9-11.5,1.31-14.87a.78.78,0,0,1,.87-.68.77.77,0,0,1,.68.87c-.4,3.34-1,9.94-1.29,14.78-1.46,25.06,4.13,67.54,6.75,69.72,2.84,1.67,51.22,1.25,55.89.47.94-4.34,4.31-60.28.91-82.34-.32-2.05-1.36-6.11-2.27-9.69a62.45,62.45,0,0,1-1.85-8.16.79.79,0,0,1,1.57,0,78,78,0,0,0,1.8,7.77c1,3.79,2,7.71,2.3,9.84,3.43,22.29.28,81.41-1.21,83.65-.22.33-.58.4-1,.47C227.82,304,212.92,304.43,198.75,304.43Z"/><path class="cls-6" d="M204,207.44a.78.78,0,0,1-.78-.78c0-11.58-.08-23.41-.16-34.85s-.16-23.33-.16-35a.78.78,0,0,1,.78-.79.79.79,0,0,1,.79.79c0,11.64.08,23.5.16,35s.16,23.27.16,34.86A.78.78,0,0,1,204,207.44Z"/><path class="cls-6" d="M180.65,122a3.33,3.33,0,0,1-2.09-.69c-1.78-1.38-2.08-4.47-1.79-6.7.31-2.42,1.67-4.33,3-6.17s2.43-3.43,2.72-5.46a22.57,22.57,0,0,0-.39-6.95c-.19-1.25-.39-2.53-.49-3.85a27.24,27.24,0,0,1,4.75-17.28c2.9-4,8.09-8.78,13.18-9.18a8,8,0,0,1,6.53,2.51.77.77,0,0,1,0,1.1.78.78,0,0,1-1.11,0,6.54,6.54,0,0,0-5.29-2c-4.28.34-9.13,4.53-12,8.54a25.93,25.93,0,0,0-4.46,16.25c.09,1.25.29,2.5.48,3.71a24.32,24.32,0,0,1,.39,7.42c-.34,2.41-1.69,4.31-3,6.14s-2.44,3.44-2.71,5.47,0,4.35,1.2,5.26a2.51,2.51,0,0,0,2.56,0,.78.78,0,1,1,.58,1.45A5.39,5.39,0,0,1,180.65,122Z"/><path class="cls-6" d="M188.57,123.43a5.59,5.59,0,0,1-3.36-1.12,7.64,7.64,0,0,1-2.51-7.79.78.78,0,1,1,1.53.33,6.08,6.08,0,0,0,1.92,6.2,4.49,4.49,0,0,0,5,.07.8.8,0,0,1,1.07.32.79.79,0,0,1-.32,1.06A7,7,0,0,1,188.57,123.43Z"/><path class="cls-6" d="M198.05,120.18h-.12a6.65,6.65,0,0,1-4.89-2.8,4.5,4.5,0,0,1-.11-4.08.79.79,0,0,1,1.46.58,3,3,0,0,0,0,2.71c.69,1.21,2.4,1.84,3.76,2a.78.78,0,0,1-.11,1.55Z"/><path class="cls-6" d="M220.08,124.13a.78.78,0,0,1-.17-1.55,7.83,7.83,0,0,0,6.31-6.12c.69-2.6,0-4.92-.66-7.37a23.9,23.9,0,0,1-1-4.87c-.19-2.76-.13-5.45-.07-8.06.14-6.37.28-12.39-3.13-18.58-2.32-4.23-9-12-14.85-9.11a.78.78,0,1,1-.7-1.4c6.61-3.3,13.89,4.23,16.93,9.75,3.61,6.56,3.47,12.79,3.32,19.38-.06,2.57-.12,5.22.06,7.91a22.21,22.21,0,0,0,.95,4.55c.72,2.55,1.47,5.19.67,8.2a9.4,9.4,0,0,1-7.5,7.25Z"/><path class="cls-6" d="M212.18,122.17a.79.79,0,0,1-.22-1.54c3.33-1,5.4-2.25,6.17-3.8a3.7,3.7,0,0,0,0-3.08.78.78,0,1,1,1.46-.55,5.25,5.25,0,0,1-.07,4.33c-1,2-3.32,3.48-7.14,4.61Z"/><path class="cls-6" d="M200.46,135.75a.78.78,0,0,1-.6-.28c-3.09-3.61-6.89-2.21-9.54-.4a.86.86,0,0,1-1.06.1.78.78,0,0,1-.3-.85,17.15,17.15,0,0,0,.26-5.92c-.22-3.05-.45-6.21,2.92-7.61a.78.78,0,0,1,.6,1.45c-2.22.92-2.2,2.71-2,6a24.07,24.07,0,0,1,0,4.66c4-2.11,7.61-1.57,10.24,1.51a.79.79,0,0,1-.08,1.1A.77.77,0,0,1,200.46,135.75Z"/><path class="cls-6" d="M215.48,136.43a1.24,1.24,0,0,1-.74-.36c-2.47-2-4.71-2.4-6.86-1.09a.79.79,0,0,1-1.08-.27.78.78,0,0,1,.27-1.07,6.6,6.6,0,0,1,7.34.26,18.49,18.49,0,0,1,.66-4.68c.64-2.79,1-4.56-.44-5.75a.79.79,0,1,1,1-1.2c2.2,1.87,1.56,4.63.94,7.3-.45,2-.92,4-.37,5.82a.81.81,0,0,1-.31.9A.76.76,0,0,1,215.48,136.43Z"/><path class="cls-6" d="M190,103.75a.77.77,0,0,1-.7-.44c-1.56-3.25-1.92-5.63-1.1-7.3,1-2,3.28-2.44,5.15-2.83a16.49,16.49,0,0,0,1.71-.42c4.37-1.48,8.09-5.52,10.81-8.48,2.24-2.44,3.61-3.92,4.89-3.74a1.56,1.56,0,0,1,1.2.93.78.78,0,1,1-1.39.71.46.46,0,0,0-.07-.11c-.49,0-2.15,1.83-3.48,3.28-2.83,3.07-6.71,7.28-11.46,8.89a14.91,14.91,0,0,1-1.89.47c-1.69.36-3.44.72-4.07,2s-.21,3.18,1.11,5.93a.78.78,0,0,1-.37,1A.81.81,0,0,1,190,103.75Z"/><path class="cls-6" d="M220.4,105.3a.75.75,0,0,1-.43-.13.78.78,0,0,1-.22-1.08c2.12-3.19-.11-6.44-2.47-9.87-2-2.89-4-5.87-3.64-9.08a.78.78,0,0,1,1.55.19c-.32,2.62,1.56,5.35,3.38,8,2.55,3.71,5.2,7.55,2.48,11.63A.79.79,0,0,1,220.4,105.3Z"/><path class="cls-6" d="M208.94,90.42a.79.79,0,0,1-.55-1.34l.14-.14c1.47-1.47,2.74-2.73,2.74-4.76a.79.79,0,1,1,1.57,0c0,2.68-1.63,4.3-3.2,5.87l-.14.14A.8.8,0,0,1,208.94,90.42Z"/><path class="cls-6" d="M186,429.36c-1.17,0-2.66-.23-3.3-1.15a3.15,3.15,0,0,1-.41-2.55.78.78,0,0,1,1.53.32,1.6,1.6,0,0,0,.18,1.34c.29.43,2,.59,3.05.39a11.4,11.4,0,0,0,7.27-4,13.59,13.59,0,0,0,1.86-4.56c.62-2.2,1.27-4.48,2.89-5.83a.78.78,0,0,1,1,1.21c-1.25,1-1.8,3-2.38,5a14.64,14.64,0,0,1-2.14,5.11,13,13,0,0,1-8.22,4.61A8.39,8.39,0,0,1,186,429.36Z"/><path class="cls-6" d="M211,429.63a6.26,6.26,0,0,1-3.45-1.11c-3.48-2.31-4.27-6.34-5-9.89-.08-.43-.17-.87-.26-1.29a.79.79,0,1,1,1.54-.32c.09.43.17.87.26,1.31.66,3.41,1.35,6.94,4.29,8.88a4.11,4.11,0,0,0,4.88.1,5.89,5.89,0,0,0,2.2-6.07.78.78,0,0,1,.59-.94.79.79,0,0,1,.94.59,7.47,7.47,0,0,1-2.83,7.7A5.55,5.55,0,0,1,211,429.63Z"/></g></svg>