<?xml version="1.0" encoding="utf-8"?>
<!-- Generator: Adobe Illustrator 23.0.1, SVG Export Plug-In . SVG Version: 6.00 Build 0)  -->
<svg version="1.1" id="Layer_1" xmlns="http://www.w3.org/2000/svg" xmlns:xlink="http://www.w3.org/1999/xlink" x="0px" y="0px"
	 viewBox="0 0 230 230" style="enable-background:new 0 0 230 230;" xml:space="preserve">
<style type="text/css">
	.st0{fill:#D4D4D4;}
	.st1{fill:#F2F2F2;}
	.st2{fill:#FFFFFF;}
	.st3{fill:#414242;}
	.st4{fill:#DFDFDF;}
	.st5{fill:#A4A4A4;}
	.st6{fill:#F1F1F1;}
	.st7{fill:#D5D5D5;}
	.st8{fill:#DEDEDE;}
	.st9{fill:#837FCB;}
	.st10{fill:#A3A3A3;}
	.st11{fill:#F3BA26;}
	.st12{fill:#F8E7CC;}
	.st13{fill:#404141;}
	.st14{fill:#DB9C17;}
	.st15{fill:#9F9FDD;}
	.st16{fill:#6F6FB2;}
	.st17{fill:#A2A2A2;}
	.st18{fill:#D3D3D3;}
	.st19{fill:#F6E5CC;}
	.st20{fill:#F2B92C;}
	.st21{fill:#178DC0;}
</style>
<g id="XMLID_2190_">
	<g id="XMLID_2326_">
		<g id="XMLID_2327_">
			<path id="XMLID_5710_" class="st0" d="M173.7,94.9l-7.6,4.3c-1.2,0.7-2.8,0.7-4,0l-7.4-4.3c-1-0.6-1-2.1,0-2.7l8.7-4.9
				c0.5-0.3,1.1-0.3,1.5,0l8.7,4.9C174.8,92.8,174.8,94.3,173.7,94.9z"/>
		</g>
	</g>
	<g id="XMLID_2191_">
		<g id="XMLID_2193_">
			<g id="XMLID_2289_">
				<g id="XMLID_2312_">
					<g id="XMLID_2313_">
						<g id="XMLID_2323_">
							<g id="XMLID_2325_">
								<path id="XMLID_5707_" class="st1" d="M172.5,89.7l-9.5,5.4c0,0,0,0-0.1,0l-9.3-5.4c0,0,0-0.1,0-0.1l9.4-5.3c0,0,0,0,0.1,0
									L172.5,89.7C172.5,89.7,172.5,89.7,172.5,89.7z"/>
							</g>
						</g>
						<g id="XMLID_2321_">
							<g id="XMLID_2322_">
								<path id="XMLID_5704_" class="st2" d="M172.4,91.6l-9.5,5.4c0,0,0,0-0.1,0l-9.3-5.4c0,0,0-0.1,0-0.1l9.4-5.3c0,0,0,0,0.1,0
									L172.4,91.6C172.4,91.5,172.4,91.6,172.4,91.6z"/>
							</g>
						</g>
						<g id="XMLID_2315_">
							<g id="XMLID_2317_">
								<path id="XMLID_5699_" class="st3" d="M162.9,95.4l-0.2-0.1l-9.4-5.5l0-0.2c0-0.1,0.1-0.2,0.2-0.3L163,84l0.2,0.1l9.5,5.4
									l0,0.2c0,0.1-0.1,0.2-0.2,0.3L162.9,95.4z M154.1,89.7l8.8,5.1l9-5.1l-8.9-5.1L154.1,89.7z"/>
							</g>
						</g>
					</g>
				</g>
				<g id="XMLID_2301_">
					<g id="XMLID_2302_">
						<g id="XMLID_2309_">
							<g id="XMLID_2311_">
								<path id="XMLID_5694_" class="st4" d="M153.5,89.7l0,1.9c0,0,0,0,0,0l9.3,5.4c0,0,0.1,0,0.1,0l0-1.9c0,0,0,0,0,0L153.5,89.7
									C153.6,89.7,153.5,89.7,153.5,89.7z"/>
							</g>
						</g>
						<g id="XMLID_2303_">
							<g id="XMLID_2305_">
								<path id="XMLID_5689_" class="st3" d="M162.9,97.4c-0.1,0-0.1,0-0.2,0l-9.4-5.5l0-0.2l0-2l0.3-0.2l0.2,0.1l9.4,5.5l0,0.2
									l0,2l-0.2,0.1C163,97.4,162.9,97.4,162.9,97.4z M153.8,91.5l8.8,5.1l0-1.3l-8.8-5.1L153.8,91.5z"/>
							</g>
						</g>
					</g>
				</g>
				<g id="XMLID_2290_">
					<g id="XMLID_2291_">
						<g id="XMLID_2298_">
							<g id="XMLID_2299_">
								<path id="XMLID_5684_" class="st5" d="M172.5,89.8l0,1.9c0,0,0,0,0,0l-9.5,5.4c0,0-0.1,0-0.1,0l0-1.9c0,0,0,0,0,0
									L172.5,89.8C172.5,89.7,172.5,89.7,172.5,89.8z"/>
							</g>
						</g>
						<g id="XMLID_2293_">
							<g id="XMLID_2294_">
								<path id="XMLID_5679_" class="st3" d="M163,97.4l-0.2-0.1c-0.1-0.1-0.2-0.2-0.2-0.3l0-2l0.2-0.1l9.7-5.5l0.2,0.1
									c0.1,0.1,0.2,0.2,0.2,0.3l0,2.1l-0.2,0.1L163,97.4z M163.2,95.3l0,1.3l9-5.1l0-1.3L163.2,95.3z"/>
							</g>
						</g>
					</g>
				</g>
			</g>
			<g id="XMLID_2277_">
				<g id="XMLID_2279_">
					<g id="XMLID_2285_">
						<g id="XMLID_2287_">
							<path id="XMLID_5673_" class="st5" d="M163,90.7L163,90.7c-1.1,0-2-0.9-2-2l0-7.7c0-0.1,0.1-0.2,0.2-0.2l3.6,0
								c0.1,0,0.2,0.1,0.2,0.2l0,7.7C165.1,89.8,164.2,90.7,163,90.7z"/>
						</g>
					</g>
					<g id="XMLID_2280_">
						<g id="XMLID_2281_">
							<path id="XMLID_5668_" class="st3" d="M163,91c-1.3,0-2.3-1-2.3-2.3l0-7.7c0-0.3,0.2-0.5,0.5-0.5l3.6,0
								c0.3,0,0.5,0.2,0.5,0.5l0,7.7C165.4,89.9,164.3,91,163,91z M161.3,81l0,7.7c0,1,0.8,1.7,1.7,1.7c1,0,1.7-0.8,1.7-1.7l0-7.7
								L161.3,81z"/>
						</g>
					</g>
				</g>
			</g>
			<g id="XMLID_2264_">
				<g id="XMLID_2265_">
					<g id="XMLID_2275_">
						<g id="XMLID_2276_">
							<path id="XMLID_5663_" class="st6" d="M164.8,80.1l-3.6,0c-0.1,0-0.2,0.1-0.2,0.2l0,2.4c0,1.1,0.9,2,2,2c1.1,0,2-0.9,2-2
								l0-2.4C165.1,80.2,165,80.1,164.8,80.1z"/>
						</g>
					</g>
					<g id="XMLID_2272_">
						<g id="XMLID_2273_">
							<path id="XMLID_5660_" class="st2" d="M164.9,79l-3.6,0c-0.1,0-0.2,0.1-0.2,0.2l0,2.4c0,1.1,0.9,2,2,2c1.1,0,2-0.9,2-2l0-2.4
								C165.1,79.1,165,79,164.9,79z"/>
						</g>
					</g>
					<g id="XMLID_2267_">
						<g id="XMLID_2269_">
							<path id="XMLID_5655_" class="st3" d="M163,85.1c-1.3,0-2.3-1-2.3-2.3l0-2.4c0-0.3,0.2-0.5,0.5-0.5l3.6,0
								c0.3,0,0.5,0.2,0.5,0.5l0,2.4C165.4,84.1,164.3,85.1,163,85.1z M161.3,80.4l0,2.4c0,1,0.8,1.7,1.7,1.7c1,0,1.7-0.8,1.7-1.7
								l0-2.4L161.3,80.4z"/>
						</g>
					</g>
				</g>
			</g>
			<g id="XMLID_2230_">
				<g id="XMLID_2231_">
					<g id="XMLID_2240_">
						<g id="XMLID_2263_">
							
								<ellipse id="XMLID_5650_" transform="matrix(1.418279e-03 -1 1 1.418279e-03 90.7216 235.0753)" class="st4" cx="163.1" cy="72.1" rx="10.2" ry="10.2"/>
						</g>
					</g>
					<g id="XMLID_2238_">
						<g id="XMLID_2239_">
							<path id="XMLID_5647_" class="st2" d="M172.2,67.5c-0.5-0.4-1-0.8-1.5-1.2c-1.8,2.8-5,4.7-8.6,4.7c-2,0-3.9-0.6-5.5-1.6
								c-1,1.6-1.6,3.5-1.6,5.5c0,1.7,0.4,3.3,1.1,4.7c1.8,1.8,4.3,2.8,7,2.8c5.6,0,10.2-4.6,10.2-10.2
								C173.3,70.4,172.9,68.9,172.2,67.5z"/>
						</g>
					</g>
					<g id="XMLID_2232_">
						<g id="XMLID_2234_">
							<path id="XMLID_5642_" class="st3" d="M163.1,82.6c-5.8,0-10.5-4.7-10.5-10.5s4.7-10.5,10.5-10.5c5.8,0,10.5,4.7,10.5,10.5
								C173.5,77.9,168.8,82.6,163.1,82.6z M163.1,62.2c-5.5,0-9.9,4.4-9.9,9.9c0,5.5,4.4,9.9,9.9,9.9c5.5,0,9.9-4.4,9.9-9.9
								C173,66.7,168.5,62.2,163.1,62.2z"/>
						</g>
					</g>
				</g>
			</g>
			<g id="XMLID_2219_">
				<g id="XMLID_2221_">
					<g id="XMLID_2227_">
						<g id="XMLID_2228_">
							<path id="XMLID_5637_" class="st5" d="M170,64.6c0.1,0.5,0.1,1.1,0.1,1.7c0,5.6-4.6,10.2-10.2,10.2c-2.7,0-5.1-1-6.9-2.7
								c0.8,4.8,5,8.5,10.1,8.6c5.6,0,10.2-4.6,10.2-10.2C173.3,69.2,172,66.5,170,64.6z"/>
						</g>
					</g>
					<g id="XMLID_2222_">
						<g id="XMLID_2223_">
							<path id="XMLID_5632_" class="st3" d="M163.1,82.6c-5.2,0-9.5-3.7-10.3-8.8l0.3-1.1l0.2,0.9c1.8,1.7,4.2,2.6,6.7,2.6
								c5.5,0,9.9-4.4,9.9-9.9c0-0.5,0-1.1-0.1-1.6l-0.1-0.8l0.6,0.6c2.1,2,3.4,4.8,3.4,7.7C173.5,77.9,168.8,82.6,163.1,82.6z
								 M153.4,74.5c1.1,4.4,5,7.5,9.6,7.5c5.5,0,9.9-4.4,9.9-9.9c0-2.5-0.9-4.9-2.6-6.7c0,0.3,0,0.6,0,0.9
								c0,5.8-4.7,10.5-10.5,10.5C157.6,76.8,155.3,76,153.4,74.5z"/>
						</g>
					</g>
				</g>
			</g>
			<g id="XMLID_2205_">
				<g id="XMLID_2207_">
					<g id="XMLID_2217_">
						<g id="XMLID_2218_">
							<path id="XMLID_5627_" class="st4" d="M170.1,63.2c0,3.9-3.2,6.1-7.1,6.1c-3.9,0-7.1-2.2-7.1-6.1c0-3.9,3.2-7.1,7.1-7.1
								C167,56.1,170.1,59.3,170.1,63.2z"/>
						</g>
					</g>
					<g id="XMLID_2214_">
						<g id="XMLID_2215_">
							<path id="XMLID_5624_" class="st2" d="M170.2,63.2c0-1-0.2-1.9-0.6-2.8c-1.3-1.6-3.3-2.6-5.5-2.6c-3.9,0-7.1,3.2-7.1,7.1
								c0,0.8,0.1,1.5,0.4,2.2c1.3,1.4,3.3,2.2,5.6,2.2C167.1,69.3,170.2,67.1,170.2,63.2z"/>
						</g>
					</g>
					<g id="XMLID_2208_">
						<g id="XMLID_2209_">
							<path id="XMLID_5619_" class="st3" d="M163.1,69.6c-4.4,0-7.3-2.6-7.3-6.4c0-4.1,3.3-7.3,7.4-7.3c4.1,0,7.3,3.3,7.3,7.4
								C170.4,67,167.5,69.6,163.1,69.6z M163.1,56.4c-3.7,0-6.8,3-6.8,6.8c0,4,3.4,5.8,6.8,5.8c3.4,0,6.8-1.8,6.8-5.8
								C169.9,59.4,166.8,56.4,163.1,56.4z"/>
						</g>
					</g>
				</g>
			</g>
			<g id="XMLID_2194_">
				<g id="XMLID_2195_">
					<g id="XMLID_2203_">
						<g id="XMLID_2204_">
							<path id="XMLID_5614_" class="st5" d="M164.6,56.3c0.9,1.2,1.4,2.6,1.4,4.2c0,3.9-3.2,6.1-7.1,6.1c-0.7,0-1.4-0.1-2-0.2
								c1.2,1.9,3.5,2.9,6.2,2.9c3.9,0,7.1-2.2,7.1-6.1C170.1,59.8,167.8,57,164.6,56.3z"/>
						</g>
					</g>
					<g id="XMLID_2197_">
						<g id="XMLID_2198_">
							<path id="XMLID_5609_" class="st3" d="M163.1,69.6c-2.9,0-5.2-1.1-6.4-3.1l-0.4-0.6l0.7,0.1c3.8,0.8,8.7-0.8,8.7-5.6
								c0-1.5-0.5-2.8-1.3-4l-0.5-0.6l0.7,0.2c3.4,0.7,5.8,3.8,5.8,7.2C170.4,67,167.5,69.6,163.1,69.6z M157.5,66.8
								c1.2,1.4,3.2,2.2,5.5,2.2c3.4,0,6.8-1.8,6.8-5.8c0-2.9-1.9-5.5-4.6-6.4c0.7,1.1,1,2.4,1,3.7c0,3.8-3,6.4-7.4,6.4
								C158.4,66.8,158,66.8,157.5,66.8z"/>
						</g>
					</g>
				</g>
			</g>
		</g>
	</g>
</g>
<g id="XMLID_45_">
	<g id="XMLID_189_">
		<g id="XMLID_2881_">
			<path id="XMLID_3291_" class="st7" d="M179.1,148L122,181.1c-2.7,1.5-6,1.5-8.6,0l-88.5-51.3c-1.8-1-1.8-3.7,0-4.7l60.1-34.8
				c0.8-0.5,1.9-0.5,2.7,0l91.5,53.1C180.9,144.4,180.9,147,179.1,148z"/>
		</g>
	</g>
	<g id="XMLID_188_">
		<g id="XMLID_11725_">
			<g id="XMLID_10489_">
				<g id="XMLID_2684_">
					<g id="XMLID_2667_">
						<g id="XMLID_1350_">
							<g id="XMLID_1762_">
								<g id="XMLID_2879_">
									<path id="XMLID_3288_" class="st1" d="M159.1,84.7l-57.1,33c0,0,0,0,0,0L32.5,77.3c0,0,0,0,0,0l57.1-33c0,0,0,0,0,0
										L159.1,84.7C159.1,84.6,159.1,84.6,159.1,84.7z"/>
								</g>
							</g>
							<g id="XMLID_1763_">
								<g id="XMLID_2875_">
									<path id="XMLID_3283_" class="st3" d="M102.1,118l-0.2-0.1L32.1,77.5l0-0.4l0.2-0.1l57.2-33.1l0.2,0.1l69.7,40.4l0,0.4
										l-0.2,0.1L102.1,118z M33.1,77.3l68.9,40l56.4-32.6l-68.9-40L33.1,77.3z"/>
								</g>
							</g>
						</g>
					</g>
					<g id="XMLID_2672_">
						<g id="XMLID_583_">
							<g id="XMLID_1758_">
								<g id="XMLID_2871_">
									<polygon id="XMLID_3278_" class="st6" points="149.2,84.4 102.3,111.5 42.4,76.8 89.3,49.7 									"/>
								</g>
							</g>
							<g id="XMLID_1852_">
								<g id="XMLID_2869_">
									<polygon id="XMLID_3275_" class="st2" points="44.6,75.5 102.3,108.9 146.9,83.1 89.3,49.7 									"/>
								</g>
							</g>
							<g id="XMLID_1759_">
								<g id="XMLID_2861_">
									<path id="XMLID_3270_" class="st3" d="M102.3,111.9l-0.2-0.1l-60.5-35l47.6-27.5l60.6,35.1L102.3,111.9z M43,76.8
										l59.3,34.3l46.2-26.7L89.3,50.1L43,76.8z"/>
								</g>
							</g>
						</g>
					</g>
					<g id="XMLID_2666_">
						<g id="XMLID_582_">
							<g id="XMLID_1754_">
								<g id="XMLID_2855_">
									<path id="XMLID_3265_" class="st4" d="M32.4,77.3l-0.1,43.9c0,0,0,0,0,0l69.5,40.3c0,0,0,0,0,0l0.1-43.9c0,0,0,0,0,0
										L32.4,77.3C32.5,77.3,32.4,77.3,32.4,77.3z"/>
								</g>
							</g>
							<g id="XMLID_1755_">
								<g id="XMLID_2851_">
									<path id="XMLID_3260_" class="st3" d="M102,162l-0.2-0.1l-69.7-40.4l0-0.2l0.1-44.1l0.4-0.2l0.2,0.1l69.7,40.4l0,0.2
										l-0.1,44.1L102,162z M32.7,121.1l68.9,40l0.1-43.2l-68.9-40L32.7,121.1z"/>
								</g>
							</g>
						</g>
					</g>
					<g id="XMLID_2668_">
						<g id="XMLID_581_">
							<g id="XMLID_1750_">
								<g id="XMLID_2847_">
									<path id="XMLID_3255_" class="st5" d="M159.1,84.7l-0.1,43.9c0,0,0,0,0,0l-57.1,33c0,0,0,0,0,0l0.1-43.9c0,0,0,0,0,0
										L159.1,84.7C159.1,84.6,159.1,84.7,159.1,84.7z"/>
								</g>
							</g>
							<g id="XMLID_1751_">
								<g id="XMLID_2843_">
									<path id="XMLID_3250_" class="st3" d="M102,162l-0.4-0.2l0-0.2l0.1-44.1l0.2-0.1l57.2-33.1l0.4,0.2l0,0.2l-0.1,44.1
										l-0.2,0.1L102,162z M102.4,117.8l-0.1,43.2l56.4-32.6l0.1-43.2L102.4,117.8z"/>
								</g>
							</g>
						</g>
					</g>
					<g id="XMLID_2665_">
						<g id="XMLID_580_">
							<g id="XMLID_1746_">
								<g id="XMLID_2839_">
									<polygon id="XMLID_3245_" class="st5" points="89.3,49.7 89.3,53.5 45.6,78.7 42.4,76.8 									"/>
								</g>
							</g>
							<g id="XMLID_1747_">
								<g id="XMLID_2835_">
									<path id="XMLID_3240_" class="st3" d="M45.6,79.1l-3.9-2.3l47.9-27.7l0,4.5L45.6,79.1z M43,76.8l2.5,1.5l43.3-25l0-2.9
										L43,76.8z"/>
								</g>
							</g>
						</g>
					</g>
					<g id="XMLID_2683_">
						<g id="XMLID_579_">
							<g id="XMLID_1742_">
								<g id="XMLID_2831_">
									<polygon id="XMLID_3235_" class="st8" points="89.3,49.7 89.3,53.5 146,86.3 149.2,84.4 									"/>
								</g>
							</g>
							<g id="XMLID_1743_">
								<g id="XMLID_2827_">
									<path id="XMLID_3230_" class="st3" d="M146,86.7l-57.1-33l0-4.5l61,35.3L146,86.7z M89.6,53.3L146,85.9l2.5-1.5L89.6,50.3
										L89.6,53.3z"/>
								</g>
							</g>
						</g>
					</g>
				</g>
			</g>
		</g>
		<g id="XMLID_734_">
			<g id="XMLID_2820_">
				<path id="XMLID_3222_" class="st3" d="M154.7,85c-0.4,0.2-0.9,0.2-1.3,0c-0.4-0.2-0.4-0.5,0-0.7c0.4-0.2,0.9-0.2,1.3,0
					C155,84.5,155,84.8,154.7,85z"/>
			</g>
		</g>
	</g>
	<g id="XMLID_10574_">
		<g id="XMLID_10450_">
			<g id="XMLID_10453_">
				<g id="XMLID_573_">
					<g id="XMLID_1738_">
						<g id="XMLID_2817_">
							<polygon id="XMLID_3218_" class="st6" points="35.3,82.4 35.3,119.5 58.2,132.9 58.3,95.8 							"/>
						</g>
					</g>
					<g id="XMLID_1739_">
						<g id="XMLID_2813_">
							<path id="XMLID_3213_" class="st3" d="M58.5,133.5l-23.6-13.7L35,81.8l23.6,13.7L58.5,133.5z M35.6,119.3l22.3,12.9L57.9,96
								L35.6,83L35.6,119.3z"/>
						</g>
					</g>
				</g>
			</g>
			<g id="XMLID_4904_">
				<g id="XMLID_572_">
					<g id="XMLID_1734_">
						<g id="XMLID_2809_">
							<polygon id="XMLID_3208_" class="st9" points="46.3,104.5 46.3,118.8 55.2,123.9 55.2,109.6 							"/>
						</g>
					</g>
					<g id="XMLID_1735_">
						<g id="XMLID_2805_">
							<path id="XMLID_3203_" class="st3" d="M54.2,125.9l-9.5-5.5l0-15.1l9.5,5.5L54.2,125.9z M45.3,119.9l8.2,4.8l0-13.5l-8.2-4.7
								L45.3,119.9z"/>
						</g>
					</g>
				</g>
			</g>
			<g id="XMLID_10452_">
				<g id="XMLID_571_">
					<g id="XMLID_1730_">
						<g id="XMLID_2801_">
							<polygon id="XMLID_3198_" class="st10" points="35.3,119.5 38,117.9 38,84 35.3,82.4 							"/>
						</g>
					</g>
					<g id="XMLID_1731_">
						<g id="XMLID_2796_">
							<path id="XMLID_3193_" class="st3" d="M34.9,119.6L35,81.8l3.4,2l0,34.3l-3,1.8C35.2,120,34.9,119.9,34.9,119.6z M35.6,83
								l-0.1,35.9l2-1.2l0-33.5L35.6,83z"/>
						</g>
					</g>
				</g>
			</g>
			<g id="XMLID_10451_">
				<g id="XMLID_570_">
					<g id="XMLID_1725_">
						<g id="XMLID_2792_">
							<polygon id="XMLID_3188_" class="st2" points="58.2,132.9 58.2,129.7 38,117.9 35.3,119.5 							"/>
						</g>
					</g>
					<g id="XMLID_1726_">
						<g id="XMLID_2788_">
							<path id="XMLID_3183_" class="st3" d="M58.5,133.5L35,119.8c-0.2-0.1-0.2-0.4,0-0.5l3-1.8l20.6,12L58.5,133.5z M35.9,119.5
								l21.9,12.7l0-2.4L38,118.3L35.9,119.5z"/>
						</g>
					</g>
				</g>
			</g>
		</g>
		<g id="XMLID_10471_">
			<g id="XMLID_10474_">
				<g id="XMLID_569_">
					<g id="XMLID_1710_">
						<g id="XMLID_2783_">
							<path id="XMLID_3177_" class="st11" d="M55.9,97.9l-2.3,1.3c0,0,0,0-0.1,0l-13.3-7.8c0,0,0-0.1,0-0.1l2.3-1.3c0,0,0,0,0.1,0
								l13.3,7.8C56,97.8,56,97.8,55.9,97.9z"/>
						</g>
					</g>
					<g id="XMLID_1794_">
						<g id="XMLID_2781_">
							<path id="XMLID_3174_" class="st12" d="M56,98.9l-2.3,1.3c0,0,0,0-0.1,0l-13.3-7.8c0,0,0-0.1,0-0.1l2.3-1.3c0,0,0,0,0.1,0
								L56,98.8C56,98.8,56,98.9,56,98.9z"/>
						</g>
					</g>
					<g id="XMLID_1722_">
						<g id="XMLID_2777_">
							<path id="XMLID_3169_" class="st3" d="M53.6,99.6l-0.2-0.1l-13.5-7.9l0-0.2c0-0.1,0.1-0.3,0.2-0.3l2.5-1.4l0.2,0.1l13.5,7.9
								l0,0.2c0,0.1-0.1,0.3-0.2,0.3L53.6,99.6z M40.8,91.3l12.8,7.5l1.7-1l-12.8-7.5L40.8,91.3z"/>
						</g>
					</g>
				</g>
			</g>
			<g id="XMLID_10473_">
				<g id="XMLID_568_">
					<g id="XMLID_1705_">
						<g id="XMLID_2773_">
							<path id="XMLID_3164_" class="st11" d="M40.1,91.4l0,6.5c0,0,0,0,0,0.1l13.3,7.8c0,0,0.1,0,0.1-0.1l0-6.5c0,0,0,0,0-0.1
								L40.1,91.4C40.2,91.4,40.1,91.4,40.1,91.4z"/>
						</g>
					</g>
					<g id="XMLID_1449_">
						<g id="XMLID_2771_">
							<polygon id="XMLID_3161_" class="st13" points="41.7,92.5 41.6,99.1 42.3,99.1 42.3,92.5 							"/>
						</g>
					</g>
					<g id="XMLID_1450_">
						<g id="XMLID_2769_">
							<polygon id="XMLID_3158_" class="st13" points="46.3,95.1 46.3,101.8 47,101.7 47,95.1 							"/>
						</g>
					</g>
					<g id="XMLID_1706_">
						<g id="XMLID_2765_">
							<path id="XMLID_3153_" class="st3" d="M53.5,106.2c-0.1,0-0.1,0-0.2-0.1l-13.5-7.9l0-0.2l0-6.7l0.4-0.2l0.2,0.1L53.9,99
								l0,0.2l0,6.7l-0.2,0.2C53.7,106.1,53.6,106.2,53.5,106.2z M40.5,97.8l12.8,7.5l0-5.9l-12.8-7.5L40.5,97.8z"/>
						</g>
					</g>
				</g>
			</g>
			<g id="XMLID_10472_">
				<g id="XMLID_567_">
					<g id="XMLID_1701_">
						<g id="XMLID_2761_">
							<path id="XMLID_3148_" class="st14" d="M56,97.9l0,6.5c0,0,0,0,0,0.1l-2.3,1.3c0,0-0.1,0-0.1-0.1l0-6.5c0,0,0,0,0-0.1
								L56,97.9C56,97.8,56,97.9,56,97.9z"/>
						</g>
					</g>
					<g id="XMLID_1702_">
						<g id="XMLID_2757_">
							<path id="XMLID_3143_" class="st3" d="M53.7,106.2l-0.2-0.1c-0.1-0.1-0.2-0.2-0.2-0.3l0-6.7l0.2-0.2l2.5-1.4l0.2,0.1
								c0.1,0.1,0.2,0.2,0.2,0.3l0,6.7l-0.2,0.2L53.7,106.2z M53.9,99.4l0,5.9l1.7-1l0-5.9L53.9,99.4z"/>
						</g>
					</g>
				</g>
			</g>
		</g>
		<g id="XMLID_10542_">
			<g id="XMLID_564_">
				<g id="XMLID_1697_">
					<g id="XMLID_2752_">
						<polygon id="XMLID_3137_" class="st8" points="55.5,123.6 51.6,121.4 51.6,115.4 55.5,117.7 						"/>
					</g>
				</g>
				<g id="XMLID_1808_">
					<g id="XMLID_2750_">
						<polygon id="XMLID_3134_" class="st2" points="56.8,122.5 52.8,120.2 52.8,114.2 56.8,116.5 						"/>
					</g>
				</g>
				<g id="XMLID_1698_">
					<g id="XMLID_2746_">
						<path id="XMLID_3129_" class="st3" d="M55.9,124.2l-4.6-2.7l0-6.7l4.6,2.7L55.9,124.2z M51.9,121.2l3.3,1.9l0-5.1l-3.3-1.9
							L51.9,121.2z"/>
					</g>
				</g>
			</g>
		</g>
	</g>
	<g id="XMLID_10575_">
		<g id="XMLID_10454_">
			<g id="XMLID_10457_">
				<g id="XMLID_560_">
					<g id="XMLID_1693_">
						<g id="XMLID_2741_">
							<polygon id="XMLID_3081_" class="st6" points="75.8,106.1 75.8,143.2 98.7,156.5 98.8,119.4 							"/>
						</g>
					</g>
					<g id="XMLID_1694_">
						<g id="XMLID_2737_">
							<path id="XMLID_3076_" class="st3" d="M99.1,157.1l-23.6-13.7l0.1-37.9l23.6,13.7L99.1,157.1z M76.1,143l22.3,12.9l0.1-36.3
								l-22.3-12.9L76.1,143z"/>
						</g>
					</g>
				</g>
			</g>
			<g id="XMLID_4906_">
				<g id="XMLID_559_">
					<g id="XMLID_1689_">
						<g id="XMLID_2733_">
							<polygon id="XMLID_3071_" class="st9" points="84.9,112.5 84.9,133.5 97.8,141.1 97.9,120.1 							"/>
						</g>
					</g>
					<g id="XMLID_1690_">
						<g id="XMLID_2729_">
							<path id="XMLID_3066_" class="st3" d="M96.7,142.7l-13.7-7.9l0-21.8l13.7,7.9L96.7,142.7z M83.8,134.3l12.3,7.1l0-20.2
								l-12.3-7.1L83.8,134.3z"/>
						</g>
					</g>
				</g>
			</g>
			<g id="XMLID_10456_">
				<g id="XMLID_558_">
					<g id="XMLID_1685_">
						<g id="XMLID_2725_">
							<polygon id="XMLID_3061_" class="st10" points="75.8,143.2 78.5,141.6 78.5,107.7 75.8,106.1 							"/>
						</g>
					</g>
					<g id="XMLID_1686_">
						<g id="XMLID_2721_">
							<path id="XMLID_3056_" class="st3" d="M75.4,143.2l0.1-37.7l3.4,2l0,34.3l-2.9,1.7C75.7,143.6,75.4,143.5,75.4,143.2z
								 M76.2,106.7l-0.1,35.9l2-1.2l0-33.5L76.2,106.7z"/>
						</g>
					</g>
				</g>
			</g>
			<g id="XMLID_10455_">
				<g id="XMLID_557_">
					<g id="XMLID_452_">
						<g id="XMLID_2717_">
							<polygon id="XMLID_3051_" class="st2" points="98.7,156.5 98.7,153.3 78.5,141.6 75.8,143.2 							"/>
						</g>
					</g>
					<g id="XMLID_1682_">
						<g id="XMLID_2713_">
							<path id="XMLID_3046_" class="st3" d="M99.1,157.1l-23.5-13.6c-0.2-0.1-0.2-0.5,0-0.6l2.9-1.7l20.6,12L99.1,157.1z
								 M76.5,143.2l21.9,12.7l0-2.4L78.5,142L76.5,143.2z"/>
						</g>
					</g>
				</g>
			</g>
		</g>
		<g id="XMLID_10537_">
			<g id="XMLID_451_">
				<g id="XMLID_447_">
					<g id="XMLID_2707_">
						<path id="XMLID_3039_" class="st8" d="M82.5,125.5l4.4,2.5l0-6.8l-4.4-2.5L82.5,125.5z"/>
					</g>
				</g>
				<g id="XMLID_1809_">
					<g id="XMLID_2704_">
						<path id="XMLID_3035_" class="st2" d="M83.8,124l4.4,2.5l0-6.8l-4.4-2.5L83.8,124z"/>
					</g>
				</g>
				<g id="XMLID_1679_">
					<g id="XMLID_2700_">
						<path id="XMLID_3030_" class="st3" d="M87.2,128.7l-5.1-2.9l0-7.6l5.1,2.9L87.2,128.7z M82.8,125.3l3.7,2.1l0-6l-3.7-2.1
							L82.8,125.3z"/>
					</g>
				</g>
			</g>
		</g>
		<g id="XMLID_10539_">
			<g id="XMLID_446_">
				<g id="XMLID_1673_">
					<g id="XMLID_2695_">
						<path id="XMLID_3024_" class="st8" d="M85.2,132.9l5.6,3.2l0-8.6l-5.6-3.2L85.2,132.9z"/>
					</g>
				</g>
				<g id="XMLID_1811_">
					<g id="XMLID_2692_">
						<path id="XMLID_3020_" class="st2" d="M86.4,131.1l5.6,3.2l0-8.6l-5.6-3.2L86.4,131.1z"/>
					</g>
				</g>
				<g id="XMLID_1675_">
					<g id="XMLID_2688_">
						<path id="XMLID_3015_" class="st3" d="M91.1,136.8l-6.3-3.6l0-9.3l6.3,3.6L91.1,136.8z M85.6,132.7l4.9,2.8l0-7.8l-4.9-2.8
							L85.6,132.7z"/>
					</g>
				</g>
			</g>
		</g>
	</g>
	<g id="XMLID_4891_">
		<g id="XMLID_10443_">
			<g id="XMLID_10448_">
				<g id="XMLID_439_">
					<g id="XMLID_1661_">
						<g id="XMLID_2681_">
							<polygon id="XMLID_3009_" class="st6" points="60.9,97.4 60.8,137.8 72.8,144.7 72.9,104.4 							"/>
						</g>
					</g>
					<g id="XMLID_1670_">
						<g id="XMLID_2677_">
							<path id="XMLID_3004_" class="st3" d="M73.2,145.3L60.5,138l0.1-41.2l12.7,7.4L73.2,145.3z M61.2,137.6l11.3,6.6l0.1-39.6
								L61.2,98L61.2,137.6z"/>
						</g>
					</g>
				</g>
			</g>
			<g id="XMLID_10445_">
				<g id="XMLID_438_">
					<g id="XMLID_1657_">
						<g id="XMLID_2673_">
							<path id="XMLID_2999_" class="st10" d="M60.9,137.8l2.7-1.6L63.6,99l-2.7-1.6L60.9,137.8C60.8,137.7,60.9,137.8,60.9,137.8z"
								/>
						</g>
					</g>
					<g id="XMLID_1658_">
						<g id="XMLID_2664_">
							<path id="XMLID_2994_" class="st3" d="M60.9,138.1l-0.4-0.2l0-0.2l0.1-40.9l3.4,2l-0.1,37.5L60.9,138.1z M61.2,98l-0.1,39.2
								l2-1.2l0.1-36.8L61.2,98z"/>
						</g>
					</g>
				</g>
			</g>
			<g id="XMLID_10444_">
				<g id="XMLID_434_">
					<g id="XMLID_1653_">
						<g id="XMLID_2660_">
							<polygon id="XMLID_2989_" class="st4" points="72.8,144.7 72.8,141.6 63.5,136.1 60.8,137.8 							"/>
						</g>
					</g>
					<g id="XMLID_1654_">
						<g id="XMLID_2656_">
							<path id="XMLID_2950_" class="st3" d="M73.2,145.3l-13-7.6l3.4-2.1l9.6,5.6L73.2,145.3z M61.5,137.8l11,6.4l0-2.4l-9-5.2
								L61.5,137.8z"/>
						</g>
					</g>
				</g>
			</g>
		</g>
	</g>
	<g id="XMLID_11699_">
		<g id="XMLID_10541_">
			<g id="XMLID_10407_">
				<g id="XMLID_10406_">
					<g id="XMLID_417_">
						<g id="XMLID_1642_">
							<g id="XMLID_2650_">
								<path id="XMLID_2943_" class="st9" d="M116.4,116.2l4.6,2.7c0,0,0,0,0.1,0.1l9.1,16.3c0,0,0,0,0,0.1l0,26.2
									c0,0.1-0.1,0.2-0.2,0.1l-13.7-8c0,0-0.1-0.1-0.1-0.1l0.1-37.2C116.2,116.2,116.3,116.1,116.4,116.2z"/>
							</g>
						</g>
						<g id="XMLID_1643_">
							<g id="XMLID_2646_">
								<path id="XMLID_2938_" class="st3" d="M130,161.9c-0.1,0-0.2,0-0.2-0.1l-13.7-8c-0.1-0.1-0.2-0.2-0.2-0.4l0.1-37.2
									c0-0.2,0.1-0.3,0.2-0.4c0.1-0.1,0.3-0.1,0.5,0v0l4.6,2.7c0.1,0,0.1,0.1,0.2,0.2l9.1,16.3c0,0.1,0.1,0.2,0.1,0.2l0,26.2
									c0,0.2-0.1,0.3-0.2,0.4C130.2,161.9,130.1,161.9,130,161.9z M116.5,153.3l13.3,7.7l0-25.7l-9-16.2l-4.3-2.5L116.5,153.3z"/>
							</g>
						</g>
					</g>
				</g>
				<g id="XMLID_4779_">
					<g id="XMLID_416_">
						<g id="XMLID_1638_">
							<g id="XMLID_2642_">
								<path id="XMLID_2933_" class="st9" d="M116.4,115.9l36.5-21.1c0,0,0.1,0,0.1,0l4.6,2.7c0.1,0.1,0.1,0.2,0,0.2l-36.5,21.1
									c0,0-0.1,0-0.1,0l-4.6-2.7C116.3,116.1,116.3,116,116.4,115.9z"/>
							</g>
						</g>
						<g id="XMLID_1797_">
							<g id="XMLID_2640_">
								<path id="XMLID_2930_" class="st15" d="M116.6,117.9l36.5-21.1c0,0,0.1,0,0.1,0l4.6,2.7c0.1,0.1,0.1,0.2,0,0.2l-36.5,21.1
									c0,0-0.1,0-0.1,0l-4.6-2.7C116.5,118.1,116.5,118,116.6,117.9z"/>
							</g>
						</g>
						<g id="XMLID_1639_">
							<g id="XMLID_2636_">
								<path id="XMLID_2925_" class="st3" d="M121.1,119.2c-0.1,0-0.2,0-0.2-0.1l-4.6-2.7c-0.1-0.1-0.2-0.2-0.2-0.4
									c0-0.2,0.1-0.3,0.2-0.4l36.5-21.1c0.1-0.1,0.3-0.1,0.5,0l4.6,2.7c0.1,0.1,0.2,0.2,0.2,0.4c0,0.2-0.1,0.3-0.2,0.4l-36.5,21.1
									C121.2,119.2,121.1,119.2,121.1,119.2z M116.9,116l4.2,2.4l36.1-20.8l-4.2-2.4L116.9,116z"/>
							</g>
						</g>
					</g>
				</g>
				<g id="XMLID_10408_">
					<g id="XMLID_414_">
						<g id="XMLID_1634_">
							<g id="XMLID_2632_">
								<path id="XMLID_2920_" class="st9" d="M121.1,119l9,16.1c0,0.1,0.1,0.1,0.2,0.1l36.5-21.1c0.1,0,0.1-0.1,0.1-0.2l-9-16.1
									c0-0.1-0.1-0.1-0.2-0.1l-36.5,21.1C121.1,118.8,121.1,118.9,121.1,119z"/>
							</g>
						</g>
						<g id="XMLID_1635_">
							<g id="XMLID_2628_">
								<path id="XMLID_2915_" class="st3" d="M130.2,135.5c0,0-0.1,0-0.1,0c-0.1,0-0.2-0.1-0.3-0.2l-9-16.1c-0.1-0.2,0-0.5,0.2-0.6
									l36.5-21.1c0.1-0.1,0.2-0.1,0.4,0c0.1,0,0.2,0.1,0.3,0.2l9,16.1c0.1,0.2,0,0.5-0.2,0.6l-36.5,21.1
									C130.4,135.5,130.3,135.5,130.2,135.5z M121.5,119l8.8,15.8l36.2-20.9l-8.8-15.8L121.5,119z"/>
							</g>
						</g>
					</g>
				</g>
				<g id="XMLID_10409_">
					<g id="XMLID_394_">
						<g id="XMLID_1630_">
							<g id="XMLID_2624_">
								<path id="XMLID_2910_" class="st16" d="M130.3,135.2l36.5-21.1c0.1-0.1,0.2,0,0.2,0.1l0,26.2c0,0,0,0.1-0.1,0.1l-36.5,21
									c-0.1,0.1-0.2,0-0.2-0.1l0-26.1C130.2,135.3,130.2,135.2,130.3,135.2z"/>
							</g>
						</g>
						<g id="XMLID_1631_">
							<g id="XMLID_2620_">
								<path id="XMLID_2902_" class="st3" d="M130.3,161.9c-0.1,0-0.2,0-0.2-0.1c-0.1-0.1-0.2-0.2-0.2-0.4l0-26.1
									c0-0.2,0.1-0.3,0.2-0.4l0,0l36.5-21.1c0.1-0.1,0.3-0.1,0.5,0c0.1,0.1,0.2,0.2,0.2,0.4l0,26.2c0,0.2-0.1,0.3-0.2,0.4
									l-36.5,21C130.5,161.9,130.4,161.9,130.3,161.9z M130.5,135.4l0,25.6l36.1-20.7l0-25.8L130.5,135.4z"/>
							</g>
						</g>
					</g>
				</g>
			</g>
			<g id="XMLID_10446_">
				<g id="XMLID_10468_">
					<g id="XMLID_10479_">
						<g id="XMLID_392_">
							<g id="XMLID_1626_">
								<g id="XMLID_2615_">
									<path id="XMLID_2896_" class="st6" d="M127,136.6l-2.4,1.4c0,0,0,0,0,0l-6.2-3.5c0,0,0-0.1,0-0.1l2.4-1.4c0,0,0,0,0,0
										L127,136.6C127,136.5,127,136.6,127,136.6z"/>
								</g>
							</g>
							<g id="XMLID_238_">
								<g id="XMLID_2613_">
									<path id="XMLID_2893_" class="st2" d="M127,137.9l-2.4,1.4c0,0,0,0,0,0l-6.2-3.5c0,0,0-0.1,0-0.1l2.4-1.4c0,0,0,0,0,0
										L127,137.9C127,137.8,127,137.9,127,137.9z"/>
								</g>
							</g>
							<g id="XMLID_1627_">
								<g id="XMLID_2609_">
									<path id="XMLID_2883_" class="st3" d="M124.6,138.4l-0.2-0.1l-6.3-3.6l0-0.2c0-0.1,0.1-0.3,0.2-0.3l2.6-1.5l0.2,0.1
										l6.3,3.6l0,0.2c0,0.1-0.1,0.3-0.2,0.3L124.6,138.4z M119,134.4l5.6,3.2l1.8-1.1l-5.6-3.2L119,134.4z"/>
								</g>
							</g>
						</g>
					</g>
					<g id="XMLID_10478_">
						<g id="XMLID_391_">
							<g id="XMLID_1622_">
								<g id="XMLID_2605_">
									<path id="XMLID_2876_" class="st4" d="M118.3,134.5l0,10.7c0,0,0,0,0,0l6.2,3.5c0,0,0.1,0,0.1,0l0-10.7c0,0,0,0,0,0
										L118.3,134.5C118.3,134.4,118.3,134.5,118.3,134.5z"/>
								</g>
							</g>
							<g id="XMLID_1623_">
								<g id="XMLID_2601_">
									<path id="XMLID_2864_" class="st3" d="M124.5,149.1c-0.1,0-0.1,0-0.2-0.1l-6.3-3.6l0-0.2l0-10.9l0.4-0.2l0.2,0.1l6.3,3.6
										l0,0.2l0,10.9l-0.2,0.1C124.6,149.1,124.6,149.1,124.5,149.1z M118.6,145l5.6,3.2l0-10l-5.6-3.2L118.6,145z"/>
								</g>
							</g>
						</g>
					</g>
					<g id="XMLID_10477_">
						<g id="XMLID_308_">
							<g id="XMLID_1618_">
								<g id="XMLID_2597_">
									<path id="XMLID_2856_" class="st17" d="M127.1,136.6l0,10.7c0,0,0,0,0,0l-2.4,1.4c0,0-0.1,0-0.1,0l0-10.7c0,0,0,0,0,0
										L127.1,136.6C127,136.6,127.1,136.6,127.1,136.6z"/>
								</g>
							</g>
							<g id="XMLID_1619_">
								<g id="XMLID_2593_">
									<path id="XMLID_2833_" class="st3" d="M124.6,149.2l-0.2-0.1c-0.1-0.1-0.2-0.2-0.2-0.3l0-10.9l0.2-0.1l2.6-1.5l0.2,0.1
										c0.1,0.1,0.2,0.2,0.2,0.3l0,10.9l-0.2,0.1L124.6,149.2z M124.9,138.2l0,10l1.8-1.1l0-10L124.9,138.2z"/>
								</g>
							</g>
						</g>
					</g>
				</g>
			</g>
			<g id="XMLID_4766_">
				<g id="XMLID_4769_">
					<g id="XMLID_4725_">
						<g id="XMLID_4728_">
							<g id="XMLID_257_">
								<g id="XMLID_1614_">
									<g id="XMLID_2587_">
										<path id="XMLID_2824_" class="st2" d="M143,135.3l-8.2,4.7c0,0,0,0,0,0l-1.3-0.8c0,0,0,0,0-0.1l8.2-4.7c0,0,0,0,0,0
											L143,135.3C143.1,135.3,143.1,135.3,143,135.3z"/>
									</g>
								</g>
								<g id="XMLID_1615_">
									<g id="XMLID_2583_">
										<path id="XMLID_2818_" class="st3" d="M134.9,140.4l-0.2-0.1l-1.5-0.9l0-0.2l0-0.2l0.2-0.1l8.3-4.8l0.2,0.1l1.5,0.9l0,0.2
											l0,0.2l-0.2,0.1L134.9,140.4z M134.1,139.2l0.7,0.4l7.6-4.3l-0.7-0.4L134.1,139.2z"/>
									</g>
								</g>
							</g>
						</g>
						<g id="XMLID_4727_">
							<g id="XMLID_256_">
								<g id="XMLID_1610_">
									<g id="XMLID_2579_">
										<path id="XMLID_2811_" class="st17" d="M134.8,140.1l0,13.9c0,0,0,0,0,0l8.2-4.7c0,0,0,0,0,0l0-13.9c0,0,0,0,0,0
											L134.8,140.1C134.8,140,134.8,140,134.8,140.1z"/>
									</g>
								</g>
								<g id="XMLID_1611_">
									<g id="XMLID_2575_">
										<path id="XMLID_2804_" class="st3" d="M134.9,154.4l-0.4-0.2l0-0.2l0-14.1l0.2-0.1l8.3-4.8l0.4,0.2l0,0.2l0,14.1l-0.2,0.1
											L134.9,154.4z M135.2,140.2l0,13.2l7.6-4.3l0-13.2L135.2,140.2z"/>
									</g>
								</g>
							</g>
						</g>
						<g id="XMLID_4726_">
							<g id="XMLID_255_">
								<g id="XMLID_1606_">
									<g id="XMLID_2571_">
										<path id="XMLID_2797_" class="st4" d="M134.8,154l-1.3-0.8c0,0,0,0,0,0l0-13.9c0,0,0,0,0,0l1.3,0.8c0,0,0,0,0,0L134.8,154
											C134.8,154,134.8,154,134.8,154z"/>
									</g>
								</g>
								<g id="XMLID_1607_">
									<g id="XMLID_2567_">
										<path id="XMLID_2790_" class="st3" d="M134.8,154.4l-0.2-0.1l-1.5-0.9l0-0.2l0-14.1l0.4-0.2l0.2,0.1l1.5,0.9l0,0.2l0,14.1
											L134.8,154.4z M133.8,153l0.7,0.4l0-13.2l-0.7-0.4L133.8,153z"/>
									</g>
								</g>
							</g>
						</g>
					</g>
				</g>
			</g>
		</g>
	</g>
	<g id="XMLID_11697_">
		<g id="XMLID_10420_">
			<g id="XMLID_10422_">
				<g id="XMLID_10424_">
					<g id="XMLID_10428_">
						<g id="XMLID_252_">
							<g id="XMLID_1602_">
								<g id="XMLID_2558_">
									<path id="XMLID_2473_" class="st17" d="M153.5,131.7l-2.2-1.3c0,0-0.1,0-0.1,0l-4.3,2.5c0,0-0.1,0.1,0,0.1l1.2,1.3
										c0,0,0,0,0,0l3.6,4.2c0,0,0,0,0,0l1.6,13.5l0.8,7c0,0.1,0.1,0.1,0.1,0.1l4.3-2.5c0,0,0,0,0-0.1l0.1-16.2
										C158.5,137.2,156.3,133.3,153.5,131.7z"/>
								</g>
							</g>
							<g id="XMLID_1603_">
								<g id="XMLID_2554_">
									<path id="XMLID_2262_" class="st3" d="M154.1,159.4c-0.1,0-0.1,0-0.2,0c-0.1-0.1-0.2-0.2-0.2-0.3l-0.8-7l-1.6-13.4
										l-3.5-4.2l-1.2-1.3c-0.1-0.1-0.1-0.2-0.1-0.4c0-0.1,0.1-0.2,0.2-0.3l4.3-2.5c0.1-0.1,0.3-0.1,0.4,0l2.2,1.3
										c2.9,1.7,5.2,5.7,5.2,9l-0.1,16.2c0,0.2-0.1,0.3-0.2,0.4l-4.3,2.5C154.2,159.4,154.1,159.4,154.1,159.4z M147.3,133l1,1.1
										l3.6,4.3l0,0.1l1.6,13.5l0.7,6.6l3.8-2.2l0.1-16c0-3.1-2.2-6.9-4.8-8.4l-2.1-1.2L147.3,133z"/>
								</g>
							</g>
						</g>
					</g>
					<g id="XMLID_10427_">
						<g id="XMLID_247_">
							<g id="XMLID_1598_">
								<g id="XMLID_2550_">
									<path id="XMLID_2220_" class="st1" d="M158.3,138.8C158.3,138.8,158.4,138.8,158.3,138.8c-0.5-2.9-2.5-5.8-4.8-7.1
										l-2.2-1.3c0,0-0.1,0-0.1,0l-4.3,2.5c0,0-0.1,0.1,0,0.1l1.2,1.3c0,0,0,0,0,0l3.6,4.2c0,0,0,0,0,0l0.4,2.8c0,0,0,0.1,0.1,0.1
										l1.1,0.2c0,0,0,0,0.1,0L158.3,138.8z"/>
								</g>
							</g>
							<g id="XMLID_1573_">
								<g id="XMLID_2548_">
									<path id="XMLID_2210_" class="st2" d="M157.4,140.7c0.7-0.4,1-1.2,0.7-1.9c-0.8-2.4-2.5-4.6-4.5-5.8l-2.2-1.3
										c0,0-0.1,0-0.1,0l-4.3,2.5c0,0-0.1,0.1,0,0.1l1.2,1.3c0,0,0,0,0,0l3.6,4.2c0,0,0,0,0,0l0.4,2.8c0,0,0,0.1,0.1,0.1l1.1,0.2
										c0,0,0,0,0.1,0L157.4,140.7z"/>
								</g>
							</g>
							<g id="XMLID_1599_">
								<g id="XMLID_2544_">
									<path id="XMLID_2192_" class="st3" d="M153.4,142l-0.2,0l-1.1-0.2c-0.2,0-0.3-0.2-0.3-0.4l-0.4-2.7l-3.5-4.2l-1.2-1.3
										c-0.1-0.1-0.1-0.2-0.1-0.4c0-0.1,0.1-0.2,0.2-0.3l4.3-2.5c0.1-0.1,0.3-0.1,0.4,0l2.2,1.3c2.3,1.3,4.4,4.3,5,7.3
										c0,0.2,0,0.4-0.2,0.5l0,0L153.4,142z M152.4,141.1l0.8,0.2l4.8-2.7c-0.6-2.7-2.5-5.4-4.6-6.6l-2.1-1.2l-3.9,2.2l1,1.1
										l3.6,4.3l0,0.1L152.4,141.1z"/>
								</g>
							</g>
						</g>
					</g>
					<g id="XMLID_10425_">
						<g id="XMLID_10426_">
							<g id="XMLID_246_">
								<g id="XMLID_1594_">
									<g id="XMLID_2526_">
										<path id="XMLID_2177_" class="st4" d="M153.9,159.1l-2.9-1.7c0,0,0,0,0-0.1l0.1-16.2c0-1.2-0.9-2.8-2-3.4l-2.2-1.3
											c0,0,0,0,0-0.1l0-3.3c0-0.1,0.1-0.1,0.1-0.1l2.1,1.2c2.8,1.6,5,5.5,5,8.7L154,159C154,159.1,153.9,159.1,153.9,159.1z"/>
									</g>
								</g>
								<g id="XMLID_1595_">
									<g id="XMLID_2522_">
										<path id="XMLID_2152_" class="st3" d="M153.9,159.4c-0.1,0-0.1,0-0.2-0.1l0,0l-2.9-1.7c-0.1-0.1-0.2-0.2-0.2-0.4l0.1-16.2
											c0-1.1-0.8-2.5-1.8-3.1l-2.2-1.3c-0.1-0.1-0.2-0.2-0.2-0.4l0-3.3c0-0.2,0.1-0.3,0.2-0.4c0.1-0.1,0.3-0.1,0.4,0l2.1,1.2
											c2.9,1.7,5.2,5.7,5.2,9l-0.1,16.1c0,0.2-0.1,0.3-0.2,0.4C154.1,159.4,154,159.4,153.9,159.4z M151.3,157.2l2.4,1.4
											l0.1-15.6c0-3.1-2.2-6.9-4.8-8.4l-1.8-1l0,2.7l2.1,1.2c1.2,0.7,2.1,2.3,2.1,3.7L151.3,157.2z"/>
									</g>
								</g>
							</g>
						</g>
					</g>
				</g>
			</g>
		</g>
	</g>
	<g id="XMLID_11698_">
		<g id="XMLID_10429_">
			<g id="XMLID_10431_">
				<g id="XMLID_10433_">
					<g id="XMLID_10437_">
						<g id="XMLID_245_">
							<g id="XMLID_1590_">
								<g id="XMLID_2513_">
									<path id="XMLID_2132_" class="st17" d="M164.4,125.4l-2.3-1.3c0,0,0,0,0,0l-4.5,2.5c0,0,0,0,0,0l1.3,1.4l0,0l3.6,4.2
										c0,0,0,0,0,0l1.6,13.5l0.8,7.1c0,0,0,0,0,0l4.5-2.5c0,0,0,0,0,0l0.1-16.2C169.4,130.9,167.2,127,164.4,125.4z"/>
								</g>
							</g>
							<g id="XMLID_1591_">
								<g id="XMLID_2509_">
									<path id="XMLID_2116_" class="st3" d="M164.9,153.2l-0.3-0.2l0-0.2l-0.8-7.1l-1.6-13.4l-3.5-4.2l-1.4-1.5l0.1-0.3l0.1-0.1
										l4.6-2.7l0.2,0.1l2.3,1.3c2.9,1.7,5.2,5.7,5.2,9l-0.1,16.4l-0.2,0.1L164.9,153.2z M158.2,126.7l1,1.1l3.7,4.4l1.6,13.5
										l0.7,6.6l3.9-2.2l0.1-16c0-3.1-2.2-6.9-4.8-8.4l-2.1-1.2L158.2,126.7z"/>
								</g>
							</g>
						</g>
					</g>
					<g id="XMLID_10436_">
						<g id="XMLID_244_">
							<g id="XMLID_1586_">
								<g id="XMLID_2505_">
									<path id="XMLID_2093_" class="st1" d="M169.2,132.5C169.2,132.5,169.2,132.5,169.2,132.5c-0.6-2.8-2.5-5.8-4.8-7.1
										l-2.3-1.3c0,0,0,0,0,0l-4.5,2.5c0,0,0,0,0,0l1.3,1.4l0,0l3.6,4.2c0,0,0,0,0,0l0.4,2.8c0,0,0,0,0,0l1.2,0.2c0,0,0,0,0,0
										L169.2,132.5z"/>
								</g>
							</g>
							<g id="XMLID_1574_">
								<g id="XMLID_2503_">
									<path id="XMLID_2081_" class="st2" d="M168.2,134.5c0.7-0.4,1-1.2,0.7-1.9c-0.8-2.4-2.5-4.7-4.5-5.8l-2.3-1.3c0,0,0,0,0,0
										l-4.5,2.5c0,0,0,0,0,0l1.3,1.4l0,0l3.6,4.2c0,0,0,0,0,0l0.4,2.8c0,0,0,0,0,0l1.2,0.2c0,0,0,0,0,0L168.2,134.5z"/>
								</g>
							</g>
							<g id="XMLID_1587_">
								<g id="XMLID_2499_">
									<path id="XMLID_2065_" class="st3" d="M164.2,135.7L164.2,135.7l-1.5-0.3l0-0.2l-0.4-2.8l-3.5-4.2l-1.4-1.5l0.1-0.3
										l0.1-0.1l4.6-2.7l0.2,0.1l2.3,1.3c2.3,1.4,4.4,4.4,5,7.3l0.1,0.3l-0.2,0.1L164.2,135.7L164.2,135.7z M163.3,134.8l0.8,0.2
										l4.8-2.7c-0.6-2.7-2.5-5.4-4.6-6.6l-2.1-1.2l-3.9,2.2l1,1.1l3.7,4.4L163.3,134.8z"/>
								</g>
							</g>
						</g>
					</g>
					<g id="XMLID_10434_">
						<g id="XMLID_10435_">
							<g id="XMLID_239_">
								<g id="XMLID_1582_">
									<g id="XMLID_2495_">
										<path id="XMLID_1801_" class="st4" d="M164.9,152.8l-3-1.8c0,0,0,0,0,0l0.1-16.2c0-1.2-0.9-2.8-2-3.4l-2.3-1.3
											c0,0,0,0,0,0l0-3.5c0,0,0,0,0,0l2.3,1.3c2.8,1.6,5,5.5,5,8.7L164.9,152.8C164.9,152.8,164.9,152.8,164.9,152.8z"/>
									</g>
								</g>
								<g id="XMLID_1583_">
									<g id="XMLID_2491_">
										<path id="XMLID_1782_" class="st3" d="M164.9,153.2l-0.2-0.1l-3.2-1.9l0-0.2l0.1-16.2c0-1.1-0.8-2.5-1.8-3.1l-2.4-1.4
											l0-0.2l0-3.7l0.3-0.2l0.2,0.1l2.3,1.3c2.9,1.7,5.2,5.7,5.2,9l-0.1,16.4L164.9,153.2z M162.2,150.9l2.4,1.4l0.1-15.6
											c0-3.1-2.2-6.9-4.8-8.4l-1.8-1l0,2.7l2.1,1.2c1.2,0.7,2.1,2.3,2.1,3.7L162.2,150.9z"/>
									</g>
								</g>
							</g>
						</g>
					</g>
				</g>
			</g>
		</g>
	</g>
	<g id="XMLID_978_">
		<g id="XMLID_1430_">
			<g id="XMLID_2888_">
				<path id="XMLID_1769_" class="st18" d="M24.1,122.5l-1.3,0.8c-0.7,0.4-1.5,0.4-2.2,0l-4.6-2.7c-0.5-0.3-0.5-1.1,0-1.4l2-1.2
					c0.2-0.1,0.5-0.1,0.8,0l5.3,3.1C24.6,121.4,24.6,122.1,24.1,122.5z"/>
			</g>
		</g>
		<g id="XMLID_4935_">
			<g id="XMLID_10488_">
				<g id="XMLID_10469_">
					<g id="XMLID_10476_">
						<g id="XMLID_235_">
							<g id="XMLID_1561_">
								<g id="XMLID_2482_">
									<path id="XMLID_1571_" class="st1" d="M22,107.5l-2.3,1.3c0,0,0,0,0,0l-4.4-2.6c0,0,0,0,0,0l2.3-1.3c0,0,0,0,0,0L22,107.5
										C22.1,107.4,22.1,107.5,22,107.5z"/>
								</g>
							</g>
							<g id="XMLID_1813_">
								<g id="XMLID_2480_">
									<path id="XMLID_1567_" class="st2" d="M22,108.5l-2.3,1.3c0,0,0,0,0,0l-4.4-2.6c0,0,0,0,0,0l2.3-1.3c0,0,0,0,0,0L22,108.5
										C22,108.4,22,108.5,22,108.5z"/>
								</g>
							</g>
							<g id="XMLID_1562_">
								<g id="XMLID_2476_">
									<path id="XMLID_1480_" class="st3" d="M19.8,109.2l-0.2-0.1l-4.6-2.6l0-0.4l0.2-0.1l2.5-1.4l0.2,0.1l4.6,2.7l0,0.4
										l-0.2,0.1L19.8,109.2z M16,106.2l3.7,2.2l1.6-1l-3.7-2.2L16,106.2z"/>
								</g>
							</g>
						</g>
					</g>
					<g id="XMLID_10475_">
						<g id="XMLID_234_">
							<g id="XMLID_1557_">
								<g id="XMLID_2472_">
									<path id="XMLID_1473_" class="st4" d="M15.3,106.3l0,12.2c0,0,0,0,0,0l4.4,2.6c0,0,0,0,0,0l0-12.2c0,0,0,0,0,0L15.3,106.3
										C15.3,106.2,15.3,106.3,15.3,106.3z"/>
								</g>
							</g>
							<g id="XMLID_1558_">
								<g id="XMLID_2468_">
									<path id="XMLID_1466_" class="st3" d="M19.7,121.4l-0.2-0.1l-4.6-2.7l0-0.2l0-12.4l0.4-0.2l0.2,0.1l4.6,2.6l0,0.2l0,12.4
										L19.7,121.4z M15.6,118.3l3.7,2.2l0-11.4l-3.7-2.2L15.6,118.3z"/>
								</g>
							</g>
						</g>
					</g>
					<g id="XMLID_10470_">
						<g id="XMLID_233_">
							<g id="XMLID_1553_">
								<g id="XMLID_2464_">
									<path id="XMLID_1459_" class="st5" d="M22.1,107.5l0,12.2c0,0,0,0,0,0l-2.3,1.3c0,0,0,0,0,0l0-12.2c0,0,0,0,0,0L22.1,107.5
										C22.1,107.5,22.1,107.5,22.1,107.5z"/>
								</g>
							</g>
							<g id="XMLID_1554_">
								<g id="XMLID_2460_">
									<path id="XMLID_1447_" class="st3" d="M19.8,121.4l-0.4-0.2l0-0.2l0-12.4l0.2-0.1l2.5-1.4l0.4,0.2l0,0.2l0,12.4l-0.2,0.1
										L19.8,121.4z M20.1,109l0,11.4l1.6-1l0-11.4L20.1,109z"/>
								</g>
							</g>
						</g>
					</g>
				</g>
			</g>
		</g>
	</g>
	<g id="XMLID_980_">
		<g id="XMLID_1427_">
			<g id="XMLID_2891_">
				<path id="XMLID_1224_" class="st18" d="M181.7,131.4l-1.3,0.8c-0.7,0.4-1.5,0.4-2.2,0l-4.6-2.7c-0.5-0.3-0.5-1.1,0-1.4l2-1.2
					c0.2-0.1,0.5-0.1,0.8,0l5.3,3.1C182.2,130.4,182.2,131.1,181.7,131.4z"/>
			</g>
		</g>
		<g id="XMLID_1814_">
			<g id="XMLID_1815_">
				<g id="XMLID_1816_">
					<g id="XMLID_1891_">
						<g id="XMLID_1892_">
							<g id="XMLID_2064_">
								<g id="XMLID_2453_">
									<path id="XMLID_1076_" class="st1" d="M179.6,116.7l-2.3,1.3c0,0,0,0,0,0l-4.4-2.6c0,0,0,0,0,0l2.3-1.3c0,0,0,0,0,0
										L179.6,116.7C179.6,116.7,179.6,116.7,179.6,116.7z"/>
								</g>
							</g>
							<g id="XMLID_2056_">
								<g id="XMLID_2451_">
									<path id="XMLID_1064_" class="st2" d="M179.6,117.7l-2.3,1.3c0,0,0,0,0,0l-4.4-2.6c0,0,0,0,0,0l2.3-1.3c0,0,0,0,0,0
										L179.6,117.7C179.6,117.7,179.6,117.7,179.6,117.7z"/>
								</g>
							</g>
							<g id="XMLID_1894_">
								<g id="XMLID_2447_">
									<path id="XMLID_970_" class="st3" d="M177.3,118.4l-0.2-0.1l-4.6-2.6l0-0.4l0.2-0.1l2.5-1.4l0.2,0.1l4.6,2.7l0,0.4
										l-0.2,0.1L177.3,118.4z M173.6,115.5l3.7,2.2l1.6-1l-3.7-2.2L173.6,115.5z"/>
								</g>
							</g>
						</g>
					</g>
					<g id="XMLID_1876_">
						<g id="XMLID_1877_">
							<g id="XMLID_1881_">
								<g id="XMLID_2443_">
									<path id="XMLID_962_" class="st4" d="M172.9,115.5l0,12.2c0,0,0,0,0,0l4.4,2.6c0,0,0,0,0,0l0-12.2c0,0,0,0,0,0L172.9,115.5
										C172.9,115.5,172.9,115.5,172.9,115.5z"/>
								</g>
							</g>
							<g id="XMLID_1878_">
								<g id="XMLID_2439_">
									<path id="XMLID_956_" class="st3" d="M177.3,130.7l-0.2-0.1l-4.6-2.7l0-0.2l0-12.4l0.4-0.2l0.2,0.1l4.6,2.6l0,0.2l0,12.4
										L177.3,130.7z M173.2,127.5l3.7,2.2l0-11.4l-3.7-2.2L173.2,127.5z"/>
								</g>
							</g>
						</g>
					</g>
					<g id="XMLID_1817_">
						<g id="XMLID_1819_">
							<g id="XMLID_1823_">
								<g id="XMLID_2435_">
									<path id="XMLID_949_" class="st5" d="M179.6,116.7l0,12.2c0,0,0,0,0,0l-2.3,1.3c0,0,0,0,0,0l0-12.2c0,0,0,0,0,0
										L179.6,116.7C179.6,116.7,179.6,116.7,179.6,116.7z"/>
								</g>
							</g>
							<g id="XMLID_1820_">
								<g id="XMLID_2431_">
									<path id="XMLID_942_" class="st3" d="M177.3,130.7l-0.4-0.2l0-0.2l0-12.4l0.2-0.1l2.5-1.4l0.4,0.2l0,0.2l0,12.4l-0.2,0.1
										L177.3,130.7z M177.7,118.2l0,11.4l1.6-1l0-11.4L177.7,118.2z"/>
								</g>
							</g>
						</g>
					</g>
				</g>
			</g>
		</g>
	</g>
	<g id="XMLID_11695_">
		<g id="XMLID_10573_">
			<g id="XMLID_10538_">
				<g id="XMLID_10415_">
					<g id="XMLID_10463_">
						<g id="XMLID_10466_">
							<g id="XMLID_232_">
								<g id="XMLID_1549_">
									<g id="XMLID_2424_">
										<polygon id="XMLID_930_" class="st4" points="98.6,164.2 96.2,165.6 92.8,163.5 95.2,162.1 										"/>
									</g>
								</g>
								<g id="XMLID_1550_">
									<g id="XMLID_2420_">
										<path id="XMLID_923_" class="st3" d="M96.2,166l-4.1-2.5l3.1-1.8l4.1,2.5L96.2,166z M93.5,163.5l2.7,1.7l1.8-1l-2.7-1.7
											L93.5,163.5z"/>
									</g>
								</g>
							</g>
						</g>
						<g id="XMLID_10465_">
							<g id="XMLID_228_">
								<g id="XMLID_1545_">
									<g id="XMLID_2416_">
										<path id="XMLID_916_" class="st9" d="M92.8,163.5l0,5.8c0,0,0,0,0,0l3.4,2c0,0,0,0,0,0l0-5.8c0,0,0,0,0,0L92.8,163.5
											C92.8,163.5,92.8,163.5,92.8,163.5z"/>
									</g>
								</g>
								<g id="XMLID_1546_">
									<g id="XMLID_2412_">
										<path id="XMLID_909_" class="st3" d="M96.2,171.8l-0.2-0.1l-3.5-2.1l0-0.2l0-6l0.4-0.2l0.2,0.1l3.5,2.1l0,0.2l0,6
											L96.2,171.8z M93.1,169.1l2.7,1.6l0-5l-2.7-1.6L93.1,169.1z"/>
									</g>
								</g>
							</g>
						</g>
						<g id="XMLID_10464_">
							<g id="XMLID_227_">
								<g id="XMLID_1541_">
									<g id="XMLID_2408_">
										<path id="XMLID_902_" class="st16" d="M98.6,164.2l0,5.8c0,0,0,0,0,0l-2.4,1.4c0,0,0,0,0,0l0-5.8c0,0,0,0,0,0L98.6,164.2
											C98.6,164.2,98.6,164.2,98.6,164.2z"/>
									</g>
								</g>
								<g id="XMLID_1542_">
									<g id="XMLID_2404_">
										<path id="XMLID_895_" class="st3" d="M96.2,171.8l-0.4-0.2l0-0.2l0-6l0.2-0.1l2.6-1.5l0.4,0.2l0,0.2l0,6l-0.2,0.1
											L96.2,171.8z M96.5,165.8l0,5l1.7-1l0-5L96.5,165.8z"/>
									</g>
								</g>
							</g>
						</g>
					</g>
					<g id="XMLID_10459_">
						<g id="XMLID_10462_">
							<g id="XMLID_225_">
								<g id="XMLID_1537_">
									<g id="XMLID_2399_">
										<path id="XMLID_887_" class="st9" d="M103.9,141.5l-2.4,1.4c0,0,0,0,0,0L88,135c0,0,0,0,0,0l2.4-1.4c0,0,0,0,0,0
											L103.9,141.5C103.9,141.4,103.9,141.4,103.9,141.5z"/>
									</g>
								</g>
								<g id="XMLID_1798_">
									<g id="XMLID_2397_">
										<path id="XMLID_883_" class="st15" d="M103.9,142.6l-2.4,1.4c0,0,0,0,0,0L88,136.1c0,0,0,0,0,0l2.4-1.4c0,0,0,0,0,0
											L103.9,142.6C103.9,142.6,103.9,142.6,103.9,142.6z"/>
									</g>
								</g>
								<g id="XMLID_1538_">
									<g id="XMLID_2393_">
										<path id="XMLID_876_" class="st3" d="M101.5,143.2l-0.2-0.1l-13.6-7.9l0-0.4l0.2-0.1l2.6-1.5l0.2,0.1l13.6,8l0,0.4
											l-0.2,0.1L101.5,143.2z M88.7,135l12.8,7.5l1.7-1L90.4,134L88.7,135z"/>
									</g>
								</g>
							</g>
						</g>
						<g id="XMLID_10461_">
							<g id="XMLID_224_">
								<g id="XMLID_220_">
									<g id="XMLID_2389_">
										<path id="XMLID_869_" class="st9" d="M88,135l0,26.6c0,0,0,0,0,0l13.4,7.9c0,0,0,0,0,0l0-26.6c0,0,0,0,0,0L88,135
											C88,135,88,135,88,135z"/>
									</g>
								</g>
								<g id="XMLID_1534_">
									<g id="XMLID_2385_">
										<path id="XMLID_862_" class="st3" d="M101.4,169.8l-0.2-0.1l-13.6-7.9l0-0.2l0-26.8l0.3-0.2l0.2,0.1l13.6,8l0,0.2l0,26.8
											L101.4,169.8z M88.3,161.4l12.8,7.5l0-25.8l-12.8-7.5L88.3,161.4z"/>
									</g>
								</g>
							</g>
						</g>
						<g id="XMLID_10549_">
							<g id="XMLID_218_">
								<g id="XMLID_1529_">
									<g id="XMLID_2380_">
										<path id="XMLID_853_" class="st19" d="M99.9,166.5l-10.4-6l0-22.7l10.4,6L99.9,166.5z"/>
									</g>
								</g>
								<g id="XMLID_1531_">
									<g id="XMLID_2376_">
										<path id="XMLID_844_" class="st3" d="M100.3,167.1l-11.1-6.4l0-23.5l11.1,6.4L100.3,167.1z M89.8,160.3l9.8,5.7l0-21.9
											l-9.8-5.7L89.8,160.3z"/>
									</g>
								</g>
							</g>
						</g>
						<g id="XMLID_4892_">
							<g id="XMLID_223_">
								<g id="XMLID_1824_">
									<g id="XMLID_2372_">
										<polygon id="XMLID_838_" class="st20" points="91.1,141.2 91.1,156.8 99,161.4 99,145.8 										"/>
									</g>
								</g>
								<g id="XMLID_1526_">
									<g id="XMLID_2368_">
										<path id="XMLID_831_" class="st3" d="M97.7,163.3l-8.6-5l0-16.4l8.6,5L97.7,163.3z M89.8,157.9l7.2,4.2l0-14.8l-7.2-4.2
											L89.8,157.9z"/>
									</g>
								</g>
							</g>
						</g>
						<g id="XMLID_10460_">
							<g id="XMLID_222_">
								<g id="XMLID_1521_">
									<g id="XMLID_2364_">
										<path id="XMLID_824_" class="st16" d="M103.9,141.5l0,26.6c0,0,0,0,0,0l-2.4,1.4c0,0,0,0,0,0l0-26.6c0,0,0,0,0,0
											L103.9,141.5C103.9,141.4,103.9,141.5,103.9,141.5z"/>
									</g>
								</g>
								<g id="XMLID_1522_">
									<g id="XMLID_2360_">
										<path id="XMLID_818_" class="st3" d="M101.4,169.8l-0.4-0.2l0-0.2l0-26.8l0.2-0.1l2.6-1.5l0.4,0.2l0,0.2l0,26.8l-0.2,0.1
											L101.4,169.8z M101.8,143l0,25.8l1.7-1l0-25.8L101.8,143z"/>
									</g>
								</g>
							</g>
						</g>
					</g>
				</g>
			</g>
		</g>
	</g>
	<g id="XMLID_11713_">
		<g id="XMLID_10447_">
			<g id="XMLID_10411_">
				<g id="XMLID_10414_">
					<g id="XMLID_169_">
						<g id="XMLID_1386_">
							<g id="XMLID_2163_">
								<path id="XMLID_803_" class="st16" d="M121.2,88.8l-18.8,10.8c0,0,0,0,0,0L83.5,88.7c0,0,0,0,0-0.1l18.8-10.8c0,0,0,0,0,0
									L121.2,88.8C121.2,88.7,121.2,88.8,121.2,88.8z"/>
							</g>
						</g>
						<g id="XMLID_1792_">
							<g id="XMLID_2161_">
								<path id="XMLID_799_" class="st21" d="M121.2,91l-18.8,10.8c0,0,0,0,0,0L83.5,90.9c0,0,0,0,0-0.1L102.4,80c0,0,0,0,0,0
									L121.2,91C121.2,90.9,121.2,91,121.2,91z"/>
							</g>
						</g>
						<g id="XMLID_1796_">
							<g id="XMLID_2159_">
								<path id="XMLID_795_" class="st15" d="M85.4,89.6l17,9.8c0,0,0,0,0,0l17-9.8l-17-9.8c0,0,0,0,0,0L85.4,89.6z"/>
							</g>
						</g>
						<g id="XMLID_1387_">
							<g id="XMLID_1269_">
								<path id="XMLID_789_" class="st3" d="M102.4,100l-0.2-0.1l-19-11l0-0.4l0.2-0.1l19-10.9l0.2,0.1l19,11l0,0.4l-0.2,0.1
									L102.4,100z M84.2,88.7l18.2,10.5l18.2-10.5l-18.2-10.5L84.2,88.7z"/>
							</g>
						</g>
					</g>
				</g>
				<g id="XMLID_10413_">
					<g id="XMLID_168_">
						<g id="XMLID_1378_">
							<g id="XMLID_1265_">
								<path id="XMLID_782_" class="st20" d="M109.2,84.8c3.8,2.2,3.8,5.7,0,7.9c-3.8,2.2-9.9,2.2-13.7,0c-3.8-2.2-3.8-5.7,0-7.9
									C99.3,82.6,105.4,82.6,109.2,84.8z"/>
							</g>
						</g>
						<g id="XMLID_1795_">
							<g id="XMLID_1263_">
								<path id="XMLID_778_" class="st12" d="M95.5,89.2c-0.9,0.5-1.6,1.1-2,1.7c0.5,0.6,1.1,1.2,2,1.7c3.8,2.2,9.9,2.2,13.7,0
									c0.9-0.5,1.6-1.1,2-1.7c-0.5-0.6-1.1-1.2-2-1.7C105.4,87,99.3,87,95.5,89.2z"/>
							</g>
						</g>
						<g id="XMLID_1379_">
							<g id="XMLID_1259_">
								<path id="XMLID_771_" class="st3" d="M102.4,94.7c-2.5,0-5.1-0.6-7-1.7c-1.9-1.1-3-2.6-3-4.3c0-1.6,1.1-3.1,3-4.3
									c3.9-2.2,10.2-2.2,14.1,0l0,0c1.9,1.1,3,2.6,3,4.3c0,1.6-1.1,3.1-3,4.3C107.5,94.1,104.9,94.7,102.4,94.7z M102.4,83.5
									c-2.4,0-4.8,0.5-6.7,1.6C94,86,93,87.3,93,88.7c0,1.4,0.9,2.7,2.7,3.7c3.7,2.1,9.7,2.1,13.4,0c1.7-1,2.7-2.3,2.7-3.7
									c0-1.4-0.9-2.7-2.7-3.7C107.2,84,104.8,83.5,102.4,83.5z"/>
							</g>
						</g>
						<g id="XMLID_1451_">
							<g id="XMLID_974_">
								<path id="XMLID_765_" class="st13" d="M102.4,90.7c-0.5,0-0.9-0.1-1.3-0.3c-0.4-0.2-0.7-0.6-0.7-1c0-0.4,0.2-0.8,0.7-1
									c0.7-0.4,1.9-0.4,2.6,0c0.4,0.2,0.7,0.6,0.7,1c0,0.4-0.2,0.8-0.7,1C103.4,90.6,102.9,90.7,102.4,90.7z M102.4,88.9
									c-0.3,0-0.6,0.1-0.9,0.2c-0.2,0.1-0.2,0.2-0.2,0.3c0,0.1,0.1,0.2,0.2,0.3c0.5,0.3,1.3,0.3,1.7,0c0.2-0.1,0.2-0.2,0.2-0.3
									c0-0.1-0.1-0.2-0.2-0.3C103.1,89,102.7,88.9,102.4,88.9z"/>
							</g>
						</g>
					</g>
				</g>
				<g id="XMLID_10410_">
					<g id="XMLID_166_">
						<g id="XMLID_1370_">
							<g id="XMLID_1251_">
								<path id="XMLID_757_" class="st9" d="M83.5,88.8l0,6.7c0,0,0,0,0,0l18.8,10.9c0,0,0.1,0,0.1,0l0-6.7c0,0,0,0,0,0L83.5,88.8
									C83.5,88.7,83.5,88.7,83.5,88.8z"/>
							</g>
						</g>
						<g id="XMLID_1371_">
							<g id="XMLID_1247_">
								<path id="XMLID_749_" class="st3" d="M102.3,106.8l-0.2-0.1l-19-11l0-0.2l0-6.9l0.4-0.2l0.2,0.1l19,11l0,0.2l0,6.9
									L102.3,106.8z M83.8,95.3l18.2,10.5l0-6L83.8,89.3L83.8,95.3z"/>
							</g>
						</g>
					</g>
				</g>
				<g id="XMLID_10412_">
					<g id="XMLID_160_">
						<g id="XMLID_1362_">
							<g id="XMLID_1243_">
								<path id="XMLID_735_" class="st16" d="M121.3,88.8l0,6.7c0,0,0,0,0,0l-18.8,10.8c0,0-0.1,0-0.1,0l0-6.7c0,0,0,0,0,0
									L121.3,88.8C121.2,88.8,121.3,88.8,121.3,88.8z"/>
							</g>
						</g>
						<g id="XMLID_1363_">
							<g id="XMLID_1239_">
								<path id="XMLID_728_" class="st3" d="M102.4,106.8l-0.4-0.2l0-0.2l0-6.9l0.2-0.1l19-10.9l0.4,0.2l0,0.2l0,6.9l-0.2,0.1
									L102.4,106.8z M102.7,99.8l0,6l18.2-10.5l0-6L102.7,99.8z"/>
							</g>
						</g>
					</g>
				</g>
				<g id="XMLID_10416_">
					<g id="XMLID_133_">
						<g id="XMLID_1354_">
							<g id="XMLID_1235_">
								<path id="XMLID_722_" class="st20" d="M109.2,84.8c-1.2-0.7-2.7-1.2-4.2-1.4l0,2.5c1.5,0.3,3,0.7,4.2,1.4
									c1.3,0.8,2.2,1.7,2.6,2.7C112.5,88.2,111.7,86.2,109.2,84.8z"/>
							</g>
						</g>
						<g id="XMLID_1359_">
							<g id="XMLID_1231_">
								<path id="XMLID_714_" class="st3" d="M111.8,90.9l-0.3-0.8c-0.4-1-1.2-1.8-2.4-2.5c-1.1-0.7-2.6-1.1-4.1-1.4l-0.3,0l0-3.2
									l0.4,0.1c1.6,0.3,3.1,0.8,4.3,1.5l0,0c2.5,1.5,3.5,3.6,2.7,5.7L111.8,90.9z M105.3,85.6c1.5,0.3,2.9,0.8,4.1,1.4
									c1,0.6,1.8,1.3,2.3,2.1c0.2-1.5-0.8-2.9-2.6-4l0,0c-1-0.6-2.3-1.1-3.7-1.3L105.3,85.6z"/>
							</g>
						</g>
					</g>
				</g>
				<g id="XMLID_10419_">
					<g id="XMLID_132_">
						<g id="XMLID_1346_">
							<g id="XMLID_1227_">
								<path id="XMLID_707_" class="st14" d="M105,83.3c-3.3-0.5-6.9-0.1-9.5,1.4c-2.5,1.4-3.3,3.4-2.6,5.2c0.4-1,1.3-1.9,2.6-2.7
									c2.6-1.5,6.2-1.9,9.5-1.4L105,83.3z"/>
							</g>
						</g>
						<g id="XMLID_1351_">
							<g id="XMLID_1223_">
								<path id="XMLID_700_" class="st3" d="M93.5,90.9l-0.8-0.8c-0.8-2,0.2-4.2,2.7-5.7c2.5-1.5,6.3-2,9.7-1.5l0.3,0l0,3.2
									l-0.4-0.1c-3.3-0.5-6.9,0-9.3,1.4c-1.2,0.7-2.1,1.6-2.4,2.5L93.5,90.9z M102.4,83.5c-2.5,0-4.9,0.6-6.7,1.6
									c-1.9,1.1-2.8,2.5-2.6,4c0.5-0.8,1.3-1.5,2.3-2.1c2.4-1.4,6-2,9.3-1.5l0-1.9C103.9,83.5,103.1,83.5,102.4,83.5z"/>
							</g>
						</g>
					</g>
				</g>
			</g>
		</g>
	</g>
	<g id="XMLID_11714_">
		<g id="XMLID_10458_">
			<g id="XMLID_10480_">
				<g id="XMLID_10486_">
					<g id="XMLID_110_">
						<g id="XMLID_1342_">
							<g id="XMLID_1216_">
								<path id="XMLID_690_" class="st16" d="M105,60.6L75.4,77.7c0,0,0,0,0,0l-10.8-6.2c0,0,0-0.1,0-0.1l29.5-17.1c0,0,0,0,0,0
									L105,60.6C105,60.5,105,60.6,105,60.6z"/>
							</g>
						</g>
						<g id="XMLID_1793_">
							<g id="XMLID_1214_">
								<path id="XMLID_685_" class="st15" d="M105,62.4L75.4,79.5c0,0,0,0,0,0l-10.8-6.2c0,0,0-0.1,0-0.1l29.5-17.1c0,0,0,0,0,0
									L105,62.4C105,62.3,105,62.4,105,62.4z"/>
							</g>
						</g>
						<g id="XMLID_1343_">
							<g id="XMLID_1210_">
								<path id="XMLID_654_" class="st3" d="M75.5,78.1L75.2,78l-11-6.3l0-0.2c0-0.1,0.1-0.3,0.2-0.3L94.1,54l0.2,0.1l11,6.3l0,0.2
									c0,0.1-0.1,0.3-0.2,0.3L75.5,78.1z M65.2,71.5l10.2,5.8l28.9-16.8l-10.2-5.8L65.2,71.5z"/>
							</g>
						</g>
					</g>
				</g>
				<g id="XMLID_10484_">
					<g id="XMLID_108_">
						<g id="XMLID_1335_">
							<g id="XMLID_1206_">
								<path id="XMLID_649_" class="st9" d="M64.5,71.6l0,3.7c0,0,0,0,0,0l10.8,6.2c0,0,0.1,0,0.1,0l0-3.7c0,0,0,0,0,0L64.5,71.6
									C64.5,71.5,64.5,71.6,64.5,71.6z"/>
							</g>
						</g>
						<g id="XMLID_1336_">
							<g id="XMLID_1195_">
								<path id="XMLID_642_" class="st3" d="M75.4,81.8c-0.1,0-0.1,0-0.2-0.1l-11-6.3l0-0.2l0-3.9l0.4-0.2l0.2,0.1l11,6.3l0,0.2
									l0,3.9l-0.2,0.1C75.5,81.8,75.4,81.8,75.4,81.8z M64.8,75.1l10.2,5.8l0-3l-10.2-5.8L64.8,75.1z"/>
							</g>
						</g>
					</g>
				</g>
				<g id="XMLID_10483_">
					<g id="XMLID_104_">
						<g id="XMLID_1329_">
							<g id="XMLID_1191_">
								<path id="XMLID_633_" class="st16" d="M105,60.6l0,3.7c0,0,0,0,0,0L75.5,81.5c0,0-0.1,0-0.1,0l0-3.7c0,0,0,0,0,0L105,60.6
									C105,60.6,105,60.6,105,60.6z"/>
							</g>
						</g>
						<g id="XMLID_1330_">
							<g id="XMLID_1187_">
								<path id="XMLID_627_" class="st3" d="M75.5,81.9l-0.2-0.1c-0.1-0.1-0.2-0.2-0.2-0.3l0-3.9l0.2-0.1L105,60.2l0.2,0.1
									c0.1,0.1,0.2,0.2,0.2,0.3l0,3.9l-0.2,0.1L75.5,81.9z M75.8,77.9l0,3l28.9-16.8l0-3L75.8,77.9z"/>
							</g>
						</g>
					</g>
				</g>
			</g>
		</g>
	</g>
	<g id="XMLID_1424_">
		<g id="XMLID_1041_">
			<path id="XMLID_615_" class="st0" d="M146.9,176.3l-15.6,9c-1.8,1-4,1-5.9,0l-15.6-9c-1.5-0.9-1.5-3.1,0-4l17.4-10
				c0.7-0.4,1.6-0.4,2.3,0l17.3,10C148.4,173.3,148.4,175.5,146.9,176.3z"/>
		</g>
	</g>
	<g id="XMLID_11696_">
		<g id="XMLID_10531_">
			<g id="XMLID_10519_">
				<g id="XMLID_10521_">
					<g id="XMLID_10527_">
						<g id="XMLID_554_">
							<g id="XMLID_1418_">
								<g id="XMLID_1039_">
									<path id="XMLID_610_" class="st1" d="M143.4,163.6l-18.7,10.8c0,0-0.1,0-0.1,0l-18.7-10.8c-0.1,0-0.1-0.1,0-0.2l18.7-10.8
										c0,0,0.1,0,0.1,0l18.7,10.8C143.5,163.4,143.5,163.5,143.4,163.6z"/>
								</g>
							</g>
							<g id="XMLID_237_">
								<g id="XMLID_1037_">
									<path id="XMLID_607_" class="st2" d="M143.4,165.3l-18.7,10.8c0,0-0.1,0-0.1,0l-18.7-10.8c-0.1,0-0.1-0.1,0-0.2l18.7-10.8
										c0,0,0.1,0,0.1,0l18.7,10.8C143.5,165.2,143.5,165.3,143.4,165.3z"/>
								</g>
							</g>
							<g id="XMLID_1419_">
								<g id="XMLID_1033_">
									<path id="XMLID_599_" class="st3" d="M124.6,174.7c-0.1,0-0.2,0-0.2-0.1l-18.7-10.8c-0.1-0.1-0.2-0.2-0.2-0.4
										c0-0.2,0.1-0.3,0.2-0.4l18.7-10.8c0.1-0.1,0.3-0.1,0.4,0l18.7,10.8c0.1,0.1,0.2,0.2,0.2,0.4c0,0.2-0.1,0.3-0.2,0.4l0,0
										l-18.7,10.8C124.8,174.7,124.7,174.7,124.6,174.7z M106.4,163.4l18.2,10.5l18.2-10.5L124.7,153L106.4,163.4z"/>
								</g>
							</g>
						</g>
					</g>
					<g id="XMLID_10526_">
						<g id="XMLID_187_">
							<g id="XMLID_1414_">
								<g id="XMLID_1029_">
									<path id="XMLID_592_" class="st4" d="M131.5,159.5c3.8,2.2,3.8,5.7,0,7.9c-3.8,2.2-9.9,2.2-13.7,0c-3.8-2.2-3.8-5.7,0-7.9
										C121.6,157.3,127.7,157.3,131.5,159.5z"/>
								</g>
							</g>
							<g id="XMLID_236_">
								<g id="XMLID_1027_">
									<path id="XMLID_588_" class="st4" d="M131.4,164.8c3.8,2.2,3.8,5.7,0,7.9c-3.8,2.2-9.9,2.2-13.7,0c-3.8-2.2-3.8-5.7,0-7.9
										C121.4,162.6,127.6,162.6,131.4,164.8z"/>
								</g>
							</g>
							<g id="XMLID_1565_">
								<g id="XMLID_1025_">
									<path id="XMLID_578_" class="st2" d="M131.3,164.4c-3.8-2.2-9.9-2.2-13.7,0c-0.7,0.4-1.3,0.9-1.8,1.4
										c0.5,0.7,1.2,1.3,2.1,1.8c3.8,2.2,9.9,2.2,13.7,0c0.7-0.4,1.3-0.9,1.8-1.4C133,165.5,132.3,164.9,131.3,164.4z"/>
								</g>
							</g>
							<g id="XMLID_1415_">
								<g id="XMLID_1021_">
									<path id="XMLID_563_" class="st3" d="M124.6,169.4c-2.5,0-5.1-0.6-7-1.7c-1.9-1.1-3-2.6-3-4.3c0-1.6,1.1-3.1,3-4.3
										c3.9-2.2,10.2-2.2,14.1,0l0,0c1.9,1.1,3,2.6,3,4.3c0,1.6-1.1,3.1-3,4.3C129.7,168.8,127.2,169.4,124.6,169.4z M124.7,158.2
										c-2.4,0-4.8,0.5-6.7,1.6c-1.7,1-2.7,2.3-2.7,3.7c0,1.4,0.9,2.7,2.7,3.7c3.7,2.1,9.7,2.1,13.4,0c1.7-1,2.7-2.3,2.7-3.7
										c0-1.4-0.9-2.7-2.7-3.7l0,0C129.5,158.7,127.1,158.2,124.7,158.2z"/>
								</g>
							</g>
							<g id="XMLID_1452_">
								<g id="XMLID_971_">
									<path id="XMLID_552_" class="st13" d="M124.6,165.5c-0.5,0-1-0.1-1.4-0.3c-0.5-0.3-0.7-0.7-0.7-1.1c0-0.4,0.3-0.8,0.7-1.1
										c0.8-0.5,2-0.5,2.8,0c0.5,0.3,0.7,0.7,0.7,1.1c0,0.4-0.3,0.8-0.7,1.1C125.7,165.4,125.2,165.5,124.6,165.5z M124.6,163.6
										c-0.4,0-0.7,0.1-1,0.2c-0.2,0.1-0.3,0.2-0.3,0.3c0,0.1,0.1,0.2,0.3,0.3c0.5,0.3,1.4,0.3,2,0c0.2-0.1,0.3-0.2,0.3-0.3
										c0-0.1-0.1-0.2-0.3-0.3v0C125.4,163.7,125,163.6,124.6,163.6z"/>
								</g>
							</g>
						</g>
					</g>
					<g id="XMLID_10525_">
						<g id="XMLID_186_">
							<g id="XMLID_1410_">
								<g id="XMLID_1013_">
									<path id="XMLID_545_" class="st4" d="M105.8,163.6l0,6.6c0,0,0,0.1,0,0.1l18.7,10.8c0.1,0,0.1,0,0.1-0.1l0-6.6
										c0,0,0-0.1,0-0.1l-18.7-10.8C105.8,163.5,105.8,163.5,105.8,163.6z"/>
								</g>
							</g>
							<g id="XMLID_1411_">
								<g id="XMLID_1009_">
									<path id="XMLID_538_" class="st3" d="M124.5,181.4c-0.1,0-0.1,0-0.2-0.1l-18.7-10.8c-0.1-0.1-0.2-0.2-0.2-0.4l0-6.6
										c0-0.2,0.1-0.3,0.2-0.4c0.1-0.1,0.3-0.1,0.4,0l18.7,10.8c0.1,0.1,0.2,0.2,0.2,0.4l0,6.6c0,0.2-0.1,0.3-0.2,0.4
										C124.7,181.4,124.6,181.4,124.5,181.4z M106.1,170l18.2,10.5l0-6L106.1,164L106.1,170z"/>
								</g>
							</g>
						</g>
					</g>
					<g id="XMLID_10524_">
						<g id="XMLID_185_">
							<g id="XMLID_1406_">
								<g id="XMLID_1005_">
									<path id="XMLID_531_" class="st10" d="M143.5,163.6l0,6.6c0,0,0,0.1,0,0.1l-18.7,10.8c-0.1,0-0.1,0-0.1-0.1l0-6.6
										c0,0,0-0.1,0-0.1l18.7-10.8C143.5,163.5,143.5,163.6,143.5,163.6z"/>
								</g>
							</g>
							<g id="XMLID_1407_">
								<g id="XMLID_1001_">
									<path id="XMLID_524_" class="st3" d="M124.7,181.4c-0.1,0-0.1,0-0.2-0.1c-0.1-0.1-0.2-0.2-0.2-0.4l0-6.6
										c0-0.2,0.1-0.3,0.2-0.4l18.7-10.8c0.1-0.1,0.3-0.1,0.4,0c0.1,0.1,0.2,0.2,0.2,0.4l0,6.6c0,0.2-0.1,0.3-0.2,0.4l-18.7,10.8
										C124.9,181.4,124.8,181.4,124.7,181.4z M125,174.6l0,6l18.2-10.5l0-6L125,174.6z"/>
								</g>
							</g>
						</g>
					</g>
					<g id="XMLID_10523_">
						<g id="XMLID_184_">
							<g id="XMLID_1398_">
								<g id="XMLID_997_">
									<path id="XMLID_517_" class="st2" d="M131.5,159.5c-1.2-0.7-2.7-1.2-4.2-1.4l0,2.5c1.5,0.3,3,0.7,4.2,1.4
										c1.3,0.8,2.2,1.7,2.6,2.7C134.8,162.9,134,160.9,131.5,159.5z"/>
								</g>
							</g>
							<g id="XMLID_1399_">
								<g id="XMLID_993_">
									<path id="XMLID_511_" class="st3" d="M133.8,165.6l0-0.7c-0.4-1-1.2-1.8-2.4-2.5c-1.1-0.7-2.6-1.1-4.1-1.4l-0.3,0l0-3.2
										l0.4,0.1c1.6,0.3,3.1,0.8,4.3,1.5l0,0c2.5,1.4,3.5,3.6,2.7,5.7L133.8,165.6z M127.6,160.3c1.5,0.3,2.9,0.8,4.1,1.4
										c1,0.6,1.8,1.3,2.3,2.1c0.2-1.5-0.8-2.9-2.6-4l0,0c-1-0.6-2.3-1.1-3.7-1.3L127.6,160.3z"/>
								</g>
							</g>
						</g>
					</g>
					<g id="XMLID_10522_">
						<g id="XMLID_171_">
							<g id="XMLID_1390_">
								<g id="XMLID_989_">
									<path id="XMLID_505_" class="st10" d="M127.3,158.1c-3.3-0.5-6.9-0.1-9.5,1.4c-2.5,1.4-3.3,3.4-2.6,5.2
										c0.4-1,1.3-1.9,2.6-2.7c2.6-1.5,6.2-1.9,9.5-1.4L127.3,158.1z"/>
								</g>
							</g>
							<g id="XMLID_1395_">
								<g id="XMLID_985_">
									<path id="XMLID_498_" class="st3" d="M115.7,165.6l-0.8-0.7c-0.8-2,0.2-4.2,2.7-5.7c2.5-1.5,6.3-2,9.7-1.5l0.3,0l0,3.2
										l-0.4-0.1c-3.3-0.5-6.9,0-9.3,1.4c-1.2,0.7-2.1,1.6-2.4,2.5L115.7,165.6z M124.7,158.2c-2.5,0-4.9,0.6-6.7,1.6
										c-1.9,1.1-2.8,2.5-2.6,4c0.5-0.8,1.3-1.5,2.3-2c2.4-1.4,6-2,9.3-1.5l0-1.9C126.2,158.3,125.4,158.2,124.7,158.2z"/>
								</g>
							</g>
						</g>
					</g>
				</g>
			</g>
		</g>
	</g>
	<g id="XMLID_983_">
		<g id="XMLID_1030_">
			<g id="XMLID_1031_">
				<path id="XMLID_486_" class="st0" d="M214.3,122.6l-12,6.8c-1.6,0.9-3.6,0.9-5.2,0l-9.1-5.2c-1-0.6-1-2,0-2.6l13.9-7.9
					c0.5-0.3,1-0.3,1.5,0l11,6.2C215.3,120.6,215.3,122,214.3,122.6z"/>
			</g>
		</g>
		<g id="XMLID_984_">
			<g id="XMLID_991_">
				<g id="XMLID_992_">
					<g id="XMLID_994_">
						<g id="XMLID_1016_">
							<g id="XMLID_1017_">
								<g id="XMLID_1026_">
									<g id="XMLID_1028_">
										<path id="XMLID_481_" class="st9" d="M211.6,114.3l-13.7,7.8c0,0,0,0-0.1,0l-11.3-6.4c0,0,0-0.1,0-0.1l13.7-7.8
											c0,0,0,0,0.1,0L211.6,114.3C211.7,114.3,211.7,114.3,211.6,114.3z"/>
									</g>
								</g>
								<g id="XMLID_1023_">
									<g id="XMLID_1024_">
										<path id="XMLID_477_" class="st15" d="M211.6,116.2l-13.7,7.8c0,0,0,0-0.1,0l-11.3-6.4c0,0,0-0.1,0-0.1l13.7-7.8
											c0,0,0,0,0.1,0L211.6,116.2C211.7,116.2,211.7,116.2,211.6,116.2z"/>
									</g>
								</g>
								<g id="XMLID_1018_">
									<g id="XMLID_1019_">
										<path id="XMLID_471_" class="st3" d="M198,122.5l-0.2-0.1l-11.5-6.5l0-0.3c0-0.1,0.1-0.3,0.2-0.4l13.8-7.9l0.2,0.1
											L212,114l0,0.3c0,0.1-0.1,0.3-0.2,0.4L198,122.5z M187.3,115.6l10.7,6.1l13.1-7.4l-10.7-6.1L187.3,115.6z"/>
									</g>
								</g>
							</g>
						</g>
						<g id="XMLID_1006_">
							<g id="XMLID_1007_">
								<g id="XMLID_1014_">
									<g id="XMLID_1015_">
										<path id="XMLID_464_" class="st9" d="M186.5,115.7l0,3.8c0,0,0,0,0,0l11.3,6.4c0,0,0.1,0,0.1,0l0-3.8c0,0,0,0,0,0
											L186.5,115.7C186.6,115.7,186.5,115.7,186.5,115.7z"/>
									</g>
								</g>
								<g id="XMLID_1008_">
									<g id="XMLID_1010_">
										<path id="XMLID_457_" class="st3" d="M197.9,126.4c-0.1,0-0.1,0-0.2-0.1l-11.5-6.5l0-0.3l0-4l0.4-0.3l0.2,0.1l11.5,6.5
											l0,0.3l0,4l-0.2,0.2C198,126.4,197.9,126.4,197.9,126.4z M186.9,119.4l10.7,6.1l0-3.1l-10.7-6.1L186.9,119.4z"/>
									</g>
								</g>
							</g>
						</g>
						<g id="XMLID_995_">
							<g id="XMLID_996_">
								<g id="XMLID_1003_">
									<g id="XMLID_1004_">
										<path id="XMLID_448_" class="st16" d="M211.7,114.4l0,3.8c0,0,0,0,0,0L198,126c0,0-0.1,0-0.1,0l0-3.8c0,0,0,0,0,0
											L211.7,114.4C211.7,114.3,211.7,114.4,211.7,114.4z"/>
									</g>
								</g>
								<g id="XMLID_998_">
									<g id="XMLID_999_">
										<path id="XMLID_437_" class="st3" d="M198,126.4l-0.2-0.1c-0.1-0.1-0.2-0.2-0.2-0.4l0-4l0.2-0.2l13.8-7.9l0.2,0.1
											c0.1,0.1,0.2,0.2,0.2,0.4l0,4l-0.2,0.2L198,126.4z M198.3,122.3l0,3.1l13.1-7.4l0-3.1L198.3,122.3z"/>
									</g>
								</g>
							</g>
						</g>
					</g>
				</g>
			</g>
			<g id="XMLID_988_">
				<g id="XMLID_990_">
					<path id="XMLID_426_" class="st3" d="M198.6,119.4c-0.4,0.2-1,0.2-1.3,0c-0.4-0.2-0.4-0.6,0-0.8c0.4-0.2,1-0.2,1.3,0
						C199,118.9,199,119.2,198.6,119.4z"/>
				</g>
			</g>
			<g id="XMLID_986_">
				<g id="XMLID_987_">
					
						<ellipse id="XMLID_422_" transform="matrix(1.418277e-03 -1 1 1.418277e-03 89.004 310.9132)" class="st3" cx="200.2" cy="110.9" rx="0.5" ry="0.9"/>
				</g>
			</g>
		</g>
	</g>
</g>
</svg>
