<?xml version="1.0" encoding="utf-8"?>
<!-- Generator: Adobe Illustrator 23.0.1, SVG Export Plug-In . SVG Version: 6.00 Build 0)  -->
<svg version="1.1" id="Layer_1" xmlns="http://www.w3.org/2000/svg" xmlns:xlink="http://www.w3.org/1999/xlink" x="0px" y="0px"
	 viewBox="0 0 230 230" style="enable-background:new 0 0 230 230;" xml:space="preserve">
<style type="text/css">
	.st0{fill:#D3D3D3;}
	.st1{fill:#837FCB;}
	.st2{fill:#9F9FDD;}
	.st3{fill:#414242;}
	.st4{fill:#6F6FB2;}
	.st5{fill:#D5D5D5;}
	.st6{fill:#DFDFDF;}
	.st7{fill:#A5A5A5;}
	.st8{fill:#FFFFFF;}
	.st9{fill:#D4D4D4;}
	.st10{fill:#F2F2F2;}
	.st11{fill:#A4A4A4;}
	.st12{fill:#F1F1F1;}
</style>
<g>
	<g id="XMLID_1297_">
		<g id="XMLID_2724_">
			<path id="XMLID_5904_" class="st0" d="M48,149.8l-1.9,1.1c-1,0.6-2.2,0.6-3.1,0l-6.5-3.8c-0.7-0.4-0.7-1.5,0-1.9l2.9-1.7
				c0.3-0.2,0.8-0.2,1.1,0l7.5,4.3C48.8,148.3,48.8,149.3,48,149.8z"/>
		</g>
		<g id="XMLID_1298_">
			<g id="XMLID_1299_">
				<g id="XMLID_1300_">
					<g id="XMLID_2596_">
						<g id="XMLID_2598_">
							<g id="XMLID_2604_">
								<path id="XMLID_5902_" class="st1" d="M45.1,128.6l-3.2,1.9c0,0,0,0,0,0l-6.2-3.6c0,0,0,0,0,0l3.2-1.9c0,0,0,0,0,0
									L45.1,128.6C45.1,128.6,45.1,128.6,45.1,128.6z"/>
							</g>
							<g id="XMLID_2603_">
								<path id="XMLID_5900_" class="st2" d="M45.1,130l-3.2,1.9c0,0,0,0,0,0l-6.2-3.6c0,0,0,0,0,0l3.2-1.9c0,0,0,0,0,0L45.1,130
									C45.1,130,45.1,130,45.1,130z"/>
							</g>
							<g id="XMLID_2599_">
								<path id="XMLID_5896_" class="st3" d="M41.9,131.1l-0.3-0.1l-6.4-3.7l0-0.6l0.2-0.2l3.5-2l0.3,0.1l6.4,3.7l0,0.6l-0.3,0.2
									L41.9,131.1z M36.6,126.9l5.3,3.1l2.3-1.3l-5.3-3.1L36.6,126.9z"/>
							</g>
						</g>
					</g>
					<g id="XMLID_1426_">
						<g id="XMLID_1448_">
							<g id="XMLID_2595_">
								<path id="XMLID_5892_" class="st1" d="M35.6,126.9l0,17.2c0,0,0,0,0,0l6.2,3.6c0,0,0,0,0,0l0-17.2c0,0,0,0,0,0L35.6,126.9
									C35.6,126.9,35.6,126.9,35.6,126.9z"/>
							</g>
							<g id="XMLID_2155_">
								<path id="XMLID_5888_" class="st3" d="M41.8,148.3l-0.3-0.1l-6.4-3.7l0-0.3l0-17.5l0.5-0.3l0.3,0.1l6.4,3.7l0,0.3l0,17.5
									L41.8,148.3z M36.1,143.9l5.3,3.1l0-16.1l-5.3-3.1L36.1,143.9z"/>
							</g>
						</g>
					</g>
					<g id="XMLID_1301_">
						<g id="XMLID_1302_">
							<g id="XMLID_1306_">
								<path id="XMLID_5884_" class="st4" d="M45.2,128.7l0,17.2c0,0,0,0,0,0l-3.2,1.9c0,0,0,0,0,0l0-17.2c0,0,0,0,0,0L45.2,128.7
									C45.1,128.6,45.2,128.6,45.2,128.7z"/>
							</g>
							<g id="XMLID_1303_">
								<path id="XMLID_5880_" class="st3" d="M41.9,148.3l-0.5-0.3l0-0.3l0-17.5l0.3-0.2l3.5-2l0.5,0.3l0,0.3l0,17.5l-0.3,0.2
									L41.9,148.3z M42.3,130.8l0,16.1l2.3-1.3l0-16.1L42.3,130.8z"/>
							</g>
						</g>
					</g>
				</g>
			</g>
		</g>
	</g>
	<g id="XMLID_3404_">
		<g id="XMLID_12_">
			<g id="XMLID_3400_">
				<path id="XMLID_4781_" class="st5" d="M191.2,151l-61.6,35.6c-2.6,1.5-5.8,1.5-8.4,0l-62.7-36.4c-1.8-1-1.8-3.6,0-4.6l64.5-37.3
					c0.8-0.5,1.8-0.5,2.6,0l65.3,37.9C192.7,147.3,193,150,191.2,151z"/>
			</g>
		</g>
		<g id="XMLID_47_">
			<g id="XMLID_5393_">
				<path id="XMLID_4777_" class="st6" d="M62.7,119.2l-0.1-35.7l116.9-1.6l0.1,61.4c0.1,0.7-0.2,1.4-1.1,1.9l-55.7,31.9
					c-1.7,1-4.6,0.9-6.6-0.3l-51.9-30.1C63.2,146.1,62.7,120,62.7,119.2z"/>
			</g>
			<g id="XMLID_5389_">
				<polygon id="XMLID_4775_" class="st7" points="119.7,118 119.6,177.7 122.8,177.1 179.6,144.4 179.4,84.6 122,117.7 				"/>
			</g>
			<g id="XMLID_5390_">
				<path id="XMLID_4771_" class="st3" d="M119.9,178.1c-1.4,0-2.8-0.3-3.9-1L64.1,147c-1.4-0.8-1.7-27.1-1.8-27.9h0l-0.1-36.1
					l117.6-1.6l0.1,61.7c0.2,0.8-0.3,1.7-1.3,2.2L123,177.4C122.2,177.8,121.1,178.1,119.9,178.1z M63,83.8l0.1,35.4l0,0
					c-0.1,1.3,0.5,26.4,1.4,27.2l51.9,30.1c1.9,1.1,4.7,1.2,6.2,0.3l55.7-31.9c0.7-0.4,1-1,0.9-1.6l-0.1-61.1L63,83.8z"/>
			</g>
			<g id="XMLID_5383_">
				<g id="XMLID_5387_">
					<path id="XMLID_4768_" class="st6" d="M122.7,115.7l55.7-31.9c1.7-1,1.5-2.7-0.5-3.8L126,49.9c-2-1.1-4.9-1.2-6.6-0.3
						L63.7,81.5c-1.7,1-1.5,2.7,0.5,3.8l51.9,30.1C118.1,116.5,121,116.7,122.7,115.7z"/>
				</g>
				<g id="XMLID_5384_">
					<path id="XMLID_4763_" class="st3" d="M119.8,116.7c-1.4,0-2.8-0.3-3.9-1L64,85.7c-1.1-0.7-1.8-1.5-1.8-2.5
						c0-0.8,0.5-1.5,1.3-2l55.7-31.9c1.8-1,4.9-0.9,6.9,0.3l51.9,30.1c1.1,0.7,1.8,1.5,1.8,2.5c0,0.8-0.5,1.5-1.3,2L122.9,116
						C122.1,116.5,121,116.7,119.8,116.7z M122.3,49.4c-1,0-2,0.2-2.7,0.6L63.9,81.8c-0.6,0.4-1,0.8-1,1.3c0,0.6,0.5,1.3,1.4,1.8
						l51.9,30.1c1.9,1.1,4.7,1.2,6.2,0.3l0,0l55.7-31.9c0.6-0.4,1-0.8,1-1.3c0-0.6-0.5-1.3-1.4-1.8l-51.9-30.1
						C124.8,49.7,123.5,49.4,122.3,49.4z"/>
				</g>
			</g>
			<g id="XMLID_5382_">
				<path id="XMLID_4760_" class="st6" d="M62.6,76.9c0.1,0.7,0.6,1.4,1.6,1.9l51.9,30.1c2,1.1,4.9,1.2,6.6,0.3l55.7-31.9
					c0.6-0.4,1-0.9,1.1-1.4l0,7.7c0.1,0.7-0.2,1.4-1.1,1.9l-55.7,31.9c-1.7,1-4.6,0.9-6.6-0.3L64.2,87.1c-1.1-0.7-1.7-1.5-1.6-2.3
					L62.6,76.9L62.6,76.9z"/>
			</g>
			<g id="XMLID_5375_">
				<path id="XMLID_4756_" class="st6" d="M63.7,75.1l55.7-31.9c1.7-1,4.6-0.9,6.6,0.3l51.9,30.1c2,1.1,2.2,2.8,0.5,3.8l-55.7,31.9
					c-1.7,1-4.6,0.9-6.6-0.3L64.2,78.9C62.2,77.8,62,76.1,63.7,75.1z M70.7,78.4l46.3,26.8c1.6,0.9,4,1,5.4,0.2L172.2,77
					c1.4-0.8,1.2-2.2-0.4-3.1l-46.3-26.8c-1.6-0.9-4-1-5.4-0.2L70.3,75.3C69,76.1,69.1,77.5,70.7,78.4z"/>
			</g>
			<g id="XMLID_5374_">
				<path id="XMLID_4754_" class="st8" d="M120.1,60.4L82.8,81.7l37.5,21.7c1.6,0.9,4,1,5.4,0.2L163.6,82l-36.9-21.4
					C124.7,59.5,121.8,59.4,120.1,60.4z"/>
			</g>
			<g id="XMLID_5371_">
				<path id="XMLID_4750_" class="st8" d="M126,45.1c-2-1.1-4.9-1.2-6.6-0.3L63.7,76.7c-0.5,0.3-0.8,0.6-0.9,0.9
					c0.3,0.5,0.7,0.9,1.4,1.3l51.9,30.1c2,1.1,4.9,1.2,6.6,0.3l55.7-31.9c0.5-0.3,0.8-0.6,0.9-0.9c-0.3-0.5-0.7-0.9-1.4-1.3
					L126,45.1z M172.2,78.5L122.4,107c-1.4,0.8-3.8,0.7-5.4-0.2L70.7,79.9c-1.2-0.7-1.6-1.7-1.1-2.5c-0.5-0.8-0.3-1.6,0.6-2.2
					l49.8-28.4c1.4-0.8,3.8-0.7,5.4,0.2l46.3,26.8c1.2,0.7,1.6,1.7,1.1,2.5C173.3,77.2,173.1,78,172.2,78.5z"/>
			</g>
			<g id="XMLID_5364_">
				<path id="XMLID_4748_" class="st6" d="M70.3,75.3l49.8-28.4c1.4-0.8,3.8-0.7,5.4,0.2l46.3,26.8c1.6,0.9,1.8,2.3,0.4,3.1
					l-5.9,3.4l-40.4-23.4c-1.6-0.9-4-1-5.4-0.2l-43.8,25l-5.9-3.4C69.1,77.5,69,76.1,70.3,75.3z"/>
			</g>
			<g id="XMLID_5347_">
				<g id="XMLID_5353_">
					<g id="XMLID_5357_">
						<polygon id="XMLID_4746_" class="st6" points="167.8,147.4 167.9,114.7 125.7,138.9 125.7,171.7 						"/>
					</g>
					<g id="XMLID_5354_">
						<path id="XMLID_4742_" class="st3" d="M125.4,172.2l0-33.4l0.1-0.1l42.5-24.5l0,33.3l-0.1,0.1L125.4,172.2z M126,139.1l0,32.2
							l41.6-24l0-32.1L126,139.1z"/>
					</g>
				</g>
				<g id="XMLID_5348_">
					<g id="XMLID_5352_">
						<polygon id="XMLID_4739_" class="st6" points="167,146.8 167,115.1 167.9,114.7 167.8,147.4 125.7,171.7 125.7,170.6 						
							"/>
					</g>
					<g id="XMLID_5349_">
						<path id="XMLID_4735_" class="st3" d="M125.4,172.2l0-1.7l0.1-0.1l41.2-23.8l0-31.6l1.4-0.8l0,33.3l-0.1,0.1L125.4,172.2z
							 M126,170.8l0,0.4l41.6-24l0-32.1l-0.3,0.2l0,31.6l-0.1,0.1L126,170.8z"/>
					</g>
				</g>
			</g>
			<g id="XMLID_5298_">
				<g id="XMLID_5304_">
					<g id="XMLID_5308_">
						<polygon id="XMLID_4731_" class="st6" points="176.3,142.6 176.4,110.1 170.7,113.3 170.6,145.9 						"/>
					</g>
					<g id="XMLID_5305_">
						<path id="XMLID_4723_" class="st3" d="M170.3,146.4l0-33.2l6.2-3.5l0,33.1L170.3,146.4z M170.9,113.5l0,32l5.2-3l0-31.9
							L170.9,113.5z"/>
					</g>
				</g>
				<g id="XMLID_5299_">
					<g id="XMLID_5303_">
						<polygon id="XMLID_4720_" class="st6" points="175.5,142 175.5,110.6 176.4,110.1 176.3,142.6 170.6,145.9 170.6,144.9 						
							"/>
					</g>
					<g id="XMLID_5300_">
						<path id="XMLID_4716_" class="st3" d="M170.3,146.4l0-1.7l4.9-2.9l0-31.4l1.4-0.8l0,33.1L170.3,146.4z M170.9,145l0,0.4l5.2-3
							l0-31.9l-0.3,0.2l0,31.4L170.9,145z"/>
					</g>
				</g>
			</g>
			<g id="XMLID_5286_">
				<g id="XMLID_5294_">
					<g id="XMLID_5295_">
						<path id="XMLID_4710_" class="st3" d="M99,165.3l-7.9-4.7l0-29.9l7.9,4.4L99,165.3z M91.6,160.4l6.9,4l0-28.8l-6.9-3.8
							L91.6,160.4z"/>
					</g>
				</g>
				<g id="XMLID_5289_">
					<g id="XMLID_5293_">
						<polygon id="XMLID_4707_" class="st6" points="92.3,131.6 92.3,159.8 98.7,163.5 98.7,164.8 91.3,160.5 91.3,131 						"/>
					</g>
					<g id="XMLID_5290_">
						<path id="XMLID_4703_" class="st3" d="M99,165.3l-7.9-4.7l0-30.1l1.5,0.8l0,28.2l6.4,3.7L99,165.3z M91.6,160.4l6.9,4l0-0.7
							l-6.4-3.7l0-28.2l-0.5-0.3L91.6,160.4z"/>
					</g>
				</g>
				<g id="XMLID_5287_">
					<g id="XMLID_5288_">
						<polygon id="XMLID_4700_" class="st6" points="98.7,146 98.7,147.4 92.7,144.1 92.7,142.6 						"/>
					</g>
				</g>
			</g>
			<g id="XMLID_5276_">
				<g id="XMLID_5282_">
					<g id="XMLID_5283_">
						<path id="XMLID_4694_" class="st3" d="M106.3,169.7l-7.9-4.7l0-30.1l7.9,4.4L106.3,169.7z M99,164.7l6.9,4l0-29.1l-6.9-3.8
							L99,164.7z"/>
					</g>
				</g>
				<g id="XMLID_5277_">
					<g id="XMLID_5281_">
						<polygon id="XMLID_4691_" class="st6" points="99.7,135.9 99.7,164.2 106.1,167.9 106.1,169.2 98.7,164.9 98.7,135.4 						
							"/>
					</g>
					<g id="XMLID_5278_">
						<path id="XMLID_4687_" class="st3" d="M106.3,169.7l-7.9-4.7l0-30.1l1.5,0.8l0,28.2l6.4,3.7L106.3,169.7z M99,164.7l6.9,4
							l0-0.7l-6.4-3.7l0-28.2l-0.5-0.3L99,164.7z"/>
					</g>
				</g>
			</g>
			<g id="XMLID_5209_">
				<g id="XMLID_5224_">
					<polygon id="XMLID_4683_" class="st6" points="110.8,132.5 100.6,126.6 100.6,117.8 110.8,123.7 					"/>
				</g>
				<g id="XMLID_5223_">
					<polygon id="XMLID_4681_" class="st6" points="100.6,117.8 103.8,116.1 114,122 110.8,123.7 					"/>
				</g>
				<g id="XMLID_5222_">
					<polygon id="XMLID_4679_" class="st8" points="102,118.5 103.8,117.6 114,123.5 112.2,124.4 					"/>
				</g>
				<g id="XMLID_5215_">
					<g id="XMLID_5221_">
						<polygon id="XMLID_4677_" class="st7" points="110.8,132.5 114,130.8 114,122 110.8,123.7 						"/>
					</g>
					<g id="XMLID_5216_">
						<path id="XMLID_4671_" class="st3" d="M114.3,121.8l-10.5-6.1l-3.6,1.9l0,9.2l10.5,6.1l3.6-1.9L114.3,121.8z M103.8,116.5
							l9.5,5.5l-1.9,1l-0.6,0.3l-9.5-5.5L103.8,116.5z M100.9,126.4l0-8l9.5,5.5l0,8L100.9,126.4z M113.6,130.6l-2.5,1.4l0-8
							l0.6-0.3l1.9-1L113.6,130.6z"/>
					</g>
				</g>
				<g id="XMLID_5210_">
					<g id="XMLID_5214_">
						<path id="XMLID_4668_" class="st8" d="M109.2,127.7c0,1.6-1.1,2.2-2.4,1.4c-1.3-0.8-2.4-2.7-2.4-4.2c0-1.6,1.1-2.2,2.4-1.4
							C108.1,124.3,109.2,126.1,109.2,127.7z"/>
					</g>
					<g id="XMLID_5211_">
						<path id="XMLID_4664_" class="st3" d="M106.7,128.7c-0.4,0-0.8-0.1-1.3-0.4c-1.5-0.8-2.6-2.8-2.6-4.5c0-0.9,0.3-1.6,0.9-1.9
							c0.6-0.3,1.3-0.3,2.1,0.2c1.5,0.9,2.6,2.8,2.6,4.5c0,0.9-0.3,1.6-0.9,1.9C107.3,128.6,107,128.7,106.7,128.7z M104.5,122.4
							c-0.2,0-0.3,0-0.5,0.1c-0.3,0.2-0.5,0.7-0.5,1.3c0,1.4,1,3.2,2.3,3.9c0.5,0.3,1,0.4,1.4,0.2c0.3-0.2,0.5-0.7,0.5-1.3
							c0-1.4-1-3.2-2.3-3.9C105.1,122.5,104.8,122.4,104.5,122.4z"/>
					</g>
				</g>
			</g>
			<g id="XMLID_5208_">
				<polygon id="XMLID_4660_" class="st7" points="122.5,46.3 122.4,56.3 121.3,56.5 76.6,81.8 70.3,78.1 69.4,76.9 69.9,75.5 
					120.1,46.9 				"/>
			</g>
			<g id="XMLID_5207_">
				<polygon id="XMLID_4658_" class="st7" points="119.7,109.9 119.7,118 122.4,117.6 179,85 179.5,84.1 179.2,76.6 122.7,109.3 
					121.2,109.8 				"/>
			</g>
			<g id="XMLID_46_">
				<g id="XMLID_5206_">
					<path id="XMLID_4656_" class="st6" d="M133.7,175.7l-0.9,3.1c0,0-0.6,0.6-1.3,0.6c-0.8,0-1.3-0.6-1.3-0.6l-1-2.9L133.7,175.7z"
						/>
				</g>
				<g id="XMLID_5195_">
					<polygon id="XMLID_4654_" class="st7" points="131.6,176.6 131.4,179.3 132.8,178.9 133.4,176 					"/>
				</g>
				<g id="XMLID_5203_">
					<path id="XMLID_4650_" class="st3" d="M131.4,179.6c-0.9,0-1.6-0.6-1.6-0.7l-0.1-0.1l-1.2-3.4l5.5-0.2l-1.1,3.6L133,179
						C133,179,132.3,179.7,131.4,179.6z M130.4,178.5c0.1,0.1,0.5,0.4,1,0.4c0.5,0,0.9-0.3,1-0.4l0.7-2.5l-3.6,0.1L130.4,178.5z"/>
				</g>
				<g id="XMLID_5196_">
					<g id="XMLID_5201_">
						<path id="XMLID_4648_" class="st6" d="M127.8,171.9L127.8,171.9l2.1-8.1l0,0c0.1-0.8,0.8-1.3,1.6-1.3c0.8,0,1.4,0.6,1.6,1.3
							l0,0l2.1,8.1l0,0c0.1,0.3,0.1,0.6,0.1,0.9c0,2.1-1.7,3.8-3.8,3.8c-2.1,0-3.8-1.7-3.8-3.8C127.6,172.5,127.7,172.2,127.8,171.9
							z"/>
					</g>
					<g id="XMLID_5200_">
						<path id="XMLID_4646_" class="st8" d="M135,171.9l-1.8-7.1c-0.2-0.1-0.4-0.1-0.5-0.1c-0.8,0-1.4,0.6-1.6,1.3h0l-2.1,8.1l0,0
							c-0.1,0.3-0.1,0.6-0.1,0.9c0,0.2,0,0.4,0.1,0.6c0.7,0.5,1.5,0.9,2.4,0.9c2.1,0,3.8-1.7,3.8-3.8
							C135.1,172.5,135.1,172.2,135,171.9L135,171.9z"/>
					</g>
					<g id="XMLID_5197_">
						<path id="XMLID_4642_" class="st3" d="M131.4,177c-2.3,0-4.1-1.9-4.1-4.1c0-0.2,0-0.4,0-0.6l0,0l2.2-8.6c0-0.1,0-0.1,0-0.2
							l0,0c0.3-0.8,1-1.3,1.8-1.3c0.9,0,1.6,0.6,1.9,1.4l0.1,0.2l2.2,8.6l0,0c0,0.2,0,0.4,0,0.6C135.5,175.1,133.6,177,131.4,177z
							 M128.2,171.6L128.2,171.6l-0.1,0.4c-0.1,0.3-0.1,0.6-0.1,0.8c0,1.9,1.5,3.4,3.4,3.4c1.9,0,3.4-1.5,3.4-3.4
							c0-0.3,0-0.5-0.1-0.8l-0.1-0.4l0,0l-2-7.7c-0.1-0.6-0.6-1-1.2-1c-0.6,0-1.1,0.4-1.2,1l-0.1,0.3L128.2,171.6z"/>
					</g>
				</g>
			</g>
			<g id="XMLID_5187_">
				<g id="XMLID_5192_">
					<g id="XMLID_5193_">
						<polygon id="XMLID_4638_" class="st3" points="132.7,161 132.1,160.7 142.2,138.7 142.8,139 						"/>
					</g>
				</g>
				<g id="XMLID_5190_">
					<g id="XMLID_5191_">
						<polygon id="XMLID_4635_" class="st3" points="140.2,152.2 139.6,151.9 147.7,134.8 148.3,135 						"/>
					</g>
				</g>
				<g id="XMLID_5188_">
					<g id="XMLID_5189_">
						<polygon id="XMLID_4632_" class="st3" points="154,149.9 153.4,149.6 162.4,130.8 163.1,131.1 						"/>
					</g>
				</g>
			</g>
			<g id="XMLID_5180_">
				<g id="XMLID_5185_">
					<g id="XMLID_5186_">
						<polygon id="XMLID_4628_" class="st3" points="93.5,147.7 93.1,147.3 97.5,142.4 97.9,142.8 						"/>
					</g>
				</g>
				<g id="XMLID_5183_">
					<g id="XMLID_5184_">
						
							<rect id="XMLID_4625_" x="92.6" y="148.9" transform="matrix(0.6597 -0.7515 0.7515 0.6597 -79.8401 121.9638)" class="st3" width="4.3" height="0.5"/>
					</g>
				</g>
				<g id="XMLID_5181_">
					<g id="XMLID_5182_">
						
							<rect id="XMLID_4622_" x="100" y="153.9" transform="matrix(0.6598 -0.7515 0.7515 0.6598 -81.1281 129.2315)" class="st3" width="4.3" height="0.5"/>
					</g>
				</g>
			</g>
			<g id="XMLID_312_">
				<g id="XMLID_313_">
					<g id="XMLID_325_">
						<polygon id="XMLID_4618_" class="st4" points="85.1,139.2 97.2,132.3 97.2,127.9 93.7,130 85.1,137.1 						"/>
					</g>
					<g id="XMLID_324_">
						<polygon id="XMLID_4616_" class="st1" points="85.1,137.1 53,118.2 61.5,111.1 93.7,130 						"/>
					</g>
					<g id="XMLID_326_">
						<polygon id="XMLID_4614_" class="st2" points="85.1,137.1 53,119.7 61.5,112.6 92.4,130.8 						"/>
					</g>
					<g id="XMLID_323_">
						<polygon id="XMLID_4612_" class="st1" points="97.2,127.9 65,109 61.5,111.1 93.7,130 						"/>
					</g>
					<g id="XMLID_322_">
						<polygon id="XMLID_4610_" class="st2" points="95.9,128.7 65,110.6 61.5,112.6 92.4,130.8 						"/>
					</g>
					<g id="XMLID_314_">
						<g id="XMLID_321_">
							<polygon id="XMLID_4608_" class="st1" points="85.1,139.2 53,120.3 53,118.2 85.1,137.1 							"/>
						</g>
						<g id="XMLID_315_">
							<path id="XMLID_4601_" class="st3" d="M52.7,118.1l8.4-7l0.3-0.2l0.1-0.1l3.5-2l32.4,19l0,4.6l-12.3,7.1l-32.4-19L52.7,118.1
								z M85.1,136.8l8.2-6.8l-31.7-18.6l-8.2,6.8L85.1,136.8z M65,109.3l-3,1.7l4.9,2.9l26.8,15.7l3-1.7L65,109.3z M97,132.2l0-3.8
								l-3.1,1.8l-2.7,2.2l-5.8,4.8l0,1.6L97,132.2z M53.2,120.2l31.7,18.6l0-1.6l-31.7-18.6L53.2,120.2z"/>
						</g>
					</g>
				</g>
			</g>
			<g id="XMLID_343_">
				<g id="XMLID_349_">
					<g id="XMLID_354_">
						<path id="XMLID_4596_" class="st1" d="M183.7,96.4l-6.3-3.6l0,0c-0.3-0.1-0.6-0.1-1,0.1l-50.3,29c-0.8,0.5-1.5,1.8-1.5,2.9
							l0,10.7c0,0.6,0.2,1,0.4,1.2l0,0l0,0c0,0,0.1,0,0.1,0.1l6.1,3.5l4-8.7l2.1-1.3l39.1-22.5c0.8-0.5,1.5-1.8,1.5-2.9l0-0.5
							l2.8-1.8L183.7,96.4z"/>
					</g>
					<g id="XMLID_353_">
						<path id="XMLID_4594_" class="st2" d="M177.4,95.4L177.4,95.4c-0.3-0.1-0.6-0.1-1,0.1l-50.3,29c-0.8,0.5-1.5,1.8-1.5,2.9l0,0
							l9,5.1l1.6,1.6l2.1-1.3l39.1-22.5c0.8-0.5,1.5-1.8,1.5-2.9l0-0.5l2.8-1.8l2.9-6L177.4,95.4z"/>
					</g>
					<g id="XMLID_350_">
						<path id="XMLID_4590_" class="st3" d="M131.4,140.7l-6.5-3.7c-0.1,0-0.1-0.1-0.1-0.1c-0.4-0.3-0.6-0.8-0.6-1.5l0-10.7
							c0-1.3,0.8-2.7,1.7-3.2l50.4-29c0.4-0.3,0.9-0.3,1.3-0.1l0.1,0l6.1,3.5c0.3,0.2,0.4,0.5,0.2,0.8v0l-2.9,5.9l-2.8,1.8l0,0.3
							c0,1.3-0.8,2.7-1.7,3.2l-39.1,22.5l-2,1.3L131.4,140.7z M177,93.1c-0.1,0-0.3,0.1-0.4,0.1l-50.4,29c-0.7,0.4-1.4,1.6-1.4,2.6
							l0,10.7c0,0.4,0.1,0.7,0.3,0.9l5.9,3.4l3.9-8.5l2.2-1.4l39.1-22.5c0.7-0.4,1.4-1.6,1.4-2.6l0-0.7l2.9-1.9l2.7-5.6l-5.8-3.3
							l0,0l-0.2-0.1C177.2,93.1,177.1,93.1,177,93.1z"/>
					</g>
				</g>
				<g id="XMLID_344_">
					<g id="XMLID_348_">
						<path id="XMLID_4587_" class="st4" d="M182.6,111.2l-50.3,29c-0.8,0.5-1.5,0-1.5-1.2l0-10.7c0-1.1,0.7-2.4,1.5-2.9l50.3-29
							c0.8-0.5,1.5,0,1.5,1.2l0,10.7C184.2,109.4,183.5,110.7,182.6,111.2z"/>
					</g>
					<g id="XMLID_345_">
						<path id="XMLID_4583_" class="st3" d="M131.7,140.7c-0.2,0-0.4-0.1-0.6-0.2c-0.4-0.3-0.7-0.8-0.7-1.5l0-10.7
							c0-1.3,0.8-2.7,1.7-3.2l50.4-29c0.5-0.3,1-0.3,1.4-0.1c0.4,0.3,0.7,0.8,0.7,1.5l0,10.7c0,1.3-0.8,2.7-1.7,3.2l-50.4,29
							C132.2,140.7,131.9,140.7,131.7,140.7z M183.2,96.6c-0.2,0-0.3,0.1-0.4,0.1l-50.4,29c-0.7,0.4-1.4,1.6-1.4,2.6l0,10.7
							c0,0.5,0.1,0.8,0.3,0.9c0.2,0.1,0.5,0,0.6-0.1l50.4-29c0.7-0.4,1.4-1.6,1.4-2.6l0-10.7c0-0.5-0.1-0.8-0.3-0.9
							C183.4,96.7,183.3,96.6,183.2,96.6z"/>
					</g>
				</g>
			</g>
			<g id="XMLID_5366_">
				<path id="XMLID_4575_" class="st3" d="M119.8,110.3c-1.4,0-2.8-0.3-3.9-1L64,79.2c-1.1-0.7-1.8-1.5-1.8-2.5c0-0.8,0.5-1.5,1.3-2
					l0,0l55.7-31.9c1.8-1,4.9-0.9,6.9,0.3l51.9,30.1c1.1,0.7,1.8,1.5,1.8,2.5c0,0.8-0.5,1.5-1.3,2l-55.7,31.9
					C122.1,110,121,110.3,119.8,110.3z M63.9,75.4c-0.6,0.4-1,0.8-1,1.3c0,0.6,0.5,1.3,1.4,1.8l51.9,30.1c1.9,1.1,4.7,1.2,6.2,0.3
					l55.7-31.9c0.6-0.4,1-0.8,1-1.3c0-0.6-0.5-1.3-1.4-1.8l-51.9-30.1c-1.9-1.1-4.7-1.2-6.2-0.3L63.9,75.4z M120.1,106.3
					c-1.1,0-2.3-0.3-3.2-0.8L70.6,78.7c-0.9-0.5-1.5-1.3-1.5-2.1c0-0.7,0.4-1.2,1.1-1.7l49.8-28.4c1.5-0.9,4-0.8,5.7,0.2L172,73.6
					c0.9,0.5,1.5,1.3,1.5,2.1c0,0.7-0.4,1.2-1.1,1.7l-49.8,28.4C121.9,106.1,121,106.3,120.1,106.3z M122.5,46.7
					c-0.8,0-1.6,0.2-2.2,0.5L70.5,75.6c-0.3,0.2-0.7,0.5-0.7,1c0,0.5,0.4,1,1.1,1.4l0,0l46.3,26.8c1.5,0.9,3.7,0.9,5,0.2L172,76.7
					c0.3-0.2,0.7-0.5,0.7-1c0-0.5-0.4-1-1.1-1.4l-46.3-26.8C124.5,46.9,123.4,46.7,122.5,46.7z"/>
			</g>
			<g id="XMLID_5361_">
				<path id="XMLID_4571_" class="st3" d="M76.6,82.2l-6.1-3.5c-0.9-0.5-1.5-1.3-1.5-2.1c0-0.7,0.4-1.2,1.1-1.7l0,0l49.8-28.4
					c1.5-0.9,4-0.8,5.7,0.2L172,73.6c0.9,0.5,1.5,1.3,1.5,2.1c0,0.7-0.4,1.2-1.1,1.7l-6.1,3.5l-40.6-23.5c-1.5-0.9-3.7-0.9-5-0.2
					L76.6,82.2z M70.5,75.6c-0.3,0.2-0.7,0.5-0.7,1c0,0.5,0.4,1,1.1,1.4l5.7,3.3l43.7-24.9c1.5-0.9,4-0.8,5.7,0.2L166.3,80l5.7-3.3
					c0.3-0.2,0.8-0.5,0.7-1c0-0.5-0.4-1-1.1-1.4l-46.3-26.8c-1.5-0.9-3.7-0.9-5-0.2L70.5,75.6L70.5,75.6z"/>
			</g>
			<g id="XMLID_5346_">
				<polygon id="XMLID_4569_" class="st7" points="153.6,77.3 153.6,69 135.4,79.1 135.7,87.4 				"/>
			</g>
			<g id="XMLID_5345_">
				<polygon id="XMLID_4567_" class="st6" points="135.4,79.1 118.2,68.9 118.2,77.2 135.7,87.4 				"/>
			</g>
			<g id="XMLID_5336_">
				<g id="XMLID_5344_">
					<polygon id="XMLID_4565_" class="st6" points="158.5,79.1 154.1,76 153.6,77.3 135.6,87.8 139.3,89.8 					"/>
				</g>
				<g id="XMLID_5343_">
					<polygon id="XMLID_4563_" class="st6" points="153.6,69 135.8,58.4 118.2,68.9 135.4,79.1 					"/>
				</g>
				<g id="XMLID_5342_">
					<polygon id="XMLID_4561_" class="st8" points="151.9,70.1 135.8,60.6 118.2,71.1 135.4,81.3 135.4,79.1 					"/>
				</g>
				<g id="XMLID_5337_">
					<path id="XMLID_4555_" class="st3" d="M154,68.8L135.8,58l-17.9,10.7l0,8.6l17.8,10.4L154,77.5L154,68.8z M135.8,58.9L152.9,69
						l-17.5,9.7l-16.5-9.8L135.8,58.9z M118.5,77l0-7.4l16.5,9.8l0.1,3.5l0.1,3.9L118.5,77z M136,86.8l-0.1-4.1l-0.1-3.4l17.5-9.8
						l0,7.5L136,86.8z"/>
				</g>
			</g>
			<g id="XMLID_5321_">
				<g id="XMLID_5335_">
					<path id="XMLID_4552_" class="st6" d="M134.6,67.9c-1.4,0.2-2,0.8-2,1.6c0,0.1,0,0,0,0.1l-4.3,2.1c-0.4-0.6-0.7-1.3-0.7-2
						c0-2.7,3.3-4.8,7.5-5L134.6,67.9z"/>
				</g>
				<g id="XMLID_5334_">
					<path id="XMLID_4550_" class="st6" d="M133.9,70.9c0.6,0.3,1,0.4,1.9,0.4c0.8,0,1.3,0,1.8-0.4l4.5,1.9
						c-1.5,1.2-3.8,1.9-6.3,1.9c-2.7,0-5.1-0.9-6.6-2.2L133.9,70.9z"/>
				</g>
				<g id="XMLID_5322_">
					<g id="XMLID_5333_">
						<path id="XMLID_4548_" class="st6" d="M138.8,69.5C138.9,69.4,138.8,69.7,138.8,69.5c0-0.9-0.6-1.9-2-2l-0.5-2.8
							c4.2,0.2,7.5,2.4,7.5,5c0,0.8-0.3,1.6-0.9,2.3L138.8,69.5z"/>
					</g>
					<g id="XMLID_5323_">
						<g id="XMLID_5330_">
							<path id="XMLID_4544_" class="st3" d="M133.1,68.6l-0.1-0.2l0-0.1c0-0.3,0-1.1,1.7-1.3l0.3,0l0.6-3.9l-0.4,0
								c-4.4,0.2-7.8,2.5-7.8,5.4c0,0.8,0.2,1.5,0.7,2.2l0.2,0.2l4.6-2.2L133.1,68.6z M132.3,68.2l-3.8,1.8c-0.3-0.5-0.4-1-0.4-1.6
								c0-2.3,2.9-4.3,6.7-4.6l-0.4,2.5C132.7,66.6,132.3,67.5,132.3,68.2z"/>
						</g>
						<g id="XMLID_5327_">
							<path id="XMLID_4540_" class="st3" d="M137.4,69.4c-0.5,0.3-0.9,0.3-1.7,0.3c-0.9,0-1.2,0-1.7-0.3l-0.1-0.1l-5.5,1.9l0.4,0.4
								c1.6,1.4,4.1,2.2,6.8,2.2c2.5,0,4.9-0.7,6.5-2l0.5-0.4l-5.2-2.2L137.4,69.4z M141.3,71.7c-1.5,0.9-3.5,1.5-5.6,1.5
								c-2.3,0-4.4-0.6-5.9-1.7l4-1.4c0.6,0.3,1.1,0.3,1.9,0.3c0.8,0,1.3,0,1.9-0.3L141.3,71.7z"/>
						</g>
						<g id="XMLID_5324_">
							<path id="XMLID_4536_" class="st3" d="M136.4,63.1l-0.4,0l0.6,3.5l0.3,0c1.2,0.1,1.7,0.9,1.7,1.6l-0.1,0.2l0.1,0.1l0,0.2
								l0.3,0l4.2,2.5l0.2-0.2c0.6-0.8,1-1.6,1-2.5C144.2,65.6,140.8,63.3,136.4,63.1z M142.8,70.3l-3.6-2.2l-0.1-0.1
								c-0.1-0.9-0.8-1.8-2-2l-0.4-2.1c3.8,0.3,6.7,2.3,6.7,4.6C143.5,69.1,143.3,69.7,142.8,70.3z"/>
						</g>
					</g>
				</g>
			</g>
			<g id="XMLID_5320_">
				<path id="XMLID_4531_" class="st6" d="M132.6,68.3c0,1,1.4,1.8,3.1,1.8c1.7,0,3.1-0.8,3.1-1.8c0-0.7-0.8-2.6-1.9-2.8
					c-0.4-0.1-0.8,1.1-1.2,1.1c-0.5,0-0.8-1.2-1.2-1.1C133.5,65.7,132.6,67.6,132.6,68.3z"/>
			</g>
			<g id="XMLID_5309_">
				<polygon id="XMLID_4529_" class="st7" points="135.7,67.7 135.7,70.1 137.1,69.8 138.3,69.3 138.8,68.3 138.2,66.5 136.9,67.6 
									"/>
			</g>
			<g id="XMLID_5317_">
				<path id="XMLID_4525_" class="st3" d="M135.7,70.4c-1.9,0-3.5-0.9-3.5-2.1c0-0.8,0.9-2.8,2.2-3.2c0.5-0.1,0.7,0.3,1,0.6
					c0.1,0.1,0.3,0.4,0.3,0.4c0.1,0,0.2-0.3,0.3-0.4c0.2-0.3,0.5-0.8,1-0.6c1.2,0.3,2.2,2.3,2.2,3.2
					C139.2,69.5,137.7,70.4,135.7,70.4z M134.6,65.8c-0.8,0.3-1.6,1.9-1.6,2.5c0,0.7,1.1,1.4,2.8,1.4c1.6,0,2.8-0.7,2.8-1.4
					c0-0.6-0.7-2.2-1.6-2.5c-0.1,0.1-0.2,0.2-0.3,0.3c-0.2,0.3-0.5,0.7-0.9,0.7c-0.4,0-0.7-0.4-0.9-0.7
					C134.7,66.1,134.6,65.9,134.6,65.8z"/>
			</g>
			<g id="XMLID_5379_">
				<path id="XMLID_4521_" class="st3" d="M119.8,118.4c-1.4,0-2.8-0.3-3.9-1L64,87.4c-1.2-0.7-1.9-1.7-1.8-2.6l0-7.8l0.7-0.1
					c0.1,0.6,0.6,1.2,1.4,1.7l51.9,30.1c1.9,1.1,4.7,1.2,6.2,0.3L178.2,77c0.5-0.3,0.9-0.7,0.9-1.1l0.7,0.1l0,7.7
					c0.2,0.8-0.3,1.7-1.3,2.2l-55.7,31.9C122.1,118.2,121,118.4,119.8,118.4z M63,78.3l0,6.5c-0.1,0.7,0.5,1.4,1.4,2l51.9,30.1
					c1.9,1.1,4.7,1.2,6.2,0.3l55.7-31.9c0.7-0.4,1-1,0.9-1.6l0-6.5c-0.2,0.2-0.4,0.3-0.6,0.4l-55.7,31.9c-1.8,1-4.9,0.9-6.9-0.3
					L64,79.1C63.6,78.9,63.2,78.6,63,78.3z"/>
			</g>
			<g id="XMLID_5315_">
				<path id="XMLID_4519_" class="st6" d="M133.6,66.5c0,0.7,1,1.2,2.2,1.2c1.2,0,2.2-0.5,2.2-1.2c0-0.7-1-1.2-2.2-1.2
					C134.5,65.3,133.6,65.8,133.6,66.5z"/>
			</g>
			<g id="XMLID_5314_">
				<path id="XMLID_4517_" class="st8" d="M133.6,67.3c0,0.7,1,1.2,2.2,1.2c1.2,0,2.2-0.5,2.2-1.2c0-0.7-1-1.2-2.2-1.2
					C134.6,66.1,133.6,66.7,133.6,67.3z"/>
			</g>
			<g id="XMLID_5311_">
				<path id="XMLID_4513_" class="st3" d="M135.7,68.1c-1.4,0-2.5-0.7-2.5-1.6c0-0.9,1.1-1.6,2.5-1.6c1.4,0,2.5,0.7,2.5,1.6
					S137.1,68.1,135.7,68.1z M135.7,65.6c-1,0-1.8,0.5-1.8,0.9c0,0.4,0.8,0.9,1.8,0.9c1,0,1.8-0.5,1.8-0.9
					C137.5,66.1,136.8,65.6,135.7,65.6z"/>
			</g>
		</g>
	</g>
	<g id="XMLID_72_">
		<g id="XMLID_1425_">
			<g id="XMLID_2885_">
				<path id="XMLID_3804_" class="st9" d="M75.3,181l-9.3,5.3c-1.5,0.9-3.4,0.8-4.9,0l-9-5.3c-1.3-0.7-1.3-2.6,0-3.3l10.7-6
					c0.6-0.3,1.3-0.3,1.9,0l10.6,6.1C76.6,178.4,76.6,180.2,75.3,181z"/>
			</g>
		</g>
		<g id="XMLID_207_">
			<g id="XMLID_10554_">
				<g id="XMLID_10494_">
					<g id="XMLID_10500_">
						<g id="XMLID_217_">
							<g id="XMLID_1517_">
								<g id="XMLID_2351_">
									<path id="XMLID_3801_" class="st10" d="M73.7,174.6l-11.7,6.6c0,0,0,0-0.1,0l-11.4-6.6c0,0,0-0.1,0-0.1l11.5-6.5
										c0,0,0,0,0.1,0l11.5,6.6C73.8,174.6,73.8,174.6,73.7,174.6z"/>
								</g>
							</g>
							<g id="XMLID_192_">
								<g id="XMLID_2349_">
									<path id="XMLID_3798_" class="st8" d="M73.6,177l-11.7,6.6c0,0,0,0-0.1,0l-11.4-6.6c0,0,0-0.1,0-0.1l11.5-6.5
										c0,0,0,0,0.1,0l11.5,6.6C73.6,176.9,73.6,176.9,73.6,177z"/>
								</g>
							</g>
							<g id="XMLID_1518_">
								<g id="XMLID_2345_">
									<path id="XMLID_3793_" class="st3" d="M62.1,181.7l-0.2-0.1l-11.6-6.7l0-0.3c0-0.1,0.1-0.3,0.2-0.4l11.7-6.6l0.2,0.1
										l11.7,6.7l0,0.3c0,0.1-0.1,0.3-0.2,0.4L62.1,181.7z M51.2,174.6l10.8,6.3l11.1-6.3l-10.9-6.2L51.2,174.6z"/>
								</g>
							</g>
						</g>
					</g>
					<g id="XMLID_10496_">
						<g id="XMLID_216_">
							<g id="XMLID_1513_">
								<g id="XMLID_2341_">
									<path id="XMLID_3788_" class="st6" d="M50.5,174.7l0,2.3c0,0,0,0,0,0.1l11.4,6.6c0,0,0.1,0,0.1-0.1l0-2.3c0,0,0,0,0-0.1
										L50.5,174.7C50.6,174.6,50.5,174.6,50.5,174.7z"/>
								</g>
							</g>
							<g id="XMLID_1514_">
								<g id="XMLID_2337_">
									<path id="XMLID_3783_" class="st3" d="M62,184c-0.1,0-0.1,0-0.2-0.1l-11.6-6.7l0-0.3l0-2.5l0.4-0.3l0.2,0.1l11.6,6.7l0,0.3
										l0,2.5l-0.2,0.2C62.1,184,62,184,62,184z M50.9,176.8l10.8,6.3l0-1.6l-10.8-6.3L50.9,176.8z"/>
								</g>
							</g>
						</g>
					</g>
					<g id="XMLID_10495_">
						<g id="XMLID_215_">
							<g id="XMLID_1509_">
								<g id="XMLID_2333_">
									<path id="XMLID_3778_" class="st11" d="M73.8,174.7l0,2.3c0,0,0,0,0,0.1l-11.7,6.6c0,0-0.1,0-0.1-0.1l0-2.3c0,0,0,0,0-0.1
										L73.8,174.7C73.8,174.6,73.8,174.7,73.8,174.7z"/>
								</g>
							</g>
							<g id="XMLID_1510_">
								<g id="XMLID_2329_">
									<path id="XMLID_3773_" class="st3" d="M62.1,184.1l-0.2-0.1c-0.1-0.1-0.2-0.2-0.2-0.4l0-2.5l0.2-0.2l11.8-6.7l0.2,0.1
										c0.1,0.1,0.2,0.2,0.2,0.4l0,2.5l-0.2,0.2L62.1,184.1z M62.4,181.5l0,1.6l11.1-6.3l0-1.6L62.4,181.5z"/>
								</g>
							</g>
						</g>
					</g>
				</g>
				<g id="XMLID_10492_">
					<g id="XMLID_213_">
						<g id="XMLID_1505_">
							<g id="XMLID_2324_">
								<path id="XMLID_3767_" class="st11" d="M62.2,175.8L62.2,175.8c-1.4,0-2.5-1.1-2.5-2.5l0-9.4c0-0.2,0.1-0.3,0.3-0.3l4.4,0
									c0.2,0,0.3,0.1,0.3,0.3l0,9.4C64.7,174.7,63.5,175.8,62.2,175.8z"/>
							</g>
						</g>
						<g id="XMLID_1506_">
							<g id="XMLID_2320_">
								<path id="XMLID_3762_" class="st3" d="M62.2,176.2c-1.6,0-2.8-1.3-2.8-2.8l0-9.4c0-0.4,0.3-0.6,0.6-0.6l4.4,0
									c0.4,0,0.6,0.3,0.6,0.6l0,9.4C65,174.9,63.7,176.2,62.2,176.2z M60.1,163.9l0,9.4c0,1.2,1,2.1,2.1,2.1c1.2,0,2.1-1,2.1-2.1
									l0-9.4L60.1,163.9z"/>
							</g>
						</g>
					</g>
				</g>
				<g id="XMLID_10499_">
					<g id="XMLID_212_">
						<g id="XMLID_1501_">
							<g id="XMLID_2316_">
								<path id="XMLID_3757_" class="st12" d="M64.4,162.8l-4.4,0c-0.2,0-0.3,0.1-0.3,0.3l0,3c0,1.4,1.1,2.5,2.5,2.5
									c1.4,0,2.5-1.1,2.5-2.5l0-3C64.7,163,64.5,162.8,64.4,162.8z"/>
							</g>
						</g>
						<g id="XMLID_614_">
							<g id="XMLID_2314_">
								<path id="XMLID_3754_" class="st8" d="M64.5,161.5l-4.4,0c-0.2,0-0.3,0.1-0.3,0.3l0,3c0,1.4,1.1,2.5,2.5,2.5
									c1.4,0,2.5-1.1,2.5-2.5l0-3C64.8,161.6,64.6,161.5,64.5,161.5z"/>
							</g>
						</g>
						<g id="XMLID_1502_">
							<g id="XMLID_2310_">
								<path id="XMLID_3749_" class="st3" d="M62.2,169c-1.6,0-2.8-1.3-2.8-2.8l0-3c0-0.4,0.3-0.6,0.6-0.6l4.4,0
									c0.4,0,0.6,0.3,0.6,0.6l0,3C65,167.7,63.7,169,62.2,169z M60.1,163.2l0,2.9c0,1.2,1,2.1,2.1,2.1c1.2,0,2.1-1,2.1-2.1l0-2.9
									L60.1,163.2z"/>
							</g>
						</g>
					</g>
				</g>
				<g id="XMLID_10467_">
					<g id="XMLID_211_">
						<g id="XMLID_1497_">
							<g id="XMLID_2306_">
								
									<ellipse id="XMLID_3744_" transform="matrix(1.418278e-03 -1 1 1.418278e-03 -90.9399 215.0437)" class="st6" cx="62.2" cy="153.1" rx="12.5" ry="12.5"/>
							</g>
						</g>
						<g id="XMLID_1436_">
							<g id="XMLID_2304_">
								<path id="XMLID_3741_" class="st8" d="M73.4,147.3c-0.6-0.5-1.2-1-1.8-1.5c-2.2,3.5-6.1,5.8-10.6,5.8c-2.5,0-4.8-0.7-6.8-2
									c-1.2,1.9-2,4.2-2,6.7c0,2.1,0.5,4,1.4,5.7c2.2,2.2,5.3,3.5,8.6,3.5c6.9,0,12.5-5.6,12.5-12.5
									C74.7,151,74.2,149.1,73.4,147.3z"/>
							</g>
						</g>
						<g id="XMLID_1498_">
							<g id="XMLID_2300_">
								<path id="XMLID_3736_" class="st3" d="M62.2,165.9c-7.1,0-12.9-5.8-12.8-12.9c0-7.1,5.8-12.9,12.9-12.8
									c7.1,0,12.9,5.8,12.8,12.9S69.3,165.9,62.2,165.9z M62.2,140.9c-6.7,0-12.2,5.4-12.2,12.1c0,6.7,5.4,12.2,12.1,12.2
									s12.2-5.4,12.2-12.1S68.9,140.9,62.2,140.9z"/>
							</g>
						</g>
					</g>
				</g>
				<g id="XMLID_10497_">
					<g id="XMLID_210_">
						<g id="XMLID_1493_">
							<g id="XMLID_2296_">
								<path id="XMLID_3731_" class="st11" d="M70.7,143.9c0.1,0.7,0.2,1.3,0.2,2c0,6.9-5.6,12.5-12.5,12.5c-3.3,0-6.3-1.3-8.5-3.3
									c1,5.9,6.1,10.5,12.3,10.5c6.9,0,12.5-5.6,12.5-12.5C74.7,149.4,73.2,146.2,70.7,143.9z"/>
							</g>
						</g>
						<g id="XMLID_1494_">
							<g id="XMLID_2292_">
								<path id="XMLID_3726_" class="st3" d="M62.2,165.9c-6.3,0-11.7-4.5-12.7-10.8l0.3-1.4l0.2,1.1c2.3,2.1,5.2,3.2,8.2,3.2
									c6.7,0,12.2-5.4,12.2-12.1c0-0.7-0.1-1.3-0.2-2l-0.2-1l0.8,0.7c2.6,2.4,4.1,5.9,4.1,9.4C75.1,160.2,69.3,165.9,62.2,165.9z
									 M50.4,156c1.3,5.4,6.1,9.2,11.8,9.2c6.7,0,12.2-5.4,12.2-12.1c0-3-1.1-6-3.2-8.2c0,0.4,0,0.7,0,1.1
									c0,7.1-5.8,12.9-12.9,12.8C55.4,158.8,52.7,157.8,50.4,156z"/>
							</g>
						</g>
					</g>
				</g>
				<g id="XMLID_10397_">
					<g id="XMLID_209_">
						<g id="XMLID_1489_">
							<g id="XMLID_2288_">
								<path id="XMLID_3721_" class="st6" d="M70.9,142.1c0,4.8-3.9,7.5-8.7,7.5c-4.8,0-8.7-2.7-8.6-7.5c0-4.8,3.9-8.7,8.7-8.6
									C67,133.4,70.9,137.3,70.9,142.1z"/>
							</g>
						</g>
						<g id="XMLID_1438_">
							<g id="XMLID_2286_">
								<path id="XMLID_3718_" class="st8" d="M71,142.1c0-1.2-0.2-2.3-0.7-3.4c-1.6-1.9-4-3.2-6.7-3.2c-4.8,0-8.7,3.9-8.7,8.6
									c0,1,0.2,1.9,0.5,2.7c1.6,1.8,4.1,2.7,6.9,2.7C67.1,149.6,71,146.9,71,142.1z"/>
							</g>
						</g>
						<g id="XMLID_1490_">
							<g id="XMLID_2282_">
								<path id="XMLID_3713_" class="st3" d="M62.2,149.9c-5.4,0-9-3.2-9-7.8c0-5,4.1-9,9-9c5,0,9,4.1,9,9
									C71.2,146.8,67.6,149.9,62.2,149.9z M62.2,133.8c-4.6,0-8.3,3.7-8.3,8.3c0,4.9,4.2,7.1,8.3,7.1c4.1,0,8.3-2.2,8.3-7.1
									C70.5,137.5,66.8,133.8,62.2,133.8z"/>
							</g>
						</g>
					</g>
				</g>
				<g id="XMLID_10498_">
					<g id="XMLID_208_">
						<g id="XMLID_1485_">
							<g id="XMLID_2278_">
								<path id="XMLID_3708_" class="st11" d="M64.1,133.6c1.1,1.4,1.7,3.2,1.7,5.1c0,4.8-3.9,7.5-8.7,7.5c-0.9,0-1.7-0.1-2.5-0.3
									c1.5,2.3,4.3,3.6,7.6,3.6c4.8,0,8.7-2.7,8.7-7.5C70.9,138,68,134.5,64.1,133.6z"/>
							</g>
						</g>
						<g id="XMLID_1486_">
							<g id="XMLID_2274_">
								<path id="XMLID_3703_" class="st3" d="M62.2,149.9c-3.5,0-6.4-1.4-7.9-3.8l-0.5-0.7l0.8,0.2c4.7,1,10.7-1,10.7-6.9
									c0-1.8-0.6-3.5-1.6-4.9l-0.6-0.8l0.9,0.2c4.1,0.9,7.1,4.6,7.1,8.8C71.2,146.8,67.6,149.9,62.2,149.9z M55.4,146.5
									c1.5,1.7,3.9,2.7,6.8,2.7c4.1,0,8.3-2.2,8.3-7.1c0-3.6-2.3-6.8-5.6-7.9c0.8,1.4,1.2,2.9,1.2,4.6c0,4.7-3.6,7.8-9,7.8
									C56.5,146.6,56,146.6,55.4,146.5z"/>
							</g>
						</g>
					</g>
				</g>
			</g>
		</g>
	</g>
	<g id="XMLID_49_">
		<g id="XMLID_2590_">
			<g id="XMLID_2591_">
				<path id="XMLID_3338_" class="st9" d="M194.2,164.7l-11.7,6.6c-1.6,0.9-3.5,0.9-5.1,0l-8.8-5c-1-0.6-1-2,0-2.6L182,156
					c0.4-0.3,1-0.3,1.5,0l10.7,6.1C195.1,162.7,195.1,164.1,194.2,164.7z"/>
			</g>
		</g>
		<g id="XMLID_50_">
			<g id="XMLID_55_">
				<g id="XMLID_56_">
					<g id="XMLID_57_">
						<g id="XMLID_1230_">
							<g id="XMLID_1232_">
								<g id="XMLID_2588_">
									<g id="XMLID_2589_">
										<path id="XMLID_3335_" class="st1" d="M191.6,156.6l-13.3,7.5c0,0,0,0-0.1,0l-11-6.2c0,0,0-0.1,0-0.1l13.3-7.5
											c0,0,0,0,0.1,0L191.6,156.6C191.6,156.6,191.6,156.6,191.6,156.6z"/>
									</g>
								</g>
								<g id="XMLID_2585_">
									<g id="XMLID_2586_">
										<path id="XMLID_3332_" class="st2" d="M191.6,158.5l-13.3,7.5c0,0,0,0-0.1,0l-11-6.2c0,0,0-0.1,0-0.1l13.3-7.5
											c0,0,0,0,0.1,0L191.6,158.5C191.6,158.4,191.6,158.4,191.6,158.5z"/>
									</g>
								</g>
								<g id="XMLID_1233_">
									<g id="XMLID_1234_">
										<path id="XMLID_3327_" class="st3" d="M178.3,164.6l-0.2-0.1l-11.1-6.3l0-0.2c0-0.1,0.1-0.3,0.2-0.3l13.5-7.6l0.2,0.1
											l11.1,6.3l0,0.3c0,0.1-0.1,0.3-0.2,0.3L178.3,164.6z M167.9,157.9l10.4,5.9l12.7-7.2l-10.4-5.9L167.9,157.9z"/>
									</g>
								</g>
							</g>
						</g>
						<g id="XMLID_70_">
							<g id="XMLID_71_">
								<g id="XMLID_1228_">
									<g id="XMLID_1229_">
										<path id="XMLID_3322_" class="st1" d="M167.2,158l0,3.7c0,0,0,0,0,0l11,6.2c0,0,0.1,0,0.1,0l0-3.7c0,0,0,0,0,0L167.2,158
											C167.2,157.9,167.2,157.9,167.2,158z"/>
									</g>
								</g>
								<g id="XMLID_86_">
									<g id="XMLID_87_">
										<path id="XMLID_3317_" class="st3" d="M178.2,168.3c-0.1,0-0.1,0-0.2-0.1l-11.1-6.3l0-0.2l0-3.9l0.4-0.2l0.2,0.1l11.1,6.3
											l0,0.2l0,3.9l-0.2,0.1C178.3,168.3,178.3,168.3,178.2,168.3z M167.5,161.5l10.4,5.9l0-3l-10.4-5.9L167.5,161.5z"/>
									</g>
								</g>
							</g>
						</g>
						<g id="XMLID_58_">
							<g id="XMLID_59_">
								<g id="XMLID_64_">
									<g id="XMLID_65_">
										<path id="XMLID_3312_" class="st4" d="M191.6,156.7l0,3.7c0,0,0,0,0,0l-13.3,7.5c0,0-0.1,0-0.1,0l0-3.7c0,0,0,0,0,0
											L191.6,156.7C191.6,156.6,191.6,156.6,191.6,156.7z"/>
									</g>
								</g>
								<g id="XMLID_60_">
									<g id="XMLID_61_">
										<path id="XMLID_3307_" class="st3" d="M178.3,168.4l-0.2-0.1c-0.1-0.1-0.2-0.2-0.2-0.3l0-3.9l0.2-0.1l13.5-7.6l0.2,0.1
											c0.1,0.1,0.2,0.2,0.2,0.3l0,3.9l-0.2,0.1L178.3,168.4z M178.6,164.4l0,3l12.7-7.2l0-3L178.6,164.4z"/>
									</g>
								</g>
							</g>
						</g>
					</g>
				</g>
			</g>
			<g id="XMLID_53_">
				<g id="XMLID_54_">
					<path id="XMLID_3299_" class="st3" d="M178.9,161.6c-0.4,0.2-0.9,0.2-1.3,0c-0.4-0.2-0.4-0.5,0-0.7c0.4-0.2,0.9-0.2,1.3,0
						C179.3,161.1,179.3,161.4,178.9,161.6z"/>
				</g>
			</g>
			<g id="XMLID_51_">
				<g id="XMLID_52_">
					
						<ellipse id="XMLID_3296_" transform="matrix(1.418277e-03 -1 1 1.418277e-03 26.9134 333.5086)" class="st3" cx="180.4" cy="153.3" rx="0.5" ry="0.9"/>
				</g>
			</g>
		</g>
	</g>
</g>
</svg>
