<?xml version="1.0" encoding="utf-8"?>
<!-- Generator: Adobe Illustrator 23.0.1, SVG Export Plug-In . SVG Version: 6.00 Build 0)  -->
<svg version="1.1" id="Layer_1" xmlns="http://www.w3.org/2000/svg" xmlns:xlink="http://www.w3.org/1999/xlink" x="0px" y="0px"
	 viewBox="0 0 124.5 331.7" style="enable-background:new 0 0 124.5 331.7;" xml:space="preserve">
<style type="text/css">
	.st0{fill:#143F4F;}
	.st1{fill:#D9CEA8;}
	.st2{fill:#1B4E61;}
	.st3{fill:#F9F8DC;}
	.st4{fill:#FF227D;}
	.st5{fill:#E97951;}
	.st6{fill:#6464AF;}
	.st7{fill:#837FCB;}
	.st8{fill:#C76847;}
	.st9{fill:#DC5031;}
	.st10{fill:#F0A98F;}
	.st11{fill:#151C2C;}
	.st12{fill:#C66745;}
	.st13{fill:#DD4F31;}
	.st14{fill:#FAF9E4;}
	.st15{fill:#FAF8DC;}
	.st16{fill:#3B53B5;}
	.st17{fill:#357E8F;}
	.st18{fill:#AF3116;}
	.st19{fill:#B03318;}
	.st20{fill:#DD5133;}
	.st21{fill:#102F3A;}
	.st22{fill:#B43D24;}
	.st23{fill:#163540;}
	.st24{fill:#11303B;}
	.st25{fill:#11313D;}
	.st26{fill:#102F3B;}
	.st27{fill:#13333E;}
	.st28{fill:#12313D;}
	.st29{fill:#C99745;}
	.st30{fill:#14333F;}
	.st31{fill:#25424D;}
	.st32{fill:#84745B;}
	.st33{fill:#85765C;}
	.st34{fill:#827259;}
	.st35{fill:#85755C;}
	.st36{fill:#83735A;}
	.st37{fill:none;}
</style>
<g>
	<path class="st0" d="M80.7,45.4c0.1-0.2,0.2-0.3,0.3-0.4c1,0.1,1.6,1,2.2,1.7c1,1.3,2.2,2.5,3.3,3.6c0.7,0.8,1.5,1.4,2,2.3
		c-0.2,0-0.4-0.1-0.6-0.2c-1-0.5-2.1-1.1-3-1.8c-0.9-0.6-1.9-1.2-3-1.3c-0.2,1.3-0.5,2.5-0.8,3.7c-0.3,1.7-0.6,3.4-1,5.1
		c-0.2,0.7-0.4,1.3-0.5,2c0-0.1-0.1-0.2-0.1-0.4c0.1-0.6,0.2-1.3,0.4-1.9c0.3-1.6,0.5-3.2,0.6-4.9c0.1-1.2,0.3-2.5,0.3-3.7
		C80.9,47.9,80.7,46.7,80.7,45.4z"/>
	<path class="st0" d="M52.7,46c0.3-0.3,0.6-0.4,1-0.6c0.3,0.1,0.5,0.3,0.5,0.6c-0.3,0.4-0.7,0.8-0.8,1.4c-1.3,3.4-2.5,7-2.5,10.7
		c-0.1,1.1,0.1,2.3,0.1,3.4c0.1,1.5,0.4,3,0.6,4.6c-0.1-0.1-0.3-0.2-0.3-0.4c-0.2-1.1-0.5-2.1-0.6-3.2c-0.1-0.8-0.3-1.6-0.2-2.4
		c0-1.3-0.1-2.7,0-4c0.1-1.3,0.4-2.6,0.7-3.8c0.3-1.3,0.6-2.6,1.1-3.7c0.2-0.7,0.1-1.5-0.1-2.2C52.4,46.2,52.6,46.1,52.7,46z"/>
	<path class="st1" d="M77.3,48c1.1-0.9,2.3-1.7,3.4-2.6c0,1.3,0.2,2.5,0.1,3.8c-0.1,1.2-0.2,2.5-0.3,3.7c-0.1,1.6-0.3,3.3-0.6,4.9
		c-0.1-0.1-0.1-0.3-0.1-0.5c0.1-1.3,0-2.6,0-3.9c0-0.8,0-1.7-0.1-2.5c-1.1,0.5-2.3,1-3.5,1.5c-1.2,0.5-2.4,1.1-3.6,1.7
		c-0.5,0.3-1.2,0.4-1.7,0.7c-0.8,0.5-1.8,0.8-2.7,1.1c-0.6,0.2-1.2,0.2-1.7,0.3c-0.3-0.3-0.6-0.5-0.9-0.8c-0.4,0.2-0.7,0.4-1.1,0.6
		c-0.6-0.1-1.1-0.2-1.7-0.3c-1.1-0.3-2.1-0.7-3.1-1.2c-1.7-0.8-3.1-2-4.6-3.1c-0.5-0.3-0.8-0.8-1.2-1.2c-0.7,0.7-1.1,1.6-1.7,2.5
		c-0.1,0.2-0.2,0.4-0.1,0.5c0.6,1.1,1.3,2.1,1.9,3.2c0.8,1.3,1.7,2.5,2.7,3.7c0.2,0.2,0.4,0.6,0.7,0.6c0.5-0.2,0.9-0.5,1.4-0.8
		c0.9-0.5,1.7-1.2,2.6-1.7c0,0.2,0.1,0.4,0.2,0.6c0.5,1.1,1.1,2.2,1.8,3.2c-1,1.8-1.6,3.8-2.5,5.7c0-0.6,0.2-1.1,0.4-1.7
		c0.4-1.2,0.8-2.5,1.3-3.7c-0.4-0.5-0.8-1.1-1.1-1.7c-1.4,0.3-2.8,0.7-4.2,0.5c-0.4-0.2-0.6-0.5-0.9-0.8c-0.7-0.9-1.4-1.8-2.1-2.7
		c-0.5-0.7-1-1.5-1.5-2.3c-0.3,1.3-0.7,2.7-0.8,4.1c0,0.7-0.2,1.4-0.2,2.1c0,1.4-0.1,2.9,0,4.3c0,0.7,0.2,1.4,0.2,2.1
		c-0.2-0.6-0.3-1.2-0.4-1.7c-0.2-1.5-0.5-3-0.6-4.6c-0.1-1.1-0.2-2.3-0.1-3.4c0-3.7,1.1-7.3,2.5-10.7c0.1-0.5,0.5-1,0.8-1.4
		c0.7,1,1.5,1.9,2.4,2.6c0.8,0.9,1.7,1.8,2.8,2.3c0.5,0.3,1.1,0.5,1.6,0.8c1.7,0.9,3.7,1.1,5.6,1c1.5-0.1,3.1-0.5,4.4-1.3
		c0.8-0.4,1.6-0.8,2.3-1.2C74.7,49.5,76.1,48.9,77.3,48z"/>
	<path class="st2" d="M47.5,49.8c1.5-1.2,3-2.5,4.7-3.5c0.2,0.7,0.3,1.5,0.1,2.2c-0.5,1.2-0.8,2.5-1.1,3.7c-0.3,1.3-0.5,2.6-0.7,3.8
		c-0.1,1.3,0,2.7,0,4c-0.1,0.8,0.1,1.6,0.2,2.4c0.1,1.1,0.4,2.1,0.6,3.2c0,0.2,0.2,0.3,0.3,0.4c0.1,0.6,0.3,1.2,0.4,1.7
		c0.5,2,1.2,3.9,2.1,5.8c0.4,0.9,0.9,1.8,1.4,2.6c0.7,1.2,1.4,2.3,2.2,3.4c0.9,1.2,1.7,2.5,2.6,3.7c0.8,1.1,1.7,2.2,2.5,3.2
		c0.7-0.7,1.5-1.4,2.2-2c0.8-0.6,1.5-1.4,2.3-2.1c0.5-0.5,1-0.9,1.3-1.5c0.5-0.5,1-1,1.4-1.6c0.8-1,1.6-2,2.3-3
		c1-1.5,1.9-3.1,2.8-4.6c0.8-1.2,1.3-2.6,1.9-3.9c0.3-0.6,0.5-1.2,0.7-1.8c0.3-0.9,0.6-1.9,0.8-2.8c0.2-1.2,0.6-2.3,0.8-3.5
		c0,0.1,0.1,0.2,0.1,0.4c0.2-0.7,0.3-1.3,0.5-2c0.4-1.7,0.6-3.4,1-5.1c0.3-1.2,0.6-2.5,0.8-3.7c1.1,0.1,2.1,0.7,3,1.3
		c0.9,0.7,2,1.3,3,1.8c0.2,0.1,0.4,0.2,0.6,0.2c0.7,0.9,1,2.1,1,3.2c-0.4,1.7-0.2,3.5-0.5,5.2c-0.3,2-0.8,4-1.6,5.8
		c-0.6,1.6-1.4,3.1-2.3,4.6c-0.8,1.1-1.6,2.2-2.5,3.1c-0.6,0.5-1,1.2-1.6,1.6c-1.3,1.2-2.7,2.4-4.2,3.3c-2.6,1.8-5.4,3.3-8.1,5.1
		c-0.9,0.6-1.7,1.1-2.5,1.8c-0.6,0.5-1.1,1-1.7,1.5c-1.2,1.4-2.4,2.8-3.5,4.3c-0.5,0.7-1,1.5-1.5,2.2c0.2-1.2,0.7-2.4,1.1-3.6
		c0.5-1.4,1.3-2.7,2.2-4c-0.1,0-0.2-0.1-0.3-0.1c-0.4,0.4-0.6,0.9-0.9,1.3c-0.7-0.6-1.3-1.2-2-1.8c-1-0.9-2.1-1.8-3.1-2.8
		c-1.5-1.4-3.1-2.6-4.5-4.1c-3.6-3.5-6.9-7.4-8.7-12.1c-0.4-1-0.7-2-1-3.1c-0.7-2.4-1.3-4.8-1.5-7.3c0-0.5,0-1-0.1-1.5
		c0.3-1.1,1.2-1.9,2.1-2.6c0.9-0.8,1.9-1.4,2.8-2C46.4,50.4,47,50.2,47.5,49.8z"/>
	<path class="st3" d="M52.2,52.5c0.5-0.8,1-1.7,1.7-2.5c0.4,0.4,0.7,0.9,1.2,1.2c1.4,1.2,2.9,2.3,4.6,3.1c1,0.5,2,1,3.1,1.2
		c0.6,0.2,1.1,0.2,1.7,0.3c-1.1,0.7-2.1,1.4-3.1,2.1c-0.9,0.6-1.7,1.2-2.6,1.7c-0.5,0.3-0.9,0.6-1.4,0.8c-0.3-0.1-0.5-0.4-0.7-0.6
		c-1-1.2-1.9-2.4-2.7-3.7c-0.6-1.1-1.3-2.1-1.9-3.2C52,52.9,52.1,52.7,52.2,52.5z"/>
	<path class="st3" d="M76.3,52.4c1.1-0.5,2.3-0.9,3.5-1.5c0.1,0.8,0.1,1.7,0.1,2.5c0,1.3,0.1,2.6,0,3.9c0,0.2,0,0.3,0.1,0.5
		c-0.6,0.3-1.2,0.7-1.8,1c-1.5,0.7-2.9,1.5-4.3,2.2c-0.6,0.3-1.2,0.5-1.8,0.8c-0.3-0.3-0.6-0.7-0.9-1c-0.8-0.7-1.5-1.6-2.3-2.4
		c-0.8-0.8-1.5-1.6-2.3-2.2c0.6,0,1.2-0.1,1.7-0.3c0.9-0.3,1.9-0.6,2.7-1.1c0.5-0.3,1.1-0.4,1.7-0.7C73.8,53.5,75,52.9,76.3,52.4z"
		/>
	<path class="st3" d="M52.9,55.2c0.5,0.8,0.9,1.6,1.5,2.3c0.7,0.9,1.3,1.8,2.1,2.7c0.3,0.3,0.5,0.6,0.9,0.8c1.4,0.2,2.8-0.2,4.2-0.5
		c0.3,0.6,0.7,1.2,1.1,1.7c-0.5,1.2-0.9,2.5-1.3,3.7C61.2,66.4,61,67,61,67.6c-0.3,0.7-0.5,1.4-0.8,2.1c-0.6,1.3-0.8,2.6-1.3,3.9
		c-0.4,1.5-0.8,3-1,4.5c-0.1,0.5-0.2,1-0.1,1.5c-0.7-1.1-1.5-2.2-2.2-3.4c-0.6-0.8-1-1.7-1.4-2.6c-0.9-1.8-1.6-3.8-2.1-5.8
		c0-0.7-0.2-1.4-0.2-2.1c-0.1-1.4,0-2.9,0-4.3c0-0.7,0.1-1.4,0.2-2.1C52.2,57.9,52.5,56.6,52.9,55.2z"/>
	<path class="st4" d="M64.5,56c0.4-0.2,0.7-0.4,1.1-0.6c0.3,0.3,0.6,0.5,0.9,0.8c0.8,0.7,1.6,1.5,2.3,2.2c-0.7,1.2-1.7,2.3-2.3,3.5
		c0.2,0.7,0.3,1.5,0.5,2.2c0.1,1.5,0.3,3,0.5,4.5c0.2,2.5,0.5,5,0.9,7.5c0.1,0.8,0.2,1.6,0.3,2.3c0.1,0.8,0.1,1.6,0.2,2.4
		c-0.4,0.6-0.9,1-1.3,1.5c-0.8,0.7-1.4,1.5-2.3,2.1c-0.8,0.7-1.5,1.3-2.2,2c-0.9-1.1-1.8-2.1-2.5-3.2c-0.9-1.2-1.8-2.4-2.6-3.7
		c-0.1-0.5,0-1,0.1-1.5c0.2-1.5,0.6-3,1-4.5c0.5-1.3,0.7-2.6,1.3-3.9c0.3-0.7,0.5-1.4,0.8-2.1c0.8-1.9,1.5-3.9,2.5-5.7
		c-0.7-1-1.3-2.1-1.8-3.2c-0.1-0.2-0.1-0.4-0.2-0.6C62.5,57.4,63.5,56.6,64.5,56z"/>
	<path class="st0" d="M40.8,55.7c0-0.1,0.1-0.2,0.1-0.2c0.2,0.5,0.1,1,0.1,1.5c0.2,2.5,0.8,4.9,1.5,7.3c0.3,1,0.6,2.1,1,3.1
		c1.9,4.7,5.1,8.6,8.7,12.1c1.4,1.5,3,2.8,4.5,4.1c1,1,2,1.9,3.1,2.8c0.6,0.6,1.3,1.2,2,1.8c0.3-0.4,0.5-0.9,0.9-1.3
		c0.1,0,0.2,0.1,0.3,0.1c-0.8,1.3-1.7,2.5-2.2,4c-0.4,1.2-0.9,2.4-1.1,3.6c0.5-0.7,1-1.5,1.5-2.2c1.1-1.5,2.3-2.9,3.5-4.3
		c0.5-0.5,1.1-1,1.7-1.5c0.8-0.7,1.6-1.2,2.5-1.8c2.7-1.7,5.5-3.2,8.1-5.1c1.5-1,2.9-2.1,4.2-3.3c0.6-0.5,1-1.1,1.6-1.6
		c0.9-1,1.7-2.1,2.5-3.1c0.9-1.4,1.7-3,2.3-4.6c0.8-1.9,1.3-3.8,1.6-5.8c0.3-1.7,0.1-3.5,0.5-5.2c0.1,0.1,0.2,0.2,0.4,0.2
		c-0.1,0.4-0.2,0.8-0.3,1.2c0,1.2,0.1,2.5,0,3.7c-0.2,1-0.3,2-0.6,3c-0.5,1.6-0.9,3.1-1.5,4.7c-1.2,3.4-3,6.7-5.4,9.5
		c-1.1,1.3-2.3,2.5-3.6,3.5c-1,0.8-2.2,1.4-3.3,2.1c-1.1,0.6-2.2,1.1-3.3,1.6c-1.5,0.8-3,1.7-4.5,2.7c-0.8,0.5-1.5,1.2-2.2,1.9
		c-1.3,1.2-2.3,2.7-3.1,4.2c-0.1,0.2-0.3,0.4-0.3,0.7C62,95,62.2,95,62.4,95c2,0.2,3.9,0.6,5.8,1c2.9,0.7,5.9,1.4,8.9,1.8
		c1.6,0.2,3.1,0.3,4.7,0.4c0.7,0,1.3-0.1,2-0.2c0.7-0.1,1.4-0.2,2-0.7c2.1-1.7,3.3-4.3,5-6.4c0.1-0.2,0.4-0.1,0.3,0.1
		c-0.2,0.8-0.5,1.6-0.5,2.4c0.3-0.3,0.6-0.6,0.8-1c0.8-1,1.9-1.9,3-2.6c0.1-0.1,0.3-0.1,0.5,0c-0.1,0.6-0.5,1-0.8,1.5
		c-1.1,1.3-2.2,2.6-3.1,4.1c-0.3,0.5-0.5,0.9-0.8,1.4c-0.2,0.3-0.1,0.7-0.1,1c0.8-0.4,1.6-0.9,2.5-1c0.6-0.1,1.2-0.3,1.7,0
		c1.3,0.6,2.3,1.4,3.2,2.5c0.5,0.6,0.7,1.3,1,2c0.3,0.7,0.1,1.6-0.4,2.2c-0.7,0.7-1.7,1.1-2.7,1.4c-0.6,0.2-1.1-0.1-1.7-0.3
		c-0.3-0.1-0.3-0.4-0.6-0.5c-1.8-0.7-3.6-1.3-5.5-1.6c-0.7-0.1-1.5-0.4-2.2-0.5c-0.9-0.2-1.8-0.5-2.7-0.7c-1.4-0.4-2.9-0.6-4.4-1
		c-1.2-0.3-2.5-0.5-3.7-0.7c-3.4-0.6-6.8-0.8-10.2-1.2c-1.7-0.2-3.4-0.3-5.1-0.3c-0.8,0-1.5-0.1-2.3,0c-1.2,0.1-2.4,0-3.7,0.1
		c-2,0.1-4,0.4-6,0.7c-1.9,0.3-3.8,0.8-5.7,1.2c-0.2,0-0.5,0.1-0.7,0.3c-0.6,0.5-1.1,1.1-1.5,1.8c-0.5,0.8-1,1.7-1.2,2.6
		c1.3,0.4,2.7,0.6,4,1c2.2,0.7,4.3,1.4,6.4,2.3c2.7,1.1,5.2,2.4,7.7,3.7c1,0.5,2,1.1,2.9,1.6c0.9,0.3,1.7,0.9,2.6,1.3
		c0.9,0.5,1.8,1,2.6,1.5c1.7,1.1,3.4,2.3,5,3.5c1.8,1.3,3.4,2.7,5.3,3.8c3.5,2.2,7.2,4.4,11.2,5.3c0.9,0.2,1.8,0.4,2.8,0.5
		c1.2,0.1,2.3,0.4,3.5,0.4c1.8,0.1,3.7-0.1,5.5-0.6c1-0.3,2.1-0.5,3.1-1c0.6-0.3,1.2-0.5,1.8-0.7c1.9-0.8,3.4-2.2,5-3.5
		c0.6-0.6,1.2-1.3,1.9-1.7c0.2,1.2,0.4,2.5,0.5,3.7c0.2,1.2,0.3,2.5,0.4,3.7c-0.7,0.2-1.2,0.6-1.9,0.9c-1.8,0.9-3.7,1.4-5.6,1.8
		c-0.7,0.2-1.4,0.4-2.1,0.6c-2.6,0.9-5.4,1.3-8.2,1.4c-1.1,0.1-2.3,0.1-3.4,0c-2.5-0.1-5-0.4-7.4-1c-0.3,0-0.6-0.2-0.9,0
		c-1.7,1-3.5,1.6-5.3,2.3c-2.2,0.8-4.4,1.3-6.6,1.8c-2.6,0.6-5.2,1.1-7.8,1.6c-2.5,0.5-5.1,0.7-7.7,0.9c-0.1,0-0.3,0-0.3,0.2
		c0.1,1,0.2,1.9,0.3,2.9c0.2,1.3,0.4,2.6,0.6,3.8c0.2,0.9,0.5,1.8,0.7,2.7c0.3,1.4,0.6,2.8,0.6,4.3c-0.1,1.3-0.2,2.6-0.6,3.7
		c-0.4,1.1-0.8,2.2-1.1,3.3c-0.3,0.9-0.6,1.7-0.8,2.6c-0.2,1-0.4,2.1-0.4,3.2c-0.1,0.9-0.2,1.9-0.2,2.8c0.1,1.5,0.1,3,0.5,4.4
		c0.3,1,0.6,2,0.7,3c0.2,1,0.2,2,0.4,2.9c-0.3,0.8-0.4,1.7-0.7,2.6c-0.4,1.3-0.8,2.6-1.2,4c-0.1,0.4-0.2,0.8-0.4,1.2
		c-0.4,0.9-0.8,1.8-1.2,2.7c-0.4,1-0.9,2-1.7,2.7c0-0.5,0.2-0.9,0.3-1.3c0.2-1.2,0.6-2.3,0.9-3.5c0.6-2.4,0.6-4.8,0.9-7.2
		c0.2-1.7,0.3-3.4,0.2-5.1c-0.1-0.6-0.3-1.2-0.3-1.9c-0.2-1.1-0.1-2.3-0.1-3.4c0-1.3,0.2-2.7,0.4-4c0.1-0.8,0-1.7,0-2.5
		c0.1-2.2-0.6-4.3-0.9-6.4c-0.5-3-0.6-6-0.4-9c0.1-0.8,0.1-1.6,0.2-2.3c0.1-2.1-0.1-4.3-1.5-6c-1.6,0.1-3.2,0.1-4.8,0.1
		c-1.2,0-2.3,0-3.5-0.1c-2.9-0.2-5.8-0.6-8.6-1.2c-1.6-0.3-3.2-0.9-4.8-1.3c-1.2-0.3-2.4-0.6-3.6-1c-1.5-0.4-3-1-4.5-1.3
		c-0.9-0.2-1.9-0.2-2.8-0.2c-1.6,0.1-3.1,0.5-4.6,1.1c0.3-2.3,0.7-4.5,1-6.7c0.2-1,0.3-2,0.6-3c0.3-1.2,0.6-2.5,0.9-3.7
		c0.1-0.4,0.2-0.7,0.2-1.1c0,0,0.4,0,0.5,0c0.7,1,1.6,1.9,2.4,2.8c0.4,0.4,0.9,0.8,1.3,1.2c0.5,0.6,1.1,0.9,1.6,1.3
		c0.6,0.4,1.2,0.9,1.9,1.2c0.9,0.4,1.6,1,2.5,1.4c0.7,0.4,1.5,0.5,2.1,1c0.7,0.4,1.5,0.6,2.3,0.9c1.5,0.4,2.9,0.9,4.4,1.2
		c0.9,0.2,1.8,0.2,2.7,0.4c2.7,0.6,5.6,0.7,8.3,1c1.3,0.2,2.6,0.1,3.8,0.2c2.9,0,5.8,0.4,8.7,0.1c2.6-0.1,5.1-0.7,7.6-1.3
		c1.9-0.3,3.7-0.9,5.5-1.5c-0.1-0.8-0.4-1.6-0.6-2.4c-0.4-1.1-0.8-2.1-1.3-3.1c-0.9-1.7-2.1-3.2-3.3-4.8c-0.5-0.6-0.9-1.2-1.5-1.6
		c-0.5-0.4-0.9-0.9-1.5-1.2c-0.8-0.6-1.6-1.2-2.4-1.8c-0.8-0.7-1.8-1.2-2.7-1.8c-0.9-0.6-1.8-1.2-2.8-1.8c-1.7-1-3.4-2-5.1-2.8
		c-1.1-0.6-2.2-1.2-3.3-1.7c-0.7-0.3-1.4-0.7-2.2-1c-0.8-0.3-1.6-0.7-2.4-1.1c-2.2-0.8-4.3-1.6-6.6-2c-1.1-0.2-2.1-0.5-3.2-0.7
		c-0.6-0.1-1.2-0.1-1.8-0.2c-0.2,0-0.4-0.2-0.4-0.4c0-0.4,0.4-0.5,0.7-0.7c0.7-0.3,1.6-0.3,2.3-0.3c0.7,0,1.4,0,2,0.2
		c0.7,0.2,1.5,0.2,2.3,0.2c0.3-1,0.4-2,0.6-3c0.4-2.7,0.4-5.3,0.6-8c0.1-0.7-0.1-1.3-0.2-2c-0.2-1-0.4-2-0.3-3.1
		c0-0.2,0.2-0.5,0.4-0.4c0.5,0.1,0.6,0.6,0.7,1c0.3,1.2,0.5,2.4,0.7,3.7c0.2,1,0.7,1.9,1,2.9c0.3,1.2,0.8,2.4,1.1,3.6
		c1.1-0.3,2-0.8,3.1-1.1c1.8-0.7,3.7-1,5.6-1.3c2.1-0.4,4.2-0.5,6.4-0.7c0.8-0.1,1.6,0,2.3-0.2c0.3,0,0.3-0.4,0.4-0.6
		c0.3-1.3,0.7-2.5,1.1-3.8c0.1-0.3,0.1-0.7,0.4-1c-0.2-0.3-0.5-0.5-0.8-0.7c-1.6-1.3-3.2-2.5-4.8-3.7c-0.8-0.6-1.5-1.2-2.2-1.9
		c-1.7-1.4-3.2-2.9-4.5-4.6c-1.2-1.4-2.2-3-3.1-4.7c-0.8-1.4-1.6-2.8-2.2-4.3c-0.6-1.5-1-3.1-1.3-4.7c-0.3-1.6-0.5-3.2-0.5-4.8
		c0-0.5,0-1.1,0-1.6C40.7,57.3,40.8,56.5,40.8,55.7z"/>
	<path class="st5" d="M96.4,102.9c0-0.2-0.1-0.4-0.3-0.5c-0.2-0.1-0.4-0.1-0.6-0.1c-0.7,0-1.3,0.3-2,0.4c0.6-0.3,1.2-0.5,1.7-0.8
		c0.5-0.3,1-0.6,1.1-1.1c-0.3,0.1-0.6,0.2-0.9,0.2c0-0.3,0.1-0.5,0.1-0.7c-0.4,0-0.8,0.1-1.2,0.1c0.5-0.2,1.1-0.4,1.5-0.8
		c0.1-0.1,0.1-0.3,0.2-0.4c-0.2,0.1-0.4,0.3-0.6,0.3c-0.2,0-0.3-0.1-0.4-0.2c0.1-0.2,0.2-0.5,0.3-0.7c-1.3,0-2.4,0.7-3.6,1.1
		c0.6-0.5,1.3-0.7,1.9-1.2c0.2-0.2,0.2-0.4,0.1-0.6c-0.2,0.4-0.6,0.7-1.1,0.5c0-0.2,0.1-0.4,0.1-0.6c0,0-0.1,0-0.2,0
		c-1.5,0.4-2.8,1.1-4,2c-1,0.7-2.2,1.5-2.9,2.5c0.2,0.1,5.1,1.7,7.7,2.4c0.2,0.1,0.5-0.1,0.7-0.1c0.8-0.3,1.7-0.6,2.2-1.3
		c0,0,0,0,0,0C96.4,103,96.4,103,96.4,102.9C96.4,102.9,96.4,102.9,96.4,102.9z"/>
	<path class="st2" d="M39.1,56.8c0.6-0.4,1.2-0.6,1.7-1.1c0,0.9-0.1,1.7-0.1,2.5c0,0.5,0,1.1,0,1.6c0,1.6,0.2,3.2,0.5,4.8
		c0.4,1.6,0.7,3.1,1.3,4.7c0.6,1.5,1.4,2.9,2.2,4.3c0.9,1.7,1.9,3.3,3.1,4.7c1.3,1.7,2.8,3.3,4.5,4.6c0.7,0.6,1.4,1.3,2.2,1.9
		c1.6,1.3,3.2,2.5,4.8,3.7c0.3,0.2,0.6,0.4,0.8,0.7c-0.2,0.3-0.3,0.6-0.4,1c-0.4,1.2-0.8,2.5-1.1,3.8c-0.1,0.2-0.1,0.6-0.4,0.6
		c-0.8,0.2-1.6,0.2-2.3,0.2c-2.1,0.2-4.3,0.4-6.4,0.7c-1.9,0.2-3.8,0.6-5.6,1.3c-1,0.4-2,0.9-3.1,1.1c-0.3-1.2-0.8-2.4-1.1-3.6
		c-0.3-1-0.7-1.9-1-2.9c-0.2-1.2-0.4-2.5-0.7-3.7c-0.1-0.4-0.3-0.9-0.7-1c-0.2-0.1-0.4,0.2-0.4,0.4c-0.1,1,0.1,2.1,0.3,3.1
		c0.1,0.7,0.3,1.3,0.2,2c-0.2,2.7-0.3,5.4-0.6,8c-0.2,1-0.3,2-0.6,3c-0.8-0.1-1.5,0-2.3-0.2c-0.7-0.2-1.4-0.2-2-0.2
		c-0.8-0.1-1.6,0-2.3,0.3c-0.3,0.1-0.7,0.3-0.7,0.7c0,0.2,0.2,0.4,0.4,0.4c0.6,0.1,1.2,0.1,1.8,0.2c1.1,0.2,2.1,0.5,3.2,0.7
		c2.3,0.4,4.4,1.2,6.6,2c0.8,0.4,1.6,0.7,2.4,1.1c0.7,0.3,1.4,0.7,2.2,1c1.1,0.5,2.2,1,3.3,1.7c1.7,0.9,3.4,1.8,5.1,2.8
		c0.9,0.6,1.8,1.2,2.8,1.8c0.9,0.6,1.9,1.1,2.7,1.8c0.8,0.6,1.6,1.2,2.4,1.8c0.6,0.3,1,0.8,1.5,1.2c0.6,0.5,1,1.1,1.5,1.6
		c1.2,1.5,2.3,3.1,3.3,4.8c0.5,1,0.9,2.1,1.3,3.1c0.2,0.8,0.5,1.6,0.6,2.4c-1.8,0.6-3.6,1.2-5.5,1.5c-2.5,0.5-5,1.2-7.6,1.3
		c-2.9,0.3-5.8-0.2-8.7-0.1c-1.3-0.1-2.6-0.1-3.8-0.2c-2.8-0.3-5.6-0.4-8.3-1c-0.9-0.2-1.8-0.3-2.7-0.4c-1.5-0.3-3-0.8-4.4-1.2
		c-0.8-0.3-1.6-0.4-2.3-0.9c-0.7-0.4-1.4-0.6-2.1-1c-0.9-0.4-1.6-1-2.5-1.4c-0.7-0.3-1.3-0.8-1.9-1.2c-0.6-0.4-1.2-0.8-1.6-1.3
		c-0.4-0.5-0.9-0.8-1.3-1.2c-0.8-0.9-1.7-1.8-2.4-2.8c-0.2,0-0.3,0-0.5,0c0-0.4-0.2-0.7-0.4-1c-0.7-1.1-1-2.3-1.6-3.4
		c-0.6-1.1-1.2-2.2-1.5-3.4c-0.5-1.6-0.9-3.2-1.2-4.9c-0.4-2.2-0.1-4.4-0.1-6.7c0-1.3,0.1-2.6,0.3-3.8c0.1-1.5,0.4-2.9,0.5-4.4
		c0.3-2.6,1-5.1,1.8-7.6c0.6-1.9,1.5-3.6,2.4-5.4c0.8-1.6,1.9-3.2,2.9-4.7c1.2-1.7,2.3-3.4,3.7-5c0.7-0.9,1.5-1.7,2.3-2.6
		c1.2-1.4,2.6-2.5,3.9-3.7c1.6-1.4,3.4-2.6,5.1-3.9c0.9-0.7,1.8-1.4,2.7-2C36.2,58.5,37.6,57.6,39.1,56.8z"/>
	<path class="st2" d="M90,56.1c0.5,0.4,1,0.8,1.6,1c2.4,1.2,4.8,2.6,7,4.3C104,66,108.7,72.1,111,76.2c1,1.7,1.6,3.5,2.3,5.3
		c2.4,5.6,3,9.1,3.6,15.3c0.4,3.6,0.1,7.3-0.8,10.8c-0.8,3.2-1.7,6.5-3.4,9.4c-0.9,1.7-1.9,3.5-3,5.1c-0.7,0.5-1.3,1.2-1.9,1.7
		c-1.5,1.3-3.1,2.6-5,3.5c-4.6,2-7.5,2.4-10.4,2.3c-1.2,0-2.4-0.2-3.5-0.4c-9.5-0.9-19.1-9.8-24.4-13.1c-0.7-0.4-3.8-2.3-5.2-2.8
		c-3-1.6-7.2-3.9-10.7-5.3c-4.8-2.1-9.7-3.1-10.4-3.3c0.2-0.9,0.7-1.8,1.2-2.6c0.4-0.7,1-1.2,1.5-1.8c0.2-0.2,0.4-0.3,0.7-0.3
		c1.9-0.4,3.8-0.8,5.7-1.2c6.2-1,8-0.7,9.7-0.8c2.3-0.2,15.1,0.8,21.3,2.2c1.5,0.3,2.9,0.6,4.4,1c0.9,0.2,12.2,3.8,12.7,3.6
		c1-0.3,2-0.7,2.7-1.4c0.5-0.6,0.7-1.5,0.4-2.2c-0.3-0.7-0.5-1.4-1-2c-0.9-1.1-2-1.9-3.2-2.5c-0.5-0.3-1.2-0.1-1.7,0
		c-0.9,0.2-1.6,0.7-2.5,1c0-1-0.1-0.6,0.9-2.4c1.5-2.6,3.7-4.3,3.9-5.5c-0.2,0-0.4-0.1-0.5,0c-2.6,1.8-3.2,3.1-3.8,3.6
		c0-0.8,0.3-1.6,0.5-2.4c0.1-0.2-0.3-0.3-0.3-0.1c-1.7,2.1-2.8,4.7-5,6.4c-0.5,0.5-1.3,0.6-2,0.7c-0.7,0.1-1.3,0.2-2,0.2
		c-5.2-0.3-8.5-0.9-13.6-2.2c-5.5-1.2-6-0.9-6.3-1.1c0.1-0.5,1.7-3.3,3.4-4.9c0.7-0.7,1.4-1.3,2.2-1.9c1.5-1,2.9-1.9,4.5-2.7
		c1.8-0.8,5-2.5,6.6-3.7c3.7-2.8,7-7.4,9-13c0.6-1.5,1-3.1,1.5-4.7c0.3-1,0.4-2,0.6-3c0.1-1.2,0-2.5,0-3.7
		C89.8,56.9,90.1,56.1,90,56.1z"/>
	<path class="st1" d="M78.1,58.8c0.6-0.3,1.2-0.7,1.8-1c-0.1,0.6-0.2,1.3-0.4,1.9c-0.2,1.2-0.5,2.3-0.8,3.5c-0.2,1-0.5,1.9-0.8,2.8
		c-0.2,0.6-0.4,1.2-0.7,1.8c-0.6,1.3-1.1,2.7-1.9,3.9c-0.9,1.6-1.8,3.1-2.8,4.6c0-0.2,0.1-0.3,0.1-0.5c1-2.1,1.9-4.2,2.8-6.3
		c0.6-2,1.2-3.9,1.6-5.9c0.2-1.4,0.6-2.7,0.6-4.1c-0.7,0.3-1.4,0.7-2.1,1c-0.9,0.4-1.8,0.9-2.7,1.3c-0.4,0.2-0.9,0.5-1.3,0.3
		c-1.1-0.2-2-0.9-3-1.4c-0.2,0.1-0.3,0.3-0.4,0.4c-0.4,0.5-0.8,1-1.2,1.5c-0.1,0.5,0.1,1,0,1.4c-0.2-0.7-0.2-1.5-0.5-2.2
		c0.6-1.2,1.6-2.3,2.3-3.5c0.8,0.8,1.5,1.6,2.3,2.4c0.3,0.3,0.6,0.6,0.9,1c0.6-0.3,1.2-0.6,1.8-0.8C75.3,60.3,76.6,59.4,78.1,58.8z"
		/>
	<path class="st3" d="M75.6,60.5c0.7-0.3,1.4-0.7,2.1-1c0,1.4-0.4,2.8-0.6,4.1c-0.3,2-0.9,4-1.6,5.9c-0.9,2.1-1.8,4.2-2.8,6.3
		c-0.1,0.1-0.1,0.3-0.1,0.5c-0.7,1-1.5,2-2.3,3c-0.4,0.6-1,1-1.4,1.6c-0.1-0.8,0-1.6-0.2-2.4c-0.1-0.8-0.2-1.6-0.3-2.3
		c-0.5-2.5-0.8-5-0.9-7.5c-0.1-1.5-0.4-3-0.5-4.5c0.1-0.5-0.1-1,0-1.4c0.4-0.5,0.8-0.9,1.2-1.5c0.1-0.1,0.2-0.4,0.4-0.4
		c1,0.5,1.9,1.2,3,1.4c0.5,0.1,0.9-0.1,1.3-0.3C73.7,61.4,74.6,60.9,75.6,60.5z"/>
	<path class="st2" d="M108.8,130.5c0.6-0.3,1.2-0.7,1.9-0.9c0.3,2.8,0.7,5.7,0.8,8.5c0.1,3.2,0.1,6.3,0.1,9.5c0,1.4,0.1,2.9,0.2,4.3
		c0.1,1.7,0.1,3.4,0.1,5.1c0,1,0.1,1.9,0.1,2.9c0,1.5,0,3.1,0.1,4.6c0,1.4,0.1,2.9,0,4.3c-0.1,1.1-0.1,2.2-0.3,3.3
		c-0.5,2.8-0.8,5.6-1.7,8.2c-0.3,1-0.6,2-1.1,3c-0.5,1-0.9,2.1-1.5,3c-0.2,0.4-0.4,0.8-0.8,1c-0.6,0.3-1.1,0.4-1.7,0.7
		c-0.2,0.1-0.5,0.2-0.7,0.3c-0.7,0.4-1.5,0.6-2.3,0.9c-0.8,0.3-1.6,0.6-2.4,1c-2,0.6-3.9,1.1-5.9,1.7c-1.4,0.4-2.8,0.7-4.3,1.1
		c-2.6,0.6-5.3,1-7.9,1.6c-1.2,0.2-2.5,0.3-3.7,0.5c-1.3,0.3-2.7,0.4-4.1,0.5c-2.6,0.1-5.2,0.2-7.8,0c-1,0-2-0.3-3-0.3
		c-1.2-0.3-2.4-0.6-3.4-1.2c-0.8-0.7-1.4-1.5-1.9-2.4c-0.4-0.6-0.6-1.3-0.9-2c-0.5-1.1-0.7-2.3-1.1-3.4c-0.3-1.2-0.6-2.3-0.9-3.5
		c-0.2-0.9-0.4-1.9-0.6-2.8c-0.2-1-0.2-2-0.4-2.9c-0.1-1-0.4-2-0.7-3c-0.5-1.4-0.4-2.9-0.5-4.4c0-1,0.1-1.9,0.2-2.8
		c0.1-1.1,0.2-2.1,0.4-3.2c0.2-0.9,0.5-1.7,0.8-2.6c0.4-1.1,0.7-2.2,1.1-3.3c0.5-1.2,0.5-2.5,0.6-3.7c0-1.4-0.3-2.9-0.6-4.3
		c-0.2-0.9-0.5-1.8-0.7-2.7c-0.2-1.3-0.5-2.6-0.6-3.8c-0.1-1-0.3-1.9-0.3-2.9c0-0.2,0.2-0.2,0.3-0.2c2.6-0.2,5.2-0.4,7.7-0.9
		c2.6-0.5,5.2-1,7.8-1.6c2.2-0.6,4.5-1,6.6-1.8c1.8-0.7,3.6-1.4,5.3-2.3c0.3-0.2,0.6,0,0.9,0c2.4,0.6,4.9,0.9,7.4,1
		c1.1,0.1,2.3,0.1,3.4,0c2.8-0.1,5.6-0.5,8.2-1.4c0.7-0.3,1.4-0.5,2.1-0.6C105.1,132,107,131.4,108.8,130.5z"/>
	<path class="st2" d="M11.3,136.5c1.5-0.6,3-1,4.6-1.1c0.9,0.1,1.9,0,2.8,0.2c1.5,0.3,3,0.9,4.5,1.3c1.2,0.4,2.4,0.7,3.6,1
		c1.6,0.4,3.2,0.9,4.8,1.3c2.8,0.7,5.7,1,8.6,1.2c1.2,0.1,2.3,0.1,3.5,0.1c1.6,0,3.2,0,4.8-0.1c1.3,1.7,1.6,3.9,1.5,6
		c-0.1,0.8-0.1,1.5-0.2,2.3c-0.1,3,0,6,0.4,9c0.4,2.1,1,4.2,0.9,6.4c0,0.8,0.2,1.7,0,2.5c-0.2,1.3-0.3,2.6-0.4,4
		c0,1.1-0.1,2.3,0.1,3.4c0,0.6,0.3,1.2,0.3,1.9c0.1,1.7,0,3.4-0.2,5.1c-0.3,2.4-0.4,4.8-0.9,7.2c-0.2,1.2-0.6,2.3-0.9,3.5
		c-0.1,0.4-0.3,0.9-0.3,1.3c-0.6,0.5-1.3,0.9-2,1.2c-0.5,0.2-1.1,0.4-1.6,0.6c-1,0.4-2.1,0.4-3.2,0.6c-1.5,0.2-3,0.3-4.5,0.4
		c-2.6,0.2-5.3,0.1-7.9,0c-3.7-0.4-7.4-1.1-11-2c-2.3-0.6-4.4-1.6-6.5-2.6c-0.6-0.4-1.1-0.9-1.2-1.5c-0.3-1.6-0.6-3.3-0.8-4.9
		c-0.1-1.4-0.2-2.7-0.4-4.1c-0.2-1.3-0.3-2.6-0.5-3.9c-0.2-1-0.1-2-0.2-3c-0.2-3.2-0.1-6.5-0.1-9.7c0-0.5-0.1-1-0.1-1.5
		c-0.1-0.9,0-1.8,0.1-2.7c0-0.8,0-1.6,0-2.4c0.2-2.4,0.1-4.9,0.3-7.3c0.2-1.7,0.3-3.4,0.5-5.2C10.3,142.1,10.8,139.3,11.3,136.5z"/>
	<path class="st1" d="M54.1,179.9c0.2,0.9,0.4,1.9,0.6,2.8c0.3,1.2,0.6,2.3,0.9,3.5c0.3,1.1,0.6,2.3,1.1,3.4c0.3,0.7,0.5,1.4,0.9,2
		c0.5,0.9,1.1,1.7,1.9,2.4c1,0.7,2.2,1,3.4,1.2c1,0.1,2,0.3,3,0.3c2.6,0.2,5.2,0.1,7.8,0c1.4-0.1,2.7-0.3,4.1-0.5
		c1.2-0.2,2.5-0.3,3.7-0.5c2.6-0.6,5.3-0.9,7.9-1.6c1.4-0.4,2.9-0.7,4.3-1.1c2-0.6,3.9-1.2,5.9-1.7c-0.8,0.6-1.7,1.2-2.5,1.9
		c-0.6,0.6-1.5,0.9-2,1.6c-0.1,0.1-0.3,0.3-0.4,0.4c-0.3-0.1-0.7,0-1.1,0.1c-2.3,0.8-4.8,1.2-7.2,1.9c-1.3,0.3-2.5,0.6-3.7,0.9
		c-1,0.2-1.9,0.5-2.9,0.7c-1,0.2-2,0.6-3,0.9c-2.5,0.6-5,1.2-7.6,1.6c-1.4,0.2-2.8,0.5-4.2,0.5c-1.2,0-2.5,0-3.7-0.2
		c-1-0.2-2-0.5-2.8-1c-0.6-0.4-1-0.9-1.4-1.4c-0.7-1-1-2.1-1.4-3.3c-0.4-1.4-0.6-2.9-0.7-4.3c-0.1,1.3,0,2.5,0,3.8
		c-0.1,3.4,0,6.7-0.1,10.1c-0.1,2.8-0.1,5.6-0.1,8.4c0,0.5,0,1-0.1,1.4c-0.1,0.1-0.2,0.2-0.3,0.2c0,0-0.1,0.1-0.1,0.2
		c-0.1-0.1-0.3-0.1-0.4-0.2c-0.2-1.3-0.1-2.6-0.1-3.8c0-1.8,0.1-3.6,0.1-5.4c0-4.1,0.1-8.3,0.2-12.4c0-1.4,0.1-2.7,0-4.1
		c-0.9,1.8-1.9,3.7-2.9,5.4c-0.9,1.4-1.9,2.8-3.3,3.9c-0.8,0.6-1.7,0.7-2.6,1c-0.8,0.3-1.7,0.4-2.6,0.5c-1.5,0.1-3,0.2-4.5,0.1
		c-1.5,0-3.1-0.1-4.6-0.2c-1.6-0.2-3.2-0.3-4.8-0.6c-2.3-0.4-4.7-0.7-6.9-1.4c-1.7-0.4-3.3-1.2-4.9-1.8c-1.5-0.5-2.9-1.3-4.3-2.2
		c-0.1-0.7-0.2-1.3-0.2-2c2.1,1,4.2,1.9,6.5,2.6c3.6,0.9,7.3,1.6,11,2c2.6,0.1,5.3,0.3,7.9,0c1.5-0.1,3-0.2,4.5-0.4
		c1-0.2,2.2-0.2,3.2-0.6c0.5-0.2,1.1-0.4,1.6-0.6c0.7-0.3,1.4-0.7,2-1.2c0.8-0.7,1.3-1.7,1.7-2.7c0.4-0.9,0.7-1.8,1.2-2.7
		c0.2-0.4,0.3-0.8,0.4-1.2c0.4-1.3,0.9-2.6,1.2-4C53.8,181.6,53.8,180.7,54.1,179.9z"/>
	<path class="st6" d="M101.9,189.1c0.8-0.3,1.6-0.5,2.3-0.9c-0.4,1.1-0.6,2.2-0.8,3.3c-0.1,0.6-0.3,1.2-0.5,1.8
		c-0.3,0.8-0.4,1.6-0.6,2.4c-1.1-0.4-2.2-1-3.3-1.3c-0.8-0.2-1.5-0.2-2.3-0.2c-0.2,0-0.4,0.1-0.6,0.3c-0.9,0.9-1.8,1.8-2.7,2.6
		c-1.2,1.1-2.3,2.4-3.4,3.6c-0.9,0.9-2,1.6-3,2.4c-0.6,0.6-1.1,1.3-1.7,1.9c-1.3,1.3-2.5,2.6-3.9,3.7c-1.6,1.3-3.2,2.7-5,3.8
		c-2.5,1.7-5.2,3.1-7.8,4.5c-0.3,0.2-0.8,0.3-0.9,0.8c-0.6,1.3-0.2,2.8-0.4,4.2c-0.2,0.9-0.4,1.7-0.6,2.5c-0.3,1.1-0.7,2.2-0.8,3.4
		c-0.1,2.2-0.6,4.3-0.7,6.5c0.1,1.9,0.4,3.8,1.1,5.6c0.4,0.9,1,1.8,1.7,2.5c0.4,0.5,0.9,0.8,1.4,1.1c0.9,0.6,1.6,1.5,2,2.4
		c0.3,0.6,0.5,1.3,0.7,1.9c0.3,0.7,0.7,1.3,1,2.1c0.2,0.4,0.4,0.8,0.7,1.2c0.4,0.5,0.7,1,1,1.6c0.9,1.4,1.9,2.7,3.1,4
		c0.9,1.1,2,2,2.8,3.2c1.5,2.2,3.3,4.3,5.2,6.2c-0.1,0.4-0.2,0.9-0.4,1.3c-0.7-0.8-1.5-1.6-2.3-2.4c-1-1.1-2-2.2-2.9-3.4
		c-0.4-0.7-0.9-1.3-1.4-1.9c-0.5-0.6-1-1-1.5-1.6c-0.6-0.7-1.3-1.4-1.9-2.1c-0.6-0.7-1.1-1.4-1.6-2.1c-0.5-0.6-0.8-1.4-1.3-2
		c-1-1.2-2.1-2.3-3-3.6c-1-1.4-2.1-2.7-3-4.1c-0.9-1.3-1.6-2.7-2.6-3.9c-0.9-1.1-1.9-2.1-2.7-3.2c0.2-1.3,0.4-2.6,0.6-3.8
		c0.2-1.1,0.4-2.1,0.6-3.2c0.1-1.5,0.2-3.1,0.2-4.6c0-1.4,0.2-2.8,0.1-4.2c-0.1-1.6-0.1-3.2-0.2-4.8c0-1.2-0.1-2.4-0.1-3.7
		c1-0.3,2-0.8,3-1.2c1-0.4,2.1-0.7,3.2-1.3c2.1-1,4.2-2.1,6.2-3.3c1.8-1,3.7-2,5.5-3.1c2.4-1.5,4.6-3,6.9-4.6
		c0.8-0.5,1.5-1.2,2.2-1.7c1.8-1.2,3.4-2.5,5-3.9c0.2-0.1,0.3-0.3,0.4-0.4c0.6-0.7,1.4-1,2-1.6c0.8-0.7,1.6-1.3,2.5-1.9
		C100.3,189.7,101.1,189.4,101.9,189.1z"/>
	<path class="st3" d="M51.1,193.9c1.1-1.7,2-3.6,2.9-5.4c0.2,1.4,0.1,2.7,0,4.1c-0.1,4.1-0.2,8.3-0.2,12.4c0,1.8-0.1,3.6-0.1,5.4
		c0,1.3-0.1,2.6,0.1,3.8c-0.7-0.1-1.3,0-2-0.1c-0.8-0.1-1.6-0.2-2.3-0.4c-0.9-0.3-1.9-0.5-2.8-0.8c-0.5-0.1-0.9-0.4-1.4-0.4
		c-1.3-0.2-2.6-0.7-3.8-1.2c-0.8-0.3-1.6-0.6-2.4-0.9c-1.2-0.5-2.5-0.9-3.7-1.5c-1.7-0.8-3.4-1.6-5.1-2.5c-1.8-1-3.5-2-5.4-2.8
		c-1.6-0.7-3.2-1.4-4.9-2c-0.7-0.3-1.4-0.8-2.2-1.1c-1.1-0.5-2.2-1.1-3.1-1.8c-0.7-0.5-1.2-1.2-1.4-2c-0.3-1.1-0.8-2.3-0.9-3.5
		c1.4,0.9,2.8,1.7,4.3,2.2c1.6,0.6,3.2,1.3,4.9,1.8c2.3,0.7,4.6,1,6.9,1.4c1.6,0.3,3.2,0.4,4.8,0.6c1.5,0.2,3.1,0.3,4.6,0.2
		c1.5,0.1,3,0,4.5-0.1c0.9-0.1,1.7-0.3,2.6-0.5c0.9-0.3,1.9-0.5,2.6-1C49.2,196.7,50.2,195.3,51.1,193.9z"/>
	<path class="st3" d="M55,194.1c0-1.3,0-2.5,0-3.8c0.1,1.5,0.3,2.9,0.7,4.3c0.4,1.1,0.7,2.3,1.4,3.3c0.4,0.5,0.9,1,1.4,1.4
		c0.9,0.5,1.8,0.8,2.8,1c1.2,0.2,2.5,0.2,3.7,0.2c1.4,0,2.8-0.3,4.2-0.5c2.5-0.4,5.1-1,7.6-1.6c1-0.2,2-0.7,3-0.9
		c1-0.2,1.9-0.5,2.9-0.7c1.3-0.3,2.5-0.6,3.7-0.9c2.4-0.6,4.8-1.1,7.2-1.9c0.3-0.1,0.7-0.2,1.1-0.1c-1.6,1.4-3.3,2.7-5,3.9
		c-0.8,0.5-1.5,1.2-2.2,1.7c-2.3,1.6-4.6,3.2-6.9,4.6c-1.8,1.1-3.6,2.1-5.5,3.1c-2,1.2-4.1,2.2-6.2,3.3c-1,0.5-2.1,0.8-3.2,1.3
		c-1,0.4-2,0.8-3,1.2c-0.8,0.3-1.6,0.5-2.4,0.6c-0.8,0.1-1.6,0.4-2.4,0.4c-1.2,0-2.3-0.1-3.5,0.1c0.1-0.1,0.2-0.2,0.3-0.2
		c0.1-0.5,0.1-1,0.1-1.4c0-2.8,0-5.6,0.1-8.4C55,200.8,54.9,197.4,55,194.1z"/>
	<path class="st7" d="M96.2,194.6c0.2-0.2,0.3-0.3,0.6-0.3c0.8,0,1.5,0.1,2.3,0.2c1.2,0.2,2.2,0.8,3.3,1.3c-1,4.5-1.8,9.1-2.7,13.6
		c-0.2,1.3-0.5,2.7-0.9,4c-0.2,1-0.6,2-0.7,3.1c-0.3,2.2-0.6,4.5-1.2,6.7c-0.3,1.2-0.5,2.5-0.8,3.7c-0.5,2-2.4,10.6-2.9,12.9
		c-0.9,3.7-1.7,7.4-2.9,11c-0.3,1.7-0.9,3.3-1.3,5c-0.4,1.5-0.9,2.9-1.3,4.4c-0.6,2-1.1,4.1-1.7,6.2c-2-1.8-3.7-3.9-5.2-6.2
		c-0.8-1.2-1.9-2.1-2.8-3.2c-1.1-1.2-2.1-2.6-3.1-4c-0.3-0.5-0.6-1.1-1-1.6c-0.3-0.3-0.6-0.7-0.7-1.2c-0.3-0.7-0.7-1.3-1-2.1
		c-0.2-0.6-0.4-1.3-0.7-1.9c-0.4-1-1.1-1.8-2-2.4c-0.5-0.3-1-0.7-1.4-1.1c-0.7-0.8-1.3-1.6-1.7-2.5c-0.7-1.8-1.1-3.7-1.1-5.6
		c0.1-2.2,0.6-4.3,0.7-6.5c0-1.2,0.5-2.3,0.8-3.4c0.2-0.8,0.5-1.7,0.6-2.5c0.3-1.4-0.1-2.9,0.4-4.2c0.1-0.4,0.6-0.6,0.9-0.8
		c2.6-1.4,5.3-2.8,7.8-4.5c1.8-1.1,3.4-2.5,5-3.8c1.4-1.2,2.7-2.4,3.9-3.7c0.6-0.6,1.1-1.3,1.7-1.9c1-0.8,2-1.5,3-2.4
		c1.1-1.2,2.2-2.5,3.4-3.6C94.4,196.4,95.3,195.5,96.2,194.6z"/>
	<path class="st6" d="M14.7,198.6c1,0.7,2,1.3,3.1,1.8c0.7,0.3,1.4,0.8,2.2,1.1c1.6,0.6,3.2,1.4,4.9,2c1.9,0.8,3.6,1.9,5.4,2.8
		c1.7,0.9,3.4,1.7,5.1,2.5c1.2,0.6,2.5,1,3.7,1.5c0.8,0.3,1.6,0.6,2.4,0.9c1.3,0.4,2.5,1,3.8,1.2c0.5,0.1,0.9,0.3,1.4,0.4
		c0.9,0.3,1.9,0.5,2.8,0.8c0.8,0.2,1.6,0.3,2.3,0.4c0.7,0.1,1.3,0,2,0.1c0.1,0.1,0.3,0.1,0.4,0.2c-0.2,0.4-0.3,0.9-0.3,1.4
		c-0.2,1.5-0.5,2.9-0.7,4.4c-0.1,0.9-0.3,1.9-0.5,2.8c-0.2,1-0.8,1.9-1.2,2.9c-0.2,0.5-0.2,1-0.1,1.5c-0.6,0.6-1,1.3-1.7,1.9
		c-0.5,0.5-1.1,1-1.9,1.1c-0.5,0.1-1-0.4-0.8-0.9c0.2-0.8,0.7-1.4,1.2-2.1c0.6-0.9,1.4-1.6,1.9-2.6c0.3-0.7,0.6-1.3,0.7-2.1
		c-0.2-0.5-0.6-1-1-1.4c-1.4-1.6-3-3-4.9-4.1c-1.8-1-3.7-1.8-5.5-2.9c-1.6-1-3.3-1.8-5-2.7c-1.7-0.8-3.4-1.6-5.1-2.4
		c-2-0.9-4-1.8-6-2.6c-2.1-0.8-4.4-1.4-6.6-1.2c-0.7,0.1-1.4,0.3-2.2,0.4c-0.1-1.3,0-2.6,0-3.9C14.7,200.7,14.7,199.7,14.7,198.6z"
		/>
	<path class="st7" d="M14.7,205.7c0.7-0.1,1.4-0.3,2.2-0.4c2.3-0.2,4.5,0.4,6.6,1.2c2,0.8,4,1.7,6,2.6c1.7,0.7,3.4,1.5,5.1,2.4
		c1.7,0.9,3.3,1.8,5,2.7c1.8,1,3.7,1.8,5.5,2.9c1.8,1.1,3.5,2.5,4.9,4.1c0.4,0.4,0.8,0.9,1,1.4c-0.1,0.7-0.4,1.4-0.7,2.1
		c-0.5,1-1.3,1.7-1.9,2.6c-0.5,0.6-1,1.3-1.2,2.1c-0.1,0.5,0.3,1,0.8,0.9c0.7-0.1,1.3-0.6,1.9-1.1c0.7-0.6,1.1-1.3,1.7-1.9
		c0.3,0.6,1,0.4,1.4,0.8c0.4,0.6,0.7,1.2,1,1.9c0.4,0.4,0.8,0.7,1.3,1c1.7,1.4,3.1,3,4.6,4.6c0.5,0.6,1.1,1.1,1.6,1.8
		c0.8,1.1,1.8,2.1,2.7,3.2c1,1.2,1.8,2.6,2.6,3.9c0.9,1.4,2,2.7,3,4.1c0.9,1.3,2,2.4,3,3.6c0.5,0.6,0.8,1.3,1.3,2
		c0.5,0.7,1,1.5,1.6,2.1c0.6,0.7,1.3,1.4,1.9,2.1c0.5,0.5,1,1,1.5,1.6c0.5,0.6,0.9,1.3,1.4,1.9c0.9,1.2,1.8,2.3,2.9,3.4
		c0.8,0.7,1.6,1.5,2.3,2.4c0.3,0.6,0.7,1.1,1,1.6c0.6,0.9,1.3,1.7,2.1,2.5c-0.4,2.7-1.6,5.2-2.7,7.7c-0.5,1.1-0.9,2.3-1.6,3.4
		c-0.2,0.3-0.4,0.6-0.3,1c0.1,0,0.2,0,0.3,0c0.4-0.6,0.7-1.2,1.2-1.7c0.5-0.6,0.9-1.4,1.4-2c0.8-1.4,1.6-2.7,2.3-4.2
		c0.4-0.9,0.8-1.9,1.2-2.9c0.5,0.3,1,0.7,1.4,1.1c0.4,0.3,0.4,0.9,0.3,1.3c-0.3,1.2-0.8,2.4-1.2,3.6c-0.5,1.2-0.9,2.5-1.6,3.6
		c-0.5,0.8-0.9,1.6-1.5,2.4c-0.5,0.7-1,1.4-1.5,2c-1,1.1-2,2.3-3.1,3.2c-0.5,0.6-1.1,1.3-1.7,1.9c-0.3,0.1-0.6,0.1-0.8,0
		c-0.8-0.3-1.4-0.9-2.1-1.5c-0.2-0.2-0.5-0.3-0.7-0.5c-0.4-0.6-1.1-0.9-1.8-1.2c-0.9-0.3-0.7-1.5-1.4-2.2c-0.3-0.3-0.5-0.7-0.7-1
		c-0.6-0.2-1.2-0.2-1.8-0.3c-0.5-0.1-1.1-0.3-1.3-0.9c-0.4-1.1-1-2.2-1.9-3.1c-0.9-1-1.9-1.9-2.8-2.9c-1.2-1.3-2.5-2.5-3.9-3.6
		c-0.9-0.7-1.9-1.4-2.9-2c-0.7-0.4-1.3-1.1-2-1.3l-0.1,0c-0.4-0.4-0.8-0.8-1.3-1.1c-1.2-0.9-2.4-1.8-3.7-2.5
		c-0.5-0.3-0.9-0.5-1.4-0.8c-0.7-0.3-1.3-0.8-2-1.1c-0.6-0.3-1.1-0.6-1.7-1c-0.7-0.4-1.5-0.9-2.2-1.3c-0.8-0.5-1.4-1.1-2.2-1.6
		c-0.7-0.5-1.4-1-2.2-1.5c-0.9-0.6-1.5-1.4-2.3-2.1c-1.1-1.1-2.3-2.2-3.4-3.3c-2.4-2.5-4.6-5.3-6.7-8.1c-0.9-1.2-1.7-2.5-2.6-3.7
		c-1.1-1.4-1.9-3-2.7-4.5c-0.4-0.8-0.8-1.7-1.2-2.5c-0.5-1-1-2-1.4-3.1c-0.7-1.9-1.4-3.8-1.9-5.7c-0.4-1.7-1-3.4-1.4-5.2
		c-0.6-2.5-1.1-5-1.5-7.6C15.1,211.9,14.7,208.8,14.7,205.7z"/>
	<path class="st6" d="M57.4,271.8c0.8,0.3,1.4,0.9,2,1.3c1,0.6,2,1.3,2.9,2c1.5,1,2.7,2.3,3.9,3.6c0.9,1,1.9,1.9,2.8,2.9
		c0.8,0.9,1.4,2,1.9,3.1c0.2,0.6,0.8,0.7,1.3,0.9c0.6,0.1,1.2,0.2,1.8,0.3c0.2,0.4,0.4,0.7,0.7,1c0.6,0.6,0.4,1.8,1.4,2.2
		c0.7,0.3,1.3,0.6,1.8,1.2c0,0.5-0.2,1-0.2,1.5c-0.1,0.6-0.2,1.2-0.4,1.7c-1.5-0.4-2.9-1.2-4.1-2.2c-0.5-0.4-0.8-1.1-1.3-1.6
		c-0.4-0.4-0.9-0.5-1.4-0.7c-1-0.2-2-0.7-2.7-1.4c-0.8-0.8-1.5-1.7-2-2.7c-0.6-1.3-1.6-2.4-2.8-3.2c-0.8-0.5-1.6-1.1-2.6-1.3
		c-0.7-0.2-1.5,0.1-2.2,0.5c-0.5,0.3-0.9,0.7-1.5,0.8c0-1.7,0-3.5,0.1-5.2c0.1-1-0.1-2.1,0.1-3.1C57.2,272.8,57.3,272.3,57.4,271.8z
		"/>
	<path class="st6" d="M88.6,271.8c0.5,0.5,1.1,0.9,1.7,1.3c-0.4,0.9-0.7,1.9-1.2,2.9c-0.7,1.4-1.5,2.8-2.3,4.2
		c-0.4,0.7-0.8,1.4-1.4,2c-0.5,0.5-0.8,1.1-1.2,1.7c-0.1,0-0.2,0-0.3,0c-0.1-0.4,0.1-0.7,0.3-1c0.6-1.1,1-2.3,1.6-3.4
		C87,277,88.2,274.5,88.6,271.8z"/>
	<path class="st1" d="M90.9,279.1c0.4-1.2,0.8-2.4,1.2-3.6c0.2,0.1,0.4,0.1,0.7,0.2c-0.5,0.8-0.5,1.6-0.7,2.5
		c-0.7,2.2-1.6,4.4-2.5,6.5c-0.4,0.8-0.6,1.7-1.1,2.5c-1.1,1.6-2.2,3.2-3.5,4.7c-0.7,0.8-1.3,1.6-2,2.4c-0.5,0.7-1,1.5-1.4,2.2
		c0-0.1,0-0.2-0.1-0.3c0.1-1.4,0.2-2.7,0.1-4.1c0.6-0.6,1.1-1.2,1.7-1.9c1.1-1,2.2-2.1,3.1-3.2c0.5-0.7,1-1.4,1.5-2
		c0.5-0.8,0.9-1.6,1.5-2.4C90,281.5,90.4,280.3,90.9,279.1z"/>
	<path class="st3" d="M92.7,275.7c0.6,0.2,1.2,0.6,1.8,0.9c0.6,0.3,1.2,0.3,1.8,0.6c0.5,0.2,1,0.2,1.5,0.3c-0.1,0-0.3,0-0.3,0
		c-0.3,1.1-0.5,2.2-0.8,3.2c-0.3,1.2-0.8,2.3-1.2,3.5c-0.5,1.4-0.8,2.8-1.2,4.2c-0.6,2.1-1.1,4.2-1.7,6.3c-0.3,1.2-0.5,2.4-0.9,3.5
		c-0.5,1.9-1,3.7-1.8,5.5c-0.8,2-1.9,3.8-3.1,5.5c-0.9,1.4-1.9,2.8-2.9,4.2c-0.4,0.5-0.7,1.1-1.3,1.4c-0.9-0.6-1.6-1.5-2.1-2.4
		c-0.4-0.9-0.6-1.8-0.4-2.8c0.1-1.4,0.3-2.8,0.4-4.2c0.1-1.5,0.4-2.9,0.4-4.4c0-1.1,0.2-2.1,0.3-3.2c0.1-0.5,0-1,0.1-1.4
		c0,0.1,0,0.2,0.1,0.3c0.4-0.8,0.8-1.5,1.4-2.2c0.6-0.8,1.3-1.6,2-2.4c1.3-1.5,2.4-3.1,3.5-4.7c0.5-0.8,0.8-1.7,1.1-2.5
		c0.9-2.1,1.8-4.3,2.5-6.5C92.2,277.4,92.3,276.5,92.7,275.7z"/>
	<path class="st1" d="M97.5,277.5c0.1,0,0.3,0,0.3,0c1.4,0.3,2.8,0.8,4.1,1.4c0.7,0.3,1.4,0.6,1.9,1.3c0.1,0.4,0.3,0.8,0.2,1.2
		c-0.2,0.6-0.3,1.1-0.5,1.7c-1,2.4-2.2,4.6-3.4,6.9c-0.5,0.9-0.9,1.8-1.4,2.6c-0.6,1-1.1,2-1.4,3.1c-0.5,2.1-1,4.2-1.8,6.1
		c-0.4,0.9-0.7,1.8-1.1,2.6c-0.4,0.8-0.9,1.5-1.4,2.3c-1,1.9-2.3,3.6-3.6,5.3c-0.6,0.8-1.3,1.6-1.9,2.4c-0.3,0.5-0.7,1-1.3,1.2
		c-0.3,0.1-0.6,0.3-0.8,0.1c-0.9-0.2-1.9-0.4-2.5-1.1c0.6-0.3,0.9-0.9,1.3-1.4c1-1.4,1.9-2.8,2.9-4.2c1.2-1.7,2.3-3.5,3.1-5.5
		c0.7-1.8,1.3-3.6,1.8-5.5c0.4-1.2,0.6-2.3,0.9-3.5c0.6-2.1,1.1-4.2,1.7-6.3c0.4-1.4,0.7-2.8,1.2-4.2c0.4-1.2,0.9-2.3,1.2-3.5
		C97.1,279.6,97.2,278.5,97.5,277.5z"/>
	<path class="st7" d="M58.3,280.9c0.6-0.4,1.4-0.6,2.2-0.5c0.9,0.2,1.8,0.7,2.6,1.3c1.2,0.8,2.2,1.9,2.8,3.2c0.5,1,1.1,2,2,2.7
		c0.8,0.7,1.7,1.1,2.7,1.4c0.5,0.1,1.1,0.2,1.4,0.7c0.4,0.5,0.7,1.2,1.3,1.6c1.2,1,2.5,1.9,4.1,2.2l0,0c-0.3,0.9-0.6,1.9-0.9,2.8
		c-0.8,0.3-1.6,0.7-2.3,1.1c-1.9,1-4,1.7-6.1,1.8c-1.7,0.1-3.4,0.2-5.1-0.1c-2.3-0.3-4.5-1.2-6.6-2.1l0,0c-0.1-1.4,0.5-2.8,1-4.1
		c0.3-1.3,0.5-2.7,0.2-4c-0.2-1.4-0.5-2.8-0.5-4.2c0-1-0.1-2.1-0.1-3.1C57.4,281.6,57.8,281.1,58.3,280.9z"/>
	<path class="st6" d="M74.2,297.3c0.8-0.4,1.5-0.8,2.3-1.1c-0.4,1.2-1.1,2.4-1,3.7c-1.3,0.2-2.5,0.4-3.8,0.7
		c-1.8,0.3-3.6,0.6-5.4,0.6c-1,0.1-2.1-0.1-3.1-0.1c-1.1-0.1-2.2,0-3.3-0.1c-0.8-0.1-1.7,0.1-2.5-0.1c0-0.4,0-0.9-0.2-1.3
		c-0.4-0.8-0.8-1.7-0.9-2.6c2.1,0.9,4.3,1.8,6.6,2.1c1.7,0.3,3.4,0.2,5.1,0.1C70.2,299,72.3,298.3,74.2,297.3z"/>
	<path class="st7" d="M71.7,300.6c1.3-0.2,2.5-0.5,3.8-0.7c0.3-0.1,0.5,0.2,0.5,0.4c0,0.9-0.4,1.7-0.6,2.6c0.5,0.5,0.3,1.2,0,1.8
		c-0.1,0.3-0.3,0.7-0.6,0.5c-0.3,0-0.6,0.1-1,0.2c-1,0.1-1.9,0.1-2.9,0c-2.3,0-4.6,0.2-6.9,0.4c-1.9,0-3.8-0.3-5.7-0.5
		c-0.4-0.1-0.8-0.1-1.2,0c-0.3,0-0.3-0.4-0.4-0.7c-0.2-0.6-0.1-1.1,0.1-1.7c0.2-0.6,0-1.2,0.2-1.8c0.1-0.2,0.3-0.3,0.6-0.3
		c0.8,0.2,1.6,0.1,2.5,0.1c1.1,0.1,2.2,0,3.3,0.1c1,0,2.1,0.2,3.1,0.1C68.1,301.2,69.9,300.9,71.7,300.6z"/>
	<path class="st1" d="M57.1,305.3c0.4-0.1,0.8-0.1,1.2,0c1.9,0.2,3.8,0.5,5.7,0.5c2.3-0.2,4.6-0.4,6.9-0.4c1,0.1,1.9,0.1,2.9,0
		c0.3,0,0.6-0.2,1-0.2c0.3,0.8,0.6,1.6,0.9,2.3c-0.7,0-1.3-0.1-1.9-0.5c-1.9-0.9-4.1-1.1-6.2-1c-1.2,0-2.4,0.3-3.6,0.6
		c-1.4,0.4-2.7,0.8-4.1,1.2c-1,0-2-0.1-3-0.3c0-0.2,0-0.4,0-0.7C57,306.3,57,305.8,57.1,305.3z"/>
	<path class="st3" d="M64,306.6c1.2-0.3,2.4-0.6,3.6-0.6c2.1-0.1,4.3,0.2,6.2,1c0.5,0.4,1.2,0.6,1.9,0.5c0.2,0.4,0.4,0.9,0.7,1.3
		c0.9,1.9,2.1,3.6,2.9,5.5c0.1,0.3,0.2,0.6,0.3,0.9c-0.5,0.2-1,0.5-1.5,0.8c-2.1,0.9-4.4,1.4-6.6,1.6c-1.6,0.1-3.3,0.2-4.9,0.2
		c-1,0-2,0.1-3-0.1c-1.2-0.2-2.4-0.4-3.6-0.6c-1.4-0.2-2.7-0.6-4.1-0.8c0-1.5,0.2-3,0.4-4.5c0.2-1.2,0.2-2.5,0.5-3.7
		c0.1-0.4,0-0.9,0.2-1.3c0,0.2,0,0.4,0,0.7c1,0.2,2,0.3,3,0.3C61.3,307.4,62.7,307,64,306.6z"/>
	<path class="st1" d="M78.1,316.1c0.5-0.2,1-0.6,1.5-0.8c0.4,1.7,0.4,3.4,0.2,5.1c-0.8,0.7-1.8,1.1-2.8,1.5
		c-2.1,0.9-4.3,1.6-6.6,1.8c-1.8,0.1-3.5,0.1-5.3,0c-2.2-0.3-4.4-0.5-6.6-1.1c-0.8-0.2-1.5-0.4-2.2-0.8c-0.4-0.3-0.4-0.8-0.4-1.2
		c0-1.4-0.1-2.8,0-4.2c1.4,0.1,2.7,0.6,4.1,0.8c1.2,0.2,2.4,0.4,3.6,0.6c1,0.2,2,0.1,3,0.1c1.6,0,3.3,0,4.9-0.2
		C73.8,317.6,76.1,317.1,78.1,316.1z"/>
</g>
<g>
	<path class="st7" d="M76,8.8c1.5-0.3,3,0,4.4,0.5c0.4,0.2,1,0.4,1.1,0.9c0.2,1.3-0.5,2.7,0.1,4c0.3,0.9,1.1,1.5,1.7,2.3
		c0.9,1.1,1.6,2.4,2.2,3.6c0.5,1,0.8,2,1.2,3c0.9,2.7,0.8,5.7,0,8.5c-0.2,1-0.6,2-1.2,2.8c-0.6,0-1.3-0.1-1.8,0.3
		c-0.2,0.6-0.2,1.3-0.4,1.9c-0.1,0.3-0.2,0.7-0.3,1c-0.2,0.1-0.4,0.2-0.7,0.3c-0.1,0-0.2-0.1-0.3-0.1c0-0.2,0-0.3,0-0.5
		c0.1-0.3,0.1-0.5,0.2-0.8l0-0.1c0.2-0.7,0.1-1.4,0.1-2.1c-0.1-0.4-0.2-0.8-0.4-1.1c-0.3-1-0.8-1.9-1.2-2.8
		c-0.3-0.7-0.5-1.4-0.6-2.1c-0.2-0.6-0.2-1.2-0.3-1.9c0-0.9,0-1.7,0.2-2.6c-0.1-0.1-0.1-0.2-0.2-0.3c-0.7-0.5-1.6-0.3-2.4-0.4
		c-1.1-0.1-2.1-0.2-3.2-0.4c-1.4-0.3-2.9-0.6-4.3-1.2c-1.1-0.5-2.1-1.2-3.2-1.9c-0.7-0.4-1.1-1-1.7-1.6c-0.2,0-0.5-0.1-0.6,0.1
		c-1,0.9-2,1.9-2.8,2.9c-0.5,0.7-1,1.3-1.6,2c-0.3,0.3-0.5,0.7-0.8,0.9c0.3-1.3,0.7-2.5,1.3-3.7c1.1-2.2,3.1-3.8,5.2-4.9
		c0.2-0.1,0.5-0.2,0.7-0.5c1.5-2,3.3-3.7,5.4-4.9C73.4,9.3,74.7,8.9,76,8.8z"/>
	<path class="st5" d="M64.6,18.1c0.2-0.2,0.4-0.2,0.6-0.1c-0.1,0-0.3,0.1-0.4,0.1c0.1,0.5,0.5,0.9,0.8,1.4c1.1,1.4,2.7,2.4,4.2,3.1
		c2.5,1.2,5.3,1.5,8.1,1.2c0.7-0.1,1.3-0.1,1.9-0.4c0.1,0.1,0.1,0.2,0.2,0.3c-0.2,0.8-0.2,1.7-0.2,2.6c-0.1-0.3-0.1-0.7-0.1-1
		c0,1.9,0.1,3.9,0.8,5.8c0.4,1.1,1.4,2.1,1.5,3.4c-1.6,0.2-3.1,0.6-4.6,1c-0.7,0.2-1,0.9-1.6,1.3c-0.4,0.2-0.9,0.2-1.3,0.3
		c-0.9,0.2-1.8,0-2.6-0.2c-1.1-0.2-2.1-0.6-2.9-1.3c-0.6-0.5-0.7-1.2-0.7-1.9c-0.4,0.6-0.5,1.6,0.1,2.2c0.6,0.7,1.4,0.9,2.2,1.3
		c1.2,0.4,2.4,0.7,3.7,0.6c0.8,0,1.6-0.4,2.2-0.9c0.4-0.3,0.6-0.7,1.1-0.8c0.9-0.3,1.9-0.5,2.8-0.8c0.6-0.2,1.1-0.3,1.7-0.4
		c0.1,0.5-0.1,1.1,0.1,1.7c-0.1,0.3-0.1,0.5-0.2,0.8c-0.3,0.8-0.5,1.7-0.9,2.5c-0.4,0.7-0.8,1.3-1.3,1.9C79,43,77.7,44,76.5,44.9
		c-1.4,1-2.9,2.1-4.6,2.5c-0.4,0.1-0.7-0.2-0.7-0.6c-0.1-0.8-0.2-1.7-0.4-2.5c-0.5-1.8-1.2-3.5-2.6-4.8c-0.3-0.3-0.6-0.5-1-0.7
		c-0.6-0.3-1.1-0.6-1.7-0.8c-0.4-0.1-0.9-0.2-1.4-0.3c0.6-0.2,1-0.7,1.5-1.1c0.2-0.2,0.5-0.5,0.4-0.8c-0.3,0.1-0.6,0.3-0.9,0.2
		c-0.5,0-1-0.1-1.5,0c-0.3,0.4-0.3,1-0.3,1.6c-1-0.1-2.1,0-3.1,0.2c-0.8,0.2-1.6,0.6-2.4,0.9c-0.7,0.3-1.2,0.7-1.8,1
		c-0.1-0.2-0.3-0.4-0.3-0.6c-0.4-1.8-0.4-3.6-0.3-5.3c0.1-1.1,0.4-2.1,0.5-3.1l0-0.1c0.1,0.5,0.3,1.1,0.7,1.4
		c0.8,0.6,1.6,1.3,2.6,1.6c1.2,0.4,2.6,0.4,3.8-0.3c0.2-0.1,0.4-0.4,0.5-0.6c-0.3,0-0.5,0-0.8,0.2c-0.6,0.3-1.3,0.5-2,0.5
		c-1.3-0.1-2.7-0.6-3.6-1.6c-0.4-0.4-0.7-0.9-1.2-1.2c0.5-1,1-2,1.5-2.9c0.2,0.2,0.4,0.1,0.6,0.1c1.1-0.2,2.1,0.3,3.1,0.7
		c0.8,0.3,1.6,0.8,2.2,1.4c0.3,0.3,0.5,0.8,1,0.8c0-0.3-0.1-0.6-0.2-0.8c-0.4-0.7-1.1-1.1-1.7-1.6c0.6,0.1,1.1,0.3,1.7,0.3
		c0.4-0.1,0.4-0.6,0.2-0.8c-0.3-0.6-1-0.9-1.6-1.2c-1-0.4-2.1-0.8-3.2-0.7c-0.4,0-0.9,0.2-1.2,0.4c0.3-0.5,0.5-1,0.8-1.4
		c0.2-0.3,0.3-0.6,0.4-0.9c0.3-0.2,0.6-0.6,0.8-0.9c0.5-0.6,1.1-1.3,1.6-2C62.7,20,63.6,19,64.6,18.1z"/>
	<path class="st7" d="M58.3,26.2c0.4-0.2,0.8-0.4,1.2-0.4c1.1-0.1,2.2,0.3,3.2,0.7c0.6,0.3,1.3,0.6,1.6,1.2c0.1,0.3,0.2,0.8-0.2,0.8
		c-0.6,0-1.1-0.2-1.7-0.3c-1-0.4-1.9-0.9-3-1.1c-0.3-0.1-0.7-0.1-1.1-0.2c-0.2-0.1-0.3-0.3-0.3-0.6C58.2,26.3,58.2,26.3,58.3,26.2z"
		/>
	<path class="st7" d="M71,30c0.8-0.3,1.6-0.2,2.3,0c0.7,0.1,1.3,0.4,1.9,0.8c0.7,0.4,1.4,0.9,1.8,1.6c-0.4,0-0.8,0-1.2,0
		c-1.1-0.5-2.2-0.6-3.3-0.8c-0.5-0.1-1.1-0.1-1.6-0.2c-0.2-0.1-0.6-0.2-0.6-0.5C70.3,30.4,70.7,30.2,71,30z"/>
	<path class="st7" d="M54.7,34.2c0.4-1.1,0.5-2.4,1.2-3.5c-0.1,1-0.4,2.1-0.5,3.1c-0.2,1.8-0.1,3.6,0.3,5.3c0,0.2,0.2,0.4,0.3,0.6
		c0.6-0.4,1.2-0.8,1.8-1c0.8-0.3,1.5-0.7,2.4-0.9c1-0.2,2.1-0.4,3.1-0.2c0.2,0,0.5,0.1,0.7,0.1c0.5,0.1,0.9,0.2,1.4,0.3
		c0.6,0.2,1.2,0.5,1.7,0.8c0.4,0.2,0.7,0.4,1,0.7c1.3,1.3,2.1,3,2.6,4.8c0.3,0.8,0.4,1.7,0.4,2.5c0,0.3,0.4,0.7,0.7,0.6
		c1.7-0.5,3.2-1.5,4.6-2.5c1.3-1,2.5-1.9,3.4-3.2c0.5-0.6,0.9-1.3,1.3-1.9c0.4-0.8,0.6-1.6,0.9-2.5c0,0.2,0,0.3,0,0.5
		c0.1,0,0.2,0.1,0.3,0.1c0.2-0.1,0.5-0.1,0.7-0.3c0.1-0.3,0.2-0.7,0.3-1c-0.1,1.1-0.3,2.1-0.6,3.1c-0.3,1.3-0.7,2.6-1.1,3.8
		c-0.1,0.4-0.2,0.8-0.4,1.2c-0.5,0.6-0.8,1.3-1.3,1.9c-1,1.2-2.1,2.4-3.2,3.5c-1.4,1.4-3,2.4-4.7,3.3c-1.7,0.9-3.5,1.3-5.4,1.4
		c-0.7,0.1-1.4-0.1-2.1-0.1c-1-0.1-2-0.5-2.9-0.8c-0.9-0.3-1.7-0.7-2.6-1.2c-1.4-0.8-2.7-1.7-3.6-3.1c-0.2-0.5-0.5-0.9-0.8-1.4
		c-0.5-1-1-2.1-1.1-3.2c-0.1-0.8-0.2-1.7-0.3-2.5c0-2.1,0.5-4.1,1-6.1C54.3,35.7,54.4,34.9,54.7,34.2z"/>
	<path class="st8" d="M64.9,18.1c0.1,0,0.3-0.1,0.4-0.1c0.5,0.5,1,1.2,1.7,1.6c1,0.6,2,1.4,3.2,1.9c1.3,0.7,2.8,0.9,4.3,1.2
		c1.1,0.1,2.1,0.3,3.2,0.4c0.8,0.1,1.7-0.1,2.4,0.4c-0.6,0.2-1.3,0.3-1.9,0.4c-2.7,0.3-5.6,0.1-8.1-1.2c-1.6-0.8-3.1-1.7-4.2-3.1
		C65.4,19,65,18.6,64.9,18.1z M79.8,25.3c0,1.9,0.1,3.9,0.8,5.8c0.4,1.1,1.4,2.1,1.5,3.4c-1.6,0.2-3.1,0.6-4.6,1
		c-0.7,0.2-1,0.9-1.6,1.3c-0.4,0.2-0.9,0.2-1.3,0.3c-0.9,0.2-1.8,0-2.6-0.2c-1.1-0.2-2.1-0.6-2.9-1.3c-0.6-0.5-0.7-1.2-0.7-1.9
		c-0.4,0.6-0.5,1.6,0.1,2.2c0.6,0.7,1.4,0.9,2.2,1.3c1.2,0.4,2.4,0.7,3.7,0.6c0.8,0,1.6-0.4,2.2-0.9c0.4-0.3,0.6-0.7,1.1-0.8
		c0.9-0.3,1.9-0.5,2.8-0.8c0.6-0.2,1.1-0.3,1.7-0.4c0.1,0.5-0.1,1.1,0.1,1.7l0-0.1c-0.1-0.7,0.1-1.4,0.1-2.1
		c-0.1-0.4-0.2-0.8-0.4-1.1c-0.3-1-0.8-1.9-1.2-2.8c-0.3-0.7-0.5-1.4-0.6-2.1c-0.2-0.6-0.2-1.2-0.3-1.9C79.9,26,79.8,25.7,79.8,25.3
		z M57.5,27.6c0.2,0.2,0.4,0.1,0.6,0.1c1.1-0.2,2.1,0.3,3.1,0.7c0.8,0.3,1.6,0.8,2.2,1.4c0.3,0.3,0.5,0.8,1,0.8
		c0-0.3-0.1-0.6-0.2-0.8c-0.4-0.7-1.1-1.1-1.7-1.6c-1-0.4-1.9-0.9-3-1.1c-0.3-0.1-0.7-0.1-1.1-0.2c-0.2-0.1-0.3-0.3-0.3-0.6
		C57.9,26.8,57.7,27.2,57.5,27.6z M55.9,30.7c0.1,0.5,0.3,1.1,0.7,1.4c0.8,0.6,1.6,1.3,2.6,1.6c1.2,0.4,2.6,0.4,3.8-0.3
		c0.2-0.1,0.4-0.4,0.5-0.6c-0.3,0-0.5,0-0.8,0.2c-0.6,0.3-1.3,0.5-2,0.5c-1.3-0.1-2.7-0.6-3.6-1.6c-0.4-0.4-0.7-0.9-1.2-1.2
		C56,30.5,55.9,30.6,55.9,30.7z M64.6,31.2c-0.1,0-0.2,0.2-0.3,0.3c1,0.1,2,0,2.9,0.5c0.5,0.2,0.8,0.6,1.4,0.6
		c0-0.1,0.1-0.2,0.1-0.3c-0.1-0.2-0.3-0.4-0.5-0.5c-0.7-0.3-1.3-0.7-2.1-0.7C65.6,31.1,65.1,31.1,64.6,31.2z M69.1,32
		c-0.2,0.1-0.2,0.4-0.3,0.6c0.3-0.2,0.5-0.4,0.9-0.5c0.4-0.1,0.9-0.1,1.3-0.1c1.2,0,2.4,0.2,3.5,0.5c0.8,0.2,1.5,0.6,2.1,1.2
		c0.2,0.2,0.3,0.4,0.6,0.6c0-0.2,0-0.5-0.1-0.7c-0.3-0.5-0.8-0.8-1.3-1.1c-1.1-0.5-2.2-0.6-3.3-0.8c-0.5-0.1-1.1-0.1-1.6-0.2
		C70.2,31.4,69.6,31.6,69.1,32z"/>
	<path class="st5" d="M82.4,34.3c0.1,0.7,0.1,1.4-0.1,2.1C82.2,35.7,82.4,35,82.4,34.3z"/>
	<path class="st9" d="M83.7,34.7c0.5-0.4,1.2-0.3,1.8-0.3c1.5,0.4,2.7,1.5,3.3,2.9c0.4,1,0.2,2-0.1,2.9c-0.2,0.9-0.8,1.5-1.3,2.2
		c-0.7,0.9-1.6,1.8-2.8,2.1C84,44.8,83.5,45,82.9,45c-0.6,0-1.2-0.1-1.7-0.2c0.2-0.4,0.3-0.8,0.4-1.2c0.4-1.3,0.8-2.6,1.1-3.8
		c0.3-1,0.5-2.1,0.6-3.1C83.5,36,83.5,35.3,83.7,34.7z"/>
	<path class="st8" d="M65,36.1c0.3,0,0.6-0.2,0.9-0.2c0.2,0.3-0.1,0.6-0.4,0.8c-0.5,0.4-0.9,0.9-1.5,1.1c-0.2,0-0.5-0.1-0.7-0.1
		c0-0.5,0-1.1,0.3-1.6C64,36,64.5,36.1,65,36.1z"/>
	<path class="st5" d="M58.6,40.5c1.4-0.6,3-1.1,4.6-1c1.5,0,2.9,0.7,3.8,1.8c0.9,1.5,1.8,3.2,1.7,5c0,0.2-0.1,0.5-0.4,0.5
		c-0.9,0.2-1.9,0.1-2.8,0c-0.5-0.1-1-0.1-1.5-0.3c-0.4-0.1-0.7-0.4-0.9-0.7c-0.3-0.4-0.2-1-0.4-1.4c-0.4,0.3-0.8,0.6-1.2,0.9
		c-0.4,0.2-0.8-0.2-1.1-0.3c-0.9-0.7-1.9-1.3-2.7-2.3c-0.2-0.3-0.5-0.5-0.7-0.8C57.3,41.1,57.9,40.8,58.6,40.5z"/>
	<path class="st8" d="M61.8,42.3c0.6,0.2,1.3,0.4,2,0.5c0.1,0,0.4,0,0.4,0.2c-0.1,0.3-0.5,0.4-0.8,0.4C62.8,43.4,62,43,61.8,42.3z"
		/>
	<path class="st10" d="M92.7,97.6c0.4-0.1,0.8-0.1,1.2,0.1l0,0c-0.2,0.4-0.6,0.7-1.1,0.5c0-0.2,0.1-0.4,0.1-0.6
		C92.9,97.6,92.8,97.6,92.7,97.6z"/>
	<path class="st10" d="M96.1,98.9C96.1,98.9,96.2,98.9,96.1,98.9c0-0.3-0.4-0.4-0.6-0.5c0,0,0,0,0,0c0,0,0,0,0,0c0,0,0,0,0,0
		c0,0,0,0,0,0c-0.3,0.1-0.5,0.4-0.3,0.7c0.3,0.3,0.7,0.2,1-0.1C96.2,99,96.2,99,96.1,98.9z"/>
	<path class="st10" d="M96.4,100.6c-0.1-0.4-0.4-0.5-0.8-0.6c0,0-0.1,0-0.1,0c-0.4,0.2-0.3,0.8,0.1,0.9c0,0,0,0,0.1,0
		C96,101.1,96.2,100.9,96.4,100.6C96.4,100.7,96.4,100.7,96.4,100.6L96.4,100.6z"/>
	<path class="st10" d="M96.3,102.7c0-0.2-0.2-0.3-0.3-0.3c0,0,0,0,0,0c0,0,0,0,0,0c0,0-0.1,0-0.1,0c0,0,0,0,0,0c0,0,0,0,0,0
		c0,0,0,0,0,0c-0.2,0.1-0.4,0.4-0.2,0.6c0,0,0.1,0.1,0.1,0.1c0.2,0,0.3,0,0.5-0.1C96.3,102.8,96.3,102.8,96.3,102.7z"/>
</g>
<g>
	<path class="st11" d="M59.8,29c0.4-0.1,0.8,0.2,0.8,0.6c0,0.4-0.5,0.9-0.9,0.7C59.1,30.1,59.2,29.2,59.8,29z"/>
	<path class="st8" d="M58.5,30.1c0.4,0.2,0.7,0.4,1.1,0.6c0.5,0.2,1,0.3,1.5,0.5c-0.8,0.1-1.7,0-2.4-0.6
		C58.6,30.5,58.6,30.3,58.5,30.1z"/>
	<path class="st12" d="M58.2,30.9c0.6,0.2,1,0.5,1.6,0.7c0.4,0.1,0.8,0.1,1.2,0.2C60,32.2,58.7,31.8,58.2,30.9z"/>
	<path class="st13" d="M66,31.2c0.5,0.1,1,0.3,1.5,0.5c-0.2,1.5-0.7,2.9-1.4,4.2c-0.2,0.4-0.7,0.3-1,0.3c-0.7-0.1-1.5,0-2.1-0.3
		c-0.4-0.2-0.6-0.6-0.5-1c0.3-0.8,0.9-1.4,1.4-2C64.6,32.3,65.2,31.7,66,31.2z"/>
	<path class="st11" d="M84.7,34c-0.6,0-1.3-0.1-1.9-0.1c0,0-0.1,0-0.1,0c0,0-0.1,0-0.1,0c-0.1,0-0.1,0-0.2,0
		c-1.6,0.1-3.1,0.4-4.6,0.6c-0.1-0.8-0.3-1.6-0.9-2.1c-0.3-0.3-0.7-0.6-1.1-0.8c-1.3-0.7-2.8-1.1-4.3-1c-0.9,0.1-2,0.3-2.6,1.1
		c-1.1-0.9-2.7-1.2-4.1-1.2c-0.1-0.7-0.5-1.4-1-1.9c-0.8-0.6-1.7-1.2-2.7-1.6c-0.9-0.4-2-0.7-3-0.5c-0.8,0.1-1.4,0.8-1.7,1.5
		c-0.2,0.6-0.6,1.2-0.5,1.8c0.1,1,0.8,1.7,1.6,2.2c0.9,0.7,2,1.3,3.2,1.3c0.8,0,1.7,0,2.5-0.4c0.7-0.4,1.2-1,1.5-1.8
		c0.4,0,0.9-0.1,1.3,0c0.5,0.1,1,0.3,1.5,0.5c0.3,0.2,0.6,0.4,1,0.6c-0.5,1-0.6,2.3,0.1,3.3c0.7,0.8,1.8,1.1,2.8,1.5
		c1.5,0.5,3.1,0.7,4.5,0.1c0.8-0.4,1.4-1.2,1.6-2.1c1.6-0.2,3.2-0.6,4.9-0.6c1,0,1.9-0.3,2.9,0c0.2,0.1,0.3,0,0.4-0.1
		C85.5,34,85.1,34,84.7,34z M62.7,32.7c-0.7,0.3-1.6,0.3-2.4,0.2c-1-0.2-1.9-0.7-2.7-1.3c-0.7-0.5-1.3-1.3-1.2-2.2
		c0.2-0.8,0.5-1.8,1.4-2.1c0.6-0.2,1.2-0.2,1.9,0c1.2,0.3,2.3,0.9,3.3,1.6c0.6,0.4,1.1,1.1,1.2,1.8C64.1,31.6,63.5,32.4,62.7,32.7z
		 M76.6,36c-0.4,0.5-1.1,0.8-1.8,0.9c-1,0.1-2.1,0-3-0.3c-1-0.2-2-0.5-2.7-1.3c-0.7-0.8-0.5-2-0.1-2.8c0.4-0.8,1.2-1.2,2-1.3
		c1.5-0.2,3,0.1,4.3,0.8c0.7,0.4,1.3,0.9,1.7,1.6C77.3,34.4,77.2,35.4,76.6,36z"/>
	<path class="st14" d="M70.9,31.8c0.3-0.1,0.7-0.1,1.1-0.1c-0.3,0.1-0.7,0.2-1,0.3c-0.5,0.1-0.9,0.4-1.4,0.5
		C69.8,32.1,70.4,31.9,70.9,31.8z"/>
	<path class="st14" d="M58.2,27.9c0.3-0.1,0.7-0.1,1.1-0.1c-0.3,0.1-0.7,0.2-1,0.3c-0.5,0.1-0.9,0.4-1.4,0.5
		C57.1,28.2,57.7,28,58.2,27.9z"/>
	<path class="st15" d="M63.3,34.6c0.3-0.6,0.7-1.3,1.3-1.6C64.3,33.6,63.9,34.1,63.3,34.6z"/>
	<path class="st11" d="M72.1,33.1c0.3-0.2,0.8,0,0.8,0.4c0.1,0.5-0.4,0.9-0.9,0.7C71.6,34.1,71.7,33.4,72.1,33.1z"/>
	<path class="st16" d="M73.5,9.9c0.9-0.4,1.9-0.8,2.9-0.9c-1.6,0.6-3.2,1.1-4.5,2.1c-1.5,1-2.6,2.5-3.7,3.9
		c-0.9,1.2-1.5,2.6-1.7,4.1c0,0-0.1,0-0.2,0c0.2-0.6,0.2-1.1,0.4-1.7c0.5-1.4,1.3-2.6,2.2-3.8C70,12,71.6,10.6,73.5,9.9z M77,9.4
		c-1.8,0.4-3.5,1.2-4.9,2.5c-1.4,1.3-2.8,2.8-3.7,4.5c-0.5,1.1-1,2.2-1.1,3.4c0.1,0,0.2,0,0.2,0c0.2-1.7,0.9-3.4,1.9-4.8
		c0.7-1,1.6-1.9,2.5-2.7c1.4-1.3,3.2-2.2,5.1-2.8c0.7-0.2,1.4-0.2,2.1-0.4C78.4,9,77.7,9.2,77,9.4z M79.1,9.7
		c-1.4,0.3-2.7,0.7-4,1.3c-1.8,0.8-3.4,2.1-4.4,3.8c-0.9,1.4-1.5,2.8-2,4.4c-0.1,0.6-0.3,1.1-0.1,1.7c0.1-0.2,0.2-0.5,0.3-0.7
		c0.3-2.2,1.2-4.2,2.5-6c1-1.3,2.4-2.2,3.8-2.9c1.5-0.8,3-1.3,4.7-1.5c0.2-0.1,0.5,0,0.5-0.2C80,9.5,79.5,9.6,79.1,9.7z M80.6,10
		c-1,0.3-2.1,0.7-3,1.1c-1.4,0.7-2.7,1.4-3.9,2.5c-0.7,0.7-1.3,1.6-1.9,2.4c-0.8,1.2-1.3,2.5-1.8,3.8c-0.1,0.5-0.3,1-0.2,1.5
		c0.1,0,0.2,0,0.2,0.1c0.1-0.3,0.1-0.6,0.2-1c0.3-1.1,0.7-2.3,1.2-3.3c0.8-1.7,2-3.3,3.5-4.4c1.6-1.2,3.6-2,5.6-2.5
		c0.2-0.1,0.5-0.1,0.6-0.3C81,9.8,80.8,10,80.6,10z M77.9,13.6c-1,1.2-1.9,2.5-2.6,3.9c-0.5,1-1,2.1-1.3,3.2
		c-0.2,0.6-0.4,1.2-0.4,1.8c0.1,0,0.2,0,0.3,0c0.1-0.2,0.1-0.5,0.2-0.7c0.6-1.8,1.2-3.7,2.2-5.3c0.5-0.8,0.9-1.6,1.4-2.3
		c0.9-1.2,2-2.3,3.2-3.2c0-0.1,0-0.2,0-0.3C79.8,11.5,78.8,12.5,77.9,13.6z M77.8,11.8c-1.4,0.9-2.5,2.1-3.6,3.4
		c-1.5,2-2.8,4.2-3.1,6.7c0.1,0,0.2,0,0.2,0.1c0.5-2.9,2.1-5.6,4.2-7.7c0.7-0.8,1.5-1.5,2.3-2.1c0.5-0.3,1-0.5,1.4-1
		C78.7,11.2,78.3,11.5,77.8,11.8z M79.4,13.5c-0.6,0.8-1.2,1.6-1.8,2.5c-0.5,0.8-0.9,1.6-1.2,2.5c-0.6,1.4-1,2.9-1.2,4.4
		c0.1,0,0.2,0,0.3,0c0.3-1.8,0.8-3.6,1.7-5.3c0.5-1.1,1.1-2.2,1.8-3.2c0.5-0.8,1.1-1.5,1.8-2.2c0-0.1,0-0.2,0-0.3
		C80.2,12.3,79.8,12.9,79.4,13.5z M79.6,14.7c-1,1.7-1.8,3.5-2.4,5.3C76.9,21,76.6,22,76.6,23c0.1,0,0.2,0,0.3,0
		c0.2-0.4,0.2-0.8,0.3-1.2c0.1-1.3,0.7-2.4,1.1-3.6c0.5-1.4,1.2-2.6,2-3.8c0.2-0.4,0.6-0.7,0.5-1.2C80.3,13.6,80,14.2,79.6,14.7z
		 M75.9,14.9c-1,1.3-2,2.6-2.7,4.1c-0.5,1-0.9,2.1-1,3.3c0.1,0,0.2,0,0.3,0c0.2-0.7,0.3-1.4,0.6-2.1c0.6-1.5,1.4-3,2.3-4.3
		c0.5-0.8,1.1-1.5,1.7-2.2C76.7,14,76.3,14.5,75.9,14.9z M79.6,17c-0.4,1.1-0.7,2.2-1,3.3c-0.2,0.9-0.5,1.8-0.5,2.8
		c0.1,0,0.2,0,0.3,0c0.2-0.6,0.2-1.2,0.3-1.8c0.3-1.6,0.6-3.3,1.3-4.8c0.2-0.6,0.6-1.1,0.7-1.7C80.2,15.4,79.9,16.2,79.6,17z
		 M65.8,16.1c-0.3,0.1-0.5,0.1-0.8,0.3c-1.1,0.7-2.2,1.5-3.1,2.5c-0.7,0.8-1.1,1.7-1.4,2.6c-0.1,0.4-0.3,0.9-0.4,1.4
		c0.1,0,0.3,0.1,0.3-0.1c0.2-0.8,0.4-1.7,0.8-2.4c0.5-1,1.3-1.8,2.2-2.6c0.7-0.6,1.5-1.1,2.3-1.4c-0.1,0.3-0.2,0.5-0.4,0.8
		c-0.7,0.2-1.3,0.6-1.8,1.1c-1.2,1-2.1,2.4-2.5,3.9c0.3-0.2,0.4-0.5,0.5-0.8c0.7-1.7,2.1-3.1,3.7-3.9c0,0.2-0.1,0.5-0.1,0.7
		c0.3-0.5,0.5-1,0.7-1.5c0.2-0.6,0.6-1,0.9-1.6C66.3,15.2,66.1,15.7,65.8,16.1z M81.2,15.1c0,0.7,0.1,1.4,0.1,2c0.1,2-0.3,3.9-1,5.8
		c-0.1,0.2-0.3,0.4-0.5,0.5c0,0.1,0,0.2,0,0.2c0.2-0.1,0.3-0.1,0.5-0.2c-0.1,1.4-0.1,2.9,0.1,4.4c0.3,1.8,1.1,3.5,2,5
		c-0.7-2-1.7-3.9-1.8-6c-0.1-1.1-0.1-2.3-0.1-3.4c0.2-0.1,0.3-0.2,0.5-0.3c-0.1,0-0.3-0.2-0.3-0.2c0.8-2.2,1.1-4.6,0.9-6.9
		C81.6,15.7,81.4,15.4,81.2,15.1z M82,15.6c0.1,0.4,0.2,0.8,0.2,1.2c0.3,1.8,0.2,3.6-0.2,5.3c0,0.2-0.2,0.3-0.3,0.4
		c0.1,0,0.2,0,0.3-0.1c0.1-0.1,0.2-0.2,0.4-0.3c0,0-0.1-0.1-0.2-0.1c0,0,0-0.1,0-0.1c0.4-1,0.4-2.1,0.5-3.2c0.1-1.1-0.1-2.2-0.5-3.1
		C82.1,15.6,82,15.6,82,15.6z M80.2,19.1c-0.3,1.4-0.7,2.7-1.1,4c0.1-0.1,0.3-0.1,0.3-0.2c0.3-0.5,0.4-1.1,0.6-1.7
		c0.3-1.3,0.5-2.7,0.7-4.1c0-0.3,0-0.6,0-0.8C80.5,17.2,80.4,18.2,80.2,19.1z M83.3,16.8c0,0.7,0.2,1.3,0.2,2c0,0.8-0.3,1.7-0.4,2.5
		c-0.3,0.2-0.6,0.5-0.9,0.7c0,0,0,0.1,0,0.1c0,0,0.3,0.1,0.3,0.1c0.2,1.4,0.7,2.8,0.9,4.3c0.2,1.2,0.3,2.5,0.4,3.7
		c0.1,0.7,0,1.4,0.1,2c0.1-0.5,0.1-0.9,0.1-1.4c0-1.6-0.1-3.2-0.3-4.7c-0.2-1.4-0.6-2.8-0.9-4.1c0.1-0.1,0.3-0.2,0.4-0.3
		c0.2,0.5,0.3,1,0.5,1.6c0.5,1.8,0.8,3.8,1,5.7c0.1,1.3-0.1,2.7,0,4c0.4-2.7,0.2-5.5-0.3-8.2c-0.2-1.1-0.6-2.1-1-3.2
		c0.1-0.2,0.3-0.3,0.5-0.3l0.1,0c0.2,0.1,0.1-0.2,0.2-0.3c0.2-0.2,0.5-0.4,0.7-0.6c0.2,0.3,0.4,0.6,0.6,1c0.4,0.8,0.6,1.7,0.9,2.6
		l0-0.1c0-0.1,0-0.2,0-0.3c-0.1-0.6-0.3-1.1-0.5-1.7c-0.2-0.6-0.6-1-0.9-1.5c0.1-0.1,0.3-0.2,0.4-0.3c0-0.1,0-0.2,0-0.2
		c-0.2,0.1-0.4,0.2-0.6,0.4c0.1-0.6,0.2-1.3-0.2-1.8c0,0.7,0,1.4-0.1,2.1c-0.2,0.3-0.6,0.5-0.8,0.7c0.3-1,0.3-2,0.3-3
		C83.6,17.6,83.5,17.2,83.3,16.8z M83.9,21.5c0.4,0.8,0.8,1.6,0.9,2.5c0.2,1.2,0.5,2.4,0.6,3.6c0.1,1.2,0,2.5-0.2,3.7
		c-0.1,0.3-0.1,0.7-0.1,1.1c0.3-1.4,0.6-2.8,0.5-4.2c0-1.6-0.4-3.1-0.7-4.7c-0.1-0.8-0.5-1.5-0.9-2.2C84,21.3,84,21.4,83.9,21.5z
		 M80.8,23c0.1,0,0.3,0.2,0.3,0.2c-0.2,2,0.1,4,0.6,6c0.2,1,0.5,2,1,2.9c-0.5-1.9-1.1-3.7-1.3-5.6c-0.2-1.2-0.1-2.3-0.1-3.5
		c0.2-0.1,0.3-0.3,0.5-0.4c0,1.1,0,2.1,0.2,3.2c0.3,1.4,0.6,2.8,0.9,4.2c0.2,0.8,0.3,1.6,0.4,2.4c0-1.6-0.4-3.1-0.7-4.6
		c-0.2-1-0.4-1.9-0.5-2.9c-0.1-0.8-0.1-1.6-0.2-2.5c-0.1,0-0.2,0-0.3,0.1C81.3,22.5,81.1,22.8,80.8,23z M86.1,23.7
		c0,0.7,0.2,1.3,0.2,2c0.2,1.5,0,3.1-0.2,4.6c-0.2,1.1-0.6,2.1-0.9,3.2c0.2-0.2,0.3-0.4,0.4-0.7c0.4-0.8,0.7-1.7,0.9-2.6
		c0.3-2.2,0.4-4.6-0.4-6.7C86.2,23.5,86.2,23.6,86.1,23.7z M85.6,33.9c0.4-0.5,0.7-1.1,0.7-1.8C86,32.7,85.8,33.3,85.6,33.9z
		 M83.1,33.7c0-0.5,0-1-0.1-1.4C82.8,32.8,83.1,33.3,83.1,33.7z M83.6,32.5c-0.1,0.5-0.1,0.9,0.1,1.4C83.8,33.4,83.9,32.9,83.6,32.5
		z M84.3,32.9c0,0.3,0,0.6,0,0.9C84.5,33.6,84.6,33.2,84.3,32.9z M84.8,33.1c0,0.3,0,0.5,0,0.8c0.1-0.2,0.2-0.4,0.3-0.7
		C85,33.2,84.9,33.2,84.8,33.1z"/>
	<path class="st13" d="M57.2,34c0.5-0.2,1.2,0.1,1.4,0.6c0.4,0.8-0.2,1.9-1.1,2c-0.7,0.1-1.4-0.6-1.4-1.3
		C56.2,34.7,56.7,34.2,57.2,34z"/>
	<path class="st8" d="M71,34.5c0.7,0.2,1.5,0.3,2.2,0.3C72.5,35.2,71.6,35,71,34.5z"/>
	<path class="st17" d="M83.2,35.8c0-0.4-0.3-0.9,0.1-1.1C83.3,35.1,83.3,35.5,83.2,35.8z"/>
	<path class="st8" d="M70.9,35c0.7,0,1.3,0.2,1.9,0.3C72.2,35.5,71.4,35.6,70.9,35z"/>
	<path class="st18" d="M65.2,35.4c0.2-0.1,0.5,0,0.6,0.2c0.1,0.4-0.6,0.5-0.9,0.3C64.7,35.6,64.9,35.4,65.2,35.4z"/>
	<path class="st17" d="M82.5,37.1c0-0.4-0.2-0.9,0.2-1.1C82.7,36.3,82.7,36.7,82.5,37.1z"/>
	<path class="st17" d="M82.9,37.3c0-0.4-0.1-0.9,0.2-1.2C83.2,36.5,83.1,36.9,82.9,37.3z"/>
	<path class="st19" d="M83.3,37.5c0.4-0.4,0.9-0.6,1.5-0.6c0.6,0.1,1.2,0.2,1.5,0.7c0.4,0.4,0.4,1,0.3,1.6c-0.2,0.7-0.6,1.4-1.2,1.9
		c-0.5,0.3-1.2,0.1-1.7-0.1c-0.4-0.2-0.7,0.1-1.1,0.2c0-0.1,0-0.2,0-0.3c0.4-0.2,0.7-0.5,1.2-0.4c0.4,0.1,0.8,0.5,1.3,0.3
		c0.6-0.4,1-1,1.2-1.7c0.1-0.4,0.1-0.9-0.2-1.2c-0.3-0.5-1-0.6-1.5-0.6C84.1,37.3,83.7,37.5,83.3,37.5z"/>
	<path class="st13" d="M73.3,38.6c0.3-0.1,0.7-0.1,1,0.1c0.4,0.3,0.7,0.8,0.7,1.3c-0.1,0.7-0.6,1.1-1.2,1.5c-0.9,0.5-2-0.3-2-1.3
		C71.7,39.4,72.5,38.8,73.3,38.6z"/>
	<path class="st20" d="M61.1,41.2c1-0.2,2.2-0.3,3.1,0.3c0.5,0.3,1.1,0.6,1.5,1.1c-0.2,0-0.5,0-0.6-0.1c-0.5-0.3-1-0.7-1.6-0.9
		c-0.6-0.2-1.3-0.2-1.9-0.2C61.3,41.4,61.2,41.3,61.1,41.2z"/>
	<path class="st21" d="M45.1,55.9c0.6-0.8,1.4-1.4,1.9-2.3c0,0.7-0.5,1.3-1,1.8c-0.8,0.8-1.6,1.8-2.2,2.7c-0.2,0.2-0.3,0.5-0.6,0.6
		C43.7,57.7,44.4,56.8,45.1,55.9z"/>
	<path class="st16" d="M55.2,32.8c0.1,0,0.2,0,0.2,0c0,0.6-0.1,1.3-0.2,1.9C55.1,34.1,55,33.5,55.2,32.8z M54.5,36.2
		c0.2-0.5,0.2-1.1,0.2-1.7C54.3,35,54.5,35.6,54.5,36.2z M54.8,35.3c0,0.5,0,1.1,0.2,1.6c0.1-0.5,0.1-1.1,0-1.6
		C55,35.3,54.9,35.3,54.8,35.3z M54.2,38.3c0.1-0.6,0.2-1.2,0.2-1.8C54,36.9,54.1,37.7,54.2,38.3z M54.5,37.1
		c-0.1,0.5-0.1,1.1,0.2,1.6c0-0.5,0-0.9,0-1.4C54.7,37.2,54.6,37.1,54.5,37.1z M60.8,38.1c0.5,0,1,0,1.4-0.2
		C61.7,37.9,61.2,37.9,60.8,38.1z M62.5,38.2c0.3,0,0.7,0.1,1-0.2C63.1,38,62.6,37.8,62.5,38.2z M55,38c0,0.6,0,1.1,0.3,1.7
		C55.2,39.1,55.3,38.5,55,38z M59.3,38.5c0.4,0,0.9-0.2,1.3-0.4C60.1,38.1,59.6,38.2,59.3,38.5z M63.5,38.3c0.3,0,0.6,0,0.9,0
		C64.2,38,63.7,37.9,63.5,38.3z M64.5,38.3c0.3,0.3,0.7,0.3,1.1,0.4C65.3,38.3,64.9,38.3,64.5,38.3z M81.7,39.4
		c0.3-0.3,0.4-0.7,0.5-1.2C81.8,38.5,81.8,39,81.7,39.4z M60.8,38.8c0.4,0,0.8-0.1,1.1-0.3C61.5,38.5,61.1,38.5,60.8,38.8z
		 M53.8,40.4c0.1-0.6,0.2-1.2,0.2-1.9C53.6,39.1,53.7,39.8,53.8,40.4z M62.1,38.6c0.2,0.4,0.8,0.2,1.1,0.1
		C62.9,38.6,62.5,38.6,62.1,38.6z M63.3,38.7c0.2,0.3,0.7,0.2,1,0.2C64,38.6,63.7,38.6,63.3,38.7z M59.2,39.3
		c0.5-0.1,0.9-0.3,1.3-0.5C60,38.8,59.5,38.9,59.2,39.3z M65.8,38.7c0.3,0.3,0.7,0.5,1.1,0.6C66.6,38.9,66.2,38.7,65.8,38.7z
		 M57.7,39.5c0.4-0.1,0.9-0.4,1.2-0.7C58.5,39,58,39.1,57.7,39.5z M60.7,39.4c0.4,0,0.8-0.1,1.1-0.3C61.4,39.1,60.8,38.9,60.7,39.4z
		 M64.3,39c0.2,0.4,0.6,0.4,1,0.4C65,39.2,64.7,39,64.3,39z M54.3,39.1c0,0.6,0,1.1,0.1,1.7c0.1-0.6,0.1-1.1,0.1-1.7
		C54.4,39.1,54.3,39.1,54.3,39.1z M65.3,39c0.2,0.4,0.7,0.4,1.1,0.5C66.1,39.3,65.7,39.1,65.3,39z M61.9,39.4c0.5,0.1,1,0.1,1.5,0
		C62.8,39.2,62.3,39.2,61.9,39.4z M56.4,40.3c0.5-0.3,0.9-0.7,1.3-1.1C57.2,39.5,56.6,39.8,56.4,40.3z M63.6,39.4
		c0.3,0.3,0.7,0.3,1.1,0.2C64.3,39.4,63.9,39.4,63.6,39.4z M67.2,39.4c0.3,0.3,0.7,0.7,1.1,0.9C68,39.9,67.7,39.5,67.2,39.4z
		 M57.5,40.4c0.5-0.1,1-0.5,1.4-0.9C58.4,39.7,57.8,39.9,57.5,40.4z M58.9,40.2c0.5-0.1,0.9-0.3,1.3-0.5
		C59.8,39.7,59.2,39.8,58.9,40.2z M54.8,39.7c0,0.5,0.1,1.1,0.3,1.6c0.1-0.4,0-0.9-0.1-1.3C55,39.8,54.9,39.8,54.8,39.7z M65.2,39.7
		c0.2,0.4,0.7,0.4,1.1,0.5C66,40,65.6,39.8,65.2,39.7z M80.7,41.3c0.4-0.5,0.8-1,0.9-1.6C81.2,40.1,81,40.7,80.7,41.3z M56.4,40.9
		c0.5-0.2,0.9-0.6,1.2-1C57.1,40.1,56.7,40.4,56.4,40.9z M81.2,41.6c0.4-0.5,0.8-1,0.8-1.6C81.6,40.4,81.4,41.1,81.2,41.6z
		 M55.7,41.1c0.1-0.3,0.2-0.7,0.2-1C55.6,40.3,55.6,40.8,55.7,41.1z M68.1,40.7c0.2,0.4,0.5,0.8,0.9,1.1
		C68.8,41.3,68.5,40.8,68.1,40.7z M56.3,41.8c0.5-0.2,0.9-0.6,1.3-1C57,41.1,56.6,41.4,56.3,41.8z M66.6,40.8
		c0.4,0.4,0.9,0.7,1.3,1.1C67.6,41.4,67.2,40.9,66.6,40.8z M67.5,40.8c0.1,0.5,0.6,0.8,0.9,1.1C68.2,41.5,67.9,41.1,67.5,40.8z
		 M53.9,42.4c0-0.5,0-1-0.2-1.5C53.5,41.4,53.7,41.9,53.9,42.4z M55.2,43c0-0.5,0-1-0.2-1.5C54.9,41.9,55,42.5,55.2,43z M81.6,42.4
		c0.3-0.4,0.5-0.9,0.5-1.4C81.8,41.4,81.7,42,81.6,42.4z M54.3,41.1c0,0.4,0,0.9,0.2,1.3C54.6,42,54.7,41.4,54.3,41.1z M55.8,42.9
		c0.1-0.6,0.2-1.1,0.4-1.7C55.7,41.6,55.8,42.3,55.8,42.9z M80.7,42.2c-0.2,0.4-0.5,0.8-0.7,1.2c0.5-0.5,0.9-1,1.1-1.6
		C80.9,41.9,80.7,42,80.7,42.2z M69.7,43.1c0-0.4-0.2-0.8-0.5-1.2C69.2,42.3,69.5,42.7,69.7,43.1z M67.8,42.1
		c0.2,0.5,0.4,0.9,0.7,1.2C68.4,42.8,68.2,42.4,67.8,42.1z M68.5,42.1c0,0.4,0.2,0.8,0.5,1.1C68.9,42.8,68.8,42.4,68.5,42.1z
		 M56.8,43.7l0.1,0c0.1-0.4,0.2-0.8,0.3-1.2C56.9,42.8,56.9,43.3,56.8,43.7z M80.4,44c0.5-0.4,0.8-0.9,1-1.5
		C81,42.9,80.8,43.5,80.4,44z M53.8,44.1c0.1-0.5,0.2-1,0.1-1.4C53.6,43.1,53.7,43.6,53.8,44.1z M54.5,44.1c0.1-0.5,0.2-1,0.1-1.4
		C54.3,43.1,54.4,43.7,54.5,44.1z M55.4,42.9c-0.1,0.4,0,0.9,0,1.3C55.6,43.8,55.8,43.3,55.4,42.9z M57.5,44.4
		c0.2-0.4,0.3-0.8,0.3-1.2C57.4,43.5,57.4,44,57.5,44.4z M69.3,43.4c0,0.5,0.1,0.9,0.3,1.3C69.6,44.3,69.6,43.8,69.3,43.4z
		 M69.9,43.5c0.1,0.4,0.2,0.9,0.4,1.3C70.2,44.4,70.3,43.8,69.9,43.5z M80.7,44.8c0.3-0.3,0.5-0.7,0.6-1.1
		C81,44,80.9,44.4,80.7,44.8z M82.3,39.3c0.3-0.3,0.5-0.7,0.5-1.1C82.5,38.5,82.4,38.9,82.3,39.3z M54.9,45.4
		c0.1-0.5,0.1-1.1,0.1-1.6C54.6,44.3,54.8,44.9,54.9,45.4z M78.9,45c0.5-0.3,1-0.6,1.1-1.2C79.5,44.2,79.2,44.6,78.9,45z M56.4,45.5
		c0.1-0.5,0.1-1.1,0-1.6C56.1,44.4,56.2,45,56.4,45.5z M54.2,45.7c0-0.5,0-0.9,0-1.4C53.8,44.7,54.1,45.2,54.2,45.7z M58.5,45.8
		c0.3-0.4,0.4-0.9,0.4-1.4C58.5,44.7,58.5,45.3,58.5,45.8z M57.1,46.3c0.1-0.5,0.1-1.1,0.1-1.6C56.9,45.2,57,45.8,57.1,46.3z
		 M58.1,45.3c0.1-0.5,0.1-1.1,0.1-1.6C57.9,44.2,58,44.8,58.1,45.3z M59.3,46c0.2-0.4,0.3-0.9,0.3-1.3C59.3,45.1,59.3,45.6,59.3,46z
		 M62.4,46c0.2-0.4,0.3-0.8,0.3-1.3C62.4,45.1,62.4,45.5,62.4,46z M55.7,46.3c0-0.5,0-1.1-0.2-1.6C55.4,45.3,55.6,45.8,55.7,46.3z
		 M56.1,43.7c0.2-0.5,0.5-1,0.5-1.5C56.2,42.6,56.2,43.2,56.1,43.7z M69.3,46.1c0.1-0.4,0-0.8-0.1-1.2
		C69.1,45.2,69.2,45.7,69.3,46.1z M75.9,46.1c0.6-0.3,1.3-0.6,1.5-1.3C76.8,45.2,76.4,45.7,75.9,46.1z M60,46.3
		c0.2-0.4,0.3-0.8,0.4-1.3C60.1,45.3,60,45.8,60,46.3z M76.8,46.4c0.6-0.4,1.2-0.8,1.5-1.4C77.8,45.3,77.3,45.9,76.8,46.4z M79,45.9
		c0.6-0.4,1.2-0.8,1.5-1.4C79.9,44.8,79.4,45.3,79,45.9z M61.5,46.4c0.2-0.4,0.3-0.8,0.4-1.1C61.5,45.5,61.5,46,61.5,46.4z M61,47.9
		c0.2-0.4,0.3-0.8,0.4-1.1C61,47,61,47.5,61,47.9z M60.4,46.4c0.2-0.4,0.3-0.8,0.4-1.1C60.5,45.5,60.4,46,60.4,46.4z M70.2,45.3
		c0,0.4,0.1,0.8,0.2,1.2C70.5,46.1,70.5,45.6,70.2,45.3z M57.7,46.8c0.1-0.5,0.1-1,0.1-1.4C57.5,45.8,57.6,46.3,57.7,46.8z M77.4,47
		c0.4-0.3,0.8-0.6,1.2-0.9c0.1-0.1,0.1-0.2,0.1-0.4C78.2,46.1,77.8,46.5,77.4,47z M79.3,46.6c0.5-0.2,0.8-0.6,0.9-1.1
		C79.9,45.8,79.6,46.2,79.3,46.6z M54.9,46c0.1,0.4,0.2,0.8,0.4,1.2c0-0.4-0.1-0.8-0.1-1.2C55.1,46.1,55,46.1,54.9,46z M56.5,47.6
		c0.1-0.5,0.1-1.1,0-1.6C56.2,46.4,56.3,47.1,56.5,47.6z M54.3,46.1c0,0.6,0.2,1.1,0.5,1.7C54.7,47.2,54.6,46.6,54.3,46.1z
		 M77.7,47.5c0.5-0.4,1.2-0.6,1.4-1.3C78.4,46.5,78.1,47.1,77.7,47.5z M58.7,47.4c0.2-0.4,0.2-0.8,0.2-1.2
		C58.5,46.5,58.7,47,58.7,47.4z M60.5,47.8c0.2-0.4,0.2-0.8,0.2-1.2C60.3,46.9,60.4,47.4,60.5,47.8z M61.6,47.7
		c0.2-0.4,0.5-0.9,0.5-1.4C61.7,46.7,61.7,47.3,61.6,47.7z M63.3,46.3c0,0.4,0,0.8,0,1.2C63.5,47.1,63.6,46.7,63.3,46.3z M69.3,47.4
		c0.1-0.4,0.1-0.7,0.1-1.1C69,46.6,69.3,47.1,69.3,47.4z M74,47.2c0.5-0.1,1-0.3,1.4-0.8C74.9,46.5,74.4,46.8,74,47.2z M59.3,47.5
		c0,0,0.1,0,0.1,0c0.1-0.3,0.1-0.7,0.1-1.1C59.3,46.7,59.4,47.1,59.3,47.5z M69.8,46.5c0,0.4,0,0.8,0.1,1.2
		C70,47.4,70.3,46.8,69.8,46.5z M57.8,48c0.2-0.4,0.3-0.9,0.2-1.3C57.7,47.1,57.8,47.6,57.8,48z M74.9,47.7c0.5-0.2,1-0.4,1.4-0.9
		C75.7,46.9,75.3,47.3,74.9,47.7z M72.3,48.5c0.4-0.3,0.9-0.6,1.2-1.2C73,47.6,72.7,48.1,72.3,48.5z M73.6,49.4
		c0.4-0.3,0.9-0.6,1.2-1.2C74.2,48.4,73.9,49,73.6,49.4z M73.3,51.4c0.5-0.2,1-0.5,1.3-0.9C74.1,50.6,73.7,51.1,73.3,51.4z
		 M77.9,44.6c0.5-0.3,1-0.6,1.2-1.1C78.6,43.7,78.3,44.2,77.9,44.6z M79.4,43.1c0.4-0.4,0.8-0.8,1-1.3
		C79.9,42.1,79.7,42.6,79.4,43.1z M64.6,48.2c0.1-0.4,0.1-0.9,0-1.4C64.3,47.2,64.5,47.7,64.6,48.2z M63.9,46.9
		c-0.1,0.5-0.2,0.9-0.2,1.4C63.9,47.9,64.2,47.3,63.9,46.9z M65.3,46.9c0,0.4,0,0.9,0,1.3C65.5,47.8,65.6,47.3,65.3,46.9z M56,48.5
		c0-0.5-0.1-1-0.2-1.5C55.6,47.5,55.8,48,56,48.5z M57.1,48.6c0.1-0.5,0.2-1,0.1-1.5C56.9,47.5,57.1,48.1,57.1,48.6z M58.3,49
		c0.1-0.5,0.2-1,0.1-1.5C58.2,47.9,58.3,48.5,58.3,49z M67.5,48.7c0.2-0.5,0.3-1,0.3-1.5C67.4,47.6,67.5,48.2,67.5,48.7z M66.5,48.6
		c0.2-0.5,0.3-1,0.3-1.5C66.5,47.5,66.5,48.1,66.5,48.6z M75.6,48.3c0.5-0.2,1-0.5,1.3-0.9C76.4,47.5,76,47.9,75.6,48.3z M62.9,47.6
		c-0.1,0.5-0.2,1-0.2,1.4c0.3-0.4,0.4-0.8,0.4-1.3C63,47.6,63,47.6,62.9,47.6z M70.8,48.8c0.3-0.3,0.5-0.7,0.6-1.2
		C71,47.8,70.9,48.3,70.8,48.8z M71.6,48.7c0.3-0.3,0.6-0.7,0.7-1.2C71.9,47.9,71.7,48.3,71.6,48.7z M73.1,48.7
		c0.5-0.3,0.9-0.6,1.2-1C73.8,47.8,73.4,48.3,73.1,48.7z M76.2,48.9c0.5-0.2,1-0.6,1.3-1.1C76.9,48,76.5,48.5,76.2,48.9z M55.1,47.9
		c0,0.5,0.1,1,0.5,1.4C55.5,48.8,55.5,48.2,55.1,47.9z M77.5,48.7c0.5-0.3,1-0.7,1.3-1.2C78.2,47.7,77.9,48.2,77.5,48.7z M58.9,49.3
		c0.2-0.4,0.3-0.9,0.4-1.3C58.9,48.4,58.9,48.9,58.9,49.3z M59.6,49.5c0.2-0.4,0.4-0.9,0.5-1.3C59.7,48.5,59.6,49,59.6,49.5z
		 M56.3,48.2c0,0.5,0,0.9,0.2,1.4C56.6,49.1,56.7,48.5,56.3,48.2z M60.3,49.7c0.3-0.4,0.4-0.9,0.5-1.5
		C60.4,48.6,60.4,49.2,60.3,49.7z M61.1,49.9c0.2-0.5,0.4-1.1,0.5-1.7C61.2,48.7,61,49.3,61.1,49.9z M64.4,48.4
		c-0.1,0.4-0.1,0.8-0.1,1.2C64.5,49.2,64.7,48.7,64.4,48.4z M57.7,49.9c0.1-0.5,0.1-1,0-1.4C57.4,48.8,57.5,49.4,57.7,49.9z
		 M65,49.7c0.2-0.4,0.2-0.8,0.2-1.3C64.9,48.8,65,49.3,65,49.7z M74.5,49.5c0.4-0.2,0.8-0.5,1.1-0.9C75.1,48.8,74.7,49.1,74.5,49.5z
		 M71.7,49.9c0.4-0.3,0.8-0.6,1-1.1C72.2,49.1,71.9,49.5,71.7,49.9z M57.1,50.4c0.1-0.4,0-0.8,0-1.3C56.7,49.4,57,50,57.1,50.4z
		 M67.7,50.5c0.2-0.4,0.3-0.9,0.3-1.4C67.7,49.6,67.7,50,67.7,50.5z M66.9,50.3c0.2-0.4,0.3-0.9,0.3-1.4C67,49.4,67,49.9,66.9,50.3z
		 M70.5,47.8c0.2-0.4,0.3-0.9,0.3-1.4C70.6,46.8,70.5,47.3,70.5,47.8z M68.4,49.7c0.2-0.4,0.3-0.9,0.3-1.4
		C68.5,48.8,68.5,49.3,68.4,49.7z M68.2,48.6c0.2-0.4,0.3-0.9,0.3-1.4C68.3,47.6,68.2,48.1,68.2,48.6z M69.3,49
		c0.2-0.4,0.3-0.9,0.3-1.4C69.4,48.1,69.3,48.5,69.3,49z M63.3,50c0.2-0.4,0.3-0.9,0.3-1.4C63.4,49.1,63.4,49.5,63.3,50z M70.1,50.2
		c0.3-0.3,0.6-0.7,0.7-1.1C70.3,49.3,70.3,49.8,70.1,50.2z M74.6,50.1c0.5-0.2,1-0.5,1.2-1C75.4,49.3,75,49.7,74.6,50.1z M70.5,50.6
		c0.4-0.4,0.7-0.8,0.9-1.3C71,49.6,70.8,50.1,70.5,50.6z M69.5,49.5c0.4-0.4,0.7-0.8,0.9-1.3C70,48.5,69.8,49,69.5,49.5z M62,49.4
		c-0.1,0.4-0.2,0.8-0.2,1.2c0.2-0.4,0.4-0.8,0.4-1.2C62.1,49.5,62,49.4,62,49.4z M62.2,47.5c-0.1,0.4-0.2,0.8-0.2,1.2
		c0.2-0.4,0.4-0.8,0.4-1.2C62.3,47.6,62.2,47.6,62.2,47.5z M72.2,50.4c0.5-0.2,0.9-0.6,1.1-1C72.8,49.5,72.5,50,72.2,50.4z
		 M58.3,50.8c0.1-0.5,0.2-1,0.2-1.5C58,49.7,58.2,50.4,58.3,50.8z M75.2,50.6c0.5-0.3,1-0.6,1.2-1.1C75.9,49.8,75.5,50.2,75.2,50.6z
		 M69,51c0.4-0.3,0.6-0.8,0.7-1.3C69.2,50,69.2,50.5,69,51z M65.8,48.9c0.3-0.4,0.4-0.9,0.3-1.4C65.7,47.8,65.8,48.4,65.8,48.9z
		 M56.1,49.7c0,0.4,0.2,0.8,0.4,1.2C56.5,50.5,56.4,50,56.1,49.7z M59.4,51c0.2-0.4,0.3-0.8,0.4-1.3C59.3,50,59.4,50.6,59.4,51z
		 M72.9,50.8c0.4-0.2,0.9-0.4,1.1-0.9C73.5,50.1,73.2,50.4,72.9,50.8z M64.5,51.2c0.2-0.4,0.3-0.8,0.4-1.2
		C64.5,50.3,64.5,50.8,64.5,51.2z M65.4,50.5c0.2-0.4,0.3-0.8,0.4-1.2C65.4,49.6,65.4,50.1,65.4,50.5z M60.1,51.4
		c0.1-0.4,0.3-0.8,0.4-1.3C60,50.4,60.1,51,60.1,51.4z M67.8,51.5c0.4-0.4,0.6-0.9,0.7-1.4C68.1,50.5,68,51,67.8,51.5z M66.6,52.1
		c0.4-0.4,0.6-0.9,0.7-1.4C66.9,51.1,66.8,51.6,66.6,52.1z M66,51.6c0.3-0.4,0.6-0.9,0.5-1.4C66.3,50.6,66.2,51.1,66,51.6z
		 M60.8,51.7c0.4-0.4,0.4-0.9,0.5-1.3C60.8,50.6,60.8,51.2,60.8,51.7z M63.1,51.6c0.2-0.4,0.4-0.9,0.4-1.3
		C63.2,50.7,63.2,51.2,63.1,51.6z M62.5,50.8c0.2-0.4,0.4-0.9,0.4-1.3C62.6,49.8,62.6,50.3,62.5,50.8z M57.5,51.7
		c0-0.4-0.1-0.9-0.1-1.3C57.2,50.9,57.3,51.3,57.5,51.7z M69.3,51.9c0.4-0.3,0.7-0.7,0.7-1.2C69.7,51,69.4,51.4,69.3,51.9z
		 M70.4,51.7c0.3-0.3,0.7-0.6,0.8-1C70.9,51,70.6,51.4,70.4,51.7z M69.4,53.1c0.3-0.3,0.7-0.6,0.8-1C69.9,52.4,69.6,52.7,69.4,53.1z
		 M71.2,51.6c0.4-0.2,0.7-0.6,1-1C71.8,50.9,71.5,51.3,71.2,51.6z M61.4,52.1c0.2-0.3,0.4-0.7,0.4-1.1
		C61.6,51.3,61.5,51.7,61.4,52.1z M58.1,52.2c0-0.4,0-0.8,0-1.2C57.8,51.4,58,51.9,58.1,52.2z M61.9,52.6c0.4-0.4,0.6-1,0.7-1.5
		C62.3,51.5,62.2,52.1,61.9,52.6z M71.7,52.1c0.4-0.2,0.9-0.5,1.1-1C72.3,51.4,72,51.8,71.7,52.1z M73.7,52c0.5-0.2,1-0.5,1.2-0.9
		C74.4,51.3,74,51.7,73.7,52z M68.3,52.4c0.3-0.3,0.5-0.7,0.6-1.1C68.6,51.6,68.4,52,68.3,52.4z M68.4,53.4c0.3-0.3,0.6-0.6,0.7-1
		C68.7,52.6,68.5,53,68.4,53.4z M63.4,52.5c0.3-0.3,0.5-0.7,0.5-1.1C63.6,51.7,63.5,52.1,63.4,52.5z M63.9,51
		c0.2-0.4,0.3-0.8,0.3-1.2C63.9,50.1,63.9,50.6,63.9,51z M59,52.7c0.1-0.4,0.2-0.8,0.1-1.2C58.8,51.8,59,52.3,59,52.7z M64.4,52.6
		c0.3-0.3,0.5-0.7,0.6-1.1C64.6,51.8,64.5,52.2,64.4,52.6z M65.3,52c0.2-0.3,0.4-0.7,0.4-1.2C65.4,51.1,65.4,51.6,65.3,52z
		 M66.1,50.3c0.2-0.4,0.4-0.8,0.4-1.2C66.1,49.4,66.1,49.9,66.1,50.3z M59.7,52.9c0.2-0.4,0.4-0.8,0.4-1.3
		C59.7,52,59.7,52.5,59.7,52.9z M72,52.8c0.5-0.2,0.9-0.5,1.1-1C72.7,52,72.3,52.4,72,52.8z M67.1,53.3c0.4-0.3,0.6-0.8,0.7-1.3
		C67.4,52.3,67.2,52.8,67.1,53.3z M67.3,54.7c0.4-0.3,0.6-0.8,0.7-1.3C67.6,53.7,67.5,54.3,67.3,54.7z M60.4,53.2
		c0.2-0.3,0.4-0.7,0.4-1.1C60.4,52.3,60.5,52.8,60.4,53.2z M70,53.4c0.5-0.3,1-0.6,1.2-1.2C70.6,52.5,70.3,52.9,70,53.4z M66.1,53.3
		c0.3-0.3,0.6-0.6,0.7-1C66.4,52.6,66.2,53,66.1,53.3z M65.1,54.7c0.3-0.3,0.6-0.6,0.7-1C65.4,53.9,65.2,54.3,65.1,54.7z M65.9,54.5
		c0.3-0.3,0.6-0.6,0.7-1C66.2,53.7,66.1,54.1,65.9,54.5z M60.9,53.5c0.3-0.3,0.6-0.6,0.5-1C61.2,52.8,61,53.1,60.9,53.5z M62.6,53.7
		c0.3-0.3,0.6-0.6,0.6-1C62.8,52.9,62.7,53.3,62.6,53.7z M70.3,53.8c0.5-0.2,1.2-0.4,1.2-1C71,53.1,70.7,53.5,70.3,53.8z M63.4,53.9
		c0.4-0.3,0.6-0.7,0.8-1.1C63.7,53,63.6,53.5,63.4,53.9z M65.3,53.5c0.3-0.3,0.5-0.7,0.7-1.2C65.5,52.5,65.5,53.1,65.3,53.5z
		 M67.1,54.1c0.3-0.3,0.7-0.7,0.7-1.1C67.4,53.3,67.2,53.7,67.1,54.1z M61.6,53.9c0.3-0.2,0.5-0.4,0.6-0.8
		C61.9,53.3,61.7,53.6,61.6,53.9z M64.3,54.1c0.3-0.3,0.6-0.6,0.7-1.1C64.6,53.3,64.5,53.7,64.3,54.1z M68.1,54.4
		c0.4-0.3,0.7-0.6,0.9-1C68.6,53.6,68.3,54,68.1,54.4z M62.7,54.3c0.2-0.2,0.4-0.4,0.5-0.6C62.9,53.7,62.8,54,62.7,54.3z M68.7,54.5
		c0.4-0.2,0.7-0.4,0.9-0.8C69.3,53.9,69,54.2,68.7,54.5z"/>
	<path class="st22" d="M63.4,61.8c0.9-0.5,1.9-0.5,2.8-0.2c0.1,0.1,0.3,0.2,0.4,0.3c-0.6,0-1.3-0.3-1.9-0.2c-0.4,0-0.9,0.2-1.3,0.3
		C63.4,62,63.4,61.8,63.4,61.8z"/>
	<path class="st23" d="M83.3,68.2c-0.3,0.8-0.7,1.4-1.2,2.1c-1.1,1.6-2.5,2.8-4,4.1c-1.4,1.2-2.8,2.4-4.1,3.7c0,0,0-0.1,0.1-0.2
		c1.3-1.3,2.6-2.5,4-3.8c0.8-0.8,1.7-1.5,2.5-2.4C81.6,70.7,82.4,69.4,83.3,68.2z"/>
	<path class="st21" d="M52,74c0.7,2,1.7,3.9,3.1,5.5c0.7,0.9,1.6,1.8,2.2,2.8c-0.2-0.1-0.3-0.2-0.4-0.4c-0.6-0.8-1.3-1.5-1.9-2.2
		c-0.6-0.7-1.2-1.3-1.6-2.1c-0.5-0.9-0.9-1.8-1.1-2.7C52,74.6,52,74.3,52,74z"/>
	<path class="st24" d="M102.1,75.5c0.4-0.3,0.7-0.7,1.1-1c-0.1,0.5-0.5,0.8-0.9,1.2c-2.9,3-5.6,6.2-7.7,9.8c-0.3,0.6-0.6,1.2-1,1.7
		c0.1-0.3,0.3-0.6,0.5-0.9c1-2,2.2-3.9,3.6-5.7C99.1,78.8,100.5,77,102.1,75.5z"/>
	<path class="st11" d="M63.5,90.6c0.7-0.2,1.3,0.7,1.1,1.3c-0.2,0.6-0.6,1.2-1.3,1.3c-0.6,0.1-1.1-0.7-0.8-1.2
		C62.7,91.4,62.9,90.8,63.5,90.6z"/>
	<path class="st25" d="M92.9,91.6c0.3-0.4,0.6-0.7,1-1c0,0.3-0.2,0.5-0.4,0.7c-1.5,1.7-2.8,3.5-4,5.5c-0.5,0.8-1,1.6-1.4,2.5
		c-0.3,0.5-0.5,1-0.8,1.4c0-0.5,0.3-0.9,0.5-1.3c0.8-1.7,1.8-3.3,2.9-4.9C91.3,93.4,92,92.5,92.9,91.6z"/>
	<path class="st23" d="M89.9,92c0.1-0.2,0.2-0.3,0.4-0.4c-0.2,0.6-0.5,1.2-0.8,1.8c-0.9,1.8-1.8,3.6-2.2,5.5c-0.1,0.7-0.5,1.3-0.5,2
		c0-0.3-0.1-0.6,0-0.9c0.2-0.7,0.3-1.5,0.5-2.2c0.3-1,0.7-2,1.1-2.9C88.8,93.9,89.3,92.9,89.9,92z"/>
	<path class="st23" d="M28.4,94.5c0.8,0.4,1.6,0.7,2.4,1.1c1.5,0.8,2.7,2,3.7,3.4c0.3,0.5,0.6,0.9,0.8,1.4c-0.2-0.3-0.4-0.6-0.6-0.9
		c-1.1-1.6-2.6-3-4.4-3.9C29.7,95.3,28.9,95.1,28.4,94.5z"/>
	<path class="st21" d="M12.3,98.9c0.7-1.4,1.2-3,2.1-4.3c-0.1,0.2-0.1,0.4-0.2,0.6c-0.6,1.9-1.4,3.7-2.2,5.5
		c-0.6,1.4-1.4,2.9-1.7,4.4c-0.1,0.8-0.2,1.5-0.3,2.3c0,0.4,0,0.8-0.1,1.2c-0.1-1,0-1.9,0.1-2.9c0.1-1.1,0.4-2.1,0.8-3.1
		C11.1,101.4,11.7,100.1,12.3,98.9z"/>
	<path class="st21" d="M27.4,96.9c0.7,0,1.3,0.3,2,0.5c1.3,0.5,2.5,1.3,3.6,2.3c0.8,0.7,1.5,1.5,2.3,2.2c0.2,0.2,0.3,0.4,0.4,0.6
		c-0.1,0-0.2-0.1-0.2-0.2c-1.4-1.3-2.8-2.7-4.4-3.7C29.9,97.9,28.6,97.5,27.4,96.9z"/>
	<path class="st8" d="M91.5,99.5c0.2-0.1,0.5-0.2,0.7-0.2c-0.7,0.6-1.5,0.9-2.2,1.4C90.5,100.2,91,99.9,91.5,99.5z"/>
	<path class="st26" d="M40.9,55.7c0.1,0,0.2,0,0.2,0c0.2,2.5,0.4,5,1,7.4c0.2,1.2,0.7,2.3,1,3.4c0.1,0.4,0.3,0.9,0.5,1.3
		c0.5,1,1,2.1,1.6,3.1c0.5,0.7,0.8,1.4,1.3,2.1c0.7,0.9,1.5,1.9,2.2,2.9c0.7,0.8,1.3,1.6,2,2.4c0.7,0.9,1.6,1.6,2.4,2.4
		c0.6,0.6,1.2,1,1.8,1.6c1.1,1.1,2.4,2.1,3.5,3.2c0.7,0.6,1.4,1.3,2.2,1.9c0.4,0.3,0.8,0.5,1.1,0.9c0.4-0.5,0.6-1.3,1.3-1.5
		c0,0.1,0,0.2,0,0.3c-0.5,0.5-0.9,1.1-1.3,1.7c-1.1,1.7-1.9,3.6-2.3,5.6c-0.2,0.9-0.4,1.8-0.4,2.7c0.2-1,0.7-1.8,1.1-2.7
		c0.8-1.5,1.6-3,2.7-4.3c2.1-2.6,4.6-4.9,7.5-6.6c2.1-1.4,4.4-2.4,6.5-3.9c1.3-0.9,2.7-1.7,3.9-2.7c0.9-0.7,1.8-1.5,2.5-2.4
		c1-1,1.9-2.2,2.7-3.4c0.3-0.5,0.7-1.1,0.9-1.7c0.4-1.3,1-2.5,1.4-3.8c0.4-1.4,0.8-2.8,0.9-4.3c0.3-1.8,0.3-3.6,0.4-5.4
		c0.2,0.3,0.2,0.6,0.2,1c0,2-0.2,4-0.5,6c-0.3,1.5-0.7,2.9-1.2,4.3c-0.4,1.1-0.8,2.2-1.4,3.1c-0.5,0.9-0.9,1.8-1.5,2.6
		c-1.4,1.7-2.9,3.2-4.6,4.6c-1.2,1-2.5,1.7-3.8,2.6c-1.7,1.2-3.6,2-5.4,3.1c-1.5,0.9-3,1.8-4.3,3c-0.9,0.7-1.8,1.6-2.6,2.5
		c-1.7,1.7-2.9,3.6-3.9,5.8c-0.5,0.9-1,1.8-1.3,2.8c1.1,0,2.2-0.1,3.4-0.1c0.9,0,1.7,0.1,2.6,0.2c2.2,0.2,4.5,0.4,6.7,0.8
		c1.5,0.3,3.1,0.5,4.6,0.9c1.2,0.2,2.4,0.7,3.6,1.1c1.3,0.4,2.6,0.7,3.9,1.2c2.5,0.9,5.1,1.6,7.6,2.4c1.1,0.4,2.2,0.7,3.3,1
		c-0.8,0.4-1.6,0-2.3-0.2c-2.1-0.7-4.2-1.4-6.3-2c-1.5-0.5-3.1-1.1-4.6-1.5c-1.3-0.4-2.5-0.7-3.8-1.2c-1.6-0.4-3.2-0.8-4.9-1.1
		c-1.9-0.4-3.9-0.7-5.8-0.9c-1.3-0.1-2.6-0.2-3.8-0.3c-1.7-0.2-3.4,0-5.2,0c-2.4,0.2-4.8,0.2-7.2,0.6c-1.8,0.2-3.5,0.5-5.3,0.8
		c-0.7,0.2-1.4,0.3-2.2,0.4c-0.2,0,0.1,0.3,0.1,0.4c-0.2,0.5-0.4,1-0.7,1.5c-0.7,1.5-0.9,3-1.3,4.6c2.1,0.6,4.2,1.3,6.3,2
		c1.8,0.7,3.6,1.5,5.4,2.3c0.1,0.1,0.3,0.1,0.5,0.1c2.3,0,4.5-0.2,6.8-0.4c2.5-0.2,4.9-0.4,7.4-0.7c0.2,0,0.3,0,0.5,0
		c-0.3,0.2-0.8,0.2-1.2,0.3c-2.7,0.4-5.4,0.8-8.1,1c-1.7,0.1-3.3,0.3-5,0.2c1.6,0.7,3.2,1.5,4.7,2.4c0.7,0.4,1.3,0.9,2.1,1.2
		c1.4,0.1,2.8,0.1,4.2,0c3.2-0.3,6.3-0.7,9.5-0.5c0,0,0,0.1,0,0.2c-2.9,0-5.8,0.3-8.7,0.6c-1.5,0.2-3.1,0.2-4.7,0
		c1.9,1.1,3.7,2.1,5.5,3.4c1.3,0.8,2.5,1.7,3.7,2.6c2.8,2,5.7,3.8,8.7,5.4c1,0.5,1.9,1.1,3,1.4c1.2,0.5,2.4,1,3.6,1.2
		c1.2,0.2,2.4,0.5,3.7,0.7c1.2,0.2,2.4,0.3,3.6,0.3c1.6,0.1,3.2,0,4.8-0.4c0.8-0.2,1.7-0.4,2.5-0.8c0.9-0.4,1.8-0.8,2.6-1.3
		c1.5-0.9,3.1-1.8,4.6-2.8c0.6-0.4,1-0.9,1.4-1.4c0.1-0.1,0.2-0.1,0.3-0.1c0.1,0.2-0.1,0.4-0.2,0.6c-0.4,0.5-0.8,1-1.3,1.4
		c-1.1,0.8-2.3,1.5-3.5,2.2c-0.8,0.4-1.5,0.9-2.3,1.3c-1,0.4-1.9,1-2.9,1.2c-2.3,0.7-4.8,0.8-7.3,0.6c-1.5-0.1-3.1-0.3-4.6-0.6
		c-0.9-0.2-1.8-0.3-2.7-0.6c-0.7-0.2-1.4-0.5-2.1-0.8c-0.6,0.4-1.2,0.6-1.9,0.8c-2,0.8-4.1,1.5-6.2,2.1c-2.1,0.7-4.2,1.3-6.4,1.8
		c-1.3,0.3-2.5,0.7-3.8,0.9c-1.3,0.3-2.7,0.7-4,0.9c-1.1,0.1-2.1,0.3-3.2,0.3c-1.1,0-2.2,0.1-3.2,0.1c0,0.5-0.1,1.1,0,1.6
		c0,0.7-0.1,1.5-0.1,2.2c-0.2,1.9,0.2,3.7,0.5,5.6c0.2,1,0.5,2,0.7,3c0.4,2.2,1.2,4.4,1,6.7c-0.2,2.3-1.1,4.4-2,6.5
		c-1,2.1-1.3,4.5-1.4,6.8c-0.1,1.7,0,3.3,0.2,5c0.2,0.9,0.4,1.9,0.5,2.8c0.2,1.1,0.5,2.2,0.8,3.3c0.1,0.5,0,1.1,0,1.6
		c-0.3-0.5-0.2-1.1-0.4-1.7c-0.3-1.1-0.7-2.3-0.8-3.4c-0.1-1.1-0.5-2.2-0.6-3.4c-0.3-2.7-0.2-5.5,0.3-8.2c0.4-1.9,1.3-3.6,2-5.4
		c0.5-1.3,0.8-2.7,0.9-4c0.1-1.6-0.3-3.1-0.7-4.6c-0.3-1-0.3-2-0.6-2.9c-0.3-1-0.5-2-0.6-3c-0.2-1-0.3-2-0.4-3.1
		c-0.1-1.1,0.1-2.1,0.2-3.2c0-0.7,0-1.4,0.1-2.1c-1.8,0-3.5,0-5.3-0.1c-0.9,0-1.8-0.1-2.6-0.1c-1.6-0.1-3.2-0.1-4.9-0.2
		c-1.6-0.1-3.2-0.5-4.8-0.8c-3.1-0.6-6.2-1.5-9.1-2.6c-1-0.4-2-0.9-3-1.4c-1.3-0.6-2.3-1.5-3.4-2.3c-0.7-0.4-1.3-0.9-1.9-1.5
		c-1.1-1-2.2-1.8-3.1-2.9c-0.3-0.4-0.7-0.8-0.9-1.3c0.1,0,0.3,0,0.4,0.1c0.7,0.8,1.4,1.6,2.1,2.3c0.8,0.7,1.6,1.4,2.4,2.1
		c1,0.7,2.1,1.4,3.1,2.2c0.9,0.7,2,1.1,3,1.6c2,1,4.2,1.6,6.3,2.2c2.4,0.7,4.8,1.2,7.2,1.5c2.8,0.4,5.6,0.2,8.3,0.5
		c0.6,0.1,1.2,0,1.9,0.1c-0.9-0.2-1.7-0.7-2.6-1c-1-0.5-2.1-1-3-1.6c-0.7-0.4-1.3-1-2-1.5c-1-0.7-1.9-1.4-2.9-2.1
		c0.7,0.1,1.2,0.6,1.8,1c0.8,0.5,1.7,1.1,2.5,1.7c1.6,1.2,3.5,2,5.4,2.9c0.8,0.3,1.5,0.7,2.4,0.7c1.5,0.1,3,0,4.5,0
		c1.1-0.1,2.3-0.1,3.4-0.2c0.9-0.1,1.9-0.3,2.8-0.4c-0.9-0.1-1.9-0.2-2.7-0.5c-2-0.7-4-1.4-5.9-2.4c-1.6-0.9-3.1-1.8-4.8-2.5
		c-1-0.4-2-0.8-3-1.3c-0.7-0.4-1.4-0.7-2-1.1c0.6,0,1.1,0.3,1.6,0.5c1.1,0.5,2.2,1,3.3,1.4c1.8,0.7,3.4,1.6,5.1,2.5
		c1.8,1,3.8,1.6,5.8,2.3c1.1,0.5,2.4,0.6,3.6,0.6c3.4-0.7,6.7-1.7,10-2.6c2-0.7,4-1.2,6-2c1.3-0.4,2.5-0.9,3.7-1.4
		c-1.8-0.8-3.5-1.8-5.2-2.8c-2.2-1.3-4.2-2.6-6.3-4.1c-1.5-1.1-3.1-2.2-4.7-3.3c-2-1.3-4-2.4-6.1-3.6c-2-1.3-4.2-2.3-6.4-3.3
		c-0.4-0.2-0.8-0.2-1.2-0.3c0,0,0.1-0.1,0.1-0.2c-1.3-0.6-2.7-1.2-4-1.7c-3.4-1.3-6.9-2.3-10.4-3.1c-1.9-0.5-3.8-0.6-5.8-1
		c-0.9-0.1-1.8-0.2-2.6-0.5c0.2-0.3,0.6-0.2,0.9-0.2c2.1,0.2,4.1,0.4,6.2,0.8c0.3-1.1,0.6-2.2,1-3.3c-0.1,0-0.2,0-0.2,0.1
		c0.4-0.3,0.4-1,0.6-1.4c0.3-1,0.3-2.2,0.4-3.3c0-0.6,0.1-1.3-0.2-1.8c-0.3-0.7-0.6-1.5-0.9-2.2c-0.9-2-2-3.8-3.3-5.5
		c-0.2-0.2-0.3-0.4-0.4-0.6c0.5,0.5,1,1,1.4,1.6c1.4,1.9,2.6,4,3.2,6.4c-0.1-1-0.2-1.9-0.3-2.9c0-0.6-0.2-1.2-0.2-1.9
		c0.1,0.3,0.2,0.6,0.3,0.9c0.2,0.7,0.2,1.5,0.3,2.2c0.2,1.3,0.4,2.6,0.3,3.9c-0.1,0.7-0.1,1.4-0.2,2.1c-0.1,0.7-0.3,1.3-0.4,2
		c1.5-0.6,3-1.2,4.6-1.4c0.8-0.1,1.5-0.2,2.3-0.4c0.9-0.3,1.9-0.3,2.9-0.5c1-0.2,2-0.3,3-0.5c2.6-0.5,5.3-0.6,7.9-0.7
		c0.1-2.5,0.8-5,1.9-7.3c0.3-0.6,0.6-1.1,0.9-1.6c-0.8-0.7-1.7-1.3-2.5-2c-0.5-0.4-1.1-0.9-1.6-1.4c-0.9-0.8-1.8-1.5-2.7-2.4
		c-0.7-0.7-1.5-1.2-2.1-1.9c-0.8-0.8-1.6-1.5-2.4-2.4c-0.7-0.8-1.3-1.5-2-2.3c-0.7-0.9-1.4-1.9-2.1-2.8c-0.4-0.5-0.6-1-1.1-1.4
		c-0.9-0.8-1.9-1.6-2.8-2.4c-0.5-0.5-1.1-0.9-1.6-1.3C39.9,67.3,39,66.6,38,66c-0.4-0.3-0.9-0.5-1.1-0.9c0.9,0.5,1.9,0.8,2.7,1.4
		c1.3,0.9,2.6,1.9,3.7,3c0.6,0.6,1.2,1.2,1.8,1.8c-0.7-1.1-1.2-2.2-1.8-3.4c-0.3-0.5-0.5-1-0.6-1.6c-0.3-0.9-0.6-1.7-0.8-2.6
		c-0.3-1.3-0.7-2.6-0.8-4C41,58.5,40.7,57.1,40.9,55.7z M38,101.1c-0.4,1.2-0.6,2.4-1.1,3.6c1.5,0.3,3,0.8,4.5,1.2
		c0.4-2.2,1-4.4,2.2-6.3C41.7,99.8,39.8,100.3,38,101.1z"/>
	<path class="st8" d="M92.7,100.8c0.7-0.3,1.3-0.7,2.1-0.7c-1.4,0.5-2.7,1.1-3.9,1.8C91.4,101.4,92,101.1,92.7,100.8z"/>
	<path class="st27" d="M14.7,101.1c0.1-0.4,0.1-0.8,0.4-1c0.1,0.7-0.2,1.3-0.4,2c-0.6,1.8-1.4,3.5-2,5.4c-0.4,1.2-0.7,2.4-0.8,3.7
		c-0.1,1.3-0.1,2.6,0,4c0,0.7,0.2,1.3,0.3,2c-0.2-0.6-0.5-1.3-0.6-1.9c-0.1-1.2-0.1-2.5,0-3.7c0.1-1.2,0.4-2.4,0.7-3.6
		C12.9,105.5,14.1,103.4,14.7,101.1z"/>
	<path class="st8" d="M91.8,103.7c0.5-0.6,1.1-1,1.8-1.1C93,103,92.5,103.4,91.8,103.7z"/>
	<path class="st21" d="M97,103c0.5-0.2,1-0.1,1.5-0.2c1.3,0,2.6,0,3.9,0c1.7,0.1,3.4,0.4,5,0.7c0.4,0.1,0.9,0.2,1.2,0.4
		c-1.4-0.4-2.9-0.5-4.3-0.6c-2.2-0.2-4.5-0.2-6.7-0.2C97.4,103.2,97.2,103.1,97,103z"/>
	<path class="st26" d="M95.1,104.6c2.2-0.1,4.5,0.3,6.7,0.7c1.5,0.3,3,0.8,4.4,1.3c0.9,0.3,1.8,0.6,2.6,1.1c0,0.1,0,0.2,0,0.2
		c-0.8-0.5-1.8-0.7-2.7-1c-2.6-0.9-5.3-1.4-8-1.8c-1-0.1-2-0.2-3-0.3L95.1,104.6z"/>
	<path class="st26" d="M94,105.2c0.4,0,0.7,0.1,1.1,0.3c2.9,0.9,5.4,2.8,7.9,4.4c0.7,0.5,1.6,0.9,2.1,1.7c-0.3,0-0.6-0.3-0.8-0.5
		c-1.8-1.2-3.7-2.2-5.6-3.4c-1.3-0.8-2.6-1.4-4-2.1C94.5,105.5,94.2,105.4,94,105.2z"/>
	<path class="st26" d="M110,125.9c0.1,0.7,0.1,1.4-0.2,2.1c-0.6,1.4-1.3,2.7-2.1,3.9c-2,3.2-4.1,6.3-6,9.7c-0.5,0.8-0.8,1.7-1.3,2.5
		c0-0.3,0.2-0.6,0.3-0.9c1.8-4,4.2-7.7,6.6-11.4c0.8-1.3,1.6-2.6,2.2-4C109.7,127.2,109.8,126.6,110,125.9z"/>
	<path class="st26" d="M13.4,134.7c-0.6-2.3-0.6-4.7-0.2-7c0.1,1.3,0.1,2.6,0.1,3.9c0.1,2.3,0.9,4.4,1.5,6.6
		c0.6,1.9,1.2,3.8,1.9,5.6c0,0.2,0.1,0.3,0.1,0.5c-0.1-0.2-0.2-0.4-0.3-0.6C15.3,140.7,14.2,137.7,13.4,134.7z"/>
	<path class="st26" d="M110.3,132.1c0.5,0.5,0,1.2-0.2,1.7c-1.3,2.5-2.8,4.9-4.5,7.1c-0.4,0.6-0.8,1.2-1.3,1.7
		c0.2-0.5,0.5-0.9,0.8-1.4c1.3-2,2.5-3.9,3.7-6C109.4,134.3,110,133.3,110.3,132.1z"/>
	<path class="st28" d="M11.5,137.1c0.1,0.5,0.1,1.1,0.2,1.6c0.7,3.4,1.6,6.8,3,9.9c-0.5-0.5-0.7-1.3-1-1.9c-1-2.5-1.7-5-2.3-7.6
		C11.3,138.5,11.2,137.8,11.5,137.1z"/>
	<path class="st11" d="M58.8,139.2c0.3-0.2,0.8,0,1,0.3c0.3,0.6,0.2,1.4-0.3,1.8c-0.3,0.3-0.8,0.3-1.1,0c-0.2-0.2-0.5-0.4-0.7-0.7
		c-0.1-0.3-0.1-0.6,0-0.9C58.1,139.5,58.5,139.4,58.8,139.2z"/>
	<path class="st26" d="M101.8,146.6c2-0.5,3.9-1.1,5.7-1.9c0.1,0.6-0.6,0.7-1,0.9c-1.3,0.4-2.5,0.9-3.8,1.2
		c-1.8,0.4-3.5,0.9-5.3,1.3c-2.3,0.5-4.7,0.8-7.1,1.2c-1.4,0.2-2.9,0.4-4.3,0.5c-1.4,0.1-2.9,0.3-4.3,0.3c-1.4,0.1-2.8,0.2-4.3,0
		c0-0.1,0-0.2,0-0.2c3.2-0.1,6.4-0.4,9.5-0.7c2.3-0.3,4.5-0.6,6.8-0.9C96.5,147.9,99.2,147.2,101.8,146.6z"/>
	<path class="st26" d="M9.5,149.6c0.5-0.1,0.9,0.3,1.4,0.4c0.4-0.1,0.8,0.1,1.1,0.1c1.2,0.3,2.5,0.4,3.7,0.6
		c1.5,0.2,3.1,0.4,4.6,0.4c1.2,0.1,2.4,0,3.6,0.1c1.3,0.1,2.6,0.2,4,0.2c1.8,0.1,3.7,0,5.5,0c1.2,0,2.4-0.1,3.6-0.1
		c0.5,0,1.1,0,1.5,0.3c-0.2,0.8-0.1,1.7-0.2,2.5c-0.1,1,0,2-0.1,3.1c0,0.2-0.2,0.3-0.3,0.4c-0.1,1.5-0.1,3.1-0.2,4.6
		c-0.1,0.9-0.1,1.7-0.1,2.6c0,2.9-0.4,5.7-0.7,8.5c-0.4,2.2-0.7,4.4-1.8,6.4c-0.6,1.1-1.6,1.9-2.8,2.4c0.4-0.1,0.8-0.2,1.2-0.4
		c-0.3,0.4-0.8,0.6-1.3,0.7c-1.5,0.5-3,0.1-4.5,0c-2.3-0.2-4.7-0.2-7-0.5c-1.4-0.1-2.7-0.4-4.1-0.5c-1.9-0.2-3.9-0.6-5.7-1.2
		c-0.4-0.1-0.9-0.2-1.3-0.5c0.4-0.2,0.9,0,1.3,0.1c0.9,0.2,1.9,0.5,2.9,0.7c1.2,0.3,2.5,0.4,3.8,0.6c1.8,0.3,3.6,0.6,5.4,0.8
		c1.9,0.1,3.9,0.3,5.8,0.4c0.7,0.1,1.4,0.1,2,0.2c0.7,0.1,1.4-0.4,2-0.7c0.9-0.5,1.5-1.2,2-2c1.1-1.9,1.4-4.2,1.8-6.4
		c0.3-2.8,0.7-5.6,0.7-8.5c0-1.7,0.2-3.5,0.3-5.2c0-0.7,0.1-1.3,0.2-1.9c-1.2,0.4-2.6,0.6-3.8,0.7c-1.3,0.2-2.6,0.3-3.8,0.3
		c-1.7,0.2-3.5,0.3-5.2,0.1c-1.1-0.1-2.2-0.1-3.3-0.2c-1.2-0.2-2.5-0.3-3.7-0.4c-1.3-0.1-2.5-0.5-3.8-0.7c-1.1-0.2-2.2-0.5-3.3-0.7
		c-0.5-0.2-1.1-0.2-1.4-0.6c0.2-0.1,0.4-0.2,0.5-0.1c0.8,0.3,1.7,0.4,2.5,0.7c1.2,0.3,2.4,0.4,3.5,0.7c1.1,0.3,2.2,0.4,3.3,0.5
		c1.1,0.1,2.2,0.3,3.3,0.4c1.5,0.1,2.9,0.3,4.4,0.2c1.4,0,2.7-0.2,4.1-0.2c1.8-0.1,3.6-0.3,5.3-0.6c0.5-0.1,1.1-0.2,1.5-0.5
		c0-1.7,0.1-3.4,0.2-5.1l0-0.1c0-0.1,0.1-0.2,0.2-0.2c-1.4,0-2.8,0.1-4.1,0.1c-3.1,0-6.2,0-9.2-0.1c-1.8-0.2-3.6-0.1-5.4-0.2
		c-1.3-0.1-2.6-0.3-3.9-0.4c-1.4-0.1-2.8-0.3-4.2-0.8c-0.4,0.1-0.8-0.2-1.2-0.3c-0.3-0.1-0.7,0-0.9-0.3
		C9.5,149.7,9.5,149.6,9.5,149.6z"/>
	<path class="st26" d="M107.2,145.6c0-0.2,0.2-0.3,0.4-0.3c0,0.1,0,0.2,0,0.4c0.2,0.5,0.5,1.1,0.6,1.7c0.1,0.7,0.1,1.4,0.2,2.1
		c0.1,0.6,0.1,1.3-0.1,1.9c0,1,0.1,1.9,0.1,2.9c0.1,1.7,0.3,3.4,0.3,5c0,3.7,0.2,7.5-0.3,11.2c-0.1,1-0.2,1.9-0.5,2.8
		c-0.2,0.3-0.3,0.6-0.4,1c-0.4,0.7-1.1,1.2-1.8,1.5c-0.9,0.5-1.9,0.8-2.9,1.2c-2.3,0.7-4.5,1.6-6.9,2c-1.2,0.3-2.4,0.5-3.6,0.7
		c-1.7,0.2-3.4,0.4-5.1,0.3c-1.1,0-2.3-0.3-3.3-0.8c-0.7-0.3-1.2-0.9-1.6-1.4c-0.7-0.9-1.1-2-1.3-3.1c-0.3-1.6-0.5-3.2-0.8-4.8
		c-0.4-2.4-0.6-4.8-0.8-7.1c-0.2-1.4-0.2-2.7-0.4-4.1c-0.1-1.1-0.1-2.3-0.4-3.4c-0.2-0.4-0.2-0.9-0.3-1.3c-0.2-1.1-0.4-2.2-0.7-3.2
		c0.1,0,0.2,0,0.2,0c0.4,1.1,0.6,2.4,0.9,3.5c0.1,0.3,0,0.8,0.4,0.9c1,0.2,2,0.2,3.1,0.2c1.7,0,3.4,0,5.1,0c2.7,0.1,5.4-0.3,8-0.8
		c1.5-0.3,3-0.5,4.5-0.8c1.4-0.3,2.7-0.5,4.1-1c1.2-0.3,2.4-0.8,3.6-1.1c0.3-0.1,0.7-0.2,0.7-0.5c0.2-0.7,0-1.4-0.1-2.1
		c-0.1-0.7-0.1-1.4-0.3-2C107.5,146.4,107.2,146,107.2,145.6z M106.3,152c-1.2,0.4-2.5,0.8-3.8,1.2c-1,0.2-1.9,0.4-2.9,0.6
		c-1.4,0.3-2.9,0.5-4.4,0.8c-2.7,0.5-5.3,0.9-8,0.9c-1.7,0-3.4,0-5.1,0c-1.1,0-2.3,0-3.4-0.3c0.1,0.4,0.2,0.7,0.2,1.1
		c0.4,3.8,0.8,7.6,1.1,11.4c0.2,1.4,0.5,2.7,0.6,4.1c0.1,1.1,0.4,2.1,0.5,3.2c0.2,1.1,0.8,2.2,1.7,3c0.5,0.5,1.2,0.8,1.9,1.1
		c1.1,0.4,2.3,0.4,3.5,0.4c1.4-0.1,2.9-0.2,4.3-0.4c1.3-0.2,2.5-0.5,3.8-0.7c1.3-0.2,2.5-0.7,3.7-1c1.2-0.4,2.4-0.8,3.5-1.2
		c0.9-0.3,1.8-0.7,2.7-1.3c0.4-0.2,0.5-0.6,0.7-1c0.9-1.5,0.8-3.3,1-4.9c0.3-3,0.2-5.9,0.1-8.9c0-1.2,0-2.5-0.1-3.7
		c-0.1-1.6-0.1-3.3-0.1-4.9C107.5,151.7,106.9,151.8,106.3,152z"/>
	<path class="st26" d="M58.9,153.2c0.5,0.2,0.4,0.8,0.4,1.2c-0.3,2.1-1.2,4-2,5.9c-0.5,1.1-0.9,2.3-1.4,3.4
		c-0.1,0.1-0.2,0.3-0.3,0.4c0.1-0.5,0.3-0.9,0.4-1.3c0.7-2.2,1.6-4.3,2.4-6.5C58.7,155.3,59.1,154.3,58.9,153.2z"/>
	<path class="st26" d="M9,162.8c0.4,0.7,0.5,1.5,0.9,2.3c1,1.8,2,3.6,2.8,5.4c1,2.1,1.9,4.3,2.8,6.4c0,0.1,0.1,0.3,0.1,0.4
		c-0.5-0.7-0.7-1.5-1.1-2.2c-1.2-2.6-2.4-5.2-3.7-7.7C10,165.9,9,164.5,9,162.8z"/>
	<path class="st11" d="M58.2,164.1c0.7-0.2,1.1,0.6,1,1.2c-0.1,0.4-0.3,0.9-0.7,1.1c-0.4,0.1-0.7-0.2-0.9-0.4
		c-0.2-0.2-0.4-0.5-0.3-0.8C57.5,164.7,57.7,164.2,58.2,164.1z"/>
	<path class="st26" d="M74.9,169.9c0.4,1,0.5,2.1,0.3,3.2c-0.2,1.5-0.4,3-0.5,4.5c-0.1,1.3-0.2,2.7-0.1,4c0,0-0.1,0-0.1,0
		c-0.2-0.9-0.1-1.8-0.1-2.7c0.1-1.7,0.1-3.4,0.3-5.1c0.1-0.8,0.2-1.5,0.2-2.3C75,171,74.8,170.5,74.9,169.9z"/>
	<path class="st26" d="M109,178.5c0.4-0.1,0.8-0.4,1.2-0.4c-0.1,0.5-0.7,0.6-1.1,0.8c-1,0.4-2,0.9-3,1.2c-1.6,0.6-3.2,1.2-4.8,1.7
		c-2.3,0.7-4.6,1.2-6.9,1.9c-1.4,0.4-2.7,0.5-4.1,0.8c-1.3,0.2-2.6,0.6-4,0.8c-1.4,0.2-2.8,0.5-4.2,0.7c-0.1-0.1-0.3-0.1-0.4-0.2
		c1.4-0.2,2.8-0.5,4.2-0.7c1-0.2,2-0.4,3-0.6c1.3-0.3,2.7-0.5,4-0.8c1.3-0.3,2.5-0.7,3.8-1c2.1-0.6,4.2-1.1,6.3-1.8
		c0.9-0.3,1.8-0.7,2.7-1C106.9,179.4,107.9,178.8,109,178.5z"/>
	<path class="st29" d="M54.7,183.5c0-0.5-0.1-1,0-1.5c0.2,0.4,0.2,0.9,0.3,1.3c0.1,1.4,0.2,2.9,0.3,4.3c0.2,1.7,0.1,3.4,0.1,5.1
		c0,0.9,0,1.8-0.1,2.6c-0.2,1.8-0.3,3.6-0.2,5.4c0.2,2.8,0,5.6-0.1,8.4c-0.1,1.1-0.1,2.3-0.3,3.4c-0.1,0.5,0,1-0.1,1.6
		c-0.3-0.3-0.2-0.7-0.2-1c0.2-2.7,0.3-5.3,0.4-8c0-1.5,0-3.1-0.1-4.6c-0.1-1.7,0-3.3,0.2-4.9c0.1-1,0.1-2,0.1-3c0-1.5,0-3.1-0.1-4.6
		C54.8,186.5,54.7,185,54.7,183.5z"/>
	<path class="st30" d="M10.3,183.2c1,0.3,2,0.6,2.9,0.9c1.4,0.5,2.9,0.6,4.3,0.8c2,0.5,4.1,0.8,6.2,1.3c1.6,0.3,3.3,0.3,4.9,0.6
		c2.8,0.2,5.5,0.6,8.2,0.8c1,0.1,2.1,0,3.1,0.1c1.9,0.2,3.9,0,5.8,0c1.5,0,2.9-0.3,4.4-0.5c0.6,0,1.1-0.3,1.7-0.2
		c-0.2,0.3-0.6,0.3-0.9,0.4c-2.1,0.3-4.3,0.6-6.4,0.6c-1.5,0-2.9,0.1-4.4,0c-0.8-0.1-1.6-0.1-2.4-0.1c-2.5-0.1-4.9-0.4-7.4-0.7
		c-1.5-0.1-3.1-0.4-4.6-0.5c-1.3-0.1-2.6-0.4-3.9-0.7c-1.2-0.3-2.4-0.4-3.6-0.7c-1.4-0.4-3-0.4-4.4-0.8c-0.8-0.2-1.6-0.5-2.4-0.7
		c-0.4-0.1-0.9-0.2-1.2-0.5C10.3,183.4,10.3,183.3,10.3,183.2z"/>
	<path class="st31" d="M75.9,186.4c2-0.2,3.9-0.5,5.9-0.8c0.1,0.1,0.3,0.1,0.4,0.2c-1.1,0.2-2.3,0.3-3.4,0.5
		c-1.4,0.2-2.8,0.4-4.2,0.4c-1.5,0.1-2.9,0.2-4.4,0.2c-1.4,0-2.9-0.1-4.3-0.1c-1.5,0.1-2.9,0.1-4.4,0.1c-1.9-0.1-3.9,0.1-5.8-0.4
		c0.4-0.1,0.8,0,1.2,0c0.9,0.2,1.9,0.1,2.8,0.2c1.1,0,2.1,0,3.2,0c1.5,0.1,3.1-0.1,4.6,0C70.3,186.9,73.1,186.6,75.9,186.4z"/>
	<path class="st6" d="M95.8,219.8c0.8-1.6,1.8-3.2,2.2-4.9c0.1,0.9-0.3,1.7-0.6,2.4c-0.8,1.7-1.6,3.3-2.5,4.9c-1,1.8-2.1,3.6-3,5.4
		c-1.1,2-2.2,4.1-3.2,6.1c-0.3,0.7-0.6,1.4-1.1,2c1.8-3.6,3.5-7.3,5.5-10.8C94,223.2,95,221.5,95.8,219.8z"/>
	<path class="st6" d="M47.8,221.5c0.7-1.2,1.3-2.5,2-3.8c0.1,0.7-0.3,1.3-0.5,1.9c-1.7,3.9-4.5,7-7,10.4c-0.5,0.6-1,1.4-1.6,1.9
		c0.2-0.5,0.5-0.8,0.8-1.2C43.6,227.6,46,224.7,47.8,221.5z"/>
	<path class="st6" d="M65.9,221.5c0.6,1.8,1.7,3.3,2.9,4.8c2.1,2.5,4,5.2,5.7,8c-0.2-0.2-0.4-0.3-0.6-0.6c-1.1-1.6-2.2-3.2-3.4-4.7
		c-1-1.3-2.3-2.5-3.2-4c-0.5-0.8-1-1.6-1.3-2.5C65.9,222.2,65.9,221.8,65.9,221.5z"/>
	<path class="st6" d="M65.5,226.1c-0.2-0.6-0.5-1.2-0.4-1.8c0.7,1.8,1.4,3.6,2.3,5.3c1.5,3.1,3.2,6.2,4.9,9.2
		c-0.1,0-0.2-0.1-0.2-0.1c-0.9-1.5-1.8-3-2.6-4.5c-0.9-1.6-1.9-3.2-2.6-5C66.3,228.2,65.9,227.2,65.5,226.1z"/>
	<path class="st6" d="M92,232.6c1.4-2.5,2.7-5,4.1-7.4c-0.2,0.8-0.6,1.6-0.9,2.4c-1.6,3.2-3.4,6.3-5.2,9.5c-1.1,1.9-2.1,3.8-3,5.7
		c-0.5,1-0.9,2.2-1.4,3.2c0.1-0.7,0.5-1.4,0.8-2.1C88,239.9,90,236.3,92,232.6z"/>
	<path class="st6" d="M53.1,230.3c0.1,0,0.2,0,0.3-0.1c0,0.6-0.2,1.2-0.2,1.9c-0.3,2.3-0.2,4.6,0,6.9c0.1,0.8,0.1,1.7,0.3,2.5
		c0,0-0.1,0.1-0.1,0.1c-0.3-0.8-0.4-1.7-0.5-2.5c-0.2-2-0.4-4-0.2-5.9C52.8,232.1,53.1,231.2,53.1,230.3z"/>
	<path class="st6" d="M38.6,258.6c1,0.6,2,1.2,3.1,1.6c1.8,0.7,3.6,1.4,5.4,1.8c1.6,0.4,3.3,0.4,4.9,0.7c2,0.3,3.9,1.2,5.8,1.9
		c0.8,0.3,1.6,0.6,2.3,1.1c-1.3-0.6-2.6-1-3.9-1.5c-1.2-0.4-2.5-0.9-3.8-1.1c-1.9-0.3-3.9-0.4-5.7-0.9c-1.8-0.4-3.5-1.2-5.2-1.9
		C40.5,259.9,39.5,259.3,38.6,258.6z"/>
	<path class="st6" d="M49.8,267c1.2,0.3,2.4,0.2,3.7,0.4c3.1,0.3,6.1,1.5,8.8,3c0.2,0.1,0.4,0.3,0.6,0.5c-0.6-0.1-1.1-0.4-1.6-0.6
		c-1.7-0.8-3.5-1.5-5.4-1.9c-1.5-0.4-3-0.5-4.5-0.7C50.8,267.4,50.2,267.4,49.8,267z"/>
	<path class="st6" d="M64.3,270c0.5,0,0.9,0.4,1.3,0.7c1.2,0.9,2.3,1.9,3.3,3.1c1,1.3,1.8,2.7,2.6,4.2c0.3,0.6,0.6,1.1,0.7,1.7
		c-0.3-0.4-0.5-0.8-0.8-1.2c-0.9-1.7-2-3.4-3.3-4.8c-0.9-1-1.9-1.8-2.8-2.7C64.9,270.7,64.5,270.4,64.3,270z"/>
	<path class="st32" d="M92,275.6c0.1,0.6-0.1,1.2-0.2,1.7c-0.5,1.8-1.3,3.5-2.1,5.3c0,2.2,0.6,4.3,1.5,6.3c0.6,1.3,1.3,2.6,2.2,3.7
		c0.3-1.2,0.6-2.3,0.9-3.5c0.5-2.3,1.3-4.5,1.8-6.8c0.3-1.3,0.7-2.7,1.2-4c0.1-0.2,0.1-0.5,0.3-0.6c0.1,0.7-0.3,1.3-0.4,1.9
		c-0.5,1.3-0.8,2.7-1.2,4.1c-0.5,1.9-1.1,3.8-1.6,5.8c-0.6,2.3-1.1,4.7-1.8,7c-0.6,2.2-1.3,4.3-2.1,6.4c-0.7,1.9-1.8,3.7-3,5.4
		c-0.9,1.5-1.8,2.9-2.9,4.3c-0.4,0.6-0.9,1.1-1.3,1.7c-0.1,0.2-0.4,0.3-0.6,0.4c1.2-1.7,2.5-3.3,3.6-5c1.2-1.9,2.5-3.7,3.4-5.7
		c0.7-1.5,1.2-3.1,1.7-4.7c0.7-2.1,1.2-4.1,1.7-6.2c-1.4-1.7-2.3-3.7-3.1-5.8c-0.5-1.4-0.7-2.9-0.8-4.3c-1,1.6-2.1,3.1-3.4,4.5
		c-0.6,0.6-1.2,1.2-1.8,1.8c-0.6,0.7-1.3,1.4-1.8,2.2c-0.2,0.3-0.4,0.7-0.8,0.8c0.1-0.5,0.4-0.8,0.7-1.2c0.6-0.8,1.3-1.5,2-2.2
		c0.6-0.7,1.3-1.3,1.9-2c0.7-0.7,1.2-1.5,1.8-2.3c0.6-0.8,1.1-1.6,1.5-2.5c0.6-1.4,1.3-2.8,1.7-4.2C91.6,277.1,91.7,276.3,92,275.6z
		"/>
	<path class="st6" d="M78.5,282.3c0.4-0.4,0.8-0.9,1.2-1.2c-0.4,0.8-1,1.3-1.6,2c-1,1-1.9,2.1-3.2,2.6c-0.3,0.1-0.6,0.1-0.8,0.1
		c0.6-0.3,1.2-0.6,1.7-1C76.7,284,77.6,283.1,78.5,282.3z"/>
	<path class="st33" d="M99.7,280.8c0.3,0.1,0.8,0.1,0.9,0.5c0.1,1-0.2,2-0.6,2.9c-0.4,1.1-1,2.1-1.6,3.2c-0.5,1-1,2-1.5,3.1
		c-0.2,0.5-0.4,1-0.7,1.4c-0.3,0.6-0.4,1.2-0.6,1.8c-0.4,1-0.5,2-0.7,3c-0.3,1.3-0.8,2.6-1.3,3.9c-0.6,1.6-1.4,3.1-2.2,4.6
		c-1.1,2-2.4,3.8-3.6,5.6c-0.5,0.8-1.2,1.6-1.8,2.4c-0.5,0.7-0.9,1.4-1.4,2c-0.1,0-0.2,0-0.3,0c0.7-0.9,1.2-1.9,1.9-2.8
		c1.3-1.7,2.4-3.5,3.6-5.2c1-1.5,1.9-3.1,2.7-4.8c0.5-1,0.8-2,1.2-3c0.5-1.2,0.8-2.5,1.1-3.8c0.2-0.9,0.4-1.7,0.7-2.5
		c0.8-2.4,1.8-4.7,2.5-7.1c0.4-1.3,0.6-2.6,1-3.9C99.2,281.7,99.4,281.2,99.7,280.8z M99.6,281.4c-0.3,0.6-0.4,1.3-0.6,2
		c-0.4,1.3-0.7,2.7-1.1,4c-0.3,1-0.7,2-1.1,3c0.4-0.7,0.7-1.4,1.1-2.1c0.5-1.1,1.1-2.1,1.6-3.2c0.4-1.1,0.9-2.3,0.9-3.6
		C100.3,281.1,99.7,281,99.6,281.4z"/>
	<path class="st6" d="M78.8,287.6c1.2-1.4,2.3-2.8,3.2-4.3c-0.2,0.8-0.7,1.5-1.1,2.1c-0.7,1.1-1.5,2.2-2.4,3.1
		c-0.4,0.4-0.8,0.8-1.3,0.8C77.7,288.7,78.3,288.2,78.8,287.6z"/>
	<path class="st6" d="M64.8,287.9c1.4-0.1,2.8-0.1,4.1-0.5c0,0-0.1,0.1-0.1,0.2c-0.9,0.3-1.9,0.5-2.9,0.6c-1.1,0.2-2.3,0.2-3.4-0.1
		c-0.2,0-0.3-0.2-0.5-0.3C63,287.8,63.9,287.9,64.8,287.9z"/>
	<path class="st6" d="M70,291.3c1.4-0.3,2.7-0.8,4-1.2c-0.3,0.4-0.8,0.5-1.3,0.7c-1.9,0.8-3.9,1.2-5.9,1.4c-1.1,0.1-2.3,0-3.5-0.1
		c0.8-0.3,1.6-0.2,2.5-0.3C67.3,291.9,68.7,291.6,70,291.3z"/>
	<path class="st34" d="M81.5,294.2c1.3-0.4,2.6-0.4,3.9-0.3c1.8,0.3,3.7,0.6,5.5,1.3c0.5,0.2,1.1,0.4,1.5,0.8
		c-0.5-0.1-1-0.4-1.5-0.5c-2.4-0.8-4.9-1.4-7.5-1.3C82.8,294.2,82.2,294.3,81.5,294.2z"/>
	<path class="st6" d="M57,302.9c0.6,0,1.1,0.2,1.7,0.3c1.2,0.2,2.3,0.2,3.5,0.3c-0.5,0.2-1.1,0.2-1.6,0.2c-1.1-0.1-2.1-0.1-3.1-0.4
		C57.3,303.1,57.2,303,57,302.9z"/>
	<path class="st6" d="M74.1,303c0.4,0,0.8-0.1,1.3,0c-0.8,0.4-1.7,0.3-2.5,0.3c-1-0.1-2,0-3-0.2C71.3,303,72.7,303.1,74.1,303z"/>
	<path class="st35" d="M57.2,305.3c0.8,0,1.5,0.2,2.2,0.3c1,0.1,2.1,0.2,3.1,0.3c1.2,0,2.4,0,3.6,0c2,0,4-0.2,6-0.2
		c0.8,0,1.6-0.1,2.5-0.1c-0.3,0.2-0.7,0.2-1,0.3c-1.5,0.1-3,0-4.5,0.2c-0.8,0-1.7,0.1-2.5,0.1c-0.5,0-0.9,0.2-1.3,0.3
		c-1.1,0.4-2.1,1-3,1.6c-1.3,0.8-2.6,1.8-3.6,3c-0.9,1-1.6,2.3-2.4,3.4c0.1-0.7,0.6-1.4,0.9-2c1.1-1.6,2.5-3.1,4.1-4.1
		c1.3-0.8,2.7-1.6,4.1-2.2c-1.2,0-2.3,0-3.5-0.1c-1.6-0.1-3.2-0.1-4.8-0.5C57.1,305.4,57.2,305.3,57.2,305.3z"/>
	<path class="st36" d="M77,316.3c0.8-0.2,1.6-0.6,2.4-1c0,0.1,0,0.3-0.2,0.4c-1.2,0.8-2.7,1-4.1,1.4c-1.1,0.3-2.3,0.4-3.4,0.6
		c-1.4,0.2-2.8,0.3-4.2,0.4c-1.5,0.1-2.9,0-4.4,0c-1,0-1.9-0.2-2.9-0.3c-0.8-0.1-1.6-0.2-2.5-0.4c-0.6-0.1-1.2-0.4-1.8-0.6
		c0,0,0-0.2,0-0.2c0.7,0.1,1.4,0.4,2.2,0.5c1.1,0.3,2.3,0.4,3.4,0.5c1.1,0.2,2.1,0.1,3.2,0.2c1.5,0.1,2.9,0,4.4-0.1
		c1.2-0.1,2.4-0.2,3.6-0.4C74.2,317.1,75.6,316.7,77,316.3z"/>
	<path class="st35" d="M78.6,317.9c0.4-0.2,0.8-0.5,1.2-0.6c-0.3,0.4-0.9,0.7-1.3,1c-0.9,0.5-2,0.9-3,1.3c-1.1,0.4-2.3,0.7-3.5,0.8
		c-1.8,0.2-3.7,0.3-5.5,0.3c-1.5-0.1-3,0-4.5-0.1c-1.9-0.2-3.9-0.5-5.7-1.1c-0.2-0.1-0.4-0.2-0.5-0.4c1.2,0.4,2.3,0.8,3.6,1
		c2.5,0.5,5,0.5,7.5,0.5c2.6-0.1,5.2-0.2,7.7-1C76,319.2,77.4,318.6,78.6,317.9z"/>
</g>
<circle class="st37" cx="67" cy="40.3" r="43"/>
</svg>
