<svg id="Layer_1" data-name="Layer 1" xmlns="http://www.w3.org/2000/svg" xmlns:xlink="http://www.w3.org/1999/xlink" viewBox="0 0 512 512"><defs><style>.cls-1{fill:none;}.cls-2{clip-path:url(#clip-path);}.cls-3{fill:#ffeaae;}.cls-12,.cls-14,.cls-3,.cls-6,.cls-9{opacity:0.5;isolation:isolate;}.cls-4{fill:#f5c62c;}.cls-5{clip-path:url(#clip-path-4);}.cls-6{fill:#ffc0c0;}.cls-7{fill:#f55;}.cls-8{clip-path:url(#clip-path-7);}.cls-9{fill:#af92f7;}.cls-10{fill:#4a00e0;}.cls-11{clip-path:url(#clip-path-10);}.cls-12{fill:#70c4e5;}.cls-13{clip-path:url(#clip-path-11);}.cls-14{fill:#6bceb4;}</style><clipPath id="clip-path"><rect class="cls-1" x="580.54" y="-589.61" width="512" height="512"/></clipPath><clipPath id="clip-path-4"><rect class="cls-1" width="512" height="512"/></clipPath><clipPath id="clip-path-7"><rect class="cls-1" y="-589.61" width="512" height="512"/></clipPath><clipPath id="clip-path-10"><rect class="cls-1" x="580.54" y="-1174.68" width="512" height="512"/></clipPath><clipPath id="clip-path-11"><rect class="cls-1" y="-1174.68" width="512" height="512"/></clipPath></defs><title>megamenu-red</title><g class="cls-2"><path class="cls-3" d="M505.14,41.19s89.6-215.9,294.9-242.7,184.1-186,184.1-186-35.6-266.2,347.9-216,168.2,718.9,168.2,718.9l-636.6,141.2Z"/></g><g class="cls-2"><path class="cls-3" d="M787.74,841.89s-414-277.4-389.1-415.9-62-346.9,310.1-605.6S1171-73.91,1171-73.91s-239.4,828.6-264.8,816.7S787.74,841.89,787.74,841.89Z"/></g><g class="cls-2"><path class="cls-4" d="M391.14,93.69s222-252.8,416.9-280.4,447.2-67.8,438-259.6,282.6,625.6,282.6,625.6S680.44,320,674.44,320.19,391.14,93.69,391.14,93.69Z"/></g><g class="cls-5"><path class="cls-6" d="M-75.4,630.8S14.2,414.9,219.5,388.1s184.1-186,184.1-186S368-64.1,751.5-13.9,919.7,705,919.7,705L283.1,846.2Z"/></g><g class="cls-5"><path class="cls-6" d="M207.2,1431.5s-414-277.4-389.1-415.9-62-346.9,310.1-605.6S590.5,515.7,590.5,515.7s-239.4,828.6-264.8,816.7S207.2,1431.5,207.2,1431.5Z"/></g><g class="cls-5"><path class="cls-7" d="M-189.4,683.3s222-252.8,416.9-280.4,447.2-67.8,438-259.6S948.1,768.9,948.1,768.9,99.9,909.6,93.9,909.8-189.4,683.3-189.4,683.3Z"/></g><g class="cls-8"><path class="cls-9" d="M-75.4,41.19s89.6-215.9,294.9-242.7,184.1-186,184.1-186-35.6-266.2,347.9-216,168.2,718.9,168.2,718.9L283.1,256.59Z"/></g><g class="cls-8"><path class="cls-9" d="M207.2,841.89s-414-277.4-389.1-415.9-62-346.9,310.1-605.6S590.5-73.91,590.5-73.91s-239.4,828.6-264.8,816.7S207.2,841.89,207.2,841.89Z"/></g><g class="cls-8"><path class="cls-10" d="M-189.4,93.69s222-252.8,416.9-280.4,447.2-67.8,438-259.6,282.6,625.6,282.6,625.6S99.9,320,93.9,320.19-189.4,93.69-189.4,93.69Z"/></g><g class="cls-11"><path class="cls-12" d="M787.74,256.82s-414-277.4-389.1-415.9-62-346.9,310.1-605.6S1171-659,1171-659s-239.4,828.6-264.8,816.7S787.74,256.82,787.74,256.82Z"/></g><g class="cls-13"><path class="cls-14" d="M207.2,256.82s-414-277.4-389.1-415.9-62-346.9,310.1-605.6S590.5-659,590.5-659s-239.4,828.6-264.8,816.7S207.2,256.82,207.2,256.82Z"/></g></svg>