<svg id="wavy-2-core" xmlns="http://www.w3.org/2000/svg" xmlns:xlink="http://www.w3.org/1999/xlink" viewBox="0 0 587.33 359.42"><defs><style>.cls-1{fill:none;}.cls-1,.cls-3,.cls-6{opacity:0.09;}.cls-2{clip-path:url(#clip-path);}.cls-3,.cls-4{fill:#f83600;}.cls-4,.cls-7,.cls-9{opacity:0.23;}.cls-5{clip-path:url(#clip-path-2);}.cls-6,.cls-7{fill:#0f7cff;}.cls-8{clip-path:url(#clip-path-3);}.cls-9{fill:#00d1b2;}</style><clipPath id="clip-path"><polyline class="cls-1" points="0 771.41 0 412 587.33 412 587.33 771.41"/></clipPath><clipPath id="clip-path-2"><polyline class="cls-1" points="0 359.42 0 0 587.33 0 587.33 359.42"/></clipPath><clipPath id="clip-path-3"><polyline class="cls-1" points="0 -48.59 0 -408 587.33 -408 587.33 -48.59"/></clipPath></defs><title>wavy-2-blue</title><g class="cls-2"><path class="cls-3" d="M234.24,347.09c-32.44,24.86-58,58.24-71.06,97C134.24,529.9,176.52,642.36,267.9,668.81c85.37,24.7,183.24-27.51,198.68-117.53,8.45-49.27,14.91-96.8,65.56-119.93,10.33-4.72,21.36-7.9,31.35-13.31,54.73-29.62-29.64-72.5-54-85.24-55.31-28.92-120.29-41.22-181.87-28.54A231.27,231.27,0,0,0,234.24,347.09Z"/><path class="cls-4" d="M295.35,323.88c-31.57,17.11-58.36,42.55-75,74.34-36.94,70.52-15.74,173.92,59.91,209.46,70.67,33.2,162.79,1.37,188.58-74.62,14.12-41.59,26.28-81.94,73.41-95,9.62-2.67,19.63-3.92,29-7.23,51.57-18.16-15.74-67-35.13-81.41-44-32.71-98.71-52.34-153.89-49.82A203.18,203.18,0,0,0,295.35,323.88Z"/></g><g class="cls-5"><circle class="cls-6" cx="567.6" cy="205.63" r="68.46"/><path class="cls-6" d="M234.24-64.91C201.8-40,176.23-6.67,163.18,32,134.24,117.9,176.52,230.36,267.9,256.81c85.37,24.7,183.24-27.51,198.68-117.53C475,90,481.49,42.48,532.14,19.35c10.33-4.72,21.36-7.9,31.35-13.31,54.73-29.62-29.64-72.5-54-85.24-55.31-28.92-120.29-41.22-181.87-28.54A231.27,231.27,0,0,0,234.24-64.91Z"/><circle class="cls-6" cx="113" cy="83.02" r="17.57" transform="translate(12.72 181.02) rotate(-80.64)"/><circle class="cls-6" cx="217.62" cy="286.01" r="34.25"/><path class="cls-6" d="M135.72,108.67a4,4,0,1,1-4-4A4,4,0,0,1,135.72,108.67Z"/><circle class="cls-7" cx="383.63" cy="437.85" r="116.28"/><circle class="cls-7" cx="528.13" cy="119.46" r="9.84"/><path class="cls-7" d="M551.41,92a3,3,0,1,1-3-3A3,3,0,0,1,551.41,92Z"/><circle class="cls-7" cx="569.09" cy="193.7" r="56.53"/><path class="cls-7" d="M295.35-88.12C263.78-71,237-45.57,220.34-13.78,183.4,56.74,204.6,160.14,280.25,195.68c70.67,33.2,162.79,1.37,188.58-74.62C483,79.47,495.11,39.12,542.24,26c9.62-2.67,19.63-3.92,29-7.23,51.57-18.16-15.74-67-35.13-81.41-44-32.71-98.71-52.34-153.89-49.82A203.18,203.18,0,0,0,295.35-88.12Z"/></g><g class="cls-8"><circle class="cls-9" cx="383.63" cy="29.85" r="116.28"/></g></svg>