<?xml version="1.0" encoding="utf-8"?>
<!-- Generator: Adobe Illustrator 23.0.1, SVG Export Plug-In . SVG Version: 6.00 Build 0)  -->
<svg version="1.1" id="Calque_1" xmlns="http://www.w3.org/2000/svg" xmlns:xlink="http://www.w3.org/1999/xlink" x="0px" y="0px"
	 viewBox="0 0 739.7 582.6" style="enable-background:new 0 0 739.7 582.6;" xml:space="preserve">
<style type="text/css">
	.st0{opacity:0.16;}
	.st1{opacity:0.27;enable-background:new    ;}
	.st2{fill:#7777DB;}
	.st3{fill:none;stroke:#6060BA;stroke-miterlimit:10;}
	.st4{fill:#D4D4FF;}
	.st5{fill:#A0A0EA;}
	.st6{fill:#FF702B;}
	.st7{fill:none;stroke:#963C3C;stroke-width:0.5741;stroke-miterlimit:10;}
	.st8{opacity:0.27;fill:none;stroke:#000000;stroke-miterlimit:10;enable-background:new    ;}
	.st9{fill:none;stroke:#ADADF7;stroke-miterlimit:10;}
	.st10{fill:#FFFFFF;}
	.st11{fill:none;stroke:#5A09CE;stroke-width:0.5;stroke-miterlimit:10;}
	.st12{fill:none;stroke:#9B76E5;stroke-width:0.5;stroke-miterlimit:10;}
	.st13{fill:#A2A2F4;}
	.st14{fill:#7F00FF;}
	.st15{fill:none;stroke:#6C03E5;stroke-miterlimit:10;}
	.st16{fill:#B0AFFD;}
	.st17{fill:none;stroke:#9797EF;stroke-miterlimit:10;}
	.st18{fill:none;stroke:#6B07E0;stroke-miterlimit:10;}
	.st19{fill:none;stroke:#7777DB;stroke-miterlimit:10;}
	.st20{fill:none;stroke:#A2A2F4;stroke-miterlimit:10;}
	.st21{fill:none;stroke:#D4D4FF;stroke-miterlimit:10;}
	.st22{fill:#333D66;}
	.st23{fill:#13172B;}
	.st24{fill:none;stroke:#13172B;stroke-width:0.5;stroke-miterlimit:10;}
	.st25{fill:#FFDDCC;}
	.st26{fill:#FF8685;}
	.st27{fill:#FF6666;}
	.st28{fill:none;stroke:#963C3C;stroke-width:0.5;stroke-miterlimit:10;}
	.st29{opacity:0.2;enable-background:new    ;}
	.st30{opacity:0.2;}
	.st31{fill:#6B05E2;}
	.st32{fill:none;stroke:#6A80F2;stroke-miterlimit:10;}
	.st33{fill:#262F57;}
	.st34{fill:none;stroke:#262F57;stroke-width:0.5;stroke-miterlimit:10;}
	.st35{fill:none;stroke:#6A80F2;stroke-width:0.5;stroke-miterlimit:10;}
	.st36{fill:none;stroke:#262F57;stroke-width:0.4872;stroke-miterlimit:10;}
	.st37{fill:none;stroke:#FFDDCC;stroke-width:0.4872;stroke-linecap:round;stroke-linejoin:round;stroke-miterlimit:10;}
	.st38{fill:none;stroke:#262F57;stroke-miterlimit:10;}
	.st39{fill:#1FB86C;}
</style>
<g class="st0">
	<g>
		<path d="M182.2,118c1,0,1.8-0.8,1.8-1.8s-0.8-1.8-1.8-1.8s-1.8,0.8-1.8,1.8C180.4,117.3,181.2,118,182.2,118z"/>
		<path d="M182.2,135c1,0,1.8-0.8,1.8-1.8s-0.8-1.8-1.8-1.8s-1.8,0.8-1.8,1.8S181.2,135,182.2,135z"/>
		<path d="M182.2,151.9c1,0,1.8-0.8,1.8-1.8s-0.8-1.8-1.8-1.8s-1.8,0.8-1.8,1.8S181.2,151.9,182.2,151.9z"/>
		<path d="M182.2,168.9c1,0,1.8-0.8,1.8-1.8s-0.8-1.8-1.8-1.8s-1.8,0.8-1.8,1.8S181.2,168.9,182.2,168.9z"/>
		<path d="M182.2,185.8c1,0,1.8-0.8,1.8-1.8s-0.8-1.8-1.8-1.8s-1.8,0.8-1.8,1.8S181.2,185.8,182.2,185.8z"/>
		<path d="M173.9,126.3c1,0,1.8-0.8,1.8-1.8s-0.8-1.8-1.8-1.8s-1.8,0.8-1.8,1.8S172.9,126.3,173.9,126.3z"/>
		<path d="M173.9,143.2c1,0,1.8-0.8,1.8-1.8s-0.8-1.8-1.8-1.8s-1.8,0.8-1.8,1.8S172.9,143.2,173.9,143.2z"/>
		<path d="M173.9,160.2c1,0,1.8-0.8,1.8-1.8s-0.8-1.8-1.8-1.8s-1.8,0.8-1.8,1.8S172.9,160.2,173.9,160.2z"/>
		<path d="M173.9,177.1c1,0,1.8-0.8,1.8-1.8s-0.8-1.8-1.8-1.8s-1.8,0.8-1.8,1.8S172.9,177.1,173.9,177.1z"/>
		<path d="M164.9,118c1,0,1.8-0.8,1.8-1.8s-0.8-1.8-1.8-1.8s-1.8,0.8-1.8,1.8C163.1,117.3,163.9,118,164.9,118z"/>
		<path d="M164.9,135c1,0,1.8-0.8,1.8-1.8s-0.8-1.8-1.8-1.8s-1.8,0.8-1.8,1.8S163.9,135,164.9,135z"/>
		<path d="M164.9,151.9c1,0,1.8-0.8,1.8-1.8s-0.8-1.8-1.8-1.8s-1.8,0.8-1.8,1.8S163.9,151.9,164.9,151.9z"/>
		<path d="M164.9,168.9c1,0,1.8-0.8,1.8-1.8s-0.8-1.8-1.8-1.8s-1.8,0.8-1.8,1.8S163.9,168.9,164.9,168.9z"/>
		<path d="M164.9,185.8c1,0,1.8-0.8,1.8-1.8s-0.8-1.8-1.8-1.8s-1.8,0.8-1.8,1.8S163.9,185.8,164.9,185.8z"/>
		<circle cx="156.7" cy="124.5" r="1.8"/>
		<circle cx="156.7" cy="141.5" r="1.8"/>
		<circle cx="156.7" cy="158.4" r="1.8"/>
		<path d="M156.7,177.1c1,0,1.8-0.8,1.8-1.8s-0.8-1.8-1.8-1.8s-1.8,0.8-1.8,1.8S155.7,177.1,156.7,177.1z"/>
		<circle cx="147.9" cy="116.3" r="1.8"/>
		<circle cx="147.9" cy="133.2" r="1.8"/>
		<circle cx="147.9" cy="150.2" r="1.8"/>
		<path d="M147.9,168.9c1,0,1.8-0.8,1.8-1.8s-0.8-1.8-1.8-1.8s-1.8,0.8-1.8,1.8S146.9,168.9,147.9,168.9z"/>
		<path d="M147.9,185.8c1,0,1.8-0.8,1.8-1.8s-0.8-1.8-1.8-1.8s-1.8,0.8-1.8,1.8C146.1,185,146.9,185.8,147.9,185.8z"/>
		<path d="M139.6,126.3c1,0,1.8-0.8,1.8-1.8s-0.8-1.8-1.8-1.8s-1.8,0.8-1.8,1.8S138.6,126.3,139.6,126.3z"/>
		<path d="M139.6,143.2c1,0,1.8-0.8,1.8-1.8s-0.8-1.8-1.8-1.8s-1.8,0.8-1.8,1.8S138.6,143.2,139.6,143.2z"/>
		<path d="M139.6,160.2c1,0,1.8-0.8,1.8-1.8s-0.8-1.8-1.8-1.8s-1.8,0.8-1.8,1.8S138.6,160.2,139.6,160.2z"/>
		<path d="M139.6,177.1c1,0,1.8-0.8,1.8-1.8s-0.8-1.8-1.8-1.8s-1.8,0.8-1.8,1.8S138.6,177.1,139.6,177.1z"/>
		<path d="M130.6,118c1,0,1.8-0.8,1.8-1.8s-0.8-1.8-1.8-1.8s-1.8,0.8-1.8,1.8C128.9,117.3,129.6,118,130.6,118z"/>
		<path d="M130.6,135c1,0,1.8-0.8,1.8-1.8s-0.8-1.8-1.8-1.8s-1.8,0.8-1.8,1.8S129.6,135,130.6,135z"/>
		<path d="M130.6,151.9c1,0,1.8-0.8,1.8-1.8s-0.8-1.8-1.8-1.8s-1.8,0.8-1.8,1.8S129.6,151.9,130.6,151.9z"/>
		<path d="M130.6,168.9c1,0,1.8-0.8,1.8-1.8s-0.8-1.8-1.8-1.8s-1.8,0.8-1.8,1.8S129.6,168.9,130.6,168.9z"/>
		<path d="M130.6,185.8c1,0,1.8-0.8,1.8-1.8s-0.8-1.8-1.8-1.8s-1.8,0.8-1.8,1.8S129.6,185.8,130.6,185.8z"/>
	</g>
	<g>
		<path d="M244.4,118c1,0,1.8-0.8,1.8-1.8s-0.8-1.8-1.8-1.8s-1.8,0.8-1.8,1.8C242.5,117.3,243.4,118,244.4,118z"/>
		<path d="M244.4,135c1,0,1.8-0.8,1.8-1.8s-0.8-1.8-1.8-1.8s-1.8,0.8-1.8,1.8C242.5,134.2,243.4,135,244.4,135z"/>
		<path d="M244.4,151.9c1,0,1.8-0.8,1.8-1.8s-0.8-1.8-1.8-1.8s-1.8,0.8-1.8,1.8C242.5,151.1,243.4,151.9,244.4,151.9z"/>
		<path d="M244.4,168.9c1,0,1.8-0.8,1.8-1.8s-0.8-1.8-1.8-1.8s-1.8,0.8-1.8,1.8S243.4,168.9,244.4,168.9z"/>
		<path d="M244.4,185.8c1,0,1.8-0.8,1.8-1.8s-0.8-1.8-1.8-1.8s-1.8,0.8-1.8,1.8C242.5,185,243.4,185.8,244.4,185.8z"/>
		<path d="M236.1,126.3c1,0,1.8-0.8,1.8-1.8s-0.8-1.8-1.8-1.8s-1.8,0.8-1.8,1.8S235.1,126.3,236.1,126.3z"/>
		<path d="M236.1,143.2c1,0,1.8-0.8,1.8-1.8s-0.8-1.8-1.8-1.8s-1.8,0.8-1.8,1.8S235.1,143.2,236.1,143.2z"/>
		<path d="M236.1,160.2c1,0,1.8-0.8,1.8-1.8s-0.8-1.8-1.8-1.8s-1.8,0.8-1.8,1.8S235.1,160.2,236.1,160.2z"/>
		<path d="M236.1,177.1c1,0,1.8-0.8,1.8-1.8s-0.8-1.8-1.8-1.8s-1.8,0.8-1.8,1.8S235.1,177.1,236.1,177.1z"/>
		<path d="M227.1,118c1,0,1.8-0.8,1.8-1.8s-0.8-1.8-1.8-1.8s-1.8,0.8-1.8,1.8C225.4,117.3,226.1,118,227.1,118z"/>
		<path d="M227.1,135c1,0,1.8-0.8,1.8-1.8s-0.8-1.8-1.8-1.8s-1.8,0.8-1.8,1.8S226.1,135,227.1,135z"/>
		<path d="M227.1,151.9c1,0,1.8-0.8,1.8-1.8s-0.8-1.8-1.8-1.8s-1.8,0.8-1.8,1.8S226.1,151.9,227.1,151.9z"/>
		<path d="M227.1,168.9c1,0,1.8-0.8,1.8-1.8s-0.8-1.8-1.8-1.8s-1.8,0.8-1.8,1.8S226.1,168.9,227.1,168.9z"/>
		<path d="M227.1,185.8c1,0,1.8-0.8,1.8-1.8s-0.8-1.8-1.8-1.8s-1.8,0.8-1.8,1.8S226.1,185.8,227.1,185.8z"/>
		<circle cx="218.9" cy="124.5" r="1.8"/>
		<circle cx="218.9" cy="141.5" r="1.8"/>
		<circle cx="218.9" cy="158.4" r="1.8"/>
		<path d="M218.9,177.1c1,0,1.8-0.8,1.8-1.8s-0.8-1.8-1.8-1.8s-1.8,0.8-1.8,1.8C217,176.3,217.9,177.1,218.9,177.1z"/>
		<circle cx="210" cy="116.3" r="1.8"/>
		<circle cx="210" cy="133.2" r="1.8"/>
		<circle cx="210" cy="150.2" r="1.8"/>
		<path d="M210,168.9c1,0,1.8-0.8,1.8-1.8s-0.8-1.8-1.8-1.8s-1.8,0.8-1.8,1.8S209,168.9,210,168.9z"/>
		<path d="M210,185.8c1,0,1.8-0.8,1.8-1.8s-0.8-1.8-1.8-1.8s-1.8,0.8-1.8,1.8S209,185.8,210,185.8z"/>
		<path d="M201.7,126.3c1,0,1.8-0.8,1.8-1.8s-0.8-1.8-1.8-1.8s-1.8,0.8-1.8,1.8S200.7,126.3,201.7,126.3z"/>
		<path d="M201.7,143.2c1,0,1.8-0.8,1.8-1.8s-0.8-1.8-1.8-1.8s-1.8,0.8-1.8,1.8S200.7,143.2,201.7,143.2z"/>
		<path d="M201.7,160.2c1,0,1.8-0.8,1.8-1.8s-0.8-1.8-1.8-1.8s-1.8,0.8-1.8,1.8S200.7,160.2,201.7,160.2z"/>
		<path d="M201.7,177.1c1,0,1.8-0.8,1.8-1.8s-0.8-1.8-1.8-1.8s-1.8,0.8-1.8,1.8S200.7,177.1,201.7,177.1z"/>
		<path d="M192.7,118c1,0,1.8-0.8,1.8-1.8s-0.8-1.8-1.8-1.8s-1.8,0.8-1.8,1.8C190.9,117.3,191.7,118,192.7,118z"/>
		<path d="M192.7,135c1,0,1.8-0.8,1.8-1.8s-0.8-1.8-1.8-1.8s-1.8,0.8-1.8,1.8S191.7,135,192.7,135z"/>
		<path d="M192.7,151.9c1,0,1.8-0.8,1.8-1.8s-0.8-1.8-1.8-1.8s-1.8,0.8-1.8,1.8S191.7,151.9,192.7,151.9z"/>
		<path d="M192.7,168.9c1,0,1.8-0.8,1.8-1.8s-0.8-1.8-1.8-1.8s-1.8,0.8-1.8,1.8S191.7,168.9,192.7,168.9z"/>
		<path d="M192.7,185.8c1,0,1.8-0.8,1.8-1.8s-0.8-1.8-1.8-1.8s-1.8,0.8-1.8,1.8S191.7,185.8,192.7,185.8z"/>
	</g>
	<g>
		<path d="M182.2,40.1c1,0,1.8-0.8,1.8-1.8s-0.8-1.8-1.8-1.8s-1.8,0.8-1.8,1.8S181.2,40.1,182.2,40.1z"/>
		<path d="M182.2,57.1c1,0,1.8-0.8,1.8-1.8s-0.8-1.8-1.8-1.8s-1.8,0.8-1.8,1.8S181.2,57.1,182.2,57.1z"/>
		<path d="M182.2,74c1,0,1.8-0.8,1.8-1.8s-0.8-1.8-1.8-1.8s-1.8,0.8-1.8,1.8S181.2,74,182.2,74z"/>
		<path d="M182.2,90.9c1,0,1.8-0.8,1.8-1.8s-0.8-1.8-1.8-1.8s-1.8,0.8-1.8,1.8S181.2,90.9,182.2,90.9z"/>
		<path d="M182.2,107.9c1,0,1.8-0.8,1.8-1.8s-0.8-1.8-1.8-1.8s-1.8,0.8-1.8,1.8S181.2,107.9,182.2,107.9z"/>
		<path d="M173.9,48.4c1,0,1.8-0.8,1.8-1.8s-0.8-1.8-1.8-1.8s-1.8,0.8-1.8,1.8S172.9,48.4,173.9,48.4z"/>
		<path d="M173.9,65.3c1,0,1.8-0.8,1.8-1.8c0-1-0.8-1.8-1.8-1.8s-1.8,0.8-1.8,1.8C172.1,64.5,172.9,65.3,173.9,65.3z"/>
		<path d="M173.9,82.2c1,0,1.8-0.8,1.8-1.8s-0.8-1.8-1.8-1.8s-1.8,0.8-1.8,1.8S172.9,82.2,173.9,82.2z"/>
		<path d="M173.9,99.2c1,0,1.8-0.8,1.8-1.8s-0.8-1.8-1.8-1.8s-1.8,0.8-1.8,1.8S172.9,99.2,173.9,99.2z"/>
		<path d="M164.9,40.1c1,0,1.8-0.8,1.8-1.8s-0.8-1.8-1.8-1.8s-1.8,0.8-1.8,1.8C163.1,39.3,163.9,40.1,164.9,40.1z"/>
		<path d="M164.9,57.1c1,0,1.8-0.8,1.8-1.8s-0.8-1.8-1.8-1.8s-1.8,0.8-1.8,1.8C163.1,56.3,163.9,57.1,164.9,57.1z"/>
		<path d="M164.9,74c1,0,1.8-0.8,1.8-1.8s-0.8-1.8-1.8-1.8s-1.8,0.8-1.8,1.8S163.9,74,164.9,74z"/>
		<path d="M164.9,90.9c1,0,1.8-0.8,1.8-1.8s-0.8-1.8-1.8-1.8s-1.8,0.8-1.8,1.8S163.9,90.9,164.9,90.9z"/>
		<path d="M164.9,107.9c1,0,1.8-0.8,1.8-1.8s-0.8-1.8-1.8-1.8s-1.8,0.8-1.8,1.8S163.9,107.9,164.9,107.9z"/>
		<circle cx="156.7" cy="46.6" r="1.8"/>
		<circle cx="156.7" cy="63.5" r="1.8"/>
		<circle cx="156.7" cy="80.5" r="1.8"/>
		<path d="M156.7,99.2c1,0,1.8-0.8,1.8-1.8s-0.8-1.8-1.8-1.8s-1.8,0.8-1.8,1.8S155.7,99.2,156.7,99.2z"/>
		<circle cx="147.9" cy="38.3" r="1.8"/>
		<circle cx="147.9" cy="55.3" r="1.8"/>
		<circle cx="147.9" cy="72.2" r="1.8"/>
		<path d="M147.9,90.9c1,0,1.8-0.8,1.8-1.8s-0.8-1.8-1.8-1.8s-1.8,0.8-1.8,1.8S146.9,90.9,147.9,90.9z"/>
		<path d="M147.9,107.9c1,0,1.8-0.8,1.8-1.8s-0.8-1.8-1.8-1.8s-1.8,0.8-1.8,1.8C146.1,107.1,146.9,107.9,147.9,107.9z"/>
		<path d="M139.6,48.4c1,0,1.8-0.8,1.8-1.8s-0.8-1.8-1.8-1.8s-1.8,0.8-1.8,1.8S138.6,48.4,139.6,48.4z"/>
		<path d="M139.6,65.3c1,0,1.8-0.8,1.8-1.8c0-1-0.8-1.8-1.8-1.8s-1.8,0.8-1.8,1.8C137.9,64.5,138.6,65.3,139.6,65.3z"/>
		<path d="M139.6,82.2c1,0,1.8-0.8,1.8-1.8s-0.8-1.8-1.8-1.8s-1.8,0.8-1.8,1.8S138.6,82.2,139.6,82.2z"/>
		<path d="M139.6,99.2c1,0,1.8-0.8,1.8-1.8s-0.8-1.8-1.8-1.8s-1.8,0.8-1.8,1.8S138.6,99.2,139.6,99.2z"/>
		<path d="M130.6,40.1c1,0,1.8-0.8,1.8-1.8s-0.8-1.8-1.8-1.8s-1.8,0.8-1.8,1.8C128.9,39.3,129.6,40.1,130.6,40.1z"/>
		<path d="M130.6,57.1c1,0,1.8-0.8,1.8-1.8s-0.8-1.8-1.8-1.8s-1.8,0.8-1.8,1.8C128.9,56.3,129.6,57.1,130.6,57.1z"/>
		<path d="M130.6,74c1,0,1.8-0.8,1.8-1.8s-0.8-1.8-1.8-1.8s-1.8,0.8-1.8,1.8S129.6,74,130.6,74z"/>
		<path d="M130.6,90.9c1,0,1.8-0.8,1.8-1.8s-0.8-1.8-1.8-1.8s-1.8,0.8-1.8,1.8S129.6,90.9,130.6,90.9z"/>
		<path d="M130.6,107.9c1,0,1.8-0.8,1.8-1.8s-0.8-1.8-1.8-1.8s-1.8,0.8-1.8,1.8S129.6,107.9,130.6,107.9z"/>
	</g>
	<g>
		<path d="M244.4,40.1c1,0,1.8-0.8,1.8-1.8s-0.8-1.8-1.8-1.8s-1.8,0.8-1.8,1.8C242.5,39.3,243.4,40.1,244.4,40.1z"/>
		<path d="M244.4,57.1c1,0,1.8-0.8,1.8-1.8s-0.8-1.8-1.8-1.8s-1.8,0.8-1.8,1.8C242.5,56.3,243.4,57.1,244.4,57.1z"/>
		<path d="M244.4,74c1,0,1.8-0.8,1.8-1.8s-0.8-1.8-1.8-1.8s-1.8,0.8-1.8,1.8C242.5,73.2,243.4,74,244.4,74z"/>
		<path d="M244.4,90.9c1,0,1.8-0.8,1.8-1.8s-0.8-1.8-1.8-1.8s-1.8,0.8-1.8,1.8S243.4,90.9,244.4,90.9z"/>
		<path d="M244.4,107.9c1,0,1.8-0.8,1.8-1.8s-0.8-1.8-1.8-1.8s-1.8,0.8-1.8,1.8C242.5,107.1,243.4,107.9,244.4,107.9z"/>
		<path d="M236.1,48.4c1,0,1.8-0.8,1.8-1.8s-0.8-1.8-1.8-1.8s-1.8,0.8-1.8,1.8S235.1,48.4,236.1,48.4z"/>
		<path d="M236.1,65.3c1,0,1.8-0.8,1.8-1.8c0-1-0.8-1.8-1.8-1.8s-1.8,0.8-1.8,1.8C234.4,64.5,235.1,65.3,236.1,65.3z"/>
		<path d="M236.1,82.2c1,0,1.8-0.8,1.8-1.8s-0.8-1.8-1.8-1.8s-1.8,0.8-1.8,1.8S235.1,82.2,236.1,82.2z"/>
		<path d="M236.1,99.2c1,0,1.8-0.8,1.8-1.8s-0.8-1.8-1.8-1.8s-1.8,0.8-1.8,1.8S235.1,99.2,236.1,99.2z"/>
		<path d="M227.1,40.1c1,0,1.8-0.8,1.8-1.8s-0.8-1.8-1.8-1.8s-1.8,0.8-1.8,1.8C225.4,39.3,226.1,40.1,227.1,40.1z"/>
		<path d="M227.1,57.1c1,0,1.8-0.8,1.8-1.8s-0.8-1.8-1.8-1.8s-1.8,0.8-1.8,1.8C225.4,56.3,226.1,57.1,227.1,57.1z"/>
		<path d="M227.1,74c1,0,1.8-0.8,1.8-1.8s-0.8-1.8-1.8-1.8s-1.8,0.8-1.8,1.8S226.1,74,227.1,74z"/>
		<path d="M227.1,90.9c1,0,1.8-0.8,1.8-1.8s-0.8-1.8-1.8-1.8s-1.8,0.8-1.8,1.8S226.1,90.9,227.1,90.9z"/>
		<path d="M227.1,107.9c1,0,1.8-0.8,1.8-1.8s-0.8-1.8-1.8-1.8s-1.8,0.8-1.8,1.8S226.1,107.9,227.1,107.9z"/>
		<circle cx="218.9" cy="46.6" r="1.8"/>
		<circle cx="218.9" cy="63.5" r="1.8"/>
		<circle cx="218.9" cy="80.5" r="1.8"/>
		<path d="M218.9,99.2c1,0,1.8-0.8,1.8-1.8s-0.8-1.8-1.8-1.8s-1.8,0.8-1.8,1.8C217,98.4,217.9,99.2,218.9,99.2z"/>
		<circle cx="210" cy="38.3" r="1.8"/>
		<circle cx="210" cy="55.3" r="1.8"/>
		<circle cx="210" cy="72.2" r="1.8"/>
		<path d="M210,90.9c1,0,1.8-0.8,1.8-1.8s-0.8-1.8-1.8-1.8s-1.8,0.8-1.8,1.8S209,90.9,210,90.9z"/>
		<path d="M210,107.9c1,0,1.8-0.8,1.8-1.8s-0.8-1.8-1.8-1.8s-1.8,0.8-1.8,1.8S209,107.9,210,107.9z"/>
		<path d="M201.7,48.4c1,0,1.8-0.8,1.8-1.8s-0.8-1.8-1.8-1.8s-1.8,0.8-1.8,1.8S200.7,48.4,201.7,48.4z"/>
		<path d="M201.7,65.3c1,0,1.8-0.8,1.8-1.8c0-1-0.8-1.8-1.8-1.8s-1.8,0.8-1.8,1.8C199.9,64.5,200.7,65.3,201.7,65.3z"/>
		<path d="M201.7,82.2c1,0,1.8-0.8,1.8-1.8s-0.8-1.8-1.8-1.8s-1.8,0.8-1.8,1.8S200.7,82.2,201.7,82.2z"/>
		<path d="M201.7,99.2c1,0,1.8-0.8,1.8-1.8s-0.8-1.8-1.8-1.8s-1.8,0.8-1.8,1.8S200.7,99.2,201.7,99.2z"/>
		<path d="M192.7,40.1c1,0,1.8-0.8,1.8-1.8s-0.8-1.8-1.8-1.8s-1.8,0.8-1.8,1.8S191.7,40.1,192.7,40.1z"/>
		<path d="M192.7,57.1c1,0,1.8-0.8,1.8-1.8s-0.8-1.8-1.8-1.8s-1.8,0.8-1.8,1.8S191.7,57.1,192.7,57.1z"/>
		<path d="M192.7,74c1,0,1.8-0.8,1.8-1.8s-0.8-1.8-1.8-1.8s-1.8,0.8-1.8,1.8S191.7,74,192.7,74z"/>
		<path d="M192.7,90.9c1,0,1.8-0.8,1.8-1.8s-0.8-1.8-1.8-1.8s-1.8,0.8-1.8,1.8S191.7,90.9,192.7,90.9z"/>
		<path d="M192.7,107.9c1,0,1.8-0.8,1.8-1.8s-0.8-1.8-1.8-1.8s-1.8,0.8-1.8,1.8S191.7,107.9,192.7,107.9z"/>
	</g>
</g>
<g>
	<g>
		<polygon class="st1" points="514.5,160.3 320.9,160.3 316.1,156.3 509.8,148.2 514.5,152.3 		"/>
		<g>
			<polygon class="st1" points="327.8,180.7 324.7,180.7 326.5,160.3 332.5,160.3 			"/>
			<polygon class="st1" points="498.1,180.7 501.2,180.7 509,160.3 502.9,160.3 			"/>
		</g>
	</g>
	<polygon class="st1" points="629,408.9 639.5,458.2 594,458.2 	"/>
	<g>
		<path class="st1" d="M636.5,272.8h-0.3c0,0,0,0,0,0.1c-0.2,0.1-0.4,0.1-0.5,0.2c-15.5,5.5-25.1,17.1-24.7,28
			c0.6,13,16.5,18,20.5,31.4c-2.1,7.5-4.9,14.8-8.5,21.7c-15.8,29.7-25.6,51.2-25.6,66.7h0.6c0-15.4,9.8-36.8,25.5-66.4
			c3.7-6.9,6.5-14.4,8.6-21.9c5.9-13.5,36-29.2,37.1-47.8C670,269.7,658.1,265.4,636.5,272.8z"/>
		<path class="st2" d="M632.2,271.3c22.1-7.8,34.4-3.6,33.5,11.6c-1.1,19-32.4,35-37.4,48.6c-3.6-14.1-20.2-19-20.7-32.3
			C607.1,288.4,616.7,276.8,632.2,271.3z"/>
		<path class="st3" d="M628.2,331.6c1.6-11.8-5.6-38.7-6.5-55.1"/>
		<path class="st3" d="M628.2,331.6c0.9-9.2-17.1-30.3-17.1-44.6"/>
		<path class="st3" d="M646.5,267.9c3.2,24.3-16.7,56.7-18.3,63.7"/>
		<path class="st3" d="M661.3,270.6c0,13.3-22.6,38.7-33.1,61"/>
		<path class="st3" d="M633,271.1c2.6,15.9,1.5,53.7-13.3,81.5c-14.8,27.9-25.6,50.4-25.6,66.5"/>
	</g>
	<polygon class="st1" points="184.7,282.1 211.1,458.4 102.3,458.4 92.1,418.8 	"/>
	<polygon class="st1" points="537.5,239.6 562,458.4 250.1,458.4 234.9,359.2 	"/>
	<g>
		<path class="st4" d="M516.9,351.4H221.4L200.3,254c-3.7-17.2,7.9-33.2,24.1-33.2h289.4c16.2,0,27.8,16,24.1,33.2L516.9,351.4z"/>
		<path class="st5" d="M499.8,343.8c0,0,5.9-24.1,7.8-31.3c2.9-10.9,15.4-13.1,26.3-12.2l-11.7,43.4h-22.4V343.8z"/>
		<path class="st5" d="M239.1,343.8c0,0-5.9-24.1-7.8-31.3c-2.9-10.9-15.4-13.1-26.3-12.2l11.7,43.4h22.4V343.8z"/>
		<g>
			<g>
				<polygon class="st6" points="508.8,393.9 524.5,458.2 512.6,458.2 482.2,393.9 				"/>
				<line class="st7" x1="521.4" y1="458.2" x2="505" y2="397.1"/>
			</g>
			<g>
				<polygon class="st6" points="229.5,393.9 213.8,458.2 225.6,458.2 256.1,393.9 				"/>
				<line class="st7" x1="216.8" y1="458.2" x2="233.3" y2="397.1"/>
			</g>
		</g>
		<rect x="244" y="393.9" class="st6" width="250.3" height="14.4"/>
		<path class="st5" d="M369.1,350c-67.4,0-77.7-12.4-144.1-12.4l5.6,43.2h138.5h138.5l5.6-43.2C446.9,337.6,436.6,350,369.1,350z"/>
		<path class="st8" d="M503.3,359.2c-60.6,0.3-71,12.4-134.2,12.4c-63.1,0-73.5-12-134.2-12.4"/>
		<line class="st9" x1="231.3" y1="230.7" x2="494.6" y2="230.7"/>
		<path class="st4" d="M533.9,300.4c-8.8,0-16.5,6.2-18.4,14.8L504,368.4c-1.2,5.6-5.4,9.8-9.7,9.8H243.9c-4.3,0-8.4-4.2-9.7-9.8
			l-11.6-53.3c-1.9-8.6-9.5-14.8-18.4-14.8l0,0c-4.9,0-8.6,4.5-7.5,9.4l13.9,63.8c3.6,16.7,17.6,28.8,33.3,28.8h250.4
			c15.6,0,29.6-12.1,33.3-28.8l13.9-63.8C542.5,304.9,538.8,300.4,533.9,300.4L533.9,300.4z"/>
	</g>
	<path class="st4" d="M206.4,280.6c-10.6-0.4-15.9,2.9-16.2,9.5c-0.2,6.5,3.8,9.8,14,10.2c13.4,0.5,35.3,1.1,37.8,19.5l15,0.5
		c0,0-0.4-10.1-8.7-24.1C240.2,282.3,214,280.9,206.4,280.6z"/>
	<path class="st1" d="M279.7,406.6l-29.4-19.5l3.1-14.8h2.4l2.4-10c0,0,17-3.8,26.9-1c6.5,1.9,12.3,3.6,17.6,2.4
		c5.3-1.2,6.6-3.5,11.4-2.4c4.8,1.2,12.1,3.1,12.1,3.1l-12-16.2l-69.1-9l-7.9,55L279.7,406.6z"/>
	<g>
		<path class="st10" d="M249.2,202.5c-12.2,0-22,9.9-22,22c0,6.9,3.2,13.1,8.2,17.1l-6.8,12.6l13.9-8.7c2.1,0.7,4.4,1,6.7,1
			c12.2,0,22-9.9,22-22C271.2,212.3,261.4,202.5,249.2,202.5z"/>
		<path class="st2" d="M245.7,216.1l-1.8,12.8c-0.1,0.7-0.8,1.3-1.5,1.3c-0.5,0-1.1,0-1.7,0.2c-2.5,0.5-4.6,2.1-4.8,3.5
			s1.6,2.1,4.1,1.6s4.6-2.1,4.8-3.5l1.8-13l10.2-2.2l-1.3,9.7c-0.1,0.7-0.8,1.3-1.5,1.3c-0.5,0-1.1,0-1.7,0.2
			c-2.5,0.5-4.6,2.1-4.8,3.5s1.6,2.1,4.1,1.6s4.6-2.1,4.8-3.5l2.2-16.2L245.7,216.1z"/>
	</g>
	<line class="st11" x1="70.5" y1="458.1" x2="657.7" y2="458.1"/>
	<g>
		<rect x="80.2" y="282.1" class="st4" width="104.6" height="141.6"/>
		<g>
			<polygon class="st6" points="92.5,458.1 85.1,458.1 82.6,423.7 95,423.7 			"/>
			<polygon class="st6" points="179.8,458.1 172.4,458.1 169.9,423.7 182.3,423.7 			"/>
		</g>
		<g>
			<line class="st12" x1="83.5" y1="287.4" x2="181.4" y2="287.4"/>
			<g>
				<line class="st12" x1="83.5" y1="418.4" x2="181.4" y2="418.4"/>
			</g>
		</g>
		<rect x="88.8" y="294.7" class="st12" width="87.3" height="33.7"/>
		<rect x="88.8" y="336" class="st12" width="87.3" height="33.7"/>
		<rect x="88.8" y="377.4" class="st12" width="87.3" height="33.7"/>
		<g>
			<line class="st12" x1="88.8" y1="299.7" x2="176.1" y2="299.7"/>
			<circle class="st12" cx="132.4" cy="307.4" r="3.2"/>
		</g>
		<g>
			<line class="st12" x1="88.8" y1="341" x2="176.1" y2="341"/>
			<circle class="st12" cx="132.4" cy="348.7" r="3.2"/>
		</g>
		<g>
			<line class="st12" x1="88.8" y1="382.1" x2="176.1" y2="382.1"/>
			<path class="st12" d="M135.7,389.8c0,1.8-1.4,3.2-3.2,3.2s-3.2-1.4-3.2-3.2c0-1.8,1.4-3.2,3.2-3.2
				C134.2,386.6,135.7,388,135.7,389.8z"/>
		</g>
	</g>
	<g>
		<rect x="149.2" y="204.8" class="st4" width="4.9" height="77.3"/>
		<path class="st13" d="M154.2,232.6v-27.8h-4.9v34.9C150.9,237.2,152.6,234.8,154.2,232.6z"/>
		<path class="st13" d="M129.2,282.1h44.9c-2.3-2.6-11.5-4.5-22.5-4.5C140.7,277.5,131.5,279.5,129.2,282.1z"/>
		<g>
			<polygon class="st14" points="118.7,210.3 133.5,156.5 169.9,156.5 184.7,210.3 			"/>
			<g>
				<line class="st15" x1="142.5" y1="158.6" x2="135.7" y2="208.2"/>
				<line class="st15" x1="151.7" y1="158.6" x2="151.7" y2="208.2"/>
				<line class="st15" x1="161" y1="158.6" x2="167.8" y2="208.2"/>
			</g>
		</g>
	</g>
	<g>
		<path class="st1" d="M620.5,344.8c-1.4-14.6-29.4-20-48.3-14.2l0,0l-0.3,0.1l0,0c-9,2.8-37.7,17.4-32.7,32.2
			c3.5,10.3,16.1,11.1,27.4,16.1c12.2,5.4,18.9,13.7,19.7,14.7c0.9,8.4,1.6,17.3,1.6,26.6h0.6c-0.1-9.8-0.8-19.2-1.8-27.9
			C591.7,374.3,621.9,359.1,620.5,344.8z"/>
		<path class="st16" d="M567.5,329.5c18.9-5.9,47.1-0.6,48.6,14.1c1.4,14.7-30.4,30.3-34.1,49c0,0-6.8-9.1-19.8-14.8
			c-11.2-5-23.9-5.8-27.4-16.1C529.8,346.9,558.5,332.3,567.5,329.5z"/>
		<path class="st17" d="M552.8,336.4c0,0,19.9,20.3,29.2,56.1"/>
		<path class="st17" d="M538.6,347.9c0,0,32.2,20.8,43.3,44.7"/>
		<path class="st17" d="M585.4,327.1c0,0,3.6,27.6-3.4,65.5"/>
		<path class="st17" d="M603.2,330.3c0,22.7-20.1,50.6-21.3,62.2"/>
		<path class="st3" d="M567.5,329.5c0,0,15.8,38.7,16.3,89.6"/>
	</g>
	<g>
		<path class="st1" d="M640.2,362.4C640.2,362.3,640.2,362.3,640.2,362.4l-0.3-0.1l0,0c-10.4-2.2-29.4,0-31.4,10.3
			c-1.9,10.1,13,19.6,11.7,28.2c-1.7,2.2-3.3,4.1-4.8,6c-5.2,6.5-9,11.1-11.7,16.6l0.5,0.2c2.7-5.4,6.4-10.1,11.6-16.5
			c1.6-2,3.3-4,5.1-6.4c7-4.2,33.1-0.7,38.5-12.3C663.5,379.9,655.7,365.8,640.2,362.4z"/>
		<path class="st16" d="M637.7,359.4c15.7,3.3,23.6,17.5,19.5,26.2c-5.7,12.1-33.9,7.8-39.4,12.9c2.2-8.8-13.5-18.5-11.5-28.8
			C608.3,359.4,627.3,357.2,637.7,359.4z"/>
		<path class="st17" d="M617.8,398.5c5.6-7,9-31.8,7.5-39.7"/>
		<path class="st17" d="M614.5,361.3c0.4,13,7.3,28.6,3.4,37.3"/>
		<path class="st17" d="M649.1,364.5c-3.4,14.2-20.9,23.8-31.2,34"/>
		<path class="st17" d="M657,374.5c-3.6,13.8-33.7,18.5-39.1,24.1"/>
		<path class="st3" d="M637.7,359.4c0,0-0.8,13.7-12.7,29.8s-18.9,22.7-23.3,31.5"/>
	</g>
	<path class="st14" d="M611.8,458.1h-36.5c-5.3,0-9.9-3.9-10.7-9.1l-6.6-40.1h71.2l-6.6,40.1C621.7,454.2,617.1,458.1,611.8,458.1z"
		/>
	<line class="st18" x1="562.9" y1="416.1" x2="624.1" y2="416.1"/>
	<g>
		<ellipse class="st1" cx="257.1" cy="127.6" rx="30" ry="30"/>
	</g>
	<g>
		<rect x="551.2" y="104.4" class="st1" width="93.6" height="129.1"/>
		<rect x="548.5" y="101.3" class="st4" width="93.6" height="129.1"/>
		<rect x="559.5" y="111.6" class="st10" width="71.7" height="108.3"/>
		<path class="st16" d="M592.8,164.2c-0.3-11-5-11.7-5-11.7c-0.7-9.4-5.5-11.2-5.5-11.2c0-7.3-2.6-17-5.8-16.6s-3.2,10.4-3.2,10.4
			c-3.9-4.4-6.2,14.6-6.2,14.6c-4.4-6.1-7,14.6-7,14.6c-0.2,0.1-0.5,0.3-0.7,0.5v34.8h37.4C599.6,160.9,592.8,164.2,592.8,164.2z"/>
		<polygon class="st10" points="571.5,195.1 571.5,182.2 577.8,172.9 608.1,172.9 608.1,202.6 		"/>
		<polygon class="st14" points="608.1,182.9 608.1,172.9 577.8,172.9 585,182.9 		"/>
		<path class="st16" d="M631.2,219.9v-43.7c-1.6-4.3-3.5-8.6-4.4-10.5c2.6,0-2.7-12.3-6.2-15.5c-0.2-3.5-0.8-17.9-4.3-17.8
			c-3.8,0.2-5.6,14.6-5.6,14.6c-2.9,4.1-5.3,9.6-5,11.4c0.3,1.8,3.5-0.2,3.5-0.2c-5,4.6-6.8,14.6-6.4,15.8c0.5,1.2,2.4,0,2.4,0
			s-2,6.1-0.9,9.3c-3,3.6-5.8,14-1.1,14.6c-4.3,6.5-6.1,14.3-0.5,12.6c-2.3,2.4-3.5,6.7-4,9.4L631.2,219.9L631.2,219.9z"/>
		<path class="st2" d="M559.5,191v28.9h71.7v-7.6C606,195,569.7,191.6,559.5,191z"/>
	</g>
	<g>
		<rect x="316.1" y="148.2" class="st4" width="193.6" height="8.1"/>
		<g>
			<polygon class="st4" points="327.8,180.7 324.7,180.7 321.7,156.3 327.8,156.3 			"/>
			<polygon class="st4" points="498.1,180.7 501.2,180.7 504.2,156.3 498.1,156.3 			"/>
		</g>
	</g>
	<g>
		<g>
			<polygon class="st2" points="329.5,148.2 381.8,148.2 387.2,112 335,112 			"/>
		</g>
		<g>
			<polygon class="st4" points="392.7,148.2 340.5,148.2 335.1,112 387.3,112 			"/>
			<polygon class="st10" points="388.4,144.3 343.7,144.3 339.4,115.9 384.1,115.9 			"/>
			<polygon class="st2" points="386.5,131.8 368.8,120.3 343,139.8 343.7,144.3 388.4,144.3 			"/>
			<polygon class="st16" points="342,133.4 348.2,129 384,144.3 343.7,144.3 			"/>
		</g>
		<line class="st19" x1="392.7" y1="148.2" x2="340.5" y2="148.2"/>
	</g>
	<g>
		<g>
			<polygon class="st2" points="402.2,148.2 472.2,148.2 479.5,99.7 409.5,99.7 			"/>
		</g>
		<g>
			<polygon class="st4" points="486.9,148.2 416.9,148.2 409.5,99.7 479.6,99.7 			"/>
			<polygon class="st10" points="481.1,143 421.1,143 415.3,104.8 475.4,104.8 			"/>
			<path class="st16" d="M421.1,143h60l-0.7-4.9c-22.5-3.3-52.5-27-64.3-28.6L421.1,143z"/>
			<path class="st2" d="M477.4,118.5c-7.4,4.6-33.1,19.6-57.1,19.4l0.8,5.1h60L477.4,118.5z"/>
			<line class="st19" x1="486.9" y1="148.2" x2="416.9" y2="148.2"/>
		</g>
	</g>
	<g>
		<g>
			<g>
				<path class="st4" d="M100.4,278.3c-6.4,0-11.7-5.2-11.7-11.7c0-6.4,5.2-11.7,11.7-11.7v2c-5.4,0-9.7,4.4-9.7,9.7
					c0,5.4,4.4,9.7,9.7,9.7V278.3z"/>
			</g>
			<g>
				<path class="st13" d="M100.4,276.3c-1.2,0-2.3-0.2-3.3-0.6v2.1c1,0.3,2.1,0.5,3.3,0.5V276.3z"/>
				<path class="st13" d="M97.1,257.4c1-0.4,2.1-0.6,3.3-0.6v-2c-1.1,0-2.2,0.2-3.3,0.5V257.4z"/>
			</g>
			<path class="st4" d="M115.5,282.1h-12.8c-1.6,0-3-1.3-3-3v-26.6h18.7v26.6C118.4,280.8,117.1,282.1,115.5,282.1z"/>
		</g>
		<line class="st20" x1="103.4" y1="282.1" x2="115.5" y2="282.1"/>
	</g>
	<g>
		<ellipse class="st4" cx="254.7" cy="124.6" rx="30" ry="30"/>
		<ellipse class="st16" cx="254.7" cy="124.6" rx="24.5" ry="24.5"/>
		<polyline class="st21" points="247.8,106.1 254.7,124.6 272.8,123 		"/>
	</g>
	<g>
		<path class="st22" d="M371,454.5c-4.5-1.1-19.9-2.7-19.9-2.7l-7.7-15.1c0,0-7.3-4.4-14.8-8.9c-9-5.4-19.1-10.6-33.5-6.9
			c-11.2,2.9-18.1,13.5-21.1,19.9s-8,9.8-6.8,18.4c1.1,8.7,11.9,13.9,20.7,13.8c8.8-0.1,17.7,6.2,20.5,10.1c2.7,4,7.4,6.8,9.9,3.4
			c2.6-3.4,0.9-8.7-4.5-13.5c-5.3-4.8-16.4-6.4-25.2-6.1c-8.8,0.4-16.7-2.8-16.8-9.8c-0.1-4.5,3-5.9,3-5.9s-1.6,8.8,8.1,8.8
			c9.8,0,66.5,0,66.5,0c0.1-0.4,0.1-0.8,0-1.2h25.1C374.6,458.8,376.3,455.8,371,454.5z"/>
		<path class="st23" d="M364.1,453.3c-3.8-0.5-8.1-1-10.6-1.3l-4,6.8h7.1C357.5,455.7,360.8,452.9,364.1,453.3z"/>
		<path class="st23" d="M336.7,432.7c0,0-18.1,18.7,5.9,22.2L336.7,432.7z"/>
		<g>
			<line class="st24" x1="347.9" y1="458.6" x2="347.9" y2="460.1"/>
			<line class="st24" x1="346.2" y1="458.6" x2="346.2" y2="460.1"/>
			<line class="st24" x1="344.6" y1="458.6" x2="344.6" y2="460.1"/>
		</g>
		<g>
			<line class="st24" x1="313" y1="458.6" x2="313" y2="460.1"/>
			<line class="st24" x1="311.4" y1="458.6" x2="311.4" y2="460.1"/>
			<line class="st24" x1="309.7" y1="458.6" x2="309.7" y2="460.1"/>
		</g>
		<g>
			<line class="st24" x1="372.9" y1="457.4" x2="372.9" y2="458.9"/>
			<line class="st24" x1="371.3" y1="457.4" x2="371.3" y2="458.9"/>
			<line class="st24" x1="369.6" y1="457.4" x2="369.6" y2="458.9"/>
		</g>
		<path class="st24" d="M300,455c0,0,6.8-5.1,6.8-11.2s-3.2-9.4-3.9-9.7"/>
		<path class="st24" d="M274.9,451.3c0,0,2.4-7.4,6.8-12.3"/>
		<path class="st25" d="M313.8,473c-1.5-1.3-3.4-2.4-5.6-3.3c-3.4,0.4-7.2,2-8.2,6.7c3.8,2.1,6.9,4.7,8.3,6.8c2.7,4,7.4,6.8,9.9,3.4
			C320.8,483.1,319.1,477.8,313.8,473z"/>
		<path class="st22" d="M360.9,434.6L360.9,434.6c-0.5-3.3-2.8-6.8-2.8-6.8s-2.7,2-3.2,5.8l-11.1-1.8c0.7-3.8-1.2-6.5-1.2-6.5
			s-3.3,2.6-4.7,5.6c0,0-13.9,23.5,7.5,26.9C366.7,461.3,360.9,434.6,360.9,434.6z"/>
		<g>
			<path class="st24" d="M340.1,441.3c0,0-0.3,2.9,2.1,3.3s3.4-2.1,3.4-2.1"/>
			<path class="st24" d="M356.3,443.9c0,0-0.6,2.9-3,2.5s-2.6-3.1-2.6-3.1"/>
		</g>
		<path class="st23" d="M346,444.3l3,0.5c0,0-0.7,1.6-1.8,1.4C346.2,446,346,444.3,346,444.3z"/>
		<g>
			<path class="st24" d="M342.4,446.4c0,0,2.5,1.9,4.9-0.2"/>
			<path class="st24" d="M351.8,447.9c0,0-2.9,1-4.5-1.7"/>
		</g>
		<g>
			<line class="st24" x1="338.5" y1="446.2" x2="333.7" y2="448.4"/>
			<line class="st24" x1="339.5" y1="447.9" x2="334.9" y2="451.7"/>
			<line class="st24" x1="340.4" y1="449.5" x2="337" y2="454.3"/>
		</g>
		<g>
			<line class="st24" x1="355.6" y1="449" x2="359.4" y2="452.6"/>
			<line class="st24" x1="354.1" y1="450.2" x2="357.3" y2="455.3"/>
			<line class="st24" x1="352.7" y1="451.5" x2="354.5" y2="457.1"/>
		</g>
		<path class="st25" d="M348.7,432.7l-4.8-0.8c0.7-3.8-1.2-6.5-1.2-6.5s-3.3,2.6-4.7,5.6c0,0-1.9,3.2-3.2,7.4
			C340.9,439.5,346.3,435.1,348.7,432.7z"/>
		<path class="st24" d="M327.6,455c0,0,8.4,0,14.1,0s7.9,2.7,7.8,5.1"/>
		<path class="st24" d="M293.4,455c0,0,8.4,0,14.1,0s7.9,2.7,7.8,5.1"/>
	</g>
	<g>
		<path class="st26" d="M406.9,252.3c0,0,12.6-9.3,21.4-15.1c8.9-5.9,18.1-7.9,25.8-3.5c7.7,4.4,14.1,17.4,16.8,30.8
			c2.7,13.4,15.7,70.5,15.7,70.5s5.4,3.2,8.2,4.7c2.8,1.5,7.7-0.2,9.1,2.3s-0.5,5.1-2.5,5c-3.2-0.3-15.5-0.6-23.4-0.8
			c-8-0.3-2.7-9.6-2.7-9.6s-29.5-47.2-35.7-62.8c-5.4,5.1-28,27.7-28,27.7L406.9,252.3z"/>
		<path class="st27" d="M471,264.6c-2.7-13.4-9.2-26.4-16.8-30.8c-7.7-4.4-17-2.4-25.8,3.5c-8.9,5.9-21.4,15.1-21.4,15.1l4.8,49.1
			c0,0,22.6-22.6,28-27.7c3.4,8.7,14.1,27.1,22.8,41.7c5.6-2.3,13.8-1.2,19.8,0.2C478.3,297.8,472.7,272.8,471,264.6z"/>
		<line class="st28" x1="439.7" y1="273.7" x2="446.9" y2="267.3"/>
		<path class="st28" d="M444.3,242.7c0,0,2.6,4.4,13.1,5"/>
		<path class="st28" d="M477.5,334c0,0-1.3,2.2,2.1,3.4"/>
		<path class="st28" d="M499.5,344.1c0,0,4-0.5,5,0.4"/>
		<path class="st28" d="M500.9,342.8c0,0,2.5-0.5,3.6,0.5"/>
		<path class="st28" d="M501.2,341.9c0,0,1.9-0.4,2.9,0.1"/>
		<path class="st28" d="M501,341.1c0,0,1.5-0.3,1.9-0.1"/>
		<path class="st14" d="M412.2,246.2l8.8,55.7c0,0-25.2,29.5-44.9,31.5c-19.7,1.9-39.8-5.6-39.8-5.6l8.5-32.6c0,0,14.2-11.6,24.6-16
			c10.6-4.5,15.2-17.2,20-19.2s6.6-1,9.9-6.2C402.6,248.4,408.2,245.5,412.2,246.2z"/>
		<path class="st29" d="M416.3,306.9c2.9-3,4.6-5.1,4.6-5.1l-8.8-55.7c-1.8-0.3-4,0.1-6.1,1.2L416.3,306.9z"/>
		<g>
			<path class="st26" d="M423,291c0,0,18.5-8.8,29.1-13.2c10.6-4.4,23.4-1.5,40.8,3.9c17.4,5.5,63,18.3,63,18.3l10.3-5.3
				c0,0,3.5-2.8,6.2-4.6c0.9-0.6,2.5-0.4,2.4,1.4c0.4,0.9,0.7,2.7,0.7,3.7c-0.1,1.7-3.5,5.1-3.5,5.1s-11.3,12.1-14.8,11.7
				s-4.2-5-4.2-5s-72,0.5-85.5-6c-6.2,6.9-32,29.9-32,29.9L423,291z"/>
			<path class="st28" d="M554.7,304.9c0,0,0.1,2.3,3.2,1.8"/>
			<path class="st28" d="M459.1,283.8c0,0,5.9,2.9,11.3-0.5"/>
			<path class="st27" d="M438.8,283.7c-8.2,3.7-15.8,7.3-15.8,7.3l12.5,40c0,0,3.5-3.1,8.2-7.4C433.7,313.8,436.4,294.2,438.8,283.7
				z"/>
			<path class="st28" d="M572.1,297.4c0,0,2.2-1.9,3.1-1.1"/>
			<path class="st28" d="M571.8,295.7c0,0,2.3-2,3.6-1.2"/>
			<path class="st28" d="M571.4,294.2c0,0,2.7-2.1,3.7-1.3"/>
			<path class="st28" d="M571.3,292.6c0,0,2.2-1.8,3.4-1.1"/>
		</g>
		<polygon class="st29" points="417,276.3 360.4,314.2 420.5,298.5 		"/>
		<g class="st30">
			<path d="M391.9,258.9c-0.7,0.2-1.5,0.5-2.5,0.9c-1.2,0.5-2.2,1.2-3,2l10,62.5c1.8-1.3,3.6-2.6,5.3-4L391.9,258.9z"/>
			<path d="M411.3,311.9l-9.8-61.1c-0.8,0.8-1.6,1.8-2.2,2.8c-1,1.6-1.9,2.6-2.7,3.3l9.5,59.8C408,315,409.7,313.4,411.3,311.9z"/>
		</g>
		<path class="st14" d="M327.4,356.7c0,0,19.9,9,34.2,10.3c22.2,2,41.2-5.6,44-7.5s9,0,15.3-3.7c6.2-3.8,7.1-8.5,13.7-8.1
			s6,2.7,10.2,0.4l-19.5-61.2L370,310.3l-31.3-0.1L327.4,356.7z"/>
		<path class="st29" d="M418.8,289.6l19.1,58.5c3.3,0.7,3.6,1.8,7-0.1l-19.5-61.2L418.8,289.6z"/>
		<g class="st30">
			<path d="M415.5,290.9l-5.5,2.3l15.5,58.8c1.7-1.6,3.1-3.1,5-3.8L415.5,290.9z"/>
			<path d="M413.8,358.1c1.8-0.2,3.7-0.7,5.6-1.6l-14.7-61l-5.5,2.3L413.8,358.1z"/>
		</g>
		<path class="st11" d="M336.3,326.6c0,0,23.3,4.6,26.3,13.9"/>
		<line class="st11" x1="366.1" y1="335" x2="369.5" y2="317.2"/>
		<line class="st11" x1="369.4" y1="331.2" x2="378.6" y2="312.1"/>
		<path class="st31" d="M370.2,278.7c-0.2,0.1-0.5,0.2-0.7,0.3c-10.5,4.5-24.6,16-24.6,16l-3.9,15.1h-2.1l-11.3,46.5
			c0,0,4.8,2.3,11.3,4.8c-2.4-15.4,1.8-40,18.2-53.3C370.6,297.1,370.9,284.4,370.2,278.7z"/>
		<path class="st11" d="M434.9,316.8c0,0-54.8,21.8-63.1,23.3c-8.7,1.6-23.2-0.7-37.4-8.4"/>
		<g>
			<path class="st26" d="M244.7,358.1l-5.4,27.6c0,0,44.8,24,50.6,25.5c4.7-0.4,14.9,1.8,18.5,4s7.5,8,6.9,8.7s-3.5-1.9-5.3-3.9
				c-1.4-1.5-2.6-2-2.6-2s5.8,6.8,5.2,8.6c-0.6,1.8-5.1-4.1-6.7-5.7c-0.8-0.9-3.2-1.9-3.2-1.9s2.1,1.5,2.9,3.2s2.3,5.7,1.5,6.4
				c-0.8,0.7-2.8-4.1-3.9-5.1s-3.7-2.3-3.7-2.3s1.9,1.4,3,3.2c1,1.8,1.8,4.9,0.9,5.1s-1.8-2.6-3.2-3.8c-1.3-1.2-1.7-2.3-4-2.9
				s-8.3-0.3-9.9-3c0,0-48.4-2.4-67.6-8.1s-21-22.7-20-31.4c1-8.7,4.3-23.7,4.3-23.7L244.7,358.1z"/>
			<path class="st28" d="M286.2,417.3c0,0,0.2,1.7,2.4,1.5"/>
			<line class="st28" x1="239.3" y1="385.7" x2="231.1" y2="381.5"/>
			<path class="st27" d="M220.7,371.5c6.1-1.4,14.1,0.7,20.4,4.8l3.6-18.3l-41.6-1.5c0,0-2.8,13-4,21.8
				C208.5,378.1,213.9,373.1,220.7,371.5z"/>
		</g>
		<path class="st16" d="M225,297.5c-3.2,2-9.6,4.1-14.8,14.1s-3.5,15-8.2,19.2c-4.6,4.2-5.4,8.3-5.1,14c0.3,5.7-0.3,8.7-3.1,12.3
			c-2.8,3.6-2.8,8.1-2.8,8.1l54,1.9l4.8-21.9c0,0,5,4.5,18.1,5c13.2,0.5,18.2,2.1,22.9,5c4.7,2.9,9.5,5.1,14.4,2.9
			c4.8-2.2,11.1,3.1,16.3,5.4c5.2,2.2,8.3-1.4,9.4-6.8c1.1-5.5,6-35,15.7-54.8l-30.1-18.3l10.6-35.3c0,0-2.7-1.6-12.8-0.5
			c-10.1,1.1-13,0.2-18.5-1.3c-5.4-1.6-11.6,2.8-17.2,3.3c-5.5,0.5-11.2,2-16.9,5.6c-5.6,3.6-17.8,26.7-17.8,26.7l-11.1,12.3
			L225,297.5z"/>
		<line class="st32" x1="244.5" y1="362.7" x2="193.1" y2="360.9"/>
		<path class="st29" d="M271.2,350.3c-5.2-3.3-10.5-9.1-14.1-13.4c-1.8-2.2-5.4-1.3-5.9,1.5l-1.4,6.8c0,0,5,4.5,18.1,5
			C269.1,350.2,270.2,350.3,271.2,350.3z"/>
		<path class="st29" d="M346.7,301.9l-30.1-18.3l-40.8,1.6l-0.3,7.1c0,0,1.2,4.9,8.7,3.9l54.6,26.7
			C340.9,315.6,343.5,308.3,346.7,301.9z"/>
		<g>
			<path class="st33" d="M278,297.8l-14.1,3.1c-0.9,0.2-1.9-0.4-2.1-1.3l-5.5-25.2c-0.2-0.9,0.4-1.9,1.3-2.1l14.1-3.1
				c0.9-0.2,1.9,0.4,2.1,1.3l5.5,25.2C279.5,296.7,278.9,297.6,278,297.8z"/>
		</g>
		<path class="st34" d="M285.4,330c0,0,33.9-5.1,49.8-21"/>
		<line class="st34" x1="334.2" y1="317.5" x2="309.6" y2="336.9"/>
		<path class="st34" d="M249.8,345.2c0,0,3.6-18.2,3.7-24.6"/>
		<line class="st34" x1="238.6" y1="329.9" x2="246.1" y2="339.7"/>
		<path class="st34" d="M258.6,327.3c0,0-2.1,9.1-7.2,13.8"/>
		<line class="st35" x1="320.9" y1="248.7" x2="309.9" y2="283.3"/>
		<path class="st34" d="M279.9,267.5c0,0,4,9.7,12.3,13.7"/>
		<line class="st34" x1="287.6" y1="271.2" x2="293.6" y2="281.3"/>
		<g>
			<path class="st10" d="M278.6,296.6l-14.1,3.1c-0.9,0.2-1.9-0.4-2.1-1.3l-5.5-25.2c-0.2-0.9,0.4-1.9,1.3-2.1l14.1-3.1
				c0.9-0.2,1.9,0.4,2.1,1.3l5.5,25.2C280.1,295.5,279.5,296.4,278.6,296.6z"/>
			<path class="st36" d="M261.7,273.5c0.1,0.6-0.3,1.3-0.9,1.4s-1.3-0.3-1.4-0.9s0.3-1.3,0.9-1.4
				C260.9,272.5,261.6,272.9,261.7,273.5z"/>
		</g>
		<path class="st37" d="M276.5,299.4c0,0,1.1,5.8,1.4,9.9c0.9,12.8-0.9,24.6-2,31.1c-1.2,7.2-3.2,27.7-14.6,27.3
			c-11.4-0.4-11.3-35.5-12.2-43c-1.2-9.8-4.7-14.9-4.7-14.9"/>
		<path class="st26" d="M318.9,275.6l6.5-21.5c0,0,19.5,1.7,33.1,10.1c13.6,8.4,14.2,28.3-1.1,35.9c-18.3,9.1-72.1-9.1-72.1-9.1
			s-4.3,2.4-8.3-1.4c0,0-6.3,3.1-6.7,2.3c-0.3-0.7,5.9-4.7,5.9-4.7s-3.6,0.7-4.9,1.4c-1.3,0.7-3.3,1.3-4,0.7c-0.7-0.7,3.8-4,8.7-4.3
			c0,0-4.5-1.3-6.2-1.1c-1.7,0.2-4.2,1.3-4.8,0.2c-0.3-0.6,2.9-2.9,6.1-2.6c3.3,0.3,5.3,0.7,5.3,0.7s-1.9-2.4-3.3-2.5
			c-1.5-0.1-5.2,1.3-5.9,0.9c-0.7-0.4,0.3-1.7,2.8-2.4c2.5-0.6,4.5-1.5,6.4-0.3c2,1.2,9,4,9,4L318.9,275.6z"/>
		<path class="st27" d="M318.9,275.6c0,0,9.8-1.4,16-2.6c0,0-0.5-11.5-1.5-17.7c-4.8-0.9-8.1-1.2-8.1-1.2L318.9,275.6z"/>
		<path class="st28" d="M318.9,275.6c0,0,14.8-2.7,22.9-3.7"/>
		<path class="st27" d="M365.5,283.8c-0.1,2.3-1,4.1-2.2,4s-1.9-1.9-1.9-4.2c0.1-2.3,1-4.1,2.2-4
			C364.8,279.7,365.6,281.6,365.5,283.8z"/>
		<path class="st22" d="M227.4,270.5c0,0-1.2-6.1-6.1-11c0,0,1.8-5.5-3.7-8s-8,2.7-8,2.7s-3.2-2-6.4,0.3c-3.2,2.2-2.2,8.6-2.2,8.6
			s-2.9,0.2-4.1,4.5c-1.2,4.2,2.3,8,2.3,8s-2.1,1.9-1.3,4.5c0.7,2.6,2.9,3.6,6.3,3.3l10.7,2.7l1-2.3l-4.1-4.9l9.9-13.4L227.4,270.5z
			"/>
		<g>
			<path class="st26" d="M217.9,286.7l10.7,8.7l-3.7,2.2c0,0,5.3-1.6,12.5-1.8c7.2-0.2,14.3,1.8,17.9-4c3.6-5.8-4.3-11.2-11.4-9.6
				c0,0-0.5,3.1-5,0.9s-9.6-4.9-9.6-4.9L217.9,286.7z"/>
			<path class="st27" d="M217.9,286.7l9.2,7.5c2-2,5.9-4.5,7.1-8.3c0.7-2.2,0.8-3.8,0.7-4.9c-3-1.5-5.5-2.9-5.5-2.9L217.9,286.7z"/>
			<line class="st28" x1="244" y1="287.6" x2="245.9" y2="283.1"/>
		</g>
		<path class="st26" d="M221.2,263.7c0,0,7.7,7,10.4,10.1s2.2,8.9-0.4,11.7c-2.6,2.8-8,5.5-14.9,1c0,0-0.4,1.6-2.1,1.2
			c-1.7-0.4-3.8-1.9-4.1-3.5c-0.2-1.1,1-2,2-1.7l2.1,0.6l-4.7-5c0,0,3.3-1.3,3.3-5.4c0,0,3.8-1.2,4.5-5
			C217.4,267.8,220.4,266.3,221.2,263.7z"/>
		<path class="st28" d="M214.8,284.4c0,0-2.8-1.3-3.5-0.7c-0.7,0.6,0.9,2.2,2.1,2.8"/>
		<path class="st25" d="M227.7,276.5l-6.4,6.9c0,0,4,2,6.8-0.4C229.8,281.4,229.3,277.6,227.7,276.5z"/>
		<polyline class="st28" points="220.8,275.7 223.5,277.7 222.3,279.2 		"/>
		<path class="st28" d="M228.6,284.6c0,0,0.5-1.9,1.8-2.1"/>
		<g>
			<path class="st33" d="M218.6,278.9c0.4,0.3,0.6,0.8,0.4,1.1c-0.2,0.3-0.7,0.2-1.1-0.2c-0.4-0.3-0.6-0.8-0.4-1.1
				S218.2,278.6,218.6,278.9z"/>
			<path class="st33" d="M222.7,273.6c0.4,0.3,0.6,0.8,0.4,1.1c-0.2,0.3-0.7,0.2-1.1-0.2c-0.4-0.3-0.6-0.8-0.4-1.1
				C221.8,273.2,222.3,273.2,222.7,273.6z"/>
		</g>
		<line class="st38" x1="214.6" y1="278.2" x2="216.7" y2="275.4"/>
		<line class="st38" x1="219.8" y1="271.7" x2="221.9" y2="269"/>
		<path class="st37" d="M213.8,285.1c0,0,4.4,2.9,7.2,8s15.6,20.8,22.7,17.3c7.1-3.5-3.6-37-15.4-40"/>
		
			<rect x="275.7" y="297.2" transform="matrix(0.9768 -0.2142 0.2142 0.9768 -57.5636 66.1296)" class="st39" width="1.3" height="3"/>
		<polyline class="st11" points="342.8,308.4 370,310.3 418.8,289.6 		"/>
		<line class="st11" x1="376.5" y1="282.1" x2="372" y2="301.3"/>
		<line class="st11" x1="376.6" y1="291.8" x2="386.4" y2="275.7"/>
	</g>
</g>
</svg>
