<?xml version="1.0" encoding="utf-8"?>
<!-- Generator: Adobe Illustrator 23.0.1, SVG Export Plug-In . SVG Version: 6.00 Build 0)  -->
<svg version="1.1" id="Layer_1" xmlns="http://www.w3.org/2000/svg" xmlns:xlink="http://www.w3.org/1999/xlink" x="0px" y="0px"
	 viewBox="0 0 500 373" style="enable-background:new 0 0 500 373;" xml:space="preserve">
<style type="text/css">
	.st0{opacity:0.3;}
	.st1{fill:#A7ABF9;}
	.st2{fill:#7CAAFF;}
	.st3{fill:#6D03E8;}
	.st4{fill:#8C8CF9;}
	.st5{fill:#FFAEA6;}
	.st6{fill:#241352;}
	.st7{fill:#FFFFFF;}
	.st8{opacity:0.41;fill:#FFFFFF;}
	.st9{opacity:0.41;fill:#E0DAE8;}
	.st10{fill:#D4D3F2;}
	.st11{fill:#FFBB7A;}
	.st12{opacity:0.3;fill:#A7ABF9;}
</style>
<g class="st0">
	<path class="st1" d="M184.4,348.2c-37.4-12.6-69.9-44-76.5-82.9s17.9-82.8,56.5-91.3c18.2-4,37.9-0.4,55.4-7.1
		c32.9-12.6,44-55.4,74.4-73.2c29.3-17.2,69.4-4.8,91.2,21.2c21.8,26,28.2,61.9,26.8,95.8c-2,49.8-23.1,103.5-68.3,124.6
		C305.7,353.1,225.2,358.1,184.4,348.2"/>
</g>
<g>
	<g>
		<path class="st2" d="M214.4,169.3c-3.4,3.3-4.7,8.3-1.4,12.2c3,3.7,8.9,4.5,12.7,1.5c9.2-7.1-0.4-20.1-10.3-17.4
			c-1.8,0.5-1.4,3.1,0.4,3.2c2.9,0.2,6,0.3,8.3,2.3c2.5,2.2,2.5,5.9,0.5,8.4c-5.4,6.6-14.8-3.1-9.1-9.1
			C216.2,169.7,215.1,168.5,214.4,169.3L214.4,169.3z"/>
	</g>
	<g>
		<path class="st2" d="M308.7,180.5c1.2,4.6,2.6,9.2,4,13.7c0.3,1.1,1.4,1.4,2.3,0.8c3.7-2.5,7.4-5,10.9-7.8
			c0.7-0.5,0.5-1.6-0.1-2.1c-4.1-2.8-9.7-7-14.9-7c-1.3,0-2.3,1.9-0.9,2.6c2.1,1.2,4.6,1.6,6.9,2.6c2.6,1.1,5.2,2.3,7.5,4
			c0.1-0.8,0.1-1.5,0.2-2.3c-3.9,2.4-7.6,5.1-11.3,7.8c0.7,0.1,1.5,0.3,2.2,0.4c-1.6-4.5-3.2-9-5-13.4
			C310.1,179,308.5,179.5,308.7,180.5L308.7,180.5z"/>
	</g>
	<g>
		<path class="st3" d="M334.7,204.9c5.5-2.6,11.1-5.7,16.1-9.2c1.8-1.3,0-3.9-1.9-2.9c-5.3,2.8-10.5,6.4-15.2,10
			C332.8,203.5,333.5,205.5,334.7,204.9L334.7,204.9z"/>
	</g>
	<g>
		<path class="st2" d="M132,221.7c-1.2-6-2.6-12.2-4.8-17.9c-0.8-2.1-3.7-1-3.2,1.1c1.3,5.8,3.5,11.7,5.8,17.3
			C130.2,223.2,132.2,223,132,221.7L132,221.7z"/>
	</g>
	<g>
		<path class="st3" d="M149.3,168.6c-0.1-0.1-0.2-0.2-0.3-0.3c-1.4-1.2-3.6-1.4-4.9,0c-1.3,1.5-1.3,3.5,0,4.9
			c0.1,0.1,0.2,0.2,0.3,0.3c1.2,1.4,3.7,1.3,5,0C150.5,172.3,150.7,169.9,149.3,168.6L149.3,168.6z"/>
	</g>
	<g>
		<g>
			<path class="st4" d="M296,323.1c0,0-57.9,13.5-81.1-9.8l8.3-55.5c2.5-16,1-46.7,13.2-57.6c2.4-2.1,4.6-3.2,4.6-3.2
				c8.6-4.1,23.8-6.4,38.5-6.4c17.8-0.1,36.1,13.4,40.8,30.5l-19.3,45L296,323.1z"/>
			<g>
				<path class="st5" d="M290.3,228.1c0,0,25.9,49.9,13,52.6c-42.3,8.7-66.9,15.9-66.9,15.9l-2.2,16.4c0.6,2.5,85.7,0.3,95.7-11.1
					c7.1-8.1,16.6-26.7-3.5-67.1l-6.1-13.7L290.3,228.1z"/>
			</g>
			<path class="st5" d="M241.6,202.4l-64.6,25l-2-33.9l-13.8-5.3c0,0-20,54.4,5,64.5c25.1,10.1,53.3-8.6,53.3-8.6L241.6,202.4z"/>
			<path class="st4" d="M249.6,194.1c-22.5,7.2-36,15.6-67.7,28.8l16.3,36.3l28.1-9L249.6,194.1z"/>
			<polyline class="st4" points="286.4,221.2 302.8,259.3 339.7,252.5 314.8,209.7 285.4,221.2 			"/>
			<g>
				<path class="st3" d="M267.1,247.2c7.9-0.4,15.6-0.1,23.5,0c0.7,0,0.6-1,0-1c-7.7-0.9-15.7-0.6-23.5,0.1
					C266.5,246.3,266.5,247.2,267.1,247.2L267.1,247.2z"/>
			</g>
			<g>
				<path class="st3" d="M302.3,203c-26.6,2.4-8.4,41.6-1.6,53.4c0.4,0.7,1.4,0.1,1-0.6c-6.8-12-24.9-48.4,0.7-52.2
					C302.8,203.6,302.7,203,302.3,203L302.3,203z"/>
			</g>
			<g>
				<path class="st3" d="M228.7,225.4c-3.3,13-5.5,26.6-6.3,40.1c0,0.6,0.9,0.7,1,0.1c1.9-13.4,3.8-26.7,6-40
					C229.4,225.2,228.8,225,228.7,225.4L228.7,225.4z"/>
			</g>
		</g>
		<g>
			<g>
				<path class="st3" d="M290.9,153c0.4-5.6,0.8-11.2,1.2-16.8c4.4-1.2,6.7-6.9,4.9-11.1c-1.8-4.2-6.8-6.6-11.3-6
					c2.9-1.9,2.6-6.6,0.3-9.1c-2.3-2.5-6-3.4-9.5-3.5c-3.5-0.1-7,0.3-10.4-0.3c-3-0.6-6-1.9-9-1.6c-3,0.4-6,3.8-4.3,6.4
					c-4.4-0.6-9.1-1.2-13,0.9c-3.9,2.1-5.9,8.1-2.5,11c-2.2,1.1-2.8,4.3-1.5,6.5c1.2,2.2,3.8,3.3,6.3,3.5c2.5,0.2,4.9-0.4,7.3-1.1"
					/>
			</g>
			<path class="st5" d="M290.2,142.1l-0.9,11.7c0,0,9.9,1.3,7.1,10.4c-2.8,9-9.6,5.1-9.6,5.1s-1.7,23.2-25.4,15.8
				c-18.9-5.8-17.7-30.3-15.3-51.2c0.9-8.1,8.6-13.6,16.6-12.1l14.3,2.8C285,126.2,290.8,133.8,290.2,142.1z"/>
			<path class="st5" d="M289.3,163.5l-6.4,34.1c-1.4,7.7-9,12.6-16.6,10.8h0c-7-1.7-11.6-8.6-10.3-15.7l3.5-19.6L289.3,163.5z"/>
			<g>
				<g>
					<g>
						<path class="st6" d="M263,163.9c0,0,0,0.1-0.1,0.2c-0.1,0.1-0.2,0.4-0.6,0.5c-0.7,0.3-1.7-0.4-2-1.5c-0.3-1.1-0.3-2.4-0.2-3.8
							c0.1-1.4,0.2-2.9,0.3-4.6c0.2-3.2,0.4-6.1,0.6-8.3c0.2-2.1,0.3-3.4,0.4-3.4c0.1,0,0.1,1.3,0,3.4c-0.1,2.1-0.2,5-0.4,8.3
							c-0.1,1.6-0.2,3.1-0.3,4.5c-0.1,1.4-0.2,2.6,0.1,3.6c0.2,1,1,1.5,1.5,1.4C262.9,164.2,263,163.8,263,163.9z"/>
					</g>
				</g>
			</g>
			<g>
				<g>
					<g>
						<path class="st6" d="M255.3,182.7c0.1-0.1,1.1,0.8,3.1,1.7c1.9,0.9,4.8,1.9,8.1,1.9c3.3,0.1,6.2-0.8,8.2-1.6
							c2-0.8,3.1-1.6,3.2-1.6c0,0-0.2,0.3-0.7,0.6c-0.5,0.4-1.3,0.8-2.3,1.3c-2,1-5,1.9-8.4,1.8c-3.4-0.1-6.4-1.1-8.3-2.1
							c-1-0.5-1.7-1-2.2-1.4C255.5,183,255.3,182.7,255.3,182.7z"/>
					</g>
				</g>
			</g>
			<g>
				<g>
					<g>
						<path class="st6" d="M259.9,168.6c0.1-0.1,0.5,0.5,1.5,1c1,0.5,2.6,0.9,4.2,0.4c1.6-0.5,2.7-1.8,3.2-2.8
							c0.5-1,0.6-1.7,0.7-1.7c0.1,0,0.1,0.8-0.3,1.9c-0.4,1.1-1.6,2.5-3.4,3.1c-1.8,0.6-3.6,0.1-4.6-0.6
							C260.3,169.4,259.9,168.7,259.9,168.6z"/>
					</g>
				</g>
			</g>
			<g>
				<g>
					<g>
						<path class="st6" d="M290,165.3c0-0.1,0.6-0.1,1.3-0.5c0.4-0.2,0.7-0.5,0.9-1c0.2-0.5,0-1.1-0.5-1.3c-0.4-0.1-0.8,0-0.9,0.2
							l-0.4-0.2c0.9-1.9,1.6-3.2,1.7-3.1c0.1,0-0.4,1.4-1.2,3.3l-0.4-0.2c0.3-0.5,1-0.7,1.6-0.4c0.4,0.1,0.7,0.5,0.8,0.9
							c0.1,0.4,0.1,0.7,0,1.1c-0.2,0.6-0.7,1-1.2,1.2C290.6,165.5,290,165.4,290,165.3z"/>
					</g>
				</g>
			</g>
			<g>
				<g>
					<g>
						<path class="st6" d="M271.7,142.3c-0.1-0.1,1.1-0.6,2.6-0.2c1.5,0.4,2.3,1.4,2.2,1.5c-0.1,0.1-1-0.6-2.3-1
							C272.9,142.2,271.8,142.5,271.7,142.3z"/>
					</g>
				</g>
			</g>
			<g>
				<g>
					<g>
						<path class="st6" d="M251.2,139.1c-0.1-0.1,1.1-0.8,2.8-0.6c1.6,0.1,2.7,1,2.6,1.1c-0.1,0.1-1.2-0.5-2.7-0.6
							C252.5,138.8,251.3,139.2,251.2,139.1z"/>
					</g>
				</g>
			</g>
			<g>
				<path class="st3" d="M289.3,153.8c-6.6-6.5-8.6-17.2-10.4-26.3c-6.1,4.5-14.6,5.6-21.7,2.8c-2.2,2.6-4.8,4.9-7.7,6.7
					c-0.8,0.5-1.8,1-2.7,0.8c-1.1-0.3-1.6-1.6-1.9-2.7c-0.8-3.6-0.9-7.5,0.4-11c1.3-3.5,3.9-6.6,7.4-7.9c3.7-1.4,7.9-0.8,11.7,0.2
					c5.8,1.5,11.4,3.8,16.6,6.8c5.1,3,9.9,6.9,12.1,12.4c2.2,5.5,2.1,16.1-3,18.9"/>
			</g>
			<g>
				<g>
					<g>
						<path class="st6" d="M273.5,151.8c-0.1,0-0.2-0.8-0.1-1.8c0.1-1,0.2-1.8,0.4-1.8c0.1,0,0.2,0.8,0.1,1.8
							C273.8,151,273.7,151.8,273.5,151.8z"/>
					</g>
				</g>
			</g>
			<g>
				<g>
					<g>
						<path class="st6" d="M254.5,149.4c-0.1,0-0.2-0.8-0.1-1.8c0.1-1,0.2-1.8,0.4-1.8c0.1,0,0.2,0.8,0.1,1.8
							C254.8,148.6,254.6,149.4,254.5,149.4z"/>
					</g>
				</g>
			</g>
		</g>
		<path class="st5" d="M160.5,189.3c0,0,2.9-17.6,6.3-17.4c3.4,0.2,10.3,0,10.3,0s0.6-16.7,2.5-14.1c1.9,2.7,2.5,25.2-4.8,36
			L160.5,189.3z"/>
		<path class="st5" d="M236.4,296.6c0,0-30.7,5.4-30.1,9.4c0.6,4,2.8,8,2.8,8l27.4-0.6V296.6z"/>
		<g>
			<polygon class="st7" points="269.8,315 269.5,310.7 206.3,306.8 185,250.1 115.6,253.9 139.3,315.3 			"/>
			<path class="st8" d="M153.9,280.9c0.2,2.8,2.6,5,5.4,4.9c2.8-0.2,5-2.6,4.9-5.4c-0.2-2.8-2.6-5-5.4-4.9
				C155.9,275.7,153.7,278.1,153.9,280.9z"/>
			<path class="st9" d="M151.8,281c0.2,4,3.6,7,7.6,6.8c4-0.2,7-3.6,6.8-7.6c-0.2-4-3.6-7-7.6-6.8
				C154.7,273.7,151.6,277.1,151.8,281z"/>
		</g>
	</g>
	<path class="st10" d="M105.3,316.2l271.6-3.4l15.9,8.4C392.8,321.2,184.3,378.4,105.3,316.2z"/>
	<path class="st3" d="M317.7,115.3c-0.8,1.6,1.9,42.8,1.9,42.8l20.3-1.7l-2.4,10.9l9.9-11.2l19.9-2.3l-1.2-40L317.7,115.3z"/>
	<g>
		<path class="st11" d="M266.2,51.1c0,0-14,0.7-14.5,15.6c0,0,0.2,8.2,4.7,11.2c4.4,3,4.2,6.3,4.2,6.3h11.7c0,0-0.5-4.2,1.4-6.5
			c1.9-2.3,6.5-7.2,5.8-14.5C278.8,56,273.4,50.4,266.2,51.1z"/>
		<g class="st0">
			<path class="st1" d="M260.3,87.9c4.2-0.2,8.4,0.3,12.6,0c0.6,0,0.8-1,0.1-1.1c-4-0.8-8.7-0.4-12.7,0.1
				C259.7,86.9,259.7,87.9,260.3,87.9L260.3,87.9z"/>
		</g>
		<g class="st0">
			<path class="st1" d="M262,91.5c1.7-0.1,3.3-0.2,5-0.1c1.7,0,3.4,0.3,5,0.2c0.6,0,0.8-0.9,0.1-1.1c-3.2-0.8-7.1-0.4-10.3,0.1
				C261.3,90.6,261.4,91.5,262,91.5L262,91.5z"/>
		</g>
		<g>
			<path class="st12" d="M263.3,94.2c1.5,0.1,3,0.5,4.4,0.5c0.7,0,0.9-1,0.2-1.2c-1.4-0.4-3.1-0.3-4.6-0.2
				C262.7,93.2,262.7,94.2,263.3,94.2L263.3,94.2z"/>
		</g>
	</g>
	<g>
		<g>
			<path class="st11" d="M222.7,78.6c6.2-2,12.5-3.8,18.7-6c0.2-0.1,0.1-0.4-0.1-0.4c-6.3,1.8-12.5,4-18.7,6
				C222.3,78.2,222.5,78.7,222.7,78.6L222.7,78.6z"/>
		</g>
	</g>
	<g>
		<g>
			<path class="st11" d="M230.5,60c3.9-0.1,7.9,0,11.9-0.3c0.3,0,0.3-0.5,0-0.5c-3.9-0.1-7.9,0.2-11.9,0.3
				C230.1,59.5,230.1,60,230.5,60L230.5,60z"/>
		</g>
	</g>
	<g>
		<g>
			<path class="st11" d="M249,53.7c-4.5-3.8-8.8-8.1-13.6-11.5c-0.3-0.2-0.7,0.3-0.4,0.6c4.2,4.1,9.1,7.6,13.7,11.3
				C248.9,54.3,249.3,54,249,53.7L249,53.7z"/>
		</g>
	</g>
	<g>
		<g>
			<path class="st11" d="M259,47.6c-0.3-1.2-1.1-2.2-1.7-3.2c-0.7-1.2-1.3-2.4-2.2-3.5c-0.3-0.3-0.8-0.1-0.6,0.3
				c0.6,1.2,1.4,2.4,2.2,3.5c0.6,1,1.2,2.1,2.1,3C258.9,47.8,259.1,47.7,259,47.6L259,47.6z"/>
		</g>
	</g>
	<g>
		<g>
			<path class="st11" d="M268.2,45.1c0-6,0.1-12.1-0.3-18.1c0-0.4-0.6-0.4-0.6,0c-0.1,6,0.1,12.1,0.4,18.1
				C267.6,45.5,268.2,45.5,268.2,45.1L268.2,45.1z"/>
		</g>
	</g>
	<g>
		<g>
			<path class="st11" d="M275.2,47.8c1.4-2.3,2.9-4.5,4.1-6.9c0.2-0.4-0.3-0.7-0.6-0.3c-1.4,2.2-2.7,4.6-4,6.9
				C274.6,47.9,275,48.1,275.2,47.8L275.2,47.8z"/>
		</g>
	</g>
	<g>
		<g>
			<path class="st11" d="M280.8,52.6c5.5-2.7,11.4-5.7,16.5-9.2c0.3-0.2,0-0.7-0.3-0.5c-5.6,2.5-11.3,6-16.5,9.3
				C280.3,52.4,280.5,52.8,280.8,52.6L280.8,52.6z"/>
		</g>
	</g>
	<g>
		<g>
			<path class="st11" d="M284.8,60.4c2.3,0.4,5.2,0,7.2-1.4c0.3-0.2,0.1-0.8-0.3-0.6c-1.1,0.4-2.1,0.8-3.2,1.1
				c-1.2,0.3-2.5,0.3-3.7,0.4C284.6,59.9,284.5,60.3,284.8,60.4L284.8,60.4z"/>
		</g>
	</g>
	<g>
		<g>
			<path class="st11" d="M285.7,71.1c8.4,1.9,16.9,4,25.3,5.4c0.5,0.1,0.8-0.7,0.2-0.8c-8.4-2.1-16.9-3.6-25.4-5.3
				C285.5,70.4,285.3,71,285.7,71.1L285.7,71.1z"/>
		</g>
	</g>
	<g>
		<path class="st3" d="M167,217.6c0.3-1.8,0.2-3.6,1.3-5.2c2.1-3.2,5-2.4,7.8-1c2.9,1.5,5.6,2.3,8.7,1c4.9-2.1,7.2-9.5,2.5-13
			c-1.5-1.1-3,0.7-2.8,2.2c0.3,2,1.3,4.2-0.4,5.9c-2.3,2.3-4.9,0.4-7.2-0.7c-2.5-1.1-5.1-1.4-7.6-0.3c-4.4,1.8-7.5,7.7-4.1,11.7
			C165.8,218.6,166.9,218.3,167,217.6L167,217.6z"/>
	</g>
	<g>
		<path class="st3" d="M231.4,221.1c5.9-1.6,12-3.6,17.5-6.2c2-1,0.7-3.8-1.4-3.1c-5.7,1.8-11.4,4.4-16.8,7.1
			C229.8,219.5,230.1,221.5,231.4,221.1L231.4,221.1z"/>
	</g>
	<g>
		<path class="st2" d="M202.2,227.3c1.2,4.6,2.6,9.2,4,13.7c0.3,1.1,1.4,1.4,2.3,0.8c3.7-2.5,7.4-5,10.9-7.8
			c0.7-0.5,0.5-1.6-0.1-2.1c-4.1-2.8-9.7-7-14.9-7c-1.3,0-2.3,1.9-0.9,2.6c2.1,1.2,4.6,1.6,6.9,2.6c2.6,1.1,5.2,2.3,7.5,4
			c0.1-0.8,0.1-1.5,0.2-2.3c-3.9,2.4-7.6,5.1-11.3,7.8c0.7,0.1,1.5,0.3,2.2,0.4c-1.6-4.5-3.2-9-5-13.4
			C203.5,225.8,202,226.3,202.2,227.3L202.2,227.3z"/>
	</g>
	<g>
		<path class="st3" d="M210.3,273.4c6.1,0.5,12.5,0.6,18.6,0c2.2-0.2,2-3.3-0.2-3.3c-6-0.2-12.3,0.3-18.2,1.1
			C209.3,271.3,208.9,273.3,210.3,273.4L210.3,273.4z"/>
	</g>
	<path class="st7" d="M328.9,133.8l4.3,14.8l6-1.2l-0.6-3l1.7-1l3.2,3.2l10.1-2l1.3-3.9l-2.9-0.6l3.7-1.2l-0.8-4.1l-3.2,0.3l4.4-1.2
		l-1-5.1l-10.3,2c0,0,0.7-7.2-2.4-9.5l-2.3,0.5c0,0,0.8,2.3,0.7,3.7c-0.1,1.4-2.1,7.8-2.1,7.8l-3.2,1.5l-0.8-2.1L328.9,133.8z"/>
	<g>
		<polygon class="st3" points="119.6,106 123,147.1 198.7,147.1 202.9,161.6 207.3,145.7 221.7,144.9 215.1,108 		"/>
		<g>
			<g>
				<g>
					<path class="st7" d="M129.5,120.9c26-1.3,52.1-1.1,78.1,1.3c0.4,0,0.4-0.6,0-0.7c-26-2.1-52.1-2.7-78.1-1.2
						C129.1,120.3,129.1,120.9,129.5,120.9L129.5,120.9z"/>
				</g>
			</g>
			<g>
				<g>
					<path class="st7" d="M131,129c26-1.3,52.1-1.1,78.1,1.3c0.4,0,0.4-0.6,0-0.7c-26-2.1-52.1-2.7-78.1-1.2
						C130.7,128.4,130.6,129,131,129L131,129z"/>
				</g>
			</g>
			<g>
				<g>
					<path class="st7" d="M131.2,135.8c17.5,0.6,34.8-0.7,52.3,0.8c0.4,0,0.4-0.6,0-0.7c-17.5-1.3-34.8-0.4-52.3-0.7
						C130.8,135.2,130.8,135.7,131.2,135.8L131.2,135.8z"/>
				</g>
			</g>
		</g>
	</g>
</g>
</svg>
