<?xml version="1.0" encoding="utf-8"?>
<!-- Generator: Adobe Illustrator 23.0.1, SVG Export Plug-In . SVG Version: 6.00 Build 0)  -->
<svg version="1.1" id="Layer_1" xmlns="http://www.w3.org/2000/svg" xmlns:xlink="http://www.w3.org/1999/xlink" x="0px" y="0px"
	 viewBox="0 0 500 416" style="enable-background:new 0 0 500 416;" xml:space="preserve">
<style type="text/css">
	.st0{fill:#FFFFFF;}
	.st1{fill:#EAEBEE;}
	.st2{fill:#BBC3CB;}
	.st3{fill:#F0F0F2;}
	.st4{fill:#72839C;}
	.st5{fill:#EDEDEF;}
	.st6{fill:#BDC8D5;}
	.st7{opacity:0.8;}
</style>
<g>
	<g>
		<g>
			<path class="st0" d="M460,340.7H40c-1.5,0-2.8-1.2-2.8-2.8V78.1c0-1.5,1.2-2.8,2.8-2.8h420c1.5,0,2.8,1.2,2.8,2.8v259.8
				C462.8,339.4,461.6,340.7,460,340.7z"/>
		</g>
		<g>
			<path class="st1" d="M460,341.4H40c-2,0-3.6-1.6-3.6-3.6V78.1c0-2,1.6-3.6,3.6-3.6h420c2,0,3.6,1.6,3.6,3.6v259.8
				C463.6,339.8,462,341.4,460,341.4z M40,76.1c-1.1,0-2,0.9-2,2v259.8c0,1.1,0.9,2,2,2h420c1.1,0,2-0.9,2-2V78.1c0-1.1-0.9-2-2-2
				H40z"/>
		</g>
	</g>
	<g>
		<g>
			<path class="st0" d="M182.9,80.8h80.5c1,0,1.9,0.6,2.3,1.5l5.5,11.5h-96.6l5.4-11.3C180.6,81.4,181.7,80.8,182.9,80.8z"/>
			<path class="st1" d="M271.9,94.2h-97.8l5.7-11.9c0.6-1.2,1.8-2,3.1-2h80.5c1.1,0,2.2,0.7,2.7,1.7L271.9,94.2z M175.3,93.4h95.4
				l-5.3-11c-0.4-0.8-1.1-1.3-2-1.3h-80.5c-1,0-2,0.6-2.4,1.5L175.3,93.4z"/>
		</g>
		<g>
			<circle class="st2" cx="261.3" cy="87.3" r="2.3"/>
		</g>
	</g>
	<g>
		<path class="st0" d="M81.9,80.8h88.3c1,0,1.9,0.6,2.3,1.5l5.5,11.5H73.8l5.4-11.3C79.7,81.4,80.8,80.8,81.9,80.8z"/>
		<path class="st2" d="M178.8,94.2H73.1l5.7-11.9c0.6-1.2,1.8-2,3.1-2h88.3c1.1,0,2.2,0.7,2.7,1.7L178.8,94.2z M74.4,93.4h103.2
			l-5.3-11c-0.4-0.8-1.1-1.3-2-1.3H81.9c-1,0-2,0.6-2.4,1.5L74.4,93.4z"/>
	</g>
	<g>
		<path class="st1" d="M463.2,112.3H36.8V93.4h426.4L463.2,112.3L463.2,112.3z M37.6,111.5h424.8V94.2H37.6V111.5z"/>
	</g>
	<g>
		<circle class="st2" cx="44.6" cy="83.1" r="2.3"/>
	</g>
	<g>
		<circle class="st2" cx="54" cy="83.1" r="2.3"/>
	</g>
	<g>
		<circle class="st2" cx="63.4" cy="83.1" r="2.3"/>
	</g>
	<g>
		<circle class="st2" cx="44.6" cy="102.8" r="2.3"/>
	</g>
	<g>
		<circle class="st2" cx="56.4" cy="102.8" r="2.3"/>
	</g>
	<g>
		<path class="st2" d="M71.4,105.6c-1.5,0-2.7-1.2-2.7-2.7s1.2-2.7,2.7-2.7s2.7,1.2,2.7,2.7S72.9,105.6,71.4,105.6z M71.4,100.9
			c-1.1,0-2,0.9-2,2s0.9,2,2,2s2-0.9,2-2S72.5,100.9,71.4,100.9z"/>
	</g>
	<g>
		<path class="st2" d="M440.6,108.1H82c-0.8,0-1.5-0.7-1.5-1.5v-7.4c0-0.8,0.7-1.5,1.5-1.5h358.5c0.9,0,1.5,0.7,1.5,1.5v7.4
			C442.1,107.4,441.4,108.1,440.6,108.1z M82,98.4c-0.4,0-0.8,0.3-0.8,0.8v7.4c0,0.4,0.3,0.8,0.8,0.8h358.5c0.4,0,0.8-0.3,0.8-0.8
			v-7.4c0-0.4-0.3-0.8-0.8-0.8H82z"/>
	</g>
	<g>
		<rect x="448.8" y="99.6" class="st2" width="6.3" height="1.6"/>
	</g>
	<g>
		<rect x="448.8" y="102.6" class="st2" width="5.6" height="1.6"/>
	</g>
	<g>
		<rect x="448.8" y="105.7" class="st2" width="4.5" height="1.6"/>
	</g>
</g>
<g>
	<g>
		<g>
			<rect x="125.6" y="290.5" class="st3" width="26.9" height="26.9"/>
		</g>
		<g>
			<g>
				<path class="st4" d="M141.5,304.5c-0.2-0.2-0.4-0.2-0.6,0l-1,1l-1.8-1.8c-0.2-0.2-0.4-0.2-0.6,0l-2.9,2.9
					c-0.2,0.2-0.2,0.4,0,0.6c0.1,0.1,0.2,0.1,0.3,0.1h8.4c0.2,0,0.4-0.2,0.4-0.4c0-0.1,0-0.2-0.1-0.3L141.5,304.5z"/>
			</g>
			<g>
				<circle class="st4" cx="140.3" cy="301.8" r="1.3"/>
			</g>
		</g>
	</g>
	<g>
		<g>
			<g>
				<rect x="157.7" y="290.5" class="st3" width="26.9" height="26.9"/>
			</g>
			<g>
				<g>
					<path class="st4" d="M173.5,304.5c-0.2-0.2-0.4-0.2-0.6,0l-1,1l-1.8-1.8c-0.2-0.2-0.4-0.2-0.6,0l-2.9,2.9
						c-0.2,0.2-0.2,0.4,0,0.6c0.1,0.1,0.2,0.1,0.3,0.1h8.4c0.2,0,0.4-0.2,0.4-0.4c0-0.1,0-0.2-0.1-0.3L173.5,304.5z"/>
				</g>
				<g>
					<circle class="st4" cx="172.4" cy="301.8" r="1.3"/>
				</g>
			</g>
		</g>
		<g>
			<g>
				<rect x="189.7" y="290.5" class="st3" width="26.9" height="26.9"/>
			</g>
			<g>
				<g>
					<path class="st4" d="M205.6,304.5c-0.2-0.2-0.4-0.2-0.6,0l-1,1l-1.8-1.8c-0.2-0.2-0.4-0.2-0.6,0l-2.9,2.9
						c-0.2,0.2-0.2,0.4,0,0.6c0.1,0.1,0.2,0.1,0.3,0.1h8.4c0.2,0,0.4-0.2,0.4-0.4c0-0.1,0-0.2-0.1-0.3L205.6,304.5z"/>
				</g>
				<g>
					<circle class="st4" cx="204.4" cy="301.8" r="1.3"/>
				</g>
			</g>
		</g>
		<g>
			<g>
				<rect x="221.8" y="290.5" class="st3" width="26.9" height="26.9"/>
			</g>
			<g>
				<g>
					<path class="st4" d="M237.6,304.5c-0.2-0.2-0.4-0.2-0.6,0l-1,1l-1.8-1.8c-0.2-0.2-0.4-0.2-0.6,0l-2.9,2.9
						c-0.2,0.2-0.2,0.4,0,0.6c0.1,0.1,0.2,0.1,0.3,0.1h8.4c0.2,0,0.4-0.2,0.4-0.4c0-0.1,0-0.2-0.1-0.3L237.6,304.5z"/>
				</g>
				<g>
					<circle class="st4" cx="236.5" cy="301.8" r="1.3"/>
				</g>
			</g>
		</g>
		<g>
			<g>
				<rect x="125.1" y="160.7" class="st3" width="123.5" height="123.5"/>
			</g>
			<g>
				<g>
					<path class="st4" d="M197.9,224.9c-0.8-0.8-2-0.8-2.7,0l-4.5,4.5l-8.3-8.3c-0.8-0.8-2-0.8-2.7,0l-13.5,13.5
						c-0.7,0.8-0.7,2,0,2.7c0.4,0.3,0.8,0.5,1.3,0.6h38.7c1.1,0,1.9-0.9,1.9-1.9c0-0.5-0.2-1-0.6-1.4L197.9,224.9z"/>
				</g>
				<g>
					<circle class="st4" cx="192.7" cy="212.7" r="5.8"/>
				</g>
			</g>
		</g>
		<g>
			<g>
				<rect x="279.8" y="176.1" class="st5" width="89.5" height="3.7"/>
			</g>
			<g>
				<rect x="279.8" y="163.7" class="st4" width="68.4" height="6.1"/>
			</g>
			<g>
				<rect x="279.8" y="183.9" class="st5" width="81.7" height="3.7"/>
			</g>
			<g>
				<rect x="279.8" y="191.6" class="st5" width="87.3" height="3.7"/>
			</g>
			<g>
				<rect x="279.8" y="199.3" class="st5" width="95.1" height="3.7"/>
			</g>
			<g>
				<rect x="279.8" y="207" class="st5" width="82.7" height="3.7"/>
			</g>
			<g>
				<rect x="279.8" y="214.7" class="st5" width="90" height="3.7"/>
			</g>
			<g>
				<rect x="279.8" y="222.5" class="st5" width="84.9" height="3.7"/>
			</g>
			<g>
				<rect x="279.8" y="230.2" class="st5" width="53.4" height="3.7"/>
			</g>
		</g>
		<g>
			<path class="st6" d="M344.3,274.2h-60.1c-2.4,0-4.3-1.9-4.3-4.3v-8.2c0-2.4,1.9-4.3,4.3-4.3h60.1c2.4,0,4.3,1.9,4.3,4.3v8.2
				C348.6,272.2,346.7,274.2,344.3,274.2z"/>
		</g>
	</g>
</g>
<g>
	<rect x="38" y="136.6" class="st1" width="424.4" height="1"/>
</g>
<g>
	<path class="st6" d="M445.6,133.4H314.2c-1.9,0-3.4-1.5-3.4-3.4v-11.4c0-1.9,1.5-3.4,3.4-3.4h131.4c1.9,0,3.4,1.5,3.4,3.4V130
		C448.9,131.9,447.4,133.4,445.6,133.4z M314.2,116.3c-1.3,0-2.4,1.1-2.4,2.4v11.4c0,1.3,1.1,2.4,2.4,2.4h131.4
		c1.3,0,2.4-1.1,2.4-2.4v-11.4c0-1.3-1.1-2.4-2.4-2.4H314.2z"/>
</g>
<g class="st7">
	<circle class="st6" cx="58.2" cy="124" r="8.4"/>
</g>
</svg>
