<?xml version="1.0" encoding="utf-8"?>
<!-- Generator: Adobe Illustrator 23.0.1, SVG Export Plug-In . SVG Version: 6.00 Build 0)  -->
<svg version="1.1" id="Layer_1" xmlns="http://www.w3.org/2000/svg" xmlns:xlink="http://www.w3.org/1999/xlink" x="0px" y="0px"
	 viewBox="0 0 500 416" style="enable-background:new 0 0 500 416;" xml:space="preserve">
<style type="text/css">
	.st0{fill:#FFFFFF;}
	.st1{fill:#EAEBEE;}
	.st2{fill:#BBC3CB;}
	.st3{fill:#BDC8D5;}
	.st4{opacity:0.8;}
	.st5{fill:#F0F0F2;}
	.st6{fill:#72839C;}
</style>
<g>
	<g>
		<g>
			<path class="st0" d="M460,340.7H40c-1.5,0-2.8-1.2-2.8-2.8V78.1c0-1.5,1.2-2.8,2.8-2.8H460c1.5,0,2.8,1.2,2.8,2.8v259.8
				C462.8,339.4,461.6,340.7,460,340.7z"/>
		</g>
		<g>
			<path class="st1" d="M460,341.4H40c-2,0-3.6-1.6-3.6-3.6V78.1c0-2,1.6-3.6,3.6-3.6H460c2,0,3.6,1.6,3.6,3.6v259.8
				C463.6,339.8,462,341.4,460,341.4z M40,76.1c-1.1,0-2,0.9-2,2v259.8c0,1.1,0.9,2,2,2H460c1.1,0,2-0.9,2-2V78.1c0-1.1-0.9-2-2-2
				H40z"/>
		</g>
	</g>
	<g>
		<g>
			<path class="st0" d="M182.9,80.8h80.5c1,0,1.9,0.6,2.3,1.5l5.5,11.5h-96.6l5.4-11.3C180.6,81.4,181.7,80.8,182.9,80.8z"/>
			<path class="st1" d="M271.9,94.2h-97.8l5.7-11.9c0.6-1.2,1.8-2,3.1-2h80.5c1.1,0,2.2,0.7,2.7,1.7L271.9,94.2z M175.3,93.4h95.4
				l-5.3-11c-0.4-0.8-1.1-1.3-2-1.3h-80.5c-1,0-2,0.6-2.4,1.5L175.3,93.4z"/>
		</g>
		<g>
			<circle class="st2" cx="261.3" cy="87.3" r="2.3"/>
		</g>
	</g>
	<g>
		<path class="st0" d="M81.9,80.8h88.3c1,0,1.9,0.6,2.3,1.5l5.5,11.5H73.8l5.4-11.3C79.7,81.4,80.8,80.8,81.9,80.8z"/>
		<path class="st2" d="M178.8,94.2H73.1l5.7-11.9c0.6-1.2,1.8-2,3.1-2h88.3c1.1,0,2.2,0.7,2.7,1.7L178.8,94.2z M74.4,93.4h103.2
			l-5.3-11c-0.4-0.8-1.1-1.3-2-1.3H81.9c-1,0-2,0.6-2.4,1.5L74.4,93.4z"/>
	</g>
	<g>
		<path class="st1" d="M463.2,112.3H36.8V93.4h426.4V112.3z M37.6,111.5h424.8V94.2H37.6V111.5z"/>
	</g>
	<g>
		<circle class="st2" cx="44.6" cy="83.1" r="2.3"/>
	</g>
	<g>
		<circle class="st2" cx="54" cy="83.1" r="2.3"/>
	</g>
	<g>
		<circle class="st2" cx="63.4" cy="83.1" r="2.3"/>
	</g>
	<g>
		<circle class="st2" cx="44.6" cy="102.8" r="2.3"/>
	</g>
	<g>
		<circle class="st2" cx="56.4" cy="102.8" r="2.3"/>
	</g>
	<g>
		<path class="st2" d="M71.4,105.6c-1.5,0-2.7-1.2-2.7-2.7s1.2-2.7,2.7-2.7s2.7,1.2,2.7,2.7S72.9,105.6,71.4,105.6z M71.4,100.9
			c-1.1,0-2,0.9-2,2c0,1.1,0.9,2,2,2c1.1,0,2-0.9,2-2C73.4,101.8,72.5,100.9,71.4,100.9z"/>
	</g>
	<g>
		<path class="st2" d="M440.6,108.1H82c-0.8,0-1.5-0.7-1.5-1.5v-7.4c0-0.8,0.7-1.5,1.5-1.5h358.5c0.9,0,1.5,0.7,1.5,1.5v7.4
			C442.1,107.4,441.4,108.1,440.6,108.1z M82,98.4c-0.4,0-0.8,0.3-0.8,0.8v7.4c0,0.4,0.3,0.8,0.8,0.8h358.5c0.4,0,0.8-0.3,0.8-0.8
			v-7.4c0-0.4-0.3-0.8-0.8-0.8H82z"/>
	</g>
	<g>
		<rect x="448.8" y="99.6" class="st2" width="6.3" height="1.6"/>
	</g>
	<g>
		<rect x="448.8" y="102.6" class="st2" width="5.6" height="1.6"/>
	</g>
	<g>
		<rect x="448.8" y="105.7" class="st2" width="4.5" height="1.6"/>
	</g>
</g>
<g>
	<rect x="38" y="136.6" class="st1" width="424.4" height="1"/>
</g>
<g>
	<path class="st3" d="M445.6,133.4H314.2c-1.9,0-3.4-1.5-3.4-3.4v-11.4c0-1.9,1.5-3.4,3.4-3.4h131.4c1.9,0,3.4,1.5,3.4,3.4v11.4
		C448.9,131.9,447.4,133.4,445.6,133.4z M314.2,116.3c-1.3,0-2.4,1.1-2.4,2.4v11.4c0,1.3,1.1,2.4,2.4,2.4h131.4
		c1.3,0,2.4-1.1,2.4-2.4v-11.4c0-1.3-1.1-2.4-2.4-2.4H314.2z"/>
</g>
<g class="st4">
	<circle class="st3" cx="58.2" cy="124" r="8.4"/>
</g>
<g>
	<g>
		<rect x="79.6" y="153" class="st5" width="341.9" height="156.4"/>
	</g>
	<g>
		<circle class="st6" cx="234.7" cy="287.1" r="4.6"/>
	</g>
	<g>
		<circle class="st6" cx="251.3" cy="287.1" r="4.6"/>
	</g>
	<g>
		<circle class="st6" cx="268" cy="287.1" r="4.6"/>
	</g>
	<g>
		<g>
			<g>
				<g>
					<path class="st6" d="M113.7,229.5L113.7,229.5l-14.9,0l4.7-4.7c0.2-0.2,0.4-0.5,0.4-0.9s-0.1-0.6-0.4-0.9l-0.7-0.7
						c-0.2-0.2-0.5-0.4-0.9-0.4c-0.3,0-0.6,0.1-0.9,0.4l-8.1,8.1c-0.2,0.2-0.4,0.5-0.4,0.9c0,0.3,0.1,0.6,0.4,0.9l8.1,8.1
						c0.2,0.2,0.5,0.4,0.9,0.4c0.3,0,0.6-0.1,0.9-0.4l0.7-0.7c0.2-0.2,0.4-0.5,0.4-0.9c0-0.3-0.1-0.6-0.4-0.8l-4.8-4.7h15
						c0.7,0,1.2-0.6,1.2-1.3v-1C115,230.1,114.4,229.5,113.7,229.5z"/>
				</g>
			</g>
		</g>
		<g>
			<g>
				<g>
					<path class="st6" d="M387.4,233L387.4,233l14.9,0l-4.7,4.7c-0.2,0.2-0.4,0.5-0.4,0.9c0,0.3,0.1,0.6,0.4,0.9l0.7,0.7
						c0.2,0.2,0.5,0.4,0.9,0.4c0.3,0,0.6-0.1,0.9-0.4l8.1-8.1c0.2-0.2,0.4-0.5,0.4-0.9c0-0.3-0.1-0.6-0.4-0.9l-8.1-8.1
						c-0.2-0.2-0.5-0.4-0.9-0.4c-0.3,0-0.6,0.1-0.9,0.4l-0.7,0.7c-0.2,0.2-0.4,0.5-0.4,0.9c0,0.3,0.1,0.6,0.4,0.8l4.8,4.7h-15
						c-0.7,0-1.2,0.6-1.2,1.3v1C386.1,232.5,386.7,233,387.4,233z"/>
				</g>
			</g>
		</g>
	</g>
</g>
</svg>
