<svg id="Calque_1" data-name="Calque 1" xmlns="http://www.w3.org/2000/svg" viewBox="0 0 739.7 582.6"><defs><style>.cls-1{opacity:0.16;}.cls-2{opacity:0.27;}.cls-2,.cls-27{isolation:isolate;}.cls-3{fill:#0c87ad;}.cls-10,.cls-11,.cls-15,.cls-16,.cls-17,.cls-20,.cls-23,.cls-26,.cls-29,.cls-30,.cls-32,.cls-33,.cls-34,.cls-35,.cls-36,.cls-4,.cls-9{fill:none;}.cls-16,.cls-4{stroke:#039be5;}.cls-10,.cls-11,.cls-15,.cls-16,.cls-17,.cls-20,.cls-23,.cls-26,.cls-29,.cls-30,.cls-32,.cls-33,.cls-34,.cls-36,.cls-4,.cls-9{stroke-miterlimit:10;}.cls-5{fill:#ccf1ff;}.cls-6{fill:#039be5;}.cls-7{fill:#d6baad;}.cls-8{fill:#ff702b;}.cls-15,.cls-26,.cls-9{stroke:#963c3c;}.cls-9{stroke-width:0.57px;}.cls-10,.cls-17,.cls-20,.cls-35{stroke:#dcdcff;}.cls-10{stroke-width:0.51px;}.cls-11{stroke:#d6baad;}.cls-11,.cls-16,.cls-20{stroke-width:0.75px;}.cls-12{fill:#0993c9;}.cls-13{fill:#fff;}.cls-14{fill:#7777db;}.cls-15{stroke-width:0.6px;}.cls-17{stroke-width:0.5px;}.cls-18{fill:#50bfea;}.cls-19{fill:#dcdcff;}.cls-21{fill:#333d66;}.cls-22{fill:#13172b;}.cls-23{stroke:#13172b;}.cls-23,.cls-26,.cls-29,.cls-32,.cls-33{stroke-width:0.5px;}.cls-24{fill:#ff8685;}.cls-25{fill:#f66;}.cls-27,.cls-28{opacity:0.2;}.cls-29{stroke:#ad3400;}.cls-30,.cls-33{stroke:#0885b7;}.cls-31{fill:#262f57;}.cls-32,.cls-34,.cls-36{stroke:#262f57;}.cls-34,.cls-35{stroke-width:0.49px;}.cls-35{stroke-linecap:round;stroke-linejoin:round;}.cls-37{fill:#1fb86c;}</style></defs><title>drawing-7-azur</title><g class="cls-1"><path d="M182.2,118a1.8,1.8,0,1,0-1.8-1.8A1.73,1.73,0,0,0,182.2,118Z"/><path d="M182.2,135a1.8,1.8,0,1,0-1.8-1.8A1.79,1.79,0,0,0,182.2,135Z"/><path d="M182.2,151.9a1.8,1.8,0,1,0-1.8-1.8A1.79,1.79,0,0,0,182.2,151.9Z"/><path d="M182.2,168.9a1.8,1.8,0,1,0-1.8-1.8A1.79,1.79,0,0,0,182.2,168.9Z"/><path d="M182.2,185.8a1.8,1.8,0,1,0-1.8-1.8A1.79,1.79,0,0,0,182.2,185.8Z"/><path d="M173.9,126.3a1.8,1.8,0,1,0-1.8-1.8A1.79,1.79,0,0,0,173.9,126.3Z"/><path d="M173.9,143.2a1.8,1.8,0,1,0-1.8-1.8A1.79,1.79,0,0,0,173.9,143.2Z"/><path d="M173.9,160.2a1.8,1.8,0,1,0-1.8-1.8A1.79,1.79,0,0,0,173.9,160.2Z"/><path d="M173.9,177.1a1.8,1.8,0,1,0-1.8-1.8A1.79,1.79,0,0,0,173.9,177.1Z"/><path d="M164.9,118a1.8,1.8,0,1,0-1.8-1.8A1.73,1.73,0,0,0,164.9,118Z"/><path d="M164.9,135a1.8,1.8,0,1,0-1.8-1.8A1.79,1.79,0,0,0,164.9,135Z"/><path d="M164.9,151.9a1.8,1.8,0,1,0-1.8-1.8A1.79,1.79,0,0,0,164.9,151.9Z"/><path d="M164.9,168.9a1.8,1.8,0,1,0-1.8-1.8A1.79,1.79,0,0,0,164.9,168.9Z"/><path d="M164.9,185.8a1.8,1.8,0,1,0-1.8-1.8A1.79,1.79,0,0,0,164.9,185.8Z"/><circle cx="156.7" cy="124.5" r="1.8"/><circle cx="156.7" cy="141.5" r="1.8"/><circle cx="156.7" cy="158.4" r="1.8"/><path d="M156.7,177.1a1.8,1.8,0,1,0-1.8-1.8A1.79,1.79,0,0,0,156.7,177.1Z"/><circle cx="147.9" cy="116.3" r="1.8"/><circle cx="147.9" cy="133.2" r="1.8"/><circle cx="147.9" cy="150.2" r="1.8"/><path d="M147.9,168.9a1.8,1.8,0,1,0-1.8-1.8A1.79,1.79,0,0,0,147.9,168.9Z"/><path d="M147.9,185.8a1.8,1.8,0,1,0-1.8-1.8A1.79,1.79,0,0,0,147.9,185.8Z"/><path d="M139.6,126.3a1.8,1.8,0,1,0-1.8-1.8A1.79,1.79,0,0,0,139.6,126.3Z"/><path d="M139.6,143.2a1.8,1.8,0,1,0-1.8-1.8A1.79,1.79,0,0,0,139.6,143.2Z"/><path d="M139.6,160.2a1.8,1.8,0,1,0-1.8-1.8A1.79,1.79,0,0,0,139.6,160.2Z"/><path d="M139.6,177.1a1.8,1.8,0,1,0-1.8-1.8A1.79,1.79,0,0,0,139.6,177.1Z"/><path d="M130.6,118a1.8,1.8,0,1,0-1.8-1.8A1.79,1.79,0,0,0,130.6,118Z"/><path d="M130.6,135a1.8,1.8,0,1,0-1.8-1.8A1.79,1.79,0,0,0,130.6,135Z"/><path d="M130.6,151.9a1.8,1.8,0,1,0-1.8-1.8A1.79,1.79,0,0,0,130.6,151.9Z"/><path d="M130.6,168.9a1.8,1.8,0,1,0-1.8-1.8A1.79,1.79,0,0,0,130.6,168.9Z"/><path d="M130.6,185.8a1.8,1.8,0,1,0-1.8-1.8A1.79,1.79,0,0,0,130.6,185.8Z"/><path d="M244.4,118a1.8,1.8,0,1,0-1.8-1.8A1.68,1.68,0,0,0,244.4,118Z"/><path d="M244.4,135a1.8,1.8,0,1,0-1.8-1.8A1.73,1.73,0,0,0,244.4,135Z"/><path d="M244.4,151.9a1.8,1.8,0,1,0-1.8-1.8A1.73,1.73,0,0,0,244.4,151.9Z"/><path d="M244.4,168.9a1.8,1.8,0,1,0-1.8-1.8A1.79,1.79,0,0,0,244.4,168.9Z"/><path d="M244.4,185.8a1.8,1.8,0,1,0-1.8-1.8A1.73,1.73,0,0,0,244.4,185.8Z"/><path d="M236.1,126.3a1.8,1.8,0,1,0-1.8-1.8A1.79,1.79,0,0,0,236.1,126.3Z"/><path d="M236.1,143.2a1.8,1.8,0,1,0-1.8-1.8A1.79,1.79,0,0,0,236.1,143.2Z"/><path d="M236.1,160.2a1.8,1.8,0,1,0-1.8-1.8A1.79,1.79,0,0,0,236.1,160.2Z"/><path d="M236.1,177.1a1.8,1.8,0,1,0-1.8-1.8A1.79,1.79,0,0,0,236.1,177.1Z"/><path d="M227.1,118a1.8,1.8,0,1,0-1.8-1.8A1.79,1.79,0,0,0,227.1,118Z"/><path d="M227.1,135a1.8,1.8,0,1,0-1.8-1.8A1.79,1.79,0,0,0,227.1,135Z"/><path d="M227.1,151.9a1.8,1.8,0,1,0-1.8-1.8A1.79,1.79,0,0,0,227.1,151.9Z"/><path d="M227.1,168.9a1.8,1.8,0,1,0-1.8-1.8A1.79,1.79,0,0,0,227.1,168.9Z"/><path d="M227.1,185.8a1.8,1.8,0,1,0-1.8-1.8A1.79,1.79,0,0,0,227.1,185.8Z"/><circle cx="218.9" cy="124.5" r="1.8"/><circle cx="218.9" cy="141.5" r="1.8"/><circle cx="218.9" cy="158.4" r="1.8"/><path d="M218.9,177.1a1.8,1.8,0,1,0-1.8-1.8A1.73,1.73,0,0,0,218.9,177.1Z"/><circle cx="210" cy="116.3" r="1.8"/><circle cx="210" cy="133.2" r="1.8"/><circle cx="210" cy="150.2" r="1.8"/><path d="M210,168.9a1.8,1.8,0,1,0-1.8-1.8A1.79,1.79,0,0,0,210,168.9Z"/><path d="M210,185.8a1.8,1.8,0,1,0-1.8-1.8A1.79,1.79,0,0,0,210,185.8Z"/><path d="M201.7,126.3a1.8,1.8,0,1,0-1.8-1.8A1.79,1.79,0,0,0,201.7,126.3Z"/><path d="M201.7,143.2a1.8,1.8,0,1,0-1.8-1.8A1.79,1.79,0,0,0,201.7,143.2Z"/><path d="M201.7,160.2a1.8,1.8,0,1,0-1.8-1.8A1.79,1.79,0,0,0,201.7,160.2Z"/><path d="M201.7,177.1a1.8,1.8,0,1,0-1.8-1.8A1.79,1.79,0,0,0,201.7,177.1Z"/><path d="M192.7,118a1.8,1.8,0,1,0-1.8-1.8A1.73,1.73,0,0,0,192.7,118Z"/><path d="M192.7,135a1.8,1.8,0,1,0-1.8-1.8A1.79,1.79,0,0,0,192.7,135Z"/><path d="M192.7,151.9a1.8,1.8,0,1,0-1.8-1.8A1.79,1.79,0,0,0,192.7,151.9Z"/><path d="M192.7,168.9a1.8,1.8,0,1,0-1.8-1.8A1.79,1.79,0,0,0,192.7,168.9Z"/><path d="M192.7,185.8a1.8,1.8,0,1,0-1.8-1.8A1.79,1.79,0,0,0,192.7,185.8Z"/><path d="M182.2,40.1a1.8,1.8,0,1,0-1.8-1.8A1.79,1.79,0,0,0,182.2,40.1Z"/><path d="M182.2,57.1a1.8,1.8,0,1,0-1.8-1.8A1.79,1.79,0,0,0,182.2,57.1Z"/><path d="M182.2,74a1.8,1.8,0,1,0-1.8-1.8A1.79,1.79,0,0,0,182.2,74Z"/><path d="M182.2,90.9a1.8,1.8,0,1,0-1.8-1.8A1.79,1.79,0,0,0,182.2,90.9Z"/><path d="M182.2,107.9a1.8,1.8,0,1,0-1.8-1.8A1.79,1.79,0,0,0,182.2,107.9Z"/><path d="M173.9,48.4a1.8,1.8,0,1,0-1.8-1.8A1.79,1.79,0,0,0,173.9,48.4Z"/><path d="M173.9,65.3a1.8,1.8,0,1,0-1.8-1.8A1.79,1.79,0,0,0,173.9,65.3Z"/><path d="M173.9,82.2a1.8,1.8,0,1,0-1.8-1.8A1.79,1.79,0,0,0,173.9,82.2Z"/><path d="M173.9,99.2a1.8,1.8,0,1,0-1.8-1.8A1.79,1.79,0,0,0,173.9,99.2Z"/><path d="M164.9,40.1a1.8,1.8,0,1,0-1.8-1.8A1.79,1.79,0,0,0,164.9,40.1Z"/><path d="M164.9,57.1a1.8,1.8,0,1,0-1.8-1.8A1.79,1.79,0,0,0,164.9,57.1Z"/><path d="M164.9,74a1.8,1.8,0,1,0-1.8-1.8A1.79,1.79,0,0,0,164.9,74Z"/><path d="M164.9,90.9a1.8,1.8,0,1,0-1.8-1.8A1.79,1.79,0,0,0,164.9,90.9Z"/><path d="M164.9,107.9a1.8,1.8,0,1,0-1.8-1.8A1.79,1.79,0,0,0,164.9,107.9Z"/><circle cx="156.7" cy="46.6" r="1.8"/><circle cx="156.7" cy="63.5" r="1.8"/><circle cx="156.7" cy="80.5" r="1.8"/><path d="M156.7,99.2a1.8,1.8,0,1,0-1.8-1.8A1.79,1.79,0,0,0,156.7,99.2Z"/><circle cx="147.9" cy="38.3" r="1.8"/><circle cx="147.9" cy="55.3" r="1.8"/><circle cx="147.9" cy="72.2" r="1.8"/><path d="M147.9,90.9a1.8,1.8,0,1,0-1.8-1.8A1.79,1.79,0,0,0,147.9,90.9Z"/><path d="M147.9,107.9a1.8,1.8,0,1,0-1.8-1.8A1.79,1.79,0,0,0,147.9,107.9Z"/><path d="M139.6,48.4a1.8,1.8,0,1,0-1.8-1.8A1.79,1.79,0,0,0,139.6,48.4Z"/><path d="M139.6,65.3a1.8,1.8,0,1,0-1.8-1.8A1.86,1.86,0,0,0,139.6,65.3Z"/><path d="M139.6,82.2a1.8,1.8,0,1,0-1.8-1.8A1.79,1.79,0,0,0,139.6,82.2Z"/><path d="M139.6,99.2a1.8,1.8,0,1,0-1.8-1.8A1.79,1.79,0,0,0,139.6,99.2Z"/><path d="M130.6,40.1a1.8,1.8,0,1,0-1.8-1.8A1.86,1.86,0,0,0,130.6,40.1Z"/><path d="M130.6,57.1a1.8,1.8,0,1,0-1.8-1.8A1.86,1.86,0,0,0,130.6,57.1Z"/><path d="M130.6,74a1.8,1.8,0,1,0-1.8-1.8A1.79,1.79,0,0,0,130.6,74Z"/><path d="M130.6,90.9a1.8,1.8,0,1,0-1.8-1.8A1.79,1.79,0,0,0,130.6,90.9Z"/><path d="M130.6,107.9a1.8,1.8,0,1,0-1.8-1.8A1.79,1.79,0,0,0,130.6,107.9Z"/><path d="M244.4,40.1a1.8,1.8,0,1,0-1.8-1.8A1.73,1.73,0,0,0,244.4,40.1Z"/><path d="M244.4,57.1a1.8,1.8,0,1,0-1.8-1.8A1.73,1.73,0,0,0,244.4,57.1Z"/><path d="M244.4,74a1.8,1.8,0,1,0-1.8-1.8A1.73,1.73,0,0,0,244.4,74Z"/><path d="M244.4,90.9a1.8,1.8,0,1,0-1.8-1.8A1.79,1.79,0,0,0,244.4,90.9Z"/><path d="M244.4,107.9a1.8,1.8,0,1,0-1.8-1.8A1.73,1.73,0,0,0,244.4,107.9Z"/><path d="M236.1,48.4a1.8,1.8,0,1,0-1.8-1.8A1.79,1.79,0,0,0,236.1,48.4Z"/><path d="M236.1,65.3a1.8,1.8,0,1,0-1.8-1.8A1.86,1.86,0,0,0,236.1,65.3Z"/><path d="M236.1,82.2a1.8,1.8,0,1,0-1.8-1.8A1.79,1.79,0,0,0,236.1,82.2Z"/><path d="M236.1,99.2a1.8,1.8,0,1,0-1.8-1.8A1.79,1.79,0,0,0,236.1,99.2Z"/><path d="M227.1,40.1a1.8,1.8,0,1,0-1.8-1.8A1.86,1.86,0,0,0,227.1,40.1Z"/><path d="M227.1,57.1a1.8,1.8,0,1,0-1.8-1.8A1.86,1.86,0,0,0,227.1,57.1Z"/><path d="M227.1,74a1.8,1.8,0,1,0-1.8-1.8A1.79,1.79,0,0,0,227.1,74Z"/><path d="M227.1,90.9a1.8,1.8,0,1,0-1.8-1.8A1.79,1.79,0,0,0,227.1,90.9Z"/><path d="M227.1,107.9a1.8,1.8,0,1,0-1.8-1.8A1.79,1.79,0,0,0,227.1,107.9Z"/><circle cx="218.9" cy="46.6" r="1.8"/><circle cx="218.9" cy="63.5" r="1.8"/><circle cx="218.9" cy="80.5" r="1.8"/><path d="M218.9,99.2a1.8,1.8,0,1,0-1.8-1.8A1.73,1.73,0,0,0,218.9,99.2Z"/><circle cx="210" cy="38.3" r="1.8"/><circle cx="210" cy="55.3" r="1.8"/><circle cx="210" cy="72.2" r="1.8"/><path d="M210,90.9a1.8,1.8,0,1,0-1.8-1.8A1.79,1.79,0,0,0,210,90.9Z"/><path d="M210,107.9a1.8,1.8,0,1,0-1.8-1.8A1.79,1.79,0,0,0,210,107.9Z"/><path d="M201.7,48.4a1.8,1.8,0,1,0-1.8-1.8A1.79,1.79,0,0,0,201.7,48.4Z"/><path d="M201.7,65.3a1.8,1.8,0,1,0-1.8-1.8A1.79,1.79,0,0,0,201.7,65.3Z"/><path d="M201.7,82.2a1.8,1.8,0,1,0-1.8-1.8A1.79,1.79,0,0,0,201.7,82.2Z"/><path d="M201.7,99.2a1.8,1.8,0,1,0-1.8-1.8A1.79,1.79,0,0,0,201.7,99.2Z"/><path d="M192.7,40.1a1.8,1.8,0,1,0-1.8-1.8A1.79,1.79,0,0,0,192.7,40.1Z"/><path d="M192.7,57.1a1.8,1.8,0,1,0-1.8-1.8A1.79,1.79,0,0,0,192.7,57.1Z"/><path d="M192.7,74a1.8,1.8,0,1,0-1.8-1.8A1.79,1.79,0,0,0,192.7,74Z"/><path d="M192.7,90.9a1.8,1.8,0,1,0-1.8-1.8A1.79,1.79,0,0,0,192.7,90.9Z"/><path d="M192.7,107.9a1.8,1.8,0,1,0-1.8-1.8A1.79,1.79,0,0,0,192.7,107.9Z"/></g><polygon class="cls-2" points="514.5 160.3 320.9 160.3 316.1 156.3 509.8 148.2 514.5 152.3 514.5 160.3"/><polygon class="cls-2" points="327.8 180.7 324.7 180.7 326.5 160.3 332.5 160.3 327.8 180.7"/><polygon class="cls-2" points="498.1 180.7 501.2 180.7 509 160.3 502.9 160.3 498.1 180.7"/><polygon class="cls-2" points="629 408.9 639.5 458.2 594 458.2 629 408.9"/><path class="cls-2" d="M636.5,272.8h-.3v.1c-.2.1-.4.1-.5.2-15.5,5.5-25.1,17.1-24.7,28,.6,13,16.5,18,20.5,31.4a112.37,112.37,0,0,1-8.5,21.7c-15.8,29.7-25.6,51.2-25.6,66.7h.6c0-15.4,9.8-36.8,25.5-66.4a108.32,108.32,0,0,0,8.6-21.9c5.9-13.5,36-29.2,37.1-47.8C670,269.7,658.1,265.4,636.5,272.8Z"/><path class="cls-3" d="M632.2,271.3c22.1-7.8,34.4-3.6,33.5,11.6-1.1,19-32.4,35-37.4,48.6-3.6-14.1-20.2-19-20.7-32.3C607.1,288.4,616.7,276.8,632.2,271.3Z"/><path class="cls-4" d="M628.2,331.6c1.6-11.8-5.6-38.7-6.5-55.1"/><path class="cls-4" d="M628.2,331.6c.9-9.2-17.1-30.3-17.1-44.6"/><path class="cls-4" d="M646.5,267.9c3.2,24.3-16.7,56.7-18.3,63.7"/><path class="cls-4" d="M661.3,270.6c0,13.3-22.6,38.7-33.1,61"/><path class="cls-4" d="M633,271.1c2.6,15.9,1.5,53.7-13.3,81.5s-25.6,50.4-25.6,66.5"/><polygon class="cls-2" points="184.7 282.1 211.1 458.4 102.3 458.4 92.1 418.8 184.7 282.1"/><polygon class="cls-2" points="537.5 239.6 562 458.4 250.1 458.4 234.9 359.2 537.5 239.6"/><path class="cls-5" d="M516.9,351.4H221.4L200.3,254c-3.7-17.2,7.9-33.2,24.1-33.2H513.8c16.2,0,27.8,16,24.1,33.2Z"/><path class="cls-6" d="M499.8,343.8s5.9-24.1,7.8-31.3c2.9-10.9,15.4-13.1,26.3-12.2l-11.7,43.4H499.8Z"/><path class="cls-7" d="M239.1,343.8s-5.9-24.1-7.8-31.3c-2.9-10.9-15.4-13.1-26.3-12.2l11.7,43.4h22.4Z"/><polygon class="cls-8" points="508.8 393.9 524.5 458.2 512.6 458.2 482.2 393.9 508.8 393.9"/><line class="cls-9" x1="521.4" y1="458.2" x2="505" y2="397.1"/><polygon class="cls-8" points="229.5 393.9 213.8 458.2 225.6 458.2 256.1 393.9 229.5 393.9"/><line class="cls-9" x1="216.8" y1="458.2" x2="233.3" y2="397.1"/><rect class="cls-8" x="244" y="393.9" width="250.3" height="14.4"/><path class="cls-6" d="M369.1,350c-67.4,0-77.7-12.4-144.1-12.4l5.6,43.2h277l5.6-43.2C446.9,337.6,436.6,350,369.1,350Z"/><path class="cls-10" d="M503.3,359.2c-60.6.3-71,12.4-134.2,12.4s-73.5-12-134.2-12.4"/><line class="cls-11" x1="231.3" y1="230.7" x2="494.6" y2="230.7"/><path class="cls-5" d="M533.9,300.4a18.92,18.92,0,0,0-18.4,14.8L504,368.4c-1.2,5.6-5.4,9.8-9.7,9.8H243.9c-4.3,0-8.4-4.2-9.7-9.8l-11.6-53.3a18.84,18.84,0,0,0-18.4-14.8h0a7.68,7.68,0,0,0-7.5,9.4l13.9,63.8c3.6,16.7,17.6,28.8,33.3,28.8H494.3c15.6,0,29.6-12.1,33.3-28.8l13.9-63.8a7.75,7.75,0,0,0-7.6-9.3Z"/><path class="cls-12" d="M206.4,280.6c-10.6-.4-15.9,2.9-16.2,9.5s3.8,9.8,14,10.2c13.4.5,35.3,1.1,37.8,19.5l15,.5s-.4-10.1-8.7-24.1C240.2,282.3,214,280.9,206.4,280.6Z"/><path class="cls-2" d="M279.7,406.6l-29.4-19.5,3.1-14.8h2.4l2.4-10s17-3.8,26.9-1c6.5,1.9,12.3,3.6,17.6,2.4s6.6-3.5,11.4-2.4,12.1,3.1,12.1,3.1l-12-16.2-69.1-9-7.9,55Z"/><path class="cls-13" d="M249.2,202.5a22,22,0,0,0-13.8,39.1l-6.8,12.6,13.9-8.7a21.32,21.32,0,0,0,6.7,1,22,22,0,0,0,0-44Z"/><path class="cls-14" d="M245.7,216.1l-1.8,12.8a1.6,1.6,0,0,1-1.5,1.3,5.24,5.24,0,0,0-1.7.2c-2.5.5-4.6,2.1-4.8,3.5s1.6,2.1,4.1,1.6,4.6-2.1,4.8-3.5l1.8-13,10.2-2.2-1.3,9.7a1.6,1.6,0,0,1-1.5,1.3,5.24,5.24,0,0,0-1.7.2c-2.5.5-4.6,2.1-4.8,3.5s1.6,2.1,4.1,1.6,4.6-2.1,4.8-3.5l2.2-16.2Z"/><line class="cls-15" x1="70.5" y1="458.1" x2="657.7" y2="458.1"/><rect class="cls-5" x="80.2" y="282.1" width="104.6" height="141.6"/><polygon class="cls-8" points="92.5 458.1 85.1 458.1 82.6 423.7 95 423.7 92.5 458.1"/><polygon class="cls-8" points="179.8 458.1 172.4 458.1 169.9 423.7 182.3 423.7 179.8 458.1"/><line class="cls-16" x1="83.5" y1="287.4" x2="181.4" y2="287.4"/><line class="cls-16" x1="83.5" y1="418.4" x2="181.4" y2="418.4"/><rect class="cls-16" x="88.8" y="294.7" width="87.3" height="33.7"/><rect class="cls-16" x="88.8" y="336" width="87.3" height="33.7"/><rect class="cls-16" x="88.8" y="377.4" width="87.3" height="33.7"/><line class="cls-16" x1="88.8" y1="299.7" x2="176.1" y2="299.7"/><circle class="cls-16" cx="132.4" cy="307.4" r="3.2"/><line class="cls-16" x1="88.8" y1="341" x2="176.1" y2="341"/><circle class="cls-16" cx="132.4" cy="348.7" r="3.2"/><line class="cls-16" x1="88.8" y1="382.1" x2="176.1" y2="382.1"/><path class="cls-16" d="M135.7,389.8a3.2,3.2,0,1,1-3.2-3.2A3.22,3.22,0,0,1,135.7,389.8Z"/><rect class="cls-5" x="149.2" y="204.8" width="4.9" height="77.3"/><path class="cls-6" d="M154.2,232.6V204.8h-4.9v34.9C150.9,237.2,152.6,234.8,154.2,232.6Z"/><path class="cls-6" d="M129.2,282.1h44.9c-2.3-2.6-11.5-4.5-22.5-4.5S131.5,279.5,129.2,282.1Z"/><polygon class="cls-12" points="118.7 210.3 133.5 156.5 169.9 156.5 184.7 210.3 118.7 210.3"/><line class="cls-17" x1="142.5" y1="158.6" x2="135.7" y2="208.2"/><line class="cls-17" x1="151.7" y1="158.6" x2="151.7" y2="208.2"/><line class="cls-17" x1="161" y1="158.6" x2="167.8" y2="208.2"/><path class="cls-2" d="M620.5,344.8c-1.4-14.6-29.4-20-48.3-14.2h0l-.3.1h0c-9,2.8-37.7,17.4-32.7,32.2,3.5,10.3,16.1,11.1,27.4,16.1a54.1,54.1,0,0,1,19.7,14.7,248.57,248.57,0,0,1,1.6,26.6h.6a268.87,268.87,0,0,0-1.8-27.9C591.7,374.3,621.9,359.1,620.5,344.8Z"/><path class="cls-18" d="M567.5,329.5c18.9-5.9,47.1-.6,48.6,14.1s-30.4,30.3-34.1,49a53,53,0,0,0-19.8-14.8c-11.2-5-23.9-5.8-27.4-16.1C529.8,346.9,558.5,332.3,567.5,329.5Z"/><path class="cls-4" d="M552.8,336.4s19.9,20.3,29.2,56.1"/><path class="cls-4" d="M538.6,347.9s32.2,20.8,43.3,44.7"/><path class="cls-4" d="M585.4,327.1s3.6,27.6-3.4,65.5"/><path class="cls-4" d="M603.2,330.3c0,22.7-20.1,50.6-21.3,62.2"/><path class="cls-4" d="M567.5,329.5s15.8,38.7,16.3,89.6"/><path class="cls-2" d="M640.2,362.4h0l-.3-.1h0c-10.4-2.2-29.4,0-31.4,10.3-1.9,10.1,13,19.6,11.7,28.2-1.7,2.2-3.3,4.1-4.8,6-5.2,6.5-9,11.1-11.7,16.6l.5.2c2.7-5.4,6.4-10.1,11.6-16.5,1.6-2,3.3-4,5.1-6.4,7-4.2,33.1-.7,38.5-12.3C663.5,379.9,655.7,365.8,640.2,362.4Z"/><path class="cls-18" d="M637.7,359.4c15.7,3.3,23.6,17.5,19.5,26.2-5.7,12.1-33.9,7.8-39.4,12.9,2.2-8.8-13.5-18.5-11.5-28.8S627.3,357.2,637.7,359.4Z"/><path class="cls-4" d="M617.8,398.5c5.6-7,9-31.8,7.5-39.7"/><path class="cls-4" d="M614.5,361.3c.4,13,7.3,28.6,3.4,37.3"/><path class="cls-4" d="M649.1,364.5c-3.4,14.2-20.9,23.8-31.2,34"/><path class="cls-4" d="M657,374.5c-3.6,13.8-33.7,18.5-39.1,24.1"/><path class="cls-4" d="M637.7,359.4s-.8,13.7-12.7,29.8-18.9,22.7-23.3,31.5"/><path class="cls-8" d="M611.8,458.1H575.3a10.85,10.85,0,0,1-10.7-9.1L558,408.9h71.2L622.6,449A11,11,0,0,1,611.8,458.1Z"/><line class="cls-9" x1="562.9" y1="416.1" x2="624.1" y2="416.1"/><circle class="cls-2" cx="257.09" cy="127.63" r="30"/><rect class="cls-2" x="551.2" y="104.4" width="93.6" height="129.1"/><rect class="cls-19" x="548.5" y="101.3" width="93.6" height="129.1"/><rect class="cls-13" x="559.5" y="111.6" width="71.7" height="108.3"/><path class="cls-6" d="M592.8,164.2c-.3-11-5-11.7-5-11.7-.7-9.4-5.5-11.2-5.5-11.2,0-7.3-2.6-17-5.8-16.6s-3.2,10.4-3.2,10.4c-3.9-4.4-6.2,14.6-6.2,14.6-4.4-6.1-7,14.6-7,14.6a3,3,0,0,0-.7.5v34.8h37.4C599.6,160.9,592.8,164.2,592.8,164.2Z"/><polygon class="cls-13" points="571.5 195.1 571.5 182.2 577.8 172.9 608.1 172.9 608.1 202.6 571.5 195.1"/><polygon class="cls-12" points="608.1 182.9 608.1 172.9 577.8 172.9 585 182.9 608.1 182.9"/><path class="cls-6" d="M631.2,219.9V176.2c-1.6-4.3-3.5-8.6-4.4-10.5,2.6,0-2.7-12.3-6.2-15.5-.2-3.5-.8-17.9-4.3-17.8-3.8.2-5.6,14.6-5.6,14.6-2.9,4.1-5.3,9.6-5,11.4s3.5-.2,3.5-.2c-5,4.6-6.8,14.6-6.4,15.8s2.4,0,2.4,0-2,6.1-.9,9.3c-3,3.6-5.8,14-1.1,14.6-4.3,6.5-6.1,14.3-.5,12.6-2.3,2.4-3.5,6.7-4,9.4Z"/><path class="cls-14" d="M559.5,191v28.9h71.7v-7.6C606,195,569.7,191.6,559.5,191Z"/><rect class="cls-19" x="316.1" y="148.2" width="193.6" height="8.1"/><polygon class="cls-19" points="327.8 180.7 324.7 180.7 321.7 156.3 327.8 156.3 327.8 180.7"/><polygon class="cls-19" points="498.1 180.7 501.2 180.7 504.2 156.3 498.1 156.3 498.1 180.7"/><polygon class="cls-14" points="329.5 148.2 381.8 148.2 387.2 112 335 112 329.5 148.2"/><polygon class="cls-19" points="392.7 148.2 340.5 148.2 335.1 112 387.3 112 392.7 148.2"/><polygon class="cls-13" points="388.4 144.3 343.7 144.3 339.4 115.9 384.1 115.9 388.4 144.3"/><polygon class="cls-14" points="386.5 131.8 368.8 120.3 343 139.8 343.7 144.3 388.4 144.3 386.5 131.8"/><polygon class="cls-6" points="342 133.4 348.2 129 384 144.3 343.7 144.3 342 133.4"/><line class="cls-11" x1="392.7" y1="148.2" x2="340.5" y2="148.2"/><polygon class="cls-14" points="402.2 148.2 472.2 148.2 479.5 99.7 409.5 99.7 402.2 148.2"/><polygon class="cls-19" points="486.9 148.2 416.9 148.2 409.5 99.7 479.6 99.7 486.9 148.2"/><polygon class="cls-13" points="481.1 143 421.1 143 415.3 104.8 475.4 104.8 481.1 143"/><path class="cls-6" d="M421.1,143h60l-.7-4.9c-22.5-3.3-52.5-27-64.3-28.6Z"/><path class="cls-14" d="M477.4,118.5c-7.4,4.6-33.1,19.6-57.1,19.4l.8,5.1h60Z"/><line class="cls-11" x1="486.9" y1="148.2" x2="416.9" y2="148.2"/><path class="cls-5" d="M100.4,278.3a11.7,11.7,0,0,1,0-23.4v2a9.7,9.7,0,1,0,0,19.4Z"/><path class="cls-6" d="M100.4,276.3a8.81,8.81,0,0,1-3.3-.6v2.1a11.42,11.42,0,0,0,3.3.5Z"/><path class="cls-6" d="M97.1,257.4a8.81,8.81,0,0,1,3.3-.6v-2a12.57,12.57,0,0,0-3.3.5Z"/><path class="cls-5" d="M115.5,282.1H102.7a3,3,0,0,1-3-3V252.5h18.7v26.6A2.93,2.93,0,0,1,115.5,282.1Z"/><line class="cls-16" x1="103.4" y1="282.1" x2="115.5" y2="282.1"/><circle class="cls-19" cx="254.69" cy="124.59" r="30"/><circle class="cls-6" cx="254.69" cy="124.59" r="24.5"/><polyline class="cls-20" points="247.8 106.1 254.7 124.6 272.8 123"/><path class="cls-21" d="M371,454.5c-4.5-1.1-19.9-2.7-19.9-2.7l-7.7-15.1s-7.3-4.4-14.8-8.9c-9-5.4-19.1-10.6-33.5-6.9-11.2,2.9-18.1,13.5-21.1,19.9s-8,9.8-6.8,18.4,11.9,13.9,20.7,13.8,17.7,6.2,20.5,10.1,7.4,6.8,9.9,3.4.9-8.7-4.5-13.5-16.4-6.4-25.2-6.1-16.7-2.8-16.8-9.8c-.1-4.5,3-5.9,3-5.9s-1.6,8.8,8.1,8.8h66.5a2.44,2.44,0,0,0,0-1.2h25.1C374.6,458.8,376.3,455.8,371,454.5Z"/><path class="cls-22" d="M364.1,453.3c-3.8-.5-8.1-1-10.6-1.3l-4,6.8h7.1C357.5,455.7,360.8,452.9,364.1,453.3Z"/><path class="cls-22" d="M336.7,432.7s-18.1,18.7,5.9,22.2Z"/><line class="cls-23" x1="347.9" y1="458.6" x2="347.9" y2="460.1"/><line class="cls-23" x1="346.2" y1="458.6" x2="346.2" y2="460.1"/><line class="cls-23" x1="344.6" y1="458.6" x2="344.6" y2="460.1"/><line class="cls-23" x1="313" y1="458.6" x2="313" y2="460.1"/><line class="cls-23" x1="311.4" y1="458.6" x2="311.4" y2="460.1"/><line class="cls-23" x1="309.7" y1="458.6" x2="309.7" y2="460.1"/><line class="cls-23" x1="372.9" y1="457.4" x2="372.9" y2="458.9"/><line class="cls-23" x1="371.3" y1="457.4" x2="371.3" y2="458.9"/><line class="cls-23" x1="369.6" y1="457.4" x2="369.6" y2="458.9"/><path class="cls-23" d="M300,455s6.8-5.1,6.8-11.2-3.2-9.4-3.9-9.7"/><path class="cls-23" d="M274.9,451.3s2.4-7.4,6.8-12.3"/><path class="cls-19" d="M313.8,473a20.21,20.21,0,0,0-5.6-3.3c-3.4.4-7.2,2-8.2,6.7,3.8,2.1,6.9,4.7,8.3,6.8,2.7,4,7.4,6.8,9.9,3.4S319.1,477.8,313.8,473Z"/><path class="cls-21" d="M360.9,434.6h0a20.4,20.4,0,0,0-2.8-6.8,9.12,9.12,0,0,0-3.2,5.8l-11.1-1.8a9.15,9.15,0,0,0-1.2-6.5,18.77,18.77,0,0,0-4.7,5.6s-13.9,23.5,7.5,26.9S360.9,434.6,360.9,434.6Z"/><path class="cls-23" d="M340.1,441.3s-.3,2.9,2.1,3.3,3.4-2.1,3.4-2.1"/><path class="cls-23" d="M356.3,443.9s-.6,2.9-3,2.5-2.6-3.1-2.6-3.1"/><path class="cls-22" d="M346,444.3l3,.5s-.7,1.6-1.8,1.4S346,444.3,346,444.3Z"/><path class="cls-23" d="M342.4,446.4a3.92,3.92,0,0,0,4.9-.2"/><path class="cls-23" d="M351.8,447.9a3.84,3.84,0,0,1-4.5-1.7"/><line class="cls-23" x1="338.5" y1="446.2" x2="333.7" y2="448.4"/><line class="cls-23" x1="339.5" y1="447.9" x2="334.9" y2="451.7"/><line class="cls-23" x1="340.4" y1="449.5" x2="337" y2="454.3"/><line class="cls-23" x1="355.6" y1="449" x2="359.4" y2="452.6"/><line class="cls-23" x1="354.1" y1="450.2" x2="357.3" y2="455.3"/><line class="cls-23" x1="352.7" y1="451.5" x2="354.5" y2="457.1"/><path class="cls-19" d="M348.7,432.7l-4.8-.8a9.15,9.15,0,0,0-1.2-6.5A18.77,18.77,0,0,0,338,431a38.29,38.29,0,0,0-3.2,7.4C340.9,439.5,346.3,435.1,348.7,432.7Z"/><path class="cls-23" d="M327.6,455h14.1c5.7,0,7.9,2.7,7.8,5.1"/><path class="cls-23" d="M293.4,455h14.1c5.7,0,7.9,2.7,7.8,5.1"/><path class="cls-24" d="M406.9,252.3s12.6-9.3,21.4-15.1,18.1-7.9,25.8-3.5,14.1,17.4,16.8,30.8S486.6,335,486.6,335s5.4,3.2,8.2,4.7,7.7-.2,9.1,2.3-.5,5.1-2.5,5c-3.2-.3-15.5-.6-23.4-.8s-2.7-9.6-2.7-9.6-29.5-47.2-35.7-62.8c-5.4,5.1-28,27.7-28,27.7Z"/><path class="cls-25" d="M471,264.6c-2.7-13.4-9.2-26.4-16.8-30.8s-17-2.4-25.8,3.5S407,252.4,407,252.4l4.8,49.1s22.6-22.6,28-27.7c3.4,8.7,14.1,27.1,22.8,41.7,5.6-2.3,13.8-1.2,19.8.2C478.3,297.8,472.7,272.8,471,264.6Z"/><line class="cls-26" x1="439.7" y1="273.7" x2="446.9" y2="267.3"/><path class="cls-26" d="M444.3,242.7s2.6,4.4,13.1,5"/><path class="cls-26" d="M477.5,334s-1.3,2.2,2.1,3.4"/><path class="cls-26" d="M499.5,344.1s4-.5,5,.4"/><path class="cls-26" d="M500.9,342.8s2.5-.5,3.6.5"/><path class="cls-26" d="M501.2,341.9a5.72,5.72,0,0,1,2.9.1"/><path class="cls-26" d="M501,341.1a5.38,5.38,0,0,1,1.9-.1"/><path class="cls-12" d="M412.2,246.2l8.8,55.7s-25.2,29.5-44.9,31.5-39.8-5.6-39.8-5.6l8.5-32.6s14.2-11.6,24.6-16c10.6-4.5,15.2-17.2,20-19.2s6.6-1,9.9-6.2C402.6,248.4,408.2,245.5,412.2,246.2Z"/><path class="cls-27" d="M416.3,306.9c2.9-3,4.6-5.1,4.6-5.1l-8.8-55.7a10,10,0,0,0-6.1,1.2Z"/><path class="cls-24" d="M423,291s18.5-8.8,29.1-13.2,23.4-1.5,40.8,3.9,63,18.3,63,18.3l10.3-5.3s3.5-2.8,6.2-4.6a1.48,1.48,0,0,1,2.4,1.4,11.56,11.56,0,0,1,.7,3.7c-.1,1.7-3.5,5.1-3.5,5.1s-11.3,12.1-14.8,11.7-4.2-5-4.2-5-72,.5-85.5-6c-6.2,6.9-32,29.9-32,29.9Z"/><path class="cls-26" d="M554.7,304.9s.1,2.3,3.2,1.8"/><path class="cls-26" d="M459.1,283.8s5.9,2.9,11.3-.5"/><path class="cls-25" d="M438.8,283.7c-8.2,3.7-15.8,7.3-15.8,7.3l12.5,40s3.5-3.1,8.2-7.4C433.7,313.8,436.4,294.2,438.8,283.7Z"/><path class="cls-26" d="M572.1,297.4s2.2-1.9,3.1-1.1"/><path class="cls-26" d="M571.8,295.7s2.3-2,3.6-1.2"/><path class="cls-26" d="M571.4,294.2s2.7-2.1,3.7-1.3"/><path class="cls-26" d="M571.3,292.6s2.2-1.8,3.4-1.1"/><polygon class="cls-27" points="417 276.3 360.4 314.2 420.5 298.5 417 276.3"/><g class="cls-28"><path d="M391.9,258.9c-.7.2-1.5.5-2.5.9a9.27,9.27,0,0,0-3,2l10,62.5c1.8-1.3,3.6-2.6,5.3-4Z"/><path d="M411.3,311.9l-9.8-61.1a15.1,15.1,0,0,0-2.2,2.8,14.37,14.37,0,0,1-2.7,3.3l9.5,59.8C408,315,409.7,313.4,411.3,311.9Z"/></g><path class="cls-12" d="M327.4,356.7s19.9,9,34.2,10.3c22.2,2,41.2-5.6,44-7.5s9,0,15.3-3.7,7.1-8.5,13.7-8.1,6,2.7,10.2.4l-19.5-61.2L370,310.3l-31.3-.1Z"/><path class="cls-27" d="M418.8,289.6l19.1,58.5c3.3.7,3.6,1.8,7-.1l-19.5-61.2Z"/><g class="cls-28"><path d="M415.5,290.9l-5.5,2.3L425.5,352c1.7-1.6,3.1-3.1,5-3.8Z"/><path d="M413.8,358.1a17.61,17.61,0,0,0,5.6-1.6l-14.7-61-5.5,2.3Z"/></g><path class="cls-29" d="M336.3,326.6s23.3,4.6,26.3,13.9"/><line class="cls-29" x1="366.1" y1="335" x2="369.5" y2="317.2"/><line class="cls-29" x1="369.4" y1="331.2" x2="378.6" y2="312.1"/><path class="cls-6" d="M370.2,278.7c-.2.1-.5.2-.7.3-10.5,4.5-24.6,16-24.6,16L341,310.1h-2.1l-11.3,46.5s4.8,2.3,11.3,4.8c-2.4-15.4,1.8-40,18.2-53.3C370.6,297.1,370.9,284.4,370.2,278.7Z"/><path class="cls-29" d="M434.9,316.8s-54.8,21.8-63.1,23.3c-8.7,1.6-23.2-.7-37.4-8.4"/><path class="cls-24" d="M244.7,358.1l-5.4,27.6s44.8,24,50.6,25.5c4.7-.4,14.9,1.8,18.5,4s7.5,8,6.9,8.7-3.5-1.9-5.3-3.9a8.5,8.5,0,0,0-2.6-2s5.8,6.8,5.2,8.6-5.1-4.1-6.7-5.7a12,12,0,0,0-3.2-1.9,10.35,10.35,0,0,1,2.9,3.2c.8,1.7,2.3,5.7,1.5,6.4s-2.8-4.1-3.9-5.1a22.12,22.12,0,0,0-3.7-2.3,13.2,13.2,0,0,1,3,3.2c1,1.8,1.8,4.9.9,5.1s-1.8-2.6-3.2-3.8-1.7-2.3-4-2.9-8.3-.3-9.9-3c0,0-48.4-2.4-67.6-8.1s-21-22.7-20-31.4,4.3-23.7,4.3-23.7Z"/><path class="cls-26" d="M286.2,417.3s.2,1.7,2.4,1.5"/><line class="cls-26" x1="239.3" y1="385.7" x2="231.1" y2="381.5"/><path class="cls-25" d="M220.7,371.5c6.1-1.4,14.1.7,20.4,4.8l3.6-18.3-41.6-1.5s-2.8,13-4,21.8C208.5,378.1,213.9,373.1,220.7,371.5Z"/><path class="cls-6" d="M225,297.5c-3.2,2-9.6,4.1-14.8,14.1s-3.5,15-8.2,19.2-5.4,8.3-5.1,14-.3,8.7-3.1,12.3a14.64,14.64,0,0,0-2.8,8.1l54,1.9,4.8-21.9s5,4.5,18.1,5,18.2,2.1,22.9,5,9.5,5.1,14.4,2.9,11.1,3.1,16.3,5.4,8.3-1.4,9.4-6.8,6-35,15.7-54.8l-30.1-18.3,10.6-35.3s-2.7-1.6-12.8-.5-13,.2-18.5-1.3-11.6,2.8-17.2,3.3a37.14,37.14,0,0,0-16.9,5.6c-5.6,3.6-17.8,26.7-17.8,26.7l-11.1,12.3Z"/><line class="cls-30" x1="244.5" y1="362.7" x2="193.1" y2="360.9"/><path class="cls-27" d="M271.2,350.3c-5.2-3.3-10.5-9.1-14.1-13.4a3.36,3.36,0,0,0-5.9,1.5l-1.4,6.8s5,4.5,18.1,5C269.1,350.2,270.2,350.3,271.2,350.3Z"/><path class="cls-27" d="M346.7,301.9l-30.1-18.3-40.8,1.6-.3,7.1s1.2,4.9,8.7,3.9l54.6,26.7A124.85,124.85,0,0,1,346.7,301.9Z"/><path class="cls-31" d="M278,297.8l-14.1,3.1a1.8,1.8,0,0,1-2.1-1.3l-5.5-25.2a1.8,1.8,0,0,1,1.3-2.1l14.1-3.1a1.8,1.8,0,0,1,2.1,1.3l5.5,25.2A1.75,1.75,0,0,1,278,297.8Z"/><path class="cls-32" d="M285.4,330s33.9-5.1,49.8-21"/><line class="cls-32" x1="334.2" y1="317.5" x2="309.6" y2="336.9"/><path class="cls-32" d="M249.8,345.2s3.6-18.2,3.7-24.6"/><line class="cls-32" x1="238.6" y1="329.9" x2="246.1" y2="339.7"/><path class="cls-32" d="M258.6,327.3s-2.1,9.1-7.2,13.8"/><line class="cls-33" x1="320.9" y1="248.7" x2="309.9" y2="283.3"/><path class="cls-32" d="M279.9,267.5s4,9.7,12.3,13.7"/><line class="cls-32" x1="287.6" y1="271.2" x2="293.6" y2="281.3"/><path class="cls-13" d="M278.6,296.6l-14.1,3.1a1.8,1.8,0,0,1-2.1-1.3l-5.5-25.2a1.8,1.8,0,0,1,1.3-2.1l14.1-3.1a1.8,1.8,0,0,1,2.1,1.3l5.5,25.2A1.75,1.75,0,0,1,278.6,296.6Z"/><path class="cls-34" d="M261.7,273.5a1.18,1.18,0,1,1-1.4-.9A1.24,1.24,0,0,1,261.7,273.5Z"/><path class="cls-35" d="M276.5,299.4s1.1,5.8,1.4,9.9c.9,12.8-.9,24.6-2,31.1-1.2,7.2-3.2,27.7-14.6,27.3s-11.3-35.5-12.2-43c-1.2-9.8-4.7-14.9-4.7-14.9"/><path class="cls-24" d="M318.9,275.6l6.5-21.5s19.5,1.7,33.1,10.1,14.2,28.3-1.1,35.9c-18.3,9.1-72.1-9.1-72.1-9.1a7.18,7.18,0,0,1-8.3-1.4s-6.3,3.1-6.7,2.3,5.9-4.7,5.9-4.7a26.23,26.23,0,0,0-4.9,1.4c-1.3.7-3.3,1.3-4,.7s3.8-4,8.7-4.3c0,0-4.5-1.3-6.2-1.1s-4.2,1.3-4.8.2c-.3-.6,2.9-2.9,6.1-2.6s5.3.7,5.3.7-1.9-2.4-3.3-2.5-5.2,1.3-5.9.9.3-1.7,2.8-2.4,4.5-1.5,6.4-.3,9,4,9,4Z"/><path class="cls-25" d="M318.9,275.6s9.8-1.4,16-2.6c0,0-.5-11.5-1.5-17.7-4.8-.9-8.1-1.2-8.1-1.2Z"/><path class="cls-26" d="M318.9,275.6s14.8-2.7,22.9-3.7"/><path class="cls-25" d="M365.5,283.8c-.1,2.3-1,4.1-2.2,4s-1.9-1.9-1.9-4.2,1-4.1,2.2-4S365.6,281.6,365.5,283.8Z"/><path class="cls-21" d="M227.4,270.5a23.76,23.76,0,0,0-6.1-11,6.54,6.54,0,0,0-3.7-8c-5.5-2.5-8,2.7-8,2.7a6,6,0,0,0-6.4.3c-3.2,2.2-2.2,8.6-2.2,8.6s-2.9.2-4.1,4.5,2.3,8,2.3,8a4.62,4.62,0,0,0-1.3,4.5c.7,2.6,2.9,3.6,6.3,3.3l10.7,2.7,1-2.3-4.1-4.9,9.9-13.4Z"/><path class="cls-24" d="M217.9,286.7l10.7,8.7-3.7,2.2a52.82,52.82,0,0,1,12.5-1.8c7.2-.2,14.3,1.8,17.9-4s-4.3-11.2-11.4-9.6c0,0-.5,3.1-5,.9s-9.6-4.9-9.6-4.9Z"/><path class="cls-25" d="M217.9,286.7l9.2,7.5c2-2,5.9-4.5,7.1-8.3a12.53,12.53,0,0,0,.7-4.9c-3-1.5-5.5-2.9-5.5-2.9Z"/><line class="cls-26" x1="244" y1="287.6" x2="245.9" y2="283.1"/><path class="cls-24" d="M221.2,263.7s7.7,7,10.4,10.1,2.2,8.9-.4,11.7-8,5.5-14.9,1a1.67,1.67,0,0,1-2.1,1.2c-1.7-.4-3.8-1.9-4.1-3.5a1.59,1.59,0,0,1,2-1.7l2.1.6-4.7-5a5.72,5.72,0,0,0,3.3-5.4,6.94,6.94,0,0,0,4.5-5A7,7,0,0,0,221.2,263.7Z"/><path class="cls-26" d="M214.8,284.4s-2.8-1.3-3.5-.7.9,2.2,2.1,2.8"/><path class="cls-19" d="M227.7,276.5l-6.4,6.9s4,2,6.8-.4C229.8,281.4,229.3,277.6,227.7,276.5Z"/><polyline class="cls-26" points="220.8 275.7 223.5 277.7 222.3 279.2"/><path class="cls-26" d="M228.6,284.6s.5-1.9,1.8-2.1"/><path class="cls-31" d="M218.6,278.9c.4.3.6.8.4,1.1s-.7.2-1.1-.2-.6-.8-.4-1.1S218.2,278.6,218.6,278.9Z"/><path class="cls-31" d="M222.7,273.6c.4.3.6.8.4,1.1s-.7.2-1.1-.2-.6-.8-.4-1.1A.83.83,0,0,1,222.7,273.6Z"/><line class="cls-36" x1="214.6" y1="278.2" x2="216.7" y2="275.4"/><line class="cls-36" x1="219.8" y1="271.7" x2="221.9" y2="269"/><path class="cls-35" d="M213.8,285.1a24.84,24.84,0,0,1,7.2,8c2.8,5.1,15.6,20.8,22.7,17.3s-3.6-37-15.4-40"/><rect class="cls-37" x="275.72" y="297.19" width="1.3" height="3" transform="translate(-57.56 66.13) rotate(-12.37)"/><polyline class="cls-29" points="342.8 308.4 370 310.3 418.8 289.6"/><line class="cls-29" x1="376.5" y1="282.1" x2="372" y2="301.3"/><line class="cls-29" x1="376.6" y1="291.8" x2="386.4" y2="275.7"/></svg>