<svg id="Layer_1" data-name="Layer 1" xmlns="http://www.w3.org/2000/svg" viewBox="0 0 2800 928.7"><defs><style>.cls-1{fill:#b9e5fb;}.cls-2{fill:#039be5;}.cls-3{fill:#d4effc;}.cls-4{fill:#eff9fe;}.cls-5{fill:#fff;}</style></defs><title>drawing-6-azur</title><rect class="cls-1" x="2370.3" y="460.3" width="117.1" height="180.3"/><path class="cls-2" d="M2487.3,644.7H2370.2a4,4,0,0,1-4-4V460.3a4,4,0,0,1,4-4h117.1a4,4,0,0,1,4,4V640.6A4,4,0,0,1,2487.3,644.7Zm-113-8h109.1V464.3H2374.3Z"/><polygon class="cls-1" points="2370.3 460.3 2487.3 460.3 2472.6 412.3 2385 412.3 2370.3 460.3"/><path class="cls-2" d="M2487.3,464.3H2370.2a3.89,3.89,0,0,1-3.2-1.6,3.83,3.83,0,0,1-.6-3.6l14.8-48a4,4,0,0,1,3.8-2.8h87.6a3.87,3.87,0,0,1,3.8,2.8l14.8,48a4,4,0,0,1-3.9,5.2Zm-111.6-8H2482l-12.3-40H2388Z"/><rect class="cls-1" x="1432.3" y="404.7" width="171" height="236"/><path class="cls-2" d="M1603.3,644.7h-171a4,4,0,0,1-4-4v-236a4,4,0,0,1,4-4h171a4,4,0,0,1,4,4v236A4,4,0,0,1,1603.3,644.7Zm-167-8h163v-228h-163Z"/><polygon class="cls-1" points="1432.3 404.7 1603.3 404.7 1591.8 373.7 1443.8 373.7 1432.3 404.7"/><path class="cls-2" d="M1603.3,408.7h-171a4,4,0,0,1-3.3-1.7,4.37,4.37,0,0,1-.5-3.7l11.5-31a4,4,0,0,1,3.8-2.6h148a4,4,0,0,1,3.8,2.6l11.5,31a3.81,3.81,0,0,1-.5,3.7A4.32,4.32,0,0,1,1603.3,408.7Zm-165.2-8h159.5l-8.5-23H1446.7Z"/><rect class="cls-1" x="1603.3" y="422.7" width="161" height="218"/><path class="cls-2" d="M1764.3,644.7h-161a4,4,0,0,1-4-4v-218a4,4,0,0,1,4-4h161a4,4,0,0,1,4,4v218A4,4,0,0,1,1764.3,644.7Zm-157-8h153v-210h-153Z"/><rect class="cls-1" x="1603.3" y="404.7" width="161" height="18"/><path class="cls-2" d="M1764.3,426.7h-161a4,4,0,0,1-4-4v-18a4,4,0,0,1,4-4h161a4,4,0,0,1,4,4v18A4,4,0,0,1,1764.3,426.7Zm-157-8h153v-10h-153Z"/><rect class="cls-1" x="1764.3" y="454.7" width="128" height="186"/><path class="cls-2" d="M1892.3,644.7h-128a4,4,0,0,1-4-4v-186a4,4,0,0,1,4-4h128a4,4,0,0,1,4,4v186A4,4,0,0,1,1892.3,644.7Zm-124-8h120v-178h-120v178Z"/><polygon class="cls-1" points="1764.3 454.7 1892.3 454.7 1881.3 434.2 1775.3 434.2 1764.3 454.7"/><path class="cls-2" d="M1892.3,458.7h-128a3.94,3.94,0,0,1-3.5-5.8l11-20.5a4,4,0,0,1,3.5-2.1h106a3.92,3.92,0,0,1,3.5,2.1l11,20.5a3.89,3.89,0,0,1-.1,3.9A4.13,4.13,0,0,1,1892.3,458.7Zm-121.3-8h114.6l-6.7-12.5H1777.7Z"/><rect class="cls-1" x="1892.3" y="404.7" width="163" height="236"/><path class="cls-2" d="M2055.3,644.7h-163a4,4,0,0,1-4-4v-236a4,4,0,0,1,4-4h163a4,4,0,0,1,4,4v236A4,4,0,0,1,2055.3,644.7Zm-159-8h155v-228h-155Z"/><rect class="cls-1" x="1892.3" y="369" width="163" height="35.7"/><path class="cls-2" d="M2055.3,408.7h-163a4,4,0,0,1-4-4V369a4,4,0,0,1,4-4h163a4,4,0,0,1,4,4v35.7A4,4,0,0,1,2055.3,408.7Zm-159-8h155V373h-155Z"/><rect class="cls-1" x="1892.3" y="355" width="163" height="14"/><path class="cls-2" d="M2055.3,373h-163a4,4,0,0,1-4-4V355a4,4,0,0,1,4-4h163a4,4,0,0,1,4,4v14A4,4,0,0,1,2055.3,373Zm-159-8h155v-6h-155Z"/><rect class="cls-1" x="1959.3" y="310.7" width="29" height="94"/><path class="cls-2" d="M1988.3,408.7h-29a4,4,0,0,1-4-4v-94a4,4,0,0,1,4-4h29a4,4,0,0,1,4,4v94A4,4,0,0,1,1988.3,408.7Zm-25-8h21v-86h-21Z"/><polygon class="cls-1" points="2055.3 355 1892.3 355 1912.3 329 2035.3 329 2055.3 355"/><path class="cls-2" d="M2055.3,359h-163a4.17,4.17,0,0,1-3.6-2.2,4,4,0,0,1,.4-4.2l20-26a4,4,0,0,1,3.2-1.6h123a4.18,4.18,0,0,1,3.2,1.6l20,26a4,4,0,0,1,.4,4.2A4.17,4.17,0,0,1,2055.3,359Zm-154.9-8h146.8l-13.8-18H1914.3Z"/><rect class="cls-1" x="2055.3" y="439.7" width="84" height="201"/><path class="cls-2" d="M2139.3,644.7h-84a4,4,0,0,1-4-4v-201a4,4,0,0,1,4-4h84a4,4,0,0,1,4,4v201A4,4,0,0,1,2139.3,644.7Zm-80-8h76v-193h-76Z"/><rect class="cls-1" x="2139.3" y="439.7" width="128" height="201"/><path class="cls-2" d="M2267.3,644.7h-128a4,4,0,0,1-4-4v-201a4,4,0,0,1,4-4h128a4,4,0,0,1,4,4v201A4,4,0,0,1,2267.3,644.7Zm-124-8h120v-193h-120Z"/><rect class="cls-1" x="2131.7" y="418.3" width="143.2" height="21.4"/><path class="cls-2" d="M2274.9,443.7H2131.7a4,4,0,0,1-4-4V418.3a4,4,0,0,1,4-4h143.2a4,4,0,0,1,4,4v21.4A4,4,0,0,1,2274.9,443.7Zm-139.2-8h135.2V422.3H2135.7Z"/><rect class="cls-1" x="2267.3" y="485" width="65.1" height="155.7"/><path class="cls-2" d="M2332.5,644.7h-65.1a4,4,0,0,1-4-4V485a4,4,0,0,1,4-4h65.1a4,4,0,0,1,4,4V640.7A4,4,0,0,1,2332.5,644.7Zm-61.2-8h57.1V489h-57.1Z"/><rect class="cls-1" x="2332.5" y="513" width="75.6" height="127.7"/><path class="cls-2" d="M2408.1,644.7h-75.6a4,4,0,0,1-4-4V513a4,4,0,0,1,4-4h75.6a4,4,0,0,1,4,4V640.7A4,4,0,0,1,2408.1,644.7Zm-71.6-8h67.6V517h-67.6Z"/><polygon class="cls-1" points="2408.1 513 2332.5 513 2370.3 445.7 2408.1 513"/><path class="cls-2" d="M2408.1,517h-75.6a4.29,4.29,0,0,1-3.5-2,4.07,4.07,0,0,1,0-4l37.8-67.3a3.84,3.84,0,0,1,3.5-2,4,4,0,0,1,3.5,2l37.8,67.3a4,4,0,0,1-3.5,6Zm-68.8-8h61.9l-31-55.2Z"/><polygon class="cls-1" points="2596.1 435 2487.3 435 2541.7 367.7 2596.1 435"/><path class="cls-2" d="M2596.1,439H2487.3a4.08,4.08,0,0,1-3.6-2.3,3.8,3.8,0,0,1,.5-4.2l54.4-67.3a4.2,4.2,0,0,1,3.1-1.5,3.75,3.75,0,0,1,3.1,1.5l54.4,67.3a3.8,3.8,0,0,1,.5,4.2A4,4,0,0,1,2596.1,439Zm-100.4-8h92l-46-57Z"/><rect class="cls-1" x="2408.1" y="496.3" width="79.3" height="144.3"/><path class="cls-2" d="M2487.3,644.7H2408a4,4,0,0,1-4-4V496.3a4,4,0,0,1,4-4h79.3a4,4,0,0,1,4,4V640.6A4,4,0,0,1,2487.3,644.7Zm-75.2-8h71.3V500.3h-71.3Z"/><rect class="cls-1" x="2487.3" y="435" width="108.8" height="205.7"/><path class="cls-2" d="M2596.1,644.7H2487.3a4,4,0,0,1-4-4V435a4,4,0,0,1,4-4h108.8a4,4,0,0,1,4,4V640.7A4,4,0,0,1,2596.1,644.7Zm-104.8-8h100.8V439H2491.3Z"/><rect class="cls-1" x="2487.3" y="358.3" width="108.8" height="76.7"/><path class="cls-2" d="M2596.1,439H2487.3a4,4,0,0,1-4-4V358.3a4,4,0,0,1,4-4h108.8a4,4,0,0,1,4,4V435A4,4,0,0,1,2596.1,439Zm-104.8-8h100.8V362.3H2491.3Z"/><polygon class="cls-1" points="2596.1 283.3 2487.3 283.3 2541.7 75 2596.1 283.3"/><path class="cls-2" d="M2596.1,287.3H2487.3a4.18,4.18,0,0,1-3.2-1.6,4,4,0,0,1-.7-3.5l54.4-208.4a4,4,0,0,1,7.8,0L2600,282.2a4,4,0,0,1-.7,3.5A3.76,3.76,0,0,1,2596.1,287.3Zm-103.6-8h98.4L2541.7,90.8Z"/><polygon class="cls-1" points="2596.1 346.3 2559.9 346.3 2559.9 283.3 2578 251.3 2596.1 283.3 2596.1 346.3"/><path class="cls-2" d="M2596.1,350.3h-36.3a4,4,0,0,1-4-4V283.2a4.55,4.55,0,0,1,.5-2l18.1-32a3.84,3.84,0,0,1,3.5-2,4,4,0,0,1,3.5,2l18.1,32a4.55,4.55,0,0,1,.5,2v63.1A3.81,3.81,0,0,1,2596.1,350.3Zm-32.2-8h28.3v-58l-14.1-24.9L2564,284.3l-.1,58Z"/><polygon class="cls-1" points="2559.9 346.3 2523.6 346.3 2523.6 283.3 2541.7 251.3 2559.9 283.3 2559.9 346.3"/><path class="cls-2" d="M2559.9,350.3h-36.3a4,4,0,0,1-4-4V283.2a4.55,4.55,0,0,1,.5-2l18.1-32a3.84,3.84,0,0,1,3.5-2,4,4,0,0,1,3.5,2l18.1,32a4.55,4.55,0,0,1,.5,2v63.1A3.81,3.81,0,0,1,2559.9,350.3Zm-32.3-8h28.3v-58l-14.1-24.9-14.1,24.9-.1,58Z"/><polygon class="cls-1" points="2523.6 346.3 2487.3 346.3 2487.3 283.3 2505.5 251.3 2523.6 283.3 2523.6 346.3"/><path class="cls-2" d="M2523.6,350.3h-36.3a4,4,0,0,1-4-4V283.2a4.55,4.55,0,0,1,.5-2l18.1-32a3.84,3.84,0,0,1,3.5-2,4,4,0,0,1,3.5,2l18.1,32a4.55,4.55,0,0,1,.5,2v63.1A3.81,3.81,0,0,1,2523.6,350.3Zm-32.3-8h28.3v-58l-14.1-24.9-14.1,24.9-.1,58Z"/><rect class="cls-1" x="2480.6" y="346.3" width="122.3" height="12"/><path class="cls-2" d="M2602.9,362.3H2480.6a4,4,0,0,1-4-4v-12a4,4,0,0,1,4-4h122.3a4,4,0,0,1,4,4v12A4,4,0,0,1,2602.9,362.3Zm-118.3-8h114.3v-4H2484.6Z"/><rect class="cls-1" x="1327.3" y="366.3" width="105" height="274.3"/><path class="cls-2" d="M1432.3,644.7h-105a4,4,0,0,1-4-4V366.3a4,4,0,0,1,4-4h105a4,4,0,0,1,4,4V640.6A4,4,0,0,1,1432.3,644.7Zm-101-8h97V370.3h-97Z"/><rect class="cls-1" x="1321.3" y="351" width="117" height="15.3"/><path class="cls-2" d="M1438.3,370.3h-117a4,4,0,0,1-4-4V351a4,4,0,0,1,4-4h117a4,4,0,0,1,4,4v15.3A4,4,0,0,1,1438.3,370.3Zm-113-8h109V355h-109Z"/><rect class="cls-1" x="1222.3" y="384.3" width="105" height="256.3"/><path class="cls-2" d="M1327.3,644.7h-105a4,4,0,0,1-4-4V384.3a4,4,0,0,1,4-4h105a4,4,0,0,1,4,4V640.6A4,4,0,0,1,1327.3,644.7Zm-101-8h97V388.3h-97Z"/><rect class="cls-1" x="1099.3" y="357" width="123" height="283.7"/><path class="cls-2" d="M1222.3,644.7h-123a4,4,0,0,1-4-4V357a4,4,0,0,1,4-4h123a4,4,0,0,1,4,4V640.7A4,4,0,0,1,1222.3,644.7Zm-119-8h115V361h-115Z"/><rect class="cls-1" x="1099.3" y="339.7" width="123" height="17.3"/><path class="cls-2" d="M1222.3,361h-123a4,4,0,0,1-4-4V339.7a4,4,0,0,1,4-4h123a4,4,0,0,1,4,4V357A4,4,0,0,1,1222.3,361Zm-119-8h115v-9.3h-115Z"/><rect class="cls-1" x="867.3" y="461.7" width="232" height="179"/><path class="cls-2" d="M1099.3,644.7h-232a4,4,0,0,1-4-4v-179a4,4,0,0,1,4-4h232a4,4,0,0,1,4,4v179A4,4,0,0,1,1099.3,644.7Zm-228-8h224v-171h-224v171Z"/><rect class="cls-1" x="867.3" y="446.3" width="232" height="15.3"/><path class="cls-2" d="M1099.3,465.7h-232a4,4,0,0,1-4-4V446.4a4,4,0,0,1,4-4h232a4,4,0,0,1,4,4v15.3A4,4,0,0,1,1099.3,465.7Zm-228-8h224v-7.3h-224v7.3Z"/><rect class="cls-1" x="1028.6" y="419.7" width="32" height="26.7"/><path class="cls-2" d="M1060.6,450.3h-32a4,4,0,0,1-4-4V419.6a4,4,0,0,1,4-4h32a4,4,0,0,1,4,4v26.7A4,4,0,0,1,1060.6,450.3Zm-28-8h24V423.6h-24Z"/><rect class="cls-1" x="967.3" y="419.7" width="32" height="26.7"/><path class="cls-2" d="M999.3,450.3h-32a4,4,0,0,1-4-4V419.6a4,4,0,0,1,4-4h32a4,4,0,0,1,4,4v26.7A4,4,0,0,1,999.3,450.3Zm-28-8h24V423.6h-24Z"/><rect class="cls-1" x="906" y="419.7" width="32" height="26.7"/><path class="cls-2" d="M938,450.3H906a4,4,0,0,1-4-4V419.6a4,4,0,0,1,4-4h32a4,4,0,0,1,4,4v26.7A4,4,0,0,1,938,450.3Zm-28-8h24V423.6H910Z"/><rect class="cls-1" x="590" y="411.7" width="277.3" height="229"/><path class="cls-2" d="M867.3,644.7H590a4,4,0,0,1-4-4v-229a4,4,0,0,1,4-4H867.3a4,4,0,0,1,4,4v229A4,4,0,0,1,867.3,644.7Zm-273.3-8H863.3v-221H594Z"/><polygon class="cls-1" points="590 411.7 867.3 411.7 867.3 391 728.6 379 590 391 590 411.7"/><path class="cls-2" d="M867.3,415.7H590a4,4,0,0,1-4-4V391a4,4,0,0,1,3.7-4l138.7-12h.7l138.7,12a4,4,0,0,1,3.7,4v20.7A4.33,4.33,0,0,1,867.3,415.7Zm-273.3-8H863.3v-13L728.6,383,594,394.7Z"/><rect class="cls-1" x="417.3" y="370.7" width="172.7" height="270"/><path class="cls-2" d="M590,644.7H417.3a4,4,0,0,1-4-4v-270a4,4,0,0,1,4-4H590a4,4,0,0,1,4,4v270A4,4,0,0,1,590,644.7Zm-168.7-8H586v-262H421.3Z"/><rect class="cls-2" x="823.2" y="440.4" width="8" height="23.5"/><rect class="cls-2" x="795.1" y="440.4" width="8" height="23.5"/><rect class="cls-2" x="766.9" y="440.4" width="8" height="23.5"/><rect class="cls-2" x="738.7" y="440.4" width="8" height="23.5"/><rect class="cls-2" x="710.6" y="440.4" width="8" height="23.5"/><rect class="cls-2" x="682.4" y="440.4" width="8" height="23.5"/><rect class="cls-2" x="654.2" y="440.4" width="8" height="23.5"/><rect class="cls-2" x="626.1" y="440.4" width="8" height="23.5"/><rect class="cls-2" x="823.2" y="489.8" width="8" height="23.5"/><rect class="cls-2" x="795.1" y="489.8" width="8" height="23.5"/><rect class="cls-2" x="766.9" y="489.8" width="8" height="23.5"/><rect class="cls-2" x="738.7" y="489.8" width="8" height="23.5"/><rect class="cls-2" x="710.6" y="489.8" width="8" height="23.5"/><rect class="cls-2" x="682.4" y="489.8" width="8" height="23.5"/><rect class="cls-2" x="654.2" y="489.8" width="8" height="23.5"/><rect class="cls-2" x="626.1" y="489.8" width="8" height="23.5"/><rect class="cls-2" x="823.2" y="539.1" width="8" height="23.5"/><rect class="cls-2" x="795.1" y="539.1" width="8" height="23.5"/><rect class="cls-2" x="766.9" y="539.1" width="8" height="23.5"/><rect class="cls-2" x="738.7" y="539.1" width="8" height="23.5"/><rect class="cls-2" x="710.6" y="539.1" width="8" height="23.5"/><rect class="cls-2" x="682.4" y="539.1" width="8" height="23.5"/><rect class="cls-2" x="654.2" y="539.1" width="8" height="23.5"/><rect class="cls-2" x="626.1" y="539.1" width="8" height="23.5"/><rect class="cls-2" x="823.2" y="588.4" width="8" height="23.5"/><rect class="cls-2" x="795.1" y="588.4" width="8" height="23.5"/><rect class="cls-2" x="766.9" y="588.4" width="8" height="23.5"/><rect class="cls-2" x="738.7" y="588.4" width="8" height="23.5"/><rect class="cls-2" x="710.6" y="588.4" width="8" height="23.5"/><rect class="cls-2" x="682.4" y="588.4" width="8" height="23.5"/><rect class="cls-2" x="654.2" y="588.4" width="8" height="23.5"/><rect class="cls-2" x="626.1" y="588.4" width="8" height="23.5"/><rect class="cls-2" x="1049.7" y="490.1" width="8" height="23.5"/><rect class="cls-2" x="1021.6" y="490.1" width="8" height="23.5"/><rect class="cls-2" x="993.4" y="490.1" width="8" height="23.5"/><rect class="cls-2" x="965.2" y="490.1" width="8" height="23.5"/><rect class="cls-2" x="937.1" y="490.1" width="8" height="23.5"/><rect class="cls-2" x="908.9" y="490.1" width="8" height="23.5"/><rect class="cls-2" x="1049.7" y="539.4" width="8" height="23.5"/><rect class="cls-2" x="1021.6" y="539.4" width="8" height="23.5"/><rect class="cls-2" x="993.4" y="539.4" width="8" height="23.5"/><rect class="cls-2" x="965.2" y="539.4" width="8" height="23.5"/><rect class="cls-2" x="937.1" y="539.4" width="8" height="23.5"/><rect class="cls-2" x="908.9" y="539.4" width="8" height="23.5"/><rect class="cls-2" x="1049.7" y="588.8" width="8" height="23.5"/><rect class="cls-2" x="1021.6" y="588.8" width="8" height="23.5"/><rect class="cls-2" x="993.4" y="588.8" width="8" height="23.5"/><rect class="cls-2" x="965.2" y="588.8" width="8" height="23.5"/><rect class="cls-2" x="937.1" y="588.8" width="8" height="23.5"/><rect class="cls-2" x="908.9" y="588.8" width="8" height="23.5"/><rect class="cls-2" x="556" y="395.3" width="8" height="23.5"/><rect class="cls-2" x="527.8" y="395.3" width="8" height="23.5"/><rect class="cls-2" x="499.6" y="395.3" width="8" height="23.5"/><rect class="cls-2" x="471.5" y="395.3" width="8" height="23.5"/><rect class="cls-2" x="443.3" y="395.3" width="8" height="23.5"/><rect class="cls-2" x="556" y="444.6" width="8" height="23.5"/><rect class="cls-2" x="527.8" y="444.6" width="8" height="23.5"/><rect class="cls-2" x="499.6" y="444.6" width="8" height="23.5"/><rect class="cls-2" x="471.5" y="444.6" width="8" height="23.5"/><rect class="cls-2" x="443.3" y="444.6" width="8" height="23.5"/><rect class="cls-2" x="556" y="493.9" width="8" height="23.5"/><rect class="cls-2" x="527.8" y="493.9" width="8" height="23.5"/><rect class="cls-2" x="499.6" y="493.9" width="8" height="23.5"/><rect class="cls-2" x="471.5" y="493.9" width="8" height="23.5"/><rect class="cls-2" x="443.3" y="493.9" width="8" height="23.5"/><rect class="cls-2" x="556" y="543.3" width="8" height="23.5"/><rect class="cls-2" x="527.8" y="543.3" width="8" height="23.5"/><rect class="cls-2" x="499.6" y="543.3" width="8" height="23.5"/><rect class="cls-2" x="471.5" y="543.3" width="8" height="23.5"/><rect class="cls-2" x="443.3" y="543.3" width="8" height="23.5"/><rect class="cls-2" x="556" y="592.6" width="8" height="23.5"/><rect class="cls-2" x="527.8" y="592.6" width="8" height="23.5"/><rect class="cls-2" x="499.6" y="592.6" width="8" height="23.5"/><rect class="cls-2" x="471.5" y="592.6" width="8" height="23.5"/><rect class="cls-2" x="443.3" y="592.6" width="8" height="23.5"/><rect class="cls-2" x="1556.1" y="436.9" width="8" height="23.5"/><rect class="cls-2" x="1527.9" y="436.9" width="8" height="23.5"/><rect class="cls-2" x="1499.7" y="436.9" width="8" height="23.5"/><rect class="cls-2" x="1471.6" y="436.9" width="8" height="23.5"/><rect class="cls-2" x="1556.1" y="486.3" width="8" height="23.5"/><rect class="cls-2" x="1527.9" y="486.3" width="8" height="23.5"/><rect class="cls-2" x="1499.7" y="486.3" width="8" height="23.5"/><rect class="cls-2" x="1471.6" y="486.3" width="8" height="23.5"/><rect class="cls-2" x="1556.1" y="535.6" width="8" height="23.5"/><rect class="cls-2" x="1527.9" y="535.6" width="8" height="23.5"/><rect class="cls-2" x="1499.7" y="535.6" width="8" height="23.5"/><rect class="cls-2" x="1471.6" y="535.6" width="8" height="23.5"/><rect class="cls-2" x="1556.1" y="584.9" width="8" height="23.5"/><rect class="cls-2" x="1527.9" y="584.9" width="8" height="23.5"/><rect class="cls-2" x="1499.7" y="584.9" width="8" height="23.5"/><rect class="cls-2" x="1471.6" y="584.9" width="8" height="23.5"/><rect class="cls-2" x="2012.1" y="436.9" width="8" height="23.5"/><rect class="cls-2" x="1983.9" y="436.9" width="8" height="23.5"/><rect class="cls-2" x="1955.7" y="436.9" width="8" height="23.5"/><rect class="cls-2" x="1927.6" y="436.9" width="8" height="23.5"/><rect class="cls-2" x="2012.1" y="486.3" width="8" height="23.5"/><rect class="cls-2" x="1983.9" y="486.3" width="8" height="23.5"/><rect class="cls-2" x="1955.7" y="486.3" width="8" height="23.5"/><rect class="cls-2" x="1927.6" y="486.3" width="8" height="23.5"/><rect class="cls-2" x="2012.1" y="535.6" width="8" height="23.5"/><rect class="cls-2" x="1983.9" y="535.6" width="8" height="23.5"/><rect class="cls-2" x="1955.7" y="535.6" width="8" height="23.5"/><rect class="cls-2" x="1927.6" y="535.6" width="8" height="23.5"/><rect class="cls-2" x="2012.1" y="584.9" width="8" height="23.5"/><rect class="cls-2" x="1983.9" y="584.9" width="8" height="23.5"/><rect class="cls-2" x="1955.7" y="584.9" width="8" height="23.5"/><rect class="cls-2" x="1927.6" y="584.9" width="8" height="23.5"/><rect class="cls-2" x="1722.1" y="445.9" width="8" height="23.5"/><rect class="cls-2" x="1693.9" y="445.9" width="8" height="23.5"/><rect class="cls-2" x="1665.7" y="445.9" width="8" height="23.5"/><rect class="cls-2" x="1637.6" y="445.9" width="8" height="23.5"/><rect class="cls-2" x="1722.1" y="495.3" width="8" height="23.5"/><rect class="cls-2" x="1693.9" y="495.3" width="8" height="23.5"/><rect class="cls-2" x="1665.7" y="495.3" width="8" height="23.5"/><rect class="cls-2" x="1637.6" y="495.3" width="8" height="23.5"/><rect class="cls-2" x="1722.1" y="544.6" width="8" height="23.5"/><rect class="cls-2" x="1693.9" y="544.6" width="8" height="23.5"/><rect class="cls-2" x="1665.7" y="544.6" width="8" height="23.5"/><rect class="cls-2" x="1637.6" y="544.6" width="8" height="23.5"/><rect class="cls-2" x="1722.1" y="593.9" width="8" height="23.5"/><rect class="cls-2" x="1693.9" y="593.9" width="8" height="23.5"/><rect class="cls-2" x="1665.7" y="593.9" width="8" height="23.5"/><rect class="cls-2" x="1637.6" y="593.9" width="8" height="23.5"/><rect class="cls-2" x="2227.5" y="479.1" width="8" height="23.5"/><rect class="cls-2" x="2199.3" y="479.1" width="8" height="23.5"/><rect class="cls-2" x="2171.1" y="479.1" width="8" height="23.5"/><rect class="cls-2" x="2227.5" y="528.4" width="8" height="23.5"/><rect class="cls-2" x="2199.3" y="528.4" width="8" height="23.5"/><rect class="cls-2" x="2171.1" y="528.4" width="8" height="23.5"/><rect class="cls-2" x="2227.5" y="577.8" width="8" height="23.5"/><rect class="cls-2" x="2199.3" y="577.8" width="8" height="23.5"/><rect class="cls-2" x="2171.1" y="577.8" width="8" height="23.5"/><rect class="cls-2" x="2565.9" y="476.8" width="8" height="23.5"/><rect class="cls-2" x="2537.7" y="476.8" width="8" height="23.5"/><rect class="cls-2" x="2509.6" y="476.8" width="8" height="23.5"/><rect class="cls-2" x="2565.9" y="526.1" width="8" height="23.5"/><rect class="cls-2" x="2537.7" y="526.1" width="8" height="23.5"/><rect class="cls-2" x="2509.6" y="526.1" width="8" height="23.5"/><rect class="cls-2" x="2565.9" y="575.4" width="8" height="23.5"/><rect class="cls-2" x="2537.7" y="575.4" width="8" height="23.5"/><rect class="cls-2" x="2509.6" y="575.4" width="8" height="23.5"/><rect class="cls-2" x="2565.9" y="384.9" width="8" height="23.5"/><rect class="cls-2" x="2537.7" y="384.9" width="8" height="23.5"/><rect class="cls-2" x="2509.6" y="384.9" width="8" height="23.5"/><rect class="cls-2" x="1185" y="388.4" width="8" height="23.5"/><rect class="cls-2" x="1156.8" y="388.4" width="8" height="23.5"/><rect class="cls-2" x="1128.6" y="388.4" width="8" height="23.5"/><rect class="cls-2" x="1185" y="437.8" width="8" height="23.5"/><rect class="cls-2" x="1156.8" y="437.8" width="8" height="23.5"/><rect class="cls-2" x="1128.6" y="437.8" width="8" height="23.5"/><rect class="cls-2" x="1185" y="487.1" width="8" height="23.5"/><rect class="cls-2" x="1156.8" y="487.1" width="8" height="23.5"/><rect class="cls-2" x="1128.6" y="487.1" width="8" height="23.5"/><rect class="cls-2" x="1185" y="536.4" width="8" height="23.5"/><rect class="cls-2" x="1156.8" y="536.4" width="8" height="23.5"/><rect class="cls-2" x="1128.6" y="536.4" width="8" height="23.5"/><rect class="cls-2" x="1185" y="585.8" width="8" height="23.5"/><rect class="cls-2" x="1156.8" y="585.8" width="8" height="23.5"/><rect class="cls-2" x="1128.6" y="585.8" width="8" height="23.5"/><rect class="cls-2" x="1389.9" y="393.1" width="8" height="23.5"/><rect class="cls-2" x="1361.7" y="393.1" width="8" height="23.5"/><rect class="cls-2" x="1389.9" y="442.4" width="8" height="23.5"/><rect class="cls-2" x="1361.7" y="442.4" width="8" height="23.5"/><rect class="cls-2" x="1389.9" y="491.8" width="8" height="23.5"/><rect class="cls-2" x="1361.7" y="491.8" width="8" height="23.5"/><rect class="cls-2" x="1389.9" y="541.1" width="8" height="23.5"/><rect class="cls-2" x="1361.7" y="541.1" width="8" height="23.5"/><rect class="cls-2" x="1389.9" y="590.4" width="8" height="23.5"/><rect class="cls-2" x="1361.7" y="590.4" width="8" height="23.5"/><rect class="cls-2" x="1852.5" y="486.6" width="8" height="23.5"/><rect class="cls-2" x="1824.3" y="486.6" width="8" height="23.5"/><rect class="cls-2" x="1796.1" y="486.6" width="8" height="23.5"/><rect class="cls-2" x="1852.5" y="535.9" width="8" height="23.5"/><rect class="cls-2" x="1824.3" y="535.9" width="8" height="23.5"/><rect class="cls-2" x="1796.1" y="535.9" width="8" height="23.5"/><rect class="cls-2" x="1852.5" y="585.3" width="8" height="23.5"/><rect class="cls-2" x="1824.3" y="585.3" width="8" height="23.5"/><rect class="cls-2" x="1796.1" y="585.3" width="8" height="23.5"/><rect class="cls-2" x="2107.4" y="479.1" width="8" height="23.5"/><rect class="cls-2" x="2079.2" y="479.1" width="8" height="23.5"/><rect class="cls-2" x="2107.4" y="528.4" width="8" height="23.5"/><rect class="cls-2" x="2079.2" y="528.4" width="8" height="23.5"/><rect class="cls-2" x="2107.4" y="577.8" width="8" height="23.5"/><rect class="cls-2" x="2079.2" y="577.8" width="8" height="23.5"/><rect class="cls-2" x="2380.3" y="540.4" width="8" height="23.5"/><rect class="cls-2" x="2352.2" y="540.4" width="8" height="23.5"/><rect class="cls-2" x="2380.3" y="589.8" width="8" height="23.5"/><rect class="cls-2" x="2352.2" y="589.8" width="8" height="23.5"/><rect class="cls-2" x="2443.7" y="532.1" width="8" height="23.5"/><rect class="cls-2" x="2443.7" y="581.4" width="8" height="23.5"/><rect class="cls-1" x="2596.1" y="460.3" width="117.1" height="180.3"/><path class="cls-2" d="M2713.2,644.7H2596.1a4,4,0,0,1-4-4V460.3a4,4,0,0,1,4-4h117.1a4,4,0,0,1,4,4V640.6A4,4,0,0,1,2713.2,644.7Zm-113.1-8h109.1V464.3H2600.1Z"/><polygon class="cls-1" points="2713.2 460.3 2596.1 460.3 2610.9 412.3 2698.5 412.3 2713.2 460.3"/><path class="cls-2" d="M2713.2,464.3H2596.1a3.89,3.89,0,0,1-3.2-1.6,3.83,3.83,0,0,1-.6-3.6l14.8-48a4,4,0,0,1,3.8-2.8h87.6a3.87,3.87,0,0,1,3.8,2.8l14.8,48a4,4,0,0,1-3.9,5.2Zm-111.7-8h106.3l-12.3-40h-81.7Z"/><rect class="cls-1" x="2675.4" y="513" width="75.6" height="127.7"/><path class="cls-2" d="M2751,644.7h-75.6a4,4,0,0,1-4-4V513a4,4,0,0,1,4-4H2751a4,4,0,0,1,4,4V640.7A4,4,0,0,1,2751,644.7Zm-71.6-8H2747V517h-67.6Z"/><polygon class="cls-1" points="2675.4 513 2751 513 2713.2 445.7 2675.4 513"/><path class="cls-2" d="M2751,517h-75.6a4.29,4.29,0,0,1-3.5-2,4.07,4.07,0,0,1,0-4l37.8-67.3a3.84,3.84,0,0,1,3.5-2,4,4,0,0,1,3.5,2l37.8,67.3a4,4,0,0,1-3.5,6Zm-68.8-8h61.9l-31-55.2Z"/><rect class="cls-1" x="2596.1" y="496.3" width="79.3" height="144.3"/><path class="cls-2" d="M2675.4,644.7h-79.3a4,4,0,0,1-4-4V496.3a4,4,0,0,1,4-4h79.3a4,4,0,0,1,4,4V640.6A4,4,0,0,1,2675.4,644.7Zm-75.3-8h71.3V500.3h-71.3Z"/><rect class="cls-2" x="2695.1" y="540.4" width="8" height="23.5"/><rect class="cls-2" x="2723.3" y="540.4" width="8" height="23.5"/><rect class="cls-2" x="2695.1" y="589.8" width="8" height="23.5"/><rect class="cls-2" x="2723.3" y="589.8" width="8" height="23.5"/><rect class="cls-2" x="2631.8" y="532.1" width="8" height="23.5"/><rect class="cls-2" x="2631.8" y="581.4" width="8" height="23.5"/><rect class="cls-2" x="2295.9" y="501.8" width="8" height="23.5"/><rect class="cls-2" x="2295.9" y="551.1" width="8" height="23.5"/><rect class="cls-2" x="2295.9" y="600.4" width="8" height="23.5"/><rect class="cls-2" x="1284.9" y="426.8" width="8" height="23.5"/><rect class="cls-2" x="1256.7" y="426.8" width="8" height="23.5"/><rect class="cls-2" x="1284.9" y="476.1" width="8" height="23.5"/><rect class="cls-2" x="1256.7" y="476.1" width="8" height="23.5"/><rect class="cls-2" x="1284.9" y="525.4" width="8" height="23.5"/><rect class="cls-2" x="1256.7" y="525.4" width="8" height="23.5"/><rect class="cls-2" x="1284.9" y="574.8" width="8" height="23.5"/><rect class="cls-2" x="1256.7" y="574.8" width="8" height="23.5"/><path class="cls-3" d="M2713,466.2a36.83,36.83,0,0,0-18.4,4.8,38,38,0,0,0-75.2,7.6c0,1.1.1,2.1.1,3.1a38.17,38.17,0,0,0-34.3,2.1,38.13,38.13,0,0,0-32-17.5,34.11,34.11,0,0,0-8.5,1v-1a38,38,0,0,0-75.3-7.4,37.07,37.07,0,0,0-14.9-3,38.11,38.11,0,0,0-30,14.7,38.11,38.11,0,0,0-30-14.7,36.43,36.43,0,0,0-11.5,1.8v-1.8a38,38,0,0,0-76,0v1a39.54,39.54,0,0,0-8.5-1,38,38,0,0,0-38,38,36.7,36.7,0,0,0,2.1,12.4,39,39,0,0,0-11.9-1.9,38.12,38.12,0,0,0-27.8,12.1,38,38,0,0,0-72.7,15.4,37.9,37.9,0,0,0-25.3,9.7,38,38,0,0,0-75.3,7.3,37.84,37.84,0,0,0-23.1,7.8,38.12,38.12,0,0,0-45.6-16.9,38,38,0,0,0-75.4-5.2c-.2,1-.3,2.1-.4,3.1a37.08,37.08,0,0,0-14.4-5.6,37.7,37.7,0,0,0-19.8,1.9,37.92,37.92,0,0,0-28.6-22.6,41.81,41.81,0,0,0-8.6-.5c.1-.3.1-.6.2-1a38,38,0,0,0-73-19.9,38.27,38.27,0,0,0-14.2-5.5,37.81,37.81,0,0,0-32,9.5,38.47,38.47,0,0,0-7.8-10.1,38,38,0,1,0-54.2-53,46.13,46.13,0,0,0-7.5-2.1,38,38,0,0,0-43.8,31.1,3.08,3.08,0,0,0-.1,1,37,37,0,0,0-8.2-2.4,37.94,37.94,0,0,0-43.8,43.7,39.41,39.41,0,0,0-11.4-3.9,37.92,37.92,0,0,0-29.4,7.3,38.06,38.06,0,0,0-30.4-28.1,37.34,37.34,0,0,0-28.7,6.8,38,38,0,0,0-71-6.4,17,17,0,0,0-2.2-.4,38,38,0,0,0-43.8,31.1,37.73,37.73,0,0,0-29.7,7.5,38,38,0,0,0-62.5,10.2,37.93,37.93,0,0,0-20.5-10.6,33.48,33.48,0,0,0-7-.5c0-.2.1-.4.1-.6a38,38,0,0,0-69.7-26.5,38.5,38.5,0,0,0-13.8-5.3,38,38,0,0,0-43.8,31.1,34.52,34.52,0,0,0-.5,6.4,38.35,38.35,0,0,0-19.2,5.2,37.85,37.85,0,0,0-31-30.6,37.19,37.19,0,0,0-22.5,3.1,38,38,0,0,0-75.4-6.3,40.39,40.39,0,0,0-.5,7.7,35.89,35.89,0,0,0-3.5-.8,38,38,0,0,0-43.8,31.1,39.72,39.72,0,0,0-.1,12.4,37.56,37.56,0,0,0-23.5,7.8A37.54,37.54,0,0,0,839.9,533a38,38,0,0,0-43.8,30.7,38.32,38.32,0,0,0-13-4.8,39.36,39.36,0,0,0-7.6-.5,38,38,0,0,0-72.7-15.6c-.3-.1-.6-.1-.9-.2a38.06,38.06,0,0,0-28.6,6.6,38,38,0,0,0-75.2-2.4A38.47,38.47,0,0,0,598,559a38.08,38.08,0,0,0-30.4,39.1,45.56,45.56,0,0,0-5.3-1.3,37.68,37.68,0,0,0-28.8,6.8,38.08,38.08,0,0,0-62.7-11.8,37.81,37.81,0,0,0-24.5-20.2,37.95,37.95,0,0,0-75.3-4,34.52,34.52,0,0,0-.5,6.4,39,39,0,0,0-19.3,5.2,38,38,0,0,0-71.4,23.7h-.6V870H2751V504.2A38,38,0,0,0,2713,466.2Z"/><path class="cls-2" d="M2751,874H278.7a4,4,0,0,1-4-4V602.4a4.15,4.15,0,0,1,.3-1.6,42,42,0,0,1,77.2-27.6,42.13,42.13,0,0,1,13.9-3.7,31.06,31.06,0,0,1,.4-3.2,42,42,0,0,1,83,1.5,41.44,41.44,0,0,1,21.7,16.9A42,42,0,0,1,534.5,597a41.91,41.91,0,0,1,27.8-4.9c.2,0,.5.1.7.1.1-1.3.3-2.5.5-3.8A42.18,42.18,0,0,1,593,555.2a41.14,41.14,0,0,1,.5-9.9,42,42,0,0,1,82-3.5,41.92,41.92,0,0,1,24.4-4.4,42,42,0,0,1,78.8,16c1.5.1,3,.3,4.5.5a39.48,39.48,0,0,1,9.6,2.9,42,42,0,0,1,73-13.4,41.9,41.9,0,0,1,18.1-6.1,40.3,40.3,0,0,1,.5-9.2,42,42,0,0,1,47.4-34.5c.1-1.2.2-2.3.4-3.5a42,42,0,0,1,83,1.2,42,42,0,0,1,52.6,27.5,42.35,42.35,0,0,1,12.7-3.2,31.06,31.06,0,0,1,.4-3.2,42.15,42.15,0,0,1,60.4-30.4,42,42,0,0,1,75.3,28.6c1.1.1,2.1.2,3.2.4a42.61,42.61,0,0,1,18.7,8.2,42,42,0,0,1,64.1-9,42.47,42.47,0,0,1,26.2-6.7,42.09,42.09,0,0,1,47-30.8,42.28,42.28,0,0,1,43.6-20.7,41.83,41.83,0,0,1,31.8,25.5,42,42,0,0,1,59.2,21.2,42.35,42.35,0,0,1,27.9-5,43.38,43.38,0,0,1,6.2,1.6,41.36,41.36,0,0,1,.6-7,42.14,42.14,0,0,1,48.4-34.4c1.5.3,3.1.6,4.6,1a42.08,42.08,0,0,1,47.7-30.7,36.49,36.49,0,0,1,5.7,1.4,42,42,0,0,1,71.1,36.7,41.32,41.32,0,0,1-10.1,21,32.17,32.17,0,0,1,3.2,4.1,41.89,41.89,0,0,1,31.7-7.4,43.34,43.34,0,0,1,11.7,3.8,42,42,0,0,1,79.2,22.5c1.6.1,3.1.3,4.6.5a41.63,41.63,0,0,1,30,21.7,41.87,41.87,0,0,1,18.3-1,40.23,40.23,0,0,1,10.7,3.3,42,42,0,0,1,82.5,3.1,41.53,41.53,0,0,1,16.1-.4,42.07,42.07,0,0,1,27,16.8,41.76,41.76,0,0,1,18.1-6A42,42,0,0,1,2127,534a41,41,0,0,1,19.2-6.7,42,42,0,0,1,77.6-18.1,42.39,42.39,0,0,1,26.7-9.6,44.82,44.82,0,0,1,6.4.5,40.49,40.49,0,0,1-.6-7,42,42,0,0,1,42-42,37.08,37.08,0,0,1,4.7.3,42,42,0,0,1,83.7.4,39.09,39.09,0,0,1,7.6-.7,41.65,41.65,0,0,1,30,12.6,41.65,41.65,0,0,1,30-12.6,40.75,40.75,0,0,1,12.1,1.8,42,42,0,0,1,81.8,9,37.08,37.08,0,0,1,4.7-.3,41.68,41.68,0,0,1,33.2,16.3,42.53,42.53,0,0,1,17.9-4,41.28,41.28,0,0,1,11.1,1.5,42,42,0,0,1,81.8-10.7,42.75,42.75,0,0,1,15.8-3.1,42,42,0,0,1,42,42V870A3.6,3.6,0,0,1,2751,874ZM282.7,866H2747V504.2a34,34,0,0,0-50.5-29.7,3.83,3.83,0,0,1-3.6.1,3.7,3.7,0,0,1-2.2-2.8,34,34,0,0,0-67.3,6.8,27.15,27.15,0,0,0,.1,2.8,4,4,0,0,1-1.7,3.6,3.89,3.89,0,0,1-3.9.4,33,33,0,0,0-13.5-2.8,34,34,0,0,0-17.1,4.6,4,4,0,0,1-5.4-1.3,33.94,33.94,0,0,0-28.6-15.7,32.88,32.88,0,0,0-7.6.9,3.78,3.78,0,0,1-3.4-.8,4.07,4.07,0,0,1-1.5-3.2v-.9a34,34,0,0,0-67.3-6.7,4,4,0,0,1-2.1,2.8,3.71,3.71,0,0,1-3.4.1,34,34,0,0,0-40.1,10.4,3.93,3.93,0,0,1-3.2,1.5,4.25,4.25,0,0,1-3.2-1.5,33.63,33.63,0,0,0-26.8-13.1,32.61,32.61,0,0,0-10.3,1.6,3.88,3.88,0,0,1-3.6-.6,4.42,4.42,0,0,1-1.6-3.4v-1.6a34,34,0,1,0-68,0v.9a4.07,4.07,0,0,1-1.5,3.2,3.85,3.85,0,0,1-3.4.8,32.88,32.88,0,0,0-7.6-.9,34.1,34.1,0,0,0-34,34,32.39,32.39,0,0,0,1.9,11.1,4.13,4.13,0,0,1-.9,4.1,4,4,0,0,1-4.1,1,34.73,34.73,0,0,0-10.7-1.7A33.83,33.83,0,0,0,2226,519a4,4,0,0,1-3.6,1.2,4.13,4.13,0,0,1-3-2.3,34,34,0,0,0-65.1,13.8,4,4,0,0,1-4,4,34,34,0,0,0-22.6,8.6,3.78,3.78,0,0,1-3.9.8,4.29,4.29,0,0,1-2.7-3,34,34,0,0,0-67.4,6.6,4,4,0,0,1-4,4,33.31,33.31,0,0,0-20.6,7,3.7,3.7,0,0,1-3.2.7,4,4,0,0,1-2.7-1.9,34.15,34.15,0,0,0-40.8-15.2,4.2,4.2,0,0,1-3.6-.5,3.73,3.73,0,0,1-1.7-3.2,34,34,0,0,0-67.5-4.6,21.86,21.86,0,0,0-.3,2.8,4,4,0,0,1-2.2,3.2,4.13,4.13,0,0,1-3.9-.2,31.35,31.35,0,0,0-12.9-5,34.42,34.42,0,0,0-17.7,1.7,4,4,0,0,1-5.1-2.2,34.13,34.13,0,0,0-25.6-20.3,32.9,32.9,0,0,0-7.7-.4,3.7,3.7,0,0,1-3.2-1.4,4.15,4.15,0,0,1-.9-3.4l.1-.4c0-.2.1-.3.1-.5a34,34,0,0,0-27.8-39.2,34.2,34.2,0,0,0-37.5,21.4,4,4,0,0,1-2.5,2.4,4.08,4.08,0,0,1-3.4-.4,34.06,34.06,0,0,0-41.4,3.6,4.21,4.21,0,0,1-3.4,1,4.16,4.16,0,0,1-2.9-2.1,34.08,34.08,0,0,0-7-9,4.16,4.16,0,0,1-1.3-3,3.77,3.77,0,0,1,1.3-2.9,34,34,0,1,0-48.4-47.5,4,4,0,0,1-4.5,1.1,31.9,31.9,0,0,0-6.7-1.9,34,34,0,0,0-39.2,27.8c0,.2-.1.3-.1.5v.3a4,4,0,0,1-2,2.9,3.94,3.94,0,0,1-3.5.2,32.74,32.74,0,0,0-7.4-2.1,34,34,0,0,0-39.2,27.8,35.69,35.69,0,0,0,0,11.3,4.17,4.17,0,0,1-1.6,3.9,4,4,0,0,1-4.2.3,33.78,33.78,0,0,0-36.5,3,4.12,4.12,0,0,1-3.7.6,4.06,4.06,0,0,1-2.6-2.8,34,34,0,0,0-52.9-19.1,3.78,3.78,0,0,1-3.7.5,4,4,0,0,1-2.5-2.7,33.94,33.94,0,0,0-63.5-5.7,4,4,0,0,1-4.5,2.2c-.7-.1-1.3-.3-2-.4a34,34,0,0,0-39.2,27.8,4,4,0,0,1-4.6,3.3,33.87,33.87,0,0,0-26.6,6.7,4,4,0,0,1-5.4-.4,33.51,33.51,0,0,0-19.2-10.4,34,34,0,0,0-36.7,19.5,3.81,3.81,0,0,1-2.9,2.3,4.06,4.06,0,0,1-3.5-1.1,33.81,33.81,0,0,0-18.3-9.5,43.42,43.42,0,0,0-6.3-.5,4.1,4.1,0,0,1-3.1-1.4,3.93,3.93,0,0,1-.9-3.3l.1-.5a34,34,0,0,0-62.3-23.7,4.52,4.52,0,0,1-2.5,1.8,4,4,0,0,1-3-.5,32.86,32.86,0,0,0-12.4-4.7,34,34,0,0,0-39.2,27.8,36.57,36.57,0,0,0-.5,5.7,3.63,3.63,0,0,1-1.2,2.8,4.2,4.2,0,0,1-2.8,1.2h-.1a33.35,33.35,0,0,0-17.1,4.7,4,4,0,0,1-6-2.7,34.15,34.15,0,0,0-27.8-27.4,33.47,33.47,0,0,0-20.2,2.8,4,4,0,0,1-3.8-.2,3.9,3.9,0,0,1-1.9-3.4,34,34,0,0,0-67.5-5.6,40.06,40.06,0,0,0-.5,6.9,4.13,4.13,0,0,1-1.5,3.3,3.72,3.72,0,0,1-3.5.7c-1.1-.3-2.1-.5-3.1-.7A34,34,0,0,0,893,530a37.55,37.55,0,0,0-.1,11.1,4,4,0,0,1-.9,3.2,4.1,4.1,0,0,1-3.1,1.4,34,34,0,0,0-21,7,3.95,3.95,0,0,1-5.8-1A34,34,0,0,0,800,564a3.81,3.81,0,0,1-2.3,2.9,4,4,0,0,1-3.7-.2,34.6,34.6,0,0,0-11.6-4.3,39.64,39.64,0,0,0-6.8-.5,4.36,4.36,0,0,1-2.9-1.1,4,4,0,0,1-1.2-2.9,34,34,0,0,0-65-13.9,4,4,0,0,1-4.4,2.3l-.3-.1c-.2,0-.3-.1-.5-.1a34.34,34.34,0,0,0-25.6,5.9,4.1,4.1,0,0,1-4,.4,3.86,3.86,0,0,1-2.3-3.2,34,34,0,0,0-67.3-2.1A36.21,36.21,0,0,0,602,558a4,4,0,0,1-3.2,4.5A34.37,34.37,0,0,0,572,590.1a30.39,30.39,0,0,0-.4,7.4,3.87,3.87,0,0,1-1.6,3.4,4,4,0,0,1-3.7.6,46.41,46.41,0,0,0-4.7-1.2,34.11,34.11,0,0,0-25.7,6,3.82,3.82,0,0,1-3.4.6,4,4,0,0,1-2.6-2.3,33.91,33.91,0,0,0-56-10.5,4.12,4.12,0,0,1-3.5,1.2,4,4,0,0,1-3-2.2A33.94,33.94,0,0,0,445.5,575a3.94,3.94,0,0,1-3-3.6,34,34,0,0,0-67.4-3.6,36.57,36.57,0,0,0-.5,5.7,3.63,3.63,0,0,1-1.2,2.8,4.2,4.2,0,0,1-2.8,1.2h-.1a33.7,33.7,0,0,0-17.2,4.7,4,4,0,0,1-5.6-1.6,34,34,0,0,0-63.9,9.5,35.34,35.34,0,0,0,0,11.7,3.86,3.86,0,0,1-.5,2.8V866Z"/><path class="cls-4" d="M2713,553.2a36.83,36.83,0,0,0-18.4,4.8,38,38,0,0,0-75.2,7.6c0,1.1.1,2.1.1,3.1a38.17,38.17,0,0,0-34.3,2.1,38.13,38.13,0,0,0-32-17.5,34.11,34.11,0,0,0-8.5,1v-1a38,38,0,0,0-75.3-7.4,37.07,37.07,0,0,0-14.9-3,38.11,38.11,0,0,0-30,14.7,38.11,38.11,0,0,0-30-14.7,36.43,36.43,0,0,0-11.5,1.8v-1.8a38,38,0,0,0-76,0v1a39.54,39.54,0,0,0-8.5-1,38,38,0,0,0-38,38,36.7,36.7,0,0,0,2.1,12.4,39,39,0,0,0-11.9-1.9,38.12,38.12,0,0,0-27.8,12.1,38,38,0,0,0-72.7,15.4,37.9,37.9,0,0,0-25.3,9.7,38,38,0,0,0-75.3,7.3,37.84,37.84,0,0,0-23.1,7.8,38.12,38.12,0,0,0-45.6-16.9,38,38,0,0,0-75.4-5.2c-.2,1-.3,2.1-.4,3.1a37.08,37.08,0,0,0-14.4-5.6,37.7,37.7,0,0,0-19.8,1.9,37.92,37.92,0,0,0-28.6-22.6,41.81,41.81,0,0,0-8.6-.5c.1-.3.1-.6.2-1a38,38,0,0,0-73-19.9,38.27,38.27,0,0,0-14.2-5.5,37.81,37.81,0,0,0-32,9.5,38.47,38.47,0,0,0-7.8-10.1,38,38,0,1,0-54.2-53,46.13,46.13,0,0,0-7.5-2.1,38,38,0,0,0-43.8,31.1,3.08,3.08,0,0,0-.1,1,37,37,0,0,0-8.2-2.4,37.94,37.94,0,0,0-43.8,43.7,39.41,39.41,0,0,0-11.4-3.9,37.92,37.92,0,0,0-29.4,7.3,38.06,38.06,0,0,0-30.4-28.1,37.34,37.34,0,0,0-28.7,6.8,38,38,0,0,0-71-6.4,17,17,0,0,0-2.2-.4,38,38,0,0,0-43.8,31.1,37.73,37.73,0,0,0-29.7,7.5,38,38,0,0,0-62.5,10.2,37.93,37.93,0,0,0-20.5-10.6,33.48,33.48,0,0,0-7-.5c0-.2.1-.4.1-.6a38,38,0,0,0-69.7-26.5,38.5,38.5,0,0,0-13.8-5.3,38,38,0,0,0-43.8,31.1,34.52,34.52,0,0,0-.5,6.4,38.35,38.35,0,0,0-19.2,5.2,37.85,37.85,0,0,0-31-30.6,37.19,37.19,0,0,0-22.5,3.1,38,38,0,0,0-75.4-6.3,40.39,40.39,0,0,0-.5,7.7,35.89,35.89,0,0,0-3.5-.8,38,38,0,0,0-43.8,31.1,39.72,39.72,0,0,0-.1,12.4,37.56,37.56,0,0,0-23.5,7.8A37.54,37.54,0,0,0,839.9,620a38,38,0,0,0-43.8,30.7,38.32,38.32,0,0,0-13-4.8,39.36,39.36,0,0,0-7.6-.5,38,38,0,0,0-72.7-15.6c-.3-.1-.6-.1-.9-.2a38.06,38.06,0,0,0-28.6,6.6,38,38,0,0,0-75.2-2.4A38.47,38.47,0,0,0,598,646a38.08,38.08,0,0,0-30.4,39.1,45.56,45.56,0,0,0-5.3-1.3,37.68,37.68,0,0,0-28.8,6.8,38.08,38.08,0,0,0-62.7-11.8,37.81,37.81,0,0,0-24.5-20.2,37.95,37.95,0,0,0-75.3-4,34.52,34.52,0,0,0-.5,6.4,39,39,0,0,0-19.3,5.2,38,38,0,0,0-71.4,23.7h-.6V870H2751V591.2A38,38,0,0,0,2713,553.2Z"/><path class="cls-2" d="M2751,874H278.7a4,4,0,0,1-4-4V689.3a4.15,4.15,0,0,1,.3-1.6,41.69,41.69,0,0,1,.3-12.2,42,42,0,0,1,76.9-15.4,42.13,42.13,0,0,1,13.9-3.7,31.06,31.06,0,0,1,.4-3.2,42,42,0,0,1,83,1.5,41.44,41.44,0,0,1,21.7,16.9,42,42,0,0,1,63.3,12.3,41.91,41.91,0,0,1,27.8-4.9c.2,0,.5.1.7.1.1-1.3.3-2.5.5-3.8A42.18,42.18,0,0,1,593,642.1a41.14,41.14,0,0,1,.5-9.9,42,42,0,0,1,82-3.5,41.92,41.92,0,0,1,24.4-4.4,42,42,0,0,1,78.8,16c1.5.1,3,.3,4.5.5a39.48,39.48,0,0,1,9.6,2.9,42,42,0,0,1,73-13.4,41.9,41.9,0,0,1,18.1-6.1,40.3,40.3,0,0,1,.5-9.2,42,42,0,0,1,47.4-34.5c.1-1.2.2-2.3.4-3.5a42,42,0,0,1,83,1.2,42,42,0,0,1,52.6,27.5,42.35,42.35,0,0,1,12.7-3.2,31.06,31.06,0,0,1,.4-3.2,42.15,42.15,0,0,1,60.4-30.4,42,42,0,0,1,75.3,28.6c1.1.1,2.1.2,3.2.4a42.61,42.61,0,0,1,18.7,8.2,42,42,0,0,1,64.1-9,42.47,42.47,0,0,1,26.2-6.7,42.09,42.09,0,0,1,47-30.8,42.28,42.28,0,0,1,43.6-20.7,41.83,41.83,0,0,1,31.8,25.5,42,42,0,0,1,59.2,21.2,42.35,42.35,0,0,1,27.9-5,43.38,43.38,0,0,1,6.2,1.6,41.36,41.36,0,0,1,.6-7,42.14,42.14,0,0,1,48.4-34.4c1.5.3,3.1.6,4.6,1a42.08,42.08,0,0,1,47.7-30.7,36.49,36.49,0,0,1,5.7,1.4,42,42,0,0,1,71.1,36.7,41.32,41.32,0,0,1-10.1,21,32.17,32.17,0,0,1,3.2,4.1,41.89,41.89,0,0,1,31.7-7.4,43.34,43.34,0,0,1,11.7,3.8,42,42,0,0,1,71.6-5.1,41.36,41.36,0,0,1,7.6,27.6c1.6.1,3.1.3,4.6.5a41.63,41.63,0,0,1,30,21.7,41.87,41.87,0,0,1,18.3-1,40.23,40.23,0,0,1,10.7,3.3,42,42,0,0,1,82.5,3.1,41.53,41.53,0,0,1,16.1-.4,42.07,42.07,0,0,1,27,16.8,41.76,41.76,0,0,1,18.1-6,42,42,0,0,1,81.4-10.3,41,41,0,0,1,19.2-6.7,42,42,0,0,1,77.6-18.1,42.39,42.39,0,0,1,26.7-9.6,44.82,44.82,0,0,1,6.4.5,40.49,40.49,0,0,1-.6-7,42,42,0,0,1,42-42,37.08,37.08,0,0,1,4.7.3,42,42,0,0,1,83.7.4,39.09,39.09,0,0,1,7.6-.7,41.65,41.65,0,0,1,30,12.6,41.65,41.65,0,0,1,30-12.6,40.75,40.75,0,0,1,12.1,1.8,42,42,0,0,1,81.8,9,37.08,37.08,0,0,1,4.7-.3,41.68,41.68,0,0,1,33.2,16.3,42.53,42.53,0,0,1,17.9-4,41.28,41.28,0,0,1,11.1,1.5,42,42,0,0,1,81.8-10.7,42.75,42.75,0,0,1,15.8-3.1,42,42,0,0,1,42,42V870A3.6,3.6,0,0,1,2751,874ZM282.7,866H2747V591.2a34,34,0,0,0-50.5-29.7,3.83,3.83,0,0,1-3.6.1,3.7,3.7,0,0,1-2.2-2.8,34,34,0,0,0-67.3,6.8,27.15,27.15,0,0,0,.1,2.8,4,4,0,0,1-1.7,3.6,3.89,3.89,0,0,1-3.9.4,33,33,0,0,0-13.5-2.8,34,34,0,0,0-17.1,4.6,4,4,0,0,1-5.4-1.3,33.94,33.94,0,0,0-28.6-15.7,32.88,32.88,0,0,0-7.6.9,3.78,3.78,0,0,1-3.4-.8,4.07,4.07,0,0,1-1.5-3.2v-.9a34,34,0,0,0-67.3-6.7,4,4,0,0,1-2.1,2.8,3.71,3.71,0,0,1-3.4.1,34,34,0,0,0-40.1,10.4,3.93,3.93,0,0,1-3.2,1.5,4.25,4.25,0,0,1-3.2-1.5,33.63,33.63,0,0,0-26.8-13.1,32.61,32.61,0,0,0-10.3,1.6,3.88,3.88,0,0,1-3.6-.6,4.42,4.42,0,0,1-1.6-3.4v-1.6a34,34,0,0,0-68,0v.9a4.07,4.07,0,0,1-1.5,3.2,3.85,3.85,0,0,1-3.4.8,32.88,32.88,0,0,0-7.6-.9,34.1,34.1,0,0,0-34,34,32.39,32.39,0,0,0,1.9,11.1,4.13,4.13,0,0,1-.9,4.1,3.91,3.91,0,0,1-4.1,1,34.73,34.73,0,0,0-10.7-1.7A33.83,33.83,0,0,0,2226,606a4,4,0,0,1-3.6,1.2,4.13,4.13,0,0,1-3-2.3,34,34,0,0,0-65.1,13.8,4,4,0,0,1-4,4,34,34,0,0,0-22.6,8.6,3.78,3.78,0,0,1-3.9.8,4.09,4.09,0,0,1-2.7-3,34,34,0,0,0-67.4,6.6,4,4,0,0,1-4,4,33.31,33.31,0,0,0-20.6,7,3.7,3.7,0,0,1-3.2.7,4,4,0,0,1-2.7-1.9,34.15,34.15,0,0,0-40.8-15.2,4.2,4.2,0,0,1-3.6-.5,3.73,3.73,0,0,1-1.7-3.2,34,34,0,0,0-67.5-4.6,21.86,21.86,0,0,0-.3,2.8,4,4,0,0,1-2.2,3.2,4.13,4.13,0,0,1-3.9-.2,31.35,31.35,0,0,0-12.9-5,34.42,34.42,0,0,0-17.7,1.7,4,4,0,0,1-5.1-2.2,34.13,34.13,0,0,0-25.6-20.3,32.9,32.9,0,0,0-7.7-.4,3.7,3.7,0,0,1-3.2-1.4,4.15,4.15,0,0,1-.9-3.4l.1-.4c0-.2.1-.3.1-.5a34,34,0,0,0-27.8-39.2,34.2,34.2,0,0,0-37.5,21.4,4,4,0,0,1-2.5,2.4,4.08,4.08,0,0,1-3.4-.4,34.06,34.06,0,0,0-41.4,3.6,4.21,4.21,0,0,1-3.4,1,4.16,4.16,0,0,1-2.9-2.1,34.08,34.08,0,0,0-7-9,4.11,4.11,0,0,1-1.3-2.9,3.93,3.93,0,0,1,1.3-2.9,34,34,0,1,0-48.4-47.5,4,4,0,0,1-4.5,1.1,31.9,31.9,0,0,0-6.7-1.9,34,34,0,0,0-39.2,27.8c0,.2-.1.3-.1.5v.3a4,4,0,0,1-2,2.9,3.94,3.94,0,0,1-3.5.2,32.74,32.74,0,0,0-7.4-2.1,34,34,0,0,0-39.2,27.8,35.69,35.69,0,0,0,0,11.3,4.17,4.17,0,0,1-1.6,3.9,4,4,0,0,1-4.2.3,33.78,33.78,0,0,0-36.5,3,4.12,4.12,0,0,1-3.7.6,4.06,4.06,0,0,1-2.6-2.8,34,34,0,0,0-52.9-19.1,3.78,3.78,0,0,1-3.7.5,4,4,0,0,1-2.5-2.7,33.94,33.94,0,0,0-63.5-5.7,4,4,0,0,1-4.5,2.2c-.7-.1-1.3-.3-2-.4a34,34,0,0,0-39.2,27.8,4,4,0,0,1-4.6,3.3,33.87,33.87,0,0,0-26.6,6.7,4,4,0,0,1-5.4-.4,33.51,33.51,0,0,0-19.2-10.4,34,34,0,0,0-36.7,19.5,3.81,3.81,0,0,1-2.9,2.3,4.06,4.06,0,0,1-3.5-1.1,33.81,33.81,0,0,0-18.3-9.5,43.42,43.42,0,0,0-6.3-.5,4.1,4.1,0,0,1-3.1-1.4,3.93,3.93,0,0,1-.9-3.3l.1-.5a34,34,0,0,0-62.3-23.7,4.52,4.52,0,0,1-2.5,1.8,4,4,0,0,1-3-.5,32.86,32.86,0,0,0-12.4-4.7,34,34,0,0,0-39.2,27.8,36.57,36.57,0,0,0-.5,5.7,3.63,3.63,0,0,1-1.2,2.8,4.2,4.2,0,0,1-2.8,1.2h-.1a33.35,33.35,0,0,0-17.1,4.7,4,4,0,0,1-6-2.7,34.15,34.15,0,0,0-27.8-27.4,33.47,33.47,0,0,0-20.2,2.8,4,4,0,0,1-3.8-.2,3.9,3.9,0,0,1-1.9-3.4,34,34,0,0,0-67.5-5.6,40.06,40.06,0,0,0-.5,6.9,4.13,4.13,0,0,1-1.5,3.3,3.72,3.72,0,0,1-3.5.7c-1.1-.3-2.1-.5-3.1-.7A34,34,0,0,0,893,617.1a37.55,37.55,0,0,0-.1,11.1,4,4,0,0,1-.9,3.2,4.1,4.1,0,0,1-3.1,1.4,34,34,0,0,0-21,7,3.95,3.95,0,0,1-5.8-1A34,34,0,0,0,800,651.1a3.81,3.81,0,0,1-2.3,2.9,4,4,0,0,1-3.7-.2,34.6,34.6,0,0,0-11.6-4.3,39.64,39.64,0,0,0-6.8-.5,4.36,4.36,0,0,1-2.9-1.1,3.85,3.85,0,0,1-1.2-2.9,34,34,0,0,0-65-13.9,4,4,0,0,1-4.4,2.3l-.3-.1c-.2,0-.3-.1-.5-.1a34.34,34.34,0,0,0-25.6,5.9,4.1,4.1,0,0,1-4,.4,3.86,3.86,0,0,1-2.3-3.2,34,34,0,0,0-67.3-2.1,36.21,36.21,0,0,0-.1,10.9,4,4,0,0,1-3.2,4.5A34.37,34.37,0,0,0,572,677.2a30.39,30.39,0,0,0-.4,7.4A3.87,3.87,0,0,1,570,688a4,4,0,0,1-3.7.6,46.41,46.41,0,0,0-4.7-1.2,34.11,34.11,0,0,0-25.7,6,4.15,4.15,0,0,1-3.4.6,4,4,0,0,1-2.6-2.3,33.91,33.91,0,0,0-56-10.5,4.12,4.12,0,0,1-3.5,1.2,4,4,0,0,1-3-2.2,33.94,33.94,0,0,0-21.9-18.1,3.94,3.94,0,0,1-3-3.6,34,34,0,0,0-67.4-3.6,36.57,36.57,0,0,0-.5,5.7,3.63,3.63,0,0,1-1.2,2.8,4.2,4.2,0,0,1-2.8,1.2h-.1a33.7,33.7,0,0,0-17.2,4.7,4,4,0,0,1-5.6-1.6,34,34,0,0,0-63.9,9.5,35.34,35.34,0,0,0,0,11.7,3.86,3.86,0,0,1-.5,2.8V866Z"/><rect class="cls-5" x="305" y="724.4" width="117.1" height="180.3"/><path class="cls-2" d="M422.1,908.7H305a4,4,0,0,1-4-4V724.4a4,4,0,0,1,4-4H422.1a4,4,0,0,1,4,4V904.7A4,4,0,0,1,422.1,908.7Zm-113.1-8H418.1V728.4H309Z"/><polygon class="cls-5" points="422.1 724.4 305 724.4 319.7 676.4 407.3 676.4 422.1 724.4"/><path class="cls-2" d="M422.1,728.4H305a3.89,3.89,0,0,1-3.2-1.6,3.83,3.83,0,0,1-.6-3.6l14.8-48a4,4,0,0,1,3.8-2.8h87.6a3.87,3.87,0,0,1,3.8,2.8l14.8,48a4.24,4.24,0,0,1-.6,3.6A4.54,4.54,0,0,1,422.1,728.4Zm-111.7-8H416.7l-12.3-40H322.7Z"/><rect class="cls-5" x="1189" y="668.7" width="171" height="236"/><path class="cls-2" d="M1360,908.7H1189a4,4,0,0,1-4-4v-236a4,4,0,0,1,4-4h171a4,4,0,0,1,4,4v236A4,4,0,0,1,1360,908.7Zm-167-8h163v-228H1193Z"/><polygon class="cls-5" points="1360 668.7 1189 668.7 1200.5 637.7 1348.5 637.7 1360 668.7"/><path class="cls-2" d="M1360,672.7H1189a4,4,0,0,1-3.8-5.4l11.5-31a4,4,0,0,1,3.8-2.6h148a4,4,0,0,1,3.8,2.6l11.5,31a3.81,3.81,0,0,1-.5,3.7A4,4,0,0,1,1360,672.7Zm-165.2-8h159.5l-8.5-23H1203.4Z"/><rect class="cls-5" x="1028" y="686.7" width="161" height="218"/><path class="cls-2" d="M1189,908.7H1028a4,4,0,0,1-4-4v-218a4,4,0,0,1,4-4h161a4,4,0,0,1,4,4v218A4,4,0,0,1,1189,908.7Zm-157-8h153v-210H1032Z"/><rect class="cls-5" x="1028" y="668.7" width="161" height="18"/><path class="cls-2" d="M1189,690.7H1028a4,4,0,0,1-4-4v-18a4,4,0,0,1,4-4h161a4,4,0,0,1,4,4v18A4,4,0,0,1,1189,690.7Zm-157-8h153v-10H1032Z"/><rect class="cls-5" x="900" y="718.7" width="128" height="186"/><path class="cls-2" d="M1028,908.7H900a4,4,0,0,1-4-4v-186a4,4,0,0,1,4-4h128a4,4,0,0,1,4,4v186A4,4,0,0,1,1028,908.7Zm-124-8h120v-178H904Z"/><polygon class="cls-5" points="1028 718.7 900 718.7 911 698.2 1017 698.2 1028 718.7"/><path class="cls-2" d="M1028,722.7H900a3.94,3.94,0,0,1-3.5-5.8l11-20.5a4,4,0,0,1,3.5-2.1h106a3.92,3.92,0,0,1,3.5,2.1l11,20.5a3.94,3.94,0,0,1-3.5,5.8Zm-121.3-8h114.6l-6.7-12.5H913.4Z"/><rect class="cls-5" x="737" y="668.7" width="163" height="236"/><path class="cls-2" d="M900,908.7H737a4,4,0,0,1-4-4v-236a4,4,0,0,1,4-4H900a4,4,0,0,1,4,4v236A4,4,0,0,1,900,908.7Zm-159-8H896v-228H741Z"/><rect class="cls-5" x="737" y="633" width="163" height="35.7"/><path class="cls-2" d="M900,672.7H737a4,4,0,0,1-4-4V633a4,4,0,0,1,4-4H900a4,4,0,0,1,4,4v35.7A4,4,0,0,1,900,672.7Zm-159-8H896V637H741Z"/><rect class="cls-5" x="737" y="619" width="163" height="14"/><path class="cls-2" d="M900,637H737a4,4,0,0,1-4-4V619a4,4,0,0,1,4-4H900a4,4,0,0,1,4,4v14A4,4,0,0,1,900,637Zm-159-8H896v-6H741Z"/><rect class="cls-5" x="804" y="574.7" width="29" height="94"/><path class="cls-2" d="M833,672.7H804a4,4,0,0,1-4-4v-94a4,4,0,0,1,4-4h29a4,4,0,0,1,4,4v94A4,4,0,0,1,833,672.7Zm-25-8h21v-86H808Z"/><polygon class="cls-5" points="737 619 900 619 880 593 757 593 737 619"/><path class="cls-2" d="M900,623H737a4.17,4.17,0,0,1-3.6-2.2,4,4,0,0,1,.4-4.2l20-26A4,4,0,0,1,757,589H880a4.18,4.18,0,0,1,3.2,1.6l20,26A4,4,0,0,1,900,623Zm-154.9-8H891.9L878,597H759Z"/><rect class="cls-5" x="653" y="703.7" width="84" height="201"/><path class="cls-2" d="M737,908.7H653a4,4,0,0,1-4-4v-201a4,4,0,0,1,4-4h84a4,4,0,0,1,4,4v201A4,4,0,0,1,737,908.7Zm-80-8h76v-193H657Z"/><rect class="cls-5" x="525" y="703.7" width="128" height="201"/><path class="cls-2" d="M653,908.7H525a4,4,0,0,1-4-4v-201a4,4,0,0,1,4-4H653a4,4,0,0,1,4,4v201A4,4,0,0,1,653,908.7Zm-124-8H649v-193H529Z"/><rect class="cls-5" x="517.4" y="682.3" width="143.2" height="21.4"/><path class="cls-2" d="M660.6,707.7H517.4a4,4,0,0,1-4-4V682.3a4,4,0,0,1,4-4H660.6a4,4,0,0,1,4,4v21.4A4,4,0,0,1,660.6,707.7Zm-139.2-8H656.6V686.3H521.4Z"/><rect class="cls-5" x="459.9" y="749" width="65.1" height="155.7"/><path class="cls-2" d="M525,908.7H459.9a4,4,0,0,1-4-4V749a4,4,0,0,1,4-4H525a4,4,0,0,1,4,4V904.7A4,4,0,0,1,525,908.7Zm-61.1-8H521V753H463.9Z"/><rect class="cls-5" x="384.3" y="777" width="75.6" height="127.7"/><path class="cls-2" d="M459.9,908.7H384.3a4,4,0,0,1-4-4V777a4,4,0,0,1,4-4h75.6a4,4,0,0,1,4,4V904.7A4,4,0,0,1,459.9,908.7Zm-71.6-8h67.6V781H388.3Z"/><polygon class="cls-5" points="384.3 777 459.9 777 422.1 709.7 384.3 777"/><path class="cls-2" d="M459.9,781H384.3a4.29,4.29,0,0,1-3.5-2,4.07,4.07,0,0,1,0-4l37.8-67.3a3.84,3.84,0,0,1,3.5-2,4,4,0,0,1,3.5,2L463.4,775a4,4,0,0,1-3.5,6Zm-68.8-8H453l-31-55.2Z"/><polygon class="cls-5" points="196.2 699 305 699 250.6 631.7 196.2 699"/><path class="cls-2" d="M305,703H196.2a4.08,4.08,0,0,1-3.6-2.3,3.8,3.8,0,0,1,.5-4.2l54.4-67.3a4.2,4.2,0,0,1,3.1-1.5,3.75,3.75,0,0,1,3.1,1.5l54.4,67.3a3.8,3.8,0,0,1,.5,4.2A4.08,4.08,0,0,1,305,703Zm-100.4-8h92l-46-57Z"/><rect class="cls-5" x="305" y="760.4" width="79.3" height="144.3"/><path class="cls-2" d="M384.3,908.7H305a4,4,0,0,1-4-4V760.4a4,4,0,0,1,4-4h79.3a4,4,0,0,1,4,4V904.7A4,4,0,0,1,384.3,908.7Zm-75.3-8h71.3V764.4H309Z"/><rect class="cls-5" x="196.2" y="699" width="108.8" height="205.7"/><path class="cls-2" d="M305,908.7H196.2a4,4,0,0,1-4-4V699a4,4,0,0,1,4-4H305a4,4,0,0,1,4,4V904.7A4,4,0,0,1,305,908.7Zm-104.8-8H301V703H200.2Z"/><rect class="cls-5" x="196.2" y="622.4" width="108.8" height="76.7"/><path class="cls-2" d="M305,703H196.2a4,4,0,0,1-4-4V622.3a4,4,0,0,1,4-4H305a4,4,0,0,1,4,4V699A4,4,0,0,1,305,703Zm-104.8-8H301V626.3H200.2Z"/><polygon class="cls-5" points="196.2 516.4 305 516.4 250.6 259 196.2 516.4"/><path class="cls-2" d="M305,520.4H196.2a3.88,3.88,0,0,1-3.1-1.5,3.65,3.65,0,0,1-.8-3.3l54.4-257.4a4.06,4.06,0,0,1,3.9-3.2,4,4,0,0,1,3.9,3.2l54.4,257.4a4,4,0,0,1-3.9,4.8Zm-103.9-8H300l-49.5-234Z"/><polygon class="cls-5" points="196.2 610.4 232.4 610.4 232.4 516.4 214.3 484.4 196.2 516.4 196.2 610.4"/><path class="cls-2" d="M232.4,614.4H196.1a4,4,0,0,1-4-4v-94a4.55,4.55,0,0,1,.5-2l18.1-32a3.84,3.84,0,0,1,3.5-2,4.16,4.16,0,0,1,3.5,2l18.1,32a4.55,4.55,0,0,1,.5,2v94A3.81,3.81,0,0,1,232.4,614.4Zm-32.2-8h28.3V517.5l-14.1-24.9-14.1,24.9-.1,88.9Z"/><polygon class="cls-5" points="232.4 610.4 268.7 610.4 268.7 516.4 250.6 484.4 232.4 516.4 232.4 610.4"/><path class="cls-2" d="M268.7,614.4H232.4a4,4,0,0,1-4-4v-94a4.55,4.55,0,0,1,.5-2l18.1-32a3.84,3.84,0,0,1,3.5-2,4,4,0,0,1,3.5,2l18.1,32a4.55,4.55,0,0,1,.5,2v94A3.87,3.87,0,0,1,268.7,614.4Zm-32.3-8h28.3V517.5l-14.1-24.9-14.1,24.9-.1,88.9Z"/><polygon class="cls-5" points="268.7 610.4 305 610.4 305 516.4 286.8 484.4 268.7 516.4 268.7 610.4"/><path class="cls-2" d="M305,614.4H268.7a4,4,0,0,1-4-4v-94a4.55,4.55,0,0,1,.5-2l18.1-32a3.84,3.84,0,0,1,3.5-2,4.16,4.16,0,0,1,3.5,2l18.1,32a4.55,4.55,0,0,1,.5,2v94A3.87,3.87,0,0,1,305,614.4Zm-32.3-8H301V517.5l-14.1-24.9-14.1,24.9-.1,88.9Z"/><rect class="cls-5" x="189.4" y="610.4" width="122.3" height="12"/><path class="cls-2" d="M311.7,626.4H189.4a4,4,0,0,1-4-4v-12a4,4,0,0,1,4-4H311.7a4,4,0,0,1,4,4v12A4,4,0,0,1,311.7,626.4Zm-118.3-8H307.7v-4H193.4Z"/><rect class="cls-5" x="1360" y="630.4" width="105" height="274.3"/><path class="cls-2" d="M1465,908.7H1360a4,4,0,0,1-4-4V630.4a4,4,0,0,1,4-4h105a4,4,0,0,1,4,4V904.7A4,4,0,0,1,1465,908.7Zm-101-8h97V634.4h-97Z"/><rect class="cls-5" x="1354" y="615" width="117" height="15.3"/><path class="cls-2" d="M1471,634.4H1354a4,4,0,0,1-4-4V615a4,4,0,0,1,4-4h117a4,4,0,0,1,4,4v15.3A4,4,0,0,1,1471,634.4Zm-113-8h109V619H1358Z"/><rect class="cls-5" x="1465" y="648.4" width="105" height="256.3"/><path class="cls-2" d="M1570,908.7H1465a4,4,0,0,1-4-4V648.4a4,4,0,0,1,4-4h105a4,4,0,0,1,4,4V904.7A4,4,0,0,1,1570,908.7Zm-101-8h97V652.4h-97Z"/><rect class="cls-5" x="1570" y="621" width="123" height="283.7"/><path class="cls-2" d="M1693,908.7H1570a4,4,0,0,1-4-4V621a4,4,0,0,1,4-4h123a4,4,0,0,1,4,4V904.7A4,4,0,0,1,1693,908.7Zm-119-8h115V625H1574Z"/><rect class="cls-5" x="1570" y="603.7" width="123" height="17.3"/><path class="cls-2" d="M1693,625H1570a4,4,0,0,1-4-4V603.7a4,4,0,0,1,4-4h123a4,4,0,0,1,4,4V621A4,4,0,0,1,1693,625Zm-119-8h115v-9.3H1574Z"/><rect class="cls-5" x="1693" y="725.7" width="232" height="179"/><path class="cls-2" d="M1925,908.7H1693a4,4,0,0,1-4-4v-179a4,4,0,0,1,4-4h232a4,4,0,0,1,4,4v179A4,4,0,0,1,1925,908.7Zm-228-8h224v-171H1697Z"/><rect class="cls-5" x="1693" y="710.4" width="232" height="15.3"/><path class="cls-2" d="M1925,729.7H1693a4,4,0,0,1-4-4V710.4a4,4,0,0,1,4-4h232a4,4,0,0,1,4,4v15.3A4,4,0,0,1,1925,729.7Zm-228-8h224v-7.3H1697Z"/><rect class="cls-5" x="1731.7" y="683.7" width="32" height="26.7"/><path class="cls-2" d="M1763.7,714.4h-32a4,4,0,0,1-4-4V683.7a4,4,0,0,1,4-4h32a4,4,0,0,1,4,4v26.7A4,4,0,0,1,1763.7,714.4Zm-28-8h24V687.7h-24Z"/><rect class="cls-5" x="1793" y="683.7" width="32" height="26.7"/><path class="cls-2" d="M1825,714.4h-32a4,4,0,0,1-4-4V683.7a4,4,0,0,1,4-4h32a4,4,0,0,1,4,4v26.7A4,4,0,0,1,1825,714.4Zm-28-8h24V687.7h-24Z"/><rect class="cls-5" x="1854.3" y="683.7" width="32" height="26.7"/><path class="cls-2" d="M1886.3,714.4h-32a4,4,0,0,1-4-4V683.7a4,4,0,0,1,4-4h32a4,4,0,0,1,4,4v26.7A4,4,0,0,1,1886.3,714.4Zm-28-8h24V687.7h-24Z"/><rect class="cls-5" x="1925" y="675.7" width="277.3" height="229"/><path class="cls-2" d="M2202.3,908.7H1925a4,4,0,0,1-4-4v-229a4,4,0,0,1,4-4h277.3a4,4,0,0,1,4,4v229A4,4,0,0,1,2202.3,908.7Zm-273.3-8h269.3v-221H1929Z"/><polygon class="cls-5" points="2202.3 675.7 1925 675.7 1925 655 2063.7 643 2202.3 655 2202.3 675.7"/><path class="cls-2" d="M2202.3,679.7H1925a4,4,0,0,1-4-4V655a4,4,0,0,1,3.7-4l138.7-12h.7l138.7,12a4,4,0,0,1,3.7,4v20.7A4.33,4.33,0,0,1,2202.3,679.7Zm-273.3-8h269.3v-13L2063.6,647,1929,658.7Z"/><rect class="cls-5" x="2202.3" y="634.7" width="172.7" height="270"/><path class="cls-2" d="M2375,908.7H2202.3a4,4,0,0,1-4-4v-270a4,4,0,0,1,4-4H2375a4,4,0,0,1,4,4v270A4,4,0,0,1,2375,908.7Zm-168.7-8H2371v-262H2206.3Z"/><rect class="cls-5" x="2668" y="580.7" width="83" height="324"/><path class="cls-2" d="M2751,908.7h-83a4,4,0,0,1-4-4v-324a4,4,0,0,1,4-4h83a4,4,0,0,1,4,4v324A4,4,0,0,1,2751,908.7Zm-79-8h75v-316h-75Z"/><rect class="cls-5" x="2375" y="580.7" width="83" height="324"/><path class="cls-2" d="M2458,908.7h-83a4,4,0,0,1-4-4v-324a4,4,0,0,1,4-4h83a4,4,0,0,1,4,4v324A4,4,0,0,1,2458,908.7Zm-79-8h75v-316h-75Z"/><rect class="cls-5" x="2668" y="545" width="83" height="35.7"/><path class="cls-2" d="M2751,584.7h-83a4,4,0,0,1-4-4V545a4,4,0,0,1,4-4h83a4,4,0,0,1,4,4v35.7A4,4,0,0,1,2751,584.7Zm-79-8h75V549h-75Z"/><rect class="cls-5" x="2375" y="545" width="83" height="35.7"/><path class="cls-2" d="M2458,584.7h-83a4,4,0,0,1-4-4V545a4,4,0,0,1,4-4h83a4,4,0,0,1,4,4v35.7A4,4,0,0,1,2458,584.7Zm-79-8h75V549h-75Z"/><polygon class="cls-5" points="2416.5 503.2 2458 545 2375 545 2416.5 503.2"/><path class="cls-2" d="M2458,549h-83a4,4,0,0,1-2.8-6.9l41.5-41.8a4,4,0,0,1,2.8-1.2,3.78,3.78,0,0,1,2.8,1.2l41.5,41.8a4.18,4.18,0,0,1,.9,4.4A4,4,0,0,1,2458,549Zm-73.4-8h63.8l-31.9-32.2Z"/><polygon class="cls-5" points="2709.5 503.2 2751 545 2668 545 2709.5 503.2"/><path class="cls-2" d="M2751,549h-83a4,4,0,0,1-2.8-6.9l41.5-41.8a4,4,0,0,1,2.8-1.2,3.78,3.78,0,0,1,2.8,1.2l41.5,41.8a4.18,4.18,0,0,1,.9,4.4A4,4,0,0,1,2751,549Zm-73.4-8h63.8l-31.9-32.2Z"/><rect class="cls-5" x="2458" y="580.7" width="210" height="324"/><path class="cls-2" d="M2668,908.7H2458a4,4,0,0,1-4-4v-324a4,4,0,0,1,4-4h210a4,4,0,0,1,4,4v324A4,4,0,0,1,2668,908.7Zm-206-8h202v-316H2462Z"/><rect class="cls-5" x="2458" y="545" width="210" height="35.7"/><path class="cls-2" d="M2668,584.7H2458a4,4,0,0,1-4-4V545a4,4,0,0,1,4-4h210a4,4,0,0,1,4,4v35.7A4,4,0,0,1,2668,584.7Zm-206-8h202V549H2462Z"/><path class="cls-5" d="M2585.7,580.7h-41.3V555a20.74,20.74,0,0,1,20.7-20.7h0a20.74,20.74,0,0,1,20.7,20.7l-.1,25.7Z"/><path class="cls-2" d="M2585.7,584.7h-41.3a4,4,0,0,1-4-4V555a24.7,24.7,0,0,1,49.4,0v25.7A4.17,4.17,0,0,1,2585.7,584.7Zm-37.4-8h33.3V555a16.7,16.7,0,1,0-33.4,0l.1,21.7Z"/><path class="cls-5" d="M2645.7,580.7h-41.3V555a20.74,20.74,0,0,1,20.7-20.7h0a20.74,20.74,0,0,1,20.7,20.7l-.1,25.7Z"/><path class="cls-2" d="M2645.7,584.7h-41.3a4,4,0,0,1-4-4V555a24.7,24.7,0,0,1,49.4,0v25.7A4.17,4.17,0,0,1,2645.7,584.7Zm-37.4-8h33.3V555a16.7,16.7,0,1,0-33.4,0l.1,21.7Z"/><path class="cls-5" d="M2525.7,580.7h-41.3V555a20.74,20.74,0,0,1,20.7-20.7h0a20.74,20.74,0,0,1,20.7,20.7l-.1,25.7Z"/><path class="cls-2" d="M2525.7,584.7h-41.3a4,4,0,0,1-4-4V555a24.7,24.7,0,0,1,49.4,0v25.7A4.17,4.17,0,0,1,2525.7,584.7Zm-37.4-8h33.3V555a16.7,16.7,0,1,0-33.4,0l.1,21.7Z"/><rect class="cls-2" x="1961.1" y="704.5" width="8" height="23.5"/><rect class="cls-2" x="1989.2" y="704.5" width="8" height="23.5"/><rect class="cls-2" x="2017.4" y="704.5" width="8" height="23.5"/><rect class="cls-2" x="2045.6" y="704.5" width="8" height="23.5"/><rect class="cls-2" x="2073.8" y="704.5" width="8" height="23.5"/><rect class="cls-2" x="2101.9" y="704.5" width="8" height="23.5"/><rect class="cls-2" x="2130.1" y="704.5" width="8" height="23.5"/><rect class="cls-2" x="2158.2" y="704.5" width="8" height="23.5"/><rect class="cls-2" x="1961.1" y="753.8" width="8" height="23.5"/><rect class="cls-2" x="1989.2" y="753.8" width="8" height="23.5"/><rect class="cls-2" x="2017.4" y="753.8" width="8" height="23.5"/><rect class="cls-2" x="2045.6" y="753.8" width="8" height="23.5"/><rect class="cls-2" x="2073.8" y="753.8" width="8" height="23.5"/><rect class="cls-2" x="2101.9" y="753.8" width="8" height="23.5"/><rect class="cls-2" x="2130.1" y="753.8" width="8" height="23.5"/><rect class="cls-2" x="2158.2" y="753.8" width="8" height="23.5"/><rect class="cls-2" x="1961.1" y="803.1" width="8" height="23.5"/><rect class="cls-2" x="1989.2" y="803.1" width="8" height="23.5"/><rect class="cls-2" x="2017.4" y="803.1" width="8" height="23.5"/><rect class="cls-2" x="2045.6" y="803.1" width="8" height="23.5"/><rect class="cls-2" x="2073.8" y="803.1" width="8" height="23.5"/><rect class="cls-2" x="2101.9" y="803.1" width="8" height="23.5"/><rect class="cls-2" x="2130.1" y="803.1" width="8" height="23.5"/><rect class="cls-2" x="2158.2" y="803.1" width="8" height="23.5"/><rect class="cls-2" x="1961.1" y="852.5" width="8" height="23.5"/><rect class="cls-2" x="1989.2" y="852.5" width="8" height="23.5"/><rect class="cls-2" x="2017.4" y="852.5" width="8" height="23.5"/><rect class="cls-2" x="2045.6" y="852.5" width="8" height="23.5"/><rect class="cls-2" x="2073.8" y="852.5" width="8" height="23.5"/><rect class="cls-2" x="2101.9" y="852.5" width="8" height="23.5"/><rect class="cls-2" x="2130.1" y="852.5" width="8" height="23.5"/><rect class="cls-2" x="2158.2" y="852.5" width="8" height="23.5"/><rect class="cls-2" x="1734.6" y="754.1" width="8" height="23.5"/><rect class="cls-2" x="1762.8" y="754.1" width="8" height="23.5"/><rect class="cls-2" x="1790.9" y="754.1" width="8" height="23.5"/><rect class="cls-2" x="1819.1" y="754.1" width="8" height="23.5"/><rect class="cls-2" x="1847.2" y="754.1" width="8" height="23.5"/><rect class="cls-2" x="1875.4" y="754.1" width="8" height="23.5"/><rect class="cls-2" x="1734.6" y="803.5" width="8" height="23.5"/><rect class="cls-2" x="1762.8" y="803.5" width="8" height="23.5"/><rect class="cls-2" x="1790.9" y="803.5" width="8" height="23.5"/><rect class="cls-2" x="1819.1" y="803.5" width="8" height="23.5"/><rect class="cls-2" x="1847.2" y="803.5" width="8" height="23.5"/><rect class="cls-2" x="1875.4" y="803.5" width="8" height="23.5"/><rect class="cls-2" x="1734.6" y="852.8" width="8" height="23.5"/><rect class="cls-2" x="1762.8" y="852.8" width="8" height="23.5"/><rect class="cls-2" x="1790.9" y="852.8" width="8" height="23.5"/><rect class="cls-2" x="1819.1" y="852.8" width="8" height="23.5"/><rect class="cls-2" x="1847.2" y="852.8" width="8" height="23.5"/><rect class="cls-2" x="1875.4" y="852.8" width="8" height="23.5"/><rect class="cls-2" x="2228.3" y="659.3" width="8" height="23.5"/><rect class="cls-2" x="2256.5" y="659.3" width="8" height="23.5"/><rect class="cls-2" x="2284.7" y="659.3" width="8" height="23.5"/><rect class="cls-2" x="2312.8" y="659.3" width="8" height="23.5"/><rect class="cls-2" x="2341" y="659.3" width="8" height="23.5"/><rect class="cls-2" x="2228.3" y="708.6" width="8" height="23.5"/><rect class="cls-2" x="2256.5" y="708.6" width="8" height="23.5"/><rect class="cls-2" x="2284.7" y="708.6" width="8" height="23.5"/><rect class="cls-2" x="2312.8" y="708.6" width="8" height="23.5"/><rect class="cls-2" x="2341" y="708.6" width="8" height="23.5"/><rect class="cls-2" x="2228.3" y="758" width="8" height="23.5"/><rect class="cls-2" x="2256.5" y="758" width="8" height="23.5"/><rect class="cls-2" x="2284.7" y="758" width="8" height="23.5"/><rect class="cls-2" x="2312.8" y="758" width="8" height="23.5"/><rect class="cls-2" x="2341" y="758" width="8" height="23.5"/><rect class="cls-2" x="2228.3" y="807.3" width="8" height="23.5"/><rect class="cls-2" x="2256.5" y="807.3" width="8" height="23.5"/><rect class="cls-2" x="2284.7" y="807.3" width="8" height="23.5"/><rect class="cls-2" x="2312.8" y="807.3" width="8" height="23.5"/><rect class="cls-2" x="2341" y="807.3" width="8" height="23.5"/><rect class="cls-2" x="2228.3" y="856.6" width="8" height="23.5"/><rect class="cls-2" x="2256.5" y="856.6" width="8" height="23.5"/><rect class="cls-2" x="2284.7" y="856.6" width="8" height="23.5"/><rect class="cls-2" x="2312.8" y="856.6" width="8" height="23.5"/><rect class="cls-2" x="2341" y="856.6" width="8" height="23.5"/><rect class="cls-2" x="2502.7" y="632.3" width="8" height="23.5"/><rect class="cls-2" x="2530.8" y="632.3" width="8" height="23.5"/><rect class="cls-2" x="2559" y="632.3" width="8" height="23.5"/><rect class="cls-2" x="2587.2" y="632.3" width="8" height="23.5"/><rect class="cls-2" x="2615.3" y="632.3" width="8" height="23.5"/><rect class="cls-2" x="2502.7" y="681.6" width="8" height="23.5"/><rect class="cls-2" x="2530.8" y="681.6" width="8" height="23.5"/><rect class="cls-2" x="2559" y="681.6" width="8" height="23.5"/><rect class="cls-2" x="2587.2" y="681.6" width="8" height="23.5"/><rect class="cls-2" x="2615.3" y="681.6" width="8" height="23.5"/><rect class="cls-2" x="2502.7" y="731" width="8" height="23.5"/><rect class="cls-2" x="2530.8" y="731" width="8" height="23.5"/><rect class="cls-2" x="2559" y="731" width="8" height="23.5"/><rect class="cls-2" x="2587.2" y="731" width="8" height="23.5"/><rect class="cls-2" x="2615.3" y="731" width="8" height="23.5"/><rect class="cls-2" x="2502.7" y="780.3" width="8" height="23.5"/><rect class="cls-2" x="2530.8" y="780.3" width="8" height="23.5"/><rect class="cls-2" x="2559" y="780.3" width="8" height="23.5"/><rect class="cls-2" x="2587.2" y="780.3" width="8" height="23.5"/><rect class="cls-2" x="2615.3" y="780.3" width="8" height="23.5"/><rect class="cls-2" x="2502.7" y="829.6" width="8" height="23.5"/><rect class="cls-2" x="2530.8" y="829.6" width="8" height="23.5"/><rect class="cls-2" x="2559" y="829.6" width="8" height="23.5"/><rect class="cls-2" x="2587.2" y="829.6" width="8" height="23.5"/><rect class="cls-2" x="2615.3" y="829.6" width="8" height="23.5"/><rect class="cls-2" x="1228.2" y="701" width="8" height="23.5"/><rect class="cls-2" x="1256.4" y="701" width="8" height="23.5"/><rect class="cls-2" x="1284.6" y="701" width="8" height="23.5"/><rect class="cls-2" x="1312.8" y="701" width="8" height="23.5"/><rect class="cls-2" x="1228.2" y="750.3" width="8" height="23.5"/><rect class="cls-2" x="1256.4" y="750.3" width="8" height="23.5"/><rect class="cls-2" x="1284.6" y="750.3" width="8" height="23.5"/><rect class="cls-2" x="1312.8" y="750.3" width="8" height="23.5"/><rect class="cls-2" x="1228.2" y="799.6" width="8" height="23.5"/><rect class="cls-2" x="1256.4" y="799.6" width="8" height="23.5"/><rect class="cls-2" x="1284.6" y="799.6" width="8" height="23.5"/><rect class="cls-2" x="1312.8" y="799.6" width="8" height="23.5"/><rect class="cls-2" x="1228.2" y="849" width="8" height="23.5"/><rect class="cls-2" x="1256.4" y="849" width="8" height="23.5"/><rect class="cls-2" x="1284.6" y="849" width="8" height="23.5"/><rect class="cls-2" x="1312.8" y="849" width="8" height="23.5"/><rect class="cls-2" x="772.3" y="701" width="8" height="23.5"/><rect class="cls-2" x="800.4" y="701" width="8" height="23.5"/><rect class="cls-2" x="828.6" y="701" width="8" height="23.5"/><rect class="cls-2" x="856.8" y="701" width="8" height="23.5"/><rect class="cls-2" x="772.3" y="750.3" width="8" height="23.5"/><rect class="cls-2" x="800.4" y="750.3" width="8" height="23.5"/><rect class="cls-2" x="828.6" y="750.3" width="8" height="23.5"/><rect class="cls-2" x="856.8" y="750.3" width="8" height="23.5"/><rect class="cls-2" x="772.3" y="799.6" width="8" height="23.5"/><rect class="cls-2" x="800.4" y="799.6" width="8" height="23.5"/><rect class="cls-2" x="828.6" y="799.6" width="8" height="23.5"/><rect class="cls-2" x="856.8" y="799.6" width="8" height="23.5"/><rect class="cls-2" x="772.3" y="849" width="8" height="23.5"/><rect class="cls-2" x="800.4" y="849" width="8" height="23.5"/><rect class="cls-2" x="828.6" y="849" width="8" height="23.5"/><rect class="cls-2" x="856.8" y="849" width="8" height="23.5"/><rect class="cls-2" x="1062.2" y="710" width="8" height="23.5"/><rect class="cls-2" x="1090.4" y="710" width="8" height="23.5"/><rect class="cls-2" x="1118.6" y="710" width="8" height="23.5"/><rect class="cls-2" x="1146.8" y="710" width="8" height="23.5"/><rect class="cls-2" x="1062.2" y="759.3" width="8" height="23.5"/><rect class="cls-2" x="1090.4" y="759.3" width="8" height="23.5"/><rect class="cls-2" x="1118.6" y="759.3" width="8" height="23.5"/><rect class="cls-2" x="1146.8" y="759.3" width="8" height="23.5"/><rect class="cls-2" x="1062.2" y="808.6" width="8" height="23.5"/><rect class="cls-2" x="1090.4" y="808.6" width="8" height="23.5"/><rect class="cls-2" x="1118.6" y="808.6" width="8" height="23.5"/><rect class="cls-2" x="1146.8" y="808.6" width="8" height="23.5"/><rect class="cls-2" x="1062.2" y="858" width="8" height="23.5"/><rect class="cls-2" x="1090.4" y="858" width="8" height="23.5"/><rect class="cls-2" x="1118.6" y="858" width="8" height="23.5"/><rect class="cls-2" x="1146.8" y="858" width="8" height="23.5"/><rect class="cls-2" x="556.8" y="743.1" width="8" height="23.5"/><rect class="cls-2" x="585" y="743.1" width="8" height="23.5"/><rect class="cls-2" x="613.2" y="743.1" width="8" height="23.5"/><rect class="cls-2" x="556.8" y="792.5" width="8" height="23.5"/><rect class="cls-2" x="585" y="792.5" width="8" height="23.5"/><rect class="cls-2" x="613.2" y="792.5" width="8" height="23.5"/><rect class="cls-2" x="556.8" y="841.8" width="8" height="23.5"/><rect class="cls-2" x="585" y="841.8" width="8" height="23.5"/><rect class="cls-2" x="613.2" y="841.8" width="8" height="23.5"/><rect class="cls-2" x="218.4" y="740.8" width="8" height="23.5"/><rect class="cls-2" x="246.6" y="740.8" width="8" height="23.5"/><rect class="cls-2" x="274.7" y="740.8" width="8" height="23.5"/><rect class="cls-2" x="218.4" y="790.1" width="8" height="23.5"/><rect class="cls-2" x="246.6" y="790.1" width="8" height="23.5"/><rect class="cls-2" x="274.7" y="790.1" width="8" height="23.5"/><rect class="cls-2" x="218.4" y="839.5" width="8" height="23.5"/><rect class="cls-2" x="246.6" y="839.5" width="8" height="23.5"/><rect class="cls-2" x="274.7" y="839.5" width="8" height="23.5"/><rect class="cls-2" x="218.4" y="649" width="8" height="23.5"/><rect class="cls-2" x="246.6" y="649" width="8" height="23.5"/><rect class="cls-2" x="274.7" y="649" width="8" height="23.5"/><rect class="cls-2" x="1599.3" y="652.5" width="8" height="23.5"/><rect class="cls-2" x="1627.5" y="652.5" width="8" height="23.5"/><rect class="cls-2" x="1655.7" y="652.5" width="8" height="23.5"/><rect class="cls-2" x="1599.3" y="701.8" width="8" height="23.5"/><rect class="cls-2" x="1627.5" y="701.8" width="8" height="23.5"/><rect class="cls-2" x="1655.7" y="701.8" width="8" height="23.5"/><rect class="cls-2" x="1599.3" y="751.1" width="8" height="23.5"/><rect class="cls-2" x="1627.5" y="751.1" width="8" height="23.5"/><rect class="cls-2" x="1655.7" y="751.1" width="8" height="23.5"/><rect class="cls-2" x="1599.3" y="800.5" width="8" height="23.5"/><rect class="cls-2" x="1627.5" y="800.5" width="8" height="23.5"/><rect class="cls-2" x="1655.7" y="800.5" width="8" height="23.5"/><rect class="cls-2" x="1599.3" y="849.8" width="8" height="23.5"/><rect class="cls-2" x="1627.5" y="849.8" width="8" height="23.5"/><rect class="cls-2" x="1655.7" y="849.8" width="8" height="23.5"/><rect class="cls-2" x="1394.4" y="657.1" width="8" height="23.5"/><rect class="cls-2" x="1422.6" y="657.1" width="8" height="23.5"/><rect class="cls-2" x="1394.4" y="706.5" width="8" height="23.5"/><rect class="cls-2" x="1422.6" y="706.5" width="8" height="23.5"/><rect class="cls-2" x="1394.4" y="755.8" width="8" height="23.5"/><rect class="cls-2" x="1422.6" y="755.8" width="8" height="23.5"/><rect class="cls-2" x="1394.4" y="805.1" width="8" height="23.5"/><rect class="cls-2" x="1422.6" y="805.1" width="8" height="23.5"/><rect class="cls-2" x="1394.4" y="854.5" width="8" height="23.5"/><rect class="cls-2" x="1422.6" y="854.5" width="8" height="23.5"/><rect class="cls-2" x="2412.5" y="632.3" width="8" height="23.5"/><rect class="cls-2" x="2412.5" y="681.6" width="8" height="23.5"/><rect class="cls-2" x="2412.5" y="731" width="8" height="23.5"/><rect class="cls-2" x="2412.5" y="780.3" width="8" height="23.5"/><rect class="cls-2" x="2412.5" y="829.6" width="8" height="23.5"/><rect class="cls-2" x="2705.5" y="632.3" width="8" height="23.5"/><rect class="cls-2" x="2705.5" y="681.6" width="8" height="23.5"/><rect class="cls-2" x="2705.5" y="731" width="8" height="23.5"/><rect class="cls-2" x="2705.5" y="780.3" width="8" height="23.5"/><rect class="cls-2" x="2705.5" y="829.6" width="8" height="23.5"/><rect class="cls-2" x="931.8" y="750.6" width="8" height="23.5"/><rect class="cls-2" x="960" y="750.6" width="8" height="23.5"/><rect class="cls-2" x="988.2" y="750.6" width="8" height="23.5"/><rect class="cls-2" x="931.8" y="800" width="8" height="23.5"/><rect class="cls-2" x="960" y="800" width="8" height="23.5"/><rect class="cls-2" x="988.2" y="800" width="8" height="23.5"/><rect class="cls-2" x="931.8" y="849.3" width="8" height="23.5"/><rect class="cls-2" x="960" y="849.3" width="8" height="23.5"/><rect class="cls-2" x="988.2" y="849.3" width="8" height="23.5"/><rect class="cls-2" x="676.9" y="743.1" width="8" height="23.5"/><rect class="cls-2" x="705.1" y="743.1" width="8" height="23.5"/><rect class="cls-2" x="676.9" y="792.5" width="8" height="23.5"/><rect class="cls-2" x="705.1" y="792.5" width="8" height="23.5"/><rect class="cls-2" x="676.9" y="841.8" width="8" height="23.5"/><rect class="cls-2" x="705.1" y="841.8" width="8" height="23.5"/><rect class="cls-2" x="404" y="804.5" width="8" height="23.5"/><rect class="cls-2" x="432.1" y="804.5" width="8" height="23.5"/><rect class="cls-2" x="404" y="853.8" width="8" height="23.5"/><rect class="cls-2" x="432.1" y="853.8" width="8" height="23.5"/><rect class="cls-2" x="340.6" y="796.1" width="8" height="23.5"/><rect class="cls-2" x="340.6" y="845.5" width="8" height="23.5"/><rect class="cls-5" x="79.1" y="724.4" width="117.1" height="180.3"/><path class="cls-2" d="M196.2,908.7H79.1a4,4,0,0,1-4-4V724.4a4,4,0,0,1,4-4H196.2a4,4,0,0,1,4,4V904.7A4,4,0,0,1,196.2,908.7Zm-113.1-8H192.2V728.4H83.1Z"/><polygon class="cls-5" points="79.1 724.4 196.2 724.4 181.4 676.4 93.9 676.4 79.1 724.4"/><path class="cls-2" d="M196.2,728.4H79.1a3.89,3.89,0,0,1-3.2-1.6,3.83,3.83,0,0,1-.6-3.6l14.8-48a4,4,0,0,1,3.8-2.8h87.6a3.87,3.87,0,0,1,3.8,2.8l14.8,48a4.24,4.24,0,0,1-.6,3.6A4.37,4.37,0,0,1,196.2,728.4Zm-111.7-8H190.8l-12.3-40H96.8Z"/><rect class="cls-5" x="41.3" y="777" width="75.6" height="127.7"/><path class="cls-2" d="M116.9,908.7H41.3a4,4,0,0,1-4-4V777a4,4,0,0,1,4-4h75.6a4,4,0,0,1,4,4V904.7A4,4,0,0,1,116.9,908.7Zm-71.6-8h67.6V781H45.3Z"/><polygon class="cls-5" points="116.9 777 41.3 777 79.1 709.7 116.9 777"/><path class="cls-2" d="M116.9,781H41.3a4.29,4.29,0,0,1-3.5-2,4.07,4.07,0,0,1,0-4l37.8-67.3a3.84,3.84,0,0,1,3.5-2,4,4,0,0,1,3.5,2L120.4,775a4,4,0,0,1-3.5,6Zm-68.8-8H110L79,717.8Z"/><rect class="cls-5" x="116.9" y="760.4" width="79.3" height="144.3"/><path class="cls-2" d="M196.2,908.7H116.9a4,4,0,0,1-4-4V760.4a4,4,0,0,1,4-4h79.3a4,4,0,0,1,4,4V904.7A4,4,0,0,1,196.2,908.7Zm-75.3-8h71.3V764.4H120.9Z"/><rect class="cls-2" x="89.2" y="804.5" width="8" height="23.5"/><rect class="cls-2" x="61" y="804.5" width="8" height="23.5"/><rect class="cls-2" x="89.2" y="853.8" width="8" height="23.5"/><rect class="cls-2" x="61" y="853.8" width="8" height="23.5"/><rect class="cls-2" x="152.5" y="796.1" width="8" height="23.5"/><rect class="cls-2" x="152.5" y="845.5" width="8" height="23.5"/><rect class="cls-2" x="488.4" y="765.8" width="8" height="23.5"/><rect class="cls-2" x="488.4" y="815.1" width="8" height="23.5"/><rect class="cls-2" x="488.4" y="864.5" width="8" height="23.5"/><rect class="cls-2" x="1499.4" y="690.8" width="8" height="23.5"/><rect class="cls-2" x="1527.6" y="690.8" width="8" height="23.5"/><rect class="cls-2" x="1499.4" y="740.1" width="8" height="23.5"/><rect class="cls-2" x="1527.6" y="740.1" width="8" height="23.5"/><rect class="cls-2" x="1499.4" y="789.5" width="8" height="23.5"/><rect class="cls-2" x="1527.6" y="789.5" width="8" height="23.5"/><rect class="cls-2" x="1499.4" y="838.8" width="8" height="23.5"/><rect class="cls-2" x="1527.6" y="838.8" width="8" height="23.5"/><path class="cls-5" d="M2231.6,245.1a23,23,0,0,0-8.2,1.6c-7.7-12.8-20.1-21.1-34.1-21.1-15.6,0-29.1,10.2-36.5,25.5a23.14,23.14,0,0,0-15.2-5.9c-14.5,0-26.3,14.3-26.3,32h146.5C2257.9,259.4,2246.2,245.1,2231.6,245.1Z"/><path class="cls-2" d="M2257.9,281.1H2111.4a4,4,0,0,1-4-4c0-19.9,13.6-36,30.3-36a26.67,26.67,0,0,1,13.9,4c8.6-14.6,22.8-23.5,37.8-23.5,13.9,0,27.1,7.6,35.8,20.4a28.21,28.21,0,0,1,6.5-.8c16.7,0,30.3,16.1,30.3,36A4.15,4.15,0,0,1,2257.9,281.1Zm-142.3-8h138.1c-1.5-13.6-10.8-24-22-24a17.37,17.37,0,0,0-6.7,1.3,4,4,0,0,1-4.9-1.7c-7.3-12.2-18.5-19.2-30.7-19.2-13.4,0-26,8.9-32.9,23.2a4.18,4.18,0,0,1-2.8,2.2,3.83,3.83,0,0,1-3.4-.9,19.22,19.22,0,0,0-12.6-4.9C2126.5,249.1,2117.2,259.5,2115.6,273.1Z"/><path class="cls-5" d="M1678.5,172.9a23,23,0,0,0-8.2,1.6c-7.7-12.8-20.1-21.1-34.1-21.1-15.6,0-29.1,10.2-36.5,25.5a23.14,23.14,0,0,0-15.2-5.9c-14.5,0-26.3,14.3-26.3,32h146.5C1704.8,187.3,1693,172.9,1678.5,172.9Z"/><path class="cls-2" d="M1704.8,208.9H1558.3a4,4,0,0,1-4-4c0-19.9,13.6-36,30.3-36a26.67,26.67,0,0,1,13.9,4c8.6-14.6,22.8-23.5,37.8-23.5,13.9,0,27.1,7.6,35.8,20.4a28.21,28.21,0,0,1,6.5-.8c16.7,0,30.3,16.1,30.3,36A4.15,4.15,0,0,1,1704.8,208.9Zm-142.3-8h138.1c-1.5-13.6-10.8-24-22-24a17.37,17.37,0,0,0-6.7,1.3,4,4,0,0,1-4.9-1.7c-7.3-12.2-18.5-19.2-30.7-19.2-13.4,0-26,8.9-32.9,23.2a4.18,4.18,0,0,1-2.8,2.2,3.83,3.83,0,0,1-3.4-.9,19.22,19.22,0,0,0-12.6-4.9C1573.3,176.9,1564,187.4,1562.5,200.9Z"/><path class="cls-5" d="M2417.3,68.7a23,23,0,0,0-8.2,1.6c-7.7-12.8-20.1-21.1-34.1-21.1-15.6,0-29.1,10.2-36.5,25.5a23.14,23.14,0,0,0-15.2-5.9c-14.5,0-26.3,14.3-26.3,32h146.5C2443.5,83.1,2431.8,68.7,2417.3,68.7Z"/><path class="cls-2" d="M2443.5,104.7H2297a4,4,0,0,1-4-4c0-19.9,13.6-36,30.3-36a26.67,26.67,0,0,1,13.9,4c8.6-14.6,22.8-23.5,37.8-23.5,13.9,0,27.1,7.6,35.8,20.4a28.21,28.21,0,0,1,6.5-.8c16.7,0,30.3,16.1,30.3,36A4.15,4.15,0,0,1,2443.5,104.7Zm-142.3-8h138.1c-1.5-13.6-10.8-24-22-24a17.37,17.37,0,0,0-6.7,1.3,4,4,0,0,1-4.9-1.7c-7.2-12-18.7-19.2-30.7-19.2-13.4,0-26,8.9-32.9,23.2a4.18,4.18,0,0,1-2.8,2.2,3.83,3.83,0,0,1-3.4-.9,19.22,19.22,0,0,0-12.6-4.9C2312.1,72.7,2302.8,83.2,2301.2,96.7Z"/><path class="cls-5" d="M599.5,270.8a23,23,0,0,0-8.2,1.6c-7.7-12.8-20.1-21.1-34.1-21.1-15.6,0-29.1,10.2-36.5,25.5a23.14,23.14,0,0,0-15.2-5.9c-14.5,0-26.3,14.3-26.3,32H625.7C625.8,285.2,614,270.8,599.5,270.8Z"/><path class="cls-2" d="M625.8,306.8H479.3a4,4,0,0,1-4-4c0-19.9,13.6-36,30.3-36a26.67,26.67,0,0,1,13.9,4c8.6-14.6,22.8-23.5,37.8-23.5,13.9,0,27.1,7.6,35.8,20.4a28.21,28.21,0,0,1,6.5-.8c16.7,0,30.3,16.1,30.3,36A4.15,4.15,0,0,1,625.8,306.8Zm-142.3-8H621.6c-1.5-13.6-10.8-24-22-24a17.37,17.37,0,0,0-6.7,1.3,4,4,0,0,1-4.9-1.7c-7.3-12.2-18.5-19.2-30.7-19.2-13.4,0-26,8.9-32.9,23.2a4.18,4.18,0,0,1-2.8,2.2,3.83,3.83,0,0,1-3.4-.9,19.22,19.22,0,0,0-12.6-4.9C494.3,274.8,485,285.3,483.5,298.8Z"/><path class="cls-5" d="M329.1,81.8a23,23,0,0,0-8.2,1.6c-7.7-12.8-20.1-21.1-34.1-21.1-15.6,0-29.1,10.2-36.5,25.5a23.14,23.14,0,0,0-15.2-5.9c-14.5,0-26.3,14.3-26.3,32H355.3C355.4,96.1,343.6,81.8,329.1,81.8Z"/><path class="cls-2" d="M355.4,117.8H208.8a4,4,0,0,1-4-4c0-19.9,13.6-36,30.3-36a26.67,26.67,0,0,1,13.9,4c8.6-14.6,22.8-23.5,37.8-23.5,13.9,0,27.1,7.6,35.8,20.4a28.21,28.21,0,0,1,6.5-.8c16.7,0,30.3,16.1,30.3,36A4,4,0,0,1,355.4,117.8Zm-142.3-8H351.2c-1.5-13.6-10.8-24-22-24a17.37,17.37,0,0,0-6.7,1.3,4,4,0,0,1-4.9-1.7c-7.3-12.2-18.5-19.2-30.7-19.2-13.4,0-26,8.9-32.9,23.2a4.18,4.18,0,0,1-2.8,2.2,3.83,3.83,0,0,1-3.4-.9,19.22,19.22,0,0,0-12.6-4.9C223.9,85.8,214.6,96.3,213.1,109.8Z"/><path class="cls-5" d="M1091.6,219.3a23,23,0,0,0-8.2,1.6c-7.7-12.8-20.1-21.1-34.1-21.1-15.6,0-29.1,10.2-36.5,25.5a23.14,23.14,0,0,0-15.2-5.9c-14.5,0-26.3,14.3-26.3,32h146.5C1117.9,233.6,1106.1,219.3,1091.6,219.3Z"/><path class="cls-2" d="M1117.9,255.3H971.4a4,4,0,0,1-4-4c0-19.9,13.6-36,30.3-36a26.67,26.67,0,0,1,13.9,4c8.6-14.6,22.8-23.5,37.8-23.5,13.9,0,27.1,7.6,35.8,20.4a28.21,28.21,0,0,1,6.5-.8c16.7,0,30.3,16.1,30.3,36A4.15,4.15,0,0,1,1117.9,255.3Zm-142.3-8h138.1c-1.5-13.6-10.8-24-22-24a17.37,17.37,0,0,0-6.7,1.3,4,4,0,0,1-4.9-1.7c-7.2-12-18.7-19.2-30.7-19.2-13.4,0-26,8.9-32.9,23.2a4.18,4.18,0,0,1-2.8,2.2,3.83,3.83,0,0,1-3.4-.9,19.22,19.22,0,0,0-12.6-4.9C986.4,223.3,977.2,233.7,975.6,247.3Z"/><circle class="cls-5" cx="1400" cy="75" r="71"/><path class="cls-2" d="M1400,150a75,75,0,1,1,75-75A75,75,0,0,1,1400,150Zm0-142a67,67,0,1,0,67,67A67.13,67.13,0,0,0,1400,8Z"/><rect class="cls-2" y="900.7" width="2800" height="8"/><rect class="cls-2" y="920.7" width="2800" height="8"/></svg>