<svg id="Layer_1" data-name="Layer 1" xmlns="http://www.w3.org/2000/svg" viewBox="0 0 900 415.5"><defs><style>.cls-1,.cls-14,.cls-9{fill:#f55;}.cls-1,.cls-11,.cls-12,.cls-16,.cls-4,.cls-8{stroke:#236d9b;}.cls-1,.cls-11,.cls-13,.cls-14,.cls-15,.cls-16,.cls-5,.cls-7,.cls-8{stroke-linecap:round;}.cls-1,.cls-11,.cls-12,.cls-13,.cls-14,.cls-15,.cls-16,.cls-4,.cls-5,.cls-7,.cls-8{stroke-miterlimit:10;}.cls-1,.cls-11,.cls-12,.cls-13,.cls-14,.cls-16,.cls-4,.cls-5,.cls-7,.cls-8{stroke-width:3px;}.cls-12,.cls-13,.cls-2,.cls-8{fill:#fff;}.cls-3{fill:#ededed;}.cls-11,.cls-15,.cls-4,.cls-7{fill:none;}.cls-5{fill:#ff9f36;}.cls-13,.cls-5,.cls-7{stroke:#640917;}.cls-6{fill:#f4891e;}.cls-10,.cls-16{fill:#236d9b;}.cls-14{stroke:#350a63;}.cls-15{stroke:#fff;stroke-width:4px;}</style></defs><title>drawing-5-red</title><path class="cls-1" d="M329,110.6H311.8a6.74,6.74,0,0,1-6.8-6.8V95.4a6.74,6.74,0,0,1,6.8-6.8h18.7a6.74,6.74,0,0,1,6.8,6.8v8.4a6.74,6.74,0,0,1-6.8,6.8H329"/><path class="cls-2" d="M319.1,343a25.07,25.07,0,0,1-7.5,18,25.48,25.48,0,0,1-18,7.5H170.8A25.39,25.39,0,0,1,145.4,343a25.07,25.07,0,0,1,7.5-18,25.43,25.43,0,0,1,14.9-7.3c1-.1,2-.2,3-.2H293.7A25.46,25.46,0,0,1,319.1,343Z"/><path class="cls-2" d="M595.4,181.5V335.6H514.5a47.59,47.59,0,0,0-22.7,5.8,229.92,229.92,0,0,1-75.4,24.8,226.92,226.92,0,0,1-33,2.4H363.1v-169h43.1s-4.3-4,13.9-4.1l-41.7-87L342.9,100l-24.7-5.9-.4-.1a52.15,52.15,0,0,1-14.2-5.7,51.54,51.54,0,0,1-24.9-50.5,9.45,9.45,0,0,1,11.6-8L391.6,54.1a55.14,55.14,0,0,1,31.9,21.4l68.2,94.9A26.12,26.12,0,0,0,513,181.3h82.4Z"/><path class="cls-2" d="M292.2,31.3h0a21.72,21.72,0,0,0,14.1,11.5l25.1,6.3,2.3-7.7"/><path class="cls-3" d="M473.9,246.8a152.35,152.35,0,0,1-57.4,119.3,226.92,226.92,0,0,1-33,2.4H363.2v-169h43.1s-4.3-4,13.9-4.1l-41.7-88.7C378.4,106.8,473.9,143.1,473.9,246.8Z"/><path class="cls-3" d="M337.3,343a25.07,25.07,0,0,1-7.5,18,25.48,25.48,0,0,1-18,7.5h-83a152.12,152.12,0,0,1-42.9-50.7c1-.1,2-.2,3-.2H311.8A25.33,25.33,0,0,1,337.3,343Z"/><path class="cls-4" d="M319.1,343a25.07,25.07,0,0,1-7.5,18,25.48,25.48,0,0,1-18,7.5H170.8A25.39,25.39,0,0,1,145.4,343a25.07,25.07,0,0,1,7.5-18,25.43,25.43,0,0,1,14.9-7.3c1-.1,2-.2,3-.2H293.7A25.46,25.46,0,0,1,319.1,343Z"/><path class="cls-4" d="M595.4,181.5H513.1a26.39,26.39,0,0,1-21.3-10.9L423.6,75.7a54.53,54.53,0,0,0-31.9-21.4L290.4,29.9a9.45,9.45,0,0,0-11.6,8,51.36,51.36,0,0,0,39.1,56.2l60.5,14.4,41.7,87c-18.1,0-13.9,4.1-13.9,4.1H363.1v169h20.3a229.92,229.92,0,0,0,108.4-27.2,48.77,48.77,0,0,1,22.7-5.8h80.9Z"/><polyline class="cls-5" points="329.4 110.6 329.4 123.4 313 123.4 313 117.2 313 110.6"/><rect class="cls-6" x="313" y="110.6" width="16.4" height="6.4"/><polyline class="cls-7" points="329.4 110.6 329.4 123.2 313 123.2 313 117 313 110.6"/><path class="cls-1" d="M457.3,246.8a136.09,136.09,0,0,1-245.6,80.8A134.46,134.46,0,0,1,188.5,277a.37.37,0,0,0-.1-.3,136.48,136.48,0,0,1,16-99.8,136.11,136.11,0,0,1,252.9,69.9Z"/><circle class="cls-8" cx="321.2" cy="246.8" r="117"/><path class="cls-3" d="M247.3,302.2a25.48,25.48,0,0,1-25.5,25.5H211.6a134.46,134.46,0,0,1-23.2-50.6,27.28,27.28,0,0,1,4.1-.3h-4.2a136.48,136.48,0,0,1,16-99.8h13.9a25.46,25.46,0,0,1,25.5,25.4h0a25.53,25.53,0,0,1-20.6,25,25.74,25.74,0,0,1,12.1,9.2,25.54,25.54,0,0,1-20.7,40.3h7.4a25.48,25.48,0,0,1,18,7.5A24.81,24.81,0,0,1,247.3,302.2Z"/><circle class="cls-9" cx="279.7" cy="286.8" r="4"/><path class="cls-9" d="M282.9,285a.92.92,0,0,1-.65-.27.91.91,0,0,1,0-1.27l97.7-95a.91.91,0,0,1,1.28,0,.92.92,0,0,1,0,1.28l-97.7,95A.87.87,0,0,1,282.9,285Z"/><path class="cls-9" d="M332.1,193.6a.92.92,0,0,1-.6-.23l-17.4-15.5a.9.9,0,1,1,1.2-1.34L332.7,192a.9.9,0,0,1,.07,1.27A.89.89,0,0,1,332.1,193.6Z"/><path class="cls-10" d="M359.4,155.9a3.78,3.78,0,0,1-2.8-1.2,4.2,4.2,0,0,1-1.2-2.8,3.78,3.78,0,0,1,1.2-2.8,4.2,4.2,0,0,1,2.8-1.2,3.78,3.78,0,0,1,2.8,1.2,4.2,4.2,0,0,1,1.2,2.8,3.78,3.78,0,0,1-1.2,2.8A3.63,3.63,0,0,1,359.4,155.9Z"/><path class="cls-10" d="M415.3,210.7a3.78,3.78,0,0,1-2.8-1.2,4.2,4.2,0,0,1-1.2-2.8,3.78,3.78,0,0,1,1.2-2.8,4.2,4.2,0,0,1,2.8-1.2,3.78,3.78,0,0,1,2.8,1.2,4.2,4.2,0,0,1,1.2,2.8,3.78,3.78,0,0,1-1.2,2.8A4,4,0,0,1,415.3,210.7Z"/><path class="cls-10" d="M416,289a3.78,3.78,0,0,1-2.8-1.2A4.2,4.2,0,0,1,412,285a3.78,3.78,0,0,1,1.2-2.8A4.2,4.2,0,0,1,416,281a3.78,3.78,0,0,1,2.8,1.2A4.2,4.2,0,0,1,420,285a4.1,4.1,0,0,1-4,4Z"/><path class="cls-10" d="M361.2,344.9a3.78,3.78,0,0,1-2.8-1.2,4.2,4.2,0,0,1-1.2-2.8,3.78,3.78,0,0,1,1.2-2.8,4.2,4.2,0,0,1,2.8-1.2,3.78,3.78,0,0,1,2.8,1.2,4.2,4.2,0,0,1,1.2,2.8,3.78,3.78,0,0,1-1.2,2.8A4.42,4.42,0,0,1,361.2,344.9Z"/><path class="cls-10" d="M282.9,345.6a3.78,3.78,0,0,1-2.8-1.2,4.2,4.2,0,0,1-1.2-2.8,3.78,3.78,0,0,1,1.2-2.8,4.2,4.2,0,0,1,2.8-1.2,3.78,3.78,0,0,1,2.8,1.2,4.2,4.2,0,0,1,1.2,2.8,4.1,4.1,0,0,1-4,4Z"/><path class="cls-5" d="M227,290.8a3.78,3.78,0,0,1-2.8-1.2,4.2,4.2,0,0,1-1.2-2.8,3.78,3.78,0,0,1,1.2-2.8,4.2,4.2,0,0,1,2.8-1.2,3.78,3.78,0,0,1,2.8,1.2,4.2,4.2,0,0,1,1.2,2.8,3.78,3.78,0,0,1-1.2,2.8A4,4,0,0,1,227,290.8Z"/><path class="cls-10" d="M226.3,212.5a3.78,3.78,0,0,1-2.8-1.2,4.2,4.2,0,0,1-1.2-2.8,3.78,3.78,0,0,1,1.2-2.8,4.2,4.2,0,0,1,2.8-1.2,3.78,3.78,0,0,1,2.8,1.2,4.2,4.2,0,0,1,1.2,2.8,3.78,3.78,0,0,1-1.2,2.8A3.63,3.63,0,0,1,226.3,212.5Z"/><path class="cls-10" d="M281.2,156.6a3.78,3.78,0,0,1-2.8-1.2,4.2,4.2,0,0,1-1.2-2.8,3.78,3.78,0,0,1,1.2-2.8,4.2,4.2,0,0,1,2.8-1.2,3.78,3.78,0,0,1,2.8,1.2,4.2,4.2,0,0,1,1.2,2.8,3.78,3.78,0,0,1-1.2,2.8A4,4,0,0,1,281.2,156.6Z"/><path class="cls-10" d="M321.2,148.5a3.78,3.78,0,0,1-2.8-1.2,4.2,4.2,0,0,1-1.2-2.8,3.78,3.78,0,0,1,1.2-2.8,4.2,4.2,0,0,1,2.8-1.2,3.78,3.78,0,0,1,2.8,1.2,4.2,4.2,0,0,1,1.2,2.8,3.78,3.78,0,0,1-1.2,2.8A4,4,0,0,1,321.2,148.5Z"/><path class="cls-10" d="M393.5,178.4a3.78,3.78,0,0,1-2.8-1.2,4.2,4.2,0,0,1-1.2-2.8,3.78,3.78,0,0,1,1.2-2.8,4.2,4.2,0,0,1,2.8-1.2,3.78,3.78,0,0,1,2.8,1.2,4.2,4.2,0,0,1,1.2,2.8,3.78,3.78,0,0,1-1.2,2.8A4,4,0,0,1,393.5,178.4Z"/><path class="cls-10" d="M423.4,250.7a3.78,3.78,0,0,1-2.8-1.2,4.2,4.2,0,0,1-1.2-2.8,3.78,3.78,0,0,1,1.2-2.8,4.2,4.2,0,0,1,2.8-1.2,3.78,3.78,0,0,1,2.8,1.2,4.2,4.2,0,0,1,1.2,2.8,3.78,3.78,0,0,1-1.2,2.8A3.63,3.63,0,0,1,423.4,250.7Z"/><path class="cls-10" d="M393.5,323.1a3.78,3.78,0,0,1-2.8-1.2,4.2,4.2,0,0,1-1.2-2.8,3.78,3.78,0,0,1,1.2-2.8,4.2,4.2,0,0,1,2.8-1.2,3.78,3.78,0,0,1,2.8,1.2,4.2,4.2,0,0,1,1.2,2.8,3.78,3.78,0,0,1-1.2,2.8A4.42,4.42,0,0,1,393.5,323.1Z"/><path class="cls-10" d="M321.2,353a3.78,3.78,0,0,1-2.8-1.2,4.2,4.2,0,0,1-1.2-2.8,3.78,3.78,0,0,1,1.2-2.8,4.2,4.2,0,0,1,2.8-1.2,3.78,3.78,0,0,1,2.8,1.2,4.2,4.2,0,0,1,1.2,2.8,3.78,3.78,0,0,1-1.2,2.8A4,4,0,0,1,321.2,353Z"/><path class="cls-10" d="M248.9,323.1a3.78,3.78,0,0,1-2.8-1.2,4.2,4.2,0,0,1-1.2-2.8,3.78,3.78,0,0,1,1.2-2.8,4.2,4.2,0,0,1,2.8-1.2,3.78,3.78,0,0,1,2.8,1.2,4.2,4.2,0,0,1,1.2,2.8,3.78,3.78,0,0,1-1.2,2.8A4.42,4.42,0,0,1,248.9,323.1Z"/><path class="cls-5" d="M218.9,250.7a3.78,3.78,0,0,1-2.8-1.2,4.2,4.2,0,0,1-1.2-2.8,3.78,3.78,0,0,1,1.2-2.8,4.2,4.2,0,0,1,2.8-1.2,3.78,3.78,0,0,1,2.8,1.2,4.2,4.2,0,0,1,1.2,2.8,4.1,4.1,0,0,1-4,4Z"/><path class="cls-10" d="M248.9,178.4a3.78,3.78,0,0,1-2.8-1.2,4.2,4.2,0,0,1-1.2-2.8,3.78,3.78,0,0,1,1.2-2.8,4.2,4.2,0,0,1,2.8-1.2,3.78,3.78,0,0,1,2.8,1.2,4.2,4.2,0,0,1,1.2,2.8,3.78,3.78,0,0,1-1.2,2.8A4,4,0,0,1,248.9,178.4Z"/><circle class="cls-11" cx="321.2" cy="183" r="20.3"/><path class="cls-12" d="M203.2,214.7H173.9a25.48,25.48,0,0,1-25.5-25.5h0a25.48,25.48,0,0,1,25.5-25.5h29.3a25.48,25.48,0,0,1,25.5,25.5h0A25.61,25.61,0,0,1,203.2,214.7Z"/><path class="cls-2" d="M202.1,205.6H188.5V173h13.6a16.3,16.3,0,0,1,16.3,16.3h0A16.37,16.37,0,0,1,202.1,205.6Z"/><rect class="cls-13" x="513.1" y="181.5" width="43.6" height="175"/><rect class="cls-3" x="531.6" y="181.5" width="43.6" height="175"/><path class="cls-12" d="M206.7,317.5H177.4A25.48,25.48,0,0,1,151.9,292h0a25.48,25.48,0,0,1,25.5-25.5h29.3A25.48,25.48,0,0,1,232.2,292h0A25.48,25.48,0,0,1,206.7,317.5Z"/><path class="cls-12" d="M199.4,266.6H170.1a25.48,25.48,0,0,1-25.5-25.5h0a25.48,25.48,0,0,1,25.5-25.5h29.3a25.48,25.48,0,0,1,25.5,25.5h0A25.61,25.61,0,0,1,199.4,266.6Z"/><rect class="cls-11" x="513.1" y="181.5" width="43.6" height="175"/><rect class="cls-14" x="546.3" y="172.9" width="209.1" height="211.3"/><path class="cls-2" d="M200.3,257.5H184.7V224.9h15.6a16.3,16.3,0,0,1,16.3,16.3h0A16.3,16.3,0,0,1,200.3,257.5Z"/><path class="cls-2" d="M207,308.4H192.1V275.8H207a16.3,16.3,0,0,1,16.3,16.3h0A16.18,16.18,0,0,1,207,308.4Z"/><path class="cls-11" d="M754.8,384.2H546.3V172.9H755.4V383.5A.67.67,0,0,1,754.8,384.2Z"/><path class="cls-15" d="M244.9,144.6a126,126,0,0,1,47.3-22"/><path class="cls-15" d="M226.9,160.9q4.35-4.65,9-9"/><circle class="cls-11" cx="584.1" cy="353" r="10.3"/><circle class="cls-16" cx="321.2" cy="246.8" r="6.4"/><circle class="cls-16" cx="321.2" cy="183" r="4.7"/></svg>