<?xml version="1.0" encoding="utf-8"?>
<!-- Generator: Adobe Illustrator 23.0.1, SVG Export Plug-In . SVG Version: 6.00 Build 0)  -->
<svg version="1.1" id="Layer_1" xmlns="http://www.w3.org/2000/svg" xmlns:xlink="http://www.w3.org/1999/xlink" x="0px" y="0px"
	 viewBox="0 0 230 230" style="enable-background:new 0 0 230 230;" xml:space="preserve">
<style type="text/css">
	.st0{fill:#D4D4D4;}
	.st1{fill:#F2F2F2;}
	.st2{fill:#FFFFFF;}
	.st3{fill:#414242;}
	.st4{fill:#DFDFDF;}
	.st5{fill:#A4A4A4;}
	.st6{fill:#F1F1F1;}
	.st7{fill:#D5D5D5;}
	.st8{fill:#A5A5A5;}
	.st9{fill:#837FCB;}
	.st10{fill:#9F9FDD;}
	.st11{fill:#6F6FB2;}
	.st12{fill:#9595D8;}
</style>
<g>
	<g id="XMLID_1032_">
		<g id="XMLID_1220_">
			<g id="XMLID_1221_">
				<path id="XMLID_399_" class="st0" d="M54.6,147l-9.1,5.2c-1.5,0.8-3.3,0.8-4.8,0l-8.8-5.2c-1.3-0.7-1.2-2.5,0-3.3l10.5-5.9
					c0.6-0.3,1.3-0.3,1.9,0l10.4,5.9C55.9,144.5,55.9,146.3,54.6,147z"/>
			</g>
		</g>
		<g id="XMLID_1034_">
			<g id="XMLID_1035_">
				<g id="XMLID_1151_">
					<g id="XMLID_1207_">
						<g id="XMLID_1208_">
							<g id="XMLID_1218_">
								<g id="XMLID_1219_">
									<path id="XMLID_396_" class="st1" d="M53.1,140.9l-11.4,6.5c0,0,0,0-0.1,0l-11.1-6.5c0,0,0-0.1,0-0.1l11.3-6.4
										c0,0,0,0,0.1,0l11.3,6.4C53.1,140.8,53.1,140.8,53.1,140.9z"/>
								</g>
							</g>
							<g id="XMLID_1215_">
								<g id="XMLID_1217_">
									<path id="XMLID_390_" class="st2" d="M53,143.1l-11.4,6.5c0,0,0,0-0.1,0l-11.1-6.5c0,0,0-0.1,0-0.1l11.3-6.4c0,0,0,0,0.1,0
										L53,143C53,143,53,143.1,53,143.1z"/>
								</g>
							</g>
							<g id="XMLID_1209_">
								<g id="XMLID_1211_">
									<path id="XMLID_385_" class="st3" d="M41.7,147.7l-0.2-0.1L30.1,141l0-0.3c0-0.1,0.1-0.3,0.2-0.4l11.5-6.5L42,134l11.4,6.5
										l0,0.3c0,0.1-0.1,0.3-0.2,0.4L41.7,147.7z M31.1,140.8l10.6,6.2l10.8-6.1l-10.7-6.1L31.1,140.8z"/>
								</g>
							</g>
						</g>
					</g>
					<g id="XMLID_1189_">
						<g id="XMLID_1190_">
							<g id="XMLID_1197_">
								<g id="XMLID_1204_">
									<path id="XMLID_380_" class="st4" d="M30.4,140.9l0,2.3c0,0,0,0,0,0.1l11.1,6.5c0,0,0.1,0,0.1-0.1l0-2.3c0,0,0,0,0-0.1
										L30.4,140.9C30.5,140.8,30.4,140.8,30.4,140.9z"/>
								</g>
							</g>
							<g id="XMLID_1192_">
								<g id="XMLID_1193_">
									<path id="XMLID_375_" class="st3" d="M41.6,150c-0.1,0-0.1,0-0.2-0.1l-11.3-6.6l0-0.3l0-2.5l0.4-0.3l0.2,0.1l11.3,6.6
										l0,0.3l0,2.5l-0.2,0.2C41.7,150,41.7,150,41.6,150z M30.7,143l10.6,6.2l0-1.6l-10.6-6.2L30.7,143z"/>
								</g>
							</g>
						</g>
					</g>
					<g id="XMLID_1153_">
						<g id="XMLID_1165_">
							<g id="XMLID_1186_">
								<g id="XMLID_1188_">
									<path id="XMLID_370_" class="st5" d="M53.2,140.9l0,2.3c0,0,0,0,0,0.1l-11.4,6.5c0,0-0.1,0-0.1-0.1l0-2.3c0,0,0,0,0-0.1
										L53.2,140.9C53.1,140.8,53.2,140.9,53.2,140.9z"/>
								</g>
							</g>
							<g id="XMLID_1166_">
								<g id="XMLID_1183_">
									<path id="XMLID_365_" class="st3" d="M41.8,150.1l-0.2-0.1c-0.1-0.1-0.2-0.2-0.2-0.4l0-2.5l0.2-0.2l11.6-6.6l0.2,0.1
										c0.1,0.1,0.2,0.2,0.2,0.4l0,2.5l-0.2,0.2L41.8,150.1z M42,147.5l0,1.6l10.8-6.1l0-1.6L42,147.5z"/>
								</g>
							</g>
						</g>
					</g>
				</g>
				<g id="XMLID_1140_">
					<g id="XMLID_1141_">
						<g id="XMLID_1148_">
							<g id="XMLID_1149_">
								<path id="XMLID_359_" class="st5" d="M41.8,142L41.8,142c-1.3,0-2.4-1.1-2.4-2.4l0-9.2c0-0.2,0.1-0.3,0.3-0.3l4.3,0
									c0.2,0,0.3,0.1,0.3,0.3l0,9.2C44.2,140.9,43.1,142,41.8,142z"/>
							</g>
						</g>
						<g id="XMLID_1143_">
							<g id="XMLID_1144_">
								<path id="XMLID_342_" class="st3" d="M41.8,142.3c-1.5,0-2.8-1.2-2.8-2.8l0-9.2c0-0.4,0.3-0.6,0.6-0.6l4.3,0
									c0.4,0,0.6,0.3,0.6,0.6l0,9.2C44.6,141.1,43.3,142.3,41.8,142.3z M39.7,130.4l0,9.2c0,1.1,0.9,2.1,2.1,2.1
									c1.1,0,2.1-0.9,2.1-2.1l0-9.2L39.7,130.4z"/>
							</g>
						</g>
					</g>
				</g>
				<g id="XMLID_1127_">
					<g id="XMLID_1128_">
						<g id="XMLID_1137_">
							<g id="XMLID_1139_">
								<path id="XMLID_337_" class="st6" d="M44,129.3l-4.3,0c-0.2,0-0.3,0.1-0.3,0.3l0,2.9c0,1.3,1.1,2.4,2.4,2.4
									c1.3,0,2.4-1.1,2.4-2.4l0-2.9C44.2,129.5,44.1,129.3,44,129.3z"/>
							</g>
						</g>
						<g id="XMLID_1135_">
							<g id="XMLID_1136_">
								<path id="XMLID_334_" class="st2" d="M44,128l-4.3,0c-0.2,0-0.3,0.1-0.3,0.3l0,2.9c0,1.3,1.1,2.4,2.4,2.4
									c1.3,0,2.4-1.1,2.4-2.4l0-2.9C44.3,128.1,44.2,128,44,128z"/>
							</g>
						</g>
						<g id="XMLID_1129_">
							<g id="XMLID_1131_">
								<path id="XMLID_329_" class="st3" d="M41.8,135.3c-1.5,0-2.8-1.2-2.8-2.8l0-2.9c0-0.4,0.3-0.6,0.6-0.6l4.3,0
									c0.4,0,0.6,0.3,0.6,0.6l0,2.9C44.6,134.1,43.3,135.3,41.8,135.3z M39.7,129.7l0,2.9c0,1.1,0.9,2.1,2.1,2.1
									c1.1,0,2.1-0.9,2.1-2.1l0-2.9L39.7,129.7z"/>
							</g>
						</g>
					</g>
				</g>
				<g id="XMLID_1086_">
					<g id="XMLID_1110_">
						<g id="XMLID_1124_">
							<g id="XMLID_1126_">
								
									<ellipse id="XMLID_309_" transform="matrix(0.676 -0.7369 0.7369 0.676 -74.6874 69.6252)" class="st4" cx="41.8" cy="119.7" rx="12.2" ry="12.2"/>
							</g>
						</g>
						<g id="XMLID_1120_">
							<g id="XMLID_1122_">
								<path id="XMLID_305_" class="st2" d="M52.7,114.2c-0.6-0.5-1.2-1-1.8-1.4c-2.2,3.4-6,5.7-10.3,5.7c-2.5,0-4.7-0.7-6.6-2
									c-1.2,1.9-1.9,4.1-1.9,6.6c0,2,0.5,3.9,1.4,5.6c2.2,2.1,5.2,3.4,8.4,3.4c6.8,0,12.2-5.5,12.3-12.2
									C54.1,117.7,53.6,115.8,52.7,114.2z"/>
							</g>
						</g>
						<g id="XMLID_1112_">
							<g id="XMLID_1114_">
								<path id="XMLID_300_" class="st3" d="M41.8,132.3c-6.9,0-12.6-5.7-12.6-12.6c0-6.9,5.7-12.6,12.6-12.6
									c6.9,0,12.6,5.7,12.6,12.6C54.4,126.7,48.7,132.3,41.8,132.3z M41.8,107.8c-6.6,0-11.9,5.3-11.9,11.9
									c0,6.6,5.3,11.9,11.9,11.9c6.6,0,11.9-5.3,11.9-11.9C53.7,113.2,48.4,107.9,41.8,107.8z"/>
							</g>
						</g>
					</g>
				</g>
				<g id="XMLID_1066_">
					<g id="XMLID_1069_">
						<g id="XMLID_1078_">
							<g id="XMLID_1081_">
								<path id="XMLID_295_" class="st5" d="M50.2,110.8c0.1,0.7,0.2,1.3,0.2,2c0,6.8-5.5,12.2-12.3,12.2c-3.2,0-6.1-1.2-8.3-3.3
									c0.9,5.8,6,10.2,12.1,10.3c6.8,0,12.2-5.5,12.3-12.2C54.1,116.2,52.6,113,50.2,110.8z"/>
							</g>
						</g>
						<g id="XMLID_1071_">
							<g id="XMLID_1072_">
								<path id="XMLID_290_" class="st3" d="M41.8,132.3c-6.2,0-11.4-4.4-12.4-10.5l0.3-1.3l0.2,1c2.2,2,5.1,3.2,8.1,3.2
									c6.6,0,11.9-5.3,11.9-11.9c0-0.6-0.1-1.3-0.2-1.9l-0.2-1l0.7,0.7c2.6,2.4,4,5.7,4,9.2C54.4,126.7,48.7,132.3,41.8,132.3z
									 M30.3,122.6c1.3,5.3,6,9,11.5,9c6.6,0,11.9-5.3,11.9-11.9c0-3-1.1-5.8-3.1-8c0,0.3,0,0.7,0,1c0,6.9-5.7,12.6-12.6,12.6
									C35.2,125.3,32.5,124.4,30.3,122.6z"/>
							</g>
						</g>
					</g>
				</g>
				<g id="XMLID_1050_">
					<g id="XMLID_1051_">
						<g id="XMLID_1063_">
							<g id="XMLID_1065_">
								<path id="XMLID_285_" class="st4" d="M50.3,109c0,4.7-3.8,7.3-8.5,7.3c-4.7,0-8.5-2.6-8.5-7.3c0-4.7,3.8-8.5,8.5-8.5
									C46.5,100.6,50.3,104.4,50.3,109z"/>
							</g>
						</g>
						<g id="XMLID_1059_">
							<g id="XMLID_1060_">
								<path id="XMLID_282_" class="st2" d="M50.4,109c0-1.2-0.2-2.3-0.7-3.3c-1.6-1.9-3.9-3.1-6.6-3.1c-4.7,0-8.5,3.8-8.5,8.5
									c0,1,0.2,1.8,0.5,2.6c1.5,1.7,4,2.7,6.8,2.7C46.6,116.3,50.4,113.7,50.4,109z"/>
							</g>
						</g>
						<g id="XMLID_1052_">
							<g id="XMLID_1053_">
								<path id="XMLID_277_" class="st3" d="M41.8,116.7c-5.3,0-8.8-3.1-8.8-7.7c0-4.9,4-8.8,8.8-8.8c4.9,0,8.8,4,8.8,8.8
									C50.7,113.6,47.1,116.7,41.8,116.7z M41.9,100.9c-4.5,0-8.1,3.6-8.1,8.1c0,4.8,4.1,7,8.1,7c4,0,8.1-2.1,8.1-7
									C50,104.6,46.3,100.9,41.9,100.9z"/>
							</g>
						</g>
					</g>
				</g>
				<g id="XMLID_1036_">
					<g id="XMLID_1038_">
						<g id="XMLID_1046_">
							<g id="XMLID_1048_">
								<path id="XMLID_272_" class="st5" d="M43.7,100.8c1,1.4,1.7,3.1,1.7,5c0,4.7-3.8,7.3-8.5,7.3c-0.8,0-1.6-0.1-2.4-0.3
									c1.4,2.3,4.2,3.5,7.4,3.5c4.7,0,8.5-2.6,8.5-7.3C50.3,105,47.5,101.6,43.7,100.8z"/>
							</g>
						</g>
						<g id="XMLID_1040_">
							<g id="XMLID_1042_">
								<path id="XMLID_267_" class="st3" d="M41.8,116.7c-3.4,0-6.2-1.3-7.7-3.7l-0.4-0.7l0.8,0.2c4.6,1,10.5-0.9,10.5-6.7
									c0-1.7-0.5-3.4-1.6-4.8l-0.5-0.7l0.9,0.2c4,0.9,6.9,4.5,6.9,8.6C50.7,113.6,47.1,116.7,41.8,116.7z M35.2,113.3
									c1.4,1.7,3.8,2.7,6.6,2.7c4,0,8.1-2.1,8.1-7c0-3.5-2.3-6.6-5.5-7.7c0.8,1.4,1.2,2.9,1.2,4.5c0,4.6-3.6,7.7-8.8,7.6
									C36.3,113.4,35.7,113.4,35.2,113.3z"/>
							</g>
						</g>
					</g>
				</g>
			</g>
		</g>
	</g>
	<g id="XMLID_3405_">
		<g id="XMLID_3402_">
			<g id="XMLID_3403_">
				<path id="XMLID_2130_" class="st7" d="M199.5,170.8l-58.8,33.9c-2.7,1.5-6,1.5-8.6,0l-66.6-39.3c-1.8-1-1.8-3.6,0-4.7l61.8-35.6
					c0.8-0.5,1.9-0.5,2.7,0l69.3,40.9C201.1,167,201.3,169.7,199.5,170.8z"/>
			</g>
		</g>
		<g id="XMLID_48_">
			<g id="XMLID_9749_">
				<g id="XMLID_2261_">
					<path id="XMLID_2119_" class="st4" d="M177.1,164.3L177.1,164.3l0.1-101.1l-77.3-8l-39.9-1.4L59.9,155c0,0.1,0,0.2,0,0.3v0l0,0
						c0.1,1.1,0.9,2.2,2.4,3.1l58.4,33.9c2.9,1.7,7.4,1.9,10,0.4l44.7-25.7C176.6,166.3,177.2,165.3,177.1,164.3z"/>
				</g>
				<g id="XMLID_9994_">
					<path id="XMLID_2117_" class="st8" d="M130.7,192.7l42.9-25c1.2-0.7,2.2-2.3,2.1-3.3l0.1-101.1l-10.1-1l-40.3,27.9l-0.1,103.5
						C126.8,193.6,129.6,193.3,130.7,192.7z"/>
				</g>
				<g id="XMLID_2258_">
					<path id="XMLID_2105_" class="st3" d="M126.4,194c-2,0-4.1-0.5-5.8-1.4l-58.4-33.9c-1.6-0.9-2.5-2.1-2.6-3.4c0-0.1,0-0.2,0-0.3
						l0.1-101.4l40.2,1.4l77.6,8l-0.1,101.4c0.1,1.1-0.6,2.2-1.9,2.9l-44.7,25.7C129.7,193.6,128.1,194,126.4,194z M60.4,54.2
						L60.2,155c0,0.1,0,0.2,0,0.3c0.1,1,0.9,2.1,2.3,2.9l58.4,33.9c2.9,1.7,7.2,1.8,9.6,0.4l44.7-25.7c1.1-0.6,1.6-1.4,1.6-2.3l0,0
						L177,63.5l-77-8L60.4,54.2z"/>
				</g>
			</g>
			<g id="XMLID_9747_">
				<g id="XMLID_10518_">
					<path id="XMLID_2094_" class="st4" d="M175.5,65.6l-44.7,25.7c-2.6,1.5-7,1.3-10-0.4L62.5,57c-2.9-1.7-3.3-4.3-0.7-5.7
						l44.7-25.7c2.6-1.5,7-1.3,10,0.4l58.4,33.9C177.8,61.5,178.1,64.1,175.5,65.6z"/>
				</g>
				<g id="XMLID_9991_">
					<path id="XMLID_2092_" class="st2" d="M174.8,62l-58.4-33.9c-2.9-1.7-7.4-1.9-10-0.4L61.8,53.4c-0.7,0.4-1.1,0.9-1.4,1.4
						c0.4,0.7,1.1,1.5,2.1,2.1l58.4,33.9c2.9,1.7,7.4,1.9,10,0.4l44.7-25.7c0.7-0.4,1.1-0.9,1.4-1.4C176.6,63.3,175.9,62.6,174.8,62
						z"/>
				</g>
				<g id="XMLID_2256_">
					<path id="XMLID_2080_" class="st3" d="M126.6,92.6c-2,0-4.1-0.5-5.8-1.4L62.3,57.3c-1.6-1-2.6-2.2-2.6-3.5
						c0-1.1,0.7-2.1,1.9-2.8l44.7-25.7c2.6-1.5,7.2-1.3,10.3,0.4L175,59.6c1.6,1,2.6,2.2,2.6,3.5c0,1.1-0.7,2.1-1.9,2.8L131,91.6
						C129.8,92.2,128.2,92.6,126.6,92.6z M110.8,24.8c-1.6,0-3.1,0.3-4.2,0.9L61.9,51.5c-1,0.6-1.6,1.4-1.6,2.2c0,1.1,0.8,2.1,2.3,3
						l58.4,33.9c2.9,1.7,7.2,1.8,9.6,0.4l44.7-25.7c1-0.6,1.6-1.4,1.6-2.2c0-1.1-0.8-2.1-2.3-3l-58.4-33.9
						C114.7,25.3,112.7,24.8,110.8,24.8z"/>
				</g>
			</g>
			<g id="XMLID_9745_">
				<g id="XMLID_10514_">
					<path id="XMLID_2077_" class="st4" d="M164.8,64.5l-35.1,20.2c-1.9,1.1-5.3,1-7.5-0.3L73,56c-2.2-1.3-2.5-3.2-0.5-4.3
						l35.1-20.2c1.9-1.1,5.3-1,7.5,0.3l49.2,28.5C166.5,61.5,166.8,63.4,164.8,64.5z"/>
				</g>
				<g id="XMLID_9992_">
					<path id="XMLID_2067_" class="st2" d="M107.9,44.8L83.1,58.9l41.7,24.2c2.2,1.3,5.6,1.4,7.5,0.3l24.8-14.1l-41.7-24.2
						C113.2,43.8,109.8,43.7,107.9,44.8z"/>
				</g>
				<g id="XMLID_10515_">
					<path id="XMLID_1873_" class="st3" d="M126.5,85.8c-1.5,0-3.1-0.4-4.4-1.1L72.9,56.2c-1.3-0.7-2-1.7-2-2.7
						c0-0.8,0.5-1.6,1.5-2.1l35.1-20.2c2-1.2,5.5-1,7.8,0.3l49.2,28.5c1.3,0.7,2,1.7,2,2.7c0,0.8-0.5,1.6-1.5,2.1L129.9,85
						C129,85.6,127.7,85.8,126.5,85.8z M110.9,31c-1.2,0-2.3,0.2-3.1,0.7L72.7,51.9c-0.7,0.4-1.1,1-1.1,1.6c0,0.8,0.6,1.6,1.7,2.2
						l49.2,28.5c2.1,1.2,5.4,1.4,7.2,0.3l35.1-20.2c0.7-0.4,1.1-1,1.1-1.6c0-0.8-0.6-1.6-1.7-2.2L115,32
						C113.8,31.3,112.3,31,110.9,31z"/>
				</g>
			</g>
			<g id="XMLID_10507_">
				<path id="XMLID_1804_" class="st4" d="M73,56l5.2,3l29.3-16.9c1.9-1.1,5.3-1,7.5,0.3L159,67.9l5.8-3.3c1.9-1.1,1.7-3.1-0.5-4.3
					l-49.2-28.5c-2.2-1.3-5.6-1.4-7.5-0.3L72.5,51.6C70.6,52.7,70.8,54.7,73,56z"/>
			</g>
			<g id="XMLID_9824_">
				<g id="XMLID_9822_">
					<g id="XMLID_10357_">
						<polygon id="XMLID_1802_" class="st4" points="142.5,171.8 133.7,176.8 133.7,160.1 142.5,155 						"/>
					</g>
					<g id="XMLID_10358_">
						<path id="XMLID_1786_" class="st3" d="M133.4,177.3l0-17.3l0.1-0.1l9.2-5.3l0,17.3l-0.1,0.1L133.4,177.3z M133.9,160.2l0,16.2
							l8.3-4.8l0-16.2L133.9,160.2z"/>
					</g>
				</g>
				<g id="XMLID_9831_">
					<g id="XMLID_10353_">
						<polygon id="XMLID_1783_" class="st4" points="140.6,156.1 140.6,170.5 133.7,174.5 133.7,176.8 142.5,171.8 142.5,155 						
							"/>
					</g>
					<g id="XMLID_10354_">
						<path id="XMLID_1779_" class="st3" d="M133.4,177.3l0-2.9l6.9-4l0-14.4l2.4-1.4l0,17.3l-0.1,0.1L133.4,177.3z M133.9,174.6
							l0,1.8l8.3-4.8l0-16.2l-1.4,0.8l0,14.4L133.9,174.6z"/>
					</g>
				</g>
			</g>
			<g id="XMLID_9833_">
				<g id="XMLID_9835_">
					<g id="XMLID_10349_">
						<polygon id="XMLID_1775_" class="st4" points="169.6,156.2 160.8,161.3 160.8,144.5 169.6,139.5 						"/>
					</g>
					<g id="XMLID_10350_">
						<path id="XMLID_1771_" class="st3" d="M160.6,161.7l0-17.3l0.1-0.1l9.2-5.3l0,17.3l-0.1,0.1L160.6,161.7z M161.1,144.7l0,16.2
							l8.3-4.8l0-16.2L161.1,144.7z"/>
					</g>
				</g>
				<g id="XMLID_9834_">
					<g id="XMLID_10345_">
						<polygon id="XMLID_1576_" class="st4" points="167.8,140.6 167.7,154.9 160.8,158.9 160.8,161.3 169.6,156.2 169.6,139.5 
													"/>
					</g>
					<g id="XMLID_10346_">
						<path id="XMLID_1570_" class="st3" d="M160.6,161.7l0-2.9l6.9-4l0-14.4l2.4-1.4l0,17.3l-0.1,0.1L160.6,161.7z M161.1,159.1
							l0,1.8l8.3-4.8l0-16.2l-1.4,0.8l0,14.4L161.1,159.1z"/>
					</g>
				</g>
			</g>
			<g id="XMLID_9843_">
				<g id="XMLID_9845_">
					<g id="XMLID_10341_">
						<polygon id="XMLID_1566_" class="st4" points="142.5,146.1 133.7,151.1 133.7,134.4 142.5,129.3 						"/>
					</g>
					<g id="XMLID_10342_">
						<path id="XMLID_1482_" class="st3" d="M133.4,151.5l0-17.3l0.1-0.1l9.2-5.3l0,17.3l-0.1,0.1L133.4,151.5z M134,134.5l0,16.2
							l8.3-4.8l0-16.2L134,134.5z"/>
					</g>
				</g>
				<g id="XMLID_9844_">
					<g id="XMLID_10337_">
						<polygon id="XMLID_1479_" class="st4" points="140.6,130.4 140.6,144.8 133.7,148.8 133.7,151.1 142.5,146.1 142.5,129.3 
													"/>
					</g>
					<g id="XMLID_10338_">
						<path id="XMLID_1475_" class="st3" d="M133.4,151.5l0-2.9l6.9-4l0-14.4l2.4-1.4l0,17.3l-0.1,0.1L133.4,151.5z M133.9,148.9
							l0,1.8l8.3-4.8l0-16.2l-1.4,0.8l0,14.4L133.9,148.9z"/>
					</g>
				</g>
			</g>
			<g id="XMLID_9840_">
				<g id="XMLID_9842_">
					<g id="XMLID_10333_">
						<polygon id="XMLID_1471_" class="st4" points="169.7,130.5 160.9,135.6 160.9,118.8 169.7,113.8 						"/>
					</g>
					<g id="XMLID_10334_">
						<path id="XMLID_1467_" class="st3" d="M160.6,136l0-17.3l0.1-0.1l9.2-5.3l0,17.3l-0.1,0.1L160.6,136z M161.1,119l0,16.2
							l8.3-4.8l0-16.2L161.1,119z"/>
					</g>
				</g>
				<g id="XMLID_9841_">
					<g id="XMLID_10329_">
						<polygon id="XMLID_1464_" class="st4" points="167.8,114.8 167.8,129.2 160.9,133.2 160.9,135.6 169.7,130.5 169.7,113.8 
													"/>
					</g>
					<g id="XMLID_10330_">
						<path id="XMLID_1460_" class="st3" d="M160.6,136l0-2.9l6.9-4l0-14.4l2.4-1.4l0,17.3l-0.1,0.1L160.6,136z M161.1,133.3l0,1.8
							l8.3-4.8l0-16.2L168,115l0,14.4L161.1,133.3z"/>
					</g>
				</g>
			</g>
			<g id="XMLID_9837_">
				<g id="XMLID_9839_">
					<g id="XMLID_10325_">
						<polygon id="XMLID_1455_" class="st4" points="156.1,138.4 147.3,143.5 147.3,126.8 156.1,121.7 						"/>
					</g>
					<g id="XMLID_10326_">
						<path id="XMLID_1446_" class="st3" d="M147,143.9l0-17.3l0.1-0.1l9.2-5.3l0,17.3l-0.1,0.1L147,143.9z M147.5,126.9l0,16.2
							l8.3-4.8l0-16.2L147.5,126.9z"/>
					</g>
				</g>
				<g id="XMLID_9838_">
					<g id="XMLID_10321_">
						<polygon id="XMLID_1443_" class="st4" points="154.2,122.8 154.2,137.2 147.3,141.1 147.3,143.5 156.1,138.4 156.1,121.7 
													"/>
					</g>
					<g id="XMLID_10322_">
						<path id="XMLID_1437_" class="st3" d="M147,143.9l0-2.9l6.9-4l0-14.4l2.4-1.4l0,17.3l-0.1,0.1L147,143.9z M147.5,141.3l0,1.8
							l8.3-4.8l0-16.2l-1.4,0.8l0,14.4L147.5,141.3z"/>
					</g>
				</g>
			</g>
			<g id="XMLID_9887_">
				<g id="XMLID_9892_">
					<g id="XMLID_10285_">
						<polygon id="XMLID_1225_" class="st4" points="68.3,147.9 77.1,153 77.1,136.3 68.3,131.2 						"/>
					</g>
					<g id="XMLID_10286_">
						<path id="XMLID_1079_" class="st3" d="M77.3,153.4L68,148l0-17.3l9.3,5.4L77.3,153.4z M68.5,147.8l8.3,4.8l0-16.2l-8.3-4.8
							L68.5,147.8z"/>
					</g>
				</g>
				<g id="XMLID_9888_">
					<g id="XMLID_10281_">
						<polygon id="XMLID_1070_" class="st2" points="70.2,133.1 70.2,147.5 77.1,151.5 77.1,153.8 68.3,148.7 68.3,132 						"/>
					</g>
					<g id="XMLID_10282_">
						<path id="XMLID_1058_" class="st3" d="M77.3,153.4L68,148l0-17.3l2.4,1.4l0,14.4l6.9,4L77.3,153.4z M68.5,147.8l8.3,4.8l0-1.8
							l-6.9-4l0-14.4l-1.4-0.8L68.5,147.8z"/>
					</g>
				</g>
			</g>
			<g id="XMLID_9893_">
				<g id="XMLID_9898_">
					<g id="XMLID_2247_">
						<polygon id="XMLID_979_" class="st9" points="109.1,171 117.9,176.1 117.9,159.3 109.1,154.2 						"/>
					</g>
					<g id="XMLID_2244_">
						<path id="XMLID_966_" class="st3" d="M118.1,176.5l-9.3-5.4l0-17.3l9.3,5.4L118.1,176.5z M109.3,170.8l8.3,4.8l0-16.2
							l-8.3-4.8L109.3,170.8z"/>
					</g>
				</g>
				<g id="XMLID_9894_">
					<g id="XMLID_2243_">
						<polygon id="XMLID_963_" class="st2" points="111,156.2 110.9,170.5 117.9,174.5 117.9,176.9 109.1,171.8 109.1,155.1 						
							"/>
					</g>
					<g id="XMLID_1286_">
						<path id="XMLID_959_" class="st3" d="M118.1,176.5l-9.3-5.4l0-17.3l2.4,1.4l0,14.4l6.9,4L118.1,176.5z M109.3,170.8l8.3,4.8
							l0-1.8l-6.9-4l0-14.4l-1.4-0.8L109.3,170.8z"/>
					</g>
				</g>
			</g>
			<g id="XMLID_9889_">
				<g id="XMLID_9891_">
					<g id="XMLID_10221_">
						<polygon id="XMLID_955_" class="st4" points="156,164.2 147.2,169.2 147.3,152.5 156.1,147.4 						"/>
					</g>
					<g id="XMLID_10222_">
						<path id="XMLID_951_" class="st3" d="M147,169.6l0-17.3l0.1-0.1l9.2-5.3l0,17.3l-0.1,0.1L147,169.6z M147.5,152.6l0,16.2
							l8.3-4.8l0-16.2L147.5,152.6z"/>
					</g>
				</g>
				<g id="XMLID_9890_">
					<g id="XMLID_10217_">
						<polygon id="XMLID_948_" class="st4" points="154.2,148.5 154.2,162.9 147.2,166.9 147.2,169.2 156,164.2 156.1,147.4 						
							"/>
					</g>
					<g id="XMLID_10218_">
						<path id="XMLID_944_" class="st3" d="M147,169.6l0-2.9l6.9-4l0-14.4l2.4-1.4l0,17.3l-0.1,0.1L147,169.6z M147.5,167l0,1.8
							l8.3-4.8l0-16.2l-1.4,0.8l0,14.4L147.5,167z"/>
					</g>
				</g>
			</g>
			<g id="XMLID_9965_">
				<g id="XMLID_10199_">
					
						<rect id="XMLID_940_" x="73.4" y="133.5" transform="matrix(0.5003 -0.8659 0.8659 0.5003 -82.2808 132.4994)" class="st3" width="0.5" height="8"/>
				</g>
			</g>
			<g id="XMLID_9852_">
				<g id="XMLID_9909_">
					<g id="XMLID_10196_">
						<polygon id="XMLID_937_" class="st3" points="147.4,155.7 147.1,155.3 154.1,151.3 154.3,151.7 						"/>
					</g>
				</g>
				<g id="XMLID_9899_">
					<g id="XMLID_10195_">
						
							<rect id="XMLID_934_" x="149.5" y="154.5" transform="matrix(1.418277e-03 -1 1 1.418277e-03 -4.1986 305.1925)" class="st3" width="2.4" height="0.5"/>
					</g>
				</g>
				<g id="XMLID_9874_">
					<g id="XMLID_10192_">
						<path id="XMLID_929_" class="st3" d="M150.4,157.8c-0.1,0-0.2,0-0.3-0.1c-0.2-0.1-0.3-0.4-0.3-0.7c0-0.6,0.3-1.2,0.8-1.4
							l0.2-0.1c0.2-0.1,0.5-0.1,0.7,0c0.2,0.1,0.3,0.4,0.3,0.7c0,0.6-0.3,1.2-0.8,1.4l-0.2,0.1C150.6,157.8,150.5,157.8,150.4,157.8
							z M151.1,155.9c0,0-0.1,0-0.1,0l-0.2,0.1c-0.3,0.2-0.5,0.6-0.5,1c0,0.2,0,0.3,0.1,0.3c0,0,0.1,0,0.2,0l0.2-0.1
							c0.3-0.2,0.5-0.6,0.5-1C151.2,156,151.1,155.9,151.1,155.9C151.1,155.9,151.1,155.9,151.1,155.9z"/>
					</g>
				</g>
			</g>
			<g id="XMLID_9966_">
				<g id="XMLID_10186_">
					<polygon id="XMLID_925_" class="st3" points="133.8,139.2 133.6,138.7 140.5,134.8 140.8,135.2 					"/>
				</g>
			</g>
			<g id="XMLID_10004_">
				<g id="XMLID_10185_">
					<polygon id="XMLID_922_" class="st3" points="160.8,129.4 160.6,129 167.5,125 167.7,125.5 					"/>
				</g>
			</g>
			<g id="XMLID_4939_">
				<g id="XMLID_4945_">
					<g id="XMLID_4995_">
						<polygon id="XMLID_919_" class="st4" points="142.6,120.5 133.8,125.6 133.8,108.8 142.6,103.7 						"/>
					</g>
					<g id="XMLID_4947_">
						<path id="XMLID_915_" class="st3" d="M133.5,126l0-17.3l0.1-0.1l9.2-5.3l0,17.3l-0.1,0.1L133.5,126z M134,109l0,16.2l8.3-4.8
							l0-16.2L134,109z"/>
					</g>
				</g>
				<g id="XMLID_4940_">
					<g id="XMLID_4944_">
						<polygon id="XMLID_912_" class="st4" points="140.7,104.8 140.7,119.2 133.8,123.2 133.8,125.6 142.6,120.5 142.6,103.7 
													"/>
					</g>
					<g id="XMLID_4941_">
						<path id="XMLID_908_" class="st3" d="M133.5,126l0-2.9l6.9-4l0-14.4l2.4-1.4l0,17.3l-0.1,0.1L133.5,126z M134,123.3l0,1.8
							l8.3-4.8l0-16.2L141,105l0,14.4L134,123.3z"/>
					</g>
				</g>
			</g>
			<g id="XMLID_4928_">
				<g id="XMLID_4934_">
					<g id="XMLID_4938_">
						<polygon id="XMLID_904_" class="st4" points="169.7,104.9 160.9,110 160.9,93.3 169.8,88.2 						"/>
					</g>
					<g id="XMLID_1277_">
						<path id="XMLID_900_" class="st3" d="M160.7,110.4l0-17.3l0.1-0.1l9.2-5.3l0,17.3l-0.1,0.1L160.7,110.4z M161.2,93.4l0,16.2
							l8.3-4.8l0-16.2L161.2,93.4z"/>
					</g>
				</g>
				<g id="XMLID_4929_">
					<g id="XMLID_4933_">
						<polygon id="XMLID_897_" class="st4" points="167.9,89.3 167.9,103.6 160.9,107.6 160.9,110 169.7,104.9 169.8,88.2 						"/>
					</g>
					<g id="XMLID_4930_">
						<path id="XMLID_893_" class="st3" d="M160.7,110.4l0-2.9l6.9-4l0-14.4l2.4-1.4l0,17.3l-0.1,0.1L160.7,110.4z M161.2,107.8
							l0,1.8l8.3-4.8l0-16.2l-1.4,0.8l0,14.4L161.2,107.8z"/>
					</g>
				</g>
			</g>
			<g id="XMLID_4917_">
				<g id="XMLID_4923_">
					<g id="XMLID_4927_">
						<polygon id="XMLID_889_" class="st4" points="156.1,112.9 147.3,117.9 147.4,101.2 156.2,96.1 						"/>
					</g>
					<g id="XMLID_4924_">
						<path id="XMLID_885_" class="st3" d="M147.1,118.4l0-17.3l0.1-0.1l9.2-5.3l0,17.3l-0.1,0.1L147.1,118.4z M147.6,101.3l0,16.2
							l8.3-4.8l0-16.2L147.6,101.3z"/>
					</g>
				</g>
				<g id="XMLID_4918_">
					<g id="XMLID_4922_">
						<polygon id="XMLID_882_" class="st4" points="154.3,97.2 154.3,111.6 147.3,115.6 147.3,117.9 156.1,112.9 156.2,96.1 						
							"/>
					</g>
					<g id="XMLID_4919_">
						<path id="XMLID_878_" class="st3" d="M147.1,118.4l0-2.9l6.9-4l0-14.4l2.4-1.4l0,17.3l-0.1,0.1L147.1,118.4z M147.6,115.7
							l0,1.8l8.3-4.8l0-16.2l-1.4,0.8l0,14.4L147.6,115.7z"/>
					</g>
				</g>
			</g>
			<g id="XMLID_4883_">
				<g id="XMLID_4884_">
					<polygon id="XMLID_874_" class="st3" points="133.9,113.6 133.7,113.2 140.6,109.2 140.8,109.6 					"/>
				</g>
			</g>
			<g id="XMLID_4881_">
				<g id="XMLID_4882_">
					<polygon id="XMLID_871_" class="st3" points="160.9,103.9 160.6,103.5 167.5,99.5 167.8,99.9 					"/>
				</g>
			</g>
			<g id="XMLID_9974_">
				<g id="XMLID_10115_">
					<polygon id="XMLID_868_" class="st4" points="99.2,65.8 88.8,59.8 98.5,54.2 108.8,60.3 					"/>
				</g>
				<g id="XMLID_10116_">
					<path id="XMLID_864_" class="st3" d="M99.2,64.5l-10.9-6.4l10.2-5.9l10.9,6.4L99.2,64.5z M89.5,58.1l9.7,5.7l9-5.2l-9.7-5.7
						L89.5,58.1z"/>
				</g>
			</g>
			<g id="XMLID_9984_">
				<g id="XMLID_10111_">
					<polygon id="XMLID_861_" class="st2" points="102.1,60 97.1,57.2 98.9,56.1 103.9,59 					"/>
				</g>
				<g id="XMLID_10112_">
					<path id="XMLID_857_" class="st3" d="M102.1,59.6l-5.6-3.2l2.4-1.4l5.6,3.2L102.1,59.6z M97.7,56.3l4.4,2.5l1.2-0.7l-4.4-2.5
						L97.7,56.3z"/>
				</g>
			</g>
			<g id="XMLID_9900_">
				<g id="XMLID_10008_">
					<g id="XMLID_10035_">
						<polygon id="XMLID_854_" class="st9" points="168.5,185.2 156.1,178 156.1,173.5 159.7,175.6 168.5,183 						"/>
					</g>
					<g id="XMLID_10027_">
						<polygon id="XMLID_852_" class="st9" points="168.5,183 182.5,175 173.6,167.6 159.7,175.6 						"/>
					</g>
					<g id="XMLID_10031_">
						<polygon id="XMLID_850_" class="st9" points="156.1,173.5 170,165.5 173.6,167.6 159.7,175.6 						"/>
					</g>
					<g id="XMLID_10007_">
						<polygon id="XMLID_848_" class="st10" points="156.1,175.1 170,167.2 173.6,169.2 159.7,177.2 						"/>
					</g>
					<g id="XMLID_10010_">
						<g id="XMLID_10023_">
							<polygon id="XMLID_846_" class="st11" points="168.5,185.2 182.5,177.2 182.5,175 168.5,183 							"/>
						</g>
						<g id="XMLID_10640_">
							<path id="XMLID_839_" class="st3" d="M182.7,174.9l-8.7-7.2l-0.3-0.2l-0.1-0.1l-3.6-2.1l-14.2,8.1l0,4.8l12.7,7.3l14.2-8.1
								L182.7,174.9z M168.6,182.7l-8.5-7l13.5-7.7l8.5,7L168.6,182.7z M170,165.8l3.1,1.8l-5.1,2.9l-8.3,4.8l-3.1-1.8L170,165.8z
								 M156.3,177.9l0-3.9l3.2,1.9l2.8,2.3l6,5l0,1.6L156.3,177.9z M182.2,177l-13.4,7.7l0-1.6l13.4-7.7L182.2,177z"/>
						</g>
					</g>
				</g>
			</g>
			<g id="XMLID_9908_">
				<path id="XMLID_834_" class="st4" d="M83,158c0,0-0.1,0-0.1-0.1l-0.2-0.1c-0.6-0.4-1.2-1.3-1.4-2.2c0-0.2-0.1,0-0.1,0l0,1.2
					c0.3,0.6,0.8,1.2,1.3,1.5l0.2,0.1c0.1,0.1,0.2,0.1,0.4,0.2L83,158z"/>
			</g>
			<g id="XMLID_9902_">
				<g id="XMLID_9825_">
					<g id="XMLID_9823_">
						<g id="XMLID_10180_">
							<polygon id="XMLID_832_" class="st4" points="101.1,180.9 81,169.3 81.1,150.2 101.1,161.8 							"/>
						</g>
						<g id="XMLID_10181_">
							<path id="XMLID_828_" class="st3" d="M101.3,181.3l-20.5-11.9l0-19.7l20.5,11.9L101.3,181.3z M81.3,169.1l19.5,11.3l0-18.5
								l-19.5-11.3L81.3,169.1z"/>
						</g>
					</g>
					<g id="XMLID_9828_">
						<g id="XMLID_10176_">
							<polygon id="XMLID_825_" class="st4" points="82.9,168.1 83,151.3 81.1,150.2 81,169.3 101.1,180.9 101.1,178.6 							"/>
						</g>
						<g id="XMLID_10177_">
							<path id="XMLID_821_" class="st3" d="M101.3,181.3l-20.5-11.9l0-19.7l2.4,1.4l0,16.8l18.1,10.5L101.3,181.3z M81.3,169.1
								l19.5,11.3l0-1.8l-18.1-10.5l0-16.8l-1.4-0.8L81.3,169.1z"/>
						</g>
					</g>
				</g>
				<g id="XMLID_9856_">
					<g id="XMLID_9754_">
						<g id="XMLID_9751_">
							<g id="XMLID_10172_">
								<polygon id="XMLID_817_" class="st11" points="98.3,165.7 105.8,161.6 105.8,151.3 96.9,155.4 								"/>
							</g>
							<g id="XMLID_10173_">
								<path id="XMLID_813_" class="st3" d="M98.1,166.1l-1.5-10.9l9.5-4.1l0,10.6L98.1,166.1z M97.1,155.5l1.3,9.8l7.1-3.8l0-9.8
									L97.1,155.5z"/>
							</g>
						</g>
						<g id="XMLID_9752_">
							<g id="XMLID_10168_">
								<path id="XMLID_810_" class="st12" d="M98.2,165l0-0.6c0-4.8,2.9-10.4,6.6-12.5l1-0.6l0,0h0l-27.7-15.9l-1,0.6
									c-3.6,2.1-6.6,7.7-6.6,12.5l0,0.4l0,0.2l0,0.2c0,1.2,0.7,2.6,1.6,3.1l0.2,0.1c0.9,0.5,1.6,0,1.6-1.2c0,1.2,0.7,2.6,1.6,3.1
									l0.2,0.1c0.9,0.5,1.6,0,1.6-1.2c0,1.2,0.7,2.6,1.6,3.1l0.2,0.1c0.9,0.5,1.6,0,1.6-1.2c0,1.2,0.7,2.6,1.6,3.1l0.2,0.1
									c0.9,0.5,1.6,0,1.6-1.2c0,1.2,0.7,2.6,1.6,3.1l0.2,0.1c0.9,0.5,1.6,0,1.6-1.2c0,1.2,0.7,2.6,1.6,3.1l0.2,0.1
									c0.9,0.5,1.6,0,1.6-1.2c0,1.2,0.7,2.6,1.6,3.1l0.2,0.1c0.9,0.5,1.6,0,1.6-1.2c0,1.2,0.7,2.6,1.6,3.1l0.2,0.1
									c0.9,0.5,1.6,0,1.6-1.2L98.2,165L98.2,165z"/>
							</g>
							<g id="XMLID_10003_">
								<path id="XMLID_808_" class="st10" d="M98.6,161.9c0.7-3.9,3.1-7.9,5.9-9.8l-25.8-14.8l-1,0.6c-2.7,1.6-5.1,5.1-6.1,8.9
									L98.6,161.9z"/>
							</g>
							<g id="XMLID_10169_">
								<path id="XMLID_804_" class="st3" d="M97.3,167c-0.2,0-0.5-0.1-0.8-0.2l-0.2-0.1c-0.7-0.4-1.3-1.2-1.5-2.1
									c-0.1,0.1-0.2,0.3-0.4,0.4c-0.4,0.2-0.8,0.2-1.3-0.1l-0.2-0.1c-0.7-0.4-1.3-1.2-1.5-2.1c-0.1,0.2-0.2,0.3-0.4,0.4
									c-0.4,0.2-0.8,0.2-1.3-0.1l-0.2-0.1c-0.7-0.4-1.3-1.2-1.5-2.1c-0.1,0.1-0.2,0.3-0.4,0.4c-0.4,0.2-0.8,0.2-1.3-0.1l-0.2-0.1
									c-0.7-0.4-1.3-1.2-1.5-2.1c-0.1,0.1-0.2,0.3-0.4,0.4c-0.4,0.2-0.8,0.2-1.3-0.1l-0.2-0.1c-0.7-0.4-1.3-1.2-1.5-2.1
									c-0.1,0.1-0.2,0.3-0.4,0.4c-0.4,0.2-0.8,0.2-1.3-0.1l-0.2-0.1c-0.7-0.4-1.3-1.2-1.5-2.1c-0.1,0.2-0.2,0.3-0.4,0.4
									c-0.4,0.2-0.8,0.2-1.3-0.1l-0.2-0.1c-0.7-0.4-1.3-1.2-1.5-2.1c-0.1,0.1-0.2,0.3-0.4,0.4c-0.4,0.2-0.8,0.2-1.3-0.1l-0.2-0.1
									c-1-0.6-1.7-2-1.7-3.3l0-0.8c0-4.9,3-10.6,6.7-12.7l1.1-0.7l0.1,0.1l27.8,16l-1.1,0.9c-3.5,2-6.4,7.6-6.4,12.3l0,0.2l0,0
									l0,0.7c0,0.7-0.2,1.3-0.7,1.5C97.6,166.9,97.5,167,97.3,167z M94.5,163.3l0.5,0c0,1.1,0.7,2.4,1.5,2.9l0.2,0.1
									c0.2,0.1,0.5,0.2,0.8,0.1c0.3-0.2,0.4-0.5,0.4-1.1l0-1c0-4.9,3-10.6,6.7-12.7l0.6-0.4l-27.2-15.7l-0.9,0.5
									c-3.5,2-6.4,7.6-6.4,12.3l0,0.8c0,1.1,0.7,2.4,1.5,2.9l0.2,0.1c0.2,0.1,0.5,0.2,0.8,0.1c0.3-0.2,0.4-0.6,0.4-1.1l0.5,0
									c0,1.1,0.7,2.4,1.5,2.9l0.2,0.1c0.2,0.1,0.5,0.2,0.8,0.1c0.3-0.2,0.4-0.6,0.4-1.1l0.5,0c0,1.1,0.7,2.4,1.5,2.9l0.2,0.1
									c0.2,0.1,0.5,0.2,0.8,0.1c0.3-0.2,0.4-0.6,0.4-1.1l0.5,0c0,1.1,0.7,2.4,1.5,2.9l0.2,0.1c0.2,0.1,0.5,0.2,0.8,0.1
									c0.3-0.2,0.4-0.6,0.4-1.1l0.5,0c0,1.1,0.7,2.4,1.5,2.9l0.2,0.1c0.2,0.1,0.5,0.2,0.8,0.1c0.3-0.2,0.4-0.6,0.4-1.1l0.5,0
									c0,1.1,0.7,2.4,1.5,2.9l0.2,0.1c0.2,0.1,0.5,0.2,0.8,0.1c0.3-0.2,0.4-0.6,0.4-1.1l0.5,0c0,1.1,0.7,2.4,1.5,2.9l0.2,0.1
									c0.2,0.1,0.5,0.2,0.8,0.1C94.4,164.3,94.5,163.9,94.5,163.3z"/>
							</g>
						</g>
					</g>
					<g id="XMLID_9961_">
						<g id="XMLID_9972_">
							<g id="XMLID_10164_">
								<path id="XMLID_800_" class="st9" d="M77.4,153.3l0-0.2l0-0.2l0-0.4c0-4.8,2.9-10.4,6.6-12.5l1-0.6l-3.5-2.1l-1,0.6
									c-3.6,2.1-6.6,7.7-6.6,12.5l0,0.4l0,0.2l0,0.2c0,1.2,0.7,2.6,1.6,3.1l0.2,0.1C76.7,155,77.4,154.5,77.4,153.3
									C77.4,153.6,77.4,153.6,77.4,153.3z"/>
							</g>
							<g id="XMLID_10165_">
								<path id="XMLID_796_" class="st3" d="M76.4,154.9c-0.2,0-0.5-0.1-0.8-0.2l-0.2-0.1c-1-0.6-1.7-2-1.7-3.3l0-0.8
									c0-4.9,3-10.6,6.7-12.7l1.1-0.7l4,2.3l-1.4,0.8c-3.5,2-6.4,7.6-6.4,12.3l0,1.2l0,0c-0.1,0.5-0.3,0.9-0.6,1.1
									C76.8,154.9,76.6,154.9,76.4,154.9z M81.5,137.6l-0.9,0.5c-3.5,2-6.4,7.6-6.4,12.3l0,0.8c0,1.1,0.7,2.4,1.5,2.9l0.2,0.1
									c0.2,0.1,0.5,0.2,0.8,0.1c0.3-0.2,0.4-0.6,0.4-1.1l0,0l0-0.8c0-4.9,3-10.6,6.7-12.7l0.6-0.4L81.5,137.6z"/>
							</g>
						</g>
					</g>
					<g id="XMLID_9962_">
						<g id="XMLID_9967_">
							<g id="XMLID_10160_">
								<path id="XMLID_792_" class="st9" d="M84.3,157.3l0-0.2l0-0.2l0-0.4c0-4.8,2.9-10.4,6.6-12.5l1-0.6l-3.5-2.1l-1,0.6
									c-3.6,2.1-6.6,7.7-6.6,12.5l0,0.4l0,0.2l0,0.2c0,1.2,0.7,2.6,1.6,3.1l0.2,0.1C83.6,159,84.3,158.4,84.3,157.3
									C84.3,157.5,84.3,157.6,84.3,157.3z"/>
							</g>
							<g id="XMLID_10161_">
								<path id="XMLID_788_" class="st3" d="M83.4,158.9c-0.2,0-0.5-0.1-0.8-0.2l-0.2-0.1c-1-0.6-1.7-2-1.7-3.3l0-0.8
									c0-4.9,3-10.6,6.7-12.7l1.1-0.7l4,2.3l-1.4,0.8c-3.5,2-6.4,7.6-6.4,12.3l0,1.2l0,0c-0.1,0.5-0.3,0.9-0.6,1.1
									C83.7,158.8,83.6,158.9,83.4,158.9z M88.5,141.6l-0.9,0.5c-3.5,2-6.4,7.6-6.4,12.3l0,0.8c0,1.1,0.7,2.4,1.5,2.9l0.2,0.1
									c0.2,0.1,0.5,0.2,0.8,0.1c0.3-0.2,0.4-0.6,0.4-1.1l0,0l0-0.8c0-4.9,3-10.6,6.7-12.7l0.6-0.4L88.5,141.6z"/>
							</g>
						</g>
					</g>
					<g id="XMLID_9970_">
						<g id="XMLID_9971_">
							<g id="XMLID_10156_">
								<path id="XMLID_784_" class="st9" d="M98.2,165.2l0-0.2l0-0.2l0-0.4c0-4.8,2.9-10.4,6.6-12.5l1-0.6l-3.5-2.1l-1,0.6
									c-3.6,2.1-6.6,7.7-6.6,12.5l0,0.4l0,0.2l0,0.2c0,1.2,0.7,2.6,1.6,3.1l0.2,0.1C97.5,166.9,98.2,166.4,98.2,165.2
									C98.2,165.5,98.2,165.5,98.2,165.2z"/>
							</g>
							<g id="XMLID_10157_">
								<path id="XMLID_780_" class="st3" d="M97.2,166.9c-0.2,0-0.5-0.1-0.8-0.2l-0.2-0.1c-1-0.6-1.7-2-1.7-3.3l0-0.8
									c0-4.9,3-10.6,6.7-12.7l1.1-0.7l3.7,2.2l-1.1,0.9c-3.5,2-6.4,7.6-6.4,12.3l0,1.2l0,0c-0.1,0.5-0.3,0.9-0.6,1.1
									C97.6,166.8,97.4,166.9,97.2,166.9z M102.3,149.5l-0.9,0.5c-3.5,2-6.4,7.6-6.4,12.3l0,0.8c0,1.1,0.7,2.4,1.5,2.9l0.2,0.1
									c0.2,0.1,0.5,0.2,0.8,0.1c0.3-0.2,0.4-0.6,0.4-1.1l0,0l0-0.8c0-4.9,3-10.6,6.7-12.7l0.6-0.4L102.3,149.5z"/>
							</g>
						</g>
					</g>
					<g id="XMLID_9968_">
						<g id="XMLID_9969_">
							<g id="XMLID_10151_">
								<path id="XMLID_776_" class="st9" d="M91.3,161.3l0-0.2l0-0.2l0-0.4c0-4.8,2.9-10.4,6.6-12.5l1-0.6l-3.5-2.1l-1,0.6
									c-3.6,2.1-6.6,7.7-6.6,12.5l0,0.4l0,0.2l0,0.2c0,1.2,0.7,2.6,1.6,3.1l0.2,0.1C90.5,163,91.3,162.4,91.3,161.3
									C91.3,161.6,91.3,161.6,91.3,161.3z"/>
							</g>
							<g id="XMLID_10153_">
								<path id="XMLID_772_" class="st3" d="M90.3,162.9c-0.2,0-0.5-0.1-0.8-0.2l-0.2-0.1c-1-0.6-1.7-2-1.7-3.3l0-0.8
									c0-4.9,3-10.6,6.7-12.7l1.1-0.7l4,2.3l-1.4,0.8c-3.5,2-6.4,7.6-6.4,12.3l0,1.2l0,0c-0.1,0.5-0.3,0.9-0.6,1.1
									C90.7,162.9,90.5,162.9,90.3,162.9z M95.4,145.6l-0.9,0.5c-3.5,2-6.4,7.6-6.4,12.3l0,0.8c0,1.1,0.7,2.4,1.5,2.9l0.2,0.1
									c0.2,0.1,0.5,0.2,0.8,0.1c0.3-0.2,0.4-0.6,0.4-1.1l0,0l0-0.8c0-4.9,3-10.6,6.7-12.7l0.6-0.4L95.4,145.6z"/>
							</g>
						</g>
					</g>
				</g>
				<g id="XMLID_9964_">
					<g id="XMLID_10152_">
						
							<rect id="XMLID_767_" x="86.2" y="167.5" transform="matrix(1.418277e-03 -1 1 1.418277e-03 -76.3757 259.0217)" class="st3" width="10.5" height="0.5"/>
					</g>
				</g>
				<g id="XMLID_9903_">
					<g id="XMLID_9963_">
						
							<rect id="XMLID_764_" x="85" y="165.6" transform="matrix(0.8299 -0.5579 0.5579 0.8299 -77.6242 77.1691)" class="st3" width="5.5" height="0.5"/>
					</g>
				</g>
				<g id="XMLID_9904_">
					<g id="XMLID_9907_">
						
							<rect id="XMLID_761_" x="93.5" y="172.2" transform="matrix(0.858 -0.5136 0.5136 0.858 -74.6991 74.5918)" class="st3" width="8.2" height="0.5"/>
					</g>
				</g>
				<g id="XMLID_9905_">
					<g id="XMLID_9906_">
						
							<rect id="XMLID_758_" x="94.2" y="170.1" transform="matrix(0.834 -0.5518 0.5518 0.834 -78.0402 81.2651)" class="st3" width="3.7" height="0.5"/>
					</g>
				</g>
			</g>
			<g id="XMLID_10556_">
				<g id="XMLID_9743_">
					<g id="XMLID_10551_">
						<g id="XMLID_10657_">
							<polygon id="XMLID_754_" class="st4" points="73.4,165.6 61.8,158.9 66.7,156 78.3,162.8 							"/>
						</g>
						<g id="XMLID_10561_">
							<polygon id="XMLID_752_" class="st2" points="73.4,166.6 61.8,159.9 66.7,157.1 78.3,163.8 							"/>
						</g>
						<g id="XMLID_10652_">
							<polygon id="XMLID_750_" class="st4" points="61.8,158.9 61.8,160.7 73.4,167.4 73.4,165.6 							"/>
						</g>
						<g id="XMLID_10647_">
							<polygon id="XMLID_748_" class="st8" points="78.3,162.8 78.3,164.6 73.4,167.4 73.4,165.6 							"/>
						</g>
						<g id="XMLID_10565_">
							<polygon id="XMLID_740_" class="st8" points="77.4,165.1 76.5,169.2 72.8,171.3 73.4,167.4 							"/>
						</g>
						<g id="XMLID_10552_">
							<g id="XMLID_10559_">
								<polygon id="XMLID_738_" class="st4" points="62.5,161.1 63.2,165.8 72.8,171.3 73.4,167.4 								"/>
							</g>
							<g id="XMLID_10660_">
								<path id="XMLID_729_" class="st3" d="M78.5,162.9l0-0.3l-0.2-0.1l-11.6-6.7l-5.1,3l0,2.1l0.8,0.4l0.7,4.7l9.8,5.7l3.9-2.2
									l0.9-4.1l0.9-0.5L78.5,162.9z M66.7,156.3l11.1,6.4l-0.9,0.5l-3.5,2l-8.7-5l-2.4-1.4L66.7,156.3z M62,160.5l0-1.2l2.4,1.4
									l8.7,5l0,1.2l-5.6-3.2l-5.4-3.1v0L62,160.5z M62.8,161.6l7,4l3.3,1.9l-0.5,3.4l-9.2-5.3L62.8,161.6z M76.2,169l-3.1,1.8
									l0.5-3.1l0.1-0.3l3.4-2L76.2,169z M78,164.4l-4.4,2.5l0-1.2l3.5-2l0.9-0.5L78,164.4z"/>
							</g>
						</g>
					</g>
					<g id="XMLID_9762_">
						<g id="XMLID_1272_">
							<g id="XMLID_10544_">
								<g id="XMLID_1276_">
									<path id="XMLID_725_" class="st4" d="M69.1,153.4l-1.1,0.6l-1.1-0.7c-2.8,1.7-2.2,5.4-2.2,5.4l0,0c0,0.5,0.3,1,1,1.4
										c1.3,0.7,3.4,0.8,4.7,0c0.6-0.4,1-0.9,1-1.4C71.5,154.5,69.1,153.4,69.1,153.4z"/>
								</g>
								<g id="XMLID_10545_">
									<path id="XMLID_721_" class="st3" d="M67.9,161c-0.9,0-1.8-0.2-2.5-0.6c-0.7-0.4-1.1-1-1.1-1.6l0,0c0,0-0.6-3.9,2.3-5.6
										l0.1-0.1l1.1,0.7l1.1-0.6l0.1,0.1c0.1,0.1,2.6,1.3,2.3,5.7c0,0.6-0.4,1.1-1.1,1.6C69.7,160.8,68.8,161,67.9,161z
										 M66.8,153.7c-2.5,1.6-2,5.1-2,5.1c0,0.5,0.3,0.9,0.9,1.2c1.2,0.7,3.2,0.7,4.4,0c0.5-0.3,0.8-0.7,0.9-1.1
										c0.2-3.6-1.5-4.9-1.9-5.1l-1.1,0.6L66.8,153.7z"/>
								</g>
							</g>
							<g id="XMLID_1273_">
								<g id="XMLID_10543_">
									<path id="XMLID_718_" class="st4" d="M69.1,154.7c-0.6,0.4-1.6,0.4-2.3,0c-0.6-0.4-0.6-0.9,0-1.3c0.6-0.4,1.6-0.4,2.3,0
										C69.7,153.7,69.7,154.3,69.1,154.7z"/>
								</g>
								<g id="XMLID_10557_">
									
										<ellipse id="XMLID_716_" transform="matrix(1.418277e-03 -1 1 1.418277e-03 -86.867 222.3951)" class="st2" cx="67.9" cy="154.7" rx="0.9" ry="1.6"/>
								</g>
								<g id="XMLID_10540_">
									<path id="XMLID_712_" class="st3" d="M67.9,155.2c-0.4,0-0.9-0.1-1.2-0.3c-0.4-0.2-0.6-0.5-0.6-0.9c0-0.3,0.2-0.6,0.6-0.9
										c0.7-0.4,1.8-0.4,2.5,0c0.4,0.2,0.6,0.5,0.6,0.9c0,0.3-0.2,0.6-0.6,0.9C68.8,155.1,68.4,155.2,67.9,155.2z M67.9,153.4
										c-0.4,0-0.7,0.1-1,0.2c-0.2,0.1-0.3,0.3-0.3,0.4s0.1,0.3,0.3,0.4c0.5,0.3,1.5,0.3,2,0c0.2-0.1,0.3-0.3,0.3-0.4
										s-0.1-0.3-0.3-0.4C68.7,153.4,68.3,153.4,67.9,153.4z"/>
								</g>
							</g>
						</g>
						<g id="XMLID_9989_">
							<g id="XMLID_10037_">
								<g id="XMLID_10536_">
									<path id="XMLID_708_" class="st4" d="M73.6,156l-1.1,0.6l-1.1-0.7c-2.8,1.7-2.2,5.4-2.2,5.4l0,0c0,0.5,0.3,1,1,1.4
										c1.3,0.7,3.4,0.8,4.7,0c0.6-0.4,1-0.9,1-1.4C76.1,157.2,73.6,156,73.6,156z"/>
								</g>
								<g id="XMLID_1271_">
									<path id="XMLID_704_" class="st3" d="M72.5,163.6c-0.9,0-1.8-0.2-2.5-0.6c-0.7-0.4-1.1-1-1.1-1.6l0,0c0,0-0.6-3.9,2.3-5.6
										l0.1-0.1l1.1,0.7l1.1-0.6l0.1,0.1c0.1,0.1,2.6,1.3,2.3,5.7c0,0.6-0.4,1.1-1.1,1.6C74.3,163.4,73.4,163.6,72.5,163.6z
										 M71.4,156.3c-2.5,1.6-2,5.1-2,5.1c0,0.5,0.3,0.9,0.9,1.2c1.2,0.7,3.2,0.7,4.4,0c0.5-0.3,0.8-0.7,0.8-1.1
										c0.2-3.5-1.5-4.9-1.9-5.1l-1.1,0.6L71.4,156.3z"/>
								</g>
							</g>
							<g id="XMLID_10026_">
								<g id="XMLID_10034_">
									<path id="XMLID_701_" class="st4" d="M73.6,157.3c-0.6,0.4-1.6,0.4-2.3,0c-0.6-0.4-0.6-0.9,0-1.3c0.6-0.4,1.6-0.4,2.3,0
										S74.3,156.9,73.6,157.3z"/>
								</g>
								<g id="XMLID_10560_">
									<path id="XMLID_699_" class="st2" d="M73.6,158c-0.6,0.4-1.6,0.4-2.3,0c-0.6-0.4-0.6-0.9,0-1.3c0.6-0.4,1.6-0.4,2.3,0
										C74.2,157.1,74.2,157.7,73.6,158z"/>
								</g>
								<g id="XMLID_10028_">
									<path id="XMLID_695_" class="st3" d="M72.5,157.8c-0.4,0-0.9-0.1-1.2-0.3c-0.4-0.2-0.6-0.5-0.6-0.9c0-0.3,0.2-0.6,0.6-0.9
										c0.7-0.4,1.8-0.4,2.5,0c0.4,0.2,0.6,0.5,0.6,0.9c0,0.3-0.2,0.6-0.6,0.9C73.4,157.7,73,157.8,72.5,157.8z M72.5,156
										c-0.4,0-0.7,0.1-1,0.2c-0.2,0.1-0.3,0.3-0.3,0.4s0.1,0.3,0.3,0.4c0.5,0.3,1.5,0.3,2,0c0.2-0.1,0.3-0.3,0.3-0.4
										s-0.1-0.3-0.3-0.4C73.2,156.1,72.9,156,72.5,156z"/>
								</g>
							</g>
						</g>
					</g>
				</g>
			</g>
			<g id="XMLID_10564_">
				<g id="XMLID_10648_">
					<g id="XMLID_10683_">
						<g id="XMLID_10697_">
							<polygon id="XMLID_688_" class="st4" points="109.1,186.3 97.5,179.6 102.4,176.8 114,183.5 							"/>
						</g>
						<g id="XMLID_10696_">
							<polygon id="XMLID_686_" class="st2" points="109.1,187.3 97.5,180.6 102.4,177.8 114,184.5 							"/>
						</g>
						<g id="XMLID_10695_">
							<polygon id="XMLID_684_" class="st4" points="97.5,179.6 97.5,181.4 109.1,188.1 109.1,186.3 							"/>
						</g>
						<g id="XMLID_10694_">
							<polygon id="XMLID_682_" class="st8" points="114,183.5 114,185.3 109.1,188.1 109.1,186.3 							"/>
						</g>
						<g id="XMLID_10693_">
							<polygon id="XMLID_680_" class="st8" points="113.1,185.8 112.2,189.9 108.5,192.1 109.1,188.1 							"/>
						</g>
						<g id="XMLID_10684_">
							<g id="XMLID_10692_">
								<polygon id="XMLID_656_" class="st4" points="98.3,181.8 99,186.5 108.5,192.1 109.1,188.1 								"/>
							</g>
							<g id="XMLID_10685_">
								<path id="XMLID_648_" class="st3" d="M114.3,183.7l0-0.3l-0.2-0.1l-11.6-6.7l-5.1,3l0,2.1L98,182l0.7,4.7l9.8,5.7l3.9-2.2
									l0.9-4.1l0.9-0.5L114.3,183.7z M102.4,177.1l11.1,6.4l-0.9,0.5l-3.5,2l-8.7-5l-2.4-1.4L102.4,177.1z M97.8,181.3l0-1.2
									l2.4,1.4l8.7,5l0,1.2l-5.6-3.2l-5.4-3.1v0L97.8,181.3z M98.6,182.3l7,4l3.3,1.9l-0.5,3.4l-9.2-5.3L98.6,182.3z M112,189.8
									l-3.1,1.8l0.5-3.1l0.1-0.3l3.4-2L112,189.8z M113.8,185.2l-4.4,2.5l0-1.2l3.5-2l0.9-0.5L113.8,185.2z"/>
							</g>
						</g>
					</g>
					<g id="XMLID_10649_">
						<g id="XMLID_10671_">
							<g id="XMLID_10678_">
								<g id="XMLID_10682_">
									<path id="XMLID_644_" class="st4" d="M104.8,174.1l-1.1,0.6l-1.1-0.7c-2.8,1.7-2.2,5.4-2.2,5.4l0,0c0,0.5,0.3,1,1,1.4
										c1.3,0.7,3.4,0.8,4.7,0c0.6-0.4,1-0.9,1-1.4C107.2,175.3,104.8,174.1,104.8,174.1z"/>
								</g>
								<g id="XMLID_10679_">
									<path id="XMLID_639_" class="st3" d="M103.7,181.7c-0.9,0-1.8-0.2-2.5-0.6c-0.7-0.4-1.1-1-1.1-1.6l0,0c0,0-0.6-3.9,2.3-5.6
										l0.1-0.1l1.1,0.7l1.1-0.6l0.1,0.1c0.1,0.1,2.6,1.3,2.3,5.7c0,0.6-0.4,1.1-1.1,1.6C105.5,181.5,104.6,181.7,103.7,181.7z
										 M102.6,174.4c-2.5,1.6-2,5.1-2,5.1c0,0.5,0.3,0.9,0.9,1.2c1.2,0.7,3.2,0.7,4.4,0c0.5-0.3,0.8-0.7,0.9-1.1
										c0.2-3.6-1.5-4.9-1.9-5.1l-1.1,0.6L102.6,174.4z"/>
								</g>
							</g>
							<g id="XMLID_10672_">
								<g id="XMLID_10677_">
									<path id="XMLID_636_" class="st4" d="M104.8,175.4c-0.6,0.4-1.6,0.4-2.3,0c-0.6-0.4-0.6-0.9,0-1.3c0.6-0.4,1.6-0.4,2.3,0
										C105.4,174.5,105.4,175.1,104.8,175.4z"/>
								</g>
								<g id="XMLID_10676_">
									<path id="XMLID_634_" class="st2" d="M104.8,176.1c-0.6,0.4-1.6,0.4-2.3,0c-0.6-0.4-0.6-0.9,0-1.3c0.6-0.4,1.6-0.4,2.3,0
										C105.4,175.1,105.4,175.7,104.8,176.1z"/>
								</g>
								<g id="XMLID_10673_">
									<path id="XMLID_630_" class="st3" d="M103.7,175.9c-0.4,0-0.9-0.1-1.2-0.3c-0.4-0.2-0.6-0.5-0.6-0.9c0-0.3,0.2-0.6,0.6-0.9
										c0.7-0.4,1.8-0.4,2.5,0c0.4,0.2,0.6,0.5,0.6,0.9c0,0.3-0.2,0.6-0.6,0.9C104.6,175.8,104.1,175.9,103.7,175.9z M103.7,174.1
										c-0.4,0-0.7,0.1-1,0.2c-0.2,0.1-0.3,0.3-0.3,0.4c0,0.2,0.1,0.3,0.3,0.4c0.5,0.3,1.5,0.3,2,0c0.2-0.1,0.3-0.3,0.3-0.4
										c0-0.2-0.1-0.3-0.3-0.4C104.4,174.2,104.1,174.1,103.7,174.1z"/>
								</g>
							</g>
						</g>
						<g id="XMLID_10650_">
							<g id="XMLID_10666_">
								<g id="XMLID_10670_">
									<path id="XMLID_626_" class="st4" d="M109.4,176.7l-1.1,0.6l-1.1-0.7c-2.8,1.7-2.2,5.4-2.2,5.4l0,0c0,0.5,0.3,1,1,1.4
										c1.3,0.7,3.4,0.8,4.7,0c0.6-0.4,1-0.9,1-1.4C111.8,177.9,109.4,176.7,109.4,176.7z"/>
								</g>
								<g id="XMLID_10667_">
									<path id="XMLID_622_" class="st3" d="M108.2,184.3c-0.9,0-1.8-0.2-2.5-0.6c-0.7-0.4-1.1-1-1.1-1.6l0,0c0,0-0.6-3.9,2.3-5.6
										l0.1-0.1l1.1,0.7l1.1-0.6l0.1,0.1c0.1,0.1,2.6,1.3,2.3,5.7c0,0.6-0.4,1.1-1.1,1.6C110,184.1,109.1,184.3,108.2,184.3z
										 M107.1,177c-2.5,1.6-2,5.1-2,5.1c0,0.5,0.3,0.9,0.9,1.2c1.2,0.7,3.2,0.7,4.4,0c0.5-0.3,0.8-0.7,0.8-1.1
										c0.2-3.5-1.5-4.9-1.9-5.1l-1.1,0.6L107.1,177z"/>
								</g>
							</g>
							<g id="XMLID_10651_">
								<g id="XMLID_10665_">
									<path id="XMLID_619_" class="st4" d="M109.4,178c-0.6,0.4-1.6,0.4-2.3,0c-0.6-0.4-0.6-0.9,0-1.3c0.6-0.4,1.6-0.4,2.3,0
										C110,177.1,110,177.7,109.4,178z"/>
								</g>
								<g id="XMLID_10656_">
									<path id="XMLID_617_" class="st2" d="M109.4,178.8c-0.6,0.4-1.6,0.4-2.3,0c-0.6-0.4-0.6-0.9,0-1.3c0.6-0.4,1.6-0.4,2.3,0
										C110,177.8,110,178.4,109.4,178.8z"/>
								</g>
								<g id="XMLID_10653_">
									<path id="XMLID_612_" class="st3" d="M108.2,178.6c-0.4,0-0.9-0.1-1.2-0.3c-0.4-0.2-0.6-0.5-0.6-0.9c0-0.3,0.2-0.6,0.6-0.9
										c0.7-0.4,1.8-0.4,2.5,0c0.4,0.2,0.6,0.5,0.6,0.9c0,0.3-0.2,0.6-0.6,0.9C109.1,178.5,108.7,178.6,108.2,178.6z M108.3,176.7
										c-0.4,0-0.7,0.1-1,0.2c-0.2,0.1-0.3,0.3-0.3,0.4c0,0.2,0.1,0.3,0.3,0.4c0.5,0.3,1.5,0.3,2,0c0.2-0.1,0.3-0.3,0.3-0.4
										c0-0.2-0.1-0.3-0.3-0.4C109,176.8,108.6,176.7,108.3,176.7z"/>
								</g>
							</g>
						</g>
					</g>
				</g>
			</g>
			<g id="XMLID_9979_">
				<g id="XMLID_9980_">
					<polygon id="XMLID_605_" class="st4" points="105,151.1 105,151.1 105,151.1 					"/>
				</g>
			</g>
			<g id="XMLID_9973_">
				<polygon id="XMLID_602_" class="st8" points="110.7,30.6 110.7,41.4 109.1,41.4 78.3,59 72,55.2 71.2,53.9 71.5,52.5 72.5,51.6 
					108.2,31.1 109.4,30.6 				"/>
			</g>
			<g id="XMLID_80_">
				<g id="XMLID_69_">
					<g id="XMLID_9870_">
						<g id="XMLID_9872_">
							<g id="XMLID_10309_">
								<polygon id="XMLID_600_" class="st9" points="68.3,122 77.1,127.1 77.2,110.4 68.3,105.3 								"/>
							</g>
							<g id="XMLID_10310_">
								<path id="XMLID_596_" class="st3" d="M77.4,127.5l-9.3-5.4l0-17.3l9.3,5.4L77.4,127.5z M68.6,121.9l8.3,4.8l0-16.2l-8.3-4.8
									L68.6,121.9z"/>
							</g>
						</g>
						<g id="XMLID_9871_">
							<g id="XMLID_10305_">
								<polygon id="XMLID_593_" class="st2" points="70.2,107.2 70.2,121.6 77.1,125.6 77.1,127.9 68.3,122.8 68.3,106.1 								
									"/>
							</g>
							<g id="XMLID_10306_">
								<path id="XMLID_589_" class="st3" d="M77.4,127.5l-9.3-5.4l0-17.3l2.4,1.4l0,14.4l6.9,4L77.4,127.5z M68.6,121.9l8.3,4.8
									l0-1.8l-6.9-4l0-14.4l-1.4-0.8L68.6,121.9z"/>
							</g>
						</g>
					</g>
					<g id="XMLID_9867_">
						<g id="XMLID_9869_">
							<g id="XMLID_10301_">
								<polygon id="XMLID_585_" class="st4" points="81.9,130 90.7,135.1 90.7,118.4 81.9,113.3 								"/>
							</g>
							<g id="XMLID_10302_">
								<path id="XMLID_575_" class="st3" d="M91,135.5l-9.3-5.4l0-17.3l9.3,5.4L91,135.5z M82.2,129.9l8.3,4.8l0-16.2l-8.3-4.8
									L82.2,129.9z"/>
							</g>
						</g>
						<g id="XMLID_9868_">
							<g id="XMLID_10297_">
								<polygon id="XMLID_565_" class="st2" points="83.8,115.2 83.8,129.6 90.7,133.6 90.7,135.9 81.9,130.8 81.9,114.1 								
									"/>
							</g>
							<g id="XMLID_10298_">
								<path id="XMLID_556_" class="st3" d="M91,135.5l-9.3-5.4l0-17.3l2.4,1.4l0,14.4l6.9,4L91,135.5z M82.2,129.9l8.3,4.8l0-1.8
									l-6.9-4l0-14.4l-1.4-0.8L82.2,129.9z"/>
							</g>
						</g>
					</g>
					<g id="XMLID_9895_">
						<g id="XMLID_9897_">
							<g id="XMLID_2255_">
								<polygon id="XMLID_551_" class="st4" points="109.1,145.3 117.9,150.4 117.9,133.6 109.1,128.5 								"/>
							</g>
							<g id="XMLID_2252_">
								<path id="XMLID_547_" class="st3" d="M118.2,150.8l-9.3-5.4l0-17.3l9.3,5.4L118.2,150.8z M109.3,145.1l8.3,4.8l0-16.2
									l-8.3-4.8L109.3,145.1z"/>
							</g>
						</g>
						<g id="XMLID_9896_">
							<g id="XMLID_2251_">
								<polygon id="XMLID_544_" class="st2" points="111,130.4 111,144.8 117.9,148.8 117.9,151.2 109.1,146.1 109.1,129.3 
																	"/>
							</g>
							<g id="XMLID_2248_">
								<path id="XMLID_540_" class="st3" d="M118.2,150.8l-9.3-5.4l0-17.3l2.4,1.4l0,14.4l6.9,4L118.2,150.8z M109.3,145.1l8.3,4.8
									l0-1.8l-6.9-4l0-14.4l-1.4-0.8L109.3,145.1z"/>
							</g>
						</g>
					</g>
					<g id="XMLID_9915_">
						<g id="XMLID_9917_">
							<g id="XMLID_1285_">
								<polygon id="XMLID_536_" class="st4" points="95.6,137.7 104.4,142.8 104.4,126 95.6,120.9 								"/>
							</g>
							<g id="XMLID_1282_">
								<path id="XMLID_532_" class="st3" d="M104.6,143.2l-9.3-5.4l0-17.3l9.3,5.4L104.6,143.2z M95.8,137.5l8.3,4.8l0-16.2
									l-8.3-4.8L95.8,137.5z"/>
							</g>
						</g>
						<g id="XMLID_9916_">
							<g id="XMLID_1281_">
								<polygon id="XMLID_529_" class="st2" points="97.5,122.8 97.5,137.2 104.4,141.2 104.4,143.6 95.6,138.5 95.6,121.7 
																	"/>
							</g>
							<g id="XMLID_1278_">
								<path id="XMLID_525_" class="st3" d="M104.6,143.2l-9.3-5.4l0-17.3l2.4,1.4l0,14.4l6.9,4L104.6,143.2z M95.8,137.5l8.3,4.8
									l0-1.8l-6.9-4l0-14.4l-1.4-0.8L95.8,137.5z"/>
							</g>
						</g>
					</g>
					<g id="XMLID_9836_">
						<g id="XMLID_9851_">
							<g id="XMLID_10204_">
								
									<rect id="XMLID_521_" x="100.6" y="128.3" transform="matrix(0.5003 -0.8659 0.8659 0.5003 -64.1181 153.4356)" class="st3" width="0.5" height="8"/>
							</g>
						</g>
						<g id="XMLID_9850_">
							<g id="XMLID_10203_">
								
									<rect id="XMLID_518_" x="99.7" y="133.2" transform="matrix(1.418277e-03 -1 1 1.418277e-03 -32.7478 234.1433)" class="st3" width="2.4" height="0.5"/>
							</g>
						</g>
						<g id="XMLID_9846_">
							<g id="XMLID_10200_">
								<path id="XMLID_513_" class="st3" d="M101.2,136.6c-0.1,0-0.3,0-0.4-0.1l-0.2-0.1c-0.4-0.2-0.8-0.9-0.8-1.4
									c0-0.3,0.1-0.6,0.3-0.7c0.2-0.1,0.4-0.1,0.7,0l0.2,0.1c0.4,0.2,0.8,0.9,0.8,1.4c0,0.3-0.1,0.6-0.3,0.7
									C101.4,136.6,101.3,136.6,101.2,136.6z M100.5,134.7C100.5,134.7,100.5,134.7,100.5,134.7c-0.1,0-0.1,0.1-0.1,0.3
									c0,0.4,0.2,0.8,0.5,1l0.2,0.1c0,0,0.1,0.1,0.2,0c0,0,0.1-0.1,0.1-0.3c0-0.4-0.2-0.8-0.5-1l-0.2-0.1
									C100.6,134.7,100.6,134.7,100.5,134.7z"/>
							</g>
						</g>
					</g>
					<g id="XMLID_10006_">
						<g id="XMLID_10197_">
							
								<rect id="XMLID_509_" x="73.4" y="106.6" transform="matrix(0.5003 -0.8659 0.8659 0.5003 -58.9606 119.0845)" class="st3" width="0.5" height="8"/>
						</g>
					</g>
				</g>
			</g>
			<g id="XMLID_84_">
				<g id="XMLID_90_">
					<g id="XMLID_150_">
						<g id="XMLID_161_">
							<g id="XMLID_165_">
								<polygon id="XMLID_504_" class="st4" points="68.5,97.3 77.3,102.4 77.3,85.6 68.5,80.5 								"/>
							</g>
							<g id="XMLID_162_">
								<path id="XMLID_500_" class="st3" d="M77.5,102.8l-9.3-5.4l0-17.3l9.3,5.4L77.5,102.8z M68.7,97.1l8.3,4.8l0-16.2l-8.3-4.8
									L68.7,97.1z"/>
							</g>
						</g>
						<g id="XMLID_151_">
							<g id="XMLID_155_">
								<polygon id="XMLID_497_" class="st2" points="70.4,82.4 70.4,96.8 77.3,100.8 77.3,103.2 68.5,98.1 68.5,81.3 								"/>
							</g>
							<g id="XMLID_152_">
								<path id="XMLID_493_" class="st3" d="M77.5,102.8l-9.3-5.4l0-17.3l2.4,1.4l0,14.4l6.9,4L77.5,102.8z M68.7,97.1l8.3,4.8
									l0-1.8l-6.9-4l0-14.4l-1.4-0.8L68.7,97.1z"/>
							</g>
						</g>
					</g>
					<g id="XMLID_139_">
						<g id="XMLID_145_">
							<g id="XMLID_149_">
								<polygon id="XMLID_489_" class="st4" points="82.1,105.2 90.9,110.3 90.9,93.6 82.1,88.5 								"/>
							</g>
							<g id="XMLID_146_">
								<path id="XMLID_485_" class="st3" d="M91.1,110.7l-9.3-5.4l0-17.3l9.3,5.4L91.1,110.7z M82.3,105.1l8.3,4.8l0-16.2l-8.3-4.8
									L82.3,105.1z"/>
							</g>
						</g>
						<g id="XMLID_140_">
							<g id="XMLID_144_">
								<polygon id="XMLID_482_" class="st2" points="84,90.4 84,104.8 90.9,108.8 90.9,111.1 82.1,106.1 82.1,89.3 								"/>
							</g>
							<g id="XMLID_141_">
								<path id="XMLID_478_" class="st3" d="M91.1,110.7l-9.3-5.4l0-17.3l2.4,1.4l0,14.4l6.9,4L91.1,110.7z M82.3,105.1l8.3,4.8
									l0-1.8l-6.9-4l0-14.4l-1.4-0.8L82.3,105.1z"/>
							</g>
						</g>
					</g>
					<g id="XMLID_119_">
						<g id="XMLID_125_">
							<g id="XMLID_138_">
								<polygon id="XMLID_474_" class="st9" points="109.3,120.5 118.1,125.6 118.1,108.8 109.3,103.8 								"/>
							</g>
							<g id="XMLID_126_">
								<path id="XMLID_470_" class="st3" d="M118.3,126l-9.3-5.4l0-17.3l9.3,5.4L118.3,126z M109.5,120.4l8.3,4.8l0-16.2l-8.3-4.8
									L109.5,120.4z"/>
							</g>
						</g>
						<g id="XMLID_120_">
							<g id="XMLID_124_">
								<polygon id="XMLID_467_" class="st2" points="111.2,105.7 111.1,120 118.1,124 118.1,126.4 109.3,121.3 109.3,104.6 
																	"/>
							</g>
							<g id="XMLID_121_">
								<path id="XMLID_463_" class="st3" d="M118.3,126l-9.3-5.4l0-17.3l2.4,1.4l0,14.4l6.9,4L118.3,126z M109.5,120.4l8.3,4.8
									l0-1.8l-6.9-4l0-14.4l-1.4-0.8L109.5,120.4z"/>
							</g>
						</g>
					</g>
					<g id="XMLID_103_">
						<g id="XMLID_114_">
							<g id="XMLID_118_">
								<polygon id="XMLID_459_" class="st4" points="95.7,112.9 104.6,118 104.6,101.2 95.8,96.2 								"/>
							</g>
							<g id="XMLID_115_">
								<path id="XMLID_455_" class="st3" d="M104.8,118.4l-9.3-5.4l0-17.3l9.3,5.4L104.8,118.4z M96,112.8l8.3,4.8l0-16.2L96,96.6
									L96,112.8z"/>
							</g>
						</g>
						<g id="XMLID_105_">
							<g id="XMLID_113_">
								<polygon id="XMLID_450_" class="st2" points="97.6,98.1 97.6,112.4 104.6,116.4 104.6,118.8 95.7,113.7 95.8,97 								"/>
							</g>
							<g id="XMLID_106_">
								<path id="XMLID_444_" class="st3" d="M104.8,118.4l-9.3-5.4l0-17.3l2.4,1.4l0,14.4l6.9,4L104.8,118.4z M96,112.8l8.3,4.8
									l0-1.8l-6.9-4l0-14.4L96,96.6L96,112.8z"/>
							</g>
						</g>
					</g>
					<g id="XMLID_93_">
						<g id="XMLID_101_">
							<g id="XMLID_102_">
								
									<rect id="XMLID_440_" x="100.8" y="103.5" transform="matrix(0.5003 -0.8659 0.8659 0.5003 -42.5907 141.1952)" class="st3" width="0.5" height="8"/>
							</g>
						</g>
						<g id="XMLID_99_">
							<g id="XMLID_100_">
								
									<rect id="XMLID_435_" x="99.8" y="108.5" transform="matrix(1.418277e-03 -1 1 1.418277e-03 -7.8186 209.5682)" class="st3" width="2.4" height="0.5"/>
							</g>
						</g>
						<g id="XMLID_94_">
							<g id="XMLID_95_">
								<path id="XMLID_429_" class="st3" d="M101.4,111.8c-0.1,0-0.3,0-0.4-0.1l-0.2-0.1c-0.4-0.2-0.8-0.9-0.8-1.4
									c0-0.3,0.1-0.6,0.3-0.7c0.2-0.1,0.4-0.1,0.7,0l0.2,0.1c0.4,0.2,0.8,0.9,0.8,1.4c0,0.3-0.1,0.6-0.3,0.7
									C101.6,111.8,101.5,111.8,101.4,111.8z M100.7,109.9C100.7,109.9,100.6,109.9,100.7,109.9c-0.1,0-0.1,0.1-0.1,0.3
									c0,0.4,0.2,0.8,0.5,1l0.2,0.1c0,0,0.1,0.1,0.2,0c0,0,0.1-0.1,0.1-0.3c0-0.4-0.2-0.8-0.5-1l-0.2-0.1
									C100.8,109.9,100.7,109.9,100.7,109.9z"/>
							</g>
						</g>
					</g>
					<g id="XMLID_91_">
						<g id="XMLID_92_">
							
								<rect id="XMLID_425_" x="73.6" y="81.9" transform="matrix(0.5003 -0.8659 0.8659 0.5003 -37.4335 106.8446)" class="st3" width="0.5" height="8"/>
						</g>
					</g>
				</g>
			</g>
			<g id="XMLID_2836_">
				<g id="XMLID_2850_">
					<path id="XMLID_420_" class="st4" d="M152.3,186.7l-0.9,3.2c0,0-0.6,0.6-1.4,0.6c-0.8,0-1.4-0.6-1.4-0.6l-1-3L152.3,186.7z"/>
				</g>
				<g id="XMLID_2849_">
					<polygon id="XMLID_418_" class="st8" points="150.1,187.7 150,190.4 151.4,190 152,187.1 					"/>
				</g>
				<g id="XMLID_2845_">
					<path id="XMLID_411_" class="st3" d="M150,190.8c-0.9,0-1.6-0.7-1.6-0.7l-0.1-0.1l-1.2-3.5l5.7-0.2l-1.1,3.7l-0.1,0.1
						C151.6,190.1,150.9,190.8,150,190.8z M148.9,189.6c0.1,0.1,0.6,0.4,1,0.4c0.5,0,0.9-0.3,1-0.4l0.8-2.6l-3.7,0.1L148.9,189.6z"
						/>
				</g>
				<g id="XMLID_2837_">
					<g id="XMLID_2844_">
						<path id="XMLID_409_" class="st4" d="M146.2,182.8L146.2,182.8l2.1-8.3h0c0.1-0.8,0.8-1.4,1.6-1.4c0.8,0,1.5,0.6,1.6,1.4l0,0
							l2.1,8.3l0,0c0.1,0.3,0.1,0.6,0.1,1c0,2.1-1.7,3.9-3.9,3.9c-2.1,0-3.9-1.7-3.9-3.9C146.1,183.5,146.1,183.1,146.2,182.8z"/>
					</g>
					<g id="XMLID_2842_">
						<path id="XMLID_407_" class="st2" d="M153.7,182.8l-1.8-7.2c-0.2-0.1-0.4-0.1-0.6-0.1c-0.8,0-1.5,0.6-1.6,1.4l0,0l-2.1,8.3
							l0,0c-0.1,0.3-0.1,0.6-0.1,1c0,0.2,0,0.4,0.1,0.6c0.7,0.6,1.5,0.9,2.5,0.9c2.1,0,3.9-1.7,3.9-3.9
							C153.8,183.5,153.7,183.2,153.7,182.8L153.7,182.8z"/>
					</g>
					<g id="XMLID_2838_">
						<path id="XMLID_403_" class="st3" d="M149.9,188c-2.3,0-4.2-1.9-4.2-4.2c0-0.2,0-0.4,0-0.6l0,0l2.3-8.9c0-0.1,0-0.1,0-0.2l0,0
							c0.3-0.8,1-1.4,1.9-1.4c0.9,0,1.7,0.6,1.9,1.5l0.1,0.2l2.2,8.8l0,0c0,0.2,0,0.4,0,0.6C154.1,186.1,152.2,188,149.9,188z
							 M146.7,182.5L146.7,182.5l-0.1,0.5c-0.1,0.3-0.1,0.6-0.1,0.9c0,1.9,1.6,3.5,3.5,3.5c1.9,0,3.5-1.6,3.5-3.5
							c0-0.3,0-0.5-0.1-0.9l-0.1-0.5l0,0l-2-7.9c-0.1-0.6-0.6-1.1-1.2-1.1c-0.6,0-1.1,0.4-1.2,1.1l-0.1,0.3L146.7,182.5z"/>
					</g>
				</g>
			</g>
			<g id="XMLID_10511_">
				<path id="XMLID_395_" class="st3" d="M159,68.2L115,42.7c-2.1-1.2-5.4-1.4-7.2-0.3l-29.5,17l-5.4-3.1c-1.3-0.7-2-1.7-2-2.7
					c0-0.8,0.5-1.6,1.5-2.1l35.1-20.2c2-1.2,5.5-1,7.8,0.3l49.2,28.5c1.3,0.7,2,1.7,2,2.7c0,0.8-0.5,1.6-1.5,2.1L159,68.2z
					 M110.9,41.1c1.5,0,3.1,0.4,4.4,1.1L159,67.5l5.6-3.3c0.7-0.4,1.1-1,1.1-1.6c0-0.8-0.6-1.6-1.7-2.2L115,32
					c-2.1-1.2-5.4-1.4-7.2-0.3L72.7,51.9c-0.7,0.4-1.1,1-1.1,1.6c0,0.8,0.6,1.6,1.7,2.2l5.1,3l29.2-16.8
					C108.4,41.3,109.6,41.1,110.9,41.1z"/>
			</g>
			<g id="XMLID_10043_">
				<g id="XMLID_10049_">
					<g id="XMLID_10066_">
						<g id="XMLID_10070_">
							<path id="XMLID_389_" class="st4" d="M124.8,56.9l0,3.8c0,0.3,0.2,0.6,0.6,0.9c0.8,0.5,2.2,0.5,3,0c0.4-0.2,0.6-0.6,0.6-0.9
								l0-3.8L124.8,56.9z"/>
						</g>
						<g id="XMLID_10067_">
							<path id="XMLID_384_" class="st3" d="M126.9,62.3c-0.6,0-1.2-0.1-1.7-0.4c-0.5-0.3-0.8-0.7-0.8-1.1l0-4.1l4.9,0l0,4.1
								c0,0.4-0.3,0.9-0.8,1.1C128.1,62.1,127.5,62.3,126.9,62.3z M125.1,57.2l0,3.5c0,0.2,0.2,0.4,0.5,0.6c0.7,0.4,2,0.4,2.7,0
								c0.3-0.2,0.5-0.4,0.5-0.6l0-3.5L125.1,57.2z"/>
						</g>
					</g>
					<g id="XMLID_10061_">
						<g id="XMLID_10065_">
							<path id="XMLID_381_" class="st4" d="M133.4,52.9l-12.9,0l4.3,4.2l0,0c0.1,0.1,0.2,0.2,0.4,0.3c1,0.6,2.6,0.6,3.6,0
								c0.1-0.1,0.3-0.2,0.4-0.3l0,0L133.4,52.9z"/>
						</g>
						<g id="XMLID_10062_">
							<path id="XMLID_376_" class="st3" d="M126.9,58.1c-0.7,0-1.4-0.2-1.9-0.5c-0.1-0.1-0.2-0.1-0.3-0.2l0,0l-0.1-0.1l-4.8-4.8
								l14.4,0l-5,4.8c-0.1,0.1-0.2,0.2-0.3,0.2C128.3,58,127.6,58.1,126.9,58.1z M124.9,56.9L124.9,56.9c0.1,0.1,0.2,0.2,0.3,0.3
								c0.9,0.5,2.4,0.5,3.3,0c0.1-0.1,0.2-0.1,0.3-0.2l0.1-0.1l3.7-3.6l-11.4,0L124.9,56.9z"/>
						</g>
					</g>
					<g id="XMLID_10056_">
						<g id="XMLID_10060_">
							<path id="XMLID_372_" class="st4" d="M134.5,49.5L134.5,49.5c0-0.1-0.1-0.4-0.2-0.4l0,0c-0.9-2.1-2.4-3.9-4.2-5.3L129,43
								l-4.1,0l-1.2,0.9c-1.7,1.3-3.1,3-4.1,5l-0.1,0.2c-0.1,0.1-0.1,0.1-0.1,0.3l0,0.1c-0.7,1.9,0.8,4.1,4.6,5.1
								c2.3,0.6,4.8,0.5,7.1-0.3C134,53.1,135.2,51.3,134.5,49.5z"/>
						</g>
						<g id="XMLID_10057_">
							<path id="XMLID_364_" class="st3" d="M127,55.3c-1,0-2.1-0.1-3.1-0.4c-2.3-0.6-3.9-1.7-4.6-3c-0.4-0.8-0.5-1.7-0.2-2.5
								l0.1-0.1c0-0.1,0-0.1,0.1-0.2l0.1-0.2c1-2,2.4-3.8,4.2-5.1l1.3-1l4.3,0l1.2,0.9c1.9,1.4,3.4,3.3,4.3,5.4
								c0,0.1,0.2,0.4,0.2,0.4l0,0.1c0.7,2-0.7,3.9-3.7,5.1C129.8,55,128.4,55.3,127,55.3z M125,43.3l-1.1,0.8c-1.7,1.3-3.1,3-4,4.9
								l-0.1,0.2c0,0.1,0,0.1-0.1,0.1l0,0.1c-0.3,0.7-0.2,1.4,0.1,2c0.6,1.2,2.1,2.2,4.2,2.7c2.3,0.6,4.8,0.5,6.9-0.3
								c2.6-1,3.9-2.7,3.3-4.3l0-0.1c0,0-0.1-0.2-0.1-0.3c-0.9-2-2.4-3.8-4.2-5.1l-1-0.8L125,43.3z"/>
						</g>
					</g>
					<g id="XMLID_10050_">
						<g id="XMLID_10055_">
							<path id="XMLID_360_" class="st4" d="M128.7,42.8c1,0.6,1,1.5,0,2.1c-1,0.6-2.6,0.6-3.6,0c-1-0.6-1-1.5,0-2.1
								C126.1,42.3,127.7,42.3,128.7,42.8z"/>
						</g>
						<g id="XMLID_10054_">
							<path id="XMLID_356_" class="st2" d="M128.7,43.8c1,0.6,1,1.5,0,2.1c-1,0.6-2.6,0.6-3.6,0c-1-0.6-1-1.5,0-2.1
								C126.1,43.2,127.7,43.2,128.7,43.8z"/>
						</g>
						<g id="XMLID_10051_">
							<path id="XMLID_335_" class="st3" d="M126.9,45.6c-0.7,0-1.4-0.2-1.9-0.5c-0.6-0.3-0.9-0.8-0.9-1.3c0-0.5,0.3-1,0.9-1.3
								c1.1-0.6,2.8-0.6,3.9,0l0,0c0.6,0.3,0.9,0.8,0.9,1.3c0,0.5-0.3,1-0.9,1.3C128.3,45.5,127.6,45.6,126.9,45.6z M126.9,42.7
								c-0.6,0-1.2,0.1-1.6,0.4c-0.4,0.2-0.6,0.5-0.6,0.8c0,0.3,0.2,0.5,0.6,0.8c0.9,0.5,2.4,0.5,3.3,0c0.4-0.2,0.6-0.5,0.6-0.8
								c0-0.3-0.2-0.5-0.6-0.8l0,0C128.1,42.8,127.5,42.7,126.9,42.7z"/>
						</g>
					</g>
				</g>
			</g>
			<g id="XMLID_10071_">
				<g id="XMLID_10077_">
					<g id="XMLID_10094_">
						<g id="XMLID_10098_">
							<path id="XMLID_327_" class="st4" d="M139,65.2l0,3.8c0,0.3,0.2,0.6,0.6,0.9c0.8,0.5,2.2,0.5,3,0c0.4-0.2,0.6-0.6,0.6-0.9
								l0-3.8L139,65.2z"/>
						</g>
						<g id="XMLID_10095_">
							<path id="XMLID_306_" class="st3" d="M141.1,70.6c-0.6,0-1.2-0.1-1.7-0.4c-0.5-0.3-0.8-0.7-0.8-1.1l0-4.1l4.9,0l0,4.1
								c0,0.4-0.3,0.9-0.8,1.1C142.3,70.5,141.7,70.6,141.1,70.6z M139.3,65.5l0,3.5c0,0.2,0.2,0.4,0.5,0.6c0.7,0.4,2,0.4,2.7,0
								c0.3-0.2,0.5-0.4,0.5-0.6l0-3.5L139.3,65.5z"/>
						</g>
					</g>
					<g id="XMLID_10089_">
						<g id="XMLID_10093_">
							<path id="XMLID_301_" class="st4" d="M147.6,61.3l-12.9,0l4.3,4.2l0,0c0.1,0.1,0.2,0.2,0.4,0.3c1,0.6,2.6,0.6,3.6,0
								c0.1-0.1,0.3-0.2,0.4-0.3l0,0L147.6,61.3z"/>
						</g>
						<g id="XMLID_10090_">
							<path id="XMLID_293_" class="st3" d="M141.1,66.5c-0.7,0-1.4-0.2-1.9-0.5c-0.1-0.1-0.2-0.1-0.3-0.2l0,0l-0.1-0.1l-4.8-4.8
								l14.4,0l-5,4.8c-0.1,0.1-0.2,0.2-0.3,0.2C142.5,66.3,141.8,66.5,141.1,66.5z M139.1,65.2L139.1,65.2c0.1,0.1,0.2,0.2,0.3,0.3
								c0.9,0.5,2.4,0.5,3.3,0c0.1-0.1,0.2-0.1,0.3-0.2l0.1-0.1l3.7-3.6l-11.4,0L139.1,65.2z"/>
						</g>
					</g>
					<g id="XMLID_10084_">
						<g id="XMLID_10088_">
							<path id="XMLID_288_" class="st4" d="M148.7,57.9L148.7,57.9c0-0.1-0.1-0.4-0.2-0.4l0,0c-0.9-2.1-2.4-3.9-4.2-5.3l-1.1-0.8
								l-4.1,0l-1.2,0.9c-1.7,1.3-3.1,3-4.1,5l-0.1,0.2c-0.1,0.1-0.1,0.1-0.1,0.3l0,0.1c-0.7,1.9,0.8,4.1,4.6,5.1
								c2.3,0.6,4.9,0.5,7.1-0.3C148.2,61.4,149.4,59.6,148.7,57.9z"/>
						</g>
						<g id="XMLID_10085_">
							<path id="XMLID_281_" class="st3" d="M141.2,63.6c-1,0-2.1-0.1-3.1-0.4c-2.3-0.6-3.9-1.7-4.6-3c-0.4-0.8-0.5-1.7-0.2-2.5
								l0.1-0.1c0-0.1,0-0.1,0.1-0.2l0.1-0.2c1-2,2.4-3.8,4.2-5.1l1.3-1l4.3,0l1.2,0.9c1.9,1.4,3.4,3.3,4.3,5.4
								c0,0.1,0.2,0.4,0.2,0.4l0,0.1c0.7,2-0.7,3.9-3.7,5.1C144,63.4,142.6,63.6,141.2,63.6z M139.2,51.7l-1.1,0.8
								c-1.7,1.3-3.1,3-4,4.9l-0.1,0.2c0,0.1,0,0.1-0.1,0.1l0,0.1c-0.3,0.7-0.2,1.4,0.1,2c0.6,1.2,2.1,2.2,4.2,2.7
								c2.3,0.6,4.8,0.5,6.9-0.3c2.6-1,3.9-2.7,3.3-4.3l0-0.1c0,0-0.1-0.2-0.1-0.3c-0.9-2-2.4-3.8-4.2-5.1l-1-0.8L139.2,51.7z"/>
						</g>
					</g>
					<g id="XMLID_10078_">
						<g id="XMLID_10083_">
							<path id="XMLID_276_" class="st4" d="M142.9,51.2c1,0.6,1,1.5,0,2.1c-1,0.6-2.6,0.6-3.6,0c-1-0.6-1-1.5,0-2.1
								C140.3,50.6,141.9,50.6,142.9,51.2z"/>
						</g>
						<g id="XMLID_10082_">
							<path id="XMLID_273_" class="st2" d="M142.9,52.1c1,0.6,1,1.5,0,2.1c-1,0.6-2.6,0.6-3.6,0c-1-0.6-1-1.5,0-2.1
								C140.3,51.5,141.9,51.5,142.9,52.1z"/>
						</g>
						<g id="XMLID_10079_">
							<path id="XMLID_266_" class="st3" d="M141.1,54c-0.7,0-1.4-0.2-1.9-0.5c-0.6-0.3-0.9-0.8-0.9-1.3s0.3-1,0.9-1.3
								c1.1-0.6,2.8-0.6,3.9,0l0,0c0.6,0.3,0.9,0.8,0.9,1.3c0,0.5-0.3,1-0.9,1.3C142.5,53.8,141.8,54,141.1,54z M141.1,51.1
								c-0.6,0-1.2,0.1-1.6,0.4c-0.4,0.2-0.6,0.5-0.6,0.8c0,0.3,0.2,0.5,0.6,0.8c0.9,0.5,2.4,0.5,3.3,0c0.4-0.2,0.6-0.5,0.6-0.8
								c0-0.3-0.2-0.5-0.6-0.8l0,0C142.3,51.2,141.7,51.1,141.1,51.1z"/>
						</g>
					</g>
				</g>
			</g>
		</g>
	</g>
	<g id="XMLID_1241_">
		<g id="XMLID_969_">
			<path id="XMLID_355_" class="st0" d="M197.6,169.1l-1.8,1.1c-0.9,0.5-2.1,0.5-3.1,0l-6.3-3.7c-0.7-0.4-0.7-1.5,0-1.9l2.8-1.6
				c0.3-0.2,0.8-0.2,1.1,0l7.3,4.3C198.4,167.7,198.4,168.7,197.6,169.1z"/>
		</g>
		<g id="XMLID_658_">
			<g id="XMLID_659_">
				<g id="XMLID_660_">
					<g id="XMLID_673_">
						<g id="XMLID_674_">
							<g id="XMLID_679_">
								<path id="XMLID_338_" class="st2" d="M194.8,148.5l-3.2,1.8c0,0,0,0,0,0l-6.1-3.5c0,0,0,0,0,0l3.2-1.8c0,0,0,0,0,0
									L194.8,148.5C194.8,148.4,194.8,148.4,194.8,148.5z"/>
							</g>
							<g id="XMLID_678_">
								<path id="XMLID_332_" class="st2" d="M194.7,149.8l-3.2,1.8c0,0,0,0,0,0l-6.1-3.5c0,0,0,0,0,0l3.2-1.8c0,0,0,0,0,0
									L194.7,149.8C194.8,149.8,194.8,149.8,194.7,149.8z"/>
							</g>
							<g id="XMLID_675_">
								<path id="XMLID_310_" class="st3" d="M191.6,150.8l-0.3-0.1L185,147l0-0.6l0.2-0.2l3.4-2l0.3,0.1l6.3,3.7l0,0.6l-0.2,0.2
									L191.6,150.8z M186.4,146.7l5.2,3l2.3-1.3l-5.2-3L186.4,146.7z"/>
							</g>
						</g>
					</g>
					<g id="XMLID_667_">
						<g id="XMLID_668_">
							<g id="XMLID_672_">
								<path id="XMLID_298_" class="st4" d="M185.5,146.8l0,16.8c0,0,0,0,0,0l6.1,3.5c0,0,0,0,0,0l0-16.8c0,0,0,0,0,0L185.5,146.8
									C185.5,146.8,185.5,146.8,185.5,146.8z"/>
							</g>
							<g id="XMLID_669_">
								<path id="XMLID_291_" class="st3" d="M191.6,167.7l-0.3-0.1l-6.3-3.7l0-0.3l0-17.1l0.5-0.3l0.3,0.1l6.3,3.7l0,0.3l0,17.1
									L191.6,167.7z M185.9,163.3l5.2,3l0-15.8l-5.2-3L185.9,163.3z"/>
							</g>
						</g>
					</g>
					<g id="XMLID_661_">
						<g id="XMLID_662_">
							<g id="XMLID_666_">
								<path id="XMLID_280_" class="st5" d="M194.8,148.5l0,16.8c0,0,0,0,0,0l-3.2,1.8c0,0,0,0,0,0l0-16.8c0,0,0,0,0,0L194.8,148.5
									C194.8,148.4,194.8,148.5,194.8,148.5z"/>
							</g>
							<g id="XMLID_663_">
								<path id="XMLID_270_" class="st3" d="M191.6,167.7l-0.5-0.3l0-0.3l0-17.1l0.3-0.2l3.4-2l0.5,0.3l0,0.3l0,17.1l-0.3,0.2
									L191.6,167.7z M192.1,150.6l0,15.8l2.3-1.3l0-15.8L192.1,150.6z"/>
							</g>
						</g>
					</g>
				</g>
			</g>
		</g>
	</g>
</g>
</svg>
