<?xml version="1.0" encoding="utf-8"?>
<!-- Generator: Adobe Illustrator 23.0.1, SVG Export Plug-In . SVG Version: 6.00 Build 0)  -->
<svg version="1.1" id="Layer_1" xmlns="http://www.w3.org/2000/svg" xmlns:xlink="http://www.w3.org/1999/xlink" x="0px" y="0px"
	 viewBox="0 0 151.5 331.7" style="enable-background:new 0 0 151.5 331.7;" xml:space="preserve">
<style type="text/css">
	.st0{fill:#837FCB;}
	.st1{fill:#6464AF;}
	.st2{fill:#46ACC3;}
	.st3{fill:#E8625B;}
	.st4{fill:#C76847;}
	.st5{fill:#CF5854;}
	.st6{fill:#E87950;}
	.st7{fill:#31869B;}
	.st8{fill:#1B4E61;}
	.st9{fill:#184657;}
	.st10{fill:#C4603D;}
	.st11{fill:#E97951;}
	.st12{fill:#DD4F31;}
	.st13{fill:#11303B;}
	.st14{fill:#102F3B;}
	.st15{fill:#163441;}
	.st16{fill:#12323E;}
	.st17{fill:#12313D;}
	.st18{fill:#102F3A;}
	.st19{fill:#11313D;}
	.st20{fill:#11303C;}
	.st21{fill:#24404B;}
	.st22{fill:#2B4651;}
	.st23{fill:#1D5062;}
	.st24{fill:#3D6372;}
	.st25{fill:#E6F0DA;}
	.st26{fill:#F9F7DC;}
	.st27{fill:#AF3116;}
	.st28{fill:#B6DCD3;}
	.st29{fill:#223F4A;}
	.st30{fill:#247082;}
	.st31{fill:#206E7F;}
	.st32{fill:#206E80;}
	.st33{fill:#206F80;}
	.st34{fill:#216F81;}
	.st35{fill:#C4613D;}
	.st36{fill:#F9F8DC;}
	.st37{fill:#143F4E;}
	.st38{fill:#AB3E3B;}
	.st39{fill:#AB3E3A;}
	.st40{fill:#AC413E;}
	.st41{fill:#B75B58;}
	.st42{fill:#B55552;}
	.st43{fill:#B55451;}
	.st44{fill:#B65755;}
	.st45{fill:#348799;}
	.st46{fill:#4A6169;}
	.st47{fill:#596F77;}
</style>
<g>
	<g>
		<path class="st0" d="M97,50.2c0.3-0.2,0.7-0.1,1.1-0.1c0.4,0.3,0.9,0.3,1.3,0.7c0.4,0.3,0.8,0.5,1.3,0.8c0.5,0.3,1,0.7,1.5,1
			c1.2,0.5,2.3,1.2,3.4,1.9c1.2,0.7,2.4,1.4,3.6,2.1c1.3,0.8,2.7,1.6,4,2.3c2.9,1.7,5.7,3.5,8.4,5.4c1.6,1.2,3.1,2.6,4.6,3.9
			c0.8,0.7,1.5,1.5,2.2,2.3c1.1,1.2,2.1,2.4,3.1,3.7c1.5,1.8,2.6,3.8,3.9,5.8c1.8,3.1,3.3,6.5,4.2,10c0.7,2.8,1.3,5.6,1.8,8.4
			c0.4,2.2,0.9,4.3,1.1,6.6c0.2,1.6,0.3,3.2,0.7,4.7c0.1,0.4,0.2,0.8,0.1,1.2c-0.5,0.5-1.1,0.9-1.8,1.2c-1.1,0.5-2.3,0.6-3.4,1
			c-3,1.1-6.1,1.2-9.2,1.2c-1.5-0.1-3-0.2-4.6-0.4c-0.1-0.3-0.3-0.5-0.6-0.7c0.1-1,0-2,0.1-3c0.2-2.3,0.8-4.7,1.8-6.8
			c0.7-1.6,1.5-3.2,2.6-4.5c0.6-0.7,1.3-1.4,2-2.1c0.7-0.7,1.4-1.5,1.6-2.4c0.1-0.4,0.1-0.8-0.2-1.1c-0.3-0.3-0.7-0.3-1-0.2
			c-0.5,0.1-1,0.5-1.4,0.9c-0.9,0.8-1.7,1.7-2.4,2.8c-0.7,1.1-1.1,2.3-2,3.3c-0.4,0.7-1,1.1-1.4,1.8c-0.1,0.2-0.4,0.2-0.6,0.1
			c0.1-0.8,0.6-1.6,0.9-2.3c0.5-1,1-1.9,1.5-2.9c0.6-1.2,1.4-2.2,1.9-3.4c0.3-0.7,0.8-1.3,0.7-2.1c0-0.3-0.1-0.6-0.4-0.8
			c-0.4-0.3-0.9,0-1.2,0.2c-0.4,0.4-0.7,0.8-1,1.3c-1.1,1.7-1.9,3.7-2.7,5.6c-0.1,0.3-0.3,0.5-0.4,0.7c-0.1-1,0-2-0.1-3
			c-0.1-0.8-0.1-1.6-0.2-2.5c-0.1-1.2-0.3-2.4-0.5-3.6c-0.1-0.5-0.2-1-0.5-1.3c-0.4-0.3-1-0.2-1.3,0.1c-0.4,0.4-0.7,1-0.7,1.6
			c-0.1,1.6-0.2,3.3,0,4.9c0.2,1.4,0.3,2.7,0.5,4.1c0.1,0.7,0,1.3,0,2c0,0.8-0.2,1.6-0.1,2.4c0,0.2-0.1,0.3-0.2,0.4
			c-0.8-1.8-1.5-3.6-2.4-5.4c-0.8-1.4-1.5-2.8-2.6-4c-0.3-0.3-0.5-0.7-0.9-0.8c-0.4-0.1-0.5,0.5-0.5,0.8c0.8,3.5,1.6,7,2.2,10.6
			c0.2,1.3,0.8,2.6,0.9,3.9c0.2,2,0.5,4,0.4,5.9c0,0.7,0.1,1.5,0,2.2c0,2-0.6,4-1.5,5.8c-0.3,0.7-0.6,1.5-1.2,2.2
			c-0.6,0.8-1.1,1.7-1.6,2.5c-0.4,0.7-0.4,1.6-0.2,2.3c0.7,2.1,1.5,4.1,2.3,6.1c0.8,2.2,1.2,4.4,1.7,6.6c0.3,1.2,0.5,2.5,0.7,3.7
			c0.1,1,0.4,2,0.5,3.1c0.2,2.5,0.4,4.9,0.5,7.4c0.2,1,0.3,2.1,0.7,3.1c0.1,0.4,0.6,0.4,0.9,0.2c0.1,1.7,0.2,3.4,0.2,5.1
			c0,1,0,2.1-0.1,3.1c-0.1,1.5-0.3,3-0.4,4.5c0,0.4-0.1,0.8-0.3,1.1c-0.2,0.3-0.6,0.4-0.9,0.6l-0.1,0c-0.4,0.1-0.8,0-1.1,0
			c-0.6,0.1-1.2,0.3-1.9,0.4c-0.9,0.1-1.8,0.2-2.7,0.3c-2.1,0.2-4.1,0.5-6.2,0.6c-2.6,0.2-5.2,0.3-7.8-0.2c-0.8-0.2-1.7-0.3-2.5-0.5
			c-2.4-0.6-4.7-1.5-7.1-2.1c-1.1-0.3-2.3-0.5-3.5-0.7c-1.3-0.2-2.6-0.1-4-0.2c-1.5,0-2.9,0.2-4.4,0.4c-1.2,0.2-2.4,0.4-3.6,0.6
			c-1.2,0.2-2.3,0.3-3.5,0.4c-0.5,0-1,0-1.4,0c-2.3,0.3-4.5,0-6.8-0.2c-1.2-0.1-2.4-0.3-3.6-0.6c-2-0.5-4.1-0.8-6.1-1.4
			c-0.8-0.2-1.6-0.5-2.4-0.8c-0.9-0.3-1.7-0.6-2.6-0.9c-1.7-0.5-3.3-1.3-5-1.6c-0.8-0.2-1.5-0.4-2.2-0.7c-0.2-0.1-0.5-0.3-0.8-0.2
			c-0.1,0.1-0.2,0.3-0.1,0.5c0.3,0.4,0.6,0.6,1,0.9c-1.1-0.3-2.2-1-3.3-1.4c-0.4-0.5-0.7-1-1.3-1.2c-0.9-0.3-1.9,0.4-1.9,1.4
			c-0.6-0.2-1.1-0.6-1.7-0.5c-0.2-0.2-0.3-0.4-0.4-0.7c-0.4-2.2-0.6-4.4-0.8-6.6c0.5-1,1.1-1.8,1.7-2.7c0.2,0.3,0.3,0.5,0.6,0.6
			c0.4,0.1,0.7-0.1,1-0.3c0.1,0.5,0.2,0.9,0.3,1.4c0.1,0.3,0.2,0.6,0.4,0.7c0.3,0.1,0.6,0.1,0.8,0.4c0.4,0.4,0.3,1,0.8,1.4
			c0.4,0.3,1.1,0.1,1.3-0.5c0.1-0.6,0.2-1.2,0.1-1.7c-0.2-1.4-0.3-2.7-0.3-4.1c-0.2-1.2,0-2.4-0.2-3.5c-0.1-1.5,0-3,0-4.5
			c0.1-2.5,0.2-5,0.6-7.5c0.2-0.9,0.1-1.9,0.3-2.8c0.2-1.8,0.6-3.7,1.3-5.4c0.3-0.7,0.8-1.2,1.1-1.9c0.7-1.6,1.7-3.1,2.6-4.6
			c0.5-0.8,1-1.5,1.6-2.2c0.5-0.6,0.9-1.2,1.5-1.7c1.4-1.1,2.8-2.2,4.4-2.9c0.7-0.3,1.5-0.6,2.2-1c1.3-0.6,2.6-0.9,4-1.2
			c1.5-0.3,2.9-0.7,4.4-0.9c1.2-0.1,2.4-0.3,3.5-0.8c-0.7-0.1-1.4,0-2.1-0.2c-0.7-0.1-1.5-0.1-2.2-0.2c-1-0.2-1.9-0.2-2.9-0.3
			c-1.5-0.3-2.9-0.7-4.4-0.9c-0.7-0.1-1.4-0.1-2.1-0.4c-0.5-0.2-0.9-0.3-1.4-0.5c-0.7-0.2-1.2-0.8-1.9-1c-0.6-0.2-1.1-0.6-1.7-0.9
			c-0.4-0.2-0.6-0.5-0.8-0.8c-0.3-0.5-0.7-0.9-1-1.5c-0.3-0.7-0.4-1.5-0.6-2.2c-0.2-0.8-0.1-1.6-0.1-2.4c0-0.7,0.3-1.4,0.3-2.1
			c0-0.4,0.2-0.9,0.3-1.3c0.2-0.6,0.1-1.3,0.4-1.8c0.3-0.7,0.5-1.5,0.3-2.2c-0.1-0.5-0.7-0.8-1.2-0.6c-0.6,0.2-1.2,0.6-1.5,1.2
			c-0.3,0.5-0.7,0.9-1,1.4c-0.2,0.4-0.4,0.7-0.6,1.1c-0.5,0.8-0.9,1.7-1.5,2.5c0-0.9,0.1-1.7,0.1-2.6c-0.4-2.5-0.9-5-1.5-7.5
			c-0.3-1.2-0.4-2.4-0.9-3.5c-0.4-0.9-0.6-1.7-1.1-2.6c-0.6-1.4-1-2.9-2.2-3.9c-0.7-0.6-1.9-0.6-2.5,0.2c-0.4,0.6-0.3,1.3-0.2,2
			c0.3,2.2,1.8,3.9,2.7,5.9c0.5,0.8,0.7,1.8,1,2.7c0.2,0.8,0.4,1.6,0.5,2.3c0.1,0.4-0.2,0.8-0.4,1.1c-0.6-0.4-1.2-0.9-1.8-1.3
			c-0.5-0.4-1.2-0.6-1.7-1c-0.8-0.6-1.7-1.2-2.6-1.6c-0.5-0.3-1.2-0.4-1.8-0.2c0.3,0.7,0.6,1.5,1.1,2c0.5,0.5,1.1,1.1,1.6,1.5
			c0.8,0.8,1.6,1.5,2.3,2.4c0.7,0.8,1.2,1.6,1.5,2.6c0.1,0.3,0.1,0.8-0.2,1c-0.2,0.2-0.6,0.2-0.8,0c-1-0.5-2-1.1-2.8-1.8
			c-0.6-0.4-1.3-0.7-2-1.1c-0.7-0.4-1.5-0.5-2.3-0.6c-0.3,0-0.7-0.1-0.9,0.2c0.1,0.4,0.2,0.9,0.3,1.3c0.3,0.5,0.7,0.9,1.2,1.2
			c1,0.7,1.9,1.5,3,2.1c0.7,0.3,1.3,0.9,2,1.2c0.8,0.3,1.6,0.6,2.3,1c-1.1,0.2-2.2,0.2-3.4,0.2c-1.2,0.1-2.5,0-3.8,0
			c-1.6-0.1-3.1-0.4-4.7-0.5c-0.7-0.1-1.3-0.2-2-0.3c-0.7-0.2-1.5-0.3-2.3-0.4c-1.5-0.2-3-0.5-4.5-0.9c-0.3-0.1-0.7-0.1-0.9-0.4
			c0.2-0.3,0.2-0.7,0.3-1c0.4-0.8,0.4-1.6,0.7-2.4c0.5-1.9,1.1-3.7,1.8-5.6c0.7-1.8,1.6-3.5,2.5-5.2c1-2,2.1-3.8,3.2-5.7
			c2.5-4.4,5.6-8.5,9.1-12.1c1.1-1.3,2.3-2.5,3.6-3.6c2.7-2.4,5.6-4.6,8.7-6.3c1-0.6,2-1.1,3-1.5c1-0.4,2-0.9,3-1.3
			c0.9-0.3,1.7-0.7,2.6-1c1.1-0.3,2.2-0.6,3.3-1c2.2-0.8,4.5-1.2,6.7-1.7c1.4-0.4,2.8-0.7,4.2-0.6c0.3,0,0.4,0.2,0.7,0.3
			c0.3,0,0.6,0,0.9,0.1c0,0.1,0,0.2,0,0.3c1.2,0,2.4,0,3.7,0c1.7,0,3.3,0.4,4.9,0.6c1.9,0.2,3.7,0.2,5.6,0.3
			c1.6,0.1,3.2,0.2,4.8,0.1c1.7-0.1,3.4-0.4,5-0.6c1.7-0.4,3.4-1,5.1-1.6C95.2,51,96.1,50.6,97,50.2z"/>
		<path class="st1" d="M30.6,80.2c0.6-0.8,1.8-0.8,2.5-0.2c1.2,1,1.6,2.6,2.2,3.9c0.4,0.8,0.7,1.7,1.1,2.6c0.5,1.1,0.6,2.3,0.9,3.5
			c0.6,2.5,1.1,5,1.5,7.5c0,0.9-0.1,1.7-0.1,2.6c0.6-0.7,1-1.6,1.5-2.5c0.2-0.3,0.4-0.7,0.6-1.1c0.3-0.5,0.7-0.9,1-1.4
			c0.4-0.5,0.9-0.9,1.5-1.2c0.5-0.2,1.1,0.1,1.2,0.6c0.1,0.8-0.1,1.5-0.3,2.2c-0.2,0.6-0.2,1.2-0.4,1.8c-0.1,0.4-0.2,0.8-0.3,1.3
			c-0.1,0.7-0.3,1.4-0.3,2.1c0,0.8-0.1,1.6,0.1,2.4c0.1,0.7,0.2,1.5,0.6,2.2c0.2,0.5,0.6,1,1,1.5c0.2,0.3,0.5,0.6,0.8,0.8
			c0.6,0.3,1.1,0.7,1.7,0.9c0.7,0.2,1.2,0.8,1.9,1c0.5,0.2,0.9,0.3,1.4,0.5c0.7,0.3,1.4,0.3,2.1,0.4c1.5,0.2,3,0.6,4.4,0.9
			c1,0.1,1.9,0.2,2.9,0.3c0.7,0.1,1.5,0.1,2.2,0.2c0.7,0.1,1.4,0.1,2.1,0.2c-1.1,0.5-2.3,0.7-3.5,0.8c-1.5,0.2-3,0.6-4.4,0.9
			c-1.3,0.3-2.7,0.6-4,1.2c-0.7,0.3-1.5,0.6-2.2,1c-1.6,0.7-3.1,1.8-4.4,2.9c-0.6,0.5-1,1.2-1.5,1.7c-0.6,0.7-1.1,1.4-1.6,2.2
			c-0.9,1.5-1.8,3-2.6,4.6c-0.3,0.7-0.8,1.2-1.1,1.9c-0.7,1.7-1.1,3.6-1.3,5.4c-0.1,0.9-0.1,1.9-0.3,2.8c-0.4,2.5-0.5,5-0.6,7.5
			c0,1.5,0,3,0,4.5c0.1,1.2,0,2.4,0.2,3.5c0,1.4,0.1,2.7,0.3,4.1c0.1,0.6,0,1.2-0.1,1.7c-0.2,0.5-0.8,0.8-1.3,0.5
			c-0.5-0.3-0.4-1-0.8-1.4c-0.2-0.3-0.6-0.2-0.8-0.4c-0.3-0.2-0.4-0.5-0.4-0.7c-0.1-0.5-0.2-0.9-0.3-1.4c-0.3,0.1-0.7,0.4-1,0.3
			c-0.3-0.1-0.5-0.4-0.6-0.6c-0.1-0.3-0.2-0.6-0.2-0.8c0,0,0-0.1-0.1-0.2c-0.2-0.1-0.5-0.2-0.7-0.4c-0.3-0.3-0.4-0.7-0.4-1.1
			c0-1.1-0.1-2.2-0.2-3.3c0-0.5,0-1.1-0.1-1.6c-0.2,0-0.4,0-0.7,0.1c-0.1-1.3,0.1-2.6,0.1-3.9c0-1.6,0.1-3.3,0.2-4.9
			c0-0.9,0.2-1.8,0.2-2.6c0.1-2,0.1-4,0.3-5.9c0.3-2.3,0.3-4.7,0.5-7c0.4-2.6,0.6-5.3,1.1-7.9c0.2-1.3,0.4-2.6,0.7-3.8
			c0.3-1.7,0.5-3.5,1-5.2c0.4-1.6,0.8-3.2,1.4-4.8c-0.9,0.2-1.8,0.3-2.6,0.3c-0.7-0.4-1.5-0.7-2.3-1c-0.7-0.3-1.3-0.9-2-1.2
			c-1.1-0.6-2-1.4-3-2.1c-0.4-0.4-0.9-0.7-1.2-1.2c-0.1-0.4-0.2-0.9-0.3-1.3c0.2-0.3,0.6-0.2,0.9-0.2c0.8,0.1,1.6,0.2,2.3,0.6
			c0.7,0.4,1.3,0.7,2,1.1c0.9,0.7,1.8,1.3,2.8,1.8c0.3,0.1,0.6,0.2,0.8,0c0.3-0.2,0.3-0.7,0.2-1c-0.3-1-0.8-1.8-1.5-2.6
			c-0.7-0.9-1.5-1.6-2.3-2.4c-0.6-0.5-1.1-1-1.6-1.5c-0.5-0.6-0.9-1.3-1.1-2c0.6-0.2,1.2-0.1,1.8,0.2c0.9,0.5,1.8,1,2.6,1.6
			c0.5,0.4,1.2,0.6,1.7,1c0.6,0.4,1.2,0.9,1.8,1.3c0.2-0.3,0.5-0.7,0.4-1.1c-0.1-0.8-0.3-1.6-0.5-2.3c-0.3-0.9-0.5-1.8-1-2.7
			c-0.9-2-2.4-3.7-2.7-5.9C30.3,81.5,30.2,80.8,30.6,80.2z"/>
		<path class="st1" d="M119.8,88c0.3-0.4,1-0.4,1.3-0.1c0.3,0.3,0.4,0.8,0.5,1.3c0.2,1.2,0.4,2.4,0.5,3.6c0.1,0.8,0.1,1.6,0.2,2.5
			c0.1,1,0,2,0.1,3c0.2-0.2,0.3-0.5,0.4-0.7c0.9-1.9,1.6-3.9,2.7-5.6c0.3-0.4,0.6-0.9,1-1.3c0.3-0.3,0.8-0.5,1.2-0.2
			c0.3,0.1,0.4,0.5,0.4,0.8c0,0.8-0.4,1.4-0.7,2.1c-0.6,1.2-1.3,2.3-1.9,3.4c-0.5,0.9-1,1.9-1.5,2.9c-0.4,0.8-0.8,1.5-0.9,2.3
			c0.2,0.1,0.4,0.1,0.6-0.1c0.4-0.7,1-1.2,1.4-1.8c0.8-1,1.3-2.2,2-3.3c0.7-1,1.5-2,2.4-2.8c0.4-0.4,0.9-0.7,1.4-0.9
			c0.3-0.1,0.7-0.1,1,0.2c0.3,0.3,0.3,0.7,0.2,1.1c-0.2,1-1,1.7-1.6,2.4c-0.6,0.7-1.4,1.4-2,2.1c-1.1,1.3-2,2.9-2.6,4.5
			c-1,2.2-1.6,4.5-1.8,6.8c-0.1,1-0.1,2-0.1,3c0.3,0.2,0.4,0.4,0.6,0.7c-1.4-0.2-2.7-0.5-4-0.8c-0.2,1.2-0.5,2.3-0.7,3.5
			c-0.3,1.5-0.4,3.1-0.7,4.6c-0.2,1-0.2,2-0.5,3c-0.3,1.1-0.6,2.3-0.8,3.4c-0.1,1.4,0.2,2.7,0.4,4.1c0.3,2.6,0.9,5.1,1.1,7.7
			c0.5,3.1,0.4,6.1,0.3,9.2c0,2.5-0.3,4.9-0.5,7.4c0.1,1.2,0.1,2.4,0.2,3.7c-0.3,0.2-0.8,0.2-0.9-0.2c-0.4-1-0.5-2.1-0.7-3.1
			c-0.2-2.5-0.3-4.9-0.5-7.4c-0.1-1-0.4-2-0.5-3.1c-0.2-1.3-0.4-2.5-0.7-3.7c-0.5-2.2-1-4.5-1.7-6.6c-0.7-2-1.6-4-2.3-6.1
			c-0.2-0.8-0.3-1.6,0.2-2.3c0.5-0.8,1-1.7,1.6-2.5c0.5-0.7,0.8-1.4,1.2-2.2c0.9-1.8,1.4-3.8,1.5-5.8c0.1-0.7,0-1.5,0-2.2
			c0-2-0.2-4-0.4-5.9c-0.1-1.4-0.7-2.6-0.9-3.9c-0.5-3.6-1.3-7.1-2.2-10.6c-0.1-0.3,0-0.9,0.5-0.8c0.4,0.1,0.6,0.5,0.9,0.8
			c1.1,1.2,1.8,2.6,2.6,4c0.9,1.8,1.6,3.6,2.4,5.4c0.1-0.1,0.2-0.2,0.2-0.4c0-0.8,0.2-1.6,0.1-2.4c0-0.7,0.1-1.3,0-2
			c-0.2-1.4-0.3-2.7-0.5-4.1c-0.2-1.6-0.2-3.3,0-4.9C119.1,89,119.4,88.5,119.8,88z"/>
		<path class="st2" d="M29.5,149c0.2,0,0.4,0,0.7-0.1c0.2,0.5,0.1,1.1,0.1,1.6c0.1,1.1,0.2,2.2,0.2,3.3c0,0.4,0.1,0.8,0.4,1.1
			c0.2,0.2,0.5,0.2,0.7,0.4c0,0,0,0.1,0.1,0.2c-0.5,0.8-1.1,1.6-1.6,2.4c-0.2-1.6-0.3-3.3-0.4-4.9C29.6,151.6,29.5,150.3,29.5,149z"
			/>
		<path class="st3" d="M31.7,155.5c0.1,0.3,0.1,0.6,0.2,0.8c-0.6,0.9-1.2,1.7-1.7,2.7c0.2,2.2,0.4,4.4,0.8,6.6
			c0,0.3,0.2,0.5,0.4,0.7c0.6-0.1,1.1,0.3,1.7,0.5c0,0.4,0.1,0.7,0.3,1.1c-0.7,0.4-1.5,0.5-2.2,0.8c-1.3,0.4-2.7,0.9-4,1.5
			c-0.5,0.2-1,0.1-1.4,0.3c-0.5,0.3-0.9,0.9-1.4,1.2c0-0.6,0.1-1.2,0.1-1.8c0-0.1,0-0.3,0.2-0.3c0.3-0.1,0.2,0.3,0.3,0.4
			c0.8-3.1,2-6.1,3.5-8.9c0.6-1,1.1-2.1,1.7-3.1C30.6,157.1,31.2,156.3,31.7,155.5z"/>
		<path class="st4" d="M36.8,274c0.1,1.2,0.3,2.4,0.5,3.6c0.5-0.3,1-0.6,1.5-0.7c0.4-0.1,0.9-0.2,1.3-0.3c0.8-0.2,1.7-0.2,2.5-0.3
			c1.2-0.3,2.3-0.1,3.5-0.1c0.8,0,1.5,0.2,2.2,0.3c1.5,0.2,3.1,0.6,4.6,0.9c0.1-0.9,0.2-1.9,0.2-2.8C47.7,274.6,42.4,274.9,36.8,274
			z"/>
		<path class="st4" d="M73.6,280.3C73.6,280.3,73.6,280.3,73.6,280.3C73.6,280.3,73.6,280.3,73.6,280.3c0,0.3,0,0.5,0,0.7
			c0.1,1.4,0.3,2.8,0.5,4.3c1.4,0.2,2.8,0.2,4.2-0.2c1-0.3,2-0.6,3.1-0.8c1.4-0.2,2.8-0.5,4.3-0.3c1.1,0.2,2.1,0.3,3.2,0.6
			c0.6,0.1,1.3,0.1,1.9,0.5c0.2-0.8,0.7-1.6,0.8-2.4c0.1,0,0.1-0.1,0.2-0.1C85.5,282.6,79.2,283.2,73.6,280.3z"/>
		<path class="st5" d="M116.7,174.1c-0.6,0.1-1.2,0.3-1.9,0.4c-0.9,0.1-1.8,0.2-2.7,0.3c-0.4,0.2-0.9,0.3-1.4,0.3
			c-0.9,0.1-1.8,0.4-2.7,0.3c-0.7,0-1.4,0.1-2.1-0.1c-2.6,0.2-5.2,0.3-7.8-0.2c-0.8-0.2-1.7-0.3-2.5-0.5c-2.4-0.6-4.7-1.5-7.1-2.1
			c-1.1-0.3-2.3-0.5-3.5-0.7c-1.3-0.2-2.6-0.1-4-0.2c-1.5,0-2.9,0.2-4.4,0.4c-1.2,0.2-2.4,0.4-3.6,0.6c-1.2,0.2-2.3,0.3-3.5,0.4
			c-0.5,0-1,0-1.4,0c-2.3,0.3-4.5,0-6.8-0.2c-1.2-0.1-2.4-0.3-3.6-0.6c-0.3,0-0.6,0.1-1,0c-1-0.2-2.1-0.3-3.1-0.5
			c-1.1-0.3-2.2-0.7-3.2-1.1c-0.4-0.2-0.9-0.2-1.2-0.6c-0.9-0.3-1.7-0.6-2.6-0.9c-1.7-0.5-3.3-1.3-5-1.6c-0.5,0.2-1-0.2-1.5-0.1
			c-0.2,0-0.3,0.2-0.3,0.3c0.1,0.3,0.2,0.6,0.4,0.9c-0.4-0.1-0.8-0.2-1.1-0.4c-0.4-0.2-0.7-0.6-1.2-0.5c-0.4,0-0.6,0.4-0.6,0.8
			c0,0.6,0.5,1,0.9,1.4c-0.3-0.1-0.6-0.2-0.9-0.4c-0.2-0.3-0.3-0.6-0.4-0.9c-0.4-0.6-0.5-1.3-0.7-2c-0.4-0.5-0.7-1-1.3-1.2
			c-0.9-0.3-1.9,0.4-1.9,1.4c0,0.4,0.1,0.7,0.3,1.1c-0.7,0.4-1.5,0.5-2.2,0.8c-1.3,0.5-2.7,0.9-4,1.5c-0.5,0.2-1,0.1-1.4,0.3
			c-0.5,0.3-0.9,0.9-1.4,1.2c-0.1,1.3,0.1,2.6,0.1,3.9c0,1.6,0.1,3.1,0.1,4.7c0.1,2.3,0.1,4.7-0.4,7c-0.2,1.2-0.5,2.4-0.9,3.5
			c-0.8,2.3-1.9,4.6-2,7c-0.2,2.7-0.3,5.4,0.3,8c0.3,1.1,0.5,2.3,0.5,3.4c0.1,1.5,0.1,2.9-0.2,4.4c-0.2,1.2-0.5,2.3-0.8,3.5
			c-0.5,2.4-0.7,4.9-0.1,7.3c0.3,1,0.6,1.9,1,2.8c0.9,2,1.4,4.1,1.4,6.3c0,0.8,0,1.6-0.2,2.4c-0.2,1.2-0.5,2.5-0.5,3.7
			c0,0.9,0.2,1.8,0.6,2.6c0.5,1.1,1.1,2,1.8,3c0.5,0.8,0.9,1.7,1.2,2.5c0.3,0.9,0.6,1.9,0.6,2.8c0.1,2.1,0,4.3,0.8,6.2
			c0.4,0.9,0.7,1.9,1.3,2.8c0.8,1.4,1.4,2.9,2.5,4.1c0.3,0.4,0.8,0.6,1.1,1c0.2,0.6,0,1.3,0.2,1.9c0.1,1,0.6,1.9,1.2,2.8
			c0.2,0.3,0.4,0.6,0.5,0.9c0.3,0.9,0.7,1.7,1.2,2.4c0.3,0.4,0.4,0.9,1,1c0,0.1,0,0.2,0,0.2c5.6,0.9,10.9,0.6,16.3,0.5
			c0-0.1,0-0.1,0-0.2c0.8-0.3,1.2-1.1,1.4-1.8c0.3-0.9,0.4-1.8,0.4-2.7c0.1-1.8,0.2-3.6,0.2-5.4c0-0.3,0.2-0.5,0.4-0.8
			c0.9-1.4,1.4-3,1.5-4.7c0.2-2.1,0.1-4.2,0.1-6.4c0-1,0.4-1.9,0.8-2.7c0.4-0.9,0.8-1.8,1.2-2.6c0.8-1.6,1.7-3,2.3-4.7
			c0.7-1.9,0.8-3.9,0.8-5.9c0-1,0-2,0-3.1c0-1.2-0.2-2.5,0.1-3.7c0.9-3.4,1.7-6.9,2.6-10.3c0.5-2.1,1-4.3,1.5-6.4
			c0.3-1.3,0.5-2.7,0.8-4c0,3-0.1,5.9-0.1,8.9c0,1.9,0,3.8,0,5.7c0,2.4-0.6,4.8-1.3,7.2c-0.4,1.5-1,3-1,4.6
			c-0.2,2.1,0.4,4.3,1.9,5.9c0.6,0.6,0.9,1.3,1.2,2.1c0.7,2.1,0.6,4.3,0.1,6.4c-0.3,0.9-0.6,1.7-0.7,2.6c-0.1,0.8-0.2,1.6,0,2.4
			c0.2,0.7,0.6,1.4,1,2c1,1.5,1.6,3.4,1.3,5.3c-0.1,0.7-0.6,1.3-0.8,1.9c-0.3,0.8-0.6,1.8-0.2,2.7c0.5,1.2,1.3,2.2,2.1,3.1
			c0.4,0.4,0.4,1.1,0.4,1.7c0,1.2,0,2.3,0.4,3.4c0.6,1.4,0.7,3,1.2,4.4c0.1,0.4,0.4,0.7,0.7,0.9c0,0,0,0,0,0
			c5.6,2.9,11.9,2.3,18,2.3c0.5-0.3,0.7-0.8,1-1.2c0.4-0.8,0.8-1.6,1.1-2.4c0.6-1.3,0.9-2.8,1.2-4.2c0.2-1.1,1-1.9,1.6-2.7
			c0.9-1.4,1.7-2.9,2.4-4.4c1.2-2.4,2-5.1,2.1-7.8c0.1-1.7,0-3.5,0.3-5.2c0.4-2.9,1.6-5.6,2.6-8.3c0.6-1.7,1-3.5,1.1-5.3
			c0.2-2,0.4-4.1,1.5-5.9c0.9-1.4,2.1-2.6,2.9-4c1-1.7,1.7-3.5,2-5.5c0.2-1,0.2-2.1,0.4-3.1c0.3-2.3,0.5-4.5,0.6-6.8
			c0.1-1.4,0.1-2.8,0.1-4.2c0-2.4-0.2-4.8,0.4-7.1c0.6-2.2,1.3-4.3,1.7-6.5c0.5-2.1,0.9-4.3,1.1-6.5c0.2-2,0.1-4,0.3-6
			c0.5-3.8,1.3-7.6,1.7-11.4C117.5,174.1,117.1,174.1,116.7,174.1z"/>
		<path class="st3" d="M38.8,166.6c0.3-0.2,0.5,0,0.8,0.2c0.7,0.4,1.4,0.6,2.2,0.7c-0.5,0.2-1-0.2-1.5-0.1c-0.2,0-0.3,0.2-0.3,0.3
			c0.1,0.3,0.2,0.6,0.4,0.9c-0.4-0.1-0.8-0.2-1.1-0.4c-0.4-0.2-0.7-0.6-1.2-0.5c-0.4,0-0.6,0.4-0.6,0.8c0,0.6,0.5,1,0.9,1.4
			c-0.3-0.1-0.6-0.2-0.9-0.4c-0.2-0.3-0.3-0.6-0.4-0.9c-0.4-0.6-0.5-1.3-0.7-2c1.1,0.4,2.1,1.1,3.3,1.4c-0.3-0.3-0.7-0.5-1-0.9
			C38.6,166.9,38.7,166.8,38.8,166.6z"/>
		<path class="st3" d="M49.3,170.1c0.8,0.3,1.6,0.6,2.4,0.8c2,0.6,4.1,0.9,6.1,1.4c-0.3,0-0.6,0.1-1,0c-1-0.2-2.1-0.3-3.1-0.5
			c-1.1-0.3-2.1-0.7-3.2-1.1C50.1,170.5,49.7,170.4,49.3,170.1z"/>
		<path class="st3" d="M43.3,172.4c0.2-0.1,0.5-0.1,0.7-0.1c0.1,0.2,0.1,0.5,0,0.8c-0.2,0.7-0.2,1.4-0.4,2.1
			c-0.3,1.3-0.6,2.5-0.7,3.8c-0.2,1.2-0.2,2.5-0.3,3.7c0,1.7-0.2,3.4-0.2,5.2c-0.1,1.1,0.2,2.1,0.3,3.2c0.1,0.8,0.2,1.7,0.6,2.4
			c0-1,0.2-2.1,0.3-3.1c0.4-2.7,1-5.4,1.6-8c0.6-2.2,1.1-4.5,1.9-6.7c0.2-0.6,0.4-1.2,0.8-1.7c0.2-0.3,0.5-0.1,0.7,0
			c1.4,0.7,2.9,1.1,4.4,1.5c2.2,0.7,4.5,0.9,6.7,1.1c2.9,0.3,5.8,0.3,8.7,0.2c2.3-0.2,4.7-0.3,7-0.8c1-0.2,2-0.4,2.9-0.7
			c1.4-0.4,2.8-0.8,4.2-0.7c1.4-0.1,2.9,0.1,4.3,0.4c1.1,0.2,2.2,0.5,3.3,0.9c0.4,0.1,0.8,0.2,1.1,0.4c0.3,0.8,0.4,1.6,0.7,2.4
			c0.7,2.5,1.2,5.1,1.7,7.7c0.2,0.8,0.3,1.7,0.4,2.5c0.1,0.7,0.4,1.3,0.4,2c0.2,1.4,0,2.7,0.3,4.1c0.1,0.4,0,0.9,0.1,1.3
			c0.5-0.8,0.5-1.7,0.8-2.6c0.3-1.4,0.6-2.7,0.7-4.1c0.2-2.2,0.6-4.3,0.6-6.4c0.1-1.7,0.1-3.5-0.1-5.2c1,0.1,2.1,0.4,3.1,0.5
			c2.7,0.3,5.4,0,8-0.6c1.8-0.4,3.6-1.1,5.3-1.6c0.8-0.3,1.6-0.6,2.4-0.8c-0.2,0.5-0.3,1.1-0.7,1.5c-0.7,0.8-1.2,1.9-1.6,2.9
			c-0.8,2.1-1.5,4.1-2.2,6.2c-0.7,1.9-1.2,3.8-1.7,5.8c-0.7,2.4-1.2,4.8-2,7.2c-0.6,2-1.2,4-1.9,6c-0.5,1.4-0.8,2.9-1,4.3
			c-0.1,1.1-0.2,2.2-0.2,3.3c0,1.2,0.2,2.4,0.3,3.6c0,0.5,0.2,1,0,1.5c-0.3,0.8-0.4,1.7-0.9,2.5c-0.5,0.9-0.8,1.8-1.2,2.8
			c-0.8,2-1.9,3.9-2.9,5.7c-0.3,0.5-0.6,1-0.9,1.5c-0.1,0.2-0.2,0.3-0.2,0.6c0.7-0.5,1.4-1,2-1.6c0.6-0.7,1.4-1.2,2-1.9
			c0.4-0.5,0.8-1,1.2-1.5c0.5-0.7,0.8-1.6,1.2-2.3c0.1-0.2,0.3-0.5,0.6-0.4c0.3,0.2,0.3,0.6,0.3,0.8c0,1.2,0,2.4-0.2,3.5
			c-0.5,3.4-2.2,6.6-4.1,9.4c-0.9,1.3-1.9,2.5-2.9,3.7c-1,1.2-2,2.3-2.9,3.6c-1.1,1.5-2.3,3-3.7,4.4c-0.3,0.4-0.6,0.8-0.9,1.3
			c-0.2,0.3-0.1,0.7,0.1,0.9c0.8-0.4,1.6-0.9,2.5-1.3c1.1-0.5,2-1.3,3.1-1.9c0.4-0.2,0.8-0.4,1.3-0.4c0.4,0.1,0.5,0.6,0.4,1
			c-0.2,1.5-0.9,2.9-1.6,4.2c-0.3,0.7-0.6,1.3-1,1.9c-0.5,0.8-0.8,1.6-1.4,2.3c-0.8,0.9-1.5,2-2.4,2.8c-1.3,1.3-2.5,2.6-3.6,4.1
			c-0.2,0.3-0.1,0.6,0,0.9c0.2,0.2,0.5,0.1,0.7,0.1c0.8-0.3,1.3-0.9,1.9-1.5c0.4-0.4,1-0.7,1.4-1.1c0.4-0.3,0.8-0.6,1.2-0.9
			c0.2,0.2,0.4,0.4,0.4,0.8c-0.1,0.7-0.5,1.2-0.8,1.8c-0.9,1.3-1.8,2.7-3.1,3.6c-1.3,1.3-2.8,2.5-4.4,3.5c-0.7,0.4-1.3,1-2.1,1.3
			c-0.5,0.1-1,0.2-1.4-0.1c-0.6-0.4-0.9-1.1-1.3-1.7c-0.8-1.2-1.9-2.3-2.6-3.6c-0.1-0.2-0.3-0.4-0.4-0.6c-1.1-1-1.9-2.3-2.6-3.6
			c-0.8-1.6-1.3-3.4-1.9-5.1c-0.7-2.3-1.2-4.7-1.6-7.1c-0.1-0.7,0-1.4-0.2-2.2c-0.1-0.3,0.4-0.4,0.6-0.2c0.3,0.3,0.5,0.6,0.7,1
			c0.7,1.2,1.7,2.3,2.5,3.5c0.5,0.7,1.4,1.1,2.1,1.6c0.4,0.3,0.9,0.5,1.4,0.7c-0.2-0.4-0.5-0.7-0.7-1.1c-1.1-1.6-2-3.4-2.7-5.2
			c-0.8-2.1-1.8-4.2-2.3-6.4c-0.4-1.3-0.6-2.7-0.8-4c0-0.3,0.4-0.5,0.7-0.3c0.6,0.4,1.1,0.8,1.5,1.3c1,0.9,2,1.9,3.2,2.8
			c0.9,0.7,1.9,1.4,2.8,2.1c0.4,0.3,0.8,0.6,1.3,0.5c0-0.2-0.1-0.4-0.2-0.6c-0.2-0.3-0.3-0.7-0.5-1c-1.7-2.6-3.2-5.4-4.7-8.2
			c-1.4-2.6-2.5-5.5-3.2-8.4c-0.3-1-0.5-2-0.3-3c0.3-1.3,0.8-2.6,1.1-3.9c0.5-1.9,0.9-3.9,0.9-5.9c0.1-1.5,0-3-0.2-4.5
			c-0.1-2.2-0.8-4.2-1.4-6.3c-0.7-2.3-1.5-4.7-2-7.1c-0.3-1.5-0.6-3.1-0.9-4.6c-0.1-0.5-0.1-1.1-0.2-1.6c-0.4,0.4-0.9,0.7-1,1.3
			c-0.2,0.8-0.5,1.6-0.7,2.5c-0.2,0.7-0.5,1.3-0.7,1.9c-1.1,4.3-2.5,8.6-4.2,12.6c-0.5,1-1,1.9-1.5,3c-0.3,1.1-0.6,2.1-1.1,3.1
			c-0.8,1.9-1.6,3.8-2.6,5.6c-0.3,0.7-0.8,1.3-1.2,2c-0.7,1.3-1.5,2.6-2.2,3.9c-0.3,0.6-0.5,1.3-0.9,1.9c-0.5,0.7-0.8,1.5-0.9,2.3
			c-0.1,0.4,0.5,0.7,0.8,0.4c0.8-0.7,1.5-1.5,2.3-2.2c0.2-0.2,0.6-0.3,0.8,0c0.2,0.5-0.1,0.9-0.2,1.4c-0.4,1.9-1.2,3.6-1.8,5.4
			c-0.9,2.3-1.8,4.6-2.9,6.9c-0.3,0.8-0.7,1.5-1,2.3c-0.3,0.8-0.7,1.6-0.9,2.5c-0.1,0.6-0.5,1.1-0.6,1.6c0,0.4,0.3,0.9,0.7,0.8
			c0.6-0.2,1.1-0.7,1.5-1.1c0.5-0.5,0.9-1,1.4-1.4c0.3-0.2,0.7-0.2,0.9,0.1c0.2,0.4,0.1,0.9,0,1.4c-0.3,1.3-0.2,2.6-0.4,3.9
			c-0.1,0.5,0,1.1,0,1.7c0,1.2,0.1,2.5-0.3,3.6c-0.4,1.6-1.5,3-2.5,4.2c-0.9,0.9-1.8,1.9-2.8,2.6c-0.4,0.3-0.9,0.4-1.2,0.8
			c-0.4,0.4-0.7,0.9-1.2,1.2c-0.5,0.2-1.1-0.1-1.3-0.6c-0.1-0.4,0-0.8-0.1-1.2c-0.1-0.2-0.2-0.4-0.4-0.6c-0.4,0.1-0.9,0.2-1,0.6
			c-0.2,0.4-0.4,0.8-0.7,1.1c-0.3,0.3-0.7,0.5-1,0.3c-0.3-0.2-0.3-0.5-0.5-0.7c-0.5-0.7-1-1.5-1.9-1.9c-1.4-0.8-2.9-1.2-4.2-2.2
			c-0.6-0.5-1.2-1.1-1.5-1.9c-0.3-0.8-0.2-1.6-0.3-2.4c0-1.3,0.2-2.7-0.2-4c-0.3-0.9-0.7-1.8-1.1-2.7c-0.2-0.3-0.4-0.7-0.4-1.1
			c0.1-0.3,0.4-0.3,0.7-0.2c0.6,0.2,1,0.7,1.5,1.1c0.8,0.7,1.5,1.5,2.3,2.1c0.3,0.3,0.6,0.6,0.9,0.8c0.1,0.1,0.3,0,0.4,0
			c0.1-0.2,0-0.3-0.1-0.5c-0.7-1.5-1.6-2.8-2.5-4.2c-0.8-1.3-1.7-2.4-2.4-3.7c-0.5-0.8-1-1.7-1.5-2.6c-0.5-1-0.8-2.2-1-3.4
			c-0.1-0.5,0-1,0.1-1.5c0.2-0.6,0.1-1.3,0.3-1.9c0.3-0.9,0.5-1.8,1.1-2.5c0.7-0.9,2-1.3,3.1-1c1.2,0.4,2.3,1.2,3.3,2
			c0.3,0.2,0.7,0.2,1,0.3c0.1,0,0.2-0.1,0.2-0.1c-0.5-0.8-1.1-1.6-1.7-2.4c-0.7-1-1.4-2-2-3c-0.3-0.5-0.6-1-0.9-1.5
			c-0.6-0.8-1-1.8-1.5-2.7c-0.9-1.8-1.7-3.8-2.2-5.8c-0.5-2.1-0.7-4.4-0.5-6.6c0.2-1.1,0.3-2.3,0.6-3.4c0.4-1.9,1.4-3.6,2.3-5.3
			c1.2-2.2,2.3-4.3,3.1-6.7c0.6-1.9,0.8-3.9,0.9-5.9c0.1-2-0.1-3.9,0-5.9c0.1-2.1,0.4-4.3,0.7-6.4c0.1-0.5,0.2-1.1,0.5-1.6
			c0.7-1.3,1.9-2.3,3.1-3C41.9,172.8,42.6,172.7,43.3,172.4z"/>
		<path class="st3" d="M106,175.5c2.1-0.1,4.1-0.4,6.2-0.6c-0.4,0.2-0.9,0.3-1.4,0.3c-0.9,0.1-1.8,0.4-2.7,0.3
			C107.4,175.5,106.7,175.6,106,175.5z"/>
		<path class="st3" d="M37.3,265.1c1.3,0.4,2.6,0.5,3.9,0.6c0.8,0.1,1.7,0,2.5,0.3c0.9,0.3,1.9,0.2,2.8,0.2c1.3-0.1,2.6-0.2,3.9-0.4
			c0.5-0.1,1-0.2,1.5-0.1c0.2,0.7,0.4,1.5,0.5,2.3c-0.1,1.1-0.2,2.1-0.3,3.2c-0.1,0.6,0,1.3-0.3,1.8c-0.8,0.1-1.6,0.1-2.4,0.2
			c-1.5,0.4-3.1,0.4-4.7,0.4c-1.1,0.1-2.1-0.2-3.2-0.1c-0.6,0-1.1-0.1-1.7-0.1c-0.6,0-1.2-0.3-1.8-0.5c-0.5-1.9-0.6-3.8-0.8-5.8
			C37.3,266.4,37.2,265.7,37.3,265.1z"/>
		<path class="st3" d="M76.3,272.5c0.1-0.2,0.3-0.4,0.5-0.6c0.1,0.2,0.2,0.4,0.2,0.7c0.6,0.2,1.3,0.1,2,0.3c0.8,0.2,1.6,0.6,2.4,0.7
			c1.3,0.2,2.5,0.6,3.8,0.6c1,0,2-0.2,2.9-0.5c0.2-0.1,0.5,0.1,0.7,0.1c0.5,0.2,1.1,0.1,1.7,0.2c0,0.1,0.1,0.3,0.1,0.5
			c0.4,0.1,0.9,0.1,1.4,0.1c0.1,0.3,0.3,0.6,0.2,0.9c-0.4,2-0.9,3.9-1.7,5.8c-0.9,0.2-1.8,0.3-2.7,0.4c-0.5,0-1,0-1.5,0
			c-1.3,0-2.6-0.1-3.9-0.2c-0.7,0-1.4-0.4-2.1-0.5c-1.2-0.3-2.4-0.7-3.7-0.9c-0.2,0-0.4-0.1-0.5-0.2c-0.1-1.1-0.4-2.1-0.6-3.2
			c-0.2-0.9-0.1-1.9-0.2-2.9c-0.1-0.2,0.1-0.4,0.3-0.5c0-0.3,0.1-0.6,0.1-0.9C75.8,272.3,76.1,272.4,76.3,272.5z"/>
		<path class="st3" d="M45.7,288.1c-2-0.3-4.1,0.5-5.2,2.1c0,0,0.1,0,0.1,0c-0.1,0.3-0.1,0.6-0.2,0.9c0,0.3-0.1,0.6-0.1,0.9
			c0.8-0.1,1.7-0.2,2.5-0.1c1.3,0.1,2.6,0.3,3.9,0.7c0.6,0.2,1.2,0.4,1.6,0.9c0.1-0.5,0.3-0.9,0.4-1.4c0.1-0.5,0.1-0.9,0.1-1.4
			C48.1,289.3,47.1,288.4,45.7,288.1z"/>
		<path class="st6" d="M48.4,276.3c-0.7-0.1-1.5-0.3-2.2-0.3c-1.2,0-2.3-0.1-3.5,0.1c-0.8,0.2-1.7,0.1-2.5,0.3
			c-0.4,0.1-0.9,0.2-1.3,0.3c-0.5,0.2-1,0.5-1.5,0.7c0.2,1.4,0.4,2.8,0.5,4.2c0.2,1.3,0.4,2.6,0.5,3.9c0.2,1.2,0.4,2.4,0.5,3.5
			l0.1,0.1c0.3,0.5,0.7,0.9,1.2,1.1c0.1,0,0.2-0.1,0.3-0.1c1.1-1.6,3.2-2.5,5.2-2.1c1.4,0.2,2.5,1.2,3,2.5c0,0,0,0,0-0.1
			c0.8,0.4,1.8,0.7,2.6,0.2c0.1-0.3,0.2-0.6,0.4-0.8c0.3-0.9,0.3-1.8,0.5-2.8c0.3-1.7,0.3-3.5,0.5-5.3c0.1-1.5,0.2-3.1,0.4-4.6
			C51.4,276.9,49.9,276.5,48.4,276.3z"/>
		<path class="st3" d="M76,281.3c0.6,0.1,1.2,0.3,1.8,0.4c0.5,0.2,1,0.4,1.5,0.5c1,0.2,2,0.3,3.1,0.3c0.6,0,1.2,0.2,1.9,0.2
			c0.9,0.1,1.8,0.1,2.6,0c0.4-0.1,0.8,0,1.2,0.1c0.6,0.2,1.3,0,2,0.1c0.1,0.2-0.3,0.2-0.4,0.2c-1.4,0.1-2.7,0-4.1,0.1
			c-1.1,0-2.2-0.1-3.3-0.3c-2-0.4-4-0.8-6-1.4C76.1,281.5,76.1,281.4,76,281.3z"/>
		<path class="st6" d="M87.8,301.1c0-0.8-0.1-1.5-0.1-2.3c0-0.7,0.1-1.3,0.1-2c0.1-1.6,0.5-3.1,0.9-4.6c0.3-1.1,0.5-2.2,0.8-3.3
			c0.3-1.2,0.8-2.4,1.2-3.7c-0.6-0.4-1.2-0.4-1.9-0.5c-1-0.2-2.1-0.4-3.2-0.6c-1.4-0.2-2.9,0-4.3,0.3c-1,0.2-2.1,0.5-3.1,0.8
			c-1.4,0.4-2.8,0.4-4.2,0.2c0.2,1,0.3,2.1,0.4,3.1c0.2,1.7,0.4,3.3,0.4,5c0.1,1.9,0.2,3.7,0.1,5.6c-0.1,1.1-0.2,2.2-0.3,3.3
			c0,0,0.1,0,0.1,0c0.3,0.1,0.4,0.4,0.6,0.7c0.3,0.6,0.7,1.1,1.2,1.7c0.7,0.8,1.6,1.2,2.5,1.7c0.3,0.2,0.8,0.1,0.8-0.3
			c0.1-0.9,0.3-1.8,0.8-2.6c0.4-0.6,1.1-0.8,1.6-1.2c0.4-0.3,0.9-0.5,1.4-0.5C84.8,300.8,86.5,301.4,87.8,301.1z"/>
		<path class="st3" d="M92.3,309.9c-0.8-1.5-1.7-2.9-2.4-4.3c-0.4-0.6-0.3-1.4-0.5-2c-0.1-0.6-0.2-1.3-0.5-1.9
			c-0.2-0.4-0.7-0.6-1.1-0.6c0,0,0,0,0,0c-1.3,0.3-3-0.2-4,0.9c0,0,0,0,0.1,0c-0.5,0.4-1.1,0.8-1.4,1.3c-0.7,1.1-0.8,2.4-0.7,3.7
			c0.7,0.1,1.3,0.2,2,0.4c0.4,0.1,0.8-0.3,1.2-0.4c1.3-0.7,2.8-1.1,4.4-1.1c0.3,0,0.5,0.1,0.7,0.3c-0.4,0.2-0.9,0.2-1.4,0.3
			c-1.4,0.2-2.9,0.5-4.2,1.1c0.6,0.2,1,0.6,1.6,0.9c0.5,0,1-0.3,1.5-0.5c1.1-0.3,2.2-0.6,3.3-0.4c0,0.1,0,0.2,0,0.3
			c-1.4,0.2-2.9,0.4-4.3,0.9c0.4,0.4,0.9,0.8,1.3,1.2c0.1,0.2,0.4,0.1,0.5,0c1.1-0.4,2.3-0.6,3.5-0.5c0,0.1,0.1,0.2,0.1,0.3
			c-1.2,0.2-2.4,0.4-3.6,0.8c0.3,0.3,0.6,0.6,0.9,0.9c1.1-0.4,2.2-0.6,3.4-0.5c0.2,0,0.4,0.2,0.3,0.4c-1.1,0.2-2.2,0.1-3.3,0.5
			c0.3,0.4,0.6,0.8,1,1.2c1.1-0.3,2.2-0.4,3.3-0.5C93.4,311.6,93,310.7,92.3,309.9z"/>
		<path class="st7" d="M38.1,290.3c0.1-0.5,0.3-0.9,0.7-1.1l0.1,0.1c0,0.4,0,0.8,0.2,1.1c0.3,0.4,0.8,0.6,1.3,0.7
			c0,0.3-0.1,0.6-0.1,0.9c-0.1,0.1-0.1,0.2-0.2,0.2c0,0.1,0.1,0.2,0.1,0.3c0,0.5,0,1.1,0,1.6c0,0,0,0.1,0,0.2c-0.4,0-0.8,0-1.2,0
			c0-0.2,0-0.4,0-0.6c-0.2-0.1-0.4-0.1-0.6-0.1c-0.1,0.3-0.3,0.5-0.3,0.8c0.1,0.1,0.2,0.2,0.3,0.4c0.3,0,0.5,0,0.8-0.1
			c0.3,0,0.7,0,1-0.1c0,0,0,0,0,0.1c0,0.7,0.1,1.3,0.1,2l-0.1,0.1c-0.5,0-1,0.1-1.5,0.2c0-0.3,0.1-0.6-0.1-0.8c-0.2,0-0.4,0-0.6,0
			c-0.1,0.3-0.2,0.7-0.1,1.1c0.2,0.1,0.5,0,0.8,0.1c0.5,0.2,1.1-0.1,1.6-0.1c0,0,0.1,0,0.1,0c0,0.6,0,1.3,0,1.9
			c0,0.1-0.1,0.2-0.1,0.3c0-0.1-0.1-0.2-0.1-0.3c-0.5,0-1,0.2-1.5,0.1c0-0.2,0.1-0.5-0.1-0.7c-0.2,0-0.3,0-0.5,0
			c-0.1,0.1-0.2,0.3-0.3,0.4c0,0.3,0.1,0.5,0.3,0.7c0.7-0.2,1.5-0.1,2.3-0.1c0,0,0,0.1,0,0.2c-0.1,0.5-0.1,1.1-0.3,1.6
			c0,0,0,0.1,0,0.1c-0.4,0-0.9,0-1.3,0c-0.1-0.2-0.1-0.4-0.1-0.7c-0.2,0-0.4,0-0.7,0c-0.2,0.3-0.2,0.6-0.2,1c0.2,0.1,0.4,0.1,0.6,0
			c0.3-0.1,0.5,0.1,0.8,0.1c0.3,0,0.5,0,0.8,0c-0.1,0.6-0.4,1.1-0.5,1.7c0,0.6,0.4,1.1,0.7,1.5c1.1,1.2,2.9,1.8,4.5,1.4
			c0.8-0.3,1.7-0.7,2.2-1.5c0.1-0.5,0.2-1,0.2-1.5c0.3,0.2,0.6,0.3,1,0.3c0.1,0.1,0.2,0.3,0.3,0.5c0.5,0,0.8-0.5,0.8-1
			c-0.1-0.1-0.3-0.3-0.4-0.4c-0.3,0.1-0.5,0.3-0.7,0.5c-0.3-0.2-0.7-0.3-1.1-0.3c0-0.7,0-1.4,0-2.2c0.2,0.1,0.4,0.3,0.5,0.4
			c0.2,0,0.4,0,0.6,0c0.1,0.1,0.3,0.2,0.4,0.4c0.2-0.2,0.4-0.3,0.5-0.5c0.1-0.3,0-0.5-0.1-0.7c-0.2,0-0.4,0-0.6,0c0,0.1,0,0.3,0,0.3
			c-0.4,0-0.9-0.1-1.2-0.3c0.2-1.1,0.3-2.2,0.5-3.2c0.2-1.1,0.4-2.3,0.7-3.4c0.3,0.3,0.7,0.4,1.1,0.5c0,0.2,0,0.4,0.1,0.5
			c0.2,0,0.3,0,0.5,0c0.2-0.3,0.3-0.5,0.3-0.9c0-0.1-0.1-0.2-0.2-0.3c-0.2,0-0.5,0-0.6,0.2c-0.1,0-0.2,0-0.3,0
			c-0.2-0.2-0.3-0.3-0.5-0.5c-0.1,0-0.3,0-0.4,0c0.1-0.5,0.3-0.9,0.4-1.4c0.6,0,1.2,0.1,1.8-0.2c0.4-0.3,0.7-0.6,0.8-1.1
			c0.1-0.3,0.2-0.6,0.4-0.8c0.6,0.1,0.5,0.8,0.4,1.3c-0.2,0.6-0.1,1.2-0.2,1.8c-0.2,1.2-0.3,2.5-0.4,3.7c-0.2,1.7-0.2,3.4-0.3,5.1
			c-0.2,1.8,0,3.7-0.2,5.5c-0.3,0.9-0.8,1.6-1.3,2.4c-1.1,1.5-2.8,2.7-4.6,3c-1.4,0.3-2.9,0.5-4.3,0.2c-1-0.2-1.9-0.6-2.8-1.1
			c-0.6-0.3-1.2-0.7-1.6-1.2c-0.5-0.8-1-1.7-1.2-2.7c-0.2-0.7-0.4-1.3-0.4-2c0.3-1.3,0.7-2.5,1-3.7c0.7-2.5,1.2-5.1,1.8-7.7
			C37.8,293.1,37.9,291.7,38.1,290.3z"/>
		<path class="st4" d="M38.9,289.3c0.3,0.5,0.7,0.9,1.2,1.1c0.2,0,0.3-0.1,0.4-0.2c-0.1,0.3-0.1,0.6-0.2,0.9c-0.5-0.1-1-0.3-1.3-0.7
			C38.9,290.1,39,289.7,38.9,289.3z"/>
		<path class="st4" d="M48.7,290.5c0.8,0.4,1.8,0.7,2.6,0.2c-0.1,0.5-0.5,0.8-0.8,1.1c-0.6,0.3-1.2,0.2-1.8,0.2
			C48.8,291.5,48.8,291,48.7,290.5z"/>
		<path class="st8" d="M38.2,292c0.2-0.1,0.3-0.3,0.5-0.4c0.1,0.1,0.2,0.2,0.4,0.2c0,0.2,0.1,0.5,0.2,0.7c-0.1,0.1-0.2,0.2-0.3,0.4
			c-0.2,0-0.4,0-0.6,0C38.2,292.6,38.2,292.3,38.2,292z"/>
		<path class="st5" d="M40.3,292c0.8-0.1,1.7-0.2,2.5-0.1c1.3,0.1,2.6,0.3,3.9,0.7c0.6,0.2,1.2,0.4,1.6,0.9c0,0,0,0.1,0,0.1
			c-0.6,0.2-1.1-0.1-1.7-0.2c-1.1-0.4-2.3-0.5-3.5-0.6c-0.9-0.1-1.9,0-2.8-0.1c0-0.1-0.1-0.2-0.1-0.3
			C40.1,292.1,40.2,292.1,40.3,292z"/>
		<path class="st3" d="M40.2,292.5c0.9,0.1,1.9,0,2.8,0.1c1.2,0.1,2.4,0.3,3.5,0.6c0.5,0.1,1.1,0.5,1.7,0.2c0,0,0,0.1,0,0.2
			c-0.3,1.1-0.5,2.3-0.7,3.4c-0.2,1.1-0.3,2.2-0.5,3.2c0,0.1,0,0.3-0.1,0.4c0,0.7,0,1.4,0,2.2c0,0.1,0,0.3,0,0.4c0,0.5,0,1-0.2,1.5
			c-0.5,0.7-1.4,1.1-2.2,1.5c-1.6,0.5-3.4-0.2-4.5-1.4c-0.3-0.4-0.7-0.9-0.7-1.5c0.1-0.6,0.4-1.1,0.5-1.7l0-0.1
			c1.2,0.3,2.4,0.3,3.6,0.6c0.9,0.2,1.7,0.4,2.6,0.7c0.2,0.1,0.5,0.1,0.7,0.1c0-0.2,0.1-0.5-0.2-0.6c-1.1-0.4-2.2-0.7-3.3-1
			c-1.1-0.2-2.1-0.5-3.2-0.4c0.2-0.5,0.2-1.1,0.3-1.6c1.5,0.2,3,0.2,4.5,0.6c0.7,0.2,1.4,0.4,2.1,0.4c0-0.2,0-0.4-0.2-0.5
			c-0.6-0.3-1.3-0.5-2-0.7c-1.4-0.3-2.9-0.6-4.3-0.4c0.1-0.6,0-1.3,0-1.9c1,0.1,1.9,0.1,2.9,0.3c1,0.2,2.1,0.4,3,0.8
			c0.3,0.1,0.6,0.2,0.8,0c0.1-0.2-0.1-0.4-0.3-0.5c-0.9-0.4-1.8-0.6-2.8-0.8c-0.7-0.2-1.5-0.2-2.3-0.3c-0.5,0-1-0.1-1.5,0.1
			c0-0.7-0.1-1.3-0.1-2c1.7-0.2,3.5,0,5.2,0.4c0.6,0.1,1.2,0.4,1.9,0.5c0.3,0,0.4-0.4,0.2-0.5c-0.4-0.3-1-0.4-1.5-0.6
			c-1.9-0.6-3.9-0.9-5.8-0.4C40.2,293.6,40.2,293.1,40.2,292.5z"/>
		<path class="st8" d="M48.2,293.4c0.1,0,0.3,0,0.4,0c0.2,0.1,0.3,0.3,0.5,0.5c0.1,0,0.2,0,0.3,0c0.2-0.2,0.4-0.2,0.6-0.2
			c0,0.1,0.1,0.2,0.2,0.3c0,0.3-0.1,0.6-0.3,0.9c-0.2,0-0.3,0-0.5,0c-0.2-0.1-0.1-0.3-0.1-0.5c-0.4-0.1-0.8-0.2-1.1-0.5
			c0,0,0-0.1,0-0.2C48.2,293.5,48.2,293.4,48.2,293.4z"/>
		<path class="st8" d="M38.4,293.6c0.2,0,0.4,0,0.6,0.1c0,0.2,0,0.4,0,0.6c0.4,0,0.8,0,1.2,0c0,0.1,0,0.3,0,0.4
			c-0.3,0.1-0.7,0-1,0.1c-0.3,0.1-0.5,0.1-0.8,0.1c-0.1-0.1-0.2-0.2-0.3-0.4C38.1,294.2,38.2,293.9,38.4,293.6z"/>
		<path class="st5" d="M40.2,294.1c1.9-0.5,3.9-0.1,5.8,0.4c0.5,0.2,1,0.3,1.5,0.6c0.2,0.2,0.1,0.6-0.2,0.5
			c-0.6-0.1-1.2-0.4-1.9-0.5c-1.7-0.4-3.4-0.6-5.2-0.4c0,0,0,0,0-0.1c0-0.1,0-0.3,0-0.4C40.2,294.3,40.2,294.2,40.2,294.1z"/>
		<path class="st8" d="M49,295.4c0.2,0,0.5-0.1,0.6,0.1c0,0.2,0,0.5,0,0.7c-0.1,0.1-0.2,0.2-0.4,0.4c-0.3,0-0.5-0.2-0.6-0.4
			c0-0.2,0-0.3,0-0.5C48.8,295.7,48.9,295.5,49,295.4z"/>
		<path class="st8" d="M37.9,296.2c0.2,0,0.4,0,0.6,0c0.2,0.2,0.1,0.5,0.1,0.8c0.5,0,1-0.2,1.5-0.2c0,0.1,0,0.3,0,0.4
			c-0.5,0-1.1,0.3-1.6,0.1c-0.3,0-0.5,0-0.8-0.1C37.7,296.9,37.8,296.5,37.9,296.2z"/>
		<path class="st5" d="M40.3,296.7c0.5-0.2,1-0.2,1.5-0.1c0.8,0.1,1.5,0.1,2.3,0.3c0.9,0.2,1.9,0.4,2.8,0.8c0.2,0.1,0.4,0.3,0.3,0.5
			c-0.2,0.2-0.6,0-0.8,0c-1-0.4-2-0.6-3-0.8c-1-0.2-1.9-0.2-2.9-0.3c0,0-0.1,0-0.1,0c0-0.1,0-0.3,0-0.4L40.3,296.7z"/>
		<path class="st8" d="M48.2,298.4c0.1-0.3,0.3-0.7,0.7-0.6c0.1,0.1,0.2,0.2,0.3,0.3c0.1,0.3-0.1,0.6-0.3,0.9c-0.2,0-0.4,0-0.6,0
			c0-0.1-0.1-0.2-0.2-0.2C48.2,298.7,48.2,298.5,48.2,298.4z"/>
		<path class="st8" d="M37.9,298.5c0.2,0,0.3,0,0.5,0c0.2,0.2,0.1,0.4,0.1,0.7c0.5,0,1-0.2,1.5-0.1c0,0.1,0.1,0.2,0.1,0.3
			c0,0,0,0.1,0,0.2c-0.8,0.1-1.5-0.1-2.3,0.1c-0.2-0.2-0.3-0.5-0.3-0.7C37.7,298.7,37.8,298.6,37.9,298.5z"/>
		<path class="st5" d="M40.3,299c1.4-0.2,2.9,0.1,4.3,0.4c0.7,0.2,1.3,0.4,2,0.7c0.2,0.1,0.2,0.3,0.2,0.5c-0.7,0.1-1.4-0.2-2.1-0.4
			c-1.5-0.4-3-0.5-4.5-0.6c0,0,0-0.1,0-0.2c0,0,0-0.1,0-0.2C40.2,299.2,40.3,299.1,40.3,299z"/>
		<path class="st8" d="M48.2,300.3c0.2,0,0.4,0,0.6,0c0.1,0.2,0.2,0.5,0.1,0.7c-0.1,0.2-0.3,0.4-0.5,0.5c-0.1-0.1-0.3-0.3-0.4-0.4
			c-0.2,0-0.4,0-0.6,0c-0.2-0.1-0.4-0.3-0.5-0.4c0-0.1,0-0.3,0.1-0.4c0.4,0.2,0.8,0.4,1.2,0.3C48.2,300.6,48.2,300.4,48.2,300.3z"/>
		<path class="st8" d="M37.9,300.6c0.2,0,0.4,0,0.7,0c0,0.2,0.1,0.4,0.1,0.7c0.4,0,0.9,0,1.3,0c0,0.1-0.1,0.4-0.1,0.4
			c-0.3,0-0.5,0-0.8,0c-0.3,0-0.5-0.2-0.8-0.1c-0.2,0.1-0.4,0.1-0.6,0C37.6,301.3,37.6,300.9,37.9,300.6z"/>
		<path class="st5" d="M40,301.2c1.1-0.1,2.2,0.2,3.2,0.4c1.1,0.3,2.2,0.6,3.3,1c0.3,0.1,0.2,0.4,0.2,0.6c-0.2,0-0.5,0-0.7-0.1
			c-0.8-0.3-1.7-0.5-2.6-0.7c-1.2-0.3-2.4-0.3-3.6-0.6c0-0.1,0.1-0.3,0.1-0.3C39.9,301.3,40,301.2,40,301.2z"/>
		<path class="st4" d="M81.7,306.9c-0.1-1.3,0.1-2.6,0.7-3.7c0.3-0.6,0.9-0.9,1.4-1.3c-0.5,0.1-1,0.2-1.4,0.5
			c-0.5,0.4-1.2,0.6-1.6,1.2c-0.5,0.8-0.7,1.7-0.8,2.6c0,0.4-0.5,0.5-0.8,0.3c-0.9-0.5-1.8-0.9-2.5-1.7c-0.4-0.5-0.9-1-1.2-1.7
			c-0.1-0.3-0.2-0.6-0.6-0.7c0.2,0.7-0.1,1.5,0.4,2.1c0.6,0.8,1.4,1.4,2.1,2.1c0.7,0.6,1.2,1.5,2.1,1.9c0.4,0.3,0.9,0.1,1.3,0.1
			c0.3,0,0.6-0.1,0.8-0.1C81.7,307.9,81.7,307.4,81.7,306.9C81.8,306.9,81.8,306.9,81.7,306.9z"/>
		<path class="st5" d="M94.1,312.7c0-0.1-0.1-0.2-0.2-0.3c-1.1,0.1-2.2,0.2-3.3,0.5c-0.3-0.4-0.7-0.7-1-1.2c1.1-0.4,2.2-0.3,3.3-0.5
			c0.1-0.2-0.1-0.4-0.3-0.4c-1.2-0.1-2.3,0.1-3.4,0.5c-0.3-0.3-0.6-0.6-0.9-0.9c1.2-0.4,2.4-0.6,3.6-0.8c0-0.1-0.1-0.2-0.1-0.3
			c-1.2-0.1-2.4,0.1-3.5,0.5c-0.2,0.1-0.4,0.2-0.5,0c-0.4-0.4-0.9-0.8-1.3-1.2c1.4-0.5,2.8-0.7,4.3-0.9c0-0.1,0-0.2,0-0.3
			c-1.1-0.3-2.3,0.1-3.3,0.4c-0.5,0.1-0.9,0.5-1.5,0.5c-0.5-0.3-1-0.6-1.6-0.9c1.3-0.7,2.7-0.9,4.2-1.1c0.5-0.1,1,0,1.4-0.3
			c-0.2-0.2-0.4-0.4-0.7-0.3c-1.5,0.1-3,0.4-4.4,1.1c-0.4,0.2-0.7,0.5-1.2,0.4c-0.6-0.2-1.3-0.3-1.9-0.4c-0.1,0.5-0.2,1-0.2,1.5
			c0.4-0.1,0.8-0.1,1.1-0.1c0.1,0,0.2,0,0.3,0c0.4,0,0.8,0.1,1.3,0.2c0.4,0.1,0.8,0.2,1,0.6c0.2,0,0.3,0,0.4,0.1
			c0.5,0.5,1,0.9,1.4,1.5c0,0,0,0,0,0c0.5,0.4,0.8,1,1.3,1.4c0,0,0,0,0,0c0.5,0.4,1.4,1.3,1.4,1.3c0.5,0.4,1,0.8,1.5,1.1
			c-0.2-0.4-0.4-0.7-0.6-1.1c0.8-0.2,1.7-0.4,2.5-0.5C93.6,313,93.9,312.9,94.1,312.7z"/>
		<path class="st7" d="M73.9,303.2c0.2-0.4,0.5-0.9,1-0.8c0,0,0.1,0,0.1,0c0.2,0.7-0.1,1.5,0.4,2.1c0.6,0.8,1.4,1.4,2.1,2.1
			c0.7,0.6,1.2,1.5,2.1,1.9c0.4,0.3,0.9,0.1,1.3,0.1c0.7-0.1,1.3-0.2,2-0.2c-0.4,0.4-0.9,0.8-1.2,1.3c-0.1-0.1-0.3-0.3-0.4-0.3
			c-0.4-0.1-0.7,0.2-1,0.5c0,0.3,0.2,0.6,0.4,0.9c0.2,0,0.5,0,0.7,0c0.7-0.6,1-1.4,1.8-1.9c0-0.1,0-0.3,0-0.4c0.4,0,0.8,0.1,1.3,0.2
			c0.4,0.1,0.8,0.2,1,0.6c-0.7,0.4-1.5,0.9-1.9,1.5c-0.2,0-0.5,0-0.7-0.1c-0.3,0.1-0.5,0.3-0.7,0.6c-0.1,0.4,0.2,0.6,0.5,0.8
			c0.2,0,0.3,0,0.5,0c0.3-0.3,0.4-0.7,0.8-1c0.4-0.4,0.9-0.9,1.4-1.1c0.2-0.2,0.6-0.2,0.6-0.6c0.5,0.5,1,0.9,1.4,1.5
			c-0.5,0-1,0.3-1.4,0.6c-0.3,0.2-0.6,0.6-1,0.5c-0.1-0.1-0.2-0.2-0.3-0.3c-0.4,0-0.7,0.2-1,0.5c0,0.2,0,0.4,0,0.5
			c0.3,0.2,0.6,0.5,1,0.4c0.3-0.2,0.4-0.5,0.7-0.7c0.6-0.4,1.2-0.9,1.9-1.2c0-0.1,0-0.3,0-0.4c0.5,0.4,0.8,1,1.3,1.4
			c-0.2,0-0.4,0-0.6,0c-0.4,0.3-0.8,0.6-1.3,0.9c-0.2,0.1-0.3-0.1-0.5-0.2c-0.1,0-0.3,0-0.3,0c-0.3,0.2-0.7,0.4-0.6,0.9
			c0.2,0.3,0.5,0.6,0.8,0.5c0.3-0.2,0.5-0.5,0.8-0.6c0.6-0.2,1.1-0.7,1.6-0.9c0-0.1,0-0.3,0-0.4c0.5,0.4,0.9,0.9,1.4,1.3
			c-0.2,0.1-0.3,0.1-0.5,0.1c-0.4,0.3-0.8,0.6-1.3,0.8c-0.1-0.1-0.2-0.2-0.3-0.3c-0.2,0-0.3,0-0.5,0c-0.3,0.2-0.5,0.5-0.5,0.9
			c0.2,0.1,0.3,0.3,0.5,0.5c0.2,0,0.5,0.1,0.7-0.2c0.3-0.5,0.8-0.6,1.2-0.9c0.2-0.1,0.5-0.3,0.7-0.4c0-0.2,0-0.3,0-0.5
			c0.5,0.4,1,0.8,1.5,1.1c0.8,0.5,1.9,0.5,2.8,0c0.3-0.2,0.6-0.5,0.9-0.7c0.7,0.9,1.7,1.5,2.5,2.4c0.3,0.4,0.6,0.8,0.9,1.2
			c0.3,0.4,0.6,0.9,0.8,1.4c-0.6,0.6-1.3,1.1-2.1,1.5c-1.8,0.7-3.8,1.1-5.7,0.8c-0.9-0.2-1.7-0.3-2.6-0.7c-0.9-0.3-1.7-0.9-2.5-1.4
			c-0.8-0.6-1.6-1.2-2.4-1.8c-0.9-0.7-1.8-1.5-2.8-2c-0.7-0.4-1.4-0.6-2.1-0.9c-1.2-0.5-2.5-0.6-3.8-1.1c-1-0.3-1.9-0.9-2.6-1.7
			c0.1-1.3,0.4-2.5,0.6-3.8C73.5,306.3,73.3,304.7,73.9,303.2z"/>
		<path class="st8" d="M47.9,303.2c0.2-0.2,0.4-0.4,0.7-0.5c0.1,0.1,0.3,0.3,0.4,0.4c0.1,0.5-0.2,1-0.8,1c-0.1-0.2-0.2-0.3-0.3-0.5
			c-0.4,0-0.7-0.1-1-0.3c0-0.1,0-0.3,0-0.4C47.3,302.9,47.6,303,47.9,303.2z"/>
		<path class="st2" d="M34.5,308.7c-0.1-1,0-1.9,0.2-2.9c0,0.7,0.3,1.4,0.4,2c0.2,1,0.7,1.9,1.2,2.7c0.4,0.6,1,0.9,1.6,1.2
			c0.9,0.5,1.8,0.9,2.8,1.1c1.4,0.3,2.9,0.2,4.3-0.2c1.8-0.4,3.5-1.5,4.6-3c0.5-0.8,1-1.6,1.3-2.4c0,1.1-0.2,2.1-0.4,3.2
			c-0.3,1.1-0.6,2.2-1.2,3.1c-0.5,0.8-1.2,1.3-1.9,1.9c-0.5,0.4-1,0.8-1.6,1.1c-0.6,0.3-1.3,0.3-1.9,0.4c-1.7,0.2-3.5-0.2-5-0.9
			c-0.8-0.4-1.5-0.9-2.1-1.5c-0.8-0.8-1.3-1.8-1.7-2.8C34.9,310.7,34.5,309.7,34.5,308.7z"/>
		<path class="st9" d="M82.8,308.3c0.1,0,0.2,0,0.3,0c0,0.1,0,0.3,0,0.4c-0.7,0.5-1.1,1.3-1.8,1.9c-0.2,0-0.5,0-0.7,0
			c-0.2-0.2-0.4-0.5-0.4-0.9c0.3-0.2,0.6-0.5,1-0.5c0.2,0.1,0.3,0.2,0.4,0.3C81.9,309.1,82.4,308.7,82.8,308.3z"/>
		<path class="st9" d="M85.3,309.1c0.2,0,0.3,0,0.4,0.1c0,0.4-0.4,0.5-0.6,0.6c-0.5,0.3-1,0.7-1.4,1.1c-0.3,0.3-0.4,0.7-0.8,1
			c-0.2,0-0.3,0-0.5,0c-0.2-0.2-0.5-0.5-0.5-0.8c0.2-0.3,0.4-0.4,0.7-0.6c0.2,0.1,0.4,0.1,0.7,0.1C83.8,310,84.6,309.5,85.3,309.1z"
			/>
		<path class="st9" d="M85.7,311.3c0.4-0.3,0.9-0.6,1.4-0.6c0,0,0,0,0,0c0,0.1,0,0.3,0,0.4c-0.7,0.3-1.3,0.8-1.9,1.2
			c-0.3,0.2-0.4,0.6-0.7,0.7c-0.4,0.1-0.7-0.2-1-0.4c0-0.2,0-0.4,0-0.5c0.3-0.3,0.6-0.5,1-0.5c0.1,0.1,0.2,0.2,0.3,0.3
			C85.2,311.9,85.4,311.5,85.7,311.3z"/>
		<path class="st2" d="M72.6,314.9c-0.2-1.1-0.1-2.2,0-3.3c0.7,0.8,1.6,1.4,2.6,1.7c1.2,0.4,2.5,0.6,3.8,1.1
			c0.7,0.3,1.5,0.5,2.1,0.9c1,0.6,1.9,1.3,2.8,2c0.8,0.6,1.6,1.2,2.4,1.8c0.8,0.5,1.6,1.1,2.5,1.4c0.8,0.3,1.7,0.5,2.6,0.7
			c1.9,0.3,3.9-0.1,5.7-0.8c0.8-0.3,1.5-0.9,2.1-1.5c0.1,0.4,0.1,0.9,0,1.3c-0.2,0.5-0.7,0.8-1.1,1.1c-0.8,0.5-1.7,0.9-2.5,1.1
			c-1.7,0.3-3.4,0.6-5.1,0.6c-1.2,0-2.4-0.3-3.6-0.7c-1.8-0.5-3.4-1.4-5-2.3c-1.9-1.1-4-1.8-6.2-2.4c-0.9-0.3-1.8-0.7-2.6-1.3
			C72.8,315.9,72.7,315.4,72.6,314.9z"/>
		<path class="st9" d="M87.8,312.2c0.2,0,0.4,0,0.6,0c0,0,0,0,0,0c0,0.1,0,0.3,0,0.4c-0.5,0.3-1,0.7-1.6,0.9
			c-0.4,0.1-0.5,0.4-0.8,0.6c-0.4,0.1-0.7-0.2-0.8-0.5c-0.1-0.4,0.3-0.6,0.6-0.9c0.1,0,0.3,0,0.3,0c0.1,0.1,0.3,0.3,0.5,0.2
			C87,312.8,87.4,312.5,87.8,312.2z"/>
		<path class="st3" d="M94.1,312.7c0.3,0.4,0.6,0.8,1,1.2c-0.3,0.2-0.5,0.5-0.9,0.7c-0.9,0.5-1.9,0.4-2.8,0
			c-0.2-0.4-0.4-0.7-0.6-1.1c0.8-0.2,1.7-0.3,2.5-0.5C93.6,313,93.9,312.9,94.1,312.7z"/>
		<path class="st9" d="M89.4,313.6c0.2,0,0.3-0.1,0.5-0.1l0,0c0,0.2,0,0.3,0,0.5c-0.2,0.1-0.5,0.3-0.7,0.4c-0.4,0.3-1,0.4-1.2,0.9
			c-0.1,0.3-0.4,0.2-0.7,0.2c-0.2-0.2-0.3-0.3-0.5-0.5c-0.1-0.4,0.2-0.7,0.5-0.9c0.2,0,0.3,0,0.5,0c0.1,0.1,0.2,0.2,0.3,0.3
			C88.5,314.2,88.9,313.9,89.4,313.6z"/>
	</g>
	<g>
		<path class="st8" d="M87.6,5c1.6-0.9,3.4-1.8,5.3-1.9C93.6,3,94.3,3.3,95,3.4c1.1,0.4,1.9,1.4,2.9,2c0.6,0.4,1.3,0,1.9,0.3
			c0.6,0.2,1,0.7,1.2,1.3c0.5,1.4,0.8,2.9,0.2,4.3c-0.2,0.6-0.7,1.2-1.3,1.4c-1.8,0.2-3.6,0-5.4-0.3c-0.4-0.1-0.8,0.1-1,0.4
			c-0.7,0.6-1.3,1.3-2,2c-0.7,0.6-1.5,1.2-2.4,1.6c-1.5,0.8-3.3,0.6-4.9,0.9c-0.8,0.1-1.7,0.2-2.5,0.6c-0.2,0.1-0.2,0.3-0.2,0.5
			c-0.1,1-0.3,2-0.4,3c-0.2,0.9-0.5,1.8-0.8,2.7c-0.1,0.8,0.1,1.7,0.4,2.5c0.7,1.6,1.5,3.2,2.4,4.7c0.6,0.9,1.2,1.9,1.9,2.8
			c0.7,0.9,1.5,1.7,2.5,2.2c1,0.2,2-0.2,2.8-0.6c1.7-0.9,3.2-2.2,5-2.8c1.1-0.3,2.2-0.7,3.4-0.7c1,0,2.1,0,3,0.5
			c0.2,0.1,0.3,0.2,0.3,0.4c0.4,0.8,0.6,1.8,0.7,2.7c0,1.1,0.2,2.1,0.2,3.2c0,1.9,0.1,3.9-0.5,5.8c-0.4,1-0.6,2.1-1.3,2.9
			c-0.8,0.9-1.6,1.7-2.7,2.1c-1.8,0.6-3.7,0.9-5.5,0.9c-1.2,0-2.4-0.3-3.6-0.7c-1.7-0.7-3.4-1.6-4.6-3c-0.8-0.8-1.3-1.7-2.1-2.5
			c-0.8-0.9-1.3-2-1.9-3c-0.6-1-1-2.2-1.5-3.3c-0.3-1.2-0.7-2.4-0.9-3.6c0-0.1,0-0.2,0-0.2c-0.1-1.1-0.4-2.2-0.4-3.4
			c-0.1-2-0.2-4-0.2-5.9c0-0.4-0.3-0.6-0.6-0.8c-1.1-0.5-2.4-0.5-3.6,0c-0.8,0.3-1.4,1-1.7,1.8c-0.2,0.5-0.5,1-0.6,1.5
			c-0.8-0.2-1.4-0.7-1.7-1.4c-0.2-0.3-0.2-0.7-0.4-0.9c-0.5-0.4-1.1-0.4-1.7-0.6c-0.7-0.3-1.1-1.1-1.1-1.9c0-0.6,0.3-1.3-0.1-1.8
			C66,20.1,65.4,20,64.9,20c-0.6,0.1-1.3,0-1.8-0.3c-0.3-0.2-0.5-0.6-0.5-1c-0.2-1,0.4-2.1,1.3-2.5c1-0.6,2.3-0.5,3.2-1.2
			c0.8-0.6,1-1.6,1.2-2.4c0.3-1.2,1-2.4,2.1-3.1c1.1-0.7,2.5-0.4,3.7-0.7c1.1-0.3,2.1-1,2.8-1.9c0.9-1.1,2.2-1.9,3.6-2.1
			c1.1-0.2,2.2,0.1,3.3,0.4C85,5.6,86.5,5.6,87.6,5z"/>
		<path class="st10" d="M93.5,12.8c0.3-0.3,0.6-0.5,1-0.4c1.8,0.3,3.6,0.5,5.4,0.3c-0.2,0.2-0.4,0.3-0.6,0.4
			c-1.6,0.2-3.3,0.2-4.9-0.3c-0.6,0.6-1.2,1.2-1.8,1.9c-0.7,0.8-1.3,1.7-2,2.5c-1.2,1.1-2.7,1.8-4.3,1.9c-1.3,0.2-2.7-0.1-4-0.1
			c-0.3,0.8-0.6,1.6-1.2,2.2c0.2-1,0.3-2,0.4-3c0-0.2,0-0.4,0.2-0.5c0.8-0.3,1.6-0.5,2.5-0.6c1.6-0.2,3.4-0.1,4.9-0.9
			c0.9-0.4,1.7-0.9,2.4-1.6C92.2,14.1,92.8,13.4,93.5,12.8z"/>
		<path class="st11" d="M92.6,14.7c0.5-0.7,1.1-1.3,1.8-1.9c1.6,0.5,3.2,0.5,4.9,0.3c0.3,0,0.5-0.2,0.6-0.4c0.2,1,0.6,2.1,0.7,3.1
			c0.6,3,0.9,6.1,1,9.2c0,1.6,0.3,3.2,0.4,4.8c0,0.9,0,1.8-0.1,2.6c-0.9-0.5-2-0.4-3-0.5c-1.2,0-2.3,0.4-3.4,0.7
			c-1.9,0.5-3.4,1.8-5,2.8c-0.8,0.5-1.8,0.8-2.8,0.6c-1-0.5-1.9-1.3-2.5-2.2c-0.7-0.9-1.3-1.8-1.9-2.8c-0.9-1.5-1.7-3.1-2.4-4.7
			c-0.4-0.8-0.6-1.6-0.4-2.5c0.3-0.9,0.6-1.8,0.8-2.7c0.6-0.6,0.9-1.4,1.2-2.2c1.3,0,2.7,0.2,4,0.1c1.6-0.2,3.1-0.8,4.3-1.9
			C91.4,16.4,92,15.5,92.6,14.7z"/>
		<path class="st12" d="M73.5,24c1.1-0.5,2.5-0.5,3.6,0c0.3,0.2,0.7,0.4,0.6,0.8c-0.1,2,0,4,0.2,5.9c0,1.1,0.3,2.2,0.4,3.4
			c-1.2-0.2-2.6,0-3.7-0.7c-0.3-0.2-0.5-0.3-0.8-0.5c-0.6-0.4-1.1-1-1.5-1.6c-0.4-0.6-0.8-1.3-0.9-2c-0.1-0.7-0.1-1.3-0.1-2
			c0.1-0.5,0.3-1,0.6-1.5C72.1,25,72.7,24.3,73.5,24z"/>
		<path class="st10" d="M83.8,28.6c0.4,0.6,0.6,1.2,0.9,1.9c0.5,1.1,1.1,2.1,2,3c0.5,0.6,1.1,1,1.7,1.6c-0.8-0.2-1.4-0.6-2.1-1.1
			c-1.5-1.1-2.3-3-2.5-4.8C83.8,29,83.8,28.8,83.8,28.6z"/>
		<path class="st10" d="M73.7,32.9c0.3,0.2,0.5,0.3,0.8,0.5c1.1,0.7,2.5,0.5,3.7,0.7c0,0.1,0,0.2,0,0.2c-1,1.1-2.6,1.5-4,1.7
			c-0.3,0-0.7,0-1,0c0-0.1,0-0.3,0-0.4C73.4,34.7,73.6,33.8,73.7,32.9z"/>
		<path class="st11" d="M74.3,36c1.5-0.2,3-0.6,4-1.7c0.2,1.2,0.6,2.4,0.9,3.6c0,1,0.4,1.9,0.6,2.9c0.3,1,0.6,1.9,0.9,2.9
			c0.6,1.8,1.4,3.6,2.5,5.1c1.6,2.1,3.7,3.7,5.8,5.2c0.7,0.6,1.5,1,2.4,1.4c-3.7,1.7-7.8,2.4-11.8,2.4c-0.5,0-1,0-1.4,0
			c-1.3-0.1-2.6-0.1-3.9-0.3c-1.7-0.2-3.4-0.5-5-1.1c-1.6-0.5-3-1.4-4.4-2.3c-0.7-0.5-1.4-0.9-2.1-1.5c-0.2-0.2-0.3-0.3-0.4-0.6
			c0.1-0.1,0.2-0.2,0.3-0.2c1.7-0.7,3.3-1.8,4.9-2.8c1.1-0.7,2.2-1.5,3.1-2.4c0.5-0.6,1.1-1.2,1.4-2c0.4-1.3,0.6-2.6,0.7-4
			c0.2-1.6,0.2-3.3,0.4-4.9c0,0.1,0,0.3,0,0.4C73.6,36.1,74,36.1,74.3,36z"/>
		<path class="st11" d="M95.8,35.2c1.2-0.7,2.7-1.1,4-0.7c0.6,0.2,1.2,0.6,1.5,1.3c-0.5,0.1-1.1,0.1-1.7,0.1c-1,0-1.9,0.2-2.9,0.3
			c-0.8,0.1-1.5,0.5-2.3,0.3C94.8,35.9,95.3,35.5,95.8,35.2z"/>
		<path class="st10" d="M79.2,38c0.5,1.1,0.9,2.3,1.5,3.3c0.6,1,1.1,2.1,1.9,3c0.7,0.8,1.3,1.8,2.1,2.5c1.2,1.4,2.9,2.3,4.6,3
			c1.2,0.4,2.4,0.7,3.6,0.7c1.9,0,3.8-0.3,5.5-0.9c0,0.3,0.1,0.7-0.1,1c-0.7,1.1-1.7,1.9-2.7,2.6c-1.3,1-2.7,1.7-4.2,2.4
			c-0.8-0.4-1.6-0.8-2.4-1.4c-2.2-1.5-4.3-3.1-5.8-5.2c-1.1-1.6-1.9-3.3-2.5-5.1c-0.3-1-0.7-1.9-0.9-2.9C79.6,39.9,79.2,39,79.2,38z
			"/>
		<path class="st10" d="M11.7,101.1c1,0.2,2,0.4,3,0.6c2.4,0.3,4.8,0.8,7.2,0.9c1.6,0.2,3.2,0.2,4.7,0.3c2,0.2,4,0,6,0
			c0.9,0,1.8-0.1,2.6-0.2c-0.3,1.1-0.8,2.1-1.2,3.2c-0.5,1.1-0.8,2.2-1.4,3.3c-0.7,0-1.4,0-2.1-0.2c-1-0.2-2.1-0.5-3.1-0.7
			c-1.7-0.3-3.4-0.9-5.1-1.5c-1.5-0.5-2.9-0.9-4.3-1.6c-1.1-0.6-2.1-1.2-3.2-1.7c-1.1-0.5-2.2-1.2-3.1-2.1
			C11.7,101.4,11.7,101.3,11.7,101.1z"/>
		<path class="st11" d="M11.7,101.6c0.9,0.8,2,1.5,3.1,2.1c1.1,0.5,2.1,1.2,3.2,1.7c1.4,0.7,2.8,1.2,4.3,1.6
			c1.7,0.6,3.4,1.1,5.1,1.5c1,0.2,2.1,0.5,3.1,0.7c0.7,0.1,1.4,0.1,2.1,0.2c-0.9,2.3-1.9,4.6-2.9,7c-0.4,0.9-0.7,1.9-1,2.8
			c-0.2,0.6-0.5,1.2-0.6,1.9c-0.2,1-0.1,2,0,3c0,1.3,0.2,2.6,0.3,3.8c0.1,1.8,0.5,3.6,0.6,5.5c0.4,3.7,1.1,7.3,1.6,11
			c0.4,2.4,0.6,4.9,1.5,7.2c0.6,1.6,1.6,3.1,2.7,4.4c1,1.1,1.9,2.3,2.6,3.6c0.5,1.2,1.1,2.4,1.4,3.7c0.2,0.8,0.6,1.6,0.7,2.5
			c0.3,1.1,0.6,2.2,0.8,3.4c0.1,0.4,0.1,0.8,0.1,1.2c0,0.2-0.3,0.3-0.4,0.4c-0.8,0.3-1.7,0-2.2-0.7c-0.7-1-1.3-2.1-1.8-3.2
			c-0.8,0.3-1.6,0.5-2.3,0.8c-1.3,0.5-2.6,0.9-3.8,1.4c-1.6,0.7-3.3,1.3-4.9,2c-1.4-1.5-2.5-3.2-3.6-4.9c-1-1.7-1.7-3.6-2.7-5.3
			c-0.5-1.1-1.1-2.3-1.6-3.4c-1.6-3.7-3.2-7.4-4.5-11.3c-0.8-2.4-1.4-4.9-1.9-7.5c-0.3-1.5-0.4-3-0.6-4.4c-0.3-2.1-0.6-4.2-0.7-6.2
			c-0.1-2.1-0.4-4.3-0.4-6.4c0-1.4,0-2.8,0.1-4.1c0.2-1.8,0.5-3.6,0.7-5.4c0.3-2.3,0.7-4.6,1.2-6.9
			C11.4,103.9,11.6,102.7,11.7,101.6z"/>
		<path class="st10" d="M138.4,112.8c0.9-0.1,1.7-0.3,2.5-0.5c0,0.3,0.1,0.6,0.1,0.9c0,0.2,0,0.3,0,0.5c-0.8,0.3-1.6,0.6-2.4,0.9
			c-2.3,0.9-4.7,1.5-7.1,2.1c-1.9,0.5-3.7,1.1-5.6,1.3c-1.8,0.3-3.6,0.4-5.4,0.2c0-0.1,0-0.2,0-0.3c-0.2-1.5-0.2-2.9-0.2-4.4
			c0-0.2,0-0.4,0.1-0.6c2,0,4,0.6,6,0.5c1.4,0,2.8,0.2,4.2,0.1C133.2,113.5,135.8,113.2,138.4,112.8z"/>
		<path class="st11" d="M141,113.7c0-0.2,0-0.3,0-0.5c0.1,3-0.1,6.1,0.3,9.1c0.1,0.9,0.4,1.8,0.6,2.7c0.6,2.4,0.9,4.9,1.1,7.4
			c0.3,3,0.4,6,0.2,8.9c-0.2,2.6-0.5,5.2-0.8,7.8c-0.7,6-2.1,11.9-4.2,17.5c-0.4,1-0.8,2-1.1,3c-0.2,0.9-0.4,1.8-0.4,2.7
			c-0.6,0-1.1,0-1.7-0.1c-0.4-0.1-0.8-0.3-1.1-0.6c0.1-0.2,0.1-0.4,0.2-0.6c-0.8-0.3-1.7-0.2-2.6-0.3c-1.3-0.2-2.5-0.4-3.7-0.6
			c-1.2-0.2-2.3-0.6-3.4-1c0.3-1.1,0.6-2.2,0.6-3.4c0-1.3-0.2-2.7-0.3-4c-0.2-1.3-0.3-2.5-0.5-3.8c-0.6-2.7-0.8-5.5-1.1-8.2
			c-0.2-1.5-0.3-2.9-0.4-4.4c0-2.6,0-5.2,0-7.8c0-2.8,0-5.7-0.5-8.4c-0.1-0.9-0.4-1.7-0.6-2.5c-0.3-1.5-0.4-3.1-0.5-4.6
			c-0.1-1.4-0.4-2.7-0.4-4.1c0,0.1,0,0.2,0,0.3c1.8,0.2,3.6,0,5.4-0.2c1.9-0.3,3.8-0.8,5.6-1.3c2.4-0.6,4.8-1.2,7.1-2.1
			C139.4,114.2,140.2,113.9,141,113.7z"/>
		<path class="st10" d="M19,117.8c0.1-0.2,0.2-0.4,0.4-0.3c1.3-0.2,2.5,0.2,3.7,0.5c1.3,0.4,2.5,0.9,3.7,1.6c0,0.1,0,0.2,0,0.3
			c-0.8-0.3-1.6-0.8-2.5-1C22.6,118.2,20.8,117.7,19,117.8z"/>
		<path class="st10" d="M129.6,123.1c0.5-0.1,1-0.4,1.6-0.4c-0.5,0.5-1.2,0.6-1.8,0.9c-1,0.3-2.1,0.6-3.2,0.7c-0.5,0-0.9,0-1.4-0.2
			c0.6-0.3,1.2-0.1,1.9-0.3C127.6,123.6,128.6,123.3,129.6,123.1z"/>
		<path class="st10" d="M124.3,169.2c1.1,0.4,2.2,0.8,3.4,1c1.2,0.2,2.5,0.5,3.7,0.6c0.9,0.1,1.8,0,2.6,0.3
			c-0.1,0.2-0.1,0.4-0.2,0.6c0.4,0.2,0.7,0.4,1.1,0.6c0.6,0.1,1.1,0.1,1.7,0.1c0,0.2,0,0.5-0.1,0.7c-1,0.1-2.1,0.1-3-0.5
			c-0.5-0.3-0.8-1-1.5-1c-2-0.1-4-0.4-5.9-1c-0.7-0.2-1.4-0.4-2.2-0.6C124.2,169.7,124.2,169.4,124.3,169.2z"/>
		<path class="st11" d="M122.8,173.9c0.5-1.3,1-2.6,1.3-4c0.7,0.2,1.5,0.4,2.2,0.6c1.9,0.6,3.9,1,5.9,1c0.7,0,1,0.7,1.5,1
			c0.9,0.6,2,0.6,3,0.5c-0.1,1.3-0.3,2.6-0.5,3.9c-0.2,1.1-0.4,2.3-0.7,3.4c-0.8,2.7-2.2,5.3-4.2,7.3c-1,0.9-2.1,1.7-3.2,2.4
			c-0.8,0.3-1.8,0.6-2.7,0.5c-0.2,0-0.4-0.2-0.5-0.3c-0.5,0.1-1.1,0.2-1.6,0.2c-0.2-0.2-0.5-0.5-0.4-0.8c0.1-0.8,0.5-1.5,0.9-2.1
			c0.7-1,1.4-2.1,1.8-3.3c0.2-0.7,0.2-1.4,0-2c-0.2-1.2-0.7-2.3-0.8-3.5c-0.4,0.9-0.8,1.8-1.1,2.8c-0.3,0.9-0.5,2-1.2,2.7
			c-0.5,0.5-1.3,0.6-1.9,0.3c-0.4-0.1-0.2-0.6-0.2-0.9c0-1.5,0.2-3,0.5-4.4C121.3,177.3,122.1,175.6,122.8,173.9z"/>
	</g>
	<g>
		<path class="st13" d="M92,3.9c1.4-0.2,2.8,0.2,4,0.9c1.3,0.8,2.5,1.8,3.4,3c0.6,0.9,1,1.9,1,3c0,0.5,0,1-0.1,1.4
			c-0.1,0-0.2,0-0.3,0c0.1-0.7,0.1-1.4,0-2.1c-0.3-1.5-1.2-2.7-2.4-3.7c-0.7-0.6-1.5-1.2-2.3-1.6C94.3,4.2,93.1,4,92,3.9z"/>
		<path class="st14" d="M89.4,4.8c0.7-0.4,1.5-0.5,2.3-0.5c1.5,0,3,0.4,4.2,1.2c0.8,0.6,1.6,1.4,2.1,2.2c0.7,0.9,1,2,1.2,3.1
			c0,0.6,0.1,1.3-0.2,1.8c-0.2-0.7-0.1-1.4-0.3-2.1c-0.2-0.9-0.5-1.8-1-2.5c-0.9-1.4-2.1-2.5-3.6-3.1c-1.4-0.5-2.9-0.6-4.4-0.3
			C89.7,4.8,89.5,4.8,89.4,4.8z"/>
		<path class="st14" d="M87.9,5.7c0.8-0.4,1.6-0.5,2.4-0.6c0.9-0.1,1.8-0.1,2.7,0.2c1.2,0.4,2.2,1,3.1,1.8c0.6,0.6,1.1,1.4,1.4,2.2
			c0.4,0.9,0.6,1.9,0.2,2.9c-0.1,0.1-0.2,0.5-0.4,0.4c0.1-0.5,0.3-1,0.2-1.5c0-0.8-0.4-1.6-0.8-2.3c-0.3-0.6-0.8-1.2-1.3-1.7
			c-1.1-0.9-2.4-1.6-3.8-1.7c-1.1-0.1-2.2,0-3.3,0.2C88.3,5.7,88.1,5.7,87.9,5.7z"/>
		<path class="st14" d="M77.8,7c1-0.9,2.4-1.3,3.7-1.2c0.5,0.1,1,0.1,1.5,0.4c-1.3-0.1-2.7-0.2-3.9,0.4c-0.8,0.3-1.3,1.1-2.1,1.2
			C77.2,7.5,77.5,7.3,77.8,7z"/>
		<path class="st15" d="M87.1,6.4c1.6-0.5,3.3-0.7,5-0.3c1.1,0.3,2.3,0.8,3.1,1.7c1.1,1.2,1.6,2.9,1.2,4.5c-0.1,0-0.2,0-0.2,0
			c0.1-1.3-0.1-2.6-0.8-3.7c-0.5-0.8-1.2-1.5-2.1-1.8c-1.6-0.8-3.6-0.8-5.3-0.4c-1.4,0.3-2.6,1-3.8,1.8c-0.6,0.4-1.2,0.9-1.9,1.2
			c-0.6,0.3-1.2,0.5-1.9,0.5c-0.8,0.1-1.5-0.1-2.3-0.1c-2.7,0.2-5.2,2-6.1,4.6c-0.3,0.9-0.9,1.7-1.8,2.2c-1.5,0.7-3.3,0.1-4.9,0.7
			c-0.6,0.2-1,0.6-1.6,0.9c0.3-0.5,0.9-0.7,1.4-1c0.6-0.3,1.2-0.4,1.9-0.4c0.8-0.1,1.7,0.1,2.5-0.2c1.1-0.2,1.9-1.2,2.3-2.2
			c0.5-1.1,1.2-2.1,2.1-2.9c1.4-1.3,3.3-2,5.1-1.8c1.1,0.1,2.4,0.1,3.4-0.5C83.9,8.1,85.3,6.9,87.1,6.4z"/>
		<path class="st16" d="M86,6.3c0.2-0.1,0.4-0.1,0.6-0.2c0,0,0,0.1,0,0.1c-0.3,0.1-0.5,0.2-0.8,0.3c-1.3,0.6-2.5,1.3-3.8,1.9
			c-0.8,0.3-1.7,0.6-2.6,0.7c-1.2,0.1-2.4,0-3.5,0.4c-1.6,0.5-3.2,1.5-4,3.1c-0.6,1.1-1.3,2.3-2.4,3c-0.9,0.5-2,0.3-3,0.6
			c-0.6,0.1-1.2,0.4-1.8,0.5c0.1-0.1,0.2-0.1,0.4-0.2c0.7-0.4,1.4-0.6,2.2-0.7c0.7-0.1,1.4,0,2.1-0.4c1.1-0.7,1.8-1.8,2.5-2.9
			c0.7-1.3,1.9-2.4,3.4-2.9c1.2-0.5,2.6-0.6,3.9-0.7c0.9,0,1.8-0.3,2.6-0.6C83.1,7.6,84.5,6.7,86,6.3z"/>
		<path class="st17" d="M80,7.7c1.6-0.1,2.9-1.1,4.4-1.5c0.1,0,0.2,0,0.3,0c-1.2,0.6-2.3,1.3-3.6,1.6c-0.9,0.2-1.9,0.1-2.8,0.3
			c-0.6,0.1-1.2,0.3-1.8,0.4C77.4,7.8,78.8,7.7,80,7.7z"/>
		<path class="st16" d="M99.1,6.3c1,0.5,1.6,1.5,1.9,2.5c0.3,0.8,0.2,1.7-0.1,2.5c0.1-1.4-0.2-3-1.1-4.1C99.7,6.8,99.2,6.6,99.1,6.3
			z"/>
		<path class="st16" d="M84.7,8.4C86,7.1,88,6.5,89.8,6.7c1.6,0.1,3.2,0.7,4.5,1.7c1.2,0.9,1.5,2.6,1.1,4l-0.2,0.1
			c0.1-0.8,0.2-1.7-0.2-2.5c-0.3-1-1.2-1.6-2.1-2.1c-1.7-0.9-3.7-1.2-5.6-0.7c-1.1,0.3-2.1,0.8-2.8,1.7c-0.9,0.9-1.8,2-3.1,2.3
			c-1.6,0.3-3.2-0.5-4.7-0.2c-1.6,0.4-3,1.5-3.6,3.1c-0.3,0.8-0.5,1.7-1.1,2.4c0-0.1,0-0.2,0-0.3c0-0.2,0.2-0.3,0.2-0.5
			c0.4-0.8,0.5-1.6,0.9-2.4c0.7-1.3,2.1-2.3,3.5-2.6c1.6-0.3,3.1,0.5,4.6,0.3C82.8,10.5,83.7,9.3,84.7,8.4z"/>
		<path class="st17" d="M87.1,8.7c1.1-0.6,2.5-0.7,3.7-0.4c1.2,0.3,2.1,1.1,2.8,2.1c0.3,0.4,0.4,0.9,0.6,1.3c0,0,0.1,0.1,0.1,0.2
			c-0.5-0.2-0.6-0.8-0.9-1.3c-0.6-0.9-1.5-1.7-2.5-2c-1.3-0.3-2.8-0.2-4,0.5c-1.1,0.6-1.9,1.6-2.9,2.2c-1,0.6-2.2,0.9-3.3,0.7
			c-1.5-0.2-3-0.4-4.4,0.2c-1.1,0.5-1.6,1.6-2.2,2.6c-0.4,0.8-0.9,1.5-1.5,2.2c-0.4,0.5-0.9,0.9-1.4,1.2c-0.8,0.5-1.7,0.6-2.6,0.9
			c-0.7,0.2-1.4,0.2-2.2,0.1c-0.5-0.1-1,0.2-1.4,0.3c0.2-0.4,0.5-0.5,0.9-0.6c0.6-0.1,1.2,0.1,1.8,0.1c0.6,0,1.2-0.2,1.8-0.4
			c1.1-0.3,2.2-0.7,2.9-1.6c1.3-1.3,1.7-3.2,2.9-4.5c0.7-0.8,1.9-1,2.9-1c1,0,2,0.2,3.1,0.3c0.8,0,1.6-0.3,2.3-0.6
			C84.8,10.6,85.8,9.4,87.1,8.7z"/>
		<path class="st13" d="M71.5,9.9c0.6-0.2,1.3-0.3,1.9-0.4c0,0,0,0.1,0,0.2c-1.3,0.4-2.8,0.8-3.6,2c-0.6,0.8-0.7,2-1.6,2.6
			c0.1-0.3,0.3-0.6,0.4-0.9c0.3-0.6,0.4-1.2,0.8-1.7C70,10.9,70.7,10.2,71.5,9.9z"/>
		<path class="st18" d="M85.4,11.7c0.8-0.8,1.8-1.5,3-1.7c0.9-0.1,1.8,0.1,2.5,0.5c1,0.5,1.9,1.3,3.1,1.6c0,0.1,0,0.2,0,0.2
			c-1.5-0.3-2.6-1.6-4.1-1.9c-0.7-0.2-1.5-0.2-2.2,0.1c-1.2,0.5-2,1.7-3.1,2.2c-1.1,0.6-2.5,1-3.8,0.5c-1.2-0.4-2.6-0.6-3.8-0.1
			c-0.9,0.3-1.6,1.1-2.1,2c-0.5,0.8-0.9,1.8-1.6,2.5c-0.7,0.7-1.6,1.3-2.6,1.6c-0.6,0.2-1.2,0.3-1.8,0.4c-0.1,0-0.3-0.1-0.4-0.1
			c0.8-0.2,1.5-0.4,2.3-0.6c0.9-0.3,1.7-0.8,2.4-1.5c0.6-0.6,0.9-1.5,1.3-2.3c0.4-0.8,1-1.6,1.8-2.1c1-0.5,2.1-0.7,3.2-0.5
			c0.8,0.1,1.6,0.4,2.4,0.5C83.1,13.2,84.5,12.7,85.4,11.7z"/>
		<path class="st15" d="M71.4,11.4c0.3-0.3,0.6-0.6,1.1-0.8c-0.5,0.6-1.1,1.1-1.6,1.7c-0.6,0.8-1.1,1.7-1.9,2.3
			c-0.3,0.2-0.7,0.4-1.1,0.4c0.9-0.4,1.7-1.2,2.2-2.1C70.4,12.5,70.8,11.9,71.4,11.4z"/>
		<path class="st14" d="M85.4,13.1c1.5-0.7,3-1.5,4.7-1.5c0,0.1,0,0.2,0,0.2c-0.7,0.1-1.3,0.2-2,0.4c-0.8,0.3-1.5,0.7-2.3,1
			c-1.1,0.5-2.2,0.9-3.4,1.2c-0.9,0.3-1.9,0.3-2.8,0.7c-1,0.4-2.1,0.9-2.9,1.7c-1.4,1.2-2.4,2.8-3.9,3.9c-1.3,0.9-3,1.2-4.6,1.1
			c-0.2,0-0.4-0.1-0.6-0.2c0.4-0.2,0.8-0.2,1.2-0.2c1.3-0.1,2.8-0.3,3.9-1.1c0.8-0.6,1.5-1.4,2.1-2.1c0.8-1,1.7-1.8,2.8-2.5
			c1-0.6,2.1-1,3.2-1.3C82.4,14.2,84,13.8,85.4,13.1z"/>
		<path class="st14" d="M89.9,13.1c0.6-0.3,1.2-0.8,2-0.8c-0.5,0.3-1.1,0.5-1.6,0.9c-1,0.6-2,1.2-3.2,1.4c-1.2,0.2-2.4,0.2-3.5,0.2
			c-1.9,0.2-3.8,1-5.3,2.4c-0.8,0.8-1.5,1.7-2.3,2.4c-1.1,1-2.2,2.2-3.7,2.8C70.8,23,69.3,23,67.8,23c-0.2,0-0.4-0.1-0.6-0.2
			c1.4-0.2,2.8,0,4.1-0.4c0.9-0.3,1.7-0.6,2.5-1.2c0.9-0.7,1.7-1.5,2.5-2.3c0.8-0.9,1.6-1.9,2.6-2.5c1.1-0.9,2.5-1.5,3.9-1.7
			c1.5-0.3,3-0.1,4.4-0.4C88.1,14,89,13.6,89.9,13.1z"/>
		<path class="st19" d="M91.8,13c0.2-0.2,0.4-0.5,0.8-0.5c-0.4,0.8-1.2,1.4-1.9,1.9c-0.8,0.4-1.5,0.9-2.4,1.1
			c-1.5,0.4-3.1,0.2-4.6,0.5c-1.5,0.2-2.9,0.9-4.1,1.8c-1.6,1.2-2.8,2.9-4.4,4.1c-1.2,1-2.6,1.7-4.2,1.9c-1.2,0.2-2.4,0.2-3.6-0.1
			c0.2-0.2,0.6-0.1,0.9-0.1c1.8,0.2,3.6-0.1,5.2-1c1-0.5,1.8-1.2,2.6-2c0.7-0.7,1.3-1.4,2-2.1c1.1-1.1,2.5-1.9,3.9-2.4
			c1.3-0.5,2.8-0.6,4.2-0.5c1,0,2,0,2.9-0.5C90.2,14.4,91,13.7,91.8,13z"/>
		<path class="st20" d="M78.2,14c0.6-0.1,1.2-0.1,1.8-0.1c-0.3,0.2-0.6,0.2-0.9,0.3c-0.7,0.1-1.3,0.3-1.9,0.7
			c-0.7,0.4-1.2,1-1.6,1.7c-0.6,0.8-1.3,1.4-2,2.1c-1.2,1.1-2.7,2-4.3,2.3c-0.6,0.1-1.3,0.2-1.9,0c0.3-0.1,0.6-0.2,0.9-0.2
			c1.6-0.2,3.2-0.7,4.5-1.7c1-0.8,1.9-1.6,2.6-2.7C76,15.3,76.9,14.3,78.2,14z"/>
		<path class="st21" d="M71,17.2c0.4-0.3,0.7-0.7,1-1.1c0,0.1,0,0.2,0,0.3c-0.4,0.6-1,1-1.6,1.3c-1,0.4-2.2,0.6-3.3,0.5
			c-0.7,0-1.4-0.1-2.1,0.2c-0.4,0.1-0.7,0.4-1.1,0.5c0.4-0.6,1.2-0.9,1.9-0.9c0.8-0.1,1.6,0.1,2.4,0C69.3,17.9,70.2,17.7,71,17.2z"
			/>
		<path class="st14" d="M80.2,18.3c0.5-0.2,0.9-0.5,1.5-0.6c-0.8,0.6-1.7,1-2.5,1.7c-1,0.9-1.6,2.2-2.7,2.9c-0.6,0.2-1,0.8-1.6,0.8
			c0.4-0.3,0.9-0.6,1.4-0.9c0.3-0.1,0.5-0.4,0.7-0.6c0.3-0.4,0.6-0.8,0.9-1.2C78.4,19.5,79.3,18.8,80.2,18.3z"/>
		<path class="st22" d="M67.4,20c0.3,0,0.6-0.2,1-0.2c0.1,0,0.3,0.1,0.4,0.1c-0.7,0.1-1.3,0.4-2,0.4c-0.2,0-0.3-0.1-0.5-0.2
			C66.7,19.9,67.1,20,67.4,20z"/>
		<path class="st8" d="M89.5,22.3c1.6-0.7,3.4-0.9,5.1-0.4c0.6,0.1,1.4,0.3,1.6,0.9c0.1,0.2-0.1,0.4-0.2,0.6
			c-0.7-0.5-1.6-0.8-2.5-0.9c-0.3-0.1-0.7-0.1-1,0c-1.1,0.1-2.1,0.2-3.1,0.6c-0.4,0.1-0.7,0.1-1.1,0C88.7,22.7,89.1,22.5,89.5,22.3z
			"/>
		<path class="st23" d="M100.3,23.3c-0.2-0.7,0.4-1.4,1.1-1.5c0.1,0.2,0.1,0.3,0.1,0.5c-0.4,0.2-0.8,0.5-1.1,0.8L100.3,23.3z"/>
		<path class="st24" d="M92.6,22.5c0.3-0.1,0.7-0.1,1,0C93.3,22.5,92.9,22.5,92.6,22.5z"/>
		<path class="st14" d="M100.4,23.2c0.3-0.3,0.7-0.7,1.1-0.8c0.5-0.1,1,0.1,1.4,0.3c-0.7-0.1-1.6-0.1-2.1,0.5
			c-0.3,0.6-0.2,1.4-0.2,2.1c0.1,0.9,0.1,1.8,0.5,2.5c0.4,0.6,0.9,1.3,1.6,1.5c-0.5,0.1-1-0.1-1.3-0.5c-0.9-1-1.3-2.3-1.3-3.7
			c-0.4,0-0.8,0-1.1,0c-0.3,0-0.6,0.1-0.9,0.1c-0.4,0.1-0.8,0.1-1.2,0.2c-0.2,1.2-0.4,2.5-1.2,3.5c-0.6,0.8-1.5,1.4-2.5,1.4
			c-1.1,0.1-2.3-0.2-3.3-0.7c-0.6-0.3-1-0.9-1.4-1.5c-0.3-0.4-0.4-0.8-0.5-1.2c-0.1-0.7-0.2-1.4-0.1-2.1c-0.5-0.1-1-0.2-1.5-0.3
			c-1.6-0.3-3.2-0.6-4.8-0.7c0-0.1,0-0.1,0-0.2c0.2,0,0.4,0,0.6,0.1c0.7,0.1,1.4,0.2,2.1,0.2c-1-0.1-1.9-0.4-2.9-0.3
			c0,0-0.1,0.1-0.2,0.2c-1.6-0.1-3.2-0.2-4.9-0.1c-0.2,0-0.4-0.1-0.6-0.2c0.2-0.4,0.7-0.5,1.1-0.5c0.8,0,1.6,0,2.4,0.1
			c1.7,0.2,3.4,0.3,5.1,0.6c0.8,0.1,1.5,0.2,2.3,0.4c0.5,0.1,1,0.3,1.5,0.3c0.3-0.5,0.7-1,1.3-1.3c1-0.4,2.1-0.5,3.1-0.6
			c0.3,0,0.7,0,1,0c0.9,0.1,1.7,0.4,2.5,0.9c0.2,0.2,0.4,0.4,0.6,0.6c0.2,0.3,0.2,0.7,0.3,1c1-0.3,2.1-0.3,3.2-0.3
			C100.2,24.2,100.2,23.7,100.4,23.2z"/>
		<path class="st2" d="M100.9,23.2c0.5-0.6,1.4-0.7,2.1-0.5c0.6,0.4,0.8,1.1,0.8,1.8c0,1.3,0,2.6-0.4,3.9c-0.1,0.4-0.2,0.8-0.5,1
			c-0.8-0.2-1.3-0.8-1.6-1.5c-0.4-0.8-0.4-1.7-0.5-2.5C100.6,24.6,100.5,23.8,100.9,23.2z"/>
		<path class="st2" d="M90,23.3c1.1-0.4,2.3-0.5,3.5-0.4c1,0.1,2.2,0.3,2.7,1.3c0.4,0.5,0.3,1.2,0.2,1.7c0,0.8-0.4,1.4-0.6,2.1
			c-0.4,0.8-1,1.5-1.9,1.8c-0.8,0.2-1.7,0.3-2.6,0c-1.3-0.2-2.4-1.2-2.9-2.4c-0.4-0.8-0.4-1.7-0.2-2.6L88,25.1l0.1-0.3l0.3-0.3
			l0.1,0c0,0,0.1-0.1,0.1-0.1C88.9,23.9,89.4,23.5,90,23.3z"/>
		<path class="st25" d="M91.2,23.6c0.5-0.4,1.2-0.3,1.8-0.3c0.5,0,1.1,0.1,1.6,0.4c-0.5-0.1-1-0.2-1.5-0.2
			C92.5,23.5,91.9,23.6,91.2,23.6z"/>
		<path class="st25" d="M102.7,23.7c0.4,0.2,0.4,0.7,0.4,1.1c-0.1,0.9-0.2,1.9-0.5,2.8C102.7,26.3,103,25,102.7,23.7z"/>
		<path class="st26" d="M97.4,25.2c0.6-0.5,1.5-0.3,2.2-0.3c-0.3,0.1-0.7,0.1-1,0.2C98.2,25.1,97.8,25.3,97.4,25.2z"/>
		<path class="st12" d="M98.1,25.3c0.3-0.1,0.6-0.1,0.9-0.1c0.5,0.8,1,1.6,1.4,2.3c0.5,0.7,0.9,1.4,1.1,2.2c0.1,0.4,0.1,0.8-0.2,1.2
			c-0.3,0.4-0.8,0.6-1.2,0.8c-0.5,0.2-1.1,0.2-1.7,0.3c-0.2,0-0.6,0.1-0.6-0.2c-0.1-0.6,0-1.2,0-1.9C97.9,28.3,97.9,26.8,98.1,25.3z
			"/>
		<path class="st27" d="M73.5,27c0.2-0.8,0.9-1.4,1.7-1.4c0.5-0.1,1.1,0.2,1.5,0.5c0.2,0.1,0.2,0.3,0.2,0.5
			c-0.6-0.1-1.1-0.7-1.7-0.5c-0.7,0-1.4,0.6-1.5,1.4c-0.2,1.2,0.3,2.7,1.5,3.2c0.5,0.2,1.2,0.2,1.7,0c0.1,0,0.2,0.1,0.2,0.2
			c-1.1,0.9-2.8,0.1-3.3-1.1C73.4,28.9,73.3,27.9,73.5,27z"/>
		<path class="st26" d="M99.8,27.8c0.6,0.5,0.8,1.3,0.9,2C100.5,29.1,100,28.5,99.8,27.8z"/>
		<path class="st28" d="M90.5,28.9c0.8,0.4,1.6,0.4,2.5,0.5c-0.4,0.2-0.8,0.1-1.2,0.1C91.3,29.5,90.8,29.4,90.5,28.9z"/>
		<path class="st12" d="M87.5,31c0.3-0.6,1-1,1.7-0.8c0.6,0.1,1.1,0.7,1.2,1.3c-0.4-0.1-0.8-0.3-1.1-0.4c0.2,0.5,0.7,0.6,1.1,0.6
			c0,0.5-0.2,1.1-0.6,1.4c-0.6,0.4-1.4,0.5-2,0.1C87.2,32.6,87.1,31.7,87.5,31z"/>
		<path class="st27" d="M98.6,30.8c0.2,0,0.5,0.1,0.5,0.3c-0.1,0.5-1.2,0.5-0.9-0.1C98.4,30.9,98.5,30.8,98.6,30.8z"/>
		<path class="st10" d="M95.8,35.7c0.8-0.4,1.5-0.8,2.4-0.9c0.9-0.1,1.9,0,2.6,0.7c-0.4,0.2-0.9,0-1.3-0.1c-0.6,0-1.2,0-1.8,0.1
			c-0.8,0.1-1.6,0.5-2.4,0.7C95.3,35.9,95.5,35.8,95.8,35.7z"/>
		<path class="st29" d="M80,22.4c0.3-1.1,0.3-2.3,0.7-3.5c0.1,0.6,0,1.2-0.1,1.8c-0.1,0.5-0.2,0.9-0.3,1.4
			C80.2,22.2,80.1,22.3,80,22.4z M79.6,20.7c-0.1,0.7-0.2,1.3-0.2,2c0.2-0.5,0.3-1.1,0.4-1.6c0.1-0.7,0.3-1.3,0.4-2
			C79.8,19.6,79.7,20.2,79.6,20.7z M78.7,22.5c0.2-0.5,0.2-1.1,0.4-1.6c0.1-0.4,0.3-0.8,0.2-1.3C78.8,20.5,78.8,21.5,78.7,22.5z
			 M78.1,21.2c-0.1,0.5-0.3,1.1-0.2,1.6c0.2-0.8,0.4-1.5,0.5-2.3C78.3,20.7,78.2,20.9,78.1,21.2z M78.8,24.4
			c-0.1,0.3-0.2,0.6-0.1,0.9c0.1,0.8,0.1,1.5,0.3,2.3c0-0.6-0.1-1.2-0.1-1.9C78.9,25.3,78.9,24.9,78.8,24.4z M79.4,24.4
			c-0.1,0.7,0,1.3,0.1,2c0.1,0.5,0.2,1,0.5,1.4c-0.2-0.8-0.3-1.5-0.4-2.3C79.6,25.1,79.6,24.7,79.4,24.4z M78.1,25.6
			c0,0.8,0.1,1.5,0.2,2.3c0.1-0.6,0-1.2,0-1.8c0-0.5,0.1-1-0.1-1.5C78,24.9,78.1,25.2,78.1,25.6z M79.3,27.9
			c-0.1,0.6,0.2,1.2,0.3,1.7c0.2,0.5,0.3,1.1,0.7,1.5C79.9,30.1,79.6,29,79.3,27.9z M80.6,27.8c0.1,0.6,0.4,1.2,0.7,1.8
			c0.3,0.6,0.6,1.2,1.1,1.7c-0.1-0.3-0.2-0.5-0.3-0.7C81.5,29.7,81.1,28.7,80.6,27.8z M78.7,29.8c0.2,0.6,0.3,1.2,0.6,1.8
			c-0.2-1.1-0.5-2.2-0.8-3.3C78.4,28.9,78.6,29.3,78.7,29.8z M80,28.5c0.1,0.6,0.4,1.1,0.6,1.7c0.2,0.5,0.4,0.9,0.7,1.3
			c-0.3-0.7-0.7-1.4-0.9-2.2C80.3,29.1,80.3,28.7,80,28.5z M78.4,30.4c-0.1,0.8,0.1,1.5,0.2,2.2c0.2,0.6,0.3,1.3,0.6,1.9
			c-0.1-0.6-0.3-1.2-0.4-1.8C78.6,32,78.5,31.2,78.4,30.4z M80.1,31.8c0.2,0.6,0.5,1.2,0.8,1.8c0.2,0.4,0.4,0.8,0.7,1
			c-0.4-0.8-0.7-1.5-1-2.3C80.4,32.1,80.4,31.8,80.1,31.8z M79.4,32c0,0.4,0.1,0.8,0.3,1.2c0.2,0.5,0.3,1,0.7,1.4
			c-0.2-0.5-0.4-0.9-0.5-1.4C79.7,32.8,79.6,32.4,79.4,32z M82,32.1c0.5,1,1.2,2.1,2.1,2.9c-0.5-0.7-1-1.4-1.4-2.2
			C82.5,32.5,82.4,32.1,82,32.1z M81.3,32c0,0.5,0.3,1,0.5,1.4c0.3,0.5,0.5,0.9,0.9,1.3c-0.2-0.4-0.5-0.8-0.7-1.3
			C81.8,33,81.7,32.5,81.3,32z M98.6,32.6c0.3,0,0.5,0,0.8-0.1C99.1,32.4,98.8,32.3,98.6,32.6z M100.4,32.4c0.4,0.3,0.8,0.5,1.2,0.6
			C101.3,32.8,100.9,32.5,100.4,32.4z M83.4,32.4c0.1,0.5,0.3,0.9,0.6,1.3c0.4,0.6,0.8,1.2,1.3,1.7c-0.3-0.6-0.7-1.1-1-1.6
			C83.9,33.3,83.7,32.8,83.4,32.4z M96.7,33c0.6-0.1,1.2-0.3,1.8-0.3C97.9,32.6,97.2,32.6,96.7,33z M99.5,32.8
			c0.5,0.1,0.9,0.2,1.4,0.3c-0.3-0.2-0.7-0.4-1.1-0.5C99.7,32.7,99.6,32.8,99.5,32.8z M94.9,33.3c-0.2,0.1-0.3,0.2-0.4,0.4
			c0.6-0.3,1.3-0.5,1.9-0.9C95.9,33,95.4,33.1,94.9,33.3z M97.9,33.3c0.3,0.1,0.7-0.1,1-0.2C98.5,33.1,98.2,33.1,97.9,33.3z
			 M99.1,33.2c0.4,0.2,0.9,0.3,1.4,0.5C100.1,33.4,99.6,33.1,99.1,33.2z M95.7,34c0.7-0.1,1.3-0.5,2-0.7
			C97.1,33.5,96.2,33.5,95.7,34z M101.3,33.3c0.3,0.4,0.7,0.7,1,1C102.1,33.9,101.8,33.4,101.3,33.3z M97.4,34.1
			c0.5-0.1,1-0.2,1.4-0.4C98.3,33.7,97.7,33.6,97.4,34.1z M93.5,35c0.4-0.1,0.7-0.4,1-0.6c0.3-0.3,0.7-0.4,1-0.7
			C94.8,34,94,34.4,93.5,35z M99,33.9c0.4,0,0.7,0.1,1.1,0.2c-0.1-0.1-0.3-0.3-0.5-0.3C99.4,33.8,99.1,33.6,99,33.9z M100.8,33.7
			c0.3,0.4,0.7,0.6,1.1,0.9C101.6,34.2,101.3,33.7,100.8,33.7z M95.2,34.7c-0.2,0.1-0.4,0.3-0.5,0.4c0.4-0.1,0.8-0.3,1.1-0.5
			c0.4-0.2,0.8-0.4,1.1-0.6C96.4,34.1,95.8,34.4,95.2,34.7z M92,35.3c0.7-0.3,1.3-0.9,1.9-1.2C93.2,34.3,92.5,34.7,92,35.3z
			 M100.2,34.2c0.5,0.3,1,0.5,1.4,0.8C101.3,34.5,100.8,34.1,100.2,34.2z M102,34.7c0.2,0.4,0.4,0.7,0.6,1
			C102.6,35.3,102.5,34.8,102,34.7z M101.4,35.1c0.2,0.3,0.5,0.7,0.8,0.9C102,35.7,101.9,35.2,101.4,35.1z M79.4,35.2
			c0,0.8,0.3,1.7,0.6,2.4C79.8,36.8,79.6,36,79.4,35.2z M80.2,35.2c0.1,0.6,0.3,1.2,0.5,1.8c0.1,0.2,0.2,0.5,0.4,0.7
			c-0.3-0.7-0.5-1.4-0.7-2.2C80.4,35.3,80.3,35.2,80.2,35.2z M83.5,35.3c0.1,0.5,0.4,0.9,0.6,1.3c0.2,0.4,0.4,0.8,0.8,1.1
			c-0.3-0.6-0.6-1.1-0.9-1.7C83.9,35.8,83.8,35.4,83.5,35.3z M81.3,35.4c0.1,0.5,0.3,1,0.5,1.5c0.1,0.3,0.3,0.7,0.5,0.9
			c-0.2-0.6-0.5-1.2-0.7-1.7C81.6,35.8,81.6,35.5,81.3,35.4z M82.2,35.4c0.1,0.5,0.4,0.9,0.6,1.4c0.2,0.3,0.4,0.7,0.7,1
			c-0.2-0.6-0.5-1.2-0.8-1.7C82.5,35.8,82.4,35.5,82.2,35.4z M91.3,36.3c0.1,0,0.2,0,0.2,0c0.3-0.2,0.7-0.5,0.9-0.8
			C92,35.6,91.6,35.9,91.3,36.3z M84.7,35.8c0.2,0.7,0.6,1.2,0.8,1.9c0-0.6-0.3-1.1-0.5-1.6C85,35.9,84.8,35.8,84.7,35.8z
			 M90.3,36.5c-0.2,0.3-0.4,0.5-0.3,0.9c0.5-0.5,0.8-1.2,1.1-1.7C90.7,35.9,90.5,36.2,90.3,36.5z M92.4,36.9c0.4-0.3,0.9-0.6,1-1.1
			C93,36,92.6,36.4,92.4,36.9z M89,36.9c0.3-0.3,0.6-0.6,0.8-0.9C89.4,36.1,89.2,36.5,89,36.9z M91.1,37c-0.2,0.1-0.3,0.3-0.3,0.5
			c0.5-0.4,1-0.8,1.4-1.2C91.8,36.4,91.5,36.7,91.1,37z M93.9,36.3c-0.4,0.3-0.7,0.7-0.8,1.2c0.4-0.4,0.8-0.8,1.1-1.2
			C94.1,36.3,94,36.3,93.9,36.3z M85.8,36.4c0.1,0.6,0.4,1.2,0.6,1.7c0-0.5-0.2-1-0.3-1.4C86,36.5,85.9,36.5,85.8,36.4z M86.8,36.4
			c0.1,0.6,0.4,1.1,0.5,1.6C87.3,37.5,87.2,36.8,86.8,36.4z M99.9,36.4c0,0.7,0.2,1.3,0.1,2c0.3-0.3,0.2-0.8,0.2-1.2
			C100.2,36.9,100.3,36.5,99.9,36.4z M98.1,36.5c0.1,0.6,0.2,1.2,0.4,1.8c0.1-0.5,0-1.1-0.1-1.6C98.3,36.7,98.2,36.6,98.1,36.5z
			 M100.8,36.5c0.2,0.6,0.3,1.1,0.3,1.7c0.2-0.5,0.1-1,0-1.4C101.1,36.6,100.9,36.6,100.8,36.5z M101.6,36.5
			c0.1,0.6,0.1,1.3,0.2,1.9c0.1-0.5,0.1-1,0-1.5C101.8,36.7,101.7,36.6,101.6,36.5z M99.2,37.3c0.1,0.4,0.1,0.7,0.1,1.1
			c0.1-0.6,0.2-1.4-0.2-1.9C99,36.8,99.1,37.1,99.2,37.3z M97.3,36.7c0,0.6,0.2,1.1,0.2,1.7C97.6,37.9,97.7,37.2,97.3,36.7z
			 M88,36.9c0,0.6,0,1.2,0,1.8c0.3-0.5,0.2-1.2,0.2-1.7C88.2,36.9,88.1,36.9,88,36.9z M102.4,36.8c-0.1,0.7,0,1.3,0.1,2
			C102.6,38.1,102.6,37.4,102.4,36.8z M89,37.6c-0.2,0.3-0.4,0.6-0.3,1c0.4-0.4,0.6-1.1,0.8-1.6C89.3,37.1,89.1,37.4,89,37.6z
			 M96.3,37c0.1,0.6,0.3,1.2,0.3,1.7c0.1-0.5,0.1-1-0.1-1.5C96.6,37.1,96.5,37,96.3,37z M95.4,37.1c0.1,0.5,0.2,1.1,0.4,1.6
			C95.8,38.1,95.9,37.4,95.4,37.1z M94.6,37.2c0,0.4,0.2,0.8,0.3,1.2c0.1,0.3,0.1,0.6,0.3,0.9c0-0.4-0.1-0.8-0.2-1.2
			C94.9,37.7,94.8,37.4,94.6,37.2z M91.3,38.8c0.3-0.1,0.4-0.4,0.6-0.6c0.2-0.3,0.5-0.5,0.6-0.9C91.9,37.6,91.6,38.2,91.3,38.8z
			 M93.6,37.8c-0.2,0.3-0.3,0.7-0.3,1.1c0.3-0.4,0.5-0.9,0.6-1.3C93.8,37.6,93.6,37.6,93.6,37.8z M90.7,38.2c-0.3,0.3-0.6,0.6-0.6,1
			c0.3-0.2,0.5-0.6,0.8-0.9c0.2-0.3,0.4-0.5,0.6-0.8C91.2,37.7,91,38,90.7,38.2z M89.7,38.4c-0.2,0.3-0.5,0.5-0.4,0.9
			c0.5-0.3,0.7-0.9,1-1.4C90,38,89.9,38.2,89.7,38.4z M80.3,38.1c-0.1,0.8,0.4,1.6,0.8,2.3c-0.1-0.3-0.2-0.6-0.3-0.9
			C80.7,39,80.6,38.5,80.3,38.1z M82.1,38c-0.1,0.6,0.3,1.2,0.6,1.7C82.5,39.2,82.4,38.6,82.1,38z M85,38.1c0,0.6,0.2,1.2,0.3,1.9
			c0.1-0.5,0-1.1-0.1-1.6C85.2,38.3,85.2,38.1,85,38.1z M92.2,38.9c0.4-0.2,0.6-0.5,0.9-0.8C92.6,38.1,92.4,38.6,92.2,38.9z
			 M94.2,38c-0.1,0.5-0.2,1.1,0.1,1.6c0-0.4,0.1-0.8,0.1-1.2C94.4,38.3,94.3,38.1,94.2,38z M84.1,38.2c0.1,0.6,0.2,1.2,0.4,1.7
			c0-0.5-0.1-1.1-0.2-1.6C84.2,38.3,84.1,38.2,84.1,38.2z M83.2,38.5c0,0.5,0.2,1,0.4,1.5C83.5,39.5,83.4,38.9,83.2,38.5z
			 M86.1,38.5c0,0.5,0,1.1,0.1,1.6c0.3-0.5,0.1-1.1,0.2-1.6C86.3,38.5,86.2,38.5,86.1,38.5z M81.4,38.5c0.1,0.5,0.3,1,0.6,1.4
			C81.8,39.4,81.6,39,81.4,38.5z M100.9,38.6c0.1,0.5,0.1,1.1,0.3,1.6c0.1-0.3,0.1-0.6,0.1-0.9C101.3,39,101.3,38.6,100.9,38.6z
			 M99.1,38.6c0,0.7,0.2,1.3,0.3,1.9c0.1-0.2,0.1-0.5,0.1-0.7C99.4,39.4,99.4,38.9,99.1,38.6z M100.3,40.4c0.1-0.6,0-1.2-0.2-1.8
			C100,39.3,100.2,39.8,100.3,40.4z M101.9,38.7c0.1,0.5,0.1,1,0.2,1.5C102.2,39.7,102.2,39.1,101.9,38.7z M98.2,38.8
			c0,0.6,0.1,1.2,0.2,1.8c0.1-0.5,0.1-1,0-1.6C98.4,39,98.4,38.9,98.2,38.8z M96.4,39c0.1,0.6,0.2,1.1,0.3,1.7c0.2-0.5,0.1-1,0-1.5
			C96.6,39,96.5,39,96.4,39z M97.5,39c0.1,0.5,0.1,1,0.2,1.6c0.1-0.5,0.1-1,0-1.5C97.6,39,97.5,39,97.5,39z M87.1,39.3
			c-0.1,0.5-0.2,1-0.3,1.5c0.3-0.6,0.4-1.2,0.6-1.8C87.3,39.1,87.2,39.2,87.1,39.3z M87.7,40.4c0.3-0.4,0.7-0.8,0.9-1.2
			C88.1,39.4,88,39.9,87.7,40.4z M90.8,40.2c0.5-0.2,0.8-0.6,1-1C91.4,39.4,91,39.7,90.8,40.2z M95.6,39.1c0.1,0.5,0.1,1,0.2,1.5
			c0.2-0.4,0.1-0.7,0.1-1.1C95.8,39.3,95.8,39.1,95.6,39.1z M89.5,40.8c0.2-0.2,0.4-0.5,0.6-0.7c0.2-0.2,0.4-0.4,0.5-0.7
			C90.1,39.6,89.7,40.1,89.5,40.8z M91.8,40.9c0.3-0.5,0.6-1,0.9-1.5C92.1,39.7,92,40.3,91.8,40.9z M88.7,41.1
			c0.2-0.5,0.6-0.9,0.7-1.5C89,39.9,88.8,40.5,88.7,41.1z M93,40.1c-0.2,0.5-0.3,1-0.3,1.5c0.3-0.6,0.4-1.2,0.6-1.8
			C93.2,39.8,93,39.9,93,40.1z M94.9,39.6c0,0.6,0.1,1.2,0.1,1.8C95.1,40.8,95.2,40.1,94.9,39.6z M93.8,40.2c0,0.5-0.1,1,0.1,1.5
			c0.1-0.5,0.1-1,0.1-1.5C93.9,40.2,93.8,40.2,93.8,40.2z M82.4,40.2c0.1,0.5,0.3,1,0.5,1.4C82.8,41.2,82.8,40.6,82.4,40.2z
			 M83.9,41.9c0-0.6,0-1.1-0.1-1.7C83.7,40.8,83.8,41.3,83.9,41.9z M84.7,40.6c0,0.5,0,1,0.2,1.4c0.1-0.6,0.1-1.1,0-1.7
			C84.7,40.4,84.7,40.5,84.7,40.6z M85.6,42.1c0.1-0.5,0.2-1,0.2-1.6C85.6,41,85.6,41.6,85.6,42.1z M90,42.6
			c0.1-0.7,0.4-1.3,0.5-1.9C90,41.2,89.9,42,90,42.6z M100.9,40.7c0,0.7,0,1.4-0.1,2.1c0.2-0.5,0.3-1.1,0.3-1.7
			C101.1,41,101,40.8,100.9,40.7z M101.7,40.7c0,0.7-0.1,1.4,0,2c0.2-0.5,0.2-1.1,0.2-1.7C101.9,40.9,101.8,40.8,101.7,40.7z
			 M87.9,41.2c-0.2,0.5-0.4,1-0.4,1.6c0.3-0.6,0.5-1.3,0.8-1.9C88.1,40.9,88,41,87.9,41.2z M100,40.7c-0.1,0.7,0,1.3,0,2
			c0.2-0.2,0.2-0.5,0.2-0.8C100.2,41.5,100.3,41.1,100,40.7z M102.5,40.8c0,0.7,0,1.5-0.1,2.2c0.2-0.5,0.3-1,0.3-1.5
			C102.7,41.2,102.7,41,102.5,40.8z M95.5,40.8c-0.1,0.6-0.1,1.1,0,1.7C95.7,42,95.8,41.3,95.5,40.8z M99.1,41.6
			c0,0.4-0.1,0.8,0,1.2c0.2-0.6,0.3-1.3,0.2-1.9C99,41,99.1,41.4,99.1,41.6z M86.1,42.8c0.2-0.6,0.3-1.2,0.3-1.8
			C86.1,41.5,86.2,42.2,86.1,42.8z M90.8,42.8L90.8,42.8c0.2-0.6,0.4-1.2,0.5-1.8C90.8,41.5,90.8,42.2,90.8,42.8z M96.3,41
			c0,0.6,0,1.3,0,1.9c0.3-0.5,0.2-1,0.2-1.5C96.5,41.2,96.4,41.1,96.3,41z M97.3,41.1c0,0.6,0,1.1-0.1,1.7c0,0,0.1,0,0.2,0
			c0.1-0.6,0.2-1.1,0.2-1.7C97.4,41.1,97.3,41.1,97.3,41.1z M98.1,41c0,0.6,0,1.1,0,1.7c0.3-0.4,0.3-1,0.2-1.5
			C98.3,41.1,98.2,41.1,98.1,41z M94.4,41.1c-0.1,0.4,0,0.8,0,1.2c0,0.2,0,0.4,0.2,0.6C94.6,42.3,94.7,41.6,94.4,41.1z M88.9,43.1
			c0.1-0.3,0.2-0.7,0.3-1.1c0.1-0.2,0.3-0.5,0.2-0.7C89,41.7,88.8,42.4,88.9,43.1z M91.9,43.1c0.2-0.5,0.2-1.1,0.3-1.7
			C91.7,41.8,91.8,42.5,91.9,43.1z M86.9,41.9c-0.2,0.5-0.2,1.1-0.3,1.6c0.2-0.6,0.4-1.2,0.4-1.8C87,41.8,86.9,41.9,86.9,41.9z
			 M88.1,42.5c-0.1,0.5-0.2,1.1-0.2,1.6c0.2-0.7,0.3-1.5,0.6-2.2C88.3,42,88.2,42.2,88.1,42.5z M92.9,42c-0.1,0.5-0.1,1,0.1,1.5
			c0-0.5,0-1,0-1.6C93.1,41.9,93,42,92.9,42z M82.6,42.1c0.1,0.5,0.4,1,0.5,1.5C83.1,43.1,82.9,42.5,82.6,42.1z M83.6,42.6
			c0.1,0.6,0.1,1.3,0.4,1.8c0-0.6-0.1-1.2-0.2-1.9C83.8,42.5,83.7,42.5,83.6,42.6z M93.7,42.6c-0.1,0.5-0.1,1,0.1,1.4
			c0-0.4,0.1-0.8,0-1.2C93.8,42.7,93.7,42.6,93.7,42.6z M84.7,42.9c0,0.6,0,1.1,0.1,1.7c0-0.6,0-1.2,0-1.9
			C84.8,42.8,84.8,42.9,84.7,42.9z M89.4,42.8c-0.1,0.5-0.2,1.1,0,1.6c0.1-0.5,0.2-1.1,0.2-1.6C89.6,42.9,89.5,42.8,89.4,42.8z
			 M85.6,43.3c-0.1,0.6-0.2,1.3,0,1.9c0.1-0.6,0.1-1.3,0.2-1.9C85.7,43.3,85.6,43.3,85.6,43.3z M90.4,45.2c-0.1-0.7-0.1-1.4-0.1-2.1
			C90.1,43.8,90.1,44.6,90.4,45.2z M94.6,44.9c0.1-0.6,0.3-1.2,0.1-1.8C94.5,43.7,94.6,44.3,94.6,44.9z M95.1,44.6
			c0.3-0.4,0.4-1.1,0.2-1.5C95.2,43.6,95.2,44.1,95.1,44.6z M95.7,44.7c0.1-0.5,0.2-1,0.1-1.5C95.7,43.7,95.7,44.2,95.7,44.7z
			 M97.7,43.8c0,0.4-0.1,0.8-0.2,1.1c0.4-0.5,0.5-1.2,0.3-1.8C97.7,43.3,97.7,43.6,97.7,43.8z M96.6,43.4c0,0.6-0.1,1.2-0.2,1.8
			c0.4-0.5,0.4-1.1,0.4-1.7C96.7,43.4,96.6,43.4,96.6,43.4z M99,43.4c-0.1,0.6-0.1,1.2-0.4,1.8c0.4-0.6,0.5-1.2,0.6-1.9
			C99.1,43.3,99.1,43.4,99,43.4z M100.6,45.2c0.3-0.6,0.6-1.3,0.4-1.9C100.8,43.9,100.7,44.6,100.6,45.2z M99.9,44
			c0,0.4-0.2,0.8-0.2,1.3c0.4-0.5,0.5-1.2,0.5-1.9C99.9,43.5,99.9,43.8,99.9,44z M101.7,43.5c-0.1,0.6-0.3,1.3-0.3,1.9
			c0.4-0.5,0.5-1.2,0.5-1.9C101.9,43.5,101.8,43.5,101.7,43.5z M91.2,45.1c0-0.5,0.1-1,0.1-1.6C90.9,44,91.1,44.6,91.2,45.1z M92,44
			c0,0.4,0,0.8,0.1,1.1c0.1-0.5,0.1-1,0.1-1.5C92,43.7,91.9,43.8,92,44z M87.1,44.2c-0.1,0.5-0.1,1.1,0,1.6c0.1-0.7,0.1-1.3,0.2-2
			C87.2,44,87.1,44.1,87.1,44.2z M93,44.1c0.1,0.4,0,1,0.3,1.3c0-0.4,0-0.9-0.1-1.3C93.1,44.1,93,44.1,93,44.1z M86.3,44.7
			c0.1,0.5,0.1,1,0.2,1.4c0.1-0.7,0-1.3,0-2C86.2,44.2,86.3,44.5,86.3,44.7z M88.8,45.9c0-0.6,0-1.2,0-1.7
			C88.4,44.7,88.6,45.4,88.8,45.9z M84.3,44.8c0.1,0.6,0.3,1.2,0.7,1.7c-0.1-0.4-0.3-0.8-0.4-1.2C84.5,45,84.5,44.8,84.3,44.8z
			 M87.6,45.4c0,0.5,0,1,0.1,1.4c0-0.7,0.1-1.4,0.1-2.2C87.6,44.9,87.7,45.2,87.6,45.4z M93.8,45c0,0.3,0.1,0.7,0.1,1
			c0.2-0.3,0.1-0.7,0.1-1C94,44.9,93.9,45,93.8,45z M89.3,45c0,0.6,0,1.2,0.2,1.7c0-0.5,0-1.1-0.1-1.6C89.4,45.1,89.3,45,89.3,45z
			 M95,45.6c0.3-0.1,0.2-0.4,0.2-0.6C94.9,45.1,95,45.4,95,45.6z M90.9,45.4c0.1,0.4,0.1,0.8,0.3,1.1c0-0.4-0.1-0.8-0.1-1.1
			C91,45.4,90.9,45.4,90.9,45.4z M91.6,45.4c0,0.3,0.1,0.7,0.3,0.9c0-0.3,0-0.6-0.1-1C91.8,45.4,91.7,45.4,91.6,45.4z M92.9,46.3
			c0-0.3,0.1-0.7-0.1-1C92.6,45.6,92.7,46,92.9,46.3z M95.6,45.5c-0.1,0.5-0.2,1-0.3,1.5c0.3-0.4,0.4-1,0.4-1.5L95.6,45.5z M97.2,47
			c0.3-0.5,0.5-1,0.5-1.5C97.4,45.9,97.4,46.5,97.2,47z M98.5,45.5c-0.2,0.5-0.3,1.1-0.4,1.7c0.4-0.5,0.5-1.1,0.6-1.7
			C98.6,45.5,98.5,45.5,98.5,45.5z M85.3,45.5c0,0.2-0.1,0.4,0,0.6c0.1,0.5,0.3,1,0.6,1.4C85.7,46.8,85.5,46.1,85.3,45.5z M96.1,47
			c0.3-0.4,0.5-1,0.4-1.5C96.3,46,96.3,46.5,96.1,47z M99.3,46.2c-0.1,0.4-0.2,0.7-0.4,1.1c0.4-0.4,0.6-1,0.7-1.6
			C99.4,45.7,99.4,46,99.3,46.2z M100.4,46.2c-0.2,0.4-0.4,0.8-0.6,1.1c0.2-0.1,0.3-0.2,0.4-0.3c0.3-0.4,0.6-0.9,0.6-1.4
			C100.5,45.7,100.5,46,100.4,46.2z M90.3,47.3c0-0.5-0.1-1-0.2-1.6C89.9,46.2,90.1,46.8,90.3,47.3z M94.5,47.4
			c0.4-0.4,0.6-1,0.5-1.6C94.7,46.4,94.6,46.9,94.5,47.4z M94,46.1c0,0.4-0.1,0.9,0,1.3c0.2-0.4,0.2-0.9,0.2-1.3
			C94.1,46.1,94,46.1,94,46.1z M100.2,47.8c0.5-0.3,0.8-0.8,1-1.2c0.1-0.2,0.1-0.4,0.2-0.6C100.9,46.6,100.6,47.2,100.2,47.8z
			 M93.1,46.5c0,0.4,0,0.8,0,1.1c0.3-0.4,0.1-0.9,0.2-1.4C93.2,46.3,93.1,46.4,93.1,46.5z M86.2,46.5c-0.1,0.5,0.2,1,0.5,1.4
			C86.7,47.4,86.5,46.9,86.2,46.5z M92.1,46.4c-0.2,0.4-0.1,0.9,0.2,1.3C92.3,47.3,92.2,46.8,92.1,46.4z M88.2,47
			c0,0.5,0.1,1,0.3,1.4c-0.1-0.6-0.1-1.2-0.2-1.8C88.3,46.7,88.2,46.8,88.2,47z M87.1,47.3c0.1,0.4,0.3,0.8,0.5,1.2
			c-0.2-0.6-0.3-1.2-0.4-1.7C87,46.8,87.1,47.1,87.1,47.3z M88.9,46.8c0,0.5,0.3,1,0.5,1.5c0-0.5-0.2-1-0.3-1.6
			C89,46.7,88.9,46.8,88.9,46.8z M91.2,46.8c-0.1,0.4,0.2,0.8,0.4,1.1C91.5,47.5,91.4,47.2,91.2,46.8z M89.9,47.5
			c0.1,0.2,0.2,0.5,0.4,0.7c0-0.2-0.1-0.5-0.2-0.7C90.1,47.4,90,47.5,89.9,47.5z M94.9,48.9c0.4-0.4,0.8-0.9,0.7-1.5
			C95.3,47.8,95.1,48.4,94.9,48.9z M95.6,49.1c0.3-0.3,0.6-0.7,0.8-1.1c0.1-0.1,0-0.3,0-0.5C96.1,48,95.9,48.5,95.6,49.1z
			 M98.2,47.7c-0.3,0.5-0.7,1-0.9,1.5c0.4-0.4,0.8-0.9,1.1-1.5C98.4,47.7,98.3,47.7,98.2,47.7z M97.2,47.8c-0.3,0.4-0.5,0.8-0.7,1.3
			c0.4-0.4,0.8-0.8,1-1.4C97.4,47.7,97.3,47.8,97.2,47.8z M99,48c-0.2,0.4-0.5,0.7-0.7,1.1c0.5-0.3,0.9-0.8,1-1.3
			C99.2,47.8,99.1,47.9,99,48z M94.3,47.8c-0.2,0.4-0.3,0.9-0.5,1.3c0,0,0,0.1,0,0.2c0.3-0.4,0.6-0.8,0.6-1.2
			C94.4,48,94.4,47.9,94.3,47.8z M93.2,49.4c0.1-0.5,0.4-1,0.3-1.5C93.2,48.4,93.1,48.9,93.2,49.4z M92.3,48.2
			c0,0.4,0.1,0.9,0.2,1.3c0.1-0.5,0-0.9,0-1.4C92.5,48.2,92.3,48.2,92.3,48.2z M90.9,48.4c0.2,0.5,0.4,1.1,1,1.2
			c-0.3-0.4-0.5-0.8-0.8-1.2C91.1,48.3,91,48.4,90.9,48.4z M90.2,48.5c0.1,0.6,0.6,1,1.1,1.3C90.9,49.4,90.5,48.9,90.2,48.5z
			 M89.1,48.6c0,0.4,0.3,0.8,0.6,1.1c-0.1-0.3-0.3-0.7-0.4-1C89.2,48.7,89.2,48.6,89.1,48.6z M89.8,49.1c0.1,0.2,0.3,0.4,0.5,0.6
			c-0.1-0.2-0.2-0.4-0.3-0.6C90,49.1,89.9,49.1,89.8,49.1z M94,50c0.3-0.2,0.6-0.4,0.8-0.8C94.4,49.2,94.2,49.7,94,50z M94.8,50
			c0.3-0.2,0.6-0.4,0.7-0.8C95.1,49.4,94.9,49.7,94.8,50z M92.8,49.7c0,0.2,0.1,0.4,0.2,0.5c0.1-0.2,0.1-0.4,0.1-0.5
			C93,49.6,92.9,49.7,92.8,49.7z"/>
		<path class="st30" d="M100.2,51.6c0,0,0.1,0,0.2,0c0.1,0.2,0.1,0.3,0,0.5c-0.8,1.3-1.9,2.3-3.1,3.2c-0.7,0.5-1.3,0.9-2,1.4
			c-0.9,0.7-2,1.2-3,1.7c-1.1,0.5-2.1,1-3.2,1.3c-0.8,0.2-1.7,0.5-2.5,0.7c-2,0.3-4,0.8-6,0.9c-1.5,0.2-2.9,0.1-4.4,0.1
			c-1.2,0-2.3-0.2-3.4-0.4c-1.2-0.2-2.4-0.5-3.5-0.8c-1.1-0.4-2.2-0.9-3.2-1.5c-0.6-0.4-1.3-0.6-1.9-1.1c-0.7-0.6-1.6-1.1-2.2-1.8
			c-0.6-0.5-1-1.2-1.5-1.8c-0.3-0.3-0.5-0.7-0.8-1.1c-0.1-0.1-0.1-0.2-0.1-0.4c0.1,0,0.3,0.1,0.4,0.1c0.1,0.6,0.7,0.9,1,1.4
			c0.6,0.8,1.2,1.6,2,2.2c0.5,0.4,1,0.7,1.4,1.1c0.6,0.5,1.3,0.8,1.9,1.2c1,0.5,1.9,1,2.9,1.4c1.9,0.5,3.8,0.9,5.7,1.2
			c1.9,0.2,3.9,0.1,5.8-0.1c0.6-0.1,1.2-0.1,1.7-0.1c1.4-0.2,2.7-0.6,4.1-0.7c0.9-0.1,1.7-0.5,2.6-0.7c0.8-0.2,1.4-0.5,2.1-0.8
			c1-0.4,1.9-0.9,2.9-1.4c0.8-0.4,1.5-0.9,2.2-1.4c0.9-0.6,1.9-1.3,2.6-2.1C99.4,53,99.9,52.4,100.2,51.6z"/>
		<path class="st30" d="M62.4,70.1c0.1,0,0.3-0.1,0.4-0.1c-0.2,0.2-0.5,0.3-0.8,0.4c-2,0.9-4,1.9-5.8,3.1c-1.2,0.7-2.3,1.5-3.3,2.5
			c-0.5,0.4-1,0.9-1.5,1.3c0.7-0.7,1.3-1.5,2-2.1c1.3-1.1,2.7-2,4.2-2.8C59.1,71.5,60.7,70.8,62.4,70.1z"/>
		<path class="st30" d="M106.1,70.2c0.7,0.9,1.3,1.8,2,2.6c1.4,1.8,2.8,3.6,3.9,5.6c0.5,0.9,1,1.8,1.3,2.8c-0.9-2.2-2.3-4.2-3.7-6.1
			C108.4,73.5,107.1,72,106.1,70.2z"/>
		<path class="st31" d="M43.4,86.2c0.1-0.3,0.1-0.6,0.4-0.8c-0.7,2.7-1.4,5.5-2.4,8.1c-0.2,0.6-0.6,1.2-0.9,1.8
			c-0.6,1.1-1.3,2.1-2.1,3.1c-0.6,0.8-1.4,1.5-1.9,2.4c-0.5,0.8-1,1.6-1.5,2.3c-0.1,0-0.2,0-0.3,0c0.1-0.6,0.4-1.2,0.8-1.8
			c0.2-0.2,0.2-0.5,0.2-0.7c-0.5,0-1,0-1.4,0c-0.5,0-1.1,0.2-1.6,0.1c-0.5,0-1-0.2-1.5-0.4c-0.5-0.2-1-0.1-1.5,0
			c-0.7,0.1-1.3,0.6-2,0.6c-1.8,0-3.5-0.4-5.3-0.7c-2.1-0.5-4.3-0.8-6.4-1.4c-1.1-0.2-2.1-0.5-3.2-0.9c-0.3-0.1-0.6-0.2-0.7-0.5
			c0.9,0.2,1.7,0.5,2.6,0.7c2.8,0.6,5.7,1.2,8.5,1.9c1.3,0.3,2.6,0.5,3.9,0.6c0.5,0,1.1,0,1.6-0.3c0.8-0.4,1.9-0.6,2.8-0.3
			c0.7,0.2,1.4,0.4,2.1,0.3c0.8-0.1,1.5-0.2,2.3-0.1c-0.6-1.7-1.6-3.2-2.6-4.6c-0.4-0.6-1.3-0.8-1.6-1.5c0.7,0.4,1.4,0.7,1.9,1.3
			c1,1.3,1.8,2.6,2.4,4.1c0.1-1.9,0.2-3.9-0.1-5.8c-0.1-1.1-0.2-2.2-0.5-3.3c-0.3-1.1-0.6-2.3-1-3.4c-0.1-0.2,0-0.4,0-0.6
			c0.6,1.2,1.1,2.5,1.4,3.9c0.4,1.5,0.5,3.1,0.7,4.7c0.1,1.4,0,2.8,0,4.2c0,0.4-0.1,0.8-0.3,1.2c0.5-1,1.3-1.8,2-2.6
			c1-1.2,1.9-2.6,2.6-4C41.9,91.5,42.6,88.9,43.4,86.2z"/>
		<path class="st32" d="M120.4,90.9c0.6,1.3,0.8,2.8,1,4.2c0.2,1,0.2,2.1,0.4,3.1c0.1,0.9,0,1.8,0.2,2.7c0.7-2.1,1.9-4,3-5.9
			c0.5-0.9,1-1.8,1.6-2.6c-1.2,2.8-2.9,5.3-4.1,8.1c-0.3,0.7-0.5,1.4-0.5,2.2c0,1.8-0.3,3.5-0.6,5.3c1-1.6,2.2-3.2,3.3-4.7
			c1.5-2,2.7-4.1,4.1-6.1c0.4-0.6,0.8-1.3,1.3-1.8c-0.1,0.5-0.4,0.9-0.6,1.3c-1.2,1.9-2.3,3.9-3.6,5.7c-1.4,1.8-2.9,3.6-4.1,5.5
			c-0.3,0.5-0.5,1-0.6,1.6c0.4,0.1,0.8,0.3,1.2,0.2c0.6-0.1,1.3-0.4,1.9-0.1c0.8,0.5,1.6,1,2.6,1.3c1.3,0.4,2.6,0.5,3.9,0.4
			c1.5,0,2.9-0.3,4.4-0.5c2.5-0.4,4.9-1.1,7.2-2.2c0.3-0.1,0.6-0.3,1-0.3c-0.5,0.5-1.2,0.7-1.8,1c-2,1-4.1,1.4-6.3,1.7
			c-2.6,0.3-5.3,1-8,0.4c-1.1-0.2-2.1-0.8-3-1.4c-0.5-0.3-1.2,0-1.7,0.1c-0.4,0.1-0.8-0.1-1.2-0.2c-0.1,0.6-0.2,1.2-0.3,1.8
			c0,0.5,0.1,1.1,0.1,1.6c-0.1,0-0.2,0-0.2,0c0-0.1,0-0.2,0-0.3l-0.1,0c0-0.1,0-0.2,0-0.3c0-1.2-0.4-2.3-0.8-3.4
			c-0.6-1.8-1.2-3.6-2-5.4c-0.6-1.6-1.4-3.2-2.2-4.7c-0.2-0.5-0.7-1-0.6-1.7c0.1,0.2,0.1,0.3,0.2,0.5c0.5,0.8,1,1.7,1.4,2.5
			c0.5,1,1,2,1.4,3c0.9,2,1.7,4.1,2.4,6.2c0.1,0.4,0.2,0.9,0.4,1.3c0.2-1,0.1-2,0.3-2.9c0.8-3.6,0.9-7.3,0.5-10.9
			c-0.1-1.6-0.4-3.3-0.7-4.9C120.5,91.9,120.3,91.4,120.4,90.9z"/>
		<path class="st30" d="M135.4,98.4c0.2-0.3,0.4-0.5,0.7-0.7c-1,1.6-2.2,3-3.5,4.3c-0.9,0.9-1.7,1.9-2.5,2.9
			c-0.2,0.2-0.3,0.4-0.5,0.5c0.6-0.6,1-1.4,1.6-2C132.5,101.6,134.1,100.1,135.4,98.4z"/>
		<path class="st31" d="M33.9,107.5c0-0.7,0-1.4,0.4-2c0,0.6-0.1,1.2-0.1,1.8c0,0.3-0.1,0.6,0.1,0.9c-0.1,1,0.3,1.9,0.9,2.7
			c0.9,1.1,2,2,3.2,2.7c1.4,0.8,3,1.2,4.5,1.5c1.4,0.3,2.7,0.6,4.1,0.7c0.5,0,0.9-0.1,1.4-0.1c-0.2,0.3-0.6,0.3-1,0.4
			c-1.1,0.1-2.2-0.1-3.3-0.3c-1.9-0.3-3.8-0.6-5.5-1.5c-1.1-0.6-2.2-1.3-3.1-2.3c-0.6-0.6-1-1.3-1.3-2.1
			C33.8,109.1,33.9,108.3,33.9,107.5z"/>
		<path class="st32" d="M97.1,107.6c1-0.2,2-0.4,3-0.7c0,0.1,0,0.2,0,0.2c-2.1,0.6-4.3,1-6.5,1.5c-5.1,1.1-10.2,2.4-15.1,4
			c-1.4,0.5-2.8,0.9-4.2,1.3c-0.7,0.2-1.3,0.6-1.9,0.8c0.1-0.2,0.2-0.4,0.4-0.5c0.9-0.6,1.9-0.9,2.9-1.2c2.2-0.7,4.3-1.4,6.5-2.1
			c2.3-0.7,4.6-1.3,7-1.8C91.8,108.6,94.4,108.1,97.1,107.6z"/>
		<path class="st32" d="M102.6,112.9c1.1-0.5,2.2-1,3.2-1.7c-0.5,0.6-1.2,0.9-1.9,1.3c-1.3,0.7-2.6,1.3-4,1.7
			c-1.9,0.6-3.8,1.3-5.7,1.8c-2.3,0.6-4.6,1-7,1.2c-1,0.1-2,0.2-3,0.3c-0.4,0-0.8,0.1-1.2,0c2.1-0.4,4.3-0.5,6.4-0.9
			c2.5-0.5,5-1,7.5-1.8C98.8,114.2,100.8,113.7,102.6,112.9z"/>
		<path class="st33" d="M117,121.5c0.1-0.1,0.1-0.3,0.2-0.4c-0.1,1.2-0.7,2.2-1.1,3.2c-1,2.2-1.6,4.6-1.3,7
			c-0.3-0.3-0.3-0.8-0.3-1.2c-0.1-2,0.3-4.1,1.2-5.9C116.1,123.4,116.6,122.5,117,121.5z"/>
		<path class="st34" d="M38,123.8c0.3-0.5,0.5-1,1-1.4c0.1,0.3-0.3,0.6-0.4,0.9c-1.9,3.8-3,7.8-4.2,11.9c-0.5,1.9-1.1,3.8-1.4,5.8
			c-0.2-0.3-0.1-0.6,0-0.9c0.4-2.2,1-4.3,1.6-6.4C35.5,130.3,36.4,126.9,38,123.8z"/>
		<path class="st31" d="M48.8,129c0.3-1,0.6-2.1,1.2-3c-0.8,2.3-1.3,4.6-1.8,7c-0.6,2.5-2.8,13.4-3.4,16.3c-0.6,2.5-1.1,4.9-1.9,7.4
			c-0.7,2-1.4,4-2.1,6c-0.3,0.7-0.5,1.6-1.1,2.2c0.5-1,0.9-2,1.2-3.1c0.8-2.4,1.6-4.8,2.2-7.3c0.5-2.1,0.9-4.2,1.4-6.3
			c0.6-2.6,1-5.3,1.6-7.9C46.9,136.6,47.8,132.8,48.8,129z"/>
		<path class="st30" d="M103,140c0.5,0.8,0.9,1.7,1.1,2.6c0.5,1.6,0.5,3.4,0.5,5c0,1.7,0,3.4,0,5.2c0,1.1,0.1,2.2-0.1,3.4
			c-0.1-0.6,0-1.2-0.1-1.8c-0.2-2.7-0.2-5.4-0.3-8.1c0-1.6-0.2-3.2-0.7-4.7C103.4,141,103.1,140.6,103,140z"/>
		<path class="st30" d="M60,145.3c0.2-0.4,0.2-0.8,0.5-1.2c-0.3,1.8-1.1,3.4-2.1,4.8c-1.5,2.3-3.1,4.6-4.4,7c-0.3,0.5-0.5,1-0.9,1.4
			c0.9-1.8,1.9-3.5,3-5.2c0.8-1.3,1.6-2.5,2.5-3.8C59.1,147.4,59.6,146.4,60,145.3z"/>
		<path class="st32" d="M114.2,149.9c0-0.3-0.1-0.7,0.1-1c0.6,2.3,0.2,4.6-0.1,6.9c-0.4,3-1.1,5.9-1.5,8.9c-0.2,0.9-0.2,1.8-0.3,2.7
			c-0.1-0.4-0.1-0.8-0.1-1.2c0.2-2.7,0.7-5.4,1.2-8c0.3-1.6,0.5-3.1,0.7-4.7C114.2,152.2,114.4,151,114.2,149.9z"/>
		<path class="st31" d="M91.4,163.3c1.8-0.3,3.7-0.4,5.5-0.4c1,0,2,0.1,3,0.1c0,0.1,0,0.2,0,0.3c-1,0.1-2,0-2.9,0
			c-2.6,0.1-5.2,0.4-7.8,0.9c-1,0.2-2,0.5-3,1c-0.3,0.1-0.6,0.4-0.9,0.4c0.1-0.5,0.6-0.7,1-0.9C87.9,164,89.7,163.6,91.4,163.3z"/>
		<path class="st35" d="M34.7,163.9c0.3,0.2,0.4,0.5,0.6,0.8c0.3,0.6,0.6,1.2,0.9,1.9c0.1,0.2,0.1,0.4,0.1,0.6
			C35.7,166.1,35,165,34.7,163.9z"/>
		<path class="st35" d="M33.9,164.6c0.4,0,0.5,0.3,0.7,0.6c0.5,0.6,0.8,1.2,1.2,1.8c-0.4-0.3-0.7-0.6-1-1
			C34.5,165.5,34.1,165.1,33.9,164.6z"/>
		<path class="st36" d="M124.2,166.6c0.1-0.3,0.1-0.6,0.4-0.8c0.6,0.1,1.3,0.3,1.9,0.4c1.5,0.5,3.1,0.7,4.6,1c1,0.2,2,0.3,3,0.5
			c0.4-0.4,0.7-0.9,1.2-1.1c0.7-0.3,1.4-0.1,2.1,0c0.4,0.1,1,0,1.3,0.5c0.1,0.1,0,0.3,0,0.5l0-0.2c-0.8-0.3-1.7-0.5-2.6-0.4
			c-0.3,0-0.5,0.3-0.6,0.6c-0.4,1-0.5,2.1-0.7,3.2c0,0.3,0,0.8,0.4,0.9c0.8,0.4,1.7,0.3,2.6,0.2c0,0.3-0.3,0.6-0.6,0.6
			c-0.9,0.1-1.8,0.1-2.6-0.2c-0.5-0.2-0.8-0.8-1.2-1.1c-0.7-0.2-1.4-0.1-2.2-0.2c-2.4-0.3-4.7-1-6.9-1.8c-0.3-0.1-0.6-0.3-0.6-0.7
			C123.9,167.9,124,167.2,124.2,166.6z"/>
		<path class="st37" d="M135.5,167.5c0.1-0.3,0.3-0.6,0.6-0.6c0.9-0.1,1.8,0,2.6,0.4l0,0.2c-0.3,1.5-0.4,3-0.8,4.5
			c-0.8,0-1.8,0.1-2.6-0.2c-0.4-0.1-0.4-0.6-0.4-0.9C135,169.6,135.2,168.5,135.5,167.5z"/>
		<path class="st38" d="M46.2,170.5c0.1-0.3,0.1-0.7,0.3-0.9c0.3-0.1,0.2,0.3,0.2,0.5c-0.2,1-0.5,2-0.7,3c-0.4,1.9-0.8,3.7-1,5.6
			c-0.1,0-0.2,0-0.2,0c0-1.1,0.2-2.1,0.4-3.1C45.4,173.9,45.8,172.1,46.2,170.5z"/>
		<path class="st38" d="M94.2,176.3c0-0.6-0.2-1.1-0.1-1.7c0.3-0.1,0.4,0.2,0.4,0.5c0.2,1.4,0.2,2.9,0.3,4.3c0,2.1,0,4.2,0,6.3
			c-0.1,0-0.2,0-0.3,0C94.5,182.6,94.5,179.4,94.2,176.3z"/>
		<path class="st35" d="M124.8,177.9c0.1-0.3,0.2-0.7,0.5-0.9c-0.2,0.8-0.5,1.5-1,2.1C124.5,178.6,124.7,178.2,124.8,177.9z"/>
		<path class="st35" d="M125.2,178.2c0.2-0.3,0.3-0.6,0.7-0.7c-0.2,0.7-0.6,1.2-1.1,1.7C124.7,178.8,125,178.5,125.2,178.2z"/>
		<path class="st39" d="M103.5,181.6c0.1-0.3,0.1-0.7,0.5-0.7c0.1,0.5-0.2,1-0.3,1.5c-0.7,2.1-1.4,4.2-2,6.3c-0.3,1-0.6,2.1-0.7,3.1
			c-0.1,0-0.2,0-0.2,0c0.2-2,0.8-3.9,1.4-5.9C102.6,184.4,103,183,103.5,181.6z"/>
		<path class="st35" d="M132,183c0.1,0,0.2,0,0.2,0c-0.2,0.8-0.6,1.6-1,2.4c-0.7,1.3-1.6,2.3-2.5,3.4c-0.5,0.5-1,1.2-1.7,1.4
			c1.3-1.1,2.4-2.5,3.3-3.9C131,185.3,131.5,184.2,132,183z"/>
		<path class="st10" d="M128.2,184.8c0.3-0.6,0.4-1.2,0.7-1.8c0,0.3,0,0.6,0,0.9c0.2-0.3,0.5-0.6,0.8-0.8c-0.1,0.4-0.4,0.7-0.7,1
			c-0.3,0.3-0.4,0.7-0.6,1.1c-0.9,1.6-1.9,3.1-3.1,4.4c-0.1,0.2-0.3,0.3-0.5,0.4c0.4-0.6,0.9-1.1,1.3-1.7
			C126.9,187.2,127.6,186,128.2,184.8z"/>
		<path class="st35" d="M131.1,187.4c1.1-1.4,1.5-3.2,2.8-4.4c-0.4,0.7-0.8,1.3-1.2,2C132.3,185.9,131.8,186.7,131.1,187.4z"/>
		<path class="st38" d="M69,195.2c0.1-0.7,0.2-1.5,0.5-2.2c0.1,0.1,0.1,0.3,0.1,0.5c-0.3,1.5-0.3,3-0.4,4.5c0,1.4-0.3,2.8-0.4,4.2
			c-0.2,2.1-0.9,4.2-1.3,6.3c-0.1,0.6-0.2,1.3-0.3,1.9c0,0.2-0.1,0.2-0.3,0.3c0-1.4,0.2-2.7,0.4-4.1c0.2-1.2,0.5-2.4,0.8-3.6
			c0.2-1.2,0.4-2.3,0.5-3.5C68.9,198,68.8,196.6,69,195.2z"/>
		<path class="st38" d="M110.9,207.5c0.4-1.3,0.5-2.7,1.1-4c-0.1,1.1-0.4,2.1-0.5,3.2c-0.3,1.7-1,3.3-1.8,4.9c-1.1,2-2.2,4-3.3,6
			c-1,1.9-2,3.8-2.9,5.8c-0.2,0.5-0.4,1-0.8,1.3c0-0.4,0.2-0.7,0.4-1c1.6-3.6,3.3-7.2,5.2-10.7C109.3,211.2,110.3,209.4,110.9,207.5
			z"/>
		<path class="st38" d="M23.2,206.8c0.1,0,0.2,0,0.2,0c0.4,1.3,0.8,2.6,1,3.9c0.4,1.9,0.8,3.8,1.3,5.6c1,3.5,3.1,6.6,5,9.7
			c0.5,0.8,1.1,1.6,1.6,2.4c0.1,0.1,0.2,0.3,0.2,0.5c-0.5-0.5-0.9-1.1-1.3-1.6c-1.3-1.8-2.5-3.7-3.7-5.5c-0.9-1.5-1.7-3-2.2-4.6
			c-0.6-2-1.1-4-1.5-6.1C23.8,209.6,23.5,208.2,23.2,206.8z"/>
		<path class="st38" d="M64.9,213.1c0.3-0.5,0.4-1,0.7-1.4c-0.1,0.8-0.5,1.5-0.8,2.2c-0.9,1.9-2.3,3.4-3.6,5c-1.4,1.7-2.7,3.4-4,5.2
			c-0.8,1.1-1.5,2.3-2.3,3.4c-0.1,0.2-0.2,0.1-0.4,0.1c2.1-3.7,4.5-7.1,7.1-10.4C63,216,64.1,214.6,64.9,213.1z"/>
		<path class="st38" d="M36.5,218.7c-0.1-0.3-0.2-0.7,0-1c0.6,1.8,1.4,3.6,2.2,5.4c0.8,2,1.6,3.9,2.3,6c0.4,1.3,0.9,2.7,1.1,4.1
			c0.1,0.4,0.2,0.8,0,1.1c-0.2-0.5-0.3-1-0.4-1.5c-0.5-1.8-1.1-3.5-1.7-5.2c-0.8-2.1-1.7-4.1-2.6-6.2
			C37.1,220.4,36.8,219.5,36.5,218.7z"/>
		<path class="st40" d="M68.2,225.7c-0.1-0.5-0.3-0.9-0.2-1.4c0.5,1.8,1.1,3.6,2,5.3c0.8,1.6,1.7,3.1,2.7,4.6c1.2,1.7,2.3,3.4,3.6,5
			c-0.3-0.1-0.5-0.3-0.7-0.6c-1-1.2-1.9-2.5-2.8-3.7c-0.9-1.3-1.8-2.5-2.5-3.9C69.5,229.3,68.7,227.6,68.2,225.7z"/>
		<path class="st39" d="M102,230.7c0.1-0.1,0.2-0.2,0.4-0.2c-0.3,0.9-0.9,1.5-1.5,2.2c-2.9,3.3-5.8,6.7-8.6,10.1c-0.1,0-0.2,0-0.3,0
			c2.2-2.9,4.6-5.7,7-8.5C100,233.1,101.1,232,102,230.7z"/>
		<path class="st38" d="M59.9,232.1c0.1-0.2,0.2-0.6,0.5-0.6c-0.1,1-0.6,1.9-1.1,2.8c-1.8,2.9-3.7,5.7-5.2,8.7
			c-0.3,0.6-0.5,1.2-0.9,1.7c-0.1-0.4,0.2-0.7,0.3-1c0.7-1.7,1.5-3.2,2.4-4.8c0.9-1.5,1.7-3,2.6-4.5
			C59.1,233.6,59.6,232.9,59.9,232.1z"/>
		<path class="st38" d="M24.4,232.9c0.1,2.2,0.8,4.4,1.9,6.4c1.6,2.7,4,4.8,6.1,7.1c0.2,0.3,0.6,0.6,0.5,1c-0.4-0.3-0.6-0.7-0.9-1
			c-0.9-0.9-1.9-1.8-2.8-2.8c-1.1-1.2-2.3-2.4-3.1-3.8c-1-1.8-1.7-3.9-1.8-5.9C24.3,233.6,24.4,233.2,24.4,232.9z"/>
		<path class="st39" d="M104,237.1c0.2-0.3,0.4-0.7,0.7-0.9c-0.1,0.7-0.5,1.2-0.9,1.8c-1.8,2.4-4.1,4.4-6.2,6.5c-1,1-2,2-3,3.1
			c-0.2,0.2-0.3,0.4-0.6,0.3c2.2-2.7,4.7-5,7.1-7.5C102.1,239.3,103.1,238.3,104,237.1z"/>
		<path class="st38" d="M34.2,239.3c0.5,0,0.7,0.5,0.9,0.8c0.9,1.5,1.7,3,2.4,4.5c0.6,1.4,1.3,2.9,1.4,4.5c-0.1,0-0.2,0-0.3,0
			c-0.2-1.5-0.8-2.8-1.5-4.2c-0.6-1.2-1.2-2.4-1.9-3.6c-0.3-0.5-0.5-1-0.8-1.5C34.4,239.7,34.3,239.5,34.2,239.3z"/>
		<path class="st39" d="M75,244.1c0.1,0,0.2,0,0.3,0c0.4,0.5,0.9,0.9,1.3,1.4c1.3,1.4,2.4,3.1,3.4,4.7c0.7,1.3,1.3,2.6,1.7,4.1
			c-0.1,0-0.2,0-0.2,0c-0.4-1.5-1.1-2.9-1.9-4.2c-0.9-1.5-2-3-3.2-4.3C75.8,245.2,75.3,244.7,75,244.1z"/>
		<path class="st38" d="M100.6,252.2c0,0.1,0.1,0.2,0.1,0.2c-0.5,1.2-1.4,2.3-2.3,3.3c-1,1.1-2.1,2.1-3.2,3.1
			c-1.6,1.4-3.1,2.9-4.7,4.3c-0.2,0.2-0.4,0.5-0.8,0.5c0.8-1,1.8-1.8,2.7-2.7c1.2-1.2,2.4-2.3,3.7-3.5c1.1-1.1,2.2-2.2,3.2-3.4
			C99.7,253.4,100.1,252.8,100.6,252.2z"/>
		<path class="st39" d="M90.3,255.6c0.5-0.5,0.8-1.2,1.4-1.6c0,0.4-0.3,0.6-0.5,0.9c-1.8,2.4-3.5,4.8-5.3,7.2
			c-0.2,0.2-0.3,0.6-0.7,0.5C87,260.2,88.6,257.9,90.3,255.6z"/>
		<path class="st39" d="M75.5,258.7c0.7,0.4,1,1.1,1.5,1.7c0.8,1.4,1.6,2.7,2.3,4.2c-0.1,0-0.2,0-0.3,0c-0.9-1.6-1.8-3.2-2.8-4.8
			C75.9,259.4,75.4,259.1,75.5,258.7z"/>
		<path class="st41" d="M40.4,266l0-0.1L40.4,266c0.2,1.2,0.1,2.4,0.1,3.6c0,1.5,0.1,3,0,4.5l0,0.1l0-0.1c-0.1-1.1-0.1-2.1-0.1-3.2
			c0-0.9-0.1-1.8,0-2.7C40.4,267.5,40.3,266.8,40.4,266z"/>
		<path class="st41" d="M52.1,270.3c0.2-1.3,0.3-2.7,0.4-4c0.1,0.9,0,1.7-0.1,2.6c-0.1,1.2-0.3,2.4-0.5,3.7
			c-0.1,0.5-0.1,1.1-0.4,1.6C51.8,272.8,51.9,271.5,52.1,270.3z"/>
		<path class="st38" d="M55.1,264.4c-0.2,0-0.4,0-0.5,0.1c-0.6,0.3-1.1,0.7-1.8,0.8c-1,0.2-1.9,0.5-2.9,0.6c-0.8,0.1-1.5,0-2.3,0.1
			c-1.2,0.1-2.5,0.1-3.7,0c-1.6-0.1-3.1-0.5-4.7-0.7c-1.1-0.1-2.1-0.3-3.1-0.4c-0.9-0.1-1.9-0.2-2.8-0.5c-0.2-0.1-0.5-0.2-0.8-0.1
			c-0.1,0.2,0,0.3,0.2,0.4c0.3,0.2,0.7,0.2,1,0.3c0.2,3,1.9,5.6,3,8.4c-0.2,0-0.4,0-0.6,0.1c0.4,0.5,1.2,0.4,1.8,0.7
			c0,0,0.1-0.1,0.1-0.1c0.2,0,0.4,0.1,0.6,0.1c0.7,0.2,1.5,0,2.2,0.3c1.4,0.2,2.9,0.4,4.3,0.4c1.3,0,2.5,0,3.8-0.1
			c1.3-0.1,2.7,0,3.9-0.4c0.3-0.2,0.7-0.2,0.8-0.6c-0.5,0.1-1,0.2-1.4,0.3c0.7-1.8,1.2-3.6,1.3-5.5c0-0.9,0.2-1.8,0.1-2.8
			c-0.2,0.4-0.2,0.8-0.2,1.2c-0.3,2.4-0.4,4.9-1.3,7.1c-0.8,0.3-1.6,0.4-2.4,0.4c-1.2,0.1-2.5,0.1-3.7,0.1c0.2-1.3,0.3-2.6,0.4-3.9
			c0.1-1.4,0.2-2.7,0.2-4.1c1.2,0,2.4,0,3.6-0.1c0,2.6-0.3,5.2-0.6,7.8c0.3-0.9,0.3-1.9,0.4-2.8c0.2-1.7,0.4-3.3,0.3-5
			c0.3,0,0.7-0.1,1-0.2c1-0.3,2-0.4,2.9-1C54.7,265.1,55.2,264.9,55.1,264.4z M36.8,273.6c-0.5-1.5-1.2-3-1.7-4.6
			c-0.5-1.3-0.8-2.6-1.1-3.9c0.6,0.1,1.2,0.2,1.8,0.3c-0.1,1.1,0.2,2.3,0.3,3.4c0.3,1.7,0.9,3.4,1.5,5
			C37.4,273.7,37.1,273.6,36.8,273.6z M37.7,273.7c-0.7-1.8-1.1-3.6-1.4-5.5c-0.2-0.9-0.2-1.9-0.4-2.8c0.5,0.1,1,0.2,1.5,0.2
			c0.1,1.9,0.3,3.8,0.7,5.7c0.1,0.7,0.3,1.4,0.6,2.1c0,0,0.1,0,0.1,0c-0.2-0.4-0.3-0.9-0.4-1.4c-0.3-1.9-0.6-3.8-0.8-5.7
			c0-0.2,0-0.5,0-0.7c0.5,0.1,1,0.1,1.5,0.2c0,1.9,0,3.8,0.2,5.7c0.1,0.8,0.1,1.7,0.2,2.5C38.8,274,38.3,273.9,37.7,273.7z
			 M39.4,274.1c0-0.9,0-1.8-0.1-2.6c0-0.9-0.1-1.8-0.1-2.6c0-1,0-1.9,0-2.9c0.4,0,0.8,0.1,1.2,0.1c-0.1,0.7,0,1.5-0.1,2.2
			c-0.1,0.9,0,1.8,0,2.7c0,1.1,0,2.1,0.1,3.2C40.1,274.2,39.8,274.1,39.4,274.1z M40.5,274.2c0.1-1.5,0-3,0-4.5c0-1.2,0.1-2.4,0-3.6
			c1.1,0.1,2.2,0.4,3.3,0.4c-0.2,2.1-0.4,4.3-0.7,6.4c-0.1,0.5-0.2,1-0.2,1.4c0.2-0.4,0.3-1,0.4-1.5c0.3-1.6,0.5-3.2,0.6-4.8
			c0-0.5,0-1,0-1.5c0.5,0,0.9,0,1.4,0.1c-0.2,1.7-0.4,3.4-0.7,5.2c-0.1,0.9-0.3,1.9-0.4,2.8C43,274.5,41.7,274.3,40.5,274.2z
			 M46.1,274.5c-0.6,0-1.2,0-1.8,0c0.3-1.7,0.6-3.5,0.9-5.2c0.1-0.9,0.3-1.9,0.3-2.8c0.4,0,0.8,0,1.2,0
			C46.6,269.2,46.4,271.9,46.1,274.5z"/>
		<path class="st41" d="M48.6,266.9c0.2,0.4,0.1,0.9,0.1,1.4c-0.1,2.1-0.2,4.1-0.5,6.2c0-1,0.2-2.1,0.2-3.1
			C48.4,269.8,48.4,268.3,48.6,266.9z"/>
		<path class="st41" d="M72,272.7c-0.1-0.6-0.2-1.1-0.1-1.7c0.2,1.8,0.5,3.7,1,5.4c0.2,0.9,0.5,1.9,0.7,2.8
			c-0.4-1.4-0.8-2.7-1.1-4.1C72.3,274.4,72.1,273.6,72,272.7z"/>
		<path class="st42" d="M72.9,271.3c0.6,2.8,0.8,5.6,1.7,8.3c0.1,0.1,0.1,0.3,0.2,0.4c-0.1,0-0.1-0.1-0.2-0.1c-0.5-0.9-0.7-2-1-3
			c-0.3-1.4-0.5-2.8-0.7-4.2C72.9,272.3,72.8,271.8,72.9,271.3z"/>
		<path class="st43" d="M75.9,277.6c-0.4-1.7-0.7-3.6-0.4-5.3c0.2,1.3,0.2,2.7,0.4,4c0.2,1.4,0.5,2.8,0.7,4.2
			C76.3,279.5,76.1,278.5,75.9,277.6z"/>
		<path class="st41" d="M76.5,272.4c0.1,0,0.3,0.1,0.4,0.1c-0.1,0-0.2-0.1-0.3-0.1c0.2,1.3,0.2,2.6,0.4,3.9c0.2,1.7,0.5,3.3,0.8,4.9
			c-0.3-0.4-0.3-1-0.5-1.5C76.8,277.4,76.6,274.9,76.5,272.4z"/>
		<path class="st44" d="M79,273c0,0,0.1,0.1,0.1,0.1c0.2,1.8,0.2,3.6,0.3,5.4c0.1,1.1,0.1,2.3,0.3,3.4c-0.2,0-0.3-0.1-0.5-0.1
			c0.1,0,0.3,0,0.4,0.1C79.2,279,79,276,79,273z"/>
		<path class="st41" d="M85.7,274.3l0.1,0c-0.2,2.7-0.5,5.3-0.9,8c0.1-1.5,0.4-2.9,0.5-4.3C85.6,276.8,85.6,275.6,85.7,274.3z"/>
		<path class="st38" d="M93.9,273.6c-0.7,0-1.3,0.3-1.9,0.3c-0.8,0.1-1.6,0-2.3-0.1c-1.5-0.1-3.1-0.1-4.6-0.4
			c-1.4-0.2-2.9-0.3-4.3-0.6c-1.7-0.4-3.4-0.6-5-1.2c-1.5-0.3-3-1-4.4-1.6c-0.3-0.2-0.4,0.3-0.2,0.4c0.9,0.6,2,0.9,3,1.3
			c0.1,0.6,0.1,1.2,0.2,1.8c0.1,1.7,0.4,3.4,0.8,5c0.2,0.7,0.3,1.5,0.6,2.1c0-0.2-0.1-0.5-0.2-0.7c-0.7-2.7-1-5.5-1.3-8.3
			c0.8,0.2,1.5,0.4,2.3,0.7c0.1,0,0.3,0.1,0.4,0.1c0.3,0.1,0.6,0.2,0.9,0.3c0.1,3.1,0.5,6.1,1.1,9.1c-0.9-0.2-1.8-0.2-2.6-0.5
			c-0.6-0.2-1.2-0.4-1.8-0.7c-0.4-0.2-0.9-0.3-1.3-0.2c0.1,0.1,0.2,0.3,0.4,0.3c0.8,0.3,1.5,0.7,2.4,1c1.7,0.6,3.5,0.8,5.4,1
			c0.6,0.1,1.2,0.2,1.8,0.3c0,0.1,0,0.2,0.1,0.3c0-0.1,0-0.2,0-0.3c2.3,0.3,4.7,0.3,7,0.1c0.6-0.1,1.3-0.2,1.6-0.8
			c-0.4,0-0.8,0.1-1.1,0.1c0.4-0.7,0.8-1.5,1.1-2.3c0.8-1.9,1.6-3.8,2-5.9c0.6-0.1,1.3-0.2,1.6-0.8
			C94.9,273.4,94.4,273.6,93.9,273.6z M79.2,281.9c0,0-0.1,0-0.2-0.1c-0.1-0.3-0.2-0.6-0.2-1c-0.3-1.7-0.5-3.3-0.7-5
			c-0.1-0.7,0-1.3-0.1-2c0-0.3,0-0.7,0-1c0.4,0.1,0.7,0.2,1.1,0.2c0,3,0.1,6,0.6,8.9C79.5,281.9,79.3,281.9,79.2,281.9z M79.7,282
			c-0.2-1.1-0.2-2.3-0.3-3.4c-0.1-1.8-0.1-3.6-0.3-5.4c0.5,0.1,1,0.2,1.6,0.3c0,0.2,0,0.3,0.1,0.5c-0.1,0.4,0,0.9,0,1.3
			c0.1,2.3,0,4.6,0.1,6.9C80.4,282.1,80,282,79.7,282z M80.9,282.1c0-1.8,0-3.5,0-5.3c0-1.1,0.1-2.2-0.1-3.3
			c0.5,0.1,0.9,0.2,1.4,0.2c0.1,2.9-0.1,5.8-0.1,8.6C81.7,282.2,81.3,282.1,80.9,282.1z M82.2,282.4c0-2.9,0.2-5.8,0.1-8.7
			c0.5,0.1,1.1,0.1,1.6,0.2c0,1.9-0.2,3.7-0.3,5.5c-0.1,1-0.3,2-0.3,3.1C82.9,282.5,82.5,282.4,82.2,282.4z M83.4,282.5
			c0.2-1.6,0.5-3.2,0.6-4.8c0.1-1.3,0.3-2.6,0.2-3.8c1.1,0.2,2.3,0.3,3.4,0.4c0,1-0.2,2-0.3,3c-0.2,1.7-0.4,3.5-0.8,5.2
			C85.4,282.5,84.4,282.6,83.4,282.5z M86.5,282.6c0.3-1.2,0.5-2.4,0.7-3.5c0.2-1.6,0.5-3.1,0.6-4.7c0.6,0,1.1,0,1.7,0.1
			c-0.3,2.8-0.7,5.6-1.5,8.2C87.5,282.6,87,282.6,86.5,282.6z M90.8,281.9c-0.1,0.2-0.2,0.5-0.5,0.6c-0.8,0.1-1.6,0.2-2.3,0.1
			c0.5-1.5,0.8-2.9,1.1-4.4c0.2-1.3,0.5-2.5,0.6-3.8c0.7,0.1,1.4,0.1,2,0.1c-0.4,1.6-0.7,3.2-1.2,4.8c-0.3,0.9-0.7,1.8-0.9,2.7
			c1-2.4,1.8-4.9,2.3-7.5c0.5,0,1.1-0.1,1.6-0.2C92.7,276.9,92,279.5,90.8,281.9z"/>
		<path class="st26" d="M40.2,291.6c2.4-0.5,4.8-0.1,7.1,0.6c0.9,0.3,1.7,0.7,2.4,1.3c0.2,0.1,0.2,0.4,0.1,0.6
			c-0.2,0.1-0.4-0.1-0.6-0.2c-0.7-0.6-1.5-0.9-2.3-1.2c-2.1-0.6-4.4-1-6.6-0.6c-0.6,0.1-1.2,0.3-1.8,0.2
			C38.9,291.8,39.6,291.7,40.2,291.6z"/>
		<path class="st26" d="M39.9,293.7c2.4-0.5,4.8-0.1,7.1,0.6c0.9,0.3,1.7,0.7,2.4,1.3c0.2,0.1,0.2,0.4,0.1,0.6
			c-0.2,0.1-0.4-0.1-0.6-0.2c-0.7-0.6-1.5-0.9-2.3-1.2c-2.1-0.6-4.4-1-6.6-0.6c-0.6,0.1-1.2,0.3-1.8,0.2
			C38.6,293.8,39.3,293.8,39.9,293.7z"/>
		<path class="st26" d="M39.5,296.1c2.4-0.5,4.8-0.1,7.1,0.6c0.9,0.3,1.7,0.7,2.4,1.3c0.2,0.1,0.2,0.4,0.1,0.6
			c-0.2,0.1-0.4-0.1-0.6-0.2c-0.7-0.6-1.5-0.9-2.3-1.2c-2.1-0.6-4.4-1-6.6-0.6c-0.6,0.1-1.2,0.3-1.8,0.2
			C38.2,296.3,38.9,296.3,39.5,296.1z"/>
		<path class="st26" d="M39.3,298.5c2.4-0.5,4.8-0.1,7.1,0.6c0.9,0.3,1.7,0.7,2.4,1.3c0.2,0.1,0.2,0.4,0.1,0.6
			c-0.2,0.1-0.4-0.1-0.6-0.2c-0.7-0.6-1.5-0.9-2.3-1.2c-2.1-0.6-4.4-1-6.6-0.6c-0.6,0.1-1.2,0.3-1.8,0.2
			C38,298.7,38.7,298.6,39.3,298.5z"/>
		<path class="st26" d="M38.3,300.8c1.1-0.3,2.3-0.2,3.5-0.1c2.2,0.1,4.4,0.7,6.3,1.9c0.2,0.1,0.4,0.3,0.4,0.5
			c-0.1,0.1-0.2,0.3-0.4,0.3c-0.4-0.1-0.7-0.4-1.1-0.5c-0.8-0.4-1.7-0.8-2.6-1c-1.2-0.3-2.5-0.4-3.7-0.6c-0.8-0.1-1.7,0-2.5-0.1
			C38.3,301.1,38.3,300.9,38.3,300.8z"/>
		<path class="st9" d="M73.4,305.3c0.3,0.1,0.5,0.4,0.7,0.6c0.8,0.8,1.6,1.5,2.4,2.2c0.9,0.6,1.9,1.2,3,1.4c0.2,0.1,0.6,0,0.6,0.3
			c-0.9,0-1.8-0.3-2.6-0.7c-0.9-0.4-1.7-1.1-2.5-1.8C74.4,306.7,73.7,306.1,73.4,305.3z"/>
		<path class="st14" d="M34.7,305.7c0.1,0,0.2,0,0.2-0.1c0.1,0.4,0.1,0.8,0.3,1.2c0.3,0.8,0.3,1.6,0.8,2.3c0.5,0.7,0.9,1.6,1.7,2
			c0.6,0.3,1.2,0.7,1.8,0.9c0.6-0.7,1.5-1.2,2.5-1.3c0.7,0,1.4,0.2,2.1,0.4c0.5,0.2,0.9,0.6,1.1,1.2c1.4-0.3,2.6-1.1,3.6-2.1
			c0.9-0.8,1.5-1.9,2.1-3c0,0,0.1,0,0.2,0c-0.2,0.9-0.7,1.7-1.3,2.4c-0.3,0.4-0.6,0.7-0.9,1c-0.4,0.5-1,0.9-1.5,1.3
			c-0.6,0.5-1.3,0.6-2,0.8c-1.8,0.4-3.6,0.5-5.4,0c-0.6-0.2-1.3-0.4-1.9-0.8c-0.5-0.3-1.2-0.6-1.5-1.2c-0.6-0.8-1.3-1.6-1.4-2.7
			C35,307.2,34.6,306.5,34.7,305.7z"/>
		<path class="st45" d="M34.7,308.7c0.3,0.1,0.4,0.4,0.5,0.7c0.3,0.5,0.6,1,0.9,1.5c0.3,0.5,0.5,1,1,1.4c0.6,0.5,1.3,0.9,2,1.3
			c0.8,0.4,1.7,0.6,2.6,0.7c1,0.1,2,0.1,3-0.1c0.9-0.1,1.7-0.4,2.5-0.9c0.6-0.3,1-0.9,1.5-1.3c0.6-0.5,1-1.3,1.6-1.9
			c0,0.5-0.3,0.9-0.5,1.3c-0.2,0.4-0.6,0.8-0.9,1.1c-0.4,0.4-0.7,0.8-1.2,1.1c-1.9,1.2-4.3,1.6-6.5,1.2c-1-0.2-2.1-0.5-2.9-1.1
			c-0.8-0.5-1.7-1-2.2-1.9C35.6,310.8,34.8,309.9,34.7,308.7z"/>
		<path class="st26" d="M90.2,308.9c0.6,0,1.2-0.1,1.8,0.1c0.2,0.1,0.5,0.2,0.6,0.5c-0.1,0.1-0.1,0.2-0.2,0.3c-1-0.4-2.1-0.2-3.1,0
			c-1.5,0.3-3,1-4.2,2c-0.3,0.2-0.7,0.7-1.2,0.5c0.1-0.6,0.6-1,1-1.3c0.6-0.5,1.3-0.9,2-1.2C87.9,309.4,89,309,90.2,308.9z"/>
		<path class="st26" d="M88.5,306.6c0.6-0.1,1.3-0.3,1.9-0.2c0.3,0,0.5,0.2,0.7,0.4c0,0.1-0.1,0.2-0.1,0.4c-1.1-0.3-2.2,0.1-3.2,0.5
			c-1.6,0.6-3,1.5-4.1,2.8c-0.3,0.3-0.6,0.8-1.1,0.7c0-0.6,0.5-1.1,0.8-1.5c0.5-0.6,1.2-1.1,1.9-1.6
			C86.2,307.5,87.3,306.9,88.5,306.6z"/>
		<path class="st26" d="M87.3,304.8c0.7-0.2,1.3-0.4,2-0.2c0.3,0.1,0.6,0.2,0.7,0.5c0,0.1-0.1,0.3-0.2,0.4c-1.2-0.4-2.3,0.1-3.4,0.5
			c-1.6,0.6-3.2,1.7-4.3,3.2c-0.3,0.3-0.6,1-1.2,0.8c0-0.7,0.5-1.3,0.9-1.8c0.6-0.7,1.3-1.3,2-1.8C84.9,305.7,86,305,87.3,304.8z"/>
		<path class="st26" d="M89.1,311c1.1-0.4,2.3-0.7,3.4-0.6c0.3,0,0.7,0.1,0.8,0.4c0.1,0.2,0,0.3-0.1,0.5c-0.6-0.5-1.4-0.4-2.1-0.3
			c-1.4,0.3-2.8,0.7-4,1.6c-0.4,0.2-0.7,0.6-1.1,0.8c-0.1,0.1-0.4,0-0.4-0.2c0.1-0.3,0.4-0.5,0.6-0.7
			C87.2,311.9,88.1,311.3,89.1,311z"/>
		<path class="st9" d="M72.5,311.6c0.3,0,0.6,0.3,0.8,0.5c0.5,0.4,1.1,0.9,1.7,1.1c1.3,0.4,2.6,0.6,3.9,1c0.7,0.2,1.5,0.4,2.1,0.8
			c1.9,1,3.4,2.6,5.3,3.8c0.9,0.6,1.8,1.3,2.9,1.6c1,0.3,2,0.4,3,0.6c1.2,0.1,2.4,0.1,3.6-0.3c0-0.5,0.1-1,0.4-1.4
			c0.5-0.7,1.1-1.5,1.9-1.8c0.2-0.1,0.3,0,0.4,0.2c0.2,0.2,0.4,0.4,0.5,0.7c0.1,0.2,0.1,0.5,0.1,0.8c-0.8,0.8-1.8,1.4-2.9,1.8
			c-1.6,0.7-3.3,0.7-5,0.4c-0.9-0.2-1.9-0.3-2.7-0.7c-2.2-1.1-4.2-2.7-6.2-4.2c-0.7-0.5-1.4-0.9-2.1-1.3c-0.8-0.3-1.6-0.6-2.4-0.8
			c-1-0.3-2.1-0.5-3.1-0.8c-0.6-0.2-1-0.6-1.5-0.9C72.9,312.2,72.6,312,72.5,311.6z"/>
		<path class="st26" d="M88.8,313.3c1.1-0.7,2.4-1.2,3.7-1.3c0.5,0,1.2-0.1,1.6,0.3c0.1,0.1,0.3,0.4,0.1,0.5c-0.5-0.1-1-0.3-1.6-0.2
			c-1.8,0.2-3.4,1-4.9,2c-0.2,0.1-0.4,0.1-0.5,0.1C87.5,314.1,88.2,313.7,88.8,313.3z"/>
		<path class="st46" d="M44.5,312.4C44.8,312.2,44.5,312.7,44.5,312.4L44.5,312.4z"/>
		<path class="st45" d="M73,314.2c0.4-0.3,0.7,0.2,1.1,0.4c0.6,0.3,1.3,0.5,2,0.8c1.2,0.4,2.6,0.3,3.8,0.8c1.7,0.7,3,2.1,4.6,3.1
			c1.2,0.8,2.5,1.3,3.8,1.8c2.3,0.8,4.8,1.1,7.1,0.4c1-0.2,1.9-0.6,2.7-1.2c0.2-0.2,0.4-0.3,0.7-0.4c-0.1,0.4-0.5,0.5-0.8,0.7
			c-1.7,1.1-3.8,1.6-5.9,1.6c-1.4-0.1-2.7-0.4-4-0.8c-1.8-0.6-3.5-1.4-5.1-2.5c-1-0.6-1.9-1.4-3-2c-0.9-0.5-1.9-0.6-2.9-0.7
			c-1-0.1-2-0.5-3-0.9C73.7,315,73.3,314.6,73,314.2z"/>
		<path class="st47" d="M97.2,319.5C97.3,319.6,97.3,319.6,97.2,319.5L97.2,319.5z"/>
	</g>
</g>
</svg>
