<svg id="Layer_1" data-name="Layer 1" xmlns="http://www.w3.org/2000/svg" xmlns:xlink="http://www.w3.org/1999/xlink" viewBox="0 0 512 512"><defs><style>.cls-1{fill:none;}.cls-2{clip-path:url(#clip-path);}.cls-3{fill:#8aeddc;}.cls-3,.cls-6,.cls-9{opacity:0.5;isolation:isolate;}.cls-4{fill:#00d1b2;}.cls-5{clip-path:url(#clip-path-3);}.cls-6{fill:#a5a5db;}.cls-7{fill:#837fcb;}.cls-8{clip-path:url(#clip-path-6);}.cls-9{fill:#b1b1f2;}.cls-10{fill:#8c8cf9;}</style><clipPath id="clip-path"><rect class="cls-1" x="598.68" width="512" height="512"/></clipPath><clipPath id="clip-path-3"><rect class="cls-1" width="512" height="512"/></clipPath><clipPath id="clip-path-6"><rect class="cls-1" x="-580.54" width="512" height="512"/></clipPath></defs><title>megamenu-purple</title><g class="cls-2"><path class="cls-3" d="M805.88,1431.5s-414-277.4-389.1-415.9-62-346.9,310.1-605.6,462.3,105.7,462.3,105.7-239.4,828.6-264.8,816.7S805.88,1431.5,805.88,1431.5Z"/></g><g class="cls-2"><path class="cls-4" d="M409.28,683.3s222-252.8,416.9-280.4,447.2-67.8,438-259.6,282.6,625.6,282.6,625.6-848.2,140.7-854.2,140.9S409.28,683.3,409.28,683.3Z"/></g><g class="cls-5"><path class="cls-6" d="M-75.4,630.8S14.2,414.9,219.5,388.1s184.1-186,184.1-186S368-64.1,751.5-13.9,919.7,705,919.7,705L283.1,846.2Z"/></g><g class="cls-5"><path class="cls-6" d="M207.2,1431.5s-414-277.4-389.1-415.9-62-346.9,310.1-605.6S590.5,515.7,590.5,515.7s-239.4,828.6-264.8,816.7S207.2,1431.5,207.2,1431.5Z"/></g><g class="cls-5"><path class="cls-7" d="M-189.4,683.3s222-252.8,416.9-280.4,447.2-67.8,438-259.6S948.1,768.9,948.1,768.9,99.9,909.6,93.9,909.8-189.4,683.3-189.4,683.3Z"/></g><g class="cls-8"><path class="cls-9" d="M-655.94,630.8s89.6-215.9,294.9-242.7,184.1-186,184.1-186S-212.54-64.1,171-13.9,339.16,705,339.16,705l-636.6,141.2Z"/></g><g class="cls-8"><path class="cls-9" d="M-373.34,1431.5s-414-277.4-389.1-415.9-62-346.9,310.1-605.6S10,515.7,10,515.7s-239.4,828.6-264.8,816.7S-373.34,1431.5-373.34,1431.5Z"/></g><g class="cls-8"><path class="cls-10" d="M-769.94,683.3s222-252.8,416.9-280.4S94.16,335.1,85,143.3s282.6,625.6,282.6,625.6-848.2,140.7-854.2,140.9S-769.94,683.3-769.94,683.3Z"/></g></svg>