<svg id="Layer_1" data-name="Layer 1" xmlns="http://www.w3.org/2000/svg" xmlns:xlink="http://www.w3.org/1999/xlink" viewBox="0 0 512 512"><defs><style>.cls-1{fill:none;}.cls-2{clip-path:url(#clip-path);}.cls-3{fill:#97cbff;}.cls-12,.cls-15,.cls-18,.cls-3,.cls-6,.cls-9{opacity:0.5;isolation:isolate;}.cls-4{fill:#0f7cff;}.cls-5{clip-path:url(#clip-path-3);}.cls-6{fill:#70c4e5;}.cls-7{fill:#039be5;}.cls-8{clip-path:url(#clip-path-6);}.cls-9{fill:#6bceb4;}.cls-10{fill:#00b289;}.cls-11{clip-path:url(#clip-path-9);}.cls-12{fill:#8aeddc;}.cls-13{fill:#00d1b2;}.cls-14{clip-path:url(#clip-path-11);}.cls-15{fill:#a5a5db;}.cls-16{fill:#837fcb;}.cls-17{clip-path:url(#clip-path-14);}.cls-18{fill:#b1b1f2;}.cls-19{fill:#8c8cf9;}</style><clipPath id="clip-path"><rect class="cls-1" x="598.68" width="512" height="512"/></clipPath><clipPath id="clip-path-3"><rect class="cls-1" width="512" height="512"/></clipPath><clipPath id="clip-path-6"><rect class="cls-1" x="-580.54" width="512" height="512"/></clipPath><clipPath id="clip-path-9"><rect class="cls-1" x="598.68" y="-585.07" width="512" height="512"/></clipPath><clipPath id="clip-path-11"><rect class="cls-1" y="-585.07" width="512" height="512"/></clipPath><clipPath id="clip-path-14"><rect class="cls-1" x="-580.54" y="-585.07" width="512" height="512"/></clipPath></defs><title>megamenu-azur</title><g class="cls-2"><path class="cls-3" d="M805.88,1431.5s-414-277.4-389.1-415.9-62-346.9,310.1-605.6,462.3,105.7,462.3,105.7-239.4,828.6-264.8,816.7S805.88,1431.5,805.88,1431.5Z"/></g><g class="cls-2"><path class="cls-4" d="M409.28,683.3s222-252.8,416.9-280.4,447.2-67.8,438-259.6,282.6,625.6,282.6,625.6-848.2,140.7-854.2,140.9S409.28,683.3,409.28,683.3Z"/></g><g class="cls-5"><path class="cls-6" d="M-75.4,630.8S14.2,414.9,219.5,388.1s184.1-186,184.1-186S368-64.1,751.5-13.9,919.7,705,919.7,705L283.1,846.2Z"/></g><g class="cls-5"><path class="cls-6" d="M207.2,1431.5s-414-277.4-389.1-415.9-62-346.9,310.1-605.6S590.5,515.7,590.5,515.7s-239.4,828.6-264.8,816.7S207.2,1431.5,207.2,1431.5Z"/></g><g class="cls-5"><path class="cls-7" d="M-189.4,683.3s222-252.8,416.9-280.4,447.2-67.8,438-259.6S948.1,768.9,948.1,768.9,99.9,909.6,93.9,909.8-189.4,683.3-189.4,683.3Z"/></g><g class="cls-8"><path class="cls-9" d="M-655.94,630.8s89.6-215.9,294.9-242.7,184.1-186,184.1-186S-212.54-64.1,171-13.9,339.16,705,339.16,705l-636.6,141.2Z"/></g><g class="cls-8"><path class="cls-9" d="M-373.34,1431.5s-414-277.4-389.1-415.9-62-346.9,310.1-605.6S10,515.7,10,515.7s-239.4,828.6-264.8,816.7S-373.34,1431.5-373.34,1431.5Z"/></g><g class="cls-8"><path class="cls-10" d="M-769.94,683.3s222-252.8,416.9-280.4S94.16,335.1,85,143.3s282.6,625.6,282.6,625.6-848.2,140.7-854.2,140.9S-769.94,683.3-769.94,683.3Z"/></g><g class="cls-11"><path class="cls-12" d="M805.88,846.43s-414-277.4-389.1-415.9-62-346.9,310.1-605.6,462.3,105.7,462.3,105.7-239.4,828.6-264.8,816.7S805.88,846.43,805.88,846.43Z"/></g><g class="cls-11"><path class="cls-13" d="M409.28,98.23s222-252.8,416.9-280.4,447.2-67.8,438-259.6,282.6,625.6,282.6,625.6-848.2,140.7-854.2,140.9S409.28,98.23,409.28,98.23Z"/></g><g class="cls-14"><path class="cls-15" d="M-75.4,45.73S14.2-170.17,219.5-197,403.6-383,403.6-383,368-649.17,751.5-599s168.2,718.9,168.2,718.9L283.1,261.13Z"/></g><g class="cls-14"><path class="cls-15" d="M207.2,846.43s-414-277.4-389.1-415.9-62-346.9,310.1-605.6S590.5-69.37,590.5-69.37s-239.4,828.6-264.8,816.7S207.2,846.43,207.2,846.43Z"/></g><g class="cls-14"><path class="cls-16" d="M-189.4,98.23s222-252.8,416.9-280.4,447.2-67.8,438-259.6,282.6,625.6,282.6,625.6S99.9,324.53,93.9,324.73-189.4,98.23-189.4,98.23Z"/></g><g class="cls-17"><path class="cls-18" d="M-655.94,45.73S-566.34-170.17-361-197s184.1-186,184.1-186-35.6-266.2,347.9-216,168.2,718.9,168.2,718.9l-636.6,141.2Z"/></g><g class="cls-17"><path class="cls-18" d="M-373.34,846.43s-414-277.4-389.1-415.9-62-346.9,310.1-605.6S10-69.37,10-69.37s-239.4,828.6-264.8,816.7S-373.34,846.43-373.34,846.43Z"/></g><g class="cls-17"><path class="cls-19" d="M-769.94,98.23s222-252.8,416.9-280.4S94.16-250,85-441.77s282.6,625.6,282.6,625.6-848.2,140.7-854.2,140.9S-769.94,98.23-769.94,98.23Z"/></g></svg>