<?xml version="1.0" encoding="utf-8"?>
<!-- Generator: Adobe Illustrator 23.0.1, SVG Export Plug-In . SVG Version: 6.00 Build 0)  -->
<svg version="1.1" id="Layer_1" xmlns="http://www.w3.org/2000/svg" xmlns:xlink="http://www.w3.org/1999/xlink" x="0px" y="0px"
	 viewBox="0 0 129.1 109.5" style="enable-background:new 0 0 129.1 109.5;" xml:space="preserve">
<style type="text/css">
	.st0{fill:none;stroke:#3B3B59;stroke-width:2;stroke-linecap:round;stroke-linejoin:round;stroke-miterlimit:10;}
	.st1{fill:none;stroke:#837FCB;stroke-width:3;stroke-linecap:round;stroke-linejoin:round;stroke-miterlimit:10;}
	.st2{fill:none;stroke:#3B3B59;stroke-linecap:round;stroke-linejoin:round;stroke-miterlimit:10;}
	.st3{fill:none;stroke:#837FCB;stroke-width:2;stroke-linecap:round;stroke-linejoin:round;stroke-miterlimit:10;}
</style>
<g id="XMLID_29_">
	<g id="XMLID_30_">
		<path id="XMLID_31_" class="st0" d="M29.4,95.3c0,2.6-2.1,4.7-4.7,4.7s-4.7-2.1-4.7-4.7s2.1-4.7,4.7-4.7S29.4,92.7,29.4,95.3z"/>
		<path id="XMLID_32_" class="st1" d="M56,95.3c0,2.6-2.1,4.7-4.7,4.7s-4.7-2.1-4.7-4.7s2.1-4.7,4.7-4.7S56,92.7,56,95.3z"/>
		<path id="XMLID_33_" class="st0" d="M82.6,95.3c0,2.6-2.1,4.7-4.7,4.7c-2.6,0-4.7-2.1-4.7-4.7s2.1-4.7,4.7-4.7
			C80.5,90.6,82.6,92.7,82.6,95.3z"/>
		<path id="XMLID_34_" class="st2" d="M109.2,95.3c0,2.6-2.1,4.7-4.7,4.7c-2.6,0-4.7-2.1-4.7-4.7s2.1-4.7,4.7-4.7
			C107,90.6,109.2,92.7,109.2,95.3z"/>
	</g>
	<g id="XMLID_35_">
		<path id="XMLID_38_" class="st0" d="M29.4,68.3c0,2.6-2.1,4.7-4.7,4.7s-4.7-2.1-4.7-4.7s2.1-4.7,4.7-4.7S29.4,65.7,29.4,68.3z"/>
		<path id="XMLID_37_" class="st2" d="M56,68.3c0,2.6-2.1,4.7-4.7,4.7s-4.7-2.1-4.7-4.7s2.1-4.7,4.7-4.7S56,65.7,56,68.3z"/>
		<path id="XMLID_36_" class="st0" d="M82.6,68.3c0,2.6-2.1,4.7-4.7,4.7c-2.6,0-4.7-2.1-4.7-4.7s2.1-4.7,4.7-4.7
			C80.5,63.5,82.6,65.7,82.6,68.3z"/>
		<circle id="XMLID_39_" class="st3" cx="104.4" cy="68.3" r="4.7"/>
	</g>
	<g id="XMLID_40_">
		<path id="XMLID_43_" class="st3" d="M29.4,41.2c0,2.6-2.1,4.7-4.7,4.7s-4.7-2.1-4.7-4.7s2.1-4.7,4.7-4.7S29.4,38.6,29.4,41.2z"/>
		<path id="XMLID_42_" class="st0" d="M56,41.2c0,2.6-2.1,4.7-4.7,4.7s-4.7-2.1-4.7-4.7s2.1-4.7,4.7-4.7S56,38.6,56,41.2z"/>
		<path id="XMLID_41_" class="st0" d="M82.6,41.2c0,2.6-2.1,4.7-4.7,4.7c-2.6,0-4.7-2.1-4.7-4.7s2.1-4.7,4.7-4.7
			C80.5,36.5,82.6,38.6,82.6,41.2z"/>
		<path id="XMLID_44_" class="st0" d="M109.2,41.2c0,2.6-2.1,4.7-4.7,4.7c-2.6,0-4.7-2.1-4.7-4.7s2.1-4.7,4.7-4.7
			C107,36.5,109.2,38.6,109.2,41.2z"/>
	</g>
	<g id="XMLID_45_">
		<path id="XMLID_48_" class="st0" d="M29.4,14.2c0,2.6-2.1,4.7-4.7,4.7s-4.7-2.1-4.7-4.7c0-2.6,2.1-4.7,4.7-4.7
			S29.4,11.6,29.4,14.2z"/>
		<path id="XMLID_47_" class="st0" d="M56,14.2c0,2.6-2.1,4.7-4.7,4.7s-4.7-2.1-4.7-4.7c0-2.6,2.1-4.7,4.7-4.7S56,11.6,56,14.2z"/>
		<path id="XMLID_46_" class="st3" d="M82.6,14.2c0,2.6-2.1,4.7-4.7,4.7c-2.6,0-4.7-2.1-4.7-4.7c0-2.6,2.1-4.7,4.7-4.7
			C80.5,9.4,82.6,11.6,82.6,14.2z"/>
		<path id="XMLID_49_" class="st0" d="M109.2,14.2c0,2.6-2.1,4.7-4.7,4.7c-2.6,0-4.7-2.1-4.7-4.7c0-2.6,2.1-4.7,4.7-4.7
			C107,9.4,109.2,11.6,109.2,14.2z"/>
	</g>
</g>
</svg>
