<?xml version="1.0" standalone="no"?><svg xmlns="http://www.w3.org/2000/svg" viewBox="0 0 1440 320"><path fill="#ffffff" fill-opacity="1" d="M0,224L24,229.3C48,235,96,245,144,256C192,267,240,277,288,266.7C336,256,384,224,432,229.3C480,235,528,277,576,266.7C624,256,672,192,720,149.3C768,107,816,85,864,74.7C912,64,960,64,1008,69.3C1056,75,1104,85,1152,96C1200,107,1248,117,1296,112C1344,107,1392,85,1416,74.7L1440,64L1440,320L1416,320C1392,320,1344,320,1296,320C1248,320,1200,320,1152,320C1104,320,1056,320,1008,320C960,320,912,320,864,320C816,320,768,320,720,320C672,320,624,320,576,320C528,320,480,320,432,320C384,320,336,320,288,320C240,320,192,320,144,320C96,320,48,320,24,320L0,320Z"></path></svg>