<svg id="Calque_1" data-name="Calque 1" xmlns="http://www.w3.org/2000/svg" viewBox="0 0 1920 1186.8"><defs><style>.cls-1{fill:#4a00e0;}</style></defs><title>wavy-night</title><path class="cls-1" d="M1755.5,78.3a863.94,863.94,0,0,0-120.4,65.5c-65.5,34-100.5,149-100.5,149-17,71-78.5,156-78.5,156s-99,140-346,168C920.2,638.3,875.7,740.8,865.3,787h0c-5.2,22.3-16.9,36.8-21.1,41.3-28.7,30.2-53.1,41.6-59.4,44.2-61.6,24.1-145,38.6-204.7,88.3-95.3,79.3-288,83.3-288,83.3C82.8,1045.5,0,1186.8,0,1186.8H1920V.3C1846-4.2,1822.5,48.8,1755.5,78.3Z"/></svg>