<?xml version="1.0" encoding="utf-8"?>
<!-- Generator: Adobe Illustrator 23.0.1, SVG Export Plug-In . SVG Version: 6.00 Build 0)  -->
<svg version="1.1" id="Layer_1" xmlns="http://www.w3.org/2000/svg" xmlns:xlink="http://www.w3.org/1999/xlink" x="0px" y="0px"
	 viewBox="0 0 151.5 331.7" style="enable-background:new 0 0 151.5 331.7;" xml:space="preserve">
<style type="text/css">
	.st0{fill:#3B53B5;}
	.st1{fill:#FFFFFF;}
	.st2{fill:#E97951;}
	.st3{fill:#C4603D;}
	.st4{fill:#F9F8DC;}
	.st5{fill:#D4C9A3;}
	.st6{fill:#92A5FF;}
	.st7{fill:#5B75C9;}
	.st8{fill:#837FCB;}
	.st9{fill:#AFA079;}
	.st10{fill:#FCC14B;}
	.st11{fill:#6464AF;}
	.st12{fill:#143F4F;}
	.st13{fill:#1B4E61;}
	.st14{fill:#28667D;}
	.st15{fill:#184657;}
	.st16{fill:#F4A187;}
	.st17{fill:#D3826C;}
	.st18{fill:#151C2D;}
	.st19{fill:#E99679;}
	.st20{fill:#FC9DC2;}
	.st21{fill:#FF2453;}
	.st22{fill:#E21A4E;}
	.st23{fill:#FF227D;}
	.st24{fill:#C56442;}
	.st25{fill:#8A7D5B;}
	.st26{fill:#14333E;}
	.st27{fill:#12323E;}
	.st28{fill:#13333E;}
	.st29{fill:#102F3B;}
	.st30{fill:#C4613E;}
	.st31{fill:#46ACC3;}
	.st32{fill:#12313D;}
	.st33{fill:#D4C9A2;}
</style>
<g>
	<g>
		<path class="st0" d="M114.6,53.9c0.1,0,0.2,0,0.3,0c0.1,0.2,0.1,0.4,0.2,0.6c0.2,0.1,0.4,0.1,0.6,0.2c0.2-0.2,0.4-0.3,0.6-0.1
			c0.4,0.3,0.4,0.9,0.5,1.4c0.1,0.6,0.3,1.2,0.2,1.8c-0.2,0.4-0.2,1.1-0.7,1.3c-0.1,0.6,0,1.1-0.2,1.7c-0.1,0.3-0.4,0.2-0.7,0.3
			c0,0.5-0.1,0.9-0.1,1.4c0.1,0.5,0.2,0.9,0.4,1.4c0.2,0,0.4,0,0.5,0.2c0.2,0.6,0.3,1.3,0.6,2c0.1,0.3,0.2,0.5,0.3,0.8
			c0.2,0.1,0.5,0.1,0.6,0.3c0,0.5-0.4,0.9-0.8,1.2c-0.1,0-0.2,0-0.2,0c-0.2-0.1-0.3-0.2-0.5-0.3c0-0.1-0.1-0.2-0.1-0.3
			c-0.3-0.1-0.6-0.2-0.8-0.5c-0.5-0.8-1.1-1.7-1.1-2.7c0.1-0.9-0.2-1.8,0.1-2.6c0-0.2,0.2-0.2,0.4-0.3c0-0.5-0.1-1-0.2-1.5
			c-0.2-1.2-0.1-2.4,0-3.6c0-0.6,0-1.2,0-1.9c0-0.2,0.1-0.3,0.2-0.4C114.6,54.1,114.6,54,114.6,53.9z"/>
		<path class="st1" d="M115.1,64.6c-0.1-0.5-0.3-1.1-0.1-1.6c0.2,0.5,0.3,1,0.4,1.5C115.3,64.5,115.2,64.5,115.1,64.6z"/>
		<path class="st2" d="M31.3,279.2c0.6-0.1,1.2-0.1,1.8-0.1c1.8-0.1,3.5,0.3,5.2,0.8c0.9,0.3,1.9,0.6,2.8,1.1c0.4,0.2,0.7,0.4,1,0.8
			c0.2,0.3,0.1,0.6,0,0.9c-0.2,0.5-0.4,1-0.5,1.5c-1.2-0.4-2.5-0.6-3.7-1c-1.6-0.6-3.2-1.2-4.8-1.9c-0.7-0.3-1.4-0.6-2.1-0.6
			c-0.4,0-0.8-0.2-1.2-0.3c0-0.1,0-0.4,0.2-0.4C30.4,279.6,30.8,279.3,31.3,279.2z"/>
		<path class="st3" d="M29.8,280.2c0.4,0.2,0.8,0.3,1.2,0.3c0.7,0.1,1.4,0.4,2.1,0.6c1.6,0.7,3.1,1.4,4.8,1.9c1.2,0.4,2.5,0.6,3.7,1
			c-0.3,0.9-0.6,1.8-1,2.7c-1.6-0.1-3.2-0.6-4.7-1.2c-1.4-0.5-2.9-0.9-4.1-1.7c-0.6-0.4-1.1-0.9-1.6-1.3c-0.2-0.2-0.3-0.3-0.4-0.6
			C29.8,281.5,29.8,280.9,29.8,280.2z"/>
		<path class="st2" d="M29.8,284.3c-0.1-0.7-0.1-1.5,0-2.2c0.1,0.2,0.2,0.4,0.4,0.6c0.5,0.5,1,1,1.6,1.3c1.3,0.8,2.7,1.2,4.1,1.7
			c1.5,0.6,3.1,1.1,4.7,1.2c-0.5,1.5-1.1,2.9-1.5,4.3c-0.3,0.9-0.6,1.9-1,2.8c-0.5,1.2-0.7,2.4-1.2,3.6c-0.3,0.8-0.6,1.6-0.8,2.4
			c-0.6,0.6-1,1.3-1.6,1.7c-0.7,0.5-1.5,0.8-2.3,0.7c-0.8,0-1.5-0.4-2.3-0.8c-0.8-0.4-1.2-1.3-1.4-2.1c-0.3-0.8-0.4-1.6-0.4-2.4
			c0-1,0-2.1,0.2-3.1c0.1-0.3,0.1-0.7,0-1c0.5-1.5,1-3.1,1.3-4.7C29.6,287.1,29.8,285.7,29.8,284.3z"/>
		<path class="st2" d="M97.2,288.9c0.4,0,0.8-0.2,1.3-0.2c0.4,0.2,0.1,0.8,0.1,1.1l0,0c-0.8,0.1-1.6,0.4-2.5,0.6
			c-1.4,0.3-2.9,0.6-4.4,0.8c-0.9,0.1-1.8-0.3-2.7-0.5c-0.8-0.3-1.6-0.5-2.5-0.8c0-0.2,0.1-0.3,0.1-0.5c0.1,0,0.2,0,0.2,0
			c0,0.1,0.1,0.2,0.1,0.3c1.1-0.5,2.2-0.5,3.4-0.6C92.6,289,94.9,289.1,97.2,288.9z"/>
		<path class="st3" d="M96.1,290.4c0.8-0.2,1.6-0.4,2.5-0.6c-0.2,1.1-0.4,2.1-0.6,3.2l0,0c-0.8,0.3-1.6,0.6-2.4,0.8
			c-1.6,0.4-3.2,0.4-4.8,0.3c-1.2-0.1-2.4-0.4-3.6-0.9c-0.2-0.8-0.3-1.6-0.5-2.4c-0.1-0.3-0.1-0.6-0.1-0.9c0.8,0.3,1.6,0.5,2.5,0.8
			c0.9,0.3,1.8,0.7,2.7,0.5C93.2,291.1,94.6,290.8,96.1,290.4z"/>
		<path class="st2" d="M95.5,293.8c0.8-0.2,1.6-0.5,2.4-0.8c-0.2,1-0.4,1.9-0.6,2.9c-0.3,1.6-0.7,3.2-0.5,4.9
			c0.2,1.5,0.5,3.1,0.6,4.6c-0.7,0.6-1.4,1.2-2.3,1.5c-0.6,0.1-1.2,0-1.8,0c-0.9,0-1.8,0.1-2.6-0.2c-0.7-0.3-1.3-0.8-1.8-1.4
			c0,0.1-0.1,0.3-0.1,0.4c0-1.6,0-3.1-0.1-4.7c0-1-0.2-2-0.4-3c-0.3-1.6-0.7-3.3-1.1-4.9c1.1,0.5,2.3,0.8,3.6,0.9
			C92.3,294.2,93.9,294.1,95.5,293.8z"/>
		<path class="st3" d="M27.5,294.2c0.3-0.3,0.4-0.7,0.6-1c0.1,0.3,0.1,0.7,0,1c-0.2,1-0.2,2-0.2,3.1c0,0.8,0.1,1.6,0.4,2.4
			c0.3,0.8,0.6,1.7,1.4,2.1c0.7,0.3,1.4,0.8,2.3,0.8c0.8,0.1,1.7-0.2,2.3-0.7c0.7-0.5,1.1-1.2,1.6-1.7c0,0.1,0,0.3-0.1,0.5
			c0,0.1,0,0.3,0,0.4c-0.5,0.9-1.1,1.7-2,2.2c-0.8,0.4-1.8,0.3-2.7,0.2c-0.9-0.2-1.7-0.8-2.4-1.4c-0.7-0.7-1.1-1.7-1.3-2.7
			c-0.3-1.1-0.3-2.3-0.2-3.5C27.3,295.1,27.2,294.6,27.5,294.2z"/>
		<path class="st4" d="M26.4,297c0.2-0.4,0.3-0.9,0.5-1.3c0.1,0,0.3,0,0.4,0c0,1.2,0,2.3,0.2,3.5c0.2,1,0.6,1.9,1.3,2.7
			c0.7,0.7,1.4,1.3,2.4,1.4c0.9,0.1,1.9,0.2,2.7-0.2c0.9-0.4,1.5-1.3,2-2.2c0-0.1,0-0.3,0-0.4c0.4,0.4,0.2,0.9,0.1,1.4
			c-0.4,1-0.8,2-1.3,3c-0.9,2.1-1.6,4.3-2.3,6.5c-0.4,1.1-0.6,2.3-1,3.5c-0.3,0.7-0.4,1.4-0.8,2.1c-0.3,0.3-0.5,0.6-0.7,0.9
			c-0.3,0.5-0.9,0.8-1.5,0.9c-0.8,0.1-1.6-0.3-2.2-0.7c-0.5-0.3-0.9-0.8-1.3-1.3c-0.3-0.4-0.7-0.8-0.8-1.3c-0.7-2-1.6-4.1-1.5-6.3
			c0-1.2,0.1-2.5,0.4-3.7c0.1-0.3,0.1-0.6,0-1c0-0.5,0.4-0.9,0.6-1.3C24.6,301.2,25.7,299.2,26.4,297z"/>
		<path class="st5" d="M23,304.6c0,0.3,0,0.6,0,1c-0.2,1.2-0.3,2.5-0.4,3.7c-0.1,2.2,0.8,4.3,1.5,6.3c0.2,0.5,0.5,0.9,0.8,1.3
			c0.4,0.4,0.7,1,1.3,1.3c0.7,0.4,1.4,0.8,2.2,0.7c0.6-0.1,1.2-0.4,1.5-0.9c0.2-0.3,0.4-0.6,0.7-0.9c-0.2,0.9-0.7,1.8-1.4,2.4
			c-0.5,0.4-1.2,0.7-1.8,0.7c-0.8,0-1.5-0.6-2-1.1c-0.5-0.5-1-1-1.4-1.6c-1-1.8-1.4-3.9-1.8-5.9C21.7,309.1,22.1,306.7,23,304.6z"/>
		<path class="st3" d="M88.9,305.3c0.5,0.6,1.1,1,1.8,1.4c0.8,0.4,1.7,0.2,2.6,0.2c0.6,0,1.2,0.1,1.8,0c0.9-0.3,1.6-1,2.3-1.5
			c0,0.1,0,0.2,0.1,0.4c0,0.1,0,0.2,0,0.2c-0.2,0.4-0.5,0.8-0.9,1c-1.1,0.5-2.3,0.9-3.5,0.8c-1-0.1-2.1-0.1-3.1-0.6
			c-0.6-0.2-0.9-0.7-1.3-1.2c0-0.1,0-0.2,0-0.2C88.8,305.6,88.9,305.5,88.9,305.3z"/>
		<path class="st4" d="M88.5,306.4c0-0.2-0.1-0.6,0.2-0.6c0,0.1,0,0.2,0,0.2c0.4,0.5,0.7,1,1.3,1.2c1,0.5,2.1,0.5,3.1,0.6
			c1.2,0.1,2.4-0.3,3.5-0.8c0.4-0.2,0.7-0.6,0.9-1c0-0.1,0-0.2,0-0.2c0.1,0.1,0.3,0.2,0.3,0.4c0.2,1.3,0.3,2.7,0.6,4
			c0.3,1.3,0.5,2.7,0.8,4l0,0.1c-0.2,0.7-0.1,1.4-0.2,2.1c-0.1,1.1-0.4,2.3-0.7,3.4c-0.3,1-0.7,2-1.3,2.8c-0.4,0.6-0.9,1.1-1.5,1.5
			c-0.5,0.3-1.2,0.3-1.7,0c-0.9-0.5-1.6-1.3-2.1-2.2c-0.4-0.8-0.9-1.5-1.1-2.4c-0.5-1.7-0.7-3.6-1-5.4c-0.2-0.8-0.3-1.7-0.5-2.5
			c0,0.3,0,0.5,0,0.8c-0.2-1,0-2-0.1-3C88.7,308.5,88.6,307.4,88.5,306.4z"/>
		<path class="st5" d="M89,311.6c0.2,0.8,0.3,1.6,0.5,2.5c0.3,1.8,0.5,3.6,1,5.4c0.3,0.8,0.7,1.6,1.1,2.4c0.5,0.9,1.2,1.7,2.1,2.2
			c0.5,0.3,1.2,0.2,1.7,0c0.6-0.3,1.1-0.9,1.5-1.5c0.6-0.8,1-1.8,1.3-2.8c0.3-1.1,0.6-2.2,0.7-3.4c0.1-0.7,0-1.5,0.2-2.1
			c0.2,1.5,0.5,3,0.3,4.6c0,0.9-0.2,1.7-0.6,2.6c-0.8,1.8-2.4,3.2-4.3,3.7c-0.5-0.1-1.1-0.2-1.5-0.6c-1.3-1.2-2.1-2.8-2.8-4.3
			c-0.4-1-0.7-2.1-0.8-3.1c-0.2-1.5-0.4-3-0.5-4.5C88.9,312.2,88.9,311.9,89,311.6z"/>
	</g>
	<g>
		<path class="st6" d="M84.2,6.9c0.9-0.2,1.9-0.1,2.8,0c1.1,0.1,2.1,0.6,3,1.1c0.3,0.2,0.5,0.4,0.8,0.6c0.6-0.3,1.3-0.6,2-0.7
			c0.8-0.1,1.5-0.1,2.3-0.1c1,0,2,0.2,3,0.6c1.8,0.6,3.5,1.6,4.9,2.9c0.9,0.9,1.8,1.8,2.4,3c1.2,1.8,1.6,3.9,1.9,6
			c0.3,1.5,0.3,3,0.6,4.4c0.3,1.1,0.9,2.1,1.5,3.1c1,1.5,2.4,2.7,3.3,4.2c1.2,1.7,1.9,3.6,2.4,5.6c0.5,1.9,0.7,4,0.3,6
			c-0.2,1.2-0.4,2.4,0,3.6c0.3,0.9,1,1.7,1.6,2.4c0.8,1,1.5,2,1.9,3.2c0.5,1.6,0.5,3.3,0.1,4.9c-0.2,0.9-0.4,1.7-0.8,2.5
			c-0.1,0.2-0.5,0.1-0.5-0.1c0-0.3,0-0.6,0.1-1c-0.1,0.1-0.2,0.2-0.3,0.3c0-0.2,0-0.5,0-0.7c-0.4,1.2-1,2.3-1.2,3.6
			c0.1,0,0.2-0.1,0.3-0.1c-0.1,0.3-0.1,0.5-0.2,0.8c0.1,0.1,0.2,0.1,0.4,0.2c0,0.3-0.1,0.5-0.1,0.8c0.1,0.1,0.2,0.2,0.2,0.3
			c-0.1-0.3,0.2-0.8,0.6-0.5c0.2,0.6,0.3,1.2,0.7,1.7c0.2,0.5,0.7,0.8,0.9,1.2c0.1,0,0.2-0.1,0.3-0.1c0,0.1,0,0.3-0.1,0.4
			c-0.2,0.1-0.4,0-0.6-0.1c-0.1,0.2,0,0.4-0.3,0.5c-0.1,0-0.2,0-0.3,0c0.1,0.2,0.1,0.6-0.2,0.5c-0.8-0.4-1.4-1.2-1.6-2.1
			c-0.4-1.4-0.7-3-0.3-4.4c0.5-1.4,0.9-3,0.8-4.5c-0.1-0.8-0.3-1.6-0.9-2.1c0.1-0.1,0.1-0.3,0.1-0.4c-0.3,0-0.5,0-0.7-0.1
			c0,1.3,0.2,2.5,0,3.8c-0.1,0.8-0.3,1.6-0.7,2.4c-0.2,0.4-0.4,0.7-0.5,1.1c-0.1,0.6-0.1,1.3,0.1,1.9c0.2,0.8,0.4,1.7,0.8,2.4
			c0.3,0.5,0.7,0.9,1,1.3c0.3,0.6,0.9,0.9,1.3,1.5c0.4,0.6,1,1.1,1.3,1.7c0.4,0.6,0.5,1.3,0.7,2c0.5,1.3,0.7,2.7,0.9,4.1
			c0.2,1.7,0.2,3.4,0.5,5.1c0.5,3.2,1,6.5,1.3,9.7c0.1,1.4,0.5,2.8,0.2,4.3c-0.2,1.4-0.7,2.8-1.3,4.1c-1.5,3.2-3.9,6-7.2,7.5
			c-0.7,0.3-1.4,0.6-2.1,0.7c-0.6,0.1-1.3,0.2-1.9,0.4c-0.6,0.2-1.2,0.3-1.7,0.7c0.3-2,1-4.2,2.6-5.6c0.9-1,2.2-1.8,2.8-3.1
			c0.5-0.9,0.2-2,0-2.9c-0.3-1-0.9-1.9-1.4-2.7c-0.6-1-1-2-1.1-3.1c-0.1-1.4-0.1-2.8,0-4.2c0.1-1,0.4-1.9,0.2-2.8
			c-0.1-0.5-0.1-1-0.2-1.5c-0.5-1.1-1.3-2-2.4-2.6c-0.9-0.6-2-0.8-2.9-1.1c-0.8-0.3-1.7-0.4-2.5-0.9c-0.9-0.6-1.3-1.8-1.7-2.8
			c-0.6-1.6,0-3.5-0.7-5.1c-0.4-0.9-0.7-1.8-1.5-2.4c-0.6-0.4-1.1-0.7-1.7-1c0-0.3,0.1-0.6-0.2-0.7c-0.2-0.2-0.5,0.1-0.7,0.2
			c-1.1-0.6-2.3-1.2-3.5-1.5c-0.4-0.1-0.7-0.2-1.1-0.2c-2.2,0.2-4.5-0.2-6.7-0.7c-0.8-0.2-1.7-0.5-2.5-0.8c-0.9-0.4-1.8-0.7-2.6-1.1
			c-0.7-0.3-1.3-0.7-2-1c-1.2-0.4-2.4-0.9-3.6-1.3c-1.2-0.4-2.3-1-3.6-1.3c-0.9-0.2-2-0.1-2.7-0.9c0.7-0.1,1.3-0.5,1.8-0.9
			c0.6-0.5,1.3-0.8,1.9-1.3c0.2,0.1,0.3,0.2,0.5,0.2c0.3-0.1,0.3-0.5,0.5-0.8c0.2-0.5,0.7-0.8,1.1-1.1c0.3-0.2,0.4-0.5,0.5-0.8
			c0.2-0.3,0.5-0.5,0.6-0.8c0.4-1.2,0.6-2.5,0.8-3.8c0.5-1.2,0.5-2.5,0.4-3.7c0-0.6-0.4-1.1-0.6-1.6c-0.3-1.1-0.7-2.2-1-3.4
			c-0.3-1.1-0.5-2.2-0.8-3.3c-0.1-0.7,0-1.5,0-2.2c0.2-1.2,0.2-2.4,0.4-3.7c0.2-1.3,0.5-2.5,0.8-3.7c0.2-1,0.4-1.9,0.8-2.8
			c0.5-0.9,0.9-1.8,1.6-2.6c0.2-0.2,0.2-0.5,0.3-0.7c0,0-0.1-0.1-0.2-0.1c-0.6,0.5-1,1.1-1.5,1.7c-0.6,0.8-1,1.7-1.3,2.6
			c-0.8,1.9-1.2,4-1.7,6c-0.2,1.1-0.5,2.2-0.6,3.3C72.2,35,72,35.9,72,36.9c-0.1,1.5-0.1,2.9,0.1,4.4c0.3,2.3,0.3,4.8-0.4,7
			c-0.4,1.1-0.7,2.2-1.3,3.2c-1,1.6-2.6,2.9-4.4,3.5c-2.1,0.6-4.2,1.1-6.2,2c-1.5,0.7-3,1.6-4.3,2.7c-1,0.8-2,1.7-3.1,2.5
			c-0.4,0.3-0.8,0.5-1.2,0.8c-0.2,0.1-0.4,0.3-0.6,0.3c-0.8-0.1-1.7-0.2-2.4-0.7c-0.6-0.4-0.8-1.2-1.1-1.8c0.1-0.6,0.3-1.1,0.5-1.6
			c0.1-0.1,0.2-0.1,0.3,0.1c0.1,0.4,0.1,0.9,0.3,1.3c0.4,0.7,1,1.4,1.9,1.5c0.7,0.1,1.5-0.2,2-0.7c0.5-0.5,1-1,1.3-1.7
			c0.6-1.5,1.1-3.1,1.2-4.7c0.2-1.1,0-2.1,0-3.2c0-1.3-0.2-2.6-0.3-3.9c0-1.3-0.1-2.6,0.4-3.8c0.5-1.2,1.3-2.3,2.1-3.5
			c1.2-1.9,1.9-4.1,3-6.1c0.4-0.7,0.9-1.3,1.4-1.9c0.8-1,1.8-1.9,2.9-2.6c1.6-1.1,3.1-2.4,4-4.2c0.5-0.9,0.9-2,1.3-3
			c0.7-1.9,0.9-3.9,1.5-5.9c0.2-0.9,0.5-1.8,1.1-2.5c0.7-0.8,1.6-1.5,2.5-2.1c0.9-0.5,1.9-0.8,2.8-1.3c0.9-0.6,1.6-1.4,2.3-2.1
			c0.7-0.6,1.5-1.1,2.4-1.5C82.6,7.2,83.4,7,84.2,6.9z"/>
		<path class="st7" d="M77.5,20.4c0,0,0.1,0.1,0.2,0.1c-0.1,0.3-0.2,0.5-0.3,0.7c-0.6,0.8-1.1,1.7-1.6,2.6c-0.4,0.9-0.6,1.9-0.8,2.8
			c-0.3,1.2-0.6,2.5-0.8,3.7c-0.2,1.2-0.3,2.4-0.4,3.7c0,0.7-0.1,1.5,0,2.2c0.3,1.1,0.5,2.2,0.8,3.3c0.3,1.1,0.7,2.2,1,3.4
			c0.2,0.5,0.5,1,0.6,1.6c0.1,1.2,0.1,2.5-0.4,3.7c-0.2,1.3-0.4,2.6-0.8,3.8c-0.1,0.3-0.4,0.5-0.6,0.8c-0.2,0.3-0.3,0.6-0.5,0.8
			c-0.4,0.3-0.9,0.6-1.1,1.1c-0.2,0.3-0.2,0.6-0.5,0.8c-0.2-0.1-0.3-0.2-0.5-0.2c-0.6,0.5-1.3,0.8-1.9,1.3c-0.5,0.4-1.2,0.8-1.8,0.9
			c-0.1,0-0.2,0-0.2,0.1c-0.1-0.2-0.1-0.5-0.3-0.6c-0.2,0-0.5,0-0.7,0c-1.1,0.2-2.1,0.5-3.2,0.6c-0.5,0.1-1,0.1-1.4,0.2
			c-0.3,0.2-0.1,0.6-0.1,0.8C61.1,59,60,59.4,59,59.8c-0.3,0.2-0.7-0.1-1,0C57,60.4,56,61,54.9,61.7c-1.4,0.9-2.9,1.8-4.2,2.8
			c-0.7,0.6-1.4,1.1-2.1,1.8c0.1,0.2,0.5,0.5,0.4,0.8c-0.2,0.4-0.7,0-1,0c-0.6,0.1-0.9,0.6-1.2,1c-0.5-0.6-0.9-1.3-1.3-1.9
			c-0.2-0.3-0.4-0.7-0.5-1c-0.5-1.6-0.5-3.4,0-5c0.2-0.7,0.5-1.3,1-1.8c0.1,0.5-0.3,1-0.3,1.5c-0.2,1,0,2.1,0.4,3.1
			c0.5,1.2,1.3,2.2,2.2,3.1c0.5-0.5,0.9-1,1.4-1.5c-1-0.4-1.9-1.1-2.4-2c-0.1-0.2-0.1-0.4-0.2-0.6c0-0.4,0-0.8,0-1.2
			c0.3,0.6,0.5,1.4,1.1,1.8c0.7,0.5,1.6,0.6,2.4,0.7c0.2,0,0.4-0.1,0.6-0.3c0.4-0.3,0.8-0.5,1.2-0.8c1.1-0.8,2.1-1.7,3.1-2.5
			c1.3-1.1,2.8-2,4.3-2.7c2-0.9,4.1-1.4,6.2-2c1.8-0.6,3.4-1.8,4.4-3.5c0.6-1,1-2.1,1.3-3.2c0.7-2.3,0.7-4.7,0.4-7
			c-0.2-1.5-0.1-2.9-0.1-4.4c0-1,0.2-1.9,0.3-2.8c0.1-1.1,0.4-2.2,0.6-3.3c0.5-2,0.9-4.1,1.7-6c0.3-0.9,0.7-1.8,1.3-2.6
			C76.5,21.5,76.9,20.9,77.5,20.4z"/>
		<path class="st8" d="M66.8,57c0.2,0,0.5-0.1,0.7,0c0.2,0.1,0.2,0.4,0.3,0.6c0.1,0,0.2,0,0.2-0.1c0.7,0.7,1.8,0.6,2.7,0.9
			c1.3,0.2,2.4,0.9,3.6,1.3c1.2,0.4,2.4,0.9,3.6,1.3c0.7,0.2,1.3,0.6,2,1c0.9,0.4,1.8,0.7,2.6,1.1c0.8,0.3,1.6,0.6,2.5,0.8
			c2.2,0.5,4.4,0.9,6.7,0.7c0.4,0,0.8,0.1,1.1,0.2c1.1,0.6,2.3,1.2,3.5,1.7c-0.2,0.5,0,1,0.2,1.5c0.2,0.6,0.2,1.2,0.3,1.8
			c0.1,0.6,0.7,1.1,1,1.6c0.7,0.9,1.3,1.9,1.9,2.9c0.3,0.5,0.4,1.1,0.6,1.6c0.5,1.7,1.3,3.4,2.8,4.4c0.8,0.5,1.6,1,2.3,1.7
			c1,1,1.8,2.3,2,3.7c0.2,1.5,0.1,3-0.3,4.4c-0.3,0.8-0.4,1.7-0.3,2.5c0.1,0.8,0.5,1.5,1,2.1c0.9,1.1,1.1,2.7,1,4.1
			c-0.1,1-0.3,2.1-0.8,3c-0.4,0.7-0.9,1.3-1.4,1.9c-1.5,1.4-3.3,2.5-5.3,2.9c-1.1,0.3-2.2,0.3-3.3,0.5c-1.4,0.2-2.9,0.5-4.2,1
			c-0.2,0.1-0.5,0.2-0.6,0.4c-0.4,0.4-0.5,1-0.2,1.4c0.4,0.6,0.9,1.1,1.5,1.5c0.4,0.3,0.8,0.5,1.1,1c0.2,0.5,0.3,1,0.5,1.5
			c0.3,0.5,0.8,0.9,1.3,1.2c0.6,0.3,1.3,0.5,1.7,1.2c0.4,0.6,0.3,1.4,0.8,2c0.5,0.6,1.2,1,1.9,1.4c0.5,0.2,0.9,0.6,1.3,0.9
			c-2.9,1.3-6,2.1-9.1,2.9c-1,0.3-1.9,0.5-2.9,0.6c-1.7,0.3-3.4,0.5-5.2,0.7c-2.1,0.3-4.3,0.3-6.4,0.3c-3.1,0-6.1-0.4-9.1-1.1
			c-2.2-0.5-4.4-1.2-6.5-2c0.3-0.4,0.5-0.8,0.8-1.2c0.5-0.6,1.2-1.1,1.9-1.5c0.5-0.2,0.4-0.8,0.4-1.2c0-0.7-0.6-1.2-0.7-1.9
			c0.1-0.4,0.4-0.7,0.8-0.9c0.5-0.2,0.8-0.6,0.8-1.1c0.1-0.5-0.3-0.9-0.5-1.4c0-0.8,0.4-1.6,1-2.2c0.4-0.3,0.7-0.7,1-1.1
			c0.8-0.7,0.5-2.2-0.5-2.5c-1-0.3-2-0.5-2.9-0.8c-1-0.4-2.2-0.6-3.1-1.2c-1.4-0.8-2.7-1.6-3.9-2.6c-1-0.9-2-1.9-2.7-3
			c-0.4-0.7-1-1.3-1.3-2.1c-0.9-2-1.7-4-1.9-6.2c-0.1-1.1,0-2.1-0.1-3.2c-0.1-0.3-0.3-0.6-0.6-0.7c-0.2,0-0.4,0-0.6,0
			c1-3.7,3-6.9,4.9-10.2c1.1-2,2.1-4.2,3-6.4c0.7-2,1.2-4.2,1.4-6.3c0.7-1.7,1.2-3.6,1.2-5.5c0-0.3-0.2-0.6,0.1-0.8
			c0.4-0.2,0.9-0.2,1.4-0.2C64.7,57.5,65.8,57.2,66.8,57z"/>
		<path class="st7" d="M46,58.4c0.1,0,0.3,0,0.4,0.1c0,0.6-0.1,1.1,0,1.7c0.1,0.6,0.3,1.3,0.7,1.8c0,0.2,0.1,0.4,0.2,0.6
			c0.5,0.9,1.4,1.6,2.4,2c-0.5,0.5-0.9,1-1.4,1.5c-0.9-0.9-1.7-1.9-2.2-3.1c-0.4-1-0.6-2-0.4-3.1C45.7,59.3,46.1,58.9,46,58.4z"/>
		<path class="st1" d="M72.9,58.4c2.3,0.3,4.5,0.8,6.7,1.2c2.4,0.4,4.8,1,7.1,1.7c1.9,0.6,3.8,1.4,5.5,2.4c-0.4,0-0.8,0.1-1.2,0.1
			c-1-0.5-1.9-1.2-2.9-1.7c-0.9-0.4-1.8-0.7-2.7-0.9c-2.7-0.5-5.4-0.8-8.1-1.2c-0.5-0.1-1-0.4-1.6-0.5
			C74.9,59.1,73.9,58.8,72.9,58.4z"/>
		<path class="st9" d="M59,59.8c1-0.5,2.1-0.8,3.1-1.1c0,1.9-0.6,3.7-1.2,5.5c-0.8,1.8-1.8,3.6-3.4,4.8c-0.8,0.6-1.7,1.2-2.7,1.4
			c-1.5,0.4-3.2,0.7-4.6-0.1c-1.2-0.6-2.4-1.3-3.4-2.3c0.4-0.4,0.6-0.9,1.2-1c0.3,0,0.8,0.4,1,0c0.1-0.3-0.2-0.5-0.4-0.8
			c0.7-0.6,1.4-1.2,2.1-1.8c1.3-1.1,2.8-1.9,4.2-2.8c1-0.6,2-1.3,3.1-1.8C58.4,59.7,58.7,60,59,59.8z"/>
		<path class="st10" d="M77.4,60c2.7,0.4,5.4,0.7,8.1,1.2c0.9,0.2,1.9,0.5,2.7,0.9c1,0.5,1.9,1.2,2.9,1.7c-1.9,0.2-3.8-0.2-5.6-0.6
			c-0.9-0.2-1.8-0.5-2.7-0.9c-0.9-0.4-1.8-0.7-2.6-1.1c-0.7-0.4-1.3-0.8-2.1-1C77.8,60.2,77.6,60.1,77.4,60z"/>
		<path class="st1" d="M92.8,64.7c1.2,0.3,2.4,0.9,3.5,1.5c0.3,0.1,0.5,0.3,0.8,0.5c-0.3-0.1-0.5-0.2-0.8-0.3
			C95.1,65.9,94,65.3,92.8,64.7z"/>
		<path class="st11" d="M96.3,66.2c0.2-0.1,0.4-0.4,0.7-0.2c0.3,0.1,0.2,0.5,0.2,0.7c0.6,0.3,1.2,0.6,1.7,1c0.8,0.6,1.1,1.5,1.5,2.4
			c0.7,1.6,0,3.5,0.7,5.1c0.4,1,0.8,2.1,1.7,2.8c0.8,0.5,1.7,0.6,2.5,0.9c1,0.3,2.1,0.5,2.9,1.1c1,0.6,1.9,1.5,2.4,2.6
			c0.1,0.5,0.1,1,0.2,1.5c0.1,1-0.2,1.9-0.2,2.8c-0.1,1.4-0.2,2.8,0,4.2c0.1,1.1,0.5,2.1,1.1,3.1c0.5,0.9,1.1,1.7,1.4,2.7
			c0.3,0.9,0.5,2,0,2.9c-0.6,1.3-1.9,2.1-2.8,3.1c-1.6,1.4-2.3,3.5-2.6,5.6c-0.1,0.7-0.3,1.5-0.3,2.2c0.1,1.3,0.2,2.6,0.3,3.9
			c0,0.5,0.1,1,0,1.5c0,0.2,0,0.4-0.1,0.6c-0.5,1-1.4,1.6-2.3,2.2c-0.8,0.4-1.6,1-2.5,1.3c-0.4-0.3-0.8-0.7-1.3-0.9
			c-0.7-0.4-1.4-0.8-1.9-1.4c-0.5-0.5-0.4-1.3-0.8-2c-0.3-0.6-1.1-0.9-1.7-1.2c-0.5-0.2-1.1-0.6-1.3-1.2c-0.3-0.5-0.3-1-0.5-1.5
			c-0.3-0.4-0.7-0.7-1.1-1c-0.6-0.4-1.2-0.9-1.5-1.5c-0.3-0.4-0.2-1.1,0.2-1.4c0.2-0.2,0.4-0.3,0.6-0.4c1.4-0.5,2.8-0.8,4.2-1
			c1.1-0.2,2.2-0.2,3.3-0.5c2-0.5,3.8-1.5,5.3-2.9c0.6-0.5,1.1-1.2,1.4-1.9c0.5-0.9,0.7-2,0.8-3c0.1-1.4-0.1-3-1-4.1
			c-0.5-0.6-0.9-1.3-1-2.1c-0.1-0.8,0-1.7,0.3-2.5c0.4-1.4,0.5-2.9,0.3-4.4c-0.2-1.4-1-2.7-2-3.7c-0.7-0.6-1.5-1.2-2.3-1.7
			c-1.5-1-2.3-2.7-2.8-4.4c-0.2-0.5-0.3-1.1-0.6-1.6c-0.6-1-1.2-2-1.9-2.9c-0.4-0.5-0.9-1-1-1.6c-0.1-0.6-0.1-1.2-0.3-1.8
			c-0.1-0.5-0.3-1-0.2-1.5c0.3,0.1,0.5,0.2,0.8,0.3C96.8,66.5,96.6,66.4,96.3,66.2z"/>
		<path class="st11" d="M51.6,87.1c0.2,0,0.4,0,0.6,0c0.3,0.1,0.5,0.4,0.6,0.7c0.2,1.1,0,2.1,0.1,3.2c0.2,2.2,0.9,4.3,1.9,6.2
			c0.3,0.7,0.9,1.4,1.3,2.1c0.7,1.1,1.7,2,2.7,3c1.2,1,2.6,1.8,3.9,2.6c1,0.6,2.1,0.8,3.1,1.2c1,0.3,2,0.5,2.9,0.8
			c1,0.3,1.3,1.9,0.5,2.5c-0.3,0.3-0.7,0.7-1,1.1c-0.6,0.6-1,1.4-1,2.2c0.2,0.5,0.6,0.9,0.5,1.4c0,0.5-0.4,0.9-0.8,1.1
			c-0.4,0.2-0.7,0.5-0.8,0.9c0.1,0.7,0.6,1.2,0.7,1.9c0,0.4,0,1-0.4,1.2c-0.7,0.4-1.4,0.9-1.9,1.5c-0.3,0.4-0.5,0.8-0.8,1.2
			c-0.4-0.1-0.8-0.4-1.3-0.6c-0.9-0.4-1.8-0.7-2.6-1.3c-1.1-0.8-2.3-1.3-3.3-2.2c-0.3-1.9-0.6-3.9-0.7-5.8c-0.1-1.9-0.5-3.8-1.1-5.6
			c-0.4-1.5-1.2-2.8-1.6-4.3c-0.4-1.1-0.7-2.3-1-3.4c-0.2-1.3-0.7-2.5-0.9-3.7c-0.3-1.4-0.4-2.8-0.3-4.2
			C51.1,89.5,51.4,88.3,51.6,87.1z"/>
		<path class="st9" d="M107.1,114.5c0.1,0,0.2,0.1,0.1,0.2C107.1,114.7,107,114.6,107.1,114.5z"/>
		<path class="st12" d="M107.8,116.9c0-0.2,0-0.4,0.1-0.6c0.5,0.6,1.1,1,1.6,1.6c0.8,0.9,1.6,1.7,2.4,2.6c0.6,0.6,1,1.4,1.6,2
			c1.4,1.6,2.6,3.3,3.7,5.1c0.7,1.5,1.6,3,2.3,4.6c-0.5-0.2-0.9-0.6-1.3-0.9c-1.4-1.1-3-2.1-4.5-3c-2.9-1.7-5.8-3.4-8.3-5.7
			c-0.7-0.6-1.2-1.3-1.9-1.8c-2.1,1-4.3,1.7-6.6,2.5c-0.9,0.3-1.9,0.6-2.8,0.8c-1.3,0.3-2.6,0.4-3.8,0.6c-1.2,0.2-2.5,0.4-3.7,0.5
			c-2.6,0.4-5.3,0.5-7.9,0.6c-1,0.1-1.9-0.1-2.9-0.1c-2.7-0.2-5.3-0.8-7.9-1.4c-1.6-0.4-3.1-1.1-4.6-1.7c-0.6,0.5-1.1,1.1-1.6,1.7
			c-0.5,0.4-0.5,1.1-0.9,1.6c-0.5,0.8-1.4,1.2-2.1,1.8c-0.4,0.4-0.9,0.8-1,1.4c-0.2,0.7-0.3,1.4-0.7,2c-0.8,1.2-2.1,1.9-3,3
			c-0.4,0.6-0.6,1.4-1,2c-0.5,0.9-1.6,1.2-2.1,2c-0.3,0.4-0.4,1-0.6,1.4c-0.3,0.6-0.8,1-1.2,1.6c-0.3,0.5-0.6,1-0.9,1.5
			c-0.5,0.7-0.7,1.5-1,2.3c-0.7,2.1-1.4,4.3-1.8,6.5c-0.6,2.7-0.5,5.5-0.5,8.3c0.1,2.6,0.4,5.2,0.6,7.8c0,1.5,0.2,2.9,0,4.4
			c-0.1,2.2-0.6,4.3-1.2,6.4c-0.6,1.8-1.4,3.6-2.2,5.4c-1,2.2-2.2,4.3-2.9,6.6c-0.5,1.5-0.9,3-1,4.6c-0.1-0.2-0.1-0.3-0.2-0.5
			c0,0.5,0.1,0.9,0,1.4c-0.1,0.3-0.1,0.6,0,0.9c0.1,0.5,0.1,1.1,0,1.6c0,0.2-0.2,0.4-0.3,0.5c-0.1-1.4-0.2-2.8-0.3-4.1
			c0-2.7,0-5.5,0-8.2c0-2,0.2-3.9,0.4-5.9c0,0.2,0,0.4,0.1,0.6c0.2-0.7,0.3-1.4,0.4-2.1c0.1-0.6,0.4-1.1,0.5-1.7
			c0.1-1,0.4-1.9,0.7-2.8c0.1-0.4-0.1-0.7,0-1.1c0.4-1.7,0.9-3.5,1.3-5.2c0.1-0.3,0.1-0.6,0.1-0.9c0.1-0.5,0.2-1.1,0.4-1.6
			c0.1-1.3,0.4-2.6,0.7-3.9c0.7-2.6,0.4-5.3,0.6-7.9c0.1-1.2,0.2-2.5,0.3-3.7c0.2-2.7,0.4-5.3,1-7.9c0.2-0.9,0.6-1.8,0.9-2.7
			c0.5-1.3,1-2.7,1.7-3.9c0.8-1.6,1.6-3.2,2.4-4.9c1.1-2,2.3-3.8,3.5-5.8c0.5-0.9,1-1.8,1.5-2.6c0.8-1.2,1.6-2.4,2.5-3.5
			c0.2-0.3,0.5-0.6,0.4-0.9c0.9,1,2.2,1.4,3.3,2.2c0.8,0.6,1.7,0.9,2.6,1.3c0.4,0.2,0.8,0.5,1.3,0.6c2.1,0.8,4.3,1.4,6.5,2
			c3,0.7,6,1,9.1,1.1c2.2,0.1,4.3,0,6.4-0.3c1.7-0.2,3.5-0.4,5.2-0.7c1-0.1,2-0.3,2.9-0.6c3.1-0.9,6.2-1.6,9.1-2.9
			c0.9-0.3,1.7-0.9,2.5-1.3C106.4,118.6,107.3,117.9,107.8,116.9z"/>
		<path class="st13" d="M96.9,123.3c2.2-0.7,4.4-1.5,6.6-2.5c0.7,0.6,1.2,1.2,1.9,1.8c2.5,2.3,5.4,4.1,8.3,5.7
			c1.6,0.9,3.1,1.9,4.5,3c0.4,0.3,0.8,0.7,1.3,0.9l0,0c0.5,0.9,0.7,1.9,1.1,2.9c0.3,0.7,0.5,1.4,0.8,2.1c0.8,1.9,1.1,3.9,1.6,5.9
			c0.3,1.3,0.6,2.7,0.8,4c0.5,2.6,0.2,5.3,0.2,7.9c0,0.5,0,1.1,0.1,1.6c0.4,1.2,0.8,2.4,1,3.6c0.3,1.2,0.5,2.4,0.8,3.6
			c0.2,1.1,0.5,2.2,0.7,3.2c0.2,1.3,0.3,2.6,0.3,3.9c0,2,0,4-0.1,5.9c-0.1,1.5-0.2,3-0.5,4.4c-0.4,2.3-0.8,4.6-1.6,6.8
			c-0.8,1.9-1.4,3.9-2.2,5.8c-1.5,4.3-3.5,8.5-5,12.8c-0.7,1.9-1.3,3.8-2,5.6c-1.1,3.1-2.3,6.3-3.2,9.5c-0.4,1.4-0.7,2.9-1.2,4.4
			c-0.5,1.7-1.1,3.3-1.6,4.9c-0.5,1.6-1,3.3-1.4,4.9c-0.3,1.1-0.7,2.2-1.2,3.3c-0.7,1.9-1.4,3.8-1.9,5.8c-0.4,1.4-0.6,2.7-0.6,4.2
			c0.1,1.5,0.1,3,0.3,4.5c0.1,0.8,0.2,1.6,0.2,2.4c0,1.2,0.2,2.4,0.2,3.6c0,1.5,0,3-0.1,4.5c-0.1,1.4-0.3,2.8-0.5,4.2
			c-0.5,3-1.1,5.9-1.8,8.9c-0.6,2.1-1,4.3-2,6.3c-1.2,0.6-2.1,1.5-3.3,2.2c-1.8,1.1-3.9,1.6-6,1.3c-1.3-0.1-2.5-0.5-3.6-1
			c-1.1-0.4-1.9-1.2-2.9-1.7c0,0-0.1,0.1-0.1,0.1l0,0c-0.3-1.2-0.5-2.5-0.6-3.7c-0.1-2-0.5-3.9-0.7-5.8c0.3-0.9,0.3-1.8,0.4-2.7
			c0.3-1.1,0.3-2.3,0.5-3.4c0.6-2.7,1.5-5.3,2.2-8c0.5-2,1.1-4,1.6-6c0.4-1.6,0.7-3.2,0.3-4.8c-0.2-0.9-0.9-1.6-1.4-2.4
			c-0.6-0.9-1.2-1.8-1.6-2.9c-0.8-1.7-1.2-3.6-1.5-5.5c-0.3-2.1-0.5-4.1-0.4-6.2c0-2.8-0.2-5.6-0.1-8.4c0.2-2.7,0.3-5.5,0.3-8.2
			c0-2.8,0.2-5.6,0.3-8.3c0.1-2.8,0.3-5.6,0.7-8.4c0.3-2.4,0.7-4.7,1.1-7.1c0.4-2.3,0.9-4.6,1.7-6.9c1.1-3.4,2.3-6.8,3.7-10.1
			c0.7-1.5,1.7-2.8,2.7-4.2c1.4-1.8,2.7-3.6,4.2-5.3c0.5-0.7,1.1-1.3,1.8-1.8c2.3-2.2,4.7-4.3,6.5-6.9c0.2-0.3,0.6-0.7,0.4-1.1
			c-0.3-0.3-0.6,0-0.9,0.1c-0.6,0.3-0.9,0.9-1.5,1.2c-1.9,1.3-3.6,2.7-5.4,4c-1.3,0.9-2.6,1.9-3.9,2.9c-2.8,1.9-6,3-8.9,4.6
			c-1.2,0.2-2.4,0.4-3.6,0.5c-0.8,0.1-1.5-0.2-2.2-0.2c-1.2-0.1-2.4-0.2-3.5-0.5c-0.8-0.2-1.7-0.4-2.4-0.8c-1.8-0.8-3.3-1.9-4.9-3
			c-3.3-2.3-6.6-4.7-9.3-7.6c-0.5-0.5-1-1-1.5-1.5c-0.2-0.2-0.4-0.1-0.6-0.1c0,0.6,0.4,1.1,0.8,1.7c0.8,1.1,1.6,2.3,2.5,3.3
			c1.2,1.4,2.3,3,3.7,4.3c1,1.1,2.2,2,3.4,3.1c-0.2,0-0.4,0-0.6,0c0.2,0.2,0.5,0.4,0.8,0.5c0.5,0.1,0.8,0.5,1.2,0.9
			c0.3,0.3,0.6,0.5,0.8,0.9c0.4,0.6,0.9,1.1,1.3,1.6c0.3,0.5,0.5,1,0.8,1.5c0.2,0.3,0.4,0.7,0.5,1.1c0.1,0.5,0.5,0.8,0.7,1.3
			c0.3,0.9,0.5,1.9,0.7,2.8c0.3,1.3,0.5,2.6,0.4,4c0,1.3,0,2.6-0.1,3.9c-0.3,2.2-0.7,4.4-1.3,6.6c-0.5,2.2-1,4.4-1.6,6.5
			c-1,3.7-2.2,7.4-3.4,11c-0.7,1.7-1.4,3.4-2.1,5.1c-0.4,1-0.9,2.1-1.3,3.1c-0.4,1-1,1.9-1.4,2.9c-0.4,0.8-0.9,1.6-1.3,2.4
			c-1.2,2-2.4,4.1-3.5,6.1c-0.9,1.5-1.9,2.9-2.9,4.3c-0.6,1-1.4,1.9-2.1,2.8c-0.5,0.7-1.1,1.4-1.7,2.1c-0.8,0.9-1.6,1.8-2,2.9
			c-0.7,1.8-1,3.6-1.2,5.5c-0.1,2-0.4,4-0.5,6c-0.2,2.7-0.5,5.4-0.7,8.1c-0.1,1.5-0.4,3-0.6,4.5c-0.3,1.7-0.5,3.5-0.8,5.2
			c-0.2,1.6-0.6,3.1-0.9,4.6c0,0.2,0,0.4,0,0.7c-0.4,0.9-0.9,1.9-1.4,2.8l0,0c-0.8,0.2-1.5,0.5-2.3,0.7c-1,0.2-2,0.1-3.1,0.2
			c-1.8,0.2-3.5-0.6-4.9-1.5c-0.4-0.3-0.9-0.6-1.2-1c-0.8-1.1-1.6-2.2-2.5-3.2c-0.2-0.3-0.4-0.7-0.7-1c-0.1-1.5,0-3,0-4.6
			c0-1.6,0.1-3.3,0.2-4.9c0.2-2.5,0.4-5,0.6-7.4c0.4-3.9,1-7.9,1.8-11.7c0.4-2.3,1.1-4.5,1.5-6.8c0.5-2.1,1-4.3,1.4-6.4
			c0.9-4,1.8-8,2.5-12.1c0.6-2.7,0.4-5.6,0.4-8.3c0-2.9-0.1-5.8-0.2-8.8c0-1.4-0.3-2.7-0.4-4.1c0.1-0.2,0.3-0.3,0.3-0.5
			c0.1-0.5,0.1-1.1,0-1.6c-0.1-0.3,0-0.6,0-0.9c0.1-0.5,0-0.9,0-1.4c0.1,0.2,0.1,0.3,0.2,0.5c0.1-1.6,0.5-3.1,1-4.6
			c0.7-2.3,1.9-4.4,2.9-6.6c0.8-1.8,1.6-3.5,2.2-5.4c0.6-2.1,1.1-4.2,1.2-6.4c0.1-1.5-0.1-2.9,0-4.4c-0.1-2.6-0.4-5.2-0.6-7.8
			c0-2.8-0.1-5.6,0.5-8.3c0.5-2.2,1.1-4.4,1.8-6.5c0.3-0.8,0.5-1.6,1-2.3c0.3-0.5,0.6-1,0.9-1.5c0.3-0.6,0.9-1,1.2-1.6
			c0.2-0.5,0.4-1,0.6-1.4c0.6-0.8,1.6-1.2,2.1-2c0.4-0.6,0.6-1.4,1-2c0.9-1.1,2.2-1.9,3-3c0.4-0.6,0.5-1.3,0.7-2
			c0.2-0.6,0.6-1,1-1.4c0.7-0.6,1.6-1,2.1-1.8c0.4-0.5,0.4-1.2,0.9-1.6c0.6-0.5,1-1.2,1.6-1.7c1.5,0.6,3,1.3,4.6,1.7
			c2.6,0.6,5.3,1.2,7.9,1.4c1,0.1,1.9,0.2,2.9,0.1c2.6-0.1,5.3-0.2,7.9-0.6c1.2-0.2,2.5-0.3,3.7-0.5c1.3-0.2,2.6-0.3,3.8-0.6
			C95.1,123.9,96,123.5,96.9,123.3z"/>
		<path class="st14" d="M123.4,154.7c0.2,0.1,0.1,0.5,0,0.7C123.2,155.3,123.3,154.9,123.4,154.7z"/>
		<path class="st15" d="M58.3,155.8c0.2,0,0.5-0.1,0.6,0.1c0.5,0.5,1,1,1.5,1.5c2.8,2.9,6,5.3,9.3,7.6c1.6,1,3.2,2.2,4.9,3
			c0.8,0.4,1.6,0.6,2.4,0.8c1.1,0.3,2.3,0.5,3.5,0.5c0.8,0,1.5,0.3,2.2,0.2c1.2-0.1,2.4-0.2,3.6-0.5c2.9-1.6,6.1-2.7,8.9-4.6
			c1.3-1,2.6-2,3.9-2.9c1.8-1.3,3.5-2.8,5.4-4c0.5-0.3,0.9-0.9,1.5-1.2c0.3-0.1,0.6-0.4,0.9-0.1c0.2,0.4-0.2,0.8-0.4,1.1
			c-1.8,2.6-4.2,4.7-6.5,6.9c-0.7,0.5-1.3,1.1-1.8,1.8c-1.5,1.7-2.9,3.5-4.2,5.3c-1,1.3-2,2.7-2.7,4.2c-1.4,3.3-2.5,6.7-3.7,10.1
			c-0.8,2.2-1.3,4.5-1.7,6.9c-0.4,2.4-0.8,4.7-1.1,7.1c-0.4,2.8-0.6,5.6-0.7,8.4c-0.1,2.8-0.3,5.5-0.3,8.3c0,2.7-0.1,5.5-0.3,8.2
			c-0.1,2.8,0.1,5.6,0.1,8.4c0,2.1,0.1,4.2,0.4,6.2c0.4,1.9,0.8,3.7,1.5,5.5c0.4,1,1,1.9,1.6,2.9c0.5,0.8,1.2,1.5,1.4,2.4
			c0.5,1.6,0.1,3.2-0.3,4.8c-0.5,2-1,4-1.6,6c-0.7,2.7-1.7,5.3-2.2,8c-0.2,1.1-0.3,2.3-0.5,3.4c-0.1,0.9-0.1,1.8-0.4,2.7
			c-0.4-3.4-0.4-6.9-0.3-10.4c0.1-2.2,0.5-4.4,0.8-6.5c0.3-1.7,0.5-3.4,0.7-5.1c0.1-1.2,0.1-2.5,0-3.7c0-0.9-0.3-1.7-0.5-2.5
			c-1-3.6-2-7.2-2.3-10.9c-0.4-3.2-0.4-6.4-0.4-9.6c-0.1-2.9,0.1-5.8-0.1-8.7c-0.1-3.1-0.2-6.1-0.2-9.2c0-2.6,0-5.3-0.1-7.9
			c0-2.8-0.3-5.6-0.2-8.4c0.1-1.3,0-2.6,0.2-3.9c0.1-0.7,0.1-1.4,0.1-2.1c-0.2,0.9-0.5,1.8-0.7,2.7c-0.4,1.5-0.9,2.9-1.4,4.4
			c-0.4,1.1-0.9,2.2-1.3,3.4c-0.3,1-0.8,2-1.2,3.1c-1.3,3.9-3.2,7.5-5.1,11.1c-0.5,1-1,1.9-1.6,2.8c-1.1,1.8-2.3,3.6-3.3,5.5
			c-1.2,2.4-2.7,4.6-3.9,7.1c-0.8,1.8-1.6,3.7-2.5,5.5c-1,2-1.9,4-2.8,6.1c-0.3,0.9-0.7,1.8-1,2.7c-1.1,3.8-1.7,7.7-2.9,11.5
			c-0.5,1.8-0.9,3.6-1.5,5.4c-0.4,1.5-0.9,3.1-1.3,4.6c-0.4,1.5-0.9,2.9-1.4,4.4c-0.5,1.5-1,3.1-1.5,4.6c-0.7,2-1.4,4-2.5,5.9
			c0-0.2,0-0.4,0-0.7c0.3-1.5,0.7-3.1,0.9-4.6c0.3-1.7,0.5-3.5,0.8-5.2c0.2-1.5,0.5-3,0.6-4.5c0.2-2.7,0.5-5.4,0.7-8.1
			c0.1-2,0.4-4,0.5-6c0.1-1.9,0.5-3.7,1.2-5.5c0.4-1.1,1.2-2,2-2.9c0.6-0.7,1.1-1.3,1.7-2.1c0.7-0.9,1.5-1.8,2.1-2.8
			c1-1.5,1.9-2.9,2.9-4.3c1.2-2,2.4-4,3.5-6.1c0.5-0.8,1-1.5,1.3-2.4c0.4-1,0.9-1.9,1.4-2.9c0.5-1,0.9-2,1.3-3.1
			c0.7-1.7,1.4-3.4,2.1-5.1c1.3-3.6,2.5-7.3,3.4-11c0.6-2.2,1-4.4,1.6-6.5c0.5-2.2,0.9-4.4,1.3-6.6c0.2-1.3,0.1-2.6,0.1-3.9
			c0-1.3-0.1-2.7-0.4-4c-0.2-0.9-0.4-1.9-0.7-2.8c-0.2-0.5-0.6-0.8-0.7-1.3c-0.1-0.4-0.3-0.7-0.5-1.1c-0.3-0.5-0.5-1-0.8-1.5
			c-0.4-0.6-0.9-1.1-1.3-1.6c-0.2-0.3-0.5-0.6-0.8-0.9c-0.4-0.3-0.7-0.7-1.2-0.9c-0.3-0.1-0.6-0.2-0.8-0.5c0.2,0,0.4,0,0.6,0
			c-1.1-1-2.3-2-3.4-3.1c-1.4-1.3-2.5-2.9-3.7-4.3c-0.9-1.1-1.7-2.2-2.5-3.3C58.7,156.9,58.3,156.4,58.3,155.8z"/>
		<path class="st13" d="M39,172.4c0.6-1.7,1.1-3.5,1.7-5.2c0,0.3,0,0.6-0.1,0.9c-0.4,1.8-0.9,3.5-1.3,5.2c-0.1,0.4,0.1,0.7,0,1.1
			c-0.2,0.9-0.5,1.9-0.7,2.8c-0.1,0.6-0.4,1.1-0.5,1.7c-0.2,0.7-0.2,1.4-0.4,2.1c0-0.2,0-0.4-0.1-0.6c0.1-1,0.3-2,0.3-3.1
			C38.2,175.8,38.5,174.1,39,172.4z"/>
		<path class="st14" d="M38.7,211.7c0.1,0.2,0.1,0.5,0.1,0.7c0,0.8,0,1.7,0,2.5c0,0.2,0,0.4-0.1,0.6c-0.1-0.6,0-1.3,0-1.9
			C38.7,213,38.7,212.3,38.7,211.7z"/>
		<path class="st13" d="M82.2,227.2h0.1c0,0.5,0,1.1-0.1,1.6C82.1,228.2,82.2,227.7,82.2,227.2z"/>
		<path class="st14" d="M104,249l0.1,0c0,0.3,0,0.6,0,0.9C103.9,249.6,103.9,249.3,104,249z"/>
		<path class="st14" d="M30.4,268.6c-0.2-0.3-0.1-0.6,0-0.9C30.4,268,30.4,268.3,30.4,268.6z"/>
		<path class="st13" d="M84,267.8c0.1,0.9,0.1,1.8,0,2.7c-0.1-0.4-0.1-0.8-0.1-1.1C83.9,268.8,83.9,268.3,84,267.8z"/>
		<path class="st14" d="M30.2,273.3c0-0.6,0-1.3,0.1-1.9c0.1,0.6,0.1,1.3,0.1,1.9L30.2,273.3z"/>
		<path class="st12" d="M29.7,273.9c0.3,0.3,0.5,0.6,0.7,1c0.9,1,1.8,2,2.5,3.2c0.4,0.4,0.8,0.7,1.2,1c1.5,0.9,3.2,1.7,4.9,1.5
			c1-0.1,2.1,0.1,3.1-0.2c0.8-0.2,1.5-0.5,2.3-0.7c-0.2,0.3-0.4,0.7-0.5,1c-0.7,0.3-1.5,0.6-2.3,0.6c-0.8,0-1.5,0.1-2.3,0.1
			c-1.2-0.1-2.4-0.2-3.5-0.7c-1.2-0.5-2.4-1.1-3.3-1.9c-0.6-0.5-1.1-1.1-1.6-1.7c-0.4-0.6-0.7-1.2-1.1-1.8
			C29.8,274.7,29.7,274.3,29.7,273.9z"/>
		<path class="st14" d="M28.6,277.1c0.1-0.8,0.5-1.5,1.2-1.9c0.4,0.6,0.6,1.2,1.1,1.8c0.4,0.6,1,1.2,1.6,1.7c1,0.9,2.1,1.4,3.3,1.9
			c1.1,0.5,2.3,0.6,3.5,0.7c0.8,0.1,1.5,0,2.3-0.1c0.8,0,1.5-0.3,2.3-0.6c0.3,0.2,0.7,0.4,0.6,0.8c-0.3,0.8-0.7,1.6-1.2,2.3
			c-0.5,0.7-1.3,1.2-2.2,1.2c-0.8,0-1.6,0-2.4-0.1c-1.9-0.2-3.7-1-5.4-1.8c-0.8-0.3-1.5-0.7-2.2-1.2c-0.6-0.5-1.3-0.9-2-1.3
			c-0.4-0.3-0.8-0.8-0.7-1.3C28.4,278.5,28.4,277.8,28.6,277.1z"/>
		<path class="st12" d="M97.6,285.8c1.1-0.7,2.1-1.6,3.3-2.2c-0.2,0.3-0.2,0.6-0.1,1c-0.7,0.5-1.5,1-2.2,1.5c-1.7,1.3-4,2-6.2,1.8
			c-1-0.1-2-0.1-2.9-0.3c-1.1-0.3-2.2-0.7-3.1-1.3c-0.5-0.3-1.1-0.5-1.3-1c-0.1-0.2-0.1-0.4-0.1-0.7c0,0,0.1-0.1,0.1-0.1
			c1,0.5,1.9,1.3,2.9,1.7c1.1,0.5,2.3,0.9,3.6,1C93.7,287.5,95.8,287,97.6,285.8z"/>
		<path class="st14" d="M98.6,286.1c0.7-0.5,1.5-1,2.2-1.5c0.3,0.5,0.8,0.9,0.8,1.5c0,0.5-0.1,1-0.3,1.4c-0.3,0.8-0.6,1.6-1.2,2.2
			c-0.6,0.5-1.2,1-1.9,1.3c-0.8,0.4-1.6,0.7-2.5,0.7c-1.5,0.1-2.9,0.5-4.4,0.4c-1.3,0-2.6-0.4-3.8-0.9c-0.7-0.3-1.3-0.7-1.9-1.2
			c-0.5-0.5-1.1-1.1-1-1.8c0-1-0.1-2,0.4-2.9c0.3,0.5,0.9,0.8,1.3,1c1,0.6,2,1,3.1,1.3c1,0.2,1.9,0.2,2.9,0.3
			C94.6,288.1,96.9,287.4,98.6,286.1z"/>
	</g>
	<g>
		<path class="st16" d="M88.6,13.8c0.2-0.2,0.3-0.5,0.5-0.6c0.1,0.3,0.3,0.5,0.3,0.8c-0.4,1.2,0,2.5,0.6,3.6
			c0.4,0.7,0.8,1.5,1.4,2.1c0.6,0.7,1.2,1.5,1.9,2.2c0.7,0.7,1.1,1.7,1.4,2.7c0.3,1-0.2,2-0.3,3.1c-0.1,1.2,0.3,2.4,0.6,3.6
			c0.3,1,0.2,2,0,3c-0.1,0.5-0.2,1.1-0.4,1.6c-0.3,0.8-0.3,1.6-0.7,2.3c-0.4,1.1-1.1,2.3-1.1,3.5c0,0.6,0.1,1.2,0.1,1.9
			c0,1-0.2,2.1-0.6,3c-0.6,1.6-1.6,3-1.8,4.7c-0.1,0.8-0.2,1.5-0.3,2.3c-0.1,0.9,0.1,1.7,0.4,2.5c0.3,0.9,0.9,1.7,1.5,2.4
			c0.8,0.8,1.5,1.7,2.2,2.6c0.6,0.7,0.8,1.5,1,2.3c0.5,1.8,0.3,3.7,1.1,5.3c0.2,0.4,0.3,0.9,0.7,1c-1.2,0.4-2.2,1.1-3.4,1.4
			c-1.4,0.4-2.7,0.9-4.1,1.1c-1.3,0.2-2.5,0.5-3.8,0.4c-1.4,0-2.7,0-4.1-0.1c-1.3-0.1-2.6-0.1-3.8-0.3c-1.2-0.3-2.4-0.7-3.6-1
			c-1.4-0.6-2.9-1.4-3.9-2.7c-0.4-0.6-0.8-1.2-1.2-1.9c-0.4-0.8-0.6-1.6-0.8-2.5c-0.2-0.9-0.4-1.9-0.5-2.9c-0.1-1.2-0.2-2.3-0.1-3.5
			c0.8,0.2,1.7,0,2.5-0.1c0.6-0.1,1.3-0.2,1.9-0.5c1.2-0.7,2.4-1.5,3.4-2.5c0.8-0.8,1.4-1.7,2-2.7c0.6-1,1.1-2.1,1.4-3.2
			c0.1-0.4,0.2-0.8,0.4-1.1c0.7-0.7,1.8-0.2,2.7-0.4c-0.5-0.5-1.2-0.8-1.8-1.1c-1.1-0.7-2.1-1.6-3.1-2.4c-0.5-0.4-0.9-0.9-1.3-1.3
			c-0.3-0.3-0.4-0.7-0.7-0.8c-0.4-0.9-0.7-1.9-0.9-2.9c-0.4-2-0.4-4-0.1-6c0.3-2,0.4-4.1,0.8-6.1c0.2-1.1,0.5-2.3,1-3.4
			c0.4-0.4,0.7-1,1.1-1.5c1.4-1.6,3-2.8,4.8-3.8c0.8-0.5,1.7-0.9,2.6-1.2c0.8-0.3,1.6-0.7,2.3-1.2c0.3-0.2,0.7-0.5,0.8-0.9
			C87.9,14.5,88.3,14.2,88.6,13.8z"/>
		<path class="st17" d="M90,17.7c-0.6-1.1-1-2.4-0.6-3.6c0.2,0.5,0.3,1.1,0.6,1.5c0.3,0.5,0.6,1.1,1,1.6c0.4,0.5,0.9,0.8,1.3,1.3
			c0.2,0.3,0.5,0.5,0.8,0.7c0.9,0.6,1.7,1.2,2.6,1.8c0.6,0.6,1.2,1.3,1.5,2.1c0.2,0.7,0.4,1.4,0.5,2.2c0.1,1.7-0.2,3.5,0.1,5.2
			c0.1,1.1,0.4,2.2,0.2,3.4c-0.1,0.7-0.3,1.5-0.7,2.1c-0.8,1.2-1.8,2.3-2.6,3.6c-0.5,0.8-0.7,1.7-0.9,2.5c-0.3,1.3,0.1,2.8-0.5,4
			c-0.5,1.1-1.4,2-1.9,3.2c-0.4,1.1-0.8,2.3-0.5,3.5c0.3,0.9,0.6,1.8,1.3,2.4c0.4,0.4,0.9,0.8,1.4,1.2c0.8,0.8,1.7,1.3,2.6,2
			c0.4,0.4,1,0.8,1.2,1.3c0.8,1.5,0.8,3.2,0.9,4.9c0,1,0.3,1.9,0.6,2.8c0.2,0.5,0.5,0.9,0.7,1.3c-0.8,0.4-1.6,0.9-2.4,1.3
			c-0.5-0.1-0.6-0.7-0.7-1c-0.8-1.7-0.6-3.6-1.1-5.3c-0.3-0.8-0.5-1.7-1-2.3c-0.8-0.9-1.5-1.7-2.2-2.6c-0.6-0.7-1.2-1.5-1.5-2.4
			c-0.3-0.8-0.5-1.7-0.4-2.5c0.1-0.8,0.2-1.5,0.3-2.3c0.3-1.7,1.2-3.2,1.8-4.7c0.4-1,0.6-2,0.6-3c0-0.6-0.2-1.2-0.1-1.9
			c0-1.3,0.7-2.4,1.1-3.5c0.4-0.7,0.5-1.5,0.7-2.3c0.2-0.5,0.3-1.1,0.4-1.6c0.2-1,0.3-2,0-3c-0.2-1.2-0.7-2.4-0.6-3.6
			c0.1-1,0.6-2,0.3-3.1c-0.3-1-0.6-2-1.4-2.7c-0.7-0.7-1.2-1.5-1.9-2.2C90.8,19.2,90.4,18.4,90,17.7z"/>
		<path class="st17" d="M80.4,17.5c2.3-1.1,4.9-1.5,7.1-2.7c-0.2,0.4-0.5,0.7-0.8,0.9c-0.7,0.5-1.5,1-2.3,1.2
			c-0.9,0.3-1.8,0.7-2.6,1.2c-1.8,1-3.5,2.2-4.8,3.8c-0.4,0.4-0.7,1-1.1,1.5c0.4-1.1,1-2.1,1.6-3.1C78.2,19.2,79.2,18.1,80.4,17.5z"
			/>
		<path class="st17" d="M81.9,31.5c0.4-0.1,0.6,0.3,0.9,0.5c0.3,0.1,0.7-0.3,1,0c0.1,0.4-0.2,0.6-0.4,0.9c-0.2,0.3-0.4,0.7-0.7,0.8
			c-0.2,0.1-0.4,0.2-0.5,0c-0.3-0.5-0.3-1.1-0.3-1.7C81.8,31.8,81.7,31.6,81.9,31.5z"/>
		<path class="st17" d="M75,41.7c0.3,0.2,0.5,0.6,0.7,0.8c0.4,0.5,0.8,1,1.3,1.3c1,0.8,2,1.7,3.1,2.4c0.6,0.3,1.3,0.6,1.8,1.1
			c-0.9,0.2-1.9-0.2-2.7,0.4c-0.2,0.3-0.3,0.8-0.4,1.1c-0.3,1.1-0.8,2.2-1.4,3.2c-0.6,1-1.2,1.9-2,2.7c-1,1.1-2.2,1.8-3.4,2.5
			c-0.6,0.3-1.2,0.4-1.9,0.5c-0.8,0.1-1.7,0.3-2.5,0.1c0.1-0.2,0-0.6,0.3-0.7c0.5-0.1,1-0.4,1.4-0.7c1.1-0.6,2.1-1.3,3-2.1
			c0.9-0.9,1.8-1.9,2.3-3c0.5-1.1,0.7-2.3,0.8-3.6c0.1-1.1,0.1-2.2,0.1-3.3c0-0.5,0-1-0.1-1.4C75.5,42.7,75.2,42.3,75,41.7z"/>
		<path class="st16" d="M115.2,53.2c0.4,0,0.7-0.3,1.1-0.3c1.5,0,3,0.2,4.5,0.7c0.6,0.2,1.3,0.6,1.7,1.1c0.6,0.7,1.3,1.2,1.9,1.9
			c0.5,0.6,0.9,1.2,1.4,1.8c0.5,0.7,1.2,1.3,1.5,2.1c0.3,1.1,0.1,2.2-0.1,3.3c-0.3,1.2-0.5,2.4-0.9,3.6c-0.3,1.1-0.7,2.1-1.2,3.1
			c-0.6,1.6-1.3,3.2-2.1,4.7c-0.2,0.5-0.6,1-0.4,1.5c0.5,1.5,1.2,3,1.7,4.6c0.5,1,0.9,2,1.3,3.1c0.2,0.9,0.7,1.8,1,2.7
			c0.3,1.1,0.8,2.1,1.1,3.3c0.2,0.8,0.6,1.6,0.7,2.4c0.3,1.3,0.6,2.6,0.8,3.9c0.5,3,0.4,6,0.2,9c-0.2,2-0.8,3.9-1.4,5.8
			c-0.4,1.3-1.1,2.5-1.6,3.8c-0.6,1.1-1.2,2.1-1.9,3.1c-0.5,0.6-0.9,1.2-1.4,1.8c-0.6,0.6-1.2,1.3-2.1,1.4c-0.9,0.2-1.7-0.2-2.5-0.5
			c-0.9-0.5-1.7-1-2.5-1.5c-0.7-0.4-1.3-1-1.9-1.5l0,0c-0.1-0.5-0.4-0.9-0.5-1.4c-0.7-1.8-1.4-3.7-1.6-5.7c0-1.2,0.2-2.5,0.3-3.7
			c0.1-0.4,0.1-0.8,0.4-1.1c0.5-0.5,1.2-0.8,1.8-1.2c1.5-1,2.8-2.3,3.7-3.9c0.6-1.2,1-2.4,1.3-3.6c0.2-0.9,0.3-1.7,0.2-2.6
			c0-0.4,0.1-0.8,0.2-1.1c0.1-1.5,0-2.9-0.3-4.3c-0.4-2.1-1.4-4-2.1-6.1c0-0.5,0-1.1,0.2-1.5c0.7-1.4,1.2-3,1.4-4.6
			c0.2-1.4,0.1-2.9-0.3-4.3c-0.1-0.4-0.4-0.8-0.6-1.3c-0.1-1.1-0.7-2-1.1-2.9c0.7-0.7,1.5-1.3,2.4-1.8c0.7-0.4,1.6-0.5,2.1-1.1
			c-0.4-0.3-0.9-0.6-1.3-0.9c-0.2-0.2-0.4-0.4-0.6-0.5c-0.2,0-0.4,0.1-0.6,0.1c-1.1,0.1-2.2,0-3.3,0c-0.6,0.3-1.2,0.8-1.9,0.9
			c-0.3,0-0.6,0-0.7-0.3c-0.1-0.5,0-1,0.1-1.5c-0.3-0.1-0.3-0.4-0.3-0.6c-0.1,0-0.2-0.1-0.2-0.1c0-0.2-0.2-0.4,0-0.6
			c0.8-1.4,1.7-2.6,2.9-3.6c0.5-0.4,0.9-0.8,1.4-1c1.2-0.5,2.4-0.4,3.6-0.6c-0.6-0.6-1.1-1.2-1.8-1.6c-1.1-0.3-2.5-0.2-3.6-0.6
			c-0.4-0.2-0.7-0.4-0.8-0.9C114.5,53.5,114.9,53.2,115.2,53.2z"/>
		<path class="st16" d="M62,58.2c0.1-0.1,0.3,0,0.4,0c-0.1,0.5,0,0.9,0,1.4c-0.2,0.8-0.1,1.7-0.2,2.5c-0.1,1.5-0.2,3.1-0.3,4.6
			c-0.4,2.5-0.7,4.9-1.2,7.4c-0.1,0.4-0.2,0.8-0.1,1.2l0,0.1c-0.5,0.4-0.9,0.9-1.3,1.5c-1.1,1.4-2.3,2.7-3.2,4.2
			c-0.6,0.9-1.1,1.9-1.6,2.9l0,0c0,0-0.1,0-0.1,0c-0.8,0.9-1.3,1.9-1.9,2.9c-1.2,2.2-2.4,4.3-3.4,6.6c-1.9,4.7-2.4,9.8-2.4,14.9
			c0,0.4,0,0.8,0,1.2c0,0.3,0.3,0.3,0.5,0.5c-0.7,1.7-1.5,3.3-2.2,5c-0.5,1.3-1,2.5-1.2,3.9c-0.3,1.6-0.1,3.2-0.1,4.8
			c0.2,1.4,0.2,2.8,0.3,4.1c0.1,1.5,0.1,3,0.2,4.5c0,1.3,0,2.6,0,3.8c0,1.6-0.2,3.2-0.2,4.8c-0.2,2.2-0.6,4.4-1,6.6
			c0-0.1,0-0.3,0-0.4c-0.8,1.9-1.4,3.9-2,5.9c-0.4,1.5-0.8,3-0.9,4.5c-0.1,0.8-0.2,1.5-0.4,2.3c-0.8,2.9-0.9,6.1,0.4,8.9
			c0.3,1,0.3,2.1,0.6,3.1c-0.3,1.8-0.8,3.5-1.4,5.3c-0.3,1-0.6,2-0.7,3.1c-0.1,0.8-0.4,1.6-0.8,2.3c-0.3,0.6-1.3,0.5-1.5-0.1
			c-0.1-0.5-0.1-0.9-0.1-1.4c0-1.5,0-3.1-0.1-4.6c-0.2,0.9-0.4,1.9-0.7,2.9c-0.4,1.2-0.5,2.5-0.3,3.7c0.3,1.2,0.8,2.3,1.4,3.3
			c0.3,0.5,0.2,1,0.1,1.5c0,0.3-0.2,0.6-0.5,0.6c-0.9,0-1.7-0.4-2.3-1c0,0.3-0.1,0.7-0.2,1c-0.1,0.3-0.4,0.4-0.7,0.3
			c-0.4-0.2-0.5-0.7-0.6-1.1c-0.4-0.9-0.6-1.9-0.8-3c-0.5-3-0.3-6-0.2-9c0-2.4,0.9-4.8,0.5-7.2c-0.7-1.7-1.4-3.5-2-5.2
			c-0.4-1.2-0.7-2.4-1-3.6c-0.3-1.3-0.5-2.5-0.7-3.8c-0.1-1.3-0.4-2.6-0.5-3.8c-0.1-1.3-0.3-2.6-0.4-3.8c-0.1-1.7-0.2-3.4-0.3-5.2
			c0-2.8,0.1-5.6,0.2-8.4c0.1-1.8,0.3-3.5,0.4-5.3c0.2-0.1,0.6-0.1,0.6-0.4c0.2-1.2,0.3-2.3,0.5-3.5c0.1-0.6,0.4-1.1,0.6-1.7
			c0.4-1,0.6-2,1.1-2.9c0.4-0.9,0.9-1.9,1-2.9c0.1-0.7-0.3-1.4-0.4-2.2c-0.3-1.7-0.7-3.3-1-4.9c-0.2-1.1-0.3-2.2-0.1-3.2
			c-0.1-0.2-0.2-0.5-0.2-0.8c-0.1-1.8-0.1-3.6,0-5.4c0-0.3,0-0.6,0-1c0.9-3.7,2.1-7.3,3.4-10.9c0.4-1,0.8-2.1,1.2-3.1
			c0.7-1.6,1.6-3.2,2.4-4.7c0.5-1,1-1.9,1.5-2.9c0.6-1,1.3-2,2-3.1c0.5-0.8,1.1-1.5,1.6-2.3c0.6-0.8,1.2-1.6,1.8-2.4
			c0.7-0.9,1.5-1.7,2.3-2.5c0.6-0.6,1.1-1.3,1.7-1.8c0.8-0.8,1.8-1.4,2.6-2.2c1.4-1.1,2.9-2.1,4.4-3c1.7-1.1,3.5-1.8,5.3-2.6
			C60.6,58.6,61.3,58.5,62,58.2z"/>
		<path class="st17" d="M62.3,62.1c0.1-0.8,0-1.7,0.2-2.5c0.4,1.6,0.2,3.2,0.1,4.9c-0.1,2-0.1,4-0.3,5.9c-0.2,1.3-0.4,2.7-0.9,4
			c-0.2,0.3-0.4,0.6-0.7,0.8c-0.1-0.4,0.1-0.8,0.1-1.2c0.5-2.4,0.8-4.9,1.2-7.4C62.1,65.2,62.2,63.6,62.3,62.1z"/>
		<path class="st3" d="M119.1,64.4c0.2,0,0.4-0.1,0.6-0.1c0.2,0.1,0.4,0.4,0.6,0.5c0.4,0.4,0.9,0.6,1.3,0.9
			c-0.5,0.6-1.4,0.7-2.1,1.1c-0.9,0.5-1.7,1-2.4,1.8c-0.1-0.1-0.2-0.3-0.3-0.4c0.9-1.3,1.8-2.6,2.8-3.7
			C119.4,64.4,119.3,64.4,119.1,64.4z"/>
		<path class="st3" d="M118.2,71.5c0.2,0.4,0.4,0.8,0.6,1.3c0.4,1.4,0.5,2.9,0.3,4.3c-0.2,1.6-0.7,3.1-1.4,4.6
			c-0.2,0.5-0.2,1-0.2,1.5c-0.6-1.3-0.7-2.8-0.5-4.2c0.2-1.3,0.6-2.6,0.9-3.8C118.1,73.9,118.3,72.7,118.2,71.5z"/>
		<path class="st3" d="M54.4,83.9c0,0,0.1,0,0.1,0c-0.5,1.3-1,2.6-1.3,3.9c-0.4,1.7-0.8,3.3-0.7,5c0,0.9,0,1.9,0.1,2.8
			c0.1,0.9,0,1.7,0,2.6c-0.2,0.6-0.5,1.1-0.7,1.6c-0.6,1.1-0.9,2.4-1.6,3.5c-1.1,2.2-2.1,4.5-3.2,6.7c-0.2-0.1-0.5-0.2-0.5-0.5
			c-0.1-0.4,0-0.8,0-1.2c0-5,0.5-10.2,2.4-14.9c0.9-2.3,2.2-4.4,3.4-6.6C53.1,85.9,53.6,84.8,54.4,83.9z"/>
		<path class="st3" d="M116.7,100.9c1.6-1.7,2.4-4,3-6.2c0.1,0.9,0,1.8-0.2,2.6c-0.3,1.2-0.8,2.5-1.3,3.6c-0.9,1.6-2.2,2.9-3.7,3.9
			c-0.6,0.4-1.3,0.7-1.8,1.2c-0.3,0.3-0.3,0.7-0.4,1.1c-0.2,1.2-0.3,2.5-0.3,3.7c0.2,2,0.8,3.9,1.6,5.7c0.2,0.5,0.5,0.9,0.5,1.4
			c-1.5-1.3-2.8-2.9-3.8-4.6c-0.9-1.6-1.8-3.1-2.4-4.8c0.6-0.8,1.2-1.6,2-2.2c0.7-0.6,1.4-1.3,2.2-1.8c0.9-0.6,1.7-1.2,2.6-1.8
			C115.2,102.2,116,101.6,116.7,100.9z"/>
		<path class="st3" d="M29.7,100.3c0,0.3,0,0.6,0,1c-0.2,1.8-0.1,3.6,0,5.4c0,0.3,0.1,0.5,0.2,0.8c-0.1,1.1-0.1,2.2,0.1,3.2
			c0.3,1.7,0.7,3.3,1,4.9c0.1,0.7,0.4,1.4,0.4,2.2c-0.1,1-0.5,2-1,2.9c-0.5,0.9-0.7,2-1.1,2.9c-0.2,0.6-0.5,1.1-0.6,1.7
			c-0.2,1.2-0.3,2.3-0.5,3.5c0,0.3-0.4,0.3-0.6,0.4c0.2-2.9,0.5-5.9,0.5-8.8c0-1.9-0.1-3.9-0.1-5.8c0-1.4,0-2.8,0-4.3
			c0.1-2.3,0.5-4.5,0.9-6.8C29.2,102.5,29.4,101.4,29.7,100.3z"/>
		<path class="st3" d="M41,153.1c0.6-2,1.2-3.9,2-5.9c0,0.1,0,0.3,0,0.4c-0.2,1.3-0.3,2.6-0.5,3.9c-0.3,1.5-0.6,3-0.7,4.5
			c-0.3,2.4-0.9,4.8-1.2,7.2c-0.1,0.7,0,1.4,0,2.1c0,0.4,0.1,0.9,0.2,1.3c0.3,1.7,0.2,3.5-0.2,5.2c-0.3-1-0.3-2.1-0.6-3.1
			c-1.3-2.8-1.2-6-0.4-8.9c0.2-0.7,0.3-1.5,0.4-2.3C40.3,156.1,40.6,154.5,41,153.1z"/>
	</g>
	<g>
		<path class="st0" d="M85.1,7.6c1.1-0.1,2.1,0,3.2,0c0,0,0,0.1,0,0.2c-1.1,0-2.1,0-3.2,0.2c-1.9,0.3-3.7,1.2-5,2.6
			c-0.7,0.7-1.6,1.2-2.6,1.5c-1.3,0.4-2.6,1.1-3.7,1.9c-0.5,0.4-0.9,0.8-1.3,1.2c1.1-1.7,3-2.9,4.9-3.5c0.7-0.2,1.4-0.6,2-1
			c0.5-0.4,0.9-0.8,1.3-1.2C81.9,8.5,83.4,7.8,85.1,7.6z"/>
		<path class="st0" d="M84.6,9.2c1-0.5,2.1-0.6,3.2-0.6c0.7,0,1.5,0,2.1,0.4c-0.7,0.1-1.4-0.1-2.1,0c-1,0.1-2.1,0.2-3,0.7
			c-1.7,0.7-3.1,2-4.7,2.8c-0.8,0.4-1.7,0.8-2.6,1.1c-1.9,0.6-3.7,1.9-4.8,3.6c-0.8,1.4-1.3,2.9-2.1,4.2c0.3-1.1,0.8-2.1,1.2-3.1
			c0.7-1.8,2.1-3.4,3.8-4.4c1.1-0.6,2.3-0.9,3.4-1.5c1.2-0.5,2.3-1.2,3.4-2C83,10,83.8,9.6,84.6,9.2z"/>
		<path class="st0" d="M90.7,8.7c0.1,0,0.2,0,0.2,0c-0.3,0.8-0.6,1.5-0.9,2.2c-0.2,0.5-0.3,1.1-0.5,1.6c0.4,0.9,0.9,1.8,1.5,2.7
			c0.9,1.1,2.2,1.7,3.3,2.5c1.2,1,2.4,2,3.3,3.3c0.8,1.3,1.3,2.9,1.3,4.4c0,1-0.4,2-0.1,3.1c0.3,1.7,1.1,3.3,0.8,5.1
			c-0.1,0.8-0.6,1.5-1,2.2c-0.6,1-1.4,1.8-2,2.9c-0.5,0.9-0.8,1.9-1,2.9c-0.1,0.7,0,1.4,0,2.1c0,1.5-0.6,2.9-1.4,4
			c-0.5,0.7-1.1,1.4-1.3,2.2c-0.4,1.3,0.1,2.6,0.9,3.6c1.2,1.6,2.7,2.9,3.9,4.5c0.6,0.8,1.1,1.8,1.3,2.9c0.2,0.9,0.2,1.7,0.3,2.6
			c0.1,0.9,0.1,1.8,0.5,2.6c0.4,0.8,1.1,1.4,1.7,2c0.9,1.2,1.4,2.6,1.4,4.1c0.1,1.1-0.4,2.1,0,3.2c0.3,0.9,0.8,1.8,1.7,2.1
			c0.8,0.3,1.6,0.3,2.4,0.5c0.7,0.2,1.4,0.3,2,0.7c0.7,0.4,1.3,1,1.8,1.6c0.7,0.8,1,2,0.8,3.1c-0.1-0.6-0.2-1.3-0.4-1.9
			c-0.2-0.5-0.5-1-0.9-1.4c-0.6-0.7-1.4-1.3-2.2-1.5c-0.7-0.2-1.4-0.4-2.1-0.5c-0.8-0.1-1.5-0.3-2.1-0.7c-1-0.8-1.5-2.1-1.3-3.4
			c0.1-1.1,0.2-2.2-0.1-3.3c-0.2-0.9-0.6-1.7-1.1-2.4c-0.5-0.6-1.1-1.1-1.5-1.7c-0.5-0.8-0.6-1.8-0.6-2.8c-0.1-1.9-0.3-3.9-1.5-5.5
			c-1.2-1.5-2.6-2.8-3.7-4.2c-0.8-1-1.4-2.2-1.3-3.4c0-1.1,0.6-2,1.2-2.9c1-1.3,1.7-2.8,1.6-4.5c-0.2-2.3,0.6-4.6,2-6.4
			c0.7-0.8,1.2-1.7,1.8-2.7c0.5-1.1,0.3-2.4-0.1-3.6c-0.4-1.3-0.8-2.7-0.5-4.2c0.3-2-0.2-4.1-1.4-5.7c-1.2-1.7-2.9-3-4.6-4.2
			c-0.7-0.5-1.4-1.1-1.8-1.9c-0.4-0.8-0.8-1.5-1-2.3c-0.1,0.3-0.2,0.6-0.4,0.9c-0.1,0-0.2,0-0.2,0c0.1-0.6,0.4-1.1,0.6-1.7
			C89.8,10.7,90.2,9.7,90.7,8.7z"/>
		<path class="st0" d="M92.7,8.9c0.6-0.1,1.2,0,1.8,0c0.7,0,1.3,0,2,0.2c1.8,0.5,3.5,1.2,4.8,2.5c1.2,1.2,2.3,2.5,3,4
			c0.5,0.9,0.7,1.8,1,2.8c0.4,1.5,0.4,3.1,0.8,4.7c0.3,1.8,0.8,3.6,1.7,5.1c1,1.4,2.4,2.6,3.4,3.9c0.6,0.8,1.2,1.6,1.6,2.5
			c0.6,1.3,0.9,2.8,0.9,4.2c0.1,1.3-0.2,2.6-0.3,3.9c-0.1,2,0.3,4,1.4,5.6c0.8,1.2,1.7,2.2,2.4,3.4c0.2,0.3,0.4,0.7,0.4,1.1
			c-0.4-0.1-0.5-0.6-0.8-0.9c-0.8-1.2-1.8-2.2-2.5-3.4c-0.5-0.8-0.9-1.8-1.1-2.7c-0.2-1.3-0.3-2.6-0.1-3.8c0.1-1.1,0.3-2.2,0.2-3.3
			c-0.1-1.4-0.3-2.9-1-4.2c-0.6-1.2-1.4-2.3-2.4-3.2c-0.9-1-1.9-1.9-2.6-3c-0.9-1.5-1.4-3.2-1.7-4.9c-0.4-1.8-0.4-3.7-1-5.5
			c-0.3-1.2-0.8-2.4-1.5-3.5c-0.8-1-1.6-2.1-2.5-2.9c-0.9-0.8-2-1.3-3.1-1.7c-0.6-0.2-1.2-0.4-1.9-0.5c-0.7-0.1-1.5-0.1-2.2-0.2
			c-0.9-0.1-1.7,0.3-2.6,0.3C91.5,9.1,92.1,9,92.7,8.9z"/>
		<path class="st0" d="M87,10.4c0.8-0.3,1.6-0.7,2.4-0.8c0,0.1,0.1,0.2,0.1,0.2c-0.7,0.2-1.4,0.4-2.1,0.8c-1,0.4-1.9,1-2.8,1.6
			c-1,0.6-2.1,0.8-3.1,1c-1.2,0.4-2.5,0.7-3.6,1.4c-1.5,0.7-2.6,1.9-3.6,3.1c-0.9,1.2-1.8,2.5-2.5,3.9c-1,2.1-2,4.3-2.6,6.6
			c-0.5,1.6-0.8,3.3-1.3,5c-0.6,2-0.8,4.1-1,6.2c0,1.5,0.1,3,0.4,4.5c0.2,0.8,0.3,1.6,0.2,2.4c-0.1,1.3-0.7,2.5-1.4,3.6
			c-1,1.5-2.3,2.9-3.2,4.5c-0.6,1-0.8,2.2-1.3,3.3c-0.1-0.2-0.1-0.5-0.1-0.7c0.2-1,0.5-1.9,1-2.8c0.9-1.6,2.2-2.9,3.2-4.4
			c0.7-1,1.2-2.2,1.3-3.5c0.1-1.3-0.3-2.6-0.4-4c-0.1-1.3-0.2-2.7-0.1-4.1c0.1-1.8,0.4-3.5,0.9-5.2c0.3-1.2,0.6-2.4,0.9-3.7
			c0.7-2.4,1.4-4.7,2.6-6.9c0.5-1.1,1.2-2.2,1.9-3.3c0.8-1.3,1.8-2.5,3-3.5c1.1-0.9,2.3-1.6,3.6-2.1c1.1-0.4,2.2-0.7,3.3-1
			C84.2,12.2,85.5,11.1,87,10.4z"/>
		<path class="st0" d="M91.4,10.4c0.7-0.2,1.4,0,2.1,0c0.9,0,1.7,0.4,2.5,0.8c0.9,0.6,1.6,1.3,2.4,2c1,0.8,1.8,1.8,2.5,2.8
			c1.1,1.7,2.1,3.5,2.7,5.4c0.4,1.3,0.8,2.6,1.2,4c0.2,0.8,0.3,1.7,0.6,2.5c0.3,1.1,0.5,2.3,1.1,3.3c0.5,0.8,0.9,1.6,1.5,2.4
			c0.3,0.4,0.7,0.7,1,1.1c0.8,1.1,1.5,2.4,1.6,3.8c0.1,1.3-0.2,2.7-0.1,4c0.2,1,0.4,1.9,0.8,2.8c0.4,0.8,0.8,1.6,0.9,2.4
			c0.1,0.8-0.1,1.5-0.1,2.3c0,0.8,0.1,1.5,0.3,2.3c0.2,0.6,0.4,1.1,0.7,1.6c0.3,0.9,0.6,1.8,0.4,2.7c-0.2,1.3-0.4,2.6-0.5,3.9
			c-0.1,0-0.2,0-0.3,0c0-1.4,0.3-2.7,0.5-4c0.1-1-0.2-2-0.6-2.9c-0.6-1.2-0.9-2.6-0.8-3.9c0-0.6,0.2-1.2,0.1-1.8
			c-0.2-1-0.6-1.8-1-2.7c-0.4-0.9-0.6-2-0.7-3c0-1.6,0.4-3.1,0-4.7c-0.3-1.1-1-2.1-1.7-3c-0.6-0.6-1.1-1.3-1.6-2
			c-0.5-0.8-1-1.7-1.2-2.6c-0.4-1.3-0.7-2.5-0.9-3.8c-0.4-1.9-1-3.7-1.6-5.6c-0.6-1.5-1.4-3-2.3-4.4c-0.7-1-1.5-1.9-2.4-2.7
			c-0.7-0.6-1.4-1.3-2.1-1.8c-0.4-0.3-0.9-0.5-1.4-0.7C93.7,10.5,92.5,10.7,91.4,10.4z"/>
		<path class="st0" d="M96.4,10.4c0.7,0.1,1.5,0.3,2.1,0.8c0.8,0.6,1.6,1.1,2.3,1.9c1.5,1.5,2.4,3.5,3,5.5c0.2,0.7,0.5,1.5,0.4,2.3
			c-0.2-1-0.5-2-0.9-3c-0.6-1.5-1.2-3-2.3-4.2c-0.4-0.5-0.9-1-1.5-1.4c-0.7-0.5-1.3-1.2-2.1-1.4C97.1,10.7,96.8,10.6,96.4,10.4z"/>
		<path class="st0" d="M85.8,12.8c1.2-0.7,2.3-1.7,3.6-2.1c-0.2,0.4-0.6,0.5-1,0.7c-0.9,0.5-1.7,1.3-2.6,1.8
			c-0.7,0.3-1.3,0.7-2.1,0.9c-1.1,0.3-2.3,0.6-3.4,1c-1.9,0.7-3.6,1.9-4.9,3.5c-0.9,1.1-1.6,2.3-2.3,3.5c-0.4,0.8-0.9,1.6-1.2,2.4
			c-0.7,1.5-1.3,3-1.6,4.6c-0.3,1.3-0.6,2.7-0.8,4c-0.3,1.5-0.6,3-0.6,4.6c-0.1,1.6,0,3.1,0.1,4.7c0.1,1.1,0.2,2.3,0.1,3.4
			c-0.2,1.9-1,3.6-1.9,5.2c-0.6,1.1-1.4,2-2.2,3c-0.6,0.7-1.2,1.5-1.8,2.2c-0.3,0.3-0.5,0.6-0.9,0.7c0.3-0.5,0.7-0.9,1-1.3
			c0.7-0.9,1.4-1.8,2.1-2.7c1.1-1.4,2-2.9,2.7-4.5c0.4-1.2,0.7-2.4,0.7-3.6c-0.1-2.3-0.4-4.7-0.2-7c0-1.6,0.3-3.2,0.6-4.7
			c0.5-2.5,0.9-5,1.9-7.4c0.7-1.9,1.8-3.7,2.8-5.5c1.1-1.8,2.7-3.4,4.6-4.5c1.7-1,3.6-1.4,5.4-2C84.7,13.5,85.2,13.2,85.8,12.8z"/>
		<path class="st0" d="M90.5,11.8c0-0.1,0.1-0.2,0.1-0.2c0.9,0.4,1.7,0.9,2.5,1.4c0.9,0.7,1.8,1.4,2.6,2.3c1.2,1.3,2.1,2.8,2.9,4.4
			c0.9,1.8,1.7,3.7,1.8,5.7c0.2,1.2-0.1,2.4,0.2,3.5c0.3,1,0.5,2,0.7,3c0.2,1.2,0,2.4-0.1,3.5c-0.1,0.9-0.6,1.8-0.8,2.7
			c-0.2,0.8-0.5,1.5-0.7,2.2c-0.2,0.6-0.2,1.2-0.4,1.8c-0.6,1.3-0.5,2.9-1.3,4.2c-0.4,0.7-0.8,1.5-1,2.4c-0.2,0.9-0.5,1.8-0.4,2.7
			c0.2,1.6,0.7,3.2,1.6,4.5c0.6,0.9,1.3,1.9,1.7,2.9c0.8,2,0.2,4.2,1,6.1c0.5,1.3,1.6,2.1,2.5,3.1c0.6,0.6,0.8,1.4,1.1,2.2
			c0.2,0.7,0.2,1.4,0.5,2c0.4,0.9,1.3,1.4,1.8,2.1c0.5,0.6,0.7,1.3,1.2,1.8c0.8,0.8,1.9,1.2,2.7,2c1.2,0.9,2.1,2.2,2.8,3.5
			c0.5,0.8,0.7,1.7,0.9,2.6c0.2,0.8,0.2,1.6,0.1,2.4c-0.1,0.9-0.5,1.7-0.4,2.6c0.1,1.1,0.5,2.3,1,3.3c0.6,1.1,1,2.4,1,3.7
			c0,0.5-0.1,0.9-0.2,1.4c0,0.1-0.1,0.3-0.2,0.3c0-0.9,0.1-1.8-0.1-2.6c-0.2-1.2-0.7-2.2-1.2-3.3c-0.5-1.4-1-2.9-0.5-4.4
			c0.4-1.3,0.4-2.6,0-3.9c-0.3-1.3-1-2.5-1.8-3.6c-0.8-1.1-1.9-2-3.1-2.7c-0.6-0.3-1.2-0.8-1.6-1.3c-0.4-0.5-0.6-1.1-1-1.5
			c-0.4-0.6-1-1-1.5-1.6c-0.4-0.5-0.6-1.1-0.7-1.7c-0.1-0.9-0.4-1.8-0.8-2.6c-0.6-1-1.6-1.7-2.3-2.7c-0.6-0.8-0.9-1.8-1.1-2.8
			c-0.1-1.2-0.1-2.3-0.3-3.5c-0.2-1-0.7-1.9-1.3-2.8c-0.6-0.8-1.1-1.6-1.5-2.5c-0.5-1.3-0.9-2.8-0.8-4.3c0.3-1.4,0.6-2.8,1.4-4
			c0.7-1.1,0.7-2.5,1.1-3.7c0.5-1.2,0.6-2.4,1-3.6c0.2-0.6,0.3-1.2,0.6-1.8c0.9-2,1-4.4,0.5-6.5c-0.2-0.9-0.5-1.7-0.6-2.5
			c-0.1-1,0.1-2-0.1-3.1c-0.2-1.8-0.9-3.6-1.7-5.2c-0.8-1.6-1.6-3.1-2.8-4.4c-0.6-0.6-1.2-1.2-1.8-1.7
			C92.7,12.9,91.6,12.4,90.5,11.8z"/>
		<path class="st0" d="M92.6,11.7c0.6-0.1,1.2,0.2,1.8,0.3c0.7,0.3,1.4,0.4,1.9,0.9c0.4,0.3,0.9,0.6,1.3,1c0.7,0.7,1.3,1.4,2,2.2
			c0.6,0.7,1,1.5,1.5,2.3c0.6,1,1,2.2,1.3,3.3c0.3,1.1,0.6,2.2,0.8,3.3c0.3,1.7,0.3,3.5,0.9,5.2c0.4,1.3,0.9,2.6,1.7,3.7
			c0.4,0.7,0.9,1.2,1.4,1.8c0.6,0.7,0.9,1.6,1.1,2.4c0.2,1.1-0.3,2.1-0.5,3.1c-0.2,1,0,2.1,0.7,2.8c0.6,0.6,1.2,1.2,1.4,2.1
			c0.5,1.2,0.4,2.5-0.1,3.6c-0.3,0.9-0.5,2,0.1,2.9c0.7,1,1.3,2.1,1.4,3.3c0.1,0.8-0.1,1.7-0.3,2.5c-0.4,1.8-0.2,3.6,0.2,5.3
			c0.2,0.7,0.3,1.4,0.6,2c0.5,0.9,1,1.9,1.5,2.8c0.5,0.9,1.2,1.7,1.7,2.7c0.4,0.9,0.9,1.8,0.7,2.8c-0.1-0.9-0.5-1.7-0.9-2.5
			c-0.5-1.1-1.3-1.9-1.9-3c-0.6-1.1-1.2-2.1-1.6-3.2c-0.6-1.8-1-3.6-0.9-5.5c0-1,0.3-1.9,0.5-2.9c0.2-1-0.1-2-0.6-2.9
			c-0.4-0.9-1.1-1.6-1.2-2.5c-0.2-1.3,0.6-2.5,0.6-3.7c0.1-0.8-0.2-1.6-0.5-2.3c-0.4-0.9-1.3-1.3-1.7-2.2c-0.4-0.8-0.4-1.8-0.2-2.7
			c0.2-0.8,0.5-1.6,0.4-2.5c-0.1-0.6-0.3-1.1-0.5-1.7c-0.3-0.6-0.8-1.1-1.2-1.6c-1.3-1.5-2.1-3.3-2.5-5.2c-0.3-1.3-0.4-2.6-0.6-3.8
			c-0.2-1-0.3-2-0.6-3c-0.3-1.2-0.6-2.3-1.1-3.4c-0.3-0.8-0.8-1.6-1.3-2.3c-0.5-0.8-1.1-1.5-1.7-2.2c-0.5-0.5-0.9-1-1.5-1.5
			c-0.5-0.4-1-0.9-1.7-1.1C94.4,12.2,93.5,12,92.6,11.7z"/>
		<path class="st0" d="M88.2,12.8c0.2-0.1,0.4-0.2,0.6-0.2c-0.1,0.3-0.3,0.5-0.5,0.7c-1,0.9-2.2,1.5-3.4,1.8
			c-1.8,0.5-3.6,0.9-5.3,1.8c-1.8,1-3.2,2.6-4.3,4.4c-0.6,1-1.1,1.9-1.5,2.9c-0.9,2.2-1.6,4.5-2.1,6.8c-0.4,2.1-0.6,4.2-0.6,6.2
			c-0.1,2.4,0.1,4.9,0.2,7.3c0.1,1.1-0.2,2.3-0.6,3.3c-0.4,1.2-0.9,2.4-1.6,3.4c-0.9,1.3-1.9,2.5-3.1,3.5c-0.5,0.4-1.1,0.9-1.6,1.3
			c-0.2,0.1-0.4,0.2-0.6,0.2c1.4-1.4,2.9-2.6,4.1-4.1c0.8-0.9,1.5-1.9,1.9-3c0.5-1.3,1.1-2.6,1.1-4c0-1.6-0.1-3.1-0.2-4.7
			c-0.1-2.4,0-4.9,0.2-7.3c0.3-2.2,0.8-4.3,1.5-6.3c0.6-1.6,1.1-3.3,2-4.8c1-1.8,2.2-3.4,3.8-4.7c1.5-1.2,3.2-1.8,5-2.3
			c1-0.4,2.1-0.6,3.1-1.1C86.9,13.8,87.6,13.3,88.2,12.8z"/>
		<path class="st0" d="M90.7,12.9c0.3,0.1,0.5,0.4,0.7,0.6c1.3,1.2,2.5,2.4,3.7,3.6c0.5,0.5,0.9,1,1.3,1.6c-0.4-0.4-0.8-0.9-1.2-1.4
			c-1.3-1.3-2.9-2.5-4.2-3.8C90.8,13.3,90.8,13.1,90.7,12.9z"/>
		<path class="st0" d="M97.2,15.6c1.3,1,2.1,2.5,2.8,3.9c0.5,1,1,2.1,1.3,3.3c0.4,1.2,0.7,2.4,0.8,3.7c0.1,1.2,0.1,2.4,0.3,3.6
			c0.1,1.1,0.2,2.2,0.6,3.3c0.3,0.9,0.8,1.7,1.4,2.4c0.9,1.1,1.6,2.6,1.6,4c0.1,1.3-0.5,2.5-0.1,3.7c0.3,1,1.2,1.6,1.6,2.4
			c0.6,1.1,0.6,2.5,0.1,3.6c-0.4,0.8-0.5,1.7-0.3,2.6c0.3,1.4,1.5,2.3,1.7,3.7c0.2,1.5-0.4,2.9-0.5,4.4c-0.1,1.2,0.2,2.5,0.5,3.7
			c0.4,1.6,1,3.1,1.8,4.5c0.8,1.5,1.8,3,2.3,4.7c0.4,1,0.2,2.1,0.3,3.2c0,0.7,0.2,1.4,0.2,2.1c-0.3-0.7-0.4-1.5-0.5-2.3
			c-0.1-0.9,0-1.9-0.3-2.8c-0.5-1.7-1.5-3.2-2.3-4.7c-0.8-1.4-1.5-2.9-1.8-4.5c-0.3-1.4-0.6-2.9-0.4-4.3c0.1-1.3,0.7-2.6,0.4-3.9
			c-0.2-0.9-0.8-1.5-1.3-2.3c-0.6-1-0.8-2.4-0.4-3.5c0.2-0.5,0.4-1,0.5-1.5c0.2-0.7,0.1-1.5-0.2-2.1c-0.4-1-1.4-1.5-1.8-2.5
			c-0.4-0.9-0.2-1.9,0-2.8c0.3-1.7-0.2-3.4-1.2-4.8c-0.4-0.6-0.9-1.1-1.3-1.8c-0.4-0.7-0.7-1.6-0.8-2.4c-0.2-1.7-0.4-3.5-0.5-5.2
			c-0.1-1.2-0.3-2.4-0.7-3.5c-0.5-1.8-1.3-3.5-2.1-5.1C98.6,17.4,97.9,16.5,97.2,15.6z"/>
		<path class="st7" d="M83.1,22.3c-0.1,0-0.2,0-0.2,0c0,0.3,0,0.5-0.1,0.8c-0.1-0.5-0.1-1-0.3-1.4c0,0.1-0.1,0.4-0.1,0.5
			c-0.5-0.8-1.5-1.3-2.4-1.3c-1.2-0.1-2.4,0.3-3.4,1c-0.3,0.2-0.3,0.5-0.4,0.8c1.1,0,2.1,0.1,3.1,0.3c0.6,0.2,1.1,0.4,1.7,0.6
			c0.6,0.2,1.2,0.5,1.8,0.5C83,23.5,83.2,22.9,83.1,22.3z"/>
		<path class="st7" d="M95.1,24.4c-0.9-0.8-1.9-1.5-3-1.8c-1.1-0.2-2.3,0-3.2,0.7c0-0.1,0-0.3,0-0.4c-0.3,0.2-0.5,0.6-0.6,0.9
			c0-0.2,0-0.4,0-0.5c-0.4,0.4-0.3,1-0.2,1.4c1.2,0.1,2.3-0.3,3.4-0.4c1.1-0.1,2.3,0.1,3.3,0.6c0.2,0.1,0.4,0.2,0.7,0.4
			C95.5,25,95.3,24.7,95.1,24.4z"/>
		<path class="st18" d="M78.1,25.4c0.3-0.1,0.6,0.1,0.7,0.4c0.1,0.5-0.3,1.1-0.8,0.9C77.4,26.4,77.6,25.7,78.1,25.4z"/>
		<path class="st19" d="M84.3,25.9c0.3-0.2,0.3,0.2,0.2,0.4c-0.2,1.8-0.4,3.5-0.7,5.3c0,0.4-0.5,0.6-0.8,0.4
			c-0.6-0.2-1.3-0.4-1.7-0.9c-0.3-0.3-0.1-0.8,0.1-1.1c0.6-0.9,1.2-1.8,1.9-2.7C83.6,26.9,83.9,26.4,84.3,25.9z M81.6,30.8
			c0.4-0.8,0.9-1.5,1.4-2.2C82.4,29.2,82,30,81.6,30.8z M82.9,31c-0.1,0-0.2,0.2-0.2,0.3c0,0.4,0.7,0.5,0.8,0.2
			C83.6,31.2,83.1,30.9,82.9,31z"/>
		<path class="st0" d="M68.1,26.8c-0.2,1.1-0.7,2-1.4,2.9c-0.7,0.9-1.6,1.5-2.5,2.2c-0.9,0.7-1.8,1.4-2.4,2.3c-0.8,1.2-1.3,2.7-2,4
			c-0.9,1.6-2.2,2.9-3.3,4.4c-0.5,0.8-1.1,1.5-1.4,2.4c-0.4,1.8,0.2,3.6,0.4,5.4c0.1,0.8,0.2,1.6,0.3,2.4c0,1.2-0.1,2.5-0.3,3.7
			c-0.3,1.8-0.9,3.5-2.1,4.9c-0.1,0.2-0.3,0.3-0.5,0.4c0.2-0.4,0.5-0.8,0.7-1.2c1.1-2,1.5-4.2,1.7-6.4c0.2-2.1-0.3-4.3-0.6-6.4
			c-0.2-0.8-0.2-1.6-0.1-2.5c0.1-0.7,0.4-1.4,0.8-2c0.7-1.1,1.5-2.2,2.4-3.2c0.8-0.9,1.4-1.8,1.9-2.9c0.5-1.1,1-2.2,1.6-3.3
			c0.6-0.9,1.5-1.6,2.3-2.3c0.8-0.6,1.7-1.1,2.4-1.9c0.6-0.7,1.1-1.4,1.5-2.3C67.8,27.3,67.9,27,68.1,26.8z"/>
		<path class="st18" d="M90.5,27.1c0.3-0.2,0.7,0,0.7,0.3c0.1,0.4-0.2,1-0.7,0.9C90,28.1,90.1,27.3,90.5,27.1z"/>
		<path class="st17" d="M76.5,27.5c0-0.1,0-0.2,0-0.2c0.5,0.1,1,0.4,1.6,0.4c0.5,0.1,1-0.1,1.4-0.1C78.7,28.4,77.4,28.1,76.5,27.5z"
			/>
		<path class="st16" d="M81.6,30.8c0.3-0.8,0.8-1.6,1.4-2.2C82.5,29.3,82.1,30,81.6,30.8z"/>
		<path class="st17" d="M90.9,29c0.5-0.1,1-0.2,1.6-0.3c-0.4,0.7-1.3,0.7-2,0.7c-0.5-0.1-1.1-0.1-1.4-0.5
			C89.7,28.8,90.3,29.1,90.9,29z"/>
		<path class="st20" d="M75.4,29.9c0.5-0.2,1,0.1,1.1,0.5c0.2,0.6,0.2,1.3-0.3,1.7c-0.4,0.4-1,0.5-1.4,0.2c-0.4-0.3-0.5-0.8-0.4-1.3
			C74.6,30.6,74.9,30.1,75.4,29.9z"/>
		<path class="st0" d="M66.6,30.8c0.1-0.3,0.3-0.7,0.5-1c0,0.2-0.1,0.5-0.1,0.7c-0.6,1.8-1.2,3.7-1.6,5.6c-0.2,1.2-0.3,2.5-0.2,3.7
			c0.2,1.8,0.7,3.6,0.7,5.4c-0.1,1.7-1,3.4-2.3,4.5c-1.4,1.3-2.2,3-2.5,4.9c-0.2,0.8-0.1,1.7-0.4,2.5c0,0.2-0.2,0.3-0.3,0.4
			c0-0.5,0.1-0.9,0.1-1.4c0-2.1,0.6-4.1,1.9-5.7c0.5-0.6,1.1-1.1,1.6-1.7c1-1.2,1.6-2.8,1.4-4.4c-0.1-1.5-0.5-2.9-0.6-4.4
			c0-1.3,0-2.6,0.2-3.8C65.4,34.3,65.9,32.5,66.6,30.8z"/>
		<path class="st0" d="M107.2,30.2c0.1,0,0.3,0.1,0.4,0.2c0.7,0.9,1.3,2,2.1,2.8c0.4,0.4,0.9,0.8,1.2,1.3c0.7,1,1,2.3,1.2,3.5
			c0.2,2.2-0.4,4.5,0.3,6.6c0.3,1.3,1.1,2.5,1.2,3.9c0.1,0.8,0,1.7,0.5,2.5c0.3,0.6,1,1.1,1.2,1.8c-0.7-0.5-1.2-1.1-1.6-1.8
			c-0.5-0.8-0.3-1.9-0.5-2.8c-0.2-1.2-0.9-2.2-1.2-3.3c-0.7-2.2-0.1-4.5-0.3-6.7c-0.1-1.4-0.5-2.8-1.4-3.8c-0.5-0.5-1-1-1.5-1.6
			c-0.4-0.6-0.8-1.2-1.3-1.8C107.4,30.7,107.3,30.5,107.2,30.2z"/>
		<path class="st20" d="M90.9,32c0.6-0.2,1.5,0.1,1.7,0.8c0.3,0.9-0.4,2-1.4,2.1c-0.7,0.1-1.4-0.4-1.4-1.1
			C89.6,33,90.2,32.3,90.9,32z"/>
		<path class="st0" d="M64.8,33.1c0.2-0.3,0.4-0.6,0.7-0.8c-0.2,0.6-0.5,1.2-1.1,1.6c-0.7,0.5-1.3,1-1.9,1.7
			c-0.4,0.5-0.6,1.2-0.7,1.8c-0.3,1-0.5,2.1-1,3c-0.5,1-1.3,1.7-2,2.5c-0.6,0.6-1,1.4-1.3,2.2c-0.5,1.5-0.3,3.1-0.1,4.7
			c0.2,1.4,0.1,2.9,0,4.4c-0.1,1.4-0.5,2.7-1.1,3.9c-0.3,0.7-0.6,1.4-1.1,1.9c0.5-0.9,0.8-1.9,1.2-2.8c0.3-1,0.6-2.1,0.6-3.1
			c0.1-1.5,0.1-2.9-0.1-4.4c-0.2-1.4-0.3-2.8,0-4.2c0.1-0.7,0.5-1.4,0.9-2c0.8-1.2,2-2,2.6-3.3c0.7-1.3,0.8-2.7,1.3-4
			c0.3-0.8,1-1.4,1.7-1.9C63.9,33.8,64.4,33.5,64.8,33.1z"/>
		<path class="st21" d="M78.8,34.7c0.9-0.4,1.9-0.7,2.9-0.5c1.3,0.2,2.6,0.6,3.5,1.5c-1.2-0.2-2.4-0.2-3.7-0.3
			C80.7,35.3,79.8,34.8,78.8,34.7z M81.4,34.5c0.5,0.2,1,0.2,1.5,0.2C82.4,34.6,81.9,34.4,81.4,34.5z"/>
		<path class="st20" d="M81.4,34.5c0.5-0.1,1,0.1,1.5,0.2C82.4,34.7,81.9,34.6,81.4,34.5z"/>
		<path class="st21" d="M79.8,36.2c-0.5-0.4-1-0.8-1.2-1.4c0.3,0.2,0.6,0.3,0.9,0.4c1,0.3,2,0.6,3.1,0.6c0.9,0,1.8,0,2.7,0.1
			c-0.4,0.5-1,0.8-1.5,1.1c-0.9,0.3-1.9,0.2-2.7-0.2C80.6,36.6,80.2,36.4,79.8,36.2z M80.8,35.9c0.5,0.4,1.2,0.3,1.8,0.3
			C82,36.1,81.4,36,80.8,35.9z"/>
		<path class="st22" d="M78.6,34.8l0.2-0.1c1,0.1,1.8,0.6,2.8,0.7c1.2,0.1,2.4,0.1,3.7,0.3l0.1,0c0,0-0.1,0.1-0.1,0.2
			c-0.9,0-1.8-0.1-2.7-0.1c-1.1,0-2.1-0.3-3.1-0.6C79.2,35.1,78.9,34.9,78.6,34.8z"/>
		<path class="st0" d="M63.5,36.3c0.1-0.4,0.4-0.8,0.7-1.1c-0.9,2.1-1.1,4.4-0.7,6.6c0.1,1.1,0.6,2.2,0.4,3.3c-0.1,1.5-1,2.9-2,4
			c-1,1-1.7,2.2-2.1,3.4c-0.4,1.3-0.6,2.7-0.7,4c-0.1,0.5-0.1,1-0.4,1.4c0-0.6,0.1-1.2,0.1-1.8c0-1,0.2-2.1,0.4-3.1
			c0.2-1.1,0.7-2,1.3-3c0.6-0.9,1.4-1.6,2-2.5c0.6-0.9,1-1.8,1-2.9c0-0.9-0.3-1.8-0.4-2.6c-0.1-0.7-0.2-1.3-0.2-2
			C62.9,38.9,63.1,37.6,63.5,36.3z"/>
		<path class="st20" d="M80.8,35.9c0.6,0.1,1.2,0.2,1.8,0.3C82,36.2,81.3,36.3,80.8,35.9z"/>
		<path class="st0" d="M102.2,37.1c-0.1-0.3-0.2-0.7-0.1-1c0.7,2,1.1,4,1.1,6.1c0,2.3-0.7,4.5-1.4,6.6c-0.5,1.4-0.8,2.8-0.4,4.3
			c0.1,0.5,0.3,0.9,0.6,1.3c0.5,1,1.1,1.9,1.3,3c0.2,1,0,2.1-0.1,3.1c0,0.7,0,1.4,0.4,1.9c0.7,0.8,1.4,1.4,2,2.3
			c0.7,1.1,1.4,2.3,1.5,3.6c0.1,0.5,0,1,0.2,1.5c0.4,0.7,1.1,1.1,1.7,1.6c0.9,0.6,1.4,1.6,1.8,2.5c0.2,0.4,0.3,0.9,0.4,1.4
			c-0.7-1-1-2.2-1.8-3.1c-0.7-0.7-1.6-1-2.2-1.8c-0.5-0.5-0.5-1.1-0.5-1.8c0-0.8-0.3-1.5-0.6-2.2c-0.5-1-1-1.9-1.8-2.7
			c-0.6-0.7-1.4-1.2-1.5-2.1c-0.2-1.2,0.2-2.4,0.1-3.5c0-1.4-0.9-2.6-1.6-3.9c-0.6-1-0.6-2.1-0.5-3.2c0.1-1,0.4-2,0.8-3
			c0.4-1.2,0.8-2.5,1-3.8C103,41.8,102.7,39.4,102.2,37.1z"/>
		<path class="st0" d="M99,36.6c0.1,0,0.2,0,0.3,0c-0.4,1-1,1.9-1.5,2.9c-0.5,1.1-0.4,2.4-0.5,3.6c-0.2,2-1.1,3.8-2.1,5.5
			c-0.9,1.5-0.6,3.3-0.1,4.8c0.3,0.8,1.1,1.5,1.1,2.4c-0.4-1-1.3-1.7-1.6-2.8c-0.4-1.1-0.5-2.4-0.2-3.6c0.2-0.7,0.6-1.2,0.9-1.8
			c0.7-1.3,1.4-2.8,1.6-4.3c0.1-1.2-0.1-2.5,0.4-3.7C97.7,38.5,98.4,37.6,99,36.6z"/>
		<path class="st0" d="M101,40.4c0.1-0.9,0.1-1.9,0.4-2.8c-0.1,0.8-0.1,1.7-0.2,2.6c-0.1,1.4-0.1,2.8-0.3,4.2
			c-0.3,1.5-1,2.9-1.6,4.3c-0.6,1.3-0.9,2.8-0.6,4.2c0.2,0.8,0.4,1.6,0.9,2.3c0.6,0.8,1,1.6,1.4,2.5c0.5,1.1,0.5,2.2,0.5,3.4
			c-0.1,1-0.1,2,0.3,3c0.4,0.9,1.3,1.4,2,2.1c0.5,0.5,1.1,1.1,1.4,1.8c0.3,0.6,0.5,1.4,0.6,2.1c0,0.7,0.2,1.4,0.7,1.9
			c0.7,0.7,1.7,1.2,2.4,2c0.5,0.6,0.5,1.4,1,2c0.3,0.5,0.9,0.8,1.4,1.2c0.8,0.6,1.3,1.4,1.7,2.3c0.1,0.2,0,0.4-0.1,0.6
			c-0.1-0.6-0.4-1-0.7-1.4c-0.5-0.6-1.1-1.1-1.7-1.5c-0.6-0.4-1-0.8-1.3-1.5c-0.2-0.4-0.3-0.9-0.5-1.3c-0.7-1-2.1-1.4-2.8-2.5
			c-0.6-0.9-0.3-2.1-0.7-3.2c-0.3-1-1.1-1.8-1.9-2.5c-0.7-0.6-1.4-1.1-1.8-1.9c-0.5-1.1-0.3-2.4-0.3-3.6c0-0.9-0.1-1.8-0.4-2.7
			c-0.4-0.8-0.8-1.6-1.4-2.4c-0.6-0.8-0.9-1.8-1.1-2.8c-0.2-1.4,0.1-2.9,0.7-4.2c0.5-1.2,1.1-2.4,1.5-3.7
			C100.8,43.3,100.8,41.9,101,40.4z"/>
		<path class="st17" d="M79.5,38c1.2-0.5,2.5-0.2,3.7,0.1c-0.1,0-0.3,0-0.4,0.1c0.3,0.1,0.6,0.2,0.8,0.4c-0.6-0.1-1.3-0.3-1.9-0.3
			C81,38.1,80.2,38.2,79.5,38z"/>
		<path class="st0" d="M61.4,41.6c0.2-0.6,0.3-1.2,0.6-1.8c-0.1,1.1-0.3,2.4-1,3.3c-0.6,0.9-1.4,1.6-1.8,2.6c-0.5,1.4,0,2.8-0.4,4.2
			c0,0-0.1,0-0.2,0c0.1-0.6,0-1.2,0-1.7c-0.1-0.7,0-1.4,0.1-2.1c0.2-0.7,0.6-1.4,1-2C60.5,43.3,61.1,42.5,61.4,41.6z"/>
		<path class="st0" d="M103.8,40.1c0.5,1.3,0.7,2.7,0.9,4.1c0.2,1.2,0.2,2.4-0.1,3.5c-0.4,1.4-0.9,2.9-0.7,4.5
			c0.1,0.7,0.5,1.2,0.9,1.8c0.7,1,1.1,2.2,1.1,3.5c0,0.7-0.3,1.3-0.4,2c-0.1,1,0.3,2.1,1,2.8c0.7,0.8,1.3,1.9,1.6,2.9
			c0.3,0.9,0.2,1.9,0.6,2.7c0.2,0.5,0.5,0.8,0.6,1.3c-0.8-0.5-1.2-1.6-1.3-2.5c-0.2-1.5-0.7-3-1.7-4.2c-0.7-0.8-1.1-1.8-1.1-2.9
			c0-0.6,0.3-1.2,0.3-1.7c0.2-1.3-0.2-2.6-1-3.7c-0.4-0.6-0.9-1.1-1-1.9c-0.2-1.5,0.2-3.1,0.7-4.5c0.3-0.9,0.4-1.9,0.3-2.9
			c-0.1-1-0.1-2-0.3-2.9C104,41.4,103.9,40.8,103.8,40.1z"/>
		<path class="st0" d="M61.4,45c0.1-0.3-0.1-0.7,0.2-0.9c0.1,0.4,0.3,0.8,0.2,1.2c-0.1,0.7-0.5,1.3-0.8,2c-0.4,0.6-0.7,1.4-1.2,1.9
			c0.2-0.5,0.5-0.9,0.7-1.4C60.8,46.9,61.3,46,61.4,45z"/>
		<path class="st23" d="M114.6,53.3c0.6-0.5,1.9-0.2,2,0c0.1,0.2-0.1,0.5-0.3,0.6c-0.5,0.1-0.9,0.1-1.4-0.1
			C114.7,53.8,114.6,53.6,114.6,53.3L114.6,53.3z"/>
		<path class="st0" d="M58.1,53.4c0.2,0.9,0,1.8-0.1,2.7c-0.2,1.1-0.4,2.3-1.1,3.2c-0.1,0-0.1,0.1-0.2,0.1c0.4-0.8,0.6-1.6,0.8-2.4
			C57.7,55.8,57.9,54.6,58.1,53.4z"/>
		<path class="st24" d="M120.3,56.9c1.1-0.2,2.3-0.2,3.2,0.4c-0.7-0.1-1.5-0.2-2.2-0.2C121,57.1,120.7,57,120.3,56.9z"/>
		<path class="st11" d="M64.5,59.4c0-0.2,0.1-0.4,0.2-0.6c0.2,0.7,0.1,1.4,0.2,2c0.2,1.9,0.3,3.7,0.2,5.6c-0.1,2.2-0.3,4.4-0.4,6.6
			c0,0.9,0,1.8-0.2,2.7c-0.1-0.5-0.1-0.9-0.1-1.4c0-2.4,0.1-4.8,0.2-7.2c0-1.4,0-2.7,0-4.1C64.6,61.9,64.4,60.7,64.5,59.4z"/>
		<path class="st17" d="M118,59.5c1.8-0.5,3.9-0.4,5.6,0.3c-1.1,0-2.2-0.3-3.3-0.3c-0.8,0-1.7,0.1-2.5,0.4c-0.9,0.4-1.8,0.7-2.5,1.2
			c-0.6,0.4-1.2,1.1-1.9,1.4c0.6-0.8,1.3-1.4,2.2-2C116.4,60.1,117.2,59.8,118,59.5z"/>
		<path class="st23" d="M112.5,62.7c-0.1-0.2,0.6-1.1,0.9-1.1c0.3,0,0.4,0.3,0.3,0.5c0,0.2-0.6,0.9-0.8,0.9
			C112.8,63,112.5,62.9,112.5,62.7z"/>
		<path class="st17" d="M117.4,61.9c0.7-0.2,1.4-0.2,2.2-0.2c0.7,0,1.4,0.1,2,0.3c0.5,0.2,1,0.5,1.4,0.7c-0.4,0-0.8-0.2-1.2-0.3
			c-1-0.4-2-0.4-3.1-0.4c-0.7,0-1.4,0.3-2.1,0.5c-0.9,0.3-1.8,0.8-2.7,1.4c0,0-0.1,0-0.1,0.1c0.2-0.4,0.6-0.6,1-0.8
			C115.7,62.6,116.5,62.2,117.4,61.9z"/>
		<path class="st23" d="M113.6,62.7c0.3-0.1,0.5,0.3,0.4,0.5c-0.2,0.5-0.9,1.2-1.1,1.1c-0.2-0.1,0-0.7,0.2-1
			C113.2,63,113.4,62.8,113.6,62.7z"/>
		<path class="st23" d="M113,65c-0.1-0.1,0.5-1,0.9-1.2c0,0,0.1,0,0.1-0.1c0.2,0.1,0.4,0.2,0.4,0.4c-0.2,0.4-0.8,1.1-1,1.1
			C113.1,65.3,113.1,65.1,113,65C113,65,113.1,65.2,113,65z"/>
		<path class="st25" d="M114.3,66.6c0.2,0.4,0.4,0.8,0.6,1.1c0.3,0.5,0.7,1,1,1.5c0.5,0.9,0.9,1.8,1.2,2.7c0.1,0.4,0.1,0.8,0.1,1.2
			c-0.1,0.9-0.2,1.7-0.4,2.6c-0.5,1.6-0.9,3.3-0.7,5c0.2,1.5,0.6,2.9,1.2,4.2c0.4,1,0.7,2,1,3c0.4,1.4,0.5,2.9,0.4,4.3
			c-0.1,1-0.3,2.1-0.5,3.1c-0.3,1.5-1,2.8-1.9,4c-0.5,0.5-1,1-1.7,1.5c0.1-0.5,0.5-0.9,0.9-1.2c0.7-0.6,1.1-1.3,1.6-2.1
			c0.6-1.2,0.9-2.5,1.1-3.9c0.3-1.6,0.3-3.3-0.1-4.9c-0.3-1.3-0.8-2.6-1.3-3.9c-0.7-1.8-1.2-3.7-1.1-5.7c0.1-1.2,0.5-2.5,0.8-3.7
			c0.2-0.8,0.3-1.7,0.3-2.6c0-0.7-0.2-1.4-0.5-2c-0.4-0.8-0.8-1.6-1.3-2.4C114.7,68,114.3,67.4,114.3,66.6z"/>
		<path class="st11" d="M66.4,69.7c-0.1-0.3-0.1-0.5-0.1-0.8c0.3,0.8,0.6,1.6,1,2.4c0.6,1.2,1,2.6,1.8,3.7c0.6,0.9,1.3,1.8,1.7,2.8
			c-0.1-0.1-0.3-0.2-0.4-0.3c-0.9-1.4-2.1-2.6-2.8-4.2C67.3,72.1,66.8,70.9,66.4,69.7z"/>
		<path class="st11" d="M62.8,75c0.3-0.9,0.4-1.8,0.7-2.6c0.2,1.3-0.2,2.7-0.7,3.9c-0.7,1.5-1.4,2.9-2.2,4.3
			c-0.3,0.6-0.6,1.3-1.2,1.8c0.2-0.5,0.5-1,0.8-1.5C61.1,79,62.1,77,62.8,75z"/>
		<path class="st11" d="M97.5,76.1c0.8-1.1,1.5-2.2,2-3.4c0.1,0.5-0.1,1-0.4,1.5c-0.6,1.2-1.4,2.4-2.3,3.5c-1.1,1.4-2.3,2.7-3.5,4
			c-0.4,0.4-0.7,0.8-1.3,0.9c1.1-1,2-2.1,2.9-3.2C95.9,78.3,96.7,77.2,97.5,76.1z"/>
		<path class="st25" d="M103.4,73.1c0.2,0.2,0.2,0.5,0.3,0.7c0.1,0.6,0.3,1.2,0.7,1.7c0.6,0.7,1.5,1.2,2.3,1.6c0,0.1,0,0.2,0,0.2
			c-1-0.3-2-0.8-2.7-1.6C103.3,74.9,103.3,74,103.4,73.1z"/>
		<path class="st25" d="M114.6,76.5c0-0.7-0.2-1.4-0.1-2.1c0.3,0.9,0.5,1.9,0.3,2.9c-0.1,0.9-0.5,1.8-0.4,2.7
			c0.1,0.7,0.1,1.4,0.4,2.1c0.5,1.3,0.9,2.7,1.2,4.1c0.2,1.1-0.2,2.2-0.1,3.3c0.2,1.3,1,2.5,1,3.8c0,0.7-0.1,1.3-0.1,2
			c0,0.3,0,0.7-0.3,0.9c0-1.3,0.3-2.7-0.2-4c-0.3-0.9-0.7-1.8-0.8-2.7c-0.1-1.1,0.3-2.2,0.1-3.3c-0.3-1.3-0.6-2.5-1-3.7
			c-0.4-1-0.5-2-0.5-3.1C114.3,78.4,114.6,77.5,114.6,76.5z"/>
		<path class="st11" d="M100.6,78.9c0.2-0.3,0.2-0.8,0.5-1c0.1,1-0.6,1.8-1.1,2.6c-1,1.3-2,2.6-3.1,3.8c-0.2,0.3-0.5,0.6-0.8,0.7
			c0.9-1,1.6-2.2,2.5-3.2C99.3,80.9,100.1,79.9,100.6,78.9z"/>
		<path class="st11" d="M77.2,84.1c0-0.1,0-0.2,0-0.2c1.5,0.5,3.1,1,4.7,1.2c2,0.2,4-0.1,5.9-0.4c0.5-0.1,1-0.3,1.5-0.3
			c-0.6,0.4-1.4,0.5-2.1,0.7c-2,0.4-4.1,0.8-6.1,0.3C79.7,85.2,78.4,84.8,77.2,84.1z"/>
		<path class="st25" d="M112.1,85.7c0.1-0.6,0.1-1.1,0.2-1.7c0.3,0.7,0.3,1.5,0.2,2.3c-0.2,1.5-0.5,3-0.1,4.4c0.2,1.4,1,2.6,1.5,3.9
			c0.4,0.9,0.8,1.8,0.8,2.8c0.1,1.1-0.3,2.2-0.8,3.2c-0.4,0.8-1.1,1.2-1.6,1.9c-0.4,0.5-0.9,0.9-1.3,1.4c-0.5,0.6-1,1.1-1.4,1.7
			c0.1-0.6,0.5-1.1,0.9-1.6c0.5-0.7,1.2-1.2,1.7-1.9c0.4-0.6,1.1-1,1.4-1.7c0.6-1,0.9-2.2,0.7-3.3c-0.2-1.6-1.1-2.9-1.8-4.3
			c-0.7-1.4-0.9-3-0.8-4.6C111.8,87.5,112,86.6,112.1,85.7z"/>
		<path class="st11" d="M89.1,88c0.5-0.1,0.9-0.3,1.4-0.5c-0.2,0.4-0.6,0.5-0.9,0.7c-0.9,0.3-1.9,0.5-2.8,0.7
			c-1.3,0.2-2.6,0.3-3.9,0c-0.2-0.1-0.5-0.2-0.7-0.3c0.7,0,1.4,0.2,2.2,0.2C85.9,88.6,87.5,88.4,89.1,88z"/>
		<path class="st11" d="M84.8,111.5c1.9-0.1,3.7-0.3,5.6-0.7c-0.9,0.4-1.8,0.5-2.8,0.6c-1.9,0.2-3.8,0.5-5.7,0.6
			c-2.1,0-4.1-0.2-6.2-0.6c-0.5-0.1-0.9-0.2-1.4-0.4c0.5-0.1,1,0,1.5,0.1C78.8,111.6,81.8,111.7,84.8,111.5z"/>
		<path class="st11" d="M93.5,113.1c0.7-0.2,1.5-0.4,2.1-0.8c-0.2,0.3-0.5,0.5-0.9,0.6c-1.9,0.7-3.8,1.4-5.8,1.7
			c-2.7,0.5-5.4,0.5-8.1,0.6c-0.9,0-1.7,0-2.6-0.2c0-0.1,0-0.2,0-0.3c1.2,0.1,2.4,0,3.6,0c1.4-0.1,2.8-0.1,4.3-0.2
			C88.6,114.3,91.1,113.7,93.5,113.1z"/>
		<path class="st11" d="M95.7,117.7c1.4-0.3,2.8-0.6,4.1-1.1c-0.3,0.4-0.9,0.5-1.4,0.8c-1.2,0.5-2.5,0.8-3.7,1.1
			c-2.2,0.5-4.4,0.9-6.6,1.1c-1,0.1-2,0.1-2.9-0.1c0-0.1,0-0.2,0-0.3C88.8,119.2,92.3,118.5,95.7,117.7z"/>
		<path class="st11" d="M66.6,117.9c0.5,0.1,1,0.3,1.5,0.4c1.4,0.4,2.9,0.7,4.4,1c2.3,0.5,4.7,0.6,7.1,0.6c0.6,0,1.1-0.1,1.7-0.1
			c-0.6,0.3-1.3,0.3-1.9,0.3c-2.3,0-4.6,0-6.8-0.4c-1.4-0.3-2.7-0.5-4.1-0.9c-0.5-0.1-1.1-0.3-1.5-0.5
			C66.7,118.2,66.7,118.1,66.6,117.9z"/>
		<path class="st26" d="M108.6,121c0.4-0.4,0.6-0.8,1-1.2c-0.1,0.8-0.8,1.4-1.4,1.9c-1.7,1.5-3.6,2.9-5.4,4.2c-0.6,0.4-1.3,0.9-2,1
			c1-0.4,1.9-1.1,2.8-1.7C105.3,123.9,107,122.5,108.6,121z"/>
		<path class="st27" d="M55.3,121.4c0.3,0,0.6,0.2,0.8,0.4c0.8,0.5,1.6,0.9,2.4,1.3c2.2,1.1,4.4,2.3,6.8,3.1c1.3,0.4,2.5,0.9,3.9,1
			c-0.6,0.2-1.3,0-1.9-0.2c-3.6-1-7.1-2.6-10.4-4.4C56.4,122.3,55.8,121.9,55.3,121.4z"/>
		<path class="st26" d="M109.4,125.5c1-0.9,1.9-1.9,2.6-3.1c0.1,0.6-0.4,1.1-0.7,1.5c-1.3,1.5-2.9,2.7-4.5,3.8
			c-0.9,0.6-1.9,1.2-2.8,1.7c-0.3,0.2-0.7,0.3-1,0.4c0.7-0.3,1.4-0.7,2.1-1.2C106.6,127.7,108.1,126.6,109.4,125.5z"/>
		<path class="st28" d="M53.3,124.5c0.4,0,0.7,0.4,1.1,0.6c1.8,1.3,3.8,2.1,5.8,3c1.1,0.4,2.2,0.8,3.4,1.1c0.4,0.1,0.8,0.1,1.2,0.2
			c-0.8,0.1-1.6-0.1-2.3-0.3c-2-0.6-3.9-1.4-5.8-2.3c-1-0.5-2-1.1-2.9-1.8C53.6,124.8,53.4,124.7,53.3,124.5z"/>
		<path class="st29" d="M121.6,151.3c0-0.4-0.1-0.9,0.2-1.3c0.1,0.4,0.2,0.7,0.2,1.1c0.2,1.7,0,3.4,0.1,5.1c0.1,1.6,0.4,3.3,1.2,4.7
			c-0.1,0-0.2,0-0.2,0.1c-1.1-1.7-1.4-3.7-1.5-5.7C121.6,154,121.6,152.6,121.6,151.3z"/>
		<path class="st26" d="M59.8,153c0.2,0.1,0.5,0.2,0.7,0.3c1.7,1.2,3.3,2.6,5.1,3.7c1.9,1.2,3.9,2.4,5.9,3.5c1.3,0.7,2.6,1.4,4,2
			c0.5,0.2,1,0.5,1.5,0.7c0,0-0.1,0-0.1,0.1c-1-0.5-2.1-0.9-3.1-1.4c-0.1,0-0.2-0.1-0.2-0.1c-1.8-0.9-3.6-1.9-5.4-2.9
			c-1.9-1.1-3.8-2.3-5.6-3.7C61.6,154.5,60.7,153.7,59.8,153z"/>
		<path class="st26" d="M101.2,158.1c2-1.6,3.9-3.2,5.7-5c-0.6,0.9-1.4,1.6-2.2,2.3c-1.5,1.4-3.1,2.7-4.8,3.9
			c-1.7,1.2-3.6,2.3-5.5,3.3c-0.3,0.2-0.7,0.4-1,0.5c-1,0.5-1.9,1.1-2.9,1.4c1.8-0.9,3.5-1.9,5.2-2.9
			C97.6,160.7,99.4,159.5,101.2,158.1z"/>
		<path class="st29" d="M60.2,158.2c0.8,0.7,1.5,1.5,2.2,2.2c1.2,1.3,2.4,2.5,3.8,3.6c0.9,0.7,1.7,1.4,2.6,2.1
			c1.7,1.3,3.4,2.6,5.2,3.9c1.4,1.1,2.9,2,4.3,2.9c0.8,0.6,1.6,1.2,2.4,1.9c0.3,0.2,0.6,0.5,0.8,0.9c1.7-0.7,3.4-1.5,5-2.5
			c2.6-1.7,5-3.6,7.4-5.5c1.8-1.2,3.5-2.6,5.2-4c1-0.8,1.9-1.6,2.7-2.4c0.2-0.2,0.4-0.5,0.6-0.5c-0.6,0.7-1.3,1.3-1.9,2
			c-1.2,1.2-2.6,2.2-3.9,3.3c-1,0.8-2,1.5-3.1,2.3c-1.6,1.2-3.2,2.5-4.8,3.7c-1.6,1.1-3.2,2.3-5,3.1c-0.7,0.3-1.3,0.6-2,0.9
			c0.5,1,0.5,2.2,0.5,3.3c0,1.2-0.1,2.5-0.2,3.7c-0.1,1.3-0.1,2.7-0.7,3.9c0-0.6,0.2-1.2,0.2-1.8c0-1.5,0.3-3.1,0.3-4.6
			c0-1.6,0.1-3.4-0.8-4.9c-0.7-0.7-1.5-1.2-2.2-1.8c-1.7-1.2-3.5-2.2-5.2-3.5c-1.9-1.3-3.7-2.8-5.5-4.1c-2-1.6-3.9-3.3-5.6-5.2
			C61.7,160.1,60.8,159.3,60.2,158.2z"/>
		<path class="st30" d="M36.1,175.8c0.1-0.6,0.2-1.2,0.3-1.8c0.2,0.5,0.1,1,0,1.5c-0.1,0.5-0.1,1-0.4,1.5
			C36,176.6,36.1,176.2,36.1,175.8z"/>
		<path class="st3" d="M32.2,178.9c0.2,0.7,0,1.4,0.1,2.1c0.1,0.9,0.2,1.8,0.4,2.7c0.4,1.3,1.2,2.4,2,3.4l0,0.1c0,0-0.1,0.1-0.2,0.1
			c-0.7-0.6-1.3-1.2-1.7-2.1c-0.7-1.2-0.7-2.7-0.8-4.1C32,180.4,32,179.7,32.2,178.9z"/>
		<path class="st31" d="M36.9,181c0.4-0.1,0.8,0.1,0.8,0.5c0.1,0.5,0.1,1.1-0.2,1.6c-0.3,0.1-0.7,0.1-1-0.1c-0.2-0.3-0.2-0.6-0.1-1
			C36.4,181.7,36.5,181.2,36.9,181z"/>
		<path class="st24" d="M32.5,186.1c-0.6-0.9-0.9-2.1-1-3.2c0.4,0.9,0.5,1.9,1,2.8c0.3,0.6,0.8,1.2,1.4,1.6
			C33.3,187.2,32.8,186.6,32.5,186.1z"/>
		<path class="st31" d="M34.9,186.6c0.2,0,0.4-0.1,0.6-0.1c0.6,0.3,0.9,0.9,1.1,1.4c0.1,0.3-0.2,0.5-0.3,0.8
			c-0.7-0.2-1.2-0.8-1.6-1.4c0,0-0.1-0.1-0.1-0.1l0-0.1l0-0.1C34.8,186.9,34.8,186.7,34.9,186.6z"/>
		<path class="st31" d="M32.3,187.8c-0.1-0.2,0.2-0.4,0.4-0.5c0.3-0.1,0.6,0.2,0.7,0.5c0.2,0.4,0.4,0.9,0.2,1.4
			c-0.2,0-0.6,0.1-0.7-0.2C32.7,188.6,32.5,188.2,32.3,187.8z"/>
		<path class="st29" d="M40.7,213.5c0.1,0.6,0,1.2,0.1,1.8c0.3,2.6-0.3,5.3-0.9,7.9c-1,4.2-2.2,8.4-3.1,12.6
			c-0.1,0.7-0.3,1.4-0.5,2.2c-0.1,0-0.2,0-0.2,0c0.3-1.2,0.5-2.5,0.8-3.7c0.9-4.7,2.3-9.3,3.2-13.9c0.3-1.4,0.5-2.9,0.4-4.3
			c0-0.7,0-1.4,0-2l0.1,0C40.6,213.9,40.6,213.6,40.7,213.5z"/>
		<path class="st29" d="M104.4,244c0.1-0.5,0.2-1.1,0.4-1.6c0,2-0.6,3.9-1.4,5.7c-1.3,3-2.8,5.9-4,9c-0.2,0.4-0.3,0.8-0.6,1.2
			c0-0.5,0.3-1,0.4-1.4c1.3-3.2,2.8-6.2,4.1-9.4C103.8,246.2,104.2,245.1,104.4,244z"/>
		<path class="st32" d="M91.7,243.3c0,0.5-0.1,1.1,0,1.6c0.4,1.9,1.2,3.6,2.2,5.2c-0.1,0-0.2,0-0.2,0c-1-1.3-1.7-2.8-2.2-4.4
			C91.4,245,91.2,244,91.7,243.3z"/>
		<path class="st26" d="M32.6,257.1c0-0.2,0.1-0.4,0.1-0.5c-0.1,1.8,0.3,3.6,0.7,5.4c0.8,3.6,1.3,7.3,2,10.9c0,0.1,0.1,0.3,0.1,0.4
			c0,0.1,0,0.3,0,0.4c-0.3-0.5-0.3-1.1-0.4-1.7c-0.4-2.2-0.8-4.4-1.2-6.6c-0.3-1.8-0.7-3.5-1-5.3C32.6,259.2,32.5,258.2,32.6,257.1
			L32.6,257.1z"/>
		<path class="st29" d="M31.6,271.6c-0.1-0.6-0.3-1.1-0.1-1.7c0.2,1.2,0.6,2.4,0.7,3.7c0.1,1.2,0.3,2.3,0.5,3.5
			c0.1,0.7,0.5,1.3,0.6,2c-0.3-0.3-0.4-0.8-0.7-1.1c-0.4-0.6-0.4-1.4-0.6-2.1C31.9,274.4,31.8,273,31.6,271.6z"/>
		<path class="st29" d="M44.1,271.1c0-0.2,0.1-0.2,0.3-0.3c-0.2,1.4-0.6,2.8-1.1,4.2c-0.6,1.6-1.3,3.2-2.2,4.6
			c-0.2,0.4-0.5,0.8-0.9,1c0.5-1.2,1.1-2.3,1.7-3.4C42.8,275.3,43.6,273.2,44.1,271.1z"/>
		<path class="st29" d="M98.3,283.4c0.7-2,0.7-4.1,1.5-6.1c0.1,0.9-0.1,1.8-0.2,2.7c-0.3,2.1-1,4.2-2.1,6c-0.1,0-0.2,0.1-0.3,0.1
			C97.6,285.4,97.9,284.4,98.3,283.4z"/>
		<path class="st29" d="M85.9,278.5c0,0,0.1-0.1,0.2-0.1c0,0.9,0.3,1.8,0.3,2.8c0.1,1.4,0.4,2.7,0.9,4c0.2,0.5,0.2,1,0.6,1.4
			c0,0.1,0,0.2,0,0.2c-0.5-0.3-0.7-0.8-0.9-1.3c-0.6-1.4-0.8-2.9-0.9-4.4C85.9,280.2,85.7,279.3,85.9,278.5z"/>
		<path class="st33" d="M26.7,302.5c0.1,0,0.2,0,0.3,0c0.3,2.2,0.5,4.4,0.2,6.7c-0.1,1-0.3,2.1-0.5,3.1c-0.1,0.4-0.2,0.7-0.4,1
			c0-0.5,0.1-1,0.2-1.5c0.2-1.7,0.4-3.5,0.3-5.3C26.7,305.2,26.5,303.8,26.7,302.5z"/>
		<path class="st33" d="M33,304.5c0.1-0.2,0.3-0.2,0.5-0.2c-0.3,1-0.9,1.8-1.4,2.7c-0.9,1.6-1.4,3.3-1.9,5c-0.3,1.1-0.6,2.2-0.9,3.3
			c0-1,0.3-2,0.5-3c0.5-1.9,0.9-3.9,1.9-5.7C32.1,305.9,32.5,305.1,33,304.5z"/>
		<path class="st33" d="M95.7,310.4c0.1-0.7,0.2-1.4,0.7-2c0.2,0.7-0.1,1.3-0.1,2c-0.2,2.3-0.3,4.7,0.1,7c0.1,0.5,0.2,1,0.2,1.6
			c-0.2-0.3-0.4-0.7-0.4-1c-0.3-1.2-0.6-2.5-0.6-3.7C95.4,312.9,95.5,311.6,95.7,310.4z"/>
		<path class="st33" d="M90.3,309.3c0.3,0,0.5,0.3,0.6,0.6c1.1,2,1.3,4.3,1.3,6.5c0,1.2,0.1,2.4-0.1,3.5c-0.1,0-0.2,0-0.2,0
			c0-1.2-0.1-2.3-0.1-3.5c-0.1-1.7-0.3-3.4-0.8-5C90.8,310.7,90.4,310,90.3,309.3z"/>
	</g>
</g>
</svg>
