<?xml version="1.0" encoding="utf-8"?>
<!-- Generator: Adobe Illustrator 23.0.1, SVG Export Plug-In . SVG Version: 6.00 Build 0)  -->
<svg version="1.1" id="Layer_1" xmlns="http://www.w3.org/2000/svg" xmlns:xlink="http://www.w3.org/1999/xlink" x="0px" y="0px"
	 viewBox="0 0 500 373" style="enable-background:new 0 0 500 373;" xml:space="preserve">
<style type="text/css">
	.st0{opacity:0.3;}
	.st1{fill:#A7ABF9;}
	.st2{opacity:0.15;}
	.st3{fill:#3B3B3B;}
	.st4{opacity:0.41;fill:#3B3B3B;enable-background:new    ;}
	.st5{fill:#7CAAFF;}
	.st6{fill:#7F00FF;}
	.st7{fill:#FFAEA6;}
	.st8{fill:#6D03E8;}
	.st9{fill:#8C8CF9;}
	.st10{fill:#9B8ABE;}
	.st11{fill:#FFFFFF;}
	.st12{opacity:0.41;fill:#FFFFFF;enable-background:new    ;}
	.st13{fill:#E7DCF9;}
	.st14{fill:#241352;}
	.st15{opacity:0.28;}
	.st16{opacity:0.12;}
	.st17{fill:#6042DC;}
	.st18{fill:#FBF1FC;}
</style>
<g class="st0">
	<path class="st1" d="M171.3,321.5c-39.2-13.2-73.2-46.1-80.1-86.8c-7-40.8,18.7-86.7,59.2-95.5c19.1-4.2,39.7-0.5,58-7.4
		c34.4-13.3,46.1-58.1,77.9-76.7c30.6-18,72.6-5,95.4,22.3s29.5,64.8,28.1,100.4c-2,52.1-24.2,108.4-71.5,130.5
		C298.4,326.6,214.1,331.9,171.3,321.5"/>
</g>
<g>
	<g class="st2">
		<path class="st3" d="M354.6,148.9c-3,3-3.9,7.7-1,11.1c2.7,3.2,8,3.9,11.3,1.2c3.2-2.5,4.1-7.1,2-10.7c-2.2-3.9-7.2-5.5-11.4-4.7
			c-0.7,0.2-0.6,1.4,0.2,1.4c3.1-0.1,6.4,0.3,8.7,2.5c2.7,2.5,2.9,6.6,0.6,9.4c-2.4,3-7,3.2-9.9,0.6c-2.9-2.7-2.7-7.5,0-10.3
			C355.4,149.1,354.9,148.6,354.6,148.9L354.6,148.9z"/>
		<path class="st3" d="M138.6,117.1c-3.3-1.5-7.4-1.1-10.5,0.9c-3.1,2-4.9,5.8-4.7,9.4c0.1,2.9,1.3,6.1-0.6,8.3
			c-1.4,1.7-3.9,1.9-5.9,2.8c-3.8,1.8-5.8,6.8-4,10.6c0.9,2,2.8,4,2.4,6.2c-0.2,1.5-1.4,2.6-2.7,3.3c-1.3,0.7-2.7,1.1-4,1.8
			c-4.8,2.3-7.7,7.8-7.6,13.2c0.2,5.4,3.1,10.5,7.3,13.7c4.3,3.2,9.6,4.9,14.9,5.1c5.4,0.2,10.9-1,15-4.5c3.1-2.6,5.1-6.2,6.6-10
			c2.8-7.1,4-14.9,3.3-22.5c-0.6-7.9-3.2-15.6-3.8-23.6c-0.2-2.7-0.2-5.4-0.7-8c-0.6-2.6-1.9-5.2-4.2-6.6"/>
		<path class="st3" d="M137.4,118.2c3.1-6.3,9.1-11.1,16-12.7c4.2-0.9,8.8-0.6,12.5,1.6c3.7,2.2,6.3,6.6,5.7,10.9
			c-0.4,2.7-1.8,5-2.7,7.5s-1.2,5.6,0.5,7.6c1.5,1.9,4.2,2.3,6.2,3.5c3,1.7,4.8,5.2,4.6,8.6s-2.4,6.7-5.6,8c3.2,0.4,6,2.1,7.9,4.6
			c1.8,2.6,2.4,5.9,1.8,9c-1,4.4-4.6,7.7-8.4,10.1c-5.3,3.3-11.5,5.2-17.7,5.5c-6.7,0.3-14-1.7-17.6-7.2c-2.4-3.7-2.7-8.3-3-12.6
			c-0.8-13.2-1.4-26.3-1.9-39.5c-0.1-2.1-0.2-4.3,0.3-6.3"/>
		<path class="st3" d="M159.7,177.6l59.6,22.4l-5.7-24l15.5-3.9c0,0,16.7,47,5.1,48.2c-20.2,2.2-50.9-5.8-50.9-5.8L159.7,177.6z"/>
		<path class="st3" d="M154.6,280.2c0,0,71.9-78.5,120.5-61.4c48.5,17.2,69,97.1,69,97.1l-38.7-0.6c0,0-30.5-60.4-45.5-58.1
			C245,259.5,199,317,199,317L154.6,280.2z"/>
		<path class="st3" d="M177.3,232.5l3,46.1c-15.5,19-69.5-5.6-69.5-5.6l-0.6-19.3l-1.3-45.8c1.2-18.3,18.2-27.3,18.2-27.3
			c7-3.5,17.7-5.5,27.4-5c10,0.5,12.5,5.3,16.7,14.5C174.5,197.6,183.6,209.6,177.3,232.5z"/>
		<path class="st3" d="M120.9,281.7c0,0-8.3,33.6,16.9,38.9c25.1,5.3,117.7-7,141.8-5c24.1,2.1,92.7,6.1,92.7,6.1l5-39.9
			c0,0-106.7-5.1-118.7-2.1C246.5,282.7,120.9,281.7,120.9,281.7z"/>
		<path class="st3" d="M132.9,223c0,0-7.5,44.4,3.1,43.3c35-3.6,55.8-4.1,55.8-4.1l5.8,12.1c0.1,2-66.2,21.1-76.9,14.7
			c-7.5-4.5-19.6-16.4-14.1-52.1l1.3-12L132.9,223z"/>
		<polygon class="st3" points="164.5,286.8 164.5,283.8 208.4,277.6 220,236.8 268.6,235.7 255.6,279.7 		"/>
		<path class="st3" d="M243.5,256.2c0.1,1.9-1.5,3.6-3.5,3.7c-1.9,0.1-3.6-1.5-3.7-3.5c-0.1-1.9,1.5-3.6,3.5-3.7
			C241.7,252.6,243.4,254.1,243.5,256.2z"/>
		<path class="st4" d="M244.9,256.1c0.1,2.8-2.1,5.1-4.9,5.2c-2.8,0.1-5.1-2.1-5.2-4.9c-0.1-2.8,2.1-5.1,4.9-5.2
			C242.5,251.1,244.8,253.3,244.9,256.1z"/>
		<path class="st3" d="M113.7,193.5c0,0-8.2,7.8-10,37.5l31.6-3.5C135.3,227.4,140.5,177,113.7,193.5z"/>
		<path class="st3" d="M345.6,104.2c0,0,11.2,25.1,14.3,23.8c3.2-1.3,32-19.3,32-19.3S380,86.2,377.6,84.9
			C375.1,83.7,345.6,104.2,345.6,104.2z"/>
		<path class="st3" d="M377.6,85c0,0,0,0.2-0.1,0.5c-0.1,0.4-0.3,0.8-0.5,1.3c-0.5,1.2-1,2.9-1.8,4.9c-1.5,4.1-3.6,9.7-5.9,16
			c-0.1,0.2-0.1,0.3-0.2,0.5l-0.1,0.2h-0.2c-6.4-1.1-12.2-2-16.5-2.8c-2-0.4-3.7-0.6-5-0.9c-0.6-0.1-1-0.2-1.4-0.3
			c-0.3-0.1-0.5-0.1-0.5-0.1s0.2,0,0.5,0c0.4,0.1,0.8,0.1,1.4,0.2c1.2,0.2,3,0.5,5,0.7c4.3,0.6,10.1,1.6,16.5,2.6l-0.3,0.2
			c0.1-0.2,0.1-0.3,0.2-0.5c2.3-6.2,4.5-11.9,6.1-16c0.7-1.9,1.4-3.6,1.9-4.8c0.2-0.6,0.4-0.9,0.6-1.3C377.5,85.1,377.6,85,377.6,85
			z"/>
		<path class="st3" d="M356.2,125.1c-0.1,0,0.1-1,0.5-2.7s0.9-4,1.6-6.5c0.6-2.5,1.4-4.7,1.9-6.4c0.6-1.6,0.9-2.6,1-2.6
			s-0.2,1-0.6,2.7c-0.5,1.8-1.1,4-1.8,6.4c-0.6,2.4-1.2,4.6-1.8,6.4C356.6,124.2,356.3,125.2,356.2,125.1z"/>
		<path class="st3" d="M390.1,103.9c0,0.1-4.1-0.4-9-1.2c-4.9-0.7-8.9-1.5-8.9-1.7c0-0.1,4,0.4,9,1.2
			C386.1,102.9,390.1,103.7,390.1,103.9z"/>
		<path class="st3" d="M129.5,131.3l0.7,9.5c0,0-8,1.1-5.8,8.3c2.3,7.3,7.8,4.1,7.8,4.1s1.4,18.7,20.5,12.8
			c15.2-4.7,14.3-24.5,12.4-41.3c-0.7-6.5-7-11-13.4-9.7l-11.5,2.2C133.7,118.4,129,124.6,129.5,131.3z"/>
		<path class="st3" d="M130.3,148.5l5.2,27.5c1.2,6.2,7.2,10.2,13.4,8.7l0,0c5.7-1.4,9.4-7,8.3-12.7l-2.8-15.8L130.3,148.5z"/>
		<path class="st3" d="M151.4,148.9c0,0,0.1,0.3,0.6,0.4c0.4,0.1,1-0.3,1.2-1.1s0.1-1.8,0.1-3c-0.1-1.1-0.2-2.4-0.3-3.7
			c-0.2-2.6-0.3-5-0.4-6.7c-0.1-1.7-0.1-2.8,0-2.8c0.1,0,0.2,1,0.4,2.8s0.4,4.1,0.5,6.7c0.1,1.3,0.2,2.5,0.2,3.7
			c0.1,1.1,0.1,2.2-0.2,3.1c-0.2,0.9-1.1,1.4-1.6,1.2C151.4,149.2,151.4,148.9,151.4,148.9z"/>
		<path class="st3" d="M157.6,164.1c0,0-0.2,0.2-0.6,0.6c-0.4,0.3-1,0.7-1.8,1.1c-1.6,0.8-4,1.7-6.7,1.8c-2.8,0.1-5.2-0.6-6.8-1.5
			c-0.8-0.4-1.4-0.7-1.9-1c-0.4-0.3-0.6-0.5-0.6-0.5c0-0.1,0.9,0.6,2.6,1.2c1.6,0.6,4,1.3,6.6,1.3c2.7-0.1,5-0.8,6.6-1.6
			C156.8,164.6,157.6,164,157.6,164.1z"/>
		<path class="st3" d="M153.9,152.7c0,0-0.3,0.6-1.1,1.1c-0.8,0.6-2.2,0.9-3.7,0.5c-1.5-0.5-2.4-1.7-2.8-2.5
			c-0.4-0.9-0.3-1.6-0.3-1.6c0.1,0,0.1,0.6,0.6,1.4c0.4,0.8,1.3,1.8,2.6,2.2c1.3,0.4,2.6,0.1,3.4-0.3
			C153.4,153.1,153.8,152.7,153.9,152.7z"/>
		<path class="st3" d="M129.6,150c0,0.1-0.5,0.2-1.2-0.1c-0.4-0.1-0.8-0.5-1-1c-0.1-0.3-0.1-0.6,0-0.8c0.1-0.3,0.4-0.6,0.6-0.7
			c0.5-0.2,1-0.1,1.3,0.4l-0.4,0.2c-0.6-1.5-1-2.7-0.9-2.7c0.1,0,0.6,1,1.4,2.5l-0.4,0.2c-0.1-0.2-0.5-0.3-0.7-0.2
			c-0.4,0.1-0.6,0.6-0.4,1c0.1,0.4,0.4,0.6,0.7,0.8C129.1,149.9,129.6,149.9,129.6,150z"/>
		<path class="st3" d="M159.1,136.8c-0.1,0-0.4-0.6-0.6-1.5c-0.2-0.8-0.3-1.5-0.1-1.6c0.1,0,0.4,0.6,0.6,1.5
			S159.3,136.8,159.1,136.8z"/>
		<path class="st3" d="M142.9,138.3c-0.1,0-0.5-0.6-0.6-1.5c-0.2-0.8-0.3-1.6-0.2-1.6s0.5,0.6,0.6,1.5
			C143,137.5,143.1,138.3,142.9,138.3z"/>
		<path class="st3" d="M144.4,131.4c0,0.1-0.9,0-1.9,0.3c-1,0.3-1.8,0.8-1.9,0.7c-0.1-0.1,0.6-0.9,1.8-1.2
			C143.5,131,144.4,131.3,144.4,131.4z"/>
		<path class="st3" d="M161,128.8c-0.1,0.1-1-0.2-2.2-0.1c-1.2,0.1-2.1,0.6-2.1,0.5c-0.1-0.1,0.8-0.8,2.1-0.9
			C160,128.2,161,128.7,161,128.8z"/>
		<path class="st3" d="M130.3,140.7c5.4-5.2,7-13.9,8.3-21.2c4.9,3.6,11.8,4.5,17.4,2.3c1.8,2.1,3.9,4,6.2,5.5
			c0.6,0.5,1.5,0.8,2.2,0.6c0.9-0.3,1.3-1.3,1.5-2.2c0.6-3,0.7-6-0.3-8.9c-1-2.8-3.2-5.3-5.9-6.4c-3-1.1-6.4-0.6-9.5,0.2
			c-4.6,1.2-9.2,3.1-13.4,5.6c-4.1,2.4-8.1,5.6-9.7,10c-1.8,4.5-1.8,13,2.4,15.2"/>
		<path class="st3" d="M152,153.7c0,0.4-0.2,0.6-0.6,0.9c-0.5,0.2-1.1,0.3-1.8,0.2c-0.6-0.2-1.3-0.5-1.6-0.9
			c-0.3-0.4-0.4-0.7-0.2-1.1c0.4-0.6,1.3-0.6,2.3-0.4C151.1,152.7,152,153,152,153.7z"/>
		<path class="st3" d="M145.4,145c0.1,0.6-1.8,1.5-4.2,1.7c-2.4,0.1-4.4-0.6-4.4-1.2c0.1-0.6,1.9-1,4.2-1.2
			C143.3,144.1,145.3,144.3,145.4,145z"/>
		<path class="st3" d="M165.7,143.3c0.1,0.6-1.5,1.5-3.7,1.7c-2.2,0.1-3.9-0.6-3.9-1.2c0.1-0.6,1.8-1,3.7-1.2
			C163.8,142.5,165.5,142.6,165.7,143.3z"/>
		<path class="st3" d="M130,165.6c-0.2,0-0.2-3.1-0.4-6.8c-0.2-3.7-0.5-6.8-0.4-6.8s0.2,0.7,0.4,1.9c0.2,1.2,0.4,2.9,0.5,4.7
			s0.1,3.5,0.1,4.8C130.2,164.9,130.1,165.6,130,165.6z"/>
		<path class="st3" d="M161.8,177.4c-5.2-2,34.7,12.7,34.7,12.7l-4.1,27.3l-15.1-5L161.8,177.4z"/>
		<path class="st3" d="M138.1,115.7c1.3-1.9,1.7-4.4,1.1-6.5c-0.5-1.9-1.9-3.6-3.7-3.7c-1-0.1-2.1,0.5-2.9,1.2
			c-1.9,1.8-2.4,4.9-1.1,7.2c1.3,2.3,4.2,3.5,6.8,2.8"/>
		<path class="st3" d="M376.2,290.3c0,0,13-18.6,11.4-11.5c-1.6,7-14.7,38.3-14.7,38.3L376.2,290.3z"/>
		<path class="st3" d="M188.2,262.2c0,0,17.2-5.4,16.5-3.6c-0.6,1.8-3.5,1.9-6.4,4.6c0,0,19.1,0.2,18.2,1.8
			c-0.9,1.6-13.4,1.9-13.4,2.2c-0.1,0.3,13.6,0.6,13.4,2c-0.3,1.5-13.1,1.1-13.1,1.1s11.8,1.3,11.6,2.8c-0.3,1.6-11.1,0.5-11.1,0.5
			s9.1,1,8.9,2.5c-0.2,0.8-26.7,1-26.7,1.7C185.9,278.3,188.2,262.2,188.2,262.2"/>
		<path class="st3" d="M214.7,177.4c0,0-10.4-14.6-8.5-14.6s2.8,2.8,6.4,4.6c0,0-5.8-18.2-4-17.8c1.8,0.4,6,12.1,6.3,12.1
			c0.3,0-3.6-13.1-2.2-13.3c1.5-0.2,5.1,12,5.1,12s-2.5-11.6-0.9-11.8c1.6-0.3,3.9,10.4,3.9,10.4s-1.9-8.9-0.5-9.2
			c0.8-0.1,8.7,22.1,8.7,22.1C228.9,172,214.7,177.4,214.7,177.4"/>
		<path class="st3" d="M118.8,217.4c0,0,0.1,0.2,0.2,0.6c0.1,0.4,0.2,0.8,0.1,1.5c0,0.6-0.3,1.5-1,2c-0.4,0.3-0.9,0.5-1.4,0.3
			c-0.6-0.1-0.9-0.5-1.3-0.8c-0.4-0.4-0.6-0.7-0.9-0.9c-0.3-0.3-0.6-0.4-1.1-0.5c-0.7-0.1-1.5,0.2-1.9,0.6c-0.8,0.8-0.7,1.8-0.8,1.8
			c0,0-0.1-0.2-0.1-0.6s0.2-0.9,0.6-1.4c0.5-0.6,1.2-0.9,2.1-0.8c0.5,0,0.9,0.2,1.3,0.6c0.4,0.3,0.6,0.6,1,1c0.3,0.4,0.6,0.6,1,0.7
			s0.7,0,1-0.2c0.6-0.4,0.9-1.1,1-1.7C118.8,218.1,118.7,217.4,118.8,217.4z"/>
		<path class="st3" d="M128.1,209.3c0,0,0.1-0.2,0.4-0.5c0.3-0.3,0.6-0.6,1.2-0.9c0.6-0.3,1.4-0.6,2.3-0.2c0.4,0.2,0.8,0.6,1,1
			c0.2,0.5,0.1,1-0.1,1.5c-0.1,0.5-0.3,0.9-0.4,1.3c-0.1,0.4,0,0.8,0.2,1.1c0.3,0.7,0.9,1.1,1.5,1.3c1.2,0.3,1.9-0.3,1.9-0.2
			c0,0-0.1,0.2-0.5,0.4c-0.3,0.2-0.8,0.4-1.5,0.2c-0.6-0.1-1.4-0.6-1.8-1.4c-0.2-0.4-0.3-0.9-0.3-1.4c0.1-0.5,0.2-0.9,0.4-1.4
			c0.1-0.5,0.2-0.8,0.1-1.2c-0.1-0.4-0.4-0.6-0.7-0.7c-0.6-0.4-1.4-0.2-1.9,0.1C128.8,208.9,128.2,209.4,128.1,209.3z"/>
		<path class="st3" d="M127.6,189.2c0,0,0.1-0.2,0.4-0.5c0.3-0.3,0.6-0.6,1.2-0.9c0.6-0.3,1.4-0.6,2.3-0.2c0.4,0.2,0.8,0.6,1,1
			s0.1,1-0.1,1.5c-0.1,0.5-0.3,0.9-0.4,1.3c-0.1,0.4,0,0.8,0.2,1.1c0.3,0.7,0.9,1.1,1.5,1.3c1.2,0.3,1.9-0.3,1.9-0.2
			c0,0-0.1,0.2-0.5,0.4c-0.3,0.2-0.8,0.4-1.5,0.2c-0.6-0.1-1.4-0.6-1.8-1.4c-0.2-0.4-0.3-0.9-0.3-1.4c0.1-0.5,0.2-0.9,0.4-1.4
			c0.1-0.5,0.2-0.8,0.1-1.2c-0.1-0.4-0.4-0.6-0.7-0.7c-0.6-0.4-1.4-0.2-1.9,0.1C128.1,188.7,127.6,189.3,127.6,189.2z"/>
		<path class="st3" d="M147.5,215.4c0,0-0.2-0.1-0.5-0.3c-0.3-0.3-0.6-0.6-1-1.1s-0.6-1.4-0.4-2.2c0.1-0.5,0.5-0.8,0.9-1.1
			c0.5-0.2,1-0.2,1.5-0.1c0.5,0.1,0.9,0.2,1.3,0.2c0.4,0,0.8-0.1,1.1-0.3c0.6-0.4,1-1,1.1-1.6c0.2-1.2-0.5-1.9-0.4-1.9
			c0,0,0.2,0.1,0.4,0.4c0.2,0.3,0.4,0.8,0.4,1.5s-0.5,1.5-1.2,1.9c-0.4,0.2-0.8,0.4-1.4,0.4c-0.5,0-0.9-0.1-1.4-0.2
			c-0.5-0.1-0.8-0.1-1.2,0c-0.4,0.2-0.6,0.5-0.7,0.8c-0.3,0.7-0.1,1.4,0.2,1.9C146.9,214.8,147.5,215.4,147.5,215.4z"/>
		<path class="st3" d="M161,236.4c0,0-0.1,0.2-0.4,0.4s-0.6,0.6-1.3,0.8c-0.6,0.3-1.5,0.4-2.3,0c-0.4-0.2-0.8-0.6-0.9-1.1
			c-0.2-0.6,0-1,0.2-1.5s0.4-0.8,0.5-1.3c0.1-0.4,0-0.8-0.1-1.1c-0.3-0.7-0.8-1.2-1.4-1.4c-1.1-0.4-1.9,0.2-1.9,0.1
			c0,0,0.1-0.2,0.5-0.3c0.4-0.2,0.8-0.3,1.6-0.1c0.6,0.2,1.4,0.6,1.7,1.6c0.2,0.4,0.2,0.9,0.2,1.4c-0.1,0.5-0.3,0.9-0.5,1.4
			c-0.2,0.5-0.3,0.8-0.2,1.2c0.1,0.4,0.4,0.6,0.6,0.8c0.6,0.4,1.4,0.3,1.9,0.1C160.4,236.9,161,236.3,161,236.4z"/>
		<path class="st3" d="M177.1,203.3c0,0-0.1,0.2-0.4,0.4c-0.3,0.2-0.6,0.6-1.3,0.8c-0.6,0.3-1.5,0.4-2.3,0c-0.4-0.2-0.8-0.6-0.9-1.1
			c-0.2-0.6,0-1,0.2-1.5s0.4-0.8,0.5-1.3c0.1-0.4,0-0.8-0.1-1.1c-0.3-0.7-0.8-1.2-1.4-1.4c-1.1-0.4-1.9,0.2-1.9,0.1
			c0,0,0.1-0.2,0.5-0.3c0.4-0.2,0.8-0.3,1.6-0.1c0.6,0.2,1.4,0.6,1.7,1.6c0.2,0.4,0.2,0.9,0.2,1.4c-0.1,0.5-0.3,0.9-0.5,1.4
			c-0.2,0.5-0.3,0.8-0.2,1.2c0.1,0.4,0.4,0.6,0.6,0.8c0.6,0.4,1.4,0.3,1.9,0.1C176.4,203.7,177,203.2,177.1,203.3z"/>
		<path class="st3" d="M188,198.2c0,0,0.2,0.1,0.5,0.3c0.3,0.2,0.7,0.5,1.2,0.9s0.9,1.2,0.7,2.1c-0.1,0.5-0.3,0.9-0.7,1.2
			c-0.5,0.3-1,0.4-1.5,0.4s-0.9,0-1.4,0c-0.4,0.1-0.7,0.3-1,0.5c-0.6,0.5-0.8,1.2-0.8,1.8c0.1,1.2,0.8,1.7,0.7,1.8
			c0,0-0.2-0.1-0.5-0.4c-0.3-0.3-0.6-0.7-0.6-1.4s0.2-1.5,0.8-2.1c0.4-0.3,0.7-0.6,1.3-0.6c0.5-0.1,0.9,0,1.4,0s0.9-0.1,1.2-0.3
			c0.3-0.2,0.5-0.6,0.6-0.9c0.1-0.7-0.2-1.4-0.6-1.9C188.7,198.7,187.9,198.3,188,198.2z"/>
		<path class="st3" d="M143.8,253.6c0,0-0.1,0.2-0.4,0.4c-0.3,0.2-0.6,0.6-1.3,0.8c-0.6,0.3-1.5,0.4-2.3,0c-0.4-0.2-0.8-0.6-0.9-1.1
			c-0.2-0.6,0-1,0.2-1.5s0.4-0.8,0.5-1.3c0.1-0.4,0-0.8-0.1-1.1c-0.3-0.7-0.8-1.2-1.4-1.4c-1.1-0.4-1.9,0.2-1.9,0.1
			c0,0,0.1-0.2,0.5-0.3c0.4-0.2,0.8-0.3,1.6-0.1c0.6,0.2,1.4,0.6,1.7,1.6c0.2,0.4,0.2,0.9,0.2,1.4c-0.1,0.5-0.3,0.9-0.5,1.4
			s-0.3,0.8-0.2,1.2c0.1,0.4,0.4,0.6,0.6,0.8c0.6,0.4,1.4,0.3,1.9,0.1C143.1,254,143.8,253.5,143.8,253.6z"/>
		<path class="st3" d="M167.5,221.7c0,0-0.2-0.1-0.4-0.4s-0.6-0.6-0.8-1.2c-0.3-0.6-0.5-1.5-0.1-2.3c0.2-0.4,0.6-0.8,1-0.9
			c0.5-0.2,1-0.1,1.5,0.1c0.5,0.2,0.9,0.3,1.3,0.4c0.4,0.1,0.8,0,1.1-0.2c0.7-0.3,1.1-0.8,1.3-1.4c0.3-1.2-0.3-1.9-0.2-1.9
			c0,0,0.2,0.1,0.4,0.5c0.2,0.4,0.3,0.8,0.2,1.5c-0.1,0.6-0.6,1.4-1.5,1.8c-0.4,0.2-0.9,0.3-1.4,0.2c-0.5-0.1-0.9-0.3-1.4-0.4
			c-0.5-0.2-0.8-0.2-1.2-0.1s-0.6,0.4-0.8,0.7c-0.4,0.6-0.3,1.4,0,1.9C167.1,221,167.6,221.6,167.5,221.7z"/>
		<path class="st3" d="M171.8,238.8c0,0-0.2-0.1-0.4-0.4s-0.6-0.6-0.8-1.2c-0.3-0.6-0.5-1.5-0.1-2.3c0.2-0.4,0.6-0.8,1-0.9
			c0.5-0.2,1-0.1,1.5,0.1c0.5,0.2,0.9,0.3,1.3,0.4c0.4,0.1,0.8,0,1.1-0.2c0.7-0.3,1.1-0.8,1.3-1.4c0.3-1.2-0.3-1.9-0.2-1.9
			c0,0,0.2,0.1,0.4,0.5c0.2,0.4,0.3,0.8,0.2,1.5c-0.1,0.6-0.6,1.4-1.5,1.8c-0.4,0.2-0.9,0.3-1.4,0.2c-0.5-0.1-0.9-0.3-1.4-0.4
			c-0.5-0.2-0.8-0.2-1.2-0.1s-0.6,0.4-0.8,0.7c-0.4,0.6-0.3,1.4,0,1.9C171.3,238.2,171.8,238.7,171.8,238.8z"/>
		<path class="st3" d="M137.5,231.5c0,0-0.1-0.2-0.1-0.6c0-0.4,0-0.8,0.2-1.5s0.6-1.4,1.5-1.8c0.4-0.2,0.9-0.3,1.5,0
			c0.5,0.2,0.8,0.6,1,1.1c0.3,0.5,0.5,0.8,0.7,1.1c0.3,0.3,0.6,0.6,0.9,0.6c0.7,0.3,1.5,0.1,1.9-0.2c1-0.6,1.1-1.6,1.1-1.5
			c0,0,0.1,0.2-0.1,0.6c-0.1,0.4-0.4,0.8-0.9,1.2c-0.6,0.4-1.4,0.6-2.2,0.3c-0.5-0.2-0.8-0.4-1.2-0.7c-0.3-0.4-0.6-0.8-0.7-1.2
			s-0.5-0.7-0.8-0.9c-0.4-0.2-0.7-0.2-1.1,0c-0.7,0.3-1.1,0.9-1.3,1.5C137.6,230.7,137.6,231.5,137.5,231.5z"/>
		<path class="st3" d="M168.5,252.7c0,0-0.1-0.2-0.1-0.6c0-0.4,0-0.8,0.2-1.5c0.2-0.6,0.6-1.4,1.5-1.8c0.4-0.2,0.9-0.3,1.5,0
			c0.5,0.2,0.8,0.6,1,1.1c0.3,0.5,0.5,0.8,0.7,1.1c0.3,0.3,0.6,0.6,0.9,0.6c0.7,0.3,1.5,0.1,1.9-0.2c1-0.6,1.1-1.6,1.1-1.5
			c0,0,0.1,0.2-0.1,0.6c-0.1,0.4-0.4,0.8-0.9,1.2c-0.6,0.4-1.4,0.6-2.2,0.3c-0.5-0.2-0.8-0.4-1.2-0.7c-0.3-0.4-0.6-0.8-0.7-1.2
			c-0.2-0.4-0.5-0.7-0.8-0.9s-0.7-0.2-1.1,0c-0.7,0.3-1.1,0.9-1.3,1.5C168.6,251.9,168.6,252.7,168.5,252.7z"/>
		<path class="st3" d="M167.5,188.6c0,0-0.1-0.2-0.1-0.6c0-0.4,0-0.8,0.2-1.5c0.2-0.6,0.6-1.4,1.5-1.8c0.4-0.2,0.9-0.3,1.5,0
			c0.5,0.2,0.8,0.6,1,1.1c0.3,0.5,0.5,0.8,0.7,1.1s0.6,0.6,0.9,0.6c0.7,0.3,1.5,0.1,1.9-0.2c1-0.6,1.1-1.6,1.1-1.5
			c0,0,0.1,0.2-0.1,0.6c-0.1,0.4-0.4,0.8-0.9,1.2s-1.4,0.6-2.2,0.3c-0.5-0.2-0.8-0.4-1.2-0.7c-0.3-0.4-0.6-0.8-0.7-1.2
			c-0.2-0.4-0.5-0.7-0.8-0.9c-0.4-0.2-0.7-0.2-1.1,0c-0.7,0.3-1.1,0.9-1.3,1.5C167.6,187.7,167.6,188.6,167.5,188.6z"/>
		<path class="st3" d="M157.4,261.2c0,0-0.2,0-0.6-0.2c-0.3-0.2-0.8-0.4-1.3-0.7s-1-1.1-1-2c0-0.5,0.2-0.9,0.6-1.3
			c0.4-0.4,0.9-0.5,1.4-0.6c0.5-0.1,0.9-0.1,1.3-0.2c0.4-0.1,0.7-0.4,1-0.6c0.6-0.6,0.6-1.3,0.6-1.9c-0.2-1.2-1-1.6-0.9-1.7
			c0,0,0.2,0,0.5,0.3c0.3,0.2,0.6,0.6,0.7,1.3c0.2,0.6,0,1.6-0.6,2.2c-0.3,0.4-0.7,0.6-1.2,0.7c-0.5,0.2-0.9,0.2-1.4,0.2
			c-0.5,0.1-0.8,0.2-1.1,0.4c-0.3,0.3-0.5,0.6-0.5,1c0,0.7,0.4,1.4,0.8,1.8C156.7,260.8,157.5,261.1,157.4,261.2z"/>
		<path class="st3" d="M120.7,198.2c0,0,0.2,0.1,0.4,0.4c0.2,0.3,0.5,0.7,0.7,1.3c0.2,0.6,0.4,1.5-0.2,2.3c-0.2,0.4-0.6,0.7-1.1,0.8
			c-0.6,0.1-1-0.1-1.5-0.3c-0.5-0.2-0.8-0.4-1.2-0.5c-0.4-0.1-0.8-0.1-1.1,0c-0.7,0.2-1.2,0.7-1.5,1.3c-0.4,1.1,0.1,1.9,0,1.9
			c0,0-0.2-0.1-0.3-0.5c-0.1-0.4-0.2-0.9,0-1.6c0.2-0.6,0.7-1.3,1.7-1.6c0.5-0.2,0.9-0.2,1.4-0.1c0.5,0.1,0.9,0.4,1.3,0.6
			c0.5,0.2,0.8,0.3,1.2,0.2c0.4-0.1,0.6-0.3,0.8-0.6c0.4-0.6,0.4-1.4,0.2-1.9C121.1,198.9,120.6,198.3,120.7,198.2z"/>
		<path class="st3" d="M156.1,191.9c0,0,0.2,0.1,0.4,0.4c0.2,0.3,0.5,0.7,0.7,1.3c0.2,0.6,0.4,1.5-0.2,2.3c-0.2,0.4-0.6,0.7-1.1,0.8
			c-0.6,0.1-1-0.1-1.5-0.3c-0.5-0.2-0.8-0.4-1.2-0.5c-0.4-0.1-0.8-0.1-1.1,0c-0.7,0.2-1.2,0.7-1.5,1.3c-0.4,1.1,0.1,1.9,0,1.9
			c0,0-0.2-0.1-0.3-0.5c-0.1-0.4-0.2-0.9,0-1.6s0.7-1.3,1.7-1.6c0.5-0.2,0.9-0.2,1.4-0.1s0.9,0.4,1.3,0.6c0.5,0.2,0.8,0.3,1.2,0.2
			c0.4-0.1,0.6-0.3,0.8-0.6c0.4-0.6,0.4-1.4,0.2-1.9C156.5,192.5,156,191.9,156.1,191.9z"/>
		<path class="st3" d="M134.2,229.2c0,0,0-0.2,0-0.6s0.1-0.9,0.1-1.6c0.2-1.5,0.4-3.4,0.6-5.8c0.6-5,1.2-11.8,2-19.3
			c0.2-1.9,0.3-3.7,0-5.5c-0.3-1.8-0.9-3.3-1.9-4.6c-2-2.6-4.8-3.9-7.1-4.4c-2.4-0.6-4.5-0.5-5.8-0.4c-0.6,0-1.2,0.1-1.6,0.1
			c-0.4,0-0.6,0.1-0.6,0c0,0,0.2-0.1,0.6-0.1c0.4-0.1,0.9-0.2,1.6-0.2c1.4-0.1,3.4-0.3,5.9,0.3c2.4,0.5,5.4,1.8,7.4,4.5
			c1,1.3,1.8,3,2,4.8c0.3,1.8,0.2,3.7,0,5.6c-0.8,7.5-1.6,14.4-2.2,19.3c-0.3,2.4-0.6,4.4-0.7,5.8c-0.1,0.6-0.2,1.2-0.2,1.6
			C134.3,229,134.3,229.2,134.2,229.2z"/>
		<path class="st3" d="M135.7,227.4c0,0.1-7.2,1-16.1,1.9s-16.1,1.6-16.1,1.5c0-0.1,7.2-1,16.1-1.9
			C128.4,228,135.7,227.3,135.7,227.4z"/>
		<path class="st3" d="M179.6,223.9c-0.1,0,0.3-1.6,0.6-4.1c0.1-1.3,0.1-2.8,0-4.5c-0.1-1.7-0.4-3.5-0.8-5.4
			c-0.5-1.9-1.1-3.6-1.9-5.2c-0.7-1.6-1.5-2.9-2.1-3.9c-1.4-2.1-2.5-3.3-2.4-3.3c0,0,0.3,0.3,0.8,0.7c0.3,0.3,0.6,0.6,0.8,1
			c0.3,0.4,0.7,0.8,1,1.4c0.7,1,1.6,2.4,2.3,3.9c0.7,1.6,1.4,3.3,1.9,5.3c0.5,1.9,0.7,3.8,0.8,5.5c0.1,1.7,0,3.2-0.1,4.5
			c-0.1,0.6-0.2,1.2-0.3,1.8c-0.1,0.5-0.2,0.9-0.3,1.3C179.7,223.5,179.6,223.9,179.6,223.9z"/>
		<path class="st3" d="M263.4,224.2c-0.3-3,0.2-5.7,2.9-7.3c2.8-1.7,5.2-0.6,7.8,0.7c2.2,1.1,4.5,1.6,6.9,0.6
			c4.1-1.8,5.5-7.1,2.6-10.5c-0.6-0.6-1.7,0-1.4,0.8c0.8,2.2,1.4,5-0.6,7c-2.7,2.6-5.7,0.8-8.3-0.4c-2.2-1-4.5-1.3-6.8-0.4
			c-3.9,1.6-5.8,6-3.9,9.8C262.7,224.7,263.4,224.5,263.4,224.2L263.4,224.2z"/>
		<path class="st3" d="M275.6,141.2c0.8,2.1,2.1,4,3.4,5.8c0.7,1,1.8,2.9,3.2,3.2c1.4,0.3,2.4-0.7,3.4-1.5c2.4-1.7,4.7-3.3,7.1-5.1
			c0.4-0.3,0.6-0.7,0.3-1.2c-2.1-3.2-4.2-6.5-6.3-9.7c-0.3-0.4-0.8-0.6-1.2-0.3c-2.6,1.9-5.2,3.5-7.7,5.5c-0.7,0.6,0.2,1.9,1,1.3
			c2.6-1.7,5.1-3.5,7.6-5.3c-0.4-0.1-0.8-0.2-1.2-0.3c2.1,3.2,4.2,6.5,6.3,9.7c0.1-0.4,0.2-0.8,0.3-1.2c-1.4,1-2.9,2-4.3,3.1
			c-1,0.7-3.1,2.9-4.3,3.1c-2.5,0.5-5.6-5.8-7.1-7.4C276,140.7,275.5,141,275.6,141.2L275.6,141.2z"/>
		<path class="st3" d="M245.6,172c-3,3-3.9,7.7-1,11.1c2.7,3.2,8,3.9,11.3,1.2c3.2-2.5,4.1-7.1,2-10.7c-2.2-3.9-7.2-5.5-11.4-4.7
			c-0.7,0.2-0.6,1.4,0.2,1.4c3.1-0.1,6.4,0.3,8.7,2.5c2.7,2.5,2.9,6.6,0.6,9.4c-2.4,3-7,3.2-9.9,0.6c-2.9-2.7-2.7-7.5,0-10.3
			C246.5,172.1,246,171.6,245.6,172L245.6,172z"/>
		<path class="st3" d="M322.2,201.2c-0.9,5.9-1.9,12-2.7,17.9c-0.1,0.6,0.4,1,0.9,0.9c5.6-0.8,11.2-1.7,16.8-2.7
			c0.5-0.1,0.6-0.6,0.5-1.1c-3.2-5.8-7.2-12-12.7-15.8c-0.7-0.6-1.6,0.6-0.9,1.3c4.5,4.9,9.2,9.3,12.4,15.3c0.2-0.4,0.5-0.7,0.6-1.1
			c-5.7,0.7-11.3,1.7-17,2.6c0.4,0.3,0.6,0.5,1,0.7c0.7-6,1.5-12,2.1-18C323.2,200.8,322.3,200.6,322.2,201.2L322.2,201.2z"/>
		<path class="st3" d="M295.2,189.9c0.9-5.9,1.8-11.9,2.3-17.8c0.1-0.8-1.3-1-1.5-0.2c-0.8,5.9-1.4,12-1.8,17.9
			C294.2,190.3,295.1,190.4,295.2,189.9L295.2,189.9z"/>
		<path class="st3" d="M359.9,188.6c5.9,0.5,11.9,0.8,17.8,0.8c0.9,0,0.9-1.4,0-1.5c-5.9-0.4-11.9-0.5-17.8-0.4
			C359.3,187.5,359.3,188.5,359.9,188.6L359.9,188.6z"/>
		<path class="st3" d="M311.8,113.3c5.4,2.5,10.9,4.9,16.5,7c0.7,0.3,1.3-1,0.6-1.4c-5.5-2.4-11.1-4.5-16.7-6.6
			C311.6,112.2,311.2,113.1,311.8,113.3L311.8,113.3z"/>
		<path class="st3" d="M327.2,163.7c-0.2-0.4-0.5-0.6-0.8-0.8c-1.2-0.8-2.9,0.8-2,2c0.3,0.4,0.5,0.6,0.8,0.8
			C326.4,166.5,327.9,165,327.2,163.7L327.2,163.7z"/>
	</g>
	<g>
		<g>
			<g>
				<g>
					<path class="st5" d="M352.8,147.1c-3,3-3.9,7.7-1,11.1c2.7,3.2,8,3.9,11.3,1.2c3.2-2.5,4.1-7.1,2-10.7
						c-2.2-3.9-7.2-5.5-11.4-4.7c-0.7,0.2-0.6,1.4,0.2,1.4c3.1-0.1,6.4,0.3,8.7,2.5c2.7,2.5,2.9,6.6,0.6,9.4c-2.4,3-7,3.2-9.9,0.6
						c-2.9-2.7-2.7-7.5,0-10.3C353.5,147.3,353.1,146.7,352.8,147.1L352.8,147.1z"/>
				</g>
			</g>
			<g>
				<path class="st6" d="M136.7,115.3c-3.3-1.5-7.4-1.1-10.5,0.9s-4.9,5.8-4.7,9.4c0.1,2.9,1.3,6.1-0.6,8.3
					c-1.4,1.7-3.9,1.9-5.9,2.8c-3.8,1.8-5.8,6.8-4,10.6c0.9,2,2.8,4,2.4,6.2c-0.2,1.5-1.4,2.6-2.7,3.3c-1.3,0.7-2.7,1.1-4,1.8
					c-4.8,2.3-7.7,7.8-7.6,13.2c0.2,5.4,3.1,10.5,7.3,13.7c4.3,3.2,9.6,4.9,14.9,5.1c5.4,0.2,10.9-1,15-4.5c3.1-2.6,5.1-6.2,6.6-10
					c2.8-7.1,4-14.9,3.3-22.5c-0.6-7.9-3.2-15.6-3.8-23.6c-0.2-2.7-0.2-5.4-0.7-8c-0.6-2.6-1.9-5.2-4.2-6.6"/>
			</g>
			<g>
				<path class="st6" d="M135.5,116.3c3.1-6.3,9.1-11.1,16-12.7c4.2-0.9,8.8-0.6,12.5,1.6c3.7,2.2,6.3,6.6,5.7,10.9
					c-0.4,2.7-1.8,5-2.7,7.5s-1.2,5.6,0.5,7.6c1.5,1.9,4.2,2.3,6.2,3.5c3,1.7,4.8,5.2,4.6,8.6s-2.4,6.7-5.6,8c3.2,0.4,6,2.1,7.9,4.6
					c1.8,2.6,2.4,5.9,1.8,9c-1,4.4-4.6,7.7-8.4,10.1c-5.3,3.3-11.5,5.2-17.7,5.5c-6.7,0.3-14-1.7-17.6-7.2c-2.4-3.7-2.7-8.3-3-12.6
					c-0.8-13.2-1.4-26.3-1.9-39.5c-0.1-2.1-0.2-4.3,0.3-6.3"/>
			</g>
			<path class="st7" d="M157.9,175.8l59.6,22.4l-5.7-24l15.5-3.9c0,0,16.7,47,5.1,48.2c-20.2,2.2-50.9-5.8-50.9-5.8L157.9,175.8z"/>
			<path class="st8" d="M152.7,278.3c0,0,71.9-78.5,120.5-61.4c48.5,17.2,69,97.1,69,97.1l-38.7-0.6c0,0-30.5-60.4-45.5-58.1
				c-14.9,2.3-60.9,59.8-60.9,59.8L152.7,278.3z"/>
			<path class="st9" d="M175.4,230.7l3,46.1c-15.5,19-69.5-5.6-69.5-5.6l-0.6-19.3l-1.3-45.8c1.2-18.3,18.2-27.3,18.2-27.3
				c7-3.5,17.7-5.5,27.4-5c10,0.5,12.5,5.3,16.7,14.5C172.6,195.7,181.7,207.8,175.4,230.7z"/>
			<path class="st6" d="M119,279.8c0,0-8.3,33.6,16.9,38.9c25.1,5.3,117.7-7,141.8-5c24.1,2.1,92.7,6.1,92.7,6.1l5-39.9
				c0,0-106.7-5.1-118.7-2.1C244.6,280.9,119,279.8,119,279.8z"/>
			<g>
				<path class="st7" d="M131.1,221.1c0,0-7.5,44.4,3.1,43.3c35-3.6,55.8-4.1,55.8-4.1l5.8,12.1c0.1,2-66.2,21.1-76.9,14.7
					c-7.5-4.5-19.6-16.4-14.1-52.1l1.3-12L131.1,221.1z"/>
			</g>
			<g>
				<polygon class="st10" points="162.6,284.9 162.6,282 206.5,275.7 218.2,234.9 266.8,233.8 253.7,277.9 				"/>
				<path class="st11" d="M241.7,254.3c0.1,1.9-1.5,3.6-3.5,3.7c-1.9,0.1-3.6-1.5-3.7-3.5c-0.1-1.9,1.5-3.6,3.5-3.7
					C239.9,250.7,241.6,252.3,241.7,254.3z"/>
				<path class="st12" d="M243,254.2c0.1,2.8-2.1,5.1-4.9,5.2c-2.8,0.1-5.1-2.1-5.2-4.9c-0.1-2.8,2.1-5.1,4.9-5.2
					C240.6,249.2,243,251.4,243,254.2z"/>
			</g>
			<path class="st9" d="M111.9,191.6c0,0-8.2,7.8-10,37.5l31.6-3.5C133.4,225.6,138.7,175.1,111.9,191.6z"/>
			<g>
				<path class="st6" d="M343.8,102.4c0,0,11.2,25.1,14.3,23.8c3.2-1.3,32-19.3,32-19.3s-11.9-22.5-14.3-23.8
					C373.3,81.9,343.8,102.4,343.8,102.4z"/>
				<g>
					<g>
						<g>
							<path class="st13" d="M375.8,83.2c0,0,0,0.2-0.1,0.5c-0.1,0.4-0.3,0.8-0.5,1.3c-0.5,1.2-1,2.9-1.8,4.9
								c-1.5,4.1-3.6,9.7-5.9,16c-0.1,0.2-0.1,0.3-0.2,0.5l-0.1,0.2h-0.2c-6.4-1.1-12.2-2-16.5-2.8c-2-0.4-3.7-0.6-5-0.9
								c-0.6-0.1-1-0.2-1.4-0.3c-0.3-0.1-0.5-0.1-0.5-0.1s0.2,0,0.5,0c0.4,0.1,0.8,0.1,1.4,0.2c1.2,0.2,3,0.5,5,0.7
								c4.3,0.6,10.1,1.6,16.5,2.6l-0.3,0.2c0.1-0.2,0.1-0.3,0.2-0.5c2.3-6.2,4.5-11.9,6.1-16c0.7-1.9,1.4-3.6,1.9-4.8
								c0.2-0.6,0.4-0.9,0.6-1.3C375.7,83.3,375.8,83.2,375.8,83.2z"/>
						</g>
					</g>
				</g>
				<g>
					<g>
						<g>
							<path class="st13" d="M354.4,123.3c-0.1,0,0.1-1,0.5-2.7c0.4-1.7,0.9-4,1.6-6.5c0.6-2.5,1.4-4.7,1.9-6.4
								c0.6-1.6,0.9-2.6,1-2.6s-0.2,1-0.6,2.7c-0.5,1.8-1.1,4-1.8,6.4c-0.6,2.4-1.2,4.6-1.8,6.4
								C354.7,122.3,354.4,123.3,354.4,123.3z"/>
						</g>
					</g>
				</g>
				<g>
					<g>
						<g>
							<path class="st13" d="M388.2,102c0,0.1-4.1-0.4-9-1.2c-4.9-0.7-8.9-1.5-8.9-1.7c0-0.1,4,0.4,9,1.2
								C384.2,101.1,388.2,101.8,388.2,102z"/>
						</g>
					</g>
				</g>
			</g>
			<path class="st7" d="M127.7,129.5l0.7,9.5c0,0-8,1.1-5.8,8.3c2.3,7.3,7.8,4.1,7.8,4.1s1.4,18.7,20.5,12.8
				c15.2-4.7,14.3-24.5,12.4-41.3c-0.7-6.5-7-11-13.4-9.7l-11.5,2.2C131.8,116.6,127.2,122.7,127.7,129.5z"/>
			<path class="st7" d="M128.4,146.6l5.2,27.5c1.2,6.2,7.2,10.2,13.4,8.7l0,0c5.7-1.4,9.4-7,8.3-12.7l-2.8-15.8L128.4,146.6z"/>
			<g>
				<g>
					<g>
						<path class="st14" d="M149.5,147c0,0,0.1,0.3,0.6,0.4c0.4,0.1,1-0.3,1.2-1.1s0.1-1.8,0.1-3c-0.1-1.1-0.2-2.4-0.3-3.7
							c-0.2-2.6-0.3-5-0.4-6.7c-0.1-1.7-0.1-2.8,0-2.8c0.1,0,0.2,1,0.4,2.8c0.2,1.7,0.4,4.1,0.5,6.7c0.1,1.3,0.2,2.5,0.2,3.7
							c0.1,1.1,0.1,2.2-0.2,3.1c-0.2,0.9-1.1,1.4-1.6,1.2C149.5,147.4,149.5,147,149.5,147z"/>
					</g>
				</g>
			</g>
			<g>
				<g>
					<g>
						<path class="st14" d="M155.8,162.2c0,0-0.2,0.2-0.6,0.6c-0.4,0.3-1,0.7-1.8,1.1c-1.6,0.8-4,1.7-6.7,1.8
							c-2.8,0.1-5.2-0.6-6.8-1.5c-0.8-0.4-1.4-0.7-1.9-1c-0.4-0.3-0.6-0.5-0.6-0.5c0-0.1,0.9,0.6,2.6,1.2c1.6,0.6,4,1.3,6.6,1.3
							c2.7-0.1,5-0.8,6.6-1.6C154.9,162.8,155.8,162.1,155.8,162.2z"/>
					</g>
				</g>
			</g>
			<g>
				<g>
					<g>
						<path class="st14" d="M152,150.8c0,0-0.3,0.6-1.1,1.1c-0.8,0.6-2.2,0.9-3.7,0.5c-1.5-0.5-2.4-1.7-2.8-2.5
							c-0.4-0.9-0.3-1.6-0.3-1.6c0.1,0,0.1,0.6,0.6,1.4c0.4,0.8,1.3,1.8,2.6,2.2c1.3,0.4,2.6,0.1,3.4-0.3
							C151.6,151.3,152,150.8,152,150.8z"/>
					</g>
				</g>
			</g>
			<g>
				<g>
					<g>
						<path class="st14" d="M127.7,148.1c0,0.1-0.5,0.2-1.2-0.1c-0.4-0.1-0.8-0.5-1-1c-0.1-0.3-0.1-0.6,0-0.8s0.4-0.6,0.6-0.7
							c0.5-0.2,1-0.1,1.3,0.4l-0.4,0.2c-0.6-1.5-1-2.7-0.9-2.7s0.6,1,1.4,2.5l-0.4,0.2c-0.1-0.2-0.5-0.3-0.7-0.2
							c-0.4,0.1-0.6,0.6-0.4,1c0.1,0.4,0.4,0.6,0.7,0.8C127.3,148,127.7,148,127.7,148.1z"/>
					</g>
				</g>
			</g>
			<g>
				<g>
					<g>
						<path class="st14" d="M157.2,134.9c-0.1,0-0.4-0.6-0.6-1.5c-0.2-0.8-0.3-1.5-0.1-1.6c0.1,0,0.4,0.6,0.6,1.5
							S157.4,134.9,157.2,134.9z"/>
					</g>
				</g>
			</g>
			<g>
				<g>
					<g>
						<path class="st14" d="M141,136.4c-0.1,0-0.5-0.6-0.6-1.5c-0.2-0.8-0.3-1.6-0.2-1.6c0.1,0,0.5,0.6,0.6,1.5
							C141.1,135.7,141.2,136.4,141,136.4z"/>
					</g>
				</g>
			</g>
			<g>
				<g>
					<g>
						<path class="st14" d="M142.5,129.6c0,0.1-0.9,0-1.9,0.3c-1,0.3-1.8,0.8-1.9,0.7c-0.1-0.1,0.6-0.9,1.8-1.2
							C141.7,129.1,142.6,129.5,142.5,129.6z"/>
					</g>
				</g>
			</g>
			<g>
				<g>
					<g>
						<path class="st14" d="M159.1,127c-0.1,0.1-1-0.2-2.2-0.1s-2.1,0.6-2.1,0.5c-0.1-0.1,0.8-0.8,2.1-0.9
							C158.2,126.3,159.2,126.9,159.1,127z"/>
					</g>
				</g>
			</g>
			<g>
				<path class="st6" d="M128.4,138.8c5.4-5.2,7-13.9,8.3-21.2c4.9,3.6,11.8,4.5,17.4,2.3c1.8,2.1,3.9,4,6.2,5.5
					c0.6,0.5,1.5,0.8,2.2,0.6c0.9-0.3,1.3-1.3,1.5-2.2c0.6-3,0.7-6-0.3-8.9c-1-2.8-3.2-5.3-5.9-6.4c-3-1.1-6.4-0.6-9.5,0.2
					c-4.6,1.2-9.2,3.1-13.4,5.6c-4.1,2.4-8.1,5.6-9.7,10c-1.8,4.5-1.8,13,2.4,15.2"/>
			</g>
			<g class="st15">
				<g>
					<g>
						<path class="st14" d="M150.2,151.8c0,0.4-0.2,0.6-0.6,0.9c-0.5,0.2-1.1,0.3-1.8,0.2c-0.6-0.2-1.3-0.5-1.6-0.9
							c-0.3-0.4-0.4-0.7-0.2-1.1c0.4-0.6,1.3-0.6,2.3-0.4C149.3,150.8,150.1,151.2,150.2,151.8z"/>
					</g>
				</g>
			</g>
			<g class="st16">
				<g>
					<g>
						<path class="st14" d="M143.5,143.1c0.1,0.6-1.8,1.5-4.2,1.7c-2.4,0.1-4.4-0.6-4.4-1.2c0.1-0.6,1.9-1,4.2-1.2
							C141.5,142.3,143.4,142.5,143.5,143.1z"/>
					</g>
				</g>
			</g>
			<g class="st16">
				<g>
					<g>
						<path class="st14" d="M163.8,141.4c0.1,0.6-1.5,1.5-3.7,1.7c-2.2,0.1-3.9-0.6-3.9-1.2c0.1-0.6,1.8-1,3.7-1.2
							C162,140.6,163.6,140.8,163.8,141.4z"/>
					</g>
				</g>
			</g>
			<g>
				<g>
					<g>
						<path class="st17" d="M128.1,163.8c-0.2,0-0.2-3.1-0.4-6.8c-0.2-3.7-0.5-6.8-0.4-6.8c0.1,0,0.2,0.7,0.4,1.9
							c0.2,1.2,0.4,2.9,0.5,4.7s0.1,3.5,0.1,4.8C128.3,163,128.2,163.8,128.1,163.8z"/>
					</g>
				</g>
			</g>
			<path class="st9" d="M159.9,175.6c-5.2-2,34.7,12.7,34.7,12.7l-4.1,27.3l-15.1-5L159.9,175.6z"/>
			<g>
				<path class="st6" d="M136.3,113.9c1.3-1.9,1.7-4.4,1.1-6.5c-0.5-1.9-1.9-3.6-3.7-3.7c-1-0.1-2.1,0.5-2.9,1.2
					c-1.9,1.8-2.4,4.9-1.1,7.2c1.3,2.3,4.2,3.5,6.8,2.8"/>
			</g>
			<path class="st14" d="M374.3,288.5c0,0,13-18.6,11.4-11.5c-1.6,7-14.7,38.3-14.7,38.3L374.3,288.5z"/>
			<path class="st7" d="M186.4,260.4c0,0,17.2-5.4,16.5-3.6c-0.6,1.8-3.5,1.9-6.4,4.6c0,0,19.1,0.2,18.2,1.8
				c-0.9,1.6-13.4,1.9-13.4,2.2c-0.1,0.3,13.6,0.6,13.4,2c-0.3,1.5-13.1,1.1-13.1,1.1s11.8,1.3,11.6,2.8c-0.3,1.6-11.1,0.5-11.1,0.5
				s9.1,1,8.9,2.5c-0.2,0.8-26.7,1-26.7,1.7C184.1,276.4,186.4,260.4,186.4,260.4"/>
			<path class="st7" d="M212.8,175.6c0,0-10.4-14.6-8.5-14.6s2.8,2.8,6.4,4.6c0,0-5.8-18.2-4-17.8c1.8,0.4,6,12.1,6.3,12.1
				c0.3,0-3.6-13.1-2.2-13.3c1.5-0.2,5.1,12,5.1,12s-2.5-11.6-0.9-11.8c1.6-0.3,3.9,10.4,3.9,10.4s-1.9-8.9-0.5-9.2
				c0.8-0.1,8.7,22.1,8.7,22.1C227,170.1,212.8,175.6,212.8,175.6"/>
			<g>
				<g>
					<g>
						<path class="st18" d="M117,215.5c0,0,0.1,0.2,0.2,0.6s0.2,0.8,0.1,1.5c0,0.6-0.3,1.5-1,2c-0.4,0.3-0.9,0.5-1.4,0.3
							c-0.6-0.1-0.9-0.5-1.3-0.8c-0.4-0.4-0.6-0.7-0.9-0.9c-0.3-0.3-0.6-0.4-1.1-0.5c-0.7-0.1-1.5,0.2-1.9,0.6
							c-0.8,0.8-0.7,1.8-0.8,1.8c0,0-0.1-0.2-0.1-0.6s0.2-0.9,0.6-1.4c0.5-0.6,1.2-0.9,2.1-0.8c0.5,0,0.9,0.2,1.3,0.6
							c0.4,0.3,0.6,0.6,1,1c0.3,0.4,0.6,0.6,1,0.7c0.4,0.1,0.7,0,1-0.2c0.6-0.4,0.9-1.1,1-1.7C117,216.3,116.9,215.5,117,215.5z"/>
					</g>
				</g>
			</g>
			<g>
				<g>
					<g>
						<path class="st18" d="M126.3,207.5c0,0,0.1-0.2,0.4-0.5c0.3-0.3,0.6-0.6,1.2-0.9c0.6-0.3,1.4-0.6,2.3-0.2c0.4,0.2,0.8,0.6,1,1
							c0.2,0.5,0.1,1-0.1,1.5c-0.1,0.5-0.3,0.9-0.4,1.3s0,0.8,0.2,1.1c0.3,0.7,0.9,1.1,1.5,1.3c1.2,0.3,1.9-0.3,1.9-0.2
							c0,0-0.1,0.2-0.5,0.4c-0.3,0.2-0.8,0.4-1.5,0.2c-0.6-0.1-1.4-0.6-1.8-1.4c-0.2-0.4-0.3-0.9-0.3-1.4c0.1-0.5,0.2-0.9,0.4-1.4
							c0.1-0.5,0.2-0.8,0.1-1.2s-0.4-0.6-0.7-0.7c-0.6-0.4-1.4-0.2-1.9,0.1C126.9,207,126.4,207.6,126.3,207.5z"/>
					</g>
				</g>
			</g>
			<g>
				<g>
					<g>
						<path class="st18" d="M125.7,187.3c0,0,0.1-0.2,0.4-0.5c0.3-0.3,0.6-0.6,1.2-0.9c0.6-0.3,1.4-0.6,2.3-0.2c0.4,0.2,0.8,0.6,1,1
							c0.2,0.5,0.1,1-0.1,1.5c-0.1,0.5-0.3,0.9-0.4,1.3c-0.1,0.4,0,0.8,0.2,1.1c0.3,0.7,0.9,1.1,1.5,1.3c1.2,0.3,1.9-0.3,1.9-0.2
							c0,0-0.1,0.2-0.5,0.4c-0.3,0.2-0.8,0.4-1.5,0.2c-0.6-0.1-1.4-0.6-1.8-1.4c-0.2-0.4-0.3-0.9-0.3-1.4c0.1-0.5,0.2-0.9,0.4-1.4
							c0.1-0.5,0.2-0.8,0.1-1.2s-0.4-0.6-0.7-0.7c-0.6-0.4-1.4-0.2-1.9,0.1C126.3,186.9,125.7,187.4,125.7,187.3z"/>
					</g>
				</g>
			</g>
			<g>
				<g>
					<g>
						<path class="st18" d="M145.6,213.5c0,0-0.2-0.1-0.5-0.3c-0.3-0.3-0.6-0.6-1-1.1c-0.4-0.6-0.6-1.4-0.4-2.2
							c0.1-0.5,0.5-0.8,0.9-1.1c0.5-0.2,1-0.2,1.5-0.1s0.9,0.2,1.3,0.2s0.8-0.1,1.1-0.3c0.6-0.4,1-1,1.1-1.6
							c0.2-1.2-0.5-1.9-0.4-1.9c0,0,0.2,0.1,0.4,0.4s0.4,0.8,0.4,1.5c0,0.6-0.5,1.5-1.2,1.9c-0.4,0.2-0.8,0.4-1.4,0.4
							c-0.5,0-0.9-0.1-1.4-0.2c-0.5-0.1-0.8-0.1-1.2,0c-0.4,0.2-0.6,0.5-0.7,0.8c-0.3,0.7-0.1,1.4,0.2,1.9
							C145.1,213,145.6,213.5,145.6,213.5z"/>
					</g>
				</g>
			</g>
			<g>
				<g>
					<g>
						<path class="st18" d="M159.2,234.6c0,0-0.1,0.2-0.4,0.4c-0.3,0.2-0.6,0.6-1.3,0.8c-0.6,0.3-1.5,0.4-2.3,0
							c-0.4-0.2-0.8-0.6-0.9-1.1c-0.2-0.6,0-1,0.2-1.5s0.4-0.8,0.5-1.3c0.1-0.4,0-0.8-0.1-1.1c-0.3-0.7-0.8-1.2-1.4-1.4
							c-1.1-0.4-1.9,0.2-1.9,0.1c0,0,0.1-0.2,0.5-0.3c0.4-0.2,0.8-0.3,1.6-0.1c0.6,0.2,1.4,0.6,1.7,1.6c0.2,0.4,0.2,0.9,0.2,1.4
							c-0.1,0.5-0.3,0.9-0.5,1.4s-0.3,0.8-0.2,1.2c0.1,0.4,0.4,0.6,0.6,0.8c0.6,0.4,1.4,0.3,1.9,0.1
							C158.5,235,159.2,234.5,159.2,234.6z"/>
					</g>
				</g>
			</g>
			<g>
				<g>
					<g>
						<path class="st18" d="M175.2,201.4c0,0-0.1,0.2-0.4,0.4c-0.3,0.2-0.6,0.6-1.3,0.8c-0.6,0.3-1.5,0.4-2.3,0
							c-0.4-0.2-0.8-0.6-0.9-1.1c-0.2-0.6,0-1,0.2-1.5s0.4-0.8,0.5-1.3c0.1-0.4,0-0.8-0.1-1.1c-0.3-0.7-0.8-1.2-1.4-1.4
							c-1.1-0.4-1.9,0.2-1.9,0.1c0,0,0.1-0.2,0.5-0.3c0.4-0.2,0.8-0.3,1.6-0.1c0.6,0.2,1.4,0.6,1.7,1.6c0.2,0.4,0.2,0.9,0.2,1.4
							c-0.1,0.5-0.3,0.9-0.5,1.4s-0.3,0.8-0.2,1.2c0.1,0.4,0.4,0.6,0.6,0.8c0.6,0.4,1.4,0.3,1.9,0.1
							C174.6,201.8,175.1,201.4,175.2,201.4z"/>
					</g>
				</g>
			</g>
			<g>
				<g>
					<g>
						<path class="st18" d="M186.2,196.3c0,0,0.2,0.1,0.5,0.3c0.3,0.2,0.7,0.5,1.2,0.9c0.5,0.5,0.9,1.2,0.7,2.1
							c-0.1,0.5-0.3,0.9-0.7,1.2s-1,0.4-1.5,0.4s-0.9,0-1.4,0c-0.4,0.1-0.7,0.3-1,0.5c-0.6,0.5-0.8,1.2-0.8,1.8
							c0.1,1.2,0.8,1.7,0.7,1.8c0,0-0.2-0.1-0.5-0.4c-0.3-0.3-0.6-0.7-0.6-1.4c-0.1-0.6,0.2-1.5,0.8-2.1c0.4-0.3,0.7-0.6,1.3-0.6
							c0.5-0.1,0.9,0,1.4,0c0.5,0,0.9-0.1,1.2-0.3s0.5-0.6,0.6-0.9c0.1-0.7-0.2-1.4-0.6-1.9C186.8,196.8,186.1,196.4,186.2,196.3z"
							/>
					</g>
				</g>
			</g>
			<g>
				<g>
					<g>
						<path class="st18" d="M141.9,251.7c0,0-0.1,0.2-0.4,0.4c-0.3,0.2-0.6,0.6-1.3,0.8c-0.6,0.3-1.5,0.4-2.3,0
							c-0.4-0.2-0.8-0.6-0.9-1.1c-0.2-0.6,0-1,0.2-1.5c0.2-0.5,0.4-0.8,0.5-1.3c0.1-0.4,0-0.8-0.1-1.1c-0.3-0.7-0.8-1.2-1.4-1.4
							c-1.1-0.4-1.9,0.2-1.9,0.1c0,0,0.1-0.2,0.5-0.3c0.4-0.2,0.8-0.3,1.6-0.1c0.6,0.2,1.4,0.6,1.7,1.6c0.2,0.4,0.2,0.9,0.2,1.4
							c-0.1,0.5-0.3,0.9-0.5,1.4c-0.2,0.5-0.3,0.8-0.2,1.2c0.1,0.4,0.4,0.6,0.6,0.8c0.6,0.4,1.4,0.3,1.9,0.1
							C141.3,252.2,141.9,251.6,141.9,251.7z"/>
					</g>
				</g>
			</g>
			<g>
				<g>
					<g>
						<path class="st18" d="M165.7,219.8c0,0-0.2-0.1-0.4-0.4s-0.6-0.6-0.8-1.2c-0.3-0.6-0.5-1.5-0.1-2.3c0.2-0.4,0.6-0.8,1-0.9
							c0.5-0.2,1-0.1,1.5,0.1c0.5,0.2,0.9,0.3,1.3,0.4c0.4,0.1,0.8,0,1.1-0.2c0.7-0.3,1.1-0.8,1.3-1.4c0.3-1.2-0.3-1.9-0.2-1.9
							c0,0,0.2,0.1,0.4,0.5c0.2,0.4,0.3,0.8,0.2,1.5c-0.1,0.6-0.6,1.4-1.5,1.8c-0.4,0.2-0.9,0.3-1.4,0.2c-0.5-0.1-0.9-0.3-1.4-0.4
							c-0.5-0.2-0.8-0.2-1.2-0.1s-0.6,0.4-0.8,0.7c-0.4,0.6-0.3,1.4,0,1.9C165.2,219.2,165.8,219.7,165.7,219.8z"/>
					</g>
				</g>
			</g>
			<g>
				<g>
					<g>
						<path class="st18" d="M170,237c0,0-0.2-0.1-0.4-0.4c-0.2-0.3-0.6-0.6-0.8-1.2c-0.3-0.6-0.5-1.5-0.1-2.3c0.2-0.4,0.6-0.8,1-0.9
							c0.5-0.2,1-0.1,1.5,0.1c0.5,0.2,0.9,0.3,1.3,0.4c0.4,0.1,0.8,0,1.1-0.2c0.7-0.3,1.1-0.8,1.3-1.4c0.3-1.2-0.3-1.9-0.2-1.9
							c0,0,0.2,0.1,0.4,0.5c0.2,0.4,0.3,0.8,0.2,1.5c-0.1,0.6-0.6,1.4-1.5,1.8c-0.4,0.2-0.9,0.3-1.4,0.2c-0.5-0.1-0.9-0.3-1.4-0.4
							c-0.5-0.2-0.8-0.2-1.2-0.1c-0.4,0.1-0.6,0.4-0.8,0.7c-0.4,0.6-0.3,1.4,0,1.9C169.5,236.3,170,236.9,170,237z"/>
					</g>
				</g>
			</g>
			<g>
				<g>
					<g>
						<path class="st18" d="M135.6,229.6c0,0-0.1-0.2-0.1-0.6s0-0.8,0.2-1.5c0.2-0.6,0.6-1.4,1.5-1.8c0.4-0.2,0.9-0.3,1.5,0
							c0.5,0.2,0.8,0.6,1,1.1c0.3,0.5,0.5,0.8,0.7,1.1c0.3,0.3,0.6,0.6,0.9,0.6c0.7,0.3,1.5,0.1,1.9-0.2c1-0.6,1.1-1.6,1.1-1.5
							c0,0,0.1,0.2-0.1,0.6c-0.1,0.4-0.4,0.8-0.9,1.2c-0.6,0.4-1.4,0.6-2.2,0.3c-0.5-0.2-0.8-0.4-1.2-0.7c-0.3-0.4-0.6-0.8-0.7-1.2
							c-0.2-0.4-0.5-0.7-0.8-0.9s-0.7-0.2-1.1,0c-0.7,0.3-1.1,0.9-1.3,1.5C135.7,228.8,135.7,229.6,135.6,229.6z"/>
					</g>
				</g>
			</g>
			<g>
				<g>
					<g>
						<path class="st18" d="M166.6,250.8c0,0-0.1-0.2-0.1-0.6c0-0.4,0-0.8,0.2-1.5c0.2-0.6,0.6-1.4,1.5-1.8c0.4-0.2,0.9-0.3,1.5,0
							c0.5,0.2,0.8,0.6,1,1.1c0.3,0.5,0.5,0.8,0.7,1.1s0.6,0.6,0.9,0.6c0.7,0.3,1.5,0.1,1.9-0.2c1-0.6,1.1-1.6,1.1-1.5
							c0,0,0.1,0.2-0.1,0.6c-0.1,0.4-0.4,0.8-0.9,1.2c-0.6,0.4-1.4,0.6-2.2,0.3c-0.5-0.2-0.8-0.4-1.2-0.7c-0.3-0.4-0.6-0.8-0.7-1.2
							c-0.2-0.4-0.5-0.7-0.8-0.9c-0.4-0.2-0.7-0.2-1.1,0c-0.7,0.3-1.1,0.9-1.3,1.5C166.7,250.1,166.7,250.8,166.6,250.8z"/>
					</g>
				</g>
			</g>
			<g>
				<g>
					<g>
						<path class="st18" d="M165.7,186.7c0,0-0.1-0.2-0.1-0.6c0-0.4,0-0.8,0.2-1.5s0.6-1.4,1.5-1.8c0.4-0.2,0.9-0.3,1.5,0
							c0.5,0.2,0.8,0.6,1,1.1c0.3,0.5,0.5,0.8,0.7,1.1c0.3,0.3,0.6,0.6,0.9,0.6c0.7,0.3,1.5,0.1,1.9-0.2c1-0.6,1.1-1.6,1.1-1.5
							c0,0,0.1,0.2-0.1,0.6c-0.1,0.4-0.4,0.8-0.9,1.2c-0.6,0.4-1.4,0.6-2.2,0.3c-0.5-0.2-0.8-0.4-1.2-0.7c-0.3-0.4-0.6-0.8-0.7-1.2
							c-0.2-0.4-0.5-0.7-0.8-0.9c-0.4-0.2-0.7-0.2-1.1,0c-0.7,0.3-1.1,0.9-1.3,1.5C165.8,185.9,165.8,186.7,165.7,186.7z"/>
					</g>
				</g>
			</g>
			<g>
				<g>
					<g>
						<path class="st18" d="M155.6,259.3c0,0-0.2,0-0.6-0.2c-0.3-0.2-0.8-0.4-1.3-0.7s-1-1.1-1-2c0-0.5,0.2-0.9,0.6-1.3
							c0.4-0.4,0.9-0.5,1.4-0.6c0.5-0.1,0.9-0.1,1.3-0.2c0.4-0.1,0.7-0.4,1-0.6c0.6-0.6,0.6-1.3,0.6-1.9c-0.2-1.2-1-1.6-0.9-1.7
							c0,0,0.2,0,0.5,0.3c0.3,0.2,0.6,0.6,0.7,1.3c0.2,0.6,0,1.6-0.6,2.2c-0.3,0.4-0.7,0.6-1.2,0.7c-0.5,0.2-0.9,0.2-1.4,0.2
							c-0.5,0.1-0.8,0.2-1.1,0.4c-0.3,0.3-0.5,0.6-0.5,1c0,0.7,0.4,1.4,0.8,1.8C154.8,259,155.7,259.2,155.6,259.3z"/>
					</g>
				</g>
			</g>
			<g>
				<g>
					<g>
						<path class="st18" d="M118.8,196.3c0,0,0.2,0.1,0.4,0.4c0.2,0.3,0.5,0.7,0.7,1.3c0.2,0.6,0.4,1.5-0.2,2.3
							c-0.2,0.4-0.6,0.7-1.1,0.8c-0.6,0.1-1-0.1-1.5-0.3s-0.8-0.4-1.2-0.5c-0.4-0.1-0.8-0.1-1.1,0c-0.7,0.2-1.2,0.7-1.5,1.3
							c-0.4,1.1,0.1,1.9,0,1.9c0,0-0.2-0.1-0.3-0.5c-0.1-0.4-0.2-0.9,0-1.6c0.2-0.6,0.7-1.3,1.7-1.6c0.5-0.2,0.9-0.2,1.4-0.1
							c0.5,0.1,0.9,0.4,1.3,0.6c0.5,0.2,0.8,0.3,1.2,0.2c0.4-0.1,0.6-0.3,0.8-0.6c0.4-0.6,0.4-1.4,0.2-1.9
							C119.2,197.1,118.7,196.4,118.8,196.3z"/>
					</g>
				</g>
			</g>
			<g>
				<g>
					<g>
						<path class="st18" d="M154.3,190c0,0,0.2,0.1,0.4,0.4c0.2,0.3,0.5,0.7,0.7,1.3c0.2,0.6,0.4,1.5-0.2,2.3
							c-0.2,0.4-0.6,0.7-1.1,0.8c-0.6,0.1-1-0.1-1.5-0.3c-0.5-0.2-0.8-0.4-1.2-0.5c-0.4-0.1-0.8-0.1-1.1,0c-0.7,0.2-1.2,0.7-1.5,1.3
							c-0.4,1.1,0.1,1.9,0,1.9c0,0-0.2-0.1-0.3-0.5c-0.1-0.4-0.2-0.9,0-1.6c0.2-0.6,0.7-1.3,1.7-1.6c0.5-0.2,0.9-0.2,1.4-0.1
							c0.5,0.1,0.9,0.4,1.3,0.6c0.5,0.2,0.8,0.3,1.2,0.2c0.4-0.1,0.6-0.3,0.8-0.6c0.4-0.6,0.4-1.4,0.2-1.9
							C154.6,190.7,154.2,190,154.3,190z"/>
					</g>
				</g>
			</g>
			<g>
				<g>
					<g>
						<path class="st8" d="M132.4,227.3c0,0,0-0.2,0-0.6s0.1-0.9,0.1-1.6c0.2-1.5,0.4-3.4,0.6-5.8c0.6-5,1.2-11.8,2-19.3
							c0.2-1.9,0.3-3.7,0-5.5c-0.3-1.8-0.9-3.3-1.9-4.6c-2-2.6-4.8-3.9-7.1-4.4c-2.4-0.6-4.5-0.5-5.8-0.4c-0.6,0-1.2,0.1-1.6,0.1
							s-0.6,0.1-0.6,0c0,0,0.2-0.1,0.6-0.1c0.4-0.1,0.9-0.2,1.6-0.2c1.4-0.1,3.4-0.3,5.9,0.3c2.4,0.5,5.4,1.8,7.4,4.5
							c1,1.3,1.8,3,2,4.8c0.3,1.8,0.2,3.7,0,5.6c-0.8,7.5-1.6,14.4-2.2,19.3c-0.3,2.4-0.6,4.4-0.7,5.8c-0.1,0.6-0.2,1.2-0.2,1.6
							C132.5,227.1,132.5,227.3,132.4,227.3z"/>
					</g>
				</g>
			</g>
			<g>
				<g>
					<g>
						<path class="st8" d="M133.9,225.6c0,0.1-7.2,1-16.1,1.9s-16.1,1.6-16.1,1.5s7.2-1,16.1-1.9
							C126.5,226.1,133.9,225.5,133.9,225.6z"/>
					</g>
				</g>
			</g>
			<g>
				<g>
					<g>
						<path class="st8" d="M177.7,222c-0.1,0,0.3-1.6,0.6-4.1c0.1-1.3,0.1-2.8,0-4.5c-0.1-1.7-0.4-3.5-0.8-5.4s-1.1-3.6-1.9-5.2
							c-0.7-1.6-1.5-2.9-2.1-3.9c-1.4-2.1-2.5-3.3-2.4-3.3c0,0,0.3,0.3,0.8,0.7c0.3,0.3,0.6,0.6,0.8,1c0.3,0.4,0.7,0.8,1,1.4
							c0.7,1,1.6,2.4,2.3,3.9c0.7,1.6,1.4,3.3,1.9,5.3c0.5,1.9,0.7,3.8,0.8,5.5c0.1,1.7,0,3.2-0.1,4.5c-0.1,0.6-0.2,1.2-0.3,1.8
							c-0.1,0.5-0.2,0.9-0.3,1.3C177.8,221.7,177.7,222,177.7,222z"/>
					</g>
				</g>
			</g>
			<g>
				<g>
					<path class="st6" d="M261.5,222.3c-0.3-3,0.2-5.7,2.9-7.3c2.8-1.7,5.2-0.6,7.8,0.7c2.2,1.1,4.5,1.6,6.9,0.6
						c4.1-1.8,5.5-7.1,2.6-10.5c-0.6-0.6-1.7,0-1.4,0.8c0.8,2.2,1.4,5-0.6,7c-2.7,2.6-5.7,0.8-8.3-0.4c-2.2-1-4.5-1.3-6.8-0.4
						c-3.9,1.6-5.8,6-3.9,9.8C260.9,222.9,261.5,222.7,261.5,222.3L261.5,222.3z"/>
				</g>
			</g>
			<g>
				<g>
					<path class="st6" d="M273.7,139.4c0.8,2.1,2.1,4,3.4,5.8c0.7,1,1.8,2.9,3.2,3.2c1.4,0.3,2.4-0.7,3.4-1.5
						c2.4-1.7,4.7-3.3,7.1-5.1c0.4-0.3,0.6-0.7,0.3-1.2c-2.1-3.2-4.2-6.5-6.3-9.7c-0.3-0.4-0.8-0.6-1.2-0.3
						c-2.6,1.9-5.2,3.5-7.7,5.5c-0.7,0.6,0.2,1.9,1,1.3c2.6-1.7,5.1-3.5,7.6-5.3c-0.4-0.1-0.8-0.2-1.2-0.3c2.1,3.2,4.2,6.5,6.3,9.7
						c0.1-0.4,0.2-0.8,0.3-1.2c-1.4,1-2.9,2-4.3,3.1c-1,0.7-3.1,2.9-4.3,3.1c-2.5,0.5-5.6-5.8-7.1-7.4
						C274.1,138.8,273.7,139.1,273.7,139.4L273.7,139.4z"/>
				</g>
			</g>
			<g>
				<g>
					<path class="st5" d="M243.8,170.1c-3,3-3.9,7.7-1,11.1c2.7,3.2,8,3.9,11.3,1.2c3.2-2.5,4.1-7.1,2-10.7
						c-2.2-3.9-7.2-5.5-11.4-4.7c-0.7,0.2-0.6,1.4,0.2,1.4c3.1-0.1,6.4,0.3,8.7,2.5c2.7,2.5,2.9,6.6,0.6,9.4c-2.4,3-7,3.2-9.9,0.6
						c-2.9-2.7-2.7-7.5,0-10.3C244.6,170.3,244.2,169.7,243.8,170.1L243.8,170.1z"/>
				</g>
			</g>
			<g>
				<g>
					<path class="st6" d="M320.3,199.3c-0.9,5.9-1.9,12-2.7,17.9c-0.1,0.6,0.4,1,0.9,0.9c5.6-0.8,11.2-1.7,16.8-2.7
						c0.5-0.1,0.6-0.6,0.5-1.1c-3.2-5.8-7.2-12-12.7-15.8c-0.7-0.6-1.6,0.6-0.9,1.3c4.5,4.9,9.2,9.3,12.4,15.3
						c0.2-0.4,0.5-0.7,0.6-1.1c-5.7,0.7-11.3,1.7-17,2.6c0.4,0.3,0.6,0.5,1,0.7c0.7-6,1.5-12,2.1-18
						C321.3,198.9,320.4,198.8,320.3,199.3L320.3,199.3z"/>
				</g>
			</g>
			<g>
				<g>
					<path class="st5" d="M293.3,188c0.9-5.9,1.8-11.9,2.3-17.8c0.1-0.8-1.3-1-1.5-0.2c-0.8,5.9-1.4,12-1.8,17.9
						C292.3,188.5,293.2,188.6,293.3,188L293.3,188z"/>
				</g>
			</g>
			<g>
				<g>
					<path class="st6" d="M358.1,186.7c5.9,0.5,11.9,0.8,17.8,0.8c0.9,0,0.9-1.4,0-1.5c-5.9-0.4-11.9-0.5-17.8-0.4
						C357.4,185.7,357.4,186.6,358.1,186.7L358.1,186.7z"/>
				</g>
			</g>
			<g>
				<g>
					<path class="st5" d="M309.9,111.5c5.4,2.5,10.9,4.9,16.5,7c0.7,0.3,1.3-1,0.6-1.4c-5.5-2.4-11.1-4.5-16.7-6.6
						C309.7,110.4,309.4,111.2,309.9,111.5L309.9,111.5z"/>
				</g>
			</g>
			<g>
				<g>
					<path class="st6" d="M325.3,161.8c-0.2-0.4-0.5-0.6-0.8-0.8c-1.2-0.8-2.9,0.8-2,2c0.3,0.4,0.5,0.6,0.8,0.8
						C324.6,164.6,326.1,163.1,325.3,161.8L325.3,161.8z"/>
				</g>
			</g>
		</g>
	</g>
</g>
<g class="st0">
	<path class="st1" d="M196.8,53c-6.1,1.9-11.1,6.9-13.4,12.9s-1.6,13,1.7,18.6c6.2,10.7,22.1,14.1,32.1,7c10-7.1,12-23.3,3.9-32.6
		s-24.3-9.7-32.8-0.8"/>
</g>
</svg>
