<?xml version="1.0" encoding="utf-8"?>
<!-- Generator: Adobe Illustrator 23.0.1, SVG Export Plug-In . SVG Version: 6.00 Build 0)  -->
<svg version="1.1" id="Layer_1" xmlns="http://www.w3.org/2000/svg" xmlns:xlink="http://www.w3.org/1999/xlink" x="0px" y="0px"
	 viewBox="0 0 500 373" style="enable-background:new 0 0 500 373;" xml:space="preserve">
<style type="text/css">
	.st0{opacity:0.3;fill:#A7ABF9;}
	.st1{fill:#6D03E8;}
	.st2{fill:#7CAAFF;}
	.st3{fill:#7F00FF;}
	.st4{fill:#FFAEA6;}
	.st5{fill:#241352;}
	.st6{fill:#E5E1EA;}
	.st7{opacity:0.18;}
	.st8{opacity:0.13;}
	.st9{fill:#6F35A4;}
	.st10{fill:#8C8CF9;}
	.st11{fill:#FBF1FC;}
</style>
<g>
	<g>
		<circle class="st0" cx="309.8" cy="108.1" r="89.2"/>
		<g>
			<path class="st1" d="M318.3,22.1c2.7-0.8,5.6-1.1,8.4-0.6c2.8,0.6,5.4,2.3,6.8,4.7c1.6,2.8,1.5,6.3,1.2,9.5
				c-0.5,8.1-1,16.2-1.5,24.3c-0.1,2.3-0.2,4.6,0.6,6.6c0.9,2,3,3.8,5.3,3.4c1.1-0.2,2-1,3.2-1.4c1-0.5,2.5-0.5,3.2,0.5
				c0.5,0.6,0.5,1.4,0.3,2c-0.3,3-2.1,5.7-4.8,7.2c1.6-0.8,3.5,0.8,3.5,2.6c0,1.7-1.4,3.3-2.9,3.8c-1.6,0.7-3.4,0.6-5.1,0.6
				c1.5,0,2.5,1.6,2.4,2.9c-0.1,1.5-1.2,2.6-2.6,3.2c-1.4,0.6-2.8,0.6-4.2,0.5c-3-0.2-6-1.2-8.3-3.2c-4.2-3.3-5.9-8.9-5.9-14.1
				c-0.1-5.3,1.2-10.5,2-15.7c1.7-12.2,0.3-24.4-1.1-36.6c0.3-0.1,0.7-0.2,1-0.3"/>
		</g>
		<g>
			<path class="st2" d="M334.6,203.2c-3.3,3.2-4.5,8.1-1.4,11.8c2.9,3.6,8.7,4.3,12.4,1.5c8.9-6.9-0.3-19.6-10-16.9
				c-1.8,0.5-1.4,3,0.5,3.2c2.8,0.1,5.9,0.2,8.1,2.3c2.4,2.1,2.5,5.7,0.5,8.1c-5.3,6.4-14.3-3-8.8-8.8
				C336.4,203.5,335.3,202.5,334.6,203.2L334.6,203.2z"/>
		</g>
		<g>
			<path class="st3" d="M232.8,168.2c-1.2-1.4-2.6-2.4-3.3-4.1c-1.2-3.5,1.1-5.3,3.9-6.5c2.8-1.4,5.2-2.9,6-6.1
				c1.4-5.1-2.9-11.3-8.4-9.7c-1.8,0.5-1.2,2.7,0,3.5c1.7,1,3.9,1.6,4.3,3.8c0.3,3.2-2.7,4.1-4.8,5.2c-2.4,1.2-4.1,3-4.8,5.6
				c-1.2,4.4,1.4,10.4,6.5,10.1C232.8,169.7,233.3,168.7,232.8,168.2L232.8,168.2z"/>
		</g>
		<g>
			<path class="st2" d="M215.9,222c0.5,2.9,3.5,9.1,6.6,9.9c1.7,0.5,2.9-0.7,4.3-1.6c2.4-1.7,4.7-3.4,7.1-5.1
				c0.9-0.6,1.4-1.8,0.7-2.8c-2.1-3.3-4.2-6.4-6.3-9.7c-0.6-0.9-1.8-1.4-2.8-0.7c-2.6,1.8-5.4,3.6-7.8,5.7c-1.6,1.5,0.5,3.9,2.3,2.9
				c2.7-1.5,5.1-3.4,7.5-5.2c-0.9-0.2-1.8-0.5-2.8-0.7c2.1,3.3,4.2,6.4,6.3,9.7c0.2-0.9,0.5-1.8,0.7-2.8c-1.5,1-2.8,2-4.3,3
				c-0.8,0.6-3.5,3-4.4,3c-0.8-0.1-2.5-2.9-2.9-3.5c-1-1.2-1.9-2.4-3.3-3.2C216.4,220.6,215.9,221.3,215.9,222L215.9,222z"/>
		</g>
		<g>
			<path class="st2" d="M360.5,89.7c0.5,2.9,3.5,9.1,6.6,9.9c1.7,0.5,2.9-0.7,4.3-1.6c2.4-1.7,4.7-3.4,7.1-5.1
				c0.9-0.6,1.4-1.8,0.7-2.8c-2.1-3.3-4.2-6.4-6.3-9.7c-0.6-0.9-1.8-1.4-2.8-0.7c-2.6,1.8-5.4,3.6-7.8,5.7c-1.6,1.5,0.5,3.9,2.3,2.9
				c2.7-1.5,5.1-3.4,7.5-5.2c-0.9-0.2-1.8-0.5-2.8-0.7c2.1,3.3,4.2,6.4,6.3,9.7c0.2-0.9,0.5-1.8,0.7-2.8c-1.5,1-2.8,2-4.3,3
				c-0.8,0.6-3.5,3-4.4,3c-0.8-0.1-2.5-2.9-2.9-3.5c-1-1.2-1.9-2.4-3.3-3.2C360.9,88.3,360.3,89,360.5,89.7L360.5,89.7z"/>
		</g>
		<g>
			<path class="st3" d="M372.8,142.1c-5.4,2.5-10.8,5.2-16.1,8c-1.2,0.7-1.5,2-0.5,3c3.9,4.1,7.8,8.1,11.9,11.8
				c0.8,0.7,2.1,0.3,2.6-0.6c2.6-5.7,6.5-13.5,5.5-19.9c-0.2-1.7-2.8-2.4-3.5-0.6c-1,2.8-1,6.1-1.7,9.1c-0.8,3.5-1.8,6.9-3.4,10.1
				c0.9-0.1,1.9-0.2,2.8-0.3c-3.8-4.4-8-8.3-12.2-12.4c0,0.9,0,1.9-0.1,2.8c5.2-2.9,10.5-6,15.5-9C375,143.4,374,141.6,372.8,142.1
				L372.8,142.1z"/>
		</g>
		<g>
			<path class="st3" d="M272.1,217.1c3.9-4.4,8-9.2,11-14.3c1-1.6-1.5-3.4-2.7-1.9c-3.8,4.5-7.2,9.8-10.1,15
				C269.6,216.9,271.2,218.1,272.1,217.1L272.1,217.1z"/>
		</g>
		<g>
			<path class="st2" d="M404.3,61c-0.1-0.1-0.2-0.2-0.3-0.2c-1.4-1.1-3.5-1.4-4.8,0c-1.4,1.5-1.2,3.4,0,4.8c0.1,0.1,0.2,0.2,0.2,0.3
				c1.2,1.4,3.6,1.4,4.8,0C405.4,64.5,405.6,62.2,404.3,61L404.3,61z"/>
		</g>
		<g>
			<path class="st3" d="M249.2,188.2c-0.1-0.1-0.2-0.2-0.3-0.2c-1.4-1.1-3.5-1.4-4.8,0c-1.4,1.5-1.2,3.4,0,4.8
				c0.1,0.1,0.2,0.2,0.2,0.3c1.2,1.4,3.6,1.4,4.8,0C250.3,191.7,250.7,189.4,249.2,188.2L249.2,188.2z"/>
		</g>
		<path class="st4" d="M294.4,80.3l-59.2,22.2l5.6-23.9l-15.4-3.9c0,0-16.6,46.7-5.1,48c20.2,2.1,50.6-5.7,50.6-5.7L294.4,80.3z"/>
		<path class="st5" d="M273.9,133.9l0.1,46.8c15.4,18.9,69-5.5,69-5.5l0.7-19.1l1.2-45.6c-1.2-18.1-18.1-27-18.1-27
			c-7-3.5-17.6-5.4-27.1-5c-10,0.5-12.5,5.3-16.6,14.4C279.7,100.1,273.9,107.1,273.9,133.9z"/>
		<path class="st4" d="M324.4,34.3l-0.7,9.3c0,0,8,1.1,5.7,8.3s-7.7,4.1-7.7,4.1s-1.4,18.6-20.4,12.7c-15.2-4.7-14.2-24.3-12.3-41.1
			c0.8-6.5,6.9-10.9,13.3-9.7l11.5,2.3C320.3,21.6,324.9,27.5,324.4,34.3z"/>
		<path class="st4" d="M323.6,51.4l-5.2,27.4c-1.1,6.2-7.2,10.1-13.3,8.7l0,0c-5.6-1.4-9.2-6.9-8.2-12.6l2.8-15.7L323.6,51.4z"/>
		<g>
			<g>
				<g>
					<path class="st5" d="M302.6,51.7c0,0,0,0.3-0.5,0.6c-0.6,0.2-1.5-0.3-1.7-1.2c-0.3-0.9-0.2-1.9-0.2-3c0.1-1.1,0.1-2.4,0.2-3.6
						c0.1-2.6,0.3-5,0.5-6.6c0.1-1.7,0.3-2.7,0.3-2.7c0.1,0,0.1,1,0,2.8c0,1.7-0.1,4.1-0.3,6.6c-0.1,1.2-0.2,2.5-0.2,3.6
						c-0.1,1.1-0.2,2.1,0,2.9c0.1,0.8,0.8,1.2,1.1,1.1C302.5,52,302.6,51.7,302.6,51.7z"/>
				</g>
			</g>
		</g>
		<g>
			<g>
				<g>
					<path class="st5" d="M296.4,66.8c0.1-0.1,0.9,0.6,2.5,1.4c1.6,0.8,3.8,1.5,6.5,1.6c2.6,0,5-0.6,6.5-1.2s2.5-1.2,2.6-1.2
						c0,0-0.8,0.8-2.4,1.6c-1.6,0.8-4.1,1.6-6.8,1.5c-2.7-0.1-5.2-0.9-6.6-1.8C297.2,67.7,296.4,66.9,296.4,66.8z"/>
				</g>
			</g>
		</g>
		<g>
			<g>
				<g>
					<path class="st5" d="M300.1,55.6c0.1-0.1,0.5,0.3,1.2,0.8c0.8,0.5,2,0.7,3.4,0.3c1.2-0.5,2.1-1.4,2.6-2.1
						c0.5-0.8,0.5-1.4,0.6-1.4c0.1,0,0.1,0.7-0.2,1.6c-0.3,0.9-1.2,2-2.7,2.6c-1.5,0.5-2.9,0-3.7-0.5
						C300.4,56.1,300.1,55.6,300.1,55.6z"/>
				</g>
			</g>
		</g>
		<g>
			<g>
				<g>
					<path class="st5" d="M324.3,52.9c0-0.1,0.5-0.1,1-0.5c0.3-0.1,0.6-0.5,0.7-0.8c0.1-0.3,0-0.8-0.3-0.9c-0.2-0.1-0.6,0-0.7,0.1
						l-0.5-0.2c0.7-1.5,1.2-2.6,1.5-2.5c0.1,0-0.2,1.2-0.9,2.7l-0.5-0.2c0.2-0.5,0.9-0.6,1.4-0.5c0.3,0.1,0.6,0.5,0.7,0.8
						c0.1,0.3,0.1,0.7,0,0.9c-0.2,0.6-0.7,0.9-1,1C324.8,53.1,324.3,53,324.3,52.9z"/>
				</g>
			</g>
		</g>
		<g>
			<g>
				<g>
					<path class="st5" d="M309.7,34.5c-0.1-0.1,0.9-0.6,2.1-0.2c1.2,0.3,1.8,1.1,1.7,1.2c-0.1,0.1-0.8-0.5-1.9-0.7
						C310.6,34.5,309.7,34.6,309.7,34.5z"/>
				</g>
			</g>
		</g>
		<g>
			<g>
				<g>
					<path class="st5" d="M293.1,31.8c-0.1-0.1,0.9-0.7,2.3-0.6c1.4,0.1,2.3,0.8,2.1,1c-0.1,0.1-1-0.3-2.1-0.3
						C294.1,31.7,293.2,32,293.1,31.8z"/>
				</g>
			</g>
		</g>
		<g>
			<path class="st1" d="M323.6,43.6c-5.3-5.2-6.9-13.8-8.3-21.1c-5,3.6-11.7,4.5-17.3,2.3c-1.8,2.1-3.8,3.9-6.2,5.4
				c-0.7,0.5-1.5,0.8-2.1,0.6c-0.9-0.2-1.2-1.2-1.5-2.3c-0.7-2.9-0.7-6,0.3-8.8c1-2.8,3.2-5.3,6-6.3c2.9-1.1,6.3-0.7,9.5,0.1
				c4.6,1.2,9.1,3,13.3,5.5c4.1,2.4,8,5.5,9.7,9.9s1.7,12.9-2.5,15.1"/>
		</g>
		<path class="st5" d="M292.3,80.1c5.2-2-34.5,12.6-34.5,12.6l4.1,27.1l15.1-5L292.3,80.1z"/>
		<path class="st4" d="M239.8,80.1c0,0,10.4-14.4,8.4-14.4c-1.8,0-2.8,2.7-6.4,4.6c0,0,5.7-18,3.9-17.7c-1.8,0.3-6,11.9-6.3,11.9
			c-0.2,0,3.6-12.9,2.1-13.2c-1.5-0.1-5.1,11.9-5.1,11.9s2.5-11.5,0.9-11.7c-1.6-0.2-3.8,10.4-3.8,10.4s1.8-8.9,0.5-9.1
			c-0.9-0.1-8.7,22-8.7,22C225.7,74.7,239.8,80.1,239.8,80.1"/>
		<g>
			<g>
				<g>
					<path class="st5" d="M319.7,131.6c0,0-0.1-0.2-0.1-0.6c-0.1-0.5-0.1-0.9-0.2-1.6c-0.2-1.5-0.5-3.4-0.7-5.9
						c-0.6-5-1.4-11.7-2.1-19.1c-0.2-1.9-0.3-3.7,0-5.5c0.2-1.8,1-3.5,2-4.8c2.1-2.7,5.1-3.9,7.4-4.4c2.5-0.6,4.5-0.3,5.9-0.2
						c0.7,0.1,1.2,0.1,1.6,0.2c0.3,0.1,0.6,0.1,0.6,0.1s-0.8-0.1-2.1-0.1c-1.4-0.1-3.4-0.1-5.7,0.5c-2.4,0.6-5.2,1.8-7.1,4.4
						c-1,1.2-1.7,2.8-1.9,4.5c-0.2,1.7-0.1,3.6,0,5.4c0.8,7.4,1.5,14.2,2,19.3c0.2,2.4,0.5,4.4,0.6,5.9c0,0.7,0.1,1.1,0.1,1.6
						C319.7,131.4,319.7,131.6,319.7,131.6z"/>
				</g>
			</g>
		</g>
		<g>
			<g>
				<g>
					<path class="st5" d="M318.2,129.9c0-0.1,7.2,0.5,16.1,1.4c8.9,0.9,16,1.8,16,2c0,0.1-7.2-0.5-16.1-1.4
						C325.4,130.9,318.2,130.1,318.2,129.9z"/>
				</g>
			</g>
		</g>
		<polygon class="st1" points="271.4,11 271.4,41.9 250.7,41.9 250,53.6 237.8,41.3 192.2,41.3 196.3,8.6 		"/>
		<g>
			<g>
				<path class="st6" d="M264.3,19.9c-20.4-0.3-40.9-0.6-61.2-0.1c-0.2,0-0.2,0.3,0,0.3c20.4,0.5,40.9,0.2,61.2-0.1
					C264.5,20.1,264.5,19.9,264.3,19.9L264.3,19.9z"/>
			</g>
		</g>
		<g>
			<g>
				<path class="st6" d="M264.3,25.8c-20.4-0.3-40.9-0.6-61.2-0.1c-0.2,0-0.2,0.3,0,0.3c20.4,0.5,40.9,0.2,61.2-0.1
					C264.5,26.1,264.5,25.8,264.3,25.8L264.3,25.8z"/>
			</g>
		</g>
		<g>
			<g>
				<path class="st6" d="M264.3,32.1c-12.5-0.2-25.1-0.3-37.6-0.1c-0.2,0-0.2,0.3,0,0.3c12.5,0.3,25.1,0.2,37.6-0.1
					C264.5,32.4,264.5,32.1,264.3,32.1L264.3,32.1z"/>
			</g>
		</g>
		<g>
			<g>
				<g>
					<path class="st5" d="M294.8,40.2c-0.1,0.1-0.5-0.3-0.9-0.7c-0.5-0.5-0.8-0.7-0.8-0.9c0-0.1,0.7,0,1.1,0.5
						C294.8,39.6,295,40.1,294.8,40.2z"/>
				</g>
			</g>
		</g>
		<g>
			<g>
				<g>
					<path class="st5" d="M310.8,42c-0.1,0.1-0.6-0.5-1-1.1c-0.5-0.7-0.9-1.2-0.8-1.4c0.1-0.1,0.8,0.2,1.2,0.9
						C310.7,41.3,310.9,42,310.8,42z"/>
				</g>
			</g>
		</g>
		<g class="st7">
			<g>
				<g>
					<path class="st5" d="M307.1,55.7c0.2,0.8-0.3,1.7-1.4,1.9c-1,0.3-1.9-0.1-2.3-0.9c-0.2-0.8,0.3-1.7,1.4-1.9
						C305.8,54.5,306.9,54.9,307.1,55.7z"/>
				</g>
			</g>
		</g>
		<g class="st8">
			<g>
				<g>
					<path class="st5" d="M316.7,45.8c0,0.8-1.9,1.5-4.4,1.5c-2.4,0-4.4-0.7-4.4-1.5c0-0.8,1.9-1.5,4.4-1.5S316.7,45,316.7,45.8z"/>
				</g>
			</g>
		</g>
		<g class="st8">
			<g>
				<g>
					<path class="st5" d="M298.8,47c0,0.8-1.9,1.5-4.4,1.5c-2.4,0-4.4-0.7-4.4-1.5c0-0.8,1.9-1.5,4.4-1.5
						C296.8,45.5,298.8,46.2,298.8,47z"/>
				</g>
			</g>
		</g>
		<g>
			<g>
				<g>
					<path class="st9" d="M324.8,31c-0.1,0,0.5-0.6,0.1-1.5c-0.1-0.5-0.3-1-0.8-1.6c-0.3-0.7-0.7-1.2-1-1.9
						c-1.5-2.8-2.5-5.1-2.4-5.2c0.1-0.1,1.5,2.1,2.9,4.8c0.3,0.7,0.7,1.4,1,1.9c0.3,0.6,0.6,1.2,0.7,1.7c0.1,0.6,0,1-0.1,1.2
						C325,31,324.8,31,324.8,31z"/>
				</g>
			</g>
		</g>
		<polygon class="st10" points="278.5,120.5 275,167.2 323.6,173.8 320.4,119.8 		"/>
		<polyline class="st10" points="282.4,88.9 282.4,125.9 288.1,123.8 288.1,81.6 282.4,83.4 		"/>
		<path class="st10" d="M327.5,83.7c0,0-22,2.8-15.4,38.7l5.5,0.6c0,0-6.2-33.7,14.4-36.1L327.5,83.7z"/>
		<g>
			<path class="st4" d="M321,125.4c0,0,7.5,44.1-3,43.1c-34.8-3.6-55.5-4.1-55.5-4.1l-5.7,11.9c-0.1,2,65.9,20.9,76.4,14.6
				c7.4-4.4,19.4-16.3,14-51.8l-1.2-11.9L321,125.4z"/>
		</g>
		<path class="st5" d="M340.3,96.1c0,0,8.1,7.8,9.9,37.3l-31.4-3.5C318.8,129.9,313.6,79.7,340.3,96.1z"/>
		<path class="st4" d="M266.1,164.4c0,0-17-5.3-16.4-3.6c0.6,1.8,3.5,1.8,6.4,4.6c0,0-19,0.2-18.1,1.8s13.3,1.9,13.4,2.3
			c0.1,0.2-13.5,0.6-13.3,2c0.3,1.5,12.9,1.1,12.9,1.1s-11.7,1.2-11.5,2.8c0.2,1.6,11,0.5,11,0.5s-9,1-8.8,2.5
			c0.1,0.9,26.5,1,26.6,1.7C268.4,180.4,266.1,164.4,266.1,164.4"/>
		<g>
			<g>
				<g>
					<path class="st5" d="M287.8,120.7c0.1,0,0.3,0.8,0.5,2.1c0,0.7,0,1.6-0.5,2.4c-0.5,0.8-1.4,1.7-2.5,1.7s-2-0.8-2.6-1.5
						c-0.6-0.8-0.7-1.6-0.8-2.3c-0.1-1.4,0-2.1,0-2.1c0.1,0,0.1,0.8,0.3,2.1c0.1,0.7,0.3,1.4,0.8,2c0.5,0.7,1.2,1.2,2.1,1.2
						c0.9,0,1.6-0.7,2-1.4c0.5-0.7,0.6-1.5,0.6-2.1C287.8,121.7,287.7,120.7,287.8,120.7z"/>
				</g>
			</g>
		</g>
		<g>
			<g>
				<g>
					<path class="st5" d="M284.3,121.5c0,0.1-0.1,0.2-0.1,0.7c0,0.3,0.5,0.8,0.9,0.5s0.2-0.8-0.1-1c-0.3-0.2-0.6-0.1-0.7-0.2
						c-0.1,0,0.2-0.3,0.8-0.2c0.2,0.1,0.6,0.3,0.7,0.7c0.1,0.5-0.1,0.9-0.5,1.1c-0.3,0.2-0.9,0.2-1.2,0c-0.3-0.2-0.5-0.7-0.3-0.9
						C283.9,121.7,284.3,121.4,284.3,121.5z"/>
				</g>
			</g>
		</g>
		<g>
			<g>
				<g>
					<path class="st5" d="M317,120.1c0,0,0.3,0.5,0.2,1.4c-0.1,0.5-0.3,0.9-0.7,1.4c-0.5,0.5-1,0.8-1.8,0.8c-0.7,0-1.4-0.3-1.8-0.7
						c-0.5-0.5-0.7-0.9-0.8-1.4c-0.2-0.9,0-1.5,0.1-1.4c0.1,0,0,0.6,0.3,1.2c0.2,0.7,1.1,1.6,2.3,1.6c1.1-0.1,1.9-1,2.1-1.7
						C317,120.5,316.9,120.1,317,120.1z"/>
				</g>
			</g>
		</g>
		<g>
			<g>
				<g>
					<path class="st5" d="M313.4,118.7c0,0,0.2-0.3,0.9-0.3c0.3,0,0.7,0.1,1,0.5c0.3,0.3,0.3,1,0,1.4c-0.2,0.5-0.9,0.7-1.4,0.5
						c-0.5-0.2-0.6-0.7-0.6-1s0.2-0.6,0.5-0.7c0.2-0.1,0.2,0,0.2,0c0,0.1-0.3,0.2-0.2,0.7c0,0.2,0.1,0.5,0.3,0.6
						c0.2,0.1,0.5,0,0.7-0.3c0.3-0.6-0.1-1-0.6-1.1C313.7,118.7,313.5,118.8,313.4,118.7z"/>
				</g>
			</g>
		</g>
		<g>
			<g>
				<g>
					<path class="st5" d="M312.5,139.9c-0.1,0-0.2-0.6-0.3-1.1c0-0.6,0-1.1,0.2-1.1c0.1,0,0.3,0.5,0.3,1.1
						C312.8,139.4,312.6,139.9,312.5,139.9z"/>
				</g>
				<g>
					<path class="st5" d="M311.6,144.3c-0.1-0.1-0.1-0.6,0-1.1c0.2-0.6,0.5-1,0.6-1c0.1,0,0.1,0.6,0,1.1
						C311.9,143.9,311.7,144.4,311.6,144.3z"/>
				</g>
				<g>
					<path class="st5" d="M309.3,148.2c-0.1-0.1,0-0.6,0.5-1.1c0.3-0.5,0.8-0.8,0.9-0.8c0.1,0.1,0,0.6-0.5,1.1
						C309.8,148,309.4,148.3,309.3,148.2z"/>
				</g>
				<g>
					<path class="st5" d="M306,151.1c-0.1-0.1,0.2-0.5,0.8-0.9c0.5-0.3,0.9-0.6,1-0.5c0.1,0.1-0.2,0.6-0.7,0.9
						C306.5,151.1,306.1,151.3,306,151.1z"/>
				</g>
				<g>
					<path class="st5" d="M301.8,152.8c0-0.1,0.5-0.5,1-0.6c0.6-0.2,1.1-0.2,1.1,0c0.1,0.1-0.3,0.5-1,0.6
						C302.4,153,301.8,153,301.8,152.8z"/>
				</g>
				<g>
					<path class="st5" d="M297.3,153.1c0-0.1,0.6-0.2,1.1-0.2s1.1,0.1,1.1,0.3c0,0.1-0.5,0.2-1.1,0.2S297.3,153.2,297.3,153.1z"/>
				</g>
				<g>
					<path class="st5" d="M293,151.9c0.1-0.1,0.6-0.1,1.1,0.1s1,0.5,1,0.7c0,0.1-0.6,0.1-1.1-0.1C293.3,152.4,292.9,152,293,151.9z"
						/>
				</g>
				<g>
					<path class="st5" d="M289.3,149.3c0.1-0.1,0.6,0.1,1,0.5c0.5,0.3,0.8,0.8,0.7,0.9c-0.1,0.1-0.6-0.1-1-0.5
						C289.4,149.9,289.2,149.5,289.3,149.3z"/>
				</g>
				<g>
					<path class="st5" d="M286.6,145.7c0.1-0.1,0.6,0.3,0.8,0.8c0.3,0.6,0.5,1,0.3,1.1c-0.1,0.1-0.5-0.2-0.8-0.8
						C286.6,146.3,286.5,145.9,286.6,145.7z"/>
				</g>
				<g>
					<path class="st5" d="M285.1,141.5c0.1,0,0.5,0.5,0.6,1s0.1,1.1,0,1.1s-0.5-0.5-0.6-1C285,142,285,141.6,285.1,141.5z"/>
				</g>
				<g>
					<path class="st5" d="M285.2,137.1c0.1,0,0.2,0.6,0.2,1.1s-0.2,1.1-0.3,1.1c-0.1,0-0.2-0.6-0.2-1.1
						C284.9,137.5,285,137,285.2,137.1z"/>
				</g>
				<g>
					<path class="st5" d="M289.4,136.8c0,0.1-0.6,0.2-1.1,0.2c-0.7,0-1.1-0.2-1.1-0.3s0.6-0.2,1.1-0.2
						C289,136.5,289.4,136.7,289.4,136.8z"/>
				</g>
				<g>
					<path class="st5" d="M293.9,137c0,0.1-0.6,0.2-1.1,0.2c-0.7,0-1.1-0.2-1.1-0.3s0.6-0.2,1.1-0.2
						C293.5,136.7,293.9,136.8,293.9,137z"/>
				</g>
				<g>
					<path class="st5" d="M298.4,137.2c0,0.1-0.6,0.2-1.1,0.2c-0.7,0-1.1-0.2-1.1-0.3c0-0.1,0.6-0.2,1.1-0.2
						C298,136.8,298.4,137,298.4,137.2z"/>
				</g>
				<g>
					<path class="st5" d="M302.9,137.3c0,0.1-0.6,0.2-1.1,0.2c-0.7,0-1.1-0.2-1.1-0.3c0-0.1,0.6-0.2,1.1-0.2
						C302.5,137.1,302.9,137.2,302.9,137.3z"/>
				</g>
				<g>
					<path class="st5" d="M307.4,137.5c0,0.1-0.6,0.2-1.1,0.2c-0.7,0-1.1-0.2-1.1-0.3s0.6-0.2,1.1-0.2
						C307,137.2,307.4,137.3,307.4,137.5z"/>
				</g>
				<g>
					<path class="st5" d="M311.9,137.6c0,0.1-0.6,0.2-1.1,0.2c-0.7,0-1.1-0.2-1.1-0.3s0.6-0.2,1.1-0.2
						C311.5,137.3,311.9,137.5,311.9,137.6z"/>
				</g>
			</g>
		</g>
	</g>
	<g>
		<path class="st2" d="M312.3,231.2c1.2-5.7,2.4-11.9,2.6-17.9c0.1-1.8-2.9-2.3-3.3-0.5c-1.1,5.9-1.5,12-1.6,18
			C310.1,232.2,312,232.4,312.3,231.2L312.3,231.2z"/>
	</g>
	<g>
		<path class="st3" d="M342.8,251c-0.1-0.1-0.2-0.2-0.3-0.2c-1.4-1.1-3.5-1.4-4.8,0c-1.4,1.5-1.2,3.4,0,4.8c0.1,0.1,0.2,0.2,0.2,0.3
			c1.2,1.4,3.6,1.4,4.8,0C343.9,254.6,344.1,252.4,342.8,251L342.8,251z"/>
	</g>
	<g>
		
			<ellipse transform="matrix(0.7071 -0.7071 0.7071 0.7071 -140.3447 211.4811)" class="st0" cx="185.1" cy="275.2" rx="89.2" ry="89.2"/>
		<path class="st4" d="M198.7,245.1l59.2,22.2l-5.6-23.9l15.4-3.9c0,0,16.6,46.7,5.1,48c-20.2,2.1-50.6-5.7-50.6-5.7L198.7,245.1z"
			/>
		<path class="st10" d="M219.3,298.6l-0.1,46.8c-15.4,18.9-69-5.5-69-5.5l-0.7-19.1l-1.2-45.6c1.2-18.1,18.1-27,18.1-27
			c7-3.5,17.6-5.4,27.1-5c10,0.5,12.5,5.3,16.6,14.4C213.4,264.9,219.3,271.8,219.3,298.6z"/>
		<g>
			<path class="st4" d="M172.1,290.2c0,0-7.5,44.1,3,43.1c34.8-3.6,55.5-4.1,55.5-4.1l5.7,11.9c0.1,2-65.9,20.9-76.4,14.6
				c-7.4-4.4-19.4-16.3-14-51.8l1.2-11.9L172.1,290.2z"/>
		</g>
		<path class="st10" d="M152.9,260.8c0,0-8.1,7.8-9.9,37.3l31.4-3.5C174.3,294.6,179.6,244.5,152.9,260.8z"/>
		<path class="st4" d="M168.6,199.1l0.7,9.3c0,0-8,1.1-5.7,8.3c2.3,7.2,7.7,4.1,7.7,4.1s1.4,18.6,20.4,12.7
			c15.2-4.7,14.2-24.3,12.3-41.1c-0.8-6.5-6.9-10.9-13.3-9.7l-11.5,2.3C172.8,186.3,168.1,192.4,168.6,199.1z"/>
		<path class="st4" d="M169.4,216.2l5.2,27.4c1.1,6.2,7.2,10.1,13.3,8.7l0,0c5.6-1.4,9.2-6.9,8.2-12.6l-2.8-15.7L169.4,216.2z"/>
		<g>
			<g>
				<g>
					<path class="st5" d="M190.4,216.5c0,0,0.1,0.2,0.6,0.3c0.5,0.1,1-0.3,1.1-1.1c0.2-0.8,0.1-1.8,0-2.9c-0.1-1.1-0.1-2.4-0.2-3.6
						c-0.1-2.6-0.2-5-0.3-6.6c-0.1-1.7,0-2.7,0-2.8c0.1,0,0.2,1,0.3,2.7c0.1,1.7,0.3,4.1,0.5,6.6c0.1,1.2,0.1,2.5,0.2,3.6
						c0.1,1.1,0.1,2.1-0.2,3c-0.2,0.9-1.1,1.5-1.7,1.2C190.4,216.9,190.4,216.5,190.4,216.5z"/>
				</g>
			</g>
		</g>
		<g>
			<g>
				<g>
					<path class="st5" d="M196.6,231.7c0,0-0.8,0.8-2.4,1.7c-1.6,0.9-3.9,1.7-6.6,1.8c-2.7,0.1-5.2-0.7-6.8-1.5
						c-1.6-0.8-2.5-1.6-2.4-1.6c0-0.1,0.9,0.6,2.6,1.2c1.6,0.7,3.9,1.4,6.5,1.2c2.6,0,5-0.8,6.5-1.6
						C195.7,232.2,196.5,231.5,196.6,231.7z"/>
				</g>
			</g>
		</g>
		<g>
			<g>
				<g>
					<path class="st5" d="M192.9,220.3c0,0-0.2,0.6-1,1.1c-0.8,0.6-2.3,0.9-3.7,0.5c-1.5-0.5-2.4-1.7-2.7-2.6
						c-0.3-0.9-0.2-1.6-0.2-1.6c0.1,0,0.1,0.6,0.6,1.4c0.5,0.8,1.2,1.8,2.6,2.1c1.2,0.5,2.6,0.1,3.4-0.3
						C192.5,220.7,192.8,220.3,192.9,220.3z"/>
				</g>
			</g>
		</g>
		<g>
			<g>
				<g>
					<path class="st5" d="M168.7,217.7c0,0.1-0.5,0.2-1.2,0c-0.3-0.1-0.8-0.5-1-1c-0.1-0.2-0.1-0.6,0-0.9c0.1-0.3,0.3-0.7,0.7-0.8
						c0.5-0.2,1.1-0.1,1.4,0.5l-0.5,0.2c-0.7-1.5-1-2.7-0.9-2.7c0.1,0,0.7,1,1.5,2.5l-0.5,0.2c-0.1-0.1-0.3-0.2-0.7-0.1
						c-0.3,0.1-0.5,0.6-0.3,0.9c0.1,0.3,0.3,0.7,0.7,0.8C168.3,217.6,168.8,217.6,168.7,217.7z"/>
				</g>
			</g>
		</g>
		<g>
			<g>
				<g>
					<path class="st5" d="M183.5,199.2c0,0.1-0.9,0-1.9,0.3c-1,0.2-1.7,0.8-1.9,0.7c-0.1-0.1,0.5-0.9,1.7-1.2
						C182.6,198.7,183.5,199.1,183.5,199.2z"/>
				</g>
			</g>
		</g>
		<g>
			<g>
				<g>
					<path class="st5" d="M199.9,196.6c-0.1,0.1-1-0.1-2.1,0c-1.1,0.1-2,0.6-2.1,0.3c-0.1-0.1,0.8-0.9,2.1-1
						C199,195.8,200,196.4,199.9,196.6z"/>
				</g>
			</g>
		</g>
		<g>
			<path class="st1" d="M169.4,208.5c5.3-5.2,6.9-13.8,8.3-21.1c5,3.6,11.7,4.5,17.3,2.3c1.8,2.1,3.8,3.9,6.2,5.4
				c0.7,0.5,1.5,0.8,2.1,0.6c0.9-0.2,1.2-1.2,1.5-2.3c0.7-2.9,0.7-6-0.3-8.8c-1-2.8-3.2-5.3-6-6.3c-2.9-1.1-6.3-0.7-9.5,0.1
				c-4.6,1.2-9.1,3-13.3,5.5c-4.1,2.4-8,5.5-9.7,9.9c-1.7,4.4-1.7,12.9,2.5,15.1"/>
		</g>
		<path class="st10" d="M200.8,244.9c-5.2-2,34.5,12.6,34.5,12.6l-4.1,27.1l-15.1-5L200.8,244.9z"/>
		<path class="st4" d="M226.9,329.2c0,0,17-5.3,16.4-3.6c-0.6,1.8-3.5,1.8-6.4,4.6c0,0,19,0.2,18.1,1.8c-0.9,1.6-13.3,1.9-13.4,2.3
			c-0.1,0.2,13.5,0.6,13.3,2c-0.3,1.5-12.9,1.1-12.9,1.1s11.7,1.2,11.5,2.8c-0.2,1.6-11,0.5-11,0.5s9,1,8.8,2.5
			c-0.1,0.9-26.5,1-26.6,1.7C224.7,345.1,226.9,329.2,226.9,329.2"/>
		<path class="st4" d="M253.3,244.9c0,0-10.4-14.4-8.4-14.4c1.8,0,2.8,2.7,6.4,4.6c0,0-5.7-18-3.9-17.7c1.8,0.3,6,11.9,6.3,11.9
			c0.2,0-3.6-12.9-2.1-13.2c1.5-0.1,5.1,11.9,5.1,11.9s-2.5-11.5-0.9-11.7c1.6-0.2,3.8,10.4,3.8,10.4s-1.8-8.9-0.5-9.1
			c0.9-0.1,8.7,22,8.7,22C267.3,239.4,253.3,244.9,253.3,244.9"/>
		<g>
			<g>
				<g>
					<path class="st11" d="M158,284.7c0,0,0.3,0.7,0.3,2c0,0.7-0.3,1.5-1,2c-0.3,0.2-0.9,0.5-1.5,0.3c-0.6-0.1-0.9-0.5-1.2-0.8
						c-0.3-0.3-0.6-0.7-0.9-1c-0.3-0.2-0.7-0.3-1-0.5c-0.8-0.1-1.4,0.2-1.8,0.6c-0.8,0.8-0.7,1.7-0.8,1.7c0,0-0.1-0.2-0.1-0.6
						c0-0.3,0.1-0.9,0.6-1.5c0.5-0.6,1.2-0.9,2.1-0.8c0.5,0,0.9,0.2,1.4,0.6c0.5,0.3,0.7,0.7,1,1c0.3,0.3,0.7,0.6,1,0.7
						c0.3,0.1,0.7,0,1-0.2c0.6-0.5,0.9-1,1-1.7C158,285.5,157.9,284.7,158,284.7z"/>
				</g>
			</g>
		</g>
		<g>
			<g>
				<g>
					<path class="st11" d="M167.2,276.6c0,0,0.5-0.7,1.6-1.4c0.6-0.3,1.5-0.6,2.3-0.1c0.5,0.2,0.9,0.6,1,1c0.2,0.6,0.1,1,0,1.6
						c-0.1,0.5-0.3,0.9-0.3,1.2c0,0.3,0,0.8,0.1,1.1c0.3,0.7,0.9,1.1,1.5,1.2c1.1,0.2,1.8-0.3,1.9-0.2c0,0-0.1,0.2-0.5,0.3
						c-0.3,0.2-0.9,0.3-1.6,0.2c-0.7-0.1-1.5-0.6-1.8-1.5c-0.2-0.5-0.3-0.9-0.2-1.4c0-0.5,0.2-0.9,0.3-1.4c0.1-0.5,0.2-0.9,0.1-1.2
						c-0.1-0.3-0.3-0.6-0.7-0.8c-0.7-0.3-1.4-0.2-1.9,0C167.9,276.1,167.4,276.7,167.2,276.6z"/>
				</g>
			</g>
		</g>
		<g>
			<g>
				<g>
					<path class="st11" d="M166.7,256.6c0,0,0.5-0.7,1.6-1.4c0.6-0.3,1.5-0.6,2.3-0.1c0.5,0.2,0.9,0.6,1,1c0.2,0.6,0.1,1,0,1.6
						c-0.1,0.5-0.3,0.9-0.3,1.2s0,0.8,0.1,1.1c0.3,0.7,0.9,1.1,1.5,1.2c1.1,0.2,1.8-0.3,1.9-0.2c0,0-0.1,0.2-0.5,0.3
						c-0.3,0.2-0.9,0.3-1.6,0.2c-0.7-0.1-1.5-0.6-1.8-1.5c-0.2-0.5-0.3-0.9-0.2-1.4c0-0.5,0.2-0.9,0.3-1.4c0.1-0.5,0.2-0.9,0.1-1.2
						c-0.1-0.3-0.3-0.6-0.7-0.8c-0.7-0.3-1.4-0.2-1.9,0C167.4,256.2,166.7,256.8,166.7,256.6z"/>
				</g>
			</g>
		</g>
		<g>
			<g>
				<g>
					<path class="st11" d="M186.5,282.7c0,0-0.7-0.3-1.5-1.5c-0.3-0.6-0.7-1.4-0.3-2.3c0.1-0.5,0.5-0.9,1-1.1c0.5-0.2,1-0.2,1.6-0.1
						c0.5,0.1,0.9,0.2,1.4,0.2c0.3,0,0.8-0.1,1.1-0.2c0.7-0.3,1-1,1.1-1.6c0.1-1.1-0.5-1.8-0.3-1.8c0,0,0.2,0.1,0.5,0.3
						c0.2,0.3,0.5,0.8,0.3,1.5c0,0.7-0.5,1.5-1.2,1.9c-0.3,0.2-0.9,0.3-1.4,0.3c-0.5,0-1-0.1-1.5-0.2c-0.5-0.1-0.9-0.1-1.2,0
						c-0.3,0.1-0.6,0.5-0.7,0.8c-0.2,0.7-0.1,1.4,0.2,1.9C185.9,282.1,186.6,282.5,186.5,282.7z"/>
				</g>
			</g>
		</g>
		<g>
			<g>
				<g>
					<path class="st11" d="M200,303.6c0,0-0.5,0.7-1.7,1.2c-0.6,0.2-1.5,0.5-2.4,0c-0.5-0.2-0.8-0.6-0.9-1.1s0-1.1,0.1-1.6
						c0.1-0.5,0.3-0.9,0.5-1.2c0.1-0.3,0-0.8-0.1-1.1c-0.2-0.7-0.8-1.1-1.4-1.4c-1.1-0.3-1.8,0.1-1.9,0c0,0,0.1-0.2,0.5-0.3
						c0.3-0.1,0.9-0.2,1.6-0.1c0.7,0.1,1.4,0.7,1.7,1.6c0.1,0.5,0.2,0.9,0.1,1.5c-0.1,0.5-0.3,0.9-0.5,1.4c-0.1,0.5-0.2,0.8-0.1,1.1
						c0.1,0.3,0.3,0.7,0.7,0.8c0.7,0.3,1.4,0.3,1.9,0.1C199.3,303.9,199.9,303.5,200,303.6z"/>
				</g>
			</g>
		</g>
		<g>
			<g>
				<g>
					<path class="st11" d="M215.9,270.6c0,0-0.5,0.7-1.7,1.2c-0.6,0.2-1.5,0.5-2.4,0c-0.5-0.2-0.8-0.6-0.9-1.1s0-1.1,0.1-1.6
						c0.1-0.5,0.3-0.9,0.5-1.2c0.1-0.3,0-0.8-0.1-1.1c-0.2-0.7-0.8-1.1-1.4-1.4c-1.1-0.3-1.8,0.1-1.9,0c0,0,0.1-0.2,0.5-0.3
						c0.3-0.1,0.9-0.2,1.6-0.1c0.7,0.1,1.4,0.7,1.7,1.6c0.1,0.5,0.2,0.9,0.1,1.5c-0.1,0.5-0.3,0.9-0.5,1.4c-0.1,0.5-0.2,0.8-0.1,1.1
						c0.1,0.3,0.3,0.7,0.7,0.8c0.7,0.3,1.4,0.3,1.9,0.1C215.2,270.9,215.9,270.5,215.9,270.6z"/>
				</g>
			</g>
		</g>
		<g>
			<g>
				<g>
					<path class="st11" d="M226.8,265.5c0,0,0.8,0.2,1.7,1.1c0.5,0.5,0.9,1.2,0.8,2.1c-0.1,0.5-0.3,1-0.8,1.2
						c-0.5,0.3-1,0.3-1.5,0.3c-0.5,0-0.9,0-1.4,0c-0.3,0.1-0.8,0.2-1,0.5c-0.6,0.5-0.8,1.1-0.8,1.7c0,1.1,0.8,1.7,0.7,1.8
						c0,0-0.2,0-0.5-0.3c-0.2-0.2-0.6-0.8-0.7-1.5s0.2-1.6,0.9-2.1c0.3-0.3,0.8-0.6,1.2-0.6c0.5-0.1,1,0,1.5,0c0.5,0,0.9,0,1.1-0.2
						c0.3-0.2,0.5-0.6,0.6-0.9c0.1-0.7-0.2-1.4-0.6-1.8C227.4,266.1,226.7,265.7,226.8,265.5z"/>
				</g>
			</g>
		</g>
		<g>
			<g>
				<g>
					<path class="st11" d="M182.9,320.6c0,0-0.5,0.7-1.7,1.2c-0.6,0.2-1.5,0.5-2.4,0c-0.5-0.2-0.8-0.6-0.9-1.1
						c-0.1-0.6,0-1.1,0.1-1.6c0.1-0.5,0.3-0.9,0.5-1.2c0.1-0.3,0-0.8-0.1-1.1c-0.2-0.7-0.8-1.1-1.4-1.4c-1.1-0.3-1.8,0.1-1.9,0
						c0,0,0.1-0.2,0.5-0.3c0.3-0.1,0.9-0.2,1.6-0.1c0.7,0.1,1.4,0.7,1.7,1.6c0.1,0.5,0.2,0.9,0.1,1.5c-0.1,0.5-0.3,0.9-0.5,1.4
						c-0.1,0.5-0.2,0.8-0.1,1.1c0.1,0.3,0.3,0.7,0.7,0.8c0.7,0.3,1.4,0.3,1.9,0.1C182.2,321,182.8,320.5,182.9,320.6z"/>
				</g>
			</g>
		</g>
		<g>
			<g>
				<g>
					<path class="st11" d="M206.4,288.8c0,0-0.7-0.5-1.2-1.6c-0.3-0.6-0.5-1.5-0.1-2.4c0.2-0.5,0.6-0.8,1.1-1c0.6-0.1,1,0,1.6,0.1
						c0.5,0.1,0.9,0.3,1.2,0.3c0.3,0.1,0.8,0,1.1-0.1c0.7-0.2,1.1-0.8,1.2-1.4c0.3-1.1-0.2-1.8-0.1-1.9c0,0,0.2,0.1,0.3,0.5
						s0.3,0.9,0.2,1.6c-0.1,0.7-0.7,1.5-1.5,1.8c-0.5,0.2-0.9,0.2-1.4,0.2c-0.5-0.1-0.9-0.2-1.4-0.3c-0.5-0.1-0.8-0.2-1.2-0.1
						c-0.3,0.1-0.6,0.3-0.8,0.7c-0.3,0.7-0.2,1.4,0,1.9C206,288.2,206.5,288.8,206.4,288.8z"/>
				</g>
			</g>
		</g>
		<g>
			<g>
				<g>
					<path class="st11" d="M210.6,306c0,0-0.7-0.5-1.2-1.6c-0.3-0.6-0.5-1.5-0.1-2.4c0.2-0.5,0.6-0.8,1.1-1c0.6-0.1,1,0,1.6,0.1
						c0.5,0.1,0.9,0.3,1.2,0.3c0.3,0.1,0.8,0,1.1-0.1c0.7-0.2,1.1-0.8,1.2-1.4c0.3-1.1-0.2-1.8-0.1-1.9c0,0,0.2,0.1,0.3,0.5
						s0.3,0.9,0.2,1.6c-0.1,0.7-0.7,1.5-1.5,1.8c-0.5,0.2-0.9,0.2-1.4,0.2c-0.5-0.1-0.9-0.2-1.4-0.3c-0.5-0.1-0.8-0.2-1.2-0.1
						c-0.3,0.1-0.6,0.3-0.8,0.7c-0.3,0.7-0.2,1.4,0,1.9C210.1,305.3,210.7,305.8,210.6,306z"/>
				</g>
			</g>
		</g>
		<g>
			<g>
				<g>
					<path class="st11" d="M176.6,298.6c0,0-0.2-0.8,0.1-2c0.1-0.6,0.6-1.5,1.5-1.8c0.5-0.2,1-0.2,1.5,0c0.5,0.2,0.8,0.7,1,1.1
						c0.2,0.5,0.5,0.8,0.7,1.1c0.2,0.3,0.6,0.6,0.9,0.7c0.7,0.2,1.4,0.1,1.9-0.1c1-0.7,1-1.6,1.1-1.5c0,0,0.1,0.2,0,0.6
						s-0.3,0.9-0.9,1.2c-0.6,0.5-1.5,0.7-2.3,0.3c-0.5-0.1-0.9-0.5-1.1-0.8c-0.3-0.3-0.6-0.8-0.8-1.2c-0.2-0.5-0.5-0.7-0.8-0.9
						c-0.3-0.1-0.7-0.1-1,0c-0.7,0.2-1.1,0.9-1.4,1.4C176.7,297.9,176.7,298.6,176.6,298.6z"/>
				</g>
			</g>
		</g>
		<g>
			<g>
				<g>
					<path class="st11" d="M207.3,319.7c0,0-0.2-0.8,0.1-2c0.1-0.6,0.6-1.5,1.5-1.8c0.5-0.2,1-0.2,1.5,0c0.5,0.2,0.8,0.7,1,1.1
						c0.2,0.5,0.5,0.8,0.7,1.1c0.2,0.3,0.6,0.6,0.9,0.7c0.7,0.2,1.4,0.1,1.9-0.1c1-0.7,1-1.6,1.1-1.5c0,0,0.1,0.2,0,0.6
						c-0.1,0.3-0.3,0.9-0.9,1.2c-0.6,0.5-1.5,0.7-2.3,0.3c-0.5-0.1-0.9-0.5-1.1-0.8c-0.3-0.3-0.6-0.8-0.8-1.2
						c-0.2-0.5-0.5-0.7-0.8-0.9c-0.3-0.1-0.7-0.1-1,0c-0.7,0.2-1.1,0.9-1.4,1.4C207.4,318.9,207.4,319.7,207.3,319.7z"/>
				</g>
			</g>
		</g>
		<g>
			<g>
				<g>
					<path class="st11" d="M206.4,256c0,0-0.2-0.8,0.1-2c0.1-0.6,0.6-1.5,1.5-1.8c0.5-0.2,1-0.2,1.5,0c0.5,0.2,0.8,0.7,1,1.1
						c0.2,0.5,0.5,0.8,0.7,1.1c0.2,0.3,0.6,0.6,0.9,0.7c0.7,0.2,1.4,0.1,1.9-0.1c1-0.7,1-1.6,1.1-1.5c0,0,0.1,0.2,0,0.6
						c-0.1,0.3-0.3,0.9-0.9,1.2c-0.6,0.5-1.5,0.7-2.3,0.3c-0.5-0.1-0.9-0.5-1.1-0.8c-0.3-0.3-0.6-0.8-0.8-1.2
						c-0.2-0.5-0.5-0.7-0.8-0.9c-0.3-0.1-0.7-0.1-1,0c-0.7,0.2-1.1,0.9-1.4,1.4C206.5,255.2,206.5,256,206.4,256z"/>
				</g>
			</g>
		</g>
		<g>
			<g>
				<g>
					<path class="st11" d="M196.4,328.1c0,0-0.8-0.1-1.8-0.9c-0.5-0.3-1-1.1-1-2c0-0.5,0.1-1,0.6-1.4c0.5-0.3,0.9-0.5,1.5-0.6
						c0.5-0.1,0.9-0.1,1.4-0.2c0.3-0.1,0.7-0.3,1-0.6c0.6-0.6,0.7-1.2,0.6-1.8c-0.2-1.1-1-1.6-0.9-1.7c0,0,0.2,0,0.5,0.2
						c0.2,0.2,0.7,0.7,0.8,1.4c0.2,0.7,0,1.6-0.6,2.3c-0.3,0.3-0.7,0.7-1.2,0.8c-0.5,0.1-1,0.1-1.5,0.2c-0.5,0-0.9,0.1-1.1,0.5
						c-0.2,0.2-0.5,0.6-0.5,0.9c0,0.8,0.3,1.4,0.8,1.7C195.7,327.7,196.4,328,196.4,328.1z"/>
				</g>
			</g>
		</g>
		<g>
			<g>
				<g>
					<path class="st11" d="M159.8,265.5c0,0,0.7,0.5,1.1,1.7c0.2,0.6,0.3,1.5-0.1,2.3c-0.2,0.5-0.7,0.8-1.1,0.9
						c-0.6,0.1-1,0-1.5-0.2c-0.5-0.2-0.9-0.5-1.2-0.5c-0.3-0.1-0.8-0.1-1.1,0c-0.7,0.2-1.2,0.7-1.5,1.2c-0.5,1.1,0,1.9,0,1.9
						s-0.2-0.1-0.3-0.5c-0.1-0.3-0.2-0.9,0-1.6c0.2-0.7,0.8-1.4,1.7-1.7c0.5-0.1,0.9-0.2,1.5-0.1c0.5,0.1,0.9,0.3,1.4,0.6
						c0.5,0.2,0.8,0.3,1.1,0.2c0.3-0.1,0.7-0.3,0.8-0.6c0.5-0.6,0.3-1.4,0.2-1.9C160.3,266.3,159.8,265.7,159.8,265.5z"/>
				</g>
			</g>
		</g>
		<g>
			<g>
				<g>
					<path class="st11" d="M195.1,259.2c0,0,0.7,0.5,1.1,1.7c0.2,0.6,0.3,1.5-0.1,2.3c-0.2,0.5-0.7,0.8-1.1,0.9
						c-0.6,0.1-1,0-1.5-0.2c-0.5-0.2-0.9-0.5-1.2-0.5c-0.3-0.1-0.8-0.1-1.1,0c-0.7,0.2-1.2,0.7-1.5,1.2c-0.5,1.1,0,1.9,0,1.9
						s-0.2-0.1-0.3-0.5c-0.1-0.3-0.2-0.9,0-1.6c0.2-0.7,0.8-1.4,1.7-1.7c0.5-0.1,0.9-0.2,1.5-0.1c0.5,0.1,0.9,0.3,1.4,0.6
						c0.5,0.2,0.8,0.3,1.1,0.2c0.3-0.1,0.7-0.3,0.8-0.6c0.5-0.6,0.3-1.4,0.2-1.9C195.5,260,195.1,259.3,195.1,259.2z"/>
				</g>
			</g>
		</g>
		<g>
			<g>
				<g>
					<path class="st1" d="M173.3,296.4c0,0,0-0.2,0-0.6c0-0.5,0.1-0.9,0.1-1.6c0.1-1.5,0.3-3.5,0.6-5.9c0.6-5,1.2-11.7,2-19.3
						c0.2-1.9,0.3-3.7,0-5.4c-0.2-1.7-0.9-3.3-1.9-4.5c-2-2.6-4.7-3.8-7.1-4.4c-2.4-0.6-4.4-0.5-5.7-0.5c-1.4,0.1-2.1,0.2-2.1,0.1
						c0,0,0.2-0.1,0.6-0.1c0.3-0.1,0.9-0.1,1.6-0.2c1.4-0.1,3.4-0.2,5.9,0.2c2.5,0.5,5.3,1.8,7.4,4.4c1,1.4,1.8,3,2,4.8
						c0.3,1.8,0.2,3.7,0,5.5c-0.8,7.5-1.6,14.3-2.1,19.1c-0.3,2.4-0.6,4.4-0.7,5.9c-0.1,0.7-0.1,1.1-0.2,1.6
						C173.4,296.2,173.4,296.4,173.3,296.4z"/>
				</g>
			</g>
		</g>
		<g>
			<g>
				<g>
					<path class="st1" d="M174.8,294.6c0,0.1-7.2,1-16,2c-8.9,0.9-16.1,1.6-16.1,1.4c0-0.1,7.1-1,16-2
						C167.6,295.2,174.8,294.5,174.8,294.6z"/>
				</g>
			</g>
		</g>
		<g>
			<path class="st2" d="M251.4,307.3c0.2-1.8,0.2-3.5,1.2-5.1c2-3.2,4.8-2.4,7.7-1c2.8,1.5,5.4,2.3,8.4,0.9c4.7-2,7-9.2,2.5-12.6
				c-1.5-1.1-2.9,0.7-2.7,2.1c0.2,1.9,1.2,4.1-0.5,5.7c-2.3,2.3-4.8,0.3-7-0.7c-2.4-1.1-5-1.4-7.4-0.3c-4.3,1.7-7.3,7.4-3.9,11.4
				C250.1,308.3,251.2,308.1,251.4,307.3L251.4,307.3z"/>
		</g>
		<g>
			<path class="st3" d="M283.8,239.2c-3.3,3.2-4.5,8.1-1.4,11.8c2.9,3.6,8.7,4.3,12.4,1.5c8.9-6.9-0.3-19.6-10-16.9
				c-1.8,0.5-1.4,3,0.5,3.2c2.8,0.1,5.9,0.2,8.1,2.3c2.4,2.1,2.5,5.7,0.5,8.1c-5.3,6.4-14.3-3-8.8-8.8
				C285.6,239.5,284.5,238.4,283.8,239.2L283.8,239.2z"/>
		</g>
		<g>
			<path class="st2" d="M145.3,232.9c-3.3,3.2-4.5,8.1-1.4,11.8c2.9,3.6,8.7,4.3,12.4,1.5c8.9-6.9-0.3-19.6-10-16.9
				c-1.8,0.5-1.4,3,0.5,3.2c2.8,0.1,5.9,0.2,8.1,2.3c2.4,2.1,2.5,5.7,0.5,8.1c-5.3,6.4-14.3-3-8.8-8.8
				C147.1,233.2,146.1,232.2,145.3,232.9L145.3,232.9z"/>
		</g>
		<g>
			<path class="st3" d="M97.6,312.3c2.3,8.4,4.7,16.8,7.3,25c0.7,2,2.5,2.6,4.3,1.5c6.8-4.6,13.5-9.1,19.9-14.2c1.2-1,1-2.9-0.2-3.8
				c-7.5-5.2-17.7-12.7-27.1-12.8c-2.4,0-4.2,3.4-1.7,4.8c3.8,2.3,8.4,3,12.5,4.7c4.7,1.9,9.5,4.3,13.6,7.2c0.1-1.4,0.2-2.8,0.2-4.2
				c-7.2,4.4-13.8,9.3-20.7,14.3c1.4,0.2,2.7,0.6,4.1,0.8c-2.9-8.2-5.9-16.3-9.1-24.4C100,309.5,97.1,310.5,97.6,312.3L97.6,312.3z"
				/>
		</g>
		<g>
			<path class="st2" d="M293.8,276.9c5.9,0.8,12,1.4,18,1.2c2.1-0.1,2.1-3.2,0-3.4c-5.7-0.6-11.9-0.5-17.7,0
				C292.9,274.8,292.4,276.7,293.8,276.9L293.8,276.9z"/>
		</g>
		<g>
			<path class="st2" d="M95.6,276.9c5.9,0.8,12,1.4,18,1.2c2.1-0.1,2.1-3.2,0-3.4c-5.7-0.6-11.9-0.5-17.7,0
				C94.7,274.8,94.3,276.7,95.6,276.9L95.6,276.9z"/>
		</g>
		<g>
			<path class="st2" d="M134.9,267.2c-0.1-0.1-0.2-0.2-0.3-0.2c-1.4-1.1-3.5-1.4-4.8,0c-1.4,1.5-1.2,3.4,0,4.8
				c0.1,0.1,0.2,0.2,0.2,0.3c1.2,1.4,3.6,1.4,4.8,0C136.2,270.7,136.4,268.5,134.9,267.2L134.9,267.2z"/>
		</g>
		<g>
			<g>
				<g>
					<path class="st1" d="M219.2,294.9c-0.1,0-0.1-1.4-0.2-3.4c-0.1-2.1-0.3-5-0.6-8.2c-0.2-3.2-0.3-6.1-0.3-8.2s0.1-3.4,0.2-3.4
						c0.1,0,0.1,1.4,0.2,3.4c0.1,2.1,0.3,5,0.6,8.2c0.2,3.2,0.3,6.1,0.3,8.2C219.4,293.7,219.3,294.9,219.2,294.9z"/>
				</g>
			</g>
		</g>
		<polygon class="st5" points="252.9,246.4 268.5,242.1 269.4,244.9 253.7,249.8 		"/>
		<path class="st6" d="M262.8,245.7c0,1-0.9,1.9-1.9,1.9c-1,0-1.9-0.9-1.9-1.9c0-1,0.9-1.9,1.9-1.9
			C261.9,243.8,262.8,244.7,262.8,245.7z"/>
		<g>
			<g>
				<g>
					<path class="st5" d="M199.9,203.2c-0.1,0.1-0.6-0.3-1-0.8c-0.5-0.6-0.8-1.1-0.7-1.2c0.1-0.1,0.6,0.3,1,0.8
						C199.8,202.5,200,203.1,199.9,203.2z"/>
				</g>
			</g>
		</g>
		<g>
			<g>
				<g>
					<path class="st5" d="M185.7,205.2c-0.1,0.1-0.6-0.3-1-0.8c-0.5-0.6-0.8-1.1-0.7-1.2s0.6,0.3,1,0.8
						C185.6,204.5,185.9,205.1,185.7,205.2z"/>
				</g>
			</g>
		</g>
	</g>
</g>
</svg>
