<?xml version="1.0" encoding="utf-8"?>
<!-- Generator: Adobe Illustrator 23.0.1, SVG Export Plug-In . SVG Version: 6.00 Build 0)  -->
<svg version="1.1" id="Layer_1" xmlns="http://www.w3.org/2000/svg" xmlns:xlink="http://www.w3.org/1999/xlink" x="0px" y="0px"
	 viewBox="0 0 1400 980" style="enable-background:new 0 0 1400 980;" xml:space="preserve">
<style type="text/css">
	.st0{fill:#2C0A99;}
	.st1{fill:#FAB08A;}
	.st2{fill:#3B08B7;}
	.st3{fill:#4A00E0;}
	.st4{fill:#FFD495;}
	.st5{fill:#EF8D65;}
	.st6{fill:#191919;}
	.st7{fill:#E8892C;}
	.st8{fill:#E5E5E5;}
	.st9{fill:#5B4F5F;}
	.st10{fill:#B8BEBC;}
	.st11{fill:#3B2D3D;}
	.st12{fill:#4C4152;}
	.st13{fill:#6D6DC6;}
	.st14{fill:#8C8CF9;}
	.st15{fill:#5C5661;}
	.st16{fill:#3C3142;}
	.st17{fill:#B28F66;}
	.st18{fill:#DDBF97;}
	.st19{fill:#0864BF;}
	.st20{fill:none;stroke:#4C4152;stroke-linecap:round;stroke-linejoin:round;stroke-miterlimit:10;}
	.st21{fill:#459DC5;}
	.st22{fill:#34769B;}
</style>
<path id="XMLID_1419_" class="st0" d="M327.4,813.3l25.1,4.8c0,0-0.6,5.1,1.6,7c2.2,1.9,28.7,1.9,38.8,10.5
	c10.2,8.6,4.4,11.7,4.4,11.7H323c0,0-2.1-11.4,0-17.8S327.4,813.3,327.4,813.3z"/>
<polyline id="XMLID_547_" class="st1" points="356.6,807.3 350.4,817.6 329.2,813.6 335.7,794.6 "/>
<path id="XMLID_1415_" class="st2" d="M406,508.7c0,0,25.4,130.7,24.7,145.9c-0.6,15.2-71.7,154.2-71.7,154.2l-26-15.9
	c0,0,52-123.1,52-137.7s-62-146.5-62-146.5H406L406,508.7z"/>
<polygon id="XMLID_1413_" class="st3" points="287,508.7 295.4,820.1 321.7,820.1 359.1,508.7 "/>
<path id="XMLID_1411_" class="st0" d="M297.9,820.1c0,0-4.1,11.9-4.8,18.9c-0.6,7-0.6,7-0.6,7s26.6,17.1,47.6,16.2
	c20.9-1,19-8.9,19-8.9s-31.8-19.7-36.1-23.8c-4.2-4.1-3.9-9.4-3.9-9.4H297.9z"/>
<path id="XMLID_1408_" class="st4" d="M381.7,146.7c16.7,0,43,2.2,43,39.7s0,119.3,0,119.3l-79.1-1.3c0,0-47.7,46.6-57.2,14.9
	s9.2-47.9,20.9-68.8s17.1-48.3,17.1-70.1S347.2,146.7,381.7,146.7z"/>
<polygon id="XMLID_546_" class="st2" points="377.7,270.8 412.2,283.8 464.7,363 430.5,382.1 407.1,357.4 407.1,479.9 377.7,479.9 
	377.7,294.2 "/>
<path id="XMLID_539_" class="st5" d="M359,289.8L359,289.8c8.3,2.1,16.8-3,18.9-11.3l11.2-44.6c2.1-8.3-3-16.8-11.3-18.9l0,0
	c-8.3-2.1-16.8,3-18.9,11.3L347.7,271C345.6,279.3,350.7,287.8,359,289.8z"/>
<path id="XMLID_1402_" class="st4" d="M339.7,244.1h68.2c7.3,0,13.3-6,13.3-13.3v-70.9c0-7.3-6-13.2-13.3-13.2h-68.2
	c-7.3,0-13.3,6-13.3,13.2v70.9C326.4,238.1,332.4,244.1,339.7,244.1z"/>
<path id="XMLID_536_" class="st5" d="M376,264.7h11.4c18.5,0,33.6-15.1,33.6-33.6v-47.2c0-18.5-15.1-33.6-33.6-33.6H376
	c-18.5,0-33.6,15.1-33.6,33.6v47.2C342.4,249.6,357.5,264.7,376,264.7z"/>
<path id="XMLID_534_" class="st1" d="M387.4,264.7L387.4,264.7c18.5,0,33.6-15.1,33.6-33.6v-47.2c0-18.5-15.1-33.6-33.6-33.6l0,0
	c-18.5,0-33.6,15.1-33.6,33.6v47.2C353.8,249.6,368.9,264.7,387.4,264.7z"/>
<path id="XMLID_533_" class="st5" d="M349.5,203c0,0-1.7-3.5-7.1-3.5c-5.4,0-8.4,2.5-8.4,16s8.4,14.2,8.4,14.2L349.5,203z"/>
<circle id="XMLID_530_" class="st6" cx="381.7" cy="214.3" r="4.5"/>
<circle id="XMLID_526_" class="st6" cx="412.2" cy="214.3" r="4.5"/>
<path id="XMLID_529_" class="st4" d="M387.3,201.8c-0.1-0.1-2.1-1.8-5.8-1.8c-3.6,0-5.2,1.6-5.3,1.7l-1.9-1.7
	c0.1-0.1,2.3-2.5,7.1-2.5c4.7,0,7.4,2.3,7.5,2.4L387.3,201.8z"/>
<path id="XMLID_527_" class="st4" d="M417.8,201.8c-0.1-0.1-2.1-1.8-5.8-1.8c-3.6,0-5.2,1.6-5.3,1.7l-1.9-1.7
	c0.1-0.1,2.3-2.5,7.1-2.5c4.7,0,7.4,2.3,7.5,2.4L417.8,201.8z"/>
<polygon id="XMLID_524_" class="st1" points="370.6,172.9 365.1,161.3 371.7,171.7 "/>
<path id="XMLID_522_" class="st3" d="M348.5,268.1c-0.1,1.6-0.9,12.2,0,14.7c1,2.7,19.6,38.1,19.6,38.1l9.5-41l29.6,156.9v93.4
	H286.6V412.4c0,0-2.1-112.6,3.3-119C294.6,287.9,320.3,272.5,348.5,268.1z"/>
<path id="XMLID_519_" class="st1" d="M226.1,384.2c-16.3,25.6,62.6,103.2,62.6,103.2s24.6,6.4,10.8-12.8
	c-13.8-19.2-28.9-49-41.2-74.6C253.4,391.1,235.7,369.2,226.1,384.2z"/>
<path id="XMLID_520_" class="st6" d="M397.4,244.6c-5.6,0-8.2-4-8.3-4.2c-0.4-0.6-0.2-1.4,0.4-1.8c0.6-0.4,1.4-0.2,1.8,0.4
	c0.1,0.1,2.3,3.4,7.1,3c3-0.3,5.3-2.7,5.4-2.7c0.5-0.5,1.3-0.5,1.8,0s0.5,1.3,0,1.8c-0.1,0.1-3,3.1-7,3.5
	C398.2,244.6,397.8,244.6,397.4,244.6z"/>
<path id="XMLID_1378_" class="st5" d="M249.4,428.7c-12.1-24.7-10.8-31.9-10.8-31.9s-2.8-9.5-5.7-17.6c-2.5,0.4-4.8,1.9-6.7,5
	c-16.3,25.6,62.6,103.2,62.6,103.2l0,0l3.8-4.5C292.5,482.8,261.5,453.4,249.4,428.7z"/>
<path id="XMLID_517_" class="st3" d="M290.3,292.1c0,0-63.9,84.3-65.6,95.3c-1.7,11,35.9,11.7,35.9,11.7s49.6-55.9,58.9-71.2
	C328.8,312.6,335.9,276.2,290.3,292.1z"/>
<path id="XMLID_516_" class="st1" d="M462.2,387.4c13.5-10.1-33.6-82.4-34.6-89.3c-1-7-21.8,0.3-15.2,8.4c6.6,8,10,27,19.9,69
	C434.6,385.3,447.9,398,462.2,387.4z"/>
<path id="XMLID_499_" class="st1" d="M412.4,306.5l15.2-8.4c0,0-0.7-11.4-4.9-18.8c-4.2-7.4-13.6-16.6-16.3-17.8
	c-2.6-1.2-2.7,5.1,0.6,8.6s4.7,6.8,4.3,8.4s-10.4-3.2-15.7-9.2s-5.6-13-7.6-15.3c-2-2.2-5.3-2.9-4.5,3.2c0.7,6.1,3.3,9.6,3.3,9.6
	s-2,16.6,2.9,23.2C394.5,296.8,403.7,298.4,412.4,306.5z"/>
<path id="XMLID_1364_" class="st5" d="M412.4,306.5l2.4-1.3l1.6-0.9c-1.8-2.3-5.2-6.1-11-10.2c-9.3-6.6-10.3-8.1-10.5-11.2
	c-0.3-3.3-10.9-22.1-10.5-30.2c-0.9,0.4-1.4,1.8-1.1,4.6c0.7,6.1,3.3,9.6,3.3,9.6l0,0c0,0-0.8,6.5-0.2,13c0.1,1.3,0.3,2.6,0.5,3.8
	c0.5,2.5,1.3,4.8,2.5,6.4C394.5,296.8,403.7,298.4,412.4,306.5z"/>
<path id="XMLID_1362_" class="st5" d="M455.9,390.6c-16.4-1.8-27.4-57-38-84.2c0,0-1.6-2.7-5.5-6.5c-1.6,1.9-2,4.2-0.1,6.5
	c6.6,8,10,27,19.9,69C434.3,383.8,444.2,394.2,455.9,390.6z"/>
<path id="XMLID_511_" class="st3" d="M386.2,224.2H374c-4.3,0-7.7-3.5-7.7-7.7v-7.8c0-4.3,3.5-7.7,7.7-7.7h12.3
	c4.3,0,7.7,3.5,7.7,7.7v7.8C394,220.7,390.5,224.2,386.2,224.2z M374,203.5c-2.9,0-5.2,2.3-5.2,5.2v7.8c0,2.9,2.3,5.2,5.2,5.2h12.3
	c2.9,0,5.2-2.3,5.2-5.2v-7.8c0-2.9-2.3-5.2-5.2-5.2H374z"/>
<rect id="XMLID_510_" x="392.7" y="211.3" class="st3" width="8.3" height="2.5"/>
<rect id="XMLID_509_" x="357.3" y="200" transform="matrix(0.3137 -0.9495 0.9495 0.3137 47.1337 484.1919)" class="st3" width="2.5" height="18.9"/>
<path id="XMLID_1352_" class="st4" d="M421.1,178.4c0,9.2,0,29.1,0,29.1c0-12.8-11.2-23-21-26.8s-16.2-13.6-16.2-13.6
	s-11.7,5-17,14.1c-5.2,9-8.9,50.3-17.4,65.2s-11.3,19.8-11.3,19.8s-11.8-25.5-11.8-55.6s20.7-63.8,45.3-63.8
	C405.8,146.7,421.1,151.2,421.1,178.4z"/>
<path id="XMLID_1350_" class="st7" d="M349.1,142.2L349.1,142.2c0,0-1.6-2.2-1.8-4.2s-2.5-4-5.1-2.7s-2,4.2,0,5.3
	c2,1,3.8,2.8,3.8,2.8l0,0c-7.9,3.1-15.4,7.1-21.9,11.7c-26.4,18.6-5.4,43.7,0,44.9s9.9-0.4,23.1-5.8c13.2-5.4,32.6-16.1,42.7-26.5
	c9.6-9.9,18.3-15.9,18.3-15.9C397.9,133.8,372.4,133.8,349.1,142.2z"/>
<path id="XMLID_501_" class="st3" d="M419.7,224.2h-12.3c-4.3,0-7.7-3.5-7.7-7.7v-7.8c0-4.3,3.5-7.7,7.7-7.7h12.3
	c4.3,0,7.7,3.5,7.7,7.7v7.8C427.4,220.7,423.9,224.2,419.7,224.2z M407.4,203.5c-2.9,0-5.2,2.3-5.2,5.2v7.8c0,2.9,2.3,5.2,5.2,5.2
	h12.3c2.9,0,5.2-2.3,5.2-5.2v-7.8c0-2.9-2.3-5.2-5.2-5.2H407.4z"/>
<path id="XMLID_497_" class="st0" d="M1101.7,820.1c0,0,4.1,11.9,4.8,18.9c0.6,7,0.6,7,0.6,7s-26.6,17.1-47.6,16.2
	c-20.9-1-19-8.9-19-8.9s31.8-19.7,36.1-23.8c4.2-4.1,3.9-9.4,3.9-9.4H1101.7z"/>
<path id="XMLID_495_" class="st0" d="M1045.9,813.7h-26.6c0,0,0,9.8-2.3,11.7s-28.7,1.9-38.8,10.5s-4.4,11.7-4.4,11.7h74.3
	c0,0,2.1-11.4,0-17.8C1045.8,823.6,1045.9,813.7,1045.9,813.7z"/>
<path id="XMLID_494_" class="st1" d="M295.4,474.6c0,0,3.9-2.5,10.3,0.1c6.6,2.6,11.9,5.4,10.2,9c-1.5,3.3-9.9-2-9.9-2l1.4,2.7
	l-10.1,16c0,0-10.4-4.3-12.8-13L295.4,474.6z"/>
<path id="XMLID_492_" class="st8" d="M1106.3,284.1c-5.4-6.3-39-26-72-26.5l-41.9,14.1l-0.4,77.6
	C992,349.4,1111.7,290.5,1106.3,284.1z"/>
<polygon id="XMLID_491_" class="st2" points="1018.9,262.8 984.5,275.8 921.2,367.4 955.4,386.5 989.5,349.4 989.5,471.9 
	1018.9,471.9 1018.9,286.2 "/>
<path id="XMLID_490_" class="st3" d="M1073.5,172.3c0,0,0,48.4,0,55.2s5.4,12,15.5,12c10.2,0,13.5,17.2,0,17.2s-60.3,0-60.3,0
	l-9.9-66L1073.5,172.3z"/>
<path id="XMLID_487_" class="st5" d="M1037.6,281.9L1037.6,281.9c-8.3,2.1-16.8-3-18.9-11.3l-11.2-44.6c-2.1-8.3,3-16.8,11.3-18.9
	l0,0c8.3-2.1,16.8,3,18.9,11.3l11.2,44.6C1051,271.3,1045.9,279.8,1037.6,281.9z"/>
<path id="XMLID_484_" class="st3" d="M1039.9,236.1h-30.7c-18.5,0-33.6-15.1-33.6-33.6v-30.1c0-18.5,15.1-33.6,33.6-33.6h30.7
	c18.5,0,33.6,15.1,33.6,33.6v30.1C1073.5,221,1058.4,236.1,1039.9,236.1z"/>
<path id="XMLID_483_" class="st5" d="M1020.6,256.7h-11.4c-18.5,0-33.6-15.1-33.6-33.6v-47.2c0-18.5,15.1-33.6,33.6-33.6h11.4
	c18.5,0,33.6,15.1,33.6,33.6v47.2C1054.3,241.6,1039.1,256.7,1020.6,256.7z"/>
<path id="XMLID_481_" class="st1" d="M1009.2,256.7L1009.2,256.7c-18.5,0-33.6-15.1-33.6-33.6v-47.2c0-18.5,15.1-33.6,33.6-33.6l0,0
	c18.5,0,33.6,15.1,33.6,33.6v47.2C1042.8,241.6,1027.7,256.7,1009.2,256.7z"/>
<path id="XMLID_480_" class="st3" d="M1054.3,195c0,0-2.9-10.2-7.1,0c-4.3,10.2,5,31.6,1.6,31.6c0,0-10.5-14-10.5-37.3
	c0-11.7-13.3-25.6-13.3-25.6s-6,10.5-21.3,13.4c-25.6,4.9-26.7,11.8-28.1,16.5c0,0-8.8-54.8,26.2-54.8c28.4,0,29.6,0,29.6,0
	l12.1,5.2l14.9,14.4L1054.3,195z"/>
<path id="XMLID_478_" class="st5" d="M1047.1,195c0,0,1.7-3.5,7.1-3.5s8.4,2.5,8.4,16s-8.4,14.2-8.4,14.2L1047.1,195z"/>
<circle id="XMLID_473_" class="st6" cx="1014.9" cy="206.3" r="4.5"/>
<circle id="XMLID_471_" class="st6" cx="984.5" cy="206.3" r="4.5"/>
<path id="XMLID_477_" class="st3" d="M1021.3,194.1c-0.3,0-0.7-0.1-0.9-0.4c-0.1-0.1-1.7-1.7-5.3-1.7c-3.7,0-5.8,1.7-5.8,1.8
	c-0.5,0.4-1.3,0.4-1.8-0.1s-0.4-1.3,0.1-1.8c0.1-0.1,2.8-2.4,7.5-2.4c4.8,0,7,2.4,7.1,2.5c0.5,0.5,0.4,1.3-0.1,1.8
	C1022,193.9,1021.6,194.1,1021.3,194.1z"/>
<path id="XMLID_474_" class="st3" d="M990.9,194.1c-0.3,0-0.7-0.1-0.9-0.4c-0.1-0.1-1.7-1.7-5.3-1.7c-3.7,0-5.8,1.7-5.8,1.8
	c-0.5,0.4-1.3,0.4-1.8-0.1s-0.4-1.3,0.1-1.8c0.1-0.1,2.8-2.4,7.5-2.4c4.8,0,7,2.4,7.1,2.5c0.5,0.5,0.4,1.3-0.1,1.8
	C991.5,193.9,991.2,194.1,990.9,194.1z"/>
<polygon id="XMLID_470_" class="st1" points="1026,164.9 1031.5,153.3 1024.9,163.7 "/>
<path id="XMLID_469_" class="st2" d="M1047.8,258.8c0.1,1.6,0.9,12.2,0,14.7c-1,2.7-19.6,38.1-19.6,38.1l-9.5-41L992,427.5v93.4
	h117.6V403.1c0,0,2.1-112.6-3.3-119C1101.7,278.7,1076,263.3,1047.8,258.8z"/>
<path id="XMLID_468_" class="st1" d="M1152.5,387.1c12.1,11.8-37.6,87.8-37.6,87.8l-15.5-12c0,0,19.8-57.4,22.7-67
	C1124.9,386.2,1139.8,374.6,1152.5,387.1z"/>
<path id="XMLID_465_" class="st1" d="M1099.3,462.9c0,0-6.7-0.7-13,2.2c-6.3,2.8-8.3,7.1-5.8,9.6c2.6,2.5,8.6-4.4,8.6-4.4l-0.9,2.9
	l16.8,17.1c0,0,9.2-6.4,9.7-15.4L1099.3,462.9z"/>
<path id="XMLID_1285_" class="st5" d="M1099.4,484.4L1099.4,484.4l5.8,5.9c0,0,9.2-6.4,9.7-15.4l-6.3-4.9
	C1109.7,473.8,1099.4,484.4,1099.4,484.4z"/>
<path id="XMLID_1283_" class="st5" d="M1143.1,381.9c4,6.1,0.7,17-8.2,39c-8.9,22-26.3,49.1-26.3,49.1l0,0l6.3,4.9
	c0,0,49.7-76.1,37.6-87.8C1149.4,384.1,1146.2,382.5,1143.1,381.9z"/>
<polygon id="XMLID_1281_" class="st2" points="957.7,388 919.4,366.6 930.9,350 970.8,373.7 "/>
<polygon id="XMLID_464_" class="st1" points="950.4,383.9 916.9,419.8 898,410 926.9,370.3 "/>
<path id="XMLID_466_" class="st6" d="M999.2,236.6c-0.4,0-0.7,0-1.1-0.1c-4-0.4-6.8-3.4-7-3.5c-0.5-0.5-0.5-1.3,0-1.8s1.3-0.5,1.8,0
	c0,0,2.4,2.4,5.3,2.7c4.8,0.4,7-2.8,7.1-3c0.4-0.6,1.2-0.8,1.8-0.4c0.6,0.4,0.8,1.2,0.4,1.7C1007.4,232.6,1004.8,236.6,999.2,236.6z
	"/>
<polygon id="XMLID_463_" class="st2" points="1106,497.8 1106,820.1 1072.9,820.1 1050.2,497.8 "/>
<polygon id="XMLID_456_" class="st2" points="1050.9,497.8 1048.5,813.7 1015.9,813.7 995.1,497.8 "/>
<path id="XMLID_452_" class="st9" d="M931.1,705h-40.7c-6.7,0-12.3-5.5-12.3-12.3V675c0-6.7,5.5-12.3,12.3-12.3h40.7
	c6.7,0,12.3,5.5,12.3,12.3v17.8C943.4,699.5,937.9,705,931.1,705z"/>
<path id="XMLID_449_" class="st9" d="M970.8,691.9H850.7c-6.7,0-12.3-5.5-12.3-12.3v-17.8c0-6.7,5.5-12.3,12.3-12.3h120.1
	c6.7,0,12.3,5.5,12.3,12.3v17.8C983.1,686.4,977.6,691.9,970.8,691.9z"/>
<rect id="XMLID_448_" x="379.1" y="540.1" class="st9" width="25.4" height="323"/>
<rect id="XMLID_447_" x="466.6" y="540.1" class="st9" width="25.4" height="322.1"/>
<rect id="XMLID_441_" x="898.1" y="705" class="st10" width="25.4" height="108.7"/>
<path id="XMLID_440_" class="st9" d="M894.5,813.7v-46.8c0-2.1,1.7-3.8,3.8-3.8h25.1c2.1,0,3.8,1.7,3.8,3.8v46.8
	c0,2.1-1.7,3.8-3.8,3.8h-25.1C896.2,817.4,894.5,815.8,894.5,813.7z"/>
<rect id="XMLID_435_" x="416.7" y="584.4" class="st11" width="128.6" height="262.3"/>
<rect id="XMLID_434_" x="416.7" y="846.7" class="st9" width="229.3" height="15.5"/>
<rect id="XMLID_432_" x="545.3" y="584.4" class="st12" width="100.7" height="262.3"/>
<rect id="XMLID_430_" x="646" y="612.8" class="st11" width="51.6" height="56.7"/>
<rect id="XMLID_428_" x="684.9" y="607.3" class="st12" width="12.7" height="62.2"/>
<rect id="XMLID_427_" x="672.2" y="592" class="st13" width="12.7" height="20.7"/>
<rect id="XMLID_425_" x="646" y="592" class="st14" width="26.2" height="20.7"/>
<path id="XMLID_423_" class="st11" d="M943,678.4H770.3c-11.5,0-20.9-9.3-20.9-20.9v-7.8c0-11.5,9.3-20.9,20.9-20.9H943
	c11.5,0,20.9,9.3,20.9,20.9v7.8C963.9,669,954.5,678.4,943,678.4z"/>
<path id="XMLID_420_" class="st11" d="M1018.6,649.8H861.9c-5,0-9-4.1-9-9c0,0-5.1-94.5-5.1-126c0-32,5.1-128,5.1-128c0-5,4.1-9,9-9
	h156.7c5,0,9,4.1,9,9c0,0-5.1,96-5.1,128c0,31.5,5.1,126,5.1,126C1027.6,645.7,1023.6,649.8,1018.6,649.8z"/>
<path id="XMLID_418_" class="st12" d="M1022.6,514.7c0-32,5.1-128,5.1-128c0-5-4.1-9-9-9h-4.4c-5,0-9,4.1-9,9c0,0-5.1,96-5.1,128
	c0,24.7,3.1,87.9,4.5,114.2H945c-11.5,0-20.9,9.3-20.9,20.9v7.8c0,11.5,9.3,20.9,20.9,20.9h77.3c3.1,0,5.6-2.5,5.6-5.6v-23.1
	c0-1.9-0.3-3.7-0.7-5.5c0.5-1.1,0.7-2.3,0.7-3.6C1027.6,640.7,1022.6,546.2,1022.6,514.7z"/>
<rect id="XMLID_417_" x="503.5" y="503.9" class="st11" width="126.3" height="10.8"/>
<rect id="XMLID_414_" x="629.8" y="503.9" class="st15" width="32.7" height="10.8"/>
<path id="XMLID_412_" class="st8" d="M1005.4,484.9c0,0-59.9-82.9-65.3-89.2c-5.4-6.3-39-26-72-26.5l-41.9,14.1l-96.1,131.3h37.3
	l58.4-53.7v53.7v68.8h140.6v-68.8L1005.4,484.9z"/>
<polygon id="XMLID_411_" class="st2" points="852.6,374.4 826.2,383.3 730.1,514.7 774.9,514.7 815.6,461 815.6,514.7 815.6,583.5 
	852.6,583.5 852.6,397.8 "/>
<path id="XMLID_410_" class="st5" d="M874.6,397.8L874.6,397.8c-6,6-15.9,6-22,0l-32.5-32.5c-6-6-6-15.9,0-22l0,0c6-6,15.9-6,22,0
	l32.5,32.5C880.7,381.8,880.7,391.7,874.6,397.8z"/>
<polygon id="XMLID_409_" class="st8" points="741,475.6 755.2,382.3 790.7,382.3 775,475.6 "/>
<polygon id="XMLID_407_" class="st2" points="730.1,514.7 752.1,393.9 790.7,393.9 774.9,514.7 "/>
<polygon id="XMLID_405_" class="st1" points="782.5,382.3 789.1,372.5 795.3,368.6 789.4,340.7 780.4,345.9 760,382.3 "/>
<path id="XMLID_404_" class="st3" d="M881.4,370.3c0,0,8.2,5.1,8.2,20.4c0,15.3,0,192.9,0,192.9h76.8v-68.8l44.2-27l-69.2-94.2
	C941.3,393.5,913.9,369.4,881.4,370.3z"/>
<path id="XMLID_402_" class="st2" d="M852.6,581.5c0,0-72,0-91.5,0c-19.6,0-39,0-51.3,43.1C697.5,667.7,684,813.7,684,813.7h51.6
	l34.6-184.9h31.1h50.8L852.6,581.5z"/>
<polygon id="XMLID_400_" class="st9" points="927.1,797.4 1030.8,817.4 1030.8,834.7 1021.3,835.7 1021.3,826.5 927.1,811.3 "/>
<polygon id="XMLID_399_" class="st9" points="894.5,797.4 790.8,817.4 790.8,834.7 800.3,835.7 800.3,826.5 894.5,811.3 "/>
<polygon id="XMLID_398_" class="st9" points="927.1,796.4 961.6,817.4 961.6,834.7 952.1,835.7 952.1,826.5 927.1,810.4 "/>
<polygon id="XMLID_397_" class="st9" points="894.5,796.4 859.9,817.4 859.9,834.7 869.4,835.7 869.4,826.5 894.5,810.4 "/>
<path id="XMLID_395_" class="st9" d="M794.9,830.2c-10.5,0-19,8.5-19,19H814C814,838.8,805.4,830.2,794.9,830.2z"/>
<path id="XMLID_394_" class="st9" d="M864.1,830.2c-10.5,0-19,8.5-19,19h38.1C883.1,838.8,874.6,830.2,864.1,830.2z"/>
<path id="XMLID_393_" class="st9" d="M957.5,830.2c-10.5,0-19,8.5-19,19h38.1C976.5,838.8,968,830.2,957.5,830.2z"/>
<path id="XMLID_392_" class="st9" d="M1026.6,830.2c-10.5,0-19,8.5-19,19h38.1C1045.7,838.8,1037.1,830.2,1026.6,830.2z"/>
<polygon id="XMLID_391_" class="st10" points="691.7,813.7 730.6,813.7 728,835.7 689.2,835.7 "/>
<rect id="XMLID_390_" x="653.2" y="854.3" class="st16" width="79.1" height="8.5"/>
<path id="XMLID_389_" class="st0" d="M727.4,828.4c0,0,1.1,6.6-9,6.6s-12.8-13.4-12.8-13.4h-19l-4.2,13.7c0,0-5.2,6.3-14.9,6.3h-3.1
	c-6.1,0-11.1,5-11.1,11.1v1.7h79.1v-12.8C732.3,834.6,732,828.4,727.4,828.4z"/>
<path id="XMLID_388_" class="st3" d="M1000.9,514.7h-73.8v-30.5h73.8c8.4,0,15.2,6.8,15.2,15.2l0,0
	C1016.1,507.9,1009.3,514.7,1000.9,514.7z"/>
<rect id="XMLID_387_" x="916.6" y="488.7" class="st8" width="10.5" height="26"/>
<path id="XMLID_384_" class="st1" d="M895.1,487.8c-8.9-1.1-23.9,5.1-28.1,7.6s-16.3,14.6-16.5,16.5c-0.2,1.9,3.8,2.7,4.7,2.7
	c0.8,0,16.3-12.1,16.3-12.1s-9.1,8.2-10.4,10.2c-1.3,1.9,5.3,1.9,5.3,1.9l11.4-8.9c0,0-5.7,5.1-6.1,7c-0.4,1.9,3.6,1.9,3.6,1.9
	l4.6-2.5c0,0,2.6,2.5,10.2,2.5c5,0,9.6,0,10.8,0c3,0,15.8,0,15.8,0v-22.2C916.6,492.5,904,488.9,895.1,487.8z"/>
<polygon id="XMLID_382_" class="st5" points="789.4,340.7 780.4,345.9 789.3,365.6 778.6,382.3 787.6,382.3 794.1,372.5 
	800.3,368.6 "/>
<path id="XMLID_680_" class="st3" d="M865.6,355.1h-63c-7.3,0-13.3-6-13.3-13.3V271c0-7.3,6-13.3,13.3-13.3h63
	c7.3,0,13.2,6,13.2,13.3v70.9C878.8,349.1,872.9,355.1,865.6,355.1z"/>
<path id="XMLID_381_" class="st5" d="M834.4,383.3H823c-18.5,0-33.6-15.1-33.6-33.6v-58.4c0-18.5,15.1-33.6,33.6-33.6h11.4
	c18.5,0,33.6,15.1,33.6,33.6v58.4C868.1,368.2,852.9,383.3,834.4,383.3z"/>
<path id="XMLID_380_" class="st1" d="M823,383.3L823,383.3c-18.5,0-33.6-15.1-33.6-33.6v-58.4c0-18.5,15.1-33.6,33.6-33.6l0,0
	c18.5,0,33.6,15.1,33.6,33.6v58.4C856.6,368.2,841.5,383.3,823,383.3z"/>
<path id="XMLID_670_" class="st3" d="M868.1,314H861c0,0-1,15.7-4.3,15.7c0,0-4.6,1.9-4.6-21.5c0-23.4-7.5-25.7-7.5-25.7
	s-11.9,10.3-27.1,13.5s-32.7,3.2-35.4,7.5c0,0-1.6-45.8,33.5-45.8c28.4,0,29.6,0,29.6,0l12.1,5.2l14.9,14.4L868.1,314z"/>
<path id="XMLID_379_" class="st5" d="M860.9,314c0,0,1.7-3.5,7.1-3.5s8.4,2.5,8.4,16s-8.4,14.2-8.4,14.2L860.9,314z"/>
<circle id="XMLID_663_" class="st6" cx="828.7" cy="325.3" r="4.5"/>
<circle id="XMLID_660_" class="st6" cx="798.3" cy="325.3" r="4.5"/>
<rect id="XMLID_378_" x="345.2" y="514.7" class="st17" width="761.4" height="25.4"/>
<rect id="XMLID_377_" x="1068.1" y="540.1" class="st9" width="25.4" height="323"/>
<rect id="XMLID_374_" x="1155.7" y="540.1" class="st9" width="25.4" height="323"/>
<rect id="XMLID_372_" x="1106.6" y="514.7" class="st18" width="116.7" height="25.4"/>
<circle id="XMLID_371_" class="st10" cx="1026.6" cy="849.3" r="13.8"/>
<circle id="XMLID_370_" class="st10" cx="794.9" cy="849.3" r="13.8"/>
<circle id="XMLID_369_" class="st10" cx="957.5" cy="849.3" r="13.8"/>
<circle id="XMLID_368_" class="st10" cx="864.1" cy="849.3" r="13.8"/>
<path id="XMLID_367_" class="st3" d="M795.3,813.7h52.5c0,0,2.5-168.4,8.9-184.9h88.1c0,0,21.7-21.9,21.7-45.4c0,0-100.9,0-124.4,0
	s-38.7,9.2-41.9,58.1C797,690.4,795.3,813.7,795.3,813.7z"/>
<rect id="XMLID_366_" x="799.5" y="813.7" class="st10" width="38.9" height="22"/>
<rect id="XMLID_365_" x="764.2" y="854.3" class="st16" width="79.1" height="8.5"/>
<path id="XMLID_274_" class="st0" d="M838.4,828.4c0,0,1.1,6.6-9,6.6s-12.8-13.4-12.8-13.4h-19l-4.2,13.7c0,0-5.2,6.3-14.9,6.3h-3.1
	c-6.1,0-11.1,5-11.1,11.1v1.7h79.1v-12.8C843.3,834.6,843,828.4,838.4,828.4z"/>
<path id="XMLID_364_" class="st6" d="M824.2,361.1h-18.4c-0.7,0-1.3-0.6-1.3-1.3c0-0.7,0.6-1.3,1.3-1.3h18.4c0.7,0,1.3,0.6,1.3,1.3
	C825.5,360.5,824.9,361.1,824.2,361.1z"/>
<path id="XMLID_361_" class="st3" d="M835.1,313.1c-0.3,0-0.7-0.1-0.9-0.4c-0.1-0.1-1.7-1.7-5.3-1.7c-3.7,0-5.8,1.7-5.8,1.8
	c-0.5,0.5-1.3,0.4-1.8-0.1s-0.4-1.3,0.1-1.8c0.1-0.1,2.8-2.4,7.5-2.4c4.8,0,7,2.4,7.1,2.5c0.5,0.5,0.4,1.3-0.1,1.8
	C835.8,313,835.5,313.1,835.1,313.1z"/>
<path id="XMLID_275_" class="st3" d="M804.7,313.1c-0.3,0-0.7-0.1-0.9-0.4c-0.1-0.1-1.7-1.7-5.3-1.7c-3.7,0-5.8,1.7-5.8,1.8
	c-0.5,0.5-1.3,0.4-1.8-0.1s-0.4-1.3,0.1-1.8c0.1-0.1,2.8-2.4,7.5-2.4c4.8,0,7,2.4,7.1,2.5c0.5,0.5,0.4,1.3-0.1,1.8
	C805.3,313,805,313.1,804.7,313.1z"/>
<polygon id="XMLID_273_" class="st19" points="960.1,484.2 927.1,447.7 927.1,484.2 "/>
<path id="XMLID_270_" class="st5" d="M881.4,508.2c-2.5,0.6-8.6,6.1-8.6,6.1l0,0c1.1,0.4,2.5,0.4,2.5,0.4l4.6-2.5
	c0,0,2.6,2.5,10.2,2.5c5,0,9.6,0,10.8,0c3,0,15.8,0,15.8,0v-6.5C916.6,508.2,883.9,507.5,881.4,508.2z"/>
<path id="XMLID_593_" class="st20" d="M1068.3,472.4"/>
<rect id="XMLID_257_" x="969.8" y="487.2" class="st21" width="161.1" height="27.4"/>
<rect id="XMLID_235_" x="969.8" y="487.2" class="st22" width="64.9" height="27.4"/>
<rect id="XMLID_223_" x="976.9" y="493.3" class="st8" width="153.9" height="15.3"/>
<rect id="XMLID_179_" x="982.7" y="459.8" class="st14" width="161.1" height="27.4"/>
<rect id="XMLID_178_" x="982.7" y="459.8" class="st13" width="64.9" height="27.4"/>
<rect id="XMLID_176_" x="989.9" y="465.4" class="st8" width="153.9" height="16.2"/>
<path id="XMLID_137_" class="st2" d="M1106.3,284.1c0,0,48.4,91.8,50.1,102.8s-36.9,8.8-36.9,8.8s-33.2-60.5-42.5-75.7
	S1060.7,268.2,1106.3,284.1z"/>
<path id="XMLID_567_" class="st5" d="M301.2,494.3c0,0-9.9-1-12.7-11.5l-3.8,4.5c2.4,8.7,12.8,13,12.8,13L301.2,494.3L301.2,494.3z"
	/>
<path id="XMLID_135_" class="st11" d="M714.8,467.1h-255c-4.4,0-7.9-3.6-7.9-7.9v-165c0-4.4,3.6-7.9,7.9-7.9h255.1
	c4.4,0,7.9,3.6,7.9,7.9v165C722.8,463.5,719.2,467.1,714.8,467.1z"/>
<path id="XMLID_134_" class="st15" d="M714.8,467.1L714.8,467.1c-4.4,0-7.9-3.6-7.9-7.9v-165c0-4.4,3.6-7.9,7.9-7.9l0,0
	c4.4,0,7.9,3.6,7.9,7.9v165C722.8,463.5,719.2,467.1,714.8,467.1z"/>
<polygon id="XMLID_77_" class="st12" points="595.9,503.9 544.5,503.9 549.5,376.7 600.9,376.7 "/>
<polygon id="XMLID_76_" class="st15" points="588.9,503.9 537.5,503.9 542.6,376.7 594,376.7 "/>
<path id="XMLID_4_" class="st5" d="M348.1,279.8c0,0,13.8,21.9,29.5,0.1l-9.5,41l-20-38.6V279.8z"/>
</svg>
